<?xml version="1.0" encoding="UTF-8" standalone="no"?>
<!-- Created with Inkscape (http://www.inkscape.org/) -->

<svg
   xmlns:dc="http://purl.org/dc/elements/1.1/"
   xmlns:cc="http://creativecommons.org/ns#"
   xmlns:rdf="http://www.w3.org/1999/02/22-rdf-syntax-ns#"
   xmlns:svg="http://www.w3.org/2000/svg"
   xmlns="http://www.w3.org/2000/svg"
   xmlns:sodipodi="http://sodipodi.sourceforge.net/DTD/sodipodi-0.dtd"
   xmlns:inkscape="http://www.inkscape.org/namespaces/inkscape"
   width="209.99962mm"
   height="167.44281mm"
   viewBox="0 0 209.99962 167.44281"
   version="1.1"
   id="svg8"
   inkscape:version="0.92.3 (2405546, 2018-03-11)"
   sodipodi:docname="academia.svg">
  <defs
     id="defs2" />
  <sodipodi:namedview
     id="base"
     pagecolor="#ffffff"
     bordercolor="#666666"
     borderopacity="1.0"
     inkscape:pageopacity="0.0"
     inkscape:pageshadow="2"
     inkscape:zoom="0.49497475"
     inkscape:cx="411.73531"
     inkscape:cy="282.69333"
     inkscape:document-units="mm"
     inkscape:current-layer="layer1"
     showgrid="false"
     fit-margin-top="0"
     fit-margin-left="0"
     fit-margin-right="0"
     fit-margin-bottom="0"
     inkscape:window-width="1920"
     inkscape:window-height="1017"
     inkscape:window-x="-8"
     inkscape:window-y="-8"
     inkscape:window-maximized="1" />
  <metadata
     id="metadata5">
    <rdf:RDF>
      <cc:Work
         rdf:about="">
        <dc:format>image/svg+xml</dc:format>
        <dc:type
           rdf:resource="http://purl.org/dc/dcmitype/StillImage" />
        <dc:title></dc:title>
      </cc:Work>
    </rdf:RDF>
  </metadata>
  <g
     inkscape:label="Layer 1"
     inkscape:groupmode="layer"
     id="layer1"
     transform="translate(-356.47955,798.78301)">
    <path
       style="fill:#000000;stroke-width:0.49930736"
       d="m 511.87224,-631.76269 c -0.15399,-0.24905 -0.0587,-2.5521 0.21153,-5.1179 0.27026,-2.56581 0.49528,-6.46767 0.50004,-8.67084 l 0.009,-4.00573 -1.72025,-0.92642 c -0.94614,-0.50953 -2.05036,-0.79973 -2.45383,-0.64489 -0.40347,0.15474 -1.58673,-0.15343 -2.62946,-0.68507 -1.04268,-0.53159 -2.48805,-0.96656 -3.21188,-0.96656 h -1.31606 l -0.30772,5.36755 c -0.29177,5.0895 -0.94493,8.27567 -1.91502,9.34185 -0.2504,0.2752 -0.30104,-0.50519 -0.11889,-1.83348 0.17437,-1.27192 0.15871,-3.36772 -0.0347,-4.65734 -0.35109,-2.34114 -0.35426,-2.34433 -2.05977,-2.06756 -1.65685,0.26888 -1.70815,0.22749 -1.70815,-1.37784 0,-1.91936 -1.07137,-3.15716 -1.8678,-2.15797 -0.27631,0.34666 -0.76029,2.42781 -1.0755,4.62475 -0.71246,4.96582 -1.81504,9.2121 -2.57984,9.93558 -0.68991,0.65263 -0.53905,-1.28696 0.96691,-12.43211 0.55662,-4.1193 1.07924,-8.95009 1.16139,-10.73512 0.14078,-3.05961 0.0834,-3.25484 -1.001,-3.40856 -0.65644,-0.093 -1.34289,-0.66956 -1.59884,-1.34275 -0.24667,-0.64882 -0.93548,-1.44027 -1.53067,-1.75882 -1.0107,-0.54091 -1.05891,-0.81488 -0.73034,-4.14962 0.19349,-1.96379 0.52793,-3.79519 0.74321,-4.0698 0.43412,-0.5538 1.01923,-3.14629 2.31017,-10.23581 0.47505,-2.60888 1.26105,-6.53396 1.74665,-8.72239 0.48562,-2.18844 0.7324,-4.21064 0.54844,-4.49376 -0.6792,-1.04539 -1.52304,-6.1033 -1.54367,-9.25268 -0.0113,-1.78503 0.42327,-5.25631 0.96656,-7.71397 0.54329,-2.45767 0.98781,-5.2775 0.98781,-6.26631 0,-2.85827 2.27605,-4.30943 2.5882,-1.65016 0.15758,1.34318 0.16003,1.34216 1.13567,-0.48137 l 0.97767,-1.82738 -1.10251,-1.17356 c -1.35348,-1.44071 -1.35727,-1.64727 -0.0742,-4.04116 0.56556,-1.05521 0.93081,-2.01603 0.81166,-2.13519 -0.45069,-0.45069 -3.42274,2.52919 -5.21654,5.23028 l -1.86613,2.81 -0.32913,16.23884 c -0.18098,8.93137 -0.5542,17.24995 -0.82927,18.48573 -0.27507,1.23579 -1.07794,5.16783 -1.78415,8.73788 -0.70621,3.57004 -1.84517,8.62554 -2.53104,11.23442 -0.68588,2.60889 -1.25155,5.24897 -1.25705,5.86686 -0.006,0.61789 -0.19756,1.12344 -0.42677,1.12344 -0.22924,0 -0.90833,2.19071 -1.5091,4.86825 -0.60077,2.67754 -1.33015,5.20527 -1.62083,5.6172 -0.40753,0.57749 -0.46201,0.44274 -0.23793,-0.58851 0.15984,-0.73561 0.74876,-4.06729 1.30875,-7.40372 0.55998,-3.33646 1.22304,-6.44195 1.47351,-6.90111 0.25046,-0.45916 1.39884,-6.00267 2.55198,-12.31891 l 2.0966,-11.48406 0.0493,-16.02574 c 0.0342,-11.077 0.22315,-16.24221 0.61232,-16.72679 0.30966,-0.38558 0.73287,-1.26278 0.94046,-1.94933 0.85582,-2.83051 4.70483,-6.81501 9.98059,-10.33199 1.92234,-1.28149 4.52335,-3.2732 5.78004,-4.42602 1.25669,-1.15282 2.77333,-2.25106 3.37031,-2.44055 1.76822,-0.5612 1.24737,-1.19132 -1.28626,-1.55612 -1.68533,-0.24267 -2.80522,-0.77666 -3.86963,-1.84514 -1.37174,-1.377 -1.50147,-1.80294 -1.54008,-5.05667 -0.03,-2.51892 -0.35688,-4.2353 -1.12345,-5.89733 -0.5947,-1.28935 -1.08128,-2.64872 -1.08128,-3.02079 0,-0.37207 -0.26011,-0.93661 -0.57802,-1.2545 -0.39956,-0.39958 -0.42007,-0.77722 -0.0664,-1.2233 0.28135,-0.35492 0.65925,-1.80757 0.83974,-3.22812 0.25693,-2.02209 0.12059,-2.99765 -0.62835,-4.49376 -1.46187,-2.92057 -0.94432,-5.15954 1.91844,-8.29952 1.30322,-1.42944 2.54344,-3.16069 2.75604,-3.84723 0.666,-2.15071 3.14918,-5.17852 5.61781,-6.84995 4.63657,-3.13928 16.7462,-4.06223 23.09505,-1.76025 1.51041,0.54765 3.5326,1.28079 4.49376,1.62919 0.96118,0.34841 2.53399,1.05941 3.49517,1.58 0.96116,0.5206 3.45821,1.76291 5.54898,2.76068 l 3.80143,1.81415 1.10513,3.82461 c 1.27294,4.40528 0.90287,7.86906 -1.55323,14.53793 -0.79313,2.15353 -4.18875,5.16672 -7.77729,6.90133 -4.19471,2.02761 -5.51719,3.22309 -5.91577,5.34766 -0.53368,2.84482 0.0734,3.89602 3.66071,6.33779 3.39505,2.311 5.6238,4.88666 5.6238,6.49918 0,0.51406 0.68645,1.15518 1.68247,1.57136 0.92536,0.38663 2.70545,1.48384 3.95578,2.43823 1.25031,0.95438 2.93142,2.07557 3.73577,2.49152 2.106,1.08905 4.48252,3.9865 5.0579,6.16657 0.27299,1.03438 0.97135,4.57695 1.55193,7.87238 0.58056,3.29543 1.26608,6.93375 1.5234,8.0852 0.25729,1.15142 0.46782,2.89274 0.46782,3.86963 0,0.97686 0.19379,1.77612 0.43063,1.77612 0.23685,0 0.58951,1.96601 0.78364,4.36893 0.19415,2.40293 0.69899,5.94176 1.12187,7.8641 1.61877,7.35864 2.137,11.69525 2.11819,17.72542 l -0.0194,6.24133 -3.25376,2.70898 c -1.78956,1.48992 -4.97812,3.57433 -7.08569,4.63202 -2.10754,1.05769 -5.01152,2.63693 -6.45328,3.50945 l -2.62136,1.58639 0.017,3.51808 c 0.009,1.93495 0.32202,6.6637 0.69579,10.50838 0.37379,3.84467 0.61383,7.06125 0.53348,7.14797 -0.0804,0.0868 -0.45267,-1.26141 -0.82732,-2.99585 -0.50368,-2.33168 -0.89798,-3.15517 -1.51306,-3.15987 -0.45752,-0.004 -0.98202,-0.15645 -1.16556,-0.34009 -0.18362,-0.18362 -0.62604,-0.22153 -0.98335,-0.0843 -0.3573,0.137 -0.79797,0.009 -0.97926,-0.28407 -0.58709,-0.94994 -1.2693,-0.56569 -1.2693,0.71492 0,1.71093 -0.61655,1.57173 -2.97482,-0.67163 -1.45971,-1.3886 -2.01825,-1.688 -2.01825,-1.08185 0,1.21453 -0.55261,1.58187 -1.36521,0.90747 -0.54395,-0.45144 -0.79398,-0.44878 -1.07841,0.0113 -0.42131,0.68167 -2.97681,-0.372 -4.05597,-1.67233 -0.88222,-1.063 -1.48534,-0.90985 -1.51551,0.38484 l -0.0262,1.12344 -0.78368,-1.12344 c -0.43102,-0.61789 -1.22668,-1.12344 -1.76812,-1.12344 -0.55278,0 -1.09502,-0.42274 -1.23657,-0.96406 -0.14928,-0.57081 -0.53625,-0.85503 -0.94865,-0.69678 -0.42116,0.16154 -0.87547,-0.1975 -1.14907,-0.90834 -0.47446,-1.23264 -0.4945,-1.21205 -1.28582,1.32091 -0.12871,0.41193 -0.46571,0.74895 -0.74895,0.74895 -0.28328,2e-5 -0.51501,-0.33702 -0.51501,-0.74895 0,-0.41192 -0.2247,-0.74895 -0.49932,-0.74895 -0.27461,0 -0.4993,0.76022 -0.4993,1.68936 0,1.44559 -0.19815,1.72777 -1.3731,1.95542 -0.82333,0.15946 -1.6887,-0.017 -2.16137,-0.4411 -0.43355,-0.38893 -0.90827,-0.70715 -1.05492,-0.70715 -0.14663,0 -0.55299,2.8086 -0.903,6.24135 -0.58437,5.73146 -0.96399,7.0099 -1.71883,5.78852 z m 24.68698,-17.7719 c 0,-1.27658 -0.21757,-1.74759 -0.80721,-1.74759 -0.59341,0 -0.72745,0.29753 -0.50611,1.12346 0.1655,0.61789 0.30413,1.4043 0.30789,1.74757 0.004,0.34327 0.2315,0.62414 0.50611,0.62414 0.27462,0 0.49932,-0.78642 0.49932,-1.74758 z m 4.59362,0.64909 c -0.32954,-0.32954 -0.59917,-1.22829 -0.59917,-1.99723 0,-0.76893 -0.22468,-1.39805 -0.4993,-1.39805 -0.6385,0 -0.62887,0.47794 0.0489,2.42202 0.30147,0.86484 0.79579,1.57243 1.09847,1.57243 0.37374,0 0.35808,-0.19223 -0.0489,-0.59917 z m -23.76704,-3.31204 c 1.07101,-0.77807 2.25569,-1.78916 2.63259,-2.24689 0.3769,-0.45771 1.32315,-0.8322 2.10281,-0.8322 1.25166,0 1.47956,-0.24829 1.94757,-2.12205 0.29151,-1.16715 0.77026,-2.54539 1.06388,-3.06277 0.33255,-0.58599 0.35435,-1.05667 0.0577,-1.24827 -0.26182,-0.16909 -0.63094,-1.35903 -0.8203,-2.64414 -0.4479,-3.0397 -1.90428,-4.90339 -3.83179,-4.90339 -0.80766,0 -1.85862,-0.20685 -2.33548,-0.45967 -0.47686,-0.25284 -2.85382,-0.74165 -5.28212,-1.08626 -5.14017,-0.72947 -6.4667,-0.28065 -7.91465,2.67781 -0.60631,1.2388 -1.27764,1.8143 -2.37171,2.03311 -1.86379,0.37275 -2.10836,1.8281 -0.30723,1.8281 0.67035,0 1.35346,-0.21787 1.51802,-0.48415 0.37866,-0.61268 6.71035,-2.51675 8.30178,-2.49652 1.80206,0.023 0.19196,0.79379 -2.55036,1.22108 -1.2358,0.19254 -3.64474,1.01981 -5.35321,1.83838 -1.70847,0.81857 -4.34855,1.61653 -5.86686,1.77324 -1.91451,0.19758 -2.76055,0.50166 -2.76055,0.99216 0,1.14739 3.0952,3.6468 4.51609,3.6468 1.33608,0 6.02434,-1.42076 6.46868,-1.96029 0.13739,-0.16664 1.37309,-0.60853 2.74618,-0.98181 4.25538,-1.15676 4.92383,-1.24887 4.53851,-0.62544 -0.19434,0.31444 -0.71849,0.5717 -1.16482,0.5717 -0.44633,0 -1.72504,0.42517 -2.84155,0.94483 -1.74945,0.81423 -5.23465,2.11047 -7.77208,2.89066 -0.61555,0.18926 -0.5763,0.35737 0.22025,0.94359 1.43479,1.05593 4.3433,0.86992 8.36439,-0.53497 3.59953,-1.25759 6.18671,-1.62449 5.6806,-0.80556 -0.15041,0.24348 -1.05418,0.58914 -2.00821,0.76812 -2.23451,0.41919 -7.26397,2.71759 -7.26397,3.31955 0,1.0494 4.25658,0.41817 7.35333,-1.09045 1.75346,-0.85424 3.29746,-1.4438 3.43109,-1.31017 0.26179,0.26178 -3.0832,2.36401 -3.76151,2.36401 -0.69906,0 -1.63369,1.42636 -1.29438,1.97537 0.58011,0.93863 2.57311,0.54787 4.55719,-0.89351 z m 25.50619,-0.67618 c -0.15946,-0.3983 -0.27771,-0.28 -0.30166,0.30168 -0.0217,0.52634 0.0963,0.82124 0.26224,0.65533 0.16588,-0.16588 0.18362,-0.59657 0.0394,-0.95701 z m -8.44095,-1.696 c 1.55149,-0.70966 4.7389,-1.92083 7.08313,-2.69149 4.85903,-1.59737 13.59225,-6.02073 18.74214,-9.49287 l 3.49516,-2.35648 0.15003,-4.44228 c 0.14173,-4.19892 -1.14363,-14.61863 -1.87235,-15.17739 -0.41815,-0.32063 -1.52191,-10.44156 -1.52719,-14.00361 -0.008,-4.86161 -2.32044,-20.12011 -3.37701,-22.27523 -0.24795,-0.50576 -0.99296,-2.04301 -1.65556,-3.41609 -0.97486,-2.02017 -1.6811,-2.73472 -3.70128,-3.7448 -1.3731,-0.68656 -2.6095,-1.36061 -2.74759,-1.49792 -0.49452,-0.49177 -4.45028,-2.49655 -4.92609,-2.49655 -0.26705,0 -0.64184,0.73024 -0.83285,1.62274 -0.62606,2.92512 -1.83618,6.09458 -2.78998,7.3073 -0.51508,0.65493 -0.93651,1.58401 -0.93651,2.06463 0,1.02117 -1.48817,2.08652 -4.1193,2.94895 -1.96771,0.64499 -2.18317,1.15186 -1.38355,3.25497 0.36568,0.9618 0.28106,1.72153 -0.33583,3.01513 -0.66856,1.40198 -0.71383,1.97261 -0.2392,3.01435 0.89526,1.96484 0.7184,2.93067 -0.91243,4.98281 -0.82386,1.03668 -1.49793,2.09473 -1.49793,2.35119 0,0.25648 -0.33702,0.80336 -0.74897,1.21529 -1.8554,1.8554 0.16796,3.33726 4.19556,3.07284 l 2.25931,-0.14833 0.54839,-2.7462 c 0.59524,-2.98088 3.02032,-9.62805 4.09862,-11.2344 0.59205,-0.882 0.63096,-0.73622 0.33327,1.24825 -0.18532,1.2358 -0.57517,2.54774 -0.8662,2.91545 -0.77936,0.98469 -1.09581,9.50359 -0.37962,10.21978 0.43846,0.43848 0.64906,0.30865 0.87003,-0.53632 0.42057,-1.60823 1.30445,-1.37592 0.98262,0.25827 -0.687,3.48835 -0.87758,6.15889 -0.54699,7.6641 l 0.36014,1.6397 0.60498,-1.46882 c 0.57879,-1.40525 0.63086,-1.29604 1.2027,2.52294 0.62921,4.20196 1.51549,5.82266 2.66446,4.87235 0.35707,-0.29532 1.77103,-0.60543 3.14216,-0.68917 2.0344,-0.12417 2.52336,0.006 2.65825,0.70619 0.1789,0.92861 -0.17381,1.11351 -3.02915,1.58805 -1.02984,0.17117 -1.87241,0.48074 -1.87241,0.68796 0,0.20723 1.3721,0.66018 3.04912,1.00657 2.93904,0.60706 5.43911,2.25048 5.43911,3.57542 0,0.76441 -1.98492,0.11361 -3.29037,-1.07888 -1.40802,-1.28611 -3.86499,-1.95121 -7.32403,-1.9826 -2.25543,-0.0206 -3.38543,0.26862 -5.24272,1.3412 -2.48166,1.43316 -8.71069,4.55119 -11.47996,5.74647 -1.89915,0.8197 -1.95152,1.00295 -0.62859,2.20017 1.93323,1.74955 3.48567,5.12094 3.94802,8.57376 0.48773,3.64249 0.12285,7.71295 -0.85154,9.49734 -1.14655,2.09987 -0.62972,2.15728 3.28801,0.36526 z m 1.94174,-5.03424 c -0.18306,-0.18306 -0.33288,-0.56505 -0.33288,-0.84882 0,-0.31287 0.23257,-0.2834 0.59085,0.0749 0.32497,0.32496 0.47477,0.70692 0.33287,0.84881 -0.14191,0.14192 -0.40777,0.10814 -0.59084,-0.0749 z m 3.91124,-1.66435 c -0.16966,-0.27462 -0.084,-0.49932 0.19071,-0.49932 0.27462,0 0.63818,0.2247 0.80791,0.49932 0.16965,0.27461 0.084,0.4993 -0.19073,0.4993 -0.27462,0 -0.63816,-0.22469 -0.80789,-0.4993 z m -10.96192,0.73906 c 0.65023,-5.20426 -0.95443,-10.35113 -3.31277,-10.62563 -2.36626,-0.27543 -2.58968,0.88252 -0.85452,4.42915 1.23727,2.52896 1.62019,4.05185 1.80369,7.17357 0.22939,3.90156 0.24688,3.94589 1.12774,2.85806 0.49211,-0.60772 1.04824,-2.33355 1.23586,-3.83515 z m -30.32433,-4.34112 c 0.15531,-1.34765 2.61251,-3.88756 3.76084,-3.88756 0.32723,0 1.68258,-0.89875 3.01188,-1.99724 2.67592,-2.21122 3.66201,-2.37552 8.39301,-1.39835 2.89792,0.59854 2.90024,0.59807 4.52381,-0.94699 0.89343,-0.85022 2.40345,-1.70998 3.35561,-1.91063 2.5602,-0.53945 3.51153,-1.308 3.51153,-2.83687 0,-0.84923 0.37516,-1.56102 0.99862,-1.89469 1.45912,-0.78088 1.22011,-1.49792 -0.4993,-1.49792 -1.64539,0 -2.00017,-0.69827 -0.62414,-1.22842 0.8123,-0.31297 0.8061,-0.37464 -0.0885,-0.87668 -0.86416,-0.48499 -0.7393,-0.62717 1.22525,-1.39528 2.39319,-0.9357 3.18683,-1.99199 1.49668,-1.99199 -0.73084,0 -0.94618,-0.19772 -0.67979,-0.62414 0.72578,-1.16174 0.58339,-1.87241 -0.37514,-1.87241 -0.52493,0 -0.95443,-0.22468 -0.95443,-0.4993 0,-0.27461 0.70157,-0.49932 1.55905,-0.49932 1.32923,0 1.46742,-0.11039 0.93748,-0.74895 -0.34186,-0.41192 -1.21197,-0.77554 -1.93354,-0.80804 -1.28463,-0.0577 -1.28076,-0.067 0.18589,-0.44023 1.33708,-0.34023 1.24325,-0.38749 -0.87379,-0.44023 -3.15912,-0.0787 -3.02181,-0.8428 0.22895,-1.27402 2.99415,-0.3972 2.4534,-1.26114 -0.79736,-1.27395 -3.40392,-0.0132 -13.49983,-1.09189 -14.53565,-1.55275 -0.54923,-0.24436 -3.35783,-0.66006 -6.24133,-0.92375 -3.96165,-0.3623 -5.38658,-0.33276 -5.83147,0.12096 -0.4997,0.50959 -2.1548,9.84853 -4.26545,24.06783 -0.28533,1.92233 -0.72194,3.75222 -0.97023,4.06641 -0.2483,0.31421 -0.58562,1.70415 -0.7496,3.08876 l -0.29817,2.51748 2.18783,0.20271 c 3.76384,0.34875 4.17108,0.23203 4.34132,-1.24438 z m -7.13892,-4.08599 c 0.40772,-1.56539 0.74131,-3.2876 0.74131,-3.82717 0,-0.53957 0.21038,-1.37118 0.4675,-1.84804 0.50123,-0.92956 2.0588,-10.25113 1.98401,-11.87357 -0.0247,-0.53725 -0.25735,-0.19041 -0.51683,0.77075 -0.25948,0.96118 -0.66835,2.19696 -0.90858,2.74619 -0.91531,2.09257 -3.50575,17.79511 -2.83367,17.17686 0.17872,-0.16437 0.65852,-1.57965 1.06626,-3.14502 z m 9.97496,1.70207 c 0.17494,-0.28303 -0.0255,-0.36674 -0.46984,-0.19624 -0.86501,0.33195 -1.02327,0.68983 -0.30506,0.68983 0.25843,0 0.60714,-0.22212 0.7749,-0.49359 z m -12.2295,-2.86459 c 0,-2.20345 -0.25314,-2.01345 -0.71456,0.53631 -0.23678,1.30841 -0.17834,1.81681 0.18343,1.59328 0.29215,-0.1806 0.53115,-1.13887 0.53115,-2.12959 z m 0.88047,-6.12866 c 0,-1.11347 -0.0411,-1.0865 -0.38115,0.24965 -0.20964,0.82386 -0.38116,2.05965 -0.38116,2.7462 0,1.11345 0.0411,1.08648 0.38116,-0.24965 0.20963,-0.82387 0.38115,-2.05965 0.38115,-2.7462 z m 1.88524,-8.13075 c 0.19398,-1.41047 0.59749,-2.95646 0.89666,-3.43551 0.5455,-0.8735 0.13229,-1.88158 -0.50868,-1.24068 -0.35063,0.35061 -2.12161,9.46581 -2.10019,10.8097 0.0206,1.29083 1.34229,-3.44395 1.71221,-6.13351 z m 43.66988,-14.8374 c 0,-0.27462 -1.06725,-0.4769 -2.37171,-0.44952 -1.93306,0.0406 -2.14083,0.12361 -1.12343,0.44952 1.80432,0.57786 3.49514,0.57786 3.49514,0 z m -36.19978,-0.9986 c 0.79745,-0.34269 0.61549,-0.4362 -0.90326,-0.46422 -1.14833,-0.0211 -1.7796,0.16267 -1.59328,0.46422 0.36446,0.58971 1.12421,0.58971 2.49654,0 z m 25.21503,0.0498 c -0.41193,-0.23048 -3.42153,-0.5438 -6.68801,-0.69628 -3.26648,-0.15248 -6.07508,-0.49096 -6.24134,-0.75222 -0.36716,-0.57694 -14.53255,-2.01898 -14.53255,-1.47943 0,0.20983 0.34008,0.38151 0.75572,0.38151 0.41566,0 1.1459,0.20953 1.62276,0.46563 0.47684,0.25611 4.34968,0.83374 8.60627,1.28366 4.25659,0.44991 8.18865,0.88386 8.73788,0.96429 2.41027,0.35303 8.43634,0.22287 7.73927,-0.1672 z m -30.95707,-3.53366 c 0,-2.39419 0.45222,-3.03806 1.88173,-2.67928 1.10736,0.27794 1.22853,0.19398 0.90608,-0.62768 -0.20472,-0.52169 -0.67653,-2.52134 -1.04845,-4.44368 -0.97284,-5.02825 -1.15091,-5.40319 -2.11047,-4.44363 -0.57903,0.57903 -0.8347,2.26103 -1.01719,6.69224 -0.13398,3.25534 -0.10285,6.28608 0.0694,6.73499 0.46377,1.20855 1.31887,0.40914 1.31887,-1.23296 z m 31.31038,0.48794 c 0.34967,-0.68655 1.44412,-2.93344 2.43213,-4.99309 0.98802,-2.05963 2.45654,-4.76931 3.26341,-6.02149 l 1.46699,-2.27671 -0.81013,-3.71498 c -1.10166,-5.05172 -1.10102,-5.14951 0.0349,-5.35749 0.54923,-0.10058 2.48901,-0.61642 4.31062,-1.14635 l 3.31199,-0.9635 0.5794,-2.36795 c 0.31866,-1.30236 0.92962,-3.12438 1.35767,-4.04893 1.20111,-2.59435 1.05272,-4.63253 -0.48396,-6.64723 l -1.35273,-1.77352 -4.97553,4.93051 c -4.50428,4.46354 -4.9952,5.13106 -5.18328,7.0481 -0.6799,6.93005 -3.04732,11.41827 -6.52462,12.36952 -0.69201,0.1893 -1.16021,1.05122 -1.6274,2.99585 -0.3607,1.50152 -0.84168,3.0671 -1.06884,3.47902 -0.22713,0.41193 -0.8217,2.49615 -1.32126,4.63161 -0.888,3.79582 -0.88702,3.89903 0.0432,4.61586 0.6068,0.46766 1.8498,0.68902 3.43159,0.61114 2.07975,-0.10248 2.58277,-0.32363 3.11588,-1.37037 z m -9.28561,-0.87379 c 0.29139,-0.7552 1.07956,-3.61998 1.75148,-6.36617 0.6719,-2.7462 1.439,-5.38324 1.7047,-5.86008 0.79437,-1.4258 0.55553,-2.63563 -0.76522,-3.87641 -0.68655,-0.64499 -1.25171,-1.4144 -1.25592,-1.70979 -0.004,-0.29541 -0.21177,-0.85969 -0.46125,-1.25395 -0.37594,-0.5941 -0.58838,-0.605 -1.24063,-0.0638 -0.43286,0.35924 -0.78702,1.05631 -0.78702,1.54903 0,0.49273 -0.28086,0.99618 -0.62413,1.11877 -0.34328,0.12267 -0.47749,0.38158 -0.29827,0.57553 0.17928,0.19392 0.79151,0.0617 1.36063,-0.29362 1.24346,-0.77657 2.26484,-0.0428 1.76256,1.26606 -0.23202,0.60466 -0.7813,0.81246 -1.8705,0.70764 l -1.54201,-0.14832 -0.83938,4.49376 c -0.46165,2.47156 -0.99141,5.88035 -1.17724,7.57504 -0.32329,2.94835 -0.28785,3.09083 0.82112,3.30234 2.4942,0.47569 2.93545,0.34616 3.46108,-1.01606 z m -3.45708,-1.49792 c 0.0915,-0.48058 0.6698,-0.94559 1.28488,-1.03335 1.22925,-0.17531 1.44897,0.37817 0.51917,1.30797 -0.89449,0.89448 -1.99494,0.72696 -1.80405,-0.27462 z m 1.38382,-5.89194 c -0.53066,-0.63938 -0.49788,-0.91853 0.18853,-1.6049 0.77499,-0.77499 0.88681,-0.77499 1.6618,0 0.68638,0.68637 0.71915,0.96552 0.18853,1.6049 -0.35331,0.42573 -0.81204,0.77404 -1.01942,0.77404 -0.20736,0 -0.66609,-0.34831 -1.0194,-0.77404 z m -3.77808,2.64644 c 0.50562,-2.81484 1.21436,-6.12899 1.57497,-7.36479 1.40079,-4.80037 1.38966,-5.25078 -0.17192,-6.96057 l -1.45033,-1.5879 -1.46699,1.23436 c -1.55702,1.31017 -2.63768,4.13546 -3.75253,9.81065 -0.35067,1.78502 -0.78636,3.35784 -0.9682,3.49515 -0.18192,0.13738 -0.48938,1.41549 -0.68337,2.8404 l -0.35273,2.59073 1.91504,0.32117 c 1.05327,0.17664 2.13974,0.39738 2.41436,0.49051 1.79477,0.60872 2.02666,0.22483 2.94177,-4.86971 z m -9.48299,1.99723 c 0.58311,-2.99843 1.80083,-11.76396 1.7994,-12.95252 -10e-4,-0.73901 -0.19598,-1.46377 -0.43356,-1.61059 -0.73634,-0.4551 -1.631,-6.1695 -1.27578,-8.14887 l 0.33717,-1.87891 -1.60458,1.49792 c -2.61438,2.44061 -2.72553,2.97352 -1.02446,4.91094 1.80953,2.06093 1.88417,2.96308 0.32942,3.98178 -1.28567,0.8424 -3.03794,4.08297 -2.59516,4.79939 0.15286,0.24718 0.62712,2.29117 1.05414,4.54221 0.81438,4.29311 1.54157,5.98208 2.5756,5.98208 0.34064,0 0.71766,-0.50554 0.83781,-1.12343 z m 17.4328,-26.21365 c -0.42061,-1.17988 -1.1823,-2.12204 -1.71553,-2.12204 -0.70819,0 -0.50368,1.09724 0.38817,2.08273 1.04702,1.15695 1.73302,1.17728 1.32736,0.0392 z m -5.46654,-1.15967 c 1.6797,-1.32125 1.65414,-1.69962 -0.16569,-2.45342 -0.81472,-0.33748 -1.60983,-1.01852 -1.76689,-1.51342 -0.15701,-0.4949 -0.62052,-1.17779 -1.02986,-1.51751 -0.60819,-0.50474 -0.96984,-0.40577 -1.9779,0.54127 -1.62113,1.52297 -1.56082,2.78726 0.17589,3.6853 0.7752,0.40088 1.70147,1.08071 2.05836,1.51075 0.84225,1.01485 1.1284,0.98811 2.70619,-0.25297 z m 10.66289,-1.21178 c 1.34504,-0.46857 2.91462,-0.62349 4.33913,-0.42825 2.18534,0.29953 2.29481,0.24582 5.25746,-2.58006 2.81968,-2.68953 3.85716,-4.73291 2.40151,-4.72993 -0.34327,5.1e-4 -1.92735,0.78711 -3.52015,1.74757 -1.59281,0.96047 -3.01038,1.74631 -3.15016,1.74631 -0.74123,0 -8.68338,4.14929 -8.68338,4.53653 0,0.63897 0.91041,0.55971 3.35559,-0.29217 z m -2.80432,-2.76193 c 3.77603,-1.12455 6.08999,-2.47029 11.02127,-6.40969 2.44475,-1.95301 2.76331,-2.39786 2.31583,-3.234 -0.48478,-0.90579 -0.36367,-3.3592 0.392,-7.94142 0.29957,-1.81647 0.26401,-1.87238 -1.19033,-1.87238 -0.90642,0 -1.61897,-0.31229 -1.80221,-0.78981 -0.50766,-1.32297 -0.3481,-1.62502 0.71196,-1.34782 1.21716,0.3183 2.97943,-1.1211 2.97943,-2.43353 0,-0.50668 0.2027,-0.92123 0.45046,-0.92123 0.54792,0 1.54676,-2.73263 1.54676,-4.23159 0,-0.59769 -0.54051,-1.59452 -1.20116,-2.21515 -1.00223,-0.94153 -1.37732,-1.03415 -2.26479,-0.5592 -0.58499,0.3131 -1.19847,1.24341 -1.36327,2.06739 -0.22665,1.13325 -0.49591,1.41617 -1.10553,1.16163 -0.9231,-0.38543 -1.52453,-0.42342 -2.4732,-0.15625 -0.36778,0.1036 -1.13548,-0.42097 -1.70598,-1.16566 -1.42712,-1.86285 -1.40566,-5.41659 0.0445,-7.37813 0.59503,-0.80479 1.08186,-1.69275 1.08186,-1.97326 0,-0.78132 2.28907,-1.18243 4.89482,-0.85773 3.41976,0.42616 5.80283,-0.19767 6.00098,-1.57087 0.43295,-3.00045 -2.01185,-6.39792 -6.27267,-8.71694 -4.75202,-2.58639 -17.0688,-2.35138 -22.65979,0.43233 -3.09324,1.5401 -6.21322,5.13668 -6.61034,7.6201 -0.17022,1.06428 -0.65897,2.22516 -1.08618,2.57969 -0.42719,0.35456 -1.21089,1.25437 -1.74152,1.99957 l -0.96478,1.35491 2.23232,-0.25161 c 1.38477,-0.15607 2.51321,-0.0189 2.97213,0.36235 1.88033,1.56054 1.3347,7.65347 -0.98539,11.00367 -0.66738,0.96369 -1.27653,2.30454 -1.35367,2.97969 -0.13078,1.14497 0.0277,1.23594 2.35629,1.35282 1.3731,0.0689 3.05627,-0.15418 3.74038,-0.4957 1.4354,-0.71663 1.98382,-2.34348 0.78999,-2.34348 -0.50505,0 -0.78556,-0.44572 -0.78556,-1.24827 0,-1.56412 0.51491,-1.57786 1.94839,-0.0521 1.5551,1.65535 1.26801,3.81474 -0.6274,4.71913 -0.78389,0.37404 -3.19038,0.70906 -5.34778,0.74452 l -3.92258,0.0645 0.29188,1.25639 c 0.48817,2.10145 1.33502,2.55667 5.31647,2.85778 3.05025,0.2307 4.04879,0.12361 5.06717,-0.54373 0.69757,-0.45706 1.26832,-0.60634 1.26832,-0.3317 0,1.24433 -2.4806,2.07573 -6.19333,2.07573 -3.307,0 -3.85686,0.12984 -4.33512,1.02344 -1.45387,2.71658 1.54784,7.40931 4.73934,7.40931 0.87721,0 1.80838,-0.20385 2.06926,-0.45297 0.58252,-0.55628 9.61072,-2.76048 14.7046,-3.59009 4.21725,-0.68683 4.99307,-1.10066 4.99307,-2.66331 0,-0.60043 0.34763,-1.52783 0.77249,-2.06092 0.72596,-0.91083 0.7538,-0.86393 0.46203,0.77836 -0.72048,4.05559 -0.79517,4.11505 -6.22759,4.95659 -5.24898,0.81313 -10.44367,2.06146 -10.76901,2.5879 -0.15116,0.24444 -0.72099,0.44444 -1.26645,0.44444 -0.87328,0 -0.95138,0.22372 -0.65378,1.87239 0.18588,1.02983 0.54004,2.2638 0.78699,2.74217 0.5278,1.02242 3.91264,2.91757 4.72344,2.64463 0.30822,-0.10379 2.21396,-0.68111 4.23494,-1.283 z m -15.53049,-10.96928 c -1.72782,-0.36369 -1.73065,-0.3685 -0.24967,-0.42593 0.82387,-0.0319 1.83496,0.15965 2.24689,0.42593 0.83138,0.53729 0.55527,0.53729 -1.99722,0 z m 27.97782,-12.82769 c -0.009,-0.6017 0.2332,-1.24836 0.53852,-1.43708 0.35801,-0.22125 0.44231,-1.19381 0.23738,-2.73861 -0.31443,-2.37029 0.0236,-3.22315 1.01533,-2.56149 0.92279,0.61571 1.14319,2.00403 0.41419,2.60905 -0.41821,0.34707 -0.60021,1.0482 -0.43892,1.69083 0.174,0.69315 -0.0978,1.5464 -0.73717,2.31458 -1.00604,1.20864 -1.01283,1.20947 -1.02933,0.12267 z m -20.51012,-7.68483 c -0.45194,-0.84446 -0.38496,-1.16943 0.35691,-1.73171 1.99564,-1.51249 6.15599,-0.4781 6.15599,1.53057 0,0.83654 -0.0608,0.84118 -0.9131,0.0698 -1.17592,-1.06418 -1.4109,-1.04074 -1.72811,0.1723 -0.36934,1.41232 -3.10944,1.38335 -3.87169,-0.041 z m 4.78842,-3.83285 c -1.18828,-0.62201 -1.86648,-0.66745 -3.49076,-0.23392 -2.32087,0.61948 -2.95118,0.34507 -1.55403,-0.67656 1.96078,-1.43374 7.26857,-0.54336 7.26857,1.21933 0,0.71217 -0.3719,0.66052 -2.22378,-0.30885 z m -16.20717,11.11372 c 0.23841,-0.54923 0.96632,-1.89736 1.61757,-2.99584 1.07398,-1.81148 1.11612,-2.10172 0.45309,-3.12066 -0.8234,-1.26545 -1.87828,-1.53174 -1.42891,-0.36071 0.16663,0.43438 -0.13871,1.1321 -0.70938,1.62072 -1.32102,1.13111 -2.10136,4.16402 -1.66699,6.47928 0.3377,1.80015 0.36322,1.81925 0.82483,0.61672 0.26197,-0.68248 0.67139,-1.69026 0.90979,-2.23951 z m 3.71719,-9.16519 c -0.53316,-2.42751 -2.77673,-2.8378 -5.38025,-0.98394 -1.73801,1.23757 -1.3666,1.91057 1.05437,1.91057 1.02977,0 2.30848,0.32191 2.84155,0.71534 1.27584,0.94167 1.90013,0.25108 1.48433,-1.64197 z m -144.71553,138.60509 c -0.62052,-0.77147 -0.98156,-0.92448 -1.16505,-0.49376 -0.14626,0.34328 -0.57626,0.62414 -0.95565,0.62414 -1.07181,0 -1.82555,-1.88433 -1.45973,-3.64927 0.6217,-2.9995 2.80968,-10.57975 3.48986,-12.09064 0.93071,-2.06741 3.50236,-14.64667 4.59103,-22.45712 0.15305,-1.09847 0.45296,-2.2219 0.6663,-2.49652 0.21334,-0.27462 0.65623,-2.40917 0.98422,-4.74344 1.05186,-7.48642 3.59354,-19.47155 4.38741,-20.68865 0.19083,-0.29254 0.59728,-1.76769 0.90322,-3.2781 2.60649,-12.86724 3.80373,-18.37176 4.18113,-19.22332 0.2434,-0.54924 0.5915,-1.56035 0.77356,-2.24689 0.8826,-3.32859 5.58568,-7.78424 9.46826,-8.97008 1.09847,-0.3355 3.79473,-1.47648 5.99169,-2.53553 2.19696,-1.05903 5.05629,-2.18681 6.3541,-2.50615 2.12139,-0.522 2.39146,-0.75037 2.67503,-2.26184 0.28835,-1.53712 0.1002,-1.88535 -2.19434,-4.06304 -1.41008,-1.33822 -2.66588,-3.03818 -2.86608,-3.87977 -0.196,-0.82385 -0.76734,-2.42162 -1.26962,-3.55061 -0.97943,-2.20139 -0.77197,-5.1768 0.59496,-8.53258 0.56341,-1.38318 0.54022,-1.71994 -0.17286,-2.50777 -0.55958,-0.61834 -0.87173,-2.02681 -0.97381,-4.39397 l -0.15021,-3.4839 -2.30759,-0.14965 c -2.29273,-0.14871 -2.31309,-0.13588 -3.15708,1.97348 -1.23953,3.09792 -0.64946,9.89027 1.03291,11.88966 1.44656,1.71912 1.482,2.50258 0.18758,4.14808 -0.73874,0.93918 -0.99933,2.02861 -1.00139,4.18662 -0.002,1.60439 -0.23518,3.75391 -0.51923,4.77666 -0.57301,2.06322 -4.91822,6.87831 -6.20709,6.87831 -1.5398,0 -3.80014,-3.10058 -2.73861,-3.75663 0.26115,-0.16135 0.71716,-0.74627 1.01334,-1.29971 0.52909,-0.9886 0.5138,-0.99075 -0.8711,-0.12229 l -1.40962,0.8839 1.24825,-1.41553 c 1.16427,-1.32026 1.17488,-1.37735 0.15758,-0.84846 -1.91693,0.99674 -2.55433,0.7121 -2.55433,-1.14061 0,-1.41587 0.24889,-1.81077 1.45646,-2.31096 0.80105,-0.3318 2.53421,-1.7825 3.85146,-3.22379 2.05032,-2.2434 2.36729,-2.86291 2.20239,-4.30486 -0.1404,-1.22789 0.1036,-2.00015 0.90057,-2.84973 0.91243,-0.97273 1.02743,-1.46799 0.69564,-2.99584 -0.4449,-2.04857 -0.54562,-6.91651 -0.19782,-9.55959 l 0.22863,-1.73743 -3.40632,-0.38632 c -1.87348,-0.21248 -3.89027,-0.64533 -4.48178,-0.96188 -1.0243,-0.5482 -1.03172,-0.60158 -0.15607,-1.12176 0.50568,-0.30039 2.37186,-1.60398 4.14708,-2.89684 1.7752,-1.29289 3.71528,-2.50074 4.31132,-2.68413 0.59602,-0.18343 2.06648,-0.99049 3.26771,-1.79354 1.2012,-0.80306 3.78512,-2.26135 5.74204,-3.24065 3.92694,-1.9652 6.61673,-3.61237 12.26896,-7.51335 2.07444,-1.4317 5.36951,-3.36869 7.32235,-4.30439 1.95286,-0.93572 3.69441,-1.93395 3.87012,-2.21826 0.38534,-0.62348 1.84921,-0.33182 4.66512,0.92945 1.84172,0.82493 4.85483,1.77639 11.13192,3.51521 0.96118,0.26624 2.19695,0.6872 2.74619,0.93546 0.54923,0.24825 3.24549,1.05214 5.99169,1.78639 9.86277,2.63702 10.90566,2.9702 11.09736,3.5453 0.107,0.32082 -1.44748,1.54124 -3.45423,2.71206 -4.0006,2.33412 -11.13116,7.06725 -12.51136,8.30484 -0.4806,0.43091 -0.87381,1.3952 -0.87381,2.14287 0,0.74767 -0.3565,1.65529 -0.79224,2.01693 -0.57279,0.47535 -0.71112,1.14931 -0.49932,2.43283 1.02317,6.20099 1.00721,6.41311 -0.68785,9.13986 -0.9437,1.51814 -1.38394,2.66556 -1.06361,2.77234 0.30056,0.1002 0.55363,0.55665 0.56237,1.01434 0.009,0.4577 0.34578,1.26833 0.74897,1.80139 0.40319,0.53308 0.73308,1.93066 0.73308,3.10573 0,1.78883 -0.24067,2.31444 -1.47898,3.22995 -1.39199,1.02915 -1.43751,1.16948 -0.77422,2.38665 0.3876,0.71127 0.84701,3.23997 1.02091,5.61932 l 0.31617,4.32609 3.32908,2.11412 c 4.25485,2.70205 6.92649,5.24098 7.55272,7.17766 0.27193,0.84095 0.72057,3.88824 0.99692,6.77174 0.27637,2.88351 0.95488,8.61305 1.50779,12.73235 0.55292,4.11928 1.00657,8.31892 1.00812,9.33254 10e-4,1.01361 0.19811,1.96365 0.43683,2.11119 0.23874,0.14758 0.58881,2.35152 0.77796,4.89773 0.18913,2.54619 0.57326,6.08992 0.85361,7.87495 0.28034,1.78501 0.71959,6.39112 0.97607,10.2358 0.2565,3.84467 0.68509,9.12484 0.95242,11.73371 0.68285,6.66382 1.18632,19.15782 0.82935,20.58016 -0.28447,1.13342 -0.48613,1.18824 -4.18392,1.13716 -2.13677,-0.0294 -4.25619,0.16776 -4.70984,0.43844 -0.59143,0.35287 -1.19187,0.25161 -2.12206,-0.35788 -1.06209,-0.69591 -1.29724,-1.2371 -1.29724,-2.98549 0,-1.17454 -0.20387,-2.34896 -0.45301,-2.60986 -0.49862,-0.52208 -1.50476,-12.06402 -1.86945,-21.44525 -0.12813,-3.29543 -0.42738,-6.44107 -0.66505,-6.99031 -0.23766,-0.54923 -0.68437,-4.25659 -0.99269,-8.23856 -1.18953,-15.36341 -1.41581,-13.18696 -1.34965,12.98198 0.0702,27.79366 -0.0189,28.95984 -2.19415,28.95984 -0.65042,0 -1.16201,0.39881 -1.32857,1.03569 -0.20622,0.7886 -0.54255,0.9675 -1.40971,0.74985 -0.91469,-0.22957 -1.26864,0.008 -1.79798,1.20319 -0.36252,0.81895 -0.95924,1.60419 -1.32604,1.74493 -0.71812,0.27558 -5.3561,-1.50515 -6.58601,-2.52866 -0.79772,-0.66386 -5.24649,-1.1194 -5.77459,-0.5913 -0.17305,0.17305 -0.59379,0.20762 -0.93488,0.0768 -0.34108,-0.13097 -0.91305,0.11492 -1.27105,0.54631 -0.59126,0.71241 -0.7314,0.71141 -1.52972,-0.0113 -0.81492,-0.73747 -0.94468,-0.68388 -1.78403,0.73701 -1.57171,2.66073 -3.2648,2.60322 -4.46367,-0.15173 -0.40366,-0.92753 -0.68805,-1.20762 -0.69966,-0.68901 -0.0291,1.29366 -2.59501,1.16229 -3.43054,-0.1757 -0.92386,-1.47935 -1.5615,-8.40712 -1.58085,-17.17531 -0.009,-4.11928 -0.23432,-7.82663 -0.50052,-8.23856 -0.34422,-0.53263 -0.49889,0.11644 -0.53552,2.24687 -0.22968,13.36343 -0.78598,22.65323 -1.40087,23.39412 -0.6735,0.81153 -4.05223,0.97668 -4.0543,0.19815 -5.5e-4,-0.20596 -0.31369,-0.37446 -0.69583,-0.37446 -1.07286,0 -1.31649,-1.86396 -1.2538,-9.59223 0.0821,-10.12141 -0.60529,-26.35789 -1.11593,-26.35789 -0.23684,0 -0.43061,0.7177 -0.43061,1.59491 0,1.36385 -1.07337,7.4429 -3.00918,17.04238 -0.26728,1.3254 -0.48596,3.05348 -0.48596,3.84017 0,0.78669 -0.22469,1.56924 -0.4993,1.73895 -0.59902,0.37022 -0.67715,4.24411 -0.0855,4.24411 0.42881,0 2.5821,-9.51374 2.5821,-11.4084 0,-1.77726 0.92799,-1.20954 1.30466,0.79811 0.78151,4.16567 -1.50626,18.09991 -2.9717,18.09991 -1.01421,0 -1.82806,-1.1001 -1.8285,-2.47158 -3.2e-4,-1.05284 -0.18003,-0.8843 -1.03838,0.97365 -1.67239,3.62017 -1.75884,3.73729 -2.88184,3.90436 -0.77034,0.11455 -1.07245,0.51315 -1.07245,1.4147 0,2.1357 -1.08968,1.01898 -1.30932,-1.3418 -0.23229,-2.49688 0.69722,-12.66924 1.29875,-14.21306 0.36507,-0.93699 1.86552,-15.34807 2.28741,-21.96951 l 0.19089,-2.99585 -0.74265,2.99585 c -0.40846,1.6477 -0.94491,3.44521 -1.19215,3.99444 -0.68534,1.52251 -1.40913,5.04193 -2.00237,9.73651 -0.29497,2.33424 -0.75065,5.59223 -1.01263,7.23996 -1.77503,11.16433 -2.11341,13.00509 -2.47525,13.46544 -0.22271,0.28334 -0.67632,1.35773 -1.00802,2.38756 -0.59427,1.84497 -2.02359,2.61472 -2.02359,1.08979 0,-0.51689 -0.29668,-0.68954 -0.87379,-0.50851 -1.42874,0.4482 -2.80682,-3.31677 -1.64081,-4.48276 0.26467,-0.26469 0.72932,-2.72502 1.03255,-5.46742 0.30321,-2.7424 0.97361,-7.7948 1.48977,-11.22754 0.51615,-3.43274 1.18837,-8.60055 1.49384,-11.48406 0.30546,-2.8835 0.74935,-5.6921 0.98643,-6.24134 0.23709,-0.54925 0.5649,-2.79612 0.72846,-4.99308 0.16362,-2.19694 0.63852,-5.56727 1.05544,-7.48961 1.41767,-6.53661 3.25673,-19.29264 3.17109,-21.99545 -0.0257,-0.80958 -0.44505,0.88723 -0.93199,3.77073 -0.9662,5.7215 -2.84712,13.40715 -3.47972,14.21857 -0.21912,0.28105 -0.54245,1.40975 -0.71848,2.50822 -0.17607,1.09849 -0.66354,3.90709 -1.08331,6.24134 -0.41978,2.33427 -1.20338,7.22143 -1.74135,10.86038 -0.53797,3.63894 -1.19126,7.00925 -1.45176,7.48961 -0.56562,1.04295 -1.47141,5.10928 -3.53123,15.85257 -0.84246,4.39392 -1.80443,8.6486 -2.13772,9.45489 -2.2986,5.56068 -3.76612,6.80014 -5.49964,4.645 z m 32.44934,-82.25534 c 0.3361,-1.2358 0.62185,-2.92094 0.63501,-3.74482 0.0132,-0.82385 0.48335,-2.25155 1.04493,-3.17265 1.56442,-2.56604 0.90506,-2.91881 -1.16758,-0.62466 -1.73093,1.91592 -1.85442,2.2645 -1.85442,5.23426 0,1.74992 -0.12738,3.93999 -0.28288,4.86682 -0.2549,1.51842 -0.21874,1.58635 0.36546,0.68654 0.35661,-0.54923 0.92336,-2.00971 1.25948,-3.24549 z m -8.09078,-1.35905 c 0.38815,-3.42062 2.29722,-6.89153 4.8139,-8.75219 1.08528,-0.80237 1.28662,-1.20026 0.86468,-1.70869 -0.90036,-1.08487 -2.16711,-0.76445 -3.99468,1.01047 -2.19316,2.12996 -2.92794,4.62277 -2.9089,9.86877 0.017,4.72389 0.66667,4.50205 1.225,-0.41836 z m 37.64666,-10.49951 c -0.0325,-0.20597 -0.0151,-0.82386 0.0406,-1.37309 0.0821,-0.82208 0.21395,-0.73953 0.74609,0.46699 0.64055,1.45239 0.6524,1.45599 1.31196,0.39987 0.49647,-0.79494 0.82938,-0.9298 1.31028,-0.53068 0.47328,0.39279 0.64767,0.35284 0.65582,-0.15022 0.006,-0.40059 0.39642,-0.184 0.9386,0.52125 l 0.92749,1.20653 0.34331,-1.0817 c 0.36579,-1.15244 1.01798,-1.40162 1.5243,-0.58239 0.55775,0.90245 1.24828,0.52197 1.24828,-0.68783 0,-0.65291 0.35046,-1.47799 0.7788,-1.83349 2.34101,-1.94286 3.52211,-8.10507 1.9515,-10.18163 -0.40319,-0.53306 -0.73308,-1.83617 -0.73308,-2.8958 0,-2.11176 -1.18958,-4.87284 -2.09941,-4.87284 -0.31674,0 -1.29677,0.26067 -2.17788,0.57928 -1.36977,0.49532 -1.91314,0.42536 -3.74831,-0.48262 l -2.14633,-1.06192 -1.65468,1.02267 c -0.91008,0.56244 -1.65469,1.09828 -1.65469,1.19073 0,0.0925 -0.13739,0.52606 -0.30525,0.96356 -0.2234,0.58222 -0.0896,0.7127 0.49932,0.48673 0.4425,-0.16984 0.80455,-0.16437 0.80455,0.0113 0,0.5874 -1.66165,3.01617 -2.89233,4.22764 -1.15165,1.13367 -1.20263,1.43259 -0.97904,5.74204 0.1523,2.93502 0.54005,5.12304 1.09421,6.1741 0.88692,1.68224 2.05453,1.72819 1.61926,0.0638 -0.13549,-0.51799 -0.0426,-1.0676 0.20616,-1.2214 0.24883,-0.1538 0.45244,0.17248 0.45244,0.72497 0,1.258 1.01855,3.54811 1.57807,3.54811 0.23053,0 0.39254,-0.16852 0.36003,-0.37448 z m 9.54596,-9.362 c 0,-0.68656 0.2247,-1.24827 0.49932,-1.24827 0.27462,0 0.4993,0.56171 0.4993,1.24827 0,0.68654 -0.22468,1.24827 -0.4993,1.24827 -0.27462,0 -0.49932,-0.56173 -0.49932,-1.24827 z m -10.75598,-7.22436 c 0.32906,-1.97038 1.27967,-3.29073 1.25144,-1.73821 -0.009,0.5355 -0.36035,1.53536 -0.77918,2.22191 l -0.7615,1.24827 z m 5.53177,1.01297 c -0.16512,-0.26711 -0.62998,-0.35909 -1.03311,-0.20438 -0.54931,0.21079 -0.73297,-0.11493 -0.73297,-1.29955 0,-1.0327 0.19247,-1.46185 0.55512,-1.23772 0.30532,0.18872 0.73014,0.06 0.94403,-0.28617 0.27846,-0.45053 0.48486,-0.32691 0.72679,0.43535 0.3757,1.18373 1.06267,1.39721 1.41738,0.44046 0.17173,-0.46333 0.45503,-0.41134 1.0993,0.20174 0.98339,0.93574 0.58202,2.03709 -0.66758,1.83183 -0.45625,-0.0749 -1.09488,0.0304 -1.41919,0.23391 -0.32428,0.20359 -0.7247,0.15154 -0.88977,-0.11549 z m -3.75566,-0.65409 c 0.004,-0.34327 0.22544,-0.96118 0.49166,-1.3731 0.37716,-0.58362 0.48569,-0.44584 0.49165,0.62413 0.004,0.7552 -0.21704,1.37311 -0.49165,1.37311 -0.27462,0 -0.49587,-0.28087 -0.49166,-0.62414 z m 8.48821,-0.49932 c 0.006,-0.90845 0.10021,-0.98011 0.49166,-0.37446 0.62561,0.96803 0.62561,1.49792 0,1.49792 -0.27462,0 -0.49587,-0.50557 -0.49166,-1.12346 z m -17.48341,11.60891 c -0.41192,-0.26622 -1.31068,-0.48884 -1.99722,-0.49475 -0.68654,-0.006 -1.88343,-0.34201 -2.65974,-0.74689 -0.92103,-0.4804 -1.34458,-0.5355 -1.21893,-0.15852 0.21761,0.65285 3.48841,1.77191 5.37659,1.83953 0.98098,0.0351 1.0879,-0.0589 0.4993,-0.43929 z m 1.20895,-8.15028 c 0.20921,-1.39515 1.03451,-3.1046 2.33349,-4.83338 l 2.00979,-2.67478 -1.63587,-0.53418 c -1.19202,-0.38926 -1.7552,-0.9521 -2.07573,-2.0745 -0.25705,-0.90011 -2.6853,-3.90924 -5.84232,-7.23994 -5.36469,-5.6598 -5.40603,-5.69039 -5.91232,-4.37506 -0.28041,0.72853 -0.74838,1.47203 -1.03995,1.65221 -0.29156,0.18022 -0.5301,0.89983 -0.5301,1.59917 0,0.69936 -0.58358,1.96508 -1.29682,2.81275 -1.18094,1.40345 -1.22289,1.59526 -0.46943,2.1462 0.95054,0.69505 0.18418,1.46637 -1.00385,1.01045 -0.82021,-0.31476 -0.9879,-2.58473 -0.22574,-3.05576 0.781,-0.4827 0.58498,-2.24689 -0.24965,-2.24689 -1.1545,0 -0.89113,-0.81108 0.62412,-1.92208 0.97648,-0.71597 1.21943,-1.1629 0.8411,-1.54731 -0.38009,-0.38619 -1.07886,-0.0677 -2.44718,1.11502 -1.70743,1.47596 -1.94034,1.9589 -2.1471,4.45216 -0.20913,2.52173 -0.11587,2.87214 0.94926,3.56506 0.64965,0.42265 2.3608,0.92317 3.80254,1.11228 3.68988,0.48398 3.31058,1.3475 -0.4993,1.13676 -2.89736,-0.16021 -3.13185,-0.094 -3.27698,0.92595 -0.21728,1.52734 3.70211,5.45582 6.93978,6.95585 1.60339,0.74286 3.47548,1.18277 5.03347,1.18277 2.1862,0 2.44581,0.10964 2.18748,0.92355 -0.22717,0.71578 0.0742,1.04133 1.33944,1.44695 0.89793,0.28787 1.7756,0.54633 1.95037,0.57435 0.17475,0.0281 0.46346,-0.92038 0.6415,-2.1076 z m 14.3551,-9.15322 c 1.52325,-1.37853 1.16337,-3.42572 -0.87563,-4.98094 -1.71204,-1.30583 -1.8459,-1.32983 -3.12068,-0.5598 -1.86616,1.12725 -2.15956,4.40771 -0.49829,5.57131 1.46632,1.02706 3.34003,1.01432 4.4946,-0.0306 z m -7.96689,-0.2971 c 0.43873,-0.34327 0.93842,-1.30666 1.11044,-2.14087 0.26539,-1.28715 0.0866,-1.68392 -1.18138,-2.62136 -1.9406,-1.43474 -2.73322,-1.39288 -3.99482,0.21098 -1.30126,1.6543 -1.31208,2.90093 -0.0362,4.17679 1.13349,1.13347 2.92309,1.29684 4.10199,0.37446 z m 13.77321,-0.47433 c 0.94938,-0.94939 0.71872,-3.77505 -0.39946,-4.89322 -1.26669,-1.26669 -2.59435,-1.27122 -3.73326,-0.0132 -0.72299,0.79889 -0.79389,1.24869 -0.37385,2.37171 0.2851,0.7622 0.64473,1.77903 0.79915,2.25961 0.32773,1.01987 2.78049,1.20155 3.70742,0.27462 z m -18.09358,-5.353 c 1.76514,-1.54982 3.15664,-1.59449 4.82211,-0.15475 0.76176,0.6585 1.05272,0.65054 2.57201,-0.0704 0.94217,-0.4471 2.18465,-0.81291 2.76104,-0.81291 1.23535,0 1.35075,-1.15603 0.29902,-2.99584 -1.17524,-2.05586 -0.91755,-2.82898 0.4993,-1.49792 0.68655,0.64498 1.24827,1.59239 1.24827,2.10533 0,1.59845 1.05781,2.31585 2.61449,1.77319 1.45696,-0.50789 1.66624,-0.88106 0.92912,-1.6566 -0.24795,-0.2609 -0.56118,-0.92372 -0.69603,-1.47295 -0.23135,-0.94226 -0.26587,-0.93405 -0.61134,0.14531 -0.35543,1.11037 -1.25975,1.28631 -1.58568,0.30851 -0.21255,-0.63767 2.47095,-2.20132 3.77786,-2.20132 0.56586,0 1.26933,-0.44939 1.56327,-0.99862 0.48845,-0.91268 0.37972,-0.99862 -1.26354,-0.99862 -0.98888,0 -2.23256,0.23259 -2.76374,0.51687 -0.75533,0.40424 -0.9658,0.35367 -0.9658,-0.23208 0,-1.0362 1.58158,-1.78272 3.77691,-1.78272 h 1.84535 l -0.25814,-2.29029 c -0.14192,-1.25967 -0.48243,-2.51459 -0.75654,-2.78869 -0.60251,-0.60251 -2.91279,0.48629 -4.31166,2.03202 -1.28956,1.42496 -1.72855,1.34844 -5.10726,-0.8903 -4.23145,-2.80377 -10.53678,-3.84634 -15.28577,-2.52747 -1.77745,0.49362 -2.58482,1.45497 -1.24827,1.48629 0.87994,0.0206 -2.47488,2.98122 -3.37822,2.98122 -0.40758,0 -0.74108,0.22469 -0.74108,0.4993 0,0.27462 0.34722,0.49932 0.7716,0.49932 0.59764,0 0.70564,0.36583 0.47903,1.62274 -0.27299,1.51438 0.0113,1.93117 4.25721,6.24134 2.50238,2.54023 4.67254,4.6186 4.8226,4.6186 0.15003,0 1.02031,-0.65627 1.93388,-1.4584 z m 2.35425,-3.6595 c -0.26562,-0.34327 -0.6231,-1.01734 -0.79443,-1.49792 -0.38828,-1.08923 -1.03437,-1.10955 -2.07852,-0.0653 -0.44462,0.44463 -0.96586,0.65094 -1.15832,0.45848 -0.60218,-0.60218 1.5111,-1.76618 3.20659,-1.76618 0.8908,0 2.19599,0.21912 2.90041,0.48694 1.613,0.61327 1.7102,2.27736 0.15739,2.69349 -1.55399,0.41647 -1.68549,0.39824 -2.23306,-0.30942 z m -3.41355,-5.10979 c 1.05979,-0.82781 5.77144,-1.06229 5.77144,-0.28724 0,0.86071 -0.86744,1.02187 -2.4781,0.46039 -1.1792,-0.41106 -1.94152,-0.4074 -2.92838,0.0132 -1.24318,0.53098 -1.26807,0.51821 -0.36496,-0.18721 z"
       id="path357"
       inkscape:connector-curvature="0" />
  </g>
</svg>
