<?xml version="1.0" encoding="UTF-8" standalone="no"?>
<!-- Created with Inkscape (http://www.inkscape.org/) -->

<svg
   xmlns:dc="http://purl.org/dc/elements/1.1/"
   xmlns:cc="http://creativecommons.org/ns#"
   xmlns:rdf="http://www.w3.org/1999/02/22-rdf-syntax-ns#"
   xmlns:svg="http://www.w3.org/2000/svg"
   xmlns="http://www.w3.org/2000/svg"
   xmlns:sodipodi="http://sodipodi.sourceforge.net/DTD/sodipodi-0.dtd"
   xmlns:inkscape="http://www.inkscape.org/namespaces/inkscape"
   width="210.00002mm"
   height="528.65814mm"
   viewBox="0 0 210.00003 528.65821"
   version="1.1"
   id="svg8"
   inkscape:version="0.92.3 (2405546, 2018-03-11)"
   sodipodi:docname="admiral.svg">
  <defs
     id="defs2" />
  <sodipodi:namedview
     id="base"
     pagecolor="#ffffff"
     bordercolor="#666666"
     borderopacity="1.0"
     inkscape:pageopacity="0.0"
     inkscape:pageshadow="2"
     inkscape:zoom="1.4"
     inkscape:cx="363.62457"
     inkscape:cy="928.25321"
     inkscape:document-units="mm"
     inkscape:current-layer="layer1"
     showgrid="false"
     fit-margin-top="0"
     fit-margin-left="0"
     fit-margin-right="0"
     fit-margin-bottom="0"
     inkscape:window-width="1920"
     inkscape:window-height="1017"
     inkscape:window-x="-8"
     inkscape:window-y="-8"
     inkscape:window-maximized="1" />
  <metadata
     id="metadata5">
    <rdf:RDF>
      <cc:Work
         rdf:about="">
        <dc:format>image/svg+xml</dc:format>
        <dc:type
           rdf:resource="http://purl.org/dc/dcmitype/StillImage" />
        <dc:title></dc:title>
      </cc:Work>
    </rdf:RDF>
  </metadata>
  <g
     inkscape:label="Layer 1"
     inkscape:groupmode="layer"
     id="layer1"
     transform="translate(-356.47935,979.39066)">
    <path
       style="fill:#000000;stroke-width:0.97236335"
       d="m 428.33931,-451.20126 c -4.85907,-2.31012 -6.74199,-4.89399 -6.74199,-9.25189 v -4.35845 l -14.48369,-0.41147 c -13.38756,-0.38033 -14.74484,-0.59036 -17.93399,-2.77563 -4.01451,-2.75079 -4.70832,-4.59892 -3.44465,-9.17563 1.05934,-3.83663 8.28902,-10.68488 12.3065,-11.6573 1.45753,-0.35281 4.94051,-2.14775 7.73996,-3.98885 2.79949,-1.84107 5.44841,-3.34741 5.88655,-3.34741 0.43811,0 2.25738,-1.50722 4.04284,-3.34931 l 3.2463,-3.34932 -0.708,-14.8825 c -0.38941,-8.18538 -1.04001,-15.32006 -1.44577,-15.85486 -0.83329,-1.09833 -2.36682,-12.1413 -3.98338,-28.68472 -0.60098,-6.1502 -1.45691,-12.0573 -1.90203,-13.12689 -0.44516,-1.06963 -1.30274,-8.01151 -1.90575,-15.42645 -1.10149,-13.54401 -2.56568,-22.63228 -3.93762,-24.44046 -0.40577,-0.53479 -1.68921,-8.19218 -2.85215,-17.01636 -1.16291,-8.82418 -2.51136,-16.91912 -2.99651,-17.98872 -0.48518,-1.06959 -1.35915,-6.10157 -1.94213,-11.18218 -1.45419,-12.67257 -1.73805,-13.52927 -4.72181,-14.24951 -2.93712,-0.709 -7.59369,-3.75633 -10.1389,-6.63502 -1.4209,-1.60707 -1.67359,-3.29749 -1.38411,-9.25872 0.19478,-4.01101 0.84736,-8.16785 1.45019,-9.23745 0.60282,-1.06963 1.81699,-5.00769 2.69812,-8.75127 0.8811,-3.74361 2.19314,-7.90045 2.91562,-9.23748 0.72249,-1.33699 2.29935,-5.27505 3.50419,-8.75123 1.2048,-3.47622 2.93102,-7.63306 3.836,-9.23748 3.70925,-6.57581 2.90125,-10.2098 -2.27013,-10.2098 -1.27018,0 -4.47377,-1.05548 -7.11906,-2.34547 -7.51449,-3.66452 -13.85675,-6.4058 -14.8205,-6.4058 -0.48405,0 -3.58055,-1.60285 -6.88118,-3.56188 -3.98084,-2.36282 -6.20172,-4.36128 -6.59705,-5.93638 -0.75431,-3.00544 0.25322,-14.13698 1.48999,-16.45908 0.51403,-0.96526 1.44574,-5.03676 2.07042,-9.04774 1.22469,-7.86337 2.6332,-13.91846 3.95828,-17.01636 0.45751,-1.0696 1.53938,-4.78888 2.4042,-8.2651 0.86478,-3.47617 2.24984,-7.75808 3.07783,-9.51533 0.82804,-1.7572 1.3388,-3.3027 1.13509,-3.4344 -0.2036,-0.1315 -2.55818,-1.237 -5.23217,-2.4562 -7.52883,-3.4329 -7.75819,-3.6051 -8.10434,-6.0853 -0.17898,-1.2824 -0.72594,-2.7473 -1.21546,-3.2554 -1.13799,-1.1811 -1.14824,-6.5356 -0.0184,-9.5077 1.15063,-3.0264 10.89244,-8.0893 18.14461,-9.4299 3.10746,-0.5745 9.70055,-1.0445 14.65135,-1.0445 4.95212,0 9.27184,-0.4374 9.60245,-0.9723 0.33039,-0.5349 2.216,-0.9791 4.18992,-0.9873 5.38644,-0.022 6.45357,-1.039 5.22106,-4.9745 -1.73485,-5.5395 -0.34104,-25.307 1.88142,-26.6805 0.4742,-0.2933 0.86214,-2.8458 0.86214,-5.6728 0,-8.657 -0.486,-8.8406 -23.40026,-8.8428 -17.06951,0 -19.5077,-0.1988 -21.00882,-1.6981 -1.50884,-1.5072 -1.56264,-2.2119 -0.4828,-6.3204 0.66846,-2.5432 2.51012,-6.4457 4.09257,-8.6724 1.58241,-2.2266 2.87714,-4.3537 2.87714,-4.7268 0,-1.1648 7.90798,-10.1858 8.92903,-10.1858 0.533,0 1.69553,-0.8835 2.58347,-1.9632 1.61545,-1.9644 4.80306,-3.9342 12.5535,-7.7576 2.27288,-1.1212 4.13255,-2.5665 4.13255,-3.2117 0,-3.3267 13.56484,-18.9898 18.96106,-21.8941 4.01678,-2.1618 10.93563,-3.9737 15.37034,-4.0251 4.54731,-0.053 12.34203,1.8272 12.34203,2.9766 0,0.4641 1.42207,1.4457 3.16016,2.1812 1.73813,0.7356 3.99374,2.273 5.01255,3.4164 1.08337,1.2159 3.01775,2.0789 4.6597,2.0789 5.04297,0 17.36498,2.9773 20.53341,4.9614 l 3.09779,1.9399 -3.88944,-0.6404 c -2.13919,-0.352 -5.09825,-1.2178 -6.57566,-1.9236 -3.64075,-1.7394 -13.35779,-2.9169 -13.35779,-1.6187 0,0.5489 1.42206,2.1148 3.16019,3.4798 1.73809,1.365 3.89088,3.1192 4.78399,3.8981 0.89308,0.7789 2.64165,1.5606 3.88566,1.7371 1.50299,0.2132 2.83657,1.5443 3.97492,3.9673 1.73883,3.7011 3.64251,4.8446 3.64251,2.1878 0,-2.1002 3.75387,1.8312 5.95987,6.2417 1.27959,2.5584 1.75966,2.9661 1.80986,1.5372 l 0.0684,-1.9447 1.07669,1.9447 c 0.5922,1.0696 2.32915,3.1234 3.85989,4.5639 1.53074,1.4406 2.78317,3.2708 2.78317,4.0671 0,0.7963 0.90021,1.7335 2.00042,2.0827 1.10024,0.3491 2.36318,1.589 2.8065,2.755 0.98254,2.5843 8.43059,6.4648 12.4083,6.4648 4.75764,0 7.41141,-4.2972 5.26256,-8.5214 -0.47239,-0.9286 -1.44357,-3.0011 -2.15815,-4.6055 -1.94,-4.3558 -15.53619,-17.3544 -20.68247,-19.7734 -2.47446,-1.1631 -4.49899,-2.5046 -4.49899,-2.9811 0,-1.9192 10.19366,4.5624 16.91379,10.7545 10.56959,9.7393 13.84269,15.4467 13.38069,23.3324 -0.30356,5.1792 -16.75529,11.5181 -29.89386,11.5181 -2.35954,0 -4.2901,0.4376 -4.2901,0.9724 0,0.5348 -0.65633,0.9724 -1.45852,0.9724 -1.57106,0 -2.01269,2.4598 -0.59856,3.3338 1.39814,0.8641 3.31506,12.976 2.73642,17.29 -0.62428,4.6545 -3.21256,7.1492 -11.61841,11.1985 -5.51544,2.657 -6.49085,4.1441 -4.63872,7.0722 0.77515,1.2254 4.46305,1.4628 23.07873,1.4855 12.18588,0.015 23.80184,0.3926 25.81324,0.8395 3.77114,0.8379 5.90643,2.5368 3.18831,2.5368 -1.15121,0 -1.38208,0.6071 -0.92432,2.4309 0.46137,1.8383 0.22896,2.4309 -0.95386,2.4309 -0.86015,0 -1.56393,0.6564 -1.56393,1.4586 0,1.9002 1.91971,1.854 4.72912,-0.114 1.44618,-1.0129 2.0744,-2.2236 1.76591,-3.4032 -0.2635,-1.0071 -0.0904,-1.831 0.38401,-1.831 1.24581,0 1.94154,3.7704 1.52512,8.2651 -0.19809,2.1392 -0.41995,5.987 -0.49279,8.5508 -0.10989,3.8607 -0.42473,4.6123 -1.83412,4.3756 -1.96756,-0.3304 -2.93399,3.4777 -1.36297,5.3707 0.53575,0.6456 1.94025,3.7938 3.12105,6.9961 1.18084,3.2023 2.48652,6.26 2.90155,6.7948 0.41502,0.5348 1.69222,3.81648 2.83826,7.29266 1.14599,3.47622 2.67141,7.63306 3.38981,9.23745 0.7184,1.60442 1.82886,6.08787 2.4677,9.96327 0.63884,3.8754 1.55981,7.29237 2.04661,7.59322 0.4868,0.30098 0.88507,3.12715 0.88507,6.28062 0,6.39812 -1.4525,9.17655 -8.43536,16.13578 -3.2886,3.27747 -15.03035,12.12775 -21.79014,16.4242 -5.26362,3.34546 -10.67767,7.90703 -11.14958,9.39393 -0.30356,0.95589 0.097,3.17137 0.89006,4.92328 0.79294,1.75194 2.19943,6.90462 3.12554,11.45043 0.92612,4.54577 2.00241,8.70264 2.39174,9.23744 1.13351,1.55702 2.7659,10.3625 3.45678,18.64674 0.60837,7.29484 0.51826,7.79795 -1.91402,10.68855 -2.64359,3.14174 -3.2431,5.61433 -1.60652,6.62582 0.52028,0.32157 1.43306,2.42577 2.02842,4.67609 0.59536,2.25033 2.29424,6.49809 3.77526,9.4395 1.48101,2.94139 3.01936,6.44189 3.41859,7.77889 0.39922,1.33703 1.82427,4.83753 3.16677,7.77892 3.65093,7.99905 5.66314,12.64596 7.57903,17.50254 1.92754,4.88612 11.16532,24.62259 14.33628,30.62946 1.12928,2.13918 2.73937,5.20214 3.57802,6.80653 0.83861,1.60439 1.85293,3.06295 2.25403,3.24119 0.40114,0.17824 0.72928,0.90374 0.72928,1.61215 0,0.7084 1.38793,2.09861 3.08431,3.0893 2.47891,1.4478 3.39922,2.94443 4.6888,7.62534 1.27026,4.61049 2.17212,6.10029 4.3284,7.15 1.4981,0.72928 2.93969,2.15139 3.20348,3.1602 0.26388,1.00881 0.86618,1.83415 1.33861,1.83415 0.47243,0 0.85894,1.75026 0.85894,3.88948 v 3.88944 l -5.1049,-0.0331 c -4.96943,-0.0331 -9.48055,-2.23415 -9.48055,-4.62909 0,-1.23008 -6.5729,-7.15695 -10.52828,-9.49345 -1.69663,-1.00219 -3.08478,-2.39791 -3.08478,-3.10162 0,-0.70366 -0.65637,-1.53125 -1.45856,-1.83908 -0.8022,-0.30797 -1.45853,-1.41427 -1.45853,-2.45873 0,-1.04446 -1.53148,-3.90477 -3.4033,-6.35615 -1.87179,-2.45142 -3.40327,-4.949 -3.40327,-5.55013 0,-0.60117 -1.07073,-2.66877 -2.37946,-4.59469 -4.03486,-5.93789 -20.95726,-40.45705 -20.95726,-42.74975 0,-0.60216 -0.81542,-2.68589 -1.81203,-4.63052 -0.99664,-1.94459 -2.52103,-5.17652 -3.38753,-7.18201 -1.78275,-4.12597 -3.30371,-4.68638 -3.95839,-1.45856 -0.24402,1.20333 -0.69323,10.7203 -0.99822,21.14891 -0.75354,25.76671 -2.54852,52.79321 -3.581,53.91756 -1.24276,1.35334 -1.05309,18.4159 0.21867,19.68785 0.69231,0.69234 1.25577,10.1346 1.60428,26.88276 0.46868,22.52607 0.34068,26.11526 -1.0037,28.1672 -1.16812,1.78281 -1.26823,2.62418 -0.41385,3.47856 0.71951,0.71955 1.07926,4.53773 0.99499,10.56092 -0.12826,9.1707 -0.21279,9.50624 -3.03256,12.02561 -1.94367,1.73669 -4.53897,2.81702 -7.86679,3.27471 -3.98036,0.54744 -5.40019,1.26805 -7.15221,3.62991 -1.2023,1.62082 -3.60807,4.3944 -5.3462,6.16358 -1.73809,1.76918 -3.16924,3.57423 -3.18034,4.01127 -0.0257,0.99513 -11.2136,8.26895 -14.53341,9.44854 -1.35452,0.48129 -2.74355,1.30553 -3.08669,1.83162 -0.75402,1.15607 -18.1954,1.95716 -20.34646,0.9345 z m 11.14356,-17.491 c 0.48618,-0.30062 0.0967,-1.12208 -0.86581,-1.82578 -1.63199,-1.19333 -1.57219,-1.34699 0.88838,-2.28248 1.45095,-0.55166 3.24016,-1.00303 3.97599,-1.00303 2.02371,0 2.76163,-1.87657 1.00326,-2.55131 -2.42456,-0.93039 0.1312,-3.28287 3.56654,-3.28287 3.59698,0 3.20191,-2.29773 -0.47007,-2.73393 -2.84146,-0.33737 -6.53656,1.27632 -6.53656,2.85487 0,0.56368 -1.8844,2.85631 -4.18753,5.09472 -2.30313,2.23838 -4.49631,4.87443 -4.87366,5.85788 -0.6162,1.60579 -0.31385,1.71825 2.96464,1.10319 2.00795,-0.3767 4.04861,-0.93075 4.53482,-1.23126 z m -33.16441,-15.80727 c 1.14103,0 2.24635,-1.09057 2.92348,-2.88449 0.59882,-1.58645 1.76411,-3.06718 2.58953,-3.29048 0.82542,-0.22344 -0.0926,-0.45673 -2.04044,-0.51877 -2.64363,-0.0842 -4.54103,0.68819 -7.48561,3.04737 -2.16943,1.73809 -3.96702,3.45792 -3.99462,3.82182 -0.0761,1.00179 4.19455,1.49274 5.24918,0.60345 0.50808,-0.4284 1.74937,-0.7789 2.75848,-0.7789 z m 60.32222,-11.20497 c 8.53646,-3.19345 9.40734,-4.38899 9.42039,-12.93159 0.007,-4.1059 -0.49809,-16.65407 -1.12079,-27.88488 -0.83509,-15.06185 -0.8747,-34.43691 -0.15105,-73.84245 0.53962,-29.38255 0.78397,-54.17673 0.543,-55.09822 -0.38813,-1.48421 -1.46816,-1.61394 -9.46343,-1.13695 -14.10159,0.84133 -13.99016,0.92229 -17.82168,-12.95126 -2.6767,-9.69201 -6.15318,-16.92489 -8.13492,-16.92489 -2.45392,0 -3.12823,9.52186 -1.87234,26.43936 0.58301,7.85298 1.05996,18.3749 1.05996,23.382 0,5.00714 0.40172,9.51954 0.89268,10.02762 0.49099,0.50805 1.38333,11.64403 1.98307,24.74663 0.59969,13.10259 1.50615,28.85488 2.01438,35.00508 0.50819,6.1502 0.9285,14.48578 0.93402,18.52351 0.007,4.48385 0.47368,7.80497 1.20116,8.53245 0.90892,0.90892 0.92542,1.61652 0.0698,2.98677 -0.69966,1.12039 -0.77775,2.13934 -0.20764,2.70945 0.50257,0.50257 1.05067,11.12526 1.218,23.60592 0.29878,22.29157 0.34362,22.72394 2.52753,24.49246 2.52753,2.04668 6.88639,2.367 8.61992,0.63347 0.90756,-0.90752 1.16684,-0.66497 1.16684,1.09142 0,1.6676 0.31789,2.00854 1.21545,1.30352 0.6685,-0.52514 3.32609,-1.74438 5.90574,-2.70942 z m -8.87634,-40.81647 c 0.0184,-1.60439 0.23778,-2.14305 0.48427,-1.19697 0.2466,0.94611 0.23043,2.25877 -0.0367,2.91709 -0.26644,0.65835 -0.46806,-0.11577 -0.44825,-1.72012 z m -1.90872,-8.26509 c 0,-1.87179 0.20029,-2.63753 0.44472,-1.70164 0.24439,0.9359 0.24439,2.46737 0,3.40327 -0.24439,0.93589 -0.44472,0.17015 -0.44472,-1.70163 z m -0.90657,-36.94982 c 0,-2.94138 0.18229,-4.14468 0.40511,-2.67399 0.22271,1.4707 0.22271,3.87732 0,5.34801 -0.22271,1.47069 -0.40511,0.26754 -0.40511,-2.67402 z m 0.83546,-33.54652 c -0.15141,-1.06959 -0.43079,-9.16453 -0.6205,-17.98871 -0.2466,-11.46179 -0.0831,-14.94748 0.57158,-12.2047 0.50415,2.11158 0.78338,10.20652 0.62054,17.98871 -0.16281,7.78219 -0.42006,13.2743 -0.57162,12.2047 z m -24.46353,116.39878 c 0,-0.42407 2.33778,-1.56565 5.19512,-2.5369 l 5.19515,-1.76588 -0.29584,-12.77782 c -0.1628,-7.02781 -0.48132,-24.95754 -0.70797,-39.84387 -0.27526,-18.08379 -0.77176,-27.42572 -1.49597,-28.14993 -1.38025,-1.38024 -1.40539,-5.81867 -0.0408,-7.18337 1.27741,-1.27742 0.79602,-7.68704 -0.55704,-7.41619 -0.53479,0.10695 -1.62868,3.7019 -2.43087,7.98855 -2.61261,13.96068 -3.45024,11.28277 -3.31999,-10.61413 0.0665,-11.19813 -0.25321,-20.12897 -0.71036,-19.84635 -0.45729,0.28261 -0.83144,1.14441 -0.83144,1.91504 0,0.77063 -0.46707,1.40116 -1.03792,1.40116 -0.57081,0 -0.82546,-0.76574 -0.56581,-1.70163 1.20307,-4.33678 1.68627,-12.88382 0.72836,-12.88382 -0.69047,0 -0.80403,-4.89972 -0.35501,-15.31473 0.36309,-8.42309 0.54417,-22.47455 0.40216,-31.22549 -0.22014,-13.57289 -0.53557,-16.42831 -2.14591,-19.43287 -1.03825,-1.93713 -1.88774,-5.0117 -1.88774,-6.83237 v -3.31025 l 2.23492,3.29585 c 1.22924,1.81273 2.51721,4.03299 2.86219,4.93393 0.34509,0.90091 1.4977,2.10387 2.5616,2.67325 2.75891,1.47653 3.29602,-0.97904 2.08373,-9.52671 -1.13307,-7.9891 -4.70994,-14.71805 -7.82361,-14.71805 -2.27814,0 -7.14232,5.0569 -8.88548,9.23748 -0.66898,1.60439 -1.70869,3.42227 -2.31052,4.03968 -0.6018,0.61741 -1.88377,3.68037 -2.84881,6.80653 -0.965,3.12617 -2.12666,6.15994 -2.58141,6.74171 -0.45475,0.5818 -1.04071,4.9003 -1.30211,9.59668 -0.2613,4.69641 -0.87258,9.03363 -1.35809,9.63825 -0.48552,0.60462 -1.18683,2.52139 -1.55845,4.25948 -0.57515,2.68972 -1.09852,3.1602 -3.51558,3.1602 h -2.8398 v 6.54292 c 0,7.03203 3.51249,33.52071 4.87013,36.72725 0.95335,2.25165 3.86662,19.12215 4.53357,26.25381 0.24991,2.67398 0.81499,5.73694 1.25534,6.80653 0.72681,1.7654 3.07195,23.91499 4.47837,42.29779 0.30687,4.01101 0.9199,8.16785 1.36227,9.23748 1.39999,3.38485 2.96068,17.18145 2.95403,26.11342 -0.007,7.66462 0.2488,8.91426 2.31632,11.37134 1.27753,1.51825 2.52787,2.55539 2.77854,2.30471 0.25064,-0.25064 1.00925,0.21132 1.68576,1.02627 1.29113,1.55573 3.90896,2.03191 3.90896,0.71105 z m -10.50645,-71.67008 c 0.0184,-1.60439 0.23777,-2.14301 0.48426,-1.19693 0.2466,0.94607 0.23043,2.25877 -0.0367,2.91709 -0.26644,0.65831 -0.46806,-0.11577 -0.44825,-1.72016 z m -0.88382,-15.5578 c 0.007,-2.67398 0.19625,-3.65251 0.41966,-2.17447 0.22344,1.47808 0.21756,3.66589 -0.0147,4.86183 -0.23079,1.19595 -0.41366,-0.0147 -0.40638,-2.68736 z m -0.94916,-10.69601 c 0.004,-3.20878 0.18706,-4.40424 0.40341,-2.65656 0.21646,1.74768 0.21205,4.37304 -0.011,5.83418 -0.22197,1.4611 -0.39892,0.0294 -0.39349,-3.17762 z m -1.12013,-9.23744 c 0,-1.33699 0.22051,-1.88396 0.49044,-1.21546 0.26975,0.6685 0.26975,1.76242 0,2.43092 -0.26975,0.66849 -0.49044,0.12164 -0.49044,-1.21546 z m 71.80135,95.17254 c 0,-1.0041 0.43756,-1.82566 0.97235,-1.82566 0.5348,0 0.97239,-2.16198 0.97239,-4.80443 0,-2.64245 -0.43759,-5.07487 -0.97239,-5.40537 -0.55684,-0.34436 -1.01399,-5.87402 -1.06981,-12.94122 -0.0537,-6.78713 -0.40768,-16.71589 -0.78687,-22.06386 -0.76081,-10.72993 0.5366,-40.68928 1.89487,-43.75635 0.76974,-1.73809 3.40595,-57.6041 3.15946,-66.95363 -0.14112,-5.35433 -1.34692,-6.10599 -5.78696,-3.60771 l -3.73104,2.09934 -0.22345,19.64555 c -0.12274,10.80505 -0.72946,28.6156 -1.34812,39.57897 -1.60516,28.44665 0.54431,99.58928 3.10205,102.6712 1.44607,1.74243 3.81738,0.10437 3.81738,-2.63683 z m 72.36155,-52.97876 c 2.32772,-0.89323 1.87362,-2.84282 -1.77565,-7.62365 -1.82258,-2.38766 -3.82553,-5.89195 -4.45107,-7.7873 -0.62553,-1.89538 -1.56811,-3.44611 -2.09464,-3.44611 -1.89527,0 -10.56022,3.15678 -10.56022,3.84725 0,0.38845 2.94274,3.51043 6.53943,6.93769 3.59668,3.4273 6.60495,6.55961 6.685,6.9607 0.0801,0.4011 0.20029,0.94806 0.26717,1.21546 0.16869,0.67427 3.5309,0.60936 5.39001,-0.104 z m -23.74337,-39.91321 c 0,-1.40454 -13.63103,-28.43071 -14.66024,-29.06679 -1.62732,-1.00572 -0.16942,4.8321 2.42559,9.7126 1.16933,2.1992 2.89096,5.73715 3.82582,7.86208 0.93487,2.12497 2.23504,4.73868 2.88927,5.80827 0.65424,1.0696 1.74158,2.92926 2.41637,4.13255 1.13776,2.02893 3.10319,3.01143 3.10319,1.55129 z m -17.9262,-37.4127 c -1.34923,-2.87152 -3.30389,-7.90817 -4.34379,-11.19258 -1.03986,-3.28438 -2.3236,-6.78489 -2.85274,-7.77888 -0.52914,-0.99404 -2.12621,-4.32329 -3.54902,-7.39837 -1.4228,-3.07512 -2.99232,-5.59111 -3.48776,-5.59111 -1.81111,0 -0.82035,5.49475 2.01622,11.18218 1.60039,3.20878 2.91143,6.51426 2.91346,7.34545 0.002,0.83119 1.31633,3.58117 2.92072,6.11106 1.60439,2.52985 2.91709,5.10798 2.91709,5.72918 0,1.65827 5.21967,8.91165 5.59744,7.77833 0.17677,-0.53039 -0.78243,-3.31374 -2.13162,-6.18526 z m -16.09363,-37.76396 c -1.23872,-2.99048 -2.92999,-3.97529 -2.92999,-1.70607 0,1.62375 2.96336,5.84222 3.63333,5.17226 0.28482,-0.28482 -0.0331,-1.84463 -0.70334,-3.46619 z m -26.6387,-0.56445 c 4.74871,-0.8281 9.03638,-1.90795 9.52811,-2.39968 1.02068,-1.02071 -0.50606,-7.04011 -3.38445,-13.34353 -1.03523,-2.26704 -1.88223,-4.56903 -1.88223,-5.11548 0,-0.54645 -0.82178,-2.84844 -1.82621,-5.11552 -1.00444,-2.26704 -2.86406,-6.63046 -4.13255,-9.69642 -1.26849,-3.06597 -2.74388,-5.58395 -3.27868,-5.59549 -0.5348,-0.011 -3.59775,-2.35157 -6.80653,-5.20012 -3.20882,-2.84851 -9.38463,-7.60123 -13.72405,-10.56157 -7.56227,-5.15896 -8.09806,-5.36241 -12.9041,-4.90064 -2.75782,0.26497 -5.16815,0.75343 -5.35624,1.08543 -0.18816,0.33186 -0.62881,2.58505 -0.97933,5.00681 l -0.63734,4.40322 7.58561,7.83419 c 8.04184,8.30541 13.48679,17.64954 15.80065,27.11573 0.65365,2.67402 1.79726,6.24064 2.54143,7.92588 0.74416,1.68521 1.35298,4.17944 1.35298,5.54275 0,4.75587 4.15213,5.44727 18.10293,3.01444 z m -70.61055,-3.29257 c 0,-3.47387 2.55362,-15.91417 3.75295,-18.28302 0.47728,-0.94269 2.7778,-5.59048 5.11228,-10.32842 2.60471,-5.28641 6.04399,-10.44254 8.90254,-13.34651 4.11064,-4.17599 4.6988,-5.30291 5.00464,-9.58871 0.20727,-2.90195 -0.0989,-5.17741 -0.76001,-5.65374 -2.61106,-1.88094 -12.34141,-4.11262 -18.96988,-4.35077 l -7.16731,-0.25762 -3.04252,5.94693 c -3.4477,6.73898 -5.45168,11.34414 -7.99042,18.36214 -0.96732,2.67398 -2.02409,5.0806 -2.34838,5.348 -0.72406,0.59706 -3.51524,12.42499 -4.4171,18.718 -0.3642,2.54028 -1.04983,4.61872 -1.52391,4.61872 -1.52093,0 -0.92424,2.84929 1.31064,6.25869 2.64683,4.03773 5.89467,5.18097 15.08684,5.31041 l 7.04964,0.0992 z m 101.90359,-13.92923 c 0.17934,-3.43487 -0.10107,-5.58163 -0.72929,-5.58163 -0.56147,0 -1.02086,-1.44258 -1.02086,-3.20569 0,-3.8087 -3.51708,-20.7577 -4.88358,-23.53429 -0.52642,-1.0696 -1.84015,-5.44246 -2.91937,-9.71745 -1.07926,-4.27496 -2.7856,-8.59596 -3.79187,-9.60223 -1.79116,-1.79116 -1.84301,-1.66889 -2.47185,5.82797 -0.35318,4.21163 -1.11326,8.61819 -1.68885,9.79234 -0.803,1.63802 -0.67551,2.91672 0.54796,5.49493 0.87694,1.84809 1.59446,4.63817 1.59446,6.20018 0,2.89644 2.28476,11.03548 3.97129,14.14713 0.5137,0.94776 1.85584,4.22949 2.98254,7.2927 3.9492,10.73681 7.92791,12.10228 8.40942,2.88604 z m -19.49579,-24.68198 c 2.34414,-1.46158 2.7301,-3.247 1.28646,-5.95119 -0.49577,-0.92866 -1.15964,-2.50957 -1.47525,-3.51312 -0.49878,-1.5859 -1.20954,-1.74037 -5.43084,-1.1804 -7.85397,1.04185 -8.05863,1.21715 -7.36999,6.31227 0.33259,2.45944 1.29557,4.98506 2.14039,5.61247 1.82861,1.35801 7.73615,0.66103 10.84923,-1.28003 z m -23.09362,-13.88539 c 0,-0.49378 -1.09392,-2.1978 -2.43091,-3.78672 -2.05606,-2.44352 -2.43091,-3.87941 -2.43091,-9.31208 0,-3.63381 0.42226,-6.42308 0.97235,-6.42308 0.53483,0 0.97238,-0.77775 0.97238,-1.72835 0,-0.95063 0.70099,-2.72918 1.55772,-3.95236 2.32272,-3.31613 0.56401,-3.99635 -2.00883,-0.77694 -2.96395,3.70873 -4.41071,8.87644 -4.41071,15.75471 0,4.82644 0.38801,6.07317 2.61283,8.39537 2.56586,2.67818 5.16608,3.59897 5.16608,1.82945 z m 22.85055,-2.01934 c 0.33039,-0.53479 -0.0812,-0.97235 -0.91499,-0.97235 -0.83376,0 -1.51593,0.43756 -1.51593,0.97235 0,0.5348 0.41172,0.97239 0.91499,0.97239 0.50322,0 1.18539,-0.43759 1.51593,-0.97239 z m -18.71745,-2.40122 c -0.25248,-1.32064 -1.06691,-2.9057 -1.80986,-3.52234 -0.74299,-0.6166 -1.35088,-1.72386 -1.35088,-2.46057 0,-0.73674 -0.41172,-1.33949 -0.91499,-1.33949 -2.90242,0 -1.79064,7.52464 1.29609,8.77203 3.08772,1.24777 3.27648,1.14931 2.77964,-1.44963 z m 8.94697,1.65706 c -2.23702,-1.56794 -5.30118,-6.99312 -5.30118,-9.38585 0,-1.39539 -0.52594,-3.37927 -1.16879,-4.40862 -0.91641,-1.46742 -0.90146,-2.37101 0.0691,-4.18488 1.4005,-2.61683 1.12715,-10.05934 -0.35905,-9.77551 -1.53221,0.29254 -2.22926,4.04166 -2.334,12.55302 -0.12459,10.1223 1.01674,13.44934 5.05918,14.74841 3.86059,1.24059 5.40522,1.4142 4.03449,0.45343 z m -24.22227,-4.05295 c -0.35243,-0.57037 -1.10627,-1.03707 -1.67498,-1.03707 -0.64476,0 -0.571,0.55791 0.19588,1.48205 1.33365,1.60693 2.52555,1.24831 1.47903,-0.44498 z m 33.49165,-5.16962 c 0.011,-2.20798 -0.40874,-2.67398 -2.41599,-2.67398 -2.87523,0 -2.90533,0.16501 -0.82906,4.54033 1.77249,3.7352 3.21852,2.90357 3.24505,-1.86635 z m -43.69211,2.61456 c 0.87089,-1.04938 1.19323,-4.30549 1.04402,-10.54702 l -0.21573,-9.02903 8.66719,-0.61521 c 10.56433,-0.7499 11.84726,-1.19921 11.84726,-4.14934 0,-4.27069 11.31529,-7.30329 12.35898,-3.31231 1.17889,4.50814 11.85185,0.73392 14.70547,-5.20026 1.81575,-3.77588 0.86942,-5.71041 -2.39287,-4.8916 -1.58543,0.3979 -2.3705,0.28482 -2.01512,-0.28996 0.32451,-0.52528 -0.79411,-0.99448 -2.52896,-1.0607 -8.46888,-0.32304 -10.3747,-0.64377 -9.43153,-1.58694 1.46374,-1.46374 1.17216,-2.52815 -0.69253,-2.52815 -1.20175,0 -0.72833,-0.82962 1.70163,-2.98211 l 3.36655,-2.9821 -3.16019,0.5269 c -3.92311,0.65409 -3.97908,-0.22087 -0.24293,-3.80014 2.19608,-2.10398 2.91709,-3.67041 2.91709,-6.33748 0,-1.94852 1.09209,-5.69534 2.42684,-8.32628 2.11941,-4.17757 2.44164,-6.13841 2.5437,-15.47956 0.0643,-5.8828 0.30173,-9.8208 0.52763,-8.7512 2.54242,12.03719 3.93432,16.59369 6.90613,22.60744 1.91603,3.87727 3.84695,7.04964 4.29098,7.04964 0.44398,0 0.80726,0.80179 0.80726,1.78178 0,0.98 2.83554,6.02279 6.30121,11.20615 4.20925,6.29551 5.62728,9.06365 4.27125,8.33793 -1.40697,-0.75298 -2.34073,-0.77566 -3.04249,-0.0739 -1.72375,1.72376 1.75401,5.80357 5.55491,6.51664 1.8568,0.3484 3.93854,1.31256 4.62611,2.14268 1.10616,1.3356 0.82072,1.42898 -2.47905,0.81105 -3.27126,-0.61252 -3.6879,-0.48202 -3.39335,1.06295 0.18486,0.96867 1.31586,1.90104 2.51372,2.07197 1.19781,0.17089 2.17788,0.77507 2.17788,1.34265 0,0.98804 -2.82308,0.75383 -8.75127,-0.72598 l -2.43091,-0.60679 2.43091,2.07142 c 1.33699,1.13931 3.3846,2.46671 4.55026,2.9498 1.71776,0.7119 2.05855,1.53269 1.7984,4.3317 -0.32304,3.47801 0.0794,3.91072 2.7018,2.90437 0.85273,-0.32708 1.23181,-1.30917 0.93847,-2.43088 -0.34803,-1.3307 0.007,-1.88193 1.20678,-1.88193 0.93443,0 3.87217,-1.56132 6.52833,-3.4696 2.65616,-1.90828 5.59203,-3.7679 6.52414,-4.13255 3.30249,-1.29186 10.7569,-8.68985 10.7569,-10.67546 0,-2.4358 -3.64056,-18.41841 -4.80696,-21.10312 -0.46467,-1.06959 -1.58958,-4.78888 -2.49982,-8.26506 -0.91024,-3.47621 -2.20034,-7.41428 -2.86689,-8.75127 -0.66655,-1.33703 -1.98366,-4.83753 -2.92686,-7.77893 -0.94321,-2.9414 -2.79865,-7.2076 -4.12322,-9.4805 -2.59739,-4.457 -2.81194,-4.5228 -14.1616,-4.3473 -2.55495,0.039 -5.78174,-0.5178 -7.17062,-1.2383 -1.38888,-0.7206 -3.09298,-1.0923 -3.78683,-0.8261 -1.50932,0.5792 -5.35032,-1.3326 -6.89944,-3.4341 -0.93354,-1.2663 -1.35893,-1.2996 -2.67299,-0.2091 -2.53441,2.1034 -17.12258,20.5311 -17.12258,21.6292 0,0.5538 -2.51599,4.57541 -5.59111,8.93706 -6.63545,9.41153 -6.78473,9.67415 -16.11542,28.34985 -9.85735,19.72982 -10.72427,22.70894 -6.67772,22.94749 5.02332,0.29621 -4.51861,1.66801 -12.17772,1.75084 -7.54371,0.0816 -9.10698,0.37133 -9.88907,1.83269 -1.20013,2.24242 -0.16391,17.97405 1.24555,18.91208 0.59044,0.39294 5.50493,0.72108 10.92115,0.72928 7.75179,0.011 10.11582,-0.30834 11.1075,-1.50311 z m -19.03049,-1.43155 c -0.34141,-0.55262 -0.86808,-4.2719 -1.17007,-8.26509 -0.54012,-7.14166 -0.51109,-7.2621 1.77907,-7.37161 7.17966,-0.34326 14.30956,-0.11026 15.29702,0.49984 0.67809,0.41911 1.12736,3.30202 1.12281,7.20473 -0.007,6.11069 -0.16648,6.57989 -2.62474,7.72151 -3.28871,1.52729 -5.4032,1.54221 -6.89683,0.0485 -0.90752,-0.90756 -1.16683,-0.90756 -1.16683,0 0,1.42523 -5.47325,1.56511 -6.34043,0.16207 z m 52.52769,-2.88464 c 0.33039,-0.53479 0.13745,-0.97235 -0.42881,-0.97235 -0.56636,0 -1.02975,0.43756 -1.02975,0.97235 0,0.5348 0.19294,0.97239 0.4288,0.97239 0.23594,0 0.69922,-0.43759 1.02976,-0.97239 z m -80.21999,-4.49039 c 0,-0.80219 -0.43756,-1.18811 -0.97235,-0.85761 -0.5348,0.33039 -0.97235,1.25731 -0.97235,2.05951 0,0.80219 0.43755,1.18811 0.97235,0.85758 0.53479,-0.33039 0.97235,-1.25728 0.97235,-2.05948 z m 79.13246,1.03663 c 0.33186,-0.86533 0.16905,-1.25562 -0.38213,-0.91498 -0.5287,0.32671 -0.96126,1.00583 -0.96126,1.50906 0,1.39866 0.69698,1.09046 1.34339,-0.59408 z m -87.27775,-2.73554 c -0.31752,-1.26492 0.12201,-4.35158 0.97632,-6.85923 0.85442,-2.50769 1.28856,-4.82434 0.96475,-5.14819 -0.32378,-0.32378 -0.86534,0.79378 -1.2033,2.48361 -0.45975,2.29887 -1.13468,3.06865 -2.68074,3.05752 -4.53589,-0.0331 -4.97208,-1.30631 -2.544,-7.42828 1.23982,-3.12606 2.67384,-6.23069 3.18669,-6.89922 0.67776,-0.88345 0.36872,-1.21542 -1.13137,-1.21542 -1.86072,0 -2.06377,-0.54226 -2.06377,-5.51147 0,-6.45935 -1.79711,-17.82591 -3.07119,-19.42497 -1.41773,-1.7794 -2.34775,-21.22374 -0.97452,-20.37505 0.62072,0.38364 1.12862,1.73981 1.12862,3.01367 0,1.27389 0.37588,2.54844 0.83527,2.83238 0.45942,0.28371 1.11248,2.87471 1.45129,5.75737 0.62773,5.34106 3.43538,15.32517 4.5572,16.20553 0.34068,0.26755 0.88058,1.36129 1.19961,2.43088 1.32616,4.44596 3.30143,9.02833 5.8161,13.49248 1.46889,2.60765 2.67072,5.12364 2.67072,5.59108 0,0.46746 0.44839,0.84989 0.99642,0.84989 0.54803,0 1.41233,1.09393 1.92067,2.43092 1.46484,3.85283 4.43765,3.10904 6.80105,-1.70164 1.11664,-2.27288 3.51727,-6.75791 5.33478,-9.96672 1.81747,-3.20878 4.27021,-7.80321 5.45057,-10.2098 1.18036,-2.40662 3.88444,-7.00101 6.00911,-10.20983 2.12467,-3.20878 4.25004,-6.85181 4.7231,-8.09556 0.47305,-1.24376 2.17101,-4.16677 3.77327,-6.49555 1.60226,-2.32882 2.9132,-4.48675 2.9132,-4.79542 0,-0.30871 2.40658,-4.05528 5.348,-8.32578 2.94138,-4.2706 5.34797,-8.1953 5.34797,-8.7217 0,-0.5264 1.09392,-1.6739 2.43091,-2.5499 1.33699,-0.8761 2.43092,-2.1137 2.43092,-2.7503 0,-0.6367 2.44484,-4.1216 5.43297,-7.7442 2.98813,-3.6227 5.28534,-6.7088 5.1049,-6.8581 -0.18045,-0.1492 -1.9414,-0.5202 -3.91322,-0.8242 -3.26281,-0.5031 -3.82884,-0.2334 -6.29566,3.0009 -1.4908,1.9545 -4.09561,4.7698 -5.78846,6.2561 -1.8339,1.6102 -3.33021,4.0472 -3.70209,6.0295 -0.34325,1.8299 -1.45279,4.3428 -2.46561,5.5843 -1.69446,2.077 -1.89575,2.1176 -2.52183,0.5088 -0.4197,-1.0785 -0.12238,-2.1961 0.77599,-2.9171 2.00071,-1.6055 2.65373,-4.5649 3.29015,-14.9097 0.36567,-5.9461 0.19404,-9.0968 -0.51966,-9.5379 -0.58621,-0.3624 -1.06584,-1.5081 -1.06584,-2.5461 0,-1.7005 -0.72216,-1.8873 -7.29271,-1.8873 h -7.29274 l -0.0147,2.6739 -0.0147,2.6741 -1.22546,-2.4309 c -0.67401,-1.337 -2.18354,-2.5687 -3.35457,-2.7372 -1.6576,-0.2385 -2.25738,0.2999 -2.70838,2.4309 -0.31863,1.5055 -0.99043,3.497 -1.49293,4.4256 -1.35636,2.5066 -1.05077,7.7721 0.57585,9.9227 1.30524,1.7257 1.42762,1.3764 1.42762,-4.0752 0,-3.2794 0.32818,-6.1669 0.72928,-6.4166 0.4011,-0.2495 0.58136,2.6349 0.40062,6.4102 -0.20176,4.2168 0.13598,7.732 0.87585,9.1146 0.95893,1.7919 0.95732,2.5485 -0.007,3.7117 -1.00668,1.2129 -0.68581,1.9421 1.88994,4.2947 2.8344,2.5888 2.97545,4.8996 0.19404,3.1807 -2.17288,-1.343 -6.02646,-7.2863 -6.03131,-9.3022 -0.003,-1.0994 -1.04581,-3.2999 -2.31816,-4.8901 l -2.31331,-2.8913 -7.16239,1.2133 c -8.08961,1.3704 -9.59327,2.648 -9.59327,8.1509 0,2.9013 -0.64486,4.2726 -2.99904,6.3776 -2.96417,2.6503 -11.1404,5.5028 -12.81186,4.4698 -1.29594,-0.8009 -5.32702,3.3873 -6.05608,6.2921 -0.35171,1.4015 -1.4235,4.31353 -2.38171,6.47128 -0.95816,2.15775 -2.53763,7.42369 -3.50991,11.7021 -0.97228,4.27837 -2.1117,8.01508 -2.53205,8.30368 -0.42036,0.28849 -1.69296,6.41455 -2.82805,13.6131 -1.13508,7.19855 -2.46142,13.50398 -2.94744,14.01203 -1.49377,1.56153 -0.97945,6.95353 0.81796,8.57497 0.93589,0.84428 4.32703,2.48204 7.53581,3.63946 3.20882,1.15747 7.19341,2.71302 8.85469,3.45685 4.31575,1.93228 10.36856,4.06489 11.91345,4.19745 0.91707,0.0786 1.14441,-0.58974 0.74365,-2.18652 z m 2.93929,-43.84099 c -2.75355,-2.55189 -3.20963,-4.3687 -1.52071,-6.05766 1.10131,-1.10127 0.2466,-3.20363 -3.24002,-7.96917 -1.05261,-1.4388 -1.70163,-4.07901 -1.70163,-6.92263 v -4.59685 l 5.38101,-0.6324 c 2.95957,-0.348 6.13189,-1.0182 7.04963,-1.4897 1.90928,-0.9809 14.4304,-3.0074 18.58151,-3.0074 2.3329,0 2.87475,0.4864 3.38522,3.0386 1.08032,5.40158 0.64732,11.55476 -0.98874,14.05175 -1.28768,1.96525 -1.38172,2.90787 -0.48618,4.87337 2.61537,5.74014 -0.0816,8.85939 -6.7395,7.79476 -2.22184,-0.35538 -3.95886,-0.17493 -4.34585,0.45122 -0.38911,0.62958 -2.08101,0.80044 -4.26771,0.43098 -2.66109,-0.44957 -3.95706,-0.20948 -4.88109,0.90377 -1.74937,2.10788 -3.2384,1.90013 -6.22594,-0.86864 z m 4.89204,-3.06163 c 0.32855,-0.85618 10e-4,-1.92507 -0.72719,-2.37531 -1.53559,-0.94901 -3.82064,0.6015 -3.82064,2.59251 0,1.86639 3.81825,1.68403 4.54783,-0.2172 z m 9.06523,-1.95062 c 0,-1.91206 -0.37791,-2.38993 -1.53806,-1.94473 -0.84593,0.3245 -1.72107,0.59021 -1.94474,0.59021 -0.22381,0 -0.40664,0.87511 -0.40664,1.94474 0,1.29646 0.64824,1.9447 1.94474,1.9447 1.44739,0 1.9447,-0.64824 1.9447,-2.53492 z m -5.7828,-3.78543 c -0.0761,-1.44328 -2.25161,-1.17812 -2.75631,0.3359 -0.27269,0.81789 0.17199,1.18238 1.18576,0.97239 0.89205,-0.18486 1.59881,-0.77353 1.57055,-1.30833 z m 11.19144,-3.30518 c -1.80758,-2.92473 -5.30967,0.11283 -4.01623,3.48338 0.56743,1.47878 0.82351,1.44129 2.65293,-0.38809 1.11365,-1.11369 1.72713,-2.50658 1.3633,-3.09529 z m -16.4895,0.16538 c -0.98845,-0.98845 -1.80399,0.49966 -0.99301,1.81188 0.61264,0.99124 0.84167,0.99202 1.17103,0.004 0.22528,-0.67559 0.14516,-1.49271 -0.17788,-1.81578 z m 10.59468,-0.2635 c 0.33039,-0.5348 -0.32598,-0.97235 -1.45852,-0.97235 -1.13274,0 -1.78907,0.43755 -1.45857,0.97235 0.33039,0.53479 0.98687,0.97235 1.45857,0.97235 0.47165,0 1.12802,-0.43756 1.45852,-0.97235 z m 9.23745,-1.94474 c 0,-0.5348 -0.19294,-0.97235 -0.42877,-0.97235 -0.23594,0 -0.69922,0.43755 -1.02976,0.97235 -0.33039,0.53479 -0.13745,0.97239 0.42881,0.97239 0.56633,0 1.02972,-0.4376 1.02972,-0.97239 z m -20.45054,-3.16016 c -0.0184,-1.73813 -0.67335,-4.00958 -1.45856,-5.04768 -1.35915,-1.79696 -1.42696,-1.75033 -1.41432,0.97235 0.0184,3.81348 0.98481,7.23549 2.04485,7.23549 0.47243,0 0.84505,-1.42207 0.82803,-3.16016 z m 6.45259,-0.46593 c -0.98845,-0.98845 -1.80399,0.49967 -0.99301,1.81189 0.61264,0.99124 0.84167,0.99201 1.17103,0.004 0.22528,-0.67559 0.14516,-1.4927 -0.17788,-1.81578 z m 5.83689,-0.82906 c -0.3245,-0.84596 -0.59021,-2.84138 -0.59021,-4.43434 0,-2.7522 -0.18155,-2.8813 -3.64634,-2.5945 -2.84031,0.2352 -3.64637,0.71382 -3.64637,2.16551 0,1.02505 0.54696,2.04602 1.21546,2.26884 0.71307,0.23778 1.21546,-0.43215 1.21546,-1.6206 0,-3.56045 1.8988,-2.16925 2.5437,1.86371 0.40043,2.50441 1.13413,3.88944 2.06024,3.88944 0.91205,0 1.22233,-0.56277 0.84806,-1.53806 z m 9.77519,-5.58618 c 2.35631,-2.84636 2.89136,-4.54416 1.43217,-4.54416 -1.27043,0 -5.96766,7.48833 -5.93381,9.45975 0.0257,1.52328 0.15656,1.49759 1.12792,-0.22234 0.60411,-1.06959 2.12228,-3.18159 3.37372,-4.69333 z m 13.94371,-14.21036 c 0,-1.038 0.37434,-2.1187 0.83188,-2.4015 0.45755,-0.2826 0.62532,0.5666 0.37284,1.8873 -0.54843,2.869 -1.20472,3.1491 -1.20472,0.5142 z m 4.11505,-1.0297 c 0,-1.8719 0.19992,-2.6376 0.44468,-1.7017 0.24476,0.9359 0.24476,2.4674 0,3.4033 -0.24476,0.9359 -0.44468,0.1702 -0.44468,-1.7016 z m 4.88142,-13.127 c 0.011,-2.1391 0.20984,-2.8998 0.44251,-1.6903 0.23263,1.2096 0.22381,2.9598 -0.0184,3.8895 -0.24329,0.9297 -0.43366,-0.06 -0.42286,-2.1992 z m -7.05177,-6.3203 c 0,-1.6044 0.43759,-2.9171 0.97239,-2.9171 0.53479,0 0.97235,1.3127 0.97235,2.9171 0,1.6044 -0.43756,2.9171 -0.97235,2.9171 -0.5348,0 -0.97239,-1.3127 -0.97239,-2.9171 z m 56.90969,101.08301 c 0.34509,-0.55832 -0.10363,-2.131 -0.99738,-3.49485 -0.95188,-1.45276 -1.39318,-3.4025 -1.06558,-4.70781 0.73542,-2.93025 -1.57073,-5.03419 -3.27163,-2.98475 -0.94872,1.14313 -0.87617,2.06473 0.35722,4.53699 0.85126,1.70638 1.54772,4.1292 1.54772,5.38402 0,2.33305 2.25569,3.16597 3.42969,1.2664 z m 14.55903,-4.81906 c -0.33039,-0.53479 -1.0385,-0.97235 -1.5733,-0.97235 -0.5348,0 -0.70194,0.43756 -0.37144,0.97235 0.33039,0.5348 1.03854,0.97236 1.57334,0.97236 0.53479,0 0.70193,-0.43756 0.3714,-0.97236 z m -75.96801,-7.04963 c 0.75883,-1.2033 1.67819,-3.28173 2.04298,-4.61873 1.9461,-7.1325 18.21517,-39.1123 23.56226,-46.31592 2.83135,-3.81436 5.14786,-7.25697 5.14786,-7.65027 0,-0.3932 2.33995,-3.8358 5.1999,-7.6502 2.85994,-3.8144 5.77471,-8.0291 6.47728,-9.3661 1.42034,-2.703 8.81654,-11.9714 9.9579,-12.4787 1.63618,-0.7272 0.57273,-2.1068 -1.62394,-2.1068 -1.65838,0 -3.93545,1.7762 -7.71159,6.0154 -2.94708,3.3085 -5.93488,7.1372 -6.63954,8.5082 -0.70465,1.371 -1.82886,2.8427 -2.49824,3.2704 -0.66938,0.4276 -1.21703,1.2497 -1.21703,1.8267 0,0.5771 -1.75026,3.6133 -3.88945,6.7473 -2.13922,3.1339 -3.88947,6.1543 -3.88947,6.7119 0,0.5576 -0.65633,1.2657 -1.45853,1.57355 -0.8022,0.30797 -1.45856,0.98102 -1.45856,1.49594 0,0.51491 -1.42207,2.97096 -3.16016,5.45785 -3.35391,4.7988 -4.01756,5.99485 -12.39764,22.34456 -2.94139,5.7387 -5.57138,10.65279 -5.8444,10.92019 -0.27306,0.26754 -1.58109,2.89279 -2.90687,5.83418 -1.32575,2.94142 -2.70857,5.57115 -3.07288,5.84391 -0.3642,0.2727 -0.96331,1.69484 -1.33107,3.1602 -0.62065,2.47288 -0.45322,2.66425 2.33139,2.66425 2.05414,0 3.43513,-0.68982 4.3798,-2.18781 z m 45.7223,-2.09193 c 1.84165,-0.4513 2.48464,-1.01976 1.85999,-1.64441 -1.43758,-1.43758 -6.13616,0.66655 -6.1183,2.73991 0.007,1.05633 0.2918,1.31234 0.72928,0.65997 0.3929,-0.58617 1.98098,-1.37613 3.52903,-1.75547 z m -112.20552,-76.42639 c 0,-0.5348 -0.76574,-0.9657 -1.70163,-0.9575 -1.45423,0.011 -1.48959,0.1518 -0.24329,0.9575 1.83507,1.1859 1.94473,1.1859 1.94473,0 z m 6.80653,-4.9766 c 0,-0.5348 -0.43756,-0.7019 -0.97235,-0.3714 -0.5348,0.3304 -0.97235,1.0385 -0.97235,1.5733 0,0.5348 0.43755,0.7019 0.97235,0.3714 0.53479,-0.3304 0.97235,-1.0385 0.97235,-1.5733 z m 11.66836,-1.992 c 0,-3.5407 -0.42444,-3.4123 -1.34026,0.4051 -0.38085,1.5874 -0.23888,2.674 0.3495,2.674 0.54497,0 0.99087,-1.3856 0.99087,-3.0791 z m 9.75783,-0.3653 c 0.83719,-1.0088 0.92348,-1.821 0.26351,-2.4809 -0.65986,-0.6599 -1.51329,-0.1687 -2.60659,1.4998 -1.31141,2.0014 -1.36235,2.4808 -0.2635,2.4808 0.74906,0 1.92203,-0.6749 2.60658,-1.4997 z m 11.37083,0.9122 c -0.32304,-0.323 -1.16176,-0.3576 -1.8637,-0.077 -0.7757,0.3106 -0.54527,0.5408 0.58746,0.5875 1.02505,0.042 1.59935,-0.1878 1.27624,-0.5108 z m 7.06989,-1.3572 c 0,-0.5348 -0.65633,-0.9724 -1.45853,-0.9724 -0.80223,0 -1.45856,0.4376 -1.45856,0.9724 0,0.5348 0.65633,0.9723 1.45856,0.9723 0.8022,0 1.45853,-0.4375 1.45853,-0.9723 z m 105.01523,0 c 0,-0.5348 -2.3455,-0.9724 -5.21228,-0.9724 -2.86674,0 -7.35176,-0.2495 -9.96673,-0.5544 -4.43452,-0.517 -4.62743,-0.4516 -2.86696,0.9724 2.17653,1.7605 18.04597,2.248 18.04597,0.5544 z m 6.80657,0.5436 c 0,-1.0264 -1.86609,-1.4575 -2.42114,-0.5595 -0.3359,0.5435 0.0713,0.9882 0.90517,0.9882 0.83377,0 1.51597,-0.1929 1.51597,-0.4287 z m -120.76756,-1.7105 c 1.81071,-1.8107 1.38282,-2.8886 -1.01105,-2.5471 -1.19781,0.1709 -2.32382,1.0765 -2.50217,2.0123 -0.37177,1.9506 1.77131,2.2768 3.51322,0.5348 z m 51.74464,-6.0018 c 0.011,-2.7835 0.28518,-3.5861 0.89738,-2.6189 0.646,1.0209 0.96776,0.4996 1.20057,-1.9447 0.23925,-2.512 0.81877,-3.4109 2.33908,-3.6282 1.77524,-0.2536 2.01169,-0.9336 1.9447,-5.5913 -0.0419,-2.9164 0.10804,-5.3024 0.33333,-5.3023 0.22528,2e-4 1.28399,0.766 2.35267,1.7019 1.85683,1.6261 1.91412,1.6224 1.2908,-0.083 -0.35869,-0.9814 -0.91344,-4.2631 -1.23266,-7.2927 l -0.58037,-5.5083 2.57454,2.917 c 2.51423,2.8488 2.55969,2.8602 1.94088,0.4862 -0.3484,-1.337 -1.19385,-3.5982 -1.87852,-5.0249 -0.81149,-1.691 -0.91366,-2.9251 -0.29364,-3.5452 0.52323,-0.5233 0.99602,-2.5283 1.05063,-4.4557 0.0548,-1.9274 0.4502,-3.5044 0.87901,-3.5044 0.42881,0 0.77963,-0.7876 0.77963,-1.7502 0,-2.0476 1.79399,-4.0839 3.59775,-4.0839 0.90756,0 1.26408,1.7826 1.26408,6.3203 0,3.5653 0.42384,6.3204 0.97235,6.3204 1.72346,0 1.63971,-8.5169 -0.12679,-12.8839 -1.15034,-2.8438 -4.73511,-3.764 -4.73511,-1.2154 0,0.8022 -0.43756,1.4586 -0.97239,1.4586 -1.47881,0 -1.16033,-3.4954 0.4395,-4.8231 2.15223,-1.7862 4.67859,-0.8292 6.33362,2.399 0.82061,1.6007 1.82016,3.0561 2.22125,3.2344 1.00091,0.4448 0.92271,9.5183 -0.1,11.6005 -4.4787,9.1186 -4.40413,8.7983 -3.02241,12.9851 l 1.31949,3.998 1.75228,-2.164 c 0.96375,-1.1901 1.75227,-2.8254 1.75227,-3.6338 0,-1.1911 0.27453,-1.2421 1.44706,-0.269 1.16875,0.9699 1.55824,0.9111 2.02519,-0.3058 0.34068,-0.8875 1.20429,-1.2664 2.10178,-0.922 1.2342,0.4736 1.40009,0.093 0.87334,-2.0061 -0.63226,-2.5192 0.58897,-3.6066 1.81773,-1.6184 0.33039,0.5348 1.03949,0.9723 1.5755,0.9723 1.065,0 0.1573,-8.5385 -1.08525,-10.2098 -0.39764,-0.5348 -1.30998,-4.0353 -2.02746,-7.7789 -1.47716,-7.7074 -2.95149,-9.4693 -7.39962,-8.8429 -1.79975,0.2536 -3.25549,-0.022 -3.46662,-0.6551 -0.40518,-1.2155 -12.27956,-2.6525 -12.9503,-1.5672 -0.23373,0.3781 0.89029,1.2697 2.49769,1.9812 3.25619,1.4413 3.7216,2.4626 1.33784,2.9354 -0.97316,0.193 -1.67447,1.4403 -1.8171,3.2315 -1.42196,17.8569 -1.98285,20.9058 -3.84597,20.9058 -0.78154,0 -1.54856,1.7735 -1.96341,4.5399 -0.48345,3.224 -0.93391,4.1399 -1.55408,3.1602 -0.6671,-1.054 -0.87676,-0.8632 -0.88815,0.8081 -0.007,1.2033 -0.45244,2.1878 -0.98724,2.1878 -0.53479,0 -0.97238,0.8284 -0.97238,1.8407 0,1.0124 -0.58633,2.0657 -1.30293,2.3407 -0.94379,0.362 -1.20347,2.066 -0.94214,6.1813 l 0.36089,5.6813 -1.8045,-3.4033 c -1.21615,-2.2935 -1.49928,-3.8055 -0.86838,-4.6369 1.03237,-1.3606 -0.39161,-3.417 -6.04715,-8.7331 -2.73646,-2.5721 -4.18855,-3.1744 -7.80413,-3.2369 -2.44315,-0.042 -3.89514,-0.2973 -3.2266,-0.5672 2.07719,-0.8382 1.33284,-2.4263 -0.97239,-2.0746 -1.20329,0.1838 -2.10027,0.8049 -1.99325,1.3806 0.10694,0.5757 -1.40101,1.8871 -3.35119,2.914 -1.95018,1.027 -4.9794,3.8631 -6.7316,6.3025 -2.95141,4.1089 -3.13994,4.8224 -2.56237,9.6988 0.34289,2.895 0.82167,4.6094 1.06405,3.8099 0.69492,-2.2924 3.16144,-8.0086 4.70784,-10.9102 0.77673,-1.4575 1.39388,-2.8796 1.37146,-3.1602 -0.0221,-0.2808 -0.0408,-0.9478 -0.0408,-1.4826 0,-0.572 3.40327,-0.9724 8.26509,-0.9724 6.21551,0 8.2651,0.3197 8.2651,1.2891 0,0.7089 1.05217,2.2774 2.33812,3.4855 1.28598,1.2082 2.62444,3.8004 2.97434,5.7606 0.34987,1.9603 1.9231,5.3858 3.49603,7.6125 1.57293,2.2266 2.85987,4.5774 2.85987,5.224 0,0.9036 0.33737,0.8955 1.45852,-0.037 0.85968,-0.7134 1.46467,-2.8585 1.47345,-5.224 z m 23.39861,-30.3484 c 0.0467,-1.1327 0.2771,-1.3631 0.58746,-0.5874 0.28077,0.7019 0.24623,1.5406 -0.0768,1.8637 -0.32304,0.323 -0.55292,-0.2514 -0.51069,-1.2763 z m -63.46552,32.8984 c -0.18008,-0.9359 -1.19083,-1.7017 -2.2458,-1.7017 -1.05493,0 -2.06554,0.7658 -2.2458,1.7017 -0.24549,1.2745 0.31826,1.7016 2.2458,1.7016 1.92758,0 2.49126,-0.4271 2.2458,-1.7016 z m 90.66154,-0.6731 c -0.64009,-0.7713 -2.55333,-1.537 -4.25158,-1.7017 -2.24433,-0.2175 -3.05086,-0.7641 -2.95274,-2.0009 0.1459,-1.8387 -1.11226,-2.2947 -2.06734,-0.7493 -1.05147,1.7013 1.3776,4.7423 4.11976,5.1577 5.80254,0.879 6.39933,0.7972 5.1519,-0.7058 z m -15.16688,-1.5908 c 0.56489,-0.5481 -4.53453,-0.8843 -13.12689,-0.8654 -11.25047,0.026 -13.74143,0.2668 -12.49904,1.2155 1.82935,1.3965 24.14013,1.0918 25.62593,-0.3499 z m 33.20458,-2.0234 c 0.62098,-1.0048 -1.31284,-3.7347 -2.64557,-3.7347 -0.46931,0 -0.85332,0.5125 -0.85332,1.1388 0,0.6264 -0.65545,1.8632 -1.45658,2.7484 -1.32953,1.4692 -1.2013,1.5721 1.47044,1.18 1.60986,-0.2363 3.17813,-0.8359 3.48503,-1.3325 z m -61.84068,0.1547 c 0,-0.5348 -0.43756,-0.9723 -0.97236,-0.9723 -0.53479,0 -0.97238,0.4375 -0.97238,0.9723 0,0.5348 0.43759,0.9724 0.97238,0.9724 0.5348,0 0.97236,-0.4376 0.97236,-0.9724 z m 44.55325,-1.2055 c -0.17089,-1.1978 -1.07647,-2.3238 -2.01236,-2.5022 -1.95051,-0.3718 -2.27675,1.7713 -0.5348,3.5132 1.81071,1.8107 2.88868,1.3828 2.54716,-1.011 z m 11.35763,0.233 c 0.36714,-0.594 -1.12432,-0.9724 -3.83204,-0.9724 -2.43819,0 -4.43302,0.4375 -4.43302,0.9724 0,0.5348 1.72442,0.9723 3.83204,0.9723 2.10765,0 4.10252,-0.4375 4.43302,-0.9723 z m -41.84891,-1.3111 c 1.83463,-1.3415 1.35173,-3.5508 -0.7761,-3.5508 -1.87609,0 -5.59747,2.9564 -4.97966,3.956 0.81142,1.313 3.68246,1.1109 5.75576,-0.4052 z m 16.85918,0.1441 c 1.98968,-1.9897 1.30906,-2.7227 -2.52816,-2.7227 -3.45953,0 -6.02863,1.3261 -6.02863,3.1116 0,1.2331 7.26496,0.9029 8.55679,-0.3889 z m -9.52917,-1.2641 c 0.73295,-0.8831 0.81131,-1.4586 0.19845,-1.4586 -1.7862,0 -4.08804,1.1537 -4.08804,2.0488 0,1.3913 2.56843,1.0015 3.88944,-0.5902 z m -13.21506,-3.0941 c 2.57976,-2.5798 3.07854,-6.1334 0.95872,-6.8304 -1.52387,-0.501 -6.50032,6.3291 -5.84866,8.0274 0.78162,2.0369 1.93949,1.7535 4.88994,-1.197 z m -36.94496,-3.2954 c 1.1177,0.9276 1.92985,0.8321 3.89936,-0.4584 3.85218,-2.524 2.02034,-3.6674 -4.97594,-3.1058 -3.43296,0.2757 -6.50628,0.7656 -6.82957,1.0889 -0.32341,0.3234 0.20984,1.4691 1.18466,2.5463 1.65231,1.8258 1.89237,1.8501 3.54112,0.358 1.40292,-1.2696 2.06061,-1.3583 3.18037,-0.429 z m -14.25918,-9.2495 c -0.92659,-0.9266 -2.78434,0.5743 -2.0938,1.6917 0.41047,0.6641 0.95434,0.6473 1.65268,-0.051 0.57251,-0.5725 0.771,-1.3108 0.44112,-1.6406 z m 33.30359,-0.405 c 0,-1.9447 0.48618,-2.9171 1.45853,-2.9171 0.8022,0 1.46525,-0.547 1.47345,-1.2154 0.011,-0.8103 0.32892,-0.7293 0.95747,0.2429 0.71627,1.1083 0.94614,0.7069 0.95746,-1.6721 0.007,-1.7218 0.81943,-4.566 1.80274,-6.3203 0.98334,-1.7544 2.0734,-4.5025 2.42238,-6.1069 2.27458,-10.4567 2.48498,-12.3208 1.64093,-14.5408 -1.01697,-2.6749 -5.57811,-5.4059 -8.96303,-5.3668 -2.16712,0.026 -2.1536,0.077 0.43788,1.6838 1.47069,0.9118 2.67399,1.9941 2.67399,2.405 0,0.4109 -2.59953,0.7472 -5.77678,0.7472 -3.17725,0 -6.04722,0.4375 -6.37776,0.9723 -0.74799,1.2103 -5.348,1.2929 -5.348,0.096 0,-0.4819 1.64088,-1.904 3.64637,-3.1602 l 3.64637,-2.2838 -4.72901,-0.301 c -6.44303,-0.41 -17.98618,1.4851 -19.74217,3.2411 -1.26558,1.2656 -1.16834,1.4371 0.8219,1.4503 2.59045,0.018 5.30214,1.4571 4.06272,2.1575 -0.45817,0.2587 -2.77637,0.5325 -5.1515,0.608 -2.37513,0.075 -4.56294,0.4972 -4.86183,0.9371 -0.29878,0.44 -1.41851,1.1807 -2.4881,1.6461 -1.47374,0.6412 -0.4922,0.9772 4.05258,1.3876 3.29852,0.2977 6.30613,0.8508 6.6836,1.2288 1.4507,1.4531 -0.54553,3.6883 -3.29386,3.6883 -1.55573,0 -3.35203,0.6308 -3.99183,1.4017 -1.89777,2.2866 -1.63886,13.2795 0.38555,16.3691 2.15393,3.2873 3.45667,3.3873 3.45667,0.2653 0,-4.4176 2.8839,-13.4998 5.00288,-15.7553 1.15662,-1.2312 2.42286,-3.8889 2.81385,-5.906 l 0.71091,-3.6676 0.11172,3.3115 c 0.0702,2.0774 -0.72347,4.4329 -2.12941,6.3204 -3.72994,5.0076 -5.98236,15.1886 -3.34987,15.1418 0.6685,-0.011 2.30938,-0.8773 3.64638,-1.9231 1.33699,-1.0458 3.68889,-1.9112 5.22643,-1.9231 2.58453,-0.018 2.75153,-0.2418 2.21214,-2.9387 -0.67559,-3.378 0.57661,-3.8106 2.61338,-0.9027 0.92351,1.3185 1.16852,2.9141 0.70921,4.6187 -0.64571,2.3964 -0.23006,2.8926 5.20766,6.2163 3.25012,1.9867 6.23752,3.6275 6.63861,3.6464 0.4011,0.018 0.72928,-1.2783 0.72928,-2.8828 z m -11.04602,-23.7961 c -1.69604,-1.2847 -1.58278,-1.4642 1.82041,-2.8862 3.67045,-1.5336 8.41618,-2.0015 9.48272,-0.935 1.07272,1.0727 -0.44667,3.3082 -2.24848,3.3082 -0.98084,0 -2.05374,0.4376 -2.38428,0.9724 -0.86309,1.3965 -4.55588,1.1422 -6.67037,-0.4594 z m 31.43144,13.164 c 1.39135,-2.5997 1.28175,-2.981 -0.85714,-2.981 -1.98215,0 -3.00184,1.6418 -2.26465,3.6464 0.65085,1.7698 1.96884,1.4889 3.12179,-0.6654 z m -2.23889,-9.0582 c -0.26975,-0.6685 -0.49048,-0.1217 -0.49048,1.2154 0,1.337 0.22087,1.884 0.49048,1.2155 0.26975,-0.6685 0.26975,-1.7625 0,-2.4309 z m 30.81068,-14.987 c -1.37834,-0.7151 -4.42509,-1.3001 -6.77055,-1.3001 -2.35319,0 -4.26449,-0.4615 -4.26449,-1.0298 0,-0.5664 -0.43755,-0.7593 -0.97238,-0.4288 -0.5348,0.3304 -0.97188,1.3409 -0.97129,2.2452 9.2e-4,1.3993 1.15475,1.6569 7.74294,1.729 7.03666,0.077 7.51358,-0.033 5.23577,-1.2155 z m 13.03699,-1.057 c 0.2613,-0.7959 -0.6359,-1.2155 -2.59901,-1.2155 -2.07326,0 -2.99813,0.4699 -2.99813,1.5232 0,1.8529 4.97752,1.5793 5.59714,-0.3077 z m -130.74061,-6.8066 c 0.42771,-0.6685 1.28779,-1.2155 1.91134,-1.2155 1.36143,0 10.43798,-8.7723 10.43798,-10.0881 0,-0.508 1.369,-3.0571 3.04219,-5.6646 1.67319,-2.6074 2.79787,-4.9851 2.49923,-5.2837 -0.97588,-0.9759 -8.80132,5.1707 -15.84842,12.4483 -8.35359,8.6269 -11.60192,13.1156 -9.90139,13.6824 1.42637,0.4755 6.75633,-2.1551 7.85907,-3.8788 z m 14.78023,0.8349 c 6.68952,-3.0252 50.67126,-4.1468 83.62326,-2.1326 6.95239,0.425 12.96485,0.4901 13.36099,0.1448 1.17069,-1.0206 -1.67653,-4.3045 -7.70965,-8.8921 -3.10823,-2.3635 -6.44883,-5.2818 -7.42353,-6.4851 -0.97474,-1.2033 -2.3458,-2.1879 -3.04679,-2.1879 -0.70102,0 -1.53453,-0.7657 -1.85227,-1.7016 -0.3179,-0.9359 -2.99195,-4.9833 -5.94267,-8.9943 -2.95075,-4.011 -5.78383,-8.2507 -6.29573,-9.4214 -0.51187,-1.1708 -1.82677,-2.6083 -2.92198,-3.1945 -1.09521,-0.5861 -1.99127,-1.6044 -1.99127,-2.2628 0,-0.6584 -2.45877,-2.6678 -5.46387,-4.4653 -5.0636,-3.0286 -5.91915,-3.2315 -11.67785,-2.7692 -3.41763,0.2745 -6.75662,0.9412 -7.41993,1.4819 -0.66328,0.5407 -3.08593,1.5413 -5.38366,2.2234 -3.04751,0.9047 -5.74381,2.9144 -9.96672,7.4287 -3.18398,3.4037 -5.78905,6.6513 -5.78905,7.217 0,0.5657 -2.62537,4.6653 -5.83418,9.1101 -3.20878,4.4449 -5.83418,8.3657 -5.83418,8.7129 0,1.1268 -7.48051,11.6512 -9.69547,13.6406 -1.18415,1.0636 -2.53356,2.6449 -2.99868,3.514 -0.75151,1.4042 -0.33553,1.4873 3.73641,0.7465 2.52015,-0.4585 5.45723,-1.2293 6.52682,-1.7131 z m 25.76764,-12.6349 c 0,-0.7798 -4.32961,-2.2943 -7.1109,-2.4874 -1.11866,-0.078 -4.10444,-5.2077 -3.42594,-5.8862 0.90491,-0.9049 5.67501,1.647 5.67501,3.036 0,1.5423 3.57088,3.6112 4.27279,2.4755 0.27563,-0.4461 0.79638,-3.6912 1.15702,-7.2112 0.63575,-6.2054 0.58533,-6.4122 -1.65779,-6.7968 l -2.31346,-0.3967 2.57954,-1.086 c 3.43538,-1.4463 4.05662,-2.6714 2.56542,-5.0592 -0.91862,-1.4709 -0.96489,-2.4291 -0.17788,-3.6859 1.34552,-2.1489 5.54319,-2.7073 7.01557,-0.9331 0.87846,1.0584 0.59831,1.8397 -1.29869,3.6219 -3.62701,3.4074 -3.1796,5.6258 1.22762,6.0868 l 3.64633,0.3814 -3.67687,0.1635 c -2.55069,0.1132 -3.84343,0.6847 -4.22071,1.8651 -0.29916,0.9359 -0.97511,2.6104 -1.50219,3.7211 -0.52712,1.1106 -0.81561,3.5172 -0.64112,5.348 0.27563,2.8931 0.63531,3.2984 2.74819,3.0981 2.37891,-0.2257 2.38931,-0.1981 0.48617,1.2867 -3.20051,2.4969 -5.348,3.4841 -5.348,2.4585 z m 6.80653,-26.9324 c 0,-0.8468 -0.51958,-1.3664 -1.15467,-1.1548 -1.80296,0.6011 -2.102,2.6943 -0.38489,2.6943 0.84677,0 1.53956,-0.6928 1.53956,-1.5395 z m 1.31564,19.4843 c -0.15325,-2.6521 3.59808,-5.9877 5.44815,-4.8443 1.48936,0.9205 1.23695,3.9798 -0.4434,5.3744 -0.80223,0.6658 -1.45856,0.8506 -1.45856,0.4108 0,-0.4399 -0.52506,-0.2746 -1.16684,0.3671 -1.72034,1.7204 -2.22026,1.4456 -2.37935,-1.308 z m -0.78945,20.8851 c 0.35244,-0.5704 0.40636,-1.2717 0.11981,-1.5584 -0.83398,-0.834 -10.36944,0.7425 -10.36944,1.7143 0,1.2453 9.47287,1.1012 10.24982,-0.1558 z m 50.03672,0.1918 c 0,-0.8628 -6.87125,-2.3314 -7.58211,-1.6205 -0.21536,0.2154 -0.10327,0.8582 0.24953,1.4286 0.76412,1.2364 7.33273,1.4083 7.33273,0.1918 z m -40.83925,-1.0996 c 0,-0.5348 -1.11976,-0.9723 -2.48832,-0.9723 -1.41123,0 -2.22816,0.4208 -1.88734,0.9723 0.33039,0.5348 1.45026,0.9724 2.48832,0.9724 1.03803,0 1.88734,-0.4376 1.88734,-0.9724 z m 49.59052,-35.9774 c -1.29649,-0.8379 -1.29649,-0.9426 0,-0.9426 0.8022,0 2.1149,0.4241 2.91709,0.9426 1.2965,0.8378 1.2965,0.9426 0,0.9426 -0.80219,0 -2.11489,-0.4242 -2.91709,-0.9426 z"
       id="path610"
       inkscape:connector-curvature="0" />
  </g>
</svg>
