<?xml version="1.0" encoding="UTF-8" standalone="no"?>
<!-- Created with Inkscape (http://www.inkscape.org/) -->

<svg
   xmlns:dc="http://purl.org/dc/elements/1.1/"
   xmlns:cc="http://creativecommons.org/ns#"
   xmlns:rdf="http://www.w3.org/1999/02/22-rdf-syntax-ns#"
   xmlns:svg="http://www.w3.org/2000/svg"
   xmlns="http://www.w3.org/2000/svg"
   xmlns:sodipodi="http://sodipodi.sourceforge.net/DTD/sodipodi-0.dtd"
   xmlns:inkscape="http://www.inkscape.org/namespaces/inkscape"
   width="209.99995mm"
   height="125.01033mm"
   viewBox="0 0 209.99995 125.01032"
   version="1.1"
   id="svg8"
   inkscape:version="0.92.1 r15371"
   sodipodi:docname="airplane_crash.svg">
  <defs
     id="defs2" />
  <sodipodi:namedview
     id="base"
     pagecolor="#ffffff"
     bordercolor="#666666"
     borderopacity="1.0"
     inkscape:pageopacity="0.0"
     inkscape:pageshadow="2"
     inkscape:zoom="0.49497475"
     inkscape:cx="-153.99824"
     inkscape:cy="261.06188"
     inkscape:document-units="mm"
     inkscape:current-layer="layer1"
     showgrid="false"
     fit-margin-top="0"
     fit-margin-left="0"
     fit-margin-right="0"
     fit-margin-bottom="0"
     inkscape:window-width="1920"
     inkscape:window-height="1028"
     inkscape:window-x="0"
     inkscape:window-y="0"
     inkscape:window-maximized="1" />
  <metadata
     id="metadata5">
    <rdf:RDF>
      <cc:Work
         rdf:about="">
        <dc:format>image/svg+xml</dc:format>
        <dc:type
           rdf:resource="http://purl.org/dc/dcmitype/StillImage" />
        <dc:title></dc:title>
      </cc:Work>
    </rdf:RDF>
  </metadata>
  <g
     inkscape:label="Calque 1"
     inkscape:groupmode="layer"
     id="layer1"
     transform="translate(-2.0178718e-5,-85.994813)">
    <path
       style="fill:#000000;stroke-width:0.43384954"
       d="m 31.695448,210.8366 c -0.524093,-0.85144 -0.736143,-4.35515 -0.328314,-5.42471 0.367417,-0.96358 0.728231,-1.19437 1.875678,-1.19974 2.490055,-0.0115 2.778691,-0.65163 0.696627,-1.54462 -1.502459,-0.64439 -3.132178,-0.82209 -8.133004,-0.88678 l -6.254029,-0.0808 -3.290661,-2.35207 c -2.475054,-1.76909 -3.249364,-2.55914 -3.124044,-3.18749 0.09164,-0.45949 0.179744,-1.56755 0.195787,-2.46236 0.02189,-1.22135 0.210465,-1.62694 0.756385,-1.62694 1.20471,0 21.202996,-5.08154 24.632128,-6.25899 l 3.19074,-1.0956 2.799658,1.9978 c 2.098381,1.49737 2.723699,2.17396 2.496409,2.70113 -0.166789,0.38684 -0.395176,1.23861 -0.507531,1.89282 -0.166723,0.97081 -0.53429,1.2742 -1.999427,1.65031 -5.220819,1.34021 -6.26517,2.06455 -3.934684,2.72904 0.699508,0.19945 1.871397,0.5411 2.604189,0.75924 0.732795,0.21812 2.436617,0.3966 3.786279,0.3966 2.290649,0 7.47591,1.53361 8.744239,2.58623 0.265065,0.21999 0.407288,1.18271 0.316054,2.13939 -0.165227,1.73256 -0.17895,1.7444 -3.484679,3.00256 -1.82534,0.69472 -5.36874,1.90069 -7.874221,2.67992 -2.505482,0.77922 -5.922047,1.86362 -7.592368,2.40977 -3.928981,1.28467 -5.322908,1.57876 -5.571211,1.17537 z m 6.084606,-2.30954 c 14.800075,-4.62802 15.309506,-4.83264 16.207387,-6.51035 0.453716,-0.84778 0.42284,-0.86737 -0.527049,-0.33462 -0.554949,0.31126 -5.386671,2.03432 -10.737154,3.82902 -5.350487,1.7947 -9.80829,3.50716 -9.906232,3.80543 -0.253693,0.7726 0.196821,0.70092 4.963048,-0.78948 z m -1.381094,-2.77874 c 1.193087,-0.40379 4.512035,-1.32544 7.375442,-2.04813 2.863407,-0.72267 6.279972,-1.86203 7.592367,-2.53188 l 2.386172,-1.21792 -2.169246,-0.98396 c -1.755265,-0.79617 -2.853669,-0.97064 -5.755583,-0.91413 -2.755743,0.0536 -3.911254,-0.11249 -4.989271,-0.71755 -0.771613,-0.43306 -2.144409,-1.03186 -3.050656,-1.33066 -0.906246,-0.29881 -2.088733,-0.9843 -2.627747,-1.52332 -0.539014,-0.53902 -1.261781,-1.09161 -1.606151,-1.22801 -1.019557,-0.40382 0.08548,-0.93813 5.731534,-2.77135 2.819145,-0.91535 5.128787,-1.89723 5.13254,-2.18198 0.0093,-0.71076 -1.728456,-1.86845 -2.804728,-1.86845 -0.485696,0 -1.83462,0.50653 -2.99761,1.12563 -1.237559,0.65882 -3.935119,1.45585 -6.504291,1.9218 -5.821658,1.05585 -15.170553,3.03332 -15.393186,3.25595 -0.204934,0.20493 0.777006,1.74739 1.951019,3.06473 1.620341,1.81815 2.724676,2.09027 8.184706,2.01679 5.101281,-0.0687 5.241916,-0.0448 6.978853,1.18993 0.974962,0.69299 2.677342,1.48779 3.783065,1.76622 4.481185,1.12838 3.259335,3.35004 -2.599567,4.72673 -1.657385,0.38944 -2.186842,0.69339 -2.010119,1.15391 0.154678,0.40307 0.414614,0.48391 0.731563,0.22751 0.270406,-0.21874 1.467808,-0.72808 2.660894,-1.13186 z m -1.252619,-4.53028 c -2.838619,-1.87137 -4.561934,-2.39508 -6.077678,-1.84699 -1.028049,0.37175 -2.056937,0.39324 -3.720768,0.0777 -1.264877,-0.23989 -3.167627,-0.43615 -4.228331,-0.43615 -1.561859,0 -2.280904,-0.28873 -3.781652,-1.51847 -1.933964,-1.58474 -2.414505,-1.80282 -2.414505,-1.09576 0,0.23248 0.634507,0.74285 1.410011,1.13414 0.775507,0.3913 1.916314,1.18447 2.535128,1.7626 1.043861,0.97522 1.60784,1.07892 7.809292,1.4357 3.676296,0.21149 7.172256,0.58237 7.768799,0.82415 1.739728,0.70511 2.052136,0.55467 0.699704,-0.33692 z m 6.23522,-8.2697 c 2.941167,-0.76371 4.345164,-1.64971 4.345164,-2.74206 0,-0.21855 -0.244041,-0.30752 -0.542312,-0.19772 -0.298272,0.10986 -2.447128,0.83053 -4.775243,1.60164 -2.32811,0.7711 -4.122485,1.5807 -3.987502,1.79911 0.35544,0.57511 1.312409,0.48617 4.959893,-0.46097 z M 96.487124,205.261 c -2.89011,-0.85383 -4.25726,-1.03656 -6.32097,-0.84485 -2.58406,0.24005 -2.70158,0.20261 -6.29082,-2.00377 -2.01166,-1.23661 -4.69046,-2.81924 -5.95287,-3.51697 -1.26242,-0.69771 -2.60215,-1.73689 -2.97719,-2.30927 -0.37503,-0.57237 -1.83135,-1.73894 -3.23628,-2.59239 -2.74791,-1.66926 -2.95696,-2.16357 -1.93753,-4.58132 0.96289,-2.28366 3.20257,-4.10665 6.1078,-4.97145 1.43171,-0.42619 2.75936,-0.9045 2.95035,-1.06293 0.19098,-0.1584 -1.62533,-2.16365 -4.03625,-4.45603 -4.33655,-4.12334 -4.38026,-4.18512 -4.08259,-5.77182 l 0.30088,-1.60387 -2.53323,0.29773 c -1.39328,0.16381 -2.6161,0.3806 -2.71739,0.48187 -0.10129,0.10133 0.60821,1.08433 1.57665,2.18453 1.98948,2.26018 2.55988,4.05295 1.84139,5.78754 -0.51275,1.23789 -0.73171,1.32473 -8.941773,3.54626 -1.683185,0.45546 -3.733123,0.73944 -4.55542,0.63109 -6.183442,-0.81471 -8.054261,-1.13005 -11.690554,-1.97052 -2.266864,-0.52394 -4.560842,-1.04907 -5.097731,-1.16692 -1.936206,-0.42504 -0.93715,-2.05544 4.070453,-6.64273 3.937272,-3.60682 3.950803,-3.87933 0.232705,-4.68708 -10.208878,-2.21789 -10.229563,-2.22481 -13.113608,-4.38411 -3.350415,-2.50848 -7.933664,-4.48772 -9.563254,-4.1298 -0.923287,0.20279 -1.616662,-0.15873 -3.67689,-1.91673 -1.907049,-1.62733 -2.677915,-2.05137 -3.097011,-1.70355 -0.30689,0.2547 -0.573842,0.39038 -0.593228,0.3015 -0.01938,-0.0889 -0.08738,-0.64967 -0.151086,-1.24621 -0.0637,-0.59654 -0.263969,-1.42628 -0.445019,-1.84385 -0.244715,-0.56442 -0.128015,-0.75924 0.454777,-0.75924 0.609748,0 0.668269,-0.11576 0.263344,-0.52062 -0.757097,-0.7571 -0.637414,-1.58585 0.238617,-1.6523 0.417579,-0.0316 4.95673,-0.10593 10.087,-0.1649 6.920087,-0.0797 10.223647,-0.30248 12.798562,-0.86347 5.335911,-1.16253 6.91764,-1.6224 7.213438,-2.09724 0.181081,-0.29069 1.021105,-0.2757 2.515989,0.0449 1.234282,0.26471 2.825801,0.48129 3.536711,0.48129 2.497755,0 9.31721,4.20499 12.958408,7.99036 0.89475,0.93019 1.91031,1.55431 2.5291,1.55431 0.95527,0 4.94217,-1.41244 8.18386,-2.8993 1.24332,-0.57026 1.6334,-0.53355 4.48231,0.42194 l 3.12047,1.04657 0.98404,-1.5623 c 0.54122,-0.85927 1.29346,-2.14801 1.67165,-2.86386 1.87468,-3.54851 3.90826,-4.38393 9.85377,-4.04798 1.91165,0.10806 3.0381,0.005 3.03758,-0.27633 -4.4e-4,-0.24642 -0.96981,-1.10845 -2.1541,-1.91561 -1.1843,-0.80717 -2.46136,-1.80802 -2.83792,-2.22411 -0.61438,-0.67888 -0.61593,-0.78289 -0.0151,-1.01344 0.36822,-0.14135 0.6695,-0.5593 0.6695,-0.92892 0,-0.95453 8.256226,-11.9608 11.904536,-15.86977 1.6848,-1.80518 4.06947,-4.45521 5.29926,-5.88897 2.21743,-2.58521 2.23286,-2.62354 1.85949,-4.62208 -0.20707,-1.1084 -1.19042,-4.12009 -2.18522,-6.69267 -2.81061,-7.26826 -5.59398,-15.431787 -5.59608,-16.413044 -8.7e-4,-0.489169 -0.18131,-1.07487 -0.40059,-1.301548 -0.21928,-0.226695 -0.46333,-1.681166 -0.54231,-3.232186 l -0.14365,-2.820019 1.70624,0.104616 c 3.26067,0.200033 10.13283,4.118272 18.65913,10.638739 l 4.31293,3.298302 1.76097,-1.37142 c 0.96852,-0.754283 3.33274,-2.947969 5.25381,-4.874867 2.82804,-2.836613 4.0042,-3.694676 6.17944,-4.508154 2.9376,-1.098597 3.23594,-1.031073 5.66681,1.282445 0.82699,0.787062 0.97655,1.271886 0.78362,2.54 -0.13118,0.861998 -0.37063,3.620264 -0.53216,6.129486 l -0.2937,4.56222 4.28243,1.23879 c 2.35533,0.68135 4.86903,1.3616 5.58597,1.51168 2.32023,0.48571 4.11957,2.56788 4.11957,4.76712 0,1.63039 -4.72422,4.15135 -11.49701,6.13506 -2.62478,0.76878 -5.23496,1.68879 -5.80039,2.04446 -1.37588,0.86544 -5.32775,9.26539 -8.95779,19.04033 -5.33857,14.37567 -6.00513,16.00752 -6.7608,16.55134 -0.4142,0.2981 -1.17549,1.22544 -1.69176,2.06078 -0.51628,0.83533 -1.11401,1.51879 -1.32831,1.51879 -0.21432,0 -0.79698,-0.79842 -1.29483,-1.77427 -0.83681,-1.64028 -3.51373,-5.67655 -4.43412,-6.68578 -0.23909,-0.26218 -0.27393,0.93954 -0.0881,3.03694 0.28305,3.19393 0.45783,3.67449 2.19118,6.02441 1.73983,2.35871 1.8352,2.62269 1.24953,3.45886 -0.7838,1.11901 -0.84845,3.75333 -0.0918,3.73853 0.29827,-0.007 1.38373,-0.20468 2.41214,-0.44187 1.88709,-0.43525 2.72894,-0.22797 6.15638,1.51587 2.41233,1.22735 3.71577,1.14274 7.24588,-0.47035 5.70843,-2.60847 11.63137,-4.86358 16.29015,-6.20227 2.446,-0.70286 5.25691,-1.57514 6.24652,-1.93843 1.25521,-0.46077 2.19644,-0.54657 3.11276,-0.28379 0.72241,0.20718 1.41881,0.27138 1.54754,0.14266 0.12872,-0.12872 0.87556,0.0538 1.65959,0.40549 0.78405,0.35176 4.64686,1.18145 8.58406,1.84376 8.04595,1.35348 9.11084,1.91646 9.11084,4.81668 v 1.49799 l 2.31278,-1.30526 c 2.45096,-1.38324 3.71381,-1.61285 4.50713,-0.81953 0.26715,0.26715 1.23355,0.64834 2.14756,0.8471 5.56907,1.21102 12.36213,3.09685 14.12579,3.9215 1.66792,0.77988 2.18191,1.30053 2.7485,2.78411 0.9411,2.46424 0.40819,5.38143 -1.12475,6.15711 -1.43104,0.72412 -43.98725,0.79986 -45.83895,0.0817 -1.65901,-0.64353 -8.50392,-1.24768 -16.64353,-1.46901 -3.7099,-0.10085 -7.61454,-0.36883 -8.677,-0.59546 -1.06247,-0.22661 -3.10315,-0.53502 -4.53485,-0.68532 -2.38929,-0.25084 -2.53393,-0.21877 -1.76094,0.39049 0.46318,0.36509 1.37986,0.66381 2.03706,0.66381 1.53318,0 11.68237,4.95252 12.46689,6.0835 0.32739,0.47194 0.96189,0.85808 1.41002,0.85808 0.98471,0 1.0255,0.2851 0.16401,1.14661 -0.35793,0.35792 -0.65377,1.07608 -0.65743,1.59593 -0.003,0.51985 -0.15004,1.15019 -0.32537,1.40076 -0.27333,0.39067 -4.53023,1.52235 -8.42663,2.24018 -1.25806,0.23178 -6.17877,-2.48585 -11.06835,-6.11289 -1.38393,-1.02659 -2.8589,-1.98978 -3.27769,-2.14041 -0.44596,-0.16036 -1.79413,0.24615 -3.25388,0.98126 -3.94568,1.987 -5.78297,2.67011 -6.55118,2.43579 -0.39247,-0.1197 -3.83731,-0.61897 -7.65518,-1.10943 -3.81787,-0.49048 -8.373686,-1.31109 -10.124006,-1.8236 -2.57289,-0.75335 -3.25005,-0.82241 -3.53548,-0.36056 -0.19418,0.31419 -0.65771,0.45434 -1.03006,0.31145 -1.46703,-0.56294 -7.09074,2.13964 -6.68588,3.21304 0.11642,0.30866 8.69156,6.06588 15.32271,10.2874 1.920586,1.2227 4.458596,2.6428 5.640036,3.15578 3.61902,1.5714 5.31481,3.76284 4.20221,5.43044 -0.1753,0.26277 -1.68536,0.6124 -3.35569,0.77698 -1.67031,0.16458 -3.72026,0.38042 -4.55541,0.47963 -0.86676,0.10297 -3.101226,-0.28721 -5.206196,-0.90908 z m 10.846236,-0.98375 c 1.03432,-0.41702 1.01286,-0.43858 -0.46263,-0.4648 -0.851,-0.0148 -2.65047,0.17644 -3.99884,0.42569 -2.05699,0.38026 -2.62411,0.34017 -3.523416,-0.24907 -1.6237,-1.0639 -6.29336,-2.03044 -8.35245,-1.7288 -1.55695,0.22805 -2.12012,0.0615 -4.12157,-1.2187 -1.275,-0.81557 -3.97767,-2.46347 -6.00592,-3.66198 -2.02824,-1.19852 -5.20077,-3.26521 -7.05005,-4.59263 -2.50149,-1.79559 -3.35994,-2.22397 -3.35298,-1.6732 0.005,0.40718 1.06643,1.49752 2.3584,2.42299 1.29197,0.92547 2.88614,2.24329 3.54261,2.92849 0.65646,0.6852 1.42304,1.24581 1.70352,1.24581 0.28047,0 1.26891,0.60563 2.19654,1.34584 0.92762,0.7402 2.85798,1.95425 4.28969,2.69787 2.32568,1.20797 3.04233,1.36063 6.72466,1.43247 3.31076,0.0646 4.46297,0.26633 5.85697,1.02545 1.51657,0.82587 2.20041,0.91709 5.423116,0.72345 2.02825,-0.12183 4.17581,-0.41836 4.77235,-0.65888 z m -0.58368,-1.9329 c 1.09632,-0.0115 -0.0492,-1.0393 -3.23174,-2.89789 -1.83872,-1.07379 -3.635946,-1.96015 -3.993876,-1.96971 -0.35792,-0.01 -2.93873,-1.52262 -5.73513,-3.36233 -2.79639,-1.83973 -5.28997,-3.34495 -5.54127,-3.34495 -0.25131,0 -1.2823,-0.75547 -2.29109,-1.67881 -1.00879,-0.92334 -2.27228,-1.81467 -2.80776,-1.98075 -0.53547,-0.16605 -1.30246,-0.63081 -1.70441,-1.03274 -1.72432,-1.72433 -9.25286,0.007 -9.25286,2.1279 0,0.45594 -0.21913,0.829 -0.48697,0.829 -0.84294,0 0.39996,1.16245 3.46087,3.23685 1.58569,1.07462 3.46877,2.40647 4.18462,2.95967 0.71585,0.5532 2.57056,1.57234 4.12157,2.26474 1.55101,0.69238 3.40662,1.68088 4.12358,2.19667 0.95618,0.68787 1.99721,0.95344 3.90655,0.9966 2.68716,0.0608 5.12994,0.5881 6.00357,1.29604 0.8894,0.72073 2.17115,0.86362 5.489526,0.612 1.78963,-0.13577 3.47931,-0.24924 3.75482,-0.25229 z m 30.08546,-14.17898 c 0,-0.85921 -1.5172,-2.16825 -2.51301,-2.16825 -0.32149,0 -1.40064,-0.54638 -2.3981,-1.21419 -0.99746,-0.66778 -2.62625,-1.5683 -3.61951,-2.00111 -3.48008,-1.51644 -2.88017,-0.3889 1.37952,2.59275 5.9206,4.14424 7.1511,4.62446 7.1511,2.7908 z m 5.56129,-0.23273 c 1.47625,-0.4384 2.248,-0.9026 2.248,-1.35215 0,-0.49821 -0.26576,-0.61335 -0.97618,-0.42297 -0.53688,0.1438 -1.78312,0.26427 -2.76943,0.26752 -1.56622,0.005 -1.81954,0.14331 -2.00062,1.09055 -0.25028,1.30922 0.28077,1.37253 3.49823,0.41705 z m 0.72661,-3.61754 1.29864,-0.27783 -1.29864,-0.91547 c -0.71424,-0.50351 -1.78672,-1.06393 -2.38326,-1.24535 -0.59656,-0.18142 -2.15841,-0.87999 -3.4708,-1.55236 -1.3124,-0.67238 -3.85042,-1.60343 -5.64004,-2.069 l -3.25388,-0.84651 -0.98509,0.90751 c -1.24847,1.15011 -1.06792,1.33821 4.02203,4.18989 3.77099,2.11273 4.01604,2.18588 7.15853,2.13726 1.78963,-0.0277 3.83827,-0.17535 4.55251,-0.32814 z m -59.217556,-1.10877 c 0,-0.34185 -0.41968,-0.75474 -0.93262,-0.91753 -0.51294,-0.16283 -3.03597,-2.32352 -5.60674,-4.80159 -2.57076,-2.47807 -4.78672,-4.50558 -4.92435,-4.50558 -0.13762,0 -0.25023,0.39334 -0.25023,0.87408 0,0.52007 0.56808,1.21955 1.40263,1.72707 0.77144,0.46913 2.40441,2.03656 3.62882,3.48314 2.5079,2.96299 4.73645,4.76196 5.89908,4.76196 0.43088,0 0.78341,-0.27971 0.78341,-0.62155 z m 29.810756,0.35206 c -0.2296,-0.2296 -3.01141,-0.61953 -8.76905,-1.22917 -1.26802,-0.1343 -9.698856,-2.43155 -11.127746,-3.03217 -0.39344,-0.16537 -0.84238,-0.0951 -0.99764,0.1561 -0.39349,0.63668 2.31927,2.20192 3.81962,2.20389 0.68141,8.6e-4 2.4385,0.31909 3.904646,0.70712 1.46614,0.38803 3.7395,0.8505 5.05188,1.02774 3.03363,0.40966 8.473,0.52125 8.11829,0.16652 z m 4.48064,-0.60704 c 1.91957,-0.97929 2.33851,-1.97635 0.65262,-1.55321 -2.41428,0.60593 -3.25618,1.10105 -3.00138,1.76507 0.32069,0.83568 0.29002,0.83843 2.34876,-0.21186 z m -57.124384,-0.88902 c 3.132758,-0.73242 5.988778,-1.6387 6.346708,-2.01392 0.5818,-0.60992 0.56799,-0.65326 -0.13033,-0.40892 -0.42961,0.15037 -3.51481,0.79036 -6.855994,1.42235 l -6.074887,1.14905 -6.731536,-1.40334 c -6.231983,-1.29919 -8.244802,-1.43122 -6.659507,-0.43681 0.351014,0.22017 2.004835,0.68493 3.675156,1.03281 3.806154,0.7927 9.353437,1.84811 10.139576,1.92916 0.327188,0.0338 3.158056,-0.53795 6.290819,-1.27038 z m 26.520708,0.464 c 0.14748,-0.23863 0.61682,-0.43386 1.04299,-0.43386 0.89202,0 2.49713,-1.59377 2.0527,-2.03819 -0.59627,-0.59628 -5.48186,1.65136 -5.48186,2.52195 0,0.52893 2.05499,0.48597 2.38617,-0.0499 z m 1.51848,-4.36868 c 0,-0.30351 -2.8616,-2.99406 -7.72924,-7.2672 l -3.12343,-2.74196 -2.42165,0.54196 c -2.35579,0.52719 -2.4148,0.57617 -2.16983,1.80105 0.30978,1.5489 1.18359,2.59562 5.98022,7.16362 l 3.76849,3.58886 2.84772,-1.40426 c 1.56624,-0.77235 2.84772,-1.52929 2.84772,-1.68207 z m 28.200226,2.28255 c 1.05388,-0.40095 1.03543,-0.42601 -0.65078,-0.88414 -0.95447,-0.25931 -3.88296,-0.96835 -6.50775,-1.57563 -2.62479,-0.6073 -5.97249,-1.60344 -7.43936,-2.21367 l -2.66701,-1.10949 -2.105326,1.07989 c -4.27033,2.1904 -4.2871,2.14969 1.43159,3.47728 2.827026,0.65629 6.116226,1.36707 7.309306,1.57948 2.55243,0.45446 9.07562,0.23737 10.62933,-0.35372 z m 6.18235,0.49725 c -0.29827,-0.12036 -0.78636,-0.12036 -1.08463,0 -0.29827,0.12036 -0.0543,0.21882 0.54232,0.21882 0.59654,0 0.84058,-0.0984 0.54231,-0.21882 z m -60.949906,-1.78462 c 2.4491,-0.45777 4.58828,-0.96766 4.75373,-1.13311 0.54142,-0.54143 -1.03818,-2.61837 -3.30059,-4.33982 -1.68099,-1.27904 -2.218337,-1.96502 -2.218337,-2.83194 0,-1.48715 -0.826013,-2.62497 -2.998689,-4.13064 -1.604358,-1.11181 -1.879995,-1.17235 -3.078236,-0.67603 -0.723848,0.29983 -1.825821,1.15094 -2.448838,1.89135 -0.623012,0.74041 -2.049158,2.03291 -3.16921,2.87221 -4.006167,3.002 -8.648273,7.10914 -8.431532,7.45983 0.121358,0.19636 0.948764,0.357 1.838698,0.357 0.88993,0 2.391462,0.40304 3.336728,0.89565 1.523454,0.79392 2.260738,0.87135 6.491014,0.68173 2.624789,-0.11774 6.776158,-0.58846 9.225262,-1.04623 z m 60.841436,-0.11085 c 0,-0.2461 -0.34166,-0.57325 -0.75924,-0.72699 -0.41757,-0.15365 -1.95172,-1.02616 -3.40921,-1.93871 -3.08026,-1.92859 -3.85498,-2.08062 -3.48044,-0.68302 0.1438,0.53689 0.26428,1.30155 0.26752,1.69924 0.003,0.45667 0.68529,0.96356 1.84978,1.37576 2.14137,0.75799 5.53159,0.92574 5.53159,0.27372 z m 84.35481,-1.32829 c 0.22271,-0.20848 0.32032,-0.46239 0.21692,-0.56425 -0.10347,-0.10183 -9.36392,-0.28891 -20.57893,-0.41561 -11.21501,-0.12675 -21.17185,-0.31698 -22.12633,-0.42279 -13.43276,-1.48917 -28.77615,-2.89548 -31.59056,-2.89548 -2.04142,0 -3.0688,0.62389 -1.71368,1.04066 0.42105,0.12954 3.40118,0.44062 6.62251,0.69138 7.38709,0.57508 18.80369,1.59574 24.72942,2.21086 2.50548,0.26009 7.38629,0.62964 10.84623,0.82123 7.58457,0.41997 33.02492,0.0671 33.59442,-0.466 z M 92.148624,177.51753 c 0,-0.4987 -4.28892,-6.53301 -5.26483,-7.40737 -0.56429,-0.50559 -1.54408,-1.04147 -2.17731,-1.19087 -0.63323,-0.14938 -2.14053,-1.05359 -3.34957,-2.00926 -3.4892,-2.75806 -3.29042,-2.02793 0.44234,1.62471 1.88984,1.84929 4.77375,4.68016 6.40869,6.29082 2.60643,2.56776 3.94068,3.47921 3.94068,2.69197 z m 22.126326,-0.60599 c 0,-0.43123 -2.5116,-8.84834 -3.95597,-13.25761 -0.54909,-1.67623 -1.35915,-3.06653 -2.27505,-3.90464 -0.94141,-0.86146 -1.67636,-2.14538 -2.17355,-3.79711 -0.49558,-1.6464 -1.26703,-2.99654 -2.26713,-3.96782 -0.96609,-0.93827 -1.60798,-2.03947 -1.76971,-3.03603 -0.2388,-1.47152 -0.18483,-1.56376 0.91478,-1.56376 0.96867,0 6.44817,1.59538 7.18814,2.09286 0.11937,0.0802 0.31454,1.54564 0.43384,3.25652 0.1902,2.72731 0.32723,3.12647 1.11182,3.23868 0.92062,0.13167 3.07882,4.35798 5.15872,10.10213 l 0.93626,2.58571 1.19433,-3.05775 c 1.3412,-3.43384 1.26713,-4.13011 -0.70606,-6.63772 -1.12672,-1.43188 -1.43409,-2.45885 -2.30707,-7.708 -1.08388,-6.51727 -1.15352,-6.72485 -2.65603,-7.91701 -0.5481,-0.43491 -0.99657,-1.08512 -0.99657,-1.44493 0,-0.36036 -0.77942,-0.96035 -1.7354,-1.33586 -0.95446,-0.37493 -1.73539,-0.9158 -1.73539,-1.20194 0,-0.6251 4.22815,-6.28972 4.69473,-6.28972 0.17994,0 1.21856,0.92736 2.30805,2.0608 3.6236,3.76971 4.09188,5.06852 2.54191,7.05004 -1.1476,1.46713 -1.10992,1.59375 0.75923,2.55077 1.4316,0.733 2.63658,1.84157 6.48803,5.96896 1.24777,1.33718 1.78839,1.29404 2.10711,-0.16813 0.14299,-0.65619 0.83458,-2.52271 1.53677,-4.14783 0.70221,-1.62512 2.33169,-5.92022 3.62107,-9.54469 3.72872,-10.48137 4.88584,-13.28781 5.80765,-14.08573 0.47484,-0.41105 0.9876,-1.1756 1.13946,-1.69902 l 0.27609,-0.95167 -2.94858,0.8432 c -1.62171,0.46377 -3.75964,0.84322 -4.75095,0.84322 -1.59998,0 -1.90299,-0.17051 -2.6983,-1.51846 -0.49276,-0.83518 -1.09775,-1.51849 -1.34441,-1.51849 -0.75312,0 -0.51251,-0.75022 1.0061,-3.13698 0.80001,-1.25738 2.08067,-3.45752 2.84591,-4.88923 0.76523,-1.4317 2.07434,-3.54348 2.90914,-4.69281 1.35723,-1.86867 1.64945,-2.0608 2.76246,-1.81635 0.78977,0.17346 1.7529,0.01 2.63527,-0.44573 0.76482,-0.39552 1.92132,-0.64122 2.56996,-0.54602 l 1.17935,0.17309 0.50847,-5.196023 0.50847,-5.196028 -1.17562,-1.227071 c -1.7775,-1.855307 -3.00611,-1.61615 -6.70287,1.304713 -1.76237,1.392473 -3.90133,3.306515 -4.75325,4.25342 -0.85191,0.946904 -2.18252,2.172778 -2.95687,2.724179 l -1.40795,1.00254 0.92552,0.86224 c 0.50903,0.47423 0.81602,1.14758 0.68218,1.49632 -0.59593,1.55297 -6.6909,10.01408 -8.51277,11.81753 -1.86989,1.85098 -5.3776,3.51221 -7.4161,3.51221 -1.31753,0 -13.15291,13.6082 -12.74956,14.65933 0.21889,0.57042 -2.507476,4.05001 -6.146666,7.84477 -1.19353,1.24457 -1.08043,1.4823 1.03912,2.18423 2.7684,0.91681 3.53273,1.79849 3.4535,3.98366 -0.0883,2.43655 -0.80645,3.03156 -3.54022,2.93344 -1.19308,-0.0428 -2.65732,0.12462 -3.25387,0.37191 -0.59654,0.24737 -1.70881,0.35661 -2.4717,0.24278 -1.77259,-0.26454 -3.53023,0.94563 -5.19064,3.57383 -0.67737,1.07218 -1.35506,1.94975 -1.506,1.95018 -0.15094,4.2e-4 -1.12326,1.30361 -2.16071,2.89595 -1.23141,1.89004 -1.70097,2.95694 -1.35251,3.0731 0.29358,0.0979 0.53378,0.54328 0.53378,0.98982 0,0.5764 0.41882,0.89045 1.44402,1.08279 1.37204,0.25739 4.42254,2.59741 7.4234,5.69443 1.85248,1.91184 4.58191,5.34368 4.58191,5.76105 0,0.19124 1.48428,-0.43006 3.29841,-1.38067 2.74287,-1.43727 3.455306,-1.64906 4.230026,-1.25752 2.22072,1.12237 7.14884,2.71967 8.79075,2.84926 0.98187,0.0776 2.15327,0.35467 2.6031,0.61593 1.01923,0.59199 1.46864,0.62037 1.46864,0.0928 z m -15.929366,-8.9203 c -1.85732,-1.79027 -3.6907,-3.35644 -4.07418,-3.48036 -1.02603,-0.33154 -0.5504,-2.02818 1.11513,-3.97789 0.77589,-0.90827 1.54932,-2.09068 1.71874,-2.62756 0.16941,-0.53689 0.5389,-0.97427 0.8211,-0.97195 0.77398,0.007 6.213696,5.3766 7.014236,6.92465 0.6785,1.31208 0.65887,1.43181 -0.62258,3.79775 -0.72775,1.34363 -1.32317,2.70114 -1.32317,3.01669 0,1.24905 -1.42338,0.42816 -4.649276,-2.68133 z m 5.336756,-3.14423 c -0.15086,-0.65619 -1.36467,-2.22935 -2.69733,-3.49589 -2.383066,-2.26483 -3.199806,-2.61287 -2.530286,-1.07823 0.18667,0.42788 0.31354,0.90896 0.28193,1.0691 -0.0316,0.1602 0.83404,1.28272 1.923646,2.49464 2.249,2.50142 3.45773,2.90555 3.02204,1.01038 z M 120.694,135.34526 c -0.27717,-0.65621 -1.38659,-2.11878 -2.46536,-3.25017 -1.92319,-2.01695 -1.95079,-2.08651 -1.41551,-3.56679 0.73761,-2.03983 2.66237,-5.43929 3.07972,-5.43929 0.18564,0 1.56535,1.12928 3.06603,2.50954 l 2.72852,2.50953 -0.96778,2.58819 c -1.14405,3.05968 -2.64832,5.84207 -3.15841,5.84207 -0.1998,0 -0.59004,-0.53688 -0.86721,-1.19308 z m 3.42397,-5.9927 c 0.17511,-0.52537 -3.07853,-4.09431 -3.73262,-4.09431 -1.31014,0 -0.89451,1.41092 0.89086,3.02415 1.82826,1.652 2.55641,1.92619 2.84176,1.07016 z m 1.60892,47.70797 c 0.44849,-0.17211 -0.67327,-0.95731 -3.32687,-2.32878 -2.81782,-1.45634 -4.16412,-1.9419 -4.54582,-1.63955 -0.89799,0.71135 -0.63174,1.08497 1.30155,1.82653 1.01414,0.38898 2.33195,1.0841 2.92849,1.5447 1.10178,0.8507 2.41905,1.06664 3.64265,0.5971 z m 81.60879,-2.04952 c 2.49928,-0.45788 -0.13003,-3.19667 -4.43584,-4.62051 -12.03028,-3.97817 -14.47706,-4.51423 -15.1743,-3.32455 -0.41492,0.70799 -2.05237,1.57001 -6.72883,3.54228 -1.92043,0.80994 -3.83758,1.78563 -4.26034,2.16824 -1.25816,1.13862 -1.47137,-0.0533 -0.37358,-2.08845 3.07077,-5.69261 3.5581,-6.8995 2.94318,-7.28887 -1.26744,-0.80257 -2.41367,-0.32746 -4.60851,1.91029 -2.69008,2.74265 -4.26091,3.70232 -4.94326,3.01997 -0.33718,-0.33718 0.0115,-1.18595 1.23477,-3.00649 3.06686,-4.56402 2.99491,-4.66874 -0.71879,-1.04614 -1.45198,1.41633 -3.00281,2.69033 -3.44632,2.8311 -0.44352,0.14069 -1.15523,0.6414 -1.58161,1.11255 -0.42639,0.47115 -1.12931,0.85662 -1.56208,0.85662 -1.04627,0 -0.71965,-0.82876 1.64608,-4.17666 1.03309,-1.46202 1.87835,-2.79201 1.87835,-2.95556 0,-0.57267 -4.24147,2.01787 -6.41056,3.91533 -2.45391,2.14663 -2.5093,2.17113 -2.85729,1.26428 -0.14151,-0.36894 0.27403,-1.26193 0.95912,-2.06078 0.66493,-0.77536 1.7806,-2.17436 2.47928,-3.10893 l 1.27031,-1.69919 -2.60124,0.3055 c -3.99111,0.46873 -12.12922,3.13054 -13.72702,4.48983 -0.39236,0.33378 -2.83276,1.34393 -5.42312,2.24478 -2.59036,0.90082 -5.66319,2.12619 -6.82856,2.72302 l -2.11881,1.08514 4.72191,0.53816 c 2.59706,0.29598 5.65889,0.71851 6.80406,0.93894 1.14518,0.22043 3.22958,0.40079 4.63199,0.40079 1.40242,0 4.56533,0.40047 7.0287,0.88994 3.48632,0.69272 6.88246,0.94316 15.32509,1.13017 5.96543,0.13217 10.94386,0.34179 11.06317,0.46591 0.2304,0.23968 24.34138,-0.1869 25.81405,-0.45671 z m -78.10534,-0.88195 c 0.99995,-0.7312 0.60192,-2.01505 -0.62475,-2.01505 -1.47428,0 -0.99014,-0.82611 1.07102,-1.8275 1.07377,-0.52168 1.95233,-1.06401 1.95233,-1.20518 0,-0.14118 -1.2202,-0.56393 -2.71156,-0.93944 -2.6064,-0.65631 -8.50266,-0.57687 -9.20352,0.12396 -0.1484,0.1484 -0.38462,0.97732 -0.52495,1.84206 -0.19418,1.19652 -0.10609,1.57222 0.36881,1.57222 0.34317,0 1.97939,0.68271 3.63602,1.51714 3.23327,1.62855 4.76117,1.86439 6.0366,0.93177 z m -12.78614,-2.56609 c 0,-1.67197 -1.63414,-6.98797 -3.21331,-10.45325 -1.2334,-2.70652 -1.78239,-3.4333 -3.05006,-4.03781 -1.51965,-0.72467 -1.54603,-0.78193 -1.55256,-3.36839 -0.003,-1.44718 -0.17512,-2.89712 -0.38103,-3.22212 -0.37666,-0.59452 -3.98014,-1.47348 -4.38468,-1.06949 -0.11937,0.11904 0.27117,0.5802 0.86771,1.02459 2.00031,1.49014 2.63643,2.18318 2.38191,2.59503 -0.48884,0.79095 0.83296,4.13258 2.2849,5.77645 1.67899,1.9009 2.82653,4.36876 3.82653,8.22918 0.38336,1.47987 0.96199,3.32517 1.28589,4.10067 0.68269,1.63463 1.9347,1.90975 1.9347,0.42514 z m -44.751516,-0.9909 c 0.0835,-0.0746 0.007,-0.36983 -0.16951,-0.65586 -0.22752,-0.36814 -1.38846,-0.45349 -3.97401,-0.29219 -3.843,0.23976 -4.31298,0.38696 -3.81388,1.19451 0.21717,0.35139 1.4098,0.40829 4.05655,0.19355 2.06192,-0.1673 3.8173,-0.3653 3.90085,-0.44001 z m -22.929012,-1.00406 c 0,-0.20717 -1.220202,-0.71298 -2.711559,-1.124 -1.491358,-0.41102 -3.492489,-1.09596 -4.446958,-1.52208 -2.251901,-1.00536 -5.454614,-1.81362 -8.534993,-2.15399 -2.723597,-0.30092 -2.834411,0.01 -0.437949,1.22972 2.073618,1.05521 4.14478,1.61349 9.167562,2.47109 2.254595,0.38497 4.499765,0.86217 4.989271,1.06044 1.191879,0.48278 1.974626,0.49816 1.974626,0.0389 z m 133.191798,-2.3566 v -1.29245 l -1.08462,1.59828 c -0.59654,0.87905 -1.08461,1.68304 -1.08461,1.78664 0,0.10363 0.48807,-0.034 1.08461,-0.30583 0.80362,-0.36616 1.08462,-0.82904 1.08462,-1.78664 z m -113.017796,0.76995 c 3.5,-0.14119 6.28616,-0.69709 6.98246,-1.39338 1.39177,-1.39178 0.73155,-1.6585 -8.50093,-3.43425 -5.956786,-1.14572 -7.576187,-2.20403 -4.91862,-3.21444 1.29818,-0.49357 1.14372,-0.72331 -1.434957,-2.13448 l -1.798159,-0.98401 -4.492658,0.9645 c -5.657945,1.21466 -6.661912,1.28192 -6.661912,0.44629 0,-0.69706 1.779069,-1.69606 5.107403,-2.86791 1.138754,-0.40095 2.005808,-0.79364 1.92679,-0.87266 -0.07902,-0.079 -2.279731,0.14053 -4.890477,0.48802 -5.914168,0.78703 -6.265287,0.78924 -6.265287,0.0395 0,-0.34585 1.354183,-1.1744 3.133747,-1.91734 1.723558,-0.71955 3.193242,-1.48679 3.265959,-1.70494 0.07272,-0.21815 -0.948017,-0.65578 -2.268308,-0.97253 -2.2278,-0.53443 -2.751556,-0.49165 -7.279071,0.59452 -7.536519,1.80803 -12.27634,2.47231 -17.243256,2.41659 -6.563725,-0.0736 -7.173858,-0.0344 -6.702974,0.43014 0.226685,0.22366 2.071631,1.31457 4.099877,2.42423 2.028248,1.10966 4.389335,2.57082 5.246863,3.24702 2.665768,2.10208 6.367821,3.42068 14.059443,5.00766 1.908937,0.39386 4.70462,1.28206 6.212624,1.97379 2.65024,1.21566 4.850538,1.62811 4.850538,0.90922 0,-0.19163 1.185573,-1.18452 2.634603,-2.20641 l 2.634608,-1.85798 1.618745,1.1218 c 0.890311,0.61699 1.956041,1.1218 2.368285,1.1218 0.412239,0 0.870697,0.34165 1.018783,0.75924 0.645471,1.82007 1.564061,2.37078 3.385351,2.02958 0.95771,-0.17942 2.71745,-0.36557 3.91053,-0.41366 z m 7.4855,-4.64809 c -0.2771,-0.83132 -9.4138,-3.01509 -10.73567,-2.56596 -0.9008,0.30607 -0.1539,0.59862 4.3348,1.69784 6.28562,1.53926 6.64064,1.58741 6.40087,0.86812 z m -50.411062,-1.86244 c -0.463187,-0.35034 -1.048883,-0.63006 -1.301548,-0.6216 -0.252666,0.008 0.02869,0.29438 0.625233,0.63539 1.405349,0.80337 1.747479,0.79639 0.676315,-0.0131 z m 52.431692,-0.67027 c 1.43555,-1.70607 1.41825,-2.39736 -0.0699,-2.79273 -2.79486,-0.74254 -4.26723,-0.6348 -7.00457,0.51262 -2.55145,1.0695 -2.691,1.1947 -1.7354,1.55697 0.9402,0.35643 6.70507,1.93073 7.39986,2.0208 0.15774,0.0205 0.79225,-0.56351 1.41001,-1.29766 z m -58.748052,-3.00114 c -2.191556,-1.84114 -4.021798,-2.68413 -4.422061,-2.03676 -0.447244,0.72334 0.385636,1.411 2.903589,2.3973 3.003476,1.17651 3.272119,1.11272 1.518472,-0.36054 z M 125.1212,154.2893 c 0,-0.82861 -1.35032,-3.05162 -2.8865,-4.75199 -1.49741,-1.65745 -4.3659,-3.72201 -4.703,-3.38491 -0.0927,0.0926 0.79754,1.62794 1.97816,3.41182 1.18061,1.78388 2.55341,3.8753 3.05066,4.6476 0.75512,1.17278 1.0406,1.33113 1.73239,0.96089 0.45556,-0.2438 0.82829,-0.64134 0.82829,-0.88341 z m -27.804796,-8.03571 c -0.78798,-0.94944 -3.81401,-2.42335 -4.32586,-2.10701 -0.23643,0.1461 0.69762,1.03106 2.07566,1.9665 2.34036,1.58872 3.51285,1.66193 2.2502,0.14053 z m 19.995506,-6.1922 c 0,-0.8507 -3.14776,-4.39082 -3.90417,-4.39082 -0.67218,0 -0.56066,0.22919 1.36353,2.80215 1.89233,2.53039 2.54064,2.93577 2.54064,1.58867 z m 16.70175,-20.6316 c 0.81902,-0.34221 2.9115,-0.73165 4.64994,-0.86544 3.22004,-0.2478 4.05058,-0.42488 9.01777,-1.92255 4.96435,-1.49683 7.0047,-2.41291 8.61883,-3.86969 l 1.57663,-1.42292 -1.72898,0.88061 c -0.95094,0.48433 -2.21993,0.8849 -2.82002,0.89013 -0.60008,0.005 -1.91686,0.38441 -2.92619,0.84259 -3.39278,1.54014 -11.61932,3.47727 -17.57826,4.13921 -2.29354,0.25478 -2.45742,0.344 -2.04553,1.11361 0.53459,0.99889 1.24561,1.046 3.23581,0.21445 z m 3.90609,-3.71104 c 7.32287,-1.41274 10.8986,-2.28062 11.48278,-2.78704 0.36576,-0.31705 2.27567,-1.1059 4.24427,-1.75299 1.96859,-0.64708 3.57627,-1.30691 3.57261,-1.46628 -0.0164,-0.7065 -0.7921,-1.31616 -2.79447,-2.19568 -2.39011,-1.04985 -7.10453,-1.62517 -13.01904,-1.5888 l -3.88929,0.0239 -3.36949,4.98925 c -1.85323,2.7441 -3.37319,5.16258 -3.3777,5.3744 -0.008,0.40418 3.46427,0.11429 7.15033,-0.5968 z m -22.83132,0.15742 c 0.74567,-0.14906 1.35577,-0.40851 1.35577,-0.57639 0,-0.1679 -0.5886,-1.19388 -1.30801,-2.27999 -0.7194,-1.0861 -1.71176,-3.21831 -2.20524,-4.73826 -0.49348,-1.51994 -2.2579,-5.69201 -3.92095,-9.271268 -4.9812,-10.72071 -4.65653,-10.099131 -4.68667,-8.972527 -0.0449,1.681281 2.0347,9.272043 3.59959,13.138415 2.86483,7.07811 3.31509,8.32321 3.31509,9.16728 0,1.24442 1.3104,3.80388 1.94753,3.80388 0.30091,0 1.1572,-0.12199 1.90289,-0.27114 z m 6.56344,-3.88684 c 1.4672,-1.80966 3.42738,-4.46577 4.35596,-5.90247 1.60752,-2.48716 1.65429,-2.65671 0.97697,-3.54283 -0.39124,-0.51186 -1.55613,-1.61399 -2.58866,-2.44914 -1.03252,-0.835157 -2.69857,-2.250603 -3.70234,-3.145412 -1.00377,-0.894809 -1.9733,-1.62694 -2.15453,-1.62694 -0.1812,0 -0.99198,-0.581683 -1.8017,-1.292628 -1.56822,-1.376911 -9.72811,-5.75792 -10.34281,-5.553017 -0.3644,0.121505 1.42933,3.870326 2.44512,5.110253 0.29322,0.357923 0.8497,1.646994 1.23661,2.864587 0.38692,1.21761 2.29017,5.512707 4.22943,9.544697 1.93927,4.03197 3.69696,7.77014 3.906,8.30702 0.20903,0.5369 0.46831,0.97618 0.57619,0.97618 0.10789,0 1.39657,-1.48065 2.86376,-3.2903 z M 21.431152,181.22288 c -1.073778,-0.20221 -3.172526,-0.38214 -4.663883,-0.39984 -2.66271,-0.0316 -2.71144,-0.0536 -2.704917,-1.22523 0.0036,-0.65619 0.160384,-1.43516 0.348277,-1.73102 0.1879,-0.29585 2.528743,-1.02166 5.201873,-1.6129 2.673131,-0.59126 5.236823,-1.27654 5.697094,-1.52286 1.373131,-0.73489 2.190945,-0.51621 2.657353,0.71053 0.554722,1.45903 0.641035,4.85544 0.136049,5.35371 -0.592186,0.5843 -4.507285,0.83523 -6.671851,0.42761 z m 5.581558,-1.50279 c -0.172918,-0.17292 -4.95935,-0.54865 -10.312612,-0.80953 -0.850449,-0.0415 -1.556056,0.15807 -1.663089,0.47033 -0.143019,0.41717 1.240643,0.54231 5.996447,0.54231 3.400295,0 6.09096,-0.0913 5.979254,-0.20311 z m -0.705355,-1.76586 c 0.38893,-0.14922 0.544025,-0.67407 0.429599,-1.45369 -0.177281,-1.2079 -0.194976,-1.21444 -1.766278,-0.65317 -0.872961,0.31181 -2.094957,0.57551 -2.715549,0.58599 -0.62059,0.01 -1.791983,0.26238 -2.603097,0.55978 l -1.47475,0.54074 1.952323,0.2618 c 2.722938,0.36512 5.456577,0.43529 6.177752,0.15856 z M 6.0294929,176.69454 c -0.715853,-0.3332 -2.180095,-0.72492 -3.253871,-0.87049 -2.87729899,-0.39006 -3.10452999,-0.62222 -2.50884799,-2.56312 0.276422,-0.90067 0.90518599,-1.84344 1.39725199,-2.09502 0.492068,-0.25161 1.773215,-1.18351 2.846993,-2.07089 2.900686,-2.39718 3.262132,-2.49971 8.6364041,-2.45001 l 4.948683,0.0458 0.644047,1.76568 c 0.964456,2.64407 0.163777,3.9828 -2.952467,4.93649 -1.314278,0.40221 -3.434932,1.45037 -4.712566,2.32922 -2.5545621,1.75724 -3.1237171,1.86692 -5.0456271,0.97237 z m 4.7953381,-1.92282 c 0.941822,-0.68574 2.16639,-1.38688 2.721262,-1.55808 0.55487,-0.17119 0.929634,-0.39049 0.832809,-0.48732 -0.214543,-0.21454 -4.265303,1.10675 -4.8982581,1.59772 -0.249422,0.19347 -1.225583,0.0767 -2.169247,-0.25936 -2.242681,-0.79883 -5.837326,-0.85062 -5.837326,-0.0841 0,0.61432 4.154596,1.92775 6.313812,1.99605 0.823007,0.0261 1.972941,-0.4302 3.0369481,-1.20492 z m 1.357086,-2.99291 c 4.629525,-1.6042 5.608304,-2.26614 5.008379,-3.38711 -0.437222,-0.81695 -0.677894,-0.83691 -4.969515,-0.41203 -4.2386621,0.41964 -4.6164371,0.53788 -6.2782041,1.96499 -0.972491,0.83515 -1.794836,1.7137 -1.827432,1.95231 -0.0326,0.23862 0.872876,0.54961 2.012164,0.69109 1.139287,0.14151 2.186644,0.28789 2.327459,0.32539 0.140821,0.0375 1.8180321,-0.4731 3.7271491,-1.13464 z"
       id="path4609"
       inkscape:connector-curvature="0" />
  </g>
</svg>
