<?xml version="1.0" encoding="UTF-8" standalone="no"?>
<!-- Created with Inkscape (http://www.inkscape.org/) -->

<svg
   xmlns:dc="http://purl.org/dc/elements/1.1/"
   xmlns:cc="http://creativecommons.org/ns#"
   xmlns:rdf="http://www.w3.org/1999/02/22-rdf-syntax-ns#"
   xmlns:svg="http://www.w3.org/2000/svg"
   xmlns="http://www.w3.org/2000/svg"
   xmlns:sodipodi="http://sodipodi.sourceforge.net/DTD/sodipodi-0.dtd"
   xmlns:inkscape="http://www.inkscape.org/namespaces/inkscape"
   width="210mm"
   height="183.67105mm"
   viewBox="0 0 210.00001 183.67107"
   version="1.1"
   id="svg8"
   inkscape:version="0.92.3 (2405546, 2018-03-11)"
   sodipodi:docname="anarchists.svg">
  <defs
     id="defs2" />
  <sodipodi:namedview
     id="base"
     pagecolor="#ffffff"
     bordercolor="#666666"
     borderopacity="1.0"
     inkscape:pageopacity="0.0"
     inkscape:pageshadow="2"
     inkscape:zoom="1.4"
     inkscape:cx="363.62452"
     inkscape:cy="276.30922"
     inkscape:document-units="mm"
     inkscape:current-layer="layer1"
     showgrid="false"
     fit-margin-top="0"
     fit-margin-left="0"
     fit-margin-right="0"
     fit-margin-bottom="0"
     inkscape:window-width="1920"
     inkscape:window-height="1017"
     inkscape:window-x="-8"
     inkscape:window-y="-8"
     inkscape:window-maximized="1" />
  <metadata
     id="metadata5">
    <rdf:RDF>
      <cc:Work
         rdf:about="">
        <dc:format>image/svg+xml</dc:format>
        <dc:type
           rdf:resource="http://purl.org/dc/dcmitype/StillImage" />
        <dc:title></dc:title>
      </cc:Work>
    </rdf:RDF>
  </metadata>
  <g
     inkscape:label="Layer 1"
     inkscape:groupmode="layer"
     id="layer1"
     transform="translate(-356.47937,806.89716)">
    <path
       style="fill:#000000;stroke-width:0.68657774"
       d="m 405.96849,-623.83841 c -4.89943,-0.86468 -7.83622,-2.01356 -16.63987,-6.50958 -12.66244,-6.46672 -24.84099,-20.43933 -29.06874,-33.35099 -0.72707,-2.22049 -1.32196,-4.55313 -1.32196,-5.18365 0,-0.63052 -0.31521,-1.4616 -0.70046,-1.84685 -1.3784,-1.3784 -2.28915,-16.24237 -1.41354,-23.06997 0.44672,-3.48339 1.04836,-6.49622 1.33694,-6.69517 0.28861,-0.19903 1.24235,-2.91067 2.11944,-6.02602 0.87709,-3.11533 1.86076,-5.66426 2.1859,-5.66426 0.32515,0 0.59118,-0.4324 0.59118,-0.96088 0,-0.52846 1.08137,-2.56777 2.40302,-4.53175 1.32168,-1.96398 2.40302,-3.79741 2.40302,-4.07429 0,-0.87815 10.38175,-11.71698 11.22288,-11.71698 0.44287,0 1.19112,-0.61793 1.66275,-1.37316 0.47166,-0.75524 1.212,-1.37317 1.64517,-1.37317 0.43317,0 1.74364,-0.72606 2.91212,-1.61351 3.1215,-2.37063 11.86237,-6.34597 16.1994,-7.36747 2.07689,-0.48915 4.14721,-1.16546 4.60067,-1.50291 0.45349,-0.33745 5.01111,-0.78907 10.12808,-1.00359 l 9.30353,-0.3901 1.0844,-2.12847 c 0.59642,-1.17068 1.69192,-4.06661 2.43444,-6.4354 1.68302,-5.36914 3.83117,-9.08138 5.25506,-9.08138 1.41206,0 9.22312,2.72466 10.0706,3.51285 1.40817,1.30964 2.60508,0.64668 2.24387,-1.24285 -0.27198,-1.42283 0.10535,-2.27825 1.63642,-3.70835 1.09447,-1.02238 1.98993,-2.51701 1.98993,-3.32142 0,-0.80438 0.46345,-1.64036 1.02988,-1.85771 0.56642,-0.21746 1.03408,-1.05731 1.03924,-1.86654 0.0182,-2.65717 0.78339,-4.42858 2.06067,-4.7626 0.76808,-0.20085 1.34392,-1.09102 1.48135,-2.28977 0.15362,-1.33915 0.82366,-2.24691 2.11288,-2.86196 1.30707,-0.62357 1.88807,-1.42265 1.88807,-2.59673 0,-1.16601 0.5233,-1.89493 1.6747,-2.3327 0.9211,-0.35018 2.00661,-1.25691 2.41231,-2.01492 0.40566,-0.758 1.84043,-1.90154 3.18835,-2.54117 1.34794,-0.63962 2.71928,-1.86921 3.04747,-2.73239 0.75684,-1.99063 2.74788,-3.07031 4.71391,-2.55617 1.08051,0.28256 1.82723,-0.0291 2.55295,-1.06512 0.68403,-0.97658 1.75839,-1.46448 3.22471,-1.46448 1.45537,0 2.48891,-0.46434 3.0565,-1.37316 0.66926,-1.07166 1.6011,-1.37317 4.2441,-1.37317 1.8626,0 3.60102,-0.34705 3.86319,-0.77121 0.30309,-0.49042 1.67369,-0.62943 3.76458,-0.3818 2.40279,0.28456 3.50945,0.12248 4.1107,-0.60195 1.00733,-1.21373 2.83619,-1.28143 3.97064,-0.14687 0.4644,0.46439 2.76616,1.05772 5.11502,1.31852 7.8193,0.86816 11.53219,2.00716 12.34285,3.78635 0.42568,0.93426 1.63814,1.85414 2.8562,2.16696 1.4178,0.36412 2.46203,1.26692 3.16295,2.73452 0.5755,1.20503 1.7139,2.65854 2.52978,3.22999 0.81587,0.57146 1.58086,1.88528 1.69994,2.91962 0.16296,1.41435 0.64207,1.93611 1.93297,2.1046 1.98222,0.25872 4.07494,2.58622 4.11978,4.58204 0.0182,0.84261 0.88698,1.80216 2.24665,2.48354 1.88984,0.94708 2.19827,1.45088 2.09676,3.42488 -0.0654,1.27297 0.18969,2.50528 0.56699,2.73849 0.37731,0.23329 0.85677,1.78158 1.06546,3.44089 0.20863,1.65928 0.99669,3.69628 1.75112,4.52664 0.96098,1.05767 1.2594,2.0856 0.99666,3.43289 -0.26647,1.3665 0.0358,2.3647 1.04475,3.44871 1.21544,1.30603 1.33105,1.92946 0.80321,4.33245 -0.76917,3.5018 -1.91745,3.84664 -2.2125,0.66446 -0.12248,-1.32165 -0.88591,-3.11343 -1.69631,-3.9817 -1.0256,-1.0988 -1.41328,-2.27773 -1.27536,-3.87847 0.10899,-1.2649 -0.13182,-2.50373 -0.53508,-2.75295 -0.40325,-0.24911 -0.7332,-1.83288 -0.7332,-3.51923 0,-2.6602 -0.23328,-3.15479 -1.76271,-3.73624 -1.56491,-0.595 -1.73825,-0.99511 -1.5448,-3.56597 0.18373,-2.44243 0.003,-2.9376 -1.15524,-3.16289 -2.13055,-0.41441 -3.08961,-1.49541 -3.08961,-3.48241 0,-1.49964 -0.54517,-2.06147 -3.0831,-3.17719 -2.25661,-0.99205 -3.08484,-1.74694 -3.08958,-2.81611 -0.003,-0.80339 -0.50213,-1.87206 -1.10791,-2.37481 -0.60577,-0.50274 -1.3672,-1.61319 -1.69206,-2.46768 -0.32489,-0.85449 -1.65817,-1.99964 -2.96282,-2.54478 -1.30466,-0.54512 -2.71683,-1.6352 -3.13812,-2.4224 -0.43989,-0.82195 -1.44704,-1.43129 -2.3657,-1.43129 -0.87984,0 -2.38527,-0.61791 -3.34537,-1.37314 -1.23322,-0.97007 -2.7853,-1.37316 -5.28708,-1.37316 -1.94774,0 -4.15873,-0.33039 -4.91326,-0.73422 -1.00022,-0.53531 -1.64083,-0.51104 -2.36446,0.0895 -0.60846,0.50497 -2.09084,0.67645 -3.83062,0.44308 -2.20383,-0.29558 -3.26838,-0.0625 -4.76353,1.04289 -1.84744,1.36589 -1.9988,1.37544 -3.73741,0.23613 -0.99659,-0.65296 -1.86239,-1.0853 -1.92405,-0.96075 -1.22076,2.46719 -1.8983,2.9963 -4.0755,3.1827 -1.69671,0.14531 -2.78969,0.72645 -3.55084,1.8881 -0.81725,1.24728 -1.71258,1.6782 -3.4868,1.6782 -1.95692,0 -2.38718,0.25638 -2.38718,1.42221 0,1.94016 -1.59742,3.38385 -3.74414,3.38385 -1.27297,0 -1.97036,0.49416 -2.43976,1.72875 -0.3615,0.95081 -1.41154,2.01554 -2.33342,2.36604 -0.97147,0.36934 -1.77045,1.29957 -1.9004,2.21263 -0.12897,0.90659 -1.02576,1.95832 -2.11234,2.47746 -1.44629,0.69103 -1.8881,1.38928 -1.8881,2.98403 0,1.67762 -0.3956,2.23123 -2.03716,2.85085 -1.68209,0.63493 -1.96598,1.05261 -1.62874,2.3963 0.22472,0.89502 0.0729,2.29867 -0.33729,3.11924 -0.41015,0.82052 -0.8358,2.26429 -0.94593,3.20833 -0.11625,0.99602 -0.84857,2.00091 -1.74499,2.3942 -1.20626,0.52918 -1.54482,1.24105 -1.54482,3.24816 0,2.16981 0.26777,2.63763 1.71805,3.00162 0.94495,0.23718 2.86404,1.01545 4.26466,1.72953 1.40062,0.71407 3.04012,1.29832 3.64334,1.29832 0.60322,0 1.66058,0.41229 2.3497,0.91617 1.20662,0.88231 1.19686,1.06611 -0.26352,4.96936 -0.83407,2.22924 -1.75903,4.36588 -2.05548,4.74809 -0.29647,0.38218 -1.19673,2.67564 -2.00059,5.09657 -1.66066,5.00122 -1.82489,4.568 3.79359,10.00808 7.84411,7.59505 14.09003,17.80538 16.38499,26.78491 0.67559,2.64334 1.5635,5.23973 1.97317,5.7698 1.1208,1.45026 1.0154,25.60815 -0.1134,25.98442 -0.47202,0.15725 -0.85724,0.80101 -0.85605,1.43038 0.003,1.94055 -2.91333,11.09967 -3.53506,11.09967 -0.32262,0 -0.58656,0.42876 -0.58656,0.95281 0,0.52405 -1.08136,2.52485 -2.40304,4.44622 -1.32165,1.92135 -2.40302,3.76394 -2.40302,4.09466 0,0.96802 -7.54468,9.21352 -11.93978,13.04881 -3.93956,3.4378 -12.07015,8.34556 -15.52331,9.37012 -0.94404,0.2801 -2.64334,0.91858 -3.77619,1.41886 -1.13284,0.50025 -3.29557,1.26384 -4.80603,1.69683 -4.06113,1.16419 -22.44158,1.45911 -28.14969,0.4517 z m 23.65313,-16.99931 c 1.90668,-0.40891 3.46668,-0.98821 3.46668,-1.28733 0,-0.29911 0.90325,-0.7245 2.00722,-0.94531 1.82167,-0.36433 4.85855,-2.80764 4.85855,-3.90891 0,-0.24574 -0.72824,-0.77874 -1.61833,-1.18428 -1.86563,-0.85005 -1.959,-0.80765 -9.82608,4.4613 -5.70637,3.8218 -5.5254,4.28801 1.11196,2.86453 z m -51.42759,-37.32486 c 0.36004,-0.36007 0.66132,-1.59697 0.66949,-2.74871 0.0182,-2.69596 2.5659,-14.25011 3.25216,-14.75433 0.28796,-0.21149 1.2895,-2.084 2.2256,-4.16088 0.93613,-2.07689 1.85977,-3.93066 2.05255,-4.11947 0.1928,-0.18891 0.91284,-1.45179 1.60017,-2.80661 2.09619,-4.132 11.2406,-13.45198 17.80847,-18.1504 3.41852,-2.4455 5.91524,-4.44635 5.54824,-4.44635 -2.837,0 -9.36205,1.79792 -11.9047,3.28026 -1.6993,0.99067 -4.21097,2.34637 -5.58151,3.01267 -1.37054,0.66633 -4.79721,3.49448 -7.61485,6.28481 -4.08929,4.04967 -5.71317,6.30565 -8.04815,11.18084 -1.60886,3.35915 -3.22834,6.68496 -3.59884,7.39068 -1.29101,2.45912 -2.08268,14.56952 -1.28748,19.69478 0.41132,2.65104 1.02645,5.34918 1.36696,5.99592 0.34051,0.64671 1.03107,2.25721 1.53459,3.57886 0.9011,2.36521 0.91869,2.31661 1.11907,-3.0872 0.1121,-3.01963 0.49815,-5.78482 0.85823,-6.14487 z m 76.48661,-65.93738 c 2.62527,-5.54935 2.91873,-7.66129 1.14286,-8.22494 -1.91698,-0.60844 -2.62958,-0.0719 -3.16946,2.3861 -0.24781,1.12851 -0.67126,2.05187 -0.94085,2.05187 -0.68851,0 -2.02272,5.27746 -1.52592,6.03585 0.22472,0.34321 0.87221,0.80044 1.43863,1.01605 0.56642,0.21564 1.08469,0.41644 1.15166,0.44623 0.067,0.0298 0.92336,-1.64021 1.90308,-3.71116 z m 88.94668,5.86563 c 0,-2.24343 0.30895,-4.26989 0.68657,-4.50328 0.37761,-0.23329 0.68659,-1.16025 0.68659,-2.05974 0,-0.89945 0.31817,-1.83205 0.70707,-2.07239 0.47586,-0.29411 0.56959,1.43256 0.28664,5.28047 -0.48155,6.54858 -0.6791,7.43387 -1.65874,7.43387 -0.40699,0 -0.70813,-1.73461 -0.70813,-4.07893 z m -11.67183,-1.29765 c 0,-0.31381 0.77241,-0.98395 1.71645,-1.48918 0.94404,-0.50524 1.71644,-1.19069 1.71644,-1.52321 0,-1.02591 4.37474,-5.13416 6.00755,-5.6416 0.84966,-0.26404 1.54482,-0.26565 1.54482,-0.003 0,0.26209 -2.0855,2.43784 -4.63441,4.83502 -4.26468,4.01079 -6.35085,5.26643 -6.35085,3.82253 z m 20.58996,-6.07413 c -1.12026,-1.76648 -1.86472,-3.3839 -1.65435,-3.59428 0.43008,-0.43008 2.99596,2.682 3.01962,3.66242 0.008,0.34788 0.52659,1.19752 1.15153,1.88808 0.70323,0.77706 0.82831,1.25556 0.32819,1.25556 -0.44447,0 -1.7247,-1.4453 -2.84499,-3.21178 z m -23.41928,-2.91874 c 1.27599,-0.32893 2.97526,-0.90916 3.77616,-1.28937 3.42163,-1.62441 7.29209,-2.82179 7.29209,-2.25596 0,1.21518 -5.38665,3.38201 -9.34357,3.75853 -3.04205,0.28947 -3.46959,0.23666 -1.72468,-0.2133 z m 31.15067,-0.5332 c -0.84966,-0.16374 -1.54482,-0.55153 -1.54482,-0.86194 0,-0.31043 -0.77239,-0.75827 -1.71645,-0.99521 -0.94404,-0.23692 -1.71642,-0.76989 -1.71642,-1.18436 0,-0.41446 0.54068,-0.58957 1.2015,-0.38911 1.4547,0.44127 5.49393,1.86114 7.38071,2.59447 0.75523,0.29354 1.8366,0.68639 2.40302,0.87299 1.25053,0.41198 -3.83934,0.38076 -6.00754,-0.0368 z m -23.39966,-7.41917 c -1.12719,-0.94845 -2.9274,-2.18239 -4.00049,-2.74207 -1.10965,-0.57872 -1.47839,-1.01942 -0.85503,-1.02181 2.45032,-0.0104 10.4424,5.41234 8.05381,5.4637 -0.63187,0.013 -2.0711,-0.75134 -3.19829,-1.69982 z m 19.10853,0.008 c 0,-0.57214 0.61028,-1.02986 1.37317,-1.02986 0.75523,0 1.37314,-0.27815 1.37314,-0.61809 0,-0.74716 6.76425,-2.4586 7.36057,-1.86231 0.23147,0.23147 -0.17153,0.42594 -0.89528,0.43237 -0.72378,0.005 -2.86074,0.92806 -4.74884,2.04803 -3.93167,2.33218 -4.46276,2.45474 -4.46276,1.02986 z m -4.11946,-2.31653 c 0,-1.10846 3.68902,-7.21375 3.92713,-6.49936 0.34964,1.04892 -2.39134,7.09946 -3.21614,7.09946 -0.39106,0 -0.71099,-0.27005 -0.71099,-0.6001 z m 4.11946,-8.59525 c 0,-0.52602 0.42848,-1.12083 0.95217,-1.32178 0.66793,-0.25638 0.84898,0.0291 0.60649,0.95642 -0.39755,1.52019 -1.55866,1.79237 -1.55866,0.36536 z"
       id="path500"
       inkscape:connector-curvature="0" />
  </g>
</svg>
