<?xml version="1.0" encoding="UTF-8" standalone="no"?>
<!-- Created with Inkscape (http://www.inkscape.org/) -->

<svg
   xmlns:dc="http://purl.org/dc/elements/1.1/"
   xmlns:cc="http://creativecommons.org/ns#"
   xmlns:rdf="http://www.w3.org/1999/02/22-rdf-syntax-ns#"
   xmlns:svg="http://www.w3.org/2000/svg"
   xmlns="http://www.w3.org/2000/svg"
   xmlns:sodipodi="http://sodipodi.sourceforge.net/DTD/sodipodi-0.dtd"
   xmlns:inkscape="http://www.inkscape.org/namespaces/inkscape"
   width="210mm"
   height="153.04611mm"
   viewBox="0 0 210 153.04611"
   version="1.1"
   id="svg8"
   inkscape:version="0.92.3 (2405546, 2018-03-11)"
   sodipodi:docname="army_bribe.svg">
  <defs
     id="defs2" />
  <sodipodi:namedview
     id="base"
     pagecolor="#ffffff"
     bordercolor="#666666"
     borderopacity="1.0"
     inkscape:pageopacity="0.0"
     inkscape:pageshadow="2"
     inkscape:zoom="0.7"
     inkscape:cx="407.56697"
     inkscape:cy="317.4115"
     inkscape:document-units="mm"
     inkscape:current-layer="g21"
     showgrid="false"
     inkscape:window-width="1920"
     inkscape:window-height="1017"
     inkscape:window-x="-8"
     inkscape:window-y="-8"
     inkscape:window-maximized="1"
     fit-margin-top="0"
     fit-margin-left="0"
     fit-margin-right="0"
     fit-margin-bottom="0" />
  <metadata
     id="metadata5">
    <rdf:RDF>
      <cc:Work
         rdf:about="">
        <dc:format>image/svg+xml</dc:format>
        <dc:type
           rdf:resource="http://purl.org/dc/dcmitype/StillImage" />
        <dc:title></dc:title>
      </cc:Work>
    </rdf:RDF>
  </metadata>
  <g
     inkscape:label="Layer 1"
     inkscape:groupmode="layer"
     id="layer1"
     transform="translate(-4.640273e-6,-90.351181)">
    <g
       id="g21"
       transform="translate(118.89756,67.317726)"
       style="fill:#000000">
      <path
         style="fill:#000000;stroke-width:0.56890029"
         d="m -44.824616,173.8271 c 1.934085,-2.40671 3.13587,-3.15515 3.672382,-2.28705 0.396365,0.64134 -3.66328,4.52081 -4.7349,4.52477 -0.423581,0.001 0.02907,-0.9517 1.062518,-2.23772 z m 13.044571,1.79849 c 0,-0.55655 7.562523,-8.09157 8.12111,-8.09157 1.320628,0 -0.04604,2.24091 -3.143232,5.15386 -3.253977,3.06043 -4.977878,4.07778 -4.977878,2.93771 z m 7.395706,-0.12679 c 0,-0.31289 0.256004,-0.56889 0.5689,-0.56889 0.312894,0 0.568899,0.256 0.568899,0.56889 0,0.3129 -0.256005,0.5689 -0.568899,0.5689 -0.312896,0 -0.5689,-0.256 -0.5689,-0.5689 z m -25.911153,-2.99203 c -0.249316,-0.64971 1.502676,-2.74196 6.038013,-7.21069 3.514079,-3.46245 6.607059,-6.29539 6.873283,-6.29539 0.266229,0 0.484047,-0.34074 0.484047,-0.7572 0,-0.8115 2.643709,-2.47772 3.141485,-1.97995 0.607257,0.60726 -0.659269,2.05404 -8.33494,9.52117 -5.964515,5.80244 -7.935039,7.41743 -8.201888,6.72206 z m 18.515447,-4.28143 c 0,-0.52485 20.21506,-20.03375 20.758929,-20.03375 1.4885333,0 -1.287547,3.30927 -9.449532,11.26448 -8.271486,8.06196 -11.309397,10.41754 -11.309397,8.76927 z m -18.989152,-1.6651 c -0.491582,-0.49161 9.323241,-10.40404 10.301562,-10.40404 1.688086,0 0.83532,0.9824 -7.296803,8.40613 -1.438379,1.31307 -2.790524,2.21213 -3.004759,1.99791 z m 16.144651,-2.45849 c 0,-0.59096 9.333708,-9.77175 10.295002,-10.12634 0.282761,-0.10427 0.514105,0.28711 0.514105,0.86978 0,1.56494 -8.834767,9.84451 -10.504644,9.84451 -0.167456,0 -0.304463,-0.26459 -0.304463,-0.58795 z m -18.773711,-3.76961 c 0,-0.5862 11.495741,-12.14055 12.078965,-12.14055 0.240265,0 0.436842,0.45216 0.436842,1.0048 0,0.55263 -2.466235,3.30468 -5.480518,6.11568 -5.105034,4.76072 -7.035289,6.13805 -7.035289,5.02007 z m 39.254123,-1.77069 c 0,-1.12559 9.0124855,-10.36986 10.109865,-10.36986 0.3845822,0 0.699242,0.31494 0.699242,0.69988 0,0.75205 -9.640177,10.67814 -10.370569,10.67814 -0.241199,0 -0.438538,-0.45367 -0.438538,-1.00816 z m -44.374225,-0.57577 c 0,-0.78972 6.024791,-6.42417 6.432867,-6.01608 0.622031,0.62202 0.458877,1.91099 -0.241896,1.91099 -0.349703,0 -1.659847,1.02401 -2.911427,2.27561 -2.176691,2.17668 -3.279544,2.79192 -3.279544,1.82948 z m -4.754666,-1.65369 c -0.498106,-0.4981 4.744186,-5.86481 5.728855,-5.86481 1.345172,0 0.755046,1.35622 -1.661542,3.81857 -2.334772,2.37895 -3.266078,2.84749 -4.067313,2.04624 z m 31.49298,-2.33056 c 0,-0.24644 1.278428,-1.70726 2.840945,-3.2463 2.270198,-2.23605 2.98357,-2.65559 3.550873,-2.08829 0.491604,0.4916 0.52266,0.83386 0.100999,1.11292 -0.334914,0.22163 -1.767167,1.36301 -3.182783,2.53637 -2.588306,2.14535 -3.310018,2.51281 -3.310018,1.6853 z m -35.840722,-1.13779 c 0,-0.71951 5.375426,-5.80986 6.135222,-5.80986 1.335591,0 0.664008,1.07369 -2.285371,3.65375 -2.902021,2.53861 -3.849851,3.06944 -3.849851,2.15611 z m -3.982302,-3.65289 c 0,-0.80245 5.451596,-6.13926 6.271308,-6.13926 1.299449,0 0.364197,1.72995 -2.264634,4.1889 -2.836268,2.653 -4.006674,3.22272 -4.006674,1.95036 z m 22.756014,-0.33181 c 0,-0.96028 4.41016,-5.80745 5.283862,-5.80745 1.140786,0 0.131119,2.2273 -1.988911,4.38745 -2.623682,2.67333 -3.294951,2.96262 -3.294951,1.42 z m 17.06701,-0.68735 c 0,-0.3129 0.271116,-0.5689 0.602476,-0.5689 0.331365,0 0.444255,0.256 0.250875,0.5689 -0.193387,0.31289 -0.464496,0.56889 -0.602478,0.56889 -0.137975,0 -0.250873,-0.256 -0.250873,-0.56889 z m -43.236425,-2.72367 c 0,-1.13082 5.047563,-6.37874 6.135219,-6.37874 1.413695,0 0.606791,1.54486 -2.313035,4.42842 -3.257025,3.21656 -3.822184,3.50494 -3.822184,1.95032 z m 100.079053,-2.03574 c -0.130386,-0.1146 -13.768384,-0.37497 -30.3066823,-0.57878 -22.4002857,-0.27605 -30.3241827,-0.54942 -31.0676447,-1.0718 -2.629782,-1.84784 -17.445831,-17.78947 -18.011989,-19.38038 -0.632549,-1.77747 -0.700299,-1.80505 -5.120102,-2.08575 -3.475715,-0.22073 -4.479078,-0.47561 -4.479078,-1.1378 0,-1.42861 6.742646,-5.52824 10.367979,-6.3039 1.807096,-0.38663 3.528832,-0.91844 3.826083,-1.18182 0.297251,-0.2634 1.537244,-0.47889 2.755537,-0.47889 1.78451,0 2.276927,-0.23649 2.533256,-1.2167 0.314131,-1.20123 0.443801,-1.21229 10.212383,-0.87118 5.441816,0.19007 10.138769,0.49662 10.437672,0.68137 0.298905,0.1847 0.543463,0.85411 0.543463,1.48751 0,2.0266 1.413822,0.78419 1.59882,-1.40499 0.170961,-2.02316 0.247627,-2.08941 2.417829,-2.08941 2.130491,0 2.906193,-0.6597 1.672355,-1.42223 -0.899914,-0.55619 -0.640817,-3.76896 0.507919,-6.29817 0.578508,-1.273714 2.020041,-3.113926 3.203398,-4.089344 l 2.15156,-1.773492 -0.398446,-7.547431 c -0.219146,-4.151089 -0.60691,-7.814977 -0.861698,-8.142 -0.656051,-0.842047 -1.262679,-5.999132 -0.70568,-5.999132 1.343566,0 2.422792,5.725564 3.245246,17.216863 0.4188312,5.851978 0.6691864,6.108035 5.9721282,6.108035 3.1078675,0 3.74752348,-0.201484 5.4876855,-1.729475 l 1.969756,-1.729474 11.1900543,0.08304 c 11.605373,0.08605 19.242462,-0.396813 19.769758,-1.250005 0.49062,-0.793842 4.353147,-0.607476 4.084955,0.197166 -0.140986,0.422946 -3.309845,1.116735 -8.164574,1.787576 -6.996513,0.966755 -8.054183,1.255455 -8.949815,2.442812 -0.558609,0.740574 -0.86789,1.585576 -0.687292,1.87779 0.638606,1.03329 11.070556,5.853411 11.943367,5.518501 1.135729,-0.43581 3.662745,0.52411 5.220435,1.98307 1.080329,1.01184 1.675302,1.0954 5.274952,0.74069 2.231505,-0.21987 4.194707,-0.62215 4.362681,-0.89393 0.49732,-0.80468 2.36564,-0.56316 2.716505,0.35119 0.253107,0.6596 0.922731,0.76537 3.047592,0.48142 1.497759,-0.20018 2.851208,-0.54748 3.007656,-0.77181 0.156446,-0.22432 2.588497,-0.70244 5.404554,-1.06243 9.725454,-1.24328 13.655688,-1.88627 14.222518,-2.32684 1.462807,-1.13695 15.644759,-1.793506 15.644759,-0.72427 0,0.58707 -2.00141,1.81589 -2.98675,1.8338 -0.54756,0.01 -0.995569,0.25841 -0.995569,0.55214 0,0.29372 -1.216011,0.69528 -2.702275,0.89235 -1.486244,0.19717 -3.214274,0.58906 -3.840061,0.87105 -1.12738,0.50805 -4.890465,1.0623 -17.493696,2.57658 -1.799148,0.21617 -3.271177,0.58291 -3.271177,0.81499 0,0.23206 -1.600033,0.60221 -3.555627,0.82258 -3.199628,0.36057 -5.637205,1.11496 -8.525786,2.63863 -0.543321,0.28661 -1.823348,0.5238 -2.8445,0.52714 -1.368354,0.004 -2.363924,0.52812 -3.785469,1.99114 -1.060857,1.0918 -2.14888,1.98509 -2.417828,1.98509 -0.268952,0 -0.489003,0.25603 -0.489003,0.56892 0,0.32037 1.600693,0.5689 3.664276,0.5689 2.015352,0 3.822498,-0.25602 4.015878,-0.5689 0.408011,-0.6602 4.194469,-0.72318 11.652025,-0.19374 4.469855,0.31726 5.326682,0.53651 5.558304,1.42223 0.218867,0.83696 0.860035,1.05656 3.19421,1.09395 4.548744,0.0729 6.164131,0.46825 8.510166,2.083 4.372853,3.00976 5.659603,6.09858 2.801483,6.72485 -2.760049,0.60478 -2.9386,0.73417 -3.966571,2.87478 -0.556213,1.15824 -1.395309,2.30069 -1.864651,2.5388 -0.469342,0.23812 -3.866701,2.11725 -7.549687,4.1759 -3.682983,2.05867 -6.947049,3.743 -7.253482,3.743 -0.306425,0 -0.559137,0.19201 -0.561578,0.42668 -0.01526,1.45952 -3.612658,1.84892 -17.081175,1.84892 -7.707849,0 -14.120942,-0.0938 -14.251312,-0.20814 z m 15.269826,-1.58816 c 0.498823,-0.49882 0.876112,-0.47802 1.555423,0.0858 0.737246,0.61185 1.143183,0.61249 2.281002,0.004 1.349744,-0.72235 1.360353,-0.78105 0.426851,-2.36136 -0.830161,-1.40521 -1.302503,-1.62043 -3.556486,-1.62043 -2.242447,0 -2.728128,0.21828 -3.538669,1.59041 -0.875646,1.48235 -0.874315,1.63471 0.01957,2.24214 1.25289,0.8514 2.004913,0.86747 2.812314,0.06 z m -14.653519,-0.9851 c 0,-0.27823 -0.464627,-1.07968 -1.032503,-1.78098 -1.440746,-1.77924 -6.176886,-1.7462 -7.643227,0.0533 -0.547566,0.67201 -0.995577,1.44944 -0.995577,1.72767 0,0.27823 2.176047,0.50588 4.835655,0.50588 2.659609,0 4.835652,-0.22765 4.835652,-0.50588 z m -43.107438,-0.38166 c 0.175239,-0.17525 -0.05682,-1.07124 -0.515755,-1.99115 -0.77738,-1.55829 -1.054945,-1.67193 -4.063877,-1.66383 -3.63012,0.01 -4.331338,0.30901 -4.885096,2.08443 -0.324961,1.04186 -0.132883,1.278 1.203349,1.47924 2.529537,0.38096 7.912244,0.44045 8.261379,0.0914 z m 22.6080977,-0.10799 c -0.01033,-0.23468 -0.499454,-1.0027 -1.086766,-1.7067 -0.930969,-1.11598 -1.607545,-1.28003 -5.278637,-1.28003 -4.0189963,0 -4.2682773,0.0776 -5.4726216,1.7067 l -1.2618146,1.7067 h 6.5593792 c 3.607665,0 6.55087,-0.192 6.54046,-0.42667 z m 47.4866573,-4.91658 c -0.315854,-1.25847 -0.665791,-1.51352 -1.882953,-1.3724 -1.167388,0.13525 -1.535471,0.52674 -1.679687,1.78622 -0.121395,1.06026 0.171002,1.87749 0.853349,2.38503 1.531212,1.13889 3.251558,-0.63831 2.709291,-2.79885 z m -20.457183,1.57634 c 1.087066,-1.08706 0.947736,-2.42265 -0.337131,-3.23169 -2.092216,-1.31739 -3.897359,1.67097 -2.096921,3.47141 0.904187,0.90419 1.332302,0.86203 2.434052,-0.23972 z m 30.943109,-0.93763 1.916967,-1.16136 -1.348066,-1.03672 c -1.76304,-1.35581 -2.411826,-1.32182 -4.16047,0.21803 -1.071451,0.94352 -1.360373,1.62073 -1.098997,2.57601 0.405522,1.48213 1.487396,1.34468 4.690566,-0.59596 z m -95.955009,0.51912 c 1.367686,-1.03929 0.715084,-3.2103 -0.965014,-3.2103 -0.707426,0 -1.608925,0.38881 -2.003316,0.86402 -0.586825,0.70709 -0.531796,1.06878 0.302968,1.99116 1.187843,1.31255 1.372952,1.33722 2.665362,0.35512 z m 21.958363,-0.47957 c 1.0012835,-1.00128 0.834116,-2.41734 -0.419272,-3.55162 -1.17222,-1.06085 -1.990965,-0.85388 -2.810068,0.71036 -1.19754,2.28693 1.452273,4.61833 3.22934,2.84126 z m 23.154245,-1.30847 c 0,-1.51534 -0.190505,-1.7067 -1.698908,-1.7067 -1.1829943,0 -1.7587313,0.31063 -1.8959053,1.0229 -0.273959,1.42255 0.986559,2.76316 2.4072273,2.56019 0.902566,-0.12894 1.187586,-0.5793 1.187586,-1.87639 z m -52.13646,-2.07114 c 0.695501,-1.11365 0.549152,-1.42864 -1.71208,-3.68476 -1.915362,-1.91102 -2.761066,-2.39087 -3.75262,-2.12927 -0.704014,0.18578 -1.280025,0.53617 -1.280025,0.77873 0,0.56363 5.099686,6.25309 5.604873,6.25309 0.208631,0 0.721567,-0.54801 1.139852,-1.21779 z m 82.476148,-3.6712 c 1.054269,-0.73844 1.262509,-1.34352 1.122161,-3.26061 -0.143675,-1.9626 -0.423563,-2.44176 -1.683535,-2.88225 -1.035421,-0.362 -2.065301,-0.29881 -3.271177,0.20061 -1.465471,0.60702 -1.759972,1.04374 -1.759972,2.60984 0,1.35431 0.419631,2.21094 1.498973,3.05993 1.801621,1.41717 2.402124,1.45714 4.09355,0.27241 z m 25.981447,-1.30692 c 0,-2.2699 -1.651935,-3.77389 -2.567535,-2.33759 -0.639016,1.00241 -0.737551,3.61651 -0.158146,4.19592 0.221798,0.22179 0.925812,0.32847 1.564477,0.23704 0.908044,-0.13009 1.161212,-0.58683 1.161212,-2.09537 z m -87.505093,-3.0059 c 2.047055,-1.92309 1.675836,-4.01682 -1.081083,-6.09745 -0.822168,-0.62047 -1.246978,-0.5429 -2.702277,0.49334 -2.068929,1.47322 -2.32634,3.9659 -0.588954,5.70328 1.46823,1.46825 2.734465,1.43952 4.372314,-0.0991 z m 30.879494,-0.43234 c 0.927938,-1.73384 0.695594,-2.87813 -0.691111,-3.40361 -1.5700473,-0.59493 -2.7022783,0.20104 -2.7022783,1.89985 0,2.4338 2.3405583,3.47101 3.3933893,1.50376 z m -59.174174,-2.56304 c 0.991507,-1.19469 0.523013,-3.96712 -0.709902,-4.20103 -2.351265,-0.44608 -3.742591,3.2038 -1.679373,4.40551 1.333048,0.77643 1.593708,0.75413 2.389275,-0.20448 z m -1.678149,20.63303 c 0,-1.12123 1.763585,-2.68952 2.644365,-2.35154 0.672774,0.25816 0.589658,0.57543 -0.437072,1.66835 -1.38188,1.47093 -2.207293,1.72642 -2.207293,0.68319 z m -57.234965,-2.02585 c -2.3676,-0.16794 -3.03983,-0.45806 -3.63395,-1.56815 -0.62212,-1.16249 -0.5621,-1.72118 0.40985,-3.81318 0.62632,-1.34812 1.47796,-3.79516 1.89254,-5.43785 0.41459,-1.64272 0.93889,-2.98675 1.16513,-2.98675 0.22624,0 0.59491,-1.08801 0.81926,-2.41783 0.22435,-1.32979 1.03104,-3.7808 1.79265,-5.44669 1.36395,-2.98335 1.42082,-5.87252 0.13129,-6.66947 -0.66603,-0.41163 -0.69063,-4.07028 -0.0301,-4.4785 0.89129,-0.55085 3.01135,-6.98612 2.82043,-8.561214 l -0.18649,-1.538519 -3.84008,2.912733 c -2.11203,1.60199 -3.84007,3.23352 -3.84007,3.62558 0,1.45193 -7.17186,6.07582 -9.42389,6.07582 -1.94402,0 -1.5421,-0.51147 9.83572,-12.515829 3.41049,-3.598286 6.56907,-7.065898 7.01906,-7.705816 0.44999,-0.63989 1.770522,-1.880444 2.934517,-2.756798 l 2.116357,-1.593364 -1.784894,-2.221063 c -0.981693,-1.221578 -2.070178,-2.221049 -2.41885,-2.221049 -0.40481,0 -0.62883,-1.388065 -0.61976,-3.840085 0.0168,-4.519834 -1.73818,-9.807392 -5.07658,-15.295801 -1.1771,-1.935178 -1.29536,-2.46627 -0.66555,-2.988978 0.63246,-0.524901 0.53537,-1.106028 -0.55732,-3.335673 -1.39858,-2.853776 -1.65445,-3.80325 -0.89912,-3.336427 0.87009,0.537737 5.88104,11.135668 5.53214,11.700218 -0.45939,0.743294 1.28691,4.094322 2.626388,5.039865 0.579197,0.408876 1.053085,1.081538 1.053085,1.494817 0,1.434248 1.422121,2.080019 2.606727,1.183642 1.265537,-0.957576 3.42548,-1.118326 3.935625,-0.292888 0.193387,0.312896 0.770495,0.568895 1.282473,0.568895 1.376081,0 4.122081,2.866891 4.122081,4.303534 0,0.685385 0.384009,1.564852 0.853351,1.954379 1.175347,0.975447 1.068521,1.706699 -0.249327,1.706699 -0.784723,0 -1.082757,0.369089 -1.033587,1.280023 0.175132,3.2445 -0.163822,4.521899 -1.277136,4.813037 -0.625792,0.163619 -1.137583,0.459706 -1.137315,0.657861 2.7e-4,0.198242 1.920307,2.725861 4.266753,5.617063 2.346445,2.891215 4.266264,5.50073 4.266264,5.798968 0,0.298223 0.486081,0.882708 1.080182,1.298827 0.594097,0.416118 1.17011,1.511943 1.280025,2.435143 0.190053,1.59634 0.06051,1.70863 -2.644656,2.29205 -1.564476,0.33741 -3.484514,0.8901 -4.266751,1.22817 -1.507021,0.6513 -1.692013,0.59964 -4.083462,-1.14079 -2.10578,-1.53253 -3.01028,-0.97512 -4.386532,2.70323 l -1.185343,3.16814 1.166645,3.11814 c 0.641655,1.71496 1.406077,3.26611 1.698715,3.44696 0.292639,0.18083 0.532072,0.72805 0.532072,1.216 0,1.01714 5.06437,11.48514 6.075042,12.55707 0.911038,0.96626 3.5871,0.8939 6.758299,-0.18276 2.759966,-0.93703 4.250781,-0.77785 4.208633,0.44936 -0.04063,1.18359 -7.485676,6.66059 -9.601969,7.06377 -1.783352,0.33978 -2.128303,0.16106 -4.107548,-2.12858 -1.188387,-1.37474 -2.168342,-2.69092 -2.17768,-2.92486 -0.01591,-0.39918 -2.431519,-3.98747 -5.584765,-8.29602 l -1.386557,-1.89458 -0.969401,1.61012 c -0.533171,0.88556 -1.579181,3.40217 -2.324461,5.59242 -0.74528,2.19029 -1.58242,4.29112 -1.86031,4.66852 -0.27788,0.37741 -0.35278,0.93288 -0.16644,1.23438 0.55211,0.89333 5.502636,3.48397 6.657615,3.48397 0.586381,0 1.066147,0.38401 1.066147,0.85334 0,0.87162 -2.817615,0.98788 -10.585152,0.43677 z m 18.010841,-41.887602 c -0.60095,-1.580614 -2.305601,-2.083404 -2.305601,-0.680049 0,0.775842 2.272158,2.785401 2.683872,2.373681 0.105848,-0.10585 -0.06438,-0.867978 -0.378271,-1.693632 z m 40.706832,5.423482 c -0.160122,-0.2591 1.22304,-1.96948 3.073712,-3.80083 2.815909,-2.786531 3.42747,-3.166578 3.748654,-2.329608 0.277255,0.722532 -0.381965,1.777594 -2.374777,3.800848 -2.665253,2.70594 -3.836004,3.31916 -4.447589,2.32959 z m 16.153204,-1.10595 c 0,-0.24158 2.144356,-2.57244 4.765233,-5.179731 3.325184,-3.307879 4.89896,-4.524093 5.207742,-4.024472 0.294265,0.476127 -1.159135,2.20302 -4.338564,5.154961 -4.585132,4.257062 -5.634411,5.011152 -5.634411,4.049242 z m -17.06701,-5.11879 c 0,-0.731093 10.494879,-10.940075 11.246469,-10.940075 1.604573,0 0.421466,1.754101 -4.336198,6.428991 -4.40401,4.3274 -6.910271,5.963505 -6.910271,4.511084 z m 15.360309,-0.0029 c 0,-0.556618 8.698889,-9.231125 9.257212,-9.231125 1.234881,0 -0.03588,1.897683 -3.723815,5.561012 -3.734484,3.709569 -5.533397,4.902764 -5.533397,3.670271 z m -5.461376,-2.062966 c -0.299948,-0.781651 1.233587,-2.643176 6.65177,-8.074389 6.635756,-6.651571 8.48091,-8.030759 8.48091,-6.339034 0,0.395623 -3.317143,4.029105 -7.371428,8.074389 -6.021794,6.008426 -7.442799,7.169077 -7.761252,6.339206 z m -9.854018,-4.057173 c -0.02702,-0.695152 1.313025,-2.499394 3.363139,-4.528095 2.677722,-2.649789 3.556468,-3.224105 4.100615,-2.679937 0.544149,0.54414 0.03135,1.362092 -2.393046,3.816966 -1.697084,1.718445 -3.393021,3.12441 -3.768759,3.12441 -0.37573,0 -0.812275,0.32001 -0.970094,0.711129 -0.157823,0.39112 -0.307154,0.191157 -0.331855,-0.444473 z m -5.165019,-2.978447 c 0,-0.240021 2.756236,-3.184089 6.124969,-6.542353 5.624235,-5.606793 7.52864,-7.012257 7.52864,-5.556136 0,0.67784 -9.478705,10.259252 -10.14928,10.259252 -0.265916,0 -0.946844,0.512026 -1.513179,1.137803 -1.048016,1.158041 -1.99115,1.490285 -1.99115,0.701434 z m -4.314529,-2.550366 c 0.182313,-0.39112 0.489522,-1.159131 0.682664,-1.706699 0.19315,-0.547567 0.595597,-0.995569 0.894351,-0.995569 0.702712,0 2.168613,-1.465902 2.168613,-2.168627 0,-0.636405 2.056115,-1.274631 2.541779,-0.788966 0.182636,0.182552 -1.009827,1.690807 -2.649903,3.351524 -2.847569,2.883384 -4.350006,3.83683 -3.637504,2.308337 z m -4.218975,-4.006072 c 0,-1.274817 5.040484,-5.830177 5.710109,-5.160555 0.413697,0.413695 -0.234963,1.401361 -2.131015,3.244772 -2.836185,2.757443 -3.579094,3.155103 -3.579094,1.915783 z m 30.720618,-0.512973 c 0,-0.425585 1.73766,-2.498131 3.861466,-4.605673 2.942843,-2.920302 4.019414,-3.673914 4.525416,-3.167911 0.505996,0.506003 -0.296075,1.556533 -3.371537,4.416023 -4.422592,4.11199 -5.015345,4.508832 -5.015345,3.357561 z m -33.747755,-3.235306 c 0.153866,-0.588343 1.256377,-2.023395 2.450032,-3.188966 1.655943,-1.616986 2.392595,-1.994824 3.108328,-1.594267 0.796534,0.44575 0.508405,0.92684 -1.910019,3.188965 -3.047662,2.850756 -4.0968,3.309213 -3.648341,1.594268 z m 17.018825,-1.62628 c -0.479862,-0.479871 5.943205,-6.975253 6.897592,-6.975253 0.400909,0 0.728931,0.218637 0.728931,0.485837 0,1.129242 -7.016407,7.099531 -7.626523,6.489416 z m 16.829442,-2.096197 c 0.101158,-0.445507 1.818058,-2.506866 3.815312,-4.580861 2.611765,-2.712107 3.969508,-3.719722 4.835655,-3.588691 1.014604,0.153524 0.487478,0.874763 -3.346928,4.579599 -4.525811,4.372866 -5.655477,5.137464 -5.304039,3.589953 z m -36.510136,-1.060369 c 0,-0.923972 5.205028,-6.09428 6.135222,-6.09428 1.379754,0 0.635087,1.520676 -2.030235,4.145911 -2.715959,2.675117 -4.104987,3.334398 -4.104987,1.948369 z m -1.7067,-5.099657 c 0,-0.935274 6.791197,-7.821425 7.713582,-7.821425 0.433314,0 0.596585,0.446698 0.415862,1.137786 -0.16365,0.625807 -0.573203,1.137808 -0.910115,1.137808 -0.336919,0 -1.976362,1.408019 -3.643211,3.128956 -3.200576,3.304402 -3.576118,3.558221 -3.576118,2.416875 z m 21.618213,-0.301322 c 0,-0.557349 1.533625,-2.530989 3.408054,-4.385858 2.681753,-2.653768 3.555974,-3.224596 4.102119,-2.678451 0.546145,0.546143 -0.08573,1.480846 -2.964949,4.385882 -3.875129,3.909873 -4.545224,4.304751 -4.545224,2.678427 z m 16.498111,-1.105705 c 0,-0.947193 7.606009,-8.004689 8.328176,-7.727575 0.974811,0.374067 1.014701,1.313177 0.05582,1.313177 -0.395145,0 -0.971158,0.57601 -1.280026,1.280019 -0.308867,0.704011 -1.139922,1.533741 -1.846792,1.84384 -0.706869,0.310098 -1.415805,0.975255 -1.575411,1.478138 -0.376743,1.186917 -3.681757,2.813865 -3.681757,1.812401 z M -47.709254,61.63265 c 0,-0.976632 6.243466,-6.741508 7.301186,-6.741508 0.558684,0 -0.512215,1.440016 -2.749982,3.69787 -3.651546,3.684282 -4.551204,4.285944 -4.551204,3.043638 z m -22.187113,-0.395418 c 0,-0.628388 1.722601,-2.095602 2.986726,-2.543892 0.547568,-0.194162 0.995575,-0.693969 0.995575,-1.110631 0,-0.869122 24.216997,-24.499195 25.393603,-24.778159 1.67491,-0.397115 0.635153,1.568165 -2.086437,3.943614 -1.574237,1.374026 -6.969655,6.530317 -11.989815,11.458409 -5.020165,4.928092 -9.364263,8.960185 -9.653557,8.960185 -0.289295,0 -0.525992,0.349984 -0.525992,0.77774 0,0.427778 -1.018531,1.451798 -2.263404,2.275616 -2.43668,1.612502 -2.856699,1.762046 -2.856699,1.017118 z m 38.116322,-0.990758 c 0,-0.70917 7.04821,-7.630925 7.770331,-7.630925 1.429757,0 0.76652,1.120843 -2.689061,4.544372 -2.984014,2.956339 -5.08127,4.230296 -5.08127,3.086553 z M -4.4728293,55.48715 c 0,-0.706225 5.578785,-6.285003 6.284995,-6.285003 1.087926,0 0.479016,0.954225 -2.46280902,3.85952 -2.97450778,2.937547 -3.82218598,3.475478 -3.82218598,2.425483 z M -47.709254,54.533224 c 0,-1.193777 5.565574,-7.037779 6.70247,-7.037779 1.862819,0 -0.289536,2.808989 -5.422445,7.076698 -1.253257,1.041995 -1.280025,1.041179 -1.280025,-0.03893 z m -19.522298,-1.748177 c -0.175627,-0.284167 1.497265,-2.358591 3.71753,-4.609824 3.773949,-3.826601 4.995663,-4.719783 4.995663,-3.652265 0,0.824033 -8.392095,8.781657 -8.713193,8.262089 z m 58.7764212,-0.619938 c 0,-1.289589 4.5531325,-5.807472 5.8527624,-5.807472 1.5421051,0 1.1793851,0.689432 -2.0305775,3.85952 -3.2581078,3.217651 -3.8221849,3.505109 -3.8221849,1.947952 z m -22.4220962,-0.0385 c -0.355118,-0.574592 11.263645,-12.595852 12.174119,-12.595852 1.398199,0 0.805536,1.189821 -1.873292,3.760742 -7.721575,7.410576 -9.98266,9.349925 -10.300827,8.83511 z m 17.301994,-2.562235 c 0,-0.42653 1.301182,-1.99261 2.891509,-3.480165 2.1397544,-2.00149 3.0577022,-2.538495 3.5307374,-2.065457 0.4730353,0.473038 -0.088292,1.377832 -2.1590001,3.480165 -2.7847833,2.827307 -4.2632463,3.543595 -4.2632463,2.065457 z m -35.271822,-1.29181 c 0,-1.039653 9.719422,-11.016677 10.732225,-11.016677 1.53977,0 0.310934,1.778173 -4.627235,6.695815 -2.900157,2.888093 -5.460209,5.251092 -5.689004,5.251092 -0.228795,0 -0.415986,-0.418595 -0.415986,-0.93023 z m 30.419966,-0.233784 c -0.522506,-0.845426 4.758994,-6.231678 6.110496,-6.231678 0.559326,0 1.01696,0.205772 1.01696,0.457299 0,0.597254 -3.610412,4.093889 -4.227106,4.093889 -0.261302,0 -0.930169,0.524728 -1.486376,1.16604 -0.692933,0.798962 -1.138051,0.960913 -1.413974,0.51445 z m -20.179759,-2.778584 c 0,-0.609918 1.161278,-2.064189 2.61214,-3.271189 1.436679,-1.195175 4.768404,-4.285105 7.403834,-6.866497 2.63543,-2.58137 4.916032,-4.693422 5.068015,-4.693422 0.151974,0 0.276319,0.477489 0.276319,1.061067 0,0.933026 -14.074941,14.868135 -15.017324,14.868135 -0.188635,0 -0.342984,-0.494132 -0.342984,-1.098094 z m 7.395705,0.17825 c 0,-0.873186 4.126683,-5.33798 4.93373,-5.33798 0.209685,0 0.850969,-0.425112 1.42509,-0.94468 0.574122,-0.519589 1.219962,-0.768579 1.435192,-0.553347 0.404455,0.404448 -6.563117,7.755916 -7.350902,7.755916 -0.243712,0 -0.44311,-0.413952 -0.44311,-0.919909 z M -47.378684,32.77938 c -0.168015,-0.271848 1.241836,-1.970141 3.132998,-3.774009 2.577078,-2.458122 3.601202,-3.117022 4.088066,-2.630158 0.486865,0.486865 -0.123402,1.432317 -2.436008,3.77403 -2.987836,3.025424 -4.146987,3.662542 -4.785056,2.630137 z m 16.531431,-2.175956 c -0.497571,-0.497572 5.885827,-7.001076 6.871782,-7.001076 1.450719,0 0.669936,1.519378 -2.275686,4.428414 -2.93304,2.896607 -3.791573,3.377171 -4.596096,2.572662 z m -16.526924,-4.580022 c -0.401143,-0.401158 1.891723,-2.989947 2.648157,-2.989947 0.280121,0 0.427494,0.548145 0.327511,1.218095 -0.178142,1.193626 -2.294007,2.4535 -2.975668,1.771852 z m 17.095734,-1.109081 c -0.640686,-0.640688 -0.390203,-1.311973 0.48955,-1.311973 0.469342,0 0.85335,0.240906 0.85335,0.535329 0,0.717364 -0.888389,1.231147 -1.3429,0.776644 z"
         id="path104"
         inkscape:connector-curvature="0" />
    </g>
  </g>
</svg>
