<?xml version="1.0" encoding="UTF-8" standalone="no"?>
<!-- Created with Inkscape (http://www.inkscape.org/) -->

<svg
   xmlns:dc="http://purl.org/dc/elements/1.1/"
   xmlns:cc="http://creativecommons.org/ns#"
   xmlns:rdf="http://www.w3.org/1999/02/22-rdf-syntax-ns#"
   xmlns:svg="http://www.w3.org/2000/svg"
   xmlns="http://www.w3.org/2000/svg"
   xmlns:sodipodi="http://sodipodi.sourceforge.net/DTD/sodipodi-0.dtd"
   xmlns:inkscape="http://www.inkscape.org/namespaces/inkscape"
   width="209.99997mm"
   height="186.82465mm"
   viewBox="0 0 209.99997 186.82465"
   version="1.1"
   id="svg8"
   inkscape:version="0.92.3 (2405546, 2018-03-11)"
   sodipodi:docname="assassin.svg">
  <defs
     id="defs2" />
  <sodipodi:namedview
     id="base"
     pagecolor="#ffffff"
     bordercolor="#666666"
     borderopacity="1.0"
     inkscape:pageopacity="0.0"
     inkscape:pageshadow="2"
     inkscape:zoom="0.7"
     inkscape:cx="131.93424"
     inkscape:cy="342.80009"
     inkscape:document-units="mm"
     inkscape:current-layer="layer1"
     showgrid="false"
     fit-margin-top="0"
     fit-margin-left="0"
     fit-margin-right="0"
     fit-margin-bottom="0"
     inkscape:window-width="1920"
     inkscape:window-height="1017"
     inkscape:window-x="-8"
     inkscape:window-y="-8"
     inkscape:window-maximized="1" />
  <metadata
     id="metadata5">
    <rdf:RDF>
      <cc:Work
         rdf:about="">
        <dc:format>image/svg+xml</dc:format>
        <dc:type
           rdf:resource="http://purl.org/dc/dcmitype/StillImage" />
        <dc:title></dc:title>
      </cc:Work>
    </rdf:RDF>
  </metadata>
  <g
     inkscape:label="Layer 1"
     inkscape:groupmode="layer"
     id="layer1"
     transform="translate(-17.365238,1.3666814)">
    <path
       style="fill:#000000;stroke-width:0.53862661"
       d="m 177.42379,183.92102 c -0.18955,-0.94775 -0.66281,-1.61588 -1.14458,-1.61588 -0.45178,0 -0.82141,-0.27206 -0.82141,-0.60458 0,-0.43468 -0.21359,-0.42733 -0.75999,0.026 -0.43584,0.36172 -0.89021,0.42002 -1.06531,0.1366 -0.39831,-0.64448 -4.43727,-1.39632 -6.61075,-1.23059 -1.14844,0.0875 -1.87194,-0.17161 -2.22121,-0.79569 -0.38668,-0.69096 -0.93291,-0.8426 -2.15484,-0.59821 -1.10525,0.22104 -1.84847,0.0725 -2.28842,-0.45772 -0.35836,-0.43176 -1.02696,-0.78505 -1.48579,-0.78505 -0.45883,0 -1.27294,-0.39703 -1.80914,-0.88227 -0.73727,-0.66722 -1.15256,-0.73485 -1.70374,-0.27739 -1.31413,1.09061 -6.06032,0.37439 -7.92687,-1.19619 -0.92458,-0.77801 -2.16008,-1.41453 -2.74556,-1.41453 -0.58548,0 -1.94047,-0.59523 -3.0111,-1.32275 -1.07062,-0.72752 -2.13856,-1.20411 -2.37318,-1.0591 -0.82883,0.51224 -5.98717,-1.56818 -7.64686,-3.08407 -1.00621,-0.91904 -2.28476,-1.53624 -3.18236,-1.53624 -1.39773,0 -1.45402,-0.0829 -0.82255,-1.2119 0.37281,-0.66655 0.79903,-1.3331 0.94715,-1.48122 0.31134,-0.31135 2.16984,-3.74644 4.46828,-8.25877 1.48473,-2.91485 1.55305,-3.29967 0.9457,-5.32683 -0.73235,-2.44433 -0.34258,-7.7571 0.76175,-10.38329 0.37372,-0.88873 1.25002,-3.55493 1.94733,-5.9249 0.69731,-2.36994 1.42412,-4.4302 1.61514,-4.57833 0.54154,-0.41991 2.11391,-9.68011 2.11268,-12.44224 -0.001,-1.89708 -0.37974,-3.00038 -1.61697,-4.70831 -0.88873,-1.22687 -1.61588,-2.35108 -1.61588,-2.49824 0,-0.88338 -4.14333,-6.20529 -4.83109,-6.20529 -0.45767,0 -2.16179,1.09072 -3.78694,2.42383 -1.62514,1.3331 -3.22994,2.42381 -3.56621,2.42381 -0.33627,0 -0.95265,0.51395 -1.36973,1.14212 -0.63203,0.95188 -1.54458,1.21376 -5.47901,1.57236 -2.59637,0.23666 -5.01149,0.65889 -5.36692,0.93832 -0.35543,0.27943 -2.10053,0.95169 -3.878,1.49392 -1.77747,0.54222 -4.32248,1.51619 -5.65558,2.16441 -1.3331,0.64821 -3.393347,1.4791 -4.578325,1.84643 -1.184977,0.36733 -2.384768,0.88097 -2.6662,1.14143 -0.650786,0.60227 -5.397265,0.61824 -6.632417,0.0224 -0.51441,-0.2482 -1.659235,-0.80105 -2.544057,-1.22858 -0.97609,-0.4716 -1.79535,-1.40622 -2.08321,-2.37652 -0.260937,-0.87956 -0.71898,-2.06922 -1.017869,-2.64365 -0.727174,-1.39756 -0.639882,-15.366359 0.100648,-16.106885 0.751217,-0.751214 0.780728,-17.051478 0.03088,-17.051478 -0.326504,0 -0.538626,-2.33782 -0.538626,-5.936239 0,-5.617339 -1.173,-12.085704 -2.755982,-15.197537 -0.26168,-0.514415 -0.475778,-1.52875 -0.475778,-2.254109 0,-0.72534 -0.246068,-1.96601 -0.54681,-2.757022 -0.507607,-1.335109 -0.633107,-1.383397 -1.750534,-0.673713 -0.662054,0.420485 -3.142786,1.325215 -5.512742,2.010531 -2.369958,0.685296 -4.551395,1.417679 -4.847639,1.627504 -0.296245,0.209826 -1.99292,0.793578 -3.770388,1.297224 -1.777468,0.503645 -4.080096,1.347119 -5.116952,1.87438 -1.036857,0.527281 -2.975913,1.266911 -4.309014,1.643647 -1.3331,0.376737 -3.150965,1.024229 -4.0397,1.438872 -0.888733,0.414642 -2.685673,1.123817 -3.993197,1.575938 -1.307524,0.452121 -2.640626,1.020931 -2.962446,1.264041 -0.32182,0.243109 -2.281802,0.985956 -4.355515,1.650793 -2.073713,0.664836 -4.497533,1.529564 -5.386266,1.921609 -0.888735,0.392046 -3.191364,1.138129 -5.116953,1.65798 -1.92559,0.519829 -3.743455,1.124896 -4.0397,1.344595 -0.607368,0.450431 -6.086712,2.125246 -6.952968,2.125246 -0.309781,0 0.724895,-0.84834 2.299282,-1.88519 1.574385,-1.03685 2.972116,-1.88519 3.106069,-1.88519 0.133952,0 1.503256,-0.848339 3.042899,-1.88521 1.539645,-1.03685 2.986427,-1.88519 3.215076,-1.88519 0.47151,0 -0.658261,2.191469 -1.478598,2.868093 -0.682609,0.563028 3.581879,-0.12357 4.309013,-0.693724 0.296243,-0.23232 2.114109,-0.968388 4.0397,-1.635729 1.92559,-0.667361 3.746399,-1.40695 4.046241,-1.643566 0.299842,-0.236616 1.996515,-0.954443 3.770386,-1.595197 1.773871,-0.640733 3.952364,-1.477082 4.841099,-1.858542 0.888733,-0.381459 3.07017,-1.132754 4.847638,-1.669542 1.777468,-0.536788 3.352952,-1.117242 3.501074,-1.289895 0.440063,-0.512928 3.221618,-1.638537 4.049082,-1.638537 0.421648,0 2.046324,-0.570622 3.610382,-1.268051 1.564064,-0.69743 4.055664,-1.590678 5.536887,-1.985024 1.481223,-0.394325 3.333707,-1.102015 4.116633,-1.57262 l 1.423498,-0.855668 -1.195477,-1.333684 c -0.657512,-0.733523 -1.956307,-2.037586 -2.886219,-2.897937 l -1.690749,-1.564273 -3.533057,1.739307 c -1.943181,0.956622 -3.799699,1.650447 -4.125589,1.54182 -0.325896,-0.10871 0.467916,-0.665488 1.764018,-1.237434 1.296108,-0.571965 2.477747,-1.168197 2.625871,-1.32497 0.148121,-0.156753 0.875268,-0.599204 1.615879,-0.983168 0.740612,-0.383984 2.472898,-1.519141 3.849532,-2.522564 L 74.6236,41.793569 73.332549,39.24342 c -1.942584,-3.837091 -1.573214,-7.215222 0.78891,-7.215222 0.857435,0 3.96418,3.25678 4.833367,5.066809 0.297764,0.620071 1.438871,3.066437 2.535795,5.436401 1.096923,2.369964 2.309695,4.672585 2.695045,5.11695 0.385354,0.444364 1.219602,2.197047 1.853878,3.894805 1.263676,3.382507 2.569373,4.883387 1.953097,2.245091 -0.675417,-2.891504 -5.90073,-13.616774 -8.271005,-16.976746 -1.702674,-2.413631 -2.476589,-4.642843 -1.151976,-3.318239 0.445276,0.445281 1.397455,0.302758 3.635728,-0.544197 1.667853,-0.631105 3.113253,-1.338875 3.211999,-1.572804 0.09875,-0.233928 0.872187,-0.42533 1.718751,-0.42533 0.84656,0 1.689004,-0.242377 1.872094,-0.53862 0.448784,-0.726153 8.189086,-0.694049 8.640175,0.03583 0.569408,0.921321 -0.188084,1.259114 -1.109216,0.494647 -1.314938,-1.091307 -2.243319,0.118685 -1.441413,1.878716 0.796613,1.748388 2.797794,1.874421 2.797794,0.176297 0,-0.907153 0.148284,-1.036708 0.632413,-0.552565 0.484129,0.484123 1.041078,0.211616 2.375365,-1.162253 3.46012,-3.562774 9.15994,-2.920839 11.38241,1.281914 1.25664,2.376336 1.71344,7.004135 0.69136,7.004135 -0.29625,0 -0.53863,0.363586 -0.53863,0.80795 0,0.444365 -0.50551,1.313449 -1.12336,1.9313 -0.90989,0.909901 -1.65114,1.089006 -3.90077,0.942595 l -2.7774,-0.180775 -0.48478,2.289165 c -0.26663,1.259053 -0.69272,2.289165 -0.94687,2.289165 -0.62921,0 -0.58771,-2.89069 0.0506,-3.529061 0.64745,-0.647452 0.90186,-4.107338 0.36579,-4.974712 -0.22189,-0.359087 -0.73254,-0.652867 -1.13473,-0.652867 -0.4022,0 -0.81206,-0.210354 -0.91082,-0.467429 -0.0987,-0.257095 -0.70666,-0.631206 -1.35091,-0.831382 -0.944115,-0.293332 -1.20571,-0.124181 -1.348312,0.871405 -0.13151,0.918125 -0.487683,1.202398 -1.387098,1.107043 -0.665596,-0.07064 -1.21017,0.07369 -1.21017,0.320489 0,0.658261 1.861274,2.231634 2.639982,2.231634 0.421259,0 0.25555,0.526833 -0.446382,1.419206 -0.613991,0.780549 -1.116346,1.750077 -1.116346,2.1545 0,0.404423 -0.242383,0.735294 -0.538626,0.735294 -0.296245,0 -0.538628,0.451917 -0.538628,1.004278 0,0.552341 -0.745481,1.82485 -1.656626,2.827785 -1.943915,2.139761 -3.191014,4.740193 -3.191014,6.653863 0,1.066287 -0.271818,1.363874 -1.245794,1.363874 -0.685186,0 -1.942444,0.727131 -2.793906,1.61588 -0.85146,0.888729 -2.048122,1.623249 -2.659247,1.632247 -1.026057,0.01425 -1.037654,0.05924 -0.15148,0.574938 0.527812,0.307216 1.61853,0.481619 2.42382,0.387608 l 1.464165,-0.171004 -0.182363,3.23176 c -0.100302,1.777478 -0.403281,3.462024 -0.673283,3.743467 -0.71172,0.741829 -0.61445,5.143883 0.113656,5.143883 0.44057,0 0.444043,0.193397 0.01283,0.713023 -0.338911,0.408352 -0.391199,0.926207 -0.12237,1.211905 0.258165,0.274399 0.592232,4.74058 0.742375,9.924852 0.370735,12.80127 0.96567,15.684412 3.805063,18.439942 l 2.210232,2.14495 -1.548578,1.23479 c -1.150388,0.91729 -1.46856,1.5408 -1.237382,2.42483 0.22624,0.86513 0.04019,1.26088 -0.681399,1.4496 -1.633156,0.42708 -1.766567,2.28953 -0.206495,2.88267 2.743285,1.04299 6.066407,0.24602 7.855003,-1.88383 0.798325,-0.95066 0.932324,-0.97871 0.942597,-0.19747 0.02365,1.79934 1.129186,1.53586 3.455126,-0.82348 1.30132,-1.32 2.61626,-2.84717 2.92211,-3.39368 0.30585,-0.54652 0.73836,-0.81142 0.96114,-0.58862 0.22278,0.22277 -0.0348,0.72666 -0.57235,1.11972 -0.53756,0.39309 -0.86177,1.05713 -0.72047,1.47566 0.17557,0.52001 1.34482,-0.30502 3.69251,-2.60544 1.88957,-1.85154 3.68577,-3.36795 3.99155,-3.36982 0.30578,-0.002 0.98562,-0.75822 1.51075,-1.68078 0.82807,-1.45473 1.16979,-1.63437 2.57469,-1.35337 1.35291,0.27057 1.71756,0.10952 2.2125,-0.97666 0.5033,-1.104617 0.29234,-1.894551 -1.39981,-5.241392 -2.93424,-5.803508 -6.87761,-9.439996 -8.09705,-7.466902 -0.17456,0.282461 -1.04575,1.032188 -1.93598,1.666081 l -1.61858,1.152543 1.09624,-1.95178 c 0.60294,-1.073473 1.09625,-2.542759 1.09625,-3.265065 0,-3.162585 8.14949,-12.327693 12.79238,-14.386634 1.25905,-0.558326 2.28917,-1.201991 2.28917,-1.430342 0,-0.22835 1.75727,-0.965538 3.90504,-1.638191 2.14778,-0.672654 4.38981,-1.434678 4.9823,-1.693382 0.59249,-0.258703 2.46647,-0.859169 4.1644,-1.334375 1.69793,-0.475207 3.22404,-1.085505 3.39135,-1.35622 0.47888,-0.774828 -0.89655,-4.969765 -2.05727,-6.2745 -0.81716,-0.918553 -0.97084,-1.610953 -0.6899,-3.108475 0.31859,-1.698205 0.0583,-2.378493 -2.19478,-5.736674 -2.50916,-3.739823 -2.56031,-3.90077 -2.7782,-8.741305 -0.16856,-3.74477 -0.45317,-5.190522 -1.18284,-6.008589 -0.89749,-1.006192 -1.66013,-5.723218 -1.64805,-10.19345 0.002,-0.866478 -0.47408,-2.349382 -1.0587,-3.295336 -1.12738,-1.824138 -1.43331,-5.339987 -0.51409,-5.908085 0.30187,-0.186678 1.17493,-1.594586 1.94013,-3.128901 1.90663,-3.8230409 5.29555,-7.2159653 8.75452,-8.7648608 1.59215,-0.7129497 3.22822,-1.29627064 3.63573,-1.29627064 0.4075,0 0.74092,-0.19211413 0.74092,-0.42691193 0,-0.69692215 4.64081,-1.72759403 7.77884,-1.72759403 3.46604,0 11.22246,1.02107533 11.60898,1.52823669 0.14963,0.19632814 1.70523,0.84171921 3.45688,1.43420921 1.75166,0.59249 3.44834,1.5407484 3.77039,2.1072419 0.32205,0.5664954 0.99583,1.4615372 1.49728,1.9889807 0.50145,0.5274436 1.22168,2.0030051 1.60051,3.2790241 0.37884,1.2760188 1.59581,3.5238198 2.70438,4.9951198 2.26392,3.004672 3.13209,6.144965 3.13209,11.329197 0,3.522221 -0.87009,8.727197 -1.62071,9.695279 -0.69668,0.898542 -2.6883,8.573152 -2.6883,10.359282 0,1.589252 -1.37497,4.885383 -2.33071,5.58727 -0.24503,0.179961 -0.17509,1.331445 0.15541,2.558882 0.43381,1.611035 0.88228,2.231696 1.61254,2.231696 0.55639,0 1.10088,0.267844 1.21001,0.595193 0.33935,1.018061 4.26587,2.056458 9.19944,2.432829 2.60135,0.198486 4.8577,0.567873 5.01409,0.820918 0.15634,0.253044 1.54255,0.466004 3.08034,0.473251 4.10037,0.01832 11.68333,1.805022 11.68333,2.751302 0,0.240667 1.27251,2.026349 2.82781,3.968174 1.55528,1.941844 3.19953,4.190579 3.65391,4.997166 0.45436,0.806606 2.6066,4.132744 4.78274,7.391437 3.66261,5.484607 3.97744,6.181221 4.23659,9.374383 0.23692,2.919252 0.12887,3.559965 -0.70276,4.168085 -0.78859,0.576627 -0.87261,0.959268 -0.42533,1.936776 0.30656,0.669987 0.98396,3.036042 1.50532,5.257885 0.52135,2.221824 1.49947,5.251594 2.17361,6.732834 0.67412,1.48121 1.53907,4.02623 1.92212,5.65557 0.38305,1.62935 0.86784,3.20482 1.07736,3.50109 1.00721,1.42423 2.33792,10.11833 2.30837,15.08154 -0.033,5.53059 -1.29279,13.24168 -2.65096,16.22583 -0.42128,0.9256 -1.12861,3.40692 -1.57185,5.51405 -0.44325,2.10712 -1.04013,4.25841 -1.3264,4.7806 -0.48817,0.89054 -1.97034,6.29469 -2.55017,9.29818 -0.1429,0.74061 -0.46763,1.83133 -0.72145,2.42383 -0.25381,0.59249 -1.0032,3.0163 -1.66528,5.38626 -0.66207,2.36997 -1.37768,4.5514 -1.59023,4.84764 -0.21256,0.29625 -0.55491,1.32638 -0.76076,2.28917 -0.20588,0.96279 -0.61376,1.75052 -0.90644,1.75052 -0.29268,0 -0.40752,-0.42417 -0.25525,-0.94259 0.15228,-0.51843 0.43977,-1.91212 0.6388,-3.0971 0.1991,-1.18497 0.67308,-2.88165 1.0534,-3.77038 0.38034,-0.88875 1.21254,-3.91852 1.84938,-6.73285 0.63683,-2.8143 1.36842,-5.6017 1.62574,-6.19419 0.25734,-0.5925 0.98689,-3.3799 1.62121,-6.19421 0.63432,-2.81432 1.37053,-5.52159 1.63603,-6.01612 0.26549,-0.49454 0.99824,-2.91837 1.62834,-5.38628 0.63009,-2.4679 1.34769,-4.73056 1.59465,-5.02815 0.71805,-0.86525 1.66008,-8.9633 1.34893,-11.59606 -0.41364,-3.49997 -0.81279,-5.49438 -1.34384,-6.71481 -1.02122,-2.34682 -2.70027,-7.87442 -2.70027,-8.88949 0,-0.59131 -0.22108,-1.0751 -0.49128,-1.0751 -0.27021,0 -0.65525,-1.03014 -0.85565,-2.28917 -0.43905,-2.75834 -1.87001,-8.00456 -2.38739,-8.75268 -0.20488,-0.29625 -0.94589,-2.418562 -1.6467,-4.716256 -0.70081,-2.297695 -1.69371,-4.55726 -2.20644,-5.02127 -2.03864,-1.844943 -8.69,3.790738 -10.53891,8.929592 -0.96173,2.673004 -0.92684,4.352444 0.0824,3.965164 0.67693,-0.25977 0.80795,0.3929 0.80795,4.02481 0,2.38417 0.24237,4.48466 0.53862,4.66776 0.29624,0.18301 0.53864,1.39498 0.53864,2.69312 0,1.29813 0.24237,2.51004 0.53862,2.69314 0.29624,0.18301 0.54629,0.74274 0.55564,1.2437 0.0183,0.93702 2.31054,3.87325 3.02478,3.87325 0.22019,0 1.11753,-0.66655 1.99412,-1.48122 1.30409,-1.21201 1.51863,-1.28542 1.18027,-0.40397 -0.22743,0.59248 -0.53548,1.5014 -0.68454,2.01985 -0.14902,0.51843 -0.54573,0.94996 -0.88148,0.95896 -0.33576,0.008 -0.16592,0.27485 0.37745,0.59076 0.70429,0.40947 0.89463,0.94597 0.663,1.86882 -0.17874,0.71194 -0.10056,1.29444 0.17365,1.29444 0.61203,0 0.13843,2.12817 -0.71907,3.23176 -0.65667,0.84506 -1.91338,3.57663 -1.91338,4.15894 0,0.18586 0.62569,-0.24977 1.39042,-0.96796 l 1.3904,-1.3058 -0.3961,1.61588 c -0.21785,0.88873 -0.62481,1.76602 -0.90436,1.9495 -0.27957,0.18343 -0.51153,1.03183 -0.5155,1.88519 -0.0102,1.98444 -2.09291,10.06931 -2.7022,10.48461 -0.25418,0.17324 -0.69325,3.44541 -0.97571,7.27147 -0.85813,11.62385 -1.67449,19.31603 -2.11018,19.88349 -0.22746,0.29625 -0.55088,1.43364 -0.71873,2.52756 -0.16774,1.09391 -0.81285,3.13662 -1.43335,4.53936 -1.34083,3.03118 -2.30091,2.63406 -2.3334,-0.96515 -0.0336,-3.72215 0.81379,-11.75736 1.23993,-11.75736 0.68074,0 1.24169,-10.69084 1.11847,-21.31595 -0.09,-7.75584 0.0871,-11.16361 0.72245,-13.90306 1.07675,-4.64289 1.05653,-6.28788 -0.12887,-10.48141 -0.78458,-2.77575 -1.08636,-3.27345 -1.60556,-2.64786 -1.20182,1.44811 -1.80832,13.7437 -1.52134,30.84293 0.26706,15.91234 -0.10667,22.72161 -1.33162,24.26491 -0.2468,0.31094 -0.61018,1.57498 -0.80751,2.80898 -0.23991,1.50029 -0.77682,2.51753 -1.62056,3.07038 -1.68015,1.10088 -1.8383,1.05617 -1.8383,-0.51981 0,-1.06856 -0.27143,-1.34657 -1.31478,-1.34657 -0.72314,0 -1.46458,0.24238 -1.64767,0.53862 -0.18302,0.29625 -1.84774,0.53864 -3.69923,0.53864 -2.12604,0 -3.75155,0.29136 -4.41188,0.79081 -0.57505,0.43494 -1.40912,0.80001 -1.85349,0.81125 -0.44436,0.0122 -1.50219,0.38254 -2.35073,0.82507 -2.11136,1.10116 -2.31526,1.03956 -2.68542,-0.81125 z m 8.97078,-14.97797 c 0.35404,-0.2848 1.49204,-0.6869 2.5289,-0.89353 5.03865,-1.00422 9.69527,-3.7294 9.69527,-5.67395 0,-0.54292 0.30299,-1.08858 0.67329,-1.21262 0.89836,-0.30086 0.84543,-13.64254 -0.0578,-14.54569 -0.7836,-0.7836 -0.85416,-14.73202 -0.0769,-15.21235 0.29625,-0.18302 0.53864,-1.51465 0.53864,-2.95901 0,-1.44439 0.37381,-4.39927 0.83067,-6.56639 0.89295,-4.23559 0.70228,-6.36409 -0.57007,-6.36409 -1.19857,0 -4.87748,-3.54274 -5.8861,-5.66824 -0.4887,-1.02988 -1.11958,-1.87252 -1.40192,-1.87252 -0.28234,0 -0.51336,-0.23173 -0.51336,-0.51493 0,-0.28321 -0.71461,-1.72691 -1.58803,-3.20822 -0.8734,-1.4813 -1.96411,-3.95979 -2.42381,-5.507736 -1.66724,-5.614244 -0.623,-14.410575 1.89761,-15.984722 0.86904,-0.542733 0.9348,-0.426125 0.67219,1.192076 l -0.29106,1.793622 2.24577,-0.126624 c 1.61561,-0.0912 2.68841,-0.550814 3.82337,-1.638172 2.97741,-2.852559 2.58097,-0.819594 -0.7813,4.006304 -1.46575,2.103789 -1.52218,2.375929 -0.91369,4.406858 0.43791,1.461631 1.07644,2.327295 1.96619,2.665576 0.72471,0.275519 1.31766,0.870529 1.31766,1.322243 0,0.451693 0.22276,0.821264 0.495,0.821264 0.73745,0 7.58862,-7.599512 8.25496,-9.15666 0.48602,-1.135707 0.61211,-1.194805 0.80536,-0.37747 0.12602,0.532981 -0.16978,1.577893 -0.65732,2.322002 -0.48756,0.744109 -0.76634,1.641123 -0.61948,1.99337 0.14963,0.358761 0.42826,0.110338 0.63365,-0.56484 0.20174,-0.662903 1.61166,-2.114274 3.13335,-3.225307 2.31217,-1.68817 3.18911,-2.014582 5.33787,-1.986876 1.75352,0.0226 2.39584,-0.142095 2.01983,-0.51816 -0.3032,-0.303206 -0.5513,-0.944407 -0.5513,-1.424865 0,-0.480479 -0.72039,-1.825685 -1.60089,-2.989383 -0.88049,-1.163699 -1.60764,-2.3173 -1.61588,-2.563544 -0.008,-0.246266 -1.46927,-2.4494 -3.24675,-4.895867 -1.77746,-2.446448 -3.23941,-4.668779 -3.24878,-4.938516 -0.0183,-0.549511 -1.6637,-2.420288 -4.14072,-4.710084 -1.32053,-1.2207 -2.71505,-1.732895 -6.96086,-2.556684 -2.92022,-0.56657 -6.65473,-1.030946 -8.29889,-1.031944 -1.64416,-0.0011 -3.21963,-0.214752 -3.50106,-0.475063 -0.28144,-0.260292 -2.02945,-0.636235 -3.88448,-0.835393 -2.55157,-0.273971 -3.42235,-0.191564 -3.57637,0.338607 -1.30349,4.486701 -2.2773,6.039351 -6.15056,9.806514 -4.77064,4.639972 -8.60892,7.3962 -11.67711,8.38519 -1.18498,0.381969 -2.39689,0.842843 -2.69314,1.024148 -0.29624,0.181385 -1.59178,0.602623 -2.87898,0.936263 -3.50757,0.909148 -5.89938,0.08998 -8.00115,-2.740003 l -1.72349,-2.320699 -8.95766,-0.395119 c -4.92671,-0.217317 -10.07986,-0.241319 -11.45144,-0.05334 -2.96444,0.406316 -5.95923,2.359419 -8.64667,5.6391 -1.86216,2.272513 -1.90765,2.420716 -0.9164,2.985414 3.6898,2.101997 8.3199,7.911022 8.36117,10.490079 0.01,0.626564 -0.12454,0.626564 -0.88293,0 -0.80869,-0.668115 -0.85993,-0.583773 -0.53266,0.876657 0.19916,0.888728 0.63764,3.130766 0.97439,4.982284 0.7465,4.10439 1.83216,4.59588 1.30061,0.588822 -0.41132,-3.100678 0.34515,-4.235835 1.89068,-2.837129 0.70585,0.638779 0.98892,0.659808 1.44595,0.107488 0.74908,-0.905402 4.97244,-9.385031 4.97244,-9.983645 0,-0.628254 2.11668,-4.976829 2.4225,-4.976829 0.13357,0 0.22426,1.878452 0.20154,4.174355 -0.0448,4.529248 0.69126,8.31966 2.2804,11.742882 0.55718,1.20024 1.22055,3.292916 1.47416,4.650416 0.49603,2.65514 1.69424,4.61944 4.36699,7.15906 1.46252,1.38969 2.24065,1.65374 5.83946,1.98154 6.74275,0.61417 12.60847,0.50572 15.67526,-0.28979 2.11231,-0.54792 5.02271,-0.66834 11.01773,-0.45584 4.73275,0.16774 7.69853,0.46394 7.07672,0.70675 -0.58873,0.2299 -1.96504,0.43504 -3.05848,0.45586 -1.09343,0.0208 -2.1175,0.24729 -2.27568,0.50324 -0.1582,0.25596 -3.26288,0.59792 -6.89928,0.75991 -6.20789,0.27652 -12.68272,1.49251 -13.32739,2.5029 -0.15753,0.24689 -1.34468,0.62583 -2.63813,0.84209 -4.51215,0.75439 -7.99282,5.64195 -7.51745,10.55602 0.165,1.70559 0.33239,1.8361 3.27099,2.55035 1.80949,0.4398 3.0971,1.04587 3.0971,1.45776 0,0.38775 0.30082,0.80526 0.66848,0.92782 0.48065,0.16021 0.40499,0.48632 -0.26932,1.16062 -1.07021,1.07022 -1.21418,2.24232 -0.34165,2.78157 0.42425,0.26221 0.40435,0.48696 -0.069,0.77951 -1.12313,0.69413 -0.0267,1.60878 1.92848,1.60878 2.24847,0 2.45778,0.98331 0.30112,1.41464 -1.3395,0.26789 -1.59282,0.61269 -1.84801,2.51524 -0.38483,2.86911 0.32627,4.14952 2.30452,4.14952 1.20715,0 1.59836,0.27379 1.73159,1.2119 0.11215,0.78973 0.60544,1.27333 1.41604,1.38823 1.93047,0.27362 1.3849,2.42881 -0.70529,2.78613 -1.14305,0.19543 -1.6651,0.62113 -1.78409,1.45489 -0.1409,0.9873 0.20887,1.27294 2.1545,1.75946 1.27749,0.31943 2.79791,0.85152 3.37869,1.18241 1.33914,0.76294 15.34184,0.69663 16.11477,-0.0763 0.72904,-0.72903 1.47781,-0.67015 2.63395,0.20716 0.89322,0.67778 0.85655,0.82594 -0.58674,2.371 -0.90456,0.96835 -2.84665,2.08933 -4.70882,2.71802 -3.11582,1.05189 -4.17015,2.00448 -3.01127,2.72072 0.55323,0.34191 -1.41859,1.58044 -3.95709,2.48551 -0.84304,0.30058 -0.90159,0.44325 -0.26931,0.65615 0.44437,0.14963 1.53509,0.59562 2.42382,0.99111 0.88873,0.3955 2.58541,0.82598 3.77039,0.95666 3.38316,0.37307 12.10976,-0.0529 12.82197,-0.62577 z m -0.54882,-83.860042 c 0.004,-1.481215 0.10871,-2.023235 0.23246,-1.204495 0.12378,0.81874 0.12052,2.030665 -0.008,2.69314 -0.12784,0.662475 -0.22914,-0.0081 -0.22509,-1.488645 z m 2.102,-11.715115 c 0.65571,-1.965093 1.51433,-3.156274 1.51433,-2.100837 0,0.743294 -1.50989,3.851362 -1.871,3.851362 -0.12519,0 0.0354,-0.787735 0.35667,-1.750525 z m 14.8651,23.160939 c 1.58556,-1.821511 0.13252,-0.918369 -2.01939,1.255185 -1.19674,1.20877 -2.33454,2.844843 -2.52843,3.635713 -0.28225,1.15145 0.054,0.90133 1.6874,-1.25516 1.12196,-1.481238 2.40913,-3.117312 2.86042,-3.635738 z m -46.7589,-19.878163 c 3.20543,-0.582572 6.90377,-2.65615 9.41808,-5.280523 0.86311,-0.900902 1.76009,-1.637988 1.99329,-1.637988 0.754,0 5.66345,-5.680996 6.83528,-7.909475 0.67523,-1.284093 0.012,-3.940304 -0.98398,-3.940304 -0.30357,0 -0.55195,-0.23173 -0.55195,-0.514924 0,-0.283214 -0.72715,-1.748163 -1.61588,-3.255477 -0.88874,-1.507292 -1.61588,-2.959762 -1.61588,-3.227708 0,-0.267946 -0.62061,-1.156818 -1.37912,-1.975272 -1.65956,-1.79069 -2.05488,-1.387061 -2.98069,3.043351 -0.36401,1.741913 -1.03397,3.248677 -1.63016,3.666271 -0.5567,0.389928 -1.01218,0.992878 -1.01218,1.339913 0,0.347015 -0.90893,1.511201 -2.01985,2.587077 -1.11092,1.075876 -2.98938,3.229154 -4.17436,4.785061 -1.18497,1.555907 -3.05455,3.468355 -4.1546,4.249861 -2.389,1.697229 -3.69438,4.232191 -2.54512,4.942465 0.409,0.25278 0.56791,0.635318 0.35314,0.850091 -0.21477,0.214772 -0.99549,-0.177925 -1.73494,-0.872545 -1.24724,-1.171719 -1.34391,-1.188087 -1.33709,-0.226539 0.0223,3.138258 1.93474,4.800797 4.82699,4.196199 0.73331,-0.153293 2.67236,-0.52209 4.30902,-0.819534 z m -9.31405,-8.096765 c -0.17194,-0.429666 -0.29957,-0.302045 -0.32541,0.325436 -0.0234,0.567792 0.10392,0.88592 0.28289,0.706936 0.17899,-0.178943 0.19812,-0.643543 0.0425,-1.032372 z m 5.1911,-9.151061 c 1.83057,-0.941211 3.81307,-1.95809 4.40555,-2.259728 5.73572,-2.920086 6.91907,-3.914023 8.0976,-6.801516 0.18136,-0.444365 0.67056,-1.593263 1.08709,-2.55308 0.86821,-2.000658 0.26729,-4.44906 -1.09195,-4.44906 -0.4517,0 -0.82128,-0.242397 -0.82128,-0.53864 0,-0.296243 0.36958,-0.53862 0.82128,-0.53862 1.08218,0 1.67853,-1.688495 2.14947,-6.08605 l 0.38651,-3.60923 h -1.37753 c -1.78562,0 -2.3097,0.897116 -1.22455,2.096196 1.5826,1.748754 0.78099,6.657568 -0.82493,5.051643 -0.32695,-0.326942 -0.21166,-0.765892 0.31624,-1.204006 1.15225,-0.956276 1.02948,-1.697982 -0.52511,-3.172581 -1.55807,-1.477896 -1.67676,-2.585469 -0.46279,-4.318649 0.64646,-0.92297 1.26301,-1.191446 2.36471,-1.029746 1.32316,0.194211 1.42195,0.10932 0.88116,-0.756588 -0.33499,-0.536401 -0.8928,-0.975289 -1.23957,-0.975289 -0.92515,0 -3.41939,3.150147 -3.41939,4.318568 0,0.552259 -0.22838,1.145274 -0.50751,1.317784 -0.27912,0.172429 -0.67067,1.401699 -0.87009,2.731555 -0.43318,2.888634 -1.07225,3.42593 -2.44367,2.054504 -0.79252,-0.792499 -1.01771,-1.79633 -1.01153,-4.509033 0.004,-1.919248 -0.0175,-4.034906 -0.0487,-4.701453 -0.0312,-0.666567 -0.0969,-2.89588 -0.14605,-4.954069 l -0.0894,-3.742144 -1.37604,1.318335 c -1.50813,1.444876 -2.66506,1.81009 -1.5756,0.497355 1.16954,-1.409211 0.0811,-1.570381 -2.36277,-0.349865 -2.78153,1.389178 -3.0343,1.419389 -3.0343,0.362893 0,-1.004115 -0.55053,-1.017327 -2.40039,-0.05761 -0.91058,0.472417 -1.18277,0.838995 -0.73486,0.989661 1.13433,0.381582 -0.51257,2.01613 -3.18599,3.162097 -1.26323,0.54149 -2.29679,1.221208 -2.29679,1.510509 0,0.869857 1.16806,1.31414 1.60334,0.609851 0.37793,-0.61152 1.88288,-1.612847 3.78293,-2.517027 0.44437,-0.211474 1.00177,-0.705735 1.23868,-1.098391 0.25927,-0.429728 1.3313,-0.689022 2.69313,-0.651421 1.24432,0.0344 1.79079,0.182403 1.21437,0.32912 -0.57642,0.146574 -1.96529,0.845673 -3.0864,1.553403 -1.1211,0.707709 -2.2573,1.286759 -2.52488,1.286759 -0.26758,0 -0.61328,0.484754 -0.76822,1.07726 -0.39253,1.501043 0.0909,1.351741 2.18016,-0.673285 1.47997,-1.434494 2.23828,-1.752886 4.2,-1.763574 1.31666,-0.0081 2.39393,0.174668 2.39393,0.403976 0,0.229348 -0.61115,0.417003 -1.35811,0.417003 -0.91113,0 -1.5521,0.425738 -1.94751,1.29358 -0.50225,1.1023 -0.34618,1.647129 1.05534,3.684165 l 1.64474,2.390546 -1.17845,1.181226 c -1.012,1.014376 -1.06433,1.254798 -0.37051,1.702114 1.42297,0.917413 -0.49947,1.668016 -3.68531,1.438912 -3.0218,-0.217316 -3.6624,-0.704147 -4.20431,-3.195096 -0.17579,-0.808031 -0.65397,-1.746636 -1.06263,-2.085813 -0.61468,-0.51014 -0.74303,-0.153903 -0.74303,2.062056 0,2.93397 -0.87938,6.03595 -1.95017,6.87916 -0.3762,0.296243 -0.85375,1.241097 -1.06122,2.099656 l -0.37721,1.561017 2.77811,-0.368533 c 3.85083,-0.510832 4.38087,-0.791216 4.38087,-2.317401 0,-0.833539 0.25254,-1.245515 0.67329,-1.098391 1.63519,0.571762 0.17267,2.76771 -3.59672,5.400408 -0.76207,0.532269 -1.38558,1.198815 -1.38558,1.481236 0,0.814159 5.59538,0.596191 7.74431,-0.301699 2.4574,-1.026774 2.46421,-0.465618 0.0268,2.206656 -1.05832,1.160278 -1.54308,1.510285 -1.07725,0.777821 0.46583,-0.732465 0.84325,-1.580784 0.83871,-1.88519 -0.004,-0.304386 -0.21636,-0.224992 -0.47072,0.1765 -0.27819,0.43903 -1.89561,0.844899 -4.05896,1.018549 -3.27676,0.263039 -3.58207,0.389684 -3.43432,1.424661 0.129,0.903712 0.65768,1.201991 2.58598,1.459025 l 2.42382,0.323074 -3.0971,0.08082 c -3.46708,0.09059 -3.8804,0.548452 -1.46153,1.619157 1.9775,0.875314 5.25198,0.94628 6.06679,0.13151 1.16008,-1.160075 1.48649,-0.555496 1.13414,2.100654 -0.44151,3.328255 0.0449,3.427722 4.80194,0.981844 z m 3.65779,-12.475978 c -0.0523,-3.202974 0.0981,-3.816082 1.15173,-4.69506 1.46693,-1.223773 2.64117,-1.350438 2.21464,-0.238916 -0.17052,0.444364 -0.61816,0.80793 -0.99475,0.80793 -0.41611,0 -1.00378,1.531905 -1.49808,3.905045 l -0.81337,3.905045 z M 89.27754,41.184939 c 0,-0.296243 -0.302977,-0.562784 -0.673283,-0.592303 -0.370306,-0.02952 -0.06732,-0.221164 0.673283,-0.425859 1.180648,-0.326311 1.366372,-0.71056 1.507303,-3.118471 0.14293,-2.44205 -0.0016,-2.873833 -1.303007,-3.897675 -0.80506,-0.633262 -1.725727,-1.058816 -2.045931,-0.94571 -0.679154,0.239934 -0.472924,3.021223 0.292405,3.943379 0.342858,0.413115 0.328848,0.752516 -0.04051,0.980785 -0.769892,0.475817 -0.714601,3.151959 0.08157,3.948142 0.786507,0.786493 1.508153,0.838039 1.508153,0.107691 z m -3.058257,-2.334135 c 0.703127,-5.129856 -1.565428,-7.276152 -4.773736,-4.516484 -1.494176,1.285253 -1.467632,2.541619 0.0537,2.541619 0.490986,0 0.77615,0.554112 0.77615,1.508148 0,1.806528 0.872726,2.800852 2.458334,2.800852 0.966546,0 1.22027,-0.398642 1.485555,-2.334135 z m 7.678305,0.805304 c -1.150146,-0.224463 -1.617775,0.183218 -1.124959,0.980521 0.266447,0.431132 0.609348,0.403242 1.215066,-0.09873 0.760283,-0.630148 0.751358,-0.717482 -0.0901,-0.881706 z m 15.611362,0.415212 c 0.74392,-0.822017 1.01259,-1.962467 1.02607,-4.355557 0.0157,-2.769196 -0.16715,-3.392239 -1.25331,-4.272641 -1.52483,-1.235988 -4.52492,-1.350988 -5.47206,-0.209744 -0.83563,1.006884 -0.73455,1.113944 1.62669,1.72292 2.88588,0.744312 3.93374,3.862721 2.44827,7.286046 -0.55977,1.290017 0.3929,1.189715 1.62434,-0.171003 z M 94.017454,38.384087 c 0.920189,-0.920202 0.800055,-4.819404 -0.192135,-6.235943 -0.461165,-0.658404 -1.337775,-1.197105 -1.948017,-1.197105 -0.903574,0 -1.03934,0.224951 -0.731408,1.211905 0.207964,0.666547 0.623898,2.484414 0.924295,4.03971 0.567502,2.938204 0.861328,3.267365 1.947258,2.181433 z m 4.41674,-0.969528 c 0,-0.592486 -0.242383,-1.07726 -0.538628,-1.07726 -0.296245,0 -0.538626,0.484774 -0.538626,1.07726 0,0.592486 0.242381,1.07726 0.538626,1.07726 0.296245,0 0.538628,-0.484774 0.538628,-1.07726 z m 39.043946,-0.213856 c 1.20199,-1.202011 1.22819,-1.345471 0.37948,-2.078546 -1.10413,-0.95371 -3.02248,-1.470486 -3.74185,-1.008004 -0.82904,0.533002 -1.31162,2.635081 -0.69276,3.017558 0.31898,0.197061 0.56054,-0.131509 0.56054,-0.762614 0,-0.749951 0.34879,-1.109038 1.07725,-1.109038 1.11513,0 1.4864,1.299443 0.53863,1.88519 -0.29624,0.183014 -0.53863,0.560973 -0.53863,0.839728 0,0.896262 1.09064,0.542427 2.41734,-0.784274 z m 11.84712,-1.391927 c 0.79035,-0.873318 0.84245,-1.215732 0.28685,-1.885189 -1.13207,-1.364058 -3.43841,-1.004401 -4.72585,0.736963 -1.37152,1.855081 -1.12887,2.215389 1.49199,2.215389 1.29095,0 2.31775,-0.37183 2.94701,-1.067163 z m -3.77582,-0.03359 c -0.42981,-0.695454 0.7662,-2.229293 1.42218,-1.823873 0.26268,0.16225 0.4776,0.765627 0.4776,1.340626 0,1.103929 -1.3102,1.437202 -1.89978,0.483247 z m -8.94493,-6.652539 c -0.67845,-1.489032 -2.54345,-2.293583 -4.01111,-1.730391 -1.42283,0.545989 -0.52113,1.673695 1.33826,1.673695 1.12778,0 1.93783,0.347157 2.29365,0.982984 0.82252,1.469754 1.12937,0.720148 0.3792,-0.926288 z m 32.38977,-1.117039 c 0,-0.462157 0.31809,-0.668989 0.76508,-0.497457 0.49524,0.19014 0.85107,-0.148406 1.00888,-0.959491 l 0.24379,-1.253109 0.40051,1.211925 c 0.62975,1.905548 1.35213,1.418941 1.35213,-0.910817 0,-1.167484 0.24238,-2.272512 0.53862,-2.455608 0.82497,-0.509855 0.63996,-3.285076 -0.26931,-4.03969 -0.66278,-0.55006 -0.80794,-0.510485 -0.80794,0.220269 0,0.489925 -0.42417,1.047294 -0.9426,1.238573 -0.51842,0.191158 -1.12438,0.607836 -1.34656,0.925678 -0.27661,0.39571 -0.55023,0.35129 -0.86787,-0.140874 -0.35452,-0.549348 -0.53273,-0.455622 -0.75582,0.397481 -0.32454,1.241036 -2.63423,2.347347 -3.89256,1.864486 -1.41251,-0.54204 -0.88699,0.545806 1.40388,2.90606 2.3347,2.405406 3.16977,2.798633 3.16977,1.492594 z m -26.12339,-4.595247 c 0.20105,-0.325293 -0.53304,-0.53862 -1.85341,-0.53862 -1.20246,0 -2.18629,0.242377 -2.18629,0.53862 0,0.296243 0.83403,0.53864 1.8534,0.53864 1.01938,0 2.00321,-0.242397 2.1863,-0.53864 z m 32.89196,-4.722136 c -0.68908,-0.689062 -0.94495,0.490169 -0.52246,2.40787 l 0.45053,2.044956 0.18849,-2.073884 c 0.10366,-1.140633 0.0512,-2.211155 -0.11657,-2.378942 z m -29.24882,-6.968183 c -0.66248,-0.127845 -1.87439,-0.131102 -2.69314,-0.0081 -0.81874,0.123774 -0.27672,0.228412 1.20451,0.232463 1.48122,0.0041 2.1511,-0.09731 1.48863,-0.225114 z m 10.09184,-2.0193358 c 0,-0.4455574 -0.86993,-1.0242144 -2.01985,-1.3435632 -2.55902,-0.7106757 -4.44367,-0.7226887 -4.44367,-0.028317 0,0.296245 0.45706,0.5386259 1.01568,0.5386259 0.55863,0 1.70994,0.3620793 2.55848,0.8046217 1.95075,1.0173864 2.88936,1.0266874 2.88936,0.028643 z m 2.1545,-1.8027866 c 0,-0.9294786 -1.37317,-1.723606 -2.9804,-1.723606 -2.42844,0 -2.75468,0.6777433 -0.68687,1.426907 2.11981,0.7680046 3.66727,0.8932015 3.66727,0.296699 z m 6.46352,-2.1662176 c 0,-0.6908984 -5.2636,-2.8981955 -7.11251,-2.9826427 -2.75214,-0.1257078 -2.34897,1.0895927 0.4935,1.4875644 1.41862,0.1986285 3.18527,0.7072658 3.92588,1.130322 1.51739,0.8667712 2.69313,1.026014 2.69313,0.3647563 z m -60.28365,89.540337 c 0.0258,-0.62748 0.15347,-0.755102 0.32541,-0.325415 0.1556,0.388809 0.13646,0.853388 -0.0425,1.032372 -0.17899,0.178942 -0.30629,-0.139246 -0.2829,-0.706957 z m -0.82062,-3.755844 c -0.20274,-1.080701 -0.23181,-2.101754 -0.0646,-2.268971 0.16722,-0.167135 0.30405,-0.02117 0.30405,0.324357 0,0.34561 0.36357,0.628397 0.80794,0.628397 0.98873,0 0.99093,0.0627 0.0646,1.848322 l -0.74336,1.432825 z m -1.37641,-4.009357 c 0,-0.296243 0.24238,-0.53862 0.53862,-0.53862 0.29625,0 0.53863,0.242377 0.53863,0.53862 0,0.296243 -0.24238,0.53862 -0.53863,0.53862 -0.29624,0 -0.53862,-0.242377 -0.53862,-0.53862 z m -1.34657,-4.84764 c -0.20451,-0.931093 -0.25955,-1.805185 -0.12233,-1.942415 0.13723,-0.13721 0.40436,0.524777 0.59363,1.471117 0.18926,0.946341 0.24431,1.820433 0.12233,1.942415 -0.12201,0.121942 -0.38912,-0.540024 -0.59363,-1.471117 z M 99.303503,76.868963 C 98.119979,72.8923 97.283433,65.833791 97.606771,62.55244 c 0.362371,-3.677509 0.359582,-3.687891 -0.885756,-3.300467 -0.687098,0.213775 -1.330062,0.599021 -1.428809,0.856096 -0.09875,0.257095 -0.700543,0.467429 -1.337319,0.467429 -1.173301,0 -0.933882,-0.250438 5.713277,-5.976486 0.826806,-0.712229 1.846286,-2.264491 2.265516,-3.449484 0.5348,-1.511628 0.76929,-1.791138 0.78589,-0.936711 0.013,0.669763 -0.48528,2.366442 -1.1073,3.77038 -3.590952,8.10507 -4.001103,10.59205 -2.859448,17.338356 0.478726,2.828904 1.087638,5.224234 1.353148,5.322988 0.63805,0.237308 0.62244,1.167017 -0.0195,1.167017 -0.276281,0 -0.62857,-0.42417 -0.782864,-0.942595 z M 30.028611,66.519351 c 0,-0.691953 2.14981,-1.819068 2.603761,-1.365116 0.196348,0.196451 -0.113127,0.700748 -0.687705,1.120887 -1.216265,0.88936 -1.916056,0.978546 -1.916056,0.244229 z m 3.528005,-2.118039 c 0.750532,-0.708748 10.050953,-5.788138 12.379843,-6.761209 3.048923,-1.273934 2.996855,-0.940233 -0.105737,0.677581 -5.610927,2.925786 -8.034067,4.248762 -9.877225,5.392733 -1.913196,1.187456 -3.366254,1.606292 -2.396889,0.690895 z m 16.818168,-9.214089 c 0.969956,-0.591386 1.979881,-1.075245 2.244279,-1.075245 0.264398,0 0.561516,-0.181792 0.660264,-0.403954 0.09875,-0.222182 1.512643,-0.976959 3.14199,-1.677279 1.629344,-0.700319 3.386613,-1.490111 3.905043,-1.755105 0.518427,-0.264994 0.938071,-0.297953 0.932544,-0.07329 -0.0055,0.224707 -2.611138,1.681228 -5.790237,3.236748 -5.862486,2.868459 -8.307864,3.707678 -5.093883,1.748102 z"
       id="path21"
       inkscape:connector-curvature="0" />
  </g>
</svg>
