<?xml version="1.0" encoding="UTF-8" standalone="no"?>
<!-- Created with Inkscape (http://www.inkscape.org/) -->

<svg
   xmlns:dc="http://purl.org/dc/elements/1.1/"
   xmlns:cc="http://creativecommons.org/ns#"
   xmlns:rdf="http://www.w3.org/1999/02/22-rdf-syntax-ns#"
   xmlns:svg="http://www.w3.org/2000/svg"
   xmlns="http://www.w3.org/2000/svg"
   xmlns:sodipodi="http://sodipodi.sourceforge.net/DTD/sodipodi-0.dtd"
   xmlns:inkscape="http://www.inkscape.org/namespaces/inkscape"
   width="209.99991mm"
   height="236.48366mm"
   viewBox="0 0 209.99992 236.48367"
   version="1.1"
   id="svg8"
   inkscape:version="0.92.3 (2405546, 2018-03-11)"
   sodipodi:docname="assassin_amateur.svg">
  <defs
     id="defs2" />
  <sodipodi:namedview
     id="base"
     pagecolor="#ffffff"
     bordercolor="#666666"
     borderopacity="1.0"
     inkscape:pageopacity="0.0"
     inkscape:pageshadow="2"
     inkscape:zoom="0.7"
     inkscape:cx="3.8315461"
     inkscape:cy="347.55698"
     inkscape:document-units="mm"
     inkscape:current-layer="layer1"
     showgrid="false"
     fit-margin-top="0"
     fit-margin-left="0"
     fit-margin-right="0"
     fit-margin-bottom="0"
     inkscape:window-width="1920"
     inkscape:window-height="1017"
     inkscape:window-x="-8"
     inkscape:window-y="-8"
     inkscape:window-maximized="1" />
  <metadata
     id="metadata5">
    <rdf:RDF>
      <cc:Work
         rdf:about="">
        <dc:format>image/svg+xml</dc:format>
        <dc:type
           rdf:resource="http://purl.org/dc/dcmitype/StillImage" />
        <dc:title></dc:title>
      </cc:Work>
    </rdf:RDF>
  </metadata>
  <g
     inkscape:label="Layer 1"
     inkscape:groupmode="layer"
     id="layer1"
     transform="translate(-155.44151,397.50518)">
    <path
       style="fill:#000000;stroke-width:0.63637704"
       d="m 244.32673,-162.09345 c -2.48183,-1.95221 -2.33023,-4.85091 0.39172,-7.48911 1.15418,-1.11868 2.58602,-2.03398 3.18189,-2.03398 0.59584,0 1.08335,-0.28637 1.08335,-0.63637 0,-0.35001 1.07388,-0.63348 2.38642,-0.62995 3.00911,0.007 9.77923,-2.33925 11.78906,-4.08757 1.51305,-1.31618 1.52264,-1.40214 1.07412,-9.60095 -0.40949,-7.48541 -1.30848,-12.01857 -3.15507,-15.90945 -0.33224,-0.70001 -1.04952,-3.25749 -1.59398,-5.68328 -0.54444,-2.42579 -1.22312,-4.71675 -1.50819,-5.09102 -0.28504,-0.37425 -1.17934,-2.82826 -1.98732,-5.4533 -0.80798,-2.62506 -1.71236,-5.04489 -2.00974,-5.37739 -0.73207,-0.81859 -0.6909,-9.7277 0.0471,-10.18378 0.32324,-0.19987 1.04201,-1.72013 1.59725,-3.37854 0.55526,-1.65841 2.29538,-4.85601 3.86692,-7.10577 1.57158,-2.24976 2.85741,-4.35436 2.85741,-4.6769 0,-0.32256 1.02555,-2.248 2.27902,-4.27876 1.75342,-2.84079 2.41331,-4.7618 2.86131,-8.3298 0.32027,-2.55062 0.81442,-4.79824 1.09809,-4.9947 0.2837,-0.1965 0.91545,-1.34395 1.40392,-2.54999 0.4885,-1.20602 1.61772,-3.06837 2.5094,-4.13854 0.89168,-1.07018 1.97381,-2.51758 2.40472,-3.21644 6.20288,-10.05972 6.5659,-11.19036 4.73715,-14.75398 -0.68476,-1.33436 -3.04564,-6.1059 -5.24638,-10.60344 -2.20076,-4.49754 -4.45143,-8.33644 -5.0015,-8.53088 -0.55009,-0.19434 -3.14793,-1.89645 -5.77297,-3.78223 -12.08274,-8.68002 -15.65909,-11.16611 -16.54581,-11.50181 -0.52501,-0.19867 -1.68386,-0.95698 -2.57523,-1.68494 -0.89137,-0.72796 -2.75276,-1.89629 -4.13645,-2.5963 -1.38369,-0.70001 -2.65898,-1.41594 -2.83398,-1.59094 -1.33679,-1.33679 -18.40248,-9.54566 -19.84479,-9.54566 -0.39065,0 -2.24235,-0.71591 -4.11487,-1.59092 -1.8725,-0.87504 -4.93661,-2.30688 -6.80911,-3.1819 -1.8725,-0.87501 -3.70178,-1.59094 -4.06504,-1.59094 -0.36328,0 -2.05958,-0.9624 -3.76956,-2.13866 -1.70998,-1.17627 -3.74824,-2.34154 -4.52948,-2.58949 -3.36105,-1.06676 -7.1519,-5.79296 -7.13266,-8.89265 0.005,-0.85519 0.6002,-0.14551 1.65731,1.9772 0.90695,1.8212 2.40585,3.80718 3.33085,4.41326 2.0449,1.33987 9.78646,5.29275 10.39808,5.3093 0.44379,0.012 7.63898,3.28132 16.42433,7.46277 2.62506,1.24941 5.63195,2.62969 6.68197,3.06729 1.05001,0.4376 2.99272,1.25693 4.31712,1.82071 1.32441,0.56378 2.81364,1.02505 3.30937,1.02505 0.49574,0 1.13035,0.35797 1.41025,0.79548 0.86787,1.35656 5.39073,3.16833 6.11109,2.44797 0.43318,-0.43316 1.25122,-0.13133 2.50625,0.9247 1.02476,0.86227 2.1194,1.4094 2.43253,1.21588 0.31313,-0.19362 1.21958,0.007 2.01433,0.44434 0.79476,0.43789 1.9482,0.71915 2.56318,0.62504 0.64551,-0.0989 2.77578,1.39276 5.03975,3.52877 3.68484,3.47656 4.52274,3.63412 1.54303,0.29017 -1.29715,-1.45571 -1.29955,-1.49364 -0.0803,-1.26711 0.69121,0.12843 1.57817,0.87818 1.97099,1.6661 0.39284,0.78795 2.18984,2.86994 3.99334,4.62666 1.80352,1.75671 3.27911,3.35656 3.27911,3.5552 0,0.19867 1.75253,2.26647 3.89453,4.59519 2.14201,2.32872 4.34221,5.2363 4.8894,6.46134 2.83706,6.35174 4.9337,10.66468 5.87784,12.09116 0.57915,0.87501 1.38434,2.56775 1.7893,3.76162 0.40499,1.19387 1.45109,3.10774 2.32466,4.25308 2.12817,2.79018 2.00139,3.16279 -0.54137,1.5913 -2.31106,-1.42833 -2.96131,-1.23324 -2.96131,0.88846 0,0.75516 -1.60155,3.49955 -3.559,6.09859 -1.95746,2.59909 -3.81177,5.36991 -4.1207,6.15742 -0.30895,0.78754 -0.82176,1.43187 -1.13961,1.43187 -0.31785,0 -0.72199,0.50115 -0.89813,1.11366 -0.17606,0.61251 -0.53342,1.63282 -0.79405,2.26738 -0.33933,0.82624 0.64344,0.43159 3.46236,-1.39037 2.84459,-1.83854 4.91874,-2.66685 7.47908,-2.98674 3.90158,-0.48749 4.95812,-1.33506 6.42575,-5.15481 1.78788,-4.65337 1.6992,-7.29934 -0.39481,-11.77814 -1.05882,-2.2647 -2.12676,-4.95612 -2.3732,-5.98095 -0.60899,-2.53268 -1.94975,-5.09529 -3.37914,-6.45858 -0.65287,-0.62268 -1.40755,-1.84804 -1.67713,-2.72308 -0.26957,-0.87501 -1.16419,-2.65912 -1.98809,-3.96471 -0.82388,-1.30557 -1.49796,-2.54098 -1.49796,-2.74537 0,-0.20445 -0.71593,-1.93679 -1.59095,-3.84977 -0.87501,-1.91298 -1.59094,-3.74445 -1.59094,-4.06992 0,-0.32548 -0.69857,-1.24768 -1.55237,-2.04936 -1.38677,-1.30213 -1.62873,-2.29846 -2.26849,-9.34119 -0.39388,-4.33598 -0.62899,-8.89502 -0.52249,-10.13122 0.10655,-1.23618 -0.11809,-2.35155 -0.49927,-2.47859 -0.38113,-0.127 -1.88157,0.95768 -3.33436,2.41047 -1.68655,1.68653 -2.64144,2.28285 -2.64144,1.64954 0,-0.54553 0.28639,-1.16886 0.63639,-1.38516 0.99539,-0.6152 0.74557,-2.86371 -0.31818,-2.86371 -0.52504,0 -0.95458,-0.29536 -0.95458,-0.65636 0,-0.36099 0.42954,-0.82118 0.95458,-1.02264 1.45207,-0.55721 1.13944,-1.69969 -0.35797,-1.30809 -1.15332,0.30158 -1.26516,0.12771 -0.92213,-1.43418 0.34572,-1.57409 0.11376,-1.91964 -2.02846,-3.02099 -1.33036,-0.68396 -3.27795,-1.71957 -4.32797,-2.30134 -3.9783,-2.20423 -7.84039,-3.46482 -14.00031,-4.56975 -3.50008,-0.6278 -6.65013,-1.35413 -7.00013,-1.61406 -0.35003,-0.25993 -2.71257,-0.81765 -5.25013,-1.23938 -2.53754,-0.42173 -4.61374,-0.89394 -4.61374,-1.04936 0,-0.2867 5.49282,0.2321 8.11382,0.76637 2.59262,0.52844 1.49531,-0.76531 -2.22732,-2.6261 -3.66072,-1.82986 -9.85908,-6.07338 -9.4576,-6.47486 0.2042,-0.20396 5.40005,2.36939 7.38937,3.65985 0.525,0.34056 2.24323,1.18426 3.81826,1.87484 3.70678,1.62527 8.38663,4.26729 8.85805,5.0008 0.20324,0.31614 2.94674,1.17882 6.09681,1.91705 6.08459,1.4259 10.82588,3.59624 16.04031,7.34244 1.76167,1.26562 3.53065,2.30113 3.93112,2.30113 0.40046,0 1.25903,0.33156 1.90793,0.73681 1.39172,0.86914 3.12493,0.34921 3.68289,-1.10481 0.55671,-1.45074 -0.85459,-2.14424 -4.5618,-2.2416 -1.75003,-0.0459 -2.60915,-0.20829 -1.90913,-0.36073 0.70001,-0.15249 1.84548,-0.52782 2.54552,-0.83418 0.70001,-0.30635 3.13415,-0.85112 5.40918,-1.21063 2.27506,-0.35948 5.19794,-0.82063 6.49531,-1.02479 2.72642,-0.42901 4.95948,-2.8239 4.95948,-5.31887 0,-1.46327 0.10415,-1.53726 0.96006,-0.68144 0.85582,0.85582 0.82203,1.24575 -0.31125,3.59136 -1.31796,2.72786 -1.8022,3.02264 -6.05799,3.68792 -2.05388,0.32105 -4.16373,1.01822 -5.91024,1.95296 -0.44595,0.23859 4.40078,9.09424 5.11387,9.34364 0.57208,0.20011 0.4511,0.66742 -0.42954,1.65932 -0.92928,1.04665 -1.35038,1.18464 -1.74029,0.57025 -0.76396,-1.20375 -0.67653,1.87034 0.094,3.31038 0.66152,1.23611 3.08075,1.09627 3.95107,-0.22825 0.2437,-0.37093 0.67276,-0.42837 0.95458,-0.12772 0.28153,0.30029 0.15393,0.67382 -0.2836,0.83006 -0.4375,0.15634 -0.78708,0.90458 -0.77681,1.66291 0.0168,1.26161 0.17943,1.20215 1.90914,-0.69943 1.79618,-1.97462 1.89414,-2.00637 1.96428,-0.63639 0.0493,0.96458 0.16572,1.09586 0.35169,0.39657 0.17245,-0.64876 0.71836,-0.93012 1.43898,-0.74167 0.91566,0.23956 1.37941,-0.33707 2.19381,-2.72721 0.56799,-1.66698 1.03273,-3.11864 1.03273,-3.22594 0,-0.10727 -1.64663,-0.0897 -3.65918,0.0392 -2.01254,0.12892 -2.94325,0.10919 -2.06822,-0.0435 2.27867,-0.39762 6.61196,-2.47582 7.57041,-3.63068 0.44929,-0.54136 0.97298,-2.14801 1.16376,-3.57031 0.19073,-1.42227 0.60849,-2.74765 0.92826,-2.94529 0.33526,-0.20733 0.34575,-0.67211 0.0248,-1.09814 -0.30616,-0.40636 -1.09728,-2.97399 -1.75802,-5.70585 -0.66075,-2.73185 -1.59578,-5.29436 -2.07785,-5.69444 -0.48208,-0.40011 -1.88763,-0.65934 -3.12343,-0.57612 l -2.24691,0.15129 1.29813,-2.20016 c 1.60596,-2.7219 2.43698,-8.64529 1.46715,-10.45745 -1.06877,-1.99701 -3.00054,-2.31503 -4.91498,-0.80913 -1.82387,1.43465 -2.78593,1.24517 -2.78593,-0.54868 0,-0.63935 -0.42779,-1.9827 -0.95063,-2.98524 -1.33282,-2.55556 -1.22384,-3.07729 1.04076,-4.98284 l 1.99925,-1.68225 -1.84017,0.4282 c -1.01207,0.23547 -2.99624,1.0866 -4.40927,1.89131 -3.26293,1.85821 -9.53772,3.00937 -13.52235,2.4808 -2.82792,-0.37514 -3.17362,-0.27318 -4.15584,1.22586 -1.51708,2.31539 -1.34232,3.3505 0.83781,4.96235 2.56308,1.89496 2.40448,3.45584 -0.63637,6.26315 -1.40002,1.29248 -2.5455,1.98987 -2.5455,1.54974 0,-0.44012 0.85909,-1.52311 1.90913,-2.40667 2.32617,-1.95735 2.41415,-3.33546 0.31819,-4.98416 -1.09471,-0.86111 -1.59398,-1.88214 -1.60069,-3.27348 -0.012,-2.58538 -0.64291,-3.55025 -2.22686,-3.40815 -1.10589,0.0991 -1.28712,-0.33755 -1.45301,-3.50169 -0.16812,-3.2058 0.012,-3.83693 1.59095,-5.57483 1.73819,-1.9132 1.94675,-1.96741 8.78063,-2.28247 7.5273,-0.34702 13.43545,-1.29583 14.02674,-2.25257 0.2018,-0.32646 2.99886,-0.58406 6.21578,-0.57242 5.31126,0.0192 6.07732,0.18015 8.33348,1.75003 4.90118,3.41053 6.06614,6.37338 6.09135,15.49219 0.0216,8.01012 0.98473,8.37098 4.45078,1.66859 2.7179,-5.25574 4.80704,-8.11355 5.93121,-8.11355 0.32961,0 1.9802,-1.01368 3.66798,-2.25265 2.30219,-1.68994 3.9131,-2.33711 6.44906,-2.59081 l 3.38029,-0.33815 -1.50233,1.31805 c -1.6278,1.42812 -2.9923,1.77608 -2.24909,0.57353 0.31371,-0.5076 0.10655,-0.60886 -0.65087,-0.31819 -0.61104,0.23451 -1.39495,0.42635 -1.74199,0.42635 -1.53084,0 -0.01,2.13151 1.98487,2.78162 4.39128,1.43121 8.44116,8.85002 9.37628,17.176 0.20204,1.79858 0.64936,3.6281 0.99409,4.06561 0.41887,0.53153 0.37959,1.09338 -0.11833,1.69338 -0.53634,0.64623 -0.54897,1.01919 -0.045,1.33064 0.91263,0.56402 0.68592,13.57959 -0.26359,15.13215 -0.53234,0.87047 -0.4717,1.27156 0.26162,1.73062 0.78689,0.49258 0.81483,0.82298 0.15898,1.88106 -1.09619,1.76879 -1.02327,2.23797 0.79548,5.11907 0.87503,1.38612 1.59094,3.22494 1.59094,4.08625 0,0.86132 0.24875,1.71977 0.55279,1.90769 0.30404,0.18784 0.73436,1.47701 0.95626,2.86471 0.6698,4.18874 1.53707,3.52245 2.012,-1.5457 0.24666,-2.63218 0.70081,-4.94176 1.00923,-5.13237 0.72096,-0.44556 0.73885,-31.90511 0.0192,-32.35039 -0.29829,-0.18424 -0.70898,-2.32268 -0.91263,-4.75186 -0.20372,-2.42919 -0.65821,-4.94417 -1.01014,-5.58886 -0.3519,-0.64469 -0.79451,-1.88808 -0.98354,-2.7631 -0.47219,-2.18597 -5.27076,-7.61175 -7.6471,-8.64664 -1.07246,-0.46706 -1.57775,-0.86041 -1.12287,-0.87412 2.67802,-0.0806 8.75696,5.5806 10.22322,9.52076 0.45586,1.22502 1.11715,2.76592 1.46951,3.4242 0.81772,1.52764 1.75912,11.19098 1.78144,18.28588 0.0144,4.48717 0.24649,5.77391 1.27988,7.08768 1.20345,1.52992 1.20828,1.6194 0.10294,1.90843 -1.00465,0.26272 -1.1036,0.74011 -0.74034,3.57166 0.23066,1.79762 0.21574,4.77183 -0.0332,6.60938 -0.47255,3.48885 0.40441,5.57108 1.9453,4.61876 0.76613,-0.47351 0.59428,-6.4965 -0.2232,-7.81905 -0.22417,-0.36276 -0.14696,-1.33032 0.17173,-2.15016 0.52602,-1.35324 0.62179,-1.24007 1.03939,1.2281 0.433,2.55926 1.24827,3.85629 1.97017,3.13436 0.17606,-0.17606 0.0351,-0.84896 -0.31323,-1.49555 -0.34827,-0.64659 -1.04893,-2.54851 -1.55706,-4.22648 -0.88756,-2.93105 -0.87869,-3.00996 0.22585,-2.01036 3.59023,3.24912 4.13893,9.29116 1.23981,13.6523 -1.04703,1.57503 -1.90492,3.10676 -1.90641,3.40385 -10e-4,0.29706 -0.8169,1.30068 -1.81199,2.23025 -1.45353,1.35781 -1.89498,2.44782 -2.24525,5.54385 -0.46423,4.10311 0.24506,6.75304 2.62908,9.82249 1.66969,2.14975 2.98647,4.70793 2.16057,4.1975 -0.36552,-0.22585 -1.61115,-1.8764 -2.76808,-3.66775 -1.74303,-2.69886 -2.13835,-3.02332 -2.30685,-1.89338 -0.11185,0.74999 -0.45052,1.36363 -0.75259,1.36363 -0.59856,0 -0.61018,-0.0353 -2.302,-7.00015 -0.63767,-2.62507 -1.33614,-4.91602 -1.55218,-5.09103 -0.21598,-0.17509 -0.74058,-1.72169 -1.16568,-3.43711 -1.12126,-4.52462 -2.12103,-6.14883 -6.44898,-10.47678 -2.76617,-2.76615 -4.63867,-4.07622 -6.54355,-4.57802 -1.46768,-0.38666 -3.29268,-1.10261 -4.05553,-1.59106 -0.76289,-0.48845 -2.53237,-1.07123 -3.93218,-1.29509 -3.88979,-0.62198 -5.48329,1.29497 -6.03802,7.26365 -0.23547,2.53319 -0.68628,5.0986 -1.00187,5.70094 -0.31558,0.60233 -1.05574,2.527 -1.6448,4.27703 -0.58908,1.75005 -1.49156,4.12218 -2.00555,5.27146 -0.86179,1.92695 -1.10471,2.05763 -3.12184,1.67919 -1.20303,-0.2256 -2.18303,-0.16379 -2.17777,0.13782 0.012,0.68948 1.45768,4.78812 1.98896,5.63912 0.21864,0.35001 0.59207,1.63867 0.83011,2.86369 0.67396,3.46823 1.77408,5.96859 3.02585,6.87715 0.63011,0.45735 1.14567,1.11847 1.14567,1.46915 0,0.3507 0.89815,1.75527 1.99593,3.12128 1.75126,2.17921 2.05768,3.16121 2.49968,8.01063 0.27706,3.03982 0.73915,5.69976 1.02686,5.91101 1.20308,0.88329 2.91486,5.72771 3.22761,9.13425 0.18472,2.01253 0.51599,3.65915 0.73604,3.65915 0.49365,0 4.72356,-8.99149 5.75879,-12.24138 0.41655,-1.30766 1.02283,-2.54163 1.34732,-2.74218 1.18502,-0.73238 0.53246,-2.35719 -1.97345,-4.91359 -1.40983,-1.43826 -2.72178,-3.34876 -2.91542,-4.24557 -0.19362,-0.8968 -0.59158,-2.34647 -0.88434,-3.22148 -0.29277,-0.87502 -0.69905,-3.42304 -0.90289,-5.66226 -0.20372,-2.23922 -0.70105,-4.4695 -1.10493,-4.95612 -0.41993,-0.50601 -0.80827,-3.66695 -0.90705,-7.38347 l -0.1727,-6.49867 0.48319,5.40921 c 0.26575,2.97507 0.79985,5.98193 1.18689,6.68197 0.38702,0.70001 0.85734,2.01133 1.04516,2.91405 0.18785,0.90274 1.34781,2.90731 2.57775,4.45465 1.22998,1.54732 2.23911,3.06188 2.2425,3.36568 0.002,0.3038 0.79369,1.47667 1.75621,2.6064 0.96251,1.1297 2.07446,2.59937 2.47101,3.26588 0.69445,1.16732 0.78486,1.15339 2.45867,-0.37906 1.6549,-1.51511 1.61639,-1.34829 -0.80781,3.50008 -2.925,5.84994 -5.32491,11.11245 -6.5298,14.31847 -0.4604,1.22504 -1.30982,2.94325 -1.88763,3.81826 -0.57777,0.87504 -1.43689,2.59325 -1.90913,3.81826 -0.47221,1.22505 -1.38133,2.98746 -2.02022,3.91652 -0.63892,0.92903 -1.16165,2.2893 -1.16165,3.02279 0,1.19967 0.36846,1.33361 3.66859,1.33361 2.34197,0 4.47063,0.42493 5.8865,1.17509 1.21982,0.6463 2.96391,1.35726 3.87572,1.57993 0.91181,0.22272 3.05959,1.83428 4.77284,3.5814 3.21439,3.27793 4.06672,3.78298 4.07346,2.41377 0.002,-0.43751 0.40715,-1.56837 0.89995,-2.51301 1.06834,-2.04777 2.91439,-8.21673 2.91439,-9.73904 0,-0.59324 0.40256,-1.98102 0.89454,-3.08392 0.49199,-1.10294 1.41323,-3.43716 2.04722,-5.18719 0.63398,-1.75005 2.07994,-4.75694 3.21328,-6.68197 4.07865,-6.9279 5.29974,-9.53301 5.29974,-11.30636 0,-0.99164 0.35797,-2.18244 0.79548,-2.64621 0.63639,-0.67456 0.63639,-0.90154 0,-1.13487 -0.43751,-0.16043 -0.79548,-0.85438 -0.79548,-1.54215 0,-0.68774 -0.57599,-2.44263 -1.27997,-3.89972 -1.29064,-2.67129 -0.58307,-2.48316 1.01848,0.27078 4.06129,6.98363 3.61271,10.53477 -2.31787,18.3494 -0.92968,1.22502 -2.06631,3.22961 -2.52583,4.45463 -0.45953,1.22504 -1.12705,2.60712 -1.48341,3.0713 -0.45898,0.59791 -0.38149,1.01014 0.26575,1.4139 0.75291,0.46967 0.66947,0.74198 -0.47416,1.5477 -0.91289,0.64315 -1.63532,2.16991 -2.11105,4.46149 -0.39777,1.91603 -0.99031,3.64879 -1.31677,3.85056 -0.32646,0.2018 -0.59356,0.93844 -0.59356,1.63706 0,0.92858 0.94626,1.68872 3.51821,2.82614 1.93501,0.85574 3.79643,1.55592 4.13645,1.55592 0.77739,0 0.81551,-3.3548 0.0474,-4.16826 -0.314,-0.33252 -0.73996,-1.89324 -0.94659,-3.46826 -0.34568,-2.63471 -0.31862,-2.71103 0.33812,-0.95455 0.39263,1.05001 0.97375,2.23927 1.29141,2.64276 0.31765,0.40352 0.75227,3.2096 0.96583,6.23574 0.34375,4.87104 0.24211,5.69978 -0.8862,7.22593 -1.15053,1.55617 -1.30691,3.02084 -1.60771,15.05822 -0.31227,12.49655 0.0245,16.54816 1.45698,17.52018 0.25786,0.1751 0.96146,2.03641 1.56353,4.13645 0.60207,2.10005 1.30468,4.10462 1.56134,4.45465 0.25668,0.35001 1.12683,3.35687 1.93368,6.68195 0.80685,3.32507 1.81336,6.90469 2.23668,7.95471 1.21573,3.0156 2.42439,13.29792 1.96777,16.74013 -0.48639,3.66661 -0.0349,4.23155 3.90085,4.88069 1.48755,0.24533 2.70461,0.67622 2.70461,0.95751 0,0.28131 0.68401,0.68315 1.52004,0.89295 2.46504,0.6187 5.48011,4.53432 5.48011,7.11693 0,1.56233 -0.33175,2.32887 -1.11365,2.57328 -0.61251,0.19146 -1.8296,0.72183 -2.70461,1.17853 -3.96332,2.06869 -14.36629,2.93834 -19.174,1.60292 -1.2705,-0.35291 -3.38605,-1.49678 -4.70124,-2.54196 -1.31517,-1.04516 -2.82835,-1.9003 -3.36264,-1.9003 -0.53427,0 -2.04705,-0.47458 -3.36171,-1.05461 -2.27383,-1.00322 -2.41129,-1.23575 -2.82195,-4.77395 -0.2374,-2.04568 -0.67173,-3.86776 -0.96514,-4.04909 -0.81166,-0.50163 -2.3654,-3.85802 -2.86289,-6.18448 -0.24401,-1.14105 -0.65783,-2.361 -0.91961,-2.711 -0.26178,-0.35001 -0.98375,-2.78415 -1.60439,-5.40921 -0.62064,-2.62507 -1.34706,-5.05921 -1.61425,-5.40921 -0.2672,-0.35001 -0.9858,-2.64075 -1.59691,-5.09054 -0.6111,-2.4498 -1.62212,-5.45669 -2.24671,-6.68198 -0.6246,-1.22528 -1.61132,-4.66191 -2.1927,-7.63698 -0.58139,-2.97507 -1.31721,-5.90646 -1.63516,-6.51423 -0.31796,-0.60777 -0.57811,-3.22194 -0.57811,-5.80929 0,-4.58805 -0.0455,-4.72308 -1.84063,-5.46667 -1.339,-0.55462 -2.49105,-0.5828 -4.22727,-0.10342 -2.85979,0.78963 -4.10489,0.2518 -6.08447,-2.62827 l -1.42244,-2.06951 2.32324,2.18383 c 1.27776,1.20109 2.48765,2.01939 2.68863,1.81841 0.20108,-0.20108 -1.02086,-2.47236 -2.71519,-5.04751 -3.57305,-5.43055 -5.0148,-8.41437 -5.61716,-11.6252 -0.23715,-1.26415 -0.68507,-2.45535 -0.99542,-2.64717 -0.31032,-0.19169 -0.56861,-0.97613 -0.57397,-1.743 -0.005,-0.76685 -0.31439,-1.82385 -0.68671,-2.34885 -0.49216,-0.69393 -0.5893,0.39811 -0.35585,3.99968 0.24494,3.7787 0.70989,5.6176 1.95949,7.74984 1.77747,3.03306 2.1991,4.5195 0.71803,2.5315 -0.87396,-1.17307 -1.24256,-0.91537 -7.31834,5.11654 -6.14215,6.0978 -7.55843,8.44713 -5.76167,9.55759 0.35,0.21623 0.63639,0.8818 0.63639,1.47884 0,0.59704 0.52227,2.08358 1.16063,3.30343 0.63834,1.21982 1.52267,4.65202 1.96518,7.62709 0.44251,2.97505 1.02796,5.69558 1.30102,6.04558 0.27306,0.35001 0.8583,2.64096 1.30052,5.09103 0.44219,2.45003 1.36178,5.60011 2.04351,7.00013 2.86193,5.87748 3.9396,13.36796 2.44479,16.99315 -0.33151,0.80399 -0.78931,4.82662 -1.01735,8.93921 l -0.41459,7.47745 h -1.71907 c -0.94548,0 -2.00952,0.29045 -2.36451,0.64543 -0.35501,0.35499 -3.03416,0.68917 -5.9537,0.74263 -4.66104,0.0854 -5.4378,-0.0628 -6.37088,-1.21513 -0.96557,-1.19243 -1.37806,-1.25513 -4.51474,-0.68628 -1.89862,0.34433 -3.73843,0.84009 -4.08844,1.10166 -1.45863,1.09011 -8.00971,2.52431 -13.24851,2.90048 -3.0866,0.22152 -5.96977,0.54024 -6.40701,0.70802 -0.43727,0.16789 -1.56307,-0.29908 -2.5018,-1.0375 z m 101.38628,-11.11402 c 1.92503,-0.51671 4.741,-0.94286 6.2577,-0.94702 1.91988,-0.005 2.67764,-0.24923 2.49429,-0.80303 -0.33449,-1.01037 -10.66112,-1.4976 -10.66112,-0.50302 0,0.36417 -0.35796,0.66651 -0.79547,0.67187 -0.43751,0.005 -1.22504,0.29173 -1.75005,0.63637 -0.84849,0.55702 -0.84849,0.69626 0,1.25328 0.52501,0.34464 0.95458,0.62761 0.95458,0.62881 0,0.001 1.57502,-0.42057 3.50007,-0.93726 z m -60.78964,-3.83897 c 2.31539,-1.17465 3.72636,-2.49929 5.25053,-4.92925 1.90553,-3.03796 2.05022,-3.62313 1.68716,-6.82303 -0.21839,-1.92503 -0.64715,-3.81454 -0.9527,-4.19889 -0.30556,-0.38433 -1.14298,-3.05899 -1.86093,-5.94367 -0.71796,-2.88466 -1.54441,-5.72027 -1.83659,-6.30132 -0.92416,-1.83796 -2.02942,-6.61997 -2.6711,-11.5567 -0.34121,-2.62506 -1.0353,-5.67522 -1.54241,-6.77813 -0.50712,-1.10293 -0.92204,-2.41814 -0.92204,-2.92271 0,-0.50456 -0.7122,-2.1795 -1.5827,-3.7221 -0.87049,-1.54258 -1.74423,-3.23423 -1.94167,-3.75924 -0.19747,-0.52501 -0.77671,-1.81369 -1.28734,-2.86371 -0.88345,-1.8167 -0.82794,-1.795 1.1462,0.44831 1.67309,1.90122 2.29009,2.23376 3.18825,1.71842 0.61251,-0.35147 1.11365,-0.95119 1.11365,-1.33272 0,-0.38152 0.43383,-1.01163 0.96408,-1.40022 0.53025,-0.38861 1.10938,-1.84409 1.28696,-3.23444 0.1775,-1.39036 0.60288,-2.80789 0.94505,-3.15008 0.76562,-0.7656 0.82657,-1.84178 0.0782,-1.37921 -0.29923,0.18496 -0.58502,-0.44251 -0.63507,-1.3943 -0.24832,-4.72274 -0.24158,-5.78856 0.0558,-8.82349 0.22031,-2.24815 0.8735,-3.99909 2.0836,-5.58561 0.96944,-1.27103 1.60673,-2.46685 1.41621,-2.65737 -0.50225,-0.50225 -3.01295,1.78921 -3.01295,2.74983 0,0.44722 -0.28636,0.81312 -0.63637,0.81312 -0.35,0 -0.63637,-0.46733 -0.63637,-1.03854 0,-1.91221 -2.55863,-5.2053 -4.59627,-5.91563 -1.89578,-0.66087 -2.17248,-0.5499 -4.62071,1.85285 -1.4323,1.4057 -2.96028,2.55582 -3.39553,2.55582 -0.43524,0 -0.9679,0.50115 -1.18369,1.11366 -0.21575,0.61251 -1.02296,1.97277 -1.79378,3.02279 -0.7708,1.05002 -2.42962,3.81773 -3.68627,6.15044 -1.25662,2.33274 -3.30415,5.6602 -4.54999,7.39435 -1.24588,1.73415 -2.26523,3.47677 -2.26523,3.87248 0,0.3957 -0.21478,0.72055 -0.47729,0.72187 -0.83121,0.005 -2.66624,5.28233 -2.98594,8.5887 -0.16932,1.75002 -0.0274,4.32737 0.31499,5.72739 1.11452,4.55603 2.11218,7.61139 2.90912,8.90929 0.42986,0.70001 1.23978,3.56369 1.79986,6.36376 0.56008,2.80007 1.20061,5.52057 1.42343,6.04558 1.61831,3.81335 2.85634,10.26079 3.17708,16.54581 0.39315,7.70404 1.51215,10.8068 3.90502,10.82777 0.58869,0.005 1.78625,0.40665 2.66128,0.89219 0.89214,0.49504 3.54758,0.90902 6.04558,0.9425 3.58058,0.0481 5.0759,-0.25543 7.62089,-1.54657 z m -6.02995,-2.16906 c 0,-0.32934 0.27314,-0.76762 0.60696,-0.97396 0.33384,-0.20637 0.80244,-2.10282 1.04135,-4.2145 0.46337,-4.09563 1.3213,-4.28677 1.94658,-0.4337 0.28322,1.74536 0.0332,2.71143 -1.09735,4.24061 -1.44897,1.95984 -2.49754,2.53987 -2.49754,1.38155 z m -2.34637,-1.31031 c 0.2309,-0.87503 0.42377,-1.94891 0.42856,-2.38642 0.005,-0.4375 0.29504,-0.79547 0.64505,-0.79547 1.04516,0 0.72014,2.95734 -0.42854,3.89944 -0.95616,0.78419 -1.02204,0.71091 -0.64507,-0.71755 z m 8.06823,-5.21256 c -0.002,-2.55819 -0.13637,-6.22632 -0.29601,-8.15135 l -0.2905,-3.50008 0.9027,4.13645 c 1.05872,4.85153 1.23469,11.21121 0.32571,11.77297 -0.40191,0.24838 -0.63841,-1.32046 -0.6419,-4.25799 z m 53.1112,6.41019 c 0.3325,-0.30869 1.43391,-0.56126 2.44756,-0.56126 2.6294,0 8.45129,-1.79466 9.93076,-3.06127 1.13853,-0.97473 1.19637,-1.43189 0.61895,-4.89344 -0.35029,-2.10005 -0.89926,-4.39101 -1.21992,-5.09102 -0.32063,-0.70001 -1.0289,-3.42051 -1.57389,-6.04558 -0.54502,-2.62506 -1.15938,-5.56035 -1.36529,-6.52287 -0.20589,-0.96251 -0.58834,-1.75002 -0.84986,-1.75002 -0.26151,0 -0.65157,-1.10111 -0.86676,-2.44689 -0.4878,-3.0505 -2.18616,-8.80682 -3.221,-10.91703 -0.42909,-0.87504 -1.30117,-3.30918 -1.93795,-5.40921 -0.63675,-2.10006 -1.31319,-4.24783 -1.50315,-4.77284 -0.56155,-1.55191 -1.87462,-9.83962 -1.60654,-10.14005 0.13566,-0.15201 0.59065,0.63557 1.0113,1.75002 0.42064,1.11445 0.98841,2.02627 1.26169,2.02627 0.27326,0 0.51698,0.64433 0.54158,1.43184 0.0428,1.36625 0.0698,1.37354 0.59166,0.15898 0.68642,-1.59741 0.68642,-15.99338 0,-18.13675 l -0.50952,-1.59093 -0.0635,1.69045 c -0.0524,1.39642 -0.29764,1.62922 -1.40985,1.33835 -1.1907,-0.31137 -1.30254,-0.67254 -0.96675,-3.12229 0.20925,-1.52661 0.11857,-2.77022 -0.20228,-2.77022 -0.32006,0 -0.70124,0.78752 -0.84704,1.75003 -0.21334,1.40772 -0.28377,1.28323 -0.36047,-0.63637 -0.13108,-3.28245 -1.34424,-3.01985 -1.46994,0.31819 -0.089,2.36369 -0.13421,2.44239 -0.35941,0.62429 -0.29521,-2.3844 -1.44786,-2.16298 -1.44786,0.27814 0,0.89252 -0.61463,2.26137 -1.36582,3.04186 -1.14307,1.18764 -1.76576,1.34595 -3.81826,0.97062 -2.00496,-0.36665 -2.46591,-0.26084 -2.52626,0.57975 -0.0616,0.85599 -0.12267,0.84168 -0.36487,-0.0854 -0.15995,-0.61251 -0.52953,-1.11366 -0.82102,-1.11366 -0.29151,0 -0.7257,-1.42294 -0.96489,-3.1621 -0.57239,-4.16168 -2.94065,-6.52914 -7.66515,-7.66252 -1.91474,-0.45935 -3.67657,-0.63991 -3.91519,-0.40129 -0.2386,0.2386 0.52445,1.23392 1.69574,2.21176 2.0724,1.73013 2.11944,1.8762 1.75164,5.43997 -0.39227,3.80061 -1.24799,5.48331 -2.7885,5.48331 -0.69164,0 -0.74708,-0.28393 -0.24028,-1.23091 1.09624,-2.04835 0.70405,-3.03323 -0.46014,-1.15551 -0.59676,0.96252 -1.42482,1.75005 -1.84015,1.75005 -0.41531,0 -1.27969,0.18544 -1.92082,0.41184 -0.95376,0.33697 -1.02108,0.25597 -0.37023,-0.44546 1.05441,-1.13641 1.00653,-1.87551 -0.12147,-1.87551 -1.46936,0 -1.78524,1.15815 -0.8798,3.22576 0.62783,1.43368 1.16624,1.84739 2.115,1.62515 1.21467,-0.28456 1.21847,-0.26409 0.0837,0.44826 -3.40536,2.13756 -3.89958,2.78092 -2.98385,3.88431 0.48224,0.58105 1.26045,0.90924 1.72939,0.72928 0.53742,-0.20612 0.85262,0.14335 0.85262,0.94559 0,1.83639 1.52502,2.1553 4.61501,0.96501 l 2.70333,-1.04131 -1.59095,1.27678 c -1.4615,1.1729 -1.4874,1.27774 -0.31818,1.28857 0.70001,0.007 2.27503,-0.56896 3.50005,-1.27868 l 2.22734,-1.29047 -1.75005,1.47584 c -1.91904,1.61834 -2.28843,3.01896 -0.79619,3.01896 2.1084,0 7.20734,-6.27241 8.79446,-10.81842 0.35393,-1.01377 0.65489,3.50883 0.4415,6.63442 -0.15225,2.22958 -4.02959,7.43901 -4.34998,5.84441 -0.11329,-0.56323 -0.69378,-1.02404 -1.29025,-1.02404 -1.40625,0 -3.9132,1.76104 -3.9132,2.74888 0,0.42217 -0.64433,1.05026 -1.43184,1.39577 -1.06599,0.46767 -1.4836,1.25939 -1.63436,3.09845 -0.11136,1.35866 0.10342,2.77619 0.47729,3.15008 0.37389,0.37386 0.67978,1.8972 0.67978,3.38515 0,2.99626 1.41292,9.04449 2.80211,11.99495 0.49439,1.05002 1.38571,3.19779 1.98071,4.77282 0.595,1.57502 1.4495,3.57962 1.89889,4.45463 0.44939,0.87504 1.30449,3.45236 1.90018,5.72739 0.59572,2.27506 1.34223,4.7092 1.6589,5.40921 0.31667,0.70001 0.9983,3.52543 1.51475,6.27869 0.51644,2.75327 1.23594,5.36371 1.59886,5.80102 0.74734,0.90046 9.4378,0.58377 10.47793,-0.38185 z m -8.72817,-3.20294 c -0.60712,-1.27791 -1.10279,-3.71207 -1.10149,-5.40921 l 0.002,-3.08571 1.27038,2.08361 c 0.69871,1.14598 1.27038,2.492 1.27038,2.99118 0,0.49915 0.35794,1.13656 0.79545,1.41645 1.1119,0.71134 2.52674,3.3726 1.79301,3.3726 -0.33233,0 -0.78121,-0.28636 -0.99754,-0.63637 -0.61236,-0.99085 -1.47554,-0.75035 -1.71318,0.47729 -0.15369,0.7942 -0.5322,0.44713 -1.3194,-1.20984 z m -13.84698,-61.60331 c 0.3832,-0.716 0.97302,-1.30184 1.31072,-1.30184 1.04147,0 0.6804,0.92512 -0.69672,1.78515 -1.21054,0.75598 -1.25747,0.71906 -0.614,-0.48331 z m -5.07544,6.69042 c 0,-0.50435 -0.29892,-1.10173 -0.66425,-1.32753 -0.82166,-0.50781 -2.63386,0.90525 -2.15489,1.68028 0.56994,0.92215 2.81914,0.64072 2.81914,-0.35275 z m -3.18189,-2.58305 c 0,-0.52503 -0.42955,-0.95458 -0.95456,-0.95458 -0.99376,0 -1.26256,0.75264 -0.53032,1.48488 0.73224,0.73224 1.48488,0.46344 1.48488,-0.5303 z m -2.5455,-2.54552 c 0,-0.87502 -0.28637,-1.59095 -0.63637,-1.59095 -0.35001,0 -0.6364,0.71593 -0.6364,1.59095 0,0.87501 0.28639,1.59094 0.6364,1.59094 0.35,0 0.63637,-0.71593 0.63637,-1.59094 z m -0.65876,-2.82186 c 1.15827,-2.16425 0.83612,-3.36308 -0.77309,-2.87689 -2.08468,0.62983 -2.56563,1.2679 -2.08856,2.77099 0.53129,1.67395 1.99349,1.72807 2.86165,0.10583 z m -0.2958,-4.48775 c 0,-1.1329 -2.09909,-1.66428 -3.00314,-0.76024 -0.35231,0.35234 -0.43806,0.96831 -0.19049,1.36883 0.6326,1.02356 3.19368,0.53549 3.19368,-0.60859 z m -4.44823,-2.56462 c 0.21984,-0.35571 0.67884,-0.47424 1.02,-0.2634 0.78977,0.48812 2.57525,-0.95611 2.1109,-1.70745 -0.19169,-0.31035 -0.87393,-0.56426 -1.51585,-0.56426 -0.6419,0 -1.33193,-0.42957 -1.53342,-0.95458 -0.70848,-1.84631 -1.679,-0.92668 -1.679,1.59095 0,2.42322 0.734,3.2957 1.59737,1.89874 z m 13.03931,-4.79793 c 0,-0.50548 -0.42295,-0.91908 -0.9399,-0.91908 -1.33578,0 -3.10753,2.94251 -2.58351,4.29062 0.38481,0.98991 0.61246,0.91321 1.97913,-0.66693 0.84935,-0.98205 1.54428,-2.19911 1.54428,-2.70461 z m -7.14598,2.1435 c -0.39333,-1.18 -1.76331,-1.37571 -1.76331,-0.2519 0,0.55416 0.45343,1.00759 1.00762,1.00759 0.55418,0 0.89423,-0.34008 0.75569,-0.75569 z m -2.24682,-2.90347 c 1.56523,-1.64648 1.61177,-1.87245 0.78614,-3.81826 -0.48266,-1.13755 -1.12157,-2.06824 -1.41982,-2.06824 -0.29824,0 -1.51054,0.99903 -2.694,2.22003 l -2.15174,2.22003 1.50145,1.59823 c 1.86786,1.98824 1.94631,1.98526 3.97797,-0.15177 z m -2.29142,-1.23702 c -0.71668,-0.71671 -0.43647,-1.46759 0.54762,-1.46759 0.52501,0 0.95458,0.26946 0.95458,0.5988 0,0.80248 -0.99376,1.3772 -1.5022,0.86879 z m 7.54465,0.43649 c -0.21455,-0.34724 -0.65965,-0.63134 -0.989,-0.63134 -0.69255,0 -0.81231,2.11993 -0.15682,2.77544 0.5975,0.59748 1.63747,-1.34857 1.14579,-2.1441 z m -10.16024,-3.19634 c 1.15277,-1.20323 1.59545,-2.1841 1.31522,-2.91434 -0.36093,-0.94056 -0.78956,-0.74213 -2.94635,1.36392 -1.38819,1.35552 -2.524,2.80923 -2.524,3.23045 0,1.21881 2.24911,0.30945 4.15513,-1.68003 z m 6.72296,-3.35726 c -0.50382,-0.50382 -0.69604,-0.3387 -0.69604,0.59791 0,1.68242 0.88992,2.57544 1.17333,1.17739 0.12026,-0.59358 -0.0945,-1.39246 -0.47729,-1.7753 z m -1.09379,-8.15757 c 0.98861,-4.94308 -0.0524,-15.19351 -1.54313,-15.19351 -0.25666,0 -0.64635,-0.71593 -0.86595,-1.59094 -0.45612,-1.81725 -1.1449,-2.00914 -2.2842,-0.63637 -0.43572,0.52501 -1.1867,0.95455 -1.66885,0.95455 -1.04814,0 -1.06392,0.25474 -0.20685,3.341 0.74172,2.67074 0.92858,2.78802 2.28351,1.43309 1.09682,-1.09679 2.99736,-0.40462 3.66481,1.33468 0.42237,1.10069 -1.40592,2.95056 -2.34347,2.37112 -1.11608,-0.68979 -2.30659,1.32693 -2.71555,4.60007 -0.58278,4.66444 -0.2131,5.37499 2.79598,5.37499 2.27516,0 2.51967,-0.16861 2.88367,-1.98868 z m 3.37796,0.59659 c -0.20324,-0.50764 -0.35395,-0.35686 -0.38447,0.3845 -0.0277,0.67083 0.12267,1.04669 0.33423,0.83523 0.21142,-0.21142 0.23403,-0.76033 0.0503,-1.21973 z m -10.94933,-3.69894 c 0.51532,-3.25169 0.44648,-5.18437 -0.32186,-9.0358 -0.53759,-2.69465 -1.183,-5.10493 -1.43425,-5.35617 -0.25125,-0.25125 -0.45682,-1.51596 -0.45682,-2.81044 0,-2.76627 -2.02858,-5.70716 -3.9367,-5.70716 -1.18559,0 -1.26001,0.25892 -0.85346,2.9699 0.24495,1.63347 0.85671,3.5977 1.35945,4.36498 0.50276,0.76729 0.74486,1.83599 0.53806,2.37493 -0.20684,0.53893 -0.07,1.1689 0.30376,1.39997 0.37386,0.23114 0.67976,0.88182 0.67976,1.44613 0,0.56429 0.46348,1.5381 1.02995,2.16406 1.29138,1.42696 1.27462,5.20291 -0.037,8.32826 -1.47549,3.51583 -1.31295,4.4377 0.74033,4.19915 1.60816,-0.18688 1.78057,-0.4999 2.3888,-4.33781 z m -4.12206,-0.95455 c 0,-0.52501 -0.28637,-0.95458 -0.63637,-0.95458 -0.35001,0 -0.63637,0.42957 -0.63637,0.95458 0,0.52501 0.28636,0.95455 0.63637,0.95455 0.35,0 0.63637,-0.42954 0.63637,-0.95455 z m 9.54565,-6.00804 c 0,-1.4537 -1.0033,-2.26108 -1.60335,-1.2902 -0.53459,0.86494 0.088,2.5254 0.94702,2.5254 0.361,0 0.65633,-0.55582 0.65633,-1.2352 z m 1.96301,-9.14749 c -0.82414,-0.82417 -0.9566,0.71085 -0.21863,2.53503 0.41516,1.02638 0.49768,0.9858 0.69024,-0.33954 0.12026,-0.82789 -0.0919,-1.81586 -0.47154,-2.19549 z m -3.97847,-3.52322 c 0.32331,-2.28408 -0.44061,-4.54901 -1.53428,-4.54901 -0.53901,0 -0.82915,-0.24408 -0.64477,-0.54242 0.48814,-0.78982 -1.82122,-6.76912 -3.3796,-8.75026 -0.73433,-0.93355 -1.33515,-2.45415 -1.33515,-3.37909 0,-0.92495 -0.4161,-2.27576 -0.92466,-3.00182 -0.50855,-0.72608 -1.47152,-3.42561 -2.13993,-5.99897 -0.66841,-2.57337 -1.55061,-4.79061 -1.96046,-4.92723 -1.16061,-0.38687 -2.61147,1.14681 -2.61147,2.76053 0,0.803 -0.32969,1.56988 -0.73258,1.70418 -0.86025,0.28675 -1.60067,7.4984 -0.76988,7.4984 0.31034,0 0.84694,-0.64265 1.19245,-1.42814 0.82231,-1.86947 2.59329,-2.16004 3.44666,-0.56549 0.88261,1.64915 0.23114,3.26639 -1.31558,3.26639 -2.54502,0 -2.16297,2.71398 1.01096,7.18211 1.22386,1.7229 1.27339,1.73509 1.75524,0.4325 0.76791,-2.07586 3.30947,-1.43987 3.57628,0.89491 0.11497,1.00516 -0.0998,2.1363 -0.47729,2.51368 -0.99527,0.99527 -0.84098,2.34072 0.26844,2.34072 0.52501,0 0.95456,0.4097 0.95456,0.91044 0,0.50074 0.64433,1.92833 1.43186,3.17244 1.6702,2.63856 3.84739,2.88081 4.1892,0.46613 z m -12.57266,-9.6594 c -1.07671,-1.7499 -1.95766,-3.59265 -1.95766,-4.09503 0,-0.50235 -0.35953,-1.1424 -0.79897,-1.42229 -1.23088,-0.784 -2.38293,-4.71959 -2.38293,-8.14049 0,-3.31836 -1.25532,-5.41414 -3.24296,-5.41414 -1.74921,0 -1.8572,0.71264 -0.77772,5.13254 1.31668,5.39122 5.46895,13.66784 8.37802,16.69972 3.04951,3.17826 3.4868,1.63518 0.78222,-2.76031 z m 5.36068,0.29324 c 0,-0.66604 -0.50115,-1.30751 -1.11369,-1.42549 -1.11996,-0.21574 -1.61228,1.71361 -0.67615,2.64974 0.75185,0.75185 1.78984,0.0419 1.78984,-1.22425 z m 6.68194,-0.55452 c 0,-0.15441 -0.28636,-0.45761 -0.63637,-0.67391 -0.35,-0.21623 -0.63639,-0.0899 -0.63639,0.28062 0,0.37066 0.28639,0.67393 0.63639,0.67393 0.35001,0 0.63637,-0.12627 0.63637,-0.28064 z m -12.09115,-10.57532 c 0,-0.67937 -0.25298,-1.23519 -0.56217,-1.23519 -0.65383,0 -1.36993,2.31041 -0.87081,2.80954 0.60337,0.60337 1.43298,-0.30806 1.43298,-1.57435 z m 10.81839,-8.45576 c 0,-0.47125 0.43881,-1.73641 0.97512,-2.81147 1.06507,-2.13498 2.84088,-11.30093 2.84228,-14.67047 6.5e-4,-1.89446 -0.146,-2.06634 -1.43098,-1.67477 -0.78751,0.24004 -1.88,0.82845 -2.42774,1.30771 -0.54774,0.47924 -1.89629,1.18521 -2.99679,1.56884 -1.14437,0.39893 -2.16699,1.2877 -2.3889,2.07617 -0.21334,0.75827 -1.10957,2.75269 -1.99148,4.43203 -1.73961,3.31257 -1.61765,4.90135 0.37624,4.90135 1.51194,0 5.76951,3.57072 5.76951,4.83876 0,0.48874 0.28637,0.88863 0.63637,0.88863 0.35001,0 0.63637,-0.38555 0.63637,-0.85678 z m -20.17974,-0.89459 c 1.67643,-0.17847 2.95047,-0.50178 2.83122,-0.71844 -0.31256,-0.56784 -2.96894,-6.30267 -4.36677,-9.42734 -0.65684,-1.46833 -1.19866,-3.61611 -1.20402,-4.77282 -0.0168,-3.42915 -0.85383,-4.09498 -2.51404,-1.99769 -1.36484,1.72412 -1.40804,2.14049 -0.97955,9.44021 0.24656,4.20009 0.59187,7.87082 0.76741,8.15718 0.17558,0.28637 0.79133,0.32329 1.36844,0.082 0.57713,-0.24124 2.42091,-0.58466 4.09731,-0.76315 z m 61.86244,-7.79429 c 0.21623,-0.35 -0.0363,-0.63636 -0.56125,-0.63636 -0.52501,0 -1.13155,0.28636 -1.34788,0.63636 -0.21623,0.35001 0.0363,0.6364 0.56128,0.6364 0.52501,0 1.13153,-0.28639 1.34785,-0.6364 z m -13.69307,-10.16177 c 2.10068,-1.32827 1.0753,-27.13576 -1.10707,-27.86321 -0.94534,-0.31511 -1.0852,2.13099 -0.15465,2.70607 0.39299,0.24288 0.58507,4.57756 0.50218,11.33325 -0.0907,7.38143 -0.1953,8.76647 -0.32191,4.25798 -0.10318,-3.67508 -0.45165,-7.25469 -0.77426,-7.95471 -0.32259,-0.70001 -0.71877,-4.89043 -0.88038,-9.31201 -0.2892,-7.91235 -1.09326,-11.29073 -2.82116,-11.85357 -0.4375,-0.14263 -0.82869,0.2659 -0.86929,0.90758 -0.0647,1.02341 -0.11184,1.0104 -0.38389,-0.10607 -0.40415,-1.65894 -2.0564,-3.50008 -3.14101,-3.50008 -0.48638,0 -0.89709,0.7556 -0.95128,1.75005 l -0.0952,1.75003 -0.26511,-1.75003 c -0.15201,-1.00261 -0.6679,-1.75005 -1.2082,-1.75005 -0.80625,0 -0.88108,1.1774 -0.51568,8.11382 0.23499,4.46259 0.67851,8.38586 0.98537,8.71836 0.30685,0.33252 0.55793,2.53496 0.55793,4.89437 0,2.54634 0.29743,4.47361 0.73181,4.74208 0.5456,0.33721 0.64291,-2.28437 0.38243,-10.30356 -0.20757,-6.38666 -0.14263,-9.33407 0.15994,-7.25578 0.28006,1.92503 0.53752,7.42075 0.57213,12.21269 0.0346,4.79196 0.32922,8.8772 0.65467,9.07835 0.32545,0.20107 0.93481,2.49242 1.35413,5.0917 0.72835,4.51507 1.68059,6.02306 3.20746,5.07943 0.32112,-0.19843 1.03164,0.0871 1.57897,0.6343 1.14853,1.14851 1.50842,1.19719 2.8024,0.37901 z m -4.44366,-5.62036 c 0,-1.33003 -0.25031,-2.69029 -0.55623,-3.02279 -0.30589,-0.33252 -0.69316,-6.47515 -0.86053,-13.65031 -0.16741,-7.17513 -0.18208,-11.90386 -0.0327,-10.50829 0.14936,1.3956 0.53917,2.85986 0.86621,3.25393 0.67564,0.81407 1.64715,26.34568 1.00251,26.34568 -0.23042,0 -0.41918,-1.08819 -0.41918,-2.41822 z m -3.18189,-12.34175 c 0,-4.03457 -0.1383,-8.7358 -0.3072,-10.4472 -0.27686,-2.80447 -0.2492,-2.89176 0.28021,-0.88428 0.7154,2.71281 1.10488,17.58917 0.47693,18.21712 -0.24747,0.24747 -0.44994,-2.85108 -0.44994,-6.88564 z m -21.89071,15.68491 c 0.22368,-0.89132 0.22922,-1.79815 0.012,-2.0152 -0.21695,-0.21695 -0.39465,0.22585 -0.39465,0.98421 0,0.75834 -0.28636,1.37881 -0.63637,1.37881 -0.35001,0 -0.63637,0.28636 -0.63637,0.63637 0,1.32118 1.26548,0.56873 1.65524,-0.98419 z m 4.58757,-2.07785 c 0.24299,-2.42758 -0.83074,-4.57449 -2.28786,-4.57444 -0.90277,2e-5 -1.07688,0.57713 -1.00802,3.34097 0.1116,4.47595 0.044,4.32461 1.66681,3.72906 0.98705,-0.3622 1.4931,-1.13745 1.62907,-2.49559 z m 2.96783,-3.99113 c -0.0871,-4.66675 -1.2092,-14.58364 -1.65014,-14.58364 -0.30821,0 -0.59863,-0.78752 -0.64539,-1.75003 -0.0507,-1.0423 -0.29214,-0.4632 -0.59714,1.43184 -0.44261,2.74999 0.2481,12.87088 1.05677,15.48507 0.33688,1.08898 1.8581,0.60573 1.8359,-0.58324 z m -3.80102,-8.12069 c -0.50562,-3.37183 -1.49652,-2.80844 -2.2538,1.28147 -0.43779,2.36455 -0.31407,2.96754 0.87158,4.24723 l 1.38181,1.49144 0.20997,-2.11095 c 0.11545,-1.16102 0.0217,-3.37015 -0.20973,-4.90919 z m -3.54522,-0.59885 c 0.0406,-1.89814 -0.0724,-2.02792 -1.22803,-1.40947 -1.44411,0.77286 -1.73663,3.73622 -0.49172,4.98113 0.96872,0.96872 1.65303,-0.45247 1.71975,-3.57166 z m 8.60642,-1.88674 c -0.13517,-3.41257 -0.0974,-5.63195 0.0839,-4.93192 0.18111,0.70001 0.59089,1.84549 0.91049,2.5455 0.31963,0.70001 0.71269,2.13186 0.87348,3.1819 0.16066,1.05001 0.14479,-0.8114 -0.0356,-4.13648 -0.18039,-3.32505 -0.55729,-6.33194 -0.83778,-6.68194 -0.28047,-0.35001 -0.63964,-1.20912 -0.79812,-1.90913 l -0.28819,-1.27277 -0.54483,1.27277 c -0.29964,0.70001 -1.1222,1.74108 -1.82788,2.31347 -1.03783,0.84179 -1.13466,1.21953 -0.50661,1.9763 0.42707,0.51455 1.25333,3.84064 1.83616,7.39127 0.58285,3.55064 1.13191,6.45569 1.22013,6.45569 0.0883,0 0.0498,-2.79211 -0.0851,-6.20466 z m 6.85791,0.88603 c 0.48694,0.30096 0.56674,-2.687 0.27439,-10.27592 -0.22681,-5.88518 -0.55063,-10.8387 -0.71978,-11.00788 -0.16909,-0.16908 -0.48814,0.16307 -0.70884,0.73809 -0.2208,0.5751 -0.76724,1.04563 -1.21453,1.04563 -1.80441,0 -2.62218,2.71714 -2.20257,7.31835 l 0.40626,4.45465 0.17318,-3.50008 0.17341,-3.50008 0.52653,2.54551 c 0.28958,1.40004 0.54302,4.70761 0.5632,7.35016 0.0216,2.94613 0.34435,5.11445 0.83213,5.60559 0.6388,0.6432 0.83629,0.60407 1.00273,-0.19867 0.114,-0.54981 0.51623,-0.80868 0.89387,-0.5753 z m -1.10844,-8.26395 c -0.25086,-4.01515 -0.32448,-7.6847 -0.16355,-8.15453 0.16091,-0.46986 0.50634,2.67509 0.76767,6.98876 0.26132,4.31366 0.33495,7.98321 0.16355,8.15453 -0.17125,0.17125 -0.51678,-2.9736 -0.76767,-6.98876 z m -13.53978,130.01928 c -1.13969,-1.82494 -0.93743,-2.40907 0.24809,-0.71651 0.5607,0.80053 0.90782,1.56714 0.77138,1.70361 -0.13638,0.13638 -0.59522,-0.30775 -1.01947,-0.9871 z m 42.89906,-33.41409 c -0.21815,-0.56873 -0.37865,-1.3686 -0.35645,-1.77749 0.0216,-0.40886 0.31469,-0.0575 0.65003,0.78083 0.33533,0.83833 0.49576,1.6382 0.35647,1.77749 -0.13926,0.13926 -0.4318,-0.21214 -0.65005,-0.78083 z m -29.03378,-67.74956 c 0,-0.35001 1.55814,-0.63637 3.46253,-0.63637 1.90437,0 3.63949,0.28636 3.85581,0.63637 0.24567,0.39751 -1.05401,0.63639 -3.46251,0.63639 -2.14631,0 -3.85583,-0.28215 -3.85583,-0.63639 z m -47.79988,-11.29568 c -0.37206,-0.96252 -0.83312,-2.6877 -1.02457,-3.83373 -0.19146,-1.14601 -0.59589,-2.23679 -0.89873,-2.42397 -0.30282,-0.18712 -0.5506,-1.32567 -0.5506,-2.53005 0,-2.06519 -0.12291,-2.18975 -2.15923,-2.18975 -1.38188,0 -2.29829,-0.36239 -2.54552,-1.00663 -0.52111,-1.358 -0.49172,-1.5389 0.25012,-1.5389 0.35,0 0.63637,0.43208 0.63637,0.96014 0,0.79218 0.64002,0.88831 3.65915,0.54964 3.85054,-0.43196 5.25013,-1.10435 5.25013,-2.52227 0,-0.54136 0.4099,-0.71201 1.11366,-0.46363 1.46746,0.51789 3.97734,2.7993 3.97734,3.61527 0,0.35447 -0.86334,-0.18256 -1.91856,-1.19361 l -1.91858,-1.83813 -0.9812,1.40086 c -0.53966,0.77049 -1.37354,1.40087 -1.85309,1.40087 -0.47953,0 -1.32647,0.91128 -1.8821,2.02508 -1.25453,2.51476 -0.54778,3.15022 3.28272,2.95157 1.47615,-0.0765 2.88413,0.0611 3.12886,0.3058 0.24473,0.24473 -0.62552,0.44494 -1.93388,0.44494 -2.88723,0 -4.97553,1.64841 -3.52468,2.78224 0.80817,0.63156 1.53673,4.85428 0.83756,4.85428 -0.14768,0 -0.57311,-0.78751 -0.94517,-1.75002 z m -40.13948,-8.23035 c 0.4594,-0.18376 1.00826,-0.16115 1.21973,0.0503 0.21142,0.21142 -0.16452,0.36186 -0.83523,0.33425 -0.74136,-0.0305 -0.89214,-0.18135 -0.3845,-0.38449 z m 106.77394,-2.64774 c -0.22032,-0.35631 -0.0902,-0.83949 0.2887,-1.07374 0.97841,-0.60469 1.6097,0.22369 0.79292,1.04038 -0.45704,0.45703 -0.81298,0.468 -1.08162,0.0334 z m -45.21434,-4.17137 c 0.28887,-1.53974 0.14311,-2.31893 -0.50605,-2.70461 -0.50149,-0.29798 -1.07813,-1.20251 -1.28142,-2.01008 -0.28519,-1.13282 -0.0168,-1.62897 1.17395,-2.17158 1.97937,-0.90186 2.57213,-0.28435 1.65637,1.72554 -0.49564,1.08782 -0.52835,2.10826 -0.10342,3.226 0.91191,2.39852 0.7619,4.09756 -0.36182,4.09756 -0.77363,0 -0.89685,-0.46134 -0.57765,-2.16283 z m -97.07346,0.73096 c -0.002,-0.61251 -0.36188,-1.13179 -0.79939,-1.15399 -0.43751,-0.0216 -0.17798,-0.28935 0.57643,-0.5937 0.78795,-0.3178 1.54886,-1.35892 1.78757,-2.44583 0.2285,-1.04088 1.40106,-3.52892 2.60544,-5.52899 1.20438,-2.00007 2.1898,-4.15239 2.1898,-4.78294 0,-1.07691 -5.1481,-5.92775 -7.95471,-7.49541 -0.70001,-0.39099 -0.95345,-0.71962 -0.56318,-0.73025 1.07537,-0.0293 7.83024,4.71526 8.91208,6.25979 0.69825,0.99691 1.61978,1.35738 3.47018,1.35738 2.78089,0 7.59041,1.30785 7.59041,2.06407 0,0.26479 0.40081,0.48143 0.89068,0.48143 0.964,0 6.86568,4.10688 9.04015,6.2909 0.73683,0.74011 1.59595,1.35199 1.90913,1.35979 0.64161,0.0168 3.96253,2.49518 3.37176,2.51719 -0.73842,0.0274 -4.74451,-2.15747 -7.19339,-3.92344 -1.36505,-0.98441 -2.76726,-1.78979 -3.11601,-1.78979 -0.34878,0 -2.14415,-1.0023 -3.98973,-2.22731 -1.84557,-1.22505 -3.80821,-2.22734 -4.36141,-2.22734 -0.5532,0 -1.00581,-0.28637 -1.00581,-0.63637 0,-0.35001 -0.71593,-0.63637 -1.59094,-0.63637 -0.87502,0 -1.59095,0.28636 -1.59095,0.63637 0,0.35 -0.54868,0.63637 -1.21927,0.63637 -1.52339,0 -4.6945,3.9358 -6.18169,7.67231 -1.76049,4.42324 -2.77253,6.20747 -2.77715,4.89613 z m -13.22703,-3.07296 c 1.39434,-0.32896 2.96444,-0.31927 3.81826,0.024 1.11099,0.44609 0.55712,0.57677 -2.36812,0.55871 -3.5871,-0.0217 -3.67489,-0.0575 -1.45014,-0.5823 z m 8.60938,0.2651 c 0.4375,-0.17654 1.15341,-0.17654 1.59094,0 0.43751,0.17654 0.0796,0.32098 -0.79547,0.32098 -0.87504,0 -1.23298,-0.14456 -0.79547,-0.32098 z m -14.83324,-1.2046 c -1.18622,-0.95034 -1.1784,-0.9621 0.19651,-0.29579 0.78751,0.38163 1.43184,0.82698 1.43184,0.98967 0,0.48698 -0.33002,0.34635 -1.62839,-0.69388 z m 162.95,-1.55583 c -0.98897,-1.0928 -1.0104,-1.27276 -0.15177,-1.27276 0.55009,0 1.14461,-0.35794 1.32116,-0.79547 0.17654,-0.43751 0.34358,0.13517 0.37121,1.27276 0.0589,2.42697 -0.025,2.47031 -1.5407,0.79547 z m -168.98463,-1.62289 c -0.67632,-0.81493 -0.63454,-1.17068 0.24028,-2.04548 0.98775,-0.98774 1.05899,-0.97276 1.05899,0.22272 0,0.70502 0.34365,1.62549 0.76365,2.04551 0.59394,0.59394 0.54057,0.76365 -0.24028,0.76365 -0.55216,0 -1.37236,-0.44393 -1.82266,-0.98652 z m 102.00593,-0.54603 c -1.92099,-2.02657 -1.80316,-2.75617 0.39311,-2.43382 1.00374,0.14744 2.70773,-0.18857 3.78666,-0.7466 2.2327,-1.15457 5.20681,-1.34766 5.20681,-0.33805 0,0.37201 -0.50115,0.6254 -1.11366,0.5631 -2.51712,-0.25605 -3.86343,0.0912 -4.24903,1.09605 -0.22489,0.58589 -0.0411,1.29542 0.40919,1.58121 0.60092,0.38127 0.52246,0.52099 -0.29663,0.52816 -0.61251,0.005 -1.11366,0.2961 -1.11366,0.64611 0,1.12001 -1.54618,0.6616 -3.02279,-0.89616 z m -96.41111,-0.62607 c -0.61251,-0.46497 -1.11366,-1.08588 -1.11366,-1.37979 0,-0.29392 0.34363,-0.19074 0.76365,0.22921 0.42,0.42002 1.29602,0.76365 1.94668,0.76365 0.65068,0 1.00605,0.28639 0.78975,0.6364 -0.51438,0.83225 -1.0328,0.77806 -2.38642,-0.24949 z m 162.51059,-2.06482 c -0.76166,-0.86037 -0.72616,-0.9635 0.26546,-0.77128 0.62956,0.12195 1.26386,0.57985 1.40952,1.01736 0.36576,1.0985 -0.61179,0.95489 -1.67498,-0.24608 z m -157.81429,-1.54785 c -0.47781,-1.07948 -1.33621,-2.1064 -1.90751,-2.28205 -0.57131,-0.17558 -1.79886,-0.7265 -2.72789,-1.22406 -0.92901,-0.49754 -2.14609,-0.90465 -2.70461,-0.90465 -0.55851,0 -1.01547,-0.28636 -1.01547,-0.63637 0,-1.01432 1.8839,-0.73904 3.72003,0.54358 0.92906,0.64897 2.47233,1.36926 3.42953,1.60064 1.12735,0.27251 1.87772,0.96802 2.13037,1.97463 0.62174,2.47724 0.026,3.07546 -0.92445,0.92828 z m -15.86473,-7.71991 c -0.83874,-0.83874 -1.05369,-3.69098 -0.27818,-3.69098 0.26702,0 0.76817,-0.63925 1.11366,-1.42056 0.3455,-0.78131 1.24197,-1.72319 1.99218,-2.09306 0.75018,-0.36989 1.76932,-1.00893 2.26472,-1.42008 0.70939,-0.58874 1.1219,-0.48931 1.94162,0.46805 0.57246,0.6686 2.26551,1.54542 3.76234,1.94846 1.49681,0.40304 3.29468,1.1343 3.99524,1.62501 0.70059,0.49068 1.90908,0.89218 2.68556,0.89218 0.77649,0 1.60771,0.31698 1.84715,0.70441 0.64885,1.04988 -3.20732,0.0936 -7.23943,-1.79541 -1.95671,-0.91667 -3.95185,-1.43324 -4.73972,-1.22721 -0.74833,0.19579 -1.73346,0.0464 -2.18919,-0.33187 -0.60102,-0.49879 -0.82857,-0.48116 -0.82857,0.0642 0,0.41353 -0.2666,0.58711 -0.5924,0.38572 -0.32584,-0.20131 -0.77263,-0.0746 -0.99287,0.28185 -0.22032,0.35635 0.33271,0.92667 1.22877,1.26737 2.42088,0.92042 1.97364,1.35743 -0.91627,0.89531 -2.38254,-0.38098 -2.5455,-0.30813 -2.5455,1.13796 0,0.84975 0.34364,1.88866 0.76366,2.30865 0.42425,0.42426 0.4808,0.76366 0.12723,0.76366 -0.35,0 -0.98,-0.34363 -1.40002,-0.76366 z m 9.73659,-1.78185 c 0.21622,-0.35 0.87754,-0.63199 1.46938,-0.62665 0.92738,0.01 0.94419,0.095 0.12147,0.62665 -1.24626,0.80539 -2.08871,0.80539 -1.59093,0 z m 16.2276,-1.90913 c -0.52501,-0.3393 -0.66819,-0.61689 -0.31819,-0.61689 0.35001,0 1.06594,0.27759 1.59095,0.61689 0.52501,0.33928 0.66819,0.61689 0.31819,0.61689 -0.35001,0 -1.06594,-0.27761 -1.59095,-0.61689 z m -5.88566,-1.64314 c -0.20372,-0.20372 -1.75486,-0.75085 -3.44704,-1.21585 -2.96735,-0.81544 -2.99751,-0.84668 -0.84933,-0.87983 1.22502,-0.0192 2.94323,0.3749 3.81827,0.87511 2.22166,1.27002 3.59953,1.27002 2.5455,0 -0.44194,-0.53249 -0.51084,-0.95455 -0.15586,-0.95455 0.35001,0 0.96511,0.39611 1.3669,0.88023 0.56544,0.68132 0.49939,0.96896 -0.2923,1.27276 -1.28597,0.49348 -2.50577,0.50252 -2.98616,0.0217 z m -11.1701,-4.14623 c 0.16355,-0.49093 0.80858,-0.99172 1.43352,-1.11287 0.69799,-0.13517 0.97,0.0488 0.70518,0.47729 -0.23715,0.38365 -0.12795,0.69756 0.24283,0.69756 0.37067,0 0.67394,-0.28639 0.67394,-0.63639 0,-0.7715 3.16556,-0.82891 4.34878,-0.0789 0.57816,0.36651 0.27391,0.53949 -0.95458,0.54267 -0.99178,0.002 -2.91559,0.22921 -4.27508,0.50394 -1.98723,0.4014 -2.41355,0.32431 -2.17459,-0.3933 z m 9.29991,0.26363 c 0.4594,-0.18376 1.00826,-0.16115 1.21973,0.0503 0.21142,0.21142 -0.16452,0.36186 -0.83526,0.33423 -0.74133,-0.0306 -0.89213,-0.18136 -0.38447,-0.38448 z"
       id="path60"
       inkscape:connector-curvature="0" />
  </g>
</svg>
