<?xml version="1.0" encoding="UTF-8" standalone="no"?>
<!-- Created with Inkscape (http://www.inkscape.org/) -->

<svg
   xmlns:dc="http://purl.org/dc/elements/1.1/"
   xmlns:cc="http://creativecommons.org/ns#"
   xmlns:rdf="http://www.w3.org/1999/02/22-rdf-syntax-ns#"
   xmlns:svg="http://www.w3.org/2000/svg"
   xmlns="http://www.w3.org/2000/svg"
   xmlns:sodipodi="http://sodipodi.sourceforge.net/DTD/sodipodi-0.dtd"
   xmlns:inkscape="http://www.inkscape.org/namespaces/inkscape"
   width="210.00002mm"
   height="378.81mm"
   viewBox="0 0 210.00002 378.81001"
   version="1.1"
   id="svg8"
   inkscape:version="0.92.3 (2405546, 2018-03-11)"
   sodipodi:docname="assassin_professional.svg">
  <defs
     id="defs2" />
  <sodipodi:namedview
     id="base"
     pagecolor="#ffffff"
     bordercolor="#666666"
     borderopacity="1.0"
     inkscape:pageopacity="0.0"
     inkscape:pageshadow="2"
     inkscape:zoom="0.7"
     inkscape:cx="-65.181448"
     inkscape:cy="1151.5729"
     inkscape:document-units="mm"
     inkscape:current-layer="layer1"
     showgrid="false"
     fit-margin-top="0"
     fit-margin-left="0"
     fit-margin-right="0"
     fit-margin-bottom="0"
     inkscape:window-width="1920"
     inkscape:window-height="1017"
     inkscape:window-x="-8"
     inkscape:window-y="-8"
     inkscape:window-maximized="1" />
  <metadata
     id="metadata5">
    <rdf:RDF>
      <cc:Work
         rdf:about="">
        <dc:format>image/svg+xml</dc:format>
        <dc:type
           rdf:resource="http://purl.org/dc/dcmitype/StillImage" />
        <dc:title></dc:title>
      </cc:Work>
    </rdf:RDF>
  </metadata>
  <g
     inkscape:label="Layer 1"
     inkscape:groupmode="layer"
     id="layer1"
     transform="translate(-69.518764,221.26899)">
    <path
       style="fill:#000000;stroke-width:0.73324811"
       d="m 192.58658,157.18351 c -0.97005,-0.29656 -1.99115,-1.02664 -2.26909,-1.6224 -0.27796,-0.59575 -0.8866,-1.82112 -1.35257,-2.72305 -1.97627,-3.82521 -1.33941,-4.81768 11.01499,-17.16557 l 11.86221,-11.856 -1.23008,-2.1433 c -1.09219,-1.90299 -1.10912,-2.31608 -0.15104,-3.68409 1.69835,-2.42475 0.7191,-11.93571 -1.54161,-14.97292 -0.95555,-1.28377 -1.73737,-2.85109 -1.73737,-3.482931 0,-0.631835 -0.32999,-1.1488 -0.73327,-1.1488 -1.13129,0 -0.86704,-2.642381 0.36662,-3.666249 1.49145,-1.237788 1.38237,-3.144491 -0.36662,-6.407706 -0.94996,-1.772405 -1.47161,-4.160489 -1.48103,-6.779896 -0.0249,-7.235835 -1.37131,-14.114002 -3.30694,-16.907116 -1.12406,-1.622004 -1.81126,-3.636762 -1.81126,-5.310286 0,-3.840622 1.65448,-12.989368 2.349,-12.989368 0.78798,0 0.74904,-6.410671 -0.0418,-6.899506 -0.34426,-0.212839 -0.85371,-3.119383 -1.13212,-6.459198 -0.58849,-7.059606 -1.07893,-9.371977 -1.98768,-9.371977 -0.35955,0 -0.65376,1.088856 -0.65376,2.419705 0,1.330849 -0.26965,2.733198 -0.59941,3.116307 -0.32968,0.383136 -1.02924,2.51138 -1.55458,4.72947 -0.52533,2.218063 -1.65792,5.187711 -2.51689,6.599233 -1.40781,2.313424 -1.54222,3.469651 -1.36372,11.73196 0.26632,12.331121 -0.47018,14.902473 -5.08154,17.739873 -2.34191,1.441009 -3.54883,2.684921 -3.54883,3.657686 0,2.003506 -2.19514,9.423219 -3.32299,11.231984 -0.50297,0.806568 -1.32129,3.281284 -1.81855,5.499346 -0.49723,2.218091 -1.17646,4.692807 -1.50932,5.499375 -1.28737,3.119161 -2.30456,10.422204 -2.25659,16.201284 0.041,4.93796 -0.212,6.37243 -1.38721,7.86645 -1.58482,2.01482 -1.854,4.18557 -0.66623,5.37331 0.42908,0.42911 0.67299,2.83776 0.54994,5.43109 -0.21422,4.51566 -0.31097,4.72091 -3.1206,6.62534 -2.87986,1.95204 -9.89845,3.59727 -15.34603,3.59727 -2.18099,0 -3.03323,0.55557 -5.69543,3.71275 -2.27922,2.70305 -4.63419,4.44025 -8.6593,6.38781 -5.22282,2.52704 -5.91402,2.67139 -12.49452,2.60934 -3.83123,-0.036 -7.46081,-0.21921 -8.06574,-0.40713 -0.60492,-0.1879 -1.98338,-0.58783 -3.06323,-0.88893 -1.07985,-0.30111 -2.14188,-1.01262 -2.36004,-1.58116 -0.2181,-0.56854 -0.89569,-1.03371 -1.50558,-1.03371 -1.5443,0 -2.18295,-3.18038 -1.20312,-5.99111 0.74787,-2.14538 0.63222,-2.54697 -1.32364,-4.59576 -3.31668,-3.47422 -4.60122,-7.34644 -5.01722,-15.12437 -0.42169,-7.88416 0.78492,-13.59272 3.64433,-17.24159 1.1828,-1.50935 1.68771,-3.18337 1.74885,-5.79821 0.0471,-2.021906 0.21228,-4.297363 0.36662,-5.056597 0.16434,-0.807898 -0.17543,-1.470496 -0.81918,-1.597617 -0.60493,-0.119444 -2.62359,-0.519901 -4.4859,-0.889874 -3.84486,-0.763834 -8.085332,-0.356754 -8.884639,0.852905 -0.308227,0.466415 -0.543513,0.07261 -0.549943,-0.920082 -0.0083,-1.431919 0.272422,-1.661108 1.611529,-1.310951 0.978031,0.255794 2.137893,-0.04185 2.919233,-0.748924 1.06433,-0.963204 1.49863,-1.005522 2.42545,-0.236395 0.62094,0.515329 1.93123,1.025032 2.91178,1.132671 0.98055,0.107528 2.97693,0.589795 4.43643,1.07148 1.45949,0.481657 3.86745,0.726033 5.351,0.543014 1.48357,-0.182907 3.46934,-0.04822 4.41284,0.299304 1.15157,0.424319 2.83865,0.240552 5.13273,-0.558617 4.90149,-1.707833 16.53997,-1.707279 19.80022,7.2e-4 1.34817,0.706357 2.63468,1.100801 2.85896,0.876545 0.2242,-0.224201 0.70414,-3.945683 1.06638,-8.269847 0.58162,-6.942683 0.50455,-8.166087 -0.65919,-10.46172 -0.72481,-1.429785 -1.62511,-2.821049 -2.00065,-3.091641 -0.84645,-0.609943 -0.66947,-9.303775 0.21228,-10.422839 0.70256,-0.891703 1.99029,-15.652756 2.72109,-31.191278 0.25469,-5.413767 0.72329,-10.363199 1.04149,-10.99872 0.74549,-1.488981 2.74797,-12.2888869 3.37827,-18.2199515 0.26882,-2.52956029 0.77525,-4.7762758 1.12544,-4.9926946 0.35018,-0.2164132 0.63668,-1.0850842 0.63668,-1.9303569 0,-1.4904219 0.0444,-1.4967655 1.46651,-0.2097066 1.20254,1.0882796 1.46648,1.1291872 1.46648,0.2273046 0,-1.4891915 2.32528,-3.4912068 4.83428,-4.1622181 2.58188,-0.6905049 5.02908,-5.0901489 5.71739,-10.2789069 0.59734,-4.502942 -0.75549,-5.15952 -2.818,-1.36769 -0.71292,1.310681 -2.63223,3.372943 -4.26513,4.582801 -1.6329,1.20986 -3.61731,2.679691 -4.4098,3.266299 -1.37267,1.016053 -1.41645,0.955303 -0.92479,-1.283185 0.64622,-2.942247 -0.2533,-2.990707 -2.78452,-0.149984 -4.14402,4.6509616 -11.50548,1.431936 -12.57626,-5.499361 -0.24915,-1.613147 -0.93084,-4.938734 -1.5147,-7.390195 -0.92693,-3.89175 -0.92674,-4.905334 0.001,-7.989551 0.68751,-2.284464 0.76619,-3.235457 0.22281,-2.691961 -1.78465,1.78466 -1.98316,0.710453 -0.38566,-2.08697 0.91942,-1.610035 2.06545,-2.929882 2.54669,-2.932991 0.48124,-0.003 1.30613,-0.58816 1.83312,-1.300123 1.51601,-2.048175 4.70922,-3.105011 9.38171,-3.105011 2.37693,0 4.5481,-0.366331 4.82482,-0.814062 0.48651,-0.787199 3.77145,-0.563794 6.26916,0.426356 1.3911,0.551461 3.50926,-2.651865 5.5466,-8.388174 0.72069,-2.029133 1.56287,-3.689338 1.87148,-3.689338 0.82747,0 0.68291,-2.771187 -0.1721,-3.299616 -0.40328,-0.249254 -0.73324,-1.937396 -0.73324,-3.751443 0,-3.936795 -1.37507,-9.813456 -2.29629,-9.813456 -0.36066,0 -1.39387,1.567318 -2.29602,3.482929 -0.90215,1.91561 -2.05273,3.746795 -2.55683,4.069298 -0.50414,0.322505 -0.91657,1.038332 -0.91657,1.590716 0,1.568322 -7.04192,8.883287 -9.82144,10.202252 -3.29755,1.564796 -7.22118,1.503863 -9.25589,-0.143749 -1.81971,-1.473448 -5.74001,-7.52072 -8.16972,-12.60218 -0.86776,-1.81479 -2.79344,-4.949426 -4.27932,-6.965858 -1.48588,-2.016431 -3.25673,-4.821104 -3.93523,-6.232607 -0.67854,-1.411503 -1.84868,-3.366497 -2.60034,-4.344428 l -1.36663,-1.778061 -6.49935,5.717955 c -3.57463,3.144873 -7.6542,6.464449 -9.06569,7.376829 -1.41153,0.912381 -7.24936,5.986134 -12.973022,11.275001 -7.494622,6.925324 -10.913142,9.616131 -12.216721,9.616131 -3.414945,0 -8.260534,-7.778611 -10.381628,-16.665631 -0.65179,-2.73085 -1.471245,-5.625112 -1.821042,-6.431683 -1.11887,-2.580087 -1.590218,-8.397408 -1.072283,-13.233883 0.590626,-5.51514 2.656708,-8.396933 6.020107,-8.396933 1.148467,0 2.40158,-0.31176 2.784689,-0.6928 0.383137,-0.38104 4.642396,-1.38758 9.465039,-2.23676 4.822642,-0.84918 9.112164,-1.7995 9.532215,-2.11182 1.307847,-0.97235 6.371926,-2.16978 12.859056,-3.0406 3.42612,-0.45991 6.56074,-1.09385 6.96586,-1.40875 0.40511,-0.31489 1.64395,-0.7893 2.75301,-1.05423 1.10903,-0.26494 2.01642,-0.95798 2.01642,-1.5401 0,-1.7853 2.99561,-9.17914 3.71893,-9.17914 0.3743,0 0.68056,0.49494 0.68056,1.09988 0,0.60493 -0.25884,1.09987 -0.57508,1.09987 -0.88015,0 -3.19862,6.78509 -2.54261,7.44107 1.06987,1.06987 3.85093,-0.21145 3.85093,-1.77425 0,-1.40152 0.0834,-1.41903 1.34093,-0.28111 0.73751,0.66744 2.40901,1.21352 3.71445,1.21352 1.30543,0 3.01174,0.34157 3.79181,0.75904 1.90308,1.0185 1.92353,-0.70589 0.036,-3.03688 -0.92756,-1.14548 -2.17369,-1.71495 -3.78788,-1.73105 -1.32309,-0.0133 -2.54334,-0.43643 -2.71169,-0.94053 -0.20065,-0.6005 0.4691,-0.91656 1.9419,-0.91656 1.66479,0 3.14011,0.85482 5.68704,3.29522 1.89152,1.81238 3.61227,3.12208 3.82389,2.91044 0.96137,-0.96137 -4.54889,-8.40541 -6.22189,-8.40541 -1.05776,0 -2.09721,-1.36229 -1.49721,-1.96228 0.8751,-0.87508 6.37869,2.42231 7.25482,4.34659 0.50527,1.10973 1.19256,1.92638 1.52733,1.81479 0.83309,-0.2777 0.80402,-0.47338 -0.58652,-3.94869 -0.82364,-2.05846 -1.90973,-3.33488 -3.34273,-3.92843 -2.39994,-0.9941 -4.36567,-2.92121 -2.97973,-2.92121 1.5032,0 6.44789,3.514 8.44447,6.00116 l 1.95162,2.43119 -0.48878,-2.19974 c -0.26882,-1.20986 -1.19821,-3.02465 -2.06528,-4.03287 -4.62152,-5.37385 -4.62102,-5.37304 -3.00071,-4.8947 2.62442,0.77478 4.47828,-1.63685 4.97764,-6.47524 0.27464,-2.66036 0.89329,-4.68627 1.58584,-5.19268 0.62461,-0.4567 1.13564,-1.21818 1.13564,-1.69216 0,-1.62464 6.69372,-3.89801 10.44876,-3.54869 1.9156,0.17822 3.48293,0.0825 3.48293,-0.21276 0,-0.29523 -1.13542,-2.4223 -2.52313,-4.72683 -1.38772,-2.30453 -2.74567,-5.23168 -3.01765,-6.50476 -0.27214,-1.27308 -0.73701,-2.64466 -1.03337,-3.04794 -1.08224,-1.47276 -2.32162,-9.6438 -2.09298,-13.79861 0.21284,-3.86931 0.43953,-4.38114 2.43452,-5.49936 1.20985,-0.67814 2.36472,-1.39796 2.56636,-1.5996 1.31979,-1.31979 6.78508,-3.66625 8.53927,-3.66625 h 2.10702 l 1.20858,9.75533 c 0.98338,7.93774 1.60593,10.49095 3.34134,13.70357 1.17299,2.17153 2.4817,4.06456 2.90818,4.20672 0.4265,0.14217 1.76691,-0.57577 2.97868,-1.59542 1.9184,-1.61421 2.24669,-2.44762 2.5394,-6.44625 0.31288,-4.27438 0.1793,-4.78784 -1.92763,-7.41559 -2.11694,-2.64011 -2.27404,-3.25439 -2.42253,-9.47101 -0.0873,-3.65629 -0.49976,-6.9888 -0.91656,-7.40559 -0.96906,-0.96907 -0.98627,-4.63622 -0.0249,-5.2306 0.40332,-0.24926 0.73327,-1.09267 0.73327,-1.87429 0,-1.9356 4.95583,-7.28796 7.88241,-8.51312 1.31068,-0.54869 2.38304,-1.25002 2.38304,-1.55851 0,-0.51647 5.34948,-2.29233 10.63211,-3.52953 1.20988,-0.28335 2.41419,-0.84287 2.6763,-1.24336 0.6315,-0.965 10.58357,-0.93966 11.78362,0.03 0.51605,0.417 2.31123,0.9845 3.9893,1.26112 1.67807,0.27664 3.62684,1.13924 4.33065,1.91692 0.70378,0.77769 2.96879,2.21308 5.03329,3.18975 2.06453,0.97668 4.31136,2.39199 4.99294,3.14514 1.89867,2.09801 5.66973,9.90457 5.68015,11.75869 0.006,0.90739 0.357,1.6498 0.78199,1.6498 0.42498,0 4.28622,-3.17258 8.58054,-7.05019 7.55126,-6.81855 13.16493,-11.00468 13.84521,-10.32442 0.46339,0.46339 -6.36248,6.37589 -7.36085,6.37589 -0.45134,0 -3.98798,2.95313 -7.85917,6.56251 l -7.03851,6.56251 -0.37998,4.73373 c -0.20896,2.60355 -0.9154,5.49817 -1.56982,6.43249 -0.65442,0.93431 -1.18987,2.15484 -1.18987,2.71229 0,0.55745 -0.84689,2.69966 -1.88196,4.76047 -1.03509,2.0608 -2.19339,5.38901 -2.57401,7.39602 -0.85717,4.51985 -2.25797,6.71913 -5.49685,8.63011 -1.38182,0.81529 -2.51238,2.07493 -2.51238,2.79919 0,0.72427 2.4475,3.78029 5.4389,6.79116 4.41654,4.4453 6.09521,5.63958 8.9304,6.35348 1.92031,0.48355 4.39067,1.51945 5.4897,2.30202 1.099,0.78257 2.35971,1.42284 2.80157,1.42284 0.44186,0 0.82929,0.41246 0.86099,0.91656 0.0316,0.50411 1.01813,2.40139 2.19207,4.21618 1.17396,1.81479 2.81684,4.77367 3.65087,6.57527 0.834,1.80161 2.73475,4.73715 4.22384,6.52342 1.48909,1.78627 3.36736,4.33781 4.17393,5.67009 0.80657,1.33229 4.18867,6.44749 7.5158,11.36713 3.32709,4.919639 6.04929,9.701056 6.04929,10.625364 0,0.924311 0.32995,1.884494 0.73323,2.13374 1.0762,0.665127 0.85028,8.583394 -0.28769,10.082474 -0.84426,1.112191 -0.96503,0.72074 -0.90487,-2.932991 0.12998,-7.901731 -0.74848,-10.656074 -5.36757,-16.827114 -2.35504,-3.146322 -4.97708,-6.415233 -5.82675,-7.264243 -0.84966,-0.84901 -1.54482,-1.80217 -1.54482,-2.11812 0,-0.31595 -1.76847,-2.75594 -3.92994,-5.42219 -2.16147,-2.66626 -4.91216,-6.82751 -6.11262,-9.24723 -4.5493,-9.16987 -5.38065,-10.54531 -7.27377,-12.03446 -1.07026,-0.84184 -2.7263,-1.53063 -3.68013,-1.53063 -0.95384,0 -1.73422,-0.25881 -1.73422,-0.57515 0,-1.07029 -4.24515,-3.09109 -6.49351,-3.09109 -1.85119,0 -3.70083,1.41466 -10.78546,8.24904 -4.70312,4.53698 -9.09111,8.45821 -9.75113,8.71386 -0.71988,0.27885 -1.88364,-0.16116 -2.90887,-1.09988 -1.6838,-1.54171 -1.72418,-1.54378 -2.74969,-0.14136 -1.26392,1.72848 -1.34733,4.20942 -0.18069,5.37598 0.65786,0.65785 0.65786,1.30371 0,2.74753 -1.43397,3.1472 -1.08744,3.91088 1.88639,4.15729 2.39912,0.19882 2.79326,0.50105 3.11711,2.39041 0.36973,2.15697 0.38552,2.14665 5.83751,-3.81357 4.48642,-4.90464 5.65581,-5.8195 6.52088,-5.10156 0.87619,0.72716 0.97055,0.61154 0.55904,-0.68498 -0.82988,-2.61474 5.23615,-6.79677 7.12251,-4.91039 0.26633,0.2663 -0.1793,0.94879 -0.98992,1.51667 -1.77886,1.24595 -1.17388,2.6427 0.86444,1.99576 0.85412,-0.27109 1.9667,-0.006 2.68797,0.64138 0.67684,0.60716 2.4424,1.32874 3.92343,1.60352 6.79439,1.26057 13.73948,7.06806 13.78487,11.52689 0.0139,1.38937 -0.98135,3.04904 -3.24744,5.414063 -2.95399,3.082978 -3.49972,3.364368 -5.68267,2.930117 -1.3834,-0.275193 -3.64577,-1.709216 -5.29679,-3.357382 l -2.88196,-2.876998 -3.03528,3.259373 c -2.35291,2.526669 -3.5552,3.259368 -5.34825,3.259368 -1.81969,0 -2.55154,0.461352 -3.43166,2.163331 -1.55172,3.00067 -1.41834,3.570772 0.89772,3.837263 1.6802,0.193328 2.05475,0.629375 2.24619,2.61507 0.16268,1.685554 0.60249,2.383057 1.50317,2.383057 0.70037,0 1.66934,0.395954 2.1533,0.879897 1.54646,1.546478 2.69154,-0.414328 1.88708,-3.231416 -0.48931,-1.713537 -1.18718,-2.485998 -2.4036,-2.660534 -1.59039,-0.228191 -1.44919,-0.494632 1.95689,-3.692416 2.01903,-1.895563 3.79126,-4.066513 3.93828,-4.824339 0.21561,-1.112016 1.73433,-0.08128 7.87053,5.342226 4.18174,3.696047 7.8113,6.717909 8.06571,6.715254 0.25441,-0.003 1.45245,-0.660408 2.66231,-1.461664 2.45897,-1.628523 3.29963,-1.815324 3.29963,-0.73325 0,0.403287 -0.43424,0.73325 -0.96498,0.73325 -1.17649,0 -4.87164,4.088958 -6.3451,7.021318 -0.5926,1.179356 -1.99495,3.523581 -3.11631,5.20939 -1.12136,1.685804 -2.04205,3.335613 -2.04596,3.666242 -0.003,0.330622 -1.15878,2.049903 -2.56637,3.820626 -2.96854,3.734372 -3.06708,4.050204 -1.10362,3.536748 0.92534,-0.241993 2.436,0.39844 4.14668,1.757933 4.41163,3.505914 6.85287,7.439872 7.77697,12.532243 0.46084,2.539495 1.15168,4.831417 1.53518,5.093155 0.38352,0.261725 -0.27952,0.981012 -1.47338,1.598393 -1.87893,0.971634 -2.32116,1.823192 -3.29001,6.33566 l -1.11929,5.213145 4.46639,4.361388 c 3.1734,3.098795 5.0311,4.36403 6.41699,4.37049 1.8926,0.0089 7.43983,3.851391 10.44498,7.235222 0.76824,0.865071 1.72599,1.572853 2.1283,1.572853 0.40234,0 2.62656,1.942703 4.94275,4.3171212 4.90875,5.0321805 5.85469,7.7393803 3.8751,11.0905295 -2.52061,4.2670742 -7.34589,3.8523999 -12.85989,-1.1051792 -2.02102,-1.81705101 -3.96885,-3.3037511 -4.32852,-3.3037511 -0.79337,0 -0.87388,1.24681365 -0.10254,1.58871279 0.74111,0.32854132 3.84814,9.58276461 3.84814,11.46158881 0,0.820868 0.36387,1.613746 0.80859,1.761985 0.44471,0.148266 -0.18263,1.330599 -1.39407,2.627471 -1.83121,1.960357 -2.74372,2.357959 -5.41152,2.357959 -1.76492,0 -3.90322,-0.486313 -4.75181,-1.080708 -0.84861,-0.594367 -2.93606,-3.976472 -4.63879,-7.5157948 -1.70273,-3.5392948 -4.09165,-8.47913738 -5.30865,-10.9774371 -1.6286,-3.3431899 -2.10693,-5.1821178 -1.81192,-6.9658519 0.45932,-2.7769372 -1.55763,-8.6491472 -2.9722,-8.6533852 -0.53512,-0.0015 -0.93832,0.988983 -0.96883,2.380308 -0.0288,1.310682 -0.25441,3.702903 -0.50147,5.3160478 -0.24721,1.6131448 -0.47102,15.4715442 -0.49768,30.7964242 l -0.0485,27.863435 1.8331,3.66625 c 1.3477,2.695397 1.81273,4.747789 1.75611,7.750471 -0.0729,3.869638 0.0393,4.135769 2.13902,5.065162 l 2.21604,0.980913 -1.9156,1.647723 c -1.05357,0.906253 -2.5548,2.095431 -3.33604,2.642658 -1.29942,0.910105 -1.46978,2.36899 -1.99894,17.117682 -0.96278,26.83405 -0.80302,32.45999 1.02922,36.2415 2.1863,4.51215 2.01274,5.54228 -1.46135,8.67308 -4.89666,4.41276 -8.74851,8.34309 -13.73987,14.01966 -3.85057,4.37918 -5.66865,5.78671 -10.26548,7.94732 -4.97668,2.33914 -6.34616,2.65039 -12.552,2.85284 -3.83123,0.12499 -7.75953,-0.0166 -8.72958,-0.31194 z M 121.39214,133.4077 c 0,-0.40109 -0.8133,-0.19649 -1.80732,0.45494 -2.03865,1.33579 -4.4798,1.54918 -5.15856,0.45096 -0.63765,-1.03177 -3.2996,-0.91626 -3.2996,0.14327 0,0.48205 0.87134,1.78593 1.93633,2.89751 l 1.9363,2.02108 3.19643,-2.61921 c 1.75802,-1.44057 3.19642,-2.9474 3.19642,-3.34846 z m 6.6494,-3.67315 c 0.47766,-0.66016 4.08386,-2.65621 10.98536,-6.08046 5.07963,-2.52031 9.22734,-6.86836 8.45985,-8.86843 -0.2375,-0.61873 -0.84398,-0.95123 -1.34789,-0.73892 -0.50389,0.21228 -2.3185,0.77387 -4.03246,1.24787 -3.23744,0.89539 -4.20156,2.1543 -1.64982,2.1543 2.14797,0 1.79044,1.79679 -0.7895,3.96766 -1.4634,1.23138 -3.13587,1.8983 -4.76046,1.8983 -1.85834,0 -3.0101,0.56752 -4.46444,2.19975 -1.26974,1.42507 -2.66264,2.19974 -3.9553,2.19974 -1.63994,0 -2.05073,0.37774 -2.30658,2.1209 -0.29809,2.03089 -0.23169,2.08598 1.56658,1.29809 1.03282,-0.4525 2.06541,-1.08198 2.29466,-1.3988 z m 18.17746,-2.47607 c 1.25373,-0.25081 2.1004,-0.74571 1.88152,-1.09989 -0.59939,-0.9698 -2.82393,-0.77586 -5.17707,0.4514 -1.81808,0.94818 -1.89091,1.09595 -0.5421,1.09986 0.857,0.002 2.58393,-0.20065 3.83765,-0.45137 z m 68.90133,-5.32694 c -0.99261,-1.2318 -1.98951,-1.85208 -2.38484,-1.48383 -0.83185,0.77492 1.56048,3.60043 3.04843,3.60043 0.74724,0 0.55953,-0.59875 -0.66359,-2.1166 z m -61.46529,-5.80899 c 0,-0.7295 -0.47273,-1.96684 -1.0505,-2.74969 -0.83303,-1.12868 -1.23987,-1.23659 -1.96521,-0.52134 -0.72911,0.71899 -0.55313,1.26123 0.86721,2.67234 2.22363,2.20922 2.1485,2.1883 2.1485,0.59869 z m 61.59282,-0.14023 c 0,-0.40328 -0.32995,-0.73324 -0.73323,-0.73324 -0.40329,0 -0.73324,0.32996 -0.73324,0.73324 0,0.40328 0.32995,0.73324 0.73324,0.73324 0.40328,0 0.73323,-0.32996 0.73323,-0.73324 z m -100.8216,-0.73316 c 0.24915,-0.40331 1.58859,-0.73326 2.97628,-0.73326 2.29358,0 2.5231,-0.19289 2.5231,-2.12024 0,-1.6501 -0.4065,-2.2223 -1.83313,-2.58036 -1.00821,-0.25302 -2.65801,-0.25302 -3.66625,0 -1.56247,0.39218 -1.83309,0.8814 -1.83309,3.3136 0,2.71582 0.85432,3.70397 1.83309,2.12026 z m 31.16307,-3.29963 c 0,-0.69807 -0.7025,-1.09985 -1.92292,-1.09985 -1.6261,0 -1.78202,0.16988 -1.01009,1.09985 0.50205,0.60493 1.36737,1.09989 1.92292,1.09989 0.55554,0 1.01009,-0.49496 1.01009,-1.09989 z m 2.13961,-5.38702 c 0.90459,-1.69021 -0.27603,-3.04533 -2.65289,-3.04533 -1.98494,0 -2.1682,1.18532 -0.47295,3.05858 1.53119,1.69192 2.21482,1.68904 3.12584,-0.0139 z m 85.48574,0.0709 c 0.67698,-1.65227 1.45894,-32.446224 0.82392,-32.446224 -0.26356,0 -1.05236,0.305872 -1.75265,0.679724 -0.70028,0.373853 -1.87286,0.866928 -2.60574,1.095784 -1.21808,0.380338 -1.29305,1.09318 -0.87303,8.302549 0.55682,9.557573 2.53184,23.651347 3.31432,23.651347 0.31208,0 0.80402,-0.57744 1.09318,-1.28318 z m -115.48879,-2.29752 c 0,-0.67585 -3.02069,-1.70872 -3.52432,-1.20509 -0.1588,0.1588 -0.0712,0.64068 0.19454,1.07079 0.58159,0.94103 3.32976,1.05189 3.32976,0.13441 z m 109.07064,-2.74742 c 1.05721,-0.28331 1.64983,-1.00402 1.64983,-2.006412 0,-1.519632 -0.28257,-1.564278 -9.89887,-1.564278 -10.11674,0 -10.51035,0.119721 -9.45378,2.87301 0.36761,0.95802 1.80308,1.15811 8.24906,1.14983 4.29218,-0.006 8.54637,-0.20896 9.45376,-0.45215 z M 117.56247,99.159036 c 2.60555,-2.379797 3.08976,-4.440836 1.04332,-4.440836 -1.78291,0 -3.06124,1.394478 -2.53516,2.765484 0.34265,0.892867 0.0424,1.023037 -1.47886,0.641203 -2.21743,-0.556539 -3.26261,0.569647 -1.97194,2.124803 1.28825,1.55228 2.29133,1.33094 4.94264,-1.090654 z m 30.70682,-2.738518 c -0.21034,-0.210344 -0.7313,-0.167111 -1.15739,0.09616 -0.52794,0.326297 -0.48509,0.793848 0.13441,1.46778 0.76012,0.826771 0.94996,0.810975 1.15739,-0.09616 0.13635,-0.596834 0.0759,-1.257325 -0.13441,-1.46778 z m 89.70928,-0.23584 c 0,-0.758985 -0.32995,-1.583872 -0.73324,-1.833125 -0.42897,-0.265217 -0.73326,0.495652 -0.73326,1.833125 0,1.337472 0.30429,2.09823 0.73326,1.833124 0.40329,-0.249142 0.73324,-1.074168 0.73324,-1.833124 z m -15.06825,-8.871143 c 0.38313,-0.363598 1.46587,-0.661073 2.40607,-0.661073 0.94023,0 1.90102,-0.499145 2.13514,-1.109225 0.53254,-1.387828 -1.22216,-3.715552 -1.93339,-2.564757 -0.2702,0.437233 -3.30789,0.993717 -6.75033,1.236652 -4.87809,0.344254 -6.76432,0.189559 -8.54919,-0.700759 -2.44551,-1.219996 -3.41082,-0.663014 -2.70504,1.56073 0.43463,1.369371 2.53671,2.709309 5.16792,3.294254 2.12467,0.472318 9.41114,-0.279766 10.22882,-1.055822 z m 14.08737,-7.443629 c -0.20342,-0.504105 -0.36984,-0.09173 -0.36984,0.916562 0,1.008211 0.16656,1.420668 0.36984,0.916563 0.20341,-0.504106 0.20341,-1.32902 0,-1.833125 z m -10.97176,-4.379202 c 5.49073,-1.276559 5.39326,-2.404297 -0.20729,-2.398698 -4.58753,0.0055 -6.80046,0.950428 -5.8441,2.497828 0.62507,1.01137 1.32405,0.999924 6.05142,-0.09921 z m 4.62017,-6.249158 c 0,-0.894531 -0.20535,-0.929449 -1.09989,-0.187065 -0.60492,0.502026 -1.09985,1.407753 -1.09985,2.012679 0,0.89453 0.20535,0.929449 1.09985,0.187065 0.60493,-0.502054 1.09989,-1.407781 1.09989,-2.012707 z m 8.55122,0.88192 c 3.70552,-2.171587 4.05238,-3.268702 1.03337,-3.268702 -2.18721,0 -3.8634,1.196578 -5.2157,3.723395 -1.05961,1.979922 0.27575,1.834732 4.18233,-0.454693 z m -53.881,-1.169557 c 2.54201,-1.801199 4.694,-5.40914 5.31824,-8.91637 0.64847,-3.643331 -0.21284,-9.314251 -1.41473,-9.314251 -1.31495,0 -1.81381,-2.438522 -1.82537,-8.9223 -0.0111,-6.54921 -0.40545,-7.942386 -2.24494,-7.942386 -0.73962,0 -1.54868,-0.329983 -1.79793,-0.733267 -0.26854,-0.434628 0.57549,-0.733239 2.07265,-0.733239 1.38921,0 3.47092,-0.492909 4.62607,-1.095368 1.15515,-0.602432 2.82318,-1.097364 3.70679,-1.099859 0.88359,-0.0022 1.84227,-0.385991 2.13044,-0.852239 0.3802,-0.615153 -0.16102,-0.698625 -1.97316,-0.304348 -5.10266,1.110334 -12.18059,1.605543 -17.17422,1.201621 -4.1379,-0.334721 -5.83526,-0.873634 -8.67213,-2.753373 -3.89494,-2.580857 -7.57907,-3.690166 -8.66124,-2.607989 -0.9596,0.959602 -2.76061,8.731468 -2.79265,12.051079 -0.0138,1.48851 -0.35608,2.910341 -0.75937,3.159567 -0.40328,0.249143 -0.73324,2.219088 -0.73324,4.377456 0,2.158341 -0.65567,6.015895 -1.45701,8.572393 -2.80038,8.933497 -1.6373,11.594141 6.86496,15.704192 l 5.22415,2.525376 8.79898,-0.462286 c 6.94648,-0.364929 9.21263,-0.755354 10.76371,-1.854409 z m -11.45893,-0.571116 c -0.78049,-1.262868 1.03296,-4.486342 2.92955,-5.207442 2.38019,-0.904951 2.73126,-0.902817 2.16516,0.01386 -0.24914,0.403284 -0.0635,0.733238 0.41312,0.733238 0.62696,0 0.6013,0.319341 -0.0928,1.155784 -0.7906,0.952618 -0.78897,1.260928 0.008,1.754281 0.7439,0.459763 0.61662,0.786864 -0.54887,1.410607 -1.84166,0.985652 -4.30906,1.056653 -4.87535,0.140507 z m -17.21296,-3.784197 c -2.67662,-2.676635 -2.92047,-5.417786 -0.7924,-8.908167 1.01347,-1.662217 1.46462,-3.697788 1.4665,-6.616942 10e-4,-2.318911 0.31951,-4.216165 0.70664,-4.216165 0.40724,0 0.65636,2.868245 0.59107,6.80578 -0.0621,3.74321 0.13551,7.20779 0.43925,7.699119 0.30363,0.491329 0.20259,0.893311 -0.22448,0.893311 -1.17607,0 -0.92911,3.360017 0.32334,4.399488 0.60492,0.502027 1.09988,1.20237 1.09988,1.556269 0,1.237954 -1.37225,0.62488 -3.60985,-1.612693 z m 69.44799,-3.548551 c 0.11695,-3.797528 -0.0557,-7.09713 -0.38356,-7.332472 -1.00993,-0.725091 -3.26626,-4.567431 -2.89823,-4.935463 0.19122,-0.191222 1.19234,0.497453 2.22499,1.530107 2.04746,2.047459 3.07291,2.248492 5.92935,1.162463 1.40631,-0.534673 1.88088,-1.237677 1.88088,-2.786325 0,-1.139183 -0.41246,-2.508442 -0.91657,-3.04281 -0.73967,-0.784038 -0.7043,-0.908027 0.18319,-0.642423 0.60492,0.180968 1.52575,1.202564 2.04627,2.270136 0.80127,1.643455 0.7605,2.300427 -0.26605,4.285393 -1.06893,2.067053 -1.10355,2.98029 -0.29274,7.720347 0.93341,5.456751 1.72347,6.339642 4.24322,4.741831 1.57619,-0.999509 3.15898,-4.603209 2.42178,-5.513924 -1.53848,-1.900551 -3.7531,-12.167502 -3.7531,-17.399277 0,-3.291732 -0.35224,-5.841495 -0.8799,-6.369129 -0.68436,-0.68438 -0.68436,-0.879897 0,-0.879897 1.08622,0 1.22024,-7.035607 0.1466,-7.699119 -0.92249,-0.570146 -0.99233,-22.529953 -0.0748,-23.5006118 0.99303,-1.0504177 1.33972,-13.7034902 0.38442,-14.0297652 -1.55392,-0.530718 -2.65281,3.9270212 -2.87584,11.66612447 -0.20009,6.94603693 -0.42767,8.12097053 -1.94658,10.05422353 -1.83956,2.341415 -6.36991,4.079815 -8.70271,3.339399 -3.48137,-1.10493 -4.31687,-3.8755685 -6.00578,-19.9160393 -0.88452,-8.4009557 -1.871,-15.3844547 -2.19223,-15.5188817 -0.3212,-0.134437 -0.58966,-1.454281 -0.59658,-2.932991 -0.0166,-3.687176 -2.50784,-15.239681 -3.55837,-16.505489 -0.60226,-0.725673 -1.84484,-0.919982 -4.19158,-0.655473 -3.96181,0.446556 -8.7987,-0.977908 -10.22236,-3.010502 -1.43882,-2.054166 -3.25085,-0.392631 -3.37107,3.091015 l -0.0917,2.659902 -0.50563,-3.102689 c -0.60981,-3.741796 -1.12309,-4.364314 -2.5927,-3.144629 -0.7952,0.659945 -1.15902,2.540997 -1.26123,6.520407 l -0.14355,5.592893 -0.25663,-4.949423 -0.25662,-4.949426 -4.18266,0.01 c -6.56662,0.0158 -7.02899,0.291062 -8.4335,5.02234 -0.6867,2.3132 -1.24854,5.101361 -1.24854,6.195915 0,1.094557 -0.29611,2.563055 -0.65799,3.263337 -0.36191,0.700279 -1.0157,4.03845 -1.45287,7.418161 -0.51966,4.017346 -1.40532,7.190778 -2.55797,9.165599 -0.96972,1.661371 -2.34729,5.1654257 -3.06127,7.7867864 -0.714,2.6213606 -1.54707,5.0960763 -1.85122,5.4993604 -0.30418,0.4032841 -1.10454,2.8650023 -1.77859,5.4704971 -1.5676,6.0595991 -1.02253,10.1674881 1.67281,12.6070631 2.90216,2.626778 9.53002,5.664573 13.55655,6.213491 5.18053,0.706274 10.99955,-2.190377 13.42591,-6.683259 0.43853,-0.811973 1.5109,-2.791285 2.38306,-4.398463 1.81789,-3.349875 2.11054,-8.821231 0.58994,-11.0297326 -0.5477,-0.7954829 -1.21662,-2.65183142 -1.48646,-4.12520968 -0.49809,-2.71991202 -1.5006,-3.54072482 -4.36022,-3.57005382 -1.55134,-0.015797 -1.54543,-0.05163 0.24332,-1.4755677 l 1.83313,-1.4592666 -2.01645,-1.5185787 c -1.10903,-0.835221 -2.01642,-2.0594209 -2.01642,-2.7204439 0,-0.930464 0.25773,-0.833858 1.14145,0.427777 1.10114,1.5721042 3.25804,2.2563569 3.25804,1.0335846 0,-0.3278346 -0.9899,-1.5444326 -2.19975,-2.7035496 -1.20985,-1.159118 -2.19974,-2.552305 -2.19974,-3.095971 0,-0.543674 -0.50247,-1.755339 -1.11657,-2.692598 -1.23992,-1.892345 -3.4214,-11.358753 -2.83588,-12.306138 0.95553,-1.546075 1.57772,-0.205882 1.99905,4.305873 0.26798,2.869384 0.9213,5.371885 1.57253,6.023106 0.99666,0.99666 1.11411,0.440462 1.11411,-5.275611 0,-3.514353 0.24748,-6.388864 0.54994,-6.3878 0.30246,7.35e-4 0.57339,2.24091 0.60207,4.97745 0.0313,2.990258 0.51943,5.912239 1.22329,7.323159 0.64414,1.291214 1.3885,3.33708 1.6541,4.546375 0.26549,1.209295 0.83899,2.418787 1.2742,2.687756 0.54587,0.33736 0.61873,-0.285466 0.23501,-2.008021 -1.31084,-5.88279 -1.50469,-7.792742 -1.07198,-10.562798 0.40254,-2.577036 0.47077,-2.37155 0.56217,1.693083 0.11196,4.977935 0.88707,5.383832 2.61062,1.367093 0.90692,-2.113625 0.99208,-1.453145 0.92912,7.205297 -0.0654,8.9818989 1.13466,18.8366087 2.50614,20.5810509 0.69164,0.8797314 3.58474,15.1761421 3.58818,17.7311711 0.001,0.907389 0.3322,1.649801 0.73548,1.649801 0.40329,0 0.73324,1.267386 0.73324,2.816394 0,1.549035 0.36601,5.535983 0.81333,8.85989 0.8449,6.278119 -0.0416,16.441865 -1.56696,17.967317 -1.13786,1.137853 -0.82575,5.426349 0.55271,7.594528 2.67204,4.202807 7.94962,6.04311 16.69899,5.822955 l 6.59923,-0.166003 0.21256,-6.904578 z m -19.43322,1.02894 c -2.00708,-2.007109 -2.46324,-2.938277 -2.06533,-4.216193 0.2809,-0.902068 0.68956,-3.37853 0.90816,-5.503226 0.21866,-2.124697 0.68605,-4.04146 1.03878,-4.259453 1.02384,-0.632778 0.74106,-8.677039 -0.38715,-11.01255 -1.02855,-2.129297 -3.04448,-16.998376 -2.39294,-17.649944 0.37305,-0.373049 1.95493,6.391327 1.95493,8.359582 0,1.146943 1.51697,4.805184 4.38424,10.572684 0.87921,1.768525 1.08473,2.924891 0.60507,3.404553 -0.47964,0.479634 -0.32394,1.340521 0.45843,2.534549 0.65163,0.994492 0.98978,2.316251 0.7515,2.937195 -0.23833,0.620973 -0.0754,1.350193 0.36197,1.620481 0.43737,0.270205 0.59642,0.813081 0.35348,1.206166 -0.24304,0.393086 -0.1236,1.112718 0.26494,1.599142 1.43882,1.800866 1.72662,4.054845 0.55005,4.307729 -0.95755,0.20591 -0.88726,0.635189 0.45985,2.809326 0.87458,1.411495 1.67693,3.308776 1.78302,4.216165 0.17487,1.496602 -0.11584,1.649829 -3.13002,1.649829 -2.82233,0 -3.71098,-0.388097 -5.89895,-2.576035 z m 17.38767,-14.809939 c 0,-0.421132 0.57743,-1.218527 1.28318,-1.772017 1.18693,-0.930863 1.20251,-0.89636 0.20757,0.460152 -0.59165,0.806568 -1.16908,1.603991 -1.28318,1.772017 -0.11418,0.167942 -0.20757,-0.03908 -0.20757,-0.460152 z m 3.86348,-3.653114 c 0.71346,-0.185956 1.70332,-0.173762 2.19975,0.02771 0.49643,0.200921 -0.0873,0.352984 -1.29712,0.338019 -1.20986,-0.01386 -1.61605,-0.179305 -0.90263,-0.365178 z M 169.404,20.370643 c -4.0192,-1.751232 -8.03567,-10.231755 -5.5681,-11.7567906 0.35675,-0.220598 0.8738,-1.9023804 1.14899,-3.7375559 0.60335,-4.0233079 2.34871,-8.413346 3.34495,-8.413346 0.94455,0 0.93695,1.9812247 -0.0111,2.56636357 -0.40328,0.24914268 -0.73324,2.43550133 -0.73324,4.85833763 0,3.6745636 0.334,4.8430123 2.01398,7.0455833 1.36984,1.795989 1.72164,2.737937 1.09986,2.945177 -1.49333,0.497786 -1.04404,2.737798 0.91903,4.58198 3.08801,2.901058 2.07096,3.777934 -2.2156,1.910251 z m 21.85641,-52.870989 c 0.006,-2.016435 0.14799,-2.754307 0.31643,-1.639727 0.1685,1.114582 0.16407,2.764389 -0.0111,3.666241 -0.17404,0.901849 -0.31194,-0.01025 -0.30643,-2.026514 z m 39.38569,98.29042 c 0,-0.537971 0.54216,-1.186185 1.20481,-1.440482 0.66265,-0.254131 0.99463,-0.672519 0.73776,-0.929394 -0.64772,-0.647715 -3.40907,1.964486 -3.40907,3.22486 0,0.566238 0.32995,0.825579 0.73323,0.576353 0.40329,-0.249142 0.73327,-0.893338 0.73327,-1.431337 z m -0.44507,-3.761389 c 0.68831,-1.793717 0.53907,-2.030721 -0.65482,-1.039887 -1.21894,1.011619 -1.45932,2.199744 -0.44507,2.199744 0.36013,0 0.85509,-0.521924 1.09989,-1.159857 z m 0,-3.666222 c 0.7763,-2.023016 0.51119,-2.740874 -0.65482,-1.773153 -1.20029,0.996155 -1.49421,2.932983 -0.44507,2.932983 0.36013,0 0.85509,-0.521925 1.09989,-1.15983 z M 190.32537,45.407265 c 0.006,-0.907389 0.49224,-3.299602 1.08414,-5.31605 l 1.07619,-3.666222 -1.81375,2.199744 c -1.29773,1.57395 -1.81475,3.086265 -1.81736,5.316051 -0.002,1.713957 0.32633,3.116306 0.72961,3.116306 0.40328,0 0.73681,-0.742439 0.74117,-1.649829 z m 70.16644,-28.866574 c 0.8886,-0.238334 2.1696,-1.278637 2.84666,-2.311983 1.1575,-1.76653 1.15415,-1.934971 -0.0563,-2.819996 -1.35626,-0.991721 -5.16579,-0.629563 -6.78918,0.645416 -0.5041,0.395912 -0.91656,1.480168 -0.91656,2.409423 0,1.467918 0.58664,1.955008 2.93298,2.435279 0.20176,0.04129 1.09368,-0.119998 1.98231,-0.358139 z m 0.27381,-7.6125143 c 1.41651,0 2.14349,-0.3730489 2.14349,-1.0998582 0,-1.2967336 -1.55577,-1.4505702 -2.7358,-0.2704819 -0.61701,0.6169815 -1.51875,-0.650376 -3.52156,-4.9494314 -6.82216,-14.6438802 -7.33652,-15.5869312 -8.52573,-15.6317552 -1.50261,-0.05662 -5.01461,3.9896171 -5.01461,5.77745 0,0.7212473 0.62926,2.1112944 1.3983,3.0890007 0.76908,0.9777035 2.79223,4.56930166 4.49593,7.9813093 1.70371,3.4120076 3.59328,6.7733 4.19907,7.469569 1.03512,1.189677 1.23136,1.15656 3.25945,-0.549943 1.21935,-1.0260298 3.09031,-1.8158315 4.30146,-1.8158315 z M 159.99173,5.8865021 c 1.63431,-1.3128073 1.64964,-3.5300109 0.0322,-4.6629311 -3.27802,-2.2959925 -5.63564,-0.40885448 -5.63564,4.510979 0,1.6957222 0.19122,1.8027787 2.38307,1.3340912 1.31067,-0.280237 2.75983,-0.8122218 3.22037,-1.1821391 z M 276.65741,2.8664993 c 0.5041,-0.3944158 0.91656,-1.3366408 0.91656,-2.09382388 0,-0.75721084 0.30468,-1.37671423 0.67706,-1.37671423 1.08506,0 -1.15445,-3.88002169 -3.58183,-6.20558989 -2.53688,-2.4304686 -3.05775,-1.7380792 -0.63367,0.8422658 1.49857,1.5951367 1.51077,1.6970662 0.20314,1.6970662 -0.76522,0 -3.42949,-2.0201065 -5.92064,-4.4891132 l -4.52938,-4.4891211 -2.6395,2.106064 c -1.45174,1.1583282 -2.6395,2.3203419 -2.63953,2.5822438 -3e-5,0.8754386 10.90111,11.3547788 12.60074,12.1131813 1.76839,0.7890811 4.01688,0.5108118 5.54713,-0.6864588 z M 158.05452,-2.0705525 c 0,-0.8065738 -0.32996,-1.466497 -0.73324,-1.466497 -0.40329,0 -0.73324,0.6599232 -0.73324,1.466497 0,0.8065766 0.32995,1.46651369 0.73324,1.46651369 0.40328,0 0.73324,-0.65993709 0.73324,-1.46651369 z m 5.13275,-2.9329913 c 0,-0.4032869 -0.32998,-0.7332499 -0.73327,-0.7332499 -0.40328,0 -0.73324,0.329963 -0.73324,0.7332499 0,0.4032869 0.32996,0.7332471 0.73324,0.7332471 0.40329,0 0.73327,-0.3299602 0.73327,-0.7332471 z m 97.19017,-8.8541262 c 1.49383,-2.366387 1.70592,-3.205524 1.0193,-4.032863 -1.07024,-1.289565 -2.25947,-1.362171 -2.09923,-0.128175 0.3772,2.904927 -0.15963,4.214572 -1.90756,4.653268 -1.47818,0.370993 -1.68242,0.670363 -1.0101,1.480465 1.30607,1.573733 1.96368,1.249219 3.99759,-1.972703 z m -13.9307,-0.003 c 0.72899,-1.179584 -1.13423,-7.11709 -2.38388,-7.596632 -2.43298,-0.933623 -2.96515,0.888973 -1.64625,5.638126 0.76395,2.750796 2.89914,3.788443 4.03013,1.958506 z m 11.32953,-3.275551 c 0,-0.524873 -1.01519,-1.721828 -2.256,-2.659896 -1.24081,-0.938065 -3.0542,-2.494685 -4.0298,-3.459147 -0.97559,-0.964463 -2.60009,-2.182258 -3.60999,-2.7062 -1.73546,-0.900369 -1.83617,-0.846836 -1.83617,0.976027 0,1.383925 1.07796,2.924882 3.81665,5.455878 2.09917,1.939976 4.24393,3.527226 4.76611,3.527226 0.5222,0 0.94946,0.370363 0.94946,0.823027 0,0.568641 0.33995,0.540886 1.09985,-0.08979 0.60496,-0.502049 1.09989,-1.342256 1.09989,-1.867135 z m -110.15525,0.263166 c -0.45319,-1.359604 -2.03169,-1.585107 -2.03169,-0.290241 0,0.638534 0.52242,1.160974 1.16097,1.160974 0.63854,0 1.03035,-0.391833 0.87072,-0.870733 z m 9.44723,-3.863757 c -0.23888,-0.622322 -0.99064,-1.131495 -1.67072,-1.131495 -1.1284,0 -1.12012,0.128617 0.0948,1.470992 1.45888,1.612058 2.25877,1.439753 1.57603,-0.339497 z m 5.13412,-0.800097 c 0.43961,-1.145613 -1.55555,-3.196631 -3.15284,-3.241075 -1.39101,-0.03871 -1.74197,2.057966 -0.54484,3.255081 1.44076,1.44078 3.14189,1.434336 3.69768,-0.01413 z m -8.54733,-3.41104 c 0,-1.184503 -0.21672,-1.396316 -0.81599,-0.797135 -0.44882,0.448798 -0.59431,1.174715 -0.32336,1.613145 0.75846,1.227223 1.13935,0.954424 1.13935,-0.81601 z m 81.47059,-0.364663 c 3.70244,-1.695498 5.6955,-4.39501 7.20141,-9.754055 0.50995,-1.81479 1.22501,-3.87257 1.58897,-4.572849 0.36399,-0.700282 0.66914,-2.185109 0.67809,-3.299616 0.008,-1.114511 0.66157,-2.851287 1.45021,-3.859503 1.73081,-2.212717 1.8076,-3.630181 0.38161,-7.043031 -2.18203,-5.222385 -6.03937,-6.704285 -9.94148,-3.819313 -1.47712,1.092076 -3.57114,1.70436 -6.57105,1.921358 -3.92371,0.28381 -4.64675,0.596036 -6.64136,2.867763 -2.64593,3.013554 -2.61965,5.093089 0.0596,4.721883 0.99826,-0.138317 2.33595,-0.715738 2.97264,-1.283185 1.07411,-0.957298 5.80824,-1.495019 5.80824,-0.659718 0,1.351603 -4.39985,8.149158 -6.1058,9.433141 -1.14013,0.858112 -2.95491,2.371985 -4.03287,3.364157 -1.29471,1.191681 -2.64432,1.732878 -3.97636,1.59455 -2.50318,-0.259951 -2.59776,0.818033 -0.20924,2.383153 2.29893,1.50631 4.35897,1.501685 6.6737,-0.01496 1.00663,-0.659557 2.00226,-1.027158 2.21252,-0.816891 0.77268,0.772661 -4.70866,3.482585 -7.04417,3.482585 -2.36372,0 -2.38459,0.02824 -1.08301,1.466494 1.31461,1.452618 6.54899,2.129477 7.08807,0.916562 0.33871,-0.762116 5.13686,-3.234401 5.52462,-2.846622 0.8209,0.820871 -5.24059,4.395636 -7.53503,4.443804 -2.66192,0.05587 -3.27022,0.704365 -1.35144,1.440671 1.89756,0.728168 4.94863,0.500472 6.90588,-0.51537 3.56712,-1.851363 4.88168,-2.063924 2.74589,-0.444012 -1.11111,0.842751 -1.82328,1.850895 -1.58259,2.240316 0.24055,0.389428 0.65484,0.593827 0.92033,0.454224 0.26549,-0.139591 2.00359,-0.950281 3.8624,-1.801503 z m -7.35143,-9.228295 c 0.16794,-0.114123 0.96545,-0.691547 1.77201,-1.283184 1.35652,-0.995025 1.39102,-0.979464 0.46016,0.207489 -0.55349,0.70575 -1.35089,1.283182 -1.77202,1.283182 -0.4211,0 -0.62818,-0.09337 -0.46015,-0.207487 z m -63.14708,8.671956 c 1.09115,-1.314778 0.39721,-2.598484 -1.40468,-2.598484 -1.64055,0 -2.4242,1.717178 -1.29773,2.843638 1.08766,1.087656 1.63766,1.037759 2.70241,-0.245154 z m -20.51552,-0.215416 c -0.006,-0.302466 -0.3182,-1.035325 -0.69339,-1.628573 -0.84478,-1.335826 -1.83589,-0.500391 -1.24211,1.047012 0.43854,1.142817 1.95626,1.598853 1.9355,0.581561 z m 12.89009,-2.94707 c -0.24083,-0.240967 -0.81458,-0.06161 -1.27471,0.398512 -0.62662,0.626634 -0.57757,1.150804 0.19566,2.088539 0.95558,1.159098 1.05011,1.129539 1.2747,-0.398506 0.1333,-0.907744 0.0455,-1.847594 -0.19538,-2.088545 z m 12.68164,-1.144449 c 1.19289,-3.93251 1.6496,-8.557011 0.84509,-8.557011 -0.40806,0 -0.74397,0.907394 -0.74643,2.016431 -0.002,1.10904 -0.44259,2.855835 -0.97801,3.881765 -0.53542,1.025933 -1.19311,2.963446 -1.46151,4.305582 -0.41532,2.076486 -0.32977,2.308882 0.57386,1.558943 0.58405,-0.48472 1.3792,-1.927289 1.767,-3.20571 z m -16.89383,0.367842 c 0.15242,-1.034956 -0.15353,-1.592371 -0.8733,-1.592371 -1.44509,0 -2.0471,1.034613 -1.4728,2.531187 0.61809,1.610695 2.05558,1.035464 2.3461,-0.938816 z m 7.46476,-0.125874 c 0,-0.403284 -0.32996,-0.733247 -0.73324,-0.733247 -0.40328,0 -0.73324,0.329963 -0.73324,0.733247 0,0.403287 0.32996,0.73325 0.73324,0.73325 0.40328,0 0.73324,-0.329963 0.73324,-0.73325 z m -14.66493,-1.833119 c 0,-0.557329 -0.32998,-1.217249 -0.73327,-1.466497 -0.4175,-0.258039 -0.73323,0.373437 -0.73323,1.466497 0,1.09306 0.31573,1.724533 0.73323,1.466497 0.40329,-0.249254 0.73327,-0.909169 0.73327,-1.466497 z m 20.53092,1.099872 c 0,-0.403287 -0.34943,-0.733247 -0.77652,-0.733247 -0.42709,0 -0.57259,0.32996 -0.32334,0.733247 0.24915,0.403287 0.59867,0.733247 0.7765,0.733247 0.17792,0 0.32336,-0.32996 0.32336,-0.733247 z m -10.6321,-2.199744 c -0.24914,-0.403287 -0.78312,-0.733247 -1.18641,-0.733247 -0.40327,0 -0.52931,0.32996 -0.28007,0.733247 0.24915,0.403287 0.78313,0.733247 1.18641,0.733247 0.40328,0 0.52933,-0.32996 0.28007,-0.733247 z m 6.73351,-0.870733 c -0.23418,-0.584934 -0.40783,-0.411191 -0.443,0.443008 -0.0319,0.772961 0.14134,1.206039 0.3851,0.962387 0.2436,-0.243656 0.26965,-0.876085 0.0579,-1.405395 z m -13.69935,-1.329011 c 0,-0.403287 -0.49493,-0.733247 -1.09985,-0.733247 -0.60496,0 -1.09989,0.32996 -1.09989,0.733247 0,0.403287 0.49493,0.733247 1.09989,0.733247 0.60492,0 1.09985,-0.32996 1.09985,-0.733247 z m 4.39949,-3.022772 c 0,-0.883996 -2.00797,-0.813743 -2.56636,0.08979 -0.79255,1.282348 0.38272,2.36595 1.53177,1.412315 0.56904,-0.472249 1.03459,-1.148193 1.03459,-1.502095 z m 4.03286,-1.376717 c 0.24914,-0.403287 -0.0418,-0.733247 -0.64672,-0.733247 -0.60493,0 -1.30377,0.32996 -1.55303,0.733247 -0.24914,0.403287 0.0419,0.733247 0.64669,0.733247 0.60493,0 1.3038,-0.32996 1.55306,-0.733247 z m 63.54014,-6.725175 c -2.51751,-5.273301 -6.03696,-9.089512 -7.76951,-8.424667 -1.75196,0.672286 -1.35887,1.951377 0.59969,1.951377 1.98288,0 2.99395,1.022757 3.62429,3.666241 0.4824,2.023089 4.87233,8.335644 5.41765,7.790343 0.18872,-0.188728 -0.65376,-2.431195 -1.87212,-4.983294 z m -58.46861,2.797259 c -0.25413,-0.66265 -0.7686,-1.204819 -1.14292,-1.204819 -0.37457,0 -0.31258,0.687647 0.13773,1.529298 0.93367,1.744581 1.70365,1.496001 1.00508,-0.324479 z m 11.71215,0.575029 c 0.30859,-0.804137 0.0734,-1.081539 -0.77736,-0.916559 -0.67091,0.130114 -1.35718,0.649035 -1.52504,1.153142 -0.44887,1.348195 1.78225,1.118937 2.3024,-0.236588 z m -4.6851,-0.313354 c 0,-0.403284 -0.32996,-0.733247 -0.73324,-0.733247 -0.40329,0 -0.73324,0.329963 -0.73324,0.733247 0,0.403287 0.32995,0.73325 0.73324,0.73325 0.40328,0 0.73324,-0.329963 0.73324,-0.73325 z m 17.9646,-8.432352 v -7.332479 h -6.21516 -6.2151 l 0.2328,6.232607 c 0.25136,6.734474 0.55773,7.24878 4.86504,8.169131 1.20985,0.25851 3.35461,0.423487 4.76611,0.366625 l 2.56636,-0.103398 z m -9.42996,0.591109 c -0.82577,-0.825777 -0.50294,-1.690981 0.63098,-1.690981 0.60493,0 1.09986,0.310486 1.09986,0.689973 0,0.92461 -1.14503,1.58682 -1.73084,1.001008 z m 4.66382,-1.001008 c 0,-0.830374 0.32998,-1.305843 0.73327,-1.056598 0.40328,0.249254 0.73324,0.928646 0.73324,1.509774 0,0.581129 -0.32996,1.056595 -0.73324,1.056595 -0.40329,0 -0.73327,-0.679397 -0.73327,-1.509771 z m -11.23107,5.771777 c -0.23418,-0.584934 -0.40783,-0.411191 -0.443,0.443005 -0.0319,0.772961 0.14134,1.206039 0.38511,0.962389 0.2436,-0.243655 0.26965,-0.876087 0.0579,-1.405394 z m 38.20763,-4.380161 c 0.14466,-3.816733 0.55604,-5.902238 1.28318,-6.5057 2.32412,-1.928853 1.05571,-2.329684 -5.71235,-1.80519 -3.73041,0.289091 -7.19499,0.859462 -7.69909,1.267499 -1.43528,1.161736 -1.17663,9.090193 0.36661,11.237598 1.17555,1.635781 1.71371,1.770354 6.41591,1.604429 l 5.13276,-0.181106 z m -9.37861,-1.305065 c 0,-0.379484 0.32999,-0.893901 0.73327,-1.143149 0.40329,-0.249253 0.73324,0.06122 0.73324,0.689973 0,0.628732 -0.32995,1.143149 -0.73324,1.143149 -0.40328,0 -0.73327,-0.310486 -0.73327,-0.689973 z m 6.03402,-0.180774 c 0.45323,-1.359604 2.03172,-1.585107 2.03172,-0.290241 0,0.638534 -0.52245,1.160974 -1.16096,1.160974 -0.63855,0 -1.03038,-0.391833 -0.87076,-0.870733 z m -13.36649,2.337228 c 0,-0.403287 -0.32995,-0.733247 -0.73324,-0.733247 -0.40328,0 -0.73326,0.32996 -0.73326,0.733247 0,0.403287 0.32998,0.73325 0.73326,0.73325 0.40329,0 0.73324,-0.329963 0.73324,-0.73325 z m -2.93298,-0.323348 c 0,-0.177837 -0.32998,-0.527279 -0.73327,-0.776524 -0.40328,-0.249254 -0.73324,-0.103731 -0.73324,0.323347 0,0.427087 0.32996,0.776525 0.73324,0.776525 0.40329,0 0.73327,-0.145495 0.73327,-0.323348 z M 84.145231,-58.930904 c 0.748952,-1.643787 0.615706,-2.101583 -1.1156,-3.832887 -1.901299,-1.90131 -1.966148,-1.913717 -1.966148,-0.376271 0,0.874427 0.331174,1.794542 0.735954,2.044704 0.404753,0.250168 0.53398,1.259515 0.287138,2.243022 -0.602903,2.402156 0.955444,2.342684 2.058656,-0.07857 z m 69.693129,-0.348278 c 1.91559,-1.202938 3.48292,-2.708406 3.48292,-3.345488 0,-0.970858 -0.42161,-0.897767 -2.60494,0.451614 -1.43271,0.885462 -2.79432,1.420529 -3.02584,1.189028 -0.23141,-0.231489 0.95264,-2.061468 2.63142,-4.066601 2.42009,-2.890529 2.95662,-4.027108 2.59017,-5.487109 -0.33275,-1.325874 0.0502,-2.520259 1.36793,-4.266079 2.58584,-3.426 4.32056,-7.973508 3.81299,-9.995748 -0.28334,-1.129019 0.35395,-3.335904 1.85045,-6.407731 1.28664,-2.641093 2.58856,-6.845546 2.98369,-9.635784 0.38558,-2.7226 1.02168,-5.27083 1.41358,-5.66272 0.39189,-0.39189 0.71251,-1.9469 0.71251,-3.45559 0,-1.50869 0.36933,-2.97133 0.82073,-3.25031 0.5993,-0.37037 0.68778,2.23947 0.32801,9.67226 -0.52065,10.755822 0.89697,30.266673 2.39515,32.965049 0.43108,0.776399 0.98732,3.298172 1.2361,5.603928 0.43258,4.009349 0.55413,4.210589 2.7856,4.611545 1.28329,0.230603 4.31302,0.32383 6.73276,0.207185 l 4.39949,-0.212062 0.21921,-3.375155 c 0.1915,-2.949519 -0.0222,-3.533026 -1.69143,-4.626979 -1.58049,-1.035566 -1.87167,-1.719212 -1.68561,-3.957325 0.1685,-2.026286 0.65875,-2.889584 1.95293,-3.438751 1.69412,-0.718883 1.71853,-0.869682 1.24611,-7.699104 -0.38514,-5.567694 -0.92042,-7.885702 -2.66683,-11.548659 -1.2017,-2.520539 -2.43373,-4.582798 -2.73783,-4.582798 -1.05934,0 -3.06877,-4.275244 -3.06877,-6.529054 0,-1.26129 -0.38627,-2.26992 -0.86931,-2.26992 -1.95676,0 -4.26345,-3.1814 -4.26345,-5.88016 0,-1.7015 -0.50624,-3.14967 -1.37627,-3.93705 -0.86651,-0.78417 -1.50716,-2.60763 -1.72964,-4.92292 -0.59814,-6.22516 -2.34774,-6.45352 -6.26232,-0.81737 -3.74219,5.38795 -6.02998,8.98146 -6.02998,9.47155 0,0.24648 -0.79867,1.49526 -1.77479,2.77505 -2.14864,2.81701 -6.2909,11.42426 -6.2909,13.071895 0,0.652643 1.44827,2.600456 3.2184,4.328473 2.69408,2.629993 3.29435,3.739163 3.68439,6.808099 0.35226,2.771825 0.2738,3.353195 -0.32189,2.383057 -1.3513,-2.201 -2.18143,-1.417195 -2.18143,2.059706 0,2.245845 -0.26494,3.179188 -0.80712,2.844065 -0.44989,-0.278048 -0.62634,-1.402651 -0.3987,-2.540865 0.44936,-2.246865 -1.6697,-10.516135 -3.39984,-13.267244 -0.60326,-0.95931 -1.4892,-2.981548 -1.96873,-4.493876 -1.15628,-3.64683 -2.48286,-3.47169 -4.01094,0.529562 -1.58,4.137109 -7.13685,9.677885 -10.80953,10.778256 -1.54127,0.461778 -2.80231,1.304543 -2.80231,1.872818 0,1.210468 2.60666,0.634156 4.45721,-0.985458 1.63381,-1.429907 1.90186,-1.29729 2.39865,1.186601 0.25801,1.290196 0.90229,2.199745 1.55815,2.199745 1.03642,0 1.46135,1.261789 1.17294,3.482928 -0.0654,0.504108 0.22531,0.91656 0.64636,0.91656 0.42096,0 0.76541,1.166473 0.76541,2.592165 0,1.425692 0.53121,3.402917 1.18048,4.393826 0.64926,0.99092 0.97354,2.340977 0.7206,3.000138 -0.25303,0.659161 -0.0626,1.677091 0.42282,2.262077 1.02021,1.229268 1.46382,7.549492 0.52991,7.549492 -0.3444,0 -0.83318,-0.824904 -1.08623,-1.83312 -0.25302,-1.008216 -0.71849,-1.833119 -1.03434,-1.833119 -0.31585,0 -0.76373,-0.742415 -0.99527,-1.649809 -0.39677,-1.554947 -4.83037,-8.884841 -6.02155,-9.955177 -0.30213,-0.271479 -0.28719,0.166308 0.0333,0.972887 0.32036,0.806574 0.97079,2.456381 1.44536,3.666242 2.4608,6.27339 9.03517,14.308258 11.68792,14.284405 0.85221,-0.0078 3.11681,-0.998156 5.03241,-2.201094 z m 40.73191,0.60188 c 1.47967,-1.479652 1.0298,-15.984808 -0.49574,-15.984808 -2.19417,0 -4.16974,13.500601 -2.30444,15.748145 1.11773,1.346786 1.64548,1.391388 2.80018,0.236671 z m -2.41971,-4.986088 c -0.24914,-0.403286 -0.10364,-0.733247 0.32334,-0.733247 0.42708,0 0.77652,0.329961 0.77652,0.733247 0,0.403287 -0.14549,0.733248 -0.32333,0.733248 -0.17792,0 -0.52727,-0.329961 -0.77653,-0.733248 z m 19.25505,2.367454 c 0.16988,-0.512687 -1.61849,-2.714566 -3.97384,-4.893068 -5.30779,-4.909227 -5.85136,-5.46313 -7.5955,-7.739859 l -1.40432,-1.83312 -0.0249,7.393582 c -0.0139,4.066477 0.20785,7.625817 0.49169,7.909657 0.93064,0.930655 12.17013,0.178252 12.50635,-0.837194 z M 97.484673,-68.973792 c 4.881727,-4.533871 11.020617,-10.428085 13.641987,-13.098251 5.9332,-6.04365 17.90211,-16.787253 18.70186,-16.787253 0.32757,0 2.25686,-1.705554 4.28736,-3.790134 3.32252,-3.411 3.54924,-3.84593 2.26656,-4.34795 -0.78387,-0.3068 -2.26955,-0.58101 -3.30151,-0.60935 -1.03194,-0.0284 -2.51679,-0.53599 -3.29961,-1.1281 -1.62402,-1.22834 -5.59609,-1.45684 -7.48256,-0.43044 -0.70029,0.38101 -3.58297,1.04671 -6.40599,1.47932 -9.15853,1.40348 -15.38208,2.58381 -16.131448,3.0594 -0.403284,0.25593 -2.21809,0.68757 -4.032869,0.95915 -6.930628,1.03721 -15.111792,2.75235 -17.041525,3.57268 -2.216428,0.942197 -2.193925,2.871299 0.05737,4.901665 1.335117,1.20419 2.414024,4.076764 3.855559,10.265471 0.516632,2.218076 1.178315,4.362826 1.470385,4.766113 0.656169,0.906059 1.859702,7.884573 2.497552,14.48165 0.263276,2.722181 0.830124,4.949423 1.259847,4.949423 0.429723,0 4.775447,-3.70953 9.657175,-8.243394 z m 7.775997,-12.602577 c 0,-0.201642 0.65994,-0.719806 1.4665,-1.151471 0.80657,-0.431663 1.46651,-0.619864 1.46651,-0.418222 0,0.201642 -0.65994,0.719806 -1.46651,1.151472 -0.80656,0.431662 -1.4665,0.619863 -1.4665,0.418221 z m 4.39949,-3.692042 c 0,-0.187453 0.74241,-0.736417 1.64983,-1.219921 1.49596,-0.797129 1.55596,-0.76535 0.64344,0.34083 -0.93696,1.135816 -2.29327,1.65574 -2.29327,0.879091 z m 3.66625,-2.414417 c 0,-0.812499 3.78422,-3.843989 4.79847,-3.843989 0.29656,0 1.00625,-0.577432 1.57706,-1.283182 0.93197,-1.152264 0.954,-1.11063 0.21616,0.408043 -0.45192,0.93017 -1.37752,1.886736 -2.05688,2.125694 -0.67937,0.238972 -1.97762,1.102741 -2.88501,1.919518 -0.90742,0.816773 -1.64983,1.120037 -1.64983,0.673916 z M 98.33683,-91.83349 c 0.782208,-0.571955 1.578135,-0.883974 1.76872,-0.693381 0.40356,0.40355 -1.487264,1.705585 -2.500823,1.722077 -0.379533,0.0058 -0.05016,-0.45674 0.732103,-1.028696 z m 3.62424,-1.893071 c 2.01575,-0.866199 3.17348,-0.866199 1.83312,0 -0.60493,0.390941 -1.59482,0.692655 -2.19974,0.670482 -0.72523,-0.02661 -0.60036,-0.254962 0.36662,-0.670482 z m -19.064463,-1.466494 c 1.209853,-0.307856 2.859682,-0.565892 3.66625,-0.573408 1.149132,-0.01081 1.069789,0.113375 -0.366619,0.573408 -1.008238,0.322885 -2.65804,0.580915 -3.66625,0.573405 -1.646586,-0.01219 -1.609284,-0.07061 0.366619,-0.573405 z m 5.499375,-1.466497 c 0,-0.403287 0.349437,-0.733247 0.776499,-0.733247 0.42709,0 0.572612,0.32996 0.323359,0.733247 -0.249143,0.403287 -0.598663,0.733247 -0.776527,0.733247 -0.17792,0 -0.323331,-0.32996 -0.323331,-0.733247 z m 101.921458,31.119766 c 0,-1.55304 -0.29687,-2.426156 -0.73324,-2.156467 -0.40328,0.249254 -0.73327,1.423586 -0.73327,2.609643 0,1.186058 0.32999,2.156468 0.73327,2.156468 0.40328,0 0.73324,-1.174341 0.73324,-2.609644 z m 27.78332,0.03614 c 1.77071,-1.407578 3.56423,-2.559241 3.98559,-2.559241 1.08206,0 4.16026,-3.012074 4.16026,-4.070897 0,-2.183072 -1.95065,-2.55606 -5.39639,-1.03185 -1.87142,0.827822 -3.40258,1.787301 -3.40258,2.132182 0,0.344878 -1.23738,1.26879 -2.74969,2.053146 -2.94997,1.529975 -3.7737,3.27468 -2.35383,4.985509 1.2969,1.562654 2.18586,1.329648 5.75664,-1.50884 z m -133.371028,0.830155 c 0,-1.168462 -2.037871,-3.062426 -2.64349,-2.456815 -0.561139,0.561142 1.061531,3.466907 1.936052,3.466907 0.389095,0 0.707438,-0.45454 0.707438,-1.010092 z m 143.132728,-1.812121 c 2.07343,-1.934089 2.87936,-3.203187 2.56099,-4.032863 -0.74931,-1.952655 -2.07764,-1.394595 -6.74323,2.833004 l -4.39949,3.986488 2.7781,0.01774 c 2.22327,0.01413 3.3823,-0.545822 5.80363,-2.804424 z m 5.78854,-0.399135 c 2.58305,-4.235983 1.4021,-4.59094 -2.5392,-0.763194 -1.48075,1.438074 -2.52092,2.891928 -2.31152,3.230779 0.73249,1.185163 3.47365,-0.209263 4.85072,-2.467585 z m -20.02675,-3.348364 c 1.64775,-1.193623 4.17199,-2.661617 5.6094,-3.262198 2.91815,-1.219289 3.28705,-2.52969 1.2349,-4.386848 -1.30183,-1.178132 -1.54673,-1.159932 -4.39949,0.327014 -1.66152,0.866025 -3.02094,1.866813 -3.02094,2.223971 0,0.35715 -1.07237,1.103201 -2.38304,1.65788 -1.31067,0.554688 -3.02987,1.734125 -3.82039,2.620975 -1.22518,1.374451 -1.2793,1.712428 -0.36665,2.289721 1.89653,1.199593 4.08068,0.75015 7.14621,-1.470515 z M 191.234,-73.511684 c 3.87369,-4.331751 5.22876,-7.016423 3.54151,-7.016423 -1.14799,0 -8.85077,9.089953 -8.85426,10.448786 -0.006,2.097646 0.87771,1.527106 5.31275,-3.432363 z m 51.30507,-1.33375 c 0.51162,-1.109037 1.17965,-2.016432 1.48447,-2.016432 0.30484,0 0.56161,-0.412451 0.57056,-0.916559 0.008,-0.504108 0.66157,-1.741466 1.45021,-2.749682 1.85505,-2.371564 1.84701,-4.179888 -0.0222,-4.77285 -0.81824,-0.259702 -3.10838,-2.092843 -5.08919,-4.073647 l -3.60146,-3.60145 -0.50651,5.140368 c -0.27858,2.827207 -0.79313,5.317508 -1.14343,5.534007 -1.18579,0.73286 -0.64566,3.183778 0.88181,4.001246 1.1569,0.61917 1.48932,1.454976 1.39545,3.508732 -0.0679,1.482768 -0.0898,3.520852 -0.0485,4.529068 l 0.0745,1.833119 1.81151,-2.199744 c 0.99632,-1.209858 2.23009,-3.107139 2.74171,-4.216176 z m -158.175957,4.582801 c -0.249143,-0.403287 -0.763668,-0.733247 -1.143147,-0.733247 -0.379478,0 -0.689978,0.32996 -0.689978,0.733247 0,0.403287 0.514414,0.733247 1.143146,0.733247 0.628732,0 0.939232,-0.32996 0.689979,-0.733247 z m 123.206697,-3.689485 c 0.74149,-0.819352 3.09541,-2.489384 5.23089,-3.711189 4.69072,-2.683768 4.89838,-2.977139 3.80528,-5.376216 -0.99169,-2.176532 -2.50209,-2.407218 -4.41667,-0.674554 -0.7375,0.667431 -1.34093,0.848809 -1.34093,0.40306 0,-0.445757 0.53253,-1.108474 1.18338,-1.472713 0.80773,-0.452026 1.02481,-1.161883 0.68386,-2.236182 -0.61577,-1.94004 -1.68791,-1.968365 -4.06699,-0.107416 -1.00821,0.788637 -2.0967,1.441222 -2.41887,1.45019 -0.32217,0.0089 -2.54941,1.40111 -4.94943,3.093645 -4.28542,3.022179 -5.31813,4.668153 -3.39242,5.407112 1.19034,0.456784 6.73988,-2.008381 9.46554,-4.204708 1.10244,-0.888345 2.15768,-1.461922 2.34496,-1.274627 0.18734,0.187286 -1.62209,1.929226 -4.02084,3.870954 -4.2903,3.472863 -5.2545,5.106568 -3.44485,5.836781 1.99073,0.803279 4.05244,0.415392 5.33709,-1.004126 z m 25.5642,0.329897 c 0.75225,-1.960354 0.49485,-3.972892 -0.50815,-3.972892 -1.46889,0 -2.71303,1.580368 -2.71303,3.446264 0,1.97865 2.50673,2.388475 3.22118,0.526628 z m 3.97683,-1.829616 c 0.22115,-2.39003 0.17847,-2.439861 -0.89325,-1.043404 -1.36519,1.77899 -1.53047,4.272744 -0.25552,3.854185 0.5041,-0.165476 1.02101,-1.43034 1.14869,-2.810781 z m -7.60844,-0.39668 c 0.60468,-2.409152 0.20979,-2.816421 -1.72651,-1.780209 -1.9503,1.043772 -2.05245,3.699852 -0.14217,3.699852 0.88464,0 1.56151,-0.695308 1.86879,-1.919643 z M 82.518764,-77.778414 c -0.01109,-2.609777 -1.07051,-4.845371 -1.900607,-4.015274 -0.473731,0.473742 1.065716,6.39833 1.662577,6.39833 0.137181,0 0.244155,-1.072375 0.238058,-2.383056 z m 143.727846,-2.767615 c 0,-1.839757 -0.66143,-2.130564 -2.99534,-1.316959 -2.60092,0.906683 -2.8765,3.294154 -0.48758,4.224191 1.80973,0.704563 3.48292,-0.692068 3.48292,-2.907232 z M 191.85276,-83.5201 c -0.66631,-1.667003 -0.71193,-1.621378 -0.75558,0.755598 -0.0319,1.736361 0.19039,2.292742 0.7091,1.774109 0.50034,-0.500339 0.51605,-1.354948 0.0466,-2.529707 z m 11.84278,-2.079219 c 2.72015,-1.848622 4.94738,-3.716064 4.94941,-4.149877 0.002,-0.433802 -0.75478,-1.501289 -1.68181,-2.372182 -1.45872,-1.370404 -1.87797,-1.453115 -3.11631,-0.614784 -0.78692,0.532763 -2.91564,1.754757 -4.73041,2.715555 -6.18487,3.274428 -7.39918,5.402475 -4.31533,7.562501 1.91657,1.342402 2.70862,1.062667 8.89445,-3.141213 z m 18.16971,0.990626 c 0.95802,-2.519755 0.95846,-2.518635 -0.97135,-2.518635 -2.62307,0 -3.67992,1.459488 -2.22275,3.069634 1.62802,1.798929 2.34787,1.674746 3.1941,-0.550999 z m -31.54781,-1.785386 c 0,-0.403286 -0.32996,-0.733249 -0.73324,-0.733249 -0.40328,0 -0.73327,0.329963 -0.73327,0.733249 0,0.403285 0.32999,0.733248 0.73327,0.733248 0.40328,0 0.73324,-0.329963 0.73324,-0.733248 z M 80.330244,-87.127328 c 0,-0.403285 -0.349437,-0.733248 -0.776527,-0.733248 -0.42709,0 -0.572585,0.329963 -0.323359,0.733248 0.249143,0.403286 0.598691,0.733249 0.776527,0.733249 0.177919,0 0.323359,-0.329963 0.323359,-0.733249 z m 137.064406,-1.649807 c 0.82034,-2.138063 -0.0959,-3.055299 -2.45972,-2.462051 -2.02374,0.50793 -2.42927,1.809591 -1.00691,3.23196 1.3595,1.359493 2.76978,1.046288 3.46663,-0.769909 z m -21.53469,-0.893245 c 0.78285,-0.592097 1.85779,-1.087038 2.38881,-1.099872 0.53104,-0.01275 2.18084,-0.917366 3.66625,-2.010088 1.4854,-1.092722 2.82287,-2.067247 2.97214,-2.165596 0.14937,-0.09835 0.0604,-1.019099 -0.19732,-2.046093 -0.56316,-2.243806 -2.07157,-2.372204 -4.82611,-0.410817 -1.12496,0.801045 -3.56811,2.109166 -5.42923,2.906933 -3.4635,1.484635 -4.32122,3.204925 -2.50395,5.022193 1.16207,1.16208 2.20177,1.110048 3.92939,-0.196654 z m 17.15892,-2.187835 c 1.46083,-1.760175 0.62771,-3.737892 -1.45533,-3.454756 -2.76033,0.375194 -3.3514,1.355239 -1.83072,3.035581 1.59734,1.765038 2.11436,1.830993 3.28605,0.419175 z m -74.50634,-4.537338 c 3.61653,-3.043135 6.2968,-8.329727 4.2231,-8.329727 -0.35967,0 -2.26158,1.40234 -4.22642,3.1163 -1.96488,1.71397 -4.22781,3.479968 -5.02875,3.924443 -0.80094,0.444471 -1.56785,1.563914 -1.70426,2.487655 -0.22558,1.527912 -0.0371,1.637319 2.08947,1.212022 1.28563,-0.257124 3.37671,-1.34194 4.64686,-2.410693 z m 54.12797,1.385807 c 1.34307,-0.70575 2.60716,-1.486181 2.8091,-1.73429 0.20203,-0.248118 1.02711,-0.669377 1.83368,-0.936139 0.80657,-0.266769 2.07736,-0.949497 2.82399,-1.517177 1.3087,-0.995058 1.31075,-1.138048 0.0568,-3.980038 -1.2586,-2.85265 -1.36169,-2.91563 -3.19061,-1.94883 -1.03949,0.54949 -3.78162,1.77189 -6.09363,2.71644 -4.14483,1.69332 -4.20386,1.75928 -4.21619,4.711458 -0.006,1.646758 0.20757,3.214073 0.47634,3.482929 0.84348,0.843513 2.96723,0.536809 5.50048,-0.794353 z m 17.81653,-2.355742 c 1.64736,-1.820293 0.97332,-3.693552 -1.32897,-3.693552 -2.56365,0 -3.74894,1.680795 -2.54488,3.608783 1.18887,1.90368 2.20758,1.925969 3.87385,0.08477 z m 11.22203,-0.898044 c -0.4532,-1.359604 -2.03169,-1.585108 -2.03169,-0.290242 0,0.638534 0.52242,1.160975 1.16097,1.160975 0.63854,0 1.03035,-0.391833 0.87072,-0.870733 z m 5.80345,-1.456825 c 2.44531,-2.297253 2.1286,-2.805183 -1.74919,-2.805183 -2.68043,0 -3.25074,0.19555 -2.56636,0.8799 0.48393,0.48394 0.8799,1.47383 0.8799,2.199744 0,1.773913 1.37192,1.664312 3.43565,-0.274473 z m 9.74716,-0.788753 c -0.0194,-1.12742 -5.4728,-5.08254 -6.11819,-4.43714 -0.77018,0.77018 -0.52553,1.68722 0.45117,1.69111 0.50411,0.002 1.90643,0.81504 3.11628,1.80674 2.59178,2.124451 2.57083,2.116738 2.55074,0.93929 z m -48.81637,-1.88881 c 2.45878,-1.13966 5.87899,-2.71701 7.60049,-3.50521 l 3.13002,-1.4331 -1.84684,-2.50322 c -1.01575,-1.37677 -1.84681,-2.93406 -1.84681,-3.46064 0,-0.52658 -0.31959,-0.95742 -0.71024,-0.95742 -0.39062,0 -0.54587,-0.42829 -0.345,-0.95175 0.20092,-0.52347 -0.46941,-1.73585 -1.48951,-2.69418 -1.0201,-0.95834 -1.85474,-2.50982 -1.85474,-3.44773 0,-1.67395 -1.6924,-2.38616 -2.51343,-1.05772 -0.22005,0.35618 -2.71289,1.40578 -5.53948,2.33244 -6.0027,1.96792 -8.4772,4.1308 -7.80229,6.8198 0.3146,1.25346 1.13405,1.96433 2.64764,2.29676 1.20562,0.2648 2.378,0.78236 2.6053,1.15014 0.22975,0.37169 1.12902,0.20505 2.02485,-0.37526 0.88635,-0.57416 3.17888,-1.43457 5.09448,-1.91202 1.91563,-0.47744 3.48293,-1.15887 3.48293,-1.51427 0,-0.35542 0.49496,-0.64621 1.09988,-0.64621 0.60493,0 1.09986,0.28994 1.09986,0.64429 0,0.66983 -1.98366,1.5491 -6.94559,3.07867 -3.61518,1.11442 -4.78637,2.24553 -4.78637,4.62252 0,1.84909 1.38021,5.58624 2.06312,5.58624 0.1987,0 2.37295,-0.93246 4.83173,-2.07213 z m 27.7257,0.78894 c 0.53587,-0.70575 1.84313,-2.05371 2.90502,-2.99546 1.86528,-1.65425 1.996,-1.66952 3.85628,-0.45062 2.1367,1.40002 3.31859,0.96354 1.92799,-0.71201 -0.49172,-0.59248 -0.7862,-1.83337 -0.65442,-2.75753 0.18595,-1.30486 0.84539,-1.77819 2.95086,-2.11843 3.54852,-0.57344 5.30552,-1.98158 4.17387,-3.34514 -1.12724,-1.35824 -1.81869,-1.26853 -4.28675,0.55619 -1.4654,1.08341 -2.8134,1.4553 -4.42027,1.21946 -1.81495,-0.26638 -2.73453,0.0911 -4.27789,1.6632 -3.20842,3.26808 -5.26558,6.32876 -5.26558,7.83423 0,2.593 1.54274,3.145077 3.09089,1.10611 z m -62.7539,-7.45446 c 1.73833,-3.351 3.5313,-6.53936 3.98436,-7.08524 0.45303,-0.54588 0.68845,-1.39828 0.52312,-1.89423 -0.17183,-0.51509 -2.78583,1.48108 -6.09695,4.65567 l -5.7964,5.55737 1.43081,2.65685 c 0.78692,1.46126 1.7376,2.55458 2.11258,2.42958 0.37499,-0.12498 2.10411,-2.969 3.84248,-6.32 z m 53.00056,4.6186 c 1.77723,-2.25937 1.42619,-3.21343 -1.18239,-3.21343 -2.49425,0 -4.01829,2.00962 -2.89188,3.81329 1.1388,1.82348 2.30292,1.65208 4.07427,-0.59986 z m -3.90971,-6.9459 c 1.36117,-1.50405 1.36067,-1.55205 -0.0277,-2.56637 -2.81739,-2.06013 -4.54615,-0.92473 -3.35644,2.20444 0.87269,2.29532 1.56613,2.3695 3.38293,0.36193 z m -50.39501,-7.54608 c -0.1793,-1.15313 1.32899,-4.61488 2.26212,-5.19158 1.06241,-0.65662 0.98903,1.3013 -0.0892,2.37954 -0.47721,0.47723 -0.67046,1.0649 -0.42943,1.30593 1.04477,1.04478 5.91633,-2.74153 20.07986,-15.60661 3.67631,-3.33927 6.88379,-6.07139 7.12775,-6.07139 0.24388,0 1.94769,-1.06022 3.78608,-2.35604 3.31257,-2.33493 3.33835,-2.38586 2.87495,-5.68268 -0.25718,-1.82964 -0.9563,-4.10249 -1.55358,-5.05077 l -1.086,-1.72413 -1.99095,1.90745 c -1.09504,1.0491 -2.39571,1.90745 -2.89039,1.90745 -0.49471,0 -1.09406,0.50714 -1.33193,1.12699 -0.23778,0.61984 -1.29986,1.58947 -2.36004,2.15473 -1.06017,0.56525 -5.06222,3.67547 -8.89345,6.91159 -3.8312,3.23613 -7.35433,5.89608 -7.82917,5.91101 -0.47484,0.015 -1.51221,0.85204 -2.30528,1.86025 -0.79307,1.00822 -1.67372,1.83312 -1.95698,1.83312 -0.28325,0 -2.65622,1.87987 -5.27322,4.17749 -4.35024,3.8193 -4.71999,4.36941 -4.31227,6.41592 0.24526,1.23114 0.76846,2.34842 1.1626,2.48285 1.04413,0.35611 0.83511,2.47031 -0.40653,4.11191 -2.26007,2.98806 -1.01849,3.39338 2.23303,0.72899 1.8203,-1.49158 3.25219,-3.08099 3.18202,-3.53202 z m 3.77748,-6.45944 c 0.006,-1.19199 3.59982,-5.67354 3.63624,-4.53254 0.0138,0.45472 -0.46858,1.23753 -1.07351,1.73958 -0.60495,0.50205 -1.09988,1.34788 -1.09988,1.87963 0,0.53175 -0.32996,1.17074 -0.73324,1.41999 -0.40329,0.24925 -0.73161,0.0213 -0.72961,-0.50666 z m 5.1291,-3.43966 c 0,-0.40329 0.32995,-0.93717 0.73323,-1.18642 0.40329,-0.24925 0.73324,-0.12321 0.73324,0.28008 0,0.40329 -0.32995,0.93717 -0.73324,1.18642 -0.40328,0.24925 -0.73323,0.12321 -0.73323,-0.28008 z m -0.71695,-2.74645 c 0.008,-0.35184 0.68957,-1.46462 1.51246,-2.47283 l 1.49616,-1.83312 -0.46063,1.83312 c -0.34381,1.36826 -0.2727,1.55959 0.28079,0.75448 0.40778,-0.59325 0.96362,-0.85644 1.23519,-0.58485 0.27159,0.27159 -0.0405,1.028 -0.69336,1.68095 -0.74588,0.74587 -1.18719,0.86176 -1.18719,0.31175 0,-0.66175 -0.26854,-0.65262 -1.09985,0.0374 -0.60493,0.50204 -1.09255,0.62493 -1.08357,0.27308 z m 4.09947,-5.54 c 0.21173,-0.34264 0.69219,-0.43316 1.06762,-0.20114 0.95938,0.59292 0.85136,0.82414 -0.38504,0.82414 -0.58719,0 -0.89434,-0.28035 -0.68258,-0.623 z m 37.15923,19.69662 c 0.61326,-0.93596 1.34864,-3.57161 1.63419,-5.85701 0.43388,-3.47264 0.32325,-4.23043 -0.6734,-4.61289 -2.22588,-0.85414 -3.54467,1.14294 -3.02835,4.58592 0.27298,1.82089 0.13136,3.76188 -0.33846,4.63997 -1.54884,2.89401 0.59769,4.00385 2.40602,1.24401 z m -3.4739,-1.27417 c 1.6804,-1.85682 0.67962,-3.98994 -1.87195,-3.98994 -2.55159,0 -3.55237,2.13312 -1.87198,3.98994 0.75131,0.83019 1.59369,1.50942 1.87198,1.50942 0.27827,0 1.12065,-0.67923 1.87195,-1.50942 z m -17.54302,-1.83601 c 1.56156,-0.63012 3.87898,-1.62001 5.1498,-2.19974 1.27079,-0.57973 2.67314,-1.05406 3.11628,-1.05406 1.14062,0 0.99887,-1.12666 -0.27464,-2.18364 -0.59423,-0.49319 -1.29089,-2.01842 -1.5481,-3.3894 -0.25718,-1.37098 -0.78032,-2.49269 -1.16254,-2.49269 -0.3822,0 -0.51963,-0.28361 -0.3054,-0.63025 0.21422,-0.34664 -0.0139,-1.51673 -0.50666,-2.60021 -0.79526,-1.74813 -1.18516,-1.91911 -3.46255,-1.51846 -2.65768,0.46755 -6.98304,3.07047 -9.23217,5.55573 -2.16128,2.38819 -0.35453,3.26569 3.80546,1.84824 1.9185,-0.65371 4.33682,-1.1625 5.37402,-1.13066 2.16247,0.0663 1.93738,0.17249 -3.79686,1.78992 l -4.21616,1.18924 v 3.492 c 0,1.9206 0.22004,3.71198 0.48883,3.98083 0.82334,0.82335 3.58729,0.54705 6.57077,-0.65685 z m 36.25139,-7.8366 c 3.73387,-4.13369 7.80743,-8.00005 9.05242,-8.59192 1.24494,-0.59187 2.3648,-1.13306 2.48852,-1.20264 0.60916,-0.34254 -4.67873,-6.88683 -5.56464,-6.88683 -0.5635,0 -2.818,1.59848 -5.01002,3.55218 -2.19201,1.9537 -4.88458,4.01543 -5.98349,4.58163 -1.09892,0.5662 -2.18958,1.28894 -2.4237,1.60609 -0.23418,0.31716 -1.55397,1.18106 -2.93301,1.9198 -3.20116,1.71483 -3.46089,3.19713 -1.10219,6.28958 1.041,1.3648 2.21491,3.3289 2.60871,4.36468 0.39378,1.03577 1.02257,1.88322 1.39728,1.88322 0.37471,0 3.73628,-3.38211 7.47012,-7.51579 z m -22.91832,0.88799 c 2.05391,-1.91352 2.02368,-2.74498 -0.13552,-3.72883 -3.31199,-1.50904 -6.42902,1.89395 -3.97897,4.344 1.25026,1.25027 2.27704,1.09675 4.11457,-0.61517 z m -47.30814,-0.88799 c 2.31077,-1.07315 2.47258,-1.70389 0.68291,-2.66171 -1.71063,-0.9155 -3.83061,0.2734 -3.83061,2.14821 0,1.67431 0.47969,1.75256 3.1477,0.5135 z m 52.29166,-0.36663 c 1.50735,-1.98567 1.24316,-2.83011 -1.88323,-6.01967 -3.20344,-3.26813 -4.42854,-3.69399 -4.42854,-1.53939 0,0.78277 -0.32995,1.62715 -0.73324,1.87639 -1.42349,0.87977 -0.70749,1.83312 1.37672,1.83312 2.5093,0 4.07835,1.62117 3.54456,3.66233 -0.47373,1.81163 0.80507,1.92436 2.12373,0.18724 z m -46.59219,-3.87534 c 2.17381,-1.16341 1.73382,-2.66279 -0.78146,-2.66279 -1.56425,0 -2.19975,0.35305 -2.19975,1.22209 0,2.16904 0.85144,2.5805 2.98121,1.4407 z m -4.40562,-0.52414 c 0.32611,-4.26062 0.84559,-7.1675 1.49916,-8.38869 0.61529,-1.14968 0.5873,-1.42533 -0.12083,-1.1893 -2.21438,0.73813 -4.62181,8.14867 -3.13139,9.63909 0.65692,0.65692 1.70085,0.62053 1.75301,-0.0611 z m 57.51789,-1.26775 c 1.61314,-0.98645 3.68385,-2.13095 4.6016,-2.5433 0.91773,-0.41236 1.8604,-1.24964 2.09488,-1.86062 0.23445,-0.61099 0.7479,-1.11088 1.14098,-1.11088 0.39309,0 2.13362,-1.1627 3.86787,-2.58378 2.98536,-2.44626 3.19681,-2.87714 3.97295,-8.09568 0.99857,-6.71388 1.04443,-11.64427 0.13773,-14.80575 -0.65855,-2.29622 -0.60797,-2.37821 1.46651,-2.37821 1.4006,0 2.14856,-0.37489 2.14856,-1.07686 0,-0.59873 -0.43618,-0.90948 -0.98241,-0.69988 -0.5403,0.20735 -1.35829,-0.0759 -1.81769,-0.62952 -0.66678,-0.80341 -0.50555,-0.99508 0.79906,-0.94993 1.3028,0.0451 1.59501,-0.30058 1.44018,-1.70371 -0.16795,-1.52284 -1.95063,-3.64448 -3.12196,-3.71576 -0.21063,-0.0128 -1.03565,1.19055 -1.83313,2.67418 -2.12015,3.94442 -4.03309,6.17764 -4.85601,5.66904 -0.42471,-0.26247 -0.17404,-1.05278 0.60864,-1.91815 1.88603,-2.08551 1.71823,-8.00148 -0.30454,-10.73742 -1.83983,-2.48849 -3.12096,-6.81526 -3.12653,-10.55924 -0.002,-1.51233 -0.11751,-2.74968 -0.2558,-2.74968 -0.69865,0 -8.46736,2.93915 -10.40371,3.93606 -1.25611,0.6467 -5.25556,1.35775 -9.19403,1.6346 -6.54578,0.46012 -7.02494,0.60474 -7.85895,2.37196 -1.61829,3.42912 -1.15974,5.04168 1.5798,5.55562 1.35734,0.25463 2.98304,0.26533 3.61263,0.0238 2.18261,-0.83755 2.51972,8.36383 0.44394,12.11765 -0.34185,0.61816 -1.09975,2.34167 -1.68425,3.83001 -0.94117,2.39648 -0.93366,2.8132 0.0657,3.64246 0.94075,0.78077 1.34709,0.66616 2.44495,-0.68964 0.84559,-1.04426 2.12725,-1.62603 3.58219,-1.62603 2.46092,0 2.89244,-1.12471 1.45911,-3.80293 -0.51785,-0.96763 -0.53448,-1.33872 -0.0466,-1.03709 0.41797,0.25831 1.22551,1.40291 1.79455,2.54352 1.19744,2.40033 0.83808,3.07452 -3.27585,6.14605 -2.82543,2.10951 -4.59542,2.52833 -5.37237,1.27122 -0.87358,-1.4135 -1.69566,0.0241 -1.16202,2.0319 0.4849,1.82436 0.88985,2.03365 4.32275,2.23413 2.08324,0.12166 4.9728,-0.106 6.42121,-0.50593 1.44841,-0.39993 3.10378,-0.54666 3.67863,-0.32607 2.38169,0.91394 0.68289,1.567 -5.37075,2.06466 -3.52877,0.2901 -6.82837,0.86447 -7.33247,1.27638 -1.8992,1.55186 -0.83248,2.17388 3.2996,1.92411 3.80933,-0.23027 4.21619,-0.11365 4.21619,1.20836 0,1.12947 -0.71079,1.61315 -3.11631,2.12061 -3.7608,0.79336 -4.22348,2.74551 -0.97004,4.09312 1.70137,0.70473 2.68929,0.69263 4.7661,-0.0584 1.4409,-0.52103 2.61985,-1.21101 2.61985,-1.53328 0,-0.32227 0.48161,-0.58595 1.07024,-0.58595 0.58863,0 3.64078,-1.38408 6.78255,-3.07573 3.14175,-1.69166 6.44692,-3.42396 7.34483,-3.84956 1.95016,-0.92435 3.46264,-4.20236 2.91148,-6.30999 -0.32485,-1.24223 -0.20896,-1.35847 0.64641,-0.64855 1.37276,1.13929 1.33598,4.08196 -0.0576,4.61677 -0.60493,0.23212 -1.09986,0.89102 -1.09986,1.46419 0,0.57318 -1.40235,1.76474 -3.1163,2.64791 -1.71396,0.88317 -4.76611,2.56688 -6.78256,3.74159 -5.0691,2.95309 -9.36666,5.04435 -10.40549,5.06351 -2.11921,0.0391 -1.62874,1.85928 1.30701,4.85061 1.74417,1.77717 3.34999,3.2258 3.56848,3.21916 0.21838,-0.007 1.71712,-0.81916 3.33026,-1.80562 z m 2.56636,-27.64894 c 0,-0.63262 0.49493,-1.561 1.09989,-2.06304 1.39933,-1.16135 1.38514,-0.0722 -0.0222,1.78995 -0.86183,1.13943 -1.07658,1.1939 -1.07658,0.27309 z m -8.9823,-10.61439 c 0.50414,-0.20341 0.91656,-0.87769 0.91656,-1.49839 0,-0.92797 -0.1987,-0.9637 -1.11759,-0.20103 -0.61465,0.51013 -1.29197,0.75314 -1.50511,0.54 -0.21312,-0.21314 0.53354,-1.11202 1.65928,-1.99752 1.99586,-1.56995 3.17115,-1.6503 9.57911,-0.65489 1.42199,0.2209 1.09381,1.11857 -1.01545,2.77773 -1.41501,1.11305 -2.93567,1.50423 -5.68267,1.46183 -2.06287,-0.0318 -3.33823,-0.22431 -2.83413,-0.42773 z m 8.9823,-2.44738 c 0,-0.40328 -0.67939,-0.73324 -1.50976,-0.73324 -0.83038,0 -1.30585,0.32996 -1.0566,0.73324 0.24914,0.40329 0.92864,0.73325 1.50976,0.73325 0.58113,0 1.0566,-0.32996 1.0566,-0.73325 z m -13.9317,-4.67006 c 0,-1.44446 0.30315,-1.63069 2.2011,-1.35212 1.29208,0.18964 2.94698,-0.16565 4.00707,-0.86025 0.99327,-0.65081 3.04583,-1.18329 4.56128,-1.18329 h 2.75531 l -1.81295,1.28318 c -2.37689,1.68231 -6.35674,3.18351 -9.32877,3.5188 -2.07163,0.23371 -2.38304,0.0499 -2.38304,-1.40632 z m -3.67401,44.64142 c 1.30416,-1.5714 0.35772,-3.30895 -1.80236,-3.30895 -1.45567,0 -1.85613,0.36911 -1.85613,1.71091 0,2.81749 1.94234,3.6659 3.65849,1.59804 z m -30.75255,-3.49226 c 3.35711,-2.78709 3.56964,-3.48293 1.06378,-3.48293 -1.23031,0 -1.83313,0.40644 -1.83313,1.23592 0,0.67976 -0.71744,1.99961 -1.59432,2.933 -2.32065,2.47023 -0.96373,2.07642 2.36367,-0.68599 z m -8.28133,0 c 0.40328,-0.50411 0.97326,-1.69802 1.26658,-2.65312 0.81566,-2.65591 -1.18159,-1.59999 -2.33903,1.23661 -0.94904,2.32582 -0.3199,3.15681 1.07245,1.41651 z m 39.04164,-1.85328 c 0,-1.13387 -2.39875,-3.96334 -2.84355,-3.35414 -0.25081,0.34354 -1.09634,0.97815 -1.87891,1.41025 -2.71881,1.50119 -2.1702,2.51398 1.36175,2.51398 1.84839,0 3.36071,-0.25654 3.36071,-0.57009 z m -33.29796,-4.37562 c -0.78861,-0.7886 -1.20728,0.31584 -0.65368,1.72446 0.51927,1.32136 0.55851,1.32365 0.81533,0.0476 0.14827,-0.73732 0.0757,-1.53472 -0.16157,-1.77202 z m 4.70128,0.8947 c 0,-0.61491 -0.84639,-1.43981 -1.88084,-1.83312 -2.79392,-1.06224 -2.94729,-0.89927 -1.05214,1.11802 1.9672,2.094 2.93298,2.32947 2.93298,0.7151 z m 4.74547,-1.69648 c -1.60757,-0.33407 -2.09787,0.28254 -1.48405,1.86631 0.47933,1.23677 0.57391,1.22777 1.59382,-0.15167 0.96697,-1.30789 0.95511,-1.49333 -0.10975,-1.71463 z m 7.90306,-4.57977 c 3.18487,-2.72982 4.48315,-5.07095 2.81212,-5.07095 -1.50231,0 -6.18968,-7.661 -7.32277,-11.9683 -0.65539,-2.49138 -1.44683,-4.93037 -1.75874,-5.41998 -0.31192,-0.48961 -0.58367,-3.04681 -0.6039,-5.68267 -0.0222,-2.75787 -0.35562,-4.79247 -0.78781,-4.79247 -0.41307,0 -2.39742,1.37843 -4.40969,3.06318 l -3.65862,3.06318 0.50734,5.41405 c 0.27902,2.97772 0.97019,6.30124 1.53593,7.3856 0.56571,1.08436 1.0306,2.35127 1.0331,2.81536 0.008,1.50889 5.73391,12.09211 7.10419,13.13088 1.80276,1.36661 1.61846,1.43097 5.54885,-1.93788 z m -8.98228,1.56085 c 0,-0.38538 -0.82491,-1.91625 -1.83312,-3.40194 -1.00821,-1.48569 -1.83313,-3.24536 -1.83313,-3.91039 0,-0.66502 -0.64131,-2.46702 -1.42512,-4.00443 -1.26822,-2.48754 -2.64311,-9.22372 -3.15943,-15.47936 -0.11446,-1.3858 -0.58852,-2.19974 -1.28144,-2.19974 -0.88716,0 -1.09986,1.14904 -1.09986,5.94187 0,3.26803 0.38896,6.73262 0.86438,7.6991 0.47542,0.96648 1.54712,3.6651 2.38157,5.99694 0.83445,2.33183 2.07218,5.13651 2.75055,6.23261 1.93181,3.12147 4.6356,4.94437 4.6356,3.12534 z m 16.90014,-7.97954 c 1.80153,-1.45879 1.43701,-3.05175 -0.69832,-3.05175 -1.63445,0 -4.04737,2.57019 -3.39854,3.62004 0.71536,1.15746 2.2241,0.94818 4.09686,-0.56829 z m 5.09731,-12.91701 c 0,-0.70611 -0.66038,-1.13346 -1.75154,-1.13346 -1.41538,0 -1.84233,0.48408 -2.22471,2.52247 -0.26023,1.38735 -0.25912,3.37573 0.003,4.41862 0.46223,1.84175 0.52608,1.80189 2.22471,-1.38901 0.96162,-1.80683 1.7486,-3.79521 1.7486,-4.41862 z m 1.41229,-3.63455 c 0.50669,-0.6105 0.57766,-1.20825 0.17321,-1.45824 -0.37701,-0.23302 -0.85709,0.23257 -1.06682,1.03459 -0.45184,1.7278 -0.263,1.81733 0.89367,0.42365 z m 38.91634,-2.63164 c 0,-1.56555 -0.28733,-3.02404 -0.63854,-3.24109 -0.35119,-0.21705 -0.83944,-1.39917 -1.08501,-2.62695 -0.24554,-1.22777 -0.95228,-2.42641 -1.57054,-2.66366 -1.52869,-0.58661 -3.31797,1.03272 -3.24725,2.93881 0.0319,0.85801 0.2242,1.14757 0.42773,0.64346 0.44948,-1.11392 3.91387,-1.23352 3.91387,-0.1351 0,0.4298 -0.35534,1.44542 -0.78964,2.25694 -0.60049,1.12201 -0.5025,2.08066 0.40908,4.00168 1.47659,3.11167 2.5803,2.60945 2.5803,-1.17409 z m -39.5954,-1.75363 c 0,-1.10203 -3.28771,-2.2331 -4.43321,-1.52515 -1.71424,1.05946 -0.62438,2.54553 1.86685,2.54553 1.70351,0 2.56636,-0.34306 2.56636,-1.02038 z m 25.29708,-23.91006 c 0.24914,-0.40328 -0.0613,-0.73324 -0.68998,-0.73324 -0.62873,0 -1.14315,0.32996 -1.14315,0.73324 0,0.40329 0.31047,0.73325 0.68995,0.73325 0.37951,0 0.89392,-0.32996 1.14318,-0.73325 z m -7.01172,-1.2236 1.74694,-1.22361 -1.70809,-0.63187 c -1.05554,-0.39047 -1.99677,-0.3432 -2.46371,0.12374 -1.00098,1.001 -2.1487,0.9714 -1.52404,-0.0393 0.31122,-0.5036 -0.12221,-0.70514 -1.18247,-0.54994 -2.12871,0.31156 -2.80295,2.0781 -0.79315,2.0781 0.81637,0 1.68826,0.32996 1.93752,0.73324 0.65907,1.06642 1.99982,0.90152 3.987,-0.49036 z M 83.54751,116.27905 c -1.167922,-2.4612 -1.170195,-2.77319 -0.03437,-4.69594 0.669138,-1.13278 1.216615,-2.7107 1.216615,-3.50648 0,-0.79579 0.48623,-1.85042 1.080487,-2.34361 0.917975,-0.76186 0.903343,-0.36188 -0.09755,2.6599 -0.647854,1.95614 -1.456196,3.86224 -1.796266,4.23576 -0.340098,0.37352 -0.341733,1.03345 -0.0028,1.4665 0.734375,0.94067 1.725875,4.82021 1.231885,4.82021 -0.190391,0 -0.909163,-1.18636 -1.597229,-2.63634 z m 4.848472,-14.82857 c 0,-1.18427 0.494932,-2.563976 1.099858,-3.066031 0.604926,-0.502054 1.099886,-1.326968 1.099886,-1.833124 0,-1.763925 2.096872,-2.841391 3.867005,-1.987017 1.60654,0.775446 1.607954,0.788665 0.08896,0.837524 -1.988208,0.06402 -5.560537,4.325244 -5.029245,5.999208 0.219766,0.69273 0.05626,1.47169 -0.363322,1.73109 -0.462452,0.28581 -0.763086,-0.37676 -0.763086,-1.68165 z M 255.27733,-47.165308 c 0.66061,-1.008216 1.55065,-1.833119 1.97785,-1.833119 0.4272,0 10e-4,0.824903 -0.94542,1.833119 -0.94715,1.008216 -1.83719,1.833119 -1.97784,1.833119 -0.14051,0 0.28481,-0.824903 0.94541,-1.833119 z m 2.51524,-3.035076 c -0.008,-0.459423 0.63263,-1.61429 1.42579,-2.566367 1.87663,-2.252635 1.89881,-0.827705 0.0249,1.568579 -0.78864,1.008216 -1.4412,1.457219 -1.45018,0.997788 z m 2.91668,-5.220895 c 0,-0.306276 0.67962,-0.981289 1.51024,-1.500027 1.39481,-0.871068 1.44888,-0.828503 0.70747,0.556866 -0.77944,1.456362 -2.21771,2.068045 -2.21771,0.943161 z m 2.93301,-3.799345 c 0,-0.379487 0.32619,-0.891571 0.72485,-1.137959 0.41564,-0.256874 0.53858,0.03747 0.28816,0.689973 -0.48745,1.270293 -1.01301,1.50271 -1.01301,0.447986 z m 3.66623,-5.176013 c 0.43166,-0.806574 0.94984,-1.466497 1.15148,-1.466497 0.20176,0 0.0139,0.659923 -0.41822,1.466497 -0.43166,0.806571 -0.94984,1.466495 -1.15149,1.466495 -0.20175,0 -0.0138,-0.659924 0.41823,-1.466495 z m 3.35331,-5.132738 c 0.26965,-1.008216 0.79612,-2.328062 1.16989,-2.932991 0.47229,-0.764403 0.53001,-0.540756 0.18928,0.733247 -0.26965,1.008216 -0.79612,2.328062 -1.16989,2.932994 -0.47229,0.764402 -0.53002,0.540756 -0.18928,-0.73325 z M 126.52487,-122.3792 c 0,-0.20195 0.6501,-1.64235 1.44467,-3.20086 1.55391,-3.04787 6.37678,-6.33627 9.07896,-6.19034 1.23959,0.0669 1.30173,0.15647 0.29177,0.42039 -0.70575,0.18443 -1.28318,0.57481 -1.28318,0.86751 0,0.2927 -1.15487,0.94979 -2.56637,1.46019 -1.41149,0.51041 -2.57977,1.15413 -2.59615,1.43049 -0.0349,0.5868 -4.3697,5.75791 -4.3697,5.21262 z m 110.72046,-72.42195 c 0,-0.84446 2.24381,-2.70817 4.03163,-3.34866 1.15564,-0.41402 1.01045,-0.0502 -0.68713,1.72166 -2.13589,2.22938 -3.3445,2.81734 -3.3445,1.627 z m 8.23158,-7.13722 c 0.69616,-0.72682 1.42355,-1.16365 1.61646,-0.97075 0.19288,0.19292 -0.37668,0.78757 -1.26572,1.32148 -1.54447,0.9275 -1.5601,0.91188 -0.35074,-0.35073 z m 3.50038,-2.78549 c 0,-0.15226 0.57744,-0.72969 1.28318,-1.28318 1.16299,-0.91207 1.18891,-0.88613 0.27686,0.27685 -0.95791,1.22141 -1.56004,1.60983 -1.56004,1.00634 z m 5.49935,-4.85589 c 0.72994,-0.80658 1.49217,-1.4665 1.69381,-1.4665 0.20175,0 -0.23058,0.65992 -0.96054,1.4665 -0.72994,0.80657 -1.49214,1.46649 -1.69379,1.46649 -0.20175,0 0.23058,-0.65992 0.96052,-1.46649 z m 7.02696,0.54212 c 0.16794,-0.10512 1.13043,-0.84753 2.13866,-1.64981 l 1.8331,-1.45868 -1.39681,1.64981 c -0.76826,0.90739 -1.73064,1.6498 -2.13863,1.6498 -0.40803,0 -0.60435,-0.086 -0.43632,-0.19111 z m -2.99409,-3.75196 c 0,-0.15225 0.57743,-0.72969 1.28318,-1.28318 1.16299,-0.91207 1.18893,-0.88613 0.27686,0.27686 -0.95789,1.2214 -1.56004,1.60983 -1.56004,1.00634 z m 9.71554,-1.95305 c 1.51234,-1.27151 2.74968,-2.78513 2.74968,-3.3636 0,-1.49143 -1.81203,-1.99808 -3.64247,-1.01846 -1.44882,0.77539 -1.49161,0.72823 -0.61415,-0.67678 2.01631,-3.22867 5.82822,-0.70289 5.1904,3.43918 -0.26938,1.74948 -0.74757,2.38306 -1.79846,2.38306 -0.78731,0 -2.15219,0.34839 -3.03308,0.77421 -0.88087,0.42582 -0.36424,-0.2661 1.14808,-1.53761 z"
       id="path34"
       inkscape:connector-curvature="0" />
  </g>
</svg>
