<?xml version="1.0" encoding="UTF-8" standalone="no"?>
<!-- Created with Inkscape (http://www.inkscape.org/) -->

<svg
   xmlns:dc="http://purl.org/dc/elements/1.1/"
   xmlns:cc="http://creativecommons.org/ns#"
   xmlns:rdf="http://www.w3.org/1999/02/22-rdf-syntax-ns#"
   xmlns:svg="http://www.w3.org/2000/svg"
   xmlns="http://www.w3.org/2000/svg"
   xmlns:sodipodi="http://sodipodi.sourceforge.net/DTD/sodipodi-0.dtd"
   xmlns:inkscape="http://www.inkscape.org/namespaces/inkscape"
   width="210.00003mm"
   height="197.32487mm"
   viewBox="0 0 210.00005 197.32488"
   version="1.1"
   id="svg8"
   inkscape:version="0.92.3 (2405546, 2018-03-11)"
   sodipodi:docname="assassin_royal.svg">
  <defs
     id="defs2" />
  <sodipodi:namedview
     id="base"
     pagecolor="#ffffff"
     bordercolor="#666666"
     borderopacity="1.0"
     inkscape:pageopacity="0.0"
     inkscape:pageshadow="2"
     inkscape:zoom="0.7"
     inkscape:cx="-42.811256"
     inkscape:cy="268.70517"
     inkscape:document-units="mm"
     inkscape:current-layer="layer1"
     showgrid="false"
     fit-margin-top="0"
     fit-margin-left="0"
     fit-margin-right="0"
     fit-margin-bottom="0"
     inkscape:window-width="1920"
     inkscape:window-height="1017"
     inkscape:window-x="-8"
     inkscape:window-y="-8"
     inkscape:window-maximized="1" />
  <metadata
     id="metadata5">
    <rdf:RDF>
      <cc:Work
         rdf:about="">
        <dc:format>image/svg+xml</dc:format>
        <dc:type
           rdf:resource="http://purl.org/dc/dcmitype/StillImage" />
        <dc:title></dc:title>
      </cc:Work>
    </rdf:RDF>
  </metadata>
  <g
     inkscape:label="Layer 1"
     inkscape:groupmode="layer"
     id="layer1"
     transform="translate(-167.78242,469.92355)">
    <path
       style="fill:#000000;stroke-width:0.4753001"
       d="m 358.97663,-273.02624 c -0.80163,-0.36079 -2.90797,-2.04367 -4.6808,-3.73971 l -3.22331,-3.08374 0.16545,-2.79832 c 0.15395,-2.60429 0.0907,-2.80892 -0.91184,-2.95123 -1.18206,-0.16778 -2.48748,-2.6512 -2.48748,-4.73214 0,-1.18078 -3.61588,-6.96412 -5.31624,-8.50293 -0.47445,-0.42939 -0.86265,-0.98601 -0.86265,-1.23695 0,-0.59052 -8.57328,-10.26632 -12.09941,-13.65543 -4.35109,-4.18199 -5.49713,-6.53888 -6.19322,-12.73676 -0.15557,-1.38482 -0.68687,-3.30978 -1.18074,-4.2777 -0.49387,-0.96794 -1.37882,-3.8261 -1.96651,-6.3515 -0.58772,-2.52537 -1.42957,-5.0702 -1.87082,-5.65517 l -0.80224,-1.06356 -2.27088,1.73395 c -1.24899,0.95366 -2.55033,1.73395 -2.89186,1.73395 -0.34155,0 -0.79204,0.26967 -1.00109,0.59928 -0.20904,0.3296 -1.55646,1.10569 -2.99423,1.72462 -1.4378,0.61896 -3.36276,1.49957 -4.27771,1.95696 -0.91496,0.45738 -2.51908,1.10441 -3.56476,1.43786 -1.67341,0.53363 -4.21017,1.64632 -6.41654,2.81449 -0.43922,0.23255 -0.69115,0.99358 -0.65615,1.9822 0.41218,11.64373 0.83951,17.51289 1.36266,18.71553 0.34114,0.78426 0.81951,4.28922 1.06305,7.78882 0.35128,5.04801 0.60707,6.48305 1.23781,6.94426 0.43727,0.31973 0.79815,0.87857 0.80194,1.24188 0.004,0.3633 0.34363,1.62303 0.75515,2.7994 0.95153,2.71999 0.55245,6.16977 -1.02657,8.87433 l -1.15747,1.98249 -3.11217,-0.13761 c -2.33914,-0.10347 -3.26763,-0.35023 -3.73793,-0.99343 -0.57124,-0.78121 -0.82822,-0.80023 -2.94987,-0.21839 -1.27825,0.35055 -3.53693,1.26602 -5.01929,2.03438 -2.42377,1.25632 -3.26823,1.42076 -8.38559,1.63284 -5.32174,0.22055 -5.75529,0.17102 -6.69199,-0.76577 -1.1718,-1.17178 -1.28657,-2.75972 -0.30115,-4.16659 0.51519,-0.73554 1.4266,-1.08367 3.44593,-1.31621 3.18101,-0.36633 7.73613,-1.65915 7.73613,-2.19565 0,-0.20231 0.92515,-0.81569 2.05588,-1.36308 2.96079,-1.43328 5.84511,-6.19953 4.10306,-6.78022 -0.27239,-0.0907 -0.69958,-1.60777 -0.94928,-3.37106 -0.24972,-1.76326 -0.65935,-3.5783 -0.91031,-4.03339 -0.25096,-0.4551 -0.90618,-2.96628 -1.45604,-5.58044 -0.54989,-2.61415 -1.19332,-5.18077 -1.42989,-5.7036 -0.23655,-0.52282 -0.76021,-2.34084 -1.16365,-4.04005 -0.97945,-4.12503 -1.80718,-6.83945 -2.17406,-7.1295 -0.16527,-0.13078 -0.65557,-1.29171 -1.08937,-2.57999 -1.00446,-2.98297 -1.04382,-7.07322 -0.0758,-7.87661 0.39212,-0.32544 0.71294,-0.89059 0.71294,-1.25591 0,-0.91794 2.02644,-4.00879 3.38907,-5.16918 1.76059,-1.49932 4.13276,-3.08092 4.62094,-3.08092 0.24402,0 0.5668,-0.32082 0.71727,-0.71294 0.15054,-0.39212 0.51158,-0.71296 0.80244,-0.71296 0.29087,0 2.27601,-1.25889 4.41144,-2.79753 2.13543,-1.53863 4.6312,-3.17447 5.54615,-3.6352 0.91495,-0.4607 2.3254,-1.34068 3.13432,-1.95546 0.80892,-0.6148 1.72684,-1.11782 2.03984,-1.11782 0.49495,0 4.83734,-1.85813 7.99029,-3.41912 1.30489,-0.64603 1.50641,-2.17502 0.77273,-5.86291 -0.31355,-1.57603 -0.71974,-4.51695 -0.90265,-6.53537 -0.18289,-2.01845 -0.46284,-3.66989 -0.62209,-3.66989 -0.15935,0 -2.03977,1.83906 -4.17894,4.0868 l -3.88939,4.08681 -8.46978,-0.27704 c -4.65838,-0.15234 -9.31656,-0.33381 -10.35151,-0.40322 -1.54339,-0.10348 -1.9783,0.0656 -2.4187,0.93995 -0.77185,1.5325 -2.16455,2.9739 -2.87343,2.9739 -0.3355,0 -2.98909,-1.60414 -5.8969,-3.56476 -2.90781,-1.9606 -5.44826,-3.56474 -5.64545,-3.56474 -0.19719,0 -1.0213,-0.7486 -1.83133,-1.66355 -0.96719,-1.09245 -1.89466,-1.66354 -2.70161,-1.66354 -0.67584,0 -1.22881,-0.2139 -1.22881,-0.47532 0,-0.26141 -1.17636,-0.47529 -2.61416,-0.47529 -1.43777,0 -2.61415,-0.21388 -2.61415,-0.47529 0,-0.26144 0.46064,-0.47532 1.02361,-0.47532 0.96223,0 4.67999,-3.46101 4.67999,-4.35678 0,-0.8809 -1.84258,-0.31882 -2.56396,0.78214 -0.77537,1.18339 -3.50388,2.89353 -3.93257,2.46484 -0.12611,-0.12611 0.19796,-0.36491 0.72014,-0.53064 0.5222,-0.16581 1.7189,-1.15303 2.65933,-2.19396 1.45157,-1.60672 1.85205,-1.81653 2.65111,-1.38889 0.51769,0.27706 0.94126,0.81704 0.94126,1.19996 0,0.38293 0.18471,0.69624 0.41048,0.69624 0.22578,0 0.96911,0.55861 1.65186,1.24135 0.99442,0.99442 1.14476,1.42186 0.75578,2.14869 -0.26707,0.49901 -0.38033,1.07759 -0.25169,1.28573 0.40306,0.65218 5.10789,3.42871 4.75587,2.80663 -0.74059,-1.30863 -2.303,-2.72982 -3.00863,-2.73668 -0.63959,-0.005 -0.64813,-0.0711 -0.0584,-0.44413 0.98145,-0.62086 3.23935,-0.0882 5.726,1.35101 2.6192,1.51586 7.09381,3.37292 8.13429,3.3759 1.26366,0.004 3.08862,-3.324 3.97799,-7.25347 0.45944,-2.03001 1.03386,-3.8136 1.27647,-3.96354 0.2575,-0.15917 0.20944,-0.55177 -0.11551,-0.94326 -0.44849,-0.5404 -0.36647,-0.67064 0.42234,-0.67064 0.84517,0 0.94358,0.21778 0.72025,1.59396 -0.24183,1.49023 -0.15862,1.61396 1.27755,1.90121 0.84491,0.16904 2.2153,0.30724 3.04528,0.30724 0.82999,0 1.71228,0.18794 1.96062,0.41765 0.24835,0.2297 1.23212,0.5562 2.18617,0.72553 1.62926,0.28917 1.85286,0.16994 3.68051,-1.96238 1.07023,-1.24863 1.94725,-2.51472 1.94894,-2.81352 0.002,-0.29881 0.32389,-0.6664 0.71601,-0.81686 0.39212,-0.15054 0.71296,-0.48965 0.71296,-0.75371 0,-0.26407 1.06942,-1.94585 2.37649,-3.73728 1.30709,-1.79144 2.37651,-3.39038 2.37651,-3.55325 0,-0.16293 0.48124,-0.81451 1.06942,-1.44814 1.23891,-1.33462 2.65649,-3.24006 3.70824,-4.98439 0.4057,-0.67284 1.689,-1.73573 2.8518,-2.36197 l 2.11419,-1.13862 -4.79483,0.17641 c -3.29061,0.12108 -5.15448,0.40951 -5.94125,0.91933 -0.63054,0.40859 -1.7289,0.88629 -2.44084,1.0616 -1.0258,0.25258 -1.23828,0.17246 -1.02395,-0.3861 0.27372,-0.7133 5.00408,-3.10935 6.1386,-3.10935 0.33873,0 0.6872,-0.19987 0.77433,-0.44418 0.0871,-0.24429 1.75428,-0.87067 3.70475,-1.39195 1.95047,-0.5213 3.82197,-1.32478 4.15887,-1.78552 1.04264,-1.42588 0.74344,-3.3294 -0.69451,-4.41887 -1.16463,-0.88237 -1.22438,-1.05503 -0.54834,-1.58436 0.41731,-0.32673 1.13684,-1.34267 1.59899,-2.25762 0.46214,-0.91494 1.31984,-2.19826 1.90601,-2.8518 0.82902,-0.92432 1.18286,-2.18073 1.59298,-5.65655 0.28998,-2.45756 0.40685,-4.66309 0.25971,-4.90115 -0.14713,-0.23806 -0.7576,-0.61917 -1.35661,-0.84691 -0.61702,-0.2346 -1.72935,-1.59617 -2.56616,-3.14117 -1.64973,-3.0459 -1.67238,-3.8861 -0.0431,-1.59794 l 1.06602,1.49711 3.79117,-0.33561 c 3.44916,-0.30532 10.30963,0.51455 13.19249,1.57657 0.39212,0.14443 2.36093,0.51894 4.37515,0.83218 4.97031,0.77294 7.96642,2.30983 9.12361,4.68003 0.88759,1.81793 0.88759,1.87971 0,3.54166 -0.49681,0.93029 -1.91926,2.6838 -3.161,3.8967 -1.24171,1.2129 -2.25767,2.42104 -2.25767,2.68477 0,0.26371 -0.60095,1.31364 -1.33545,2.33318 -2.46973,3.42812 -4.3549,7.74236 -4.04978,9.26796 0.15378,0.76921 0.46598,1.51367 0.69362,1.65437 0.22766,0.14066 0.41391,0.86966 0.41391,1.61993 0,1.24155 0.23078,1.43122 2.56849,2.1108 1.41266,0.41068 2.90986,0.74668 3.32709,0.74668 0.41724,0 0.75863,0.21388 0.75863,0.47529 0,0.26141 0.45643,0.47531 1.01427,0.47531 0.55785,0 1.84117,0.24773 2.8518,0.55053 1.54787,0.46376 1.83753,0.75433 1.83753,1.84341 0,1.00115 0.57291,1.73486 2.53922,3.25186 1.39659,1.07745 2.71817,1.959 2.93688,1.959 0.21871,0 1.10161,0.76854 1.96199,1.70786 1.77988,1.94316 2.53619,1.9254 3.15023,-0.074 0.23584,-0.76789 0.73044,-2.07016 1.09912,-2.89392 0.89337,-1.996 0.86389,-2.1948 -0.51789,-3.49291 -1.48832,-1.3982 -1.48277,-1.89986 0.057,-5.15458 1.31944,-2.78907 3.0325,-9.23795 3.0325,-11.41599 0,-0.7154 0.23817,-1.53889 0.52926,-1.82998 0.38881,-0.38882 0.19962,-1.22605 -0.71294,-3.15507 -0.68323,-1.44421 -1.24224,-2.8241 -1.24224,-3.06646 0,-0.24235 -0.4678,-1.03536 -1.03958,-1.76226 -0.61259,-0.7788 -0.759,-1.19567 -0.35648,-1.01501 0.37572,0.16869 1.02814,0.431 1.44983,0.58299 0.72936,0.26293 2.79803,3.82066 2.79803,4.81212 0,0.25762 0.42778,0.85552 0.95061,1.32868 0.52283,0.47315 0.95061,1.21362 0.95061,1.64547 0,0.43184 0.58818,1.02591 1.30706,1.32017 l 1.30707,0.53499 -1.4259,-0.0868 c -1.33128,-0.081 -1.43592,0.0358 -1.57718,1.75892 -0.12431,1.51565 -0.018,1.79454 0.59411,1.55966 0.59871,-0.22974 0.74542,0.0798 0.74542,1.57218 0,1.02203 -0.21388,1.99042 -0.47529,2.15197 -0.58789,0.36335 -0.63147,3.41214 -0.0539,3.76911 0.23177,0.14317 0.56955,1.05009 0.75059,2.01519 0.24751,1.31932 0.44019,1.586 0.7765,1.07469 0.36999,-0.56255 0.6058,-0.49123 1.36441,0.41258 0.50441,0.60095 0.798,1.40303 0.65244,1.78238 -0.70143,1.8279 5.97734,-0.55139 7.0208,-2.50115 0.47411,-0.88586 0.41481,-1.57103 -0.33031,-3.81625 -0.49949,-1.50511 -1.04881,-2.84349 -1.22075,-2.97419 -0.17191,-0.13078 -0.54792,-1.51105 -0.83556,-3.06744 -0.28763,-1.5564 -0.73606,-3.04289 -0.99651,-3.30335 -0.26044,-0.26044 -0.47353,-0.96546 -0.47353,-1.56672 0,-0.70283 -0.29702,-1.11329 -0.83177,-1.14947 -1.08822,-0.0736 -1.10896,-0.0711 -2.62301,0.3088 -0.78408,0.1968 -1.29823,0.13222 -1.29823,-0.16329 0,-0.26898 0.62976,-0.62738 1.39947,-0.79642 1.47288,-0.32352 4.77944,-3.58156 4.77944,-4.70933 0,-0.36341 0.32082,-0.78384 0.71294,-0.93433 0.93185,-0.35757 0.92449,-0.32633 -0.54093,2.2956 -1.17798,2.10764 -1.22018,2.39395 -0.69737,4.73013 0.30607,1.36769 0.94854,3.21906 1.42771,4.11415 0.9237,1.72554 2.90004,9.16473 2.90004,10.91612 0,0.60929 -0.7982,1.76975 -1.92701,2.80159 l -1.92703,1.76147 0.30546,4.00605 c 0.21563,2.8278 0.0728,5.33408 -0.48571,8.5214 -0.43513,2.48344 -0.90871,5.69171 -1.05243,7.1295 -0.29701,2.97189 -1.99433,5.72429 -4.45146,7.21857 -1.47732,0.8984 -1.53834,0.89869 -3.46876,0.0162 -1.08076,-0.49383 -3.24833,-1.27069 -4.81681,-1.72635 -1.5685,-0.45566 -3.27958,-1.01865 -3.8024,-1.25111 -0.52283,-0.23243 -2.32993,-0.76769 -4.01577,-1.18944 -1.68586,-0.42176 -4.00704,-1.29266 -5.15819,-1.93534 -1.63111,-0.91064 -2.23959,-1.04686 -2.75724,-0.61725 -0.36534,0.3032 -0.66426,0.84142 -0.66426,1.19605 0,1.16832 -2.02624,6.84364 -2.44337,6.84364 -0.22462,0 -0.40843,0.33146 -0.40843,0.73655 0,0.40511 -0.33343,1.38137 -0.74098,2.16945 -0.67301,1.30146 -0.67069,1.659 0.0253,3.89764 0.42149,1.35559 0.9466,2.80051 1.16689,3.21094 0.62411,1.16274 1.80058,6.09856 2.17288,9.11625 0.18545,1.50313 0.52642,2.73297 0.75773,2.73297 0.23129,0 0.42052,0.3779 0.42052,0.83977 0,1.00664 7.06296,15.14004 9.91264,19.8358 2.38402,3.92842 2.46617,4.07611 3.92845,7.06294 2.06813,4.22442 3.97644,7.80954 4.50166,8.45723 0.28545,0.35201 0.99713,2.24417 1.5815,4.20477 0.58437,1.96062 1.25984,3.93615 1.50103,4.39008 0.24118,0.45394 0.43142,1.6303 0.42273,2.61416 l -0.0162,1.78883 -2.95482,-3.12085 c -1.62516,-1.71647 -3.48953,-4.17615 -4.14308,-5.46596 -0.65354,-1.2898 -1.88338,-3.47215 -2.73297,-4.84966 -0.84959,-1.3775 -1.54473,-2.71953 -1.54473,-2.98227 0,-0.26275 -0.85554,-1.83238 -1.9012,-3.48806 -1.04565,-1.65569 -1.90119,-3.22574 -1.90119,-3.489 0,-0.26328 -0.39176,-0.98876 -0.87056,-1.61219 -0.4788,-0.62344 -1.3878,-2.09601 -2.02003,-3.27238 -0.63221,-1.17637 -1.25641,-2.2458 -1.38711,-2.3765 -0.13078,-0.13078 -0.87931,-1.62791 -1.66357,-3.3271 -0.78424,-1.6992 -1.58382,-3.15992 -1.77683,-3.24604 -0.193,-0.0861 -0.74644,-1.0486 -1.22982,-2.13886 -0.4834,-1.09024 -1.21159,-2.25679 -1.61821,-2.59234 -0.65439,-0.54002 -0.77838,-0.16869 -1.07948,3.23262 -0.29299,3.31001 -0.22395,3.97112 0.49809,4.76898 0.46103,0.50943 1.02924,0.92623 1.26266,0.92623 0.69504,0 2.75667,2.49157 3.5396,4.2777 1.81198,4.13378 11.29995,22.74658 12.35664,24.24031 0.64725,0.91496 1.66922,2.19827 2.27104,2.8518 0.60183,0.65355 1.30753,1.83013 1.56823,2.61466 0.26069,0.78452 1.04382,2.26608 1.74027,3.29235 0.69645,1.02627 1.40327,2.41631 1.57071,3.08896 0.16742,0.67263 0.84977,2.18548 1.51628,3.36184 1.05158,1.85603 1.20402,2.6651 1.15281,6.11854 -0.0392,2.63745 -0.27405,4.18752 -0.69656,4.59593 -0.99395,0.96077 -5.61308,1.28711 -7.3233,0.51737 z m 5.93943,-7.54826 c -0.0183,-0.8496 -0.23635,-1.9725 -0.48438,-2.49532 -0.35265,-0.74334 -0.39808,-0.60532 -0.20835,0.63303 0.13348,0.87099 0.023,1.99389 -0.24528,2.49533 -0.38251,0.7147 -0.33027,0.91169 0.24174,0.91169 0.5132,0 0.71977,-0.45826 0.69627,-1.54473 z m -74.6136,-6.44861 c 0.2386,-0.83197 0.34468,-1.51267 0.23573,-1.51267 -0.20826,0 -1.63675,3.24479 -1.63675,3.71785 0,0.73179 1.01844,-0.87122 1.40102,-2.20518 z m 2.21325,-3.76044 c -0.48316,-0.48315 -0.8818,0.24425 -0.48539,0.88566 0.29945,0.48453 0.41142,0.48491 0.57241,0.002 0.11012,-0.33023 0.071,-0.72965 -0.0869,-0.88759 z m -5.51546,-0.60403 c -0.65355,-0.2093 -1.61603,-0.39859 -2.13886,-0.42065 -0.78313,-0.0331 -0.82498,0.0411 -0.23765,0.42065 0.39212,0.25342 1.3546,0.44271 2.13884,0.42065 1.39732,-0.0393 1.40208,-0.0478 0.23767,-0.42065 z m 10.81893,-0.58088 c 0.44772,-0.37001 0.46455,-0.65904 0.0663,-1.13891 -0.44183,-0.53237 -0.74019,-0.48061 -1.7335,0.30072 -0.65991,0.51907 -1.49181,0.94378 -1.84867,0.94378 -0.35687,0 -0.64886,0.23768 -0.64886,0.5282 0,0.6273 3.23431,0.13509 4.16474,-0.63379 z m 50.97008,-1.50712 c 0,-0.7137 -1.15369,-1.35286 -1.61296,-0.89361 -0.33519,0.3352 0.603,1.55571 1.19585,1.55571 0.22942,0 0.41711,-0.29795 0.41711,-0.6621 z m 4.71834,-0.009 c 0.30638,-0.36917 1.61587,-0.92521 2.91001,-1.23566 1.29413,-0.31046 2.35295,-0.75703 2.35295,-0.99236 0,-1.12886 -6.80898,0.91955 -7.04552,2.11957 -0.18873,0.95741 1.01711,1.03076 1.78256,0.1085 z m -61.75435,-1.64713 c 0,-0.2294 -0.32083,-0.68337 -0.71296,-1.00879 -0.5782,-0.47988 -0.71295,-0.46093 -0.71295,0.10024 0,0.38055 0.14264,0.83452 0.31687,1.00879 0.45139,0.45138 1.10904,0.39194 1.10904,-0.10024 z m 0,-3.22905 c 0,-0.17551 -0.36482,-0.72215 -0.81069,-1.21484 -0.65826,-0.72736 -0.70403,-1.06654 -0.24343,-1.80408 0.39891,-0.63875 0.4279,-1.27477 0.0977,-2.14321 -0.25823,-0.6792 -0.46951,-1.85001 -0.46951,-2.60181 0,-0.7518 -0.21131,-1.4975 -0.46956,-1.65711 -0.4267,-0.26372 -0.30286,2.49992 0.23125,5.16069 0.0979,0.4876 -0.0663,1.27771 -0.36488,1.75579 -0.43412,0.69514 -0.36573,1.06496 0.34149,1.84644 0.8716,0.96311 1.68761,1.28134 1.68761,0.65813 z m 72.97574,-1.46332 c -0.491,-2.68238 -3.70271,-9.14619 -4.48158,-9.01952 -1.19499,0.1943 -1.72295,1.58698 -1.0629,2.80371 2.7337,5.03922 4.73412,7.99817 5.40719,7.99817 0.27679,0 0.33211,-0.71807 0.13725,-1.78236 z m -75.02757,-9.71396 c -0.15179,-0.37915 -0.26434,-0.26653 -0.28715,0.28718 -0.0207,0.50103 0.0918,0.78176 0.24964,0.62382 0.15791,-0.15791 0.17479,-0.56788 0.0375,-0.911 z m 56.22548,-0.26734 c -0.005,-0.19606 -0.45142,-0.8912 -0.99024,-1.54473 l -0.97969,-1.18826 0.85508,1.54474 c 0.8603,1.55418 1.13436,1.84627 1.11485,1.18825 z m -2.67723,-4.17938 c -0.15485,-0.40341 -0.38339,-0.63151 -0.50797,-0.50691 -0.12467,0.12449 -0.0855,0.45463 0.0868,0.73343 0.46866,0.75832 0.7426,0.61102 0.4212,-0.22652 z m -2.44809,-4.13838 c -0.87608,-0.87607 -1.04302,-0.91577 -1.04302,-0.24806 0,0.43723 0.37251,1.00342 0.82781,1.25822 1.26456,0.70768 1.38196,0.15665 0.21521,-1.01016 z m -8.07451,-1.69027 c 0.94445,-0.94445 -0.20213,-1.94604 -2.3972,-2.09402 l -2.21617,-0.14947 2.13886,-0.49557 c 1.7027,-0.39453 2.11586,-0.684 2.02613,-1.41965 -0.062,-0.50824 0.004,-1.43627 0.14515,-2.06226 0.39216,-1.73099 1.13661,-0.59059 1.47397,2.25789 0.16114,1.36004 0.45769,2.57467 0.65916,2.69918 0.20145,0.12449 1.56117,-0.86568 3.0216,-2.20043 2.93695,-2.68421 3.25874,-3.81257 1.66507,-5.8386 -0.92037,-1.17007 -0.96638,-1.62706 -0.65202,-6.47735 0.34543,-5.32964 0.0514,-6.65097 -1.48044,-6.65097 -0.70849,0 -13.0375,-12.13024 -13.0375,-12.8273 0,-0.686 -1.63125,-1.40686 -3.64806,-1.61216 -1.90353,-0.19374 -2.744,-0.44087 -5.21683,-1.53397 -0.82376,-0.36415 -1.74029,-0.66207 -2.03675,-0.66207 -0.29646,0 -1.06128,-0.34219 -1.6996,-0.76045 -1.09982,-0.72061 -1.27941,-0.68826 -3.42921,0.61773 -1.24775,0.75799 -3.33803,1.77365 -4.64512,2.25703 -1.30706,0.48336 -2.9112,1.22836 -3.56474,1.65557 -0.65355,0.4272 -1.96001,1.12608 -2.90323,1.55305 -0.94324,0.42697 -2.86822,1.71354 -4.2777,2.85906 -3.03369,2.46546 -8.85533,6.27929 -11.01331,7.21494 -4.05929,1.75997 -6.22581,5.8209 -4.33766,8.13042 0.54025,0.66081 0.84507,0.76949 0.9999,0.35648 0.12251,-0.32677 0.7396,-0.59413 1.37134,-0.59413 0.85387,0 1.14864,0.2589 1.14864,1.0088 0,0.76063 -0.1482,0.88579 -0.60249,0.50878 -0.43359,-0.35986 -0.90724,-0.27017 -1.68953,0.31992 -1.0422,0.78613 -1.05167,0.85146 -0.22927,1.58418 1.51015,1.34549 4.60842,2.72695 7.23155,3.22441 3.63919,0.69016 4.32046,0.62562 4.32046,-0.40938 0,-0.52085 1.08907,-1.73302 2.61415,-2.90961 1.43778,-1.10923 2.61414,-2.18375 2.61414,-2.38779 0,-0.20405 0.64166,-0.5947 1.4259,-0.86808 0.78426,-0.27339 1.4259,-0.81023 1.4259,-1.19298 0,-0.45248 0.70656,-0.80594 2.02003,-1.01049 2.94587,-0.45881 8.16066,-1.75106 8.43658,-2.09063 0.13078,-0.16078 1.09319,-0.72025 2.13885,-1.24308 l 1.90121,-0.95059 -2.45665,-0.14227 c -1.41158,-0.0817 -2.70004,-0.43562 -3.02882,-0.83178 -0.62439,-0.75235 -0.57501,-0.77465 2.05057,-0.9254 1.87046,-0.10743 2.91441,-0.69117 1.89016,-1.05699 -1.18417,-0.42291 -0.55568,-1.46028 1.06943,-1.76515 1.89812,-0.35609 2.03294,-0.68163 1.44023,-3.4773 -0.38296,-1.80621 0.51909,-2.18784 0.96566,-0.40855 0.35977,1.43337 2.84402,3.87561 3.25912,3.20397 0.16689,-0.26995 0.20621,-1.02642 0.0875,-1.68107 -0.11875,-0.65463 -0.0363,-1.78809 0.18325,-2.51878 l 0.39907,-1.32853 0.0438,1.4259 c 0.0241,0.78424 0.36329,2.03853 0.75381,2.78731 0.39051,0.74878 0.71255,2.24596 0.71566,3.32709 0.004,1.08113 0.32139,3.14207 0.70731,4.57984 0.38591,1.43779 0.7042,3.11654 0.7073,3.73057 0.004,0.61403 0.31896,1.79041 0.70188,2.61415 0.75498,1.6241 3.10617,10.40844 3.10617,11.60504 0,0.40418 0.56553,1.47633 1.25675,2.38257 1.21093,1.58759 1.3439,1.63735 3.64718,1.36457 1.31474,-0.15575 2.57424,-0.46693 2.79888,-0.69159 z m -4.04788,-4.27016 c -0.73737,-0.81478 -0.74846,-0.97922 -0.10222,-1.5156 0.39873,-0.33089 0.72494,-1.01851 0.72494,-1.52799 0,-0.82343 0.0792,-0.84715 0.71296,-0.21341 0.87435,0.87435 0.91567,2.22313 0.10222,3.33566 -0.5794,0.79237 -0.65327,0.78832 -1.43788,-0.0787 z m -13.16093,-26.24115 c 0,-0.52282 0.21388,-0.9506 0.47529,-0.9506 0.26142,0 0.4753,0.42778 0.4753,0.9506 0,0.52283 -0.21388,0.95059 -0.4753,0.95059 -0.26141,0 -0.47529,-0.42776 -0.47529,-0.95059 z m 25.02146,6.28715 c 0.97622,-0.78688 1.97786,-2.96005 1.36433,-2.96005 -0.62696,0 -3.57137,2.64505 -3.57139,3.20828 -10e-6,0.834 1.00461,0.721 2.20706,-0.24823 z m -3.92703,-4.38595 c 0.69198,-1.04566 1.60393,-1.9012 2.02655,-1.9012 0.62161,0 0.7135,-0.33833 0.48097,-1.77122 -0.15808,-0.97418 -0.69191,-2.31098 -1.18628,-2.97064 -0.83017,-1.10775 -1.14884,-1.18895 -4.17128,-1.06275 -4.6903,0.19583 -6.83719,0.57819 -6.83719,1.21773 0,0.79179 7.0798,8.38927 7.81764,8.38927 0.33628,0 1.1776,-0.85554 1.86959,-1.90119 z m -5.88484,-9.9348 c 0,-0.58446 0.52293,-1.08641 1.47913,-1.41974 1.00793,-0.35136 1.39306,-0.73987 1.209,-1.21952 -0.14856,-0.38715 -0.0428,-0.84442 0.23519,-1.01618 0.34275,-0.21183 0.31541,-0.42963 -0.085,-0.67708 -0.42626,-0.26343 -0.30827,-0.51572 0.42454,-0.90793 0.55815,-0.29871 1.01481,-0.8564 1.01481,-1.23932 0,-0.38293 0.24007,-0.69624 0.5335,-0.69624 0.39048,0 0.38829,-0.17497 -0.009,-0.65271 -0.59133,-0.71247 -0.23506,-2.19909 0.52699,-2.19909 0.26142,0 0.35481,-0.31398 0.20754,-0.69772 -0.1473,-0.38375 -0.0632,-0.82414 0.18681,-0.97865 0.24999,-0.15449 0.45455,-0.68957 0.45455,-1.18903 0,-0.49944 0.39301,-1.60971 0.87337,-2.46726 0.48035,-0.85755 0.77826,-1.84184 0.66202,-2.18729 -0.11623,-0.34545 0.2504,-1.11963 0.81478,-1.72039 0.73252,-0.77971 0.9413,-1.43035 0.72963,-2.27369 -0.25161,-1.00247 0.0983,-0.80808 2.30989,1.28328 1.49909,1.4176 3.58341,2.82821 4.90609,3.3203 1.26481,0.47057 2.94131,1.23099 3.72557,1.68983 0.78424,0.45882 2.84115,1.18236 4.5709,1.60784 1.72974,0.42548 4.41891,1.4102 5.97593,2.18825 4.53249,2.26491 5.45135,2.30075 7.11898,0.27761 2.41013,-2.92391 3.48363,-5.39097 3.50174,-8.04752 0.009,-1.34772 0.32249,-3.84067 0.69625,-5.53986 0.82642,-3.75713 0.92558,-8.0801 0.18536,-8.0801 -0.29018,0 -1.7339,0.62114 -3.20829,1.38032 -3.41307,1.75743 -4.95954,2.22148 -7.90898,2.37322 -1.30707,0.0672 -2.52808,0.26804 -2.71337,0.44621 -0.18528,0.1782 -0.66869,1.49842 -1.07425,2.93391 -0.40554,1.4355 -0.6708,1.95236 -0.58944,1.14859 0.13258,-1.31042 -0.21442,-1.75232 -3.35946,-4.2777 -5.79592,-4.65392 -7.6673,-5.69807 -8.44726,-4.71327 -0.27439,0.34645 -1.23687,0.75075 -2.13886,0.89843 -4.20116,0.6879 -4.72018,0.66732 -5.86431,-0.23267 -0.63464,-0.4992 -1.72948,-0.90763 -2.43299,-0.90763 -0.70351,0 -2.00964,-0.34667 -2.90253,-0.77038 l -1.62343,-0.77037 -2.78841,3.02805 -2.78837,3.02805 -1.05409,-1.78238 c -0.57974,-0.98031 -1.24684,-1.78238 -1.48244,-1.78238 -0.23558,0 -0.42835,-0.3082 -0.42835,-0.6849 0,-0.73883 -0.85854,-1.46679 -1.25837,-1.06695 -0.13455,0.13456 0.007,0.71643 0.31669,1.2932 0.43703,0.8166 0.43378,0.9699 -0.0144,0.69277 -0.69922,-0.43214 -1.40296,0.56833 -1.41291,2.00864 -0.005,0.7098 0.21007,0.9711 0.65761,0.79937 0.36568,-0.1403 0.80607,-0.0266 0.97865,0.25257 0.17263,0.27923 0.0873,0.5077 -0.18958,0.5077 -0.27684,0 -0.50335,0.22651 -0.50335,0.50336 0,0.27684 0.21388,0.37115 0.47529,0.20958 0.26142,-0.16149 0.47531,-0.0422 0.47531,0.26505 0,0.32477 -0.39808,0.45469 -0.9506,0.3102 -0.85522,-0.22365 -0.95061,-0.0144 -0.95061,2.0834 0,1.52873 0.20467,2.34493 0.59413,2.36954 0.47531,0.03 0.47531,0.0855 0,0.27726 -0.32677,0.13186 -0.59413,0.67462 -0.59413,1.20614 0,0.73244 0.23018,0.90626 0.95061,0.71785 0.52283,-0.13671 0.9506,-0.069 0.9506,0.15072 0,0.21957 -0.58818,0.46692 -1.30708,0.54963 -1.7547,0.2019 -2.11921,2.10735 -0.51654,2.70022 l 1.09505,0.40509 -1.08778,0.34525 c -1.35878,0.43126 -1.06796,1.49551 0.36412,1.33251 1.46386,-0.16671 0.99658,1.02287 -0.4862,1.23767 -0.63305,0.0916 -1.30816,0.41253 -1.50022,0.71296 -0.63431,0.99217 -0.38089,2.20897 0.46802,2.24727 0.49691,0.0224 0.59258,0.13401 0.23765,0.27726 -1.12644,0.45453 -0.63471,1.58643 0.68919,1.58643 0.92808,0 1.13955,0.14371 0.76398,0.51932 -0.37558,0.37557 -0.80787,0.36492 -1.56167,-0.0384 -0.57329,-0.30681 -1.15463,-0.44555 -1.29188,-0.3083 -0.13724,0.13724 -0.3624,1.65568 -0.50037,3.37432 -0.29475,3.67202 0.32914,4.72016 3.12008,5.24167 0.96322,0.17998 1.97063,0.50831 2.23867,0.72961 0.26806,0.2213 1.55136,0.48444 2.8518,0.58475 5.38867,0.41564 5.45388,0.40906 5.45388,-0.55038 z m -12.73804,-3.46867 c -0.3137,-0.31369 -0.57036,-0.82221 -0.57036,-1.13005 0,-0.76042 1.36603,-1.84498 1.78991,-1.42112 0.18756,0.18756 -0.0359,0.55202 -0.49678,0.80989 -1.19213,0.66716 -0.47335,1.49694 0.98059,1.13203 1.06568,-0.26748 1.14167,-0.21242 0.60289,0.43678 -0.73768,0.88883 -1.53059,0.94814 -2.30625,0.17246 z m 10.12389,-11.75892 c -0.78424,-0.46893 -1.56493,-0.77474 -1.73483,-0.67955 -0.77548,0.43443 -0.21775,-3.50386 0.67344,-4.7554 0.87495,-1.2288 0.91473,-1.54134 0.36364,-2.85843 -0.34029,-0.81334 -0.72108,-2.29973 -0.84618,-3.30307 l -0.22746,-1.82429 4.92576,0.33916 c 2.70914,0.18654 5.03267,0.44906 5.16338,0.58338 0.13078,0.13437 -1.84771,0.11318 -4.39651,-0.0469 -4.29048,-0.2695 -4.63419,-0.22614 -4.63419,0.58458 0,0.9906 1.91507,1.46133 5.98086,1.47013 1.32886,0.004 2.54027,0.12934 2.69201,0.28114 0.1518,0.1518 -0.56168,1.03261 -1.5854,1.95746 -1.78362,1.6114 -1.85867,1.79792 -1.79826,4.46957 0.0542,2.39821 -0.0952,2.91974 -1.06836,3.73032 -1.36789,1.1393 -1.68151,1.14394 -3.5079,0.0519 z m 2.99195,-2.04988 c 0.34944,-0.42106 0.28993,-0.87354 -0.20321,-1.54474 -0.68914,-0.93797 -0.70798,-0.9353 -1.58709,0.22571 -0.48931,0.64624 -0.78681,1.34136 -0.66111,1.54473 0.35649,0.57684 1.90358,0.43439 2.45141,-0.2257 z m 2.474,-6.86062 c 0,-0.43196 -0.73143,-0.62402 -2.37649,-0.62402 -2.72704,0 -3.12516,0.80537 -1.33832,2.70737 l 1.03816,1.10508 1.33833,-1.2822 c 0.73607,-0.7052 1.33832,-1.56301 1.33832,-1.90623 z m -17.58777,17.67504 c 0.24207,-0.52283 0.5162,-2.34086 0.60918,-4.04005 0.27997,-5.11555 1.93165,-17.81243 2.33921,-17.98219 0.53882,-0.22443 0.47505,-4.83222 -0.0668,-4.83222 -0.246,0 -0.57945,0.21388 -0.74102,0.4753 -0.1615,0.26141 -0.60194,0.47531 -0.97865,0.47531 -0.50391,0 -0.6849,-0.62055 -0.6849,-2.34847 0,-1.29163 -0.23023,-2.49074 -0.51163,-2.66465 -0.28141,-0.17389 -2.17986,-0.40539 -4.21876,-0.51442 l -3.70711,-0.1982 -1.36603,1.64568 c -2.05119,2.4711 -4.93077,6.33518 -4.93077,6.61657 0,0.72553 -4.02841,6.08841 -6.05808,8.06491 l -2.34513,2.28369 -2.33377,-0.56594 c -1.28357,-0.31125 -2.53696,-0.75072 -2.78531,-0.9766 -0.70497,-0.64118 -5.78275,-0.49378 -6.31948,0.18344 -0.25899,0.32677 -0.73919,2.04856 -1.06711,3.8262 -0.55297,2.99752 -0.53165,3.28098 0.29384,3.90611 0.48956,0.37073 1.3587,0.68084 1.93146,0.68916 0.57275,0.009 1.18508,0.24763 1.36073,0.53182 0.22996,0.37209 0.46396,0.37209 0.83605,0 0.64877,-0.64875 6.34616,-0.68375 6.74315,-0.0413 0.1615,0.26141 0.72153,0.47529 1.24435,0.47529 0.56828,0 0.82111,0.20953 0.62862,0.521 -0.19884,0.3217 0.009,0.45711 0.54523,0.35398 0.47696,-0.0918 0.99279,-0.6989 1.14623,-1.34898 0.15342,-0.65007 0.75924,-1.42136 1.34616,-1.71397 1.70824,-0.85164 2.41993,-2.12422 1.92135,-3.43558 -0.36936,-0.97148 -0.14928,-1.45075 1.47647,-3.21441 1.05079,-1.13998 1.91054,-2.47906 1.91054,-2.97572 0,-0.49667 0.34683,-1.19087 0.77073,-1.54266 0.4239,-0.35181 1.50036,-2.1389 2.39214,-3.97131 0.89179,-1.83241 1.82827,-3.53851 2.08108,-3.79132 0.25281,-0.25281 0.45965,-0.93897 0.45965,-1.52479 0,-0.58583 0.2139,-1.19733 0.47531,-1.3589 0.28164,-0.17407 0.4753,0.37175 0.4753,1.33966 0,1.87045 0.64992,2.56897 2.78817,2.99661 0.83012,0.16598 1.62442,0.48813 1.76511,0.71577 0.14066,0.22766 0.9918,0.41392 1.89132,0.41392 1.44904,0 1.6355,0.14245 1.6355,1.24947 0,1.23013 -0.0381,1.24445 -2.45871,0.92334 -1.3523,-0.17946 -2.83543,-0.52777 -3.29585,-0.77418 -0.46044,-0.24643 -1.20266,-0.44805 -1.64941,-0.44805 -0.74774,0 -0.79285,0.77665 -0.56794,9.77732 0.15791,6.31794 0.43421,9.96721 0.78101,10.31402 0.29519,0.29517 0.5367,1.09468 0.5367,1.77669 0,1.74744 0.90269,2.77906 3.09573,3.53788 1.88948,0.6538 1.8953,0.65204 2.0305,-0.61144 0.0745,-0.6969 0.33365,-1.69488 0.5757,-2.21771 z m -24.35747,-4.3677 c -0.45747,-0.11946 -1.20607,-0.11946 -1.66354,0 -0.45748,0.11964 -0.0832,0.21738 0.83177,0.21738 0.91496,0 1.28926,-0.0979 0.83177,-0.21738 z m 21.98264,-18.20906 c 0,-0.26141 -0.21389,-0.47529 -0.4753,-0.47529 -0.26141,0 -0.47529,0.21388 -0.47529,0.47529 0,0.26142 0.21388,0.4753 0.47529,0.4753 0.26141,0 0.4753,-0.21388 0.4753,-0.4753 z m 14.24157,-5.10947 c 2.83634,-3.32871 6.19634,-8.32534 6.19634,-9.21449 0,-0.97671 -0.50301,-1.14313 -1.2369,-0.40922 -0.68093,0.68091 0.21872,-6.8528 1.05829,-8.86214 0.36666,-0.87757 0.87769,-1.59559 1.13558,-1.59559 0.25791,0 0.46893,-0.31356 0.46893,-0.69683 0,-0.68438 1.42567,-4.06526 1.91086,-4.53146 0.13599,-0.13078 0.51034,-0.83591 0.83179,-1.5671 1.45704,-3.31428 -0.0336,-6.51301 -3.0351,-6.51301 -0.85396,0 -1.68484,0.21388 -1.84641,0.4753 -0.48479,0.78442 -1.18825,0.53718 -1.18825,-0.41763 0,-1.36598 -2.04236,-1.88508 -8.05981,-2.04858 l -5.44567,-0.14802 -0.41752,2.08472 c -0.49358,2.46446 -0.0568,5.42573 0.76069,5.15747 0.31178,-0.10221 0.63454,-0.75767 0.71725,-1.4564 0.17192,-1.45244 0.48311,-1.5526 1.77879,-0.57259 0.50745,0.3838 1.27374,0.70462 1.70287,0.71294 1.68911,0.0327 1.4227,3.8097 -0.41169,5.83668 -1.15308,1.27414 -2.35936,1.00008 -3.59373,-0.81647 l -1.1206,-1.6491 -1.98599,2.02356 c -1.0923,1.11297 -1.98598,2.17591 -1.98598,2.36207 0,0.18616 0.96248,0.33848 2.13884,0.33848 1.8505,0 2.13886,-0.13348 2.13886,-0.9902 0,-0.58092 0.24557,-0.90836 0.59413,-0.79218 1.02724,0.34243 0.68579,2.42156 -0.49431,3.0099 l -1.0884,0.54262 1.40984,0.58398 c 0.77542,0.3212 1.85339,0.44321 2.39549,0.27115 0.5771,-0.18316 0.98564,-0.10257 0.98564,0.1945 0,0.27903 -0.29794,0.50734 -0.66209,0.50734 -0.36417,0 -0.78521,0.32082 -0.93569,0.71294 -0.19231,0.50113 -0.97398,0.71296 -2.63104,0.71296 -2.31446,0 -3.79005,0.77729 -3.89915,2.05396 -0.28349,3.31709 -0.26843,3.35041 1.71142,3.78734 1.04566,0.23076 4.36088,0.69774 7.36715,1.03773 l 5.46596,0.61814 -4.4383,0.0539 -4.43832,0.0539 0.33464,2.02003 c 0.37986,2.2932 1.00237,3.68357 1.64924,3.68357 0.9426,0 5.39805,-1.97982 6.82072,-3.03085 2.49223,-1.84119 3.03723,-1.89083 1.06935,-0.0974 -1.01995,0.92953 -2.89145,2.15872 -4.15887,2.73153 -1.26744,0.5728 -2.30442,1.35745 -2.30442,1.74365 0,0.81099 2.23147,3.88137 2.82087,3.88137 0.21778,0 1.07941,-0.80208 1.9147,-1.78238 z m 3.81984,-21.47429 c 0,-0.24323 0.46155,-0.51057 1.02567,-0.59411 1.59967,-0.23689 3.92415,-5.68096 2.53907,-5.94667 -0.56508,-0.10832 -1.45928,1.43598 -1.97918,3.41828 -0.34543,1.31709 -0.38603,1.25081 -0.53202,-0.86871 -0.097,-1.40736 0.0823,-2.58607 0.46363,-3.04843 0.55353,-0.6712 0.50445,-0.69137 -0.44775,-0.18401 -1.51705,0.80837 -1.32518,0.30794 0.33528,-0.8744 1.19722,-0.85251 1.54823,-0.9106 2.37649,-0.39333 1.51901,0.94863 1.03347,4.4537 -1.05944,7.64784 -0.79295,1.21023 -2.72175,1.80802 -2.72175,0.84354 z m -12.05467,15.93759 c -0.94263,-3.01161 -1.73082,-2.53509 -1.71403,1.03626 l 0.0144,3.19335 1.11515,-1.26605 c 0.9983,-1.1334 1.05949,-1.44394 0.58385,-2.96356 z m 24.82498,2.85004 c 1.74737,-1.28918 1.63059,-1.45863 -1.34482,-1.95146 -1.16632,-0.19318 -2.44964,-0.51866 -2.8518,-0.72329 -0.40218,-0.20463 -1.66064,-0.62064 -2.79658,-0.92448 -1.78732,-0.47808 -2.1872,-0.44217 -2.97064,0.26682 -1.32492,1.19905 -1.11059,1.95352 0.64869,2.28358 0.85469,0.16024 2.29841,0.70658 3.20828,1.21387 2.25735,1.25854 4.2503,1.20469 6.10687,-0.16509 z m 18.96587,-0.19486 c 0.10509,-0.31527 -0.24894,-0.56441 -0.80208,-0.56441 -0.98734,0 -1.28326,0.4991 -0.66343,1.11893 0.44036,0.44035 1.23399,0.14012 1.46551,-0.55452 z m 4.38662,-0.11712 c 0,-0.53826 -0.21539,-0.84554 -0.47865,-0.68284 -0.26327,0.16276 -0.60697,-0.0386 -0.7638,-0.44725 -0.41458,-1.08034 -1.4549,-0.90975 -1.76864,0.29001 -0.37155,1.42082 -0.0187,1.81873 1.61325,1.81873 1.09434,0 1.39784,-0.2125 1.39784,-0.97865 z m -50.97293,-4.36848 c -0.10725,-0.32676 -0.92631,-0.66508 -1.82007,-0.75179 -0.89377,-0.0868 -1.89994,-0.3858 -2.23592,-0.66466 -0.45038,-0.37376 -0.78561,-0.26989 -1.27578,0.39532 -0.61979,0.84113 -0.53019,0.92163 1.32195,1.18739 3.45629,0.49595 4.21685,0.46441 4.00982,-0.16617 z m -1.9141,-2.54484 c -0.1579,-0.15791 -0.5679,-0.17479 -0.91099,-0.0376 -0.37917,0.1518 -0.26655,0.26434 0.28715,0.28716 0.50104,0.0207 0.78177,-0.0918 0.62384,-0.24965 z m 2.98052,-7.79294 c 0,-0.26141 -0.43466,-0.47529 -0.96592,-0.47529 -0.55573,0 -1.12722,-0.43606 -1.34578,-1.02688 -0.32511,-0.87886 -0.42352,-0.91312 -0.6827,-0.23765 -0.5046,1.31494 0.15341,2.21512 1.61935,2.21512 0.75627,0 1.37505,-0.21388 1.37505,-0.4753 z m 5.21242,-8.19482 c 0.79319,-1.41802 0.32332,-2.84708 -1.02348,-3.11281 -0.64421,-0.12718 -1.81244,2.54624 -1.81244,4.1475 0,1.05228 2.09638,0.28741 2.83592,-1.03469 z m -83.16185,39.80201 c -0.80885,-0.97459 -1.13594,-4.39693 -0.61239,-6.40762 0.36903,-1.41729 0.42688,-1.17192 0.40293,1.70898 -0.0304,3.64431 0.58901,4.99695 2.10622,4.60019 0.50104,-0.13095 1.24671,-0.75059 1.65703,-1.37684 0.41031,-0.62622 1.01741,-1.1386 1.34906,-1.1386 0.33167,0 1.54325,-0.95799 2.69237,-2.12887 1.14915,-1.1709 2.19574,-2.0225 2.32576,-1.89248 0.13006,0.13006 -0.59344,1.08627 -1.60773,2.12499 l -1.84416,1.88859 1.36983,1.42978 c 1.31244,1.36988 1.32628,1.42979 0.33031,1.42979 -0.57173,0 -1.03951,-0.22915 -1.03951,-0.50924 0,-0.28008 -0.321,-0.83025 -0.71332,-1.22257 -0.6342,-0.6342 -0.90974,-0.55139 -2.48479,0.74691 -1.96007,1.61564 -3.04036,1.8209 -3.93161,0.74699 z m 12.95214,-3.38859 c 0.98031,-1.03374 1.79741,-2.29827 1.81579,-2.81009 0.0327,-0.90927 0.0422,-0.90882 0.41851,0.0201 0.43502,1.07379 -0.30399,2.12724 -2.59078,3.69315 -1.29556,0.88716 -1.26297,0.80462 0.35648,-0.90311 z m -4.03598,-0.48871 c 0.52953,-0.74291 1.41361,-1.75818 1.96466,-2.25617 1.15966,-1.04802 1.35015,-2.28781 0.28894,-1.8806 -0.39212,0.15054 -0.71295,0.0368 -0.71295,-0.25256 0,-0.28939 0.18913,-0.52615 0.42026,-0.52615 0.23114,0 1.95187,-2.08538 3.82385,-4.63418 2.5857,-3.52059 3.33915,-4.89116 3.13544,-5.7036 -0.14749,-0.58818 -0.0501,-1.06942 0.2162,-1.06942 0.47991,0 0.69163,1.01182 0.49502,2.36574 -0.056,0.38621 -0.75978,1.53273 -1.56374,2.54783 -1.27655,1.61178 -1.38527,1.9682 -0.8579,2.81266 0.49741,0.79647 0.49084,0.92395 -0.0374,0.72289 -0.35266,-0.13419 -1.13866,-0.0593 -1.74667,0.16671 l -1.10547,0.41087 1.02075,1.29769 c 1.06834,1.35818 0.54629,2.12622 -0.72697,1.06951 -0.56371,-0.46785 -0.69695,-0.43101 -0.69695,0.19271 0,0.42413 0.34701,0.77116 0.77114,0.77116 1.13517,0 0.0605,1.14848 -1.98126,2.11735 -0.90293,0.42848 -1.64168,1.03838 -1.64168,1.35536 0,0.31698 -0.45633,0.86129 -1.01406,1.20959 l -1.01405,0.63329 z m 12.07062,-0.87922 c 0.0769,-2.03021 0.12592,-2.10209 0.9353,-1.36958 0.59633,0.53969 1.25461,0.67311 2.18046,0.44197 1.26268,-0.31525 1.23514,-0.25058 -0.57498,1.34979 -1.04565,0.92448 -2.06333,1.68979 -2.26151,1.70068 -0.19817,0.0108 -0.32384,-0.94441 -0.27927,-2.12286 z m 13.35386,-0.57429 c 0.71889,-0.10886 1.89527,-0.10886 2.61415,0 0.71889,0.10886 0.13078,0.198 -1.30706,0.198 -1.4378,0 -2.02598,-0.0891 -1.30709,-0.198 z m -33.38983,-5.81486 c 0,-0.24842 0.35251,-0.64895 0.78332,-0.89004 0.69697,-0.39006 0.63415,-0.64152 -0.57,-2.2813 l -1.35334,-1.84292 1.66207,1.54471 c 1.90842,1.77371 2.36558,1.86755 3.42029,0.70209 0.52172,-0.57648 0.62235,-1.06437 0.3186,-1.54471 -0.62975,-0.99586 -0.56293,-1.41505 0.22555,-1.41505 0.37626,0 2.14082,-0.74754 3.92124,-1.66123 3.46846,-1.77994 4.9464,-2.15341 3.99761,-1.01019 -0.29928,0.36061 -1.12754,0.77288 -1.84057,0.91617 -1.86954,0.37568 -4.42748,2.24168 -5.33805,3.89411 -0.43218,0.78424 -1.41068,1.74672 -2.17446,2.13884 -0.7638,0.39212 -1.55975,0.98032 -1.7688,1.30709 -0.44716,0.69894 -1.28346,0.79176 -1.28346,0.14245 z m 2.09369,-6.79664 -0.90544,-1.06942 1.06942,0.90544 c 1.005,0.85089 1.28582,1.2334 0.90544,1.2334 -0.0902,0 -0.57143,-0.48124 -1.06942,-1.06942 z m -8.49605,-3.194 c -2.07126,-2.08348 -3.64189,-3.91217 -3.49029,-4.06377 0.33919,-0.33918 6.09026,4.99007 6.09026,5.64357 0,0.25845 0.35396,0.86105 0.78661,1.33911 0.43263,0.47808 0.69498,0.86922 0.58297,0.86922 -0.1121,0 -1.8983,-1.70467 -3.96955,-3.78813 z m 5.41579,0.10455 -1.15228,-1.30708 1.30707,1.15228 c 1.22167,1.07697 1.52505,1.46187 1.15227,1.46187 -0.0851,0 -0.67331,-0.58818 -1.30706,-1.30707 z m 14.89814,0.5024 c 0.46245,-0.12054 1.10411,-0.11263 1.4259,0.018 0.3218,0.13024 -0.0566,0.22879 -0.84082,0.21911 -0.78424,-0.009 -1.04753,-0.11623 -0.58508,-0.23672 z m -17.99677,-3.59185 -0.90545,-1.06944 1.06942,0.90545 c 1.00501,0.85089 1.2858,1.23341 0.90545,1.23341 -0.0902,0 -0.57144,-0.48124 -1.06942,-1.06942 z m -6.90732,-2.61415 c -0.59122,-0.75386 -0.57441,-0.77068 0.17946,-0.17946 0.79173,0.62093 1.04351,1.01123 0.65233,1.01123 -0.0986,0 -0.473,-0.3743 -0.83178,-0.83177 z m 3.38772,-0.59413 c -0.91495,-0.78302 -1.43621,-1.42417 -1.15834,-1.42478 0.27785,-4.7e-4 1.11993,0.64054 1.87128,1.42478 1.74812,1.82463 1.41913,1.82463 -0.71294,0 z m -7.1295,-2.90982 c -1.65645,-1.45211 -1.65701,-1.454 -0.1333,-0.44037 0.84171,0.55987 1.65638,1.22188 1.81044,1.47111 0.4585,0.74188 0.0783,0.50819 -1.67723,-1.03074 z m -2.43714,-2.67496 c -0.5912,-0.75385 -0.5744,-0.77066 0.17946,-0.17947 0.45748,0.35878 0.83178,0.73308 0.83178,0.83178 0,0.39118 -0.39031,0.1394 -1.01124,-0.65233 z m 145.41335,-1.39411 c 0.34311,-0.13724 0.75306,-0.12036 0.911,0.0376 0.1579,0.1579 -0.12288,0.27027 -0.62383,0.24963 -0.5537,-0.0228 -0.66632,-0.13545 -0.28717,-0.28716 z m -148.48733,-1.69534 -0.90544,-1.06942 1.06944,0.90544 c 1.00498,0.85089 1.28579,1.23342 0.90544,1.23342 -0.0902,0 -0.57144,-0.48124 -1.06944,-1.06944 z m 3.57394,-0.23765 -1.15227,-1.30707 1.30707,1.15227 c 0.71888,0.63376 1.30708,1.22194 1.30708,1.30707 0,0.37278 -0.3849,0.0693 -1.46188,-1.15227 z m -3.35176,-3.32709 c -0.5912,-0.75387 -0.5744,-0.77066 0.17946,-0.17947 0.45748,0.35878 0.83178,0.73308 0.83178,0.83178 0,0.3912 -0.39031,0.1394 -1.01124,-0.65231 z m -9.25288,-5.94125 -0.90544,-1.06944 1.06942,0.90544 c 1.005,0.85091 1.28582,1.23342 0.90545,1.23342 -0.0902,0 -0.57142,-0.48124 -1.06943,-1.06942 z m 3.3271,0 -0.90544,-1.06944 1.06943,0.90544 c 1.00499,0.85091 1.2858,1.23342 0.90545,1.23342 -0.0902,0 -0.57144,-0.48124 -1.06944,-1.06942 z m 149.06687,0.33271 c -0.009,-0.27449 0.18232,-0.70227 0.42361,-0.95061 0.24129,-0.24835 0.53008,-1.09318 0.64173,-1.87744 l 0.20301,-1.4259 0.0711,1.45389 c 0.0392,0.79963 -0.2428,1.86905 -0.6266,2.3765 -0.38383,0.50744 -0.70465,0.69803 -0.71296,0.42356 z m -1.79749,-0.54932 c -0.86991,-0.16761 -1.07565,-0.53233 -1.10283,-1.95531 -0.0424,-2.21721 -0.61967,-3.8035 -1.1009,-3.02484 -0.19124,0.30941 -0.59479,0.56258 -0.8968,0.56258 -0.31838,0 -0.21676,-0.33234 0.24185,-0.79094 1.22039,-1.22041 2.26455,-0.0618 2.26455,2.51269 0,1.49472 0.19288,2.08065 0.6849,2.08065 0.37669,0 0.81708,0.21388 0.97865,0.4753 0.1615,0.26141 0.22766,0.44617 0.14695,0.41057 -0.0808,-0.0356 -0.62812,-0.15737 -1.2163,-0.2707 z m 7.96128,-1.36696 c 0,-0.41348 -0.7486,-1.66535 -1.66355,-2.78192 -0.91495,-1.11658 -1.66355,-2.47673 -1.66355,-3.02257 0,-1.238 -0.86084,-1.83548 -1.23598,-0.85788 -0.15324,0.39942 0.13796,1.32198 0.64697,2.05016 0.50913,0.72817 1.07693,1.96561 1.2618,2.74985 0.29584,1.25501 0.1703,1.16693 -1.04703,-0.73491 -0.76075,-1.18845 -1.6308,-2.79259 -1.93346,-3.56476 -0.52127,-1.32983 -0.53925,-1.29104 -0.34066,0.73491 0.15521,1.58323 0.087,1.92065 -0.26276,1.29889 -0.25981,-0.46198 -0.40622,-1.63836 -0.32536,-2.61415 0.13329,-1.6087 0.28785,-1.78784 1.65677,-1.92052 1.57213,-0.15234 6.10108,1.79612 5.02564,2.16217 -0.78748,0.26805 -0.75545,1.5274 0.0627,2.46209 0.36121,0.41271 0.8111,1.28508 0.99976,1.93863 0.33487,1.16 0.32465,1.16564 -0.42983,0.23765 -0.73794,-0.90767 -0.75923,-0.87009 -0.47155,0.83177 0.16562,0.9803 0.17047,1.78238 0.0108,1.78238 -0.15988,0 -0.29055,-0.33831 -0.29055,-0.75179 z m -1.90847,-6.02125 c -0.005,-0.83495 -0.10294,-0.91809 -0.44395,-0.37916 -0.24016,0.37965 -0.3312,0.86089 -0.20233,1.06943 0.41228,0.66705 0.65375,0.40912 0.64628,-0.69027 z m -159.50109,4.75302 -0.90544,-1.06944 1.06942,0.90544 c 1.005,0.85089 1.28582,1.23342 0.90544,1.23342 -0.0902,0 -0.57142,-0.48124 -1.06942,-1.06942 z m -3.10491,-3.08945 c -0.59122,-0.75386 -0.5744,-0.77068 0.17946,-0.17946 0.79173,0.62091 1.04352,1.01123 0.65233,1.01123 -0.0986,0 -0.47299,-0.3743 -0.83177,-0.83177 z m 166.83034,0 c -0.59121,-0.75386 -0.5744,-0.77068 0.17947,-0.17946 0.79173,0.62091 1.04351,1.01123 0.65233,1.01123 -0.0986,0 -0.473,-0.3743 -0.83178,-0.83177 z m -169.68214,-2.8518 c -0.59122,-0.75387 -0.5744,-0.77068 0.17946,-0.17946 0.45747,0.35878 0.83177,0.73308 0.83177,0.83177 0,0.39119 -0.3903,0.1394 -1.01121,-0.65231 z m -0.95061,-3.80241 c -0.59121,-0.75386 -0.5744,-0.77066 0.17946,-0.17946 0.45748,0.35878 0.83178,0.73308 0.83178,0.83177 0,0.39121 -0.39033,0.13941 -1.01124,-0.65231 z m -5.20364,-2.8518 -1.15229,-1.30709 1.30709,1.15229 c 1.22164,1.07697 1.52504,1.46187 1.15227,1.46187 -0.0851,0 -0.67331,-0.58818 -1.30707,-1.30707 z m 2.82714,0.47529 c -0.5912,-0.75384 -0.57439,-0.77066 0.17946,-0.17946 0.45747,0.35878 0.83177,0.73308 0.83177,0.83178 0,0.39118 -0.39031,0.1394 -1.01123,-0.65233 z m -6.15425,-3.80238 -1.15227,-1.30709 1.30708,1.15227 c 1.22165,1.07698 1.52503,1.46188 1.15227,1.46188 -0.0851,0 -0.67333,-0.58818 -1.30708,-1.30706 z m 2.60497,0.23764 -0.90544,-1.06944 1.06942,0.90545 c 1.005,0.85089 1.28581,1.23341 0.90544,1.23341 -0.0902,0 -0.57142,-0.48124 -1.06942,-1.06942 z m -6.7441,-4.29264 c -1.36351,-1.38065 -2.4791,-2.6498 -2.4791,-2.82033 0,-0.17048 0.52396,-0.21505 1.16436,-0.099 1.37704,0.24971 4.40288,2.87253 3.89722,3.37816 -0.19284,0.19286 -0.82241,-0.19126 -1.39902,-0.8536 -0.57663,-0.66233 -1.3793,-1.40258 -1.78375,-1.64497 -0.40444,-0.24239 -0.33492,-0.0726 0.15449,0.37732 0.82515,0.75855 3.31709,4.17261 3.0456,4.17261 -0.0665,0 -1.23632,-1.12962 -2.59982,-2.51027 z m 3.8923,1.44084 -0.90544,-1.06944 1.06942,0.90545 c 1.005,0.85089 1.28581,1.23341 0.90544,1.23341 -0.0902,0 -0.57142,-0.48124 -1.06942,-1.06942 z m -6.68827,-5.89411 c 0,-0.46793 0.16024,-0.49326 0.63374,-0.10024 0.34856,0.28928 0.63374,0.57106 0.63374,0.62618 0,0.0552 -0.28518,0.10024 -0.63374,0.10024 -0.34856,0 -0.63374,-0.28179 -0.63374,-0.6262 z m -9.44904,-8.25522 c -7.80743,-7.84925 -10.68783,-11.28167 -8.40293,-10.01332 1.69957,0.94344 17.10833,16.94881 17.08458,17.74609 -0.0144,0.45747 -0.0559,0.83177 -0.0938,0.83177 -0.0379,0 -3.90249,-3.85403 -8.5879,-8.56454 z"
       id="path86"
       inkscape:connector-curvature="0" />
  </g>
</svg>
