<?xml version="1.0" encoding="UTF-8" standalone="no"?>
<!-- Created with Inkscape (http://www.inkscape.org/) -->

<svg
   xmlns:dc="http://purl.org/dc/elements/1.1/"
   xmlns:cc="http://creativecommons.org/ns#"
   xmlns:rdf="http://www.w3.org/1999/02/22-rdf-syntax-ns#"
   xmlns:svg="http://www.w3.org/2000/svg"
   xmlns="http://www.w3.org/2000/svg"
   xmlns:sodipodi="http://sodipodi.sourceforge.net/DTD/sodipodi-0.dtd"
   xmlns:inkscape="http://www.inkscape.org/namespaces/inkscape"
   width="209.99982mm"
   height="179.72752mm"
   viewBox="0 0 209.99982 179.72751"
   version="1.1"
   id="svg8"
   inkscape:version="0.92.3 (2405546, 2018-03-11)"
   sodipodi:docname="bank_holiday.svg">
  <defs
     id="defs2" />
  <sodipodi:namedview
     id="base"
     pagecolor="#ffffff"
     bordercolor="#666666"
     borderopacity="1.0"
     inkscape:pageopacity="0.0"
     inkscape:pageshadow="2"
     inkscape:zoom="0.7"
     inkscape:cx="101.0903"
     inkscape:cy="335.34802"
     inkscape:document-units="mm"
     inkscape:current-layer="layer1"
     showgrid="false"
     fit-margin-top="0"
     fit-margin-left="0"
     fit-margin-right="0"
     fit-margin-bottom="0"
     inkscape:window-width="1920"
     inkscape:window-height="1017"
     inkscape:window-x="-8"
     inkscape:window-y="-8"
     inkscape:window-maximized="1" />
  <metadata
     id="metadata5">
    <rdf:RDF>
      <cc:Work
         rdf:about="">
        <dc:format>image/svg+xml</dc:format>
        <dc:type
           rdf:resource="http://purl.org/dc/dcmitype/StillImage" />
        <dc:title></dc:title>
      </cc:Work>
    </rdf:RDF>
  </metadata>
  <g
     inkscape:label="Layer 1"
     inkscape:groupmode="layer"
     id="layer1"
     transform="translate(-244.21802,552.43322)">
    <path
       style="fill:#000000;stroke-width:0.60719794"
       d="m 340.35791,-372.80929 c -2.00376,-0.089 -4.18967,-0.40122 -4.85759,-0.69355 -0.66791,-0.29233 -4.17825,-1.12169 -7.80073,-1.84303 -3.62249,-0.72134 -7.038,-1.55609 -7.59,-1.85498 -0.55197,-0.29889 -2.50642,-1.08364 -4.34321,-1.74389 -1.83676,-0.66025 -4.70578,-1.90311 -6.37556,-2.76192 -1.66981,-0.85883 -3.20543,-1.56263 -3.41253,-1.56401 -0.53703,-0.005 -11.91647,-7.65813 -14.03523,-9.44094 l -1.77216,-1.49117 h -22.43477 -22.43476 l -0.65676,-1.66981 c -0.44221,-1.1243 -0.53935,-6.23195 -0.29735,-15.63534 0.19759,-7.68106 0.36333,-22.50428 0.36817,-32.94048 l 0.009,-18.97494 h 7.19694 7.19697 l 0.41499,-6.41901 c 0.22834,-3.53044 0.65905,-6.87763 0.95737,-7.43816 0.2983,-0.56056 0.99742,-3.47835 1.55362,-6.48396 0.55617,-3.00563 1.21679,-5.73804 1.46804,-6.07199 0.25122,-0.33396 1.0905,-2.51987 1.86506,-4.85757 1.70253,-5.13863 4.00397,-10.18362 5.95532,-13.05478 0.79441,-1.16885 1.68348,-2.73997 1.97574,-3.49138 0.29228,-0.7514 0.81139,-1.36619 1.15364,-1.36619 0.34221,0 0.62222,-0.36094 0.62222,-0.80212 0,-2.78681 22.41913,-24.70019 25.27027,-24.70019 0.41033,0 1.5368,-0.66537 2.50323,-1.47857 0.96646,-0.81321 2.49025,-1.66256 3.38618,-1.88742 0.89596,-0.2249 1.62901,-0.65247 1.62901,-0.95023 0,-0.29774 0.3877,-0.54137 0.86158,-0.54137 0.47388,0 1.63516,-0.38608 2.58059,-0.85791 4.45571,-2.22376 8.67593,-3.91567 11.58598,-4.64486 1.75328,-0.43934 3.18779,-0.97864 3.18779,-1.19845 0,-0.21985 2.8007,-0.91955 6.22378,-1.55499 8.61594,-1.59943 29.11688,-1.61779 37.4855,-0.0335 3.16766,0.59966 5.90006,1.2959 6.07197,1.54719 0.17189,0.25129 1.67878,0.82268 3.34857,1.26974 2.85148,0.76345 10.86758,4.39555 16.44784,7.45257 2.99951,1.64319 9.60564,6.30514 11.60668,8.19083 0.79739,0.7514 1.65085,1.36619 1.89659,1.36619 0.75285,0 7.39155,6.96908 7.39155,7.75938 0,0.40776 0.2171,0.7414 0.48228,0.7414 0.53882,0 7.81336,9.59242 9.23291,12.17476 2.69416,4.9011 6.67916,12.96865 6.67916,13.52184 0,0.35018 0.52335,1.7476 1.163,3.1054 0.63964,1.35779 1.75547,5.20109 2.47961,8.54068 0.72414,3.33957 1.55731,6.61844 1.85148,7.28638 0.29416,0.66791 0.74947,4.0834 1.01178,7.58997 l 0.47691,6.37557 7.13964,0.1712 7.13961,0.1712 -0.15697,34.13558 -0.15674,34.13558 -22.00178,0.15927 -22.00176,0.15927 -2.58975,1.66223 c -1.42437,0.91423 -4.17093,2.83955 -6.10348,4.27849 -3.56562,2.65488 -6.9112,4.6734 -10.75543,6.48924 -1.16885,0.55209 -3.66267,1.80316 -5.54182,2.78013 -1.87913,0.97697 -3.73849,1.77632 -4.13189,1.77632 -0.3934,0 -1.86155,0.51762 -3.26255,1.15026 -1.40101,0.63264 -5.41629,1.61776 -8.92286,2.18912 -3.50657,0.57139 -6.92206,1.29163 -7.58997,1.60053 -1.2179,0.56326 -13.81878,0.97004 -20.64473,0.66644 z m 23.52522,-15.1438 c 0.41949,-0.32133 2.40212,-0.91877 4.40588,-1.32756 4.00967,-0.81808 5.99613,-1.45719 9.86034,-3.17241 1.41569,-0.6284 2.87297,-1.14253 3.23841,-1.14253 0.36542,0 0.55035,-0.34155 0.41095,-0.759 -0.1969,-0.58933 -6.04439,-0.78064 -26.16011,-0.85582 -15.2179,-0.0569 -25.90665,0.13104 -25.90665,0.4554 0,0.30371 -2.6119,0.55223 -5.80423,0.55223 -5.66235,0 -7.1317,0.67723 -3.29679,1.51951 0.99806,0.21917 1.81464,0.61688 1.81464,0.88371 0,0.51317 5.73531,2.05281 10.32237,2.77103 1.50281,0.23532 3.00908,0.64983 3.34728,0.92113 0.33818,0.27131 1.7044,0.62296 3.036,0.78144 4.13061,0.4916 23.92685,-0.0115 24.73191,-0.62713 z m -116.51264,-10.34828 c 0.70278,-4.25187 0.50241,-5.61659 -0.82468,-5.61659 -1.0756,0 -1.21438,0.4048 -1.21438,3.542 0,1.94809 0.18222,3.72415 0.4048,3.94679 0.83531,0.8353 1.26882,0.33866 1.63426,-1.8722 z m 3.91009,-1.8277 c 0.17671,-3.7029 0.14573,-3.78889 -1.36619,-3.78889 -1.48103,0 -1.54698,0.151 -1.54698,3.542 0,3.78249 0.3041,4.4977 1.79199,4.21467 0.7052,-0.13402 0.98562,-1.12653 1.12118,-3.96778 z m 4.25059,-0.002 c 0.14274,-3.00109 -0.0184,-3.87952 -0.76674,-4.16652 -1.72587,-0.66223 -2.75383,0.94266 -2.75383,4.29939 0,3.53808 0.30885,4.10387 2.10022,3.84744 1.07368,-0.15376 1.26356,-0.68582 1.42035,-3.98024 z m 4.09779,2.69155 c 0.19529,-0.77821 0.26882,-2.62257 0.16339,-4.09859 -0.17189,-2.40662 -0.34843,-2.68364 -1.70974,-2.68364 -1.45153,0 -1.52587,0.17947 -1.69755,4.09859 -0.17625,4.02592 -0.15238,4.0986 1.35462,4.0986 1.10026,0 1.63463,-0.40019 1.8893,-1.41491 z m 3.0076,-2.73424 c 0,-5.16685 -1.16976,-5.07389 -1.39531,0.11085 -0.13907,3.19808 0.001,4.0982 0.60719,3.89618 0.53242,-0.1774 0.78812,-1.47754 0.78812,-4.0071 z m 5.16119,-0.1012 c 0,-4.09265 -0.0546,-4.25038 -1.47091,-4.25038 -1.13325,0 -1.60681,0.45301 -2.0629,1.9734 -0.72403,2.4135 -0.62645,5.45976 0.19415,6.06268 0.33396,0.24535 1.222,0.45028 1.9734,0.4554 1.28757,0.009 1.36619,-0.23534 1.36619,-4.2411 z m 4.58236,2.83549 c 0.1953,-0.77819 0.26883,-2.62255 0.1634,-4.0986 -0.17189,-2.40666 -0.34844,-2.68368 -1.70974,-2.68368 -1.45154,0 -1.52587,0.17947 -1.69755,4.09859 -0.17625,4.02592 -0.15238,4.0986 1.35462,4.0986 1.10026,0 1.63463,-0.40019 1.8893,-1.41491 z m 3.6148,-2.8438 c 0,-3.53368 -0.12484,-3.93848 -1.21438,-3.93848 -1.04086,0 -1.24102,0.4669 -1.40068,3.26721 -0.2249,3.94456 0.14274,5.08587 1.55063,4.81473 0.88398,-0.17029 1.06443,-0.87269 1.06443,-4.14346 z m 4.85759,0.37809 c 0,-2.72476 -0.24918,-3.73421 -1.04588,-4.23675 -1.58097,-0.99724 -2.33421,0.1673 -2.5428,3.93111 -0.221,3.98853 -0.067,4.30571 1.97623,4.06924 1.54154,-0.17832 1.61245,-0.3439 1.61245,-3.7636 z m 3.84161,2.12984 c 0.20012,-1.36327 -0.80492,-3.10682 -1.79075,-3.10682 -0.62619,0 -0.72581,3.85504 -0.11543,4.46544 0.73077,0.73077 1.70101,0.0392 1.90616,-1.35862 z m 70.99902,0.88711 c 0.23142,-0.23145 -0.85513,-0.35475 -2.4146,-0.27402 -1.55947,0.0808 -2.7061,0.35597 -2.54808,0.61167 0.33818,0.5472 4.35083,0.27419 4.96268,-0.33765 z m 11.54596,-0.009 c 0.18795,-0.18773 -0.94971,-0.34151 -2.5279,-0.34151 -1.76223,0 -2.72433,0.23477 -2.49339,0.60843 0.37249,0.60271 4.36384,0.39055 5.02129,-0.2669 z m 64.48279,-4.50955 c -0.0236,-2.70622 -1.26296,-4.62918 -2.30917,-3.58299 -0.91804,0.91804 -0.91912,7.2965 -10e-4,8.21424 0.98046,0.98046 2.33589,-1.73634 2.31058,-4.63125 z m -82.39624,4.37692 c -0.41109,-0.16638 -1.23081,-0.17648 -1.82159,-0.0229 -0.59081,0.15399 -0.25444,0.29004 0.74743,0.30243 1.00187,0.0115 1.48525,-0.1136 1.07416,-0.27991 z m 11.53676,0 c -0.41109,-0.16638 -1.23082,-0.17648 -1.8216,-0.0229 -0.59078,0.15399 -0.25444,0.29004 0.74743,0.30243 1.0019,0.0115 1.48525,-0.1136 1.07417,-0.27991 z m 10.6144,-0.0206 c -0.58443,-0.15284 -1.54077,-0.15284 -2.12519,0 -0.58443,0.15284 -0.10626,0.27768 1.06259,0.27768 1.16885,0 1.64702,-0.12484 1.0626,-0.27768 z m 7.27373,0.0516 c -0.20173,-0.20172 -0.72547,-0.22329 -1.1638,-0.048 -0.48437,0.19392 -0.3405,0.33772 0.36686,0.36684 0.64008,0.0264 0.99871,-0.11727 0.79694,-0.3189 z m 3.97099,-0.0314 c -0.41109,-0.16638 -1.23081,-0.17648 -1.82159,-0.0229 -0.59078,0.15399 -0.25444,0.29004 0.74743,0.30243 1.0019,0.0115 1.48525,-0.1136 1.07416,-0.27991 z m 31.41094,-0.47665 c 0,-0.48122 -0.25437,-1.03217 -0.56524,-1.2243 -0.72189,-0.44615 -1.44794,0.69087 -0.95276,1.49207 0.55835,0.90344 1.518,0.73417 1.518,-0.26777 z m 3.036,-1.90802 c 0,-1.95452 -0.22605,-2.70881 -0.759,-2.53376 -0.82962,0.27241 -1.34939,3.08635 -0.82335,4.45725 0.69644,1.81489 1.58235,0.738 1.58235,-1.92349 z m 2.79792,1.72039 c 1.16933,-1.54038 1.08981,-6.00001 -0.11521,-6.46241 -0.52824,-0.20264 -1.07471,-0.36857 -1.21438,-0.36857 -0.13976,0 -0.25395,1.77607 -0.25395,3.94679 0,4.14761 0.2621,4.62498 1.58354,2.88419 z m 4.48845,-2.80984 c 0,-2.78463 -0.26885,-4.09556 -0.95707,-4.66674 -1.40183,-1.16341 -2.05832,0.21297 -2.06963,4.33939 -0.009,3.68145 0.22605,4.19978 1.9135,4.19978 0.96309,0 1.1132,-0.52214 1.1132,-3.87243 z m 3.64319,0.047 c 0,-4.06858 -0.82179,-5.75716 -2.2322,-4.58663 -0.83343,0.69169 -1.16004,7.24612 -0.399,8.00716 0.22261,0.22261 0.90574,0.4048 1.518,0.4048 0.96167,0 1.1132,-0.52071 1.1132,-3.82533 z m 6.07197,-0.80299 c 0,-4.04522 -0.11474,-4.53309 -0.91078,-3.87243 -0.63538,0.5273 -0.91081,1.92691 -0.91081,4.62833 0,3.03737 0.19644,3.87242 0.91081,3.87242 0.72992,0 0.91078,-0.91904 0.91078,-4.62832 z m 4.13042,0.77621 c 0.17327,-3.33641 -0.47537,-5.25588 -1.77597,-5.25588 -0.29308,0 -0.53285,2.06933 -0.53285,4.59852 0,4.05178 0.12622,4.57447 1.06259,4.39629 0.84052,-0.15996 1.10097,-0.94138 1.24623,-3.73896 z m 3.03451,3.12345 c 1.07882,-1.07879 0.93295,-6.84667 -0.1969,-7.7843 -0.50899,-0.42245 -1.05431,-0.63923 -1.21177,-0.48175 -0.56873,0.56873 -1.04297,5.90855 -0.6602,7.43364 0.43163,1.71977 0.96632,1.93492 2.0688,0.83241 z m 3.15744,-3.82533 c 0,-4.27186 -0.61196,-5.78532 -1.45302,-3.59353 -0.49768,1.29689 -0.46987,7.23662 0.0363,7.7427 1.06603,1.06606 1.41679,0.0388 1.41679,-4.14917 z m 3.03598,0 c 0,-2.6312 -0.25637,-4.554 -0.60719,-4.554 -0.35083,0 -0.60719,1.9228 -0.60719,4.554 0,2.63119 0.25636,4.55397 0.60719,4.55397 0.35082,0 0.60719,-1.92278 0.60719,-4.55397 z m 2.91714,-0.0161 c -0.11222,-2.14439 -0.48292,-3.63026 -0.94374,-3.78228 -0.55436,-0.1829 -0.759,0.80015 -0.759,3.64583 0,2.1429 0.18681,4.08289 0.41493,4.3111 0.92083,0.92084 1.4625,-0.83503 1.28781,-4.17465 z m -60.60093,3.10104 c 0,-0.13976 0.16592,-0.68616 0.36856,-1.2144 0.3304,-0.86101 -1.5403,-0.9747 -18.06415,-1.09801 l -18.4327,-0.13747 17.15427,-0.31787 c 10.9767,-0.20333 17.09925,-0.5365 17.00153,-0.92503 -0.23068,-0.91728 -70.2579,-1.08125 -71.35937,-0.16707 -0.60599,0.50293 -0.95349,0.51071 -1.25183,0.028 -0.28973,-0.46883 -0.76348,-0.4119 -1.58777,0.19093 -1.39053,1.01679 -3.56651,0.89794 17.74266,0.96908 8.44015,0.0282 15.46587,0.2456 15.6127,0.48317 0.14687,0.23757 -7.97173,0.49034 -18.04123,0.56173 -10.0695,0.0714 -18.53418,0.26947 -18.81039,0.44017 -1.99578,1.23345 3.75272,1.44089 39.93209,1.44089 21.85458,0 39.73563,-0.11429 39.73563,-0.25394 z m -40.51891,-2.59565 c 0.59078,-0.15399 1.41051,-0.14389 1.8216,0.0229 0.41108,0.16638 -0.0723,0.29228 -1.07417,0.27991 -1.00187,-0.0115 -1.33823,-0.14848 -0.74743,-0.30242 z m 43.79353,-0.53967 c 0.65405,-1.70446 0.39275,-3.28993 -0.54224,-3.28993 -0.63611,0 -0.91079,0.64092 -0.91079,2.12519 0,2.19924 0.80763,2.84662 1.45303,1.16474 z m -87.06795,-1.50419 c 0,-0.6482 -0.27323,-1.17855 -0.60719,-1.17855 -0.33398,0 -0.60721,0.69924 -0.60721,1.55384 0,0.88125 0.26282,1.39139 0.60721,1.17856 0.33396,-0.20631 0.60719,-0.90562 0.60719,-1.55385 z m 3.036,0 c 0,-0.6482 -0.27325,-1.17855 -0.60721,-1.17855 -0.33396,0 -0.60719,0.69924 -0.60719,1.55384 0,0.88125 0.26281,1.39139 0.60719,1.17856 0.33396,-0.20631 0.60721,-0.90562 0.60721,-1.55385 z m 86.92038,-0.87493 c 0,-0.31728 -0.29372,-0.67476 -0.65274,-0.79444 -0.359,-0.11956 -0.65275,0.23782 -0.65275,0.79444 0,0.55658 0.29375,0.91406 0.65275,0.79441 0.35902,-0.1198 0.65274,-0.47717 0.65274,-0.79441 z m -9.19905,-0.25396 c 0,-2.37357 -0.17074,-2.39769 -15.03073,-2.124 -7.88057,0.14504 -14.12083,0.0565 -13.86724,-0.19713 0.50107,-0.50091 1.18739,-0.52907 16.33444,-0.66977 6.91013,-0.0643 10.07996,-0.29942 9.81488,-0.72832 -0.41325,-0.66867 -61.30683,-0.83689 -65.10573,-0.17992 -5.48147,0.94805 -0.10855,1.41977 17.91234,1.57264 l 19.88575,0.16868 -20.73156,0.1432 c -17.12957,0.11842 -20.78834,0.29113 -21.05832,0.99464 -0.17969,0.46828 -0.1634,1.01477 0.0363,1.2144 0.6099,0.60993 71.80991,0.41699 71.80991,-0.1946 z m 2.55023,-0.7783 c -0.38961,-0.38961 -0.90996,-0.50681 -1.15632,-0.26045 -0.24638,0.24636 -0.0539,0.69146 0.42768,0.98909 1.13399,0.70084 1.64606,0.18887 0.72864,-0.72864 z m -137.97536,-2.52127 c 0.48661,-1.26379 0.52234,-1.2525 1.15682,0.36572 0.82351,2.10036 2.36014,2.16014 2.87425,0.11176 l 0.39103,-1.558 0.70106,1.40619 c 0.91792,1.84117 3.02858,1.86685 3.28802,0.0399 0.26399,-1.85877 1.32397,-1.73723 1.32397,0.1517 0,0.94452 0.34407,1.518 0.9108,1.518 0.50599,0 0.91079,-0.53975 0.91079,-1.21441 0,-0.67466 0.4048,-1.2144 0.91081,-1.2144 0.51619,0 0.91078,0.54442 0.91078,1.25663 0,1.8187 2.66175,1.36607 2.92644,-0.49763 0.26399,-1.85875 1.32396,-1.73721 1.32396,0.15169 0,2.12427 2.11393,2.0269 3.29588,-0.15169 0.5268,-0.97103 0.91606,-1.27593 0.9302,-0.72864 0.0392,1.5228 1.31409,2.48455 2.25648,1.70244 1.20447,-0.99962 0.9705,-3.53957 -0.52742,-5.72564 -1.29502,-1.88999 -1.42707,-1.93409 -4.85757,-1.62304 l -3.52637,0.31977 -0.0429,-2.05771 c -0.0236,-1.13177 -0.007,-4.1805 0.039,-6.77498 0.0819,-4.72733 -1.35619,-11.08142 -3.47502,-15.35367 -0.89614,-1.80693 -1.0124,-1.84828 -4.48887,-1.5968 l -3.56887,0.25813 v -5.23414 -5.23417 h 2.42878 c 2.42034,0 2.42881,-0.009 2.42881,-2.37914 0,-4.27847 -0.0349,-4.30004 -6.9734,-4.30004 -4.53203,0 -6.42447,0.22673 -6.92495,0.82979 -1.03489,1.247 -0.65868,48.46 0.38895,48.80904 0.41786,0.1393 1.01532,-0.38456 1.3277,-1.16394 0.33485,-0.83547 0.58374,-1.03079 0.60643,-0.4759 0.0496,1.2105 1.28436,2.45066 1.99984,2.00847 0.3039,-0.18772 0.77851,-0.92832 1.05466,-1.64555 z m 3.46078,-6.26286 c -0.2226,-0.22261 -0.4048,-2.9258 -0.4048,-6.00701 0,-6.23546 0.0705,-6.33935 4.30004,-6.33935 h 2.37913 v 6.37559 6.37557 h -2.9348 c -1.61413,0 -3.11694,-0.18222 -3.33957,-0.4048 z m 51.729,6.9948 c 0.66604,-1.06647 0.9219,-1.14932 1.4067,-0.4554 0.45616,0.65295 0.66346,0.67349 0.90053,0.0893 0.49425,-1.21803 2.02839,-0.87361 2.02839,0.4554 0,1.73256 1.1187,1.50345 1.57711,-0.32298 0.35978,-1.4335 0.44115,-1.46428 1.20454,-0.45538 0.76627,1.01268 0.9159,0.96529 2.33627,-0.73963 1.47203,-1.76696 1.51961,-2.11303 1.5854,-11.53676 0.15308,-21.92132 0.0138,-27.76194 -0.68615,-28.60434 -0.46096,-0.55541 -1.99122,-0.84476 -4.46769,-0.84476 -3.21493,0 -3.97187,-0.21847 -5.168,-1.49172 -1.08183,-1.15154 -1.31664,-1.91539 -1.0298,-3.34964 l 0.37157,-1.85793 -15.92577,0.1618 -15.92577,0.16179 -0.20172,1.76837 c -0.11085,0.97261 0.0743,2.3388 0.41171,3.036 0.33733,0.69717 0.82876,2.36058 1.09204,3.69641 l 0.47869,2.42878 0.20884,-2.277 0.20884,-2.27697 h 2.99935 2.99932 v 5.16119 5.16116 h -1.78575 c -2.31952,0 -2.70736,0.73651 -1.84481,3.50327 1.79114,5.74547 8.48815,17.48542 8.48815,14.87983 0,-0.72042 0.27324,-1.47876 0.60719,-1.68514 0.33396,-0.20631 0.60722,-1.19457 0.60722,-2.19594 0,-1.76647 0.0769,-1.81512 2.58057,-1.63396 l 2.58059,0.18681 0.17304,6.22375 c 0.11107,3.99611 -0.0519,6.22379 -0.45541,6.22379 -1.29181,0 -0.54584,1.403 2.12726,4.00096 3.04999,2.96424 3.59389,3.17234 4.22293,1.61563 0.38151,-0.94411 0.48813,-0.91026 0.9562,0.30359 0.66886,1.7346 1.67757,1.74983 2.31195,0.0349 0.47865,-1.29394 0.50397,-1.28543 0.9028,0.30362 0.4957,1.97506 1.04364,2.06054 2.12356,0.3313 z m -17.52351,-37.25348 v -5.16119 h 2.73238 2.7324 v 5.16119 5.16116 h -2.7324 -2.73238 z m -10.32238,37.34266 c 0,-0.33395 -0.27323,-0.60719 -0.60719,-0.60719 -0.33395,0 -0.60721,0.27324 -0.60721,0.60719 0,0.33396 0.27326,0.60719 0.60721,0.60719 0.33396,0 0.60719,-0.27323 0.60719,-0.60719 z m 111.62104,-2.10391 c 0.16156,-1.37783 -0.4193,-2.33396 -3.01525,-4.96256 -1.76851,-1.79073 -3.42972,-3.2559 -3.69159,-3.2559 -0.79884,0 -0.53997,6.47751 0.28625,7.16323 0.41932,0.348 1.4925,0.81596 2.38486,1.03992 0.89235,0.22398 1.779,0.81513 1.9703,1.31373 0.54211,1.41266 1.84335,0.59466 2.06543,-1.29842 z m 33.9124,1.12664 c 0.34467,-0.89821 0.41926,-0.89821 0.92192,0 0.6885,1.23031 1.70095,1.26988 1.70095,0.0666 0,-1.18418 1.19487,-1.16963 2.06852,0.0252 0.60669,0.82968 0.83136,0.79907 1.97841,-0.26958 1.27643,-1.18919 1.29819,-1.18953 1.60268,-0.0252 0.36237,1.38568 1.63676,1.59555 1.63676,0.26959 0,-0.50096 0.40985,-0.91081 0.91081,-0.91081 0.50094,0 0.91079,0.40985 0.91079,0.91081 0,1.16712 0.87493,1.1635 2.0469,-0.009 0.8209,-0.8209 0.97581,-0.81826 1.4475,0.0246 0.5716,1.0214 2.57757,0.63166 2.57757,-0.5008 0,-0.36204 0.40537,-0.12782 0.90082,0.52038 0.88215,1.15421 0.90879,1.1503 1.28523,-0.1875 0.48521,-1.72452 1.4671,-1.76291 1.90859,-0.0746 0.33648,1.28674 0.34185,1.28619 1.44764,-0.1517 0.91618,-1.19141 1.11226,-1.25787 1.12341,-0.38075 0.007,0.58443 0.42334,1.0626 0.9243,1.0626 0.50094,0 0.91079,-0.378 0.91079,-0.83997 0,-0.46199 0.54649,-0.98289 1.2144,-1.15756 1.15882,-0.30304 1.21576,-0.84118 1.24435,-11.75938 0.0161,-6.293 0.17763,-16.31205 0.35813,-22.26457 0.18038,-5.95252 0.16179,-11.48562 -0.0415,-12.29575 -0.36198,-1.44239 -0.50254,-1.47305 -6.75276,-1.47305 -7.04195,0 -6.83013,-0.1269 -7.09216,4.25041 -0.16041,2.67799 -0.12438,2.73616 1.8098,2.92265 1.53861,0.14825 1.98953,0.4828 2.04663,1.518 0.11108,2.01374 -0.15812,8.58927 -0.36016,8.79581 -0.0978,0.10006 -1.64427,0.28216 -3.43676,0.40496 -2.57406,0.17625 -3.30359,0.45722 -3.4708,1.33629 -0.11635,0.61217 -0.58238,1.93274 -1.03544,2.93463 -2.39156,5.28846 -2.92573,7.6019 -3.15224,13.65198 -0.1494,3.99046 -0.50591,6.5358 -0.95544,6.82168 -0.39443,0.25084 -1.96365,0.46025 -3.48713,0.46536 -2.3599,0.007 -2.96672,0.27537 -4.0986,1.80631 -1.56451,2.11611 -1.80952,5.48936 -0.39874,5.48936 0.51142,0 1.09863,-0.43977 1.30487,-0.97726 z m 12.94524,-12.71795 v -6.40884 l 2.88419,0.18497 2.88419,0.18497 0.17303,6.22378 0.17304,6.22378 h -3.05723 -3.05722 z m -55.51665,10.59134 c 0.22949,-0.37129 0.0916,-0.87638 -0.30658,-1.1224 -0.39808,-0.24604 -9.79151,-0.34883 -20.87431,-0.22834 -11.0828,0.12048 -25.00053,0.21572 -30.92831,0.21159 -9.17868,-0.007 -10.77776,0.12783 -10.77776,0.90351 0,0.79781 3.87534,0.91081 31.23485,0.91081 22.26227,0 31.35473,-0.19392 31.65211,-0.6751 z m -35.95296,-2.94617 c 0.42424,-0.42649 0.69351,-2.98262 0.69351,-6.58333 0,-3.23738 0.221,-6.22771 0.49122,-6.64515 0.52267,-0.80756 2.87235,-0.98007 5.12537,-0.3763 1.31457,0.35232 1.36619,0.6253 1.36619,7.22749 0,4.48526 0.23325,6.93911 0.67356,7.08589 0.37047,0.12347 1.57408,0.11934 2.6747,-0.009 l 2.00111,-0.23362 0.39784,-7.37847 c 0.21871,-4.05818 0.31308,-10.71759 0.20953,-14.79871 l -0.18841,-7.42022 -3.62419,-3.66113 -3.62416,-3.66114 h -5.59977 c -3.07985,0 -5.74325,0.23218 -5.91865,0.51597 -0.17533,0.28379 -0.38242,8.49959 -0.46011,18.25732 -0.10533,13.24293 0.0429,17.85517 0.58516,18.19026 1.03788,0.64145 4.37777,0.31385 5.19706,-0.50975 z m 2.9143,-23.17892 c -1.20807,-0.44689 -1.35437,-0.86433 -1.19175,-3.40077 0.18199,-2.83887 0.2249,-2.89466 2.36251,-3.07384 2.48498,-0.20838 3.74301,0.87344 3.74301,3.21849 0,2.74736 -2.25308,4.24037 -4.91377,3.25612 z m -26.79729,22.20667 c 0.65277,-1.71692 0.82108,-29.39163 0.20608,-33.87882 -0.29276,-2.136 -0.64407,-2.81713 -1.45303,-2.81713 -0.58679,0 -1.23274,0.4322 -1.43545,0.96047 -0.20264,0.52824 -0.36856,9.13528 -0.36856,19.12672 0,17.83551 0.023,18.16628 1.22941,18.16628 0.76102,0 1.45505,-0.59342 1.82159,-1.55752 z m 3.39439,0.83735 c 0.45846,-0.74179 0.50872,-1.36098 0.7179,-8.8432 l 0.12301,-4.40219 h 2.12519 2.12519 v 6.98278 6.98278 h 1.5269 1.5269 l -0.16064,-18.36775 -0.16065,-18.36772 -4.6333,-0.17602 -4.63331,-0.17602 -0.29311,1.99694 c -0.1611,1.09833 -0.3433,9.44303 -0.40466,18.54377 -0.0964,14.29463 0.0115,16.54682 0.79197,16.54682 0.49697,0 1.10386,-0.32409 1.34866,-0.72017 z m 0.58076,-23.91471 c -1.11033,-1.11033 -1.18437,-2.00455 -0.34805,-4.2042 0.52719,-1.38662 0.90282,-1.56971 2.88419,-1.40574 1.83011,0.15147 2.31622,0.45718 2.47209,1.55472 0.10671,0.7514 0.44826,1.36619 0.759,1.36619 0.91276,0 0.65393,0.8899 -0.67308,2.31429 -1.45078,1.55722 -3.74304,1.72585 -5.09415,0.37474 z m 12.86836,6.04519 c 0.17234,-19.61804 0.0714,-20.30101 -2.86384,-19.36944 -1.13215,0.35934 -1.24543,0.89411 -1.26461,5.97036 -0.0115,3.06661 -0.14757,11.14994 -0.30197,17.96297 -0.30291,13.35793 -0.13287,14.23397 2.69986,13.9047 l 1.56998,-0.18245 z m 26.36231,17.5271 c 0.13815,-0.58443 0.22146,-5.91236 0.18497,-11.83987 l -0.0666,-10.77725 -1.74568,-1.8221 c -0.9601,-1.00215 -1.96778,-1.8221 -2.23927,-1.8221 -0.27147,0 -0.49359,6.14789 -0.49359,13.66197 v 13.66194 h 2.05437 c 1.45596,0 2.1276,-0.30952 2.3058,-1.06259 z m 4.88033,-6.07198 c 0.16478,-6.87687 0.22032,-7.14159 1.53726,-7.32862 0.7514,-0.10672 1.36619,-0.52799 1.36619,-0.93617 0,-1.15333 -5.26949,-6.04494 -6.01534,-5.58398 -0.72843,0.4502 -0.97281,19.86477 -0.25902,20.57854 0.2226,0.22261 1.03367,0.4048 1.80231,0.4048 1.36957,0 1.40094,-0.14274 1.5686,-7.13457 z m 6.77112,5.76838 c 0.55799,-2.08207 0.43443,-9.75594 -0.17257,-10.71446 -0.29515,-0.4661 -0.97406,-0.67959 -1.50871,-0.47445 -0.79556,0.30529 -0.97208,1.40564 -0.97208,6.05926 0,3.12742 0.18222,5.86841 0.4048,6.09104 0.82291,0.82291 1.89292,0.3654 2.24847,-0.96139 z m 4.51166,0.63755 c 1.21108,-1.21105 0.91046,-6.20498 -0.44749,-7.43391 -0.64687,-0.58541 -1.46659,-0.88488 -1.82159,-0.66546 -0.69766,0.43117 -0.90695,7.7569 -0.24067,8.42321 0.62192,0.62192 1.70357,0.48237 2.50975,-0.32384 z m 31.36432,-6.94865 c 1.40303,-1.83748 2.15301,-3.47945 2.15301,-4.71359 0,-1.37351 0.37132,-2.05859 1.35129,-2.49329 0.74321,-0.32964 1.68712,-1.28247 2.09754,-2.11737 2.1248,-4.32239 2.83932,-6.09829 3.87103,-9.62127 0.62057,-2.11908 1.3727,-4.16836 1.67139,-4.55397 0.79328,-1.02414 1.93831,-7.42258 1.93831,-10.83139 v -2.94498 l -15.61531,0.16202 -15.61531,0.16202 0.16982,2.75572 c 0.23994,3.89584 -0.86807,4.72788 -6.60074,4.95669 l -4.53862,0.18107 -0.16845,5.16118 -0.16845,5.16119 9.70548,9.68172 c 6.5229,6.50695 9.80728,9.39403 10.01595,8.80438 0.17075,-0.48256 0.38757,-2.10695 0.48178,-3.60975 0.15192,-2.42404 0.34256,-2.74666 1.68924,-2.85874 3.92368,-0.32652 4.25038,0.0574 4.25038,4.99549 0,2.49832 0.26073,4.54241 0.5794,4.54241 0.31865,0 1.54822,-1.26886 2.73238,-2.8197 z M 404.8727,-438.948 c -0.9067,-0.23692 -1.06262,-1.03358 -1.06262,-5.42925 v -5.15157 l 2.5806,0.1868 2.58059,0.18681 0.1813,4.54062 c 0.14963,3.7499 -0.002,4.67514 -0.87505,5.31299 -1.08084,0.79033 -1.54836,0.83891 -3.40473,0.35379 z m 9.86695,-5.34983 v -5.16118 h 2.38789 c 2.83528,0 3.03632,0.4149 3.01562,6.22378 l -0.0138,4.09859 h -2.69445 -2.69444 v -5.16119 z m -32.78869,-0.87581 c 0,-3.59189 -0.15698,-4.18479 -1.17923,-4.4521 -1.66615,-0.43571 -1.85675,-0.0548 -1.85675,3.71151 0,2.24044 0.32703,3.70375 0.99194,4.43847 1.5417,1.70357 2.04404,0.79478 2.04404,-3.69788 z m -4.85757,-1.82744 c 0,-1.30969 -1.75518,-2.16003 -2.63742,-1.27777 -0.41221,0.41219 -0.25306,1.0102 0.48627,1.82717 1.2318,1.36112 2.15115,1.1263 2.15115,-0.5494 z m -34.7621,-5.47798 c 2.92417,-0.009 5.0094,-0.26869 5.0094,-0.62314 0,-0.38874 -5.50983,-0.60719 -15.31506,-0.60719 -12.86712,0 -15.12363,-0.12783 -14.11735,-0.79946 0.65873,-0.43971 3.38361,-1.31504 6.05529,-1.94517 2.67165,-0.63014 5.80987,-1.63658 6.97378,-2.23654 1.16392,-0.59994 2.58555,-1.0908 3.15922,-1.0908 1.38482,0 4.13616,-1.27655 4.13616,-1.91906 0,-0.69204 -2.6514,-0.64857 -3.36996,0.0553 -0.31727,0.31075 -2.45784,0.9984 -4.75682,1.52814 -2.29901,0.52973 -5.03139,1.3482 -6.072,1.81882 -1.04058,0.47059 -4.07789,1.40162 -6.74957,2.06894 -5.42967,1.35618 -9.69322,3.24591 -8.97417,3.97762 0.26038,0.26495 6.89452,0.32577 14.74255,0.13517 7.84804,-0.1907 16.52339,-0.35376 19.27853,-0.36253 z m 51.15644,-0.60914 c 0,-1.07889 -2.66803,-2.25781 -7.58997,-3.35378 -2.67168,-0.59491 -5.13082,-1.2793 -5.46478,-1.52086 -0.33396,-0.24159 -3.06636,-1.03875 -6.07199,-1.77148 -3.00562,-0.73272 -5.92184,-1.57867 -6.4805,-1.87988 -0.95227,-0.51349 -8.58245,-2.44049 -9.49613,-2.39824 -1.09787,0.0507 2.11473,1.80227 3.3057,1.80227 0.75136,0 1.51095,0.23438 1.68801,0.52086 0.17693,0.28645 2.31075,0.99982 4.7416,1.58524 2.43085,0.58543 4.69298,1.26243 5.02694,1.50445 0.33395,0.24203 3.20295,1.06345 6.37556,1.82539 3.17262,0.76193 6.16848,1.76321 6.6575,2.22508 0.75918,0.71705 -0.46089,0.83976 -8.34897,0.83976 -5.75392,0 -9.23809,0.22903 -9.23809,0.60719 0,0.38506 4.554,0.60721 12.44756,0.60721 7.69777,0 12.44756,-0.22628 12.44756,-0.59321 z m -48.57584,-2.02006 c 0,-0.43544 -0.89846,-1.66253 -1.99661,-2.72689 -1.82462,-1.76849 -2.17769,-1.88416 -4.09859,-1.34265 -1.15609,0.3259 -2.64845,0.87297 -3.31637,1.21571 -0.66791,0.34275 -2.4232,0.96766 -3.90063,1.38868 -1.47742,0.42103 -2.79808,1.10106 -2.93479,1.51116 -0.18841,0.56501 1.74956,0.74567 7.99922,0.74567 6.37504,0 8.24777,-0.17969 8.24777,-0.79168 z m 31.44175,0.0904 c -0.12851,-0.38568 -1.44922,-1.05968 -2.93479,-1.49778 -1.48557,-0.4381 -3.24752,-1.06296 -3.91543,-1.38857 -1.58382,-0.77208 -6.98278,-1.83428 -6.98278,-1.3738 0,0.19598 1.01178,1.39237 2.24842,2.65878 2.22667,2.28032 2.29472,2.30261 7.03336,2.30261 3.34788,0 4.71476,-0.21068 4.55122,-0.70124 z m -117.05667,-4.76355 c 0,-2.76069 0.3575,-2.6499 -7.89356,-2.44666 -5.36032,0.13196 -6.68461,0.92274 -5.5855,3.33503 0.68666,1.50703 0.8404,1.54042 7.09048,1.54042 h 6.38858 z m 62.54141,1.518 c 0.50093,-0.33398 2.39663,-1.03448 4.21267,-1.55671 3.86213,-1.11061 4.54459,-2.10348 1.73037,-2.51735 -3.2273,-0.47459 -43.4466,-0.47729 -48.75051,-0.002 -4.45855,0.39849 -4.87389,0.54913 -5.05599,1.83376 -0.459,3.23792 -0.57756,3.22303 24.12766,3.02954 13.89114,-0.109 23.18148,-0.41668 23.7358,-0.78621 z m 88.98719,-0.35651 c 0.29377,-0.47535 0.59273,-0.47535 1.06808,0 0.87716,0.87716 5.45294,0.8463 6.34201,-0.0429 0.53242,-0.5324 0.93633,-0.50919 1.66518,0.0957 0.72886,0.6049 1.13277,0.62812 1.66517,0.0957 0.3866,-0.38658 1.60458,-0.70289 2.70665,-0.70289 1.80888,0 2.00377,-0.17235 2.00377,-1.77099 0,-0.97406 -0.27241,-1.86208 -0.60534,-1.9734 -0.33294,-0.11131 -12.35546,-0.12829 -26.71672,-0.0379 -21.09285,0.13288 -26.11138,0.31798 -26.11138,0.96316 0,0.95115 7.19907,2.81912 10.86466,2.81912 1.37154,0 2.49371,0.27324 2.49371,0.60719 0,0.87178 24.08472,0.82002 24.62421,-0.0528 z m 42.3385,-1.31329 c 0.14963,-0.41745 0.0262,-1.23717 -0.27436,-1.8216 -0.46775,-0.90948 -1.46209,-1.06259 -6.90071,-1.06259 -6.25201,0 -6.35423,0.023 -6.35423,1.41679 0,0.77924 0.18222,1.59896 0.4048,1.82159 0.78335,0.78338 12.83323,0.45816 13.1245,-0.35419 z m -151.36322,-4.39705 c 0,-0.49811 0.54646,-1.24692 1.21438,-1.66405 0.66791,-0.41712 1.2144,-1.38163 1.2144,-2.14336 0,-0.8463 0.53134,-1.62795 1.36619,-2.00978 1.06108,-0.48529 1.61567,-1.65866 2.48315,-5.25367 0.61433,-2.54587 1.93377,-6.0762 2.93213,-7.84517 0.99836,-1.76897 1.7253,-3.62728 1.61544,-4.12957 -0.28829,-1.31807 -21.23807,-22.26604 -22.01484,-22.01294 -1.15806,0.3774 -5.24139,6.10009 -6.78686,9.51167 -0.82695,1.82543 -1.85301,3.73811 -2.28016,4.2504 -0.42716,0.5123 -1.29239,2.50255 -1.92276,4.42282 -0.63034,1.92026 -1.32885,3.49138 -1.55221,3.49138 -0.2233,0 -0.86705,2.52747 -1.43036,5.61659 -0.56333,3.08913 -1.25812,6.0555 -1.54398,6.59194 -0.28588,0.53643 -0.71638,3.22934 -0.9567,5.98423 -0.34642,3.97148 -0.26234,5.11944 0.40606,5.54272 0.46364,0.29364 6.78594,0.53804 14.04955,0.54316 11.30518,0.007 13.20657,-0.12117 13.20657,-0.89637 z m 34.25163,0.45469 c 0.1914,-0.19139 0.0349,-0.7254 -0.34777,-1.18656 -0.56166,-0.67675 -3.6638,-0.82328 -16.08378,-0.75965 -8.48134,0.0434 -15.541,0.32657 -15.72902,0.63081 -0.98393,1.59199 0.99237,1.8047 16.12357,1.73537 8.6289,-0.0395 15.84556,-0.22857 16.037,-0.41997 z m 60.35963,-0.44941 c 0.12828,-0.12829 0.053,-0.52464 -0.16707,-0.88082 -0.62128,-1.00526 -35.12229,-0.89476 -34.78755,0.11131 0.13884,0.41744 1.02595,0.89561 1.97129,1.06259 1.93563,0.34192 32.62096,0.0691 32.98328,-0.29317 z m 29.86074,-3.19821 c -0.005,-4.17723 -1.60021,-15.23063 -2.33589,-16.17827 -0.28668,-0.3693 -0.84931,-2.03767 -1.25027,-3.70745 -0.71127,-2.96219 -2.17628,-6.64664 -4.10438,-10.32237 -3.03366,-5.78341 -4.78675,-8.74404 -6.34374,-10.71334 -0.96212,-1.21693 -1.7493,-2.35654 -1.7493,-2.53251 0,-0.17602 -1.09296,-1.42387 -2.42878,-2.77312 -1.33586,-1.34925 -2.42881,-2.73366 -2.42881,-3.07646 0,-0.34281 -1.07492,-1.30186 -2.38872,-2.13122 -1.31379,-0.82936 -2.61258,-1.90791 -2.88616,-2.39677 -0.57731,-1.03161 -11.36585,-8.86168 -12.20992,-8.86168 -0.31204,0 -1.219,-0.50392 -2.01545,-1.11983 -0.79643,-0.61589 -2.81426,-1.61927 -4.48407,-2.22975 -1.66978,-0.61044 -3.31201,-1.31519 -3.64936,-1.56607 -0.84224,-0.62631 -9.94208,-2.97792 -11.52351,-2.97792 -0.70519,0 -1.62366,-0.34155 -2.04101,-0.75899 -0.98643,-0.98664 -26.62201,-1.09799 -27.28513,-0.11842 -0.23849,0.35227 -2.75615,1.12572 -5.59481,1.71882 -2.83866,0.59308 -6.39076,1.62559 -7.89357,2.29447 -5.95972,2.65256 -10.79065,5.1537 -14.1603,7.33133 -1.94387,1.25624 -3.63642,2.28407 -3.7612,2.28407 -0.12484,0 -1.2455,0.93318 -2.49049,2.07373 l -2.26362,2.07376 3.0984,3.54283 c 1.70414,1.94855 6.61791,7.03949 10.91951,11.31319 7.43148,7.38329 7.9024,7.73944 9.45379,7.1496 0.89798,-0.34142 1.6327,-0.86888 1.6327,-1.17216 0,-0.30327 0.47817,-0.70676 1.06259,-0.89667 0.58443,-0.18979 2.97528,-1.40679 5.31298,-2.7042 3.72233,-2.06584 4.27403,-2.59753 4.44067,-4.27952 0.18566,-1.87351 0.76102,-2.24446 3.14932,-2.03023 3.41379,0.30624 4.92286,-3.66847 2.18685,-5.75993 -2.42194,-1.85136 -2.5452,-3.5807 -0.40758,-5.71832 1.65859,-1.65859 1.86392,-2.25798 1.86392,-5.44133 0,-3.15164 -0.12645,-3.53076 -1.06262,-3.18537 -0.58443,0.21572 -1.26333,0.68521 -1.50868,1.04354 -0.27434,0.40065 -0.44969,0.26924 -0.45541,-0.34128 -0.005,-0.54603 0.67379,-1.44036 1.50871,-1.9874 1.19164,-0.7808 1.518,-1.50606 1.518,-3.37358 0,-1.30843 0.27323,-2.54782 0.60719,-2.75423 0.35952,-0.22214 0.60719,0.47062 0.60719,1.69857 v 2.07383 l 4.35757,0.405 c 4.78514,0.44474 5.33195,0.15376 5.34829,-2.84703 0.005,-0.98064 0.26741,-1.54613 0.61651,-1.33037 0.33396,0.20632 0.60719,1.34435 0.60719,2.52878 0,1.41119 0.52324,2.77534 1.518,3.95754 0.83489,0.99221 1.518,2.47859 1.518,3.30304 0,0.82445 -0.68311,2.1821 -1.518,3.01699 -1.27928,1.27929 -1.518,2.08657 -1.518,5.13358 0,4.17245 0.6367,4.53422 3.5966,2.04363 1.02751,-0.86459 1.86818,-1.32667 1.86818,-1.02686 0,0.84857 -1.33222,2.28345 -3.49138,3.76041 -2.3737,1.62373 -2.52563,3.19524 -0.41792,4.32327 1.28047,0.68528 1.77792,0.69352 2.81375,0.0466 1.56902,-0.97986 2.28689,-0.10074 2.30066,2.8175 0.005,1.08536 0.27654,1.97338 0.60318,1.97338 1.21504,0 10.11016,4.4675 12.24464,6.14977 1.21693,0.95909 2.35087,1.74382 2.51987,1.74382 0.47895,0 4.1699,3.80812 6.82659,7.0433 3.2455,3.95215 5.42799,7.45806 6.31395,10.14252 0.40434,1.22519 0.95308,2.36228 1.21945,2.52689 0.26635,0.16455 0.85874,1.98729 1.31644,4.05035 0.5802,2.61525 1.15558,3.83564 1.90022,4.03037 0.58743,0.15353 1.06803,0.661 1.06803,1.12752 0,0.46653 0.25331,1.32267 0.56287,1.90258 0.30959,0.5799 0.71088,1.53252 0.89176,2.11695 0.30073,0.97171 1.52487,1.06259 14.31348,1.06259 h 13.98461 l -0.005,-3.49138 z m -92.89772,0.52974 c 0,-1.67311 -2.02513,-1.91605 -14.64185,-1.75644 -11.79369,0.14917 -12.98831,0.26047 -13.17404,1.2267 -0.18979,0.98719 0.78987,1.0626 13.80581,1.0626 7.70554,0 14.01008,-0.23977 14.01008,-0.53286 z m 43.00378,-0.0661 c 17.20702,-0.007 18.39871,-0.0778 18.20525,-1.07088 -0.21619,-1.10994 0.62284,-1.09291 -38.2873,-0.77748 -1.55098,0.0115 -2.277,0.29274 -2.277,0.87866 0,1.06845 1.13541,1.58352 2.7324,1.23956 0.66791,-0.14389 9.49992,-0.2653 19.62665,-0.26986 z m -51.66775,-8.97533 c -3.24981,-3.26207 -5.90878,-6.2677 -5.90878,-6.67918 0,-0.41146 -0.32395,-0.74812 -0.71987,-0.74812 -0.39592,0 -1.34425,-0.58658 -2.10738,-1.30352 -1.70825,-1.60481 -2.83007,-0.9101 -3.89919,2.41467 -0.3941,1.22565 -1.072,2.91152 -1.50643,3.74642 -1.13286,2.17712 -2.0895,5.41553 -2.0895,7.07338 v 1.4274 h 11.06997 11.06999 z m 68.16936,4.04942 c 0,-2.0378 -0.60719,-3.62518 -4.36184,-11.40287 -1.95628,-4.05242 -3.48624,-6.11769 -7.52076,-10.15223 -2.78569,-2.78567 -5.76014,-5.23937 -6.6099,-5.45264 -0.84976,-0.2132 -1.54503,-0.61862 -1.54503,-0.90076 0,-0.57277 -5.17923,-2.99857 -6.40215,-2.99857 -0.43066,0 -0.89699,-0.34155 -1.03627,-0.759 -0.3575,-1.07138 -26.95647,-1.08561 -29.05409,-0.0161 -0.80155,0.40891 -2.96018,1.30271 -4.79694,1.98625 -3.13431,1.16642 -6.67919,3.63316 -6.67919,4.64779 0,0.24914 5.93474,6.41011 13.18832,13.69109 l 13.1883,13.23812 h 20.81477 20.81478 z m -32.50837,-35.36894 c 2.41805,-1.7681 0.47088,-2.21731 -9.61165,-2.21731 -7.31876,0 -10.15602,0.21136 -10.98651,0.81869 -2.41804,1.76812 -0.47087,2.21731 9.61166,2.21731 7.31876,0 10.15602,-0.21137 10.9865,-0.81869 z m -7.90981,-3.41666 c 0.85665,-0.3257 1.55752,-1.0088 1.55752,-1.518 0,-0.74734 -0.87795,-0.92584 -4.55398,-0.92584 -2.5047,0 -4.55399,0.18336 -4.55399,0.4076 0,0.22422 0.45221,0.90728 1.0049,1.518 1.10792,1.22423 4.07149,1.45886 6.54555,0.51824 z m 1.79617,-5.22588 c 0.5433,-1.41583 0.43073,-5.28757 -0.18176,-6.25479 -0.66385,-1.04816 -6.79997,-0.67066 -8.21717,0.50553 -1.12546,0.93403 -1.27169,4.92837 -0.21894,5.98107 1.144,1.14399 8.16246,0.95521 8.61798,-0.23181 z m -10.561,-2.68274 c 0,-1.18122 -0.30759,-1.8216 -0.87496,-1.8216 -1.36484,0 -1.58873,0.89438 -0.5833,2.32986 1.22055,1.74255 1.45826,1.65971 1.45826,-0.50826 z m 9.86694,-6.80777 c 1.23006,-1.41262 1.41358,-4.91065 0.30362,-5.78614 -1.51006,-1.19104 -5.98518,-1.46873 -7.51506,-0.46631 -1.18379,0.77566 -1.44112,1.46219 -1.44112,3.84482 0,1.5953 0.3298,3.23034 0.73288,3.63342 1.12146,1.12148 6.6164,0.27098 7.91968,-1.22579 z m 3.795,-2.3002 c 0,-0.44526 -0.34155,-0.92343 -0.759,-1.0626 -0.4515,-0.15054 -0.759,0.27998 -0.759,1.0626 0,0.78261 0.3075,1.21309 0.759,1.06259 0.41745,-0.13907 0.759,-0.61731 0.759,-1.06259 z"
       id="path242"
       inkscape:connector-curvature="0" />
  </g>
</svg>
