<?xml version="1.0" encoding="UTF-8" standalone="no"?>
<!-- Created with Inkscape (http://www.inkscape.org/) -->

<svg
   xmlns:dc="http://purl.org/dc/elements/1.1/"
   xmlns:cc="http://creativecommons.org/ns#"
   xmlns:rdf="http://www.w3.org/1999/02/22-rdf-syntax-ns#"
   xmlns:svg="http://www.w3.org/2000/svg"
   xmlns="http://www.w3.org/2000/svg"
   xmlns:sodipodi="http://sodipodi.sourceforge.net/DTD/sodipodi-0.dtd"
   xmlns:inkscape="http://www.inkscape.org/namespaces/inkscape"
   width="210mm"
   height="143.79387mm"
   viewBox="0 0 210 143.79387"
   version="1.1"
   id="svg8"
   inkscape:version="0.92.3 (2405546, 2018-03-11)"
   sodipodi:docname="bankers.svg">
  <defs
     id="defs2" />
  <sodipodi:namedview
     id="base"
     pagecolor="#ffffff"
     bordercolor="#666666"
     borderopacity="1.0"
     inkscape:pageopacity="0.0"
     inkscape:pageshadow="2"
     inkscape:zoom="0.49497475"
     inkscape:cx="411.73602"
     inkscape:cy="238.00244"
     inkscape:document-units="mm"
     inkscape:current-layer="layer1"
     showgrid="false"
     fit-margin-top="0"
     fit-margin-left="0"
     fit-margin-right="0"
     fit-margin-bottom="0"
     inkscape:window-width="1920"
     inkscape:window-height="1017"
     inkscape:window-x="-8"
     inkscape:window-y="-8"
     inkscape:window-maximized="1" />
  <metadata
     id="metadata5">
    <rdf:RDF>
      <cc:Work
         rdf:about="">
        <dc:format>image/svg+xml</dc:format>
        <dc:type
           rdf:resource="http://purl.org/dc/dcmitype/StillImage" />
        <dc:title></dc:title>
      </cc:Work>
    </rdf:RDF>
  </metadata>
  <g
     inkscape:label="Layer 1"
     inkscape:groupmode="layer"
     id="layer1"
     transform="translate(-356.47936,786.95854)">
    <path
       style="fill:#000000;stroke-width:0.50224841"
       d="m 555.79979,-643.5714 c -0.15775,-0.13402 -129.25407,-0.76048 -171.2306,-0.831 -14.81916,-0.0249 -27.20264,-0.20515 -27.51882,-0.40056 -0.7477,-0.46211 -0.76788,-67.68852 -0.0205,-68.58894 0.3725,-0.44884 7.28418,-0.53336 28.36687,-0.34683 l 27.87436,0.24658 v -1.26318 c 0,-0.69476 0.33901,-1.54454 0.75336,-1.88843 0.41437,-0.34389 0.75338,-1.07075 0.75338,-1.61526 0,-0.56943 0.42909,-1.10223 1.00999,-1.25413 0.56823,-0.14863 1.13955,-0.84201 1.30616,-1.58529 0.68882,-3.07261 1.91497,-6.59478 2.29581,-6.59478 0.22578,0 0.41052,-0.31171 0.41052,-0.69269 0,-1.0172 2.5151,-6.33879 2.99588,-6.33879 0.22602,0 0.55036,-0.55537 0.72073,-1.23417 0.61699,-2.45829 13.62101,-14.83779 15.58634,-14.83779 0.18755,0 1.66366,-0.65619 3.28012,-1.4582 1.61649,-0.80202 3.46841,-1.61979 4.1154,-1.81728 2.05416,-0.62702 2.9342,-1.77685 2.9342,-3.83383 v -1.93116 h 3.26461 c 3.13932,0 3.26461,-0.0478 3.26461,-1.24404 0,-0.81468 -0.47669,-1.53963 -1.38118,-2.10047 -2.09349,-1.29812 -4.14354,-3.29301 -4.14354,-4.03206 0,-1.0444 0.81247,-0.77813 2.59582,0.85067 0.90932,0.83055 1.88381,1.43406 2.16555,1.34116 0.28172,-0.0928 0.57988,-1.71231 0.66255,-3.59869 0.14313,-3.26763 0.078,-3.49587 -1.38117,-4.82857 -0.95756,-0.87458 -1.53152,-1.88934 -1.53152,-2.7077 0,-1.57445 1.16906,-3.9637 2.38281,-4.8698 0.63556,-0.47447 0.8818,-1.35957 0.8818,-3.16954 0,-1.89739 0.18413,-2.51125 0.75338,-2.51125 0.53573,0 0.82592,0.72548 1.00451,2.51125 0.19016,1.90187 0.43392,2.46698 1.00448,2.32882 0.41435,-0.10042 1.99644,-0.22149 3.51573,-0.26925 3.54973,-0.11161 4.018,-0.44284 4.018,-2.84259 0,-1.39431 0.21526,-1.97935 0.7283,-1.97935 0.53391,0 0.76853,0.76756 0.87894,2.8755 0.12984,2.47682 0.32179,2.96051 1.3851,3.48855 1.1886,0.59027 2.32714,2.54684 1.79289,3.08109 -0.14237,0.14237 -0.69801,-0.13857 -1.23476,-0.62436 -1.4822,-1.34137 -2.04568,-0.53802 -2.02439,2.88614 0.019,2.94694 0.10365,3.16226 1.63232,4.12077 1.35397,0.84897 1.63822,1.36251 1.7703,3.19841 0.1232,1.71229 -0.0866,2.44675 -0.96648,3.38331 -0.61811,0.65796 -1.43776,1.19627 -1.82148,1.19627 -0.48453,0 -0.64956,0.49862 -0.54026,1.63232 0.15509,1.60816 0.19901,1.63449 2.97269,1.78075 2.99738,0.15813 3.73728,0.80996 4.06973,3.58561 0.11731,0.98026 1.02227,1.67165 4.56171,3.48551 4.65748,2.38682 12.76978,8.5068 14.59378,11.00964 0.5945,0.81576 2.00466,2.69819 3.13371,4.1832 2.79278,3.67329 5.20531,8.87769 6.49004,14.00059 0.82777,3.30079 1.31893,4.38157 2.16531,4.7649 0.60207,0.27269 1.09467,0.90502 1.09467,1.40517 0,0.50016 0.53362,1.40711 1.18582,2.01546 0.65219,0.60834 1.34437,1.61115 1.53815,2.22847 0.2701,0.86042 0.67268,1.08732 1.72483,0.97213 0.75487,-0.0826 1.62917,-0.30888 1.94287,-0.50277 0.31373,-0.19389 0.71236,-0.12282 0.88587,0.15794 0.46141,0.74658 6.28317,0.6611 6.28317,-0.0923 0,-0.46876 0.13401,-0.46876 0.60269,0 0.41293,0.41293 2.87885,0.6027 7.83187,0.6027 6.85493,0 7.24305,-0.053 7.49721,-1.02497 l 0.26805,-1.02498 0.71792,1.02498 c 0.69357,0.99021 1.1938,1.02497 14.75238,1.02497 h 14.03448 v 33.78095 c 0,39.2627 0.74203,35.13933 -6.29566,34.98423 -2.32101,-0.0513 -4.2836,-0.14712 -4.36134,-0.21306 z m -22.99756,-6.43224 0.004,-3.92578 -1.38118,0.15888 c -1.35243,0.15566 -1.38428,0.23636 -1.53034,3.87878 -0.19108,4.76587 -0.0389,5.1792 1.62328,4.40797 1.21193,-0.56232 1.28061,-0.80404 1.28433,-4.51989 z m 8.4262,0.15015 c 0.1985,-2.77442 0.0993,-3.40588 -0.5755,-3.66484 -1.82248,-0.69936 -2.32205,0.11769 -2.32205,3.79753 0,2.78384 0.18622,3.66863 0.87894,4.17617 1.23432,0.90437 1.71973,-0.13174 2.01861,-4.30886 z m 4.03348,4.42855 c 0.35689,-0.35691 0.6027,-2.07412 0.6027,-4.21054 0,-3.21757 -0.11162,-3.63703 -1.03207,-3.87773 -1.43,-0.37395 -1.87928,1.12036 -1.59372,5.30079 0.23136,3.38714 0.73267,4.07788 2.02309,2.78748 z m 7.53373,0 c 0.35966,-0.35968 0.60269,-2.09454 0.60269,-4.30249 v -3.69977 l -1.38119,0.15889 c -1.37011,0.15774 -1.38034,0.18679 -1.27641,3.63496 0.14332,4.75589 0.59087,5.67239 2.05491,4.20837 z m 4.31581,-0.19176 c 0.16762,-0.43695 0.30486,-2.35804 0.30486,-4.26912 0,-3.37146 -0.0372,-3.47465 -1.25561,-3.47465 -1.22466,0 -1.25562,0.0903 -1.25562,3.66641 0,2.18198 0.244,3.91042 0.6027,4.26912 0.81006,0.81006 1.23892,0.75879 1.60367,-0.19176 z m -48.01454,-3.81118 c -0.0953,-2.32306 -0.37037,-3.67479 -0.77538,-3.80871 -0.4653,-0.15395 -0.62781,0.77827 -0.62781,3.60113 0,3.09873 0.14464,3.80871 0.77538,3.80871 0.64062,0 0.74974,-0.62582 0.62781,-3.60113 z m 3.51852,-0.12605 c 0.10289,-2.37339 -0.0478,-3.58801 -0.47826,-3.85408 -1.14439,-0.70727 -1.42996,0.0678 -1.42996,3.88079 0,3.32335 0.10497,3.75404 0.87895,3.60647 0.71767,-0.13686 0.90651,-0.80336 1.02927,-3.63318 z m 3.77971,1.54039 c 0.4339,-3.16575 -0.10213,-5.93424 -1.11164,-5.74209 -0.62389,0.11864 -0.84412,0.88907 -0.96083,3.36072 -0.17027,3.60626 0.0554,4.56809 1.07188,4.56809 0.44645,0 0.80966,-0.7938 1.00059,-2.18672 z m 3.45557,-1.45459 c 0.21126,-4.14819 0.14484,-4.45823 -0.87249,-4.06788 -1.04984,0.40287 -1.07366,7.70919 -0.0251,7.70919 0.53216,0 0.75902,-0.92028 0.89761,-3.64131 z m 3.91496,-0.37669 c 0,-3.68314 -0.0837,-4.01797 -1.0045,-4.01797 -0.92077,0 -1.00449,0.33483 -1.00449,4.01797 0,3.68316 0.0837,4.018 1.00449,4.018 0.92079,0 1.0045,-0.33484 1.0045,-4.018 z m 4.01799,0.25114 c 0,-3.01349 -0.15072,-3.76687 -0.75338,-3.76687 -0.74968,0 -1,0.84735 -0.81602,2.76237 0.0532,0.55247 -0.16724,1.49777 -0.48941,2.10067 -0.75376,1.41022 -0.26361,2.67069 1.03856,2.67069 0.93481,0 1.02025,-0.31544 1.02025,-3.76686 z m 8.94076,0.29898 c 0.1847,-3.91006 -0.0309,-4.5712 -1.37631,-4.21942 -0.91584,0.23951 -1.03522,0.65974 -1.03522,3.64417 0,3.56594 0.22731,4.1686 1.48226,3.92988 0.58578,-0.11143 0.81524,-0.93979 0.92927,-3.35463 z m 12.65592,-0.29898 c 0,-3.43203 -0.0892,-3.76687 -1.0045,-3.76687 -0.91521,0 -1.00449,0.33484 -1.00449,3.76687 0,3.43202 0.0892,3.76686 1.00449,3.76686 0.91521,0 1.0045,-0.33484 1.0045,-3.76686 z m 11.67192,2.52543 c 0.4221,-2.20806 -0.18641,-6.2923 -0.93748,-6.2923 -0.52318,0 -0.68946,0.90855 -0.68946,3.76687 0,2.87242 0.16495,3.76686 0.69482,3.76686 0.38215,0 0.80159,-0.55864 0.93212,-1.24143 z m 2.89329,-2.55508 c 0,-2.20955 -0.19503,-3.67596 -0.46657,-3.50816 -0.25661,0.15851 -0.40213,1.47152 -0.32337,2.91758 0.2167,3.97902 0.26682,4.38709 0.53882,4.38709 0.13819,0 0.25112,-1.70844 0.25112,-3.79651 z m -196.48439,-1.14083 c 0.11921,-3.35518 0.009,-4.10313 -0.59816,-4.10313 -0.9806,0 -1.50143,0.89362 -0.9642,1.65429 0.47762,0.6763 0.47587,1.73319 -0.004,2.86594 -0.25243,0.59495 -0.19351,2.36425 0.13098,3.93428 0.019,0.0921 0.31711,0.0738 0.66242,-0.0404 0.4172,-0.13819 0.67673,-1.58425 0.77367,-4.31097 z m 3.51574,0.0349 c 0.13667,-3.87814 0.0816,-4.13798 -0.87894,-4.13798 -0.95188,0 -1.02479,0.30638 -1.02479,4.30594 0,3.83003 0.0972,4.28738 0.87893,4.13799 0.73765,-0.14105 0.90238,-0.83313 1.0248,-4.30593 z m 3.51899,-0.16856 c -0.11655,-2.90396 -0.3141,-3.7182 -0.90249,-3.7182 -0.98423,0 -1.36614,6.49279 -0.44708,7.60022 1.0539,1.26986 1.50423,-0.0254 1.34957,-3.88202 z m 3.38523,3.41791 c 0.45929,-1.82992 0.0378,-7.03816 -0.58622,-7.24378 -0.71815,-0.23664 -1.00519,1.80356 -0.77476,5.50684 0.18376,2.95362 0.8441,3.79633 1.36098,1.73694 z m 3.49713,-3.03441 c 0,-5.29463 -0.96544,-5.21853 -1.15116,0.0907 -0.11371,3.25186 -10e-4,4.14391 0.50224,3.97614 0.45515,-0.15167 0.64892,-1.36609 0.64892,-4.06688 z m 3.66486,0.17597 c 0.13876,-3.42454 -0.37684,-5.22179 -1.24824,-4.35039 -0.48356,0.48356 -0.8571,6.61633 -0.46519,7.63761 0.17009,0.44321 0.59162,0.71244 0.93676,0.59832 0.40653,-0.1344 0.68007,-1.50286 0.77667,-3.88554 z m 3.72287,0.87045 c 0.2035,-3.2865 -0.22583,-5.39917 -1.09719,-5.39917 -0.31105,0 -0.51468,1.68913 -0.51468,4.26912 0,3.3405 0.15414,4.26911 0.70875,4.26911 0.51386,0 0.76221,-0.86325 0.90312,-3.13906 z m 3.30558,-2.59777 c -0.0803,-1.08347 -0.42861,-2.06286 -0.7739,-2.17641 -0.46438,-0.15262 -0.62782,0.76327 -0.62782,3.51856 0,2.04875 0.16762,3.89263 0.37248,4.09749 0.52322,0.52322 1.20445,-3.07714 1.02924,-5.43964 z m 6.06238,0.51443 c 0.0486,-2.11165 -0.10288,-2.84031 -0.55961,-2.68953 -0.69354,0.22898 -1.15727,6.00788 -0.59034,7.35677 0.50143,1.19304 1.06785,-1.10593 1.14995,-4.66724 z m 3.1627,2.33446 c 0.138,-5.0119 -0.0589,-5.70505 -1.32307,-4.65586 -0.93886,0.77919 -1.06231,6.04159 -0.16287,6.9411 1.10004,1.10005 1.40553,0.63023 1.48586,-2.28524 z m 3.63355,2.09348 c 0.16762,-0.43694 0.30486,-2.26161 0.30486,-4.0548 0,-2.83422 -0.11484,-3.23843 -0.87893,-3.09253 -0.73111,0.13952 -0.90361,0.82162 -1.02563,4.0548 -0.11731,3.11026 -0.002,3.88699 0.57407,3.88699 0.39642,0 0.85796,-0.3575 1.02563,-0.79446 z m 3.8206,-3.22353 c 0,-3.07602 -0.16211,-4.018 -0.69118,-4.018 -0.47679,0 -0.76361,0.8734 -0.92468,2.81562 -0.28949,3.49081 0.0152,5.22037 0.92104,5.22037 0.53369,0 0.69482,-0.93176 0.69482,-4.01799 z m 3.91273,-0.12548 c -0.1156,-3.28348 -0.30224,-4.14354 -0.89924,-4.14354 -0.59701,0 -0.78366,0.86006 -0.89925,4.14354 -0.13762,3.90915 -0.0867,4.14357 0.89925,4.14357 0.98599,0 1.03687,-0.23442 0.89924,-4.14357 z m 3.62099,0.12548 c 0,-3.68316 -0.0837,-4.018 -1.0045,-4.018 -0.92079,0 -1.00448,0.33484 -1.00448,4.018 0,3.68316 0.0837,4.01799 1.00448,4.01799 0.92079,0 1.0045,-0.33483 1.0045,-4.01799 z m 9.90895,3.71454 c -0.16686,-0.16686 -0.6001,-0.1847 -0.96265,-0.0397 -0.40066,0.16041 -0.28164,0.27933 0.30344,0.30344 0.52946,0.0218 0.8261,-0.0968 0.65921,-0.2638 z m 4.01799,0 c -0.16685,-0.16686 -0.60009,-0.1847 -0.96264,-0.0397 -0.40067,0.16041 -0.28167,0.27933 0.30343,0.30344 0.52945,0.0218 0.82609,-0.0968 0.65921,-0.2638 z m -68.70732,-4.81496 c 0.0194,-1.57205 -0.19071,-2.99797 -0.46695,-3.1687 -0.32045,-0.19804 -0.48947,1.2002 -0.46693,3.8628 0.0401,4.73327 0.87451,4.11305 0.93388,-0.6941 z m 2.94436,0.72373 c -0.11523,-3.05991 -0.30782,-3.89243 -0.90006,-3.89243 -0.96796,0 -1.36267,5.99475 -0.46585,7.07534 1.17494,1.41574 1.50982,0.63546 1.36591,-3.18291 z m 30.40531,0.55959 c 0.32098,-3.43726 -0.0399,-5.14968 -0.71955,-3.41418 -0.52874,1.3502 -0.54577,6.74701 -0.0213,6.74701 0.23629,0 0.56967,-1.49978 0.74085,-3.33283 z m 106.16682,2.0038 c 0.33674,-1.0053 -4.55106,-1.15234 -43.0424,-1.29484 -35.12101,-0.13003 -37.42066,-0.0854 -37.57786,0.72994 -0.20214,1.04822 3.87344,1.14057 50.33532,1.14057 22.17266,0 30.14286,-0.15148 30.28494,-0.57567 z m 5.16635,-2.13296 c 0,-2.16759 -0.20163,-3.03714 -0.75336,-3.24886 -0.62182,-0.23861 -0.75339,0.27823 -0.75339,2.95975 0,2.55305 0.16136,3.24886 0.75339,3.24886 0.58443,0 0.75336,-0.66369 0.75336,-2.95975 z m -87.39891,-1.93718 c 0.004,-1.174 -0.21832,-2.13456 -0.49456,-2.13456 -0.27749,0 -0.49881,1.29236 -0.49455,2.88794 0.006,2.04988 0.14901,2.6693 0.49455,2.13456 0.26779,-0.41435 0.49034,-1.71392 0.49456,-2.88794 z m 78.60958,1.38408 c -0.55249,-0.23899 -9.3135,-0.45042 -19.46895,-0.46984 -13.36512,-0.0256 -18.72915,-0.20061 -19.42289,-0.63386 -0.71731,-0.44798 -1.41058,-0.45978 -2.75555,-0.0471 -1.00352,0.30799 -1.7971,0.35051 -1.7971,0.0962 0,-0.72588 -11.23819,-0.56786 -11.97443,0.16838 -0.46048,0.46048 -0.71669,0.47361 -0.97939,0.0501 -0.57388,-0.92495 -16.15348,-0.88681 -17.94749,0.0439 -1.40485,0.72884 -1.39445,0.73491 1.55947,0.91145 6.65896,0.39797 73.72798,0.2878 72.78633,-0.11959 z m 5.2736,-1.00739 c 0,-0.8287 -0.22601,-1.50674 -0.50225,-1.50674 -0.27623,0 -0.50226,0.67804 -0.50226,1.50674 0,0.82871 0.22603,1.50675 0.50226,1.50675 0.27624,0 0.50225,-0.67804 0.50225,-1.50675 z m -6.52923,-1.71593 c 0,-0.61566 -0.59559,-0.81118 -2.6368,-0.86557 -1.45025,-0.0387 -3.87987,-0.10801 -5.39918,-0.15414 -2.45324,-0.0746 -61.14396,-0.35074 -63.45071,-0.2986 -0.50644,0.0114 -0.82791,0.30333 -0.71438,0.64862 0.33062,1.00559 3.7824,1.12064 38.92711,1.29756 30.09246,0.15148 33.27396,0.0915 33.27396,-0.62781 z m -73.32827,-0.29305 c 0,-0.27624 -0.45202,-0.50227 -1.00449,-0.50227 -0.55249,0 -1.0045,0.22603 -1.0045,0.50227 0,0.27623 0.45201,0.50224 1.0045,0.50224 0.55247,0 1.00449,-0.22601 1.00449,-0.50224 z m 83.37323,-2.79202 c 0,-1.53631 1.37411,-1.65267 1.59739,-0.13535 0.2366,1.60794 1.4161,1.78015 1.4161,0.20676 0,-0.81849 0.27813,-1.29748 0.75338,-1.29748 0.41436,0 0.75337,0.42435 0.75337,0.943 0,0.51864 0.33635,1.22214 0.74744,1.56331 0.60583,0.50279 0.79613,0.46688 1.0045,-0.18964 0.14142,-0.44546 0.36847,-1.16327 0.50463,-1.59512 0.35843,-1.13678 1.25918,-0.37425 1.25918,1.06596 0,1.75766 1.46627,1.56436 2.16445,-0.28534 0.6192,-1.64044 1.49847,-1.74187 1.77672,-0.20494 0.32927,1.81884 1.05441,1.94333 1.63406,0.28055 0.63924,-1.83376 1.53843,-1.85041 1.96666,-0.0365 0.42287,1.79131 1.88888,1.87605 2.09013,0.12073 0.11713,-1.02191 0.43864,-1.41104 1.16565,-1.41104 0.55211,0 1.0262,0.33903 1.05356,0.75339 0.11541,1.74729 0.23988,2.00898 0.95609,2.00898 0.50226,0 0.75338,-0.50224 0.75338,-1.50674 0,-1.17191 0.22322,-1.50675 1.00449,-1.50675 0.78611,0 1.0045,0.33484 1.0045,1.5401 0,1.37894 0.14256,1.52349 1.36132,1.38119 0.96088,-0.11218 1.44511,-0.51731 1.64617,-1.3773 0.40743,-1.74279 1.41049,-1.86337 1.60208,-0.19258 0.11674,1.01884 0.47584,1.45555 1.29184,1.57146 0.96134,0.13648 1.13008,-0.0697 1.13008,-1.38119 0,-1.97754 1.374,-2.11545 1.59894,-0.16041 0.12605,1.09606 0.41813,1.3812 1.41455,1.3812 1.00296,0 1.28818,-0.28391 1.41741,-1.41104 0.2168,-1.89067 1.78359,-1.64467 2.00903,0.31545 0.12813,1.11309 0.38605,1.37454 1.23504,1.25132 0.63579,-0.0923 1.18393,-0.6284 1.3449,-1.31544 0.38275,-1.6336 1.24581,-1.61578 1.43513,0.0296 0.0875,0.75965 0.32473,1.3812 0.52737,1.3812 0.6806,0 1.57383,-1.19722 1.57383,-2.10944 0,-0.49724 0.22601,-0.90405 0.50224,-0.90405 0.27624,0 0.50226,0.42434 0.50226,0.943 0,0.51864 0.33901,1.22434 0.75337,1.56823 0.9426,0.78229 2.26012,-0.13193 2.26012,-1.56823 0,-1.49847 1.42091,-1.10906 1.59895,0.43817 0.1137,0.98894 0.47984,1.42676 1.28898,1.54168 0.96625,0.13724 1.13005,-0.0683 1.13005,-1.418 0,-1.23201 0.19294,-1.54192 0.87893,-1.41184 0.53583,0.10156 0.94211,0.71586 1.04074,1.57343 0.20915,1.81825 1.8472,1.67664 1.8472,-0.15964 0,-0.77776 0.32628,-1.30067 0.87894,-1.40866 0.64956,-0.127 0.87893,0.15774 0.87893,1.09106 0,1.92099 0.91439,2.07182 1.24877,0.20598 0.1623,-0.90543 0.2302,-11.92979 0.15091,-24.49857 l -0.14408,-22.85231 -29.65783,-0.12947 -29.65782,-0.12946 0.20023,1.7152 c 0.14313,1.22517 -0.12794,2.15896 -0.94822,3.26856 -1.1326,1.53191 -1.20955,1.55336 -5.57422,1.55336 h -4.4258 l -0.008,1.88342 c -0.004,1.0359 -0.1513,9.76584 -0.3267,19.39989 -0.29041,15.96158 -0.24512,17.55762 0.51022,17.98034 0.4559,0.25514 0.82893,0.79167 0.82893,1.1923 0,1.00027 1.00739,0.91557 1.79054,-0.15053 0.59258,-0.80669 0.69028,-0.76204 1.18852,0.54307 0.61828,1.61958 1.71189,1.5586 1.95657,-0.10915 0.20318,-1.38461 1.28441,-1.12654 1.50297,0.35875 0.2168,1.47343 1.00333,1.38019 1.39112,-0.16496 0.41861,-1.66787 0.86679,-1.58343 1.57659,0.29702 0.65938,1.7469 1.64315,1.5513 1.64315,-0.32667 z m 10.15597,-12.40101 0.14009,-6.65479 1.97516,-0.16135 c 1.08632,-0.0886 2.49889,0.11902 3.13904,0.46156 1.12045,0.59964 1.1639,0.8542 1.1639,6.81615 v 6.19323 h -3.27919 -3.27919 z m 11.29522,6.34187 c -0.19622,-0.19621 -0.35676,-2.89052 -0.35676,-5.98739 0,-6.03013 0.35168,-6.96616 2.4145,-6.42671 0.60864,0.15907 1.4101,0.0376 1.78106,-0.27037 0.51158,-0.42459 0.87893,-0.33381 1.52115,0.37582 0.70961,0.78411 0.8236,1.86115 0.70405,6.653 l -0.14256,5.71746 -2.78232,0.14749 c -1.53026,0.0811 -2.94284,-0.0133 -3.13904,-0.20928 z m 10.19046,-5.98915 v -6.30206 l 3.13906,0.14958 3.13906,0.14959 0.14104,6.15253 0.14104,6.15255 h -3.28006 -3.28008 z m 11.55172,0.0239 v -6.32401 l 3.39018,0.14845 3.39018,0.14844 v 6.02698 6.02699 l -3.39018,0.14844 -3.39018,0.14844 v -6.324 z m -30.76272,-18.70122 -2.38568,-0.18812 v -5.24609 -5.2461 h 3.26462 3.26461 v 4.92204 c 0,4.47438 -0.46523,6.37 -1.48163,6.03691 -0.15186,-0.0497 -1.34978,-0.17521 -2.66192,-0.27864 z m 11.53443,-0.033 -2.90521,-0.1511 0.14275,-5.12246 0.14293,-5.12246 3.13905,-0.14959 3.13906,-0.14958 v 5.26794 c 0,2.89736 -0.16952,5.33776 -0.37669,5.42313 -0.20718,0.0854 -1.68405,0.0871 -3.28191,0.004 z m 8.5555,0.0674 c -0.76545,-0.20993 -0.87893,-0.91705 -0.87893,-5.47782 v -5.23679 h 3.28162 3.2816 l -0.14256,5.39917 -0.14256,5.39919 -2.26012,0.0786 c -1.24306,0.0433 -2.65563,-0.0298 -3.13907,-0.16231 z m 11.00151,-0.006 c -0.18071,-0.18071 -0.32872,-2.66415 -0.32872,-5.51861 v -5.1899 h 3.53272 3.53274 l -0.14256,5.39917 -0.14255,5.39919 -3.06148,0.1194 c -1.6838,0.0657 -3.20938,-0.0285 -3.39017,-0.20927 z m -57.33392,30.98451 c 1.49076,-0.10535 1.49344,-0.11086 0.25112,-0.50864 -1.8957,-0.60712 -66.10491,-0.61173 -65.49789,-0.004 0.57696,0.57695 57.9613,1.02844 65.24677,0.51334 z m -131.38097,-0.59235 c -0.0697,-0.0921 0.15319,-0.69053 0.49542,-1.3299 0.50016,-0.93456 0.76299,-1.04559 1.3405,-0.56631 0.39508,0.32788 0.71834,1.03385 0.71834,1.5688 0,0.53497 0.22601,0.83297 0.50224,0.66224 0.27624,-0.17065 0.50226,-0.86209 0.50226,-1.53639 0,-1.67837 0.78121,-1.54018 1.58725,0.28077 0.76669,1.73207 1.42624,1.96432 1.42624,0.50224 0,-0.55805 0.33484,-1.00448 0.75337,-1.00448 0.41854,0 0.75338,0.44643 0.75338,1.00448 0,0.66967 0.33483,1.00451 1.00448,1.00451 0.66967,0 1.0045,-0.33484 1.0045,-1.00451 0,-0.55805 0.33484,-1.00448 0.75337,-1.00448 0.41855,0 0.75338,0.44643 0.75338,1.00448 0,0.66967 0.33483,1.00451 1.0045,1.00451 0.66965,0 1.00449,-0.33484 1.00449,-1.00451 0,-0.58426 0.33483,-1.00448 0.8004,-1.00448 0.44021,0 0.91859,0.45201 1.06306,1.00448 0.35578,1.36049 1.54401,1.27489 1.74291,-0.12547 0.0883,-0.62153 0.49951,-1.13008 0.91386,-1.13008 0.41436,0 0.8256,0.50855 0.91388,1.13008 0.19892,1.40067 1.09805,1.47842 1.45185,0.12547 0.14541,-0.55594 0.68506,-1.00448 1.20859,-1.00448 0.61108,0 0.94592,0.35556 0.94592,1.00448 0,0.55805 0.33483,1.00451 0.75338,1.00451 0.41853,0 0.75336,-0.44646 0.75336,-1.00451 0,-0.66965 0.33484,-1.00448 1.00451,-1.00448 0.66967,0 1.0045,0.33483 1.0045,1.00448 0,0.55247 0.31264,1.00451 0.69478,1.00451 0.38214,0 0.81301,-0.45204 0.95749,-1.00451 0.14445,-0.55247 0.62285,-1.00448 1.06306,-1.00448 0.46557,0 0.8004,0.42022 0.8004,1.00448 0,0.55247 0.24718,1.00451 0.54927,1.00451 0.3021,0 0.66748,-0.45204 0.81196,-1.00451 0.35214,-1.34663 1.57438,-1.27508 2.14505,0.12548 l 0.46043,1.13005 0.33534,-1.13005 c 0.41565,-1.40069 1.51766,-1.47467 1.87046,-0.12548 0.14445,0.55247 0.50985,1.00451 0.81196,1.00451 0.30209,0 0.54926,-0.45204 0.54926,-1.00451 0,-0.55247 0.22409,-1.00448 0.49799,-1.00448 0.2739,0 0.78028,0.45201 1.12531,1.00448 0.34503,0.55247 0.77261,1.00451 0.95017,1.00451 0.17749,0 0.44106,-0.45204 0.58554,-1.00451 0.14446,-0.55247 0.60764,-1.00448 1.02924,-1.00448 0.4216,0 0.91001,0.45201 1.08535,1.00448 0.1754,0.55247 0.64262,1.00451 1.03835,1.00451 0.39573,0 0.71953,-0.45204 0.71953,-1.00451 0,-0.58426 0.33484,-1.00448 0.80039,-1.00448 0.44022,0 0.9186,0.45201 1.06308,1.00448 0.14446,0.55247 0.54898,1.00451 0.89888,1.00451 0.34993,0 0.75443,-0.45204 0.89891,-1.00451 0.14446,-0.55247 0.53102,-1.00448 0.85898,-1.00448 0.32794,0 0.71449,0.45201 0.85896,1.00448 0.14446,0.55247 0.67311,1.00451 1.17476,1.00451 0.50164,0 1.05553,-0.45204 1.23089,-1.00451 0.1754,-0.55247 0.5296,-1.00448 0.78721,-1.00448 0.25763,0 0.46842,0.45201 0.46842,1.00448 0,0.64894 0.33483,1.00451 0.9459,1.00451 0.52354,0 1.06322,-0.44855 1.2086,-1.00451 0.14446,-0.55247 0.50986,-1.00448 0.81197,-1.00448 0.30209,0 0.54926,0.45201 0.54926,1.00448 0,0.55247 0.19966,1.00451 0.44366,1.00451 0.24402,0 0.56189,-0.45204 0.70636,-1.00451 0.14446,-0.55247 0.62286,-1.00448 1.06307,-1.00448 0.46557,0 0.8004,0.42022 0.8004,1.00448 0,0.66967 0.33483,1.00451 1.0045,1.00451 0.66965,0 1.00449,-0.33484 1.00449,-1.00451 0,-0.63257 0.33483,-1.00448 0.90437,-1.00448 1.99125,0 3.51615,-1.20063 3.81448,-3.00332 0.16097,-0.97242 0.29506,-9.50896 0.2981,-18.97005 l 0.006,-17.20201 h -4.1706 c -4.0593,0 -4.21348,-0.0442 -5.77783,-1.65826 -1.6285,-1.68019 -1.87786,-3.25535 -0.87389,-5.52045 0.21956,-0.49532 0.30369,-0.99608 0.18698,-1.1128 -0.11674,-0.11675 -13.15385,-0.23641 -28.9714,-0.26599 -21.63333,-0.0404 -28.93843,0.0949 -29.48251,0.54647 -0.61001,0.50627 -0.7233,4.15112 -0.7233,23.27201 v 22.6717 l 1.13007,0.49579 c 0.62153,0.27266 1.20481,1.02371 1.29619,1.66895 0.0913,0.64526 0.27973,1.05961 0.41855,0.92081 0.13877,-0.13876 0.19537,-0.32774 0.12567,-0.41982 z m 30.11377,-6.48515 c -0.26422,-0.16325 -0.40827,-3.02516 -0.32868,-6.52922 l 0.1418,-6.23848 2.45574,-0.15604 c 1.35067,-0.0858 2.66742,0.0558 2.92612,0.31441 0.49231,0.49231 0.88768,12.60626 0.41471,12.70643 -1.00758,0.21338 -5.22535,0.14028 -5.60959,-0.0972 z m 10.41398,-0.25258 c -0.16761,-0.43694 -0.30486,-3.23441 -0.30486,-6.2166 0,-6.37419 0.19165,-6.67556 4.10277,-6.45175 l 2.67757,0.15319 0.14199,5.95574 c 0.0945,3.96163 -0.0522,6.18981 -0.43817,6.65479 -0.85118,1.02561 -5.77831,0.94953 -6.17928,-0.0955 z m -34.23046,-0.34218 c -0.14408,-0.37546 -0.19767,-3.26797 -0.11902,-6.4278 l 0.14294,-5.74514 3.40536,-0.14883 3.40535,-0.14882 -0.14066,6.42696 -0.14066,6.42697 -3.14555,0.14977 c -2.29599,0.10934 -3.2163,-0.0347 -3.40751,-0.53296 z m 12.43948,-5.76927 0.14047,-6.40367 h 2.76237 2.76235 l 0.14066,6.40367 0.14047,6.40365 h -3.0435 -3.0435 z m -11.26757,-19.03194 c -1.30502,-0.68819 -1.36253,-0.88406 -1.34858,-4.59252 0.019,-5.00911 0.68392,-6.13378 3.62737,-6.13378 1.18146,0 2.41929,0.27123 2.75079,0.6027 0.81764,0.81764 0.81764,9.52869 0,10.34633 -0.7915,0.7915 -3.31852,0.67959 -5.02958,-0.22273 z m 11.37309,0.16192 c -0.14009,-0.36496 -0.18944,-2.90758 -0.10972,-5.65029 l 0.14484,-4.98673 2.51123,-0.0431 c 3.79728,-0.0651 4.26912,0.57555 4.26912,5.79629 0,2.70739 -0.22688,4.56883 -0.6027,4.94464 -0.84069,0.84069 -5.8857,0.79128 -6.21269,-0.0609 z m 11.13824,-0.13098 c -0.16761,-0.43694 -0.30309,-2.75356 -0.30095,-5.14802 0.004,-4.23451 0.041,-4.37077 1.35576,-4.98142 0.74351,-0.3453 1.60073,-0.62782 1.90495,-0.62782 0.30421,0 1.16143,0.28252 1.90494,0.62782 1.2953,0.60156 1.352,0.78924 1.35576,4.48754 0.002,2.12285 -0.2165,4.43947 -0.4859,5.14805 -0.43415,1.14188 -0.77058,1.28831 -2.95975,1.28831 -1.78894,0 -2.554,-0.21904 -2.77481,-0.79446 z m 10.96364,-0.43965 c -0.59575,-0.90921 -0.73694,-1.93395 -0.53635,-3.89243 0.14977,-1.46207 0.2824,-3.27983 0.2948,-4.0395 0.0222,-1.36424 0.063,-1.38117 3.32114,-1.38117 h 3.29861 l -0.0847,3.89242 c -0.14389,6.60732 -0.16534,6.65479 -3.02511,6.65479 -2.05808,0 -2.59179,-0.20151 -3.26837,-1.23411 z m 89.68344,30.18316 c 0,-1.08364 -3.96361,-1.23588 -33.91856,-1.30286 -27.24902,-0.0609 -29.00669,0.0319 -28.10912,1.48422 0.20148,0.32602 11.13837,0.50226 31.16904,0.50226 25.69557,0 30.85864,-0.11447 30.85864,-0.68362 z m -59.46222,-3.20881 c 0.5247,-0.69121 0.67062,-4.64734 0.68319,-18.5217 0.0133,-15.08317 -0.0934,-17.73346 -0.73742,-18.26799 -0.60105,-0.49883 -0.90568,-0.49883 -1.50675,0 -0.64427,0.5347 -0.75336,3.2587 -0.75336,18.81209 0,10.00278 0.15072,18.33753 0.33484,18.5217 0.56934,0.56935 1.28322,0.37313 1.9795,-0.5441 z m 4.4878,-7.05665 c 0.0215,-6.79661 0.0359,-6.88279 1.18113,-7.04794 0.63765,-0.0919 1.71689,-0.0273 2.39831,0.1437 l 1.23893,0.31095 -0.0763,6.38547 c -0.10516,8.78597 -0.22462,8.14333 1.51434,8.14333 h 1.50675 v -18.08094 c 0,-20.3319 0.43559,-18.22445 -3.76687,-18.22445 -0.96683,0 -2.77492,0.0323 -4.018,0.0717 l -2.26011,0.0718 0.002,4.39466 0.002,4.39467 0.99522,-1.6323 c 0.83307,-1.36635 1.29689,-1.63231 2.8465,-1.63231 1.01821,0 2.26459,0.37405 2.76975,0.83123 0.95773,0.8667 1.20515,2.96157 0.4841,4.09867 -0.63053,0.99432 -3.0178,2.10847 -3.3536,1.56513 -0.15927,-0.25742 -0.73531,-0.46805 -1.28015,-0.46805 -0.54484,0 -1.12072,-0.33901 -1.27972,-0.75337 -0.89998,-2.34532 -1.18612,0.47781 -1.18612,11.70239 0,9.01815 0.16628,12.62209 0.60269,13.05846 1.26457,1.26457 1.65741,-0.45097 1.67921,-7.33289 z m 13.18735,7.33289 c 0.44623,-0.44624 0.6027,-5.25437 0.6027,-18.5217 0,-19.31381 -0.002,-19.32905 -2.60916,-18.95948 l -1.15771,0.1642 -0.14104,18.95988 -0.14104,18.95987 h 1.42182 c 0.78198,0 1.69302,-0.27122 2.02451,-0.60269 z m 7.88529,-6.22588 c 0,-8.01547 0.17369,-8.34983 4.22386,-8.13599 l 2.80762,0.14826 0.25112,7.2826 0.25113,7.28261 h 2.76237 2.76236 l 0.13193,-17.91018 0.13193,-17.91018 -1.88972,-0.27111 c -2.57844,-0.36993 -15.24023,-0.0471 -16.32936,0.41641 -0.81302,0.34596 -0.87893,1.68186 -0.87893,17.81526 0,9.59268 0.16078,17.60207 0.35739,17.79863 0.19656,0.19657 1.49613,0.29074 2.88792,0.20929 l 2.53053,-0.14807 z m 0.78983,-17.59822 c -2.10595,-2.67727 -0.98507,-5.30738 2.54057,-5.96143 1.54853,-0.28725 1.94635,-0.16306 2.6368,0.82263 2.74905,3.92481 -2.23841,8.8751 -5.17737,5.1388 z m 17.4418,23.8241 c 0.44618,-0.44621 0.6027,-5.24571 0.6027,-18.48275 0,-18.47819 -0.0649,-19.08545 -2.0379,-19.08545 -1.23065,0 -1.47786,3.70896 -1.47786,22.17261 v 15.99829 h 1.15519 c 0.63533,0 1.42637,-0.27123 1.75787,-0.6027 z m 4.3403,-0.25553 c 0.18109,-0.47202 0.30583,-3.46668 0.2771,-6.65479 -0.0287,-3.18811 -0.0397,-6.07909 -0.0245,-6.42438 0.0171,-0.40513 0.82939,-0.62781 2.28784,-0.62781 1.4449,0 2.27932,0.22646 2.31334,0.62781 0.0292,0.34529 0.0858,3.56243 0.12547,7.14916 0.0619,5.57643 0.19032,6.54422 0.88636,6.67913 0.49905,0.0968 0.92883,-0.28138 1.1108,-0.97723 0.16325,-0.62424 0.24896,-8.71511 0.19049,-17.97971 l -0.1063,-16.84472 h -4.52024 -4.52023 l -0.13231,17.32449 c -0.0727,9.52846 -0.0233,17.60837 0.10972,17.95537 0.35175,0.91665 1.61842,0.77284 2.00223,-0.22732 z m 0.50867,-23.478 c -1.69839,-1.69839 -1.64008,-3.89867 0.14048,-5.29925 1.48373,-1.1671 3.78507,-1.08109 5.0551,0.18888 1.2125,1.2125 0.90242,3.87737 -0.60171,5.17117 -1.74421,1.50031 -3.04997,1.48302 -4.59387,-0.0609 z m 11.10425,20.82048 c 0.0552,-1.79553 0.26801,-4.56384 0.47299,-6.15178 0.25471,-1.97314 0.18622,-3.11176 -0.21608,-3.59658 -0.4024,-0.48489 -0.42208,-0.81245 -0.0621,-1.03491 0.74752,-0.46198 0.71958,-20.17761 -0.0292,-20.64039 -0.37703,-0.23303 -0.38823,-0.44715 -0.0347,-0.66559 0.33218,-0.20527 0.19452,-0.75492 -0.37971,-1.51618 -1.83469,-2.43228 -2.04311,-1.10103 -2.04311,13.0497 0,9.81174 -0.16933,13.80904 -0.61523,14.52303 -0.48548,0.77738 -0.48548,1.11491 0,1.60039 0.37417,0.37416 0.61523,2.06552 0.61523,4.31657 0,3.51843 0.0541,3.69341 1.09588,3.54085 0.98505,-0.14427 1.10602,-0.49065 1.19619,-3.42511 z m 11.15578,-36.76411 c -0.21122,-0.64602 -5.25861,-2.61226 -8.17424,-3.18432 -0.82871,-0.16249 -2.18479,-0.60116 -3.01349,-0.9746 -0.82871,-0.37343 -2.97583,-1.0767 -4.77136,-1.56281 -1.79554,-0.4861 -3.49064,-1.03371 -3.76687,-1.21691 -0.27624,-0.18319 -2.42334,-0.83784 -4.77136,-1.45476 -2.34801,-0.61693 -4.94713,-1.44457 -5.77586,-1.83922 -1.52797,-0.72761 -7.74612,-2.51387 -10.60337,-3.04597 -1.45957,-0.2718 -11.109,1.72806 -13.50455,2.79885 -1.1084,0.49545 -3.844,1.22596 -8.75048,2.33665 -1.77415,0.40163 -3.46924,0.91971 -3.76685,1.15129 -0.29763,0.23159 -2.34921,0.82641 -4.55911,1.32182 -2.2099,0.49539 -4.92204,1.29057 -6.02698,1.76705 -1.10494,0.47649 -3.06406,1.0181 -4.35361,1.20362 -2.66499,0.38337 -3.8413,1.33148 -2.76265,2.22668 0.48534,0.40281 9.97436,0.60232 33.02903,0.69446 17.79142,0.0712 36.72144,0.19728 42.06671,0.28043 7.80382,0.1213 9.67658,0.0224 9.50504,-0.50226 z m -45.08949,-1.40677 c -32.0101,-0.24068 -36.84858,-0.49406 -31.33003,-1.64063 1.0284,-0.21367 2.11354,-0.5788 2.4114,-0.81139 0.29787,-0.23258 3.14073,-1.03495 6.31745,-1.78304 3.1767,-0.74808 6.45388,-1.65915 7.28259,-2.02461 0.82872,-0.36547 3.12641,-1.02605 5.106,-1.46796 1.9796,-0.44192 4.23971,-1.07315 5.0225,-1.40274 2.89726,-1.21992 7.94988,-2.28145 8.79836,-1.84849 0.46525,0.23741 1.22214,0.43165 1.68198,0.43165 0.45981,0 1.54824,0.32557 2.41869,0.72348 0.87044,0.39791 3.60905,1.33053 6.08577,2.07246 2.47671,0.74194 4.84985,1.52444 5.27361,1.73887 0.42377,0.21445 3.0306,1.01382 5.79297,1.77639 2.76237,0.76257 5.2485,1.54616 5.52474,1.7413 0.5421,0.38297 3.16269,1.21025 5.4197,1.71096 1.8569,0.41192 1.27951,1.24309 -0.78265,1.1266 -0.89296,-0.0505 -16.65335,-0.20473 -35.02308,-0.34285 z m 22.74315,-1.9935 c -0.88875,-0.54189 -3.37486,-1.46667 -5.52474,-2.05505 -2.14986,-0.58839 -4.48709,-1.37446 -5.19385,-1.74684 -1.68234,-0.88634 -8.40672,-2.74284 -9.93484,-2.74284 -1.53845,0 -11.68348,2.4386 -12.36754,2.97285 -0.28629,0.22358 -2.55464,0.91214 -5.04077,1.5301 -4.99313,1.24114 -7.28259,2.07459 -7.28259,2.65115 0,0.2088 10.56605,0.37879 23.48011,0.37775 l 23.48012,-0.002 -1.6159,-0.98525 z m 83.63552,-3.61079 0.15319,-1.83743 -3.16663,-0.22243 c -7.00977,-0.49239 -79.82284,-0.37838 -79.51205,0.12452 0.17274,0.2795 0.69626,0.50957 1.16337,0.51126 0.4671,0.002 1.48227,0.33326 2.25593,0.73679 3.50072,1.82598 5.06393,1.97116 24.20804,2.24838 10.49699,0.15205 27.10885,0.27637 36.91525,0.27637 h 17.82982 z m -131.9108,-0.28284 c 0.40664,-0.33746 1.90845,-0.86426 3.33737,-1.17072 5.4546,-1.1698 3.02583,-1.48038 -11.57693,-1.48038 -11.10665,0 -14.90975,-0.1549 -15.411,-0.62781 -0.53286,-0.5027 -0.71274,-0.49852 -0.90266,0.0209 -0.18869,0.51597 -0.38973,0.52216 -0.98251,0.0302 -0.58149,-0.48261 -0.95712,-0.48627 -1.70902,-0.0171 -0.53408,0.33354 -0.96371,0.3866 -0.96371,0.11902 0,-0.3033 -8.42976,-0.44493 -22.67179,-0.38094 -20.98104,0.0943 -22.71316,0.16742 -23.22643,0.98081 -0.40369,0.63975 -0.40424,1.11811 -0.002,1.75787 0.77479,1.2322 6.23617,1.40951 42.935,1.39402 23.21549,-0.009 30.60968,-0.15831 31.17365,-0.62637 z m 17.49614,-5.19509 c 0.85225,-0.47728 -27.07018,-0.86965 -32.14389,-0.45169 -6.5402,0.53876 -1.45918,0.98639 12.80732,1.12829 15.03885,0.14958 18.04944,0.0442 19.33657,-0.6766 z m 57.75857,0.53501 c 0,-0.30052 -2.26947,-0.53311 -5.6503,-0.57907 -3.10766,-0.0421 -10.50953,-0.15091 -16.44862,-0.24134 -5.93909,-0.0906 -11.58938,-0.0224 -12.55623,0.1511 -1.68019,0.30173 -1.70238,0.33236 -0.50224,0.69353 1.96463,0.59119 35.15739,0.56828 35.15739,-0.0243 z m -3.61166,-2.47321 c 2.52773,-0.0579 1.43215,-0.93695 -1.54429,-1.23913 -1.44591,-0.14674 -21.21139,-0.37834 -43.92333,-0.51454 -38.56171,-0.23125 -42.83619,-0.13003 -41.71781,0.98842 0.15812,0.15813 31.75017,0.37318 43.83686,0.2985 0.82872,-0.006 9.07815,0.14579 18.33206,0.33527 9.25394,0.18945 18.29441,0.30519 20.08995,0.25705 1.79553,-0.0482 4.01249,-0.1046 4.92656,-0.12548 z m -39.32139,-3.0664 c 0.23372,-0.37815 0.52703,-0.37377 0.99532,0.0152 0.45921,0.38111 0.76429,0.38865 0.98941,0.0245 0.37762,-0.61098 2.60316,-0.71271 2.96002,-0.13535 0.36279,0.58702 5.10042,0.68022 6.55056,0.12889 0.81015,-0.30801 1.37496,-0.30757 1.56583,10e-4 0.46219,0.74786 23.49287,0.63423 24.24673,-0.11959 0.62766,-0.62766 0.82817,-3.02241 0.29749,-3.55309 -0.1678,-0.16781 -0.9716,-2.28828 -1.78607,-4.71202 -0.81447,-2.42374 -1.74186,-4.7213 -2.06087,-5.10568 -0.61724,-0.74374 -1.6034,-2.36425 -2.19395,-3.60522 -0.19717,-0.41435 -0.65805,-0.93411 -1.02419,-1.15501 -0.36612,-0.22069 -0.66568,-0.67838 -0.66568,-1.01686 0,-1.02635 -7.05347,-7.5787 -10.79834,-10.03116 -1.93366,-1.26631 -4.64581,-2.57444 -6.02698,-2.90692 -1.38119,-0.33248 -2.82822,-0.85441 -3.21562,-1.15984 -0.47284,-0.37278 -4.9302,-0.55532 -13.56071,-0.55532 h -12.85633 l -2.90167,1.38118 c -1.5959,0.75965 -3.0726,1.38119 -3.28154,1.38119 -0.45519,0 -4.61238,2.67657 -7.39185,4.75915 -2.19768,1.64669 -6.766,6.0591 -6.766,6.53511 0,0.16572 -0.57198,0.91295 -1.27107,1.66055 -1.88336,2.01405 -4.6613,7.29959 -5.82656,11.08611 -0.56388,1.83239 -1.23173,3.72407 -1.48407,4.20374 -1.28322,2.4393 -1.61825,2.38888 16.24098,2.44447 9.18487,0.0287 18.4265,0.009 20.53697,-0.0414 2.11045,-0.0512 3.95408,0.0947 4.09695,0.32474 0.39514,0.63596 4.25387,0.76268 4.63124,0.15205 z m -9.41139,-36.73956 c 0.45524,-0.45524 0.86978,-0.4442 1.78881,0.0476 0.97386,0.52119 1.39247,0.51768 2.2516,-0.019 0.8594,-0.53671 1.49348,-0.5419 3.41492,-0.0279 1.63233,0.43658 2.5204,0.47023 2.88146,0.10915 0.71257,-0.71257 3.49831,-0.6595 4.23858,0.0809 0.46875,0.46876 0.60269,0.46876 0.60269,0 0,-0.33149 0.56502,-0.6027 1.25563,-0.6027 0.76593,0 1.2556,-0.28595 1.2556,-0.7332 0,-0.61384 -1.65576,-0.75693 -10.17052,-0.87893 -5.59378,-0.0801 -10.56605,-0.0628 -11.04946,0.0383 -1.34674,0.28214 -1.06191,1.57372 0.34704,1.57372 0.67428,0 1.36567,0.22602 1.53639,0.50226 0.40944,0.66249 0.9226,0.63436 1.64726,-0.0904 z m 11.06578,-5.05775 c 0.1494,-0.7818 -0.30795,-0.87893 -4.138,-0.87893 -3.99954,0 -4.30592,0.0729 -4.30592,1.02481 0,0.96045 0.25981,1.01565 4.13798,0.87893 3.4728,-0.12243 4.165,-0.28717 4.30594,-1.02481 z m -0.2824,-3.21888 c 0.20718,-0.12681 0.37669,-1.55998 0.37669,-3.18479 0,-1.62482 -0.16951,-3.05303 -0.37669,-3.17382 -0.20718,-0.12073 -2.12828,-0.37943 -4.2691,-0.57474 l -3.89242,-0.35512 v 3.77478 c 0,3.50917 0.0795,3.79154 1.13005,4.01301 1.20665,0.25438 6.40301,-0.11466 7.03147,-0.49932 z m 3.6413,-3.69391 c 0,-1.78713 -1.4628,-1.63252 -1.66992,0.17654 -0.13193,1.15244 0.0114,1.39147 0.75338,1.24875 0.59414,-0.11446 0.91654,-0.61577 0.91654,-1.42525 z m -3.26461,-8.82046 v -3.76949 l -4.14354,0.14578 -4.14355,0.14579 -0.14844,3.39018 -0.14845,3.39016 h 1.93148 c 1.06233,0 2.14622,0.20409 2.40863,0.4535 0.74021,0.70355 2.39468,0.92259 3.36507,0.44552 0.72062,-0.35427 0.87893,-1.11105 0.87893,-4.20161 z m -10.54722,-0.21314 c 0,-0.55247 -0.21266,-1.0045 -0.47261,-1.0045 -0.67418,0 -1.14924,0.91416 -0.78301,1.50675 0.52491,0.84932 1.25562,0.55704 1.25562,-0.50225 z"
       id="path370"
       inkscape:connector-curvature="0" />
  </g>
</svg>
