<?xml version="1.0" encoding="UTF-8" standalone="no"?>
<!-- Created with Inkscape (http://www.inkscape.org/) -->

<svg
   xmlns:dc="http://purl.org/dc/elements/1.1/"
   xmlns:cc="http://creativecommons.org/ns#"
   xmlns:rdf="http://www.w3.org/1999/02/22-rdf-syntax-ns#"
   xmlns:svg="http://www.w3.org/2000/svg"
   xmlns="http://www.w3.org/2000/svg"
   xmlns:sodipodi="http://sodipodi.sourceforge.net/DTD/sodipodi-0.dtd"
   xmlns:inkscape="http://www.inkscape.org/namespaces/inkscape"
   width="210.00043mm"
   height="460.97064mm"
   viewBox="0 0 210.00043 460.9707"
   version="1.1"
   id="svg8"
   inkscape:version="0.92.3 (2405546, 2018-03-11)"
   sodipodi:docname="black_market.svg">
  <defs
     id="defs2" />
  <sodipodi:namedview
     id="base"
     pagecolor="#ffffff"
     bordercolor="#666666"
     borderopacity="1.0"
     inkscape:pageopacity="0.0"
     inkscape:pageshadow="2"
     inkscape:zoom="1.4"
     inkscape:cx="363.62535"
     inkscape:cy="800.33997"
     inkscape:document-units="mm"
     inkscape:current-layer="layer1"
     showgrid="false"
     fit-margin-top="0"
     fit-margin-left="0"
     fit-margin-right="0"
     fit-margin-bottom="0"
     inkscape:window-width="1920"
     inkscape:window-height="1017"
     inkscape:window-x="-8"
     inkscape:window-y="-8"
     inkscape:window-maximized="1" />
  <metadata
     id="metadata5">
    <rdf:RDF>
      <cc:Work
         rdf:about="">
        <dc:format>image/svg+xml</dc:format>
        <dc:type
           rdf:resource="http://purl.org/dc/dcmitype/StillImage" />
        <dc:title></dc:title>
      </cc:Work>
    </rdf:RDF>
  </metadata>
  <g
     inkscape:label="Layer 1"
     inkscape:groupmode="layer"
     id="layer1"
     transform="translate(-356.47915,945.54695)">
    <path
       style="fill:#000000;stroke-width:0.85381061"
       d="m 518.88379,-485.37048 c -2.5068,-1.00766 -11.32974,-7.5263 -13.20744,-9.75803 -0.80629,-0.95832 -1.71095,-2.97739 -2.01038,-4.48685 -0.61714,-3.11103 -1.43654,-3.94062 -5.0398,-5.10247 -3.26331,-1.05223 -4.08639,-4.62204 -2.56986,-11.14584 1.2322,-5.30083 0.96429,-6.83133 -1.55093,-8.85998 -1.64067,-1.3233 -1.71192,-2.30692 -1.60804,-22.19909 0.11004,-21.06137 -0.7903,-25.05491 -1.90694,-8.4589 -0.33086,4.91717 -0.91214,9.33564 -1.29173,9.81882 -0.86894,1.10603 -2.171,14.83878 -1.94527,20.51618 0.0933,2.34799 -0.33777,6.74414 -0.95806,9.76925 -1.0116,4.93348 -1.38503,5.57775 -3.62447,6.25258 -1.37316,0.41379 -3.26508,1.09156 -4.20427,1.50617 -4.02417,1.77649 -13.51293,3.53259 -16.07346,2.97477 -6.05392,-1.31887 -7.65409,-0.86538 -15.51755,4.39789 -5.76065,3.85578 -8.94892,5.39038 -12.7361,6.13027 -10.36048,2.0241 -25.1677,0.63801 -28.03334,-2.62413 -3.23581,-3.68356 -1.32936,-9.61388 4.64172,-14.43902 3.74551,-3.0267 15.35184,-9.27182 17.23137,-9.27182 0.5677,0 2.38427,-0.68935 4.03682,-1.53186 1.65258,-0.84254 5.2878,-2.0688 8.07828,-2.72501 2.79052,-0.65624 5.31632,-1.54889 5.61291,-1.9837 0.29657,-0.43477 0.58519,-4.49147 0.64131,-9.01488 0.15941,-12.86115 0.9992,-25.98817 1.78227,-27.86199 1.28031,-3.06358 2.78584,-21.02552 3.0236,-36.07347 0.22976,-14.54768 0.2104,-14.72868 -1.59614,-14.76302 -4.07202,-0.0774 -32.71433,0.17975 -34.70058,0.31141 -8.95563,0.59403 -33.02506,-1.81516 -36.74792,-3.6782 -0.72314,-0.36188 -3.41265,-0.91711 -5.97669,-1.23381 -7.65797,-0.94593 -12.94324,-2.47918 -13.36072,-3.87598 -0.21492,-0.71914 -0.74699,-1.9747 -1.18231,-2.79013 -1.05052,-1.96776 -1.01734,-12.03791 0.0432,-13.09836 0.48357,-0.48357 1.03145,-11.41884 1.30258,-25.99853 0.72159,-38.79916 2.22431,-76.28761 3.10125,-77.36601 1.1006,-1.35344 1.01976,-25.98155 -0.0887,-27.09025 -1.07356,-1.07356 -1.20557,-24.14396 -0.14198,-24.80134 0.40621,-0.25106 0.96251,-1.90667 1.23619,-3.6791 0.27365,-1.77243 0.74473,-4.04937 1.04671,-5.05987 0.42952,-1.43724 0.0381,-2.08784 -1.79782,-2.98833 -1.2908,-0.63308 -2.76654,-1.91949 -3.27947,-2.85867 -0.5129,-0.93922 -1.25227,-1.94192 -1.64303,-2.22825 -0.39076,-0.28623 -0.92363,-2.87167 -1.18421,-5.74516 -0.41612,-4.58918 -0.27785,-5.29608 1.13739,-5.81302 0.8861,-0.32363 3.34007,-2.35871 5.45324,-4.52235 2.1132,-2.16364 5.3493,-5.07671 7.1914,-6.47352 1.84207,-1.39681 4.45317,-3.64345 5.80241,-4.99249 2.20297,-2.20269 2.88739,-2.41112 6.7109,-2.04373 4.91111,0.47189 7.91044,2.77225 9.3663,7.18356 0.51965,1.57452 1.33372,2.86277 1.80909,2.86277 0.47534,0 3.84284,-2.68951 7.48335,-5.97666 3.64048,-3.28718 7.06065,-5.9767 7.60036,-5.9767 0.53972,0 1.46119,-0.76841 2.04773,-1.7076 0.58654,-0.93918 1.45428,-1.71215 1.92832,-1.71766 0.47402,-0.006 4.3198,-2.88659 8.54617,-6.40234 4.22637,-3.51578 8.16456,-6.39288 8.75156,-6.39356 0.58699,-6.8e-4 1.06726,-0.30818 1.06726,-0.68351 0,-0.7961 5.02105,-2.73295 7.08488,-2.73295 0.77761,0 2.01694,0.92041 2.75402,2.04534 0.73708,1.12493 2.13976,2.25445 3.11702,2.50999 1.66262,0.43478 1.74391,0.20718 1.26431,-3.5395 -0.48598,-3.79682 -0.449,-3.89363 0.71456,-1.86966 0.67492,1.17402 1.24071,2.95196 1.25736,3.95108 0.0161,0.99908 0.60236,2.29133 1.30158,2.87161 0.6992,0.58031 1.06075,1.39577 0.8034,1.81218 -0.87752,1.41985 -3.60205,0.75957 -9.60259,-2.32715 l -5.9957,-3.08417 -2.92418,2.23037 c -1.6083,1.22671 -3.27215,2.23702 -3.6974,2.24516 -0.42529,0.01 -1.68501,0.97591 -2.79945,2.15066 -2.05118,2.16222 -18.74755,15.47305 -21.38069,17.04531 -0.78645,0.46959 -3.04564,2.45659 -5.02044,4.41554 -3.15007,3.1248 -3.59052,4.02933 -3.59052,7.37324 0,2.09636 -0.48027,4.73214 -1.06727,5.85736 -1.3989,2.68157 -7.75996,8.39507 -9.34658,8.39507 -0.683,0 -2.14422,0.96055 -3.24714,2.13454 -1.10289,1.17398 -2.52413,2.13453 -3.1583,2.13453 -0.63414,0 -1.5182,0.96051 -1.96456,2.13453 -0.44633,1.17398 -1.39736,2.1345 -2.1134,2.1345 -0.716,0 -1.30183,0.38424 -1.30183,0.85383 0,0.46959 0.74253,0.8538 1.65009,0.8538 0.90753,0 1.87243,0.70065 2.14425,1.55696 0.69167,2.17933 -1.87873,6.94432 -4.22779,7.83745 -1.80067,0.68461 -1.9981,1.39432 -2.41896,8.69612 -0.25203,4.37288 -0.46527,11.34933 -0.47382,15.50322 -0.01,4.47208 -0.42142,8.04159 -1.01064,8.75156 -0.71765,0.86474 -0.72788,1.19903 -0.0368,1.19903 1.14026,0 1.32394,7.35756 0.20104,8.05156 -0.41654,0.25751 -1.02838,5.94729 -1.35967,12.6441 -0.37362,7.55292 -1.05861,13.11736 -1.80408,14.65519 -0.87749,1.81016 -1.20177,6.11097 -1.20177,15.9378 0,7.40226 -0.32806,13.58671 -0.72905,13.74325 -0.40095,0.15651 -0.97171,10.37025 -1.26837,22.69714 -0.44871,18.64564 -0.34322,22.41252 0.62765,22.41252 1.33072,0 3.07737,6.02994 3.07737,10.6238 0,1.67045 0.42532,3.03715 0.94515,3.03715 0.51984,0 0.71333,0.60416 0.42997,1.34257 -0.75612,1.97043 0.9771,4.63413 3.01534,4.63413 1.22055,0 1.61676,0.3965 1.27812,1.27902 -0.85257,2.22176 2.94367,3.68785 12.26144,4.7353 4.93076,0.55427 9.74877,1.37057 10.7067,1.81403 0.95794,0.44345 8.82372,0.88061 17.4795,0.97145 l 15.73783,0.16523 0.57372,-3.41524 c 0.99269,-5.90934 -0.76338,-7.66851 -9.85442,-9.87187 -4.26157,-1.03287 -8.11329,-2.21192 -8.55942,-2.62007 -0.4461,-0.40815 -2.21379,-0.74211 -3.92816,-0.74211 -3.69973,0 -8.3359,-1.44286 -10.41586,-3.24159 -1.95201,-1.68808 -1.89292,-5.07313 0.16877,-9.67839 1.18154,-2.63907 1.52208,-4.74291 1.17618,-7.26646 -0.33838,-2.46885 -0.0407,-4.42377 0.97597,-6.41098 0.80456,-1.57249 1.99519,-4.60355 2.64589,-6.73569 1.3787,-4.51774 4.82075,-8.0927 8.54571,-8.8758 3.03005,-0.63698 7.19079,0.67686 7.19547,2.27213 0.002,0.59861 0.78616,2.37265 1.74316,3.94233 l 1.73993,2.85393 2.5259,-3.48691 c 3.48881,-4.81613 3.47658,-9.45088 -0.0355,-13.45094 -1.40878,-1.60453 -2.56144,-3.41804 -2.56144,-4.03004 0,-0.612 1.90723,-3.19208 4.23825,-5.73351 2.33102,-2.54142 4.25209,-5.05274 4.26906,-5.58071 0.0161,-0.52794 -0.54552,-2.59338 -1.24991,-4.58986 -2.69167,-7.62901 -0.85919,-17.68667 5.67804,-31.16408 0.45555,-0.93918 2.38304,-2.43122 4.28329,-3.31564 2.40815,-1.12081 3.83352,-2.5139 4.70416,-4.59764 0.68703,-1.64429 2.01949,-4.03159 2.96106,-5.30509 1.1158,-1.50924 1.61534,-3.30439 1.4346,-5.15543 -0.34736,-3.55731 -1.74755,-4.10042 -3.2644,-1.26614 -0.79007,1.47622 -1.44092,1.89247 -2.03314,1.30029 -0.47908,-0.47912 -3.77188,-0.90937 -7.31732,-0.9562 -11.11737,-0.14682 -10.61219,0.38608 -10.46504,-11.03827 0.0694,-5.38722 -0.16328,-13.63711 -0.51667,-18.33308 -0.83131,-11.04147 -0.45527,-11.4573 10.39817,-11.49803 l 7.57038,-0.029 -0.43422,-2.27161 c -0.771,-4.03311 1.15413,-7.39358 8.72577,-15.23151 4.08277,-4.22637 8.4754,-9.12864 9.76145,-10.8939 2.81466,-3.86359 1.90519,-4.60529 -4.38814,-3.57862 -7.53088,1.22856 -11.89724,-0.54468 -10.92081,-4.43509 0.263,-1.04835 0.0929,-2.14444 -0.37856,-2.43571 -0.4713,-0.29139 -0.85693,-0.17296 -0.85693,0.263 0,0.43588 -1.30326,1.00399 -2.8961,1.26247 -1.59285,0.25848 -5.05081,1.46141 -7.6843,2.67315 -7.86981,3.62112 -13.62285,6.3723 -15.88772,7.59778 -2.80658,1.51856 -10.87237,5.26872 -14.01812,6.51764 -4.35154,1.72767 -1.1432,-1.06482 4.39321,-3.82374 2.71094,-1.35092 6.35522,-3.3807 8.09848,-4.51067 4.04792,-2.62381 7.60904,-4.61593 13.45352,-7.52598 2.56834,-1.27882 6.98682,-3.76994 9.81883,-5.53582 2.83202,-1.76588 6.20933,-3.47067 7.50516,-3.78843 1.29581,-0.31786 2.56718,-0.91941 2.82528,-1.33698 0.25816,-0.41758 1.21496,-0.75922 2.12646,-0.75922 0.91147,0 1.65723,-0.3367 1.65723,-0.74824 0,-0.41154 4.01206,-2.71765 8.91575,-5.1247 4.90365,-2.40702 9.12095,-4.70849 9.37179,-5.11432 0.25073,-0.40582 -0.28075,-1.40445 -1.18086,-2.2192 -1.06885,-0.96733 -1.82403,-3.15488 -2.17629,-6.30424 -0.77809,-6.9568 -0.89985,-7.20275 -2.93638,-5.93087 -1.33313,0.83256 -1.931,0.83989 -2.73733,0.0336 -1.31145,-1.31148 -1.28112,-1.33198 4.83117,-3.27428 4.60735,-1.4642 5.11987,-1.8594 5.09292,-3.9282 -0.0226,-1.8236 0.20653,-2.1041 1.11044,-1.3538 0.6272,0.5206 1.0249,1.938 0.88375,3.15 -0.19685,1.6899 -0.84325,2.3042 -2.77345,2.6352 -2.30514,0.3953 -2.52448,0.7367 -2.60783,4.05959 -0.0855,3.40232 0.0536,3.62805 2.23418,3.62805 1.27886,0 3.50162,-0.67238 4.93947,-1.49417 3.21845,-1.83948 5.49807,-0.77422 5.9168,2.76493 0.25236,2.13192 0.0746,2.31941 -1.70763,1.80357 -1.09401,-0.31657 -3.57203,-0.77338 -5.50674,-1.01505 -2.99224,-0.37379 -3.58375,-0.18652 -3.96018,1.25288 -0.28236,1.07985 0.26946,2.36107 1.52431,3.54008 1.08178,1.01628 2.19881,2.7719 2.4823,3.90135 0.50725,2.0211 1.89706,2.49918 6.03265,2.07509 1.86063,-0.19071 7.4243,-2.57918 8.1112,-3.482 0.23492,-0.3085 1.82125,-1.01547 3.52543,-1.5708 1.70421,-0.55534 3.79863,-1.78328 4.6543,-2.72875 1.51005,-1.66862 1.49553,-1.82942 -0.49544,-5.47403 -1.97111,-3.6083 -1.99209,-3.82028 -0.53697,-5.42814 0.83282,-0.9203 2.73514,-2.1668 4.22737,-2.77 2.88387,-1.1658 3.95963,-2.2383 3.98083,-3.9686 0.0161,-1.2681 -3.07094,-1.4402 -3.8291,-0.2133 -0.91659,1.4831 -4.36719,0.926 -6.05779,-0.9781 -1.61472,-1.8186 -1.61298,-1.8248 0.23848,-0.8538 1.02573,0.5379 2.01846,0.9781 2.20607,0.9781 0.18749,0 1.74972,-2.0453 3.47135,-4.545 3.1704,-4.6033 4.02956,-8.9335 2.31147,-11.6501 -0.66331,-1.0487 -1.07924,-0.9229 -2.54836,0.771 -2.13479,2.4614 -2.18081,3.2934 -0.29753,5.3745 1.54612,1.7084 0.85774,4.0124 -1.4263,4.7737 -0.83331,0.2779 -0.97711,-0.2207 -0.55205,-1.9143 0.41525,-1.6545 0.0842,-2.9136 -1.19347,-4.5378 -1.29867,-1.6509 -1.62176,-2.9146 -1.21674,-4.7587 0.38014,-1.7308 0.25784,-2.3294 -0.39366,-1.9267 -0.51981,0.3214 -0.94509,1.9144 -0.94509,3.5404 0,2.3261 -0.45575,3.1639 -2.13815,3.9304 -1.17598,0.5358 -2.3741,0.7382 -2.6625,0.4498 -0.28849,-0.2885 -0.62759,-2.866 -0.75376,-5.7281 -0.15554,-3.5251 -0.71636,-5.7418 -1.7389,-6.8717 -1.56258,-1.7266 -4.33493,-2.3603 -3.34934,-0.7656 0.30689,0.4963 0.33099,1.8055 0.0539,2.9093 -0.36417,1.4511 -0.95103,1.89 -2.11853,1.5847 -0.88816,-0.2323 -1.87298,0 -2.18848,0.5059 -0.35313,0.5714 0.22621,0.9282 1.50672,0.9282 2.43054,0 4.1798,1.7381 3.25514,3.2343 -1.24789,2.019 -6.44332,5.3038 -8.38898,5.3038 -2.49563,0 -2.58773,-1.4977 -0.11456,-1.8617 2.12934,-0.3133 2.71823,-1.4569 1.63335,-3.1721 -0.50619,-0.8003 -1.27283,-0.9578 -2.33409,-0.4795 -0.86919,0.3917 -2.33519,0.7358 -3.25775,0.7647 -0.92257,0.029 -2.15529,1.0067 -2.73934,2.1727 -0.58406,1.166 -1.62409,2.531 -2.31118,3.0334 -0.68712,0.5025 -1.85404,3.2473 -2.59318,6.0997 -0.73912,2.8524 -1.91955,6.2901 -2.62317,7.6392 l -1.27928,2.4529 -0.006,-2.7748 c -0.003,-1.5262 -0.33183,-2.7749 -0.73098,-2.7749 -0.39915,0 -2.31689,1.1526 -4.26164,2.5614 -1.94479,1.4088 -3.92352,2.5614 -4.39718,2.5614 -0.47366,0 -0.87397,0.2882 -0.88962,0.6404 -0.0161,0.35217 -0.79939,1.56633 -1.74171,2.6981 -1.23975,1.489 -1.97131,1.7997 -2.64681,1.12419 -0.67551,-0.67551 -0.253,-1.53179 1.52824,-3.09802 1.35398,-1.19047 2.73156,-2.17667 3.06126,-2.19147 1.24201,-0.056 11.62104,-7.771 12.0867,-8.9845 0.26752,-0.6971 0.74179,-3.1932 1.054,-5.5468 0.5757,-4.3397 -0.18071,-5.4485 -2.12146,-3.1099 -1.27838,1.5401 -11.42132,6.5147 -13.28346,6.5147 -0.8003,0 -2.57815,-1.1231 -3.95082,-2.4958 -1.85685,-1.8568 -2.49576,-3.3024 -2.49576,-5.6469 0,-3.1598 2.9094,-9.6175 4.90939,-10.897 0.58703,-0.3755 1.06727,-1.0887 1.06727,-1.5848 0,-0.4961 1.09602,-2.302 2.43555,-4.0132 2.20985,-2.8228 2.39934,-3.5894 2.04469,-8.2709 -0.43591,-5.7541 1.42682,-11.0261 4.48479,-12.6932 0.93918,-0.512 2.01487,-1.4111 2.3904,-1.9981 0.37552,-0.5871 1.08824,-1.0673 1.58381,-1.0673 0.49554,0 2.68289,-1.2026 4.8608,-2.6724 2.1779,-1.4699 5.46628,-3.204 7.30751,-3.8536 1.84123,-0.6497 3.76507,-1.5057 4.27522,-1.9025 0.51013,-0.3967 3.61702,-1.6055 6.9042,-2.6863 3.28716,-1.0808 6.90401,-2.384 8.03746,-2.896 1.56426,-0.7066 2.14712,-0.6738 2.41912,0.1365 0.19717,0.587 1.21461,1.0673 2.26116,1.0673 1.92245,0 4.71229,3.0058 7.49277,8.0727 1.30468,2.3776 1.47597,2.4538 2.00297,0.8923 0.84932,-2.5166 1.11619,-3.0851 3.20622,-6.8305 1.61811,-2.8997 2.38172,-3.4548 5.05868,-3.6775 2.79274,-0.2323 3.31267,0.047 4.55188,2.4432 2.17409,4.2043 1.42381,13.8026 -1.26444,16.176 -0.26591,0.2349 -1.20703,1.8071 -2.09123,3.4941 l -1.60769,3.0672 2.8711,4.3856 c 1.66887,2.5492 3.84394,4.7248 5.19434,5.1955 4.31727,1.5051 7.20186,6.8189 8.28455,15.2612 0.53326,4.1582 0.96958,10.1278 0.96958,13.2658 v 5.7054 l 3.6287,0.1126 c 13.32803,0.4138 15.54369,0.7252 19.92821,2.8012 3.43134,1.6247 5.04064,3.0365 6.5096,5.71069 1.07327,1.95388 2.44291,4.44241 3.04361,5.53004 0.60074,1.08766 1.51385,5.35976 2.02921,9.49355 0.51532,4.13375 1.2725,7.88094 1.68265,8.32708 1.08256,1.17753 0.94319,24.69107 -0.15296,25.78712 -0.52955,0.52958 -1.22548,9.20347 -1.69469,21.12262 l -0.79617,20.22406 -3.23839,6.58354 c -3.34569,6.80171 -3.25591,6.72203 -12.15601,10.78825 -1.25718,0.57437 -2.25425,1.84081 -2.42583,3.0812 -0.16006,1.1583 -0.90063,2.78774 -1.64536,3.62102 -1.23729,1.38435 -1.2259,2.08383 0.13199,8.11119 0.8173,3.62789 1.80822,7.3646 2.20204,8.30382 0.73037,1.74174 1.78208,7.96833 3.53327,20.91835 0.53978,3.99154 1.26993,7.6416 1.62254,8.11119 0.35265,0.4696 0.89575,5.27228 1.2069,10.67263 0.31108,5.40035 0.78839,12.89255 1.06052,16.64932 0.74879,10.33805 1.77627,67.4324 1.474,81.9085 l -0.26623,12.74985 -2.37962,1.934 c -1.30878,1.06369 -3.50323,2.19133 -4.87655,2.50583 -1.37328,0.31464 -3.67859,1.2354 -5.12286,2.04644 l -2.62594,1.47458 v 22.97192 c 0,12.63454 -0.32609,24.38692 -0.72462,26.1164 -0.55279,2.39882 -1.4133,3.47128 -3.6287,4.52254 -1.59724,0.75796 -2.90408,1.79518 -2.90408,2.30499 0,0.5098 2.51084,3.22761 5.57962,6.03959 6.08196,5.57299 9.3573,10.96605 8.08218,13.30789 -0.42454,0.77971 -1.3747,2.78283 -2.11149,4.45135 -1.71676,3.88786 -8.60922,10.94302 -12.16324,12.45035 -3.08053,1.30655 -9.91464,1.45854 -12.83301,0.28527 z m 7.65645,-37.61111 c 6.94253,-3.37551 7.92806,-4.04469 8.9556,-6.08099 1.27205,-2.52081 1.64961,-17.9763 0.69974,-28.64231 -0.65408,-7.34459 -0.8344,-7.89776 -2.57447,-7.89776 -1.17905,0 -2.23947,-0.80856 -2.86719,-2.1862 l -0.99611,-2.18622 -3.53114,1.97276 -3.53118,1.97276 0.42667,20.91835 c 0.25171,12.34192 0.16942,17.24274 -0.20104,11.95336 -0.34529,-4.93076 -0.67486,-14.39629 -0.7324,-21.03452 l -0.10455,-12.06953 -3.08718,-1.46497 c -1.88124,-0.89271 -4.04908,-1.27256 -5.54976,-0.97242 -1.36718,0.27333 -2.46259,0.1223 -2.46259,-0.33993 0,-0.45788 -0.57631,-0.83247 -1.2807,-0.83247 -0.85383,0 -1.28073,0.8538 -1.28073,2.56143 0,1.40878 -0.38421,2.56143 -0.8538,2.56143 -0.46959,0 -0.85383,-1.34475 -0.85383,-2.98833 0,-2.08709 -0.38624,-2.98836 -1.2807,-2.98836 -0.84809,0 -1.28073,0.84821 -1.28073,2.51105 0,1.38106 -0.38421,2.74851 -0.8538,3.03874 -0.51565,0.31851 -0.8538,-0.84496 -0.8538,-2.93796 0,-1.90609 -0.38424,-3.46563 -0.85384,-3.46563 -0.46959,0 -0.8538,0.90149 -0.8538,2.00335 0,1.10183 -0.67237,3.31106 -1.49416,4.9094 -1.24356,2.41863 -1.5215,5.55541 -1.65713,18.70156 -0.0897,8.68754 -0.28172,16.74713 -0.4269,17.91024 -0.2246,1.7998 0.24461,2.27843 3.1513,3.21364 1.87837,0.60439 4.18367,1.46422 5.12286,1.91074 4.64746,2.20956 16.51498,2.18078 21.10552,-0.0513 z m -48.89013,-2.69151 c 3.16472,-0.96894 5.93778,-3.66591 5.98402,-5.8198 0.0161,-0.72788 0.36437,-1.68843 0.77497,-2.13453 1.06968,-1.16217 2.05595,-25.74876 1.05768,-26.36573 -0.45146,-0.27913 -0.60977,-2.9458 -0.35878,-6.04278 0.37085,-4.57505 0.22396,-5.54337 -0.84115,-5.54337 -0.94199,0 -1.45105,1.3837 -1.88521,5.12438 -0.86942,7.49109 -2.4199,7.61849 -1.99871,0.16425 0.4269,-7.55486 -1.33081,-7.01469 -2.20094,0.67638 -0.53749,4.75082 -2.20375,8.10084 -2.20375,4.43064 0,-0.95948 -0.74544,-1.85336 -1.76879,-2.12098 -1.59081,-0.41599 -1.74829,-1.02728 -1.56525,-6.07618 0.26171,-7.22161 -0.65579,-8.18587 -1.41385,-1.48571 -0.35661,3.15194 -1.04187,5.33707 -1.76017,5.61272 -0.91814,0.35232 -1.17624,-0.66686 -1.17624,-4.64472 0,-2.82814 0.37998,-5.09605 0.85383,-5.09605 0.50597,0 0.8538,-3.13064 0.8538,-7.68429 0,-6.89794 -0.80533,-9.56777 -1.99596,-6.61703 -0.6049,1.49907 -0.4703,-9.19853 0.24977,-19.85112 l 0.606,-8.96499 0.14328,10.03226 c 0.0787,5.51775 0.46114,10.03229 0.84973,10.03229 0.86742,0 3.83752,-46.25499 3.42653,-53.36316 -0.21847,-3.77795 -0.4666,-2.20885 -0.94513,5.97666 -0.74008,12.65897 -1.45176,16.79741 -2.97448,17.29598 -0.8227,0.26945 -1.06727,-2.66028 -1.06727,-12.78502 0,-7.22393 0.34568,-13.49945 0.76815,-13.94555 1.2141,-1.28205 2.1913,-20.66548 0.98359,-19.51073 -0.53955,0.51593 -1.3401,4.7423 -1.77901,9.39192 -1.34766,14.27693 -2.72965,24.63457 -3.40636,25.53006 -0.35484,0.46963 -0.9195,3.26953 -1.25475,6.22205 -0.49718,4.37871 -0.82259,5.1914 -1.76533,4.40898 -1.77062,-1.46948 -2.93818,-0.18458 -2.93818,3.23317 0,3.41858 -1.66665,8.76179 -2.73298,8.76179 -0.37524,0 -0.68229,3.65006 -0.68229,8.11119 0,4.46117 -0.30172,8.11123 -0.67083,8.11123 -0.36897,0 -0.68809,0.67238 -0.70913,1.49416 -0.0226,0.82179 -0.31851,12.25218 -0.66112,25.40085 -0.4571,17.54462 -0.37013,23.65624 0.32683,22.9656 0.52229,-0.51761 1.46271,-4.93609 2.08975,-9.81883 0.62703,-4.88274 1.1833,-7.50361 1.23613,-5.82422 0.14973,4.76115 -1.5944,21.51341 -2.43774,23.41463 -0.41661,0.93919 -0.92721,4.22576 -1.13465,7.30348 -0.20749,3.07775 -0.89317,6.42215 -1.52385,7.43204 -0.63069,1.00986 -0.92615,2.05669 -0.65657,2.32625 2.02208,2.0221 19.95135,2.18687 26.30451,0.2417 z m -19.45271,-68.69526 c -0.082,-3.37686 0.17749,-6.3417 0.57705,-6.58856 0.39941,-0.24687 1.00092,-4.39983 1.33666,-9.22884 0.33577,-4.82904 0.95548,-10.31691 1.37715,-12.19529 0.67535,-3.0083 0.72169,-2.80484 0.38886,1.70764 -0.20782,2.81756 -0.62875,9.15709 -0.93548,14.08785 -0.30656,4.93076 -0.86467,9.35679 -1.23991,9.83558 -0.37527,0.47882 -0.83369,2.59199 -1.01873,4.69596 -0.24525,2.7879 -0.37688,2.16025 -0.4856,-2.31434 z m 18.37254,21.31111 c -0.21653,-0.83072 -0.40783,-0.35774 -0.42525,1.05104 -0.0161,1.40878 0.15973,2.08848 0.39359,1.51039 0.23396,-0.57805 0.24816,-1.73067 0.0323,-2.56143 z m 59.17506,2.33174 c 0,-0.4696 -0.38424,-0.8538 -0.85384,-0.8538 -0.46959,0 -0.8538,0.3842 -0.8538,0.8538 0,0.46959 0.38421,0.85383 0.8538,0.85383 0.4696,0 0.85384,-0.38424 0.85384,-0.85383 z m -16.60663,-7.63147 c 0.44613,-0.44052 2.348,-0.9855 4.22637,-1.211 5.51917,-0.6626 11.4026,-2.35978 12.41685,-3.58187 0.51813,-0.62433 1.51095,-0.91683 2.20627,-0.64998 1.214,0.46584 5.19595,-0.88756 11.30628,-3.84285 l 2.87655,-1.39122 -0.34384,-42.97716 c -0.23654,-29.5692 -0.6324,-43.16165 -1.26882,-43.56857 -0.57573,-0.36814 -1.09944,-6.23318 -1.38703,-15.53317 -0.47879,-15.4825 -2.59487,-35.17821 -4.05883,-37.77791 -0.46178,-0.82008 -1.58,-5.23855 -2.48498,-9.81883 -1.7491,-8.85279 -3.19364,-12.7209 -5.01521,-13.42939 -2.85919,-1.11205 -11.97689,5.70415 -14.48191,10.82646 -4.04698,8.27519 -4.4613,9.88676 -4.4613,17.35355 v 7.45182 l 4.13189,-0.54814 c 2.27255,-0.3014 5.63441,-1.26637 7.47086,-2.14427 1.83642,-0.87788 4.54091,-1.85366 6.00996,-2.16832 2.34478,-0.50232 2.73531,-0.31625 3.19712,1.52395 0.28947,1.15288 0.28688,3.29219 -0.006,4.75398 -0.45827,2.29134 -1.38232,3.06152 -6.70148,5.58572 -3.39345,1.6103 -7.15813,3.17588 -8.36597,3.47903 -3.44498,0.86464 -5.35027,3.43052 -4.26377,5.74218 1.89012,4.02159 2.88814,17.92286 2.71594,37.83023 l -0.17684,20.43407 -2.43306,4.37298 c -1.33853,2.40515 -2.43338,4.92669 -2.43338,5.60349 0,0.67677 -1.08231,2.26735 -2.40509,3.53466 -1.96185,1.8796 -2.90588,2.20404 -5.12286,1.76065 -1.49478,-0.29882 -2.71778,-0.87974 -2.71778,-1.29064 0,-0.41089 -0.44084,-0.74708 -0.97962,-0.74708 -0.53878,0 -3.18185,-0.803 -5.8735,-1.7844 -5.17017,-1.88515 -7.82734,-4.84631 -6.22585,-6.93805 0.46169,-0.603 1.32417,-2.44113 1.91665,-4.08471 1.79476,-4.9789 6.4267,-14.47829 7.06884,-14.49713 0.81775,-0.0226 -1.20332,5.44307 -3.94785,10.67901 -1.23765,2.3612 -2.47101,5.65335 -2.74082,7.3159 -0.57453,3.54044 0.74037,4.70219 7.95423,7.02767 7.38609,2.38101 7.89196,1.571 1.12029,-1.7938 -4.95977,-2.46449 -6.46856,-3.64138 -6.69173,-5.21986 -0.15845,-1.12087 0.0377,-2.27352 0.43587,-2.56143 0.39821,-0.28785 1.6792,-2.63666 2.84666,-5.21942 2.96274,-6.55455 3.41494,-6.92647 6.91763,-5.68965 1.59233,0.56227 4.14385,1.65877 5.67003,2.43671 2.23589,1.13971 2.7749,1.18663 2.7749,0.2417 0,-0.64508 -0.67238,-1.58146 -1.49417,-2.08084 -1.22606,-0.74501 -1.08956,-0.81685 0.76067,-0.40014 1.38655,0.31237 2.51083,0.0936 2.91969,-0.56799 0.97294,-1.57423 0.66586,-30.55459 -0.33661,-31.76698 -0.78919,-0.95451 -1.9088,-10.77815 -3.19066,-27.99581 -0.71756,-9.63798 0.88901,-21.93282 3.56106,-27.25279 1.12697,-2.24377 2.04905,-4.37175 2.04905,-4.72882 0,-0.35706 0.96055,-1.90854 2.13453,-3.44772 2.71278,-3.55661 2.68086,-4.07467 -0.2133,-3.46761 -1.29142,0.27075 -3.59495,0.74205 -5.11903,1.04707 -2.89646,0.57966 -7.9016,5.42481 -7.9016,7.64899 0,0.68806 -0.29914,1.25101 -0.66457,1.25101 -0.66841,0 -3.09308,7.41365 -4.12462,12.61147 -0.30495,1.53596 -0.88881,2.99943 -1.29777,3.25217 -1.02302,0.6323 -0.94093,3.77401 0.0987,3.77401 0.46481,0 0.8082,2.19972 0.76638,4.9094 -0.0416,2.70019 0.32141,7.4068 0.80713,10.45919 0.48563,3.05236 1.33408,8.62348 1.88544,12.38026 0.5514,3.75674 1.44212,7.76 1.97938,8.8961 0.95719,2.024 1.26418,29.52266 0.3399,30.44694 -0.23267,0.23267 -1.45205,-0.0458 -2.70974,-0.61881 -1.88477,-0.85877 -2.05425,-1.17198 -0.96417,-1.78201 1.07056,-0.59913 1.32417,-2.56218 1.33108,-10.30307 0.01,-9.5356 -2.3277,-28.0912 -3.60472,-28.6314 -0.37008,-0.15651 -0.67287,-1.20142 -0.67287,-2.32199 0,-1.90242 -2.60457,-7.4739 -4.34951,-9.30406 -1.28034,-1.34291 -0.90992,-6.44745 0.50738,-6.99133 1.01322,-0.38879 1.2807,-2.17438 1.2807,-8.54926 0,-4.61419 0.59503,-10.42656 1.39226,-13.60042 0.76573,-3.04838 1.15852,-5.77626 0.87284,-6.06195 -0.63266,-0.63265 -7.85801,1.96618 -10.80319,3.88573 -1.17399,0.76515 -2.90295,1.59891 -3.84213,1.85278 -1.41133,0.3815 -1.73929,1.27047 -1.89006,5.12287 -0.54472,13.91921 -2.2276,35.45534 -2.79949,35.82535 -0.87835,0.56827 -2.56962,45.32112 -2.56866,67.96911 8.4e-4,18.96457 -1.35453,40.22986 -2.66743,41.851 -1.88922,2.3328 6.17186,4.93903 18.26295,5.90458 4.11594,0.3287 7.69258,0.93592 7.94813,1.34937 0.62339,1.00866 12.61315,0.96539 13.6406,-0.0491 z m 23.98732,-22.02373 c -0.78796,-1.51808 -1.67055,-4.49576 -1.9613,-6.61703 -0.29075,-2.12127 -0.86064,-3.85685 -1.26641,-3.85685 -0.40576,0 -0.73775,-5.57112 -0.73775,-12.38025 0,-6.80914 0.32896,-12.38026 0.73104,-12.38026 0.40209,0 0.99253,-3.16979 1.31207,-7.04393 0.73998,-8.97139 3.00104,-24.45573 3.89605,-26.68158 2.49986,-6.21685 2.6414,-6.09152 2.2417,1.98525 -0.21653,4.37904 -0.76244,8.4133 -1.21274,8.96499 -2.2719,2.78345 -3.56696,41.18798 -1.77778,52.71957 1.11486,7.18547 0.69658,8.99197 -1.22488,5.29009 z m -87.05566,-20.87969 c -0.27268,-0.68113 -0.47485,-0.47883 -0.51583,0.51583 -0.0371,0.90004 0.16457,1.40433 0.44845,1.12064 0.28366,-0.28365 0.31399,-1.02015 0.0675,-1.63647 z m 56.51698,-13.18433 c 0.56256,-1.23465 0.9124,-2.32086 0.77742,-2.41377 -1.3608,-0.93657 -8.62078,-3.87947 -9.57048,-3.87947 -1.37864,0 -2.602,2.93009 -1.77921,4.26142 0.29269,0.47379 1.18212,0.86348 1.97618,0.86593 0.7941,0.003 2.59645,0.74283 4.00523,1.64522 3.34998,2.14583 3.39703,2.14089 4.59086,-0.47933 z m -0.50132,-8.00087 c -0.48798,-1.86601 0.56973,-2.25657 2.06419,-0.76212 0.69141,0.69142 1.20602,0.45859 1.91519,-0.86648 0.7515,-1.4042 0.72127,-1.88676 -0.13424,-2.14428 -0.60723,-0.18265 -1.8725,-0.61464 -2.81169,-0.95971 -3.29761,-1.21148 -4.67276,-0.93483 -6.89794,1.38774 l -2.24499,2.34329 2.43693,1.32042 c 3.61421,1.95831 6.22973,1.81129 5.67268,-0.31883 z m 8.54542,-2.58938 c 0.28301,-1.08233 0.0129,-1.67965 -0.76154,-1.67965 -0.66043,0 -1.20602,0.28817 -1.21244,0.64033 -0.006,0.3522 -0.26526,1.60092 -0.57499,2.7749 -0.49115,1.86111 -0.39211,1.99422 0.77322,1.03929 0.73508,-0.60238 1.53415,-1.85107 1.77575,-2.77487 z m -116.28176,-13.53513 c 1.70427,-1.38009 1.82471,-1.80648 0.84383,-2.98837 -1.55835,-1.87772 -2.04147,-1.74045 -3.28299,0.93287 -1.89164,4.07312 -0.9904,4.83256 2.43916,2.0555 z m 5.95223,-7.20312 c -1.0984,-1.09841 -1.28883,1.79709 -0.2801,4.26051 0.52558,1.2837 0.69058,1.12452 0.92057,-0.88797 0.15425,-1.3486 -0.13393,-2.86625 -0.64037,-3.37254 z m 55.43093,1.98238 c 0,-1.87837 -0.38421,-3.41523 -0.8538,-3.41523 -0.46959,0 -0.8538,1.53686 -0.8538,3.41523 0,1.87837 0.38421,3.41523 0.8538,3.41523 0.46959,0 0.8538,-1.53686 0.8538,-3.41523 z m -57.73891,-5.22113 c 1.44702,-3.13596 1.47351,-3.59681 0.27559,-4.79487 -1.19809,-1.19805 -1.45451,-1.0166 -2.66819,1.88812 -2.72178,6.51412 -0.51106,9.19976 2.39273,2.90675 z m 7.85265,2.38005 c 0.67383,-1.75598 -1.14468,-5.69701 -2.62875,-5.69701 -1.8299,0 -2.36507,1.82893 -1.33101,4.54871 0.91321,2.40195 3.22177,3.07143 3.95976,1.1483 z m 59.27819,-2.75909 c 0,-1.14626 -0.38421,-2.08413 -0.8538,-2.08413 -0.4696,0 -0.85383,1.17531 -0.85383,2.61184 0,1.52379 0.35568,2.39198 0.85383,2.08413 0.46959,-0.29011 0.8538,-1.46554 0.8538,-2.61184 z m 0.3156,-6.56662 c 0.89991,-3.35802 0.63852,-4.89433 -0.74257,-4.36436 -0.79022,0.30334 -1.28073,1.60098 -1.28073,3.38845 0,3.27808 1.24537,3.87876 2.0233,0.97591 z m -44.87635,-31.16408 c -0.34658,-1.7997 -1.86188,-1.68624 -2.24806,0.16845 -0.16102,0.77351 0.30947,1.32581 1.12987,1.32581 0.87939,0 1.29816,-0.55959 1.11819,-1.49416 z m 10.76895,-2.97368 c 2.22731,-2.54617 3.90835,-5.31713 3.90835,-6.44239 0,-2.42105 -3.57696,-6.16599 -5.88943,-6.16599 -1.90125,0 -4.35629,2.99411 -4.35629,5.31284 0,0.8347 -0.33361,1.51766 -0.74137,1.51766 -0.92651,0 -1.81322,6.24521 -1.21277,8.54142 0.82078,3.13867 4.07808,2.05301 8.29151,-2.76354 z m 84.81852,1.15885 c 0.81539,-0.41116 3.66338,-1.42443 6.32882,-2.25174 4.96758,-1.54183 6.53929,-3.54128 5.30735,-6.75169 -0.62413,-1.62647 -0.37475,-1.61566 -3.40539,-0.1478 -1.36353,0.66037 -4.59234,1.46535 -7.17514,1.78886 -5.38454,0.67444 -8.53809,2.35264 -8.53809,4.54368 0,3.13377 3.92516,4.61241 7.48245,2.81875 z m -94.75232,-12.17632 c -0.2133,-0.63946 -0.60019,-0.25235 -0.90211,0.90208 -0.37139,1.4202 -0.26009,1.75355 0.37333,1.11996 0.49616,-0.49615 0.73408,-1.40607 0.52878,-2.02204 z m -65.82748,-15.03843 c -0.21492,-0.82179 -0.39047,-0.14941 -0.39047,1.49417 0,1.6436 0.17555,2.31598 0.39047,1.49416 0.21491,-0.82179 0.21491,-2.16654 0,-2.98833 z m 112.54134,-1.92107 c 0.29011,-0.46959 0.26494,-1.27905 -0.0565,-1.79876 -0.57386,-0.92854 -2.03414,0.49435 -2.06512,2.01223 -0.0194,0.93589 1.50595,0.78245 2.12147,-0.21331 z m 18.3467,-5.90728 c 0.44978,-1.62892 0.73214,-2.99598 0.62745,-3.03786 -0.10455,-0.042 -0.86264,-0.59077 -1.68439,-1.21975 -1.32872,-1.01702 -1.62328,-0.82488 -2.66125,1.73577 -0.64194,1.58366 -1.40923,3.90213 -1.70511,5.1522 -0.52536,2.21966 -0.47779,2.25012 2.03378,1.3021 1.85808,-0.70133 2.79868,-1.7926 3.38952,-3.93246 z m 3.44308,-1.76614 c -1.58991,-0.98262 -2.0892,-0.4833 -1.3758,1.3758 0.43813,1.14175 0.78555,1.23514 1.59249,0.42816 0.80698,-0.80697 0.7597,-1.20051 -0.21653,-1.80396 z m -32.69355,-0.30721 c 8.97564,-1.88095 10.42476,-4.63933 8.97442,-17.08241 -0.63234,-5.42501 -1.27464,-7.5974 -2.65421,-8.97697 -1.00102,-1.00098 -2.19085,-1.82 -2.64411,-1.82 -0.45326,0 -2.20194,-1.20977 -3.88599,-2.68835 -2.30543,-2.0242 -3.30415,-2.44609 -4.04262,-1.70763 -0.53939,0.5394 -1.44573,0.98075 -2.01407,0.98075 -0.56831,0 -2.65295,1.05659 -4.63249,2.34797 l -3.59917,2.348 5.87053,0.44823 c 5.6972,0.43503 5.77201,0.47011 2.5332,1.18773 -5.10993,1.13219 -23.27507,-0.13812 -26.9128,-1.88212 l -3.04848,-1.46148 2.46878,-0.28171 c 1.401,-0.16006 2.77045,0.2062 3.16624,0.8467 0.56492,0.91401 0.90414,0.92179 1.78501,0.041 1.36396,-1.36396 1.00663,-12.96309 -0.4439,-14.40965 -0.54972,-0.54817 -3.59291,-1.26531 -6.7627,-1.59363 l -5.7632,-0.59693 v 7.28702 c 0,7.88163 0.44446,9.98812 2.10746,9.98812 1.35069,0 0.65528,4.18971 -0.96423,5.80921 -0.698,0.69803 -1.14323,3.11464 -1.14323,6.20517 v 5.06187 h 5.90683 c 8.06683,0 8.38601,-0.18362 7.80757,-4.48811 -0.35691,-2.65586 -1.0289,-3.87005 -2.61487,-4.72478 -1.94785,-1.04975 -1.72383,-1.10773 2.56143,-0.66292 2.58276,0.26816 7.86572,0.73291 11.73989,1.03293 7.06939,0.54746 9.83774,2.00419 3.84217,2.02181 -5.0358,0.0161 -9.60601,0.97817 -9.59872,2.02336 0.01,1.59917 4.33754,3.08362 9.34201,3.20548 l 4.7392,0.11552 -5.80324,0.9519 c -5.32687,0.87375 -5.71237,1.07566 -4.69596,2.45978 0.7019,0.95587 3.13122,1.83362 6.63545,2.39754 5.94317,0.95638 7.64244,1.64431 4.06163,1.64431 -2.9225,0 -6.60147,1.43105 -6.60147,2.56783 0,2.4571 6.30391,3.07713 14.28364,1.40487 z m -35.78899,-20.77833 c 0.61636,-0.24654 1.35276,-0.21621 1.63648,0.0674 0.28365,0.28366 -0.2204,0.48551 -1.12064,0.44843 -0.99463,-0.041 -1.19696,-0.24332 -0.51584,-0.51584 z m 51.28385,19.18323 c 0.30657,0.48789 1.97812,0.61051 3.94704,0.28946 l 3.41523,-0.55672 0.24816,-6.54104 c 0.23718,-6.25331 0.16232,-6.55319 -1.70763,-6.81839 -1.43979,-0.20427 -2.03021,-0.9288 -2.23767,-2.74618 -0.1549,-1.35782 0.14877,-2.73488 0.67499,-3.06013 0.70197,-0.43384 0.67493,-1.70921 -0.10165,-4.78861 -1.59733,-6.3348 -2.74727,-7.30735 -8.28829,-7.00979 -2.78852,0.14974 -4.81765,0.68184 -5.02763,1.31836 -0.19362,0.58699 0.25106,1.06727 0.98836,1.06727 1.57523,0 3.92474,5.14355 3.92474,8.59198 0,1.32372 0.38424,2.64424 0.85384,2.93448 1.27421,0.78751 1.08727,16.06078 -0.21331,17.43683 -0.88262,0.93377 -0.71614,0.94806 0.96239,0.0826 1.30326,-0.67193 2.21998,-0.7436 2.56143,-0.20008 z m -115.02207,-20.04632 c 0.66592,-0.8024 0.65927,-1.43579 -0.0226,-2.25868 -1.15375,-1.39016 -1.47303,-15.07267 -0.36927,-15.82411 0.43258,-0.29463 0.8751,-3.20483 0.98343,-6.46743 0.10843,-3.26259 0.56179,-6.37168 1.00776,-6.90904 0.88413,-1.06529 0.25267,-2.10064 -1.28122,-2.10064 -2.54152,0 -4.42709,28.06706 -2.66721,39.7022 0.21298,1.40878 0.49431,4.6746 0.62494,7.2574 0.14199,2.80629 0.35065,1.27947 0.51865,-3.79434 0.15457,-4.66967 0.69758,-8.99207 1.20657,-9.60536 z m 130.93731,13.883 c 1.60176,-2.10003 2.15916,-3.73525 1.9645,-5.76322 -0.24396,-2.54185 -0.5734,-2.85997 -3.22238,-3.11196 -3.69101,-0.35107 -5.16056,1.42866 -5.16056,6.24976 0,6.07725 2.88539,7.25749 6.41844,2.62542 z m 19.19588,-2.55927 c 2.11317,-0.66201 5.4565,-2.00261 7.42959,-2.9791 1.97312,-0.97649 3.99628,-1.77543 4.49595,-1.77543 1.56555,0 7.71208,-2.09823 7.71208,-2.63265 0,-0.73892 12.89764,-4.39198 13.47344,-3.81615 0.17942,0.17942 -0.95368,0.94993 -2.518,1.71224 -1.56432,0.76235 -3.99686,2.3491 -5.40564,3.52615 l -2.56144,2.14008 2.56144,-0.54385 c 1.40878,-0.29914 4.98452,-1.75074 7.94607,-3.22587 4.55655,-2.26955 5.63982,-3.25891 7.04392,-6.43309 0.91263,-2.06312 1.6593,-4.24654 1.6593,-4.85212 0,-0.60558 0.46007,-1.2544 1.02237,-1.44182 0.73715,-0.24558 1.11693,-5.44644 1.36135,-18.64151 0.29656,-16.00554 0.18361,-18.14013 -0.89969,-17.02004 -0.68129,0.70439 -1.91152,3.77811 -2.73388,6.83049 -0.82234,3.05236 -1.90577,6.05492 -2.40764,6.67231 -0.50183,0.61739 -1.37796,3.69111 -1.94698,6.8305 -0.66282,3.657 -1.06894,4.72597 -1.13028,2.97507 -0.13102,-3.74016 1.43227,-11.07246 3.24013,-15.19718 0.8233,-1.87837 2.00823,-5.72053 2.63323,-8.53809 0.62498,-2.81759 1.45867,-5.48787 1.85266,-5.934 0.9519,-1.07782 0.92324,-12.71154 -0.0339,-13.74635 -0.41263,-0.4461 -1.00321,-3.30851 -1.31242,-6.36087 -0.51642,-5.09749 -0.46407,-5.36743 0.64217,-3.31241 0.66244,1.23055 1.60692,3.34372 2.09885,4.69596 l 0.89442,2.45859 0.041,-2.98834 c 0.0665,-4.85005 -1.5389,-15.63514 -2.46543,-16.56167 -0.47082,-0.47082 -0.8691,-1.83581 -0.88504,-3.03329 -0.0674,-5.06261 -5.76994,-13.26426 -10.15092,-14.59946 -1.67978,-0.5119 -3.92642,-1.3573 -4.99249,-1.8786 -1.43627,-0.7023 -2.19397,-0.6922 -2.92534,0.039 -0.68435,0.6844 -1.31232,0.7171 -2.04795,0.1065 -0.58354,-0.4842 -3.06972,-0.7632 -5.52485,-0.62 -3.40781,0.1988 -4.68667,0.6636 -5.40561,1.9644 -0.51797,0.9372 -1.59711,2.7016 -2.39809,3.92084 -0.80097,1.21929 -3.40606,5.9778 -5.78904,10.57446 -2.38298,4.59667 -5.12441,9.36395 -6.09206,10.59396 -0.96765,1.23 -2.30221,3.38902 -2.96568,4.7978 -0.66347,1.40878 -2.36591,4.09829 -3.78324,5.9767 -3.61898,4.79632 -9.17765,16.60511 -10.77153,22.88298 -0.73908,2.91101 -1.63657,5.67697 -1.99442,6.14657 -0.35784,0.46959 -1.12425,3.54331 -1.70314,6.83049 -0.57886,3.28715 -1.40885,7.87414 -1.84443,10.19329 -0.7537,4.01313 -0.67738,4.3104 1.58159,6.15941 2.93754,2.4045 7.32413,2.5653 11.35113,0.41609 1.63664,-0.87346 3.93623,-1.87944 5.11022,-2.23551 3.4354,-1.04196 5.12286,-3.04377 5.12286,-6.07712 0,-1.54308 0.38424,-3.04309 0.85383,-3.3333 0.4696,-0.2901 0.8538,-1.48632 0.8538,-2.65798 0,-1.17166 1.21452,-4.31314 2.6989,-6.98103 1.49056,-2.67896 3.20425,-7.53224 3.82761,-10.83995 0.62081,-3.29406 1.462,-6.7576 1.86937,-7.69678 1.30813,-3.01593 2.83683,-7.59136 3.70847,-11.09956 0.46672,-1.87837 1.17582,-4.18368 1.57584,-5.12286 0.39999,-0.93919 0.92067,-2.47605 1.15701,-3.41524 2.0849,-8.28438 2.4146,-9.13095 3.23623,-8.3093 0.5947,0.59468 0.58664,2.33019 -0.0258,5.44492 -2.17609,11.07723 -2.67957,15.08178 -2.67957,21.31331 0,3.65073 -0.3842,6.87515 -0.8538,7.16539 -0.46959,0.29011 -0.85383,3.40568 -0.85383,6.92327 0,6.35974 -1.09828,9.95698 -4.07744,13.35472 -0.82663,0.9428 -0.94616,1.49416 -0.32393,1.49416 0.54239,0 0.98614,0.57634 0.98614,1.28073 0,0.92176 0.94309,1.2807 3.36486,1.2807 1.85065,0 3.59536,0.37298 3.87704,0.82879 0.54482,0.88149 -0.9821,1.32669 -7.39525,2.15625 -2.19755,0.2843 -4.88703,1.20148 -5.97669,2.03831 -1.08963,0.83679 -4.09432,2.19868 -6.67712,3.02641 -2.58276,0.82772 -5.08017,1.81412 -5.54976,2.19194 -0.46959,0.37785 -3.06304,1.19702 -5.76323,1.82038 -5.28696,1.22055 -5.77017,1.96056 -3.33843,5.11244 2.62807,3.40642 3.47658,7.23397 3.02951,13.66615 l -0.42442,6.10633 3.48332,-0.55702 c 2.68977,-0.43012 3.5965,-0.26203 3.97999,0.73724 0.61891,1.61286 3.84994,1.63919 8.85209,0.0723 z m 39.84448,-24.96139 c -0.84479,-0.8448 -0.66447,-9.9116 0.22525,-11.31709 0.50467,-0.79739 0.86626,1.03351 1.05416,5.3383 0.27107,6.20949 0.0384,7.29657 -1.27928,5.97879 z m -15.4773,25.27538 c 0.27171,-0.43971 -0.2743,-0.79945 -1.21352,-0.79945 -2.22605,0 -3.03925,1.3158 -0.91227,1.47603 0.89743,0.0678 1.85401,-0.23687 2.12579,-0.67658 z m -46.87815,-9.48515 c 3.2936,-0.60687 5.43475,-1.42798 5.43475,-2.08416 0,-1.45783 -1.45757,-2.27884 -2.12592,-1.19744 -0.29494,0.47727 -1.45147,0.86774 -2.57004,0.86774 -1.11855,0 -2.2712,0.38424 -2.56144,0.85383 -0.2901,0.46959 -1.44285,0.8538 -2.56143,0.8538 -1.11854,0 -2.27119,0.38421 -2.56143,0.8538 -0.67702,1.09547 0.31334,1.07443 6.94551,-0.14748 z m 0.20523,-4.65511 c 3.472,-0.69439 3.4577,-2.56534 -0.0578,-7.5526 -2.2468,-3.18754 -3.19705,-3.86711 -5.40748,-3.86711 -1.4749,0 -2.93077,0.24912 -3.23523,0.55356 -0.30431,0.3043 0.36271,2.3216 1.48258,4.4825 1.11986,2.16092 2.25341,4.60131 2.51899,5.42313 0.53617,1.6592 0.86716,1.72683 4.69877,0.96052 z m -45.79278,-3.52195 c 1.22836,-1.29141 2.51222,-3.47503 2.85303,-4.85251 0.3408,-1.3775 1.13458,-3.49067 1.76391,-4.69596 1.7529,-3.35714 2.26771,-7.36685 1.20157,-9.35891 -0.79788,-1.49088 -1.75804,-1.79754 -5.62792,-1.79754 h -4.66592 v 7.56512 c 0,8.34057 0.76786,15.48777 1.66394,15.48777 0.31786,0 1.58303,-1.05659 2.81139,-2.34797 z m -5.48748,-2.26013 c 0.1478,-1.75745 -0.16264,-3.71476 -0.68938,-4.34961 -0.71069,-0.85631 -0.69381,-1.57716 0.0655,-2.79284 1.09386,-1.75158 0.41503,-7.88711 -0.87264,-7.88711 -1.28522,0 -1.49062,1.97544 -1.09137,10.49585 0.26622,5.68059 0.70077,8.26 1.3556,8.04521 0.53009,-0.17394 1.08465,-1.75404 1.23235,-3.5115 z m 41.99505,-12.20955 c 0,-3.43069 2.43561,-15.68606 3.36025,-16.90787 0.35539,-0.46959 1.54573,-4.40779 2.6452,-8.75156 1.09947,-4.34376 2.2488,-7.89776 2.55408,-7.89776 0.30527,0 1.28983,-2.16205 2.1879,-4.80455 0.89804,-2.64252 2.11311,-4.98891 2.7001,-5.21422 0.58699,-0.22524 1.06726,-0.85757 1.06726,-1.40503 0,-0.54746 1.34476,-3.03729 2.98834,-5.53295 1.64357,-2.49564 2.98833,-4.69984 2.98833,-4.89817 0,-0.19846 2.11675,-3.22294 4.7039,-6.72126 2.58715,-3.49833 5.06707,-7.31587 5.51097,-8.48343 0.44391,-1.16756 2.16932,-4.06086 3.83423,-6.42954 1.6649,-2.36868 3.02712,-4.69486 3.02712,-5.16926 0,-0.4744 0.35697,-0.8626 0.79326,-0.8626 1.43666,0 2.74482,-9.167 2.2195,-15.5532 -1.00479,-12.2151 -1.43895,-15.184 -2.2204,-15.184 -0.43578,0 -0.79236,0.7554 -0.79236,1.6787 0,1.5332 -2.39886,7.5507 -3.41523,8.5671 -0.23493,0.2349 -1.17834,1.9021 -2.09678,3.7052 -2.15447,4.2299 -13.99876,15.3762 -18.40445,17.32 -4.75812,2.09925 -4.46195,4.2466 2.10507,15.2617 1.11986,1.87841 2.06705,4.10723 2.10494,4.953 0.09,2.01455 -4.04502,3.71647 -10.91988,4.49427 -5.85523,0.66244 -6.50706,1.35689 -7.56164,8.05585 -0.25881,1.64358 -0.89714,3.52734 -1.41862,4.18607 -0.62998,0.79581 -1.05158,9.67823 -1.25627,26.46815 l -0.30818,25.27038 1.80167,-1.62651 c 1.15826,-1.04567 1.80163,-2.65927 1.80163,-4.51851 z m -118.30832,-19.02126 c 2.9783,-1.13235 2.8397,-3.96685 -0.3853,-7.87933 l -2.57537,-3.12439 2.63081,1.31242 c 1.44692,0.72182 2.98055,2.23238 3.40807,3.35676 1.03822,2.73079 3.98079,2.68209 5.24235,-0.0868 0.77507,-1.70108 0.71143,-2.43323 -0.3156,-3.6287 -0.70752,-0.82369 -1.52485,-2.17 -1.81628,-2.99182 -0.2914,-0.82179 -1.07346,-1.49416 -1.73784,-1.49416 -0.66437,0 -1.40887,-0.76842 -1.65448,-1.7076 -0.24558,-0.93919 -0.21266,-1.70763 0.0733,-1.70763 0.91208,0 6.15086,5.42174 6.15086,6.36567 0,0.49932 0.82098,1.42059 1.82445,2.04724 1.63493,1.02103 2.08177,0.8821 4.3012,-1.33733 l 2.47676,-2.47675 -3.02051,-3.95582 c -1.66126,-2.17571 -2.99014,-4.45914 -2.95309,-5.0743 0.052,-0.85964 0.16716,-0.87152 0.49809,-0.0513 0.23686,0.58702 0.97494,1.06727 1.64019,1.06727 0.66527,3e-5 1.20957,0.36445 1.20957,0.80985 0,0.44539 0.96594,1.85207 2.14651,3.12593 l 2.14647,2.31608 2.12256,-1.99403 c 1.16743,-1.09673 2.12256,-2.51871 2.12256,-3.15994 0,-2.0284 -3.16062,-7.40813 -5.85717,-9.96959 l -2.59832,-2.46814 -2.968,2.46814 c -1.63241,1.35747 -2.99572,2.94841 -3.02964,3.5354 -0.0339,0.58699 -0.68731,1.06727 -1.45202,1.06727 -2.96726,0 -14.77301,11.24112 -15.83137,15.07422 -1.07817,3.90473 0.50893,9.54088 2.96519,10.53006 2.4825,0.99972 2.68529,1.00091 5.23597,0.0323 z m 8.16677,-1.67836 c 0,-0.44188 -0.38421,-1.04087 -0.8538,-1.33111 -0.4696,-0.29011 -0.8538,0.0713 -0.8538,0.80343 0,0.73211 0.3842,1.3311 0.8538,1.3311 0.46959,0 0.8538,-0.36155 0.8538,-0.80342 z m 73.07129,-77.77398 c 1.27389,-0.4843 4.66079,-2.7364 7.52643,-5.0046 2.86564,-2.2681 6.93921,-4.9023 9.05238,-5.8537 2.1132,-0.9513 4.61058,-2.3552 5.5498,-3.1197 1.64735,-1.3409 1.61724,-1.3693 -0.85384,-0.8055 -1.40877,0.3214 -4.44015,1.5272 -6.73639,2.6794 -2.6283,1.3189 -5.7914,2.1352 -8.53813,2.2035 l -4.3631,0.1085 0.16168,-3.6287 c 0.18523,-4.1569 -0.69862,-4.5879 -2.89669,-1.4128 -0.8437,1.2187 -2.11036,2.8569 -2.81475,3.6403 -1.80186,2.0043 -3.41523,5.8312 -3.41523,8.1011 0,3.6744 2.74724,4.8337 7.32787,3.0921 z m 11.29134,-15.393 c 4.57469,-1.0334 14.76788,-5.8234 15.7891,-7.4196 0.37552,-0.587 1.20138,-1.0673 1.83526,-1.0673 0.63388,0 3.20822,-1.3847 5.72079,-3.0772 2.51258,-1.6925 5.91306,-3.7673 7.55664,-4.6106 2.70077,-1.3858 6.83049,-5.839 6.83049,-7.3655 0,-0.3343 0.56037,-1.2269 1.2453,-1.9837 1.10189,-1.2176 0.90889,-2.0802 -1.67588,-7.4911 -1.60662,-3.3632 -3.67862,-6.5203 -4.60438,-7.0158 -2.93486,-1.5707 -5.09237,-1.045 -6.44477,1.5702 -1.63844,3.1684 -11.82934,12.4658 -16.26912,14.8427 -4.53755,2.4293 -9.00126,4.0183 -11.09952,3.9512 -1.38529,-0.044 -1.28719,-0.2088 0.51974,-0.8719 5.63512,-2.0678 13.19291,-6.8011 19.49515,-12.2095 3.78408,-3.2473 6.88012,-6.194 6.88012,-6.5482 0,-0.9289 -6.16053,0.8802 -7.72666,2.2692 -0.72772,0.6453 -2.96232,1.7517 -4.96584,2.4586 -2.00348,0.7068 -4.67392,1.9795 -5.93426,2.8281 -1.26037,0.8486 -3.33852,2.0691 -4.61813,2.7122 -1.2796,0.6431 -4.4913,3.0987 -7.13712,5.4569 l -4.81056,4.2876 0.47321,4.3311 c 0.89324,8.1754 3.15239,15.8576 4.66331,15.8576 0.14876,0 2.07338,-0.4072 4.27713,-0.905 z m -6.66585,-16.9949 c 0,-0.4531 0.86448,-1.2775 1.92106,-1.8319 1.91077,-1.0027 1.91235,-0.9983 0.29463,0.8238 -1.80693,2.0351 -2.21563,2.221 -2.21563,1.0081 z m 43.73902,2.8576 c 1.46922,-0.7598 3.89683,-2.6809 5.39474,-4.2691 1.49787,-1.5882 3.15829,-2.8876 3.68984,-2.8876 0.53156,0 0.96646,-0.5546 0.96646,-1.2323 0,-0.6778 0.67238,-1.7344 1.49416,-2.348 2.92593,-2.1848 4.7597,-6.7947 4.83583,-12.1569 0.0655,-4.6032 -0.11327,-5.1812 -1.60131,-5.1812 -1.75607,0 -2.75705,1.5646 -5.3238,8.3215 -0.84667,2.2288 -1.82758,4.0538 -2.17978,4.0556 -0.35219,0 -0.64037,0.4472 -0.64037,0.9898 0,0.5427 -1.05658,2.3663 -2.34796,4.0524 -3.7863,4.9436 -6.19013,8.6381 -6.19013,9.5137 0,0.4487 -0.38421,0.8158 -0.8538,0.8158 -0.46959,0 -0.85383,0.3843 -0.85383,0.8539 0,1.1559 0.49389,1.0838 3.60995,-0.5276 z m -122.2896,277.96558 c 0,-0.49728 -0.35197,-0.68664 -0.78216,-0.42077 -0.4302,0.26591 -1.77495,0.10585 -2.98834,-0.35539 -1.85049,-0.70358 -2.20617,-1.37425 -2.20617,-4.16002 0,-2.11356 -0.6727,-4.17638 -1.84994,-5.67303 -2.37113,-3.01444 -2.48005,-8.75786 -0.22976,-12.11249 0.89113,-1.32842 2.1203,-4.31992 2.73149,-6.64781 1.60176,-6.10061 3.15014,-7.5214 7.41955,-6.80816 1.90026,0.31753 3.6471,0.81827 3.88189,1.11296 0.23493,0.29462 1.19535,0.95683 2.13453,1.47148 0.93919,0.51464 2.16622,2.2436 2.72669,3.84216 1.4647,4.17738 1.33992,14.67872 -0.23912,20.10992 -1.12355,3.86489 -2.0332,5.1572 -5.3363,7.58107 -4.23418,3.10711 -5.26259,3.50968 -5.26259,2.06008 z m -0.33555,-3.00776 c -0.28494,-0.74279 -0.51825,-2.3064 -0.51825,-3.47464 0,-1.71518 -0.36982,-2.07102 -1.9211,-1.84845 -1.48161,0.21265 -1.86992,0.76321 -1.69747,2.40734 0.36265,3.4575 0.89901,4.26629 2.82931,4.26629 1.31406,0 1.68052,-0.3785 1.30751,-1.35054 z m 9.48438,-8.73 c 0.36849,-1.73442 0.66999,-6.31285 0.66999,-10.17428 0,-6.11652 -0.24428,-7.26504 -1.89734,-8.91756 -2.67687,-2.67612 -3.28983,-1.43508 -2.11075,4.27349 1.9534,9.4574 0.84121,18.8976 -2.43284,20.64983 -0.91866,0.49167 -1.67026,1.2969 -1.67026,1.7894 0,0.49254 1.5235,-0.31108 3.38561,-1.78591 2.36771,-1.87528 3.58703,-3.62957 4.05559,-5.83497 z m -4.42822,-2.14718 c 0.27849,-1.49268 0.38669,-5.0155 0.24074,-7.82851 -0.21266,-4.10007 -0.56686,-5.17195 -1.78518,-5.40387 -1.39319,-0.26526 -1.4718,0.28623 -0.9437,6.61841 0.49412,5.92468 0.36152,7.14481 -0.93173,8.57385 -0.93945,1.03807 -1.28396,2.24138 -0.91396,3.19212 0.5445,1.39903 0.7284,1.36109 2.21082,-0.45604 0.8893,-1.09011 1.84468,-3.20328 2.12301,-4.69596 z m -5.17785,-1.99877 c 0.63201,-3.36883 -0.40257,-5.06736 -3.3849,-5.55745 -1.37434,-0.22589 -1.75984,0.26107 -1.97518,2.49428 -0.16587,1.71883 -0.73437,2.7749 -1.49416,2.7749 -2.00681,0 -1.39113,2.41825 0.69445,2.72756 5.47528,0.81201 5.55583,0.78012 6.15979,-2.43929 z m 1.95524,-13.3089 c 2.3115,-4.36413 2.35917,-4.91501 0.42306,-4.89042 -2.24015,0.0291 -5.16117,2.6747 -5.78475,5.24062 -0.53785,2.21314 -0.36114,2.39969 3.01134,3.17947 0.23557,0.0545 1.29325,-1.53389 2.35035,-3.52967 z m -0.092,-21.14201 c -1.14158,-1.28122 -2.34057,-3.53592 -2.6644,-5.0104 -0.32386,-1.47448 -1.18835,-3.8826 -1.92104,-5.35134 -2.10874,-4.22708 -0.9316,-19.6564 1.90697,-24.99499 1.16937,-2.1993 2.12611,-4.78357 2.12611,-5.74287 0,-0.95929 0.67237,-2.95609 1.49416,-4.43731 0.82182,-1.48126 1.4942,-2.74534 1.4942,-2.80908 0,-0.0639 1.72896,-0.39146 3.84213,-0.72823 3.14468,-0.50119 3.64842,-0.41038 2.7749,0.50012 -1.31529,1.37099 -1.4051,4.18616 -0.1336,4.18616 0.51355,0 1.13229,-0.75925 1.37496,-1.68724 0.3439,-1.31503 0.77493,-1.50862 1.95414,-0.87752 3.0027,1.60699 3.55196,4.82143 3.7208,21.77551 l 0.12747,12.80716 -2.28385,-0.23557 c -2.83259,-0.29237 -3.91116,1.23713 -2.12908,3.01918 1.10296,1.10299 1.5721,1.14536 2.66244,0.24041 1.09957,-0.91256 1.32359,-0.87255 1.32359,0.23654 0,0.73418 -0.38424,1.57232 -0.85384,1.86256 -0.46959,0.29011 -0.86657,1.56158 -0.88219,2.82527 -0.0374,3.02725 -2.58538,5.97638 -5.16537,5.97867 -1.135,8.4e-4 -3.10524,0.17522 -4.37832,0.38727 -1.73849,0.28946 -2.83144,-0.19427 -4.39034,-1.94404 z m 4.5705,-2.3612 c 0,-1.1017 -0.26655,-1.06713 -1.68746,0.21879 -0.92812,0.83993 -1.47026,1.87867 -1.20471,2.30831 0.65786,1.06449 2.89217,-0.88768 2.89217,-2.52697 z m 5.12286,0.6638 c 0,-0.4696 -0.36152,-0.85384 -0.80339,-0.85384 -0.44191,0 -1.0409,0.38424 -1.33111,0.85384 -0.2901,0.46959 0.0713,0.8538 0.8034,0.8538 0.73211,0 1.3311,-0.38421 1.3311,-0.8538 z m 3.41527,-3.45622 c 0,-1.92678 -1.11464,-2.69441 -2.91131,-2.005 -1.58526,0.60836 -1.76116,2.15486 -0.39992,3.51611 1.31168,1.31168 3.31123,0.39918 3.31123,-1.51111 z m -5.58355,-1.63141 c 2.10907,-2.20139 2.47336,-3.35398 2.83346,-8.96499 0.22719,-3.54138 0.79394,-6.43884 1.25928,-6.43884 0.53816,0 0.52403,-0.3884 -0.0387,-1.06726 -1.10773,-1.33601 -1.05494,-9.17846 0.0616,-9.17846 0.45271,0 0.35529,-0.56376 -0.21653,-1.25276 -0.57183,-0.68899 -1.50837,-3.08988 -2.08116,-5.33533 -1.44476,-5.66341 -3.03109,-5.55857 -5.73993,0.3794 -3.02735,6.63617 -4.11172,13.02582 -3.57994,21.09474 0.41151,6.24383 2.78339,13.28969 4.47379,13.28969 0.33431,0 1.69695,-1.13677 3.02808,-2.52619 z m 7.71605,-10.14069 c -0.61059,-0.61061 -2.98634,0.62072 -2.98634,1.54777 0,0.56195 0.61259,0.50528 1.66882,-0.15425 0.91782,-0.57321 1.51072,-1.20025 1.31752,-1.39345 z m -16.87854,-5.779 c -0.28365,-0.28366 -1.02012,-0.31399 -1.63648,-0.0675 -0.68109,0.27268 -0.47879,0.47485 0.51587,0.51584 0.90004,0.0371 1.40433,-0.1649 1.12061,-0.44846 z m 16.09076,-4.40067 c -0.86722,-0.86722 -2.43745,1.27777 -1.74984,2.39034 0.47075,0.7617 0.85796,0.65089 1.45534,-0.41654 0.44765,-0.79994 0.58019,-1.68814 0.29463,-1.9738 z m 0.78981,-4.47539 c 0.29011,-0.4696 -0.0713,-0.8538 -0.80343,-0.8538 -0.73211,0 -1.3311,0.3842 -1.3311,0.8538 0,0.46959 0.36152,0.8538 0.80342,0.8538 0.44188,0 1.04087,-0.38421 1.33111,-0.8538 z m -15.79552,-0.8538 c 0,-0.4696 -0.16942,-0.85383 -0.3765,-0.85383 -0.20717,0 -0.61397,0.38423 -0.9042,0.85383 -0.29011,0.46959 -0.12069,0.8538 0.37652,0.8538 0.49728,0 0.90418,-0.38421 0.90418,-0.8538 z m 14.01805,-3.93352 c 1.88612,-0.72375 1.68808,-2.04318 -0.30656,-2.04318 -1.78208,0 -2.90956,1.12529 -2.01939,2.01546 0.66747,0.66747 0.65924,0.66737 2.32608,0.029 z m -0.35706,-5.88531 c 0.888,-1.07001 0.76473,-1.28073 -0.74928,-1.28073 -1.04161,0 -1.81215,0.54459 -1.81215,1.28073 0,0.70439 0.33715,1.2807 0.74924,1.2807 0.41212,0 1.22758,-0.57631 1.81219,-1.2807 z m -7.87998,-3.68207 c 0.18587,-0.55763 -0.27043,-1.01389 -1.01389,-1.01389 -0.74354,0 -1.35186,0.60835 -1.35186,1.35185 0,1.50779 1.83804,1.24521 2.36575,-0.33796 z m 21.33221,46.15914 c -1.22968,-1.29138 -2.69858,-4.26906 -3.26414,-6.61703 -0.5656,-2.34799 -1.36034,-4.63407 -1.76607,-5.08017 -1.01751,-1.11873 -0.93416,-16.46983 0.0929,-17.10458 0.45685,-0.28237 1.22549,-2.13002 1.70809,-4.10597 1.21548,-4.97649 2.72481,-9.48722 3.34485,-9.99622 0.28591,-0.23492 0.94406,-1.19534 1.46228,-2.13453 1.36847,-2.48005 4.89775,-3.51924 7.66687,-2.25751 2.12308,0.96732 2.18216,1.13813 0.88823,2.56791 -1.76452,1.94976 -1.77595,3.53173 -0.0258,3.53173 0.74834,0 1.56567,-0.7841 1.81628,-1.74242 l 0.45569,-1.74242 1.22671,1.75139 c 0.68147,0.97298 0.9871,2.50638 0.68757,3.45005 -0.60283,1.89938 1.69524,2.50616 2.39137,0.6314 0.22299,-0.60055 0.90356,0.0529 1.55632,1.49416 1.37822,3.04323 1.82067,23.06357 0.61794,27.96154 -0.49596,2.01975 -2.33709,4.77677 -4.98894,7.47086 -3.76604,3.82597 -4.58915,4.26978 -7.91877,4.26978 -2.94241,0 -4.18119,-0.4887 -5.95166,-2.34797 z m 5.28802,-1.41275 c 1.42876,-2.66966 0.27978,-4.8618 -1.36747,-2.60899 -1.2735,1.74161 -1.54967,4.66211 -0.44087,4.66211 0.39024,0 1.20399,-0.92392 1.80834,-2.05312 z m 5.59333,-1.64673 c 0,-2.22551 -1.67423,-2.08584 -1.9929,0.16619 -0.19555,1.38225 0.0729,1.89676 0.8538,1.63647 0.62652,-0.20878 1.1391,-1.02009 1.1391,-1.80273 z m -8.96499,-3.23143 c 0,-0.46959 -0.38424,-0.61635 -0.85384,-0.32612 -0.46959,0.29011 -0.8538,0.91189 -0.8538,1.38148 0,0.46959 0.38421,0.61636 0.8538,0.32615 0.4696,-0.2901 0.85384,-0.91191 0.85384,-1.38151 z m 11.40828,0.52768 c 0.27042,-0.70439 0.1194,-1.2807 -0.33554,-1.2807 -0.45488,0 -0.82702,0.57631 -0.82702,1.2807 0,0.70439 0.15103,1.28073 0.33555,1.28073 0.18458,0 0.55672,-0.57634 0.82701,-1.28073 z m -4.78183,-0.94106 c 2.74004,-0.548 4.47307,-3.16058 4.47307,-6.74323 0,-2.34774 1.66407,-6.40356 2.62733,-6.40356 0.3551,0 0.79636,0.45223 0.98062,1.00495 0.49389,1.48171 2.36872,0.01 2.36872,-1.85879 0,-1.86927 -1.87483,-3.34049 -2.36872,-1.85878 -0.91782,2.75344 -1.72477,0.2701 -2.07393,-6.38227 -0.33599,-6.40165 -0.64769,-7.59774 -2.33619,-8.96499 -2.35803,-1.90945 -6.74117,-2.08474 -7.42716,-0.29688 -0.27043,0.70439 -0.98559,1.2807 -1.58949,1.2807 -0.60391,0 -1.31917,-0.57631 -1.58946,-1.2807 -0.27043,-0.70443 -0.88775,-1.28074 -1.37209,-1.28074 -1.30578,0 -1.06678,2.64814 0.38366,4.25087 0.94654,1.0459 1.10441,2.33341 0.6282,5.12299 -0.65592,3.8421 -2.74628,5.85968 -2.74628,2.65062 0,-0.97829 -0.3842,-1.77875 -0.8538,-1.77875 -1.61989,0 -0.84776,2.79813 1.32878,4.81527 2.2055,2.04401 2.16109,3.72282 -0.0984,3.72282 -1.59943,0 -1.55848,1.26689 0.12392,3.83465 0.74489,1.13681 1.10641,2.46807 0.80342,2.95829 -0.30301,0.49024 -0.14392,0.89136 0.35333,0.89136 0.49728,0 0.90417,0.55827 0.90417,1.24056 0,2.36384 1.98854,5.58993 3.44557,5.58993 0.80513,0 2.62074,-0.23137 4.03472,-0.51415 z m 9.59594,-7.28292 c 0,-2.18235 -1.66694,-2.85525 -3.22168,-1.30048 -1.14204,1.14201 -1.18366,1.71573 -0.26978,3.72119 1.04171,2.28633 1.12332,2.31211 2.28594,0.72213 0.66309,-0.90685 1.20564,-2.32111 1.20564,-3.14284 z m 0,-14.45238 c 0,-1.52378 -0.35568,-2.39201 -0.8538,-2.08415 -0.4696,0.2901 -0.85384,1.46557 -0.85384,2.61183 0,1.14627 0.38424,2.08413 0.85384,2.08413 0.46959,0 0.8538,-1.17531 0.8538,-2.61181 z m -19.05441,-5.23258 c -0.27268,-0.68109 -0.47485,-0.47879 -0.51584,0.51587 -0.0371,0.90004 0.16458,1.40433 0.44846,1.12061 0.28365,-0.28365 0.31399,-1.02012 0.0675,-1.63648 z m 19.26339,-0.26687 c -0.22428,-1.17398 -0.91692,-2.13453 -1.53883,-2.13453 -1.93607,0 -2.33167,1.76423 -0.67674,3.01799 2.2531,1.70692 2.67832,1.53737 2.21557,-0.88346 z m -14.72377,-7.20699 c 0,-1.95043 -1.34612,-3.03367 -2.15119,-1.73106 -0.71723,1.1605 0.11811,3.38829 1.2706,3.38829 0.48431,0 0.88059,-0.74576 0.88059,-1.65723 z m 3.28379,-3.49165 c 0.25784,-1.76955 0.12263,-1.88327 -1.06726,-0.89584 -1.61115,1.33714 -1.83162,3.78001 -0.29528,3.27411 0.587,-0.1933 1.20022,-1.26353 1.3627,-2.37827 z m -26.76358,-15.34257 c -0.29011,-0.4696 -1.6751,-0.8538 -3.07752,-0.8538 -3.91578,0 -6.7413,-3.32846 -6.7413,-7.94123 0,-4.69277 1.86343,-8.50525 5.62346,-11.50539 2.20614,-1.76026 2.9146,-2.97829 2.91463,-5.01082 0,-1.75016 0.73821,-3.38548 2.11978,-4.69596 2.37824,-2.25584 2.80643,-3.72629 0.86858,-2.98266 -1.70556,0.65447 -1.62995,-1.06913 0.13231,-3.0164 1.28128,-1.41582 1.28522,-1.56142 0.0423,-1.56142 -0.75382,0 -1.72289,0.62952 -2.15347,1.39891 -0.55027,0.98329 -0.79575,-0.0323 -0.82614,-3.41524 -0.0378,-4.19126 0.16877,-4.81413 1.59426,-4.81413 0.90063,0 1.63751,-0.57179 1.63751,-1.27067 0,-0.69887 -0.67238,-1.21428 -1.49416,-1.14542 -0.82179,0.0687 -2.26262,0.052 -3.2018,-0.0371 -1.50785,-0.14328 -1.55161,-0.28398 -0.37398,-1.20254 0.7335,-0.57205 1.57023,-1.67159 1.8594,-2.44339 0.35342,-0.94332 1.78589,-1.50352 4.37004,-1.70905 3.36037,-0.2672 3.70317,-0.14425 2.72345,0.97639 -1.36047,1.55629 -2.3762,10.44254 -2.42425,21.20914 l -0.0355,7.97366 3.93581,3.36424 c 3.23665,2.76658 4.03659,4.03605 4.50292,7.14591 0.45656,3.04451 0.2075,4.36332 -1.27692,6.7654 -2.64014,4.27184 -9.21858,7.20018 -10.71945,4.7717 z m 1.12439,-3.7035 c 1.55292,0.40608 1.78466,0.22137 1.30151,-1.03781 -0.46859,-1.22116 -0.27591,-1.4122 0.94935,-0.94196 1.67875,0.64421 4.14747,-0.881 3.39545,-2.09778 -0.25719,-0.41638 -0.0416,-0.75705 0.47898,-0.75705 0.5969,0 0.7974,-1.1835 0.5424,-3.2018 -0.70891,-5.61114 -1.47351,-7.22086 -3.21371,-6.76579 -0.87451,0.22879 -1.59004,0.0674 -1.59004,-0.35807 0,-1.09008 -2.34209,-0.96574 -3.03864,0.16135 -0.31786,0.51439 -0.0916,1.84426 0.50309,2.95529 0.9561,1.7865 0.80975,2.37578 -1.26624,5.0975 -2.58922,3.39464 -4.08348,3.42165 -1.86363,0.0336 1.52538,-2.32802 1.91329,-8.16789 0.54256,-8.16789 -0.46959,0 -0.8538,0.3842 -0.8538,0.85379 0,0.4696 -0.76841,0.8538 -1.70763,0.8538 -1.24124,0 -1.7076,0.56922 -1.7076,2.08416 0,1.14627 -0.40693,2.33561 -0.90424,2.64298 -2.14518,1.32578 0.50561,8.08002 3.17108,8.08002 0.63162,0 1.14839,0.43126 1.14839,0.95836 0,0.69032 0.31108,0.70032 1.1117,0.0358 0.61142,-0.50745 1.96189,-0.70029 3.00102,-0.42855 z m 1.01014,-19.34939 c 0,-0.46959 -0.57631,-0.8538 -1.2807,-0.8538 -0.70442,0 -1.28073,0.38421 -1.28073,0.8538 0,0.46959 0.57631,0.8538 1.28073,0.8538 0.70439,0 1.2807,-0.38421 1.2807,-0.8538 z m 0.8538,-17.87961 c 0,-1.15298 -1.55644,-1.95224 -2.57534,-1.32253 -0.47727,0.29495 -0.64669,0.89398 -0.37652,1.33111 0.64094,1.03706 2.95186,1.03032 2.95186,-0.01 z m 16.14511,39.861 c -5.46064,-4.73236 -6.64472,-11.08704 -2.90269,-15.57779 l 2.13437,-2.56147 -1.85782,3.60566 -1.85778,3.60562 1.98793,3.86521 c 2.11675,4.11565 3.05861,5.03179 2.11433,2.05656 -0.4148,-1.3069 -0.253,-1.70285 0.58283,-1.42727 0.63626,0.20976 1.28347,1.24511 1.43824,2.30082 0.17974,1.22668 0.70923,1.7553 1.46683,1.46458 0.65198,-0.25009 1.42653,-0.0649 1.72122,0.41202 0.62349,1.00883 4.57592,0.76306 6.14647,-0.38217 0.75511,-0.55059 0.81362,-1.10419 0.19555,-1.84904 -0.64611,-0.77852 -0.42035,-1.18396 0.84328,-1.5144 1.43366,-0.37491 1.72561,-1.15485 1.72561,-4.61025 0,-2.3824 -0.56779,-4.96965 -1.32914,-6.05663 -0.73646,-1.05146 -0.92921,-1.89761 -0.43225,-1.89761 0.49327,0 2.05192,1.59453 3.46366,3.54335 3.25179,4.48898 3.61147,11.12066 0.7972,14.69843 -1.61879,2.05796 -2.29188,2.24932 -7.89776,2.24545 -5.12141,-0.003 -6.49153,-0.31915 -8.33999,-1.92107 z m 2.48295,-7.70578 c 0.49889,-0.60116 1.2714,-3.0025 1.71666,-5.33633 l 0.80956,-4.24332 0.0955,4.31173 c 0.0894,4.03759 -0.91182,6.3609 -2.74127,6.3609 -0.43316,0 -0.3794,-0.49186 0.1194,-1.09298 z m 4.28452,-12.33179 c -2.96171,-0.31302 -3.09282,-0.45556 -2.45681,-2.67312 0.36952,-1.28845 0.52874,-4.43697 0.35384,-6.99678 -0.17491,-2.55979 -0.0939,-4.1739 0.18006,-3.58691 0.84738,1.81599 3.77095,1.27492 3.77095,-0.6979 0,-1.37661 -0.37589,-1.64584 -1.70764,-1.22317 -0.93918,0.29818 -1.7076,0.37091 -1.7076,0.16168 0,-0.20911 -0.61671,-1.86789 -1.37044,-3.68624 -0.75376,-1.81832 -1.10905,-3.053 -0.78955,-2.74372 0.31947,0.30914 1.66075,0.25267 2.98056,-0.12586 2.26758,-0.65033 2.42799,-0.51683 2.91466,2.426 0.98426,5.95159 0.65453,8.20455 -1.33201,9.10188 -2.4897,1.12464 -3.00263,2.97736 -0.82428,2.97736 1.73019,0 2.65005,1.68059 3.08411,5.63476 0.1236,1.12726 0.18168,1.98493 0.12908,1.906 -0.0529,-0.0791 -1.50394,-0.29237 -3.22471,-0.47408 z m 1.57739,-4.66534 c -0.27268,-0.68113 -0.47489,-0.47879 -0.51587,0.51583 -0.0371,0.90008 0.16458,1.40436 0.44846,1.12064 0.28365,-0.28365 0.31398,-1.02012 0.0674,-1.63647 z m -0.58325,-13.4505 c 0,-1.15294 -1.55645,-1.9522 -2.57537,-1.32248 -0.47724,0.29494 -0.64669,0.89394 -0.37653,1.3311 0.64095,1.03703 2.9519,1.03032 2.9519,-0.01 z m -4.624,-6.57427 c -0.55324,-1.44172 1.81999,-5.95662 2.67934,-5.09727 0.2643,0.26429 -0.006,1.06598 -0.59967,1.78169 -0.89214,1.07498 -0.83905,1.30135 0.30528,1.30135 0.76189,0 1.38525,-0.3842 1.38525,-0.8538 0,-0.46959 1.44082,-0.82946 3.2018,-0.79968 2.86867,0.0484 2.99352,0.13747 1.20018,0.85609 -1.10089,0.44107 -2.20226,1.56936 -2.44755,2.50732 -0.56288,2.15244 -4.92637,2.38443 -5.7246,0.3043 z m -20.47206,-10.19525 c -0.7323,-1.90832 -0.67457,-2.0647 0.76244,-2.0647 0.71152,0 1.28074,0.75896 1.28074,1.70763 0,2.03569 -1.31114,2.26484 -2.04318,0.35707 z m 7.16604,-4.55827 c 0,-0.88368 4.99552,-2.18742 5.6963,-1.48661 0.24816,0.24815 0.19814,0.86112 -0.11133,1.36195 -0.68768,1.11267 -5.58488,1.22197 -5.58488,0.12456 z m 92.40325,-58.13722 c -1.61476,-2.58565 -1.30687,-8.02665 0.5493,-9.70645 1.52066,-1.3762 1.6196,-1.3196 2.12718,1.2182 0.29268,1.4639 0.13359,3.4065 -0.35362,4.317 -0.48728,0.9104 -0.65527,2.02859 -0.37333,2.48476 0.28204,0.45616 0.19394,1.39893 -0.19556,2.09503 -0.59693,1.06665 -0.87267,1.0024 -1.75384,-0.40854 z"
       id="path474"
       inkscape:connector-curvature="0" />
  </g>
</svg>
