<?xml version="1.0" encoding="UTF-8" standalone="no"?>
<!-- Created with Inkscape (http://www.inkscape.org/) -->

<svg
   xmlns:dc="http://purl.org/dc/elements/1.1/"
   xmlns:cc="http://creativecommons.org/ns#"
   xmlns:rdf="http://www.w3.org/1999/02/22-rdf-syntax-ns#"
   xmlns:svg="http://www.w3.org/2000/svg"
   xmlns="http://www.w3.org/2000/svg"
   xmlns:sodipodi="http://sodipodi.sourceforge.net/DTD/sodipodi-0.dtd"
   xmlns:inkscape="http://www.inkscape.org/namespaces/inkscape"
   width="210mm"
   height="127.54836mm"
   viewBox="0 0 210 127.54836"
   version="1.1"
   id="svg8"
   inkscape:version="0.92.3 (2405546, 2018-03-11)"
   sodipodi:docname="bribe.svg">
  <defs
     id="defs2" />
  <sodipodi:namedview
     id="base"
     pagecolor="#ffffff"
     bordercolor="#666666"
     borderopacity="1.0"
     inkscape:pageopacity="0.0"
     inkscape:pageshadow="2"
     inkscape:zoom="0.7"
     inkscape:cx="407.56695"
     inkscape:cy="269.2268"
     inkscape:document-units="mm"
     inkscape:current-layer="g21"
     showgrid="false"
     inkscape:window-width="1920"
     inkscape:window-height="1017"
     inkscape:window-x="-8"
     inkscape:window-y="-8"
     inkscape:window-maximized="1"
     fit-margin-top="0"
     fit-margin-left="0"
     fit-margin-right="0"
     fit-margin-bottom="0" />
  <metadata
     id="metadata5">
    <rdf:RDF>
      <cc:Work
         rdf:about="">
        <dc:format>image/svg+xml</dc:format>
        <dc:type
           rdf:resource="http://purl.org/dc/dcmitype/StillImage" />
        <dc:title></dc:title>
      </cc:Work>
    </rdf:RDF>
  </metadata>
  <g
     inkscape:label="Layer 1"
     inkscape:groupmode="layer"
     id="layer1"
     transform="translate(-10e-6,-103.10007)">
    <g
       id="g21"
       transform="translate(118.89756,67.317726)"
       style="fill:#000000">
      <path
         style="fill:#000000;stroke-width:0.53622806"
         d="m -118.89745,162.79448 c 0,-0.29492 0.28262,-0.53624 0.62805,-0.53624 0.34543,0 1.00902,-0.31841 1.47464,-0.70758 0.46561,-0.38916 2.29437,-1.14688 4.06391,-1.68379 1.76956,-0.53693 3.69999,-1.17365 4.28983,-1.41495 0.58985,-0.2413 2.15833,-0.6939 3.48548,-1.00575 3.94216,-0.92634 6.634795,-1.79276 7.775314,-2.50192 0.589848,-0.36677 3.364831,-1.07654 6.166627,-1.57727 2.801796,-0.50074 5.335461,-1.09539 5.630385,-1.32145 0.294944,-0.22607 2.104696,-0.68666 4.021721,-1.02353 8.099317,-1.42331 9.602715,-1.80353 9.868394,-2.49591 0.154028,-0.40129 -0.193549,-0.98311 -0.772493,-1.29291 -0.578863,-0.3098 -1.05248,-0.83349 -1.05248,-1.16374 0,-0.33824 0.428827,-0.2124 0.981911,0.28813 0.540051,0.48876 1.12238,0.74817 1.294041,0.57649 0.17166,-0.17166 0.924514,0.0892 1.67297,0.57954 1.776332,1.1639 2.757838,0.79454 5.906785,-2.2229 2.634757,-2.5247 5.386433,-7.60016 5.012833,-9.24616 -0.126871,-0.5591 -0.506064,-0.15362 -1.070335,1.14484 -0.480609,1.10584 -1.489434,2.81775 -2.241842,3.80422 -0.752409,0.98645 -1.377196,2.01209 -1.388384,2.27917 -0.03506,0.83838 -4.224207,3.43487 -5.541697,3.43487 -1.705519,0 -5.799147,-3.70245 -8.206245,-7.42208 -1.080023,-1.66889 -2.224494,-3.27567 -2.543272,-3.5706 -0.8566,-0.79247 -2.992649,-5.51046 -2.992649,-6.60994 0,-0.52299 -0.270077,-1.22096 -0.600204,-1.55107 -0.766453,-0.76647 -2.026831,-9.49696 -2.421508,-16.7736 -0.329803,-6.08068 0.724946,-13.616253 2.226682,-15.908195 0.437279,-0.667348 0.79503,-1.482604 0.79503,-1.811637 0,-0.329053 0.844562,-1.870674 1.876795,-3.425813 1.032253,-1.555119 1.876815,-3.067333 1.876815,-3.360453 0,-0.828673 6.698693,-8.477802 8.884335,-10.144859 1.61363,-1.230784 2.579286,-1.517171 5.51762,-1.636387 1.958917,-0.07949 3.735086,-0.151637 3.947017,-0.160331 0.211931,-0.0087 0.246446,-0.377783 0.07661,-0.820171 -0.169836,-0.442388 -0.03405,-0.804342 0.301774,-0.804342 0.335741,0 0.749328,0.361954 0.919083,0.804342 0.169837,0.442532 0.965596,0.804342 1.769097,0.804342 0.803238,0 2.585569,0.569615 3.960718,1.265809 2.077153,1.051586 2.602775,1.142337 3.105799,0.53623 0.333025,-0.40127 0.921473,-0.729582 1.307664,-0.729582 0.386192,0 1.217641,-0.723909 1.847655,-1.608684 0.630015,-0.884778 1.396156,-1.608685 1.702534,-1.608685 0.306375,0 2.952098,-2.154962 5.879382,-4.788804 2.927287,-2.633842 6.038423,-5.105774 6.913632,-5.49318 0.875211,-0.387408 1.591295,-0.854977 1.591295,-1.039043 0,-0.184064 1.508143,-0.754534 3.351426,-1.267704 1.843284,-0.513172 3.954683,-1.232893 4.691996,-1.599383 0.737313,-0.366491 3.029689,-1.218288 5.094168,-1.892881 2.064478,-0.674592 4.11555,-1.52283 4.557938,-1.884971 0.44239,-0.362141 2.191844,-1.085734 3.8876818,-1.607983 3.81086,-1.173591 8.76348305,-0.887641 12.386944,0.715186 2.071454,0.916303 2.732104,1.566625 3.611813,3.555358 0.592152,1.338662 1.354008,2.433931 1.69301,2.433931 0.339005,0 1.55214,0.648486 2.6958512,1.441079 2.009884,1.392852 2.136461,1.412185 3.782418,0.577706 0.93662,-0.474853 3.27141,-1.385175 5.188427,-2.022938 1.917014,-0.637762 3.726785,-1.330954 4.021711,-1.540427 0.294925,-0.209474 1.984043,-0.959438 3.753596,-1.666591 10.88306,-4.349098 25.037419,-12.742745 30.981047,-18.37201 2.380931,-2.254997 3.069438,-2.478359 3.069438,-0.995769 0,1.560873 1.549471,1.805203 3.848531,0.606864 2.85153,-1.486301 3.12243,-1.397153 3.12243,1.027545 0,1.162297 0.25402,2.270255 0.56448,2.462132 0.31047,0.191887 1.93627,-0.336814 3.6129,-1.174866 1.67664,-0.838054 3.2511,-1.610407 3.49883,-1.71634 0.24772,-0.105935 0.38786,1.157309 0.31144,2.807202 -0.0764,1.649893 0.0132,3.151955 0.19914,3.337916 0.18597,0.185969 1.07434,0.08145 1.97417,-0.232222 1.43646,-0.500755 1.63606,-0.450377 1.63606,0.412933 0,0.540798 0.31759,1.595436 0.70577,2.343641 0.51454,0.991774 0.9141,1.228548 1.47463,0.87385 0.42287,-0.26759 1.31178,-0.490222 1.97536,-0.494739 1.11806,-0.0077 1.20652,0.22768 1.20652,3.209158 0,2.876451 0.11542,3.217369 1.08928,3.217369 0.59911,0 1.21983,0.340175 1.37937,0.755948 0.15956,0.415772 0.8666,0.900643 1.57121,1.07749 1.23552,0.310095 1.26941,0.450218 0.95207,3.936046 -0.18098,1.987979 -0.50775,3.735157 -0.72616,3.882619 -0.2184,0.147462 -0.5569,2.439838 -0.75221,5.094168 -0.47352,6.435073 -1.37222,12.744081 -1.9096,13.405693 -0.23955,0.294924 -0.58992,1.501453 -0.77862,2.681148 -1.00833,6.304016 -2.01168,11.382513 -2.43666,12.333253 -0.26367,0.589847 -0.99005,3.002864 -1.61418,5.362272 -0.62412,2.35941 -1.72217,5.56326 -2.44011,7.11968 -0.71795,1.55642 -1.30536,3.07631 -1.30536,3.37754 0,0.63682 -5.84062,0.10579 -6.72945,-0.61178 -0.30956,-0.24993 -1.63673,-0.6155 -2.94926,-0.81238 -1.31253,-0.19679 -3.70395,-0.69008 -5.31428,-1.09597 -1.610319,-0.4059 -3.721718,-0.73802 -4.691995,-0.73802 -0.970271,0 -1.764135,-0.2413 -1.764135,-0.53622 0,-0.66214 -4.114276,-0.71785 -4.52011,-0.0612 -0.161467,0.26126 -2.659636,0.77653 -5.551499,1.14508 l -5.257922,0.67006 -0.916268,2.21532 c -0.503948,1.21842 -2.382895,3.84033 -4.175447,5.82646 -2.68897,2.97934 -3.630908,3.67058 -5.383875,3.95087 -1.803514,0.2884 -2.246765,0.63281 -2.932241,2.2784 -0.910981,2.18696 -4.099962,5.70009 -6.117468,6.73927 -2.342352,1.20653 -5.980949,1.42855 -10.190474,0.62185 l -4.0195702,-0.7703 -1.473529,1.39272 c -0.810438,0.76601 -1.99887,2.15941 -2.640956,3.09649 -1.921181,2.80379 -7.142929,4.0045 -13.044815,2.99961 -2.9987498,-0.51059 -3.2902418,-0.4676 -4.2898258,0.63253 -1.845306,2.03094 -4.731467,3.90303 -7.239079,4.69559 -3.089661,0.97652 -9.472734,0.93357 -11.353418,-0.0764 -7.369914,-3.95776 -9.956052,-5.00584 -12.185554,-4.93843 -1.296878,0.0391 -2.529662,0.34912 -2.73952,0.68867 -0.426397,0.68992 -4.459484,-0.30786 -7.408519,-1.83284 -0.907936,-0.46952 -1.850569,-0.85366 -2.094765,-0.85366 -0.244175,0 -1.393308,1.82084 -2.553628,4.0463 -2.132441,4.09002 -5.21613,7.75071 -6.529019,7.75071 -0.393238,0 -0.714975,0.19273 -0.714975,0.4285 0,0.60661 -2.898489,1.54965 -6.970959,2.26807 -1.917004,0.33817 -3.744429,0.82912 -4.060937,1.091 -0.316488,0.26189 -3.176713,0.97814 -6.356041,1.59168 -3.179327,0.61356 -6.177976,1.32049 -6.663631,1.57099 -0.485676,0.25048 -2.451503,0.85778 -4.368508,1.34955 -1.917025,0.49178 -4.209392,1.21914 -5.094163,1.61637 -0.884789,0.39723 -3.418459,1.16212 -5.630409,1.69972 -2.21195,0.53762 -4.14237,1.11983 -4.28983,1.29382 -0.36622,0.43209 -6.25858,1.56846 -8.13284,1.56846 -0.8356,0 -1.51926,-0.2413 -1.51926,-0.53623 z m 98.013879,-19.85731 c 0.506109,-0.29669 1.885407,-0.8578 3.065108,-1.24692 1.399469,-0.4616 2.395739,-1.21964 2.866638,-2.18114 0.647999,-1.32313 0.609202,-1.57851 -0.379751,-2.49986 -0.60581,-0.5644 -1.413192,-1.02986 -1.794183,-1.03438 -0.380985,-0.004 -1.054659,-0.25316 -1.497046,-0.55252 -1.201051,-0.81276 1.933611,-0.0454 4.557938,1.11581 2.910175,1.28768 8.9537768,1.73748 12.6013608,0.93789 2.38502405,-0.52282 3.449978,-1.14637 5.566557,-3.25934 3.105528,-3.10022 2.896635,-3.60878 -2.129941,-5.1854 -1.84426995,-0.57848 -2.64271895,-1.01428 -1.91046195,-1.04273 1.46731295,-0.057 6.57366895,1.3064 9.01133395,2.40614 0.9993802,0.45086 3.4109862,0.7623 5.9027782,0.7623 4.851986,0 8.064936,-1.34375 11.577655,-4.84214 3.073765,-3.06122 2.772766,-3.56071 -2.413027,-4.0043 -2.433135,-0.20814 -5.147792,-0.68966 -6.032567,-1.07007 -0.884778,-0.38041 -2.815199,-0.9967 -4.289826,-1.36955 -3.128468,-0.791 -4.7808762,-1.58613 -6.8862372,-3.31358 l -1.523948,-1.25042 2.413939,0.0162 c 1.722476,0.0101 2.2715212,0.18827 1.916747,0.61812 -0.839826,1.01766 1.7425952,2.22599 6.7710702,3.16826 3.374816,0.63236 4.79833,0.71278 5.062138,0.28594 0.263384,-0.42617 1.415942,-0.44224 4.081962,-0.057 6.87099,0.9931 7.772133,0.8409 10.305748,-1.74068 2.491485,-2.53863 4.56004,-6.11975 3.804624,-6.58662 -0.674871,-0.41709 -3.40973,0.41144 -6.476414,1.96204 -0.688169,0.34796 -0.996361,0.17105 -1.277216,-0.73285 -0.367947,-1.18426 -3.584608,-4.67695 -4.307342,-4.67695 -0.207976,0 -1.136605,-0.5785 -2.063621,-1.28557 -1.823406,-1.39079 -5.037327,-2.46026 -7.407783,-2.46502 -1.350732,-0.002 -1.452068,0.13011 -1.121955,1.47162 0.347626,1.41264 0.269144,1.38147 -1.866583,-0.74124 -1.226209,-1.21875 -2.229471,-2.43825 -2.229471,-2.71001 0,-2.015035 -12.70264315,-9.820382 -15.9819452,-9.820382 -1.203077,0 -5.46718,3.699295 -5.46718,4.74302 0,0.759461 1.419922,0.822268 1.876799,0.08309 0.507627,-0.821356 5.95957605,-0.63713 8.142978,0.275143 2.878768,1.20284 1.865918,1.471437 -1.90531995,0.505294 -3.76048705,-0.963386 -5.25156105,-0.693593 -6.06784605,1.097959 -0.444994,0.976661 -0.350129,1.697636 0.434861,3.304926 0.947246,1.93952 1.140438,2.05407 3.417038,2.02577 1.327165,-0.0162 2.89563105,-0.2262 3.48548305,-0.46599 0.58985195,-0.23982 0.18037495,0.19598 -0.909953,0.96837 -1.09032205,0.77243 -2.23651005,1.40439 -2.54708405,1.40439 -1.173266,0 -0.446196,1.00611 3.47427605,4.80757 2.22142095,2.15399 3.94492995,4.01037 3.83000995,4.12529 -0.114913,0.11491 -0.514173,-0.1589 -0.887238,-0.60835 -0.373064,-0.44952 -1.003486,-0.81731 -1.400934,-0.81731 -0.397446,0 -1.242918,-0.70372 -1.87882995,-1.56383 -0.635908,-0.86013 -1.607703,-1.68193 -2.15953605,-1.82623 -0.551831,-0.1443 -1.188361,-0.76254 -1.414499,-1.37387 -0.433241,-1.17116 -7.2783748,-5.96064 -8.5189658,-5.96064 -0.398658,0 -0.724835,-0.19273 -0.724835,-0.4285 0,-0.71137 -3.4132,-1.7164 -5.829155,-1.7164 -3.831188,0 -7.576549,2.81906 -7.576549,5.70272 0,1.55029 0.594827,1.61235 1.876799,0.19577 0.533809,-0.58984 1.275006,-1.07246 1.647106,-1.07246 0.372104,0 0.7773,-0.30163 0.90044,-0.67029 0.142962,-0.42801 1.224552,-0.65614 2.992521,-0.63115 2.247933,0.0318 3.147086,0.34464 4.780909,1.66347 2.968763,2.3964 2.896013,3.56328 -0.416043,6.67279 -1.533265,1.43952 -3.242931,2.61729 -3.799257,2.61729 -1.161621,0 -1.234167,0.41105 -0.443353,2.51218 0.631172,1.67696 4.151423,5.53124 5.051895,5.53124 0.316987,0 0.989562,0.48261 1.494608,1.07246 0.797355,0.93124 0.80882,1.07244 0.08707,1.07244 -1.36031,0 -6.729262,-5.45169 -7.789319,-7.90935 -0.540642,-1.25343 -1.217967,-2.27897 -1.505171,-2.27897 -0.730859,0 -3.578724,-2.7639 -3.958631,-3.84192 -0.173021,-0.49095 -0.907842,-1.21487 -1.632928,-1.60867 -0.725089,-0.39381 -2.851957,-1.66239 -4.726381,-2.81907 -2.804037,-1.73032 -3.887015,-2.10013 -6.110661,-2.08663 -2.322014,0.0142 -2.975729,0.27248 -4.641853,1.83492 -1.914265,1.7951 -3.116778,4.90633 -2.131664,5.51517 0.278775,0.17227 0.812622,-0.0551 1.186325,-0.50544 0.373703,-0.45029 1.623003,-1.566 2.776219,-2.47937 1.740291,-1.37833 2.296048,-1.56651 3.268954,-1.10685 0.644702,0.30457 2.058445,0.94281 3.141647,1.41831 1.466435,0.64372 2.062371,1.28754 2.33322,2.5207 0.22934,1.04417 0.123283,1.88427 -0.286989,2.27346 -0.502682,0.47683 -0.57555,0.36717 -0.320256,-0.48199 0.241758,-0.80417 -0.16027,-1.57494 -1.497413,-2.87097 -1.641415,-1.59091 -2.043569,-1.73521 -3.94206,-1.41447 -2.287329,0.38645 -6.031268,3.09924 -6.031268,4.37015 0,0.4313 0.389704,1.37894 0.866015,2.10588 0.485935,0.74164 0.616952,1.3217 0.298517,1.3217 -0.753679,0 -2.236989,-2.15737 -2.236989,-3.25356 0,-1.66509 -1.96654,-2.75432 -5.47043,-3.02999 -2.901651,-0.22826 -3.58503,-0.10113 -4.851954,0.90293 -0.81104,0.64275 -1.474639,1.64742 -1.474639,2.23258 0,0.99237 0.08026,1.00778 1.191774,0.2292 1.781865,-1.24807 4.919706,-1.06137 6.610913,0.39334 1.791544,1.54102 3.168669,5.1456 2.119667,5.54814 -0.385435,0.14795 -0.807655,0.67759 -0.938269,1.17704 -0.13062,0.49948 -1.360906,1.48593 -2.733979,2.19213 -1.373082,0.7062 -2.496496,1.4746 -2.496496,1.70755 0,0.23295 0.600954,1.5538 1.335467,2.93523 2.032173,3.82199 6.03725,8.20619 8.516055,9.32218 1.217479,0.54812 4.105206,1.86269 6.417166,2.92127 2.311963,1.05858 4.495751,1.92469 4.852864,1.92469 0.357116,0 0.878539,0.21789 1.158719,0.48417 0.280179,0.26631 0.992021,0.61328 1.581873,0.77108 1.496087,0.40021 6.549689,-0.0853 7.659455,-0.73589 z m -9.683657,-12.47579 c -1.882638,-1.04409 -3.418814,-2.34806 -3.918401,-3.32606 -0.451959,-0.88479 -1.740441,-2.57389 -2.863287,-3.75361 -2.157139,-2.26637 -4.034242,-5.58991 -3.456269,-6.11961 0.18911,-0.17328 0.451575,-0.0142 0.583238,0.35516 0.395849,1.1084 2.883322,0.7578 4.75562,-0.67029 0.96667,-0.73731 1.93639,-1.34057 2.154942,-1.34057 0.82535,0 -2.14138,2.65713 -3.896792,3.49012 l -1.832115,0.86941 3.430204,4.12091 c 1.88661,2.2665 4.711991,5.02582 6.278619,6.13178 3.470816,2.45025 2.93454,2.5556 -1.235759,0.24276 z m 26.7468168,-2.96715 c -0.151394,-0.24499 -1.632188,-0.74909 -3.290617,-1.12022 -1.658436,-0.37114 -2.9053148,-0.78483 -2.770847,-0.9193 0.340419,-0.34042 5.132229,0.82391 7.077798,1.71979 1.378,0.63451 1.440208,0.74249 0.433821,0.75295 -0.646178,0.006 -1.298745,-0.18828 -1.450155,-0.43322 z m -4.868469,-4.57242 c -0.914965,-0.66903 -0.82554,-0.75978 1.104024,-1.12043 1.154805,-0.21584 2.401268,-0.64169 2.769925,-0.94634 0.463268,-0.38282 0.670284,-0.37778 0.670284,0.0162 0,0.31363 -0.245237,0.7218 -0.544974,0.90706 -0.299735,0.18524 -0.421775,0.53616 -0.271198,0.77979 0.283242,0.4583 -0.920289,1.09159 -2.074452,1.09159 -0.361893,0 -1.106018,-0.32759 -1.653609,-0.728 z m 10.990898,-20.5214 c 0.0065,-0.25731 0.47952,-1.07108 1.051032,-1.80839 0.987502,-1.273978 1.023987,-1.281517 0.734472,-0.1516 -0.305114,1.19078 -1.807946,2.84051 -1.785504,1.96001 z m -48.3671128,35.86163 c -1.72896,-3.77851 -2.830105,-5.54208 -4.412112,-7.06637 -1.049278,-1.01097 -2.172327,-2.63976 -2.495685,-3.61952 -0.323358,-0.97979 -0.870828,-1.78232 -1.216601,-1.78343 -0.661126,-0.002 -2.505514,-3.97535 -2.505514,-5.39746 0,-0.45665 -0.354266,-1.29868 -0.787288,-1.87116 -1.195219,-1.58025 -1.01908,-2.43063 1.529664,-7.3844 1.475429,-2.86771 2.587717,-5.92869 2.986549,-8.21889 0.349523,-2.00716 0.824072,-3.895159 1.054567,-4.195595 0.540376,-0.704376 1.508992,-6.826415 1.97819,-12.503211 l 0.367804,-4.449798 1.863027,-0.778431 c 1.024668,-0.428138 2.436814,-0.778431 3.138109,-0.778431 0.701299,0 1.275085,-0.215518 1.275085,-0.478927 0,-0.263409 1.387492,-0.745335 3.083312,-1.070943 6.565047,-1.260501 7.647584,-1.541431 8.42452,-2.18623 0.584675,-0.485238 0.66021,-0.932911 0.277922,-1.647226 -0.811438,-1.516178 -0.627028,-1.689697 0.547493,-0.515174 0.589852,0.589852 1.543184,1.072457 2.118521,1.072457 1.561093,0 6.575501,-1.062232 7.8017,-1.652682 0.589852,-0.284028 2.87815,-1.062935 5.085104,-1.730903 l 4.01265,-1.214488 0.433046,-2.583002 c 0.371016,-2.213017 2.9052248,-6.568702 3.4846568,-5.989269 0.102084,0.102084 -0.219724,1.579864 -0.715119,3.283969 -0.791601,2.723015 -0.819962,3.688193 -0.234075,7.967001 0.366657,2.677745 0.999004,5.569289 1.405219,6.425646 0.406209,0.856357 0.738562,1.852333 0.738562,2.213306 0,0.91728 1.376021,1.972293 3.960608,3.036629 1.468821,0.604865 1.831596,0.918455 1.085578,0.938397 -0.640235,0.01621 -1.369134,0.575783 -1.700706,1.303506 -0.694281,1.523786 -3.884077,2.268635 -4.580621,1.069605 -0.323861,-0.557481 -0.691413,-0.602089 -1.480693,-0.179767 -0.5774418,0.309029 -1.4694468,0.491593 -1.9822248,0.405702 -0.644226,-0.10782 -0.987792,0.258099 -1.111799,1.184397 -0.0987,0.73733 -0.400332,1.569813 -0.670287,1.850002 -0.757009,0.785687 -0.547735,5.805208 0.288015,6.90799 0.717407,0.946646 0.765952,0.943018 1.323513,-0.0987 0.318336,-0.594813 0.578794,-1.376203 0.578794,-1.736406 0,-1.090561 2.6359838,-4.190747 4.2909108,-5.046537 2.364167,-1.222559 5.89115905,-1.007304 8.795188,0.536789 1.386691,0.73731 2.822282,1.340574 3.190192,1.340574 0.367907,0 2.065229,1.244508 3.771818,2.765559 l 3.1028962,2.765559 1.301195,-1.559051 c 2.343488,-2.807876 2.577498,-3.479156 1.326869,-3.806203 -0.611916,-0.160108 -1.112577,-0.597366 -1.112577,-0.971899 0,-0.856519 -3.003043,-1.338709 -3.7410592,-0.60069 -0.374202,0.374188 -0.548765,0.344051 -0.548765,-0.09465 0,-0.976499 -1.485196,-0.768906 -2.078051,0.290465 -0.888079,1.586917 -1.168066,0.445162 -0.568821,-2.319606 1.167091,-5.38471 1.206476,-5.752595 0.574001,-5.361707 -0.790818,0.488756 -0.770024,0.294518 0.222932,-2.081957 0.540163,-1.292784 1.091305,-1.889543 1.574038,-1.704303 0.458765,0.176119 0.962095,-0.267341 1.3161782,-1.159449 l 0.573334,-1.444502 -0.274201,1.608684 c -0.150805,0.884792 -0.424798,2.392932 -0.6088532,3.351434 -0.342667,1.784459 0.01561,2.102366 1.3895772,1.23318 0.668503,-0.422889 0.674542,-0.689379 0.04242,-1.870533 -0.664209,-1.241083 -0.621964,-1.499993 0.426951,-2.616516 1.790368,-1.905756 1.59531,-5.114187 -0.428817,-7.053422 l -1.5929192,-1.526117 1.3861012,-0.71912 c 2.337038,-1.212469 3.267426,-0.882581 4.777348,1.693906 0.777766,1.327165 1.629259,2.413027 1.892206,2.413027 1.264382,0 2.297367,4.155196 2.332864,9.383993 0.04757,7.003527 -1.145673,10.733304 -4.489201,14.032328 -2.128702,2.10036 -2.294536,2.43515 -1.566707,3.16299 0.796809,0.7968 6.659385,1.87546 10.918367,2.00888 1.400085,0.0438 3.355255,-0.50911 5.630395,-1.59241 5.668086,-2.698803 8.154725,-3.76924 10.992676,-4.732099 1.474627,-0.500309 3.100144,-1.129555 3.612262,-1.398335 0.51212,-0.268779 1.296354,-0.488675 1.742742,-0.488675 0.454132,0 0.81162,-0.47238 0.81162,-1.072463 0,-0.595806 -0.357488,-1.072463 -0.804342,-1.072463 -0.44239,0 -0.804342,-0.127073 -0.804342,-0.282399 -1.2e-5,-0.599372 3.422775,-4.007412 4.024751,-4.007412 0.999411,0 2.577954,-1.977805 1.908676,-2.391452 -0.91096,-0.562994 -0.661634,-1.362158 0.424977,-1.362158 1.090587,0 1.296799,-1.979792 2.010722,-19.304202 0.176241,-4.276419 0.53699,-8.004545 0.801694,-8.284723 0.722782,-0.765042 0.580466,-1.367382 -0.323069,-1.367382 -0.442387,0 -0.804342,0.376196 -0.804342,0.835989 0,0.459793 -0.241301,0.686855 -0.536227,0.504582 -0.299602,-0.185158 -0.536228,0.226797 -0.536228,0.933564 0,0.695734 -0.235312,1.500285 -0.522924,1.787892 -0.287607,0.287608 -0.655851,5.691034 -0.818316,12.007613 -0.16248,6.316587 -0.439407,11.619155 -0.615424,11.78352 -0.176018,0.164364 -0.207349,-5.192499 -0.06964,-11.90411 0.201047,-9.798086 0.108346,-12.320801 -0.470342,-12.801076 -0.396402,-0.328982 -0.720727,-1.15762 -0.720727,-1.841414 0,-2.413473 -1.703218,-2.097317 -6.640151,1.232558 -1.440138,0.97135 -3.19015,1.909583 -3.888916,2.084961 -0.698763,0.175389 -2.165486,0.775174 -3.259392,1.332878 -1.093905,0.557704 -2.307427,1.014007 -2.696712,1.014007 -0.389286,0 -0.846684,0.361955 -1.016441,0.804342 -0.169756,0.44239 -0.568612,0.804342 -0.886328,0.804342 -0.651098,0 -5.329013,2.165935 -5.742327,2.658773 -0.744677,0.887951 -10.724563,3.23725 -10.724563,2.524598 0,-0.173789 0.942368,-0.569733 2.094153,-0.879877 1.151782,-0.310142 2.659922,-1.058637 3.351426,-1.66332 l 1.257273,-1.099424 -2.144912,0.34381 c -1.179703,0.18909 -2.37415,0.566334 -2.65433,0.838309 -0.636674,0.618031 -1.90361,0.647543 -1.90361,0.04434 0,-0.611959 2.151261,-1.546755 4.629505,-2.011675 1.124137,-0.210891 3.171419,-0.949765 4.549519,-1.641944 1.378096,-0.69218 2.64627,-1.258507 2.818164,-1.258507 0.171883,0 2.067273,-0.814146 4.211954,-1.809211 9.113856,-4.228555 11.244102,-5.161754 11.7829,-5.161754 0.313265,0 1.394986,-0.510129 2.403819,-1.133622 1.008829,-0.623493 1.961141,-1.006719 2.11624,-0.851617 0.333283,0.333281 -3.806146,2.780603 -5.621934,3.323813 -0.693997,0.207616 -2.115162,0.956581 -3.15814,1.664365 -1.042981,0.707786 -2.264831,1.286884 -2.715214,1.286884 -0.450389,0 -0.660478,0.158406 -0.466866,0.35202 0.352875,0.352875 2.509805,-0.438652 7.702332,-2.826521 1.529795,-0.703502 3.005393,-1.279094 3.279109,-1.279094 1.07205,0 3.32441,-2.285222 3.341597,-3.390345 0.0099,-0.642176 1.25448,-2.716194 2.765542,-4.608927 l 2.747388,-3.441336 1.256168,1.460381 c 1.015637,1.180749 1.256168,2.076588 1.256168,4.67851 0,3.703225 -0.893731,7.867784 -1.95237,9.097537 -1.001083,1.162889 -1.053876,15.301284 -0.05849,15.661759 0.516195,0.186942 0.528254,0.484409 0.05245,1.293986 -0.339806,0.578186 -0.791622,2.674113 -1.004037,4.657633 -0.3479,3.2486 -0.271976,3.727973 0.765298,4.832092 0.633334,0.674158 1.360342,2.289612 1.615575,3.589915 0.387318,1.973204 0.473779,1.409663 0.522812,-3.407533 0.03522,-3.462983 0.316579,-6.184583 0.703306,-6.803817 0.510892,-0.818073 0.488231,-1.324178 -0.109279,-2.440628 -0.514951,-0.962191 -0.573577,-1.524928 -0.185016,-1.775834 0.361518,-0.233442 0.702598,-5.545864 0.935926,-14.577341 0.201919,-7.815524 0.54853,-15.734756 0.770256,-17.598292 0.221717,-1.863539 0.202588,-3.512193 -0.04252,-3.663678 -0.245104,-0.151495 -1.343814,0.528668 -2.441564,1.511452 -1.097754,0.982705 -3.50602,2.75201 -5.351701,3.931711 -1.845676,1.179701 -4.98024,3.328332 -6.96569,4.774731 -1.985454,1.4464 -4.454473,2.980559 -5.486713,3.409242 -1.032239,0.428683 -3.374874,1.477314 -5.205862,2.330293 -1.830984,0.852976 -3.701954,1.550867 -4.15771,1.550867 -0.455756,0 -1.729084,0.482605 -2.829622,1.072454 -1.100533,0.589852 -2.346985,1.072457 -2.769893,1.072457 -0.422911,0 -2.020781,0.706502 -3.550821,1.570005 -1.530047,0.863503 -3.721279,1.740832 -4.869412,1.949622 -2.248147,0.408826 -6.344716,2.448743 -7.8283742,3.898194 -0.70596,0.68968 -0.984434,2.220911 -1.219789,6.707159 -0.345289,6.581731 -1.064579,8.810339 -3.374431,10.455098 -1.429955,1.018209 -1.600506,1.042306 -1.535296,0.216998 0.05723,-0.724278 -0.489861,-0.993889 -2.48774395,-1.226005 -4.25534205,-0.494411 -6.23977005,-3.485399 -6.27386905,-9.456164 -0.01034,-1.78989 0.271139,-2.463392 1.400091,-3.351426 2.259633,-1.777428 7.387583,-1.33836 8.887177,0.760941 0.942088,1.318843 1.725061,-1.044416 1.909036,-5.762092 0.172734,-4.429314 0.05533,-5.21529 -1.100973,-7.371014 -2.443221,-4.554941 -8.99203,-6.398206 -14.342868,-4.037014 -1.3176088,0.581426 -2.5737218,1.339043 -2.7913668,1.683588 -0.645838,1.022414 -7.075294,3.908654 -10.70802,4.806925 -5.685412,1.405841 -8.567477,3.081364 -13.697383,7.963134 -2.657306,2.528769 -5.043537,4.597761 -5.302739,4.597761 -0.259207,0 -0.763488,0.467895 -1.120631,1.039766 -0.357139,0.571871 -1.519617,1.452739 -2.583285,1.957482 -1.063667,0.504745 -3.819149,2.691185 -6.123271,4.858749 -2.304143,2.167564 -4.294858,3.941018 -4.423796,3.941018 -0.128897,0 -0.128289,-0.723913 0.0016,-1.608684 0.214059,-1.458466 0.09688,-1.608684 -1.255452,-1.608684 -0.820363,0 -2.987056,0.260429 -4.814886,0.578741 -2.911197,0.506956 -3.625544,0.889311 -5.76062,3.083303 -2.971592,3.053633 -6.152947,8.906163 -7.172452,13.194697 -0.416181,1.750614 -1.009656,3.487752 -1.318848,3.860292 -0.777113,0.93637 -0.902079,11.62866 -0.147137,12.58248 0.326945,0.41304 0.731168,1.642 0.898249,2.73104 0.408438,2.66186 2.378501,7.02226 2.999357,6.63852 0.274211,-0.16943 0.383977,-0.8508 0.243892,-1.51409 -0.235522,-1.11533 -0.206864,-1.13061 0.381119,-0.20326 0.514394,0.8113 0.724622,0.8625 1.10114,0.26813 0.382943,-0.60454 0.467679,-0.5922 0.478481,0.0697 0.01824,1.08126 2.648538,6.38569 2.659604,5.36227 0.0041,-0.44238 -0.339045,-1.76954 -0.764041,-2.94925 -0.424997,-1.1797 -0.761306,-2.62752 -0.747362,-3.21737 0.01419,-0.58985 0.472603,0.35337 1.019201,2.09604 0.546619,1.74269 1.338385,3.51306 1.759491,3.93417 0.663396,0.66339 0.814688,0.5043 1.132736,-1.19109 0.462187,-2.46364 1.661601,-2.36366 3.059672,0.25504 1.046339,1.95993 6.747861,8.04342 7.538371,8.04342 0.250499,0 1.412034,0.63304 2.58115,1.40673 1.169136,0.77369 2.913406,1.59354 3.876162,1.82191 2.408031,0.57116 2.671334,0.58429 2.460157,0.12282 z M -66.548971,125.5059 c -0.183821,-0.47923 -0.319062,-1.15322 -0.300376,-1.49776 0.01824,-0.34454 0.265172,-0.0484 0.547753,0.65794 0.282561,0.70641 0.417721,1.38038 0.300355,1.49775 -0.117345,0.11734 -0.363831,-0.17876 -0.547732,-0.65793 z m -1.364489,-3.24132 c 0.02574,-0.62469 0.152812,-0.75174 0.323966,-0.32399 0.154839,0.3871 0.135788,0.84959 -0.04236,1.02778 -0.178146,0.17814 -0.304915,-0.13843 -0.281628,-0.70379 z m 6.3924,-18.22539 c 0,-0.16862 0.361966,-0.66836 0.804352,-1.11074 0.873016,-0.87302 0.982336,-0.74311 0.478846,0.56897 -0.305909,0.7972 -1.283198,1.20983 -1.283198,0.54177 z m 92.499356,-6.455203 c 1.179701,-0.448831 2.567192,-0.948977 3.083311,-1.111457 0.516121,-0.16254 0.938399,-0.480447 0.938399,-0.706585 0,-0.226158 0.542932,-0.541126 1.206515,-0.699917 0.663582,-0.158892 2.654328,-0.660964 4.423881,-1.115874 4.636916,-1.192058 5.986836,-0.972993 1.876799,0.30457 -1.917015,0.595887 -3.968089,1.300223 -4.557939,1.565172 -1.937666,0.870422 -7.490415,2.601052 -8.311536,2.590493 -0.442388,-0.0061 0.160858,-0.377572 1.34057,-0.826402 z M 9.6033688,95.497855 c -0.169755,-0.442386 -0.07493,-0.804352 0.210743,-0.804352 0.2856702,0 0.5194002,0.361966 0.5194002,0.804352 0,0.442385 -0.09483,0.804332 -0.210743,0.804332 -0.115907,0 -0.3496362,-0.361947 -0.5194002,-0.804332 z M 25.381892,92.915509 c -0.05952,-1.705277 1.01316,-3.128357 2.098454,-2.783901 1.617592,0.513421 1.779634,-0.676265 0.308251,-2.263082 -0.752531,-0.811587 -1.36824,-1.651467 -1.36824,-1.866418 0,-0.214951 -0.350763,-0.256214 -0.779473,-0.09161 -0.428709,0.164567 -1.32696,-0.08431 -1.996114,-0.553063 -0.669148,-0.468692 -0.981967,-0.859499 -0.695156,-0.868457 0.286819,-0.0081 0.09921,-0.262274 -0.416912,-0.562872 -1.129563,-0.657924 -1.2332,-1.565739 -0.178734,-1.565739 0.417808,0 0.847902,-0.264746 0.955762,-0.588327 0.141808,-0.425423 0.793366,-0.42749 2.353227,-0.0081 2.229841,0.600427 4.978985,0.156258 6.416281,-1.03653 0.400889,-0.332721 1.000045,-0.437339 1.331455,-0.232522 0.331415,0.204837 0.958926,-0.136396 1.394466,-0.758164 0.483057,-0.689682 1.374182,-1.130609 2.284949,-1.130609 0.82118,0 2.677595,-0.359332 4.125364,-0.798535 3.038757,-0.921832 5.801918,-1.06428 5.313447,-0.273907 -0.18228,0.294923 -1.011605,0.536221 -1.842957,0.536221 -2.966414,0 -7.516343,2.615381 -4.757486,2.734692 0.714481,0.03081 -0.122615,0.489263 -1.979208,1.083732 -1.769552,0.566601 -3.977745,1.387066 -4.907092,1.82325 -0.929348,0.436184 -2.029414,0.793063 -2.444596,0.793063 -0.415179,0 -1.180783,0.311441 -1.701354,0.692094 -0.813576,0.594894 -0.85353,0.89608 -0.284527,2.144906 0.36407,0.799062 0.907725,1.452832 1.208121,1.452832 1.016099,0 8.128109,-2.409774 8.30819,-2.815091 0.09831,-0.221254 0.460265,-0.403636 0.804342,-0.405277 1.907664,-0.0081 4.554753,-1.193842 4.804919,-2.150479 0.334013,-1.27726 1.451077,-1.425472 1.451077,-0.192536 0,0.692398 0.357933,0.804474 1.742741,0.545686 1.626347,-0.303922 1.673225,-0.27259 0.701853,0.469199 -0.572487,0.437177 -1.309843,0.794867 -1.638562,0.794867 -0.935927,0 -4.196934,2.579833 -4.931116,3.901093 l -0.662967,1.193091 -0.01905,-1.206528 c -0.02215,-1.405833 0.08583,-1.374197 -2.095219,-0.613884 -0.935011,0.325952 -1.936566,1.034645 -2.225685,1.574858 -0.403196,0.753361 -0.937326,0.915415 -2.292526,0.695499 -1.232671,-0.200034 -1.980918,-0.02878 -2.474879,0.566379 -0.526892,0.63486 -1.238769,0.768236 -2.782698,0.521366 -1.836071,-0.293607 -2.133324,-0.18524 -2.584544,0.942065 -0.394783,0.986329 -0.517531,1.054081 -0.543848,0.300173 z m 0.0043,-15.333787 c 0.713323,-1.476528 1.407686,-2.192421 2.126423,-2.192421 0.586967,0 1.486221,-0.226345 1.998341,-0.502988 2.086736,-1.127246 7.070929,-3.250608 7.630188,-3.250608 0.329367,0 1.611151,-0.4506 2.8484,-1.00133 1.237257,-0.550733 2.85281,-1.143446 3.590123,-1.317141 1.232283,-0.290299 1.340569,-0.166108 1.340569,1.537557 0,1.045184 -0.270392,1.853369 -0.620083,1.853369 -0.343723,0 -0.502145,-0.451005 -0.355455,-1.011938 0.384224,-1.469285 -0.698077,-1.872464 -1.593756,-0.593706 -0.454914,0.649486 -1.10094,0.964862 -1.591133,0.776756 -0.453889,-0.174173 -0.984557,-0.05894 -1.179261,0.256103 -0.194704,0.315033 -1.18432,0.572785 -2.199152,0.572785 -1.815514,0 -2.151681,0.447787 -1.891497,2.519561 0.04441,0.35352 -0.774238,0.803155 -1.819186,0.999188 -1.044953,0.196042 -2.028262,0.564103 -2.185136,0.817931 -0.156886,0.253829 -1.421051,0.80627 -2.809276,1.227659 -1.388225,0.421389 -2.934756,0.931649 -3.436736,1.133912 -0.817801,0.329499 -0.802561,0.139842 0.14657,-1.824689 z m 9.077597,-2.72865 c 0,-0.294924 -0.241302,-0.536228 -0.536228,-0.536228 -0.294926,0 -0.536229,0.241304 -0.536229,0.536228 0,0.294925 0.241303,0.536229 0.536229,0.536229 0.294926,0 0.536228,-0.241304 0.536228,-0.536229 z m 2.044369,0.169917 c 0.387088,-0.1549 0.84959,-0.135849 1.027773,0.04234 0.178186,0.178186 -0.138524,0.304921 -0.7038,0.281637 -0.624679,-0.02572 -0.751738,-0.152793 -0.323973,-0.323971 z m 3.854134,-1.242372 c 0,-0.294926 0.361953,-0.53623 0.804342,-0.53623 0.442388,0 0.804343,0.241304 0.804343,0.53623 0,0.294926 -0.361955,0.536227 -0.804343,0.536227 -0.442389,0 -0.804342,-0.241301 -0.804342,-0.536227 z M -60.100307,134.74106 c 0.825409,-0.82539 -0.764204,-1.43934 -3.731358,-1.44114 -2.371185,-0.002 -3.821463,-0.30787 -5.075477,-1.07244 -2.403369,-1.46534 -3.246675,-1.34455 -1.748283,0.25041 1.673559,1.78144 5.147831,2.98244 7.954349,2.74969 1.267998,-0.10518 2.43835,-0.32408 2.600769,-0.48652 z m -10.536658,-0.20328 c 0,-0.20506 -0.572033,-0.98929 -1.27116,-1.74273 -2.972078,-3.20298 -3.760805,-6.13375 -0.873766,-3.24671 1.853022,1.853 1.170332,0.45943 -1.340574,-2.73654 -1.327157,-1.68927 -2.413016,-3.43362 -2.413016,-3.87635 0,-0.44271 -0.250337,-0.88838 -0.556286,-0.99036 -0.801535,-0.26718 -2.122024,-9.0854 -2.113512,-14.11398 0.0081,-4.88049 1.144471,-10.969192 2.374692,-12.725582 0.457241,-0.652776 0.831327,-1.607225 0.831327,-2.12099 0,-1.263783 4.381904,-8.397241 6.261841,-10.193901 0.832401,-0.795536 3.166965,-2.323862 5.187877,-3.396285 3.700917,-1.963922 5.678398,-2.193197 10.803752,-1.252615 1.663689,0.305321 1.414791,-1.804521 -0.268111,-2.272638 -3.202229,-0.890742 -9.624016,-0.274271 -12.869474,1.235427 -1.909303,0.888148 -9.072432,7.60498 -11.646429,10.920805 -0.930574,1.198767 -2.206962,3.732452 -2.836412,5.630406 -0.629428,1.897933 -1.428815,4.030253 -1.776392,4.738499 -0.400778,0.816655 -0.630949,4.249274 -0.629206,9.383994 0.002,6.713 0.161932,8.37114 0.935094,9.70498 0.512793,0.88478 0.933837,1.97167 0.935661,2.41531 0.0041,1.24467 4.056317,9.30854 6.021921,11.98655 0.966184,1.31633 2.239289,2.50272 2.829136,2.63642 1.780953,0.40367 2.413037,0.40793 2.413037,0.0162 z m 20.191719,-13.03287 c 1.310988,-0.88477 2.638984,-1.60868 2.951094,-1.60868 0.832495,0 0.02085,-2.7459 -1.058963,-3.58258 -1.912195,-1.48163 -5.186737,-1.51104 -6.932425,-0.0622 -1.084786,0.9003 -0.778168,3.13794 0.694587,5.06883 0.752327,0.98635 1.501553,1.79336 1.664985,1.79336 0.163351,0 1.369738,-0.72391 2.680722,-1.60869 z m 33.67162,-8.51584 c 2.660195,-1.01028 5.338677,-3.43471 4.980793,-4.50837 -0.105044,-0.31515 -0.659234,-0.82186 -1.231534,-1.12603 -0.572295,-0.30418 -1.694353,-0.98501 -2.493456,-1.51294 -2.143217,-1.41595 -4.178665,-1.19949 -6.468331,0.68784 -2.433419,2.00583 -2.499569,3.1071 -0.334741,5.57268 1.932207,2.20068 2.041689,2.21817 5.547269,0.88682 z m 95.164801,-4.17664 c 0.29885,-1.08235 0.83821,-3.31441 1.19857,-4.9601 0.36035,-1.64571 0.79222,-3.11285 0.9597,-3.26031 0.16749,-0.14754 0.86023,-3.037664 1.53945,-6.42266 0.67923,-3.385016 1.42171,-6.280648 1.64997,-6.434737 0.22826,-0.154028 0.97059,-3.175821 1.64963,-6.714927 0.67904,-3.539105 1.428,-6.917342 1.66436,-7.507194 0.23637,-0.589852 0.72481,-4.774599 1.08543,-9.29944 0.55829,-7.004834 0.5434,-8.297993 -0.1002,-8.704989 -1.4688,-0.928839 -1.81765,-0.09144 -1.93355,4.641425 -0.12146,4.960263 -1.04692,11.646522 -1.81003,13.077087 -0.2412,0.45218 -0.69379,2.511264 -1.00576,4.575743 -0.62418,4.130554 -1.79619,9.736071 -2.29837,10.992679 -0.58788,1.471052 -1.03676,3.978694 -1.46195,8.16711 -0.26646,2.624785 -0.79017,4.668543 -1.42769,5.571553 -0.55378,0.78439 -1.18784,1.75426 -1.40903,2.15528 -0.2212,0.40102 -0.58315,1.05722 -0.80435,1.45824 -0.22119,0.40102 -0.86569,1.38683 -1.43222,2.19069 -0.86763,1.23107 -0.90991,1.53759 -0.26812,1.9438 0.41907,0.26523 1.41419,0.48596 2.21137,0.49046 1.21568,0.006 1.53704,-0.30913 1.99279,-1.95971 z m -128.111941,-0.043 c 0.0016,-0.51612 0.3598,-1.62194 0.795528,-2.45736 1.229341,-2.35702 2.504396,-10.713563 2.099924,-13.762636 -0.406777,-3.06642 0.255926,-5.147566 2.604266,-8.178378 1.641904,-2.119086 2.540392,-2.545805 2.540392,-1.206529 0,0.446865 0.476649,0.804353 1.072457,0.804353 0.974568,0 1.071731,0.354852 1.064553,3.887655 -0.0087,4.283123 -0.730836,6.294227 -2.548699,7.098113 -0.658348,0.291134 -1.229856,1.015047 -1.270019,1.608684 -0.06404,0.946687 -0.101598,0.931061 -0.305408,-0.127073 -0.524572,-2.723505 -1.956472,-0.833152 -2.538628,3.351434 -0.45833,3.294507 -1.39136,6.747517 -2.062869,7.634417 -0.667308,0.88135 -0.08889,2.2858 0.941391,2.2858 0.478262,0 0.843487,-0.50383 0.874621,-1.20653 0.05223,-1.17827 0.06194,-1.17619 0.41585,0.0896 l 0.362399,1.29611 0.919991,-1.40407 c 1.767696,-2.69785 3.753886,-4.09513 6.268786,-4.41006 2.854423,-0.35744 10.337507,-3.90626 10.051069,-4.766646 -0.260687,-0.783052 -2.035028,-1.104364 -2.456675,-0.444879 -0.182807,0.285925 -1.961164,0.889048 -3.95191,1.340275 -3.503308,0.79405 -3.61954,0.7871 -3.61954,-0.216273 0,-0.573878 -0.538603,-1.253143 -1.206512,-1.521618 l -1.206515,-0.484946 1.230885,-0.03405 c 1.513809,-0.04175 3.671597,-2.125388 4.66615,-4.505694 0.850013,-2.03437 1.58923,-2.735908 3.486958,-3.309238 l 1.34057,-0.405009 -1.072457,1.234659 c -0.989008,1.138574 -0.99556,1.206529 -0.08425,0.873321 0.543522,-0.198818 1.569059,-0.507118 2.278971,-0.685285 1.56157,-0.391921 1.713033,-1.280158 0.218297,-1.280158 -0.58985,0 -1.072455,-0.241297 -1.072455,-0.536221 0,-0.294924 0.482605,-0.536221 1.072455,-0.536221 0.589852,0 1.072457,0.241297 1.072457,0.536221 0,0.294924 0.374266,0.536221 0.831706,0.536221 0.457434,0 1.191251,0.860532 1.630706,1.912303 0.645524,1.544945 1.04754,1.879713 2.092818,1.742729 0.711603,-0.09323 1.304944,0.01216 1.318548,0.232624 0.205344,3.339335 0.06323,3.619545 -1.835589,3.619545 -1.668769,0 -2.05458,0.303679 -3.746936,2.94926 -1.699662,2.65699 -2.073262,2.94926 -3.770077,2.94926 -1.035901,0 -1.883456,0.21977 -1.883456,0.48839 0,0.42538 4.145851,2.72897 4.911431,2.72897 0.155649,0 1.0826,-1.17175 2.059887,-2.60389 2.0295,-2.97408 3.816393,-3.83084 7.989761,-3.83084 h 2.81981 l -0.285403,-3.619548 -0.285396,-3.619545 0.644888,2.949258 0.644891,2.949258 0.157555,-3.887655 c 0.08664,-2.138218 0.388278,-3.887656 0.670285,-3.887656 0.282004,0 0.512736,-0.58324 0.512736,-1.296108 0,-1.527292 1.801635,-5.935624 2.636763,-6.451761 0.6553678,-0.405054 0.7961118,-1.905371 0.17843,-1.902108 -0.221196,0.0012 -1.325165,1.871262 -2.453271,4.155766 -1.128102,2.284504 -1.91931,3.536166 -1.758239,2.781468 0.161081,-0.754678 1.265042,-3.1408 2.453272,-5.302487 1.188221,-2.161666 2.160408,-4.045676 2.160408,-4.186693 0,-0.141058 -0.517363,-0.121196 -1.1497,0.04418 -0.862972,0.225692 -0.996704,0.147745 -0.536228,-0.31282 0.643405,-0.643393 0.833766,-4.02701 0.304198,-5.407038 -0.24755,-0.645099 -0.648885,-0.700442 -2.010856,-0.277289 -0.935868,0.290767 -2.104406,0.744259 -2.59675,1.007759 -0.492342,0.263502 -2.905368,0.979192 -5.36228,1.590426 -2.456911,0.611233 -4.949718,1.329775 -5.539569,1.596759 -1.011021,0.457614 -5.746339,1.628232 -9.920222,2.452364 -1.032239,0.203804 -2.1181,0.561434 -2.413026,0.794706 -0.294926,0.233251 -1.742742,0.600244 -3.217369,0.815499 -4.301933,0.627989 -5.094167,1.07609 -5.094167,2.881424 0,0.874679 -0.241301,1.739447 -0.536227,1.921727 -0.294926,0.182199 -0.536227,1.658135 -0.536227,3.279669 0,1.621554 -0.219505,3.960008 -0.487792,5.196592 -0.268279,1.236564 -0.782332,3.937411 -1.142353,6.001903 -0.360001,2.06448 -0.853824,4.00686 -1.097371,4.31642 -0.243549,0.30955 -0.604887,1.5764 -0.802975,2.81519 -0.346301,2.16564 -0.305909,2.25238 1.048933,2.25238 0.983248,0 1.410089,-0.28359 1.4124,-0.9384 z m 3.79262,-2.59177 c 0.02574,-0.62469 0.152792,-0.75174 0.323968,-0.32399 0.1549,0.3871 0.135849,0.84959 -0.04232,1.02778 -0.178186,0.17815 -0.304919,-0.13842 -0.281636,-0.70379 z m 30.607334,-15.237818 c 0,-0.737309 0.121702,-1.038941 0.270467,-0.670287 0.148759,0.368655 0.148759,0.971919 0,1.340574 -0.148759,0.368655 -0.270467,0.06708 -0.270467,-0.670287 z m -18.584535,-8.862771 c 1.179701,-0.3888 2.868821,-0.700728 3.753596,-0.693168 1.030701,0.0081 0.452722,0.274575 -1.608684,0.739721 -4.008092,0.90443 -4.967236,0.883616 -2.144912,-0.04661 z m 9.428676,-2.594993 c 0.122878,-0.108428 1.188641,-0.343949 2.368342,-0.523575 1.494898,-0.227637 1.819906,-0.179362 1.072457,0.159298 -1.029402,0.466382 -3.901516,0.770466 -3.440799,0.364297 z m 7.17581,-1.701669 c 1.464406,-0.401661 2.753875,-0.638976 2.865479,-0.527369 0.268108,0.268115 -3.692393,1.360257 -4.723691,1.302618 -0.44239,-0.02472 0.393806,-0.373579 1.858212,-0.775249 z m 92.456996,26.316881 c 0.355,-1.40983 0.51977,-2.68903 0.36616,-2.84263 -0.5527,-0.5527 -1.75126,0.97327 -2.46641,3.14019 -0.40107,1.21526 -1.05118,2.33312 -1.44469,2.48413 -0.55566,0.21321 -0.51407,0.42182 0.18624,0.93388 1.27606,0.93309 2.54033,-0.46551 3.35871,-3.71557 z m -43.142992,2.99018 c 0.161608,-0.26149 1.080736,-0.62475 2.042499,-0.80723 0.961768,-0.18241 2.391846,-0.66755 3.177956,-1.07794 0.78611,-0.41036 3.596207,-1.25484 6.244666,-1.87663 2.648451,-0.62179 5.504161,-1.48974 6.346019,-1.92882 0.84185,-0.43906 2.059329,-0.79977 2.705506,-0.8016 0.646175,-0.002 1.337009,-0.26564 1.535178,-0.5863 0.235411,-0.380895 -0.183577,-0.525945 -1.208636,-0.418409 -1.613163,0.169228 -4.450661,-1.549181 -4.450661,-2.695314 0,-0.738262 0.210887,-0.755185 -3.254101,0.261422 -3.117706,0.914706 -4.760017,1.580656 -9.993491,4.052301 -1.830055,0.86429 -4.572883,1.94131 -6.095176,2.39338 l -2.7678,0.82195 1.503497,1.56932 c 1.451442,1.51497 3.608307,2.07478 4.214544,1.09387 z m 39.383972,-1.85763 c 0.33065,-0.3984 0.75495,-1.84623 0.94289,-3.21737 0.28502,-2.07948 0.19789,-2.492985 -0.52531,-2.492985 -0.50341,0 -1.01394,0.618425 -1.21737,1.474635 -0.53538,2.25346 -1.77209,3.35142 -3.7749,3.35142 -1.70087,0 -2.22809,0.45931 -1.4362,1.2512 0.66398,0.66398 5.39501,0.3752 6.01089,-0.3669 z M 56.851261,102.9351 c 0.663583,-0.17774 1.206515,-0.53648 1.206515,-0.79701 0,-0.73166 -1.854873,-0.56101 -3.558244,0.32735 l -1.535924,0.80105 1.34057,-0.004 c 0.737315,-0.002 1.883501,-0.14957 2.547083,-0.32735 z m 10.010424,0.0122 c 0.46651,-0.17895 0.8482,-0.90293 0.8482,-1.60868 0,-0.70575 0.2413,-1.2832 0.53622,-1.2832 0.29493,0 0.53623,-0.965209 0.53623,-2.144924 0,-3.509273 -1.77692,-2.468041 -2.28777,1.340574 -0.15824,1.17972 -0.45794,2.56721 -0.66602,3.08332 -0.41076,1.01886 -0.25915,1.10881 1.03314,0.61291 z m -76.7175552,-2.10471 c -0.3232328,-0.84231 -0.8625288,-1.005686 -1.4338738,-0.43434 -0.473163,0.47317 0.709586,1.85582 1.283885,1.50088 0.2486278,-0.15362 0.3161228,-0.6336 0.1499948,-1.06654 z m 73.4099852,0.61129 c 0.67711,-0.51401 0.9384,-1.470932 0.9384,-3.43678 0,-1.498453 0.26706,-2.889491 0.59347,-3.091228 0.41403,-0.255889 0.37484,-0.501909 -0.12956,-0.813654 -0.57585,-0.355907 -0.58751,-0.58243 -0.0573,-1.112693 0.85949,-0.859478 0.85691,-3.251599 -0.004,-4.164684 -0.53623,-0.568405 -0.53623,-0.759643 0,-0.956272 0.82861,-0.303902 0.95292,-10.642865 0.13386,-11.149073 -0.65599,-0.405427 -0.73292,-14.56142 -0.0813,-14.964131 0.2502,-0.154636 0.61004,-2.883528 0.79964,-6.064211 0.18959,-3.180684 0.50295,-8.135762 0.69633,-11.011285 0.30134,-4.480893 0.23475,-5.228225 -0.46587,-5.228225 -1.74734,0 -2.18802,1.520601 -2.14279,7.393898 0.0243,3.159029 -0.19206,6.660071 -0.48088,7.780092 -0.28882,1.120021 -0.52294,5.515869 -0.52029,9.768549 0.003,4.252682 -0.198976,7.858115 -0.448085,8.012075 -0.24911,0.153967 -0.626421,3.630732 -0.838467,7.726155 -0.315961,6.10232 -0.239196,7.772839 0.425325,9.255747 1.654397,3.691877 1.734647,7.976115 0.149407,7.976115 -0.553188,0 -1.919069,3.192945 -1.919069,4.486095 0,0.61232 2.391389,0.32229 3.351429,-0.40649 z m -99.872488,-1.944914 c 0,-0.31511 0.567515,-0.404 1.340569,-0.209965 1.112448,0.279197 1.34057,0.144098 1.34057,-0.794138 0,-1.516936 -1.142868,-1.427437 -2.681139,0.209985 -0.692674,0.73731 -0.976038,1.340572 -0.629699,1.340572 0.346333,0 0.629699,-0.245896 0.629699,-0.546454 z m 94.054412,-0.93552 c -0.02949,-0.364621 -0.117568,-1.567826 -0.195718,-2.67379 L 57.39821,93.888785 56.996044,95.76558 c -0.221189,1.032234 -0.590601,2.323559 -0.820916,2.869589 -0.33316,0.789862 -0.210948,0.952767 0.597887,0.796996 0.559153,-0.107618 0.99251,-0.494107 0.96302,-0.858729 z M -29.123154,97.585 c 0.466514,-0.178957 0.848202,-0.557745 0.848202,-0.841623 0,-0.745619 -2.287378,-0.29991 -2.549771,0.496843 -0.24039,0.729952 0.373634,0.854371 1.701569,0.34478 z m 5.138026,-1.851056 c 0,-0.277535 -0.241302,-0.504585 -0.536228,-0.504585 -0.294926,0 -0.536227,0.376194 -0.536227,0.835989 0,0.459795 0.241301,0.686845 0.536227,0.504585 0.294926,-0.1822 0.536228,-0.558475 0.536228,-0.835989 z m 78.730435,-0.144908 c 0.120648,-0.622093 -0.08222,-0.794138 -0.670285,-0.568487 -0.991298,0.38041 -1.158956,2.012016 -0.173019,1.683753 0.368657,-0.122817 0.74814,-0.624625 0.8433,-1.115266 z m -87.616437,0.23848 c 0.161244,-0.260896 1.321669,-0.629895 2.578727,-0.819978 3.0363,-0.459167 3.651311,-0.906599 3.266868,-2.376698 l -0.318944,-1.219641 -1.403636,1.294264 c -1.753702,1.617074 -3.525287,2.326801 -3.110611,1.24615 0.224069,-0.58391 -0.03431,-0.667754 -1.14681,-0.372141 -1.592318,0.423092 -2.410517,2.722391 -0.968755,2.722391 0.445499,0 0.941918,-0.213451 1.103161,-0.474347 z M 67.701675,92.650681 c 0.005,-0.690432 -0.22901,-1.091554 -0.52802,-0.90674 -0.29493,0.182199 -0.53254,1.101383 -0.52802,2.042497 0.006,1.302005 0.13248,1.51878 0.52802,0.90674 0.28589,-0.442385 0.5235,-1.361509 0.52802,-2.042497 z m 10.59789,-2.797965 c 0.32381,-1.319051 0.87963,-4.811319 1.23516,-7.760557 0.35553,-2.949258 0.83093,-5.60359 1.05646,-5.898516 0.22553,-0.294926 0.68324,-3.673163 1.01713,-7.507194 0.86251,-9.9041 1.73901,-16.345322 2.26875,-16.672722 0.76331,-0.471748 0.52022,-2.899602 -0.29032,-2.899602 -0.90493,0 -1.26449,1.317605 -1.73187,6.346406 -0.19638,2.11306 -0.56372,3.841927 -0.81629,3.841927 -0.25258,0 -0.45532,0.422279 -0.45055,0.9384 0.0162,1.753687 -2.26498,15.947333 -2.73629,17.02524 -0.25792,0.589856 -0.73357,3.123521 -1.05701,5.630393 -0.32343,2.506872 -0.71984,5.569118 -0.88089,6.804993 -0.16104,1.235895 -0.12801,2.903739 0.0734,3.706368 l 0.36626,1.459297 0.67863,-1.308086 c 0.37325,-0.719434 0.94357,-2.387277 1.26739,-3.706347 z m -119.551238,3.661091 c 0.980681,-0.980674 0.826628,-2.758911 -0.204726,-2.363159 -0.466509,0.178956 -0.949114,0.325486 -1.072457,0.325486 -0.123344,0 -0.224255,0.603264 -0.224255,1.340574 0,1.463695 0.501845,1.696703 1.501438,0.697099 z m 96.418079,-2.976071 c 0.964112,-1.270044 0.944707,-3.351413 -0.03127,-3.351413 -0.427732,0 -1.047054,-0.422281 -1.376265,-0.938398 -0.485469,-0.761103 -0.541169,-0.596454 -0.29476,0.871355 0.1671,0.995388 0.303811,2.382879 0.303811,3.083323 0,1.513005 0.426697,1.615271 1.398456,0.335133 z M -43.825568,89.86745 c 0,-0.589848 -0.203907,-1.072443 -0.453119,-1.072443 -0.249217,0 -0.88987,0.482595 -1.42368,1.072443 -0.947402,1.046886 -0.936591,1.072463 0.453119,1.072463 1.066193,0 1.42368,-0.269287 1.42368,-1.072463 z m 61.130006,-0.772696 c 0,-1.014824 0.241302,-1.994282 0.536228,-2.176542 0.294925,-0.182199 0.536229,-2.126949 0.536229,-4.321488 0,-2.302542 -0.226788,-3.990064 -0.536229,-3.990064 -0.294926,0 -0.536228,-0.570716 -0.536228,-1.268246 0,-0.697541 -0.482605,-1.881788 -1.072457,-2.631663 -0.589851,-0.749873 -1.072457,-1.626973 -1.072457,-1.949112 0,-0.32214 -0.241301,-0.585707 -0.536227,-0.585707 -0.657152,0 -0.695746,0.680818 -0.0775,1.367381 1.29411,1.437135 2.081953,6.131216 1.952981,11.636149 -0.07428,3.170451 0.07661,5.764451 0.335307,5.764451 0.258703,0 0.470364,-0.830315 0.470364,-1.845159 z M 70.679525,75.121186 c 0.18258,-2.359404 0.54592,-4.772428 0.8074,-5.36228 0.57096,-1.287924 2.0063,-12.115163 2.20368,-16.62307 0.0775,-1.769553 0.31376,-3.461431 0.52505,-3.759727 0.62115,-0.876932 0.75718,-7.691677 0.16534,-8.283511 -0.70682,-0.706816 -3.82112,1.453126 -4.22081,2.927359 -0.56036,2.066858 -0.29602,3.452771 0.76706,4.021711 1.19977,0.6421 1.42797,1.936173 0.40217,2.280595 -0.52643,0.176747 -0.51196,0.522296 0.0674,1.609997 0.6558,1.231204 0.61869,1.553451 -0.33433,2.902942 -1.13123,1.601834 -1.26675,2.97886 -2.09081,21.244778 -0.19677,4.36136 -0.56115,8.055467 -0.80977,8.20913 -0.70564,0.436103 -0.53028,5.285443 0.21826,6.0355 0.68898,0.690371 1.46802,-4.460661 2.29936,-15.203424 z m 4.13452,12.444979 c 0.95725,-9.089903 2.21717,-17.998755 2.68642,-18.995493 0.41019,-0.871285 0.3773,-1.407659 -0.1233,-2.010856 -0.46001,-0.554279 -0.51022,-1.04127 -0.15391,-1.492906 0.75188,-0.953048 1.3222,-6.705012 0.70278,-7.087837 -0.9553,-0.590405 -1.59025,1.695295 -2.17082,7.814521 -0.31884,3.360623 -0.79108,6.592829 -1.04942,7.182681 -0.41946,0.957726 -1.02266,5.241605 -1.89687,13.471401 -0.16047,1.510754 -0.13873,3.145725 0.0484,3.633225 0.56231,1.465377 1.69029,0.01621 1.95678,-2.514736 z m -114.886017,0.42449 c 0,-2.470129 -0.367604,-2.903374 -1.501438,-1.769543 -1.205644,1.205637 -0.442324,4.182579 1.072457,4.182579 0.235939,0 0.428981,-1.085859 0.428981,-2.413036 z M 4.7274488,81.044077 c 1.757531,-1.757544 1.882701,-6.160733 0.22233,-7.821102 -3.544768,-3.544764 -9.630694,-2.340629 -9.630694,1.905485 0,0.993428 0.241302,1.955364 0.536228,2.137638 0.294926,0.18228 0.536227,0.767232 0.536227,1.299906 0,0.532675 0.50012,1.604287 1.111378,2.38138 1.54685605,1.966516 5.30442,2.016798 7.224531,0.09667 z M 11.271871,63.063376 c 0.368657,-0.0041 0.670285,-0.248624 0.670285,-0.543549 0,-0.294926 -0.361953,-0.536228 -0.804342,-0.536228 -0.442388,0 -0.804343,-0.213159 -0.804343,-0.473688 0,-0.671819 -2.0820232,-1.134344 -2.4471032,-0.543629 -0.166796,0.269876 -0.143773,0.993191 0.05115,1.607365 0.262853,0.828195 0.652756,1.036642 1.509237,0.806866 0.6351502,-0.170404 1.4564472,-0.31311 1.8251062,-0.317137 z m 67.354404,-8.463549 c 0.5174,-0.837161 1.00615,-8.166843 0.54458,-8.166843 -1.06347,0 -2.62978,6.141374 -1.99092,7.80623 0.32236,0.840046 1.03953,1.018855 1.44634,0.360613 z M 56.717247,51.251694 c 0,-1.908048 -1.561777,-1.742969 -1.782901,0.188462 -0.140875,1.230405 0.01317,1.485605 0.804342,1.333225 0.634342,-0.122169 0.978559,-0.657428 0.978559,-1.521679 z m 13.503888,-0.09321 c -0.17117,-0.427767 -0.29824,-0.300704 -0.32397,0.32397 -0.0233,0.565274 0.10347,0.881985 0.28164,0.703801 0.17819,-0.178187 0.19724,-0.640681 0.0423,-1.027771 z M 56.449132,47.505441 c 0,-0.294926 -0.106401,-0.536227 -0.236466,-0.536227 -0.130053,0 -0.385602,0.241301 -0.567876,0.536227 -0.182281,0.294926 -0.07586,0.536228 0.236466,0.536228 0.312331,0 0.567876,-0.241302 0.567876,-0.536228 z M -97.716447,80.434328 c 2.064466,-1.040138 5.080747,-2.138785 6.702848,-2.441411 1.622081,-0.302645 3.673171,-0.854979 4.557942,-1.227413 2.98659,-1.257157 6.963683,-2.45398 8.14583,-2.451313 0.646169,0.0014 1.308917,-0.214239 1.472754,-0.47933 0.894986,-1.448118 13.098856,-2.893062 15.078343,-1.785282 0.675353,0.377945 -0.531459,0.587752 -4.338492,0.754259 -3.433819,0.150177 -5.348655,0.45439 -5.487808,0.871839 -0.117548,0.352642 -0.598785,0.641167 -1.069403,0.641167 -1.023477,0 -8.324138,2.265901 -8.70706,2.702399 -0.147543,0.168094 -2.319181,0.736005 -4.826053,1.262011 -2.506873,0.526007 -5.281855,1.270572 -6.166627,1.654589 -1.709329,0.74191 -7.773347,2.436222 -8.614827,2.407038 -0.27557,-0.01013 1.188066,-0.868396 3.252553,-1.908553 z"
         id="path117"
         inkscape:connector-curvature="0" />
    </g>
  </g>
</svg>
