<?xml version="1.0" encoding="UTF-8" standalone="no"?>
<!-- Created with Inkscape (http://www.inkscape.org/) -->

<svg
   xmlns:dc="http://purl.org/dc/elements/1.1/"
   xmlns:cc="http://creativecommons.org/ns#"
   xmlns:rdf="http://www.w3.org/1999/02/22-rdf-syntax-ns#"
   xmlns:svg="http://www.w3.org/2000/svg"
   xmlns="http://www.w3.org/2000/svg"
   xmlns:sodipodi="http://sodipodi.sourceforge.net/DTD/sodipodi-0.dtd"
   xmlns:inkscape="http://www.inkscape.org/namespaces/inkscape"
   width="210mm"
   height="269.98465mm"
   viewBox="0 0 209.99998 269.98463"
   version="1.1"
   id="svg8"
   inkscape:version="0.92.1 r15371"
   sodipodi:docname="cartels.svg">
  <defs
     id="defs2" />
  <sodipodi:namedview
     id="base"
     pagecolor="#ffffff"
     bordercolor="#666666"
     borderopacity="1.0"
     inkscape:pageopacity="0.0"
     inkscape:pageshadow="2"
     inkscape:zoom="0.49497475"
     inkscape:cx="-15.398607"
     inkscape:cy="841.05747"
     inkscape:document-units="mm"
     inkscape:current-layer="layer1"
     showgrid="false"
     fit-margin-top="0"
     fit-margin-left="0"
     fit-margin-right="0"
     fit-margin-bottom="0"
     inkscape:window-width="1920"
     inkscape:window-height="1028"
     inkscape:window-x="0"
     inkscape:window-y="0"
     inkscape:window-maximized="1" />
  <metadata
     id="metadata5">
    <rdf:RDF>
      <cc:Work
         rdf:about="">
        <dc:format>image/svg+xml</dc:format>
        <dc:type
           rdf:resource="http://purl.org/dc/dcmitype/StillImage" />
        <dc:title></dc:title>
      </cc:Work>
    </rdf:RDF>
  </metadata>
  <g
     inkscape:label="Calque 1"
     inkscape:groupmode="layer"
     id="layer1"
     transform="translate(47.148074,13.530305)">
    <path
       style="fill:#000000;stroke-width:0.46559232"
       d="m 54.659256,255.68932 c -0.417082,-1.08689 0.02384,-1.33397 0.87016,-0.48764 0.892149,0.89215 0.912868,1.25266 0.07199,1.25266 -0.356718,0 -0.780682,-0.34425 -0.942145,-0.76502 z m 19.748816,-0.44509 c 0,-0.15344 0.942822,-1.16952 2.095174,-2.258 1.152335,-1.08849 2.088505,-2.27245 2.080358,-2.63102 -0.01056,-0.48134 -0.176676,-0.43872 -0.633323,0.16277 -0.828564,1.0915 -1.366246,1.02627 -1.918622,-0.23279 -0.312051,-0.71125 -0.935027,-1.09365 -1.940442,-1.19107 -1.422663,-0.13779 -1.512901,-0.0419 -2.296592,2.44436 -0.448658,1.42331 -0.954947,2.58786 -1.125077,2.58786 -0.170164,0 -0.792472,-0.41905 -1.38298,-0.93119 -0.590527,-0.51215 -1.55304,-0.93119 -2.138934,-0.93119 -0.585896,0 -1.19475,-0.20952 -1.353014,-0.46559 -0.158269,-0.25608 -0.85156,-0.46677 -1.540655,-0.46819 -0.689096,-0.001 -2.06258,-0.22741 -3.052182,-0.50221 l -1.799287,-0.49958 0.199424,-2.75695 c 0.14449,-1.99762 0.03958,-2.75696 -0.380905,-2.75696 -0.940581,0 -1.192988,-1.62939 -0.85414,-5.51388 0.306425,-3.51275 0.272982,-3.69372 -0.899318,-4.86601 -0.911748,-0.91175 -1.217582,-1.6907 -1.217582,-3.10112 0,-1.03595 0.209518,-1.88353 0.465594,-1.88353 0.256076,0 0.465591,0.5238 0.465591,1.16398 0,0.64019 0.209518,1.16398 0.465592,1.16398 0.256076,0 0.465594,-0.62855 0.465594,-1.39677 0,-0.76824 -0.209518,-1.39678 -0.465594,-1.39678 -0.256074,0 -0.465592,-0.62855 -0.465592,-1.39678 0,-0.76824 0.209518,-1.39677 0.465592,-1.39677 0.269598,0 0.482132,-1.61697 0.50488,-3.84115 0.06009,-5.87629 0.566439,-8.99963 1.616988,-9.97443 0.849543,-0.78828 0.899199,-1.31108 0.677796,-7.13608 l -0.238905,-6.28551 -1.513175,-0.14588 c -1.268293,-0.1223 -1.513176,0.0106 -1.513176,0.8211 0,2.09894 -3.402424,5.90474 -5.713195,6.39055 -0.709535,0.14922 -1.402829,0.45367 -1.540654,0.67666 -0.137821,0.22301 -0.749645,0.40546 -1.35961,0.40546 -0.609962,0 -1.218669,0.17741 -1.352685,0.39425 -0.346619,0.56084 -8.857256,1.00967 -12.829914,0.67662 -2.882111,-0.24162 -3.535318,-0.46952 -4.708507,-1.64271 -1.674002,-1.674 -1.825077,-3.80617 -0.359736,-5.07705 1.775521,-1.53992 -0.0889,-0.95536 -5.378914,1.68646 -2.791184,1.39391 -5.254955,2.42308 -5.475055,2.28705 -0.220095,-0.13602 -0.764874,0.39348 -1.210618,1.17667 -0.445746,0.7832 -1.043859,1.42532 -1.329151,1.42694 -0.66838,0.004 -1.09046,2.90407 -1.558849,10.71157 -0.207399,3.45703 -0.645061,7.55946 -0.972581,9.11651 -0.584248,2.77752 -0.633177,2.84211 -2.590319,3.41998 -1.2286044,0.36277 -3.03216,0.47894 -4.6954747,0.30246 -1.4853613,-0.15767 -3.9441307,-0.40769 -5.46393151,-0.55575 -2.86875769,-0.27946 -4.91899769,-1.23607 -4.91899769,-2.29513 0,-0.3374 -0.438188,-0.75253 -0.973749,-0.92252 -0.746112,-0.23681 -0.898803,-0.54345 -0.653161,-1.31175 0.176319,-0.55149 0.428024,-2.89595 0.55934,-5.20995 0.195288,-3.44127 0.107026,-4.31655 -0.484771,-4.80771 -0.606563,-0.5034 -0.821105,-0.44422 -1.327161,0.36611 -0.332001,0.53161 -0.766919,0.96658 -0.966486,0.96658 -0.199568,0 -1.192588,0.52378 -2.2067121,1.16397 -1.866566,1.17831 -5.587108,1.64338 -5.587108,0.6984 0,-0.91589 -0.962378,-0.44418 -1.390351,0.68148 -0.740803,1.94845 -4.007162,4.73152 -6.309844,5.37623 -1.739009,0.48689 -2.596234,0.4848 -4.66465,-0.0106 -1.393761,-0.33437 -2.534112,-0.78398 -2.534112,-0.99915 0,-0.21518 -0.419033,-0.39124 -0.931185,-0.39124 -0.51215,0 -0.931183,-0.20952 -0.931183,-0.46559 0,-0.25607 -0.22088,-0.46559 -0.490844,-0.46559 -0.269964,0 -1.143077,-0.60956 -1.940252,-1.35459 l -1.449409,-1.3546 1.636468,-1.55536 c 2.580303,-2.45242 3.441862,-4.55113 1.894841,-4.61575 -1.310626,-0.0547 -3.562796,-1.56768 -4.156953,-2.79253 -0.301737,-0.62203 -0.775128,-3.98149 -1.051977,-7.46549 -0.54296,-6.83281 -0.536495,-6.87147 2.024543,-12.10797 1.746225,-3.57048 3.427788,-5.75941 5.182818,-6.74665 0.567342,-0.31914 0.963094,-1.11024 1.048103,-2.09517 0.11007,-1.27525 -0.07067,-1.67279 -0.931184,-2.048 -0.667938,-0.29125 -1.122931,-0.94504 -1.21509,-1.74597 l -0.147323,-1.28039 h 3.24026 c 2.525187,0 3.302625,-0.1626 3.522868,-0.73646 0.474616,-1.23684 0.329184,-1.59024 -0.881371,-2.14181 -1.258002,-0.57317 -1.604519,-2.37368 -0.581992,-3.02402 0.934225,-0.59419 -3.230295,-0.98689 -7.100282,-0.66954 -1.92057,0.15749 -5.587108,0.18158 -8.147867,0.0535 l -4.655923,-0.23279 -0.134672,-3.53575 -0.134671,-3.53576 1.531452,-0.44758 c 1.616344,-0.4724 1.610894,-0.45102 1.021028,-4.00433 -0.454603,-2.73849 1.329642,-2.19843 5.010719,1.51665 1.315735,1.32788 2.761529,2.31023 3.66654,2.49123 2.473485,0.4947 8.361695,0.35387 8.361695,-0.2 0,-1.78962 5.671114,-2.61636 7.654865,-1.11591 1.453477,1.09935 1.656983,0.84021 1.656983,-2.10998 v -2.79355 l 2.444361,-0.0725 c 1.344397,-0.0398 2.947781,-0.0269 3.563079,0.0289 0.615295,0.0556 1.270067,-0.14377 1.455047,-0.44301 0.196222,-0.31749 0.748449,-0.41338 1.3256381,-0.23019 0.863674,0.27411 0.989314,0.66827 0.989314,3.10365 0,1.74121 0.174987,2.68152 0.465592,2.5019 0.256076,-0.1582 0.468802,-0.85154 0.472721,-1.54065 0.01496,-2.62749 -0.964223,-2.51733 22.5165969,-2.53322 11.939153,-0.009 21.707549,-0.19473 21.707549,-0.41477 0,-0.22003 1.676133,-0.40007 3.72474,-0.40007 3.031053,0 3.724739,0.13251 3.724739,0.71152 0,0.61006 0.912072,0.69307 6.396112,0.582 5.98573,-0.12125 6.40549,-0.18928 6.542294,-1.06073 0.184999,-1.17846 1.087471,-3.07447 1.844151,-3.87439 0.320096,-0.33839 0.581991,-0.87993 0.581991,-1.20342 0,-0.3235 0.733307,-2.09496 1.629573,-3.93659 0.896265,-1.84162 1.629573,-3.55524 1.629573,-3.808 0,-0.25279 0.242229,-0.92818 0.538286,-1.50088 0.842749,-1.63023 1.076887,-2.24704 1.9859,-5.2316 0.467962,-1.53644 1.034285,-3.15735 1.258491,-3.60202 0.224211,-0.44466 0.407655,-2.27792 0.407655,-4.07392 v -3.26548 h 1.324618 c 1.253588,0 2.865051,-1.19853 2.866283,-2.13183 4.75e-4,-0.37049 0.671121,-1.28225 2.78384,-3.78482 0.261107,-0.30929 0.474737,-0.67545 0.474737,-0.81369 0,-0.13832 0.73331,-1.02882 1.629588,-1.97904 0.89626,-0.95021 1.629571,-1.90266 1.629571,-2.11655 0,-0.21391 0.52378,-0.95381 1.163983,-1.64423 0.640186,-0.69041 1.163967,-1.51933 1.163967,-1.84204 0,-0.32272 0.209529,-0.58674 0.465604,-0.58674 0.256074,0 0.465586,-0.21402 0.465586,-0.47559 0,-0.56523 2.407718,-4.34513 2.90996,-4.56833 0.481371,-0.21395 0.439472,-2.70631 -0.06212,-3.69226 -0.226195,-0.44467 -0.67795,-1.37962 -1.003885,-2.07768 l -0.592603,-1.2692 -0.625686,1.20602 c -0.344148,0.66333 -0.625703,1.49636 -0.625703,1.85121 0,0.35483 -0.157143,0.64566 -0.349199,0.64627 -0.192055,4.6e-4 -0.968408,1.20532 -1.725228,2.67715 -1.637542,3.18464 -3.608146,6.33976 -4.094673,6.55599 -0.192056,0.0853 -0.349199,0.36222 -0.349199,0.61524 0,0.25303 -0.261881,0.7521 -0.581992,1.10902 -1.275233,1.42203 -1.745958,2.05215 -1.745958,2.33721 0,0.16418 -0.589189,0.85392 -1.309319,1.53284 -0.720112,0.6789 -1.708106,1.9153 -2.195548,2.74755 -0.487425,0.83225 -1.102957,1.52748 -1.367853,1.54497 -2.276281,0.15028 -8.454873,-0.17034 -9.255041,-0.4803 -0.552201,-0.21386 -2.365861,-0.76615 -4.030353,-1.22732 -2.952321,-0.81797 -5.957362,-2.23218 -8.452537,-3.97784 -0.679718,-0.47555 -1.410986,-0.86462 -1.625039,-0.86462 -0.701492,0 -6.316952,-6.22415 -8.146519,-9.02956 -2.168978,-3.32587 -2.720118,-5.16896 -2.729681,-9.128545 -0.0072,-2.989622 1.592409,-8.846266 2.416183,-8.846266 0.208721,0 0.379491,-0.384921 0.379491,-0.8554 0,-1.001034 3.398925,-4.731709 4.310947,-4.731709 0.342927,0 0.888671,0.73331 1.212765,1.629588 0.324095,0.89626 0.775723,1.629571 1.003618,1.629571 0.227897,0 0.551932,0.73331 0.720071,1.62957 0.168142,0.89626 0.445971,1.62957 0.617408,1.62957 0.539882,0 1.393765,2.771523 0.940239,3.051811 -0.595045,0.367763 -1.355571,-0.184366 -1.355571,-0.984123 0,-0.368996 -0.209516,-0.670911 -0.465592,-0.670911 -0.256076,0 -0.465593,-0.290318 -0.465593,-0.645166 0,-0.354847 -0.312986,-1.245282 -0.695521,-1.978769 -0.382534,-0.733486 -0.69681,-1.700258 -0.698388,-2.148388 -0.0014,-0.44813 -0.224751,-0.814785 -0.49594,-0.814785 -0.271189,0 -0.363581,-0.209512 -0.205317,-0.465587 0.158269,-0.256074 0.08014,-0.465604 -0.173614,-0.465604 -0.878723,0 -4.249512,5.477126 -4.249512,6.904945 0,0.453145 -0.217306,1.041208 -0.482909,1.306802 -0.265597,0.265595 -0.604841,2.245525 -0.753878,4.399844 -0.22205,3.209812 -0.115051,4.274182 0.592742,5.895712 0.475043,1.08831 1.023804,1.97877 1.219469,1.97877 0.195671,0 0.355759,0.27062 0.355759,0.60138 0,0.33078 0.733309,1.37883 1.629574,2.32904 0.896266,0.95022 1.629574,1.84848 1.629574,1.99614 0,0.29739 3.469003,3.72526 4.961449,4.90263 0.522987,0.41257 1.820537,1.13382 2.883437,1.60277 1.062906,0.46895 1.932554,1.02183 1.932554,1.22864 0,0.20678 0.406666,0.37598 0.903705,0.37598 0.497038,0 1.033195,0.20953 1.19146,0.4656 0.158269,0.25608 0.676963,0.46559 1.152657,0.46559 0.475701,0 0.934747,0.19304 1.020109,0.42898 0.160645,0.44403 5.058153,1.29216 9.932635,1.72009 2.60431,0.22864 2.856638,0.1626 3.724737,-0.97497 0.512167,-0.67112 1.507358,-1.91843 2.21158,-2.7718 0.704204,-0.85338 1.280371,-1.76836 1.280371,-2.03331 0,-0.26494 0.261899,-0.59563 0.581992,-0.73484 0.320093,-0.13919 0.03343,-0.14095 -0.637018,-0.003 -0.909053,0.18599 -1.441773,-0.029 -2.095156,-0.84582 -1.064296,-1.33039 -3.6026,-3.16526 -4.378676,-3.16526 -0.611928,0 -3.228978,2.76941 -3.241153,3.42985 -0.0074,0.39725 0.835698,0.25871 2.436926,-0.4005 0.598025,-0.2462 0.827133,-0.1054 0.861196,0.52917 0.03604,0.67093 0.114241,0.62378 0.349195,-0.21046 0.16654,-0.59129 0.45992,-1.0627 0.651978,-1.04758 0.192056,0.0158 0.558711,0.0274 0.814787,0.0274 0.733349,0 0.54361,1.38527 -0.306133,2.23502 -0.986161,0.98616 -4.03664,0.93821 -5.054297,-0.0795 -0.417335,-0.41734 -0.953334,-0.75878 -1.191121,-0.75878 -0.880039,0 -0.396653,-1.43362 0.615247,-1.82468 1.170868,-0.4525 3.14275,-2.06496 3.14275,-2.56992 0,-0.41031 -1.226324,-1.65811 -1.629574,-1.65811 -0.613106,0 -1.629555,-1.35919 -1.629006,-2.1783 4.67e-4,-0.84382 1.905199,-3.40881 2.531221,-3.40881 0.180552,0 0.661374,0.3331 1.068492,0.74023 0.481238,0.48123 1.24336,0.66362 2.178307,0.52133 0.790954,-0.12036 1.857134,0.007 2.369283,0.2846 2.081413,1.1254 2.627735,0.91266 2.472546,-0.96277 -0.120013,-1.45072 -0.399773,-1.86592 -1.647678,-2.44575 -0.844577,-0.39242 -1.507516,-1.05536 -1.513182,-1.51318 -0.01584,-1.282961 0.72115,-0.974377 3.028318,1.26793 2.192434,2.13081 2.397441,2.95367 1.371666,5.50553 -0.221162,0.55019 -0.06335,1.03688 0.460201,1.41974 0.516214,0.37746 0.741687,1.05637 0.640397,1.92821 -0.149048,1.28361 -0.193903,1.30784 -0.971136,0.52577 -0.883221,-0.88873 -1.488898,-0.57649 -2.540084,1.30951 -0.776353,1.39291 0.310573,2.26513 1.902116,1.5264 0.666986,-0.30959 1.214329,-0.72004 1.216335,-0.9121 0.0018,-0.19205 0.317911,-0.34918 0.702022,-0.34918 0.384112,0 0.69838,-0.31429 0.69838,-0.6984 0,-0.38411 0.175796,-0.69838 0.390693,-0.69838 0.214879,0 0.791047,-0.83567 1.280372,-1.85703 0.489342,-1.02137 1.046839,-1.85944 1.238895,-1.86238 0.192055,-0.004 0.349198,-0.3196 0.349198,-0.70371 0,-0.38413 0.157143,-0.69919 0.349181,-0.70014 0.192056,-9.3e-4 0.752791,-0.99616 1.246075,-2.21156 0.493285,-1.21541 1.028415,-2.31458 1.189183,-2.44262 0.628378,-0.50044 2.80267,-8.305731 2.80267,-10.061033 0,-1.021974 0.22,-2.07814 0.488903,-2.347025 0.305328,-0.305347 0.52385,-4.277983 0.581974,-10.580664 0.08007,-8.686766 0.190331,-10.07309 0.791486,-9.957617 0.58662,0.112622 0.718617,1.567522 0.824834,9.090762 0.08288,5.86942 -0.03748,8.956619 -0.349182,8.956619 -0.261617,0 -0.475652,1.035225 -0.475652,2.30048 0,1.265274 -0.209512,2.429979 -0.465586,2.588248 -0.256074,0.158199 -0.465604,1.113445 -0.465604,2.122644 0,1.009181 -0.185739,1.834877 -0.412742,1.834877 -0.743851,0 -0.919524,2.981175 -0.239111,4.05756 0.358525,0.567157 0.651853,1.445239 0.651853,1.951279 0,0.50606 0.20953,1.04959 0.465604,1.20786 0.256074,0.1582 0.465586,0.79917 0.465586,1.42424 0,0.62507 0.209513,1.1365 0.465587,1.1365 0.256074,0 0.465604,0.40882 0.465604,0.90847 0,0.49966 0.326322,2.12342 0.72518,3.60834 0.398858,1.48494 0.818938,4.98816 0.933531,7.78493 0.114558,2.79679 0.294489,5.17122 0.399791,5.27652 0.241627,0.24162 3.528606,-4.8649 3.528606,-5.4819 0,-0.25109 0.205518,-0.45654 0.456718,-0.45654 0.2512,0 0.588186,-0.5238 0.748866,-1.16398 0.160662,-0.64019 0.478943,-1.16399 0.707249,-1.16399 0.228323,0 0.415117,-0.41904 0.415117,-0.93119 0,-0.51215 0.20953,-0.93117 0.465604,-0.93117 0.256075,0 0.465587,-0.4819 0.465587,-1.07086 0,-0.58898 0.172452,-1.26992 0.383108,-1.51318 0.210709,-0.24328 0.786841,-1.7518 1.280284,-3.35227 0.493461,-1.60048 1.054353,-2.90996 1.246462,-2.90996 0.192109,0 0.349287,-0.31712 0.349287,-0.70469 0,-0.3876 0.202737,-1.06852 0.450541,-1.51319 0.880686,-1.580383 1.882686,-6.67931 1.469116,-7.476023 -0.223235,-0.430057 -0.237419,-1.200955 -0.0315,-1.713104 0.58207,-1.447791 0.50217,-2.095157 -0.25857,-2.095157 -0.384112,0 -0.698398,-0.314286 -0.698398,-0.698397 0,-0.384112 -0.209512,-0.69838 -0.465586,-0.69838 -0.654915,0 -0.58164,-2.491269 0.09309,-3.166034 0.434545,-0.434545 0.434545,-0.682876 0,-1.117421 -0.434563,-0.434545 -0.558711,-0.38281 -0.558711,0.232793 0,0.435337 -0.231931,0.791504 -0.515404,0.791504 -0.283473,0 -0.39738,-0.307564 -0.253136,-0.683475 0.144297,-0.375911 0.04188,-0.819712 -0.227602,-0.986235 -0.301264,-0.186196 -0.375665,-1.132942 -0.193252,-2.45926 0.193587,-1.407371 0.144473,-1.930764 -0.14113,-1.506689 -0.718616,1.066654 -1.928564,0.229978 -1.928564,-1.333603 0,-0.776265 0.209512,-1.411401 0.465587,-1.411401 0.899779,0 0.453039,-2.205544 -0.69838,-3.447941 -0.661637,-0.713918 -1.163984,-1.814921 -1.163984,-2.551135 0,-0.712352 -0.155383,-1.450554 -0.345239,-1.640445 -0.189892,-0.189892 -0.38295,-1.388225 -0.42902,-2.662966 -0.0461,-1.274758 -0.336828,-2.62265 -0.646116,-2.995323 -0.347509,-0.41871 -0.543735,-2.116328 -0.513609,-4.443205 0.03555,-2.74998 -0.136554,-3.950887 -0.638215,-4.452563 -0.377812,-0.377823 -0.683739,-0.93388 -0.679815,-1.235686 0.0053,-0.342802 0.163302,-0.301983 0.423336,0.108769 0.358455,0.566272 0.506447,0.566272 1.066513,0 0.357663,-0.361626 0.784448,-1.011946 0.948401,-1.445158 0.164005,-0.433214 0.851053,-1.149951 1.526873,-1.592758 1.039483,-0.681107 1.291334,-0.703809 1.635201,-0.14743 0.323718,0.523788 0.524168,0.53999 0.984563,0.07959 0.916409,-0.916397 2.254235,-0.706848 2.254235,0.353087 0,0.512151 0.157143,0.929857 0.349199,0.928242 0.468385,-0.0037 1.978773,-2.695887 1.978773,-3.526731 0,-0.363363 0.23675,-0.660657 0.52614,-0.660657 0.51593,0 0.49986,-0.261654 -0.35728,-5.819905 -0.15802,-1.024303 -0.68478,-2.425778 -1.17072,-3.11439 -1.441795,-2.043102 -5.011368,-3.433817 -5.749236,-2.239921 -0.158199,0.256076 -0.69442,0.465591 -1.191471,0.465591 -0.497032,0 -0.903703,0.187359 -0.903703,0.416352 0,0.228997 -0.646469,1.108403 -1.4366,1.954245 -1.128174,1.207718 -1.38057,1.818035 -1.175616,2.84279 0.143593,0.717697 0.05666,1.304907 -0.19297,1.304907 -0.249669,0 -0.453955,-0.209517 -0.453955,-0.465594 0,-0.256074 -0.288471,-0.465591 -0.641048,-0.465591 -0.999556,0 -2.618093,4.298925 -2.618093,6.953797 0,2.281077 -0.487495,2.978973 -1.240602,1.776059 -0.200397,-0.320095 -0.36991,-0.896266 -0.376668,-1.280379 -0.01056,-0.550069 -0.525223,-0.665038 -2.427462,-0.54135 -2.59372,0.168652 -4.33593,-0.187241 -4.33593,-0.885723 0,-0.238225 0.73331,-1.210582 1.62957,-2.16079 0.89626,-0.95021 1.62957,-1.908486 1.62957,-2.129503 0,-0.221018 0.314269,-0.716123 0.69838,-1.100237 0.384129,-0.384115 0.698397,-1.021795 0.698397,-1.417068 0,-0.638849 -0.127403,-0.635157 -1.1476,0.03324 -0.631177,0.413567 -1.469243,0.751937 -1.862364,0.751937 -0.393121,0 -0.71478,0.209517 -0.71478,0.465592 0,0.271595 -1.551967,0.465593 -3.724728,0.465593 -2.172778,0 -3.724744,-0.193998 -3.724744,-0.465593 0,-0.256075 -0.442429,-0.465592 -0.983191,-0.465592 -1.270305,0 -6.789596,-2.969604 -8.445062,-4.543799 -0.704208,-0.669638 -1.280379,-1.515917 -1.280379,-1.880621 0,-0.512891 -0.395506,-0.590417 -1.74597,-0.342253 -0.960285,0.176459 -1.945013,0.514053 -2.188285,0.750205 -0.243273,0.236149 -0.812007,0.42936 -1.26386,0.42936 -0.920983,0 -5.192235,2.251805 -5.432908,2.864231 -0.08536,0.217204 -0.449619,0.394916 -0.809466,0.394916 -0.645836,0 -1.795142,0.801661 -3.583911,2.499834 -0.807061,0.766184 -0.89213,1.338131 -0.711345,4.782509 0.243584,4.640918 0.627352,5.228011 2.731318,4.178412 0.829224,-0.413674 1.882162,-0.752132 2.339858,-0.752132 0.457696,0 0.961662,-0.209517 1.119926,-0.465591 0.158269,-0.256077 0.781808,-0.465594 1.385654,-0.465594 0.603846,0 2.005721,-0.385994 3.11527,-0.857765 3.987761,-1.695552 4.259956,-1.667277 5.864573,0.609208 1.073973,1.523657 1.955013,2.207742 3.401543,2.641135 1.833032,0.549189 2.005274,0.519298 2.822429,-0.489838 0.934904,-1.154557 1.139436,-3.323368 0.43715,-4.635589 -0.238213,-0.445098 -0.260738,-1.088179 -0.04998,-1.429072 0.290635,-0.470267 0.52429,-0.351875 0.968391,0.490679 0.32194,0.610768 0.778464,1.236855 1.014495,1.391311 0.236031,0.154451 0.429143,1.460819 0.429143,2.903028 0,1.44221 0.194554,2.742442 0.432345,2.889401 0.710997,0.439427 0.520719,5.777461 -0.232811,6.530996 -1.026989,1.026998 -1.197224,0.826776 -1.197224,-1.408129 0,-1.140291 -0.243158,-2.606908 -0.54034,-3.259147 -0.480596,-1.054786 -0.814538,-1.185873 -3.021026,-1.185873 -2.576765,0 -3.299179,-0.365001 -5.831549,-2.946394 -2.171608,-2.213644 -2.841278,-1.601792 -2.97001,2.713598 -0.144156,4.832659 -0.609102,7.514666 -1.419264,8.187041 -0.358152,0.297239 -0.651188,0.829058 -0.651188,1.181813 0,0.352768 -0.221883,0.641379 -0.493072,0.641379 -0.271188,0 -0.36358,0.209512 -0.205317,0.465587 0.15827,0.256091 0.107942,0.465604 -0.11183,0.465604 -0.511826,0 -0.153975,3.183789 0.396066,3.523732 0.227781,0.140777 0.414148,0.761659 0.414148,1.379743 0,1.192843 2.264218,6.394766 2.899533,6.661505 0.206932,0.08693 0.692764,0.47449 1.079619,0.861347 1.134104,1.134104 5.937333,0.950759 7.255108,-0.276945 1.292299,-1.203964 2.462468,-0.504599 1.225475,0.732413 -2.443623,2.443616 -9.088455,2.696541 -11.309238,0.430445 -1.307397,-1.334061 -3.012866,-5.706171 -3.012866,-7.723724 0,-3.059307 -0.844934,-4.649178 -2.473194,-4.653701 -1.349981,-0.0035 -6.37306,2.138393 -6.37306,2.717851 0,0.179245 -0.733309,0.720816 -1.629574,1.20349 -0.913087,0.491736 -1.629574,1.238033 -1.629574,1.697372 0,1.421026 0.535655,2.292721 1.408859,2.292721 0.918093,0 3.849993,-1.414779 4.100649,-1.978769 0.226189,-0.508929 2.405563,-0.428369 2.405563,0.08886 0,0.240959 -0.179603,0.549121 -0.399115,0.684795 -0.219513,0.135675 -0.508227,1.995575 -0.641587,4.133158 -0.133351,2.137584 -0.443602,4.291251 -0.68943,4.785926 -0.245824,0.494692 -1.03038,2.104149 -1.743452,3.576594 -1.321035,2.727811 -2.113525,3.393988 -2.113525,1.776648 0,-0.81387 1.776644,-5.569758 2.835471,-7.590232 0.573593,-1.094563 0.540056,-5.477038 -0.04192,-5.477038 -0.256076,0 -0.465591,0.209512 -0.465591,0.465586 0,0.256092 -0.314276,0.465604 -0.698389,0.465604 -0.384115,0 -0.698388,0.209513 -0.698388,0.465587 0,0.803065 -2.883284,0.518818 -3.542204,-0.349199 -0.97523,-1.2847 -0.810182,-4.610253 0.283056,-5.703496 0.512152,-0.512149 1.044427,-0.93119 1.182834,-0.93119 0.138402,0 0.867346,-0.455205 1.619869,-1.011575 2.434177,-1.799665 1.209157,-2.247566 -6.147053,-2.247566 H 31.05168 l 0.321147,-3.375548 c 0.176631,-1.856549 0.396271,-3.508526 0.488086,-3.671056 0.707006,-1.251544 13.974479,-1.163063 15.286807,0.101941 0.243273,0.2345 0.735399,0.426366 1.093617,0.426366 1.23436,0 3.784781,1.488615 4.06544,2.372891 0.834408,2.62898 2.679945,-1.344413 2.598961,-5.595485 -0.03134,-1.644389 -0.159765,-3.092608 -0.285428,-3.218268 -0.827063,-0.827064 -6.610931,0.713376 -7.138913,1.901335 -0.08536,0.192057 -0.750945,0.349195 -1.479076,0.349195 -1.97507,0 -2.718569,-1.895124 -2.84671,-7.256019 -0.103419,-4.326768 -0.07963,-4.435582 1.190612,-5.446961 0.712878,-0.567599 1.849598,-1.504669 2.526054,-2.082385 0.67645,-0.57771 1.596561,-1.167997 2.044695,-1.311751 0.448132,-0.143751 0.814787,-0.456763 0.814787,-0.695585 0,-0.238815 0.314274,-0.434216 0.698389,-0.434216 0.995552,0 0.854315,-0.535226 -0.47364,-1.79484 -0.635761,-0.603048 -1.155934,-1.56127 -1.155934,-2.129381 0,-1.203709 -0.623069,-1.368069 -13.152984,-3.469649 -1.344399,-0.22549 -3.596701,-0.75194 -5.005119,-1.1699 -1.408418,-0.41795 -3.246775,-0.89025 -4.085237,-1.04955 -0.838468,-0.15929 -1.63652,-0.47091 -1.773451,-0.69247 -0.136923,-0.22156 -0.852789,-0.40284 -1.590789,-0.40284 -0.738002,0 -1.454302,-0.18199 -1.591777,-0.40443 -0.137469,-0.22244 -1.092666,-0.53919 -2.122645,-0.7039 -1.200838,-0.19202 -1.872686,-0.54485 -1.872686,-0.98347 0,-0.76615 0.926011,-1.03607 4.655923,-1.35715 1.408417,-0.12124 3.398823,-0.33749 4.423128,-0.48057 1.024302,-0.14308 4.690842,-0.58339 8.147866,-0.97847 3.457023,-0.39508 7.45045,-0.91903 8.874283,-1.16432 1.423829,-0.24529 3.244737,-0.44598 4.046455,-0.44598 0.801717,0 1.587157,-0.20952 1.745421,-0.46559 0.158269,-0.25608 0.918903,-0.46559 1.690311,-0.46559 1.501288,0 3.076904,-1.12917 2.270796,-1.62737 -0.258042,-0.15948 -0.469164,-1.50914 -0.469164,-2.99925 0,-2.28251 0.162862,-2.81742 1.033889,-3.39576 1.020504,-0.67759 1.032028,-0.81022 0.890079,-10.24476978 l -0.143822,-9.55829002 1.598233,-1.2190302 c 0.879026,-0.67047 1.848919,-1.21904 2.155316,-1.21904 1.160018,0 6.622105,1.9792902 7.281347,2.6385302 0.969512,0.96951 2.017309,0.61665 2.93055,-0.98692 1.395035,-2.4495402 2.669476,-3.4256302 4.911693,-3.7618802 3.165875,-0.47475 5.04434,0.0476 8.49698,2.36287 1.702194,1.1414502 3.186886,2.0753702 3.299315,2.0753702 0.112446,0 0.472643,0.26189 0.800496,0.58199 0.506887,0.49488 2.287371,2.03453 6.32649,5.47071 0.451508,0.38411 1.614929,1.32693 2.585379,2.09516002 1.692586,1.33989 2.112842,1.74413 3.298013,3.17228998 0.829039,0.999 1.465001,5.13067 1.756057,11.4084698 0.18122,3.90867 0.46735,5.93597 0.89867,6.36729 0.93793,0.93794 3.95444,2.09877 5.45381,2.09877 0.72184,0 1.44193,0.20952 1.6002,0.46559 0.1582,0.25608 0.70743,0.4656 1.22037,0.4656 1.14788,0 5.60038,1.38448 6.20582,1.92967 0.24327,0.21906 0.82229,0.39829 1.28669,0.39829 0.46443,0 1.20821,0.19211 1.65285,0.4269 0.44467,0.2348 2.06558,0.78337 3.60204,1.21906 3.77008,1.06905 5.11454,1.91946 4.30866,2.72535 -0.70982,0.7098 -2.20393,1.01823 -9.57856,1.97728 -2.99129,0.389 -6.69583,0.91226 -8.23228,1.162785 -1.53646,0.250526 -3.99828,0.567212 -5.47072,0.703747 -2.50625,0.232401 -3.428321,0.766915 -2.09516,1.214535 0.45012,0.151125 0.42374,0.493682 -0.11631,1.511764 -0.54015,1.018084 -0.56651,1.360635 -0.11632,1.511765 0.32009,0.107466 0.58199,0.492225 0.58199,0.854996 0,0.362775 0.15714,0.661225 0.34918,0.663223 1.54855,0.01619 2.13887,8.851654 0.7346,10.994855 -0.46953,0.716579 -0.8086,2.26369 -0.85415,3.897361 -0.0887,3.181356 -0.96289,4.36599 -3.183935,4.314742 -1.643754,-0.03794 -4.495185,1.080337 -4.495185,1.76291 0,0.591596 3.124909,0.572051 3.491951,-0.02184 0.418989,-0.677959 1.629571,-0.570239 1.629571,0.145 0,0.335829 -0.398225,1.038048 -0.884963,1.560489 -0.591354,0.634742 -0.74818,1.165904 -0.472714,1.600974 0.600047,0.947696 0.5191,1.349458 -0.271894,1.349458 -0.384111,0 -0.698397,0.320849 -0.698397,0.713003 0,0.392153 0.314286,0.833596 0.698397,0.980991 0.384112,0.147464 0.69838,0.473892 0.69838,0.725549 0,0.25164 0.469599,0.837785 1.043549,1.302544 0.98785,0.799916 1.00126,0.891703 0.251446,1.720249 -0.748215,0.826769 -0.741546,0.906819 0.120365,1.445152 0.501909,0.313423 0.912539,0.987132 0.912539,1.497116 0,0.509984 0.20951,0.927231 0.46559,0.927231 0.97699,0 0.46805,2.972852 -0.72152,4.214475 -1.130097,1.179575 -1.158041,1.333339 -0.581997,3.20151 l 0.605137,1.962421 1.93952,-0.288717 c 2.07552,-0.308954 4.39464,0.406829 6.12874,1.89161 1.05796,0.905851 4.23291,1.917443 7.42337,2.365203 1.09419,0.153624 2.10177,0.460924 2.23905,0.683035 0.13726,0.222112 1.23537,0.403838 2.44024,0.403838 1.20486,0 3.34003,0.43671 4.74483,0.97045 1.4048,0.533758 2.92084,1.081981 3.36899,1.218289 0.44813,0.136378 0.81478,0.432909 0.81478,0.659121 0,0.226194 0.27508,0.411281 0.61127,0.411281 0.84493,0 2.95225,2.290855 3.54109,3.849491 0.5198,1.375942 1.80283,2.065189 5.15948,2.771716 3.19681,0.672864 9.3783,1.093244 11.6131,0.789745 1.62613,-0.220845 2.16105,-0.09626 2.87468,0.669782 0.48222,0.51761 0.87676,1.32064 0.87676,1.7845 0,0.46386 0.18511,0.8434 0.41132,0.8434 0.22623,0 0.51958,0.47141 0.65191,1.04758 0.13233,0.57616 0.68052,2.19697 1.21825,3.60175 0.53772,1.40482 0.97768,2.92381 0.97768,3.37555 0,0.45175 0.15838,0.82137 0.35193,0.82137 0.93298,0 2.05591,4.76034 2.74574,11.6398 0.11561,1.15235 0.39346,2.5142 0.61756,3.02635 1.03945,2.37546 1.82915,19.90599 1.85182,41.10816 0.0158,15.05927 -0.12089,19.46762 -0.69468,22.34844 -0.39311,1.97378 -0.91127,4.00774 -1.15148,4.51989 -0.2402,0.51215 -0.49474,1.74803 -0.56564,2.74639 -0.0883,1.24498 -0.42144,1.97629 -1.06009,2.32797 -0.51215,0.28201 -1.05919,0.68749 -1.21565,0.90108 -0.15644,0.2136 -1.30879,0.32602 -2.56076,0.24985 l -2.27629,-0.13849 0.0746,3.70769 c 0.17315,8.60701 1.07554,16.08382 2.72348,22.56419 0.42328,1.66449 0.87032,3.75966 0.99341,4.65592 0.12318,0.89628 0.40608,2.04861 0.62882,2.56076 0.22275,0.51215 0.51013,1.55973 0.63862,2.32797 0.12846,0.76822 0.48465,2.35827 0.79142,3.53344 0.69704,2.6701 -0.0929,4.75642 -1.89714,5.01056 -0.63779,0.0899 -1.26437,0.32482 -1.39241,0.52219 -0.34813,0.53665 -7.80752,2.42576 -10.47584,2.65304 -1.28037,0.10911 -2.74699,0.38317 -3.25914,0.60915 -1.00098,0.44167 -1.98551,0.5642 -13.73498,1.70923 -10.24857,0.99878 -39.280994,1.39616 -42.733229,0.58492 -1.816258,-0.42681 -2.595955,-0.44148 -2.981281,-0.0561 -0.360777,0.36078 -0.791996,0.37718 -1.397445,0.0531 -0.731727,-0.39162 -1.297213,-0.0436 -3.440656,2.11695 -2.310441,2.32897 -3.456106,3.0936 -3.456106,2.30667 z m -5.121504,-4.94717 c 0,-1.06623 -2.950451,-4.08575 -3.992301,-4.08575 -0.310202,0 -0.698488,-0.35046 -0.862856,-0.7788 -0.263488,-0.68664 -0.383163,-0.65841 -1.011374,0.23848 -1.080867,1.54315 -0.682957,3.53134 0.745009,3.72249 0.640189,0.0857 1.363022,0.3476 1.606293,0.582 0.243272,0.23439 0.819443,0.42616 1.28038,0.42616 0.460929,0 0.838072,0.20952 0.838072,0.46559 0,0.25608 0.314268,0.46561 0.698379,0.46561 0.411493,0 0.698398,-0.42549 0.698398,-1.03578 z m 0,-2.92176 c 0,-0.38411 -0.08235,-0.6984 -0.182993,-0.6984 -0.100656,0 -0.30357,0.31429 -0.450981,0.6984 -0.147465,0.38411 -0.06511,0.69838 0.182993,0.69838 0.248032,0 0.450981,-0.31427 0.450981,-0.69838 z m -7.027931,-1.74598 c 0.533839,-0.69745 0.514865,-0.81478 -0.131751,-0.81478 -0.464368,0 -0.755396,0.38863 -0.755396,1.00877 0,0.55484 0.05928,0.9215 0.13175,0.81479 0.07247,-0.10664 0.41239,-0.56065 0.755397,-1.00878 z m -1.818331,-15.71374 c 0,-0.25608 0.509675,-0.46559 1.132605,-0.46559 0.747094,0 1.239851,-0.3379 1.44768,-0.99271 0.173298,-0.54599 0.449303,-0.80787 0.613363,-0.58199 0.413432,0.56925 3.324646,0.70862 3.324646,0.15925 0,-0.24578 -0.213507,-0.44684 -0.474462,-0.44684 -0.265885,0 -0.353422,-0.48229 -0.19912,-1.09706 0.1705,-0.67929 0.0051,-1.36738 -0.434552,-1.80694 -0.390439,-0.39044 -0.580191,-0.83959 -0.421667,-0.99811 0.158515,-0.15855 -0.165731,-0.28822 -0.720561,-0.28822 -0.776682,0 -1.008784,0.27926 -1.008784,1.21378 0,0.92493 -0.17855,1.14528 -0.750228,0.92591 -0.536829,-0.20601 -0.673423,-0.0878 -0.480208,0.41577 0.14852,0.38703 0.06708,0.70368 -0.180952,0.70368 -0.248039,0 -0.459371,-0.36666 -0.469625,-0.81479 -0.0132,-0.58092 -0.218013,-0.44728 -0.713255,0.46559 -0.468347,0.8633 -1.068939,1.28039 -1.843731,1.28039 -1.321593,0 -1.516537,0.96283 -0.417464,2.06189 0.83016,0.83017 1.596315,0.95786 1.596315,0.26606 z M 7.3627767,228.63184 c 0,-0.1939 -0.9952039,-0.28979 -2.2115622,-0.21308 -3.8258477,0.24124 -4.18792581,0.43653 -0.9311853,0.50222 1.7285105,0.0348 3.1427475,-0.0952 3.1427475,-0.28914 z m 1.9787673,0.0442 c -0.3200947,-0.12916 -0.8438857,-0.12916 -1.1639804,0 -0.3200946,0.12917 -0.058194,0.23484 0.5819902,0.23484 0.6401894,0 0.9020866,-0.10558 0.5819902,-0.23484 z m -9.90738611,-1.32121 c 0.2605686,0.68492 0.4039946,0.32676 0.5423314,-1.35428 0.1198368,-1.45629 -0.026449,-2.49996 -0.4031517,-2.8767 -1.24212049,-1.24212 -0.1662935,-2.0335 2.78432091,-2.04816 0.7042097,-0.004 1.2803805,-0.19476 1.2803805,-0.42506 0,-0.23029 0.9952039,-0.53685 2.2115623,-0.68126 4.4766567,-0.53141 4.0668236,-0.0994 4.1372493,-4.36035 0.034824,-2.10692 0.1996924,-4.3741 0.3663704,-5.0382 0.492216,-1.96116 1.414018,-1.03145 1.674047,1.68841 0.215411,2.25311 0.28002,1.99888 0.600824,-2.36411 0.362045,-4.92387 0.09782,-19.46846 -0.362032,-19.92831 -0.136044,-0.13603 -0.247359,3.02271 -0.247359,7.01945 0,4.3423 -0.187378,7.3826 -0.465593,7.55454 -0.256076,0.1582 -0.493587,0.95632 -0.5278,1.77345 -0.04577,1.09312 -0.151089,0.87057 -0.398543,-0.84225 -0.22678,-1.56967 -0.14398,-2.7118 0.254209,-3.50633 0.412083,-0.82227 0.449357,-1.43064 0.123357,-2.01317 -0.605812,-1.08251 -0.928015,-10.18225 -0.34784,-9.82369 0.237261,0.14658 0.431022,-0.58317 0.431022,-1.62346 V 186.6155 H 6.398331 c -3.7743566,0 -4.8416474,-0.15275 -5.47071001,-0.78343 -0.7317898,-0.73358 -0.7900963,-0.48943 -0.9161309,3.83606 -0.074031,2.54072 -0.3359251,4.82082 -0.5819919,5.06689 -0.2460598,0.24606 -0.44738709,2.22613 -0.44738709,4.40017 0,2.17403 -0.253543,5.18032 -0.563427,6.68064 -0.440847,2.13436 -0.440847,2.92416 0,3.63005 0.68801999,1.10171 0.77594259,7.15383 0.09784,6.73473 -0.302332,-0.18685 -0.455243,1.96673 -0.436078,6.14163 0.02254,4.91354 0.14384,6.15494 0.514484,5.2654 0.45983799,-1.10368 0.50332909,-1.11573 0.83922779,-0.23281 z M 8.4334814,215.4822 c 0,-1.40841 0.087282,-1.9846 0.1939615,-1.28037 0.1066742,0.7042 0.1066742,1.85654 0,2.56074 -0.1066742,0.70423 -0.1939615,0.12811 -0.1939615,-1.28037 z m -8.48342311,-4.46193 c 0.022348,-0.5424 0.1326652,-0.65271 0.2812928,-0.28129 0.1344954,0.33609 0.117954,0.73767 -0.036743,0.89239 -0.1547145,0.15468 -0.264755,-0.12037 -0.2445394,-0.6111 z m 1.0196851,-8.43171 c 0.45300631,-0.11808 1.08155681,-0.11033 1.39677711,0.0176 0.3152185,0.12758 -0.055414,0.22414 -0.8236471,0.21463 -0.76822831,-0.009 -1.02613801,-0.11385 -0.57313001,-0.23188 z m 7.54240451,-8.29081 c -0.1199953,-0.38411 -0.3163694,-1.01267 -0.4363717,-1.39678 -0.2755702,-0.88208 0.3965721,-0.90706 1.1149686,-0.0415 0.3791351,0.45683 0.3941877,0.75028 0.049413,0.96336 -0.2726878,0.16858 -0.3752566,0.50145 -0.2279258,0.73984 0.1473237,0.23839 0.1441738,0.43342 -0.00704,0.43342 -0.1511775,0 -0.3730693,-0.31427 -0.4930663,-0.69838 z m 0.5000875,-2.99418 c -0.1473237,-0.23839 -0.054938,-0.56503 0.205317,-0.72587 0.2602519,-0.16084 0.4731867,0.0341 0.4731867,0.43342 0,0.81783 -0.2793835,0.93825 -0.6785037,0.29245 z m -2.6970406,-3.13408 c 0.3200947,-0.12916 0.8438856,-0.12916 1.1639803,0 0.3200947,0.12916 0.058194,0.23484 -0.5819901,0.23484 -0.6401894,0 -0.9020849,-0.10559 -0.5819902,-0.23484 z m 2.015526,-0.42884 c 0.022348,-0.54238 0.1326652,-0.6527 0.2812929,-0.28129 0.1344953,0.3361 0.117954,0.73767 -0.036743,0.89239 -0.1547145,0.15467 -0.2647551,-0.12037 -0.2445394,-0.6111 z m 1.1471081,0.30378 c -0.1473412,-0.23839 -0.054938,-0.56503 0.205317,-0.72587 0.2602519,-0.16084 0.4731851,0.0341 0.4731851,0.43342 0,0.81783 -0.2793837,0.93823 -0.6785021,0.29245 z M 1.3100766,227.122 c 0,-0.25607 -0.2095157,-0.46558 -0.46559181,-0.46558 -0.2560761,0 -0.4655935,0.20951 -0.4655935,0.46558 0,0.25608 0.2095174,0.46561 0.4655935,0.46561 0.25607611,0 0.46559181,-0.20953 0.46559181,-0.46561 z m 8.1279809,0.0322 c 0.1473413,-0.23838 0.0769,-0.55146 -0.156527,-0.69572 -0.2334197,-0.14429 -0.544538,0.0508 -0.6913725,0.43342 -0.289458,0.75432 0.4100744,0.97071 0.8478995,0.2623 z m 58.9173195,-0.26497 c 0,-0.38411 -0.339925,-0.69838 -0.755394,-0.69838 -0.618681,0 -0.650495,0.12635 -0.175796,0.69838 0.31879,0.38411 0.658715,0.6984 0.755394,0.6984 0.09679,0 0.175796,-0.31429 0.175796,-0.6984 z M 129.81,225.96235 c 0.31682,-0.38175 0.73778,-2.11027 0.93546,-3.84115 0.44428,-3.89026 0.90492,-5.70779 1.44655,-5.70779 0.2283,0 0.41511,-0.73331 0.41511,-1.62959 0,-0.89626 0.20952,-1.62957 0.46559,-1.62957 0.25607,0 0.4656,-0.41903 0.4656,-0.93118 0,-0.62079 -0.31039,-0.93119 -0.93119,-0.93119 -0.51215,0 -0.93119,0.18286 -0.93119,0.40636 0,0.2235 -0.99519,0.52883 -2.21156,0.67853 -1.21635,0.14975 -3.15438,0.48149 -4.30672,0.73734 -1.15235,0.25584 -3.18528,0.47431 -4.51762,0.48545 -1.33235,0.0106 -2.97111,0.27026 -3.64169,0.5758 -0.96339,0.43896 -1.29633,0.43076 -1.58668,-0.0391 -0.2881,-0.46615 -0.42455,-0.44577 -0.63181,0.0943 -0.26614,0.69358 2.68139,4.18321 6.64153,7.86297 4.69294,4.36071 7.07034,5.45714 8.38862,3.86873 z m -2.78999,-1.82787 c 0,-0.36277 -0.26189,-0.75313 -0.58199,-0.86744 -0.33851,-0.12089 -0.40924,-0.38061 -0.16911,-0.62079 0.24019,-0.24019 0.4999,-0.16946 0.6208,0.16911 0.11438,0.32009 0.50467,0.58199 0.86743,0.58199 0.36279,0 0.6596,0.31427 0.6596,0.69838 0,0.38411 -0.31427,0.6984 -0.69838,0.6984 -0.38413,0 -0.6984,-0.29683 -0.6984,-0.6596 z m 1.62958,-2.13396 c 0.15819,-0.25608 0.38015,-0.46561 0.49307,-0.46561 0.11297,0 0.20532,0.20953 0.20532,0.46561 0,0.25607 -0.22188,0.46558 -0.49307,0.46558 -0.27119,0 -0.36359,-0.20951 -0.20532,-0.46558 z m -6.91894,-1.25424 c -0.55646,-0.55646 -0.30065,-1.53932 0.40064,-1.53932 0.38413,0 0.69839,0.3019 0.69839,0.67091 0,0.77784 -0.66452,1.30292 -1.09903,0.86841 z m 2.29573,-0.0896 c -0.14025,-0.22697 0.10928,-0.51748 0.55451,-0.64557 0.44526,-0.12811 1.17621,-0.38385 1.62434,-0.56834 0.56293,-0.23175 0.81478,-0.11948 0.81478,0.36296 0,1.07185 -2.43019,1.76262 -2.99363,0.85095 z m -1.1967,-2.61369 c 0,-0.71558 0.26461,-1.16399 0.68687,-1.16399 0.54027,0 0.59241,-0.24842 0.24432,-1.16398 -0.36904,-0.97067 -0.30527,-1.16399 0.38399,-1.16399 0.45461,0 1.05571,-0.22915 1.33581,-0.50924 0.28009,-0.2801 0.89816,-0.42044 1.37349,-0.31188 0.73263,0.16735 0.66924,0.29171 -0.41614,0.81677 -1.53372,0.74198 -1.61127,1.37646 -0.30494,2.49499 0.5365,0.45936 0.83939,0.97126 0.67308,1.13757 -0.1663,0.16629 -0.47935,0.0158 -0.69566,-0.33399 -0.49069,-0.79395 -1.88404,-0.3142 -1.88404,0.64872 0,0.39215 -0.31427,0.713 -0.6984,0.713 -0.43454,0 -0.69838,-0.43974 -0.69838,-1.16398 z m 6.0527,-3.72475 c 0,-0.38411 0.18711,-0.69838 0.41578,-0.69838 0.22868,0 0.53638,0.31427 0.68378,0.69838 0.1633,0.42541 9.3e-4,0.6984 -0.41577,0.6984 -0.37609,0 -0.68379,-0.31429 -0.68379,-0.6984 z M 67.889791,224.5613 c 0,-0.35388 -0.20953,-0.77292 -0.465599,-0.93118 -0.265107,-0.16383 -0.465592,0.23713 -0.465592,0.93118 0,0.69407 0.200485,1.09503 0.465592,0.93119 0.256069,-0.1582 0.465599,-0.5773 0.465599,-0.93119 z m -92.187294,-0.69842 c 0,-0.25607 0.366653,-0.48091 0.814785,-0.49962 1.262956,-0.0528 3.590924,-1.58096 3.763186,-2.47036 0.184683,-0.95354 -0.783626,-2.25234 -1.500945,-2.01323 -0.279375,0.0931 -0.786686,-0.10945 -1.127359,-0.45008 -0.340671,-0.34068 -0.926084,-0.6194 -1.300917,-0.6194 -0.528698,0 -0.573816,0.20122 -0.201209,0.89745 0.264167,0.49359 0.369725,1.18561 0.234576,1.5378 -0.689895,1.79784 -6.269225,3.15259 -6.269225,1.52227 0,-0.38411 -0.209518,-0.69838 -0.465594,-0.69838 -0.256074,0 -0.482133,-0.99521 -0.502349,-2.21156 -0.02022,-1.21638 -0.159553,-1.8973 -0.309633,-1.51319 -0.150086,0.38411 -0.877174,1.26352 -1.61576,1.95421 -0.738587,0.6907 -1.295146,1.42401 -1.236799,1.62957 0.295835,1.04228 2.813281,2.46894 4.356612,2.46894 0.643665,0 1.1703,0.20951 1.1703,0.46558 0,0.25608 0.942824,0.46559 2.095165,0.46559 1.15234,0 2.095166,-0.20951 2.095166,-0.46559 z m 36.316204,-3.49195 c 0,-1.92056 -0.157142,-3.49209 -0.349195,-3.4923 -0.192055,-2e-4 -0.310187,0.99501 -0.262509,2.21156 0.04769,1.21656 0.100057,2.7881 0.116405,3.49232 0.01636,0.7042 0.134478,1.28037 0.26251,1.28037 0.128037,0 0.232797,-1.57137 0.232797,-3.49195 z m -5.9274428,0.85858 c -0.3152202,-0.12757 -0.9437691,-0.13532 -1.3967771,-0.0176 -0.4530062,0.11808 -0.1950965,0.2224 0.57313,0.23188 0.7682283,0.009 1.1388674,-0.0871 0.8236471,-0.21463 z m -32.4839272,-0.98209 c 0.652013,-0.47904 0.862567,-2.43723 0.262063,-2.43723 -0.272172,0 -0.494859,0.37712 -0.494859,0.83806 0,0.46093 -0.25142,1.08948 -0.558711,1.39678 -0.603276,0.60327 0.02662,0.76433 0.791507,0.20239 z m -2.242705,-2.05895 c -0.148626,-0.37142 -0.258955,-0.26109 -0.281297,0.28129 -0.02022,0.49083 0.08983,0.76582 0.24454,0.6111 0.154714,-0.15468 0.171256,-0.55628 0.03676,-0.89239 z m 4.091018,-5.01147 c 0.165994,-0.26858 1.329918,-0.48834 2.586497,-0.48834 2.457706,0 5.309444,-1.08237 6.623009,-2.51376 1.610725,-1.75519 0.454665,-6.82993 -1.394279,-6.12042 -0.393619,0.15098 -1.105603,0.1508 -1.582188,-3.9e-4 -0.658045,-0.20884 -0.796236,-0.55503 -0.574397,-1.43891 0.160663,-0.64015 0.318217,-3.19246 0.350116,-5.67183 l 0.058,-4.50795 1.950992,-0.14183 c 1.649214,-0.11984 2.044887,-0.35393 2.558016,-1.51318 0.333864,-0.75425 0.765395,-1.37137 0.958961,-1.37137 0.632941,0 0.369168,-2.56175 -0.372852,-3.62113 -0.676805,-0.96628 -1.075711,-1.03479 -6.025223,-1.03479 -3.031393,0 -5.423617,0.19933 -5.588186,0.46559 -0.158269,0.25607 -0.698584,0.4656 -1.200711,0.4656 -1.032093,0 -4.492927,2.05337 -5.550379,3.29312 -0.384113,0.45033 -1.091079,1.28828 -1.571032,1.86209 -1.341198,1.60345 -3.646182,6.33926 -3.661373,7.52264 -0.03468,2.7015 0.69033,10.93331 1.036261,11.76574 0.212833,0.51215 0.504149,1.29785 0.647371,1.74598 0.143224,0.44813 0.686011,0.81478 1.206199,0.81478 0.520189,0 0.945797,0.18198 0.945797,0.4044 0,0.59349 8.23481,0.67387 8.599402,0.0839 z m 12.389976,-0.79163 c 0.707277,-1.32155 0.946075,-9.47691 0.322033,-10.99789 -0.315859,-0.76982 -0.404391,-0.75958 -1.316379,0.15239 -0.623113,0.6231 -1.260213,0.86109 -1.756531,0.65613 -0.428333,-0.1769 -1.197821,-0.43894 -1.709972,-0.58234 -0.822391,-0.23026 -0.856529,-0.16964 -0.292185,0.51841 0.351449,0.42853 0.877221,0.77913 1.168383,0.77913 0.691798,0 1.787445,1.68071 2.428138,3.72475 0.397091,1.26682 0.361435,2.07003 -0.16017,3.60834 -0.369022,1.08831 -0.86077,1.97877 -1.092775,1.97877 -0.232003,0 -0.421826,0.31427 -0.421826,0.69838 0,1.22444 2.102076,0.82645 2.831277,-0.53608 z m 114.2652,-1.84914 c 0.51215,-0.19593 1.20741,-0.62919 1.545,-0.96283 0.74469,-0.73595 0.29158,-2.47185 -0.64518,-2.47185 -0.36687,0 -0.66703,-0.20951 -0.66703,-0.46558 0,-0.77366 -5.572165,-0.58069 -5.873042,0.20338 -0.141129,0.36794 -0.548258,0.55711 -0.904601,0.42038 -0.831942,-0.31924 -2.068603,0.91099 -2.068603,2.05786 0,2.08463 4.635365,2.74044 8.613456,1.21864 z m -14.400098,-0.84066 c 0.36581,-0.36583 0.665121,-1.28843 0.665121,-2.05023 0,-1.33719 -0.08447,-1.39146 -2.444356,-1.56877 -3.075725,-0.23114 -3.747498,-0.0702 -4.458196,1.06778 -0.470249,0.75298 -0.42513,1.11461 0.255864,2.05064 0.675573,0.9286 1.237346,1.13913 3.071607,1.15108 1.342314,0.009 2.512228,-0.25278 2.90996,-0.6505 z m -2.710425,-0.5744 c 0.32011,-0.12917 0.84389,-0.12917 1.163983,0 0.320093,0.12916 0.05825,0.23483 -0.581992,0.23483 -0.640185,0 -0.902084,-0.10558 -0.581991,-0.23483 z m -1.421484,-0.80589 c -0.190525,-0.48478 -0.2367,-0.9911 -0.102592,-1.12516 0.424656,-0.42466 0.798279,0.27123 0.620354,1.15538 -0.163126,0.81028 -0.187973,0.80882 -0.517709,-0.0303 z m 7.350629,0.20563 c 0.348705,-1.09865 -0.169989,-2.35055 -0.973829,-2.35055 -0.44542,0 -0.64858,0.57877 -0.64858,1.84776 0,1.42979 0.153976,1.78868 0.68066,1.58656 0.37438,-0.14359 0.798155,-0.63135 0.941749,-1.08377 z m -12.535501,-0.0538 c 0.936611,-1.03493 0.598956,-2.97683 -0.597424,-3.43592 -0.445456,-0.17087 -0.870094,-0.13022 -0.943632,0.0903 -0.07408,0.22221 -1.576937,0.20578 -3.369282,-0.0368 -2.732703,-0.36992 -3.4188,-0.31792 -4.414677,0.33462 -1.470615,0.96357 -1.475806,1.42798 -0.0322,2.87167 1.038991,1.03898 1.496922,1.1419 4.861875,1.09275 2.979081,-0.0435 3.869411,-0.22507 4.495273,-0.91664 z M 45.308555,206.3908 c 4.850932,-0.56057 9.154411,-3.24444 9.806354,-6.11573 0.789508,-3.47715 1.01202,-3.66822 4.260322,-3.65838 2.332279,0.007 3.091227,0.18466 3.438111,0.80452 0.246834,0.44108 0.750788,0.67817 1.131223,0.53218 0.537815,-0.20638 0.686073,-1.22005 0.686073,-4.69088 0,-4.37016 -0.01355,-4.42373 -1.047582,-4.12743 -0.576171,0.16507 -2.86067,0.42878 -5.076667,0.5859 -3.89488,0.27619 -4.06935,0.24545 -5.237913,-0.92311 -1.010732,-1.01073 -1.208832,-1.63195 -1.208832,-3.79075 0,-2.44365 -0.06233,-2.58193 -1.16398,-2.58193 -0.64019,0 -1.163981,-0.20952 -1.163981,-0.46559 0,-0.50731 -24.969421,-0.68124 -26.267888,-0.18297 -0.405061,0.15538 -0.73647,0.57446 -0.73647,0.93117 0,0.35671 -0.157143,0.65021 -0.349194,0.6522 -0.192057,0.002 -0.61109,0.56756 -0.931185,1.25681 -1.627682,3.50482 -0.251913,4.32668 7.24268,4.32668 4.327896,0 5.708061,0.14113 5.565389,0.56914 -0.104334,0.31304 -0.697974,0.68879 -1.319178,0.83501 -1.107535,0.26072 -1.132022,0.37314 -1.261289,5.79183 -0.124465,5.21778 -0.195883,5.58102 -1.280379,6.5129 -0.631702,0.5428 -1.148551,1.21806 -1.148551,1.50054 0,0.82507 2.175575,2.01749 3.680881,2.01749 0.762123,0 1.527482,0.22945 1.7008,0.50988 0.306527,0.49597 4.980706,0.36931 10.681256,-0.28948 z m -6.578918,-1.03059 c -1.149962,-0.19843 -4.194438,-2.77221 -3.775153,-3.1915 0.155577,-0.15556 0.848411,0.24155 1.539645,0.8825 1.579415,1.46451 3.52329,1.86667 5.912748,1.22325 2.247613,-0.60522 3.550844,-1.30195 4.642672,-2.48203 1.067124,-1.15338 1.071803,-0.24084 0.0049,0.96973 -1.842698,2.09096 -5.196918,3.13775 -8.324888,2.59805 z m 9.642028,-5.04852 c 0.02235,-0.54238 0.132665,-0.65271 0.281291,-0.28129 0.134495,0.33611 0.117954,0.73768 -0.03674,0.89239 -0.154714,0.15468 -0.264755,-0.12036 -0.244539,-0.6111 z m -5.158275,-1.35797 c 0,-0.38411 0.202943,-0.69838 0.450982,-0.69838 0.248034,0 0.330379,0.31427 0.182983,0.69838 -0.147394,0.38411 -0.350341,0.6984 -0.450983,0.6984 -0.100638,0 -0.182982,-0.31429 -0.182982,-0.6984 z m 5.121516,-1.14769 c 0,-0.43578 -0.516208,-0.53525 -1.849613,-0.3564 -1.586115,0.21274 -1.756671,0.15521 -1.197239,-0.40429 0.892662,-0.89267 2.881548,-0.82353 3.240794,0.11262 0.161455,0.42077 0.183877,0.87472 0.04982,1.00878 -0.134073,0.13409 -0.243756,-0.0283 -0.243756,-0.36075 z m -62.198974,2.38027 c 0.134953,-0.21835 -0.05554,-0.79452 -0.423308,-1.28039 -0.378084,-0.49948 -0.6751,-1.94562 -0.683473,-3.32774 -0.01073,-1.77184 -0.193249,-2.44435 -0.663382,-2.44435 -0.356716,0 -0.77575,0.33141 -0.931186,0.73648 -0.501014,1.30562 -0.300505,5.3352 0.299381,6.01655 0.649645,0.73786 2.025038,0.90933 2.401968,0.29945 z m 1.378508,-2.51295 c 0.447607,-1.67024 0.337079,-5.00512 -0.165889,-5.00512 -0.618997,0 -1.88492,3.10754 -1.616832,3.96894 0.117602,0.37783 0.31199,1.00125 0.43199,1.38538 0.322182,1.03126 1.029798,0.84834 1.350727,-0.3492 z m 31.767502,-10.87158 c -0.22537,-0.58731 -0.449562,-0.66787 -0.822037,-0.29539 -0.281683,0.28168 -0.372701,0.87553 -0.202267,1.31968 0.225371,0.58731 0.449562,0.66787 0.822037,0.29539 0.281683,-0.28168 0.372701,-0.87555 0.202267,-1.31968 z m -26.7017209,-2.80874 3.142747,-0.76256 v -2.4978 c 0,-2.44249 -0.02972,-2.49781 -1.342476,-2.49781 -1.545448,0 -1.900231,-0.79985 -1.910315,-4.30672 -0.0035,-1.21637 -0.215872,-2.21157 -0.471948,-2.21157 -0.275905,0 -0.465592,1.70718 -0.465592,4.19034 v 4.19033 h -1.5364551 c -0.845051,0 -1.764228,-0.22778 -2.042613,-0.50617 -0.364491,-0.36449 -0.593939,-0.36414 -0.819766,0.001 -0.220052,0.35606 -0.582949,0.36328 -1.21653,0.0241 -0.796439,-0.42636 -0.90293,-0.32507 -0.90293,0.85866 0,0.93432 -0.311586,1.48105 -1.025684,1.79968 -0.926279,0.41332 -0.813469,0.51111 1.163981,1.00904 1.204316,0.30325 2.189666,0.75786 2.189666,1.01025 0,0.66328 1.655125,0.56809 5.2379151,-0.30124 z M -23.28053,182.8295 c 0.431299,-0.22236 1.197371,-0.40431 1.702383,-0.40431 0.677768,0 0.856694,-0.23521 0.6833,-0.89827 -0.191445,-0.7321 0.05351,-0.93365 1.323969,-1.08948 0.857379,-0.10523 0.02106,-0.22471 -1.858489,-0.2657 -3.138628,-0.0685 -3.527872,0.0297 -4.772321,1.20436 -1.923248,1.81523 -1.788103,2.56625 0.39101,2.1729 0.960284,-0.17334 2.09885,-0.49712 2.530148,-0.7195 z m 4.279139,-6.04962 c 0.514014,-2.57007 0.385998,-2.98736 -0.576126,-1.87804 -0.543431,0.62659 -0.783872,1.4353 -0.644112,2.16641 0.305434,1.59777 0.86968,1.46444 1.220238,-0.28837 z m 14.4915621,-1.33858 c 0.15827,-0.25607 0.06587,-0.46558 -0.205317,-0.46558 -0.271188,0 -0.493071,0.20951 -0.493071,0.46558 0,0.25609 0.09239,0.46561 0.205317,0.46561 0.112921,0 0.334807,-0.20952 0.493071,-0.46561 z m -14.3578051,-3.37553 c -0.129164,-0.32011 -0.234838,-0.0582 -0.234838,0.58198 0,0.6402 0.105671,0.90208 0.234838,0.58199 0.129163,-0.32009 0.129163,-0.84387 0,-1.16397 z m 112.830585,-6.25244 c 0,-2.73464 0.254649,-5.67629 0.565908,-6.53702 0.444118,-1.22823 0.444118,-1.75993 0,-2.4711 -0.311259,-0.49837 -0.573334,-1.48515 -0.582397,-2.19284 -0.0088,-0.70767 -0.315922,-1.81049 -0.681891,-2.45067 -0.365969,-0.64019 -0.672828,-1.6354 -0.681891,-2.21157 -0.0088,-0.57616 -0.226018,-1.04758 -0.482093,-1.04758 -0.256074,0 -0.465586,-0.52379 -0.465586,-1.16398 0,-0.64019 -0.20953,-1.16398 -0.465604,-1.16398 -0.256075,0 -0.477958,-0.36666 -0.493073,-0.81479 -0.05737,-1.70026 -2.056479,-5.00228 -3.120387,-5.154 -1.751889,-0.24983 -3.370426,2.3076 -3.370426,5.32556 0,1.44191 -0.821613,2.97119 -1.596311,2.97119 -0.467646,0 -0.284776,-3.75098 0.229731,-4.71235 0.272686,-0.50951 0.424638,-1.13987 0.337655,-1.40079 -0.347404,-1.04223 -2.230215,3.50394 -2.230215,5.38501 v 1.97741 l -2.211563,0.10347 c -3.421158,0.16014 -3.543405,0.15732 -4.622852,-0.10699 -1.122824,-0.27488 -2.943025,1.01212 -2.943025,2.08092 0,1.39333 1.731018,2.1918 4.971541,2.29323 1.746979,0.0547 3.472296,0.33157 3.834023,0.61531 0.488886,0.38344 0.707988,0.36648 0.853587,-0.0662 0.107695,-0.3201 0.545091,-0.58865 0.971876,-0.59679 0.705629,-0.0141 0.70211,-0.0709 -0.03871,-0.63333 -0.855681,-0.64954 -1.11612,-2.83541 -0.391203,-3.28344 0.232951,-0.14394 0.76678,-0.13004 1.186279,0.031 0.596668,0.22898 0.732518,0.81209 0.623997,2.67866 -0.113678,1.95544 -0.327748,2.46892 -1.18628,2.84559 -1.17046,0.51351 -1.421255,1.63557 -0.365582,1.63557 0.941626,0 1.645954,1.48118 1.645954,3.46134 0,0.9131 0.20953,1.66018 0.465604,1.66018 0.256074,0 0.465586,0.30498 0.465586,0.67773 0,0.59325 0.239445,0.59325 1.92091,0 2.005851,-0.70771 4.466097,-0.87756 5.723293,-0.39513 0.585476,0.22468 0.73646,1.036 0.73646,3.95754 0,2.9562 0.136554,3.67492 0.698397,3.67492 0.577188,0 0.69838,-0.86284 0.69838,-4.97205 z m -70.121458,2.83882 c 0.155436,-0.40507 0.282609,-1.08024 0.282609,-1.50038 0,-0.58255 -0.177274,-0.51081 -0.746693,0.30215 -0.467278,0.66713 -1.033522,0.96681 -1.513176,0.80085 -0.563282,-0.19491 -0.526888,-0.0797 0.137294,0.43431 1.145376,0.88653 1.488238,0.87965 1.839966,-0.0369 z m -25.7905619,-0.37324 c 0,-0.0982 -0.523793,-0.27865 -1.163983,-0.40104 -0.640189,-0.1223 -1.16398,-0.0421 -1.16398,0.17852 0,0.22057 0.523791,0.40103 1.16398,0.40103 0.64019,0 1.163983,-0.0802 1.163983,-0.17851 z m 21.2911509,-0.10277 c -0.154714,-0.15468 -0.556289,-0.17122 -0.892386,-0.0368 -0.371417,0.1487 -0.261095,0.25895 0.281296,0.28129 0.490808,0.0202 0.765801,-0.0899 0.61109,-0.24454 z m -46.898838,-1.23187 c 9.7e-5,-0.73558 -0.608249,-0.81479 -6.257914,-0.81479 -3.669783,0 -6.377028,-0.19256 -6.545769,-0.4656 -0.270197,-0.43719 -4.423129,-0.6915 -4.423129,-0.27087 0,0.10716 -0.127174,0.52613 -0.282609,0.93119 -0.232488,0.60585 0.118447,0.74469 1.978768,0.78288 1.243757,0.0255 2.748672,0.18348 3.344256,0.35103 0.595584,0.16752 3.581147,0.30379 6.634585,0.30279 4.976199,-0.002 5.551717,-0.0864 5.551812,-0.81663 z m 6.641516,-1.0931 c 0.153078,-0.1531 0.165572,-0.57211 0.02779,-0.93119 -0.285833,-0.74486 -3.410051,-0.91645 -3.410051,-0.18727 0,0.25607 0.523791,0.46558 1.163981,0.46558 0.640189,0 1.16398,0.20952 1.16398,0.46559 0,0.51354 0.618235,0.62334 1.054304,0.18729 z m 26.2966293,-1.18568 c 0.4000123,-0.40002 0.8946676,-0.38292 1.9847115,0.0686 1.7556243,0.7272 28.3264782,0.38837 30.3130812,-0.38656 1.518636,-0.59238 2.065988,-1.88581 1.175058,-2.77673 -0.556578,-0.55658 -3.5443,-0.67014 -17.829032,-0.67762 -9.438224,-0.005 -17.8385986,0.1399 -18.667502,0.32201 -1.3366879,0.29359 -1.42847491,0.40963 -0.811769,1.02634 0.3824275,0.38242 0.6953249,0.98421 0.6953249,1.33732 0,0.65109 1.2250655,1.57942 2.118445,1.6053 0.2688798,0.007 0.7286328,-0.22561 1.0216824,-0.51866 z m 54.1277337,-1.54127 c 0,-2.0042 -0.05524,-2.08442 -1.639826,-2.38169 -2.533591,-0.4753 -10.832566,-0.0194 -11.48277,0.6308 -0.444031,0.44403 -0.348491,0.56582 0.443872,0.56582 0.66043,0 0.92557,0.21921 0.766506,0.63373 -0.260411,0.67862 1.512807,1.08742 6.318218,1.45666 1.404628,0.10787 2.626807,0.41505 2.715955,0.68249 0.08915,0.26744 0.77318,0.48626 1.520064,0.48626 1.297015,0 1.357981,-0.0931 1.357981,-2.07407 z m -100.102359,-0.28719 c 0,-0.52353 -1.139424,-1.82912 -1.596317,-1.82912 -0.370419,0 -0.334401,1.63883 0.04434,2.01757 0.490333,0.49033 1.551974,0.36143 1.551972,-0.18845 z m 107.606972,-0.59855 c 0.0303,-0.29269 0.04529,-0.64443 0.03324,-0.7816 -0.01197,-0.13725 0.366808,-0.24944 0.841863,-0.24944 0.475054,0 0.77491,0.14377 0.666318,0.31946 -0.108575,0.17562 2.559335,0.34871 5.928722,0.38447 3.369388,0.0357 6.280121,0.16013 6.468323,0.2765 0.358526,0.22158 1.059914,-1.18059 0.747036,-1.49347 -0.525505,-0.52549 -6.357601,-1.0782 -11.4021,-1.08058 l -5.74049,-0.004 0.324541,1.51319 c 0.178499,0.83224 0.411375,1.66115 0.517497,1.84204 0.278438,0.47454 1.549835,-0.0984 1.615047,-0.72788 z m 29.040888,-13.91795 c 0.299521,-1.9049 0.914015,-4.21149 1.643507,-6.1691 0.190841,-0.51215 0.728629,-2.18828 1.195096,-3.72475 0.466448,-1.53644 1.014583,-2.99259 1.218063,-3.23586 0.20347,-0.24328 0.36996,-0.81945 0.36996,-1.28039 0,-0.46092 0.18509,-0.83806 0.41128,-0.83806 0.40695,0 0.54592,-0.32794 1.67691,-3.95754 0.85878,-2.756 2.16836,-6.40564 2.629,-7.32675 0.22238,-0.44466 0.40433,-1.12844 0.40433,-1.5195 0,-0.39106 0.18674,-1.07484 0.41498,-1.51948 0.7395,-1.4407 1.91297,-5.97453 1.91297,-7.39098 0,-0.75851 0.19204,-1.57817 0.42672,-1.82143 0.87199,-0.90387 0.83936,-19.968065 -0.0352,-20.50851 -0.21538,-0.133211 -0.39161,-0.663678 -0.39161,-1.178995 0,-1.007685 -1.01615,-2.267239 -1.82911,-2.267239 -0.27437,0 -0.49884,-0.209513 -0.49884,-0.465587 0,-0.627269 -1.54826,-0.588749 -3.00446,0.07479 -1.28137,0.58384 -1.48833,1.080169 -0.6631,1.590188 0.70113,0.433313 -0.1589,10.533802 -0.9881,11.604468 -0.19832,0.256074 -0.50745,1.356022 -0.68694,2.444355 -0.17951,1.08832 -0.517461,1.97877 -0.751028,1.97877 -0.233568,0 -0.424673,0.52378 -0.424673,1.16398 0,0.64019 -0.209512,1.16397 -0.465587,1.16397 -0.256074,0 -0.465604,0.42189 -0.465604,0.93751 0,0.51563 -0.198338,1.30131 -0.440739,1.74597 -0.242419,0.44467 -0.78223,1.90597 -1.199583,3.24735 -0.417353,1.34139 -0.952325,2.55848 -1.188831,2.70464 -0.236489,0.14623 -0.429987,0.67242 -0.429987,1.16946 0,0.49703 -0.209513,0.9037 -0.465587,0.9037 -0.256074,0 -0.465604,0.21465 -0.465604,0.47701 0,0.59135 -3.790646,6.68163 -4.291427,6.89486 -0.200467,0.0853 -0.364491,0.55677 -0.364491,1.04759 0,0.49081 -0.209512,0.89239 -0.465586,0.89239 -0.256075,0 -0.465604,0.61619 -0.465604,1.36929 0,0.75311 0.209529,1.49879 0.465604,1.65706 0.256074,0.1582 0.465586,0.69725 0.465586,1.19777 0,0.50052 0.196051,1.27384 0.435654,1.71849 1.196327,2.22017 1.892314,4.08499 1.892314,5.07033 0,0.60086 0.185738,1.09245 0.412742,1.09245 0.227021,0 0.520402,0.57617 0.651994,1.28039 0.131627,0.70421 0.679146,3.02216 1.216828,5.151 0.537664,2.12886 0.977577,4.48591 0.977577,5.23793 0,2.06408 0.806602,1.63905 1.160482,-0.61149 z m 0.718264,-16.14873 c -0.529077,-0.9886 -0.571328,-4.73296 -0.07356,-6.51438 0.443449,-1.58688 1.453915,-1.79963 1.453915,-0.30612 0,0.66153 -0.209512,1.20279 -0.465586,1.20279 -0.256075,0 -0.465587,1.17195 -0.465587,2.60433 0,2.21279 0.140074,2.64097 0.931173,2.84786 1.197894,0.31326 1.209473,1.06609 0.01584,1.06609 -0.503157,0 -1.131693,-0.40527 -1.396778,-0.90057 z m 3.369762,-4.2672 c 0,-1.22322 0.20726,-1.81612 0.63488,-1.81612 0.3492,0 0.63491,0.29681 0.63491,0.6596 0,0.36276 0.17726,0.72942 0.39393,0.81478 0.21666,0.0854 -0.069,0.6058 -0.6349,1.15652 l -1.02882,1.00134 z m 3.83208,-10.31317 c 0.15204,-0.83226 0.4235,-2.87503 0.60309,-4.53953 0.17962,-1.6645 0.53607,-2.9697 0.79214,-2.90047 0.57004,0.15415 0.31077,4.93216 -0.27948,5.15084 -0.2304,0.0854 -0.4189,0.9758 -0.4189,1.97876 0,1.00296 -0.21901,1.82357 -0.48668,1.82357 -0.29543,0 -0.37801,-0.59468 -0.21017,-1.51317 z m -4.424671,-11.50925 c 0,-0.50437 0.419042,-1.66307 0.931191,-2.57492 0.51215,-0.91184 0.93119,-2.05819 0.93119,-2.54744 0,-0.48926 0.20951,-1.019041 0.46559,-1.177293 0.25607,-0.158198 0.46558,-1.834401 0.46558,-3.724744 0,-3.301797 0.51692,-4.777497 1.12154,-3.20188 0.39825,1.037795 -0.23191,8.090587 -0.72289,8.090587 -0.21924,0 -0.39865,0.63141 -0.39865,1.4031 0,0.77171 -0.19422,1.76692 -0.4316,2.21156 -0.23737,0.44466 -0.54508,1.17512 -0.68378,1.62327 -0.34578,1.11728 -1.678171,1.03611 -1.678171,-0.10224 z m 11.339631,37.65062 c 0.96616,-1.05082 1.96128,-2.44874 2.21135,-3.10649 0.64135,-1.68686 0.99781,-5.16826 0.66498,-6.49436 -0.40516,-1.6143 -2.13016,-1.254 -2.72895,0.56999 -0.25219,0.76824 -0.85832,1.7474 -1.34696,2.17591 -0.48866,0.42852 -0.90677,1.42372 -0.92919,2.21156 -0.0234,0.82522 -0.29105,1.43245 -0.63126,1.43245 -1.01219,0 -1.36609,3.16522 -0.50756,4.53951 0.61893,0.99074 1.44329,0.65556 3.26759,-1.32857 z m -2.95897,-0.41739 c 0,-0.25609 0.41904,-0.4656 0.93119,-0.4656 0.51215,0 0.93119,-0.24443 0.93119,-0.54319 0,-0.29875 0.10963,-0.43349 0.24376,-0.29944 0.13409,0.13409 0.11157,0.58801 -0.0498,1.00878 -0.31494,0.8207 -2.05632,1.07427 -2.05632,0.29945 z m 3.16463,-4.42314 c 0.11966,-1.79252 0.29977,-3.35142 0.40002,-3.46422 0.1003,-0.1128 0.53984,0.15239 0.97687,0.58951 0.65671,0.65672 0.69518,0.95378 0.22171,1.71194 -0.3151,0.50455 -0.5729,1.33922 -0.5729,1.85485 0,0.51561 -0.19415,0.93751 -0.43144,0.93751 -0.2373,0 -0.51708,0.36665 -0.62173,0.81478 -0.1047,0.44813 -0.0922,-0.65183 0.0275,-2.44437 z m -19.607902,2.00787 c -0.148696,-0.37142 -0.258942,-0.26109 -0.281291,0.28129 -0.02024,0.49083 0.08975,0.76582 0.244549,0.6111 0.154679,-0.15468 0.17122,-0.5563 0.03678,-0.89239 z m -10.612092,-2.58986 -0.05103,-3.14274 -0.422791,2.09516 c -0.390305,1.93412 -0.228288,4.19033 0.300895,4.19033 0.12318,0 0.200977,-1.41423 0.17298,-3.14275 z m 7.833883,0.47941 c 0.968972,-0.44054 1.844326,-0.85483 1.945229,-0.92065 0.190525,-0.12423 -1.124865,-4.79558 -1.809555,-6.42624 -0.215055,-0.51215 -0.669221,-1.61212 -1.009287,-2.44436 -0.492193,-1.20458 -0.886722,-1.51318 -1.934652,-1.51318 -0.724002,0 -1.615687,0.29931 -1.981515,0.66514 -0.766868,0.76688 -0.878733,1.979 -0.203581,2.20602 0.253839,0.0853 0.565503,0.78374 0.692572,1.55196 0.716822,4.33366 0.758914,4.42315 2.08027,4.42315 0.696479,0 1.396038,0.12969 1.554553,0.28822 0.590844,0.59083 -1.053948,1.57414 -2.633032,1.57414 -1.595538,0 -2.430947,0.50094 -1.832853,1.09903 0.568811,0.56883 3.380227,0.29314 5.131851,-0.50323 z m -4.523728,-12.94694 c 0,-0.44762 1.2809,-1.61663 1.771334,-1.61663 0.256848,0 0.364684,-1.60444 0.258186,-3.84113 -0.221813,-4.65814 -0.719074,-8.3296 -0.977454,-7.21668 -0.103999,0.44813 -0.36039,0.81478 -0.569674,0.81478 -0.209283,0 -0.495009,0.68093 -0.634959,1.51317 -0.139898,0.83226 -0.550528,3.03217 -0.91245,4.88873 -0.361904,1.85653 -0.542697,3.37554 -0.401761,3.37554 0.140953,0 0.0053,0.25141 -0.302461,0.55871 -0.3073,0.30728 -0.558711,1.4051 -0.558711,2.43959 v 1.88089 l 1.163984,-1.25529 c 0.640186,-0.69041 1.163966,-1.38416 1.163966,-1.54168 z m -15.663858,-15.8172 c 0.384112,-0.38411 0.922884,-0.69839 1.197242,-0.69839 0.887761,0 0.529535,-1.20217 -0.668675,-2.244 -1.635497,-1.42204 -2.151588,-1.29677 -2.531112,0.61443 -0.05086,0.25607 -0.388941,0.79321 -0.751312,1.19361 -1.322506,1.46136 1.333014,2.5552 2.753857,1.13435 z m -3.679036,-2.49517 c 0.41415,-1.30487 -0.139211,-2.27108 -1.44348,-2.52041 -1.505894,-0.28788 -2.516997,1.48224 -1.501908,2.62933 0.891866,1.00787 2.611117,0.94429 2.945388,-0.10892 z M 97.958112,81.506841 c -0.507186,-0.507204 -0.6997,0.156087 -0.3779,1.301893 l 0.321184,1.143641 0.163654,-1.087559 c 0.08992,-0.598164 0.04188,-1.209244 -0.106815,-1.357975 z M 95.266621,58.018887 c 0.811829,-0.81183 0.685939,-1.303658 -0.333678,-1.303658 -0.49082,0 -0.974585,-0.246611 -1.075065,-0.548026 -0.10048,-0.301416 -0.424303,-0.398693 -0.719637,-0.216171 -0.400688,0.247649 -0.404295,0.623006 -0.01408,1.479211 0.572666,1.256829 1.280038,1.451172 2.142564,0.588644 z m 4.674307,-1.558362 c 0.793972,-1.742576 0.670492,-2.123668 -0.585898,-1.808337 -0.925665,0.232331 -1.155502,0.08881 -1.290614,-0.805912 -0.15943,-1.055409 -0.180107,-1.060205 -0.680395,-0.15739 -0.283807,0.512153 -0.412566,1.612114 -0.28613,2.444359 0.294682,1.939627 2.01801,2.13801 2.843037,0.327289 z m -3.184423,-2.771647 c 0,-0.783616 -0.08535,-0.815108 -1.125886,-0.41578 -1.040328,0.399208 -0.915388,1.114168 0.194713,1.114168 0.517322,0 0.931173,-0.310397 0.931173,-0.698388 z M 72.662114,20.084001 c 0.192055,-0.11305 0.349181,-0.54748 0.349181,-0.96542 0,-0.63748 0.110158,-0.6143 0.68358,0.14387 0.385062,0.50909 0.690056,0.64962 0.698397,0.32179 0.01584,-0.64774 3.273958,-0.83791 3.273958,-0.19114 0,0.21498 0.52378,0.62952 1.163984,0.92121 0.708058,0.32262 1.163966,0.35189 1.163966,0.0747 0,-0.25058 -0.328381,-0.45561 -0.729755,-0.45561 -0.913347,0 -0.490857,-1.59063 0.786717,-2.96195 0.872064,-0.93605 0.874229,-0.93544 0.874229,0.24542 0,1.45652 1.944419,3.64772 3.236915,3.64772 0.524379,0 0.953416,-0.20952 0.953416,-0.46559 0,-0.25608 0.277754,-0.4656 0.617239,-0.4656 0.339467,0 1.109292,-0.52379 1.710729,-1.16398 0.601419,-0.64019 1.580773,-1.16398 2.176315,-1.16398 1.018983,0 2.944802,1.44596 2.945523,2.21157 1.76e-4,0.19205 0.512395,0.37868 1.138257,0.41473 0.81885,0.0472 1.193864,-0.21395 1.337351,-0.93118 l 0.199412,-0.99673 0.333132,0.99763 c 0.207541,0.6215 0.872258,1.10546 1.763045,1.28361 1.669393,0.33388 1.829228,0.22923 1.998003,-1.30821 0.06951,-0.63394 0.251728,-1.3552 0.404753,-1.6028 0.532029,-0.86085 -0.261565,-1.83574 -1.661597,-2.04123 -0.90564,-0.13292 -1.494125,0.016 -1.648083,0.41735 -0.371512,0.96812 -1.536639,0.73526 -1.536639,-0.30711 0,-0.68287 -0.310397,-0.93118 -1.163984,-0.93118 -0.640186,0 -1.163984,0.20951 -1.163984,0.46559 0,0.77589 -2.335112,0.52309 -2.645755,-0.28643 -0.230031,-0.59945 -0.70702,-0.69467 -2.350968,-0.46935 -1.144627,0.15688 -2.470329,0.0644 -2.979116,-0.20793 -0.952167,-0.50959 -3.663964,0.30814 -3.663964,1.10484 0,0.20868 -0.209512,0.24993 -0.465587,0.0917 -0.256074,-0.15827 -0.465604,-0.69442 -0.465604,-1.19146 0,-1.08814 -1.030403,-1.16523 -2.520903,-0.18861 -0.949105,0.62187 -1.125393,0.62645 -1.352327,0.0351 -0.19107,-0.49794 -0.976538,-0.66325 -2.93361,-0.61743 -1.725721,0.0404 -2.739196,-0.13699 -2.860441,-0.50069 -0.267671,-0.80304 -2.286649,-0.69837 -2.606478,0.13513 -0.147465,0.38411 -0.820788,0.69839 -1.496409,0.69839 -0.900631,0 -1.156899,-0.18635 -0.960409,-0.69839 0.213405,-0.55612 -0.152832,-0.69839 -1.797946,-0.69839 -1.645105,0 -2.01135,0.14226 -1.797945,0.69839 0.164058,0.42751 -8.5e-5,0.69839 -0.423195,0.69839 -0.380157,0 -0.952015,-0.31428 -1.270802,-0.69839 -0.318788,-0.38411 -0.778439,-0.69839 -1.021449,-0.69839 -0.243012,0 -0.756118,0.31428 -1.140231,0.69839 -0.914554,0.91456 -2.028652,0.89325 -2.028652,-0.0388 0,-0.40545 -0.261895,-0.64116 -0.58199,-0.52379 -0.320094,0.11737 -0.529612,0.4491 -0.465593,0.73718 0.06402,0.28809 -0.115526,0.5238 -0.399008,0.5238 -0.312072,0 -0.379112,0.32143 -0.169936,0.81478 0.190008,0.44814 0.475082,1.53089 0.63349,2.40612 0.349479,1.93094 1.448629,2.51929 1.448629,0.77543 0,-1.24285 0.692751,-1.6469 1.064349,-0.62079 0.168616,0.46559 0.407906,0.46559 1.196466,0 1.545785,-0.91269 1.929516,-0.70435 1.929516,1.04758 0,1.34676 0.170253,1.62958 0.981,1.62958 0.654645,0 0.896871,-0.21923 0.728115,-0.659 -0.139088,-0.36244 -0.07475,-1.25289 0.14296,-1.97876 0.219806,-0.73286 0.413641,-0.95743 0.435865,-0.50499 0.02201,0.44813 0.249533,0.81479 0.505609,0.81479 0.256076,0 0.466208,0.26189 0.466963,0.58199 9.31e-4,0.34354 0.643029,0.59524 1.567494,0.61433 0.861371,0.0178 2.170234,0.48543 2.908594,1.03919 1.241869,0.93141 3.140765,1.03429 4.485208,0.24301 z m -1.513183,-2.94412 c 0,-0.86911 0.124236,-0.99327 0.558711,-0.55871 0.434545,0.43455 0.434545,0.68287 0,1.11742 -0.434545,0.43455 -0.558711,0.3104 -0.558711,-0.55871 z M 53.044372,250.75084 c -0.03021,-1.51006 0.149418,-2.67716 0.412049,-2.67716 0.548096,0 0.555262,0.93663 0.02673,3.49195 -0.3811,1.84244 -0.385788,1.83373 -0.438759,-0.81479 z m -3.312689,-0.84227 c 0,-0.27119 0.209516,-0.36357 0.465592,-0.20532 0.256076,0.1582 0.465592,0.38015 0.465592,0.49307 0,0.11297 -0.209516,0.20532 -0.465592,0.20532 -0.256076,0 -0.465592,-0.22188 -0.465592,-0.49307 z m 1.163981,-13.39507 c -1.365852,-1.20363 -2.054678,-2.60685 -2.257523,-4.59881 -0.09893,-0.97147 -0.08895,-1.29491 0.02216,-0.71872 0.111126,0.57616 0.397635,1.04757 0.636703,1.04757 0.239067,0 0.434667,0.39663 0.434667,0.88138 0,0.84823 1.272027,1.72653 1.773809,1.22474 0.134073,-0.13409 -4.65e-4,-0.24375 -0.299432,-0.24375 -0.344314,0 -0.525741,-0.80972 -0.495533,-2.21156 l 0.04765,-2.21157 0.467928,1.62957 c 0.257358,0.89628 0.500257,2.34624 0.539766,3.22217 0.03952,0.87592 0.331292,1.67907 0.648399,1.78476 0.317101,0.10576 0.576552,0.38425 0.576552,0.61898 0,0.6846 -1.086148,0.46441 -2.095165,-0.42476 z M 43.79538,153.68869 c -0.320095,-0.11438 -0.58199,-0.39831 -0.58199,-0.6311 0,-0.2328 -0.406337,-0.89626 -0.90297,-1.47438 -0.496628,-0.57813 -1.330346,-1.54958 -1.852703,-2.15881 -0.964815,-1.12525 -0.892313,-2.18909 0.110686,-1.6242 1.174937,0.66172 2.644983,2.22518 2.644983,2.81305 0,0.33947 0.186805,0.61722 0.415118,0.61722 0.38897,0 1.190496,2.30365 0.887921,2.55196 -0.07648,0.0628 -0.400954,0.0206 -0.721049,-0.0938 z m 5.587108,-0.39228 c -0.320095,-0.34641 -0.58199,-0.8612 -0.58199,-1.14394 0,-1.19256 -2.586566,-5.84552 -4.027281,-7.24464 -1.558557,-1.51355 -1.989048,-2.52361 -1.075583,-2.52361 0.748057,0 4.014962,3.61911 4.649307,5.15058 0.311588,0.75224 0.750627,1.36772 0.975636,1.36772 0.225006,0 0.409106,0.52378 0.409106,1.16397 0,0.6402 0.209516,1.16398 0.465592,1.16398 0.537554,0 0.639123,2.16796 0.116406,2.48441 -0.192058,0.11631 -0.611091,-0.072 -0.931186,-0.41847 z m -2.351242,-0.76227 c -0.307291,-0.3073 -0.55871,-0.80199 -0.55871,-1.09935 0,-0.29734 -0.923582,-1.5324 -2.052405,-2.74456 -2.321136,-2.49252 -3.149556,-4.30304 -1.586003,-3.46626 1.234661,0.66077 3.607637,3.29755 3.624761,4.02773 0.0076,0.32009 0.170781,0.58363 0.362842,0.58563 0.192055,0.002 0.611131,0.56766 0.931277,1.25701 0.639467,1.37693 0.163953,2.3255 -0.721762,1.4398 z m 20.895305,-49.06569 c 0.02235,-0.54238 0.132683,-0.65271 0.281291,-0.28129 0.134443,0.33611 0.117902,0.73768 -0.03678,0.89239 -0.154679,0.15468 -0.26475,-0.12036 -0.24453,-0.6111 z m -20.884,-5.529316 c 1.025803,-1.083284 1.572897,-1.396144 1.670989,-0.955598 0.264535,1.188127 -0.829118,2.566181 -2.036567,2.566181 h -1.159576 z m 24.10638,-20.744168 c 0,-0.978422 -0.75133,-2.535034 -1.745976,-3.617261 -0.712862,-0.775649 -0.763154,-1.96353 -0.08306,-1.96353 0.731321,0 1.829104,1.221016 1.829104,2.034429 0,0.387296 0.209512,0.833667 0.465587,0.991936 0.256074,0.158199 0.465604,1.008688 0.465604,1.88985 0,0.881144 -0.20953,1.602084 -0.465604,1.602084 -0.256075,0 -0.465587,-0.421875 -0.465587,-0.937508 z M 24.117747,63.349919 c -0.0037,-0.960284 -0.1327,-2.217383 -0.287103,-2.793554 -0.206392,-0.77015 -0.0814,-1.047584 0.471953,-1.047584 0.434667,0 0.75269,0.381833 0.75269,0.903706 0,0.49704 0.209516,1.033196 0.465592,1.19146 0.256076,0.158269 0.465593,1.008698 0.465593,1.889849 0,1.291701 -0.180413,1.602097 -0.931185,1.602097 -0.764512,0 -0.93232,-0.312526 -0.93754,-1.745974 z m 2.725624,-1.611792 c 0.09803,-2.078092 0.304776,-3.098502 0.541907,-2.674773 0.210873,0.376805 0.312064,1.521617 0.224873,2.54403 -0.08719,1.022413 -0.173913,2.225594 -0.192714,2.673724 -0.01881,0.44813 -0.191325,0.815261 -0.383383,0.815824 -0.192055,4.75e-4 -0.277865,-1.510883 -0.190683,-3.358805 z m 1.471062,2.686856 c 0,-0.368996 0.209517,-0.800408 0.465594,-0.958665 0.256076,-0.158269 0.465591,-1.532489 0.465591,-3.053831 0,-1.521341 0.187102,-2.766074 0.41578,-2.766074 0.639332,0 1.067109,1.496903 0.569874,1.994136 -0.242908,0.24291 -0.325224,1.569731 -0.182921,2.948499 0.240651,2.331683 0.189114,2.506845 -0.737597,2.506845 -0.557085,0 -0.996321,-0.295773 -0.996321,-0.67091 z m 31.756846,-1.430939 c -0.309186,-1.156016 -0.562156,-3.565455 -0.562156,-5.354313 0,-2.942068 0.08887,-3.252465 0.931183,-3.252465 0.877205,0 0.931186,0.310397 0.931186,5.354312 0,2.944873 -0.166065,5.354315 -0.369029,5.354315 -0.202961,0 -0.621994,-0.945831 -0.931184,-2.101849 z M 26.594438,50.459478 c -0.305806,-0.348273 -0.749524,-0.706955 -0.986036,-0.797075 -0.236517,-0.09012 -0.587591,-0.669904 -0.78017,-1.288407 l -0.350145,-1.124549 1.240949,1.240947 c 1.360204,1.360205 3.400249,1.64633 3.826079,0.536634 0.148644,-0.387378 0.01162,-1.015928 -0.304419,-1.396777 -0.490659,-0.591215 -0.328083,-0.692462 1.111897,-0.692462 1.939504,0 2.225349,-0.749394 0.531491,-1.393397 -0.731105,-0.277969 -1.060354,-0.686032 -0.896996,-1.111732 0.155489,-0.405195 -0.0662,-0.735035 -0.557641,-0.829696 -0.777166,-0.149699 -0.777174,-0.195668 -1.84e-4,-0.972644 1.113198,-1.113186 0.778096,-2.297899 -0.887728,-3.138466 C 27.405793,38.918766 24.649946,38.778418 13.527905,38.727235 3.4644885,38.680905 -0.27607091,38.51398 -0.78906071,38.088239 -1.1709899,37.771262 -1.4866859,37.694714 -1.4906059,37.918127 c -0.0039,0.22341 -0.210229,0.09193 -0.458463,-0.292186 -0.248237,-0.384115 -0.448171,-1.012664 -0.444307,-1.396777 0.0055,-0.546704 0.110106,-0.521428 0.4816,0.116388 0.261011,0.448133 0.778433,0.814787 1.14982189,0.814787 0.3713887,0 0.6752535,0.235507 0.6752535,0.523349 0,0.380613 2.31743401,0.431307 8.49706091,0.185865 14.6527816,-0.581981 18.5064716,-0.380682 21.2398156,1.10947 0.96793,0.527692 1.074676,0.852154 0.87198,2.650453 -0.210588,1.868333 -0.140989,2.049156 0.788681,2.049156 1.272865,0 5.849852,-2.172208 5.849852,-2.7763 0,-0.245371 -0.294693,-0.71629 -0.65487,-1.046478 -0.562092,-0.51529 -0.55683,-0.710304 0.03711,-1.376403 0.531757,-0.596364 0.574644,-0.995306 0.185212,-1.722966 -0.452906,-0.846256 -0.329034,-0.995982 1.165313,-1.40859 0.919647,-0.253929 2.055026,-0.903225 2.523073,-1.442884 0.499906,-0.576399 0.971263,-0.786596 1.142522,-0.509489 0.302211,0.488989 -0.922036,1.939671 -2.276673,2.697763 -0.562957,0.315048 -0.782013,1.089962 -0.795362,2.813631 -0.01742,2.239625 -0.124236,2.448848 -1.826374,3.575275 -0.994371,0.658043 -2.103501,1.196441 -2.46474,1.196441 -0.822188,0 -3.069235,1.82569 -2.273124,1.846878 0.320094,0.0084 0.58199,0.344729 0.58199,0.747137 0,0.402402 -0.261896,0.994081 -0.58199,1.314843 -0.320095,0.320759 -1.105782,1.246715 -1.745971,2.057685 -1.224942,1.551706 -2.650362,1.875713 -3.582366,0.814292 z m 63.52738,0.04857 c -0.499672,-1.220383 -0.430972,-3.46476 0.116494,-3.803056 0.256074,-0.158269 0.465586,-0.69442 0.465586,-1.19146 0,-0.497038 0.209512,-0.903705 0.465587,-0.903705 0.256074,0 0.465604,-0.419033 0.465604,-0.931184 0,-0.512152 0.209512,-0.931185 0.465586,-0.931185 0.256075,0 0.465587,-0.29114 0.465587,-0.646978 0,-0.788165 2.740358,-3.801724 3.76696,-4.142529 0.40734,-0.135217 1.024966,-0.07013 1.372493,0.144667 0.467751,0.289081 0.321096,0.468528 -0.564535,0.690807 -0.658012,0.16515 -1.468187,0.808102 -1.800351,1.428769 -0.332182,0.620667 -0.77806,1.128483 -0.990863,1.128483 -0.212803,0 -0.386927,0.523791 -0.386927,1.163981 0,0.640189 -0.209512,1.163982 -0.465587,1.163982 -1.181457,0 -0.298307,0.888707 1.011733,1.018082 2.109376,0.208321 2.302065,1.309878 0.229133,1.309878 -2.340268,0 -3.103229,0.412897 -3.103229,1.679388 0,0.612789 -0.19561,1.114166 -0.434668,1.114166 -0.239076,0 -0.500975,0.576171 -0.581992,1.280379 -0.122653,1.065998 -0.205799,1.137578 -0.496523,0.427512 z M 25.055287,46.710316 c 0,-0.125117 0.360839,-0.6489 0.801862,-1.163981 0.810275,-0.946329 2.295096,-1.338504 1.754202,-0.46332 -0.160838,0.260252 -0.472398,0.361971 -0.692344,0.226036 -0.219947,-0.135938 -0.533863,0.174916 -0.697593,0.690796 -0.25643,0.807932 -1.166127,1.362173 -1.166127,0.710469 z M -1.3854379,34.646554 c 0.330193,-0.358288 0.67370799,-0.581744 0.76337099,-0.496568 0.2761615,0.262342 -0.42375399,1.147996 -0.90724399,1.147996 -0.251061,0 -0.186316,-0.293141 0.143873,-0.651428 z m 1.53622729,-1.218535 c 0.1608384,-0.260252 0.4874845,-0.352648 0.7258666,-0.205317 0.64579581,0.39912 0.52538001,0.678503 -0.2924477,0.678503 -0.3992258,0 -0.5942625,-0.212935 -0.4334189,-0.473186 z M 5.3534009,33.230701 c -0.726588,-0.55083 -0.7599206,-0.77775 -0.237196,-1.61477 0.6798675,-1.08864 1.312087,-1.27609 1.3217426,-0.39188 0.0037,0.32009 0.1327004,1.0534 0.2871035,1.629572 0.3183297,1.18786 -0.1370293,1.313039 -1.3716501,0.377078 z m 2.4749694,-2.97664 c 0,-0.6552 0.5241306,-0.95709 1.2068242,-0.69512 0.3576066,0.13723 0.5342771,0.43707 0.3925968,0.66631 -0.3249691,0.52581 -1.599421,0.54877 -1.599421,0.0288 z m -1.5603307,-1.22903 c -0.4667708,-1.21638 -0.3640102,-1.64212 0.3963486,-1.64212 0.384115,0 0.6983885,-0.20952 0.6983885,-0.46559 0,-0.64244 -3.4156553,-0.58844 -4.0684161,0.0643 -0.6891325,0.68914 -12.3786195,0.64576 -12.6094705,-0.0468 -0.08857,-0.26571 -0.382376,-0.48311 -0.652899,-0.48311 -0.6411261,0 -1.7247651,-1.43879 -1.7436961,-2.31517 -0.0097,-0.44608 0.23839,-0.3241 0.709984,0.3492 0.398634,0.56913 1.1319431,1.03478 1.6295721,1.03478 0.497634,0 0.904786,0.20952 0.904786,0.4656 0,0.57467 9.15041639,0.63787 9.5040759,0.0656 0.3186464,-0.51557 5.9773261,-1.10141 6.9677295,-0.72136 0.746596,0.28649 1.0884901,2.05251 0.3973604,2.05251 -0.1967648,0 -0.6893981,0.54657 -1.0947389,1.21461 -0.6283728,1.03561 -0.7815001,1.09861 -1.0390244,0.42751 z m -17.9741146,-7.75421 c -0.01161,-0.9554 0.282894,-1.9407 0.677954,-2.26857 0.866859,-0.71943 0.869666,-0.28155 0.01337,2.09516 l -0.670942,1.86237 -0.02043,-1.68896 z"
       id="path4797"
       inkscape:connector-curvature="0" />
  </g>
</svg>
