<?xml version="1.0" encoding="UTF-8" standalone="no"?>
<!-- Created with Inkscape (http://www.inkscape.org/) -->

<svg
   xmlns:dc="http://purl.org/dc/elements/1.1/"
   xmlns:cc="http://creativecommons.org/ns#"
   xmlns:rdf="http://www.w3.org/1999/02/22-rdf-syntax-ns#"
   xmlns:svg="http://www.w3.org/2000/svg"
   xmlns="http://www.w3.org/2000/svg"
   xmlns:sodipodi="http://sodipodi.sourceforge.net/DTD/sodipodi-0.dtd"
   xmlns:inkscape="http://www.inkscape.org/namespaces/inkscape"
   width="210.00002mm"
   height="630.0636mm"
   viewBox="0 0 210.00003 630.06356"
   version="1.1"
   id="svg8"
   inkscape:version="0.92.3 (2405546, 2018-03-11)"
   sodipodi:docname="christian_democrats.svg">
  <defs
     id="defs2" />
  <sodipodi:namedview
     id="base"
     pagecolor="#ffffff"
     bordercolor="#666666"
     borderopacity="1.0"
     inkscape:pageopacity="0.0"
     inkscape:pageshadow="2"
     inkscape:zoom="0.7"
     inkscape:cx="-323.20451"
     inkscape:cy="232.0759"
     inkscape:document-units="mm"
     inkscape:current-layer="layer1"
     showgrid="false"
     fit-margin-top="0"
     fit-margin-left="0"
     fit-margin-right="0"
     fit-margin-bottom="0"
     inkscape:window-width="1920"
     inkscape:window-height="1017"
     inkscape:window-x="-8"
     inkscape:window-y="-8"
     inkscape:window-maximized="1" />
  <metadata
     id="metadata5">
    <rdf:RDF>
      <cc:Work
         rdf:about="">
        <dc:format>image/svg+xml</dc:format>
        <dc:type
           rdf:resource="http://purl.org/dc/dcmitype/StillImage" />
        <dc:title></dc:title>
      </cc:Work>
    </rdf:RDF>
  </metadata>
  <g
     inkscape:label="Layer 1"
     inkscape:groupmode="layer"
     id="layer1"
     transform="translate(-356.47936,1030.0934)">
    <path
       style="fill:#000000;stroke-width:1.26394582"
       d="m 471.63075,-403.81167 -8.52281,-4.16503 -10e-4,-6.31975 c -5.7e-4,-3.47583 0.76859,-7.79458 1.70921,-9.59718 0.94066,-1.8026 2.10738,-5.39446 2.59283,-7.98199 0.7897,-4.20955 0.4094,-5.22813 -3.61394,-9.68159 l -4.49656,-4.97714 v -21.48342 c 0,-12.7999 -0.48774,-21.48346 -1.20665,-21.48346 -1.95074,0 -2.60205,6.81031 -2.99568,31.32237 -0.47342,29.48456 0.5807,28.04565 -21.22302,28.96768 -12.14558,0.51363 -16.5895,1.19671 -19.83297,3.04856 -2.29904,1.31261 -5.28507,2.3866 -6.6357,2.3866 -1.35059,0 -2.45563,0.58663 -2.45563,1.30358 0,0.717 -0.99536,1.65661 -2.21191,2.08804 -1.21654,0.43137 -3.06509,1.45009 -4.10784,2.26363 -2.46662,1.92451 -9.98771,4.09294 -20.14262,5.8074 -8.60861,1.45339 -17.59714,0.0143 -20.30753,-3.25173 -0.72374,-0.87202 -1.44551,-5.41248 -1.60397,-10.0899 -0.28328,-8.37018 -0.21592,-8.56322 4.26936,-12.23372 2.98279,-2.44082 7.97793,-4.58412 14.45738,-6.20333 5.44496,-1.36066 10.93434,-3.41005 12.19856,-4.55417 1.26426,-1.14412 3.57443,-2.71861 5.13378,-3.49885 2.27228,-1.13691 2.85652,-2.53947 2.9427,-7.06388 0.1758,-9.2261 1.90426,-24.41762 3.08721,-27.13241 1.80695,-4.14692 3.30395,-32.97382 3.80694,-73.30884 0.25987,-20.85508 0.58085,-43.32173 0.71284,-49.92586 0.69153,-34.61017 0.36831,-71.85946 -0.65241,-75.20478 -0.89137,-2.92121 -1.182,-0.95834 -1.2657,8.5488 -0.0597,6.78732 -0.76582,13.61263 -1.56904,15.16735 -0.80323,1.55471 -1.85955,3.67986 -2.34738,4.72265 -0.48784,1.04275 -1.69803,2.05603 -2.68928,2.25179 -2.98169,0.58874 -11.82342,-7.97979 -14.27728,-13.83611 -1.26264,-3.0134 -3.6963,-8.20799 -5.40803,-11.54352 -2.55199,-4.97269 -3.03763,-7.51684 -2.69745,-14.13148 0.36354,-7.07162 0.043,-8.46152 -2.5891,-11.26454 -2.48817,-2.64848 -2.88409,-4.09112 -2.30587,-8.40185 0.38408,-2.8624 1.50279,-5.87103 2.48635,-6.68591 0.98356,-0.81488 2.54873,-4.04111 3.47812,-7.16936 0.92934,-3.12825 2.73227,-7.46124 4.00652,-9.62876 1.2742,-2.16757 2.31671,-4.84997 2.31671,-5.96089 0,-2.25814 3.55012,-10.56474 5.76164,-13.48112 0.79071,-1.04275 2.20378,-4.73976 3.14019,-8.21564 0.93636,-3.47583 2.4413,-7.74165 3.34427,-9.47957 2.36286,-4.54777 2.21835,-25.31796 -0.19825,-28.51318 -2.19987,-2.90851 -2.69778,-21.42476 -0.61081,-22.71458 0.91769,-0.56714 0.90149,-1.32981 -0.0525,-2.47956 -1.01161,-1.21889 -0.94387,-1.8347 0.25462,-2.31557 1.2494,-0.50131 1.26178,-0.67854 0.053,-0.75488 -1.17574,-0.0745 -1.57993,-4.20558 -1.57993,-16.14952 0,-8.82735 -0.66818,-20.67107 -1.48487,-26.31944 -1.4105,-9.75574 -1.33841,-10.57224 1.44111,-16.31391 1.60922,-3.32425 4.9972,-8.11718 7.52878,-10.65096 5.09628,-5.10063 18.77671,-16.03058 24.33154,-19.43958 1.96564,-1.20632 3.5739,-2.87602 3.5739,-3.71039 0,-0.83437 1.26064,-2.85891 2.80135,-4.49894 l 2.80135,-2.98188 -4.06528,-3.79934 c -2.23593,-2.08965 -4.06528,-4.62368 -4.06528,-5.63122 0,-1.00754 -0.50326,-1.83183 -1.11832,-1.83183 -0.61505,0 -1.51425,-3.16895 -1.99817,-7.04205 -0.48392,-3.87309 -1.75354,-9.13308 -2.82142,-11.68889 -1.37609,-3.29349 -1.74632,-7.04032 -1.27114,-12.86511 0.52615,-6.44997 0.23408,-8.70515 -1.35813,-10.48119 -1.50021,-1.67352 -2.04504,-4.96543 -2.092,-12.63944 -0.0588,-9.64004 0.21879,-10.78024 3.91442,-16.06434 6.17958,-8.8359 8.85549,-11.1613 14.64712,-12.7287 2.95298,-0.7992 6.50663,-1.919 7.89696,-2.4885 1.39033,-0.5696 8.61228,-1.3961 16.04878,-1.8369 13.38037,-0.7929 18.70972,0.161 18.70972,3.35 0,0.9152 -0.61902,0.8605 -1.85323,-0.1639 -2.14655,-1.7815 -22.23075,-1.9505 -23.34607,-0.1963 -0.39124,0.6155 -3.69706,1.5255 -7.34591,2.0224 -3.64886,0.4968 -7.00775,1.5076 -7.4642,2.2462 -0.55477,0.8976 0.49242,1.0784 3.15844,0.5451 2.1936,-0.4385 3.98836,-0.5627 3.98836,-0.2756 0,0.2871 -4.33208,2.634 -9.62689,5.2152 -8.28859,4.0407 -9.94854,5.4116 -11.94065,9.8611 -2.07422,4.6329 -2.10943,5.2822 -0.34013,6.2723 1.08546,0.6075 4.89464,0.8042 8.46482,0.4372 l 6.49119,-0.6675 -6.0677,1.48616 c -3.33725,0.81736 -5.89673,2.04842 -5.68778,2.73566 0.47532,1.56269 10.70275,1.25791 12.76178,-0.38026 1.92962,-1.53522 16.25582,-6.58576 18.68097,-6.58576 1.00305,0 2.51983,-1.1146 3.37059,-2.4769 1.28634,-2.0598 1.17785,-2.7126 -0.64395,-3.876 -1.8015,-1.1505 -1.50647,-1.2865 1.66062,-0.7658 4.57318,0.7519 7.53839,-0.7498 6.55268,-3.3184 -0.88864,-2.3157 -10.44145,-3.9418 -13.31445,-2.2664 -1.17995,0.6881 -1.5766,1.2713 -0.88143,1.296 2.14488,0.076 -8.70764,6.2703 -11.05955,6.3123 -2.30181,0.043 -2.89795,-1.3811 -1.26393,-3.0151 0.52137,-0.5214 0.94797,-1.5948 0.94797,-2.3852 0,-2.2986 5.8653,-4.633 11.69147,-4.6532 3.32506,-0.01 5.37177,-0.5966 5.37177,-1.5354 0,-1.1797 0.33727,-1.1797 1.51674,0 0.83423,0.8342 2.39835,1.5203 3.47588,1.5245 1.07748,0 3.58823,0.8575 5.57943,1.896 4.41306,2.3015 7.05963,2.3357 9.96708,0.1285 2.76929,-2.1022 2.76929,-3.078 0,-6.3137 -2.19566,-2.5654 -2.18874,-2.5684 0.94797,-0.4022 8.28997,5.7255 12.67302,8.479 13.56228,8.5201 0.53518,0.024 2.60564,3.5453 4.60104,7.8235 3.07947,6.6026 3.52011,8.82302 2.9148,14.68794 -0.3922,3.80019 -1.21372,7.24712 -1.82557,7.65987 -0.61185,0.41274 -1.87631,3.52718 -2.80985,6.92109 -0.99107,3.6029 -3.75826,8.55185 -6.65004,11.89301 -6.02925,6.96624 -7.26475,10.01122 -7.26475,17.90402 0,5.39055 0.35398,6.18928 3.04307,6.8642 1.67366,0.4199 6.44935,3.60997 10.6126,7.08871 4.16326,3.47875 8.39627,6.32496 9.40672,6.32496 2.15831,0 11.18051,6.22859 17.16457,11.84978 4.45051,4.18055 9.25572,13.25201 11.46547,21.64479 0.73214,2.78066 2.48267,7.30894 3.8901,10.06281 1.40743,2.75391 2.55896,5.80472 2.55896,6.77964 0,0.97491 1.0555,3.8407 2.34556,6.36847 4.73055,9.26899 7.76597,16.73075 7.76597,19.09046 0,1.33071 0.45765,2.70232 1.01696,3.04799 0.5593,0.34587 2.36577,4.92946 4.01435,10.18616 1.64859,5.25674 3.40442,9.55767 3.90186,9.55767 0.49739,0 1.28824,1.52944 1.7574,3.39878 0.46912,1.86928 1.88434,4.85537 3.14473,6.6357 3.54037,5.00069 5.54605,16.2413 4.65989,26.11651 -0.43042,4.79551 -1.1467,15.98438 -1.59197,24.86413 -0.44523,8.87981 -1.30239,16.44963 -1.90469,16.82191 -0.6023,0.37214 -1.09511,2.24935 -1.09511,4.17133 0,5.2222 -3.93988,27.22738 -5.00517,27.95493 -0.50891,0.34777 -1.32045,2.24525 -1.80341,4.217 -0.48292,1.9718 -3.4144,6.29658 -6.51432,9.6107 -3.09997,3.31408 -5.63628,6.6776 -5.63628,7.47447 0,0.79687 -0.47103,1.44886 -1.04686,1.44886 -1.31304,0 -4.00891,11.43312 -4.00891,17.00171 0,6.88402 -1.4994,12.23931 -3.6556,13.05653 -1.1177,0.42373 -3.73847,2.37567 -5.82402,4.33782 -2.0855,1.9622 -5.69141,4.83717 -8.01309,6.38882 l -4.2213,2.82122 0.71681,78.36466 c 0.69578,76.06835 0.84459,81.28358 2.43446,85.31632 0.98318,2.49395 2.8786,31.22707 2.35871,35.75583 -0.30574,2.66376 -1.2324,3.69142 -3.79184,4.20548 -1.86293,0.37405 -4.5247,1.52238 -5.91503,2.55156 -2.34394,1.73509 -2.36983,1.96086 -0.35589,3.10254 1.19447,0.67721 3.13832,3.34604 4.3197,5.93075 1.18139,2.58471 2.82557,5.55263 3.65374,6.59538 6.21995,7.83156 0.12133,18.69975 -15.20099,27.08822 -4.62788,2.53369 -8.68828,3.61585 -15.16735,4.04235 -8.06105,0.53069 -9.60535,0.21211 -17.37046,-3.58255 z m 6.39488,-45.55928 c 0.21975,-1.91171 0.89318,-3.47584 1.49601,-3.47584 0.60282,0 1.27601,1.56413 1.49595,3.47584 0.38265,3.32707 0.68471,3.46837 7.05246,3.3007 3.65889,-0.0965 7.3559,-0.74796 8.21564,-1.44804 0.85974,-0.70009 5.65797,-2.4853 10.66277,-3.96711 l 9.09964,-2.6943 -0.63129,-11.02501 c -0.91129,-15.91531 -3.11621,-31.8802 -4.40302,-31.8802 -1.26288,0 -1.77733,2.10972 -3.54472,14.53539 l -1.25844,8.84765 0.4854,-10.11158 c 0.67043,-13.96567 1.90607,-21.11123 4.08454,-23.61975 1.58266,-1.82251 1.60654,-2.8335 0.16433,-6.95171 -2.32307,-6.63312 -2.0266,-99.2923 0.33201,-103.69895 1.18191,-2.20847 1.20651,-3.27438 0.1008,-4.3799 -0.99603,-0.99603 -1.05431,-1.95131 -0.18297,-3.00099 0.73974,-0.89131 1.12635,-7.26222 0.91788,-15.12603 -0.38408,-14.50051 -0.0807,-13.84036 -7.94378,-17.27735 -3.94141,-1.72287 -5.44911,-5.68559 -3.66214,-9.62537 0.52888,-1.166 1.00043,-5.34751 1.04791,-9.29221 l 0.0865,-7.17222 -3.79184,0.74609 c -5.40387,1.06333 -12.00748,3.95755 -12.00748,5.26266 0,0.61047 -1.31762,1.44064 -2.92803,1.84483 -1.61042,0.40414 -3.5238,2.02999 -4.25202,3.61288 -6.73077,14.63098 -6.44878,12.86282 -5.80062,36.37255 0.33536,12.16546 1.11818,22.6594 1.73945,23.31979 0.62131,0.66044 1.14913,11.75152 1.17292,24.64697 0.0239,12.8954 0.58209,33.96851 1.24072,46.82918 2.11755,41.34782 2.59521,64.18058 1.25604,60.03916 -0.67405,-2.08459 -1.83685,-19.98025 -2.58394,-39.76817 -0.74709,-19.78793 -1.84459,-36.56755 -2.43881,-37.28809 -0.59423,-0.72058 -1.39975,-13.53878 -1.78999,-28.48495 -0.85004,-32.5562 -2.69936,-64.92132 -4.00819,-70.14902 -1.33535,-5.33332 -7.64631,-14.20505 -10.82194,-15.21292 -4.91795,-1.56088 -6.83534,2.17421 -6.58111,12.82021 0.12469,5.22655 0.79855,10.1915 1.49715,11.03332 0.69866,0.84183 1.63712,10.90196 2.08545,22.35587 1.51593,38.72929 4.33018,80.7738 5.55804,83.03649 1.44575,2.66419 3.98454,38.35385 5.04516,70.9242 0.69144,21.23252 0.96622,23.32662 3.2825,25.01862 1.39033,1.01557 4.23425,1.67926 6.31975,1.47484 3.08463,-0.30239 3.8664,-1.01996 4.19177,-3.84753 z m -47.22721,-5.90452 c 0.39603,-0.64066 4.3586,-1.55448 8.80595,-2.03076 l 8.08609,-0.86594 0.86594,-14.08457 c 0.47628,-7.74653 0.67081,-16.07534 0.43233,-18.50842 l -0.43376,-4.4238 -4.22383,4.36571 -4.22388,4.36571 -2.38374,-3.10178 c -2.62961,-3.42171 -3.0305,-6.41739 -1.30544,-9.75464 0.62399,-1.20708 2.40485,-11.01078 3.95746,-21.7859 1.55261,-10.77513 3.23306,-19.87554 3.73432,-20.22312 0.84293,-0.58453 3.32727,-25.93153 4.2739,-43.60615 0.53336,-9.95886 -2.84138,-59.9472 -4.26649,-63.19727 -0.60966,-1.39033 -1.47799,-5.51332 -1.92962,-9.16222 -0.45144,-3.64886 -1.4308,-7.01104 -2.17593,-7.47156 -1.80838,-1.11765 -7.04262,5.59062 -7.5135,9.62938 -0.25749,2.2067 -1.25094,3.3372 -3.17373,3.6106 -2.76896,0.39363 -3.19809,-0.3473 -4.41926,-7.63245 -0.24794,-1.48024 -0.91119,-1.83709 -2.0685,-1.11312 -1.68235,1.0524 -4.86367,33.76806 -5.35935,55.11352 -0.19729,8.48918 -0.24506,8.6172 -1.17866,3.15987 -0.53523,-3.12825 -0.68489,-17.17775 -0.33248,-31.22109 0.61844,-24.65304 0.54497,-25.68791 -2.1316,-30.0187 -1.52467,-2.46695 -3.25604,-4.48538 -3.84754,-4.48538 -0.59146,0 -1.1082,10.0587 -1.14828,22.35266 -0.054,16.54345 -0.48674,22.61039 -1.6654,23.34444 -1.27582,0.79453 -1.27835,1.49868 -0.0143,3.54104 1.9001,3.06591 2.05784,7.19487 0.31577,8.27139 -0.8038,0.49677 -1.25844,16.74385 -1.24883,44.62865 0.01,28.9234 -0.71366,53.86707 -2.12592,73.28515 l -2.14101,29.43765 2.79949,2.79299 c 2.39921,2.39362 2.97151,2.52189 4.00251,0.89705 0.66163,-1.04275 1.21167,-2.89126 1.22232,-4.1078 0.01,-1.21654 0.58821,-2.2119 1.28337,-2.2119 0.69517,0 1.26393,2.18028 1.26393,4.8451 0,2.66482 0.37931,5.22435 0.84264,5.68778 1.28657,1.28657 16.60407,1.00338 17.4233,-0.32198 z m -18.04513,-36.18486 c -0.12134,-3.51061 0.34634,-6.95004 1.03945,-7.6432 0.72622,-0.72621 1.32174,-10.32182 1.40534,-22.64387 0.0798,-11.76103 0.60449,-22.54098 1.16604,-23.95548 0.5615,-1.4145 0.7899,8.45187 0.50748,21.9253 -0.28233,13.47338 -1.05078,25.14441 -1.70744,25.93564 -0.65667,0.79124 -1.41804,3.98694 -1.69196,7.10157 l -0.49806,5.66299 z m 3.06567,-83.13805 c -0.54244,-11.00218 -0.71146,-20.27877 -0.37548,-20.6146 0.80527,-0.80528 2.58126,34.97987 1.89379,38.15881 -0.29236,1.35283 -0.97573,-6.54203 -1.51817,-17.54421 z m -19.71775,-84.22757 c 0,-0.67099 -1.58681,-3.08831 -3.52623,-5.37177 -3.97131,-4.67584 -6.58535,-10.06864 -6.58535,-13.58555 0,-1.29971 -0.54206,-2.5527 -1.20455,-2.78444 -0.66254,-0.23169 -1.58839,-2.83856 -2.05751,-5.79307 -0.77241,-4.86516 -0.60597,-5.37177 1.76491,-5.37177 2.69769,0 6.55292,4.30843 6.55292,7.32323 0,1.77899 2.97829,5.31626 4.47616,5.31626 0.4758,0 0.64099,-3.96238 0.36736,-8.80528 -0.42278,-7.48651 -1.01228,-9.34252 -3.93449,-12.39261 -4.1805,-4.36356 -4.31049,-5.32706 -0.59303,-4.39624 2.8195,0.70596 2.82323,0.68867 0.43615,-2.01427 -5.53171,-6.26347 -14.38127,-1.80733 -17.04409,8.58243 -1.93358,7.5445 -1.1101,13.65892 2.4489,18.18352 1.38699,1.76324 3.38693,5.65802 4.44434,8.65514 2.20459,6.24847 8.81608,13.67436 12.17463,13.67436 1.25399,0 2.27998,-0.54899 2.27998,-1.21994 z m 131.81923,-7.80275 7.52166,-7.7588 -0.81249,-6.91311 c -0.56312,-4.79126 -0.16433,-9.22295 1.299,-14.43841 2.04498,-7.28836 2.0319,-7.63222 -0.41514,-10.92298 -1.88696,-2.53741 -3.82116,-3.49451 -7.63894,-3.7799 -4.43398,-0.33153 -5.46531,0.1137 -7.77333,3.35497 -1.46356,2.05546 -2.66104,4.60596 -2.66104,5.66786 0,1.06191 -1.70634,3.14574 -3.79184,4.63075 -2.08555,1.48502 -3.79184,3.76528 -3.79184,5.06728 0,1.30196 -0.50594,2.67987 -1.12429,3.06204 -1.4201,0.87765 -2.49868,9.56594 -1.18755,9.56594 0.5348,0 2.26913,-2.27076 3.85399,-5.04607 2.83288,-4.96066 5.14047,-6.28201 6.66446,-3.81615 1.2197,1.97352 -3.89244,12.28555 -6.8843,13.88674 -1.48903,0.79688 -3.23478,2.83623 -3.87945,4.53191 -0.64468,1.69564 -2.0394,3.08301 -3.09935,3.08301 -1.9065,0 -2.56354,1.47021 -1.24597,2.78783 0.96135,0.9613 8.53514,-3.07383 13.30881,-7.09058 5.58823,-4.70221 6.35677,-2.9386 1.09091,2.50326 -5.43039,5.61192 -1.3386,4.62912 4.82618,-1.15917 2.25933,-2.12133 4.10784,-3.42362 4.10784,-2.89398 0,1.78631 -2.88395,6.47692 -4.60834,7.4954 -0.94124,0.55591 -1.7114,1.78826 -1.7114,2.73853 0,0.95026 -0.71098,2.01465 -1.57994,2.36529 -1.13256,0.45717 -1.07156,0.66579 0.21545,0.7373 0.98748,0.0549 5.18011,-3.39166 9.31705,-7.65896 z m -88.83763,-32.37152 c 0.004,-5.38759 0.80246,-24.29938 1.77412,-42.02622 0.97162,-17.72683 1.66645,-46.73436 1.54401,-64.46124 l -0.22261,-32.23059 -3.65172,-6.31975 c -2.0084,-3.47583 -4.75677,-8.45263 -6.10741,-11.0595 -1.35063,-2.60688 -2.96501,-4.73981 -3.58756,-4.73981 -0.62251,0 -1.13185,-0.7396 -1.13185,-1.64362 0,-0.90397 -2.84386,-4.83435 -6.31974,-8.73419 -3.47583,-3.89981 -6.3197,-8.10988 -6.3197,-9.35575 0,-1.24583 1.84851,-4.1774 4.1078,-6.51465 l 4.10784,-4.24954 -4.11921,-3.39433 c -3.3491,-2.75969 -4.11711,-4.30017 -4.10785,-8.23943 0.005,-2.66482 -0.41513,-4.63729 -0.93655,-4.38329 -6.5682,3.20024 -8.81235,4.70613 -12.48218,8.37596 -2.71727,2.71727 -4.82594,6.45943 -5.72542,10.16064 -0.78312,3.22255 -2.19686,6.75709 -3.14163,7.85459 -1.99124,2.31313 -2.25255,6.44361 -0.51746,8.17933 1.39292,1.39339 4.35745,45.99968 3.98584,59.97424 -0.24698,9.28146 -0.14522,9.62092 4.86459,16.2422 6.85946,9.0662 6.90513,14.42622 0.0607,7.14079 -3.79676,-4.04145 -5.54743,-4.02673 -4.52723,0.0382 1.06668,4.25001 -2.5259,23.03603 -5.63662,29.47444 -1.36157,2.81816 -2.4756,5.72638 -2.4756,6.46272 0,0.7363 -1.08555,3.74985 -2.4123,6.69676 -2.49145,5.53372 -7.69928,21.42112 -7.69928,23.48785 0,0.64352 3.26392,1.57783 7.2532,2.07628 3.98927,0.49839 8.96603,2.09342 11.05955,3.54443 3.68163,2.55184 3.73384,2.5547 1.59441,0.0879 -3.06013,-3.52838 -2.76633,-7.48092 0.91477,-12.30706 1.71967,-2.2546 3.76394,-7.19343 4.5428,-10.97519 0.77886,-3.78175 1.91754,-7.84144 2.53039,-9.02154 1.88128,-3.62253 5.41587,-20.31374 5.43412,-25.66115 0.0334,-9.55165 -1.68527,-16.7566 -4.14883,-17.40084 -2.99311,-0.78273 -4.02086,-7.57985 -1.79491,-11.87047 1.94405,-3.74712 2.19184,-8.23742 0.55047,-9.97424 -1.25108,-1.32379 -2.07155,-20.15753 -1.64906,-37.85517 0.24745,-10.37032 0.42134,-11.08841 1.96698,-8.1266 1.57176,3.01197 2.68884,10.17178 5.87924,37.68267 0.67587,5.82828 1.71499,11.23168 2.30912,12.00748 1.63033,2.12902 4.47912,22.84031 3.60261,26.19203 -0.82701,3.1626 2.06238,7.4492 5.02109,7.4492 0.93502,0 1.70003,0.85315 1.70003,1.89594 0,1.061 -1.12697,1.8959 -2.55915,1.8959 -3.16226,0 -4.42853,3.17473 -5.54556,13.90342 -0.96297,9.24922 -0.12851,10.42778 8.53609,12.05324 6.33159,1.18778 7.78073,3.28833 5.41916,7.85516 -3.08129,5.95845 -4.43828,6.52354 -11.93162,4.96863 -7.8639,-1.63176 -8.46539,-1.12353 -9.75339,8.24111 -0.45861,3.33528 -1.28189,6.06416 -1.8293,6.06416 -1.18578,0 -3.82328,9.91396 -3.82328,14.37111 0,3.69089 7.96776,10.90783 12.04264,10.90783 1.44054,0 3.20024,0.58109 3.9105,1.29135 1.38307,1.38312 10.25538,3.39858 15.96145,3.62593 l 3.47588,0.13853 0.01,-9.79557 z m -38.42256,-183.05955 c -1.19399,-3.11148 -0.90225,-11.67146 0.42564,-12.49216 0.70167,-0.43377 1.14847,2.39825 1.08498,6.87709 -0.11465,8.09927 -0.29713,8.77733 -1.51071,5.61507 z m 75.45941,191.45949 c 4.99935,-0.76759 9.70352,-1.89417 10.45372,-2.50345 0.7502,-0.60932 5.72905,-1.75707 11.06409,-2.55055 8.58334,-1.27659 10.1316,-1.93416 13.44802,-5.71133 3.9631,-4.51371 3.95875,-6.66518 -0.0239,-11.22202 -1.45267,-1.66263 -2.49943,-5.77267 -3.05821,-12.00748 -0.99794,-11.13542 -2.58476,-16.87178 -5.28755,-19.11492 -1.65542,-1.37385 -1.91314,-1.24439 -1.68571,0.84688 0.74361,6.83702 -0.97353,7.69809 -21.22473,10.64352 -12.72605,1.85094 -15.08777,1.07891 -15.67946,-5.12556 -0.53389,-5.59859 -0.20255,-5.80931 9.66449,-6.14218 3.45262,-0.11656 6.86529,-0.66617 7.58368,-1.22156 0.71843,-0.55539 4.86105,-1.77771 9.20589,-2.71622 l 7.89963,-1.70639 v -10.32803 c 0,-12.19555 -1.33477,-14.26935 -7.74586,-12.03442 -4.9479,1.72487 -6.15746,1.751 -6.15746,0.1328 0,-0.69516 0.75402,-1.26393 1.67557,-1.26393 0.9216,0 3.01145,-1.42195 4.64417,-3.15987 2.53154,-2.69468 2.64657,-3.15987 0.78139,-3.15987 -1.20292,0 -5.71009,1.75578 -10.01589,3.90166 -8.0795,4.02663 -22.34187,6.71362 -20.59005,3.87912 0.49663,-0.80356 2.61046,-1.46104 4.69734,-1.46104 6.49349,0 24.17341,-9.17555 28.70527,-14.89744 2.20307,-2.78162 4.00562,-5.36709 4.00562,-5.74554 0,-0.37834 -1.50365,-0.58094 -3.34145,-0.45 -5.11654,0.36449 -4.82375,-4.51791 0.69669,-11.61767 4.74449,-6.10181 4.93032,-7.33101 4.03552,-26.69477 -0.0817,-1.76634 0.97305,-4.0853 2.39147,-5.25837 2.65875,-2.19881 3.45233,-8.48736 1.33822,-10.60415 -1.63063,-1.63262 -3.19317,-11.9491 -1.80619,-11.92493 2.75951,0.0483 4.05602,2.54062 6.07153,11.67218 1.18917,5.38753 2.63539,9.79557 3.21381,9.79557 0.57841,0 1.74025,2.98608 2.58184,6.63571 0.84163,3.64962 2.57783,8.47116 3.85819,10.7145 1.28036,2.24333 3.50015,7.87403 4.93285,12.51256 1.43271,4.63858 4.55427,11.14707 6.93676,14.4634 l 4.33184,6.02958 -3.1775,12.42452 c -1.74761,6.83347 -3.67594,13.56205 -4.28522,14.95238 -0.60932,1.39033 -2.33543,7.07811 -3.83583,12.63949 -1.50045,5.56133 -3.20573,10.7027 -3.78954,11.42524 -2.0523,2.54004 -3.48114,11.69276 -2.04891,13.12499 0.74838,0.74834 4.87242,1.36062 9.16461,1.36062 8.2316,0 17.26236,2.52136 20.93482,5.84485 3.07961,2.78702 4.39495,1.47761 6.18465,-6.15694 0.85605,-3.65177 1.99487,-7.20839 2.53067,-7.90355 2.00792,-2.6052 3.61365,-21.16913 4.37307,-50.55782 0.6646,-25.71742 0.48736,-31.043 -1.16413,-34.98809 -1.07137,-2.55934 -2.47966,-4.98196 -3.12954,-5.38357 -0.64988,-0.40176 -2.43925,-4.84854 -3.97638,-9.88205 -1.53718,-5.03345 -3.27304,-9.75931 -3.85747,-10.50192 -0.58444,-0.74255 -1.71165,-4.43961 -2.50498,-8.21564 -0.79329,-3.77602 -2.76098,-9.42496 -4.37264,-12.55326 -5.84151,-11.33849 -9.6375,-20.34503 -11.8805,-28.18844 -1.25863,-4.4012 -2.91285,-9.10189 -3.67599,-10.44598 -0.7632,-1.34409 -2.22944,-4.58469 -3.25833,-7.20136 -1.0289,-2.61667 -2.89178,-5.13469 -4.13971,-5.59558 -1.24793,-0.46099 -2.55337,-1.17541 -2.90095,-1.58787 -0.34778,-0.41226 -2.33831,-1.57325 -4.42381,-2.57955 -2.08554,-1.0063 -4.21843,-2.03744 -4.73981,-2.29149 -0.52137,-0.25414 -0.94797,1.57621 -0.94797,4.06729 0,2.49098 -0.56876,4.52914 -1.26393,4.52914 -0.69516,0 -1.26393,0.90937 -1.26393,2.02086 0,1.1115 -0.79228,3.81319 -1.7606,6.00374 -0.96833,2.19055 -2.08803,4.97824 -2.48821,6.19478 -0.40033,1.21654 -1.93044,2.2119 -3.40055,2.2119 -3.15356,0 -2.7252,2.40203 0.77289,4.33351 3.3845,1.86876 4.24184,3.31093 3.36687,5.66342 -0.89046,2.39415 -20.22517,21.6318 -23.74085,23.6217 -1.34877,0.76339 -3.02109,2.50527 -3.71626,3.87085 -0.69517,1.36554 -3.82341,5.05544 -6.95166,8.19969 -6.33475,6.36718 -7.65619,8.19386 -11.47956,15.86882 -2.71159,5.4431 -2.44125,7.95901 0.85506,7.95901 3.82083,0 8.09659,4.0049 8.09659,7.58368 0,5.3304 -9.53183,10.32545 -12.02023,6.29911 -2.64208,-4.275 -4.24638,6.84771 -2.35312,16.31419 0.64539,3.22685 1.12564,3.69491 2.56532,2.50006 2.41908,-2.00763 6.90207,0.14618 9.18549,4.41257 1.57716,2.94696 1.51917,3.59216 -0.5262,5.85226 -2.79423,3.0876 -5.3755,3.22465 -8.44322,0.44857 -2.22542,-2.01398 -2.31146,-1.59508 -2.31146,11.25719 0,12.85164 0.097,13.32362 2.6009,12.66882 2.71498,-0.70998 10.03859,5.04717 10.03859,7.89141 0,2.30988 -5.83773,4.79594 -9.25046,3.93941 -4.08563,-1.02541 -4.65258,0.62136 -4.65454,13.52034 -10e-4,11.85289 3.58709,39.89032 5.4067,42.2388 1.52481,1.96798 11.91977,2.04762 24.05551,0.1844 z M 540.823,-792.84819 c 5.65664,-1.43939 9.7372,-1.43939 8.84761,0 -0.42947,0.69517 -3.44927,1.19662 -6.71032,1.11441 -5.32181,-0.13424 -5.54075,-0.24841 -2.13729,-1.11441 z m -65.87072,-17.90726 c -2.00549,-1.50695 -5.49484,-4.46241 -7.75413,-6.56768 -3.95655,-3.68679 -4.10784,-4.19101 -4.10784,-13.69141 v -9.86361 h 10.03696 c 5.52035,0 10.38852,-0.56876 10.81817,-1.26393 0.42946,-0.69516 2.59612,-1.26044 4.81438,-1.25619 l 4.03322,0.01 -3.45882,1.80436 c -1.90239,0.9924 -7.87451,1.98423 -13.27146,2.20412 l -9.81258,0.39984 -0.36831,9.01591 -0.36832,9.0159 4.97408,3.93954 c 2.73576,2.16671 5.60322,3.9395 6.37215,3.9395 0.76892,0 1.39802,0.56881 1.39802,1.26398 0,2.03816 2.00611,1.4874 8.05699,-2.2119 5.27265,-3.22355 5.74712,-3.95331 6.5362,-10.05316 0.46816,-3.61747 0.63134,-8.87866 0.36306,-11.69147 -0.26847,-2.81282 -0.0478,-5.11424 0.49362,-5.11424 1.68451,0 1.13891,22.07358 -0.59852,24.21674 -2.59369,3.19938 -10.52376,8.64587 -12.58833,8.64587 -1.05718,0 -3.56297,-1.23298 -5.56845,-2.73992 z m 24.35279,-54.78089 c -1.1779,-6.32586 1.89924,-24.60708 5.31684,-31.5874 2.41335,-4.92903 9.02626,-11.91399 9.02626,-9.53403 0,0.65604 -0.71097,1.64763 -1.57993,2.20354 -2.85008,1.82333 -5.65544,8.46973 -6.55182,15.52243 -0.48426,3.81037 -1.43055,7.26791 -2.10279,7.68338 -0.67228,0.4156 -1.65943,5.26075 -2.1937,10.76729 -0.90441,9.3214 -1.03644,9.66243 -1.91486,4.94479 z m -106.36373,153.33326 c 2.06687,-1.9406 -3.10618,-4.80836 -8.67372,-4.80836 -5.11438,0 -9.6535,2.74417 -9.6535,5.83607 0,1.27123 1.96845,1.48019 8.53164,0.90579 4.69237,-0.41084 9.10041,-1.28075 9.79558,-1.9335 z m 149.77756,1.07529 c 0,-2.79662 -4.05301,-5.60065 -10.40165,-7.19621 -6.7697,-1.70142 -12.34938,-0.81196 -12.34938,1.96861 0,1.44125 1.71226,1.87181 7.44366,1.87181 5.54757,0 8.20374,0.63321 10.42754,2.48587 3.53612,2.94586 4.87983,3.18538 4.87983,0.86992 z m -55.0067,-25.896 c 0.70897,-0.46338 3.23415,-1.41699 5.61153,-2.11879 9.84283,-2.90564 4.01254,-5.93251 -6.21842,-3.22838 -2.43313,0.6431 -7.62108,1.41427 -11.52881,1.7137 -8.76697,0.6718 -10.69176,1.64791 -8.48736,4.30404 1.28605,1.5496 3.30586,1.75157 10.46385,1.04623 4.87863,-0.48072 9.45023,-1.25327 10.15921,-1.7168 z m -61.53755,-1.52614 c 1.77523,-2.84253 1.06802,-5.00437 -1.63702,-5.00437 -0.96202,0 -3.78181,-1.19934 -6.2662,-2.6652 -3.72022,-2.19494 -4.85866,-2.38173 -6.45297,-1.05856 -3.33897,2.77111 -1.67701,6.67382 3.45447,8.11207 2.54998,0.71466 5.06208,1.72602 5.5824,2.24739 1.64629,1.64954 3.65512,1.03349 5.31932,-1.63133 z m 90.00138,-8.36383 c 0,-1.07046 0.82754,-3.73857 1.83896,-5.92912 2.27367,-4.92444 5.74472,-19.93425 5.74472,-24.84183 0,-2.00132 0.56876,-3.99032 1.26398,-4.41993 1.56049,-0.96445 1.66138,-6.01668 0.15287,-7.64688 -0.61124,-0.66043 -1.77017,-3.26492 -2.57549,-5.78771 -0.80533,-2.52285 -2.56852,-5.58632 -3.91819,-6.80778 -2.69602,-2.43986 -2.38245,-2.83364 -5.04756,6.33895 -0.8079,2.78067 -2.26812,6.83773 -3.24495,9.01566 -4.27108,9.523 -3.96964,23.87274 0.67687,32.22296 0.62934,1.13098 1.52987,4.11204 2.00123,6.62466 0.8209,4.3757 3.10776,5.28154 3.10776,1.23102 z m -60.6694,-4.85618 c 0,-1.0428 -0.81956,-1.89594 -1.82132,-1.89594 -2.11158,0 -3.53703,1.80398 -2.35746,2.98355 1.51062,1.51062 4.17878,0.81617 4.17878,-1.08761 z m 0,-35.81181 c 0,-3.46871 -1.43753,-4.23768 -3.31068,-1.77097 -2.33343,3.07293 -2.139,4.08821 0.78282,4.08821 1.60865,0 2.52786,-0.84264 2.52786,-2.31724 z m 2.52791,-29.91341 c 1.25533,-1.51257 1.25533,-2.27925 0,-3.79183 -0.86542,-1.04275 -2.28733,-1.8959 -3.15987,-1.8959 -0.87249,0 -2.29445,0.85315 -3.15987,1.8959 -1.25533,1.51258 -1.25533,2.27926 0,3.79183 0.86542,1.04275 2.28738,1.89595 3.15987,1.89595 0.87254,0 2.29445,-0.8532 3.15987,-1.89595 z m -4.26104,-22.43501 c 3.42251,-6.62047 8.97811,-13.25369 24.78196,-29.58885 8.17829,-8.45316 14.86955,-16.00965 14.86955,-16.79215 0,-0.78254 -2.41727,-2.46642 -5.37177,-3.74196 -6.2748,-2.70906 -10.68766,-7.00206 -8.55343,-8.32107 0.77375,-0.47819 2.23894,-0.55013 3.25603,-0.16004 1.01705,0.3903 3.54085,0.37119 5.60839,-0.043 3.006,-0.60115 4.36174,-2.05043 6.76664,-7.23332 1.65408,-3.56478 3.37613,-8.43725 3.82676,-10.82763 0.76816,-4.07507 0.32532,-4.82407 -7.09646,-12.00747 -7.53127,-7.28922 -7.93699,-7.50787 -8.35284,-4.50148 -0.24029,1.73791 -0.94625,3.78075 -1.56861,4.53965 -0.62232,0.75889 -2.23206,4.74033 -3.5772,8.84765 -1.34519,4.10727 -3.62536,9.72096 -5.06714,12.47482 -1.44173,2.75391 -2.6214,5.72022 -2.6214,6.59185 0,0.87163 -1.70633,4.27538 -3.79183,7.56385 -2.0855,3.28852 -3.79184,6.77534 -3.79184,7.74849 0,0.9731 -1.18473,3.43312 -2.63272,5.46664 -1.44804,2.03358 -3.78668,7.80916 -5.19698,12.83459 -1.4103,5.02548 -3.11243,9.81607 -3.78247,10.64571 -0.67004,0.82969 -1.62876,5.8065 -2.13055,11.05956 -1.02431,10.72358 0.63875,12.7689 4.42591,5.44319 z m -15.37564,-16.43128 c -0.48311,-2.25934 -1.41923,-4.78042 -2.08029,-5.60242 -1.84449,-2.29363 -3.34298,-15.25544 -4.27122,-36.94546 -0.46386,-10.8358 -1.0899,-19.96573 -1.39148,-20.28876 -1.3246,-1.41852 -5.15351,2.69062 -8.91725,9.56981 -5.00485,9.14756 -5.09686,10.95651 -0.67348,13.23892 6.75121,3.48362 6.97526,5.07775 1.50211,10.689 -5.75905,5.90437 -6.01171,7.12851 -2.13408,10.33878 1.56413,1.29493 3.41263,3.25054 4.1078,4.34574 2.01637,3.17674 13.86114,18.65307 14.31984,18.71025 0.22882,0.0287 0.0191,-1.79657 -0.46195,-4.05586 z m 3.16054,-33.67477 c 1.4512,-4.39705 1.39091,-5.62549 -0.46815,-9.54296 -2.63922,-5.56176 -5.80683,-5.98669 -5.80683,-0.77901 0,2.04447 0.56876,4.06877 1.26393,4.49842 0.69517,0.42947 1.26398,3.34064 1.26398,6.46889 0,6.67082 1.41274,6.42747 3.74698,-0.64534 z m 20.92335,-5.26209 c 1.6676,-5.02056 1.78636,-6.72599 0.57058,-8.1909 -2.08091,-2.50736 -4.92612,-2.33238 -5.88154,0.36163 -0.43137,1.21654 -1.61447,3.17984 -2.62894,4.36285 -1.56093,1.82018 -1.60067,3.16728 -0.25844,8.76166 1.5839,6.60246 1.58872,6.60728 3.83917,3.82815 1.23928,-1.5305 3.20101,-5.63605 4.35932,-9.12349 z m 8.83055,-18.58462 c 3.9117,-6.95715 8.40377,-18.22613 7.58979,-19.04015 -0.30764,-0.30765 -2.57978,1.21429 -5.04893,3.38224 -2.4692,2.168 -6.0432,4.26879 -7.94215,4.66839 -1.89896,0.39985 -4.44029,1.26097 -5.64742,1.91419 -1.20713,0.65318 -3.05563,1.1876 -4.10784,1.1876 -1.05216,0 -1.91305,0.49132 -1.91305,1.09181 0,1.70022 11.76719,13.98262 12.79026,13.35032 0.50069,-0.30956 2.42639,-3.2589 4.27934,-6.5544 z m -31.78909,-1.25203 c 0.40844,-1.21654 1.4574,-3.19159 2.3309,-4.38903 1.18917,-1.63009 1.22605,-2.53927 0.14666,-3.61847 -2.01452,-2.01456 -4.18954,-0.31816 -4.18954,3.26769 0,1.65589 -0.56881,3.36223 -1.26397,3.79184 -1.85095,1.14398 -1.54182,3.15987 0.48459,3.15987 0.96163,0 2.08268,-0.99536 2.49117,-2.2119 z m 22.65973,-12.17912 c 2.23698,-0.96335 6.41558,-4.23382 9.28581,-7.26767 5.17792,-5.47319 5.22402,-5.60714 5.92167,-17.20766 0.5798,-9.64127 0.38504,-11.69147 -1.11073,-11.69147 -2.43996,0 -2.29043,-2.43418 0.32724,-5.32663 2.01207,-2.22336 2.01207,-2.31633 0,-1.54425 -1.43567,0.5509 -2.14106,0.18631 -2.14106,-1.1071 0,-1.0608 -0.98074,-3.63758 -2.17942,-5.72618 -2.08139,-3.62665 -2.0726,-3.91552 0.19586,-6.42217 3.9085,-4.31885 6.21312,-3.41841 5.41358,2.11512 -0.37692,2.60687 -0.20494,5.87733 0.38169,7.26767 0.85291,2.02172 1.08426,1.59379 1.1553,-2.13733 0.0487,-2.56584 0.65762,-5.0167 1.35278,-5.44635 0.69517,-0.42946 1.26393,-2.16953 1.26393,-3.86641 0,-2.66209 -0.58553,-3.0853 -4.26902,-3.0853 -2.348,0 -4.97714,0.85319 -5.84251,1.89594 -0.86543,1.04275 -3.35239,1.88888 -5.52656,1.88028 -3.11511,-0.0143 -4.55588,-0.94635 -6.79693,-4.40608 -1.56412,-2.41474 -2.84386,-5.2051 -2.84386,-6.20075 0,-6.79218 -3.39443,-7.30268 -13.56898,-2.04059 -4.20037,2.17234 -10.76557,4.24748 -15.50179,4.89979 -5.55971,0.76573 -6.75461,1.18196 -3.6962,1.28753 4.55164,0.15717 8.78493,3.4197 10.40623,8.02006 0.92184,2.61576 -1.16394,9.20288 -4.37546,13.81815 -3.2825,4.71722 -2.99205,6.54499 0.92113,5.79694 2.10241,-0.40175 2.82156,-0.18822 2.03018,0.60316 -2.04466,2.04465 -5.8921,0.51125 -6.32443,-2.5206 -0.22357,-1.56814 0.85807,-4.89736 2.4037,-7.39827 l 2.81024,-4.54701 -5.56358,0.91835 c -7.29676,1.20451 -8.7234,2.53226 -8.7234,8.119 0,8.56585 5.37006,15.49053 6.6917,8.62886 0.30286,-1.57119 0.62475,-0.50121 0.71986,2.3909 0.20446,6.21637 2.72267,7.40052 12.03743,5.66036 3.20645,-0.59905 5.82995,-0.62054 5.82995,-0.0478 0,1.7009 -8.84288,3.62584 -12.91504,2.81138 -6.65834,-1.33166 -8.22615,5.01784 -2.56832,10.40156 3.28102,3.12199 4.04273,3.27643 13.58741,2.75482 8.02423,-0.43854 11.3426,-1.25882 16.07486,-3.9737 6.8567,-3.93363 12.36395,-9.92857 12.36395,-13.45872 0,-1.33702 0.56876,-2.43093 1.26393,-2.43093 3.87763,0 -1.48086,10.21304 -8.28295,15.78684 -6.77543,5.55197 -12.94097,8.22811 -18.95661,8.22811 -3.09108,0 -4.40111,0.51125 -4.04861,1.57994 1.49051,4.51896 15.10033,6.30288 22.79713,2.98823 z m -31.66928,-17.43342 c 0.64582,-1.93746 7.14423,-2.28413 7.61372,-0.40606 0.17389,0.69517 -1.59345,1.4467 -3.92722,1.67008 -3.07761,0.29475 -4.09026,-0.0525 -3.6865,-1.26393 z m 19.16933,-10.20173 c -0.76252,-2.25934 -1.86135,-5.24537 -2.44182,-6.63575 -0.94004,-2.25141 -0.82224,-2.33816 1.07714,-0.79319 1.17288,0.95408 2.13256,2.51821 2.13256,3.47587 0,0.95763 0.56876,1.74117 1.26393,1.74117 0.69516,0 1.26397,1.42191 1.26397,3.15982 0,4.41287 -1.64629,3.93936 -3.29578,-0.94792 z m -10.4199,-9.62651 c 1.29795,-2.07839 1.31835,-2.96043 0.0965,-4.18218 -2.25131,-2.25131 -1.90048,-4.17243 0.41131,-2.25361 2.28862,1.89939 1.96321,7.71687 -0.47628,8.51866 -1.38417,0.45478 -1.38966,0.0917 -0.0334,-2.08287 z m 5.8824,-14.38849 c -1.09821,-0.86896 -2.36448,-3.68211 -2.81396,-6.25144 -0.674,-3.85284 -0.38073,-4.905 1.67204,-6.00373 3.17029,-1.69669 8.44012,-1.70754 11.58619,-0.0239 3.85527,2.06329 2.856,3.65516 -1.81837,2.89665 -2.49595,-0.4051 -4.62257,-0.11035 -5.13038,0.71146 -0.54101,0.87541 0.24363,1.40323 2.08602,1.40323 3.11096,0 8.57144,3.18768 8.57144,5.00379 0,1.21282 -6.88483,3.84382 -10.0586,3.84382 -1.15372,0 -2.99621,-0.71098 -4.09438,-1.57994 z m 10.36114,-2.84387 c 0,-1.04275 -0.56876,-1.89589 -1.26393,-1.89589 -0.69516,0 -1.26393,0.85314 -1.26393,1.89589 0,1.04275 0.56877,1.89594 1.26393,1.89594 0.69517,0 1.26393,-0.85319 1.26393,-1.89594 z m 33.1683,7.26772 c 3.23134,-3.64408 5.79398,-16.52396 4.84094,-24.33096 -0.92987,-7.61736 -2.32115,-10.83446 -6.20562,-14.34986 -2.49982,-2.2624 -2.54042,-2.2505 -1.81387,0.5277 0.51349,1.9635 0.29093,2.5624 -0.71987,1.9377 -0.8047,-0.4973 -1.46304,-1.7238 -1.46304,-2.7255 0,-1.0018 -0.52228,-1.8214 -1.1606,-1.8214 -0.63831,0 -2.15897,-0.3831 -3.37928,-0.8514 -1.71064,-0.6564 -2.03286,-0.3668 -1.40701,1.264 0.6206,1.6171 0.0946,2.1153 -2.23387,2.1153 -4.48037,0 -5.01808,2.1219 -1.02297,4.0367 1.91677,0.9187 3.69567,2.8035 3.95311,4.1886 0.44475,2.3926 0.31624,2.3772 -2.57578,-0.3086 -3.35057,-3.1117 -10.86612,-4.5526 -13.34473,-2.5585 -1.96464,1.5806 -2.06572,11.15189 -0.16195,15.33034 1.94214,4.26248 5.85345,4.98951 10.70662,1.99015 3.19766,-1.9763 4.72739,-2.23297 7.35457,-1.23412 3.54634,1.34829 6.35452,6.7761 5.20271,10.05607 -0.38504,1.09668 0.43233,0.57201 1.81621,-1.1659 1.38403,-1.73792 2.62011,-5.1506 2.7468,-7.58368 l 0.23025,-4.4238 0.51847,4.22426 c 0.46194,3.76418 -1.15549,9.06348 -4.78682,15.6829 -0.66736,1.21654 -0.72799,2.2119 -0.13471,2.2119 0.59331,0 1.96138,-0.99536 3.0402,-2.2119 z m -25.00463,-18.09534 c -1.27922,-2.06988 -0.25701,-2.18267 3.21185,-0.35447 3.0305,1.59704 3.04651,1.66598 0.39076,1.68389 -1.52308,0.01 -3.14415,-0.58802 -3.60242,-1.32942 z m 15.21932,-17.61118 c -0.42946,-0.6951 -0.17866,-1.2639 0.5574,-1.2639 0.7362,0 1.33855,0.5688 1.33855,1.2639 0,0.6952 -0.2508,1.264 -0.5574,1.264 -0.30669,0 -0.90889,-0.5688 -1.33855,-1.264 z m -48.34591,24.44183 c -0.86896,-0.35064 -2.29092,-0.35064 -3.15988,0 -0.86895,0.35064 -0.15812,0.63756 1.57994,0.63756 1.73792,0 2.4489,-0.28711 1.57994,-0.63756 z m -13.59754,-5.51461 c -0.61401,-1.93454 -1.26971,-2.35359 -2.21057,-1.41273 -0.94085,0.9408 -0.85018,1.92489 0.30574,3.31761 2.10675,2.53851 3.02401,1.62121 1.90487,-1.90488 z m 1.90607,-6.21316 c 0,-0.65413 -0.56882,-1.54086 -1.26398,-1.97052 -0.69517,-0.42946 -1.26393,0.10558 -1.26393,1.18936 0,1.08379 0.56876,1.97052 1.26393,1.97052 0.69516,0 1.26398,-0.53519 1.26398,-1.18936 z m 10.11153,-22.82556 c 0,-0.6952 -0.60235,-1.264 -1.33855,-1.264 -0.73615,0 -0.987,0.5688 -0.55734,1.264 0.42946,0.6951 1.03195,1.2639 1.33854,1.2639 0.3067,0 0.55735,-0.5688 0.55735,-1.2639 z m -6.3197,11.3755 c 4.32162,-1.3841 7.64463,-1.3841 4.42381,0 -1.39034,0.5974 -3.66544,1.0695 -5.05582,1.0491 -2.03214,-0.029 -1.90822,-0.2355 0.63201,-1.0491 z"
       id="path281"
       inkscape:connector-curvature="0"
       sodipodi:nodetypes="cccccccsscccssccsccccccccccccscccccccsccsccccccccsccccscccsssscccccscscccccscccccsccscccccccsscscccccccccsccscsscccscsccscccccscccsssccccscccccsccccccsccscccsccscccccccccccscccccccscsccccssccccccccsccccccscccccccccccccsccccccccccssccccccccsccccccccccsccssscccccccscccccccccscscsccccsccccscsccccccsccssssscccccsccccccccscsccccsccccccccccssscccccsssccccccccccccscccccscccccscsscsccscscscccccscsccccccccsccccccccccscsccccsssscsscccccssccccccscscccccccccccscscccccccccsscccscsccccssccsccssccscsscsccscccccscccccccsccccccccccssssscssccsccscccscccccccccccscsccccccccccccsccccccscscccccccccccccccsscccccscscccccscssccccccsscccsccccccsccccscccsccccsscscccccccccccssscccccccccccccsssccssssscccccssccssccccccccccccsccccccccsssccssccccccscssssscsscccc" />
  </g>
</svg>
