<?xml version="1.0" encoding="UTF-8" standalone="no"?>
<!-- Created with Inkscape (http://www.inkscape.org/) -->

<svg
   xmlns:dc="http://purl.org/dc/elements/1.1/"
   xmlns:cc="http://creativecommons.org/ns#"
   xmlns:rdf="http://www.w3.org/1999/02/22-rdf-syntax-ns#"
   xmlns:svg="http://www.w3.org/2000/svg"
   xmlns="http://www.w3.org/2000/svg"
   xmlns:sodipodi="http://sodipodi.sourceforge.net/DTD/sodipodi-0.dtd"
   xmlns:inkscape="http://www.inkscape.org/namespaces/inkscape"
   width="210mm"
   height="118.65619mm"
   viewBox="0 0 210 118.65619"
   version="1.1"
   id="svg8"
   inkscape:version="0.92.3 (2405546, 2018-03-11)"
   sodipodi:docname="chuch_vandalism.svg">
  <defs
     id="defs2" />
  <sodipodi:namedview
     id="base"
     pagecolor="#ffffff"
     bordercolor="#666666"
     borderopacity="1.0"
     inkscape:pageopacity="0.0"
     inkscape:pageshadow="2"
     inkscape:zoom="0.7"
     inkscape:cx="407.56699"
     inkscape:cy="347.38616"
     inkscape:document-units="mm"
     inkscape:current-layer="g21"
     showgrid="false"
     inkscape:window-width="1920"
     inkscape:window-height="1017"
     inkscape:window-x="-8"
     inkscape:window-y="-8"
     inkscape:window-maximized="1"
     fit-margin-top="0"
     fit-margin-left="0"
     fit-margin-right="0"
     fit-margin-bottom="0" />
  <metadata
     id="metadata5">
    <rdf:RDF>
      <cc:Work
         rdf:about="">
        <dc:format>image/svg+xml</dc:format>
        <dc:type
           rdf:resource="http://purl.org/dc/dcmitype/StillImage" />
        <dc:title></dc:title>
      </cc:Work>
    </rdf:RDF>
  </metadata>
  <g
     inkscape:label="Layer 1"
     inkscape:groupmode="layer"
     id="layer1"
     transform="translate(0,-132.6719)">
    <g
       id="g21"
       transform="translate(118.89756,67.317726)"
       style="fill:#000000">
      <path
         style="fill:#000000;stroke-width:0.45395908"
         d="m 11.907167,183.6783 c -0.0504,-0.0334 -20.5302922,-0.1888 -45.51083,-0.3453 -24.980537,-0.15654 -45.605352,-0.38913 -45.832916,-0.51694 -0.956025,-0.53699 -0.316634,-2.17553 1.252925,-3.21069 0.902235,-0.59506 1.646327,-1.33019 1.65354,-1.63361 0.0073,-0.30341 0.519595,-0.72667 1.138635,-0.94057 0.61903,-0.2139 1.255155,-0.69594 1.413602,-1.07121 0.158385,-0.37527 0.700468,-0.68232 1.204475,-0.68232 0.504007,0 1.046435,-0.30805 1.205406,-0.68454 0.158919,-0.3765 0.289037,-8.56196 0.289037,-18.1899 0,-15.42951 -0.08763,-17.53597 -0.739809,-17.76337 -0.630493,-0.21989 -0.711041,-1.08455 -0.545213,-5.85261 0.118058,-3.39356 0.409064,-5.78956 0.739789,-6.09013 0.319764,-0.29061 0.545233,-1.94509 0.545233,-4.00096 0,-1.92798 0.185971,-3.69044 0.413294,-3.91656 0.227291,-0.22611 1.307939,-3.33232 2.401422,-6.90267 1.093482,-3.57036 2.190953,-6.88104 2.438837,-7.35709 0.247874,-0.47604 1.205166,-3.29986 2.12733,-6.275156 0.92216,-2.97529 1.881305,-5.799119 2.131436,-6.275162 1.210607,-2.3039 1.860968,-6.454628 1.932599,-12.333927 0.04212,-3.451351 0.05561,-6.507402 0.03006,-6.791246 -0.0261,-0.288778 -0.9378,-0.574691 -2.070244,-0.649154 -1.898655,-0.124851 -2.023791,-0.21335 -2.023791,-1.431385 0,-1.215374 0.127602,-1.306738 1.99854,-1.430263 1.970574,-0.130101 2.002969,-0.158872 2.315948,-2.055656 0.174576,-1.058037 0.571656,-1.923702 0.882386,-1.923702 1.010096,0 1.707826,1.007803 1.707826,2.466787 0,1.37765 0.06732,1.428139 1.904738,1.428139 1.859402,0 1.904756,0.03607 1.904756,1.514695 0,1.478629 -0.04535,1.514694 -1.904756,1.514694 h -1.904738 v 7.362963 c 0,4.049628 0.204722,7.701119 0.454925,8.114419 0.250202,0.413316 1.328743,4.451658 2.39672,8.974107 1.067994,4.522437 2.147255,8.612117 2.398358,9.088157 0.77467,1.46865 3.797526,14.02162 3.797526,15.76999 0,0.90816 0.292694,1.87196 0.650451,2.1418 1.031585,0.77808 3.717166,0.83782 51.7300205,1.15052 29.3105935,0.1909 45.6873465,0.45104 46.0709955,0.73182 0.327378,0.23961 0.595232,0.80393 0.595232,1.25406 0,0.45014 0.205313,1.15658 0.456247,1.5699 0.250937,0.41331 0.795794,2.89368 1.21079,5.51194 0.415001,2.61826 0.981933,5.92894 1.259851,7.35707 0.323482,1.66228 0.402976,6.72334 0.220922,14.06502 -0.156418,6.30761 -0.285804,15.33204 -0.287537,20.05426 l -0.0032,8.58585 -20.979562,-0.13559 C 21.439739,183.80008 11.957696,183.7117 11.907267,183.6783 Z m 41.09917,-0.82758 c 0.559958,-0.31452 0.676228,-35.97329 0.118299,-36.28307 -0.196425,-0.1091 -22.447681,-0.3419 -49.4472589,-0.51742 l -49.0901171,-0.31914 -0.311719,4.27862 c -0.171517,2.35325 -0.312834,10.65657 -0.314184,18.45184 l -0.0018,14.1732 8.928493,0.0641 c 4.910659,0.0352 9.357051,0.0883 9.880852,0.11793 0.523802,0.0296 1.327376,-0.10338 1.785703,-0.29568 0.764609,-0.32077 0.833324,-1.34761 0.833324,-12.45193 v -12.10233 l 1.071414,-0.0479 c 2.325486,-0.10403 3.407554,0.16772 4.22945,1.06198 0.777316,0.84576 0.859348,1.99529 0.873711,12.24312 0.0144,10.96193 0.04535,11.31674 0.973885,11.53742 0.526915,0.12529 4.457641,0.25329 8.7349471,0.28458 6.073104,0.0445 7.89584575,-0.0735 8.31979663,-0.5376 0.37004827,-0.40522 0.58324757,-4.37197 0.66970857,-12.45984 l 0.1268827,-11.86537 2.4304836,-0.12857 c 3.9991352,-0.21163 4.0490962,-0.0496 4.1508545,13.4679 l 0.085312,11.32859 9.1665829,0.1176 9.166583,0.1176 v -12.34328 -12.34328 h 2.608048 c 4.251605,0 4.269818,0.0607 3.888558,12.95217 -0.256448,8.67117 -0.195814,10.82744 0.3153,11.21296 1.013605,0.76451 19.503211,1.01861 20.807622,0.28595 z m -16.716854,-12.6581 c -0.02736,-0.65456 -0.0486,-4.62407 -0.04751,-8.82112 0.0018,-6.49014 0.124723,-7.80109 0.822309,-8.76867 1.598672,-2.21744 6.05251,-1.98329 7.365245,0.38719 0.996348,1.79917 1.336864,17.47447 0.391439,18.01935 -0.343654,0.19807 -2.392668,0.36311 -4.553366,0.36674 l -3.928549,0.007 z m -50.495207,0.31533 c -0.66276,-0.35171 -0.784569,-1.28243 -0.791156,-6.04562 -0.0036,-3.09646 0.154419,-5.62991 0.352862,-5.62991 0.435595,0 0.301981,-2.71384 -0.167558,-3.40437 -0.183467,-0.2698 -0.106726,-0.49055 0.170617,-0.49055 0.27736,0 0.504293,-0.5931 0.504293,-1.31799 0,-2.77787 3.92835,-4.44443 6.5469975,-2.77749 1.7277509,1.09984 2.1042606,3.5032 1.8354838,11.71682 -0.1358808,4.15196 -0.3758795,7.73848 -0.5333759,7.97007 -0.3688245,0.54237 -6.8891514,0.52512 -7.9181814,-0.0209 z m 24.923575,-8.85142 c 0.138222,-8.84623 0.194626,-9.33826 1.170707,-10.22448 0.697208,-0.633 1.664326,-0.94623 3.02138,-0.97858 1.684501,-0.0402 2.211777,0.17199 3.37928,1.35951 l 1.383348,1.40708 v 8.86496 8.86495 h -4.550004 -4.550006 z m -50.568529,-0.58483 c 0,-9.31371 0.0144,-9.45861 1.102101,-10.38647 2.091606,-1.78581 6.110719,-1.02853 6.922014,1.30423 0.506991,1.45783 0.670014,15.1658 0.20618,17.33762 -0.253136,1.18518 -0.270702,1.19012 -4.242246,1.19012 h -3.988049 z m 44.0806349,21.5139 c 0.4158699,-0.61155 0.8027827,-20.46202 0.4355599,-22.34669 -0.2469271,-1.26732 -0.4368193,-1.40649 -1.9191189,-1.40649 H 1.1013112 v 11.82903 c 0,6.50597 0.1429003,11.95887 0.3174596,12.11756 0.5115991,0.46494 2.4543664,0.33127 2.8111861,-0.19341 z M 29.434384,170.94997 v -11.90116 l -1.547595,-0.1356 -1.547612,-0.1356 V 170.95 183.12239 l 1.547612,-0.1356 1.547595,-0.13559 z m -80.987072,11.30416 c 0.545705,-0.80247 -0.70034,-0.97216 -8.776612,-1.19515 -7.033818,-0.1942 -8.092544,-0.13723 -8.092544,0.43489 0,0.76265 1.024963,0.86772 10.313825,1.05741 3.748032,0.0765 6.382411,-0.0429 6.555331,-0.29715 z m 30.383394,-2.75696 c 0.119683,-1.72566 0.197415,-7.12988 0.172776,-12.00937 -0.04337,-8.56967 -0.07721,-8.87176 -0.997192,-8.87176 -0.913647,0 -0.962042,0.36063 -1.190468,8.87176 -0.331767,12.36231 -0.159459,15.14695 0.93771,15.14695 0.729586,0 0.892483,-0.47448 1.077174,-3.13758 z m -50.585845,2.27205 c 0,-0.24731 -1.428552,-0.43278 -3.333316,-0.43278 -1.904732,0 -3.333295,0.18547 -3.333295,0.43278 0,0.2473 1.428563,0.43276 3.333295,0.43276 1.904764,0 3.333316,-0.18546 3.333316,-0.43276 z M -48.8704,156.56039 c 0.02933,-27.07281 -0.0144,-35.0779 -0.191188,-35.23889 -0.09718,-0.0883 -17.087718,-0.23191 -19.717394,-0.16663 l -1.071414,0.0267 v 16.66163 c 0,11.2943 -0.160186,16.66162 -0.497474,16.66162 -0.645035,0 -0.554918,20.23293 0.09181,20.59614 0.275543,0.15474 0.245696,0.47975 -0.07653,0.83251 -0.290618,0.31825 -0.461723,1.4207 -0.380253,2.4499 0.123649,1.56165 0.325417,1.89413 1.21957,2.00954 0.589277,0.0761 1.071414,-0.0747 1.071414,-0.33529 0,-0.26047 0.541193,-0.66058 1.202674,-0.88913 0.661471,-0.22857 1.344602,-0.7593 1.518083,-1.17942 0.173491,-0.4201 0.650143,-0.99147 1.059228,-1.2697 0.585009,-0.39787 0.767361,-1.55257 0.854234,-5.40961 0.109426,-4.8575 0.124004,-4.915 1.555118,-6.09389 1.947122,-1.60403 3.93303,-1.57817 5.751938,0.0749 1.343465,1.22096 1.391932,1.40845 1.391932,5.38407 0,2.27921 0.212696,4.23853 0.476181,4.38652 0.261901,0.14705 0.476197,0.64547 0.476197,1.10748 0,0.46199 0.210194,0.83999 0.467109,0.83999 0.256916,0 0.597142,0.47083 0.756061,1.04631 0.158919,0.57545 0.913,1.48094 1.675719,2.01217 0.762738,0.53125 1.386786,1.2289 1.386786,1.55034 0,0.32142 0.21428,0.58442 0.476181,0.58442 0.311789,0 0.48579,-8.85258 0.504003,-25.6416 z m -13.000123,-18.23492 c -2.036174,-0.67922 -3.655168,-2.23441 -3.678367,-3.53341 -0.0094,-0.48794 -0.259882,-1.10896 -0.558142,-1.38004 -0.40562,-0.36863 -0.290461,-0.97982 0.456928,-2.42486 1.750282,-3.38406 5.242191,-4.87142 8.320228,-3.54398 2.324244,1.00237 3.255043,2.06341 3.685077,4.20073 0.970483,4.82325 -3.328437,8.31517 -8.225724,6.68156 z m 3.431834,-1.53585 c 0.648741,-1.10167 0.623508,-1.4325 -0.185771,-2.43417 -0.653726,-0.80913 -0.697982,-0.79415 -1.202581,0.40722 -0.894336,2.12922 0.300704,3.87394 1.388352,2.02695 z m 1.683403,0.40432 c 0.161799,-0.23803 0.06732,-0.43277 -0.209995,-0.43277 -0.277343,0 -0.504274,0.19474 -0.504274,0.43277 0,0.23802 0.09448,0.43276 0.209978,0.43276 0.115544,0 0.342421,-0.19474 0.504291,-0.43276 z m -4.841493,-2.28096 c -0.403848,-0.59386 -1.587783,0.5902 -1.576426,1.57661 0.0108,0.88805 0.04265,0.88276 0.915123,-0.14901 0.497507,-0.5884 0.795079,-1.23079 0.661303,-1.42751 z m -1.348919,-1.61397 c 0.505967,-0.74403 -0.228335,-1.34017 -0.927559,-0.75303 -0.653821,0.54898 -0.53928,1.18579 0.213271,1.18579 0.230999,0 0.552418,-0.19474 0.714288,-0.43276 z m 8.243649,-0.31961 c -0.196984,-0.92963 -1.624822,-1.22822 -2.547054,-0.53264 -0.966038,0.72864 -0.415672,1.28501 1.271115,1.28501 1.107085,0 1.398898,-0.17207 1.275939,-0.75237 z m -8.572392,-2.16881 c -0.193313,-0.91221 -1.038421,-0.8547 -1.253789,0.0854 -0.08982,0.39207 0.172602,0.67201 0.630154,0.67201 0.490452,0 0.724007,-0.28364 0.623635,-0.75734 z m 1.995391,-0.54096 c 0,-0.23803 -0.214279,-0.43278 -0.47618,-0.43278 -0.261919,0 -0.476197,0.19475 -0.476197,0.43278 0,0.23802 0.214278,0.43276 0.476197,0.43276 0.261901,0 0.47618,-0.19474 0.47618,-0.43276 z m 5.714232,-0.25245 c 0,-0.37688 -0.254466,-0.60814 -0.565466,-0.51391 -0.882961,0.26748 -1.029407,1.19912 -0.188488,1.19912 0.414665,0 0.753954,-0.30834 0.753954,-0.68521 z m -3.095205,-1.04586 c -0.230388,-0.3388 -0.504329,-0.36394 -0.821788,-0.0754 -0.261901,0.23803 -0.320663,0.66145 -0.130662,0.94095 0.230387,0.3388 0.504328,0.36394 0.821788,0.0754 0.261899,-0.23803 0.320662,-0.66145 0.130662,-0.94095 z m -15.365278,50.99438 c -0.411022,-0.37355 -0.83915,-0.38117 -1.642831,-0.0293 -1.020807,0.44693 -0.98695,0.4777 0.555871,0.5052 1.252254,0.0224 1.510681,-0.0908 1.08696,-0.47592 z m 20.127132,0.0952 c -1.455735,-0.53377 -12.486667,-0.56736 -12.845878,-0.0391 -0.206144,0.30313 1.987071,0.43925 6.746407,0.41873 4.080394,-0.0177 6.650539,-0.17756 6.099471,-0.37961 z m -17.85697,-1.5119 c 0,-0.80574 -1.076575,-1.418 -1.321088,-0.75132 -0.102805,0.28017 -0.610194,0.50939 -1.127622,0.50939 -0.517449,0 -0.808361,0.19475 -0.64651,0.43277 0.470202,0.69143 3.09522,0.52958 3.09522,-0.19084 z m 17.61888,0.26397 c 0,-0.91349 -2.365044,-1.40319 -6.193184,-1.28238 -3.397548,0.1073 -4.059424,0.24685 -4.19351,0.88467 -0.143802,0.68441 0.348668,0.75734 5.113726,0.75734 2.90013,0 5.272968,-0.16177 5.272968,-0.35963 z m -1.069686,-2.34517 c -0.204399,-0.56218 -6.081186,-1.0132 -7.365565,-0.56528 -1.615494,0.56342 0.220291,1.10624 3.741176,1.10624 2.844283,0 3.770781,-0.13821 3.624389,-0.54096 z M 1.1013112,143.69206 c 0.5906083,-0.34143 0.6105318,-0.56509 0.1150047,-1.29169 -0.3541031,-0.51922 -0.4028047,-0.87874 -0.118964,-0.87874 0.2641318,0 0.4802288,-0.4998 0.4802288,-1.11067 0,-0.94733 -0.1855183,-1.09053 -1.2614862,-0.97373 -1.628997,0.17683 -2.6098116,1.48591 -1.5956293,2.12967 0.53724597,0.34102 0.56674331,0.50779 0.118964,0.6729 -0.3273768,0.12071 -0.5952345,0.47917 -0.5952345,0.79653 0,0.96256 1.6652802,1.34477 2.8571165,0.65573 z m 6.3951707,-0.92116 c -0.4057548,-0.59668 -1.6332986,-0.4514 -1.6332986,0.1933 0,0.31737 0.1409216,0.70517 0.3133202,0.86178 0.430628,0.39137 1.6440429,-0.57853 1.3199784,-1.05508 z m 3.1285551,0.48182 c 0,-0.63474 -0.317458,-0.86555 -1.1904678,-0.86555 -1.9677469,0 -1.4129539,1.58164 0.5952348,1.69692 0.327376,0.0188 0.595233,-0.35533 0.595233,-0.83137 z m 3.243705,-0.11319 c 0.118065,-0.55727 -0.158378,-0.75238 -1.065961,-0.75238 -1.164119,0 -1.63967,0.77753 -0.891456,1.45753 0.573385,0.52111 1.790472,0.0826 1.957417,-0.70515 z m 3.422906,0.11319 c 0,-0.63474 -0.31746,-0.86555 -1.190468,-0.86555 -0.873009,0 -1.190468,0.23081 -1.190468,0.86555 0,0.63472 0.317459,0.86552 1.190468,0.86552 0.873008,0 1.190468,-0.2308 1.190468,-0.86552 z m 3.243705,-0.11319 c 0.118063,-0.55727 -0.158379,-0.75238 -1.065961,-0.75238 -1.16412,0 -1.63967,0.77753 -0.891457,1.45753 0.573385,0.52111 1.790472,0.0826 1.957418,-0.70515 z m 3.577235,0.37187 c 0.338301,-0.80123 -0.07091,-1.12425 -1.424167,-1.12425 -0.793639,0 -1.111098,0.2473 -1.111098,0.86555 0,0.6244 0.317459,0.86553 1.139516,0.86553 0.626731,0 1.25481,-0.27308 1.395749,-0.60683 z m 2.702769,-0.2587 c 0,-0.89597 -1.148803,-1.19428 -1.666648,-0.43278 -0.398574,0.58614 0.139301,1.29831 0.980472,1.29831 0.377409,0 0.686176,-0.38949 0.686176,-0.86553 z m 3.095224,0 c 0,-0.35052 -0.374997,-0.70294 -0.833342,-0.78316 -0.584669,-0.10239 -0.833323,0.13135 -0.833323,0.78316 0,0.65181 0.248654,0.88548 0.833323,0.78316 0.458345,-0.0802 0.833342,-0.43265 0.833342,-0.78316 z m 3.333297,0.007 c 0,-0.82796 -1.67212,-1.1309 -2.173406,-0.39375 -0.210518,0.3096 -0.26955,0.72937 -0.131202,0.93287 0.409949,0.60284 2.304572,0.15964 2.304572,-0.53912 z m 3.095207,0.19689 c 0,-0.36451 -0.335836,-0.77987 -0.746288,-0.92301 -0.895579,-0.31233 -1.872199,0.45352 -1.422187,1.11526 0.485089,0.71333 2.168475,0.56408 2.168475,-0.19225 z m 3.120852,0.19225 c 0.176017,-0.25876 0.07559,-0.69257 -0.223098,-0.96401 -0.598114,-0.54358 -1.977574,0.008 -2.313859,0.92445 -0.23791,0.64862 2.097996,0.68505 2.536957,0.0396 z m 2.950657,-0.28665 c 0.26036,-0.71066 -1.231636,-1.21795 -1.871594,-0.63635 -0.273851,0.24888 -0.346616,0.67502 -0.161618,0.94697 0.42073,0.61869 1.768233,0.41284 2.033279,-0.31062 z m 2.499839,0.13347 c 0,-0.90351 -0.987877,-1.32019 -1.474506,-0.62196 -0.645549,0.92628 -0.511709,1.24556 0.522134,1.24556 0.523805,0 0.952372,-0.28061 0.952372,-0.6236 z m 3.095208,-0.24193 c 0,-0.93856 -1.857772,-0.80928 -2.059632,0.14329 -0.130231,0.61455 0.08214,0.7603 0.945854,0.64916 0.61258,-0.0788 1.113778,-0.43546 1.113778,-0.7925 z m 2.619024,0.26269 c 0,-0.65281 -1.156699,-1.23105 -1.620095,-0.8099 -0.627093,0.56991 -0.228735,1.41274 0.667723,1.41274 0.523806,0 0.952372,-0.27127 0.952372,-0.60284 z m 2.857117,-0.0764 c 0,-0.4511 -0.347359,-0.6328 -1.034119,-0.54096 -1.524509,0.20387 -1.687785,1.22021 -0.196026,1.22021 0.800229,0 1.230145,-0.23739 1.230145,-0.67925 z m -95.802393,-0.72725 c 0.117163,-0.55874 -0.15514,-0.75734 -1.038443,-0.75734 -1.301729,0 -1.968,0.59772 -1.474758,1.32306 0.478681,0.70389 2.334556,0.28614 2.513201,-0.56572 z m 2.856522,-0.005 c 0.109964,-0.51933 -0.146321,-0.75238 -0.827871,-0.75238 -0.681461,0 -0.987276,0.27794 -0.987276,0.89727 0,1.10904 1.576085,0.98323 1.815147,-0.14492 z m 3.899086,0.11319 c 0,-0.67319 -0.317459,-0.86553 -1.428558,-0.86553 -0.873009,0 -1.428558,0.22439 -1.428558,0.57701 0,0.83396 0.484297,1.15406 1.746017,1.15406 0.79364,0 1.111099,-0.2473 1.111099,-0.86554 z m 3.809477,0 c 0,-0.67319 -0.317442,-0.86553 -1.428559,-0.86553 -1.111098,0 -1.428558,0.19234 -1.428558,0.86553 0,0.6732 0.31746,0.86554 1.428558,0.86554 1.111117,0 1.428559,-0.19234 1.428559,-0.86554 z m 3.721288,-0.10812 c 0.122743,-0.58815 -0.168997,-0.75735 -1.305437,-0.75735 -1.16169,0 -1.463474,0.18441 -1.463474,0.89429 0,0.71969 0.254864,0.86754 1.305437,0.75734 0.787358,-0.0826 1.368158,-0.43751 1.463474,-0.89428 z m 3.421502,0.10812 c 0,-0.62915 -0.31746,-0.86553 -1.162356,-0.86553 -0.639292,0 -1.2948,0.19474 -1.456653,0.43276 -0.473318,0.69603 0.202438,1.29831 1.456653,1.29831 0.844896,0 1.162356,-0.23639 1.162356,-0.86554 z m 3.809494,0 c 0,-0.63472 -0.317459,-0.86553 -1.190468,-0.86553 -0.873008,0 -1.190468,0.23081 -1.190468,0.86553 0,0.63473 0.31746,0.86554 1.190468,0.86554 0.873009,0 1.190468,-0.23081 1.190468,-0.86554 z m 3.809495,0 c 0,-0.67319 -0.31746,-0.86553 -1.428559,-0.86553 -1.111098,0 -1.428558,0.19234 -1.428558,0.86553 0,0.6732 0.31746,0.86554 1.428558,0.86554 1.111099,0 1.428559,-0.19234 1.428559,-0.86554 z m 3.809476,0 c 0,-0.67319 -0.31746,-0.86553 -1.428558,-0.86553 -1.111099,0 -1.428558,0.19234 -1.428558,0.86553 0,0.6732 0.317459,0.86554 1.428558,0.86554 1.111098,0 1.428558,-0.19234 1.428558,-0.86554 z m 3.3260256,0.54096 c -0.017996,-0.80198 -0.9171396,-1.50885 -1.6113056,-1.26676 -1.233105,0.43005 -0.920684,1.59134 0.428126,1.59134 0.654753,0 1.1871756,-0.14606 1.1831796,-0.32458 z m 3.7261303,-0.43276 c -0.101329,-0.47777 -0.5951626,-0.75735 -1.3379225,-0.75735 -0.742761,0 -1.2366686,0.27958 -1.3379045,0.75735 -0.1254432,0.59173 0.1671976,0.75734 1.3379045,0.75734 1.1707246,0 1.4633113,-0.16561 1.3379225,-0.75734 z m 3.9001303,0.10828 c 0,-0.35705 -0.2571322,-0.64917 -0.5714239,-0.64917 -0.4444323,0 -0.4444323,-0.11547 0,-0.51932 0.3142917,-0.28562 0.5714239,-0.96723 0.5714239,-1.51469 0,-0.7765 -0.2650509,-0.99537 -1.2054061,-0.99537 -1.4895347,0 -2.118226,1.21628 -1.0095205,1.95307 0.7072691,0.47001 0.7159615,0.59067 0.077387,1.07234 -1.1112431,0.83815 -0.858557,1.30228 0.7089965,1.30228 0.9523778,0 1.4285583,-0.21638 1.4285583,-0.64914 z m 7.1427904,0 c 0,-0.40393 -0.4497234,-0.64917 -1.1904681,-0.64917 -0.7407268,0 -1.190468,0.24524 -1.190468,0.64917 0,0.40391 0.4497412,0.64914 1.190468,0.64914 0.7407447,0 1.1904681,-0.24523 1.1904681,-0.64914 z M -45.68373,142.7121 c -0.29624,-0.80857 -1.625146,-0.89682 -1.949157,-0.12938 -0.210031,0.49744 0.03041,0.67041 0.932131,0.67041 0.760416,0 1.141029,-0.20246 1.017026,-0.54096 z m 53.2936148,-2.67125 c -0.1585586,-0.3755 -0.5159908,-0.68271 -0.7943415,-0.68271 -0.6961825,0 -1.119053,1.14483 -0.7477275,2.0243 0.2809962,0.66548 0.3700305,0.66828 1.068445,0.0335 0.4190378,-0.38083 0.6321826,-0.99965 0.473624,-1.37514 z m 2.9277392,0.47403 c 0.170076,-1.30573 -0.8326948,-1.58582 -1.8173238,-0.50759 -0.4735343,0.51855 -0.4708888,0.78266 0.01259,1.31271 0.840523,0.92044 1.6249838,0.57036 1.8041668,-0.80512 z m 3.262691,0.75717 c 0.34505,-0.81723 -0.960081,-2.13937 -1.701023,-1.72319 -0.575041,0.32298 -0.704407,1.66299 -0.204416,2.11738 0.570559,0.51854 1.610927,0.3033 1.905439,-0.39419 z m 3.412071,-0.337 c 0.09269,-0.44183 -0.03006,-0.98375 -0.272645,-1.20431 -0.748051,-0.67983 -2.029029,0.0895 -2.029029,1.21849 0,0.8564 0.209492,1.03857 1.066555,0.92742 0.586613,-0.0761 1.142415,-0.49977 1.235119,-0.9416 z m 3.332703,-0.005 c 0.09305,-0.43909 -0.06677,-1.01275 -0.355074,-1.27478 -0.726526,-0.66031 -2.179418,0.68964 -1.774472,1.64873 0.391232,0.92652 1.910498,0.65974 2.129546,-0.37395 z m 3.664146,0.57294 c 0.430232,-0.63265 -0.665424,-1.71211 -1.737847,-1.71211 -0.636214,0 -0.894065,0.31203 -0.894065,1.08193 0,0.85856 0.239962,1.08192 1.162355,1.08192 0.639293,0 1.300596,-0.20328 1.469557,-0.45172 z m 2.606122,-0.63018 c 0,-0.79342 -0.253964,-1.08193 -0.952359,-1.08193 -0.929108,0 -1.34541,1.22963 -0.63492,1.87534 0.722891,0.65698 1.587279,0.2249 1.587279,-0.79341 z m 3.333315,0 c 0,-0.79342 -0.253964,-1.08193 -0.952378,-1.08193 -0.698415,0 -0.952378,0.28851 -0.952378,1.08193 0,0.79341 0.253963,1.08192 0.952378,1.08192 0.698414,0 0.952378,-0.28851 0.952378,-1.08192 z m 3.333296,0.2028 c 0,-1.15172 -1.305868,-1.5817 -2.236109,-0.73629 -0.934453,0.84927 -0.425212,1.61541 1.073754,1.61541 0.850889,0 1.162355,-0.23558 1.162355,-0.87912 z m 2.767795,-0.10092 c 0.183125,-0.86415 -1.174937,-1.50628 -1.863038,-0.8809 -0.666379,0.60562 0.03239,1.92704 0.935388,1.76899 0.422368,-0.0739 0.839804,-0.47356 0.92765,-0.88809 z m 3.422618,-0.1019 c 0,-0.85856 -0.239962,-1.08193 -1.162356,-1.08193 -0.639292,0 -1.301135,0.20408 -1.470763,0.45351 -0.553173,0.81345 0.19549,1.71035 1.427713,1.71035 0.968324,0 1.205406,-0.21282 1.205406,-1.08193 z m 2.328503,0.49019 c 0.408701,-0.44757 0.380291,-0.71248 -0.116606,-1.08726 -0.501934,-0.37859 -0.793927,-0.34555 -1.237334,0.14002 -0.575544,0.63025 -0.325306,1.53899 0.423789,1.53899 0.214388,0 0.63294,-0.26628 0.93015,-0.59173 z m 2.909549,-0.24826 c 0,-0.46201 -0.232955,-0.97085 -0.517677,-1.13078 -0.728129,-0.40897 -1.570812,0.47861 -1.227149,1.29253 0.408186,0.96673 1.744826,0.84281 1.744826,-0.16177 z m 3.333302,0.24383 c 0,-0.32789 -0.344616,-0.85609 -0.765807,-1.17379 -0.649994,-0.49025 -0.863736,-0.45591 -1.413306,0.22716 -0.35612,0.44262 -0.534572,0.97082 -0.396553,1.17377 0.416586,0.61261 2.575666,0.42219 2.575666,-0.22714 z m 2.295003,-0.37756 c -0.08369,-0.53557 -0.473592,-0.97375 -0.866445,-0.97375 -0.392853,0 -0.782755,0.43818 -0.866444,0.97375 -0.117111,0.74941 0.08248,0.97373 0.866444,0.97373 0.783964,0 0.983557,-0.22432 0.866445,-0.97373 z m 2.466856,0.35011 c 0,-0.34298 -0.232953,-0.75446 -0.517675,-0.91438 -0.672385,-0.37768 -1.590176,0.45643 -1.174617,1.06751 0.466762,0.68639 1.692292,0.5755 1.692292,-0.15309 z m -92.380091,-1.06087 c 0,-0.99645 -0.406314,-1.34212 -1.237029,-1.05241 -0.828176,0.28885 -0.880585,1.72983 -0.07253,1.99327 0.848965,0.27677 1.309522,-0.0541 1.309522,-0.94086 z m 3.809494,0.21608 c 0,-1.27272 -1.34181,-1.82532 -2.305527,-0.94945 -0.581609,0.52858 -0.598599,0.763 -0.0952,1.31421 0.973598,1.06616 2.40077,0.84933 2.40077,-0.36476 z m 3.723556,-0.15457 c 0.129402,-0.82835 -0.06605,-0.97372 -1.309504,-0.97372 -1.09994,0 -1.461692,0.19636 -1.461692,0.79341 0,1.0621 0.476756,1.43274 1.647066,1.28049 0.589835,-0.0767 1.031784,-0.50926 1.12413,-1.10018 z m 3.401921,0.55992 c 0.768982,-0.84208 0.227309,-1.53364 -1.201267,-1.53364 -0.922393,0 -1.162356,0.22335 -1.162356,1.08192 0,1.23768 1.401346,1.50549 2.363623,0.45172 z m 3.82679,-0.45172 c 0,-0.85857 -0.239962,-1.08192 -1.162356,-1.08192 -0.639292,0 -1.301135,0.20406 -1.470763,0.45348 -0.553173,0.81347 0.19549,1.71035 1.427713,1.71035 0.968324,0 1.205406,-0.2128 1.205406,-1.08191 z m 3.809494,0 c 0,-0.86554 -0.23809,-1.08192 -1.190468,-1.08192 -0.95236,0 -1.190468,0.21638 -1.190468,1.08192 0,0.86553 0.238108,1.08191 1.190468,1.08191 0.952378,0 1.190468,-0.21638 1.190468,-1.08191 z m 3.809495,0 c 0,-0.85857 -0.239961,-1.08192 -1.162356,-1.08192 -0.63931,0 -1.301153,0.20406 -1.470763,0.45348 -0.553191,0.81347 0.195472,1.71035 1.427712,1.71035 0.968307,0 1.205407,-0.2128 1.205407,-1.08191 z m 4.047584,0 c 0,-0.66018 -0.367205,-0.89772 -1.547612,-1.00115 -1.391105,-0.12186 -1.547612,-0.0206 -1.547612,1.00115 0,1.0218 0.156578,1.12305 1.547612,1.00114 1.180407,-0.10337 1.547612,-0.34097 1.547612,-1.00114 z m 2.9886426,0.57289 c 0.7205521,-0.65485 -0.1135636,-1.65481 -1.3803056,-1.65481 -0.636216,0 -0.894067,0.31202 -0.894067,1.08192 0,1.17874 1.258823,1.49585 2.2743726,0.57289 z m 3.9160403,-0.57289 c 0,-0.91363 -0.2222162,-1.08192 -1.4285575,-1.08192 -1.2063243,0 -1.4285583,0.16829 -1.4285583,1.08192 0,0.91362 0.222234,1.08191 1.4285583,1.08191 1.2063413,0 1.4285575,-0.16829 1.4285575,-1.08191 z m 10.7141954,0 c 0,-0.56811 -0.3681765,-0.91306 -1.071414,-1.00384 -0.8788941,-0.11351 -1.0714318,0.0669 -1.0714318,1.00384 0,0.93688 0.1925377,1.11728 1.0714318,1.00383 0.7032375,-0.0908 1.071414,-0.43573 1.071414,-1.00383 z M -45.56491,140.24913 c 0,-0.462 -0.190001,-0.94673 -0.422241,-1.07717 -0.579918,-0.32573 -1.637295,0.90666 -1.257311,1.46544 0.521227,0.76647 1.679552,0.4987 1.679552,-0.38827 z m 3.123444,0.3657 c 0.457931,-0.67339 -0.99685,-1.85952 -1.896063,-1.54593 -0.413152,0.1441 -0.751201,0.65758 -0.751201,1.1411 0,0.64355 0.311484,0.87912 1.162356,0.87912 0.63931,0 1.307506,-0.21344 1.484908,-0.47429 z m 82.011656,-2.50136 c -0.201897,-0.95285 -2.454042,-0.93761 -2.656533,0.018 -0.08837,0.41726 0.209672,0.79373 0.707756,0.89386 1.294259,0.26022 2.115705,-0.12414 1.948777,-0.91182 z m 2.43347,0.84886 c 0.809317,-0.46574 0.351468,-1.76813 -0.621581,-1.76813 -0.915267,0 -1.30945,0.61487 -0.946007,1.47564 0.330022,0.78164 0.622698,0.83624 1.567588,0.29249 z m 2.906773,-0.70696 c 0,-0.81314 -0.939535,-1.24596 -1.533277,-0.70633 -0.711103,0.64626 -0.08556,1.8482 0.800974,1.53903 0.402768,-0.14051 0.732303,-0.51519 0.732303,-0.8327 z m 3.095208,0.0147 c 0,-1.1167 -1.894947,-1.42177 -2.336448,-0.37612 -0.347968,0.82411 0.498285,1.52802 1.622169,1.3493 0.392855,-0.0625 0.714279,-0.50039 0.714279,-0.97318 z m 2.533097,-0.13609 c 0.0989,-0.61086 -0.09963,-0.93985 -0.567129,-0.93985 -0.925992,0 -1.412948,0.72494 -1.055542,1.57141 0.387772,0.91838 1.437901,0.50964 1.622671,-0.63158 z m -75.237395,-0.39887 c 0.129403,-0.82835 -0.06605,-0.97373 -1.309504,-0.97373 -1.09994,0 -1.461692,0.19634 -1.461692,0.79339 0,1.04073 0.286072,1.26105 1.561309,1.20258 0.71355,-0.0327 1.10723,-0.36536 1.209887,-1.02224 z m 3.809494,-0.005 c 0.120945,-0.7701 -0.07973,-0.96931 -0.976188,-0.96931 -1.668591,0 -2.445962,0.86342 -1.421287,1.57863 1.149919,0.80265 2.218454,0.53108 2.397475,-0.60932 z m 3.809477,0.005 c 0.128503,-0.82179 -0.06803,-0.97373 -1.258553,-0.97373 -0.850296,0 -1.526177,0.2734 -1.701329,0.6882 -0.435542,1.03155 0.129042,1.54096 1.543185,1.39225 0.892427,-0.0939 1.309324,-0.41953 1.416697,-1.10672 z m 4.08412,0.5019 c 0.430916,-1.02057 -0.07649,-1.47565 -1.645358,-1.47565 -1.176358,0 -1.400463,0.17312 -1.400463,1.08193 0,0.90473 0.225617,1.08191 1.377625,1.08191 0.820005,0 1.495221,-0.27855 1.668196,-0.68821 z m 3.3826993,-0.3878 c 0,-0.95475 -1.4804093,-1.43021 -2.2566443,-0.72476 -0.800353,0.72738 -0.01079,1.877 1.183088,1.72292 0.7024643,-0.0906 1.0735563,-0.43569 1.0735563,-0.99816 z m 3.4854668,-0.11417 c 0.1294026,-0.82835 -0.066049,-0.97373 -1.3095045,-0.97373 -1.0999409,0 -1.4616915,0.19636 -1.4616915,0.79341 0,1.06211 0.4767552,1.43275 1.6470663,1.2805 0.5898347,-0.0767 1.0317841,-0.50926 1.1241297,-1.10018 z m 3.6573249,0.10812 c 0,-0.62252 -0.3676907,-0.904 -1.3095043,-1.00248 -1.1351437,-0.11875 -1.309522,0.0147 -1.309522,1.00248 0,0.98768 0.1743961,1.12116 1.309522,1.00246 0.9418136,-0.0985 1.3095043,-0.37996 1.3095043,-1.00246 z m 4.0475845,0 c 0,-0.90881 -0.2241058,-1.08193 -1.4004648,-1.08193 -0.77024197,0 -1.5392245,0.20407 -1.708852,0.45349 -0.5940285,0.87353 0.2210101,1.71035 1.6658026,1.71035 1.2222874,0 1.4435142,-0.16581 1.4435142,-1.08191 z m 3.4763952,0.50171 c 0.3689145,-0.87373 -0.3799289,-1.68881 -1.3906198,-1.51362 -0.4946635,0.0857 -0.96341,0.58897 -1.0474768,1.12452 -0.1222041,0.77892 0.078109,0.9693 1.0204627,0.9693 0.644961,0 1.2828858,-0.26109 1.4176339,-0.5802 z m 2.5477735,-0.0689 c 0.2419952,-0.69466 -0.6305275,-1.65316 -1.2090776,-1.3282 -0.8664936,0.48669 -0.6473909,2.06162 0.2644385,1.9009 0.4366392,-0.0769 0.8617061,-0.33467 0.9446391,-0.5727 z m 2.9374398,-0.32458 c -0.09989,-0.63912 -0.479438,-0.97372 -1.1045488,-0.97372 -0.625092,0 -1.0046604,0.3346 -1.104529,0.97372 -0.1249031,0.79876 0.073607,0.97373 1.104529,0.97373 1.0308838,0 1.2293618,-0.17497 1.1045488,-0.97373 z m 3.419216,0.10828 c 0,-0.63473 -0.317459,-0.86554 -1.19045,-0.86554 -0.873008,0 -1.190468,0.23081 -1.190468,0.86554 0,0.63472 0.31746,0.86553 1.190468,0.86553 0.872991,0 1.19045,-0.23081 1.19045,-0.86553 z m 3.333314,0 c 0,-0.63473 -0.31746,-0.86554 -1.190468,-0.86554 -0.873009,0 -1.190468,0.23081 -1.190468,0.86554 0,0.63472 0.317459,0.86553 1.190468,0.86553 0.873008,0 1.190468,-0.23081 1.190468,-0.86553 z m 3.333297,0 c 0,-0.63473 -0.31746,-0.86554 -1.190469,-0.86554 -0.873009,0 -1.190468,0.23081 -1.190468,0.86554 0,0.63472 0.317459,0.86553 1.190468,0.86553 0.873009,0 1.190469,-0.23081 1.190469,-0.86553 z m 3.721449,0.10812 c -0.199935,-0.95927 -3.24527,-1.35727 -3.24527,-0.42413 0,0.89942 0.48203,1.18148 2.019024,1.18148 1.060885,0 1.347244,-0.17687 1.226246,-0.75735 z m 2.468963,-0.10812 c 0,-0.57703 -0.317459,-0.86554 -0.952359,-0.86554 -0.63492,0 -0.952379,0.28851 -0.952379,0.86554 0,0.57702 0.317459,0.86553 0.952379,0.86553 0.6349,0 0.952359,-0.28851 0.952359,-0.86553 z m 3.243704,0.11319 c -0.239044,-1.12812 -1.815145,-1.25393 -1.815145,-0.14492 0,0.61933 0.305833,0.89726 0.987293,0.89726 0.681478,0 0.937908,-0.23305 0.827852,-0.75237 z m 3.422907,-0.11319 c 0,-0.62915 -0.317459,-0.86554 -1.162355,-0.86554 -0.639311,0 -1.294801,0.19474 -1.456671,0.43276 -0.473318,0.69603 0.202437,1.29831 1.456671,1.29831 0.844896,0 1.162355,-0.23638 1.162355,-0.86553 z m 2.857117,0.20281 c 0,-0.36451 -0.335836,-0.77987 -0.746288,-0.92301 -0.895579,-0.31233 -1.872199,0.45352 -1.422187,1.11527 0.485089,0.71333 2.168475,0.56407 2.168475,-0.19226 z m 16.190324,0.0131 c 0,-0.35704 -0.321426,-0.64915 -0.714279,-0.64915 -0.392852,0 -0.714279,0.29211 -0.714279,0.64915 0,0.35704 0.321427,0.64916 0.714279,0.64916 0.392853,0 0.714279,-0.29212 0.714279,-0.64916 z m -98.183929,-0.76232 c 0.107805,-0.50869 -0.1438,-0.75238 -0.776902,-0.75238 -0.945773,0 -1.703615,0.98211 -1.147688,1.48735 0.545795,0.49603 1.76218,0.0316 1.92459,-0.73497 z m 3.422906,0.11319 c 0,-0.62915 -0.317459,-0.86553 -1.162355,-0.86553 -1.254216,0 -1.929971,0.60228 -1.456671,1.29831 0.161798,0.23802 0.817378,0.43276 1.456671,0.43276 0.844896,0 1.162355,-0.23639 1.162355,-0.86554 z m 2.857117,0 c 0,-0.63472 -0.31746,-0.86553 -1.190468,-0.86553 -1.296205,0 -1.327808,0.0366 -0.901428,1.04653 0.428811,1.01555 2.091896,0.87166 2.091896,-0.181 z m 3.809494,0 c 0,-0.6732 -0.317459,-0.86553 -1.428558,-0.86553 -1.111099,0 -1.428558,0.19233 -1.428558,0.86553 0,0.6732 0.317459,0.86554 1.428558,0.86554 1.111099,0 1.428558,-0.19234 1.428558,-0.86554 z m 3.809477,0 c 0,-0.6732 -0.317442,-0.86553 -1.428559,-0.86553 -1.111098,0 -1.428558,0.19233 -1.428558,0.86553 0,0.6732 0.31746,0.86554 1.428558,0.86554 1.111117,0 1.428559,-0.19234 1.428559,-0.86554 z m 3.809494,0 c 0,-0.6732 -0.31746,-0.86553 -1.428558,-0.86553 -1.111099,0 -1.428559,0.19233 -1.428559,0.86553 0,0.6732 0.31746,0.86554 1.428559,0.86554 1.111098,0 1.428558,-0.19234 1.428558,-0.86554 z m 57.855246,-1.7272 c 0.359915,-1.0306 -0.03762,-1.73495 -0.979123,-1.73495 -0.401382,0 -0.686175,0.41909 -0.686175,1.00979 0,1.69918 1.150225,2.20005 1.665298,0.72516 z m 3.00133,0.34234 c 0.876466,-0.79655 0.682487,-1.51717 -0.482964,-1.79416 -1.271926,-0.3023 -1.90769,0.46108 -1.276569,1.53282 0.537642,0.91299 0.9716,0.97744 1.759533,0.26134 z m 3.34262,-0.67522 c 0.114284,-0.72834 -0.08584,-0.96931 -0.80523,-0.96931 -1.13975,0 -1.68074,0.65461 -1.295322,1.56741 0.407322,0.9647 1.922951,0.53315 2.100552,-0.5981 z m 3.130175,0.50999 c 0.49929,-1.18247 0.324047,-1.4793 -0.873314,-1.4793 -1.428576,0 -1.970249,0.69156 -1.201267,1.53365 0.755215,0.82701 1.713046,0.8019 2.074581,-0.0543 z m 2.501484,-0.95237 c -0.986645,-0.89669 -1.886236,-0.29196 -1.228136,0.82559 0.416428,0.70718 0.640767,0.76909 1.215647,0.33549 0.616774,-0.46522 0.618335,-0.61046 0.01259,-1.16108 z m 3.02561,0.555 c 0,-1.09966 -1.084532,-1.50517 -1.680746,-0.62842 -0.458668,0.67446 0.117615,1.71035 0.951524,1.71035 0.460382,0 0.729222,-0.39888 0.729222,-1.08193 z m 2.839807,0.45172 c 0.720198,-0.78867 0.252336,-1.53365 -0.963169,-1.53365 -0.578803,0 -0.924267,0.29657 -0.924267,0.79342 0,1.41712 0.934597,1.78365 1.887436,0.74023 z m 2.714508,-0.0481 c 0.376735,-0.89224 -0.610675,-1.82391 -1.28425,-1.21176 -0.545328,0.4956 -0.133883,1.89001 0.557684,1.89001 0.242103,0 0.569057,-0.30522 0.726566,-0.67825 z m -86.601175,-0.27386 c 1.031514,-0.93746 0.683639,-2.07729 -0.633982,-2.07729 -1.402804,0 -2.017439,1.02553 -1.170491,1.95298 0.711714,0.77938 1.057484,0.8032 1.804473,0.12431 z m 4.108795,-0.49248 c 0.387272,-0.56465 0.338102,-0.84361 -0.204075,-1.15772 -1.649298,-0.95554 -3.090887,0.22147 -1.886543,1.5403 0.706154,0.7733 1.382791,0.64948 2.090618,-0.38258 z m 3.600381,0.36817 c 0.791227,-0.86644 0.264186,-1.95298 -0.947339,-1.95298 -1.080359,0 -1.683728,0.93529 -1.256358,1.94747 0.350791,0.8308 1.447546,0.83355 2.203697,0.005 z m 3.814515,-0.38781 c 0,-1.02882 -1.0586,-1.61022 -2.261882,-1.24227 -0.630222,0.19271 -0.812969,1.4988 -0.277775,1.9852 0.174576,0.15866 0.817451,0.28852 1.428558,0.28852 0.85323,0 1.111099,-0.2394 1.111099,-1.03145 z m 3.365404,0.34717 c 0.492,-0.53879 0.503536,-0.86089 0.05418,-1.51471 -0.346292,-0.50393 -0.381818,-0.83039 -0.09035,-0.83039 0.264115,0 0.480212,-0.48688 0.480212,-1.08193 0,-0.86553 -0.23809,-1.08193 -1.190469,-1.08193 -0.95236,0 -1.190449,0.2164 -1.190449,1.08193 0,0.59505 0.257131,1.08193 0.571423,1.08193 0.444432,0 0.444432,0.11547 0,0.51932 -0.784821,0.71326 -0.724313,2.51006 0.08459,2.51006 0.36078,0 0.93717,-0.30793 1.280853,-0.68428 z m 4.167646,-0.50583 c 0.129403,-0.82835 -0.06605,-0.97373 -1.309504,-0.97373 -1.099922,0 -1.461674,0.19636 -1.461674,0.79341 0,1.0621 0.476756,1.43275 1.64705,1.2805 0.589852,-0.0767 1.031801,-0.50927 1.124128,-1.10018 z m 3.899212,0.31815 c 0.405216,-0.68812 0.358548,-0.91622 -0.221351,-1.08193 -0.404137,-0.11547 -1.064341,-0.30405 -1.467109,-0.41904 -0.833559,-0.238 -1.409499,0.75454 -1.000234,1.72378 0.395947,0.93779 2.08781,0.7976 2.688694,-0.22281 z m 3.2229536,0.36294 c 0.4089959,-0.37172 0.4189666,-0.66357 0.036893,-1.08193 -0.7847136,-0.85929 -2.3113226,-0.71364 -2.3113226,0.22052 0,1.38315 1.200134,1.8377 2.2743734,0.86141 z m 3.9160403,-0.57289 c 0,-0.91364 -0.2222162,-1.08193 -1.4285575,-1.08193 -1.2063243,0 -1.4285583,0.16829 -1.4285583,1.08193 0,0.91361 0.222234,1.08191 1.4285583,1.08191 1.2063413,0 1.4285575,-0.1683 1.4285575,-1.08191 z m 3.8094953,0 c 0,-0.85858 -0.2399621,-1.08193 -1.1623567,-1.08193 -0.6393099,0 -1.3011354,0.20407 -1.4707618,0.45349 -0.5531923,0.81346 0.1954889,1.71035 1.4277124,1.71035 0.9683052,0 1.2054061,-0.2128 1.2054061,-1.08191 z m 3.7235557,-0.10828 c 0.1288624,-0.8248 -0.067127,-0.97373 -1.2814097,-0.97373 -1.575041,0 -2.2003308,0.55177 -1.7727619,1.5644 0.4490031,1.06341 2.8688324,0.59543 3.0541716,-0.59067 z m 3.2867908,0.70461 c 0.8047979,-0.73144 0.1790757,-1.67834 -1.1089755,-1.67834 -0.78752,0 -1.1395167,0.24507 -1.1395167,0.79341 0,1.36745 1.1985312,1.83916 2.2484922,0.88493 z m 2.7514701,-0.59642 c 0,-0.46953 -0.374998,-0.91932 -0.8333237,-0.99953 -0.6241571,-0.10927 -0.8333248,0.14165 -0.8333248,0.99953 0,0.85789 0.2091677,1.10877 0.8333248,0.99954 0.4583257,-0.0801 0.8333237,-0.53002 0.8333237,-0.99954 z m 3.0778922,0.45173 c 0.713874,-0.78174 0.25544,-1.53365 -0.9350638,-1.53365 -1.070424,0 -1.6136278,0.66851 -1.2475923,1.53541 0.3409103,0.8074 1.4445583,0.8065 2.1826561,-0.002 z m 3.26469,-0.56434 c 0.114284,-0.72835 -0.08585,-0.96931 -0.80523,-0.96931 -1.139751,0 -1.680723,0.65461 -1.295323,1.56739 0.40734,0.96472 1.922971,0.53316 2.100553,-0.59808 z m 3.419234,0.11253 c 0,-0.86554 -0.23809,-1.08192 -1.190468,-1.08192 -0.952378,0 -1.190468,0.21638 -1.190468,1.08192 0,0.86553 0.23809,1.08191 1.190468,1.08191 0.952378,0 1.190468,-0.21638 1.190468,-1.08191 z m 3.247376,-0.11253 c 0.123824,-0.78831 -0.07631,-0.96931 -1.071432,-0.96931 -0.86905,0 -1.223584,0.22989 -1.223584,0.79341 0,1.67742 2.034807,1.83337 2.295016,0.1759 z m 3.657325,0.11253 c 0,-0.62251 -0.367691,-0.904 -1.309522,-1.00248 -1.021885,-0.10681 -1.309504,0.0437 -1.309504,0.68521 0,1.09037 0.468278,1.4626 1.647048,1.30925 0.608139,-0.0792 0.971978,-0.45044 0.971978,-0.99198 z m 2.533088,0.10812 c -0.08369,-0.53555 -0.473589,-0.97373 -0.866439,-0.97373 -0.392852,0 -0.782752,0.43818 -0.866458,0.97373 -0.117165,0.74943 0.08243,0.97373 0.866458,0.97373 0.783956,0 0.983549,-0.2243 0.866439,-0.97373 z m -72.294347,-0.55454 c 0,-0.88998 -1.423789,-1.34281 -1.921386,-0.6111 -0.527203,0.77526 -0.136961,1.27384 0.99712,1.27384 0.512535,0 0.924266,-0.29524 0.924266,-0.66274 z m 3.243704,-0.0896 c -0.184439,-0.87036 -1.692474,-1.26329 -2.395657,-0.62422 -0.716089,0.6508 -1.81e-4,1.37661 1.357809,1.37661 0.880928,0 1.155157,-0.1988 1.037848,-0.75239 z m 2.946709,-0.11319 c 0,-0.57703 -0.31746,-0.86555 -0.952379,-0.86555 -0.6349,0 -0.95236,0.28852 -0.95236,0.86555 0,0.57703 0.31746,0.86554 0.95236,0.86554 0.634919,0 0.952379,-0.28851 0.952379,-0.86554 z m 84.28493,-1.97301 c 0,-0.6284 -0.276378,-1.05637 -0.682189,-1.05637 -0.938268,0 -1.496258,1.74263 -0.701016,2.18932 0.886282,0.49781 1.383205,0.0908 1.383205,-1.13295 z m 2.580076,1.27756 c 0.925901,-0.32292 0.974,-1.1959 0.102114,-1.85352 -0.817239,-0.6164 -1.978105,0.47122 -1.559956,1.46153 0.310831,0.73616 0.401229,0.76047 1.457829,0.39199 z m 2.961953,-0.38648 c 0.150747,-0.35703 0.138131,-0.97116 -0.02804,-1.36473 -0.273513,-0.64777 -0.363569,-0.63924 -0.950345,0.0901 -0.666812,0.82878 -0.516477,1.92384 0.264111,1.92384 0.242104,0 0.563529,-0.29213 0.714279,-0.64916 z m -68.199444,-0.0463 c 0.414286,-0.14443 0.753235,-0.7287 0.753235,-1.29831 0,-0.81956 -0.25148,-1.03562 -1.205407,-1.03562 -1.402803,0 -2.017439,1.02553 -1.17049,1.95299 0.674675,0.73881 0.627989,0.72785 1.622662,0.38094 z m 4.412396,-0.20657 c 0.947626,-0.86122 0.153879,-2.12736 -1.333765,-2.12736 -1.134478,0 -1.373036,0.18171 -1.373036,1.04586 0,1.38531 1.648003,2.04377 2.706801,1.0815 z m 2.935243,0.0862 c 0.864514,-0.49791 0.503267,-1.95154 -0.529938,-2.13238 -0.925544,-0.16193 -1.550889,0.87045 -1.13041,1.86629 0.310025,0.73425 0.730502,0.80164 1.660348,0.26609 z m 4.1197734,-0.91525 c 0,-0.79315 -0.2865396,-1.11889 -1.0735382,-1.22047 -1.170041,-0.15097 -1.8345831,0.77709 -1.3604556,1.89999 0.1720573,0.40758 0.7165206,0.62406 1.3604556,0.54097 0.7869986,-0.10158 1.0735382,-0.42734 1.0735382,-1.22049 z m 3.9537087,0.16324 c 0.1833062,-1.16759 -1.2458101,-1.72782 -2.1986202,-0.8619 -0.9702138,0.88177 -0.3521234,2.09112 0.9808501,1.9191 0.6681425,-0.0862 1.1280165,-0.48547 1.2177701,-1.0572 z m 3.9033704,0.0532 c 0,-0.72754 -0.2637727,-1.08193 -0.8053025,-1.08193 -0.7182113,0 -0.7098424,-0.0635 0.077386,-0.58658 1.1785177,-0.78317 0.643486,-1.90185 -0.9096152,-1.90185 -1.4969132,0 -1.9804366,0.5733 -1.2022571,1.42546 0.45042585,0.49324 0.4477437,0.77007 -0.012594,1.27384 -0.9087338,0.99513 -0.2178789,1.95297 1.4085814,1.95297 1.2222873,0 1.4434954,-0.16581 1.4434954,-1.08191 z m 3.2473752,0.10812 c -0.097728,-0.62578 -0.5350495,-1.02314 -1.2235834,-1.11203 -0.8726127,-0.11269 -1.0714318,0.068 -1.0714318,0.97373 0,0.90569 0.227057,1.11202 1.2235834,1.11202 0.9965442,0 1.1953455,-0.18067 1.0714318,-0.97372 z m 2.7049471,-0.13838 c 0,-0.45295 -0.374998,-0.88918 -0.8333237,-0.96939 -0.8380578,-0.14672 -1.2064321,1.16534 -0.505949,1.80196 0.5625693,0.51128 1.3392727,0.0285 1.3392727,-0.83257 z m 3.2383052,0.53185 c 0.368914,-0.87372 -0.379929,-1.6888 -1.3906188,-1.51361 -0.494664,0.0857 -0.9634113,0.58897 -1.047478,1.12452 -0.1222031,0.77892 0.078109,0.9693 1.020463,0.9693 0.644962,0 1.2828848,-0.26109 1.4176338,-0.58021 z m 2.952107,-0.50764 c 0,-0.56197 -0.370984,-0.9075 -1.071414,-0.9979 -0.78905,-0.10191 -1.071414,0.0788 -1.071414,0.68521 0,0.45293 0.15028,0.96008 0.333909,1.12699 0.63168,0.57408 1.808919,0.0442 1.808919,-0.8143 z m 3.571404,0.007 c 0,-0.86554 -0.23809,-1.08193 -1.190468,-1.08193 -0.952378,0 -1.190468,0.21639 -1.190468,1.08193 0,0.86553 0.23809,1.08191 1.190468,1.08191 0.952378,0 1.190468,-0.21638 1.190468,-1.08191 z m 3.333297,0 c 0,-0.78245 -0.255836,-1.08193 -0.924267,-1.08193 -0.508341,0 -1.063045,0.20407 -1.232672,0.45349 -0.510088,0.75012 0.157839,1.71035 1.189622,1.71035 0.714343,0 0.967317,-0.28294 0.967317,-1.08191 z m 3.571404,0.26354 c 0,-0.33109 -0.370984,-0.81466 -0.824398,-1.07458 -0.633857,-0.36337 -1.004571,-0.30885 -1.603944,0.23588 -0.428757,0.38966 -0.626838,0.93308 -0.440167,1.20757 0.465868,0.68505 2.868509,0.37608 2.868509,-0.36887 z m 2.619008,-0.26354 c 0,-0.79341 -0.253964,-1.08193 -0.952359,-1.08193 -0.698415,0 -0.952379,0.28852 -0.952379,1.08193 0,0.7934 0.253964,1.08191 0.952379,1.08191 0.698395,0 0.952359,-0.28851 0.952359,-1.08191 z m 3.333315,0 c 0,-0.79341 -0.253964,-1.08193 -0.952378,-1.08193 -0.698415,0 -0.952378,0.28852 -0.952378,1.08193 0,0.7934 0.253963,1.08191 0.952378,1.08191 0.698414,0 0.952378,-0.28851 0.952378,-1.08191 z m 3.333296,0.48574 c 0,-0.32788 -0.332181,-0.8467 -0.738171,-1.15293 -0.60812,-0.45867 -0.869769,-0.43719 -1.484909,0.12186 -0.410704,0.37326 -0.601587,0.89209 -0.424184,1.15295 0.469269,0.69005 2.647264,0.58979 2.647264,-0.12186 z m 2.857117,-0.28295 c 0,-0.98989 -1.251157,-1.61906 -1.95236,-0.98177 -0.683764,0.6214 0.01619,1.86089 1.050932,1.86089 0.588611,0 0.901428,-0.30507 0.901428,-0.87912 z m 3.333296,0 c 0,-1.1517 -1.305869,-1.58169 -2.23611,-0.73628 -0.934452,0.84927 -0.425193,1.6154 1.073754,1.6154 0.85089,0 1.162356,-0.23557 1.162356,-0.87912 z m 2.857122,0.28295 c 0,-0.32788 -0.306483,-0.82732 -0.681071,-1.10986 -0.543869,-0.41021 -0.783686,-0.33945 -1.190468,0.35134 -0.721649,1.22546 -0.656678,1.35469 0.681083,1.35469 0.693693,0 1.190456,-0.24877 1.190456,-0.59617 z m -88.180351,-1.06061 c 0.09881,-0.61084 -0.09971,-0.93984 -0.567123,-0.93984 -0.925993,0 -1.412954,0.72495 -1.055539,1.57142 0.387775,0.91838 1.437898,0.50964 1.622662,-0.63158 z m 2.92574,0.59381 c 0.713874,-0.78173 0.255441,-1.53365 -0.935064,-1.53365 -1.070425,0 -1.613627,0.66853 -1.247611,1.53543 0.34091,0.80738 1.444577,0.8065 2.182675,-0.002 z m 3.350611,-0.45172 c 0,-0.79341 -0.253964,-1.08193 -0.952379,-1.08193 -0.698396,0 -0.95236,0.28852 -0.95236,1.08193 0,0.79341 0.253964,1.08193 0.95236,1.08193 0.698415,0 0.952379,-0.28852 0.952379,-1.08193 z m 3.809494,0 c 0,-0.85856 -0.239962,-1.08193 -1.162356,-1.08193 -0.639311,0 -1.301153,0.20409 -1.470762,0.45351 -0.553193,0.81346 0.195472,1.71035 1.427712,1.71035 0.968306,0 1.205406,-0.2128 1.205406,-1.08193 z m 3.809477,0 c 0,-0.91362 -0.222217,-1.08193 -1.428559,-1.08193 -1.206324,0 -1.428558,0.16831 -1.428558,1.08193 0,0.91363 0.222234,1.08193 1.428558,1.08193 1.206342,0 1.428559,-0.1683 1.428559,-1.08193 z m 3.58429,0.63021 c 0.43025,-0.63268 -0.665425,-1.71214 -1.737847,-1.71214 -0.636214,0 -0.894066,0.31204 -0.894066,1.08193 0,0.85856 0.239963,1.08193 1.162356,1.08193 0.63931,0 1.300613,-0.20328 1.469557,-0.45172 z m 3.5585,-0.65895 c 0,-0.95632 -0.181974,-1.09164 -1.309504,-0.97373 -0.93762,0.098 -1.352716,0.41347 -1.461674,1.11067 -0.129403,0.82835 0.06605,0.97373 1.309504,0.97373 1.251768,0 1.461674,-0.15948 1.461674,-1.11067 z m 29.4339493,-2.03189 c 0.1180647,-0.55727 -0.1583786,-0.75237 -1.0659607,-0.75237 -1.1641198,0 -1.6396701,0.77753 -0.8914558,1.45752 0.5733848,0.52111 1.7904712,0.0826 1.9574165,-0.70515 z m 2.7086185,0.0831 c 0,-0.33393 -0.374998,-0.67279 -0.8333237,-0.75301 -0.8208165,-0.14361 -1.1601604,0.77464 -0.505949,1.3692 0.4991452,0.45362 1.3392727,0.0671 1.3392727,-0.61619 z m 3.0327732,0.3149 c 0.291686,-0.31943 0.389359,-0.70891 0.217032,-0.86554 -0.572575,-0.52037 -2.5355355,-0.29409 -2.5355355,0.29228 0,1.21613 1.4125037,1.56539 2.3185035,0.57326 z m 3.395729,-0.28475 c 0,-0.63474 -0.317459,-0.86554 -1.19045,-0.86554 -1.120476,0 -1.595899,0.78559 -0.873008,1.44255 0.71049,0.64572 2.063458,0.26737 2.063458,-0.57701 z m 3.243704,-0.11319 c 0.118065,-0.55727 -0.158379,-0.75237 -1.065943,-0.75237 -1.164138,0 -1.639688,0.77753 -0.891456,1.45752 0.573367,0.52111 1.790471,0.0826 1.957399,-0.70515 z m 3.333315,0 c 0.118063,-0.55727 -0.158379,-0.75237 -1.065961,-0.75237 -1.16412,0 -1.63967,0.77753 -0.891457,1.45752 0.573385,0.52111 1.790472,0.0826 1.957418,-0.70515 z m 3.660996,0.11319 c 0,-0.38646 -0.529939,-0.70458 -1.309522,-0.7861 -1.066339,-0.11155 -1.309504,0.0345 -1.309504,0.7861 0,0.75162 0.243165,0.8976 1.309504,0.78608 0.779583,-0.0815 1.309522,-0.39962 1.309522,-0.78608 z m 2.619008,0 c 0,-0.47604 -0.308767,-0.86554 -0.686176,-0.86554 -0.841224,0 -1.379046,0.71218 -0.980472,1.2983 0.517845,0.7615 1.666648,0.46321 1.666648,-0.43276 z m 3.095224,0 c 0,-0.35052 -0.374997,-0.70294 -0.833342,-0.78316 -0.584669,-0.10239 -0.833323,0.13135 -0.833323,0.78316 0,0.65181 0.248654,0.88548 0.833323,0.78316 0.458345,-0.0802 0.833342,-0.43265 0.833342,-0.78316 z m 3.482389,-0.10828 c 0.116445,-0.55559 -0.154059,-0.75735 -1.015603,-0.75735 -1.138833,0 -2.000198,0.92896 -1.382161,1.49065 0.580782,0.52781 2.239692,0.0204 2.397764,-0.7333 z m 2.595846,0.71503 c 0.463402,-0.42113 -0.172777,-1.47238 -0.891151,-1.47238 -0.364829,0 -0.663319,0.3895 -0.663319,0.86555 0,0.81472 0.92738,1.17676 1.55447,0.60683 z m 3.445475,-0.60091 c 0,-0.77043 -1.570685,-1.13178 -2.247161,-0.51698 -0.263646,0.23959 -0.327807,0.6585 -0.14254,0.93087 0.473354,0.69606 2.389737,0.36416 2.389737,-0.41389 z m 3.005612,0.1073 c -0.239049,-1.12812 -1.815144,-1.25393 -1.815144,-0.14492 0,0.61933 0.305815,0.89726 0.987293,0.89726 0.681463,0 0.937898,-0.23305 0.827851,-0.75237 z m 2.47053,-0.11319 c 0,-0.98405 -1.194217,-1.17923 -1.582894,-0.2587 -0.298845,0.70777 0.05233,1.12423 0.94798,1.12423 0.349203,0 0.634914,-0.38948 0.634914,-0.86553 z m 3.244307,0.10812 c -0.08736,-0.41654 -0.638775,-0.81957 -1.225383,-0.89564 -0.810058,-0.10501 -1.066553,0.077 -1.066553,0.75736 0,0.67363 0.30373,0.89562 1.22538,0.89562 0.910082,0 1.184518,-0.19487 1.066556,-0.75734 z m 2.469925,0.1338 c 0,-0.88896 -0.985824,-1.32573 -1.450376,-0.64261 -0.21534,0.31667 -0.285879,0.7311 -0.156759,0.92098 0.400197,0.5885 1.607129,0.37944 1.607129,-0.27837 z m -96.189575,-0.91661 c 0,-0.68886 -1.686787,-0.86148 -2.124758,-0.21745 -0.314113,0.46191 1.196713,1.36231 1.757446,1.04737 0.202022,-0.11352 0.367312,-0.48694 0.367312,-0.82992 z m 3.249175,0.0978 c 0.111586,-0.52279 -0.183485,-0.72148 -1.071432,-0.72148 -1.273023,0 -1.728703,1.0432 -0.630149,1.44256 0.916563,0.3332 1.532278,0.0723 1.701581,-0.72108 z m 2.941238,0.1441 c 0,-0.57701 -0.31746,-0.86553 -0.952379,-0.86553 -0.917696,0 -1.290408,0.84683 -0.6349,1.44256 0.655489,0.59574 1.587279,0.25701 1.587279,-0.57703 z m 3.809494,0 c 0,-0.67319 -0.317459,-0.86553 -1.428558,-0.86553 -0.873009,0 -1.428558,0.2244 -1.428558,0.57702 0,0.83396 0.484297,1.15406 1.746017,1.15406 0.79364,0 1.111099,-0.2473 1.111099,-0.86555 z m 3.721288,-0.10812 c 0.122744,-0.58815 -0.168817,-0.75734 -1.305455,-0.75734 -1.161689,0 -1.463473,0.1844 -1.463473,0.89428 0,0.71969 0.254864,0.86754 1.305455,0.75735 0.78734,-0.0826 1.368158,-0.43751 1.463473,-0.89429 z m 3.659593,0.10812 c 0,-0.38646 -0.529921,-0.70456 -1.309505,-0.78608 -1.066338,-0.11156 -1.309522,0.0345 -1.309522,0.78608 0,0.75164 0.243184,0.8976 1.309522,0.7861 0.779584,-0.0815 1.309505,-0.39964 1.309505,-0.7861 z m 3.571386,0 c 0,-0.62914 -0.31746,-0.86553 -1.162356,-0.86553 -0.639292,0 -1.2948,0.19474 -1.456653,0.43277 -0.473318,0.696 0.202438,1.29831 1.456653,1.29831 0.844896,0 1.162356,-0.23639 1.162356,-0.86555 z m 3.809494,0 c 0,-0.63472 -0.317459,-0.86553 -1.190468,-0.86553 -0.873008,0 -1.190468,0.23081 -1.190468,0.86553 0,0.63474 0.31746,0.86555 1.190468,0.86555 0.873009,0 1.190468,-0.23081 1.190468,-0.86555 z m 3.809495,0 c 0,-0.67319 -0.31746,-0.86553 -1.428559,-0.86553 -1.111098,0 -1.428558,0.19234 -1.428558,0.86553 0,0.67321 0.31746,0.86555 1.428558,0.86555 1.111099,0 1.428559,-0.19234 1.428559,-0.86555 z m 3.809476,0 c 0,-0.67319 -0.31746,-0.86553 -1.428558,-0.86553 -1.111099,0 -1.428558,0.19234 -1.428558,0.86553 0,0.67321 0.317459,0.86555 1.428558,0.86555 1.111098,0 1.428558,-0.19234 1.428558,-0.86555 z m 3.5714043,0 c 0,-0.97508 -2.3261513,-0.84608 -2.5352473,0.14067 -0.135342,0.63859 0.09125,0.76286 1.183953,0.64916 0.814931,-0.0847 1.3512943,-0.39827 1.3512943,-0.78976 z m 3.4807516,0.10812 c -0.101329,-0.47776 -0.5951626,-0.75735 -1.3379225,-0.75735 -0.742761,0 -1.2366686,0.27959 -1.3379045,0.75735 -0.1254432,0.59172 0.1671976,0.75734 1.3379045,0.75734 1.1707246,0 1.4633113,-0.16562 1.3379225,-0.75734 z m 3.9001303,0.13739 c 0,-0.69507 -1.6365565,-1.3128 -2.3766709,-0.89709 -1.0479091,0.58859 -0.4676494,1.51708 0.9481127,1.51708 0.9225014,0 1.4285582,-0.21962 1.4285582,-0.61999 z m 9.9157679,-2.12068 c 0.1038416,-0.48647 -0.1675578,-0.7215 -0.8333238,-0.7215 -0.5430059,0 -0.987276,0.25967 -0.987276,0.57703 0,1.32546 1.5424647,1.44786 1.8205998,0.14443 z m 2.9412539,0.1441 c 0,-0.5508 -0.317458,-0.86555 -0.8730078,-0.86555 -1.209599,0 -1.5984014,0.46141 -0.969296,1.1503 0.789698,0.86478 1.8423038,0.70208 1.8423038,-0.28475 z m 3.095207,-0.007 c 0,-0.35377 -0.482137,-0.70546 -1.071414,-0.78152 -1.042276,-0.13445 -1.487356,0.69794 -0.737505,1.37943 0.554776,0.50419 1.808919,0.0896 1.808919,-0.59791 z m 3.481794,-0.10729 c 0.118065,-0.55729 -0.158379,-0.75239 -1.065943,-0.75239 -1.164138,0 -1.639688,0.77753 -0.891456,1.45752 0.573367,0.52111 1.790471,0.0826 1.957399,-0.70513 z m 3.338768,-0.0309 c 0.100429,-0.47012 -0.162338,-0.72149 -0.753954,-0.72149 -1.250293,0 -1.638267,0.45597 -0.991056,1.16472 0.673361,0.73738 1.540053,0.51723 1.74501,-0.44323 z m 3.322209,0.49028 c 0.926282,-0.84183 0.664616,-1.21177 -0.857134,-1.21177 -1.111099,0 -1.428558,0.19235 -1.428558,0.86554 0,0.97592 1.365261,1.18272 2.285692,0.34623 z m 2.868221,-0.49028 c 0.08909,-0.41744 -0.149919,-0.72149 -0.56714,-0.72149 -0.884616,0 -1.418533,0.70548 -0.999855,1.32116 0.430736,0.63339 1.381513,0.26954 1.566995,-0.59967 z m 3.179345,0.1441 c 0,-0.35052 -0.374997,-0.70292 -0.833342,-0.78315 -0.584669,-0.1024 -0.833323,0.13134 -0.833323,0.78315 0,0.65182 0.248654,0.88549 0.833323,0.78316 0.458345,-0.0802 0.833342,-0.43263 0.833342,-0.78316 z m 3.249806,0.58078 c 0.429171,-0.39003 -0.595756,-1.44632 -1.403379,-1.44632 -0.360779,0 -0.655976,0.3895 -0.655976,0.86554 0,0.84199 1.352284,1.22338 2.059355,0.58078 z m 2.940608,-0.58078 c 0,-0.35052 -0.374998,-0.70292 -0.833325,-0.78315 -0.584687,-0.1024 -0.833324,0.13134 -0.833324,0.78315 0,0.65182 0.248637,0.88549 0.833324,0.78316 0.458327,-0.0802 0.833325,-0.43263 0.833325,-0.78316 z m 3.452475,0.10845 c 0.260372,-0.71067 -1.231627,-1.21797 -1.871585,-0.63637 -0.273853,0.24888 -0.346616,0.67502 -0.161619,0.94696 0.420729,0.61869 1.768227,0.41286 2.033277,-0.31059 z m 2.261757,-0.0363 c 0,-0.78273 -0.932041,-0.63984 -1.116894,0.17123 -0.102941,0.45125 0.07559,0.6491 0.47618,0.52775 0.352392,-0.10681 0.640714,-0.4213 0.640714,-0.69898 z m 3.011073,0.072 c -0.231688,-1.08571 -1.344425,-1.23478 -1.344425,-0.18011 0,0.53159 0.307469,0.90161 0.749192,0.90161 0.443445,0 0.686366,-0.29445 0.595233,-0.72149 z m 3.417435,0.34172 c 0,-0.20888 -0.330505,-0.62906 -0.734459,-0.93375 -0.837731,-0.63186 -1.98025,0.0397 -1.434021,0.84305 0.381149,0.56049 2.16848,0.63524 2.16848,0.0906 z m 1.904744,-0.24383 c 0,-0.34298 -0.214283,-0.74398 -0.476186,-0.89108 -0.261902,-0.14704 -0.476186,0.13347 -0.476186,0.62362 0,0.49009 0.214284,0.89107 0.476186,0.89107 0.261903,0 0.476186,-0.28063 0.476186,-0.62361 z m -93.068734,-1.06976 c -0.369131,-0.54281 -1.692295,-0.63997 -1.692295,-0.12431 0,0.19041 0.257149,0.57991 0.571423,0.86553 0.665713,0.60502 1.611198,-0.0203 1.120872,-0.74127 z m 3.456166,0.28189 c 0.109964,-0.51932 -0.146321,-0.75237 -0.827871,-0.75237 -0.681461,0 -0.987276,0.27793 -0.987276,0.89728 0,1.10903 1.576085,0.98321 1.815147,-0.14492 z m 3.899086,0.11319 c 0,-0.61825 -0.317459,-0.86554 -1.111099,-0.86554 -1.433183,0 -1.874178,0.42013 -1.207404,1.15029 0.826197,0.90474 2.318503,0.72146 2.318503,-0.28475 z m 3.238053,0.34621 c 0.926282,-0.84183 0.664633,-1.21175 -0.857135,-1.21175 -0.87299,0 -1.428558,0.22439 -1.428558,0.57703 0,1.1849 1.287061,1.54231 2.285693,0.63472 z m 4.142828,-0.34621 c 0,-0.38646 -0.529921,-0.70458 -1.309505,-0.7861 -1.066338,-0.11155 -1.309522,0.0345 -1.309522,0.7861 0,0.75162 0.243184,0.8976 1.309522,0.78608 0.779584,-0.0815 1.309505,-0.39962 1.309505,-0.78608 z m 3.571386,0 c 0,-0.62916 -0.31746,-0.86554 -1.162356,-0.86554 -1.254215,0 -1.929971,0.6023 -1.456653,1.29831 0.161799,0.23802 0.817361,0.43276 1.456653,0.43276 0.844896,0 1.162356,-0.23639 1.162356,-0.86553 z m 3.809494,0 c 0,-0.63474 -0.317459,-0.86554 -1.190468,-0.86554 -0.873008,0 -1.190468,0.2308 -1.190468,0.86554 0,0.63472 0.31746,0.86553 1.190468,0.86553 0.873009,0 1.190468,-0.23081 1.190468,-0.86553 z m 3.809495,0 c 0,-0.62916 -0.31746,-0.86554 -1.162356,-0.86554 -1.254234,0 -1.929989,0.6023 -1.456671,1.29831 0.161799,0.23802 0.817361,0.43276 1.456671,0.43276 0.844896,0 1.162356,-0.23639 1.162356,-0.86553 z m 3.720496,-0.10812 c 0.123284,-0.58831 -0.167738,-0.75734 -1.304663,-0.75734 -1.390439,0 -1.943594,0.71769 -1.125928,1.46083 0.607418,0.55202 2.268073,0.0713 2.430591,-0.70349 z m 3.184205,0.10812 c 0,-0.93856 -1.857783,-0.80928 -2.059644,0.14329 -0.130302,0.61455 0.08207,0.7603 0.945863,0.64916 0.612566,-0.0788 1.113781,-0.43547 1.113781,-0.7925 z m 3.9569309,0.10812 c -0.101329,-0.47776 -0.5951626,-0.75735 -1.3379225,-0.75735 -0.742761,0 -1.2366686,0.27959 -1.3379045,0.75735 -0.1254432,0.59173 0.1671976,0.75734 1.3379045,0.75734 1.1707246,0 1.4633113,-0.16561 1.3379225,-0.75734 z m 3.8105381,0.005 c -0.184439,-0.87037 -1.6924744,-1.26331 -2.3956586,-0.62424 -0.7160881,0.6508 -1.8e-4,1.37661 1.3578101,1.37661 0.8809272,0 1.1551385,-0.1988 1.0378485,-0.75237 z m 3.8990865,-0.11319 c 0,-0.67321 -0.3174596,-0.86555 -1.4285582,-0.86555 -0.87300949,0 -1.4285583,0.2244 -1.4285583,0.57703 0,0.83395 0.48429709,1.15405 1.7460168,1.15405 0.7936401,0 1.1110997,-0.2473 1.1110997,-0.86553 z m 3.0952058,0.21638 c 0,-0.23802 -0.4821373,-0.495 -1.071414,-0.57106 -0.7372166,-0.0952 -1.0714318,0.0829 -1.0714318,0.57106 0,0.48808 0.3342152,0.66622 1.0714318,0.57106 0.5892767,-0.0761 1.071414,-0.33304 1.071414,-0.57106 z m -50.4561343,-0.24519 c 0.438241,-0.64445 -0.06983,-0.99484 -0.981606,-0.67687 -0.420747,0.14672 -0.631626,0.46291 -0.468621,0.70262 0.385994,0.56759 1.054802,0.55572 1.450227,-0.0257 z m 59.078003,-1.78809 c -0.842918,-0.42871 -1.882026,-0.073 -1.486367,0.50884 0.135522,0.19922 0.699116,0.25462 1.252506,0.12317 0.876464,-0.20831 0.906609,-0.28978 0.233861,-0.63194 z m 3.441749,0.57317 c 0.506218,-0.29164 0.473318,-0.42236 -0.161978,-0.64394 -0.942786,-0.32881 -1.79481,0.0473 -1.40518,0.62024 0.336177,0.49436 0.739628,0.50045 1.567194,0.0237 z m 3.290804,-0.37118 c 0.107265,-0.2922 -0.204975,-0.38931 -0.798211,-0.24833 -0.535806,0.12742 -0.849828,0.41443 -0.697821,0.63796 0.340173,0.50022 1.257276,0.26138 1.496032,-0.38963 z m 3.812283,-0.007 c 0.124364,-0.33967 -0.259596,-0.54097 -1.031962,-0.54097 -1.201825,0 -1.565827,0.41621 -0.896226,1.02475 0.489894,0.44522 1.698972,0.14181 1.928188,-0.48378 z m 2.737847,0.32458 c 0.161798,-0.23802 -0.159639,-0.43278 -0.714269,-0.43278 -0.554722,0 -0.876141,0.19476 -0.714289,0.43278 0.161799,0.23802 0.483289,0.43276 0.714289,0.43276 0.23098,0 0.552417,-0.19474 0.714269,-0.43276 z m 3.333314,0 c 0.161799,-0.23802 -0.14686,-0.43278 -0.686175,-0.43278 -0.539262,0 -0.98049,0.19476 -0.98049,0.43278 0,0.23802 0.308784,0.43276 0.686175,0.43276 0.377409,0 0.81862,-0.19474 0.98049,-0.43276 z m 3.333297,0 c 0.166838,-0.24545 -0.233158,-0.43278 -0.924265,-0.43278 -0.670213,0 -1.218581,0.19476 -1.218581,0.43278 0,0.23802 0.415924,0.43276 0.924266,0.43276 0.50836,0 1.05671,-0.19474 1.21858,-0.43276 z m 2.619026,0 c 0,-0.23802 -0.321436,-0.43278 -0.714288,-0.43278 -0.392851,0 -0.71427,0.19476 -0.71427,0.43278 0,0.23802 0.321419,0.43276 0.71427,0.43276 0.392852,0 0.714288,-0.19474 0.714288,-0.43276 z m 3.571387,0 c 0.161798,-0.23802 -0.146861,-0.43278 -0.686176,-0.43278 -0.539262,0 -0.980473,0.19476 -0.980473,0.43278 0,0.23802 0.308785,0.43276 0.686176,0.43276 0.377392,0 0.818603,-0.19474 0.980473,-0.43276 z m 2.619026,0 c 0,-0.23802 -0.321419,-0.43278 -0.71427,-0.43278 -0.392869,0 -0.714288,0.19476 -0.714288,0.43278 0,0.23802 0.321419,0.43276 0.714288,0.43276 0.392851,0 0.71427,-0.19474 0.71427,-0.43276 z m 2.857116,0 c 0,-0.23802 -0.321426,-0.43278 -0.714279,-0.43278 -0.392853,0 -0.714279,0.19476 -0.714279,0.43278 0,0.23802 0.321426,0.43276 0.714279,0.43276 0.392853,0 0.714279,-0.19474 0.714279,-0.43276 z m 2.857117,0 c 0,-0.23802 -0.428568,-0.43278 -0.952374,-0.43278 -0.523804,0 -0.952372,0.19476 -0.952372,0.43278 0,0.23802 0.428568,0.43276 0.952372,0.43276 0.523806,0 0.952374,-0.19474 0.952374,-0.43276 z m -79.761167,-0.43278 c 0.172237,-0.25317 -0.321869,-0.43277 -1.190468,-0.43277 -0.868581,0 -1.362615,0.1796 -1.19045,0.43277 0.161798,0.23802 0.697569,0.43278 1.19045,0.43278 0.4929,0 1.028616,-0.19476 1.190468,-0.43278 z m 3.571404,0 c 0,-0.23802 -0.548368,-0.43277 -1.21858,-0.43277 -0.691107,0 -1.091175,0.18732 -0.924265,0.43277 0.161797,0.23802 0.71022,0.43278 1.21858,0.43278 0.508341,0 0.924265,-0.19476 0.924265,-0.43278 z m 3.571387,0 c 0.166837,-0.24545 -0.233141,-0.43277 -0.924266,-0.43277 -0.670212,0 -1.218562,0.19475 -1.218562,0.43277 0,0.23802 0.415924,0.43278 0.924265,0.43278 0.508342,0 1.056711,-0.19476 1.218563,-0.43278 z m 3.809494,0 c 0.166837,-0.24545 -0.233158,-0.43277 -0.924265,-0.43277 -0.670213,0 -1.218581,0.19475 -1.218581,0.43277 0,0.23802 0.415925,0.43278 0.924284,0.43278 0.508342,0 1.056692,-0.19476 1.218562,-0.43278 z m 4.047585,0 c 0,-0.23802 -0.642856,-0.43277 -1.428559,-0.43277 -0.785702,0 -1.428558,0.19475 -1.428558,0.43277 0,0.23802 0.642856,0.43278 1.428558,0.43278 0.785703,0 1.428559,-0.19476 1.428559,-0.43278 z m 3.809476,0 c 0,-0.23802 -0.642838,-0.43277 -1.428558,-0.43277 -0.785703,0 -1.428558,0.19475 -1.428558,0.43277 0,0.23802 0.642855,0.43278 1.428558,0.43278 0.78572,0 1.428558,-0.19476 1.428558,-0.43278 z m 2.857117,0 c 0,-0.23802 -0.441211,-0.43277 -0.980472,-0.43277 -0.539263,0 -0.848029,0.19475 -0.686177,0.43277 0.161799,0.23802 0.603081,0.43278 0.98049,0.43278 0.377392,0 0.686159,-0.19476 0.686159,-0.43278 z m 4.2856739,0 c 0,-0.23802 -0.65549,-0.43277 -1.456652,-0.43277 -0.8498459,0 -1.3340707,0.18029 -1.1623558,0.43277 0.1617978,0.23802 0.8173597,0.43278 1.4566518,0.43278 0.6393109,0 1.162356,-0.19476 1.162356,-0.43278 z m 3.3333148,0 c 0,-0.23802 -0.5357164,-0.43277 -1.190468,-0.43277 -0.6547526,0 -1.190468,0.19475 -1.190468,0.43277 0,0.23802 0.5357154,0.43278 1.190468,0.43278 0.6547516,0 1.190468,-0.19476 1.190468,-0.43278 z m 4.2856748,0 c 0,-0.23802 -0.6428557,-0.43277 -1.4285582,-0.43277 -0.78570257,0 -1.4285583,0.19475 -1.4285583,0.43277 0,0.23802 0.64285573,0.43278 1.4285583,0.43278 0.7857025,0 1.4285582,-0.19476 1.4285582,-0.43278 z m 3.3332961,0 c 0,-0.23802 -0.4159244,-0.43277 -0.9242655,-0.43277 -0.5083422,0 -1.0567104,0.19475 -1.2185625,0.43277 -0.1670176,0.24546 0.2331405,0.43278 0.9242654,0.43278 0.6702122,0 1.2185626,-0.19476 1.2185626,-0.43278 z m 2.380936,0 c 0,-0.23802 -0.2016447,-0.43277 -0.448086,-0.43277 -0.2464403,0 -0.5805121,0.19475 -0.742382,0.43277 -0.1617978,0.23802 0.039772,0.43278 0.448086,0.43278 0.4083113,0 0.742382,-0.19476 0.742382,-0.43278 z m 3.3332954,0 c 0,-0.23802 -0.415923,-0.43277 -0.9242648,-0.43277 -0.508342,0 -1.0567104,0.19475 -1.2185626,0.43277 -0.1668375,0.24546 0.2331406,0.43278 0.9242666,0.43278 0.6702108,0 1.2185608,-0.19476 1.2185608,-0.43278 z m -56.795097,-0.26146 c -0.1582,-0.14378 -0.568959,-0.15915 -0.912695,-0.0342 -0.379874,0.13821 -0.267029,0.24069 0.287693,0.26146 0.501988,0.0188 0.783236,-0.0834 0.625002,-0.22731 z m 2.986069,-0.0991 c 0,-0.19835 -0.321419,-0.36064 -0.714271,-0.36064 -0.392851,0 -0.714288,0.16226 -0.714288,0.36064 0,0.19836 0.321437,0.36064 0.714288,0.36064 0.392852,0 0.714271,-0.16226 0.714271,-0.36064 z m 3.809494,0.19056 c 0,-0.41054 -1.425409,-0.61745 -1.679499,-0.24378 -0.154779,0.22762 0.159819,0.41386 0.699027,0.41386 0.539261,0 0.980472,-0.0766 0.980472,-0.17008 z m 3.21426,-0.12824 c -0.458326,-0.10893 -1.208322,-0.10893 -1.666648,0 -0.458327,0.10878 -0.08333,0.19792 0.833324,0.19792 0.916652,0 1.29165,-0.0891 0.833324,-0.19792 z m -30.833045,-7.70792 c 0,-0.35703 -0.214278,-0.64914 -0.47618,-0.64914 -0.261923,0 -0.476202,0.29211 -0.476202,0.64914 0,0.35704 0.214279,0.64917 0.476202,0.64917 0.261902,0 0.47618,-0.29213 0.47618,-0.64917 z m 2.857115,0 c 0,-0.35703 -0.321439,-0.64914 -0.714287,-0.64914 -0.392847,0 -0.714265,0.29211 -0.714265,0.64914 0,0.35704 0.321418,0.64917 0.714265,0.64917 0.392848,0 0.714287,-0.29213 0.714287,-0.64917 z m 1.90474,0 c 0,-0.35703 -0.21428,-0.64914 -0.476181,-0.64914 -0.261901,0 -0.476179,0.29211 -0.476179,0.64914 0,0.35704 0.214278,0.64917 0.476179,0.64917 0.261901,0 0.476181,-0.29213 0.476181,-0.64917 z m 3.001312,0.007 c 0.05165,-0.23476 -0.281104,-0.49248 -0.73943,-0.57269 -0.521229,-0.0913 -0.833324,0.12104 -0.833324,0.56676 0,0.75293 1.407266,0.75822 1.572754,0.007 z m 2.127602,0.12922 c -0.294314,-0.80244 -1.31942,-0.93553 -1.31942,-0.1713 0,0.37687 0.339272,0.68523 0.753954,0.68523 0.414683,0 0.669151,-0.23127 0.565466,-0.51393 z m 2.490074,-0.1713 c 0,-0.76423 -1.025124,-0.63114 -1.319439,0.1713 -0.103664,0.28266 0.15082,0.51393 0.565466,0.51393 0.414683,0 0.753973,-0.30836 0.753973,-0.68523 z m 1.904738,0.01 c 0,-0.37109 -0.214279,-0.55433 -0.476179,-0.40722 -0.261919,0.14705 -0.476199,0.45071 -0.476199,0.6747 0,0.22397 0.21428,0.40721 0.476199,0.40721 0.2619,0 0.476179,-0.30361 0.476179,-0.67469 z m -14.285581,-2.57107 c 0,-0.59506 -0.214278,-1.08193 -0.47618,-1.08193 -0.261923,0 -0.476202,0.48687 -0.476202,1.08193 0,0.59505 0.214279,1.08193 0.476202,1.08193 0.261902,0 0.47618,-0.48688 0.47618,-1.08193 z m 2.857115,0 c 0,-0.67319 -0.269838,-1.08193 -0.714287,-1.08193 -0.444428,0 -0.714265,0.40874 -0.714265,1.08193 0,0.67321 0.269837,1.08193 0.714265,1.08193 0.444449,0 0.714287,-0.40872 0.714287,-1.08193 z m 2.116283,0.6882 c 0.344168,-0.50609 -0.183305,-1.77013 -0.738675,-1.77013 -0.233879,0 -0.425228,0.48687 -0.425228,1.08193 0,1.06946 0.645194,1.45096 1.163903,0.6882 z m 2.883662,-0.6882 c 0,-0.46952 -0.374997,-0.91931 -0.833323,-0.99954 -0.624156,-0.10926 -0.833324,0.14165 -0.833324,0.99954 0,0.85791 0.209168,1.10878 0.833324,0.99954 0.458326,-0.0802 0.833323,-0.53001 0.833323,-0.99954 z m 2.393823,0.6302 c 0.379983,-0.55877 -0.677375,-1.79116 -1.257311,-1.46544 -0.232223,0.13053 -0.422223,0.61518 -0.422223,1.07717 0,0.88697 1.158306,1.15475 1.679534,0.38827 z m 2.446214,-0.22652 c 0.396882,-0.93995 -0.610676,-1.82391 -1.331858,-1.16847 -0.609542,0.55395 -0.231934,1.84672 0.539406,1.84672 0.278351,0 0.634955,-0.30522 0.792452,-0.67825 z m 2.012237,0.0865 c 0.408203,-0.44703 0.382629,-0.7107 -0.104564,-1.07816 -0.763403,-0.57581 -1.271565,-0.22553 -1.271565,0.87648 0,0.93856 0.620197,1.02946 1.376113,0.20168 z m -2.328491,-2.87043 c 0,-0.48085 -0.317459,-0.86553 -0.714288,-0.86553 -0.861041,0 -0.920559,0.50495 -0.142901,1.21175 0.768461,0.6984 0.857135,0.66258 0.857135,-0.34622 z m -9.523728,-0.21638 c 0,-0.35703 -0.321439,-0.64915 -0.714287,-0.64915 -0.392847,0 -0.714265,0.29212 -0.714265,0.64915 0,0.35703 0.321418,0.64916 0.714265,0.64916 0.392848,0 0.714287,-0.29213 0.714287,-0.64916 z m 1.90474,0 c 0,-0.35703 -0.21428,-0.64915 -0.476181,-0.64915 -0.261901,0 -0.476179,0.29212 -0.476179,0.64915 0,0.35703 0.214278,0.64916 0.476179,0.64916 0.261901,0 0.476181,-0.29213 0.476181,-0.64916 z m 3.001312,0.007 c 0.05165,-0.23477 -0.281104,-0.49248 -0.73943,-0.5727 -0.521229,-0.0913 -0.833324,0.12104 -0.833324,0.56676 0,0.75293 1.407266,0.75823 1.572754,0.006 z m 2.282309,-0.0558 c 0.55231,-0.60482 0.517341,-0.67775 -0.259363,-0.54096 -0.493763,0.087 -0.986933,0.40154 -1.095945,0.69906 -0.282831,0.77202 0.599986,0.66902 1.355308,-0.15816 z m 4.741446,0.0499 c -0.03726,-0.64236 -1.102676,-0.52434 -1.349819,0.1495 -0.133542,0.364 0.08423,0.52624 0.580693,0.43276 0.436854,-0.0823 0.782948,-0.34427 0.769126,-0.58229 z m -0.501341,-2.18939 c 0,-0.37108 -0.217789,-0.55236 -0.483955,-0.40286 -0.266166,0.1495 -0.360671,0.45311 -0.209996,0.6747 0.408204,0.60027 0.693951,0.48834 0.693951,-0.27184 z m -11.428466,-0.19085 c 0,-0.23802 -0.321439,-0.43276 -0.714287,-0.43276 -0.392847,0 -0.714265,0.19474 -0.714265,0.43276 0,0.23803 0.321418,0.43279 0.714265,0.43279 0.392848,0 0.714287,-0.19476 0.714287,-0.43279 z m 1.90474,0 c 0,-0.23802 -0.21428,-0.43276 -0.476181,-0.43276 -0.261901,0 -0.476179,0.19474 -0.476179,0.43276 0,0.23803 0.214278,0.43279 0.476179,0.43279 0.261901,0 0.476181,-0.19476 0.476181,-0.43279 z m 2.857115,0 c 0,-0.23802 -0.321418,-0.43276 -0.71427,-0.43276 -0.39285,0 -0.714287,0.19474 -0.714287,0.43276 0,0.23803 0.321437,0.43279 0.714287,0.43279 0.392852,0 0.71427,-0.19476 0.71427,-0.43279 z m 2.380937,0.24194 c 0,-0.45678 -0.913863,-0.64869 -1.185663,-0.24898 -0.164498,0.24189 0.03491,0.43983 0.44328,0.43983 0.408311,0 0.742383,-0.0859 0.742383,-0.19085 z m 2.380936,-0.24194 c 0,-0.23802 -0.214297,-0.43276 -0.476198,-0.43276 -0.261901,0 -0.476181,0.19474 -0.476181,0.43276 0,0.23803 0.21428,0.43279 0.476181,0.43279 0.261901,0 0.476198,-0.19476 0.476198,-0.43279 z m -9.523728,-2.41628 c 0,-1.35575 -1.118315,-1.20737 -1.342633,0.17816 -0.101131,0.62413 0.09883,0.93982 0.595233,0.93982 0.486199,0 0.7474,-0.39072 0.7474,-1.11798 z m 2.311287,0.54508 c 0.382052,-0.41835 0.372081,-0.7102 -0.03689,-1.08192 -0.876554,-0.79667 -1.321958,-0.60364 -1.321958,0.57291 0,1.18973 0.549377,1.39553 1.358907,0.50901 z m 2.770205,-0.10337 c 0.07756,-0.22314 -0.06083,-0.6962 -0.307542,-1.05126 -0.59959,-0.86278 -1.692367,0.0743 -1.265536,1.08522 0.306661,0.72626 1.316325,0.70448 1.573078,-0.034 z m 2.299389,-0.19527 c 0,-0.92763 -1.383636,-0.79365 -1.584327,0.15343 -0.122563,0.57835 0.07145,0.75461 0.707755,0.64323 0.48212,-0.0844 0.876572,-0.44288 0.876572,-0.79666 z m 2.142847,-0.21044 c 0,-0.59507 -0.214297,-1.08193 -0.476198,-1.08193 -0.261901,0 -0.476181,0.48686 -0.476181,1.08193 0,0.59505 0.21428,1.08191 0.476181,1.08191 0.261901,0 0.476198,-0.48686 0.476198,-1.08191 z m 2.619009,0.21044 c 0,-0.92763 -1.383637,-0.79365 -1.584328,0.15343 -0.122563,0.57835 0.07145,0.75461 0.707773,0.64323 0.482101,-0.0844 0.876555,-0.44288 0.876555,-0.79666 z m -10.249876,-3.20737 c -0.640516,-0.5821 -1.116876,0.008 -0.735615,0.91048 0.273581,0.6479 0.387937,0.66771 0.753288,0.13052 0.259814,-0.38207 0.252794,-0.79513 -0.018,-1.04095 z m 3.107084,0.61076 c 0,-0.92764 -1.383636,-0.79366 -1.584327,0.15342 -0.122563,0.57836 0.07145,0.75462 0.707773,0.64323 0.482102,-0.0844 0.876554,-0.44288 0.876554,-0.79665 z m 2.534906,-0.13805 c 0.08909,-0.41744 -0.14992,-0.72149 -0.56714,-0.72149 -0.884617,0 -1.418533,0.70547 -0.999855,1.32115 0.430736,0.63338 1.381494,0.26953 1.566995,-0.59966 z m 2.226967,0.1441 c 0,-0.31737 -0.267858,-0.65818 -0.595234,-0.75735 -0.354084,-0.1073 -0.595235,0.19955 -0.595235,0.75735 0,0.55779 0.241151,0.86461 0.595235,0.75734 0.327376,-0.0991 0.595234,-0.43999 0.595234,-0.75734 z m -9.761818,0 c 0,-0.23802 -0.09443,-0.43278 -0.209997,-0.43278 -0.115546,0 -0.342419,0.19476 -0.50429,0.43278 -0.161797,0.23802 -0.06731,0.43276 0.209997,0.43276 0.277365,0 0.50429,-0.19474 0.50429,-0.43276 z m 11.428466,0 c 0,-0.23802 -0.09448,-0.43278 -0.209996,-0.43278 -0.115544,0 -0.342422,0.19476 -0.504292,0.43278 -0.161798,0.23802 -0.06732,0.43276 0.209996,0.43276 0.277361,0 0.504292,-0.19474 0.504292,-0.43276 z m -9.027696,-3.22406 c -0.877958,-0.96141 -1.44839,-0.82794 -1.44839,0.33893 0,1.37009 0.514712,1.73727 1.359303,0.96968 0.576282,-0.52375 0.59221,-0.75765 0.08909,-1.30861 z m 2.599175,0.62744 c 0,-1.18615 -1.060345,-1.67727 -1.479239,-0.68515 -0.394129,0.93344 0.15424,2.09634 0.884257,1.87518 0.32725,-0.0991 0.594982,-0.63464 0.594982,-1.19003 z m 2.46099,-0.6156 c -0.158558,-0.3755 -0.51599,-0.6827 -0.794323,-0.6827 -0.696201,0 -1.119072,1.14483 -0.747728,2.02429 0.280979,0.66549 0.370013,0.66828 1.068426,0.0335 0.419038,-0.38085 0.632184,-0.99965 0.473625,-1.37515 z m 2.300883,0.6156 c 0,-0.55539 -0.267858,-1.09094 -0.595234,-1.19012 -0.392653,-0.11891 -0.595235,0.28611 -0.595235,1.19012 0,0.904 0.202582,1.30906 0.595235,1.19011 0.327376,-0.0991 0.595234,-0.63472 0.595234,-1.19011 z m -4.531072,-2.75112 c -0.0036,-0.272058 -0.183629,-0.747301 -0.399168,-1.056098 -0.53208,-0.762318 -1.718445,0.497716 -1.331479,1.414178 0.305652,0.72388 1.742221,0.42665 1.730647,-0.35808 z m 4.769162,0.15441 c 0,-0.480854 -0.317459,-0.86553 -0.714288,-0.86553 -0.724943,0 -0.976783,0.91548 -0.396811,1.44256 0.603693,0.54867 1.111099,0.28516 1.111099,-0.57703 z m -7.618971,-0.21638 c 0.495258,-0.542341 0.426507,-0.64915 -0.417885,-0.64915 -0.580927,0 -1.010672,0.276019 -1.010672,0.64915 0,0.35703 0.188038,0.64916 0.417867,0.64916 0.229829,0 0.684646,-0.29213 1.01069,-0.64916 z m 5.134369,-0.1495 c 0.136421,-0.372461 -0.0925,-0.528405 -0.635351,-0.432768 -0.466785,0.08227 -0.944711,0.411548 -1.062055,0.731818 -0.136422,0.37245 0.0925,0.52841 0.63535,0.43276 0.466786,-0.0823 0.944712,-0.41155 1.062056,-0.73181 z m -2.515361,-2.230707 c 0.161799,-0.238022 0.167738,-0.619017 0.01259,-0.846636 -0.3917,-0.575999 -1.679499,-0.05725 -1.679499,0.676544 0,0.691968 1.226625,0.817145 1.666649,0.170092 z m 2.619027,-0.216382 c 0,-0.357049 -0.308767,-0.649162 -0.686176,-0.649162 -0.795529,0 -1.332559,0.617676 -0.888163,1.02157 0.56912,0.517214 1.574339,0.279437 1.574339,-0.372408 z m 1.904756,0.241915 c 0,-0.223972 -0.214297,-0.527584 -0.476198,-0.674695 -0.261901,-0.147047 -0.476181,0.03615 -0.476181,0.407231 0,0.371083 0.21428,0.674696 0.476181,0.674696 0.261901,0 0.476198,-0.183244 0.476198,-0.407232 z m -4.523783,-2.652296 c 0,-0.333937 -0.374997,-0.672798 -0.833323,-0.753011 -0.820816,-0.143611 -1.160143,0.774635 -0.505948,1.369199 0.499145,0.453635 1.339271,0.06706 1.339271,-0.616188 z m 2.142847,0.0049 c 0,-0.223971 -0.214279,-0.407231 -0.47618,-0.407231 -0.261919,0 -0.476199,0.303612 -0.476199,0.674695 0,0.371083 0.21428,0.554343 0.476199,0.407232 0.261901,-0.147047 0.47618,-0.450708 0.47618,-0.674696 z m -1.996023,-2.170756 c -0.09377,-0.255883 -0.374205,-0.465232 -0.623003,-0.465232 -0.248799,0 -0.529165,0.209349 -0.623005,0.465232 -0.09395,0.255867 0.186491,0.465216 0.623005,0.465216 0.436512,0 0.716862,-0.209349 0.623003,-0.465216 z m 2.472203,0.03239 c 0,-0.238022 -0.321419,-0.43278 -0.71427,-0.43278 -0.392852,0 -0.714289,0.194758 -0.714289,0.43278 0,0.238022 0.321437,0.432764 0.714289,0.432764 0.392851,0 0.71427,-0.194742 0.71427,-0.432764 z m -0.271439,-2.645655 c -0.480393,-0.706427 -1.15712,-0.393655 -1.15712,0.534797 0,0.764379 0.118964,0.828775 0.709034,0.383727 0.389971,-0.294142 0.591616,-0.707474 0.448086,-0.918524 z m -2.10948,0.481802 c 0,-0.238022 -0.214297,-0.432765 -0.476198,-0.432765 -0.261901,0 -0.476179,0.194743 -0.476179,0.432765 0,0.238021 0.214278,0.432764 0.476179,0.432764 0.261901,0 0.476198,-0.194743 0.476198,-0.432764 z m 0.998992,-5.950582 c 0.02573,-0.416538 0.111766,-3.386431 0.191459,-6.599744 0.07973,-3.213312 0.165758,-5.988445 0.191476,-6.166963 0.02573,-0.178518 0.796609,-0.324576 1.71328,-0.324576 1.460306,0 1.666648,-0.133961 1.666648,-1.081925 0,-0.947971 -0.206342,-1.081924 -1.666648,-1.081924 -1.325504,0 -1.666648,-0.169921 -1.666648,-0.830144 0,-1.130681 -0.487501,-2.199245 -1.003329,-2.199245 -0.233879,0 -0.42523,0.681613 -0.42523,1.514695 0,1.510094 -0.0072,1.514694 -2.175961,1.514694 -1.98418,0 -2.162553,0.08582 -2.023793,0.973731 0.126524,0.809463 0.493585,0.996182 2.175963,1.106808 l 2.023791,0.133078 v 6.89943 c 0,4.311106 0.178717,6.899431 0.476181,6.899431 0.261901,0 0.497164,-0.340807 0.522811,-0.757346 z m -60.998438,85.611901 c 0,-0.2206 0.69642,-0.73842 1.54759,-1.15072 3.51576,-1.70299 6.85789,-3.11187 7.97612,-3.36234 0.65475,-0.14672 -0.4335,0.46083 -2.41837,1.34999 -1.98486,0.88917 -4.26791,2.05486 -5.07346,2.59041 -1.59878,1.06292 -2.03188,1.18499 -2.03188,0.57266 z m 11.47098,-5.44905 c 0.872,-0.79248 7.10028,-2.90537 7.10028,-2.4087 0,0.19276 -1.15456,0.68052 -2.56568,1.08391 -1.41112,0.40338 -2.96467,1.00809 -3.45235,1.34378 -1.19008,0.8192 -1.98911,0.80518 -1.08225,-0.019 z m 11.981175,-2.65912 c -0.327385,-0.12006 -0.595223,-0.46399 -0.595223,-0.7643 0,-0.30031 -0.428578,-0.8985 -0.952371,-1.32932 -1.197261,-0.98472 -1.201543,-1.60838 -0.01801,-2.58203 0.989652,-0.81395 2.398669,-0.63745 2.398669,0.30049 0,0.30726 0.428578,0.80189 0.952382,1.09918 1.188247,0.67442 1.22358,1.90707 0.08155,2.84637 -0.925791,0.76144 -0.948289,0.7666 -1.867243,0.42961 z M 85.624339,149.74549 c -2.35712,-0.42493 -3.749964,-0.79335 -3.095208,-0.81872 1.244239,-0.0482 8.157729,1.16409 8.520913,1.49416 0.327989,0.29809 -0.813747,0.15588 -5.425705,-0.67544 z M 62.518788,147.768 c -0.308316,-0.84904 -0.485649,-1.58632 -0.394068,-1.6384 2.733346,-1.55455 5.319855,-2.87669 5.6277,-2.87669 0.311679,0 1.4435,2.24001 1.4435,2.85685 0,0.14738 -5.667304,3.20192 -5.940905,3.20192 -0.09661,0 -0.42791,-0.69465 -0.736227,-1.54368 z m 16.796086,0.37982 c 0.45833,-0.10894 1.208321,-0.10894 1.666652,0 0.458328,0.10877 0.08333,0.19791 -0.833326,0.19791 -0.916658,0 -1.291654,-0.0891 -0.833326,-0.19791 z m -7.261838,-0.59048 c -0.751749,-0.23349 0.03796,-0.27768 2.142838,-0.11989 1.833316,0.1374 3.422588,0.32317 3.531716,0.41287 0.391629,0.32194 -4.509536,0.0689 -5.674554,-0.29293 z M -117.469,141.52182 c 0,-0.23802 0.3039,-0.43276 0.67532,-0.43276 0.37144,0 1.06786,-0.11074 1.54762,-0.24628 0.47974,-0.13544 0.33655,0.0523 -0.31821,0.41743 -1.40589,0.78383 -1.90473,0.85235 -1.90473,0.26161 z m 6.42851,-2.51338 c 2.04409,-0.86461 6.42493,-1.96181 6.72915,-1.68534 0.15532,0.14116 -1.7197,0.6879 -7.76835,2.26529 -0.47606,0.12414 -0.009,-0.13691 1.0392,-0.57995 z m 8.80944,-2.29107 c 0.91667,-0.25674 1.88612,-0.63134 2.15436,-0.83246 0.501606,-0.37605 9.517954,-2.15294 10.924605,-2.15294 0.432661,0 0.654194,0.19476 0.492344,0.43278 -0.161797,0.23802 -0.933538,0.43276 -1.714836,0.43276 -1.841584,0 -8.61994,1.27023 -9.237451,1.73104 -0.261902,0.19545 -1.333322,0.46792 -2.380942,0.60549 l -1.90473,0.25015 z m 16.713661,-3.58291 c -1.211792,-1.327 -0.44335,-2.5204 2.046147,-3.17767 1.926194,-0.50856 2.400804,-0.51605 2.730775,-0.043 0.813993,1.16677 0.446679,2.53006 -0.797494,2.95997 -2.482263,0.85771 -3.380551,0.91657 -3.979428,0.26077 z m -30.422281,-5.6971 c 0.27621,-0.25103 6.15724,-2.28635 7.75629,-2.68432 2.26464,-0.56362 0.0961,0.40523 -3.59719,1.6071 -4.19281,1.36444 -4.58768,1.46672 -4.1591,1.07722 z m 192.635521,-1.74277 c -1.846278,-0.9103 -1.63717,-1.22444 0.238094,-0.3577 1.794992,0.82966 2.11267,1.04468 1.507924,1.02067 -0.240079,-0.01 -1.025787,-0.30787 -1.746018,-0.66297 z m -181.518921,-2.44558 c -1.39656,-1.81207 -0.72156,-2.58294 2.67686,-3.05702 1.60133,-0.22338 1.79223,-0.13805 2.226907,0.99512 0.544909,1.42063 0.239425,1.76182 -2.263747,2.52818 -2.02082,0.61867 -1.76968,0.66303 -2.64002,-0.46628 z m 171.876152,-1.43402 c -1.922979,-0.80025 -0.772992,-0.80144 1.254843,-10e-4 0.881253,0.34772 1.28085,0.62402 0.887995,0.61401 -0.392853,-0.01 -1.357129,-0.28574 -2.142838,-0.61268 z m -4.523766,-1.28269 c -0.916658,-0.32081 -1.316255,-0.59811 -0.887998,-0.61622 0.428259,-0.0182 1.499679,0.25157 2.380932,0.5993 2.0078,0.79221 0.762618,0.80635 -1.492934,0.0169 z m -11.873293,-1.69674 c -0.443239,-0.48538 -0.248399,-1.22331 0.925477,-3.50516 1.294171,-2.51569 1.621726,-2.85749 2.526923,-2.63687 0.572005,0.13936 1.415007,0.25616 1.873334,0.2594 1.196414,0.008 1.033524,0.95755 -0.595232,3.46807 -0.785706,1.21106 -1.428557,2.38812 -1.428557,2.61565 0,0.6475 -2.675856,0.48452 -3.301945,-0.20109 z m 7.825712,0.18205 -0.952373,-0.37193 0.952373,-0.0237 c 0.523804,-0.0131 1.273798,0.16499 1.666651,0.39572 0.634912,0.37291 0.634912,0.41688 0,0.39573 -0.392853,-0.0131 -1.142847,-0.19116 -1.666651,-0.39573 z M 9.9728062,115.88003 c -0.447726,-1.51832 -0.350342,-2.9212 0.2027598,-2.9212 0.276587,0 1.777963,-0.57495 3.336392,-1.27766 l 2.833503,-1.27767 0.711192,1.5469 c 0.391143,0.8508 0.711175,1.60264 0.711175,1.67073 0,0.27926 -6.272463,3.23263 -6.865556,3.23263 -0.353292,0 -0.771556,-0.43818 -0.9294658,-0.97373 z m -43.6264122,-0.8478 c -0.525511,-0.78333 -0.953619,-1.52161 -0.951352,-1.64062 0.0072,-0.40477 6.2441,-3.89492 6.959666,-3.89492 0.144699,0 1.120961,3.07251 1.125172,3.54118 0.0015,0.16242 -0.479491,0.43258 -1.068769,0.60025 -0.589276,0.16766 -1.979932,0.87037 -3.090346,1.56161 l -2.018915,1.25676 z m 59.151648,-4.48258 c 0.411479,-0.37397 5.978365,-1.36812 9.18199,-1.63976 3.373934,-0.28606 2.630076,-0.0918 -3.985674,1.04094 -5.456507,0.93423 -5.581194,0.9486 -5.196316,0.59882 z m -47.253661,-2.13489 c 0.654769,-0.34017 1.404765,-0.61849 1.666666,-0.61849 0.261901,0 -0.05957,0.27832 -0.714289,0.61849 -0.654751,0.34017 -1.404747,0.61848 -1.666648,0.61848 -0.261901,0 0.05957,-0.27831 0.714271,-0.61848 z m 60.362147,-0.0896 c 0.592318,-0.10354 1.449453,-0.0996 1.904738,0.008 0.455285,0.10828 -0.02933,0.19301 -1.076975,0.1882 -1.047604,-0.005 -1.4201,-0.0934 -0.827763,-0.19693 z m 4.524754,-0.43723 c 0.723832,-0.0995 1.795251,-0.0968 2.380931,0.007 0.585681,0.10272 -0.0067,0.18409 -1.316059,0.18086 -1.309511,-0.003 -1.788703,-0.0873 -1.064872,-0.18678 z m -62.505965,-0.76258 c 0,-0.49049 8.529126,-3.86997 8.90497,-3.52841 0.08369,0.0761 -0.760614,0.47745 -1.876374,0.89185 -1.115742,0.41439 -3.024495,1.22385 -4.241652,1.79879 -2.226787,1.05184 -2.786944,1.22023 -2.786944,0.83777 z m 68.21365,-0.10763 c 0.982134,-0.0934 2.589262,-0.0934 3.571396,0 0.982132,0.0934 0.178571,0.16975 -1.785698,0.16975 -1.964266,0 -2.767832,-0.0764 -1.785698,-0.16975 z m 6.934459,0.0196 c 0.343745,-0.12497 0.754459,-0.10959 0.912692,0.0342 0.158235,0.14377 -0.123013,0.24609 -0.624994,0.22729 -0.554733,-0.0208 -0.667565,-0.12333 -0.287698,-0.26146 z m -63.3078237,-5.13105 c 0.8812517,-0.3477 1.8455267,-0.61639 2.1428283,-0.59706 0.7513812,0.0489 -2.1508726,1.22352 -3.0308293,1.22669 -0.3928507,0.001 0.00722,-0.2819 0.888001,-0.62963 z m 5.0643227,-1.51763 c 1.3095042,-0.464725 2.7380625,-0.845115 3.1745751,-0.845295 0.4364958,-1.96e-4 0.8650719,-0.164973 0.9523788,-0.366176 0.08729,-0.201204 0.8015756,-0.507106 1.5872781,-0.679783 1.138653,-0.25024 1.3099722,-0.20436 0.8442125,0.226098 -0.5358954,0.495263 -7.3582393,2.521476 -8.4631833,2.513526 -0.2619008,-0.002 0.5952345,-0.38366 1.9047388,-0.84837 z m 7.7677745,-2.439594 c 0.3437534,-0.124965 0.7544767,-0.109589 0.912693,0.03418 0.1581996,0.143775 -0.1229233,0.246086 -0.6249841,0.227292 -0.5547385,-0.02077 -0.6675656,-0.123329 -0.2877089,-0.261461 z"
         id="path91"
         inkscape:connector-curvature="0" />
    </g>
  </g>
</svg>
