<?xml version="1.0" encoding="UTF-8" standalone="no"?>
<!-- Created with Inkscape (http://www.inkscape.org/) -->

<svg
   xmlns:dc="http://purl.org/dc/elements/1.1/"
   xmlns:cc="http://creativecommons.org/ns#"
   xmlns:rdf="http://www.w3.org/1999/02/22-rdf-syntax-ns#"
   xmlns:svg="http://www.w3.org/2000/svg"
   xmlns="http://www.w3.org/2000/svg"
   xmlns:sodipodi="http://sodipodi.sourceforge.net/DTD/sodipodi-0.dtd"
   xmlns:inkscape="http://www.inkscape.org/namespaces/inkscape"
   width="210mm"
   height="240.31981mm"
   viewBox="0 0 210 240.3198"
   version="1.1"
   id="svg8"
   inkscape:version="0.92.3 (2405546, 2018-03-11)"
   sodipodi:docname="church.svg">
  <defs
     id="defs2" />
  <sodipodi:namedview
     id="base"
     pagecolor="#ffffff"
     bordercolor="#666666"
     borderopacity="1.0"
     inkscape:pageopacity="0.0"
     inkscape:pageshadow="2"
     inkscape:zoom="0.7"
     inkscape:cx="407.56693"
     inkscape:cy="482.33821"
     inkscape:document-units="mm"
     inkscape:current-layer="g21"
     showgrid="false"
     inkscape:window-width="1920"
     inkscape:window-height="1017"
     inkscape:window-x="-8"
     inkscape:window-y="-8"
     inkscape:window-maximized="1"
     fit-margin-top="0"
     fit-margin-left="0"
     fit-margin-right="0"
     fit-margin-bottom="0" />
  <metadata
     id="metadata5">
    <rdf:RDF>
      <cc:Work
         rdf:about="">
        <dc:format>image/svg+xml</dc:format>
        <dc:type
           rdf:resource="http://purl.org/dc/dcmitype/StillImage" />
        <dc:title></dc:title>
      </cc:Work>
    </rdf:RDF>
  </metadata>
  <g
     inkscape:label="Layer 1"
     inkscape:groupmode="layer"
     id="layer1"
     transform="translate(-1.4980828e-5,-46.714348)">
    <g
       id="g21"
       transform="translate(118.89756,67.317726)"
       style="fill:#000000">
      <path
         style="fill:#000000;stroke-width:0.50301492"
         d="m 18.488059,219.29403 c -0.06597,-0.0654 -30.699152,-0.13137 -68.07375,-0.14677 l -67.953809,-0.0281 -0.81948,-1.25067 c -0.93704,-1.43011 -0.68706,-2.09643 1.03174,-2.74991 0.66476,-0.25274 1.20866,-0.78015 1.20866,-1.17197 0,-0.39185 0.5659,-0.85448 1.25754,-1.02807 0.7525,-0.18879 1.25754,-0.67541 1.25754,-1.21146 0,-1.13767 0.95375,-2.10308 2.07768,-2.10308 0.51971,0 0.93521,-0.45603 1.03118,-1.1318 0.13361,-0.94085 0.52139,-1.15786 2.29855,-1.28646 l 2.13782,-0.15475 v -28.08124 c 0,-27.65821 -0.0152,-28.08521 -1.00603,-28.34434 -0.95785,-0.25047 -1.00603,-0.6861 -1.00603,-9.09523 0,-8.31735 0.0586,-8.86353 1.00603,-9.37057 0.90739,-0.48561 1.00603,-1.05322 1.00603,-5.78922 0,-5.15037 1.5445,-13.32608 2.59653,-13.74452 0.23186,-0.0922 0.42084,-0.54493 0.41996,-1.00604 -0.002,-1.04715 1.91187,-7.86523 2.7769,-9.89263 0.354128,-0.82997 1.041019,-3.206721 1.526424,-5.281645 0.485406,-2.074944 1.053995,-3.998974 1.263533,-4.27563 0.209537,-0.276657 0.74854,-1.974335 1.197782,-3.772622 0.449244,-1.798268 1.02461,-3.722298 1.278592,-4.27563 0.253981,-0.553313 0.947117,-2.930047 1.540303,-5.281647 0.593185,-2.351601 1.452784,-5.067881 1.910222,-6.03618 0.683052,-1.445888 0.858767,-3.846215 0.983122,-13.429785 l 0.151408,-11.669226 -2.917999,-0.151617 -2.918,-0.151617 -0.156123,-1.886307 c -0.132701,-1.60339 -0.0051,-1.886305 0.85059,-1.886305 0.55369,0 1.146604,-0.226358 1.317589,-0.503017 0.17099,-0.276658 1.077367,-0.503014 2.014184,-0.503014 1.675153,0 1.70584,-0.03949 1.856621,-2.389321 0.151826,-2.366106 0.170419,-2.389321 1.913866,-2.389321 1.713976,0 1.767207,0.05989 2.012059,2.263567 0.226213,2.035918 0.403276,2.293592 1.760553,2.562087 3.30005,0.652812 3.772612,0.992941 3.772612,2.71536 0,1.433276 -0.197312,1.678471 -1.571922,1.953394 -0.864558,0.17291 -2.130385,0.314383 -2.812955,0.314383 h -1.24103 l 0.17213,11.995728 c 0.116618,8.127967 0.360357,12.223158 0.755924,12.701129 0.321089,0.387969 0.947549,2.516241 1.392133,4.729513 0.444586,2.213272 1.02073,4.476829 1.280322,5.030143 0.259592,0.553313 0.945633,3.259593 1.524536,6.013954 0.5789,2.754361 1.242276,5.24429 1.474166,5.533171 0.23189,0.288881 0.942876,3.241514 1.579965,6.561415 0.637094,3.3199 1.31792,6.14935 1.512948,6.28768 0.195029,0.1384 0.834894,2.51509 1.421917,5.28168 0.587028,2.76658 1.271115,5.48286 1.520193,6.03618 0.764038,1.69727 1.542933,5.61866 1.542933,7.76796 0,2.01154 0.02705,2.04175 1.886305,2.10496 6.920952,0.23527 22.384843,0.31405 75.3226263,0.38371 46.0294617,0.0607 60.1798797,0.22126 61.2617797,0.69573 0.829694,0.36386 1.518008,1.13288 1.677786,1.87451 0.149012,0.69166 0.458202,1.71026 0.687088,2.26357 0.228892,0.55332 0.67724,3.04324 0.996333,5.53315 0.319086,2.48993 0.711514,5.54576 0.872055,6.79072 0.160534,1.24495 0.441613,2.37675 0.624605,2.51508 0.18299,0.1384 0.66088,2.40188 1.06197,5.03014 0.58977,3.86468 0.70375,10.72445 0.5959,35.86593 l -0.13337,31.08727 -26.944413,-0.1519 c -14.819422,-0.0835 -26.998381,-0.20529 -27.064339,-0.27059 z M 31.01329,199.29217 v -19.11458 h 4.02412 c 3.690695,0 4.065261,0.0937 4.520659,1.13178 0.273098,0.6225 0.669221,1.1318 0.880277,1.1318 0.211055,0 0.383735,7.8772 0.383735,17.50492 0,12.94425 0.157264,17.66218 0.603618,18.10854 0.441044,0.44103 4.437708,0.60362 14.83894,0.60362 h 14.235324 v -28.67186 c 0,-15.76952 -0.0566,-28.68569 -0.125762,-28.70257 -0.06916,-0.0171 -31.645927,-0.15951 -70.17058268,-0.31694 l -70.04482732,-0.28622 -0.08894,11.76053 c -0.0489,6.46829 -0.105495,19.34347 -0.125762,28.61153 l -0.03683,16.85099 14.964694,0.13327 14.964694,0.13328 0.04224,-6.92395 c 0.143575,-23.53269 0.392085,-30.96702 1.049099,-31.38353 1.062353,-0.67347 4.360068,-0.50776 5.916914,0.29732 0.81508,0.42149 1.573572,1.32842 1.77191,2.11865 0.190729,0.75994 0.311975,6.59651 0.269435,12.97019 -0.04255,6.37369 -0.0589,14.13502 -0.03631,17.24742 l 0.04097,5.65892 H -18.5953 c 9.8335933,0 12.6333603,-0.14411 13.0721053,-0.67275 0.381361,-0.45951 0.600171,-6.55784 0.690357,-19.24032 l 0.132035,-18.56757 2.718218,-0.15475 c 3.427221,-0.19508 5.34815,0.59122 6.355966,2.60173 0.667917,1.33245 0.779606,3.76219 0.719925,15.66154 -0.104032,20.74126 -0.14831,19.84162 0.997397,20.26255 0.540494,0.19858 6.3691797,0.36105 12.9526347,0.36105 h 11.969918 z m 15.945574,0.65392 c -0.439299,-0.4393 -0.603618,-4.25496 -0.603618,-14.01658 0,-12.84873 0.04426,-13.46925 1.052503,-14.75101 1.366229,-1.73688 4.316024,-2.96881 6.21492,-2.59556 2.146817,0.42198 3.630335,1.53882 5.066946,3.81456 l 1.264593,2.00325 -0.134545,12.44571 -0.134526,12.44571 -2.389321,0.15323 c -1.314126,0.0844 -2.389774,0.31069 -2.390327,0.50301 -0.0015,0.58309 -3.610616,0.64928 -4.297961,0.0789 -0.446742,-0.37075 -0.740623,-0.37229 -0.967595,-0.006 -0.439141,0.71054 -1.936908,0.668 -2.681073,-0.0762 z M -61.22802,198.86376 c -0.674318,-0.8125 -0.686697,-25.48648 -0.01407,-28.0924 0.624578,-2.41987 2.787342,-3.97726 5.576711,-4.01574 1.876894,-0.0258 2.356846,0.2308 4.324011,2.31284 l 2.212774,2.34198 -0.17023,13.52209 c -0.09363,7.43714 -0.312896,13.66455 -0.487246,13.83868 -0.174355,0.17415 -2.701356,0.40928 -5.615563,0.52255 -3.86887,0.15039 -5.440966,0.0344 -5.826356,-0.43 z m 35.88546,0.14753 c -0.613069,-0.99197 -0.291653,-26.14614 0.35702,-27.94 0.783974,-2.16804 3.564369,-3.46739 6.559939,-3.0656 1.619316,0.21721 2.563277,0.73467 3.798069,2.08205 l 1.643179,1.79303 -0.133823,13.70573 -0.133841,13.70572 -5.871085,0.14145 c -3.934723,0.0947 -5.985977,-0.0445 -6.219452,-0.4223 z m 35.480731,-13.34461 v -13.90713 l 1.95288,-1.95287 c 1.718621,-1.71863 2.238613,-1.95289 4.334807,-1.95289 2.082416,0 2.61948,0.23755 4.271159,1.88924 2.379181,2.37918 2.574013,3.90192 2.397057,18.73438 l -0.129032,10.81481 -6.413441,0.14069 -6.413439,0.14069 z m 26.65979,20.16473 c 0.138328,-6.91645 0.181618,-15.34824 0.09618,-18.73731 l -0.155325,-6.16192 h -1.549768 c -2.659163,0 -2.884514,0.82218 -2.902215,10.58847 -0.01103,6.13072 0.165325,9.00923 0.577456,9.42136 0.455932,0.45592 0.438357,0.88324 -0.07582,1.84399 -0.542931,1.01448 -0.548372,1.39625 -0.02888,2.02225 0.518714,0.625 0.518056,0.91911 -0.0036,1.5475 -0.487708,0.58765 -0.502648,0.91708 -0.0616,1.35813 0.360462,0.36046 0.5823,2.42837 0.5823,5.42802 0,2.66514 0.161295,5.00701 0.358439,5.20414 0.197137,0.19715 0.932796,0.29146 1.634799,0.2096 l 1.276446,-0.14886 z M -111.3277,217.14926 c 1.48224,0 2.83487,0.22635 3.00586,0.50301 0.45434,0.73514 1.25754,0.61428 1.25754,-0.18917 0,-0.77369 -4.05756,-1.29009 -7.22841,-0.91989 -1.67674,0.19574 -1.77256,0.28321 -0.9636,0.87959 0.49406,0.36422 0.97374,0.45169 1.06596,0.19437 0.0922,-0.25732 1.38041,-0.46786 2.86265,-0.46786 z m 33.689769,0 c 0,-0.64624 -1.750553,-0.77387 -12.198113,-0.88923 -11.977906,-0.13232 -12.198116,-0.11616 -12.198116,0.88923 0,1.00543 0.22021,1.02147 12.198116,0.88921 10.44756,-0.1154 12.198113,-0.24299 12.198113,-0.88921 z m 3.146438,-47.05965 -0.128347,-47.25566 -14.274814,-0.13365 c -10.111884,-0.0947 -14.476006,0.0333 -14.964696,0.43884 -0.57529,0.47746 -0.68988,8.21573 -0.68988,46.59065 0,41.75582 0.0737,45.98982 0.79566,45.71276 0.43762,-0.16787 1.10095,-0.30533 1.47406,-0.30533 0.37312,0 0.75073,-0.5093 0.83914,-1.13178 0.1174,-0.82662 0.4998,-1.13366 1.41828,-1.13875 0.982841,-0.006 1.291304,-0.2973 1.412136,-1.336 0.105305,-0.90522 0.530562,-1.42338 1.333564,-1.62492 1.010582,-0.25366 1.226892,-0.70942 1.514543,-3.19114 0.184564,-1.59239 0.269348,-5.04563 0.188405,-7.67387 -0.134564,-4.36932 -0.04143,-4.93661 1.087344,-6.62261 2.1185,-3.16435 7.117616,-3.85293 9.381139,-1.29218 2.453773,2.77598 2.688389,3.61621 2.688389,9.62794 0,3.30587 0.214953,5.90553 0.503014,6.08358 0.276659,0.17091 0.503017,0.88461 0.503017,1.58581 0,0.85191 0.333809,1.36224 1.006028,1.53804 0.655655,0.17148 1.006031,0.68611 1.006031,1.47773 0,0.66807 0.339535,1.34496 0.754522,1.5042 0.414987,0.15931 0.754522,0.56403 0.754522,0.89953 0,0.3355 0.565892,1.10203 1.257537,1.7034 0.691646,0.60139 1.257539,1.47973 1.257539,1.95188 0,0.57524 0.166807,0.69164 0.505609,0.35284 0.333463,-0.33346 0.461909,-16.59489 0.377262,-47.76127 z m -17.679082,-19.69872 c -0.523182,-0.13404 -1.565546,-0.61731 -2.316363,-1.07391 -4.823116,-2.93311 -5.952512,-9.0817 -2.47251,-13.4607 2.703503,-3.40193 7.145368,-4.28386 11.618126,-2.30681 3.169159,1.40083 4.040329,2.8822 4.291379,7.2972 0.241924,4.25453 -0.539689,5.91679 -3.940532,8.38036 -2.069124,1.49886 -4.39862,1.87647 -7.1801,1.16386 z m 0.699732,-2.15468 c 0,-0.27666 -0.226355,-0.50301 -0.503014,-0.50301 -0.276658,0 -0.503016,0.22635 -0.503016,0.50301 0,0.27665 0.226358,0.50301 0.503016,0.50301 0.276659,0 0.503014,-0.22636 0.503014,-0.50301 z m 6.423921,-0.40869 c 0.109507,-0.32854 -0.159298,-0.59735 -0.597331,-0.59735 -0.438042,0 -0.796441,0.35841 -0.796441,0.79645 0,0.88828 1.082872,0.73358 1.393772,-0.1991 z m -2.705125,-0.38699 c 0.16793,-0.4376 0.305325,-1.20478 0.305325,-1.7048 0,-1.06834 -1.781322,-3.4277 -2.24178,-2.96925 -0.501863,0.49966 -0.930756,3.83869 -0.602841,4.69324 0.38936,1.01465 2.147677,1.00138 2.539296,-0.0192 z m -5.21539,-0.99763 c 0.657446,-1.7292 0.617867,-2.2481 -0.149031,-1.9538 -0.897197,0.34428 -1.969496,2.18202 -1.611333,2.76155 0.526822,0.8524 1.256455,0.51763 1.760357,-0.80775 z m -1.228848,-4.24287 c 0.392361,0 0.713383,-0.22635 0.713383,-0.50301 0,-0.27666 -0.679071,-0.50303 -1.509044,-0.50303 -1.050683,0 -1.509045,0.24554 -1.509045,0.80836 0,0.53042 0.27354,0.70337 0.795661,0.503 0.437617,-0.16787 1.116686,-0.30532 1.509045,-0.30532 z m 11.22424,0.043 c 1.123537,-0.71142 0.247272,-2.05512 -1.340199,-2.05512 -2.337188,0 -3.561197,1.76301 -1.49968,2.16008 1.890663,0.36415 2.111927,0.35597 2.839879,-0.10494 z m -11.182926,-3.25768 c 0.04534,-0.0302 -0.366501,-0.60878 -0.915225,-1.28565 -0.82263,-1.01475 -1.078457,-1.103 -1.458045,-0.50301 -0.253198,0.40021 -0.463827,1.12809 -0.468063,1.6175 -0.0063,0.71676 0.261392,0.82532 1.375589,0.55801 0.76081,-0.18251 1.420396,-0.3566 1.465744,-0.38685 z m 2.888813,-0.43224 c -0.612848,-1.07726 -1.851786,-2.38932 -2.256151,-2.38932 -0.212576,0 -0.04774,0.67907 0.36631,1.50904 0.414045,0.82997 1.089126,1.50905 1.500178,1.50905 0.453325,0 0.606633,-0.24738 0.389663,-0.62877 z m 6.837525,-0.33613 c 0,-0.25403 0.137397,-0.81991 0.305324,-1.25752 0.215392,-0.56132 0.01046,-0.79567 -0.695856,-0.79567 -0.95026,0 -1.844099,1.62182 -1.231476,2.23445 0.452617,0.45261 1.622008,0.32194 1.622008,-0.18118 z m -3.756541,-1.60081 c 0.414239,-1.30515 -0.507325,-2.4259 -1.323576,-1.60966 -0.59499,0.59499 -0.165401,2.66632 0.552983,2.66632 0.239371,0 0.586138,-0.4755 0.770593,-1.05666 z m -3.515159,-2.42883 c -0.494581,-0.80023 -1.291186,-0.14829 -0.939287,0.76883 0.19354,0.50436 0.467341,0.60121 0.789329,0.27923 0.271149,-0.27115 0.338629,-0.74277 0.149963,-1.04806 z m 56.466559,83.36425 c 0.446924,-0.44692 0.603618,-5.26301 0.603618,-18.55287 0,-17.17568 -0.04095,-17.95999 -0.950346,-18.1978 -1.61754,-0.42299 -2.073151,0.33228 -2.162804,3.5853 -0.04759,1.72585 -0.282981,3.25935 -0.523151,3.40779 -0.241276,0.14905 -0.224091,0.53118 0.03838,0.85387 0.599972,0.73751 0.615348,5.78429 0.01882,6.15302 -0.629367,0.38896 -0.573471,20.70046 0.05804,21.09075 0.276659,0.17092 0.503014,0.75024 0.503014,1.28722 0,1.1059 1.456455,1.33075 2.414472,0.37272 z m 36.02389032,0.16902 C 1.0382293,217.31916 1.3313913,190.41141 1.1594153,183.82445 l -0.07551,-2.89233 h -2.263572 -2.263567 v 18.2762 c 0,10.05192 0.150895,18.42711 0.335346,18.61154 0.489267,0.48929 3.58296002,0.4105 3.89800202,-0.0992 z M -79.983079,214.88335 c 0.71899,-0.71898 -1.27728,-0.94225 -9.981375,-1.11636 -8.311315,-0.16635 -9.554627,-0.0913 -9.554627,0.57605 0,0.64661 1.166131,0.78908 7.41947,0.9064 7.938156,0.14886 11.715659,0.0348 12.116532,-0.36609 z m -27.081221,-0.24924 c 0,-0.28375 -1.42521,-0.50301 -3.2696,-0.50301 -1.84439,0 -3.2696,0.21926 -3.2696,0.50301 0,0.28375 1.42521,0.50301 3.2696,0.50301 1.84439,0 3.2696,-0.21926 3.2696,-0.50301 z m 0.12372,-2.07827 c 0.95485,-0.51101 0.98089,-0.62972 0.25465,-1.16077 -1.04528,-0.76432 -4.40249,-0.38875 -4.40249,0.49251 0,0.5717 0.5584,0.81583 2.6739,1.16899 0.22568,0.0376 0.88896,-0.18765 1.47394,-0.50073 z m 25.278534,-0.68831 c 0,-0.95427 -0.381743,-1.01319 -7.41947,-1.14522 -7.092615,-0.13308 -7.41947,-0.0956 -7.41947,0.85134 0,1.15096 1.095195,1.29991 9.557284,1.29991 4.946313,0 5.281656,-0.0639 5.281656,-1.00603 z m -1.865978,-3.19918 c -0.131883,-0.68905 -1.006176,-0.84854 -5.307883,-0.9683 -4.853462,-0.13517 -5.150005,-0.0857 -5.150005,0.85731 0,0.88531 0.391281,1.01779 3.395352,1.14937 5.258747,0.23036 7.249341,-0.0624 7.062536,-1.03838 z m -23.536276,0.43259 c 0,-0.27666 -0.0998,-0.50301 -0.22182,-0.50301 -0.122,0 -0.36172,0.22635 -0.5327,0.50301 -0.17099,0.27666 -0.0712,0.50303 0.22182,0.50303 0.29299,0 0.5327,-0.22637 0.5327,-0.50303 z M 28.444405,158.00375 c 0.167929,-0.43761 0.305324,-1.24488 0.305324,-1.79395 0,-0.79166 -0.285436,-0.96535 -1.378991,-0.83913 -1.535885,0.17718 -2.092149,1.52224 -1.116029,2.69841 0.796158,0.9593 1.808093,0.92913 2.189696,-0.0654 z m 8.856578,-1.56448 c 0,-0.98735 -0.222937,-1.19912 -1.126644,-1.07018 -1.296626,0.18498 -1.755235,1.62775 -0.860215,2.70618 0.823029,0.99169 1.986859,0.0335 1.986859,-1.636 z m 4.194072,1.62762 c 1.319943,-1.00022 0.87241,-2.50284 -0.803023,-2.69622 -1.093554,-0.12624 -1.37899,0.0475 -1.37899,0.83913 0,1.22515 0.497271,2.59523 0.934095,2.57364 0.177891,-0.01 0.739455,-0.33126 1.247918,-0.71655 z m 4.256579,0.1289 c 0.33199,-0.332 0.603618,-1.13999 0.603618,-1.79553 0,-0.93383 -0.233953,-1.15712 -1.080412,-1.03119 -1.532953,0.22806 -2.310187,1.62087 -1.469658,2.63366 0.792534,0.95493 1.149197,0.99031 1.946452,0.19306 z m 12.37065,-0.19206 c 0.590308,-1.5383 0.339787,-2.80597 -0.521037,-2.63656 -1.329011,0.26156 -1.995918,1.70146 -1.220692,2.63556 0.837671,1.00932 1.354689,1.00963 1.741729,10e-4 z m 5.018862,-0.32388 c 0.635641,-1.00771 -0.384131,-2.40154 -1.757036,-2.40154 -1.096436,0 -1.318397,1.9399 -0.334536,2.92377 0.733703,0.7337 1.405094,0.56607 2.091572,-0.52223 z m 7.107314,-0.68291 c 0,-1.64008 -1.070099,-1.98919 -1.928065,-0.62902 -0.384806,0.61004 -0.344964,1.05948 0.146427,1.65156 0.962403,1.15963 1.781642,0.68943 1.781644,-1.02254 z m -19.114568,-0.25151 c 0,-1.01411 -0.249011,-1.21562 -1.502153,-1.21562 -1.919178,0 -2.385925,1.54815 -0.673004,2.23229 1.628744,0.65052 2.175157,0.39511 2.175157,-1.01667 z m 3.593168,0.79003 c 0.441707,-1.15106 -0.784563,-2.41521 -1.647847,-1.69876 -0.859337,0.7132 -0.889265,1.79154 -0.05901,2.12656 1.083533,0.43721 1.405932,0.35641 1.706859,-0.4278 z m 11.456139,0.45561 c 0.981181,-0.37652 1.069651,-2.71276 0.102739,-2.71276 -0.993665,0 -1.985747,1.36317 -1.642696,2.25715 0.328343,0.85565 0.423836,0.88391 1.539965,0.45561 z M -70.02064,157.03245 c 0.294343,-0.76704 -0.601707,-2.25717 -1.357296,-2.25717 -0.563739,0 -1.113047,1.89017 -0.729608,2.51058 0.472754,0.76493 1.75592,0.60911 2.086904,-0.25341 z m 4.203565,-0.74812 c 0,-1.11781 -0.234742,-1.50905 -0.905427,-1.50905 -1.158882,0 -2.112663,0.95379 -2.112663,2.11266 0,0.67069 0.391234,0.90543 1.509045,0.90543 1.341374,0 1.509045,-0.16768 1.509045,-1.50904 z m 5.030148,0.79567 c 0,-1.47897 -0.650061,-2.30472 -1.814369,-2.30472 -1.002121,0 -1.20372,0.25274 -1.20372,1.50905 0,1.34138 0.167663,1.50904 1.509045,1.50904 0.967353,0 1.509044,-0.25607 1.509044,-0.71337 z m 5.533165,-0.23107 c 0,-2.42559 -3.656219,-2.83369 -3.931777,-0.43884 -0.150533,1.30836 -0.04835,1.38328 1.886307,1.38328 1.665662,0 2.04547,-0.17529 2.04547,-0.94444 z m 4.527135,-0.5646 c 0,-1.25357 -0.20246,-1.50905 -1.195949,-1.50905 -0.657769,0 -1.475337,0.33666 -1.816825,0.74813 -0.959933,1.15664 -0.230164,2.26996 1.487944,2.26996 1.35891,0 1.52483,-0.16426 1.52483,-1.50904 z m 5.281655,0 c 0,-1.05108 -0.268389,-1.28342 -1.634797,-1.41515 -1.529433,-0.14753 -1.634799,-0.0563 -1.634799,1.41515 0,1.47142 0.105362,1.56263 1.634799,1.41516 1.366408,-0.13175 1.634797,-0.36407 1.634797,-1.41516 z m 5.533164,0 c 0,-1.09005 -0.251221,-1.27832 -1.886305,-1.41365 -1.81012,-0.14981 -1.886307,-0.0928 -1.886307,1.41365 0,1.50638 0.07618,1.56347 1.886307,1.41366 1.635084,-0.13536 1.886305,-0.3236 1.886305,-1.41366 z m 5.281658,0 c 0,-1.31741 -0.178842,-1.50905 -1.408442,-1.50905 -1.617656,0 -2.615679,0.80611 -2.615679,2.11266 0,0.721 0.409864,0.90543 2.012061,0.90543 1.900279,0 2.01206,-0.0838 2.01206,-1.50904 z m 5.533164,0.60361 c 0,-2.01127 -3.047411,-2.96485 -3.938452,-1.23238 -0.750748,1.45971 -0.126408,2.13781 1.968308,2.13781 1.561831,0 1.970144,-0.18764 1.970144,-0.90543 z m 5.030149,-0.32241 c 0,-1.55774 -0.644664,-1.94955 -2.527349,-1.53604 -0.966452,0.21226 -1.496771,0.64133 -1.496771,1.21098 0,1.25792 0.445898,1.5529 2.347405,1.5529 1.44234,0 1.676715,-0.17167 1.676715,-1.22784 z m 4.778641,-0.2812 c 0,-0.98241 -0.288258,-1.29097 -1.317547,-1.41036 -1.007789,-0.11692 -1.386424,0.11065 -1.610532,0.96758 -0.402911,1.54073 0.02268,2.03654 1.592294,1.8549 1.048272,-0.12129 1.335785,-0.42525 1.335785,-1.41212 z m 5.784672,0.49222 c 0,-1.32292 -2.246097,-2.41587 -3.434414,-1.67117 -0.462668,0.28995 -0.913547,1.01335 -1.001951,1.60758 -0.144469,0.97104 0.07196,1.08041 2.137813,1.08041 1.971336,0 2.298552,-0.14468 2.298552,-1.01682 z m 5.3012433,0.48212 c 0.495143,-0.80117 -1.148387,-2.35259 -2.4240573,-2.28822 -0.826712,0.0416 -1.157962,0.4155 -1.275798,1.43964 -0.146864,1.27636 -0.0228,1.38328 1.605111,1.38328 0.9703513,0 1.9129913,-0.24061 2.0947443,-0.5347 z m 5.513577,-0.46455 c 0,-0.41126 -0.634215,-1.05172 -1.409373,-1.42322 -1.634017,-0.78317 -2.866253,-0.13537 -2.866253,1.50697 0,0.83404 0.305974,0.95122 2.137813,0.81867 1.486953,-0.1076 2.137813,-0.38232 2.137813,-0.90242 z m 4.275626,-0.25829 c 0,-1.06191 -0.234741,-1.25752 -1.50904198,-1.25752 -1.27430302,0 -1.50904502,0.19561 -1.50904502,1.25752 0,1.06193 0.234742,1.25754 1.50904502,1.25754 1.27430098,0 1.50904198,-0.19561 1.50904198,-1.25754 z m 4.436366,0.12567 c -0.10329,-0.72735 -0.565182,-1.18922 -1.292522,-1.29253 -0.921763,-0.13098 -1.131783,0.0791 -1.131783,1.13178 0,1.05268 0.239847,1.29253 1.292522,1.29253 1.052679,0 1.262693,-0.21003 1.131783,-1.13178 z m 4.0241197,0 c -0.1150957,-0.81037 -0.5535887,-1.17699 -1.5440297,-1.29095 -1.191059,-0.13707 -1.383291,0.0202 -1.383291,1.13178 0,1.10554 0.22175,1.29095 1.54403,1.29095 1.313498,0 1.5200297,-0.16902 1.3832907,-1.13178 z m 4.114889,-0.12567 c 0,-1.43857 -1.480288,-1.74985 -2.49679,-0.52504 -0.812314,0.97877 -0.240126,1.78258 1.26894,1.78258 0.974365,0 1.22785,-0.2596 1.22785,-1.25754 z m 5.295273,0.7325 c 0.496773,-0.80379 -0.747431,-1.99002 -2.087265,-1.99002 -0.940336,0 -1.195949,0.26877 -1.195949,1.25752 0,1.05632 0.236719,1.25754 1.479356,1.25754 0.813647,0 1.625383,-0.23626 1.803858,-0.52504 z m 4.674255,-0.60674 c -0.115096,-0.81037 -0.553587,-1.17699 -1.544029,-1.29094 -1.191059,-0.13708 -1.383291,0.0202 -1.383291,1.13178 0,1.10554 0.221749,1.29094 1.54403,1.29094 1.313497,0 1.520029,-0.16901 1.38329,-1.13178 z m 9.054269,0 c -0.103309,-0.72734 -0.565182,-1.18921 -1.292522,-1.29252 -0.921765,-0.13099 -1.131784,0.0791 -1.131784,1.13178 0,1.05267 0.239848,1.29252 1.292524,1.29252 1.052679,0 1.262692,-0.21002 1.131782,-1.13178 z m 3.821938,-2.54831 c 1.318744,-0.96429 0.828255,-2.57385 -0.843134,-2.76676 -1.222869,-0.14106 -1.37899,0.006 -1.37899,1.29946 0,2.189 0.64904,2.61756 2.222124,1.4673 z m 5.071592,-1.09855 c 0,-1.27229 -0.217016,-1.53401 -1.383291,-1.66821 -1.227613,-0.14125 -1.383291,0.006 -1.383291,1.29946 0,1.76546 0.388992,2.21814 1.739853,2.02478 0.772808,-0.11065 1.026729,-0.52018 1.026729,-1.65603 z m 21.294967,0.31411 c 0.216492,-1.52349 -0.539766,-2.26405 -1.878258,-1.83922 -0.678518,0.21535 -1.056664,0.75828 -1.056664,1.51709 0,2.04264 2.649119,2.33341 2.934922,0.32213 z m 3.511929,-0.19264 c 0.13694,-1.18646 -0.02108,-1.37901 -1.131783,-1.37901 -1.017076,0 -1.290948,0.249 -1.290948,1.1737 0,0.64554 0.158728,1.33245 0.352734,1.52644 0.745372,0.74539 1.917851,-0.004 2.069997,-1.32113 z m -132.703595,-0.33105 c 0,-0.80693 -0.282946,-1.56234 -0.628769,-1.67869 -1.227874,-0.41314 -2.389321,0.24801 -2.389321,1.36009 0,1.41633 0.381536,1.78572 1.84439,1.78572 0.961316,0 1.1737,-0.26548 1.1737,-1.46712 z m 4.937805,-0.16768 c 0.143005,-1.24291 0.0025,-1.38329 -1.38329,-1.38329 -1.280562,0 -1.542456,0.19928 -1.542456,1.1737 0,1.48258 0.44292,1.92551 1.739853,1.73985 0.699482,-0.10019 1.077459,-0.58786 1.185893,-1.53026 z m 5.533163,0 c 0.14753,-1.2822 0.02692,-1.38329 -1.650582,-1.38329 -1.14464,0 -1.916161,0.27731 -2.099288,0.75452 -0.535011,1.39421 0.188291,2.18201 1.923811,2.09532 1.419704,-0.0709 1.690497,-0.28839 1.826059,-1.46655 z m 4.61948,0.12566 c 0,-1.38927 -0.139736,-1.50904 -1.760553,-1.50904 -1.509045,0 -1.760553,0.16768 -1.760553,1.1737 0,1.52347 0.364671,1.84439 2.095898,1.84439 1.248221,0 1.425208,-0.18746 1.425208,-1.50905 z m 5.281655,0 c 0,-1.05109 -0.268389,-1.28341 -1.634797,-1.41516 -1.529433,-0.14753 -1.634799,-0.0563 -1.634799,1.41516 0,1.47142 0.105362,1.56262 1.634799,1.41517 1.366408,-0.13175 1.634797,-0.36407 1.634797,-1.41517 z m 5.692329,-0.12566 c 0.150534,-1.30836 0.04835,-1.38329 -1.886306,-1.38329 -1.946367,0 -2.045471,0.0745 -2.045471,1.53941 0,1.47129 0.08348,1.5325 1.886307,1.3833 1.637655,-0.13555 1.907287,-0.33846 2.04547,-1.53942 z m 5.122493,0.0954 c 0,-1.47129 -0.08348,-1.53251 -1.886305,-1.38331 -1.637657,0.13556 -1.907289,0.33847 -2.045471,1.53943 -0.150552,1.30836 -0.04835,1.38328 1.886306,1.38328 1.946366,0 2.04547,-0.0745 2.04547,-1.5394 z m 4.929547,0.93578 c 1.14909,-1.14909 0.690411,-2.28663 -1.031181,-2.55736 -1.988021,-0.31262 -3.136295,0.59389 -2.65863,2.09886 0.380536,1.19895 2.66543,1.48289 3.689811,0.4585 z m 5.633766,-0.90542 c 0,-1.39184 -0.137967,-1.50905 -1.776336,-1.50905 -1.114944,0 -1.884149,0.28094 -2.065879,0.75451 -0.545091,1.42049 0.224365,2.26358 2.065879,2.26358 1.638363,0 1.776336,-0.1173 1.776336,-1.50904 z m 4.778641,0 c 0,-1.68935 -2.499944,-2.13556 -3.007381,-0.53676 -0.461445,1.45387 0.117378,2.12873 1.671596,1.94888 1.048272,-0.12129 1.335785,-0.42525 1.335785,-1.41212 z m 5.784672,0 c 0,-1.45316 -0.08384,-1.50905 -2.263567,-1.50905 -2.17973,0 -2.263567,0.0559 -2.263567,1.50905 0,1.45315 0.08384,1.50904 2.263567,1.50904 2.17973,0 2.263567,-0.0559 2.263567,-1.50904 z m 5.0301493,0 c 0,-1.2607 -0.20019,-1.50905 -1.216396,-1.50905 -1.8338863,0 -2.8077243,0.51299 -2.8077243,1.47903 0,1.24354 0.450727,1.53906 2.347404,1.53906 1.5276733,0 1.6767163,-0.13422 1.6767163,-1.50904 z m 5.533165,1.01265 c 1.246626,-0.79471 -0.06205,-2.2454 -2.18876,-2.42632 -1.746,-0.14848 -1.83536,-0.0812 -1.83536,1.3833 0,1.403 0.144849,1.53873 1.634799,1.53171 0.899138,-0.004 1.974332,-0.22415 2.389321,-0.48869 z m 4.527132,-1.01265 c 0,-1.34139 -0.167663,-1.50905 -1.50904198,-1.50905 -1.34137602,0 -1.50904502,0.16768 -1.50904502,1.50905 0,1.34138 0.167663,1.50904 1.50904502,1.50904 1.34137398,0 1.50904198,-0.16768 1.50904198,-1.50904 z m 4.34769,0.74812 c 0.343051,-0.89398 -0.649031,-2.25717 -1.642696,-2.25717 -0.434584,0 -0.692933,0.56263 -0.692933,1.50905 0,1.18147 0.221809,1.50904 1.021814,1.50904 0.562004,0 1.153217,-0.34242 1.313815,-0.76092 z m 4.2035647,-0.74812 c 0,-1.34139 -0.1676627,-1.50905 -1.5090447,-1.50905 -1.341374,0 -1.509045,0.16768 -1.509045,1.50905 0,1.34138 0.167664,1.50904 1.509045,1.50904 1.341374,0 1.5090447,-0.16768 1.5090447,-1.50904 z m 4.02412,0 c 0,-1.5258 -0.573559,-1.83645 -2.222426,-1.20372 -0.801755,0.30766 -1.082111,1.75562 -0.46032,2.37742 0.184431,0.18441 0.863506,0.33534 1.509045,0.33534 0.968767,0 1.173701,-0.26348 1.173701,-1.50904 z m 5.281657,0 c 0,-1.0511 -0.268391,-1.28342 -1.634799,-1.41517 -1.529433,-0.14753 -1.634799,-0.0563 -1.634799,1.41517 0,1.47142 0.105362,1.56262 1.634799,1.41516 1.366408,-0.13175 1.634799,-0.36407 1.634799,-1.41516 z m 4.77864,0 c 0,-1.34139 -0.167663,-1.50905 -1.509044,-1.50905 -1.341374,0 -1.509045,0.16768 -1.509045,1.50905 0,1.34138 0.167663,1.50904 1.509045,1.50904 1.341375,0 1.509044,-0.16768 1.509044,-1.50904 z m 4.527135,0 c 0,-1.34485 -0.165914,-1.50905 -1.524828,-1.50905 -1.588325,0 -2.328593,0.92353 -1.814371,2.26356 0.16926,0.44109 0.922988,0.75453 1.814371,0.75453 1.358908,0 1.524828,-0.16426 1.524828,-1.50904 z m 4.527134,0 c 0,-1.27431 -0.195618,-1.50905 -1.257537,-1.50905 -1.06192,0 -1.257538,0.23474 -1.257538,1.50905 0,1.2743 0.195618,1.50904 1.257538,1.50904 1.061919,0 1.257537,-0.23474 1.257537,-1.50904 z m 13.078389,0 c 0,-1.27929 -0.193863,-1.50905 -1.273322,-1.50905 -1.348,0 -2.044419,1.00866 -1.562863,2.26356 0.159241,0.415 0.862529,0.75453 1.562863,0.75453 1.079459,0 1.273322,-0.22975 1.273322,-1.50904 z m 4.937806,0.12566 c -0.125097,-1.08731 -0.455773,-1.41743 -1.545318,-1.54273 -0.903949,-0.10399 -1.491369,0.11483 -1.688611,0.62877 -0.530933,1.38357 0.198841,2.29725 1.834852,2.29725 1.403145,0 1.542399,-0.13765 1.399077,-1.38329 z m 3.521103,0 c -0.114468,-0.99489 -0.441637,-1.3833 -1.165193,-1.3833 -0.723557,0 -1.050717,0.38841 -1.165194,1.3833 -0.137967,1.19908 0.01711,1.38329 1.165194,1.38329 1.147999,0 1.303164,-0.18423 1.165193,-1.38329 z m 3.955806,0.60843 c 0.09582,-0.28785 -0.154526,-0.96693 -0.55634,-1.50904 -0.687879,-0.92811 -0.781264,-0.93575 -1.598371,-0.13061 -0.729064,0.71833 -0.761478,0.98314 -0.202754,1.65636 0.710809,0.85647 2.070012,0.84687 2.357465,-0.0171 z m 11.45044,0.31723 c 0.426462,-0.69003 -0.239556,-2.05746 -1.002107,-2.05746 -0.883706,0 -1.392667,0.8715 -1.04226,1.78466 0.311451,0.81162 1.604697,0.98419 2.044367,0.2728 z m -140.061602,-1.30292 c 0,-1.00604 -0.251508,-1.25754 -1.257537,-1.25754 -1.006031,0 -1.257537,0.2515 -1.257537,1.25754 0,1.00601 0.251506,1.25754 1.257537,1.25754 1.006029,0 1.257537,-0.25153 1.257537,-1.25754 z m 56.337671,-3.83126 c 0,-1.38366 -0.104183,-1.45041 -2.263567,-1.45041 -2.086809,0 -2.263567,0.0994 -2.263567,1.27376 0,1.43168 1.425569,2.21996 3.349616,1.85214 0.910387,-0.17395 1.177518,-0.55413 1.177518,-1.67549 z m 19.6175813,-0.25445 c 0,-0.94035 -0.268775,-1.19596 -1.257537,-1.19596 -1.053936,0 -1.257537,0.23753 -1.257537,1.46714 0,0.80691 0.282946,1.56876 0.628769,1.693 0.955416,0.34324 1.886305,-0.62609 1.886305,-1.96418 z m 13.3298967,0.56459 c 0,-1.33482 -0.188728,-1.52724 -1.634799,-1.66665 -1.513929,-0.14601 -1.634799,-0.0468 -1.634799,1.34136 0,1.57726 0.598527,2.08749 2.263567,1.9297 0.761278,-0.0722 1.006031,-0.46248 1.006031,-1.60441 z m 3.805679,1.23986 c 0.557938,-0.29862 0.972961,-1.04959 0.972961,-1.76057 0,-1.04225 -0.240485,-1.23984 -1.509044,-1.23984 -1.321646,0 -1.509045,0.177 -1.509045,1.42522 0,2.08306 0.449394,2.42919 2.045128,1.57519 z m 5.480061,-0.20968 c 1.004757,-1.21066 0.159317,-2.79073 -1.493219,-2.79073 -1.735464,0 -2.14531,0.53474 -1.717203,2.24044 0.366004,1.45828 2.19647,1.77203 3.210422,0.55029 z m 3.943551,0.12681 c 0.33199,-0.332 0.603618,-1.12425 0.603618,-1.76057 0,-0.89872 -0.280668,-1.15693 -1.257537,-1.15693 -1.045481,0 -1.257538,0.24034 -1.257538,1.42522 0,2.06057 0.754287,2.64944 1.911457,1.49228 z m 4.607702,-0.12681 c 0.927419,-1.11746 0.165115,-2.79073 -1.2714,-2.79073 -0.941498,0 -1.223639,0.26677 -1.223639,1.15693 0,1.10513 0.824432,2.36419 1.548058,2.36419 0.187454,0 0.613594,-0.32868 0.946981,-0.73039 z m 4.446567,0.12681 c 0.33199,-0.332 0.603618,-1.12425 0.603618,-1.76057 0,-0.95012 -0.269733,-1.15693 -1.509045,-1.15693 -1.321648,0 -1.509045,0.177 -1.509045,1.42522 0,2.10021 1.116482,2.79026 2.414472,1.49228 z m 4.536596,-1.35827 c 0.14964,-1.52351 0.06582,-1.62186 -1.253236,-1.47022 -2.265132,0.2604 -2.3481,3.34807 -0.08565,3.18691 0.939351,-0.0669 1.211053,-0.41529 1.338876,-1.71669 z m 4.869782,0.20132 c 0,-1.25418 -0.222775,-1.53487 -1.319029,-1.662 -1.465948,-0.16996 -2.178589,0.90568 -1.667284,2.51664 0.219998,0.69315 0.683014,0.92081 1.646202,0.8094 1.119227,-0.12947 1.340111,-0.40373 1.340111,-1.66404 z m 3.521104,-0.0418 c 0,-1.12842 -0.230671,-1.46715 -0.999137,-1.46715 -1.185728,0 -1.610393,1.49213 -0.727455,2.556 0.912408,1.09938 1.726592,0.58594 1.726592,-1.08885 z m 3.968502,1.01149 c 0.430567,-1.12204 -0.60838,-2.82134 -1.607344,-2.62896 -1.054208,0.20302 -1.38239,1.72342 -0.580549,2.68957 0.794807,0.95769 1.807906,0.92963 2.187893,-0.0607 z m 4.582753,-0.96961 c 0,-1.27229 -0.217016,-1.53401 -1.383291,-1.66819 -1.227612,-0.14126 -1.383291,0.006 -1.383291,1.29944 0,1.76546 0.388993,2.21814 1.739853,2.02477 0.772808,-0.11064 1.026729,-0.52017 1.026729,-1.65602 z m 3.689444,0.27985 c 0.207907,-1.42075 -0.48118,-2.17831 -1.59327,-1.75156 -0.981171,0.37651 -1.101456,1.76221 -0.228731,2.63493 0.85101,0.85102 1.622972,0.47676 1.822001,-0.88337 z m 2.598243,-0.0283 c 0,-1.00604 -0.251508,-1.50904 -0.754522,-1.50904 -0.902606,0 -1.000417,1.56495 -0.150914,2.41447 0.847926,0.84791 0.905427,0.79042 0.905427,-0.90543 z m -139.938751,0.4024 c 1.083198,-1.08319 0.722645,-2.41447 -0.653919,-2.41447 -1.061921,0 -1.257537,0.23475 -1.257537,1.50904 0,1.58222 0.837807,1.97909 1.911456,0.90543 z m 4.627738,-0.90543 c 0,-1.34136 -0.167663,-1.50904 -1.509045,-1.50904 -1.245561,0 -1.509045,0.20494 -1.509045,1.1737 0,1.47575 0.368644,1.84439 1.84439,1.84439 0.968766,0 1.1737,-0.26348 1.1737,-1.50905 z m 5.030148,0.10057 c 0,-1.61765 -0.806097,-2.61567 -2.112662,-2.61567 -0.720986,0 -0.905427,0.40985 -0.905427,2.01206 0,1.90028 0.08384,2.01205 1.509045,2.01205 1.317421,0 1.509044,-0.1789 1.509044,-1.40844 z m 5.446022,-0.002 c 0.2127,-1.50045 -0.732752,-2.61316 -2.220318,-2.61316 -1.470563,0 -2.248472,1.36924 -1.661518,2.92452 0.355903,0.94307 0.750348,1.134 2.078372,1.00603 1.270339,-0.12243 1.676075,-0.4188 1.803464,-1.3174 z m 4.614278,-0.6011 c 0,-1.7642 -0.142511,-2.01206 -1.156935,-2.01206 -1.546087,0 -2.364171,0.90511 -2.364171,2.61567 0,1.27431 0.167663,1.40844 1.760553,1.40844 1.718636,0 1.760553,-0.0479 1.760553,-2.01205 z m 5.425669,0.503 c 0.09645,-0.84208 -0.207393,-1.47478 -0.919693,-1.91517 -1.410202,-0.87187 -2.493917,10e-4 -2.493917,2.00864 0,1.36598 0.125267,1.46725 1.634799,1.3217 1.318491,-0.12719 1.66266,-0.40094 1.778811,-1.41517 z m 5.632957,0.12567 c -0.01122,-2.02639 -0.659906,-2.74377 -2.310448,-2.55537 -1.281889,0.14639 -1.472989,0.38986 -1.610584,2.05236 l -0.156123,1.88629 h 2.042423 c 1.894624,0 2.041867,-0.1 2.034724,-1.38328 z m 4.952428,-0.0409 c 0.09974,-0.70419 -0.201652,-1.44334 -0.754523,-1.85038 -0.8684,-0.63934 -0.870683,-0.69713 -0.04034,-1.01904 0.562622,-0.2181 0.880277,-0.87733 0.880277,-1.82684 0,-1.40908 -0.09713,-1.47754 -1.886307,-1.32948 -1.637655,0.13555 -1.907286,0.33846 -2.04547,1.53942 -0.132606,1.15251 0.03289,1.38329 0.992197,1.38329 h 1.151367 l -1.117952,0.78305 c -1.076075,0.75371 -1.503596,2.68776 -0.758773,3.43258 0.197549,0.19755 1.046388,0.29186 1.886307,0.20958 1.161672,-0.11369 1.566866,-0.43019 1.693208,-1.32218 z m 5.520347,-0.14962 c 0.133461,-1.15138 -0.06146,-1.35494 -1.509045,-1.57589 -1.991882,-0.30403 -2.919849,0.32603 -2.919849,1.98253 0,1.12995 0.165667,1.21288 2.137813,1.0702 1.886668,-0.1365 2.155815,-0.31 2.291081,-1.47684 z m 5.128389,0.0646 c 0,-1.4252 -0.111788,-1.50905 -2.012059,-1.50905 -1.401587,0 -2.012061,0.21645 -2.012061,0.7134 0,1.66471 0.643508,2.30469 2.317385,2.30469 1.561027,0 1.706735,-0.12889 1.706735,-1.50904 z m 4.937806,0.12567 c -0.125097,-1.08729 -0.455773,-1.41741 -1.545317,-1.54274 -0.903948,-0.10399 -1.49137,0.11483 -1.688611,0.62877 -0.530933,1.38357 0.198842,2.29725 1.834852,2.29725 1.403144,0 1.5424,-0.13764 1.399076,-1.38328 z m 10.5633133,-0.25151 c 0.14753,-1.28222 0.02692,-1.3833 -1.6505843,-1.3833 -1.15141,0 -1.915973,0.27681 -2.101746,0.76094 -0.439077,1.14421 0.819304,2.32808 2.292571,2.15683 0.9984093,-0.11597 1.3375753,-0.47258 1.4597593,-1.53447 z m 5.804922,0.53246 c 0.670343,-1.07045 -1.033057,-3.27537 -1.87778,-2.43065 -0.283197,0.2832 -0.922343,0.51489 -1.420327,0.51489 -0.674655,0 -0.905427,0.39236 -0.905427,1.53943 0,1.46444 0.08935,1.5318 1.83536,1.38328 1.042046,-0.0886 2.065666,-0.52388 2.368174,-1.00695 z m 4.347718,-0.40671 c 0,-1.34137 -0.167663,-1.50905 -1.50904198,-1.50905 -1.34137602,0 -1.50904502,0.16768 -1.50904502,1.50905 0,1.34138 0.167663,1.50904 1.50904502,1.50904 1.34137398,0 1.50904198,-0.16768 1.50904198,-1.50904 z m 8.5512547,0 c 0,-1.34137 -0.1676627,-1.50905 -1.5090447,-1.50905 -1.341374,0 -1.509045,0.16768 -1.509045,1.50905 0,1.34138 0.167664,1.50904 1.509045,1.50904 1.341374,0 1.5090447,-0.16768 1.5090447,-1.50904 z m 4.02412,0 c 0,-1.27929 -0.193863,-1.50905 -1.273322,-1.50905 -0.700334,0 -1.404724,0.34242 -1.565323,0.76094 -0.37869,0.98685 0.687351,2.25715 1.894204,2.25715 0.714034,0 0.944441,-0.36814 0.944441,-1.50904 z m -28.797605,-2.83212 c 0.848381,-0.22734 1.131784,-0.67374 1.131784,-1.78261 0,-1.42927 -0.0723,-1.47406 -2.137813,-1.32461 -1.894913,0.13707 -2.155435,0.307 -2.292873,1.49543 -0.144583,1.25019 0.105001,1.493 1.915611,1.86361 0.138328,0.0283 0.76081,-0.085 1.383291,-0.25182 z m 15.7603573,-0.18594 c 0.254029,0 0.461873,-0.67905 0.461873,-1.50904 0,-1.34136 -0.167663,-1.50905 -1.50904198,-1.50905 -1.32164802,0 -1.50904502,0.177 -1.50904502,1.42523 0,1.6645 0.427074,2.23266 1.39815402,1.86001 0.382905,-0.14696 0.904029,-0.26715 1.15805998,-0.26715 z m 27.6246797,-1.5706 c 0,-1.40195 -0.118195,-1.49982 -1.634799,-1.35359 -1.357631,0.1308 -1.634799,0.36698 -1.634799,1.39249 0,0.8963 0.344758,1.32277 1.257539,1.55554 1.694681,0.43219 2.012059,0.18061 2.012059,-1.59444 z m 8.375948,1.54471 c 0.290898,-0.2909 0.420616,-1.09541 0.288258,-1.78779 -0.193953,-1.01459 -0.495862,-1.22922 -1.555791,-1.10589 -1.559441,0.18137 -1.956728,1.46023 -0.809924,2.60702 0.95361,0.95361 1.355106,1.00901 2.077457,0.28666 z m 5.205455,-0.97718 c 0,-1.15691 -1.290621,-2.20646 -2.257164,-1.83557 -0.716771,0.27506 -1.070562,2.36134 -0.497598,2.93431 0.603382,0.60337 2.754762,-0.2547 2.754762,-1.09874 z m 3.562245,1.00307 c 0.48621,0 0.650394,-2.15888 0.198545,-2.61072 -0.14483,-0.14487 -0.823903,-0.15609 -1.509044,-0.0251 -0.879361,0.16806 -1.245716,0.56605 -1.245716,1.35318 0,1.36983 0.480203,1.90213 1.398154,1.54989 0.382905,-0.14696 0.90403,-0.26716 1.158061,-0.26716 z m 5.492024,-1.04542 c 0,-0.87418 -1.352145,-1.97267 -2.428189,-1.97267 -0.669735,0 -1.170677,1.47764 -0.846846,2.49796 0.388372,1.22364 3.275035,0.76067 3.275035,-0.52529 z m 7.299934,-0.92448 c -0.88987,-0.88988 -2.406424,-0.26578 -2.675763,1.10113 -0.212122,1.07655 1.464774,1.36249 2.55945,0.43643 0.8092,-0.68457 0.820462,-0.83341 0.116313,-1.53756 z m 4.592979,1.71199 c 0.37869,-0.98685 -0.68735,-2.25715 -1.894204,-2.25715 -1.258071,0 -1.314383,2.34462 -0.06416,2.67134 1.516364,0.39628 1.658938,0.36612 1.958368,-0.41419 z m 3.608206,-0.87816 c 0.128765,-1.11566 -0.04234,-1.37899 -0.89606,-1.37899 -1.17045,0 -1.797373,1.08408 -1.3305,2.30075 0.487773,1.27111 2.04801,0.62519 2.22656,-0.92176 z m -136.979223,-0.37297 c 0,-0.92113 -0.302754,-1.30053 -1.131783,-1.41827 -0.967473,-0.13745 -1.131783,0.0684 -1.131783,1.41827 0,1.34978 0.164317,1.55568 1.131783,1.41828 0.829029,-0.11768 1.131783,-0.49713 1.131783,-1.41828 z m 4.275628,0 c 0,-1.34136 -0.167663,-1.50905 -1.509045,-1.50905 -1.245561,0 -1.509045,0.20495 -1.509045,1.1737 0,1.47576 0.368644,1.84439 1.84439,1.84439 0.968766,0 1.1737,-0.26348 1.1737,-1.50904 z m 5.030148,0 c 0,-1.34136 -0.167663,-1.50905 -1.509044,-1.50905 -1.341374,0 -1.509045,0.16769 -1.509045,1.50905 0,1.34138 0.167663,1.50904 1.509045,1.50904 1.341374,0 1.509044,-0.16768 1.509044,-1.50904 z m 5.533165,0 c 0,-1.38635 -0.141693,-1.50905 -1.742857,-1.50905 -1.152045,0 -1.896326,0.29841 -2.195595,0.88028 -0.750748,1.45971 -0.126408,2.13781 1.968308,2.13781 1.853706,0 1.970144,-0.0892 1.970144,-1.50904 z m 4.527135,0 c 0,-1.38927 -0.139736,-1.50905 -1.760553,-1.50905 -1.620826,0 -1.760553,0.11978 -1.760553,1.50905 0,1.38929 0.139735,1.50904 1.760553,1.50904 1.620825,0 1.760553,-0.11977 1.760553,-1.50904 z m 5.281655,0 c 0,-1.04024 -0.271391,-1.28395 -1.570588,-1.41038 -1.668069,-0.16235 -2.430911,0.73163 -1.870521,2.19198 0.202504,0.52773 0.81011,0.73197 1.870521,0.62877 1.299197,-0.12642 1.570588,-0.37013 1.570588,-1.41037 z m 5.692329,0.12567 c -0.138176,-1.20095 -0.407815,-1.40388 -2.04547,-1.53941 -1.80283,-0.14924 -1.886307,-0.088 -1.886307,1.38328 0,1.46483 0.09911,1.53941 2.045471,1.53941 1.934666,0 2.036848,-0.0749 1.886306,-1.38328 z m 10.563312,0 c -0.138252,-1.20158 -0.407507,-1.40384 -2.049513,-1.53966 -1.352874,-0.11198 -1.976008,0.0669 -2.191632,0.62877 -0.586364,1.52804 0.194748,2.29417 2.339055,2.29417 1.951884,0 2.052814,-0.0734 1.90209,-1.38328 z m 5.122494,-0.12567 c 0,-1.39182 -0.137967,-1.50905 -1.776336,-1.50905 -1.114944,0 -1.884149,0.28096 -2.065879,0.75454 -0.545091,1.42047 0.224365,2.26355 2.065879,2.26355 1.638363,0 1.776336,-0.11711 1.776336,-1.50904 z m 4.937806,0.12567 c -0.134203,-1.16629 -0.395909,-1.38331 -1.66821,-1.38331 -1.272299,0 -1.534013,0.21702 -1.668208,1.38331 -0.147777,1.2844 -0.02852,1.38328 1.668208,1.38328 1.696746,0 1.815994,-0.0989 1.66821,-1.38328 z m 10.5633133,0 c -0.122188,-1.0619 -0.46135,-1.41842 -1.4597593,-1.53449 -1.473267,-0.17129 -2.731648,1.01264 -2.292571,2.15685 0.185781,0.48413 0.950336,0.76092 2.101746,0.76092 1.6775163,0 1.7981183,-0.10114 1.6505843,-1.38328 z m 6.128522,0.47785 c 0,-1.36288 -1.017534,-2.11266 -2.867185,-2.11266 -1.509045,0 -1.659949,0.13726 -1.659949,1.50904 0,1.45317 0.08384,1.50905 2.263567,1.50905 1.84439,0 2.263567,-0.16768 2.263567,-0.90543 z m 8.048239,0.15095 c 0.49959,-0.60196 0.49959,-0.90708 0,-1.50904 -1.04709,-1.26167 -2.01206,-0.8998 -2.01206,0.75451 0,1.65433 0.96497,2.0162 2.01206,0.75453 z m 4.4347907,-0.62877 c -0.1250197,-1.08649 -0.4559587,-1.41744 -1.5424557,-1.54244 -1.242909,-0.14297 -1.383291,-0.002 -1.383291,1.38328 0,1.38592 0.156542,1.54245 1.542456,1.54245 1.3859217,0 1.5263037,-0.14031 1.3832907,-1.38329 z m 4.540087,0.93999 c 0.563095,-0.35688 0.563884,-0.60603 0.0046,-1.50134 -0.780785,-1.25024 -2.053569,-1.39117 -2.938135,-0.32533 -1.343866,1.61926 0.978684,3.06556 2.933382,1.82667 z m 5.017196,-0.93999 c -0.132625,-1.15263 -0.431757,-1.40957 -1.793962,-1.5409 -1.522918,-0.14677 -1.634799,-0.0521 -1.634799,1.38328 0,1.43117 0.127777,1.54091 1.793962,1.54091 1.660297,0 1.782106,-0.10305 1.634799,-1.38329 z m 4.527134,0 c -0.126313,-1.09773 -0.41877,-1.3833 -1.416701,-1.3833 -0.997932,0 -1.290395,0.28557 -1.416702,1.3833 -0.143671,1.24855 -0.0057,1.38329 1.416702,1.38329 1.422371,0 1.560362,-0.1348 1.416701,-1.38329 z m 9.146612,0.43885 c 0,-1.13285 -1.25466,-2.29023 -1.990028,-1.83576 -0.288775,0.17852 -0.525047,0.87704 -0.525047,1.55235 0,0.97436 0.259616,1.22785 1.257538,1.22785 0.894859,0 1.257537,-0.27238 1.257537,-0.94444 z m 21.629641,-0.34809 c 0,-1.05267 -0.210019,-1.26269 -1.131782,-1.13177 -0.72734,0.10323 -1.189224,0.56517 -1.292522,1.29252 -0.130914,0.92176 0.07911,1.13178 1.131783,1.13178 1.052673,0 1.292521,-0.23985 1.292521,-1.29253 z m -105.633131,-4.33118 c 0,-1.36925 -0.124602,-1.47022 -1.634799,-1.32461 -1.348021,0.13004 -1.662003,0.39282 -1.789859,1.49838 -0.111484,0.96392 0.10059,1.39539 0.754522,1.53509 1.802072,0.385 2.670136,-0.17053 2.670136,-1.70886 z m 5.434924,0.15514 c -0.132777,-1.14541 -0.387718,-1.32216 -1.906929,-1.32216 -1.28808,0 -1.799909,0.24011 -1.927845,0.90443 -0.272505,1.415 0.725397,2.21873 2.44193,1.96681 1.327794,-0.19489 1.524469,-0.41362 1.392844,-1.54908 z m 5.379895,0.12947 c 0,-1.31431 -0.178404,-1.46637 -1.886305,-1.60772 -1.781121,-0.14734 -1.886307,-0.0749 -1.886307,1.29946 0,1.87114 0.306815,2.13926 2.20956,1.93097 1.348104,-0.14753 1.563052,-0.37074 1.563052,-1.62271 z m 4.176942,1.49387 c 0.894934,-0.2397 1.124047,-0.61042 1.006028,-1.62792 -0.130628,-1.12617 -0.426797,-1.34023 -2.039126,-1.47367 -1.781121,-0.14734 -1.886307,-0.0749 -1.886307,1.29946 0,2.13664 0.505501,2.44868 2.919405,1.80213 z m 6.286755,-0.73928 c 0.879568,-1.39688 0.05409,-2.45769 -1.912442,-2.45769 -2.304176,0 -2.917149,1.27235 -1.259605,2.61455 1.332994,1.07938 2.427711,1.02526 3.172047,-0.15685 z m 5.129766,-0.69714 c 0,-1.38815 -0.140496,-1.50905 -1.753661,-1.50905 -1.291813,0 -1.799802,0.23957 -1.928851,0.90965 -0.330707,1.71724 0.314908,2.43297 2.044253,2.26632 1.44986,-0.13974 1.638259,-0.33141 1.638259,-1.66692 z m 5.084339,0.46618 c 0.396038,-1.57794 -0.296124,-2.36827 -1.877343,-2.14357 -2.14668,0.30504 -1.883563,3.43794 0.288737,3.43794 0.938072,0 1.347461,-0.33356 1.588606,-1.29437 z m 5.478974,-0.4593 c 0,-1.63922 -0.895778,-2.09354 -3.057873,-1.55089 -2.455341,0.61624 -1.08198,3.45958 1.546353,3.20148 1.30945,-0.12852 1.51152,-0.34925 1.51152,-1.65059 z m 5.2816573,0.0434 c 0,-1.65442 -0.06162,-1.70783 -1.8863073,-1.6348 -1.579083,0.0631 -1.913955,0.27106 -2.056067,1.27617 -0.197418,1.39621 0.61478,2.05042 2.5590833,2.06123 1.239328,0.008 1.383291,-0.17034 1.383291,-1.7026 z m 5.429981,1.08011 c 0.720009,-0.86756 -0.607773,-2.61801 -2.055561,-2.70991 -1.571665,-0.0998 -2.266333,0.62913 -1.98788,2.08576 0.197217,1.03166 0.530994,1.25434 1.880103,1.25434 0.902178,0 1.875678,-0.28357 2.163338,-0.63019 z m 4.630316,-0.87885 c 0,-1.34138 -0.167663,-1.50905 -1.50904198,-1.50905 -1.34137602,0 -1.50904502,0.16769 -1.50904502,1.50905 0,1.34138 0.167663,1.50904 1.50904502,1.50904 1.34137398,0 1.50904198,-0.16768 1.50904198,-1.50904 z m 4.018803,0.76092 c 0.831565,-1.00197 0.281392,-2.26997 -0.984928,-2.26997 -0.800005,0 -1.021814,0.32757 -1.021814,1.50905 0,1.65106 0.964475,2.01679 2.006742,0.76092 z m 4.5324517,-0.76092 c 0,-1.34138 -0.1676627,-1.50905 -1.5090447,-1.50905 -1.245561,0 -1.509045,0.20493 -1.509045,1.1737 0,0.64554 0.150895,1.32462 0.335346,1.50905 0.184431,0.18441 0.863504,0.33534 1.509045,0.33534 0.968765,0 1.1736987,-0.26348 1.1736987,-1.50904 z m 4.206025,0.75451 c 0.504735,-1.31532 -0.226181,-2.26356 -1.744768,-2.26356 -1.203519,0 -1.455227,0.21027 -1.455227,1.21562 0,1.72291 2.612658,2.57853 3.199995,1.04794 z m 5.099752,-0.75451 c 0,-1.0511 -0.268391,-1.28342 -1.634799,-1.41517 -1.529433,-0.14753 -1.634799,-0.0563 -1.634799,1.41517 0,1.47142 0.105362,1.56262 1.634799,1.41516 1.366408,-0.13175 1.634799,-0.36407 1.634799,-1.41516 z m 4.77864,0 c 0,-1.34138 -0.167663,-1.50905 -1.509044,-1.50905 -1.341374,0 -1.509045,0.16769 -1.509045,1.50905 0,1.34138 0.167663,1.50904 1.509045,1.50904 1.341375,0 1.509044,-0.16768 1.509044,-1.50904 z m 4.527135,0 c 0,-1.34484 -0.165914,-1.50905 -1.524828,-1.50905 -1.588325,0 -2.328593,0.92353 -1.814371,2.26356 0.16926,0.44109 0.922988,0.75453 1.814371,0.75453 1.358908,0 1.524828,-0.16426 1.524828,-1.50904 z m 4.527134,0 c 0,-1.27431 -0.195618,-1.50905 -1.257537,-1.50905 -1.06192,0 -1.257538,0.23474 -1.257538,1.50905 0,1.27431 0.195618,1.50904 1.257538,1.50904 1.061919,0 1.257537,-0.23473 1.257537,-1.50904 z m 4.02412,0 c 0,-1.26458 -0.198918,-1.50905 -1.22785,-1.50905 -1.468084,0 -1.968852,0.65687 -1.537304,2.01656 0.202635,0.63845 0.761485,1.00153 1.541515,1.00153 1.024253,0 1.223639,-0.24589 1.223639,-1.50904 z m 5.030149,0 c 0,-1.34138 -0.167663,-1.50905 -1.509045,-1.50905 -1.341374,0 -1.509045,0.16769 -1.509045,1.50905 0,1.34138 0.167663,1.50904 1.509045,1.50904 1.341374,0 1.509045,-0.16768 1.509045,-1.50904 z m 4.02412,0 c 0,-1.27929 -0.193863,-1.50905 -1.273322,-1.50905 -1.348,0 -2.044419,1.00866 -1.562863,2.26356 0.159241,0.41501 0.862529,0.75453 1.562863,0.75453 1.079459,0 1.273322,-0.22975 1.273322,-1.50904 z m 4.937806,0.12567 c -0.125097,-1.08732 -0.455773,-1.41743 -1.545318,-1.54274 -0.903949,-0.10399 -1.491369,0.11483 -1.688611,0.62877 -0.530933,1.38357 0.198841,2.29725 1.834852,2.29725 1.403145,0 1.542399,-0.13765 1.399077,-1.38328 z m 3.613446,-0.16065 c 0,-1.31351 -0.168975,-1.52004 -1.131782,-1.3833 -0.810363,0.11502 -1.176985,0.55359 -1.290948,1.54404 -0.137054,1.19106 0.02023,1.38328 1.131783,1.38328 1.105541,0 1.290947,-0.22175 1.290947,-1.54402 z m 4.02412,0.78949 c 0.499591,-0.60196 0.499591,-0.90706 0,-1.50904 -0.344408,-0.41499 -0.910301,-0.75452 -1.257536,-0.75452 -0.347237,0 -0.913129,0.33953 -1.257539,0.75452 -0.499588,0.60198 -0.499588,0.90708 0,1.50904 0.34441,0.41501 0.910302,0.75453 1.257539,0.75453 0.347235,0 0.913128,-0.33952 1.257536,-0.75453 z m 4.434792,-0.62875 c -0.12502,-1.08651 -0.455959,-1.41745 -1.542456,-1.54247 -1.242909,-0.14296 -1.383291,-0.002 -1.383291,1.38331 0,1.3859 0.156542,1.54244 1.542456,1.54244 1.385922,0 1.526304,-0.1403 1.383291,-1.38328 z m 3.521104,0 c -0.114469,-0.9949 -0.441638,-1.3833 -1.165194,-1.3833 -0.723556,0 -1.050717,0.3884 -1.165194,1.3833 -0.137967,1.19908 0.0173,1.38328 1.165194,1.38328 1.148002,0 1.303166,-0.18422 1.165194,-1.38328 z m -137.044443,-0.23767 c 0.675442,-1.07259 -0.229838,-2.18411 -1.410011,-1.73123 -1.100813,0.42242 -1.065613,2.9775 0.03802,2.76029 0.4545,-0.0893 1.07189,-0.55253 1.371984,-1.02906 z m 4.340848,-0.42453 c 0,-1.3859 -0.140382,-1.52628 -1.383291,-1.38328 -1.086497,0.1251 -1.417441,0.45596 -1.542456,1.54245 -0.143005,1.24292 -0.0025,1.3833 1.383291,1.3833 1.385922,0 1.542456,-0.15646 1.542456,-1.54247 z m 5.030148,0.0335 c 0,-1.34138 -0.167663,-1.50904 -1.509044,-1.50904 -1.341374,0 -1.509045,0.16768 -1.509045,1.50904 0,1.34137 0.167663,1.50905 1.509045,1.50905 1.341374,0 1.509044,-0.16768 1.509044,-1.50905 z m 5.44082,0.12567 c -0.138252,-1.20155 -0.407505,-1.40383 -2.049514,-1.53963 -1.358684,-0.11236 -1.975771,0.0662 -2.194085,0.63515 -0.471929,1.22983 0.762954,2.28778 2.670396,2.28778 1.593103,0 1.719577,-0.11122 1.573203,-1.3833 z m 122.576478,-3.15073 c 0,-0.99041 -0.287836,-1.28376 -1.383291,-1.40981 -1.071799,-0.12338 -1.383291,0.0523 -1.383291,0.77967 0,0.51637 0.278233,1.21708 0.618301,1.55714 0.97177,0.97178 2.148281,0.46409 2.148281,-0.927 z m -133.138588,-0.91425 c 0.150192,-1.56163 0.07067,-1.65713 -1.253236,-1.50492 -1.580926,0.18175 -2.135505,1.51505 -1.132739,2.72331 1.022728,1.2323 2.208511,0.62678 2.385975,-1.21839 z m 4.788143,0.83381 c 0.747592,-1.18516 0.0251,-2.42774 -1.41162,-2.42774 -0.993339,0 -1.273322,0.25439 -1.273322,1.15693 0,2.14451 1.64324,2.92227 2.684942,1.27081 z m 5.398291,0.29667 c 0.938822,-1.1312 -0.03536,-2.47291 -1.795546,-2.47291 -1.76018,0 -2.73437,1.34171 -1.795547,2.47291 0.363653,0.43818 1.171651,0.79669 1.795547,0.79669 0.623894,0 1.431892,-0.35851 1.795546,-0.79669 z m 4.995156,-0.99573 c 0,-1.71836 -0.06738,-1.78591 -1.630679,-1.6348 -2.722388,0.26315 -2.321032,3.42722 0.43473,3.42722 1.035506,0 1.195949,-0.24046 1.195949,-1.79242 z m 5.149573,1.18264 c 0.46856,-1.40568 -0.24203,-2.91132 -1.374009,-2.91132 -1.477546,0 -2.298885,1.02512 -1.935296,2.4155 0.210966,0.80671 0.669875,1.1056 1.697585,1.1056 0.774654,0 1.499927,-0.2744 1.61172,-0.60978 z m 5.162232,-1.15077 c 0,-1.33485 -0.188728,-1.52724 -1.634799,-1.66667 -1.572851,-0.15172 -1.634799,-0.0884 -1.634799,1.66667 0,1.75517 0.06194,1.81832 1.634799,1.66667 1.446073,-0.13936 1.634799,-0.33183 1.634799,-1.66667 z m 5.533163,0 c 0,-1.38815 -0.140495,-1.50905 -1.753661,-1.50905 -1.291812,0 -1.799802,0.23957 -1.928849,0.90967 -0.330708,1.71722 0.314906,2.43297 2.044252,2.26631 1.449859,-0.13973 1.638258,-0.33143 1.638258,-1.66693 z m 5.533165,0 c 0,-1.38004 -0.145819,-1.50905 -1.705729,-1.50905 -2.077099,0 -3.117379,1.24931 -2.08056,2.4986 0.428022,0.51573 1.261174,0.7659 2.234402,0.67094 1.355325,-0.13232 1.551887,-0.34257 1.551887,-1.66049 z m 5.281657,-0.0319 c 0,-1.70848 -0.0742,-1.78504 -1.58407,-1.63481 -3.162127,0.31468 -3.038054,3.42724 0.136617,3.42724 1.323796,0 1.447457,-0.15304 1.447457,-1.79241 z m 4.370652,1.16364 c 0.700292,-0.93742 0.516746,-1.95956 -0.46285,-2.57748 -1.203192,-0.75896 -2.636075,0.66008 -2.165051,2.14413 0.371245,1.16969 1.890656,1.42024 2.627901,0.43335 z m 5.941153,-1.13176 c 0,-1.42435 -0.112548,-1.50905 -2.005167,-1.50905 -1.534439,0 -2.046301,0.21356 -2.180359,0.90967 -0.344359,1.7881 0.305495,2.42936 2.295176,2.26478 1.730301,-0.14316 1.89035,-0.28411 1.89035,-1.6654 z m 5.0301493,0 c 0,-1.32872 -0.173766,-1.50905 -1.4542213,-1.50905 -1.829546,0 -2.80127,1.32715 -1.829263,2.49836 0.391812,0.47209 1.236023,0.75774 1.98289,0.67091 1.0761643,-0.12509 1.3005943,-0.41158 1.3005943,-1.66022 z m 5.751962,1.04545 c 0.995771,-1.19984 -0.387398,-2.87665 -2.226736,-2.69946 -1.529448,0.14734 -2.143639,1.19843 -1.571495,2.68942 0.35878,0.93497 3.024754,0.94202 3.798231,0.01 z m 4.559843,-0.48084 c 0,-0.65777 -0.336651,-1.47534 -0.74811698,-1.81683 -1.156648,-0.95993 -2.26997002,-0.23017 -2.26997002,1.48794 0,1.35891 0.164203,1.52483 1.50904502,1.52483 1.25357798,0 1.50904198,-0.20246 1.50904198,-1.19594 z m 4.192546,0.10627 c 0.382582,-0.60757 0.345882,-1.05727 -0.133423,-1.63481 -1.154646,-1.39125 -2.047054,-0.95497 -2.047054,1.00075 0,1.39783 0.183728,1.7613 0.826363,1.63481 0.454499,-0.0893 1.063851,-0.53979 1.354122,-1.00075 z m 4.2572307,-0.21194 c 0.08251,-0.57752 -0.2004317,-1.34089 -0.6287687,-1.69639 -1.041825,-0.86464 -2.287843,0.13499 -2.287843,1.83542 0,1.04435 0.208164,1.20539 1.383291,1.07018 0.953893,-0.10969 1.42986,-0.48512 1.5333207,-1.20921 z m 4.692776,0.46523 c 0.538207,-0.652 0.551783,-0.88295 0.0616,-1.04794 -0.345823,-0.11635 -0.628768,-0.54804 -0.628768,-0.95921 0,-0.99837 -1.993871,-0.69253 -2.686041,0.412 -1.147382,1.83091 1.846719,3.29903 3.253219,1.59515 z m 4.65886,0.0454 c 0.374217,-0.97522 -0.506753,-2.73016 -1.37052,-2.73016 -0.991468,0 -1.843459,1.09266 -1.843459,2.36417 0,0.94064 0.272071,1.15693 1.455227,1.15693 0.859307,0 1.579523,-0.3239 1.758752,-0.79096 z m 4.732781,-0.51059 c 0.178937,-1.25241 -1.086799,-2.45027 -2.155686,-2.04012 -0.452628,0.17377 -0.760925,0.92334 -0.760925,1.85025 0,1.40315 0.137682,1.54239 1.383291,1.39908 0.953893,-0.1097 1.429861,-0.48512 1.53332,-1.20921 z m 4.620911,0.16977 c -0.01141,-1.67775 -0.649069,-2.38647 -1.861803,-2.06933 -2.26585,0.59253 -1.716967,3.20111 0.673556,3.20111 0.907184,0 1.194088,-0.27327 1.188247,-1.13178 z m 4.444067,-0.25152 c 0.130914,-0.92176 -0.07911,-1.13178 -1.131782,-1.13178 -1.052676,0 -1.292524,0.23985 -1.292524,1.29252 0,1.05269 0.210019,1.26269 1.131784,1.13178 0.72734,-0.10323 1.189223,-0.56518 1.292522,-1.29252 z m 4.114889,0.12566 c 0,-1.00601 -0.251508,-1.25752 -1.257539,-1.25752 -0.884088,0 -1.257536,0.27386 -1.257536,0.9222 0,0.50721 0.150914,1.07309 0.335345,1.25752 0.184432,0.18441 0.750327,0.33534 1.257537,0.33534 0.648331,0 0.922193,-0.37344 0.922193,-1.25754 z m 4.93938,-0.12566 c 0.136731,-0.96281 -0.06979,-1.13178 -1.383291,-1.13178 -1.322281,0 -1.54403,0.18536 -1.54403,1.29094 0,1.11155 0.192232,1.26884 1.383291,1.13178 0.990441,-0.11388 1.428939,-0.48057 1.54403,-1.29094 z m 4.114889,0.12566 c 0,-0.99791 -0.253485,-1.25752 -1.22785,-1.25752 -0.675318,0 -1.374449,0.23719 -1.553622,0.5271 -0.584353,0.9455 0.206497,1.98796 1.50815,1.98796 1.022865,0 1.273322,-0.24734 1.273322,-1.25754 z m 4.93938,-0.12566 c 0.136142,-0.95868 -0.07089,-1.13178 -1.353605,-1.13178 -1.663791,0 -2.324305,0.64134 -1.872658,1.81832 0.474309,1.23602 3.030468,0.69208 3.226263,-0.68654 z m 3.611872,0.12566 c 0,-1.00601 -0.251508,-1.25752 -1.257536,-1.25752 -0.88409,0 -1.257539,0.27386 -1.257539,0.9222 0,0.50721 0.150914,1.07309 0.335346,1.25752 0.184431,0.18441 0.750328,0.33534 1.257538,0.33534 0.648329,0 0.922191,-0.37344 0.922191,-1.25754 z m 4.429666,0.14373 c 0.110743,-0.58113 -0.268624,-0.97096 -1.163473,-1.19554 -1.704944,-0.42792 -2.682459,0.43991 -1.754693,1.55779 0.838028,1.00976 2.700788,0.77854 2.918166,-0.36225 z m 3.870081,-0.14373 c 0,-0.72354 -0.388397,-1.05071 -1.383291,-1.16518 -1.199082,-0.13802 -1.383291,0.0171 -1.383291,1.16518 0,1.14802 0.184204,1.30317 1.383291,1.16521 0.994894,-0.11445 1.383291,-0.44164 1.383291,-1.16521 z m -133.214381,-0.039 c 0.364494,-0.94985 -1.01417,-2.48662 -1.796856,-2.00289 -0.75095,0.46411 -0.697908,2.1504 0.07749,2.46328 1.090269,0.43993 1.406363,0.35531 1.71937,-0.46039 z m 9.157593,-3.5229 c 0.103347,-0.092 0.05386,-0.51662 -0.109964,-0.94353 -0.43795,-1.14128 -2.84451,-1.01778 -2.84451,0.14601 0,0.50721 0.153405,1.0756 0.340878,1.26307 0.301608,0.3016 2.114827,-0.0213 2.613601,-0.46551 z m 5.375207,0.17871 c 0.592224,-0.59254 -0.812464,-1.89848 -2.041999,-1.89848 -1.560017,0 -2.600698,1.27039 -1.531053,1.86899 0.939395,0.52571 3.059573,0.5432 3.573052,0.0295 z m 4.657932,-0.76668 c 0.137035,-0.96494 -0.0692,-1.13178 -1.399074,-1.13178 -1.716353,0 -2.648853,1.30524 -1.475792,2.0657 1.195209,0.77482 2.701693,0.28542 2.874866,-0.93392 z m 5.344374,0.92567 c 0.593622,-0.96052 -0.35876,-2.05747 -1.786317,-2.05747 -1.2169,0 -1.455227,0.20595 -1.455227,1.25754 0,1.0563 0.236719,1.25754 1.479356,1.25754 0.813647,0 1.606629,-0.20593 1.762188,-0.45763 z m 5.721956,-0.92569 c 0.144088,-1.01463 -0.05116,-1.13178 -1.886307,-1.13178 -1.649668,0 -2.047045,0.17909 -2.047045,0.92219 0,1.32142 0.511199,1.66086 2.24549,1.49097 1.143976,-0.11198 1.56745,-0.43354 1.687862,-1.28138 z m 4.869409,0.12567 c 0,-1.34622 -3.106649,-1.76445 -3.597859,-0.48438 -0.401983,1.04754 0.67487,1.79328 2.340323,1.62072 0.878757,-0.0911 1.257536,-0.43333 1.257536,-1.13634 z m 5.533165,0 c 0,-1.28399 -2.783638,-1.69466 -3.733005,-0.55075 -0.957695,1.15394 -0.153062,1.88068 1.893429,1.71011 1.45312,-0.1211 1.839576,-0.36468 1.839576,-1.15936 z m 5.190888,-0.12568 c 0.135496,-0.95404 -0.07207,-1.13178 -1.321697,-1.13178 -1.600165,0 -2.910147,1.12214 -2.356243,2.01837 0.18812,0.30438 1.056438,0.48407 1.929612,0.3993 1.205192,-0.11692 1.626306,-0.42671 1.748328,-1.28589 z m 4.767876,1.06566 c 0.477503,-0.47751 -0.5898,-2.19744 -1.363617,-2.19744 -0.914119,0 -1.968595,1.33952 -1.566555,1.99002 0.353781,0.57244 2.418964,0.71862 2.930172,0.20742 z m 5.648314,-0.20742 c 0.585198,-0.94685 -0.863474,-2.04827 -2.485848,-1.88996 -1.169048,0.11407 -1.59154,0.43065 -1.712625,1.28323 -0.143766,1.01229 0.05226,1.1318 1.856618,1.1318 1.109549,0 2.16338,-0.23628 2.341855,-0.52507 z M -8.5641437,133.02 c -0.131731,-0.9275 -0.478503,-1.13178 -1.9212903,-1.13178 -1.442788,0 -1.789567,0.20428 -1.921292,1.13178 -0.144488,1.01731 0.04985,1.1318 1.921292,1.1318 1.8714273,0 2.0657713,-0.11445 1.9212903,-1.1318 z m 5.80115,0.74898 c 0.130116,-0.21054 -0.06359,-0.79334 -0.430485,-1.29509 -0.9678,-1.32355 -3.467227,-0.95263 -3.680082,0.54611 -0.143766,1.01229 0.05226,1.1318 1.856618,1.1318 1.109551,0 2.123825,-0.17225 2.253949,-0.38282 z m 4.349916,-0.87472 c 0,-1.06194 -0.234741,-1.25755 -1.50904198,-1.25755 -1.27430302,0 -1.50904502,0.19561 -1.50904502,1.25755 0,1.06191 0.234742,1.25754 1.50904502,1.25754 1.27430098,0 1.50904198,-0.19563 1.50904198,-1.25754 z m 3.991776,0.78515 c 0.598508,-0.37873 0.609495,-0.59276 0.06416,-1.24984 -0.999386,-1.20419 -2.043875,-0.96672 -2.043875,0.46469 0,1.2971 0.719623,1.5825 1.979715,0.78515 z m 4.5594787,-0.18156 c 0,-0.93312 -1.0534437,-1.86115 -2.1126627,-1.86115 -0.630443,0 -0.905427,0.38192 -0.905427,1.25754 0,1.06191 0.234742,1.25754 1.509045,1.25754 0.902847,0 1.5090447,-0.26269 1.5090447,-0.65393 z m 4.665202,0.34818 c 0.501657,-0.50166 -0.817375,-2.20933 -1.706518,-2.20933 -1.034139,0 -2.146692,1.29115 -1.714763,1.99001 0.347613,0.56246 2.913649,0.72695 3.421281,0.21932 z m 4.53904,-0.0114 c 0.643639,-0.64362 -0.719804,-2.19741 -1.928222,-2.19741 -0.987152,0 -1.239841,0.25629 -1.239841,1.25754 0,1.04548 0.240331,1.25754 1.425208,1.25754 0.783868,0 1.568148,-0.14297 1.742855,-0.31765 z m 4.880175,-0.37527 c 0,-0.99368 -1.36318,-1.98576 -2.257164,-1.64269 -0.418508,0.16064 -0.760925,0.75181 -0.760925,1.31381 0,0.80001 0.327573,1.02182 1.509045,1.02182 0.946417,0 1.509044,-0.25835 1.509044,-0.69294 z m 4.527135,-0.5646 c 0,-1.53122 -1.444896,-1.71196 -2.689716,-0.33645 -1.010346,1.11642 -0.631495,1.59399 1.264508,1.59399 1.184877,0 1.425208,-0.21206 1.425208,-1.25754 z m 4.527134,0.5646 c 0,-1.12929 -1.229458,-1.90053 -1.923423,-1.20657 -0.987268,0.98727 -0.667482,1.89951 0.665886,1.89951 0.732787,0 1.257537,-0.28915 1.257537,-0.69294 z m 3.930112,-0.18726 c -0.09228,-0.48417 -0.674765,-0.95262 -1.294425,-1.04102 -0.855699,-0.12205 -1.126642,0.0896 -1.126642,0.88028 0,0.78297 0.320843,1.04101 1.294419,1.04101 0.961357,0 1.251253,-0.2265 1.126648,-0.88027 z m 5.124157,0.24675 c 0,-0.34844 -0.48305,-0.9352 -1.073444,-1.30391 -0.895307,-0.55913 -1.144456,-0.55833 -1.501343,0.004 -0.815,1.28613 -0.458349,1.93291 1.065742,1.93291 0.877932,0 1.509045,-0.26497 1.509045,-0.63352 z m 4.02412,-0.12091 c 0,-0.50301 -0.503016,-0.75452 -1.509045,-0.75452 -1.00603,0 -1.509045,0.25151 -1.509045,0.75452 0,0.503 0.503015,0.75453 1.509045,0.75453 1.006029,0 1.509045,-0.25153 1.509045,-0.75453 z m 5.030149,0 c 0,-0.82165 -2.747907,-1.09562 -3.226238,-0.32166 -0.418845,0.67771 0.248017,1.07619 1.80103,1.07619 0.931509,0 1.425208,-0.26137 1.425208,-0.75453 z m 3.521103,0 c 0,-0.46948 -0.475067,-0.75452 -1.257536,-0.75452 -1.221255,0 -1.606097,0.4898 -0.922193,1.1737 0.632777,0.63278 2.179729,0.33529 2.179729,-0.41918 z m 4.02412,0.26199 c 0.661073,-0.41802 0.647436,-0.58424 -0.110096,-1.34197 -0.817564,-0.81778 -0.919571,-0.8151 -1.874445,0.049 -0.555405,0.50263 -0.888627,1.11 -0.740494,1.34967 0.353901,0.57263 1.776604,0.54301 2.725035,-0.0566 z m 4.527135,-0.26199 c 0,-0.50301 -0.503014,-0.75452 -1.509045,-0.75452 -1.00603,0 -1.509045,0.25151 -1.509045,0.75452 0,0.503 0.503015,0.75453 1.509045,0.75453 1.006031,0 1.509045,-0.25153 1.509045,-0.75453 z m 3.018089,-0.0369 c 0,-0.46843 -0.342237,-0.72505 -0.838591,-0.62877 -1.261948,0.24473 -1.435227,1.42016 -0.209354,1.42016 0.617867,0 1.047945,-0.32479 1.047945,-0.79141 z m -136.915817,-0.59191 c -0.09323,-0.48415 -0.502859,-0.88027 -0.910271,-0.88027 -0.407411,0 -0.817033,0.39612 -0.910271,0.88027 -0.118937,0.61763 0.152663,0.88027 0.910271,0.88027 0.757615,0 1.029213,-0.26264 0.910271,-0.88027 z m 4.622894,-0.15913 c 0,-0.83651 -0.26922,-1.00835 -1.378991,-0.88027 -0.831711,0.096 -1.445242,0.50852 -1.545925,1.03944 -0.12964,0.68362 0.178424,0.88027 1.37899,0.88027 1.227145,0 1.545926,-0.21433 1.545926,-1.03944 z m 120.723579,-1.47562 c 0,-0.73776 -0.335345,-1.00604 -1.257536,-1.00604 -0.691646,0 -1.257539,0.17263 -1.257539,0.38373 0,0.31997 0.444419,0.61136 2.389321,1.56658 0.06916,0.034 0.125762,-0.39096 0.125762,-0.94427 z m -95.193013,-0.88795 c 0.138576,-0.41575 -0.388916,-0.62109 -1.595443,-0.62109 -1.674476,0 -2.223768,0.41705 -1.501096,1.13972 0.524036,0.52404 2.880545,0.12928 3.096539,-0.51863 z m 5.533728,0.008 c 0.14253,-0.43406 -0.429559,-0.62877 -1.847514,-0.62877 -1.974191,0 -2.736562,0.63487 -1.425205,1.18687 1.060632,0.44645 3.054517,0.10646 3.272719,-0.5581 z m 5.404287,0.12566 c 0,-0.27665 -0.848837,-0.57325 -1.886307,-0.65913 -1.468038,-0.12148 -1.886305,0.0247 -1.886305,0.65913 0,0.63448 0.418267,0.78064 1.886305,0.65913 1.03747,-0.0859 1.886307,-0.38247 1.886307,-0.65913 z m 5.030149,0 c 0,-0.5974 -2.021185,-0.95516 -3.086554,-0.54633 -0.412403,0.15817 -0.601053,0.52844 -0.419223,0.82265 0.408633,0.66118 3.505777,0.41707 3.505777,-0.27632 z m 4.778643,0 c 0,-0.46947 -0.475068,-0.75451 -1.257539,-0.75451 -1.221253,0 -1.606095,0.4898 -0.922191,1.1737 0.632778,0.63278 2.17973,0.33529 2.17973,-0.41919 z m 5.913246,-0.12566 c 0.145229,-0.44164 -0.479398,-0.62877 -2.09872,-0.62877 -1.751798,0 -2.305482,0.18821 -2.305482,0.78344 0,0.60877 0.467894,0.74895 2.098718,0.62876 1.154294,-0.085 2.191762,-0.43761 2.305484,-0.78343 z m 5.1530813,0.12566 c 0,-0.54493 -0.558905,-0.75451 -2.0120593,-0.75451 -1.888037,0 -2.454145,0.39628 -1.676716,1.1737 0.184432,0.18441 1.089862,0.33534 2.012059,0.33534 1.1550683,0 1.6767163,-0.23475 1.6767163,-0.75453 z m 5.030149,0 c 0,-0.52696 -0.530962,-0.75451 -1.760551,-0.75451 -1.22959,0 -1.760553,0.22755 -1.760553,0.75451 0,0.52697 0.530963,0.75453 1.760553,0.75453 1.229589,0 1.760551,-0.22756 1.760551,-0.75453 z m 5.030148,-0.0335 c 0,-0.55841 -0.391652,-0.74156 -1.34449698,-0.62877 -1.95830202,0.23183 -2.13098202,1.41671 -0.206462,1.41671 1.07251798,0 1.55095898,-0.24307 1.55095898,-0.78794 z m 3.521106,0.0335 c 0,-0.41498 -0.339535,-0.75451 -0.754522,-0.75451 -0.414987,0 -0.754523,0.33953 -0.754523,0.75451 0,0.41499 0.339536,0.75453 0.754523,0.75453 0.414987,0 0.754522,-0.33954 0.754522,-0.75453 z m 4.9075177,0.12567 c -0.3205407,-0.97619 -2.8954587,-1.11773 -2.8954587,-0.15913 0,0.54487 0.478444,0.78794 1.550962,0.78794 1.015542,0 1.4796887,-0.21708 1.3444967,-0.62877 z m 4.146751,-0.12567 c 0,-0.81265 -2.255147,-1.07902 -2.723224,-0.32165 -0.397547,0.64323 0.225814,1.07618 1.549523,1.07618 0.707944,0 1.173701,-0.29941 1.173701,-0.75453 z m 5.030149,0 c 0,-0.50301 -0.503015,-0.75451 -1.509045,-0.75451 -1.006031,0 -1.509045,0.2515 -1.509045,0.75451 0,0.50301 0.503014,0.75453 1.509045,0.75453 1.00603,0 1.509045,-0.25152 1.509045,-0.75453 z m 4.904394,0.12567 c -0.115267,-0.34582 -0.737756,-0.62877 -1.38329,-0.62877 -0.645535,0 -1.268014,0.28295 -1.383291,0.62877 -0.138252,0.41476 0.332549,0.62877 1.383291,0.62877 1.050743,0 1.521544,-0.21401 1.38329,-0.62877 z m 4.530258,0 c -0.320541,-0.97619 -2.895459,-1.11773 -2.895459,-0.15913 0,0.54487 0.478444,0.78794 1.550962,0.78794 1.015542,0 1.479689,-0.21708 1.344497,-0.62877 z m 4.526532,0 c -0.31859,-0.96739 -2.391842,-1.10672 -2.391842,-0.16084 0,0.51358 0.454137,0.78951 1.299453,0.78951 0.814664,0 1.222206,-0.23458 1.092389,-0.62877 z m 4.147353,0.17947 c 0,-0.58664 -1.469202,-1.14385 -2.057453,-0.78029 -0.886558,0.54793 -0.44313,1.22949 0.799914,1.22949 0.691646,0 1.257539,-0.20215 1.257539,-0.4492 z m 5.030149,-0.02 c 0,-0.61128 -1.855512,-1.19604 -2.510574,-0.79119 -0.995587,0.61529 -0.483023,1.26032 1.001529,1.26032 0.829974,0 1.509045,-0.21111 1.509045,-0.46913 z m 4.02412,-0.32039 c 0,-0.52432 -0.36693,-0.73552 -1.092383,-0.62877 -1.610403,0.23697 -1.782877,1.41829 -0.207073,1.41829 0.845318,0 1.299456,-0.27594 1.299456,-0.78952 z m 5.030149,0.28649 c 0,-0.27666 -0.452714,-0.50301 -1.006031,-0.50301 -0.553317,0 -1.170139,-0.0171 -1.370715,-0.0376 -0.200578,-0.0207 -0.445797,0.20559 -0.544931,0.50301 -0.102567,0.3077 0.488161,0.54075 1.370715,0.54075 0.853027,0 1.550962,-0.22637 1.550962,-0.50303 z m 7.042209,0 c 0,-0.27666 -0.339535,-0.50301 -0.754522,-0.50301 -0.414989,0 -0.754525,0.22635 -0.754525,0.50301 0,0.27666 0.339536,0.50303 0.754525,0.50303 0.414987,0 0.754522,-0.22637 0.754522,-0.50303 z m 4.778641,0 c 0.18137,-0.29346 -0.330117,-0.50301 -1.227848,-0.50301 -0.846303,0 -1.538734,0.22635 -1.538734,0.50301 0,0.27666 0.552532,0.50303 1.22785,0.50303 0.675317,0 1.367747,-0.22637 1.538732,-0.50303 z m 3.269597,0 c 0,-0.27666 -0.339535,-0.50301 -0.754522,-0.50301 -0.414987,0 -0.754522,0.22635 -0.754522,0.50301 0,0.27666 0.339535,0.50303 0.754522,0.50303 0.414987,0 0.754522,-0.22637 0.754522,-0.50303 z M -70.34421,130.12832 c 0,-0.27665 -0.452713,-0.503 -1.00603,-0.503 -0.553315,0 -1.006029,0.22635 -1.006029,0.503 0,0.27666 0.452714,0.50301 1.006029,0.50301 0.553317,0 1.00603,-0.22635 1.00603,-0.50301 z m 4.527135,0 c 0,-0.27665 -0.679071,-0.503 -1.509045,-0.503 -0.829976,0 -1.509045,0.22635 -1.509045,0.503 0,0.27666 0.679069,0.50301 1.509045,0.50301 0.829974,0 1.509045,-0.22635 1.509045,-0.50301 z m 5.030148,0 c 0,-0.27665 -0.679069,-0.503 -1.509044,-0.503 -0.829974,0 -1.509045,0.22635 -1.509045,0.503 0,0.27666 0.679071,0.50301 1.509045,0.50301 0.829975,0 1.509044,-0.22635 1.509044,-0.50301 z m 5.281657,0 c 0.188025,-0.30424 -0.507687,-0.503 -1.760553,-0.503 -1.252863,0 -1.948583,0.19876 -1.760551,0.503 0.170991,0.27666 0.963234,0.50301 1.760551,0.50301 0.79732,0 1.589569,-0.22635 1.760553,-0.50301 z m 4.778643,0 c 0,-0.27665 -0.792249,-0.503 -1.760553,-0.503 -0.968304,0 -1.760553,0.22635 -1.760553,0.503 0,0.27666 0.792249,0.50301 1.760553,0.50301 0.968304,0 1.760553,-0.22635 1.760553,-0.50301 z m 5.030148,0 c 0,-0.27665 -0.679071,-0.503 -1.509044,-0.503 -0.829976,0 -1.509045,0.22635 -1.509045,0.503 0,0.27666 0.679069,0.50301 1.509045,0.50301 0.829973,0 1.509044,-0.22635 1.509044,-0.50301 z m -54.417951,-11.90781 c -0.23183,-1.95831 -1.4167,-2.13099 -1.4167,-0.20646 0,1.07251 0.24306,1.55096 0.78793,1.55096 0.55841,0 0.74157,-0.39166 0.62877,-1.3445 z m 3.613444,-0.20143 c 0,-1.20056 -0.196655,-1.50862 -0.880276,-1.37898 -0.530921,0.10076 -0.943444,0.7142 -1.039441,1.54592 -0.128081,1.10977 0.04376,1.37899 0.880276,1.37899 0.825103,0 1.039441,-0.31879 1.039441,-1.54593 z m 3.27238,1.03842 c 0.172511,-0.27913 0.166845,-0.97013 -0.01255,-1.53553 -0.260522,-0.82083 -0.469818,-0.90889 -1.038499,-0.43693 -0.928084,0.77024 -0.919387,2.47997 0.01255,2.47997 0.39866,0 0.865984,-0.22839 1.038499,-0.50751 z m 3.769828,-1.00153 c 0,-1.65107 -0.964477,-2.01679 -2.006743,-0.76092 -0.831565,1.00196 -0.281389,2.26996 0.984927,2.26996 0.80001,0 1.021816,-0.32757 1.021816,-1.50904 z m 3.01809,0.503 c 0,-0.55331 -0.202139,-1.00601 -0.449196,-1.00601 -0.565411,0 -1.092819,1.30839 -0.689847,1.71136 0.605511,0.60552 1.139043,0.27514 1.139043,-0.70535 z m 3.931777,-0.33846 c -0.209451,-1.76927 -1.103167,-2.00732 -1.79939,-0.47926 -0.627827,1.37792 -0.382648,1.82376 1.002951,1.82376 0.740149,0 0.91972,-0.30314 0.796439,-1.3445 z m 3.274198,0.63725 c 0.149279,-0.389 -0.166047,-1.10315 -0.700704,-1.58701 -0.941281,-0.85185 -0.972106,-0.82942 -0.972106,0.70725 0,1.64384 1.14794,2.24755 1.67281,0.87976 z m -17.014764,-4.57442 c 0,-1.18195 -0.245311,-1.54387 -1.131785,-1.66976 -0.99581,-0.14145 -1.131783,0.0591 -1.131783,1.66976 0,1.61061 0.135971,1.81122 1.131783,1.66979 0.886474,-0.12585 1.131785,-0.48782 1.131785,-1.66979 z m 3.269595,0.0542 c 0,-1.48594 -0.493514,-1.94577 -1.337009,-1.24573 -0.849928,0.70537 -0.878278,2.29238 -0.04627,2.59082 0.951319,0.34126 1.383291,-0.0787 1.383291,-1.34509 z m 3.521104,-0.0911 c 0,-1.39782 -0.183728,-1.76129 -0.826361,-1.6348 -1.329013,0.26156 -1.995918,1.70146 -1.220691,2.63554 1.154645,1.39126 2.047052,0.95499 2.047052,-1.00074 z m 3.01809,-0.006 c 0,-1.06191 -0.222164,-1.72842 -0.540741,-1.62222 -0.297408,0.0991 -0.523764,0.34436 -0.503014,0.54493 0.02074,0.20057 0.03772,0.93058 0.03772,1.62222 0,0.69164 0.226355,1.25754 0.503014,1.25754 0.276658,0 0.503014,-0.81111 0.503014,-1.80247 z m 4.313398,0.57353 c 0.38377,-1.52907 -0.05734,-2.29217 -1.324995,-2.29217 -0.780477,0 -0.976342,0.35319 -0.976342,1.76055 0,1.41957 0.192992,1.76056 0.996445,1.76056 0.637186,0 1.107655,-0.44308 1.304892,-1.22894 z m 2.997989,0.69734 c 0.524068,-0.84795 -0.216135,-2.98951 -1.033282,-2.98951 -0.516018,0 -0.74494,0.54103 -0.74494,1.76055 0,1.74246 1.023635,2.44991 1.778222,1.22894 z m -20.521935,-0.98322 c 0.19612,-1.1218 -0.671794,-2.19147 -1.515454,-1.86772 -1.05418,0.40453 -0.52085,2.98341 0.57341,2.77267 0.44613,-0.0859 0.870049,-0.49314 0.942044,-0.90495 z m 22.094939,-1.12602 c -0.139545,-0.34582 -0.253716,-0.0629 -0.253716,0.62877 0,0.69166 0.114184,0.97459 0.253716,0.62877 0.139545,-0.34582 0.139545,-0.9117 0,-1.25754 z m -5.311062,-2.18508 c 1.062207,-0.96126 0.71732,-2.21629 -0.609056,-2.21629 -0.72267,0 -0.952212,0.36377 -0.952212,1.50904 0,1.71325 0.299662,1.84899 1.561268,0.70725 z m 3.474443,-0.21464 c 0.616757,-1.1524 0.281684,-2.00165 -0.789773,-2.00165 -0.470028,0 -0.724834,0.53048 -0.724834,1.50904 0,1.73684 0.722887,1.97196 1.514607,0.49261 z m -17.126357,-0.21907 c 0.760779,-0.91668 0.266558,-1.78258 -1.01743,-1.78258 -0.611412,0 -0.976342,0.3447 -0.976342,0.92219 0,1.64713 0.987251,2.07318 1.993772,0.86039 z m 3.539391,-0.52504 c 0,-0.9222 -0.268274,-1.25754 -1.00603,-1.25754 -0.981445,0 -1.421204,1.42921 -0.670685,2.17973 0.763614,0.76362 1.676715,0.26141 1.676715,-0.92219 z m 3.521104,0 c 0,-1.29018 -0.719296,-1.58294 -1.959602,-0.79759 -0.968268,0.6131 -0.310248,2.05513 0.937786,2.05513 0.754595,0 1.021816,-0.32888 1.021816,-1.25754 z m 3.411499,0.2401 c 0.53441,-0.85573 0.505596,-1.06728 -0.181276,-1.33085 -0.927092,-0.35577 -1.758268,0.66031 -1.369313,1.67391 0.361309,0.94155 0.81038,0.84219 1.550589,-0.34306 z m -13.974811,-0.2401 c 0,-0.41499 -0.22636,-0.75453 -0.50302,-0.75453 -0.27665,0 -0.50301,0.33954 -0.50301,0.75453 0,0.41498 0.22636,0.75451 0.50301,0.75451 0.27666,0 0.50302,-0.33953 0.50302,-0.75451 z m 3.772613,-3.52113 c 0,-0.27665 -0.509304,-0.57535 -1.131785,-0.66375 -0.778751,-0.11065 -1.131783,0.0964 -1.131783,0.66375 0,0.56733 0.353032,0.77436 1.131783,0.66377 0.622481,-0.0884 1.131785,-0.38709 1.131785,-0.66377 z m 3.269595,0 c 0,-0.41917 -0.447124,-0.75451 -1.00603,-0.75451 -0.558905,0 -1.006029,0.33534 -1.006029,0.75451 0,0.41919 0.447124,0.75453 1.006029,0.75453 0.558906,0 1.00603,-0.33534 1.00603,-0.75453 z m 3.521104,-0.035 c 0,-0.52432 -0.366931,-0.73552 -1.092383,-0.62877 -1.610399,0.23693 -1.782874,1.41825 -0.20707,1.41825 0.84532,0 1.299453,-0.27592 1.299453,-0.78952 z m 3.01809,0.035 c 0,-0.41498 -0.226356,-0.75451 -0.503014,-0.75451 -0.276659,0 -0.503015,0.33953 -0.503015,0.75451 0,0.41501 0.226356,0.75453 0.503015,0.75453 0.276658,0 0.503014,-0.33952 0.503014,-0.75453 z m 4.02412,0 c 0,-0.41917 -0.447124,-0.75451 -1.006031,-0.75451 -0.558904,0 -1.006028,0.33534 -1.006028,0.75451 0,0.41919 0.447124,0.75453 1.006028,0.75453 0.558907,0 1.006031,-0.33534 1.006031,-0.75453 z m 3.199994,0 c -0.159241,-0.41498 -0.604855,-0.75451 -0.990245,-0.75451 -0.385384,0 -0.700704,0.33953 -0.700704,0.75451 0,0.41518 0.445369,0.75453 0.990245,0.75453 0.673552,0 0.897645,-0.24129 0.700704,-0.75453 z m -17.032903,-3.7726 c 0,-0.92115 -0.302756,-1.30053 -1.131785,-1.41828 -0.967475,-0.13746 -1.131783,0.0684 -1.131783,1.41828 0,1.34978 0.164318,1.55568 1.131783,1.41828 0.829029,-0.11768 1.131785,-0.49713 1.131785,-1.41828 z m 3.269595,-0.0369 c 0,-1.20058 -0.196655,-1.50865 -0.880276,-1.37901 -0.53092,0.10077 -0.943444,0.71423 -1.03944,1.54593 -0.1281,1.10978 0.04376,1.37901 0.880275,1.37901 0.825103,-2e-5 1.039441,-0.31881 1.039441,-1.54595 z m 3.521104,0.002 c 0,-1.31349 -0.168975,-1.52002 -1.131782,-1.38328 -0.81036,0.11502 -1.176987,0.55358 -1.29095,1.54402 -0.137054,1.19106 0.02023,1.3833 1.131785,1.3833 1.105544,-1.3e-4 1.290947,-0.22188 1.290947,-1.54415 z m 3.441716,1.10073 c 0.563092,-0.35688 0.563881,-0.60603 0.0048,-1.50134 -0.368729,-0.59052 -0.849411,-1.07357 -1.068204,-1.07357 -0.592783,0 -1.018262,1.40119 -0.687339,2.26356 0.327224,0.85275 0.771707,0.93176 1.750766,0.31124 z m 3.508151,-0.93569 c -0.09599,-0.83183 -0.50852,-1.44536 -1.039442,-1.54604 -0.683618,-0.12966 -0.880274,0.17833 -0.880274,1.37898 0,1.22715 0.214338,1.54593 1.039439,1.54593 0.836514,0 1.008369,-0.26922 0.880277,-1.37899 z m 3.613447,0.43443 c 0,-0.89639 -1.317743,-2.43926 -1.724887,-2.01958 -0.239274,0.24666 -0.425729,1.50226 -0.34677,2.33525 0.09951,1.04986 2.071657,0.74934 2.071657,-0.31567 z m -3.301978,-5.144133 c -0.153177,-0.247835 -0.717853,-0.450613 -1.254843,-0.450613 -0.687491,0 -0.976342,0.347228 -0.976342,1.1737 0,0.645538 0.166427,1.340126 0.369842,1.543526 0.473926,0.47394 2.231979,-1.666912 1.861343,-2.266613 z m -13.991676,1.334024 c 0.476948,-1.242902 -0.330157,-1.95192 -1.070074,-0.940009 -0.363895,0.497647 -0.555163,1.077083 -0.425039,1.287638 0.386084,0.6247 1.194088,0.43683 1.495113,-0.347629 z m 3.209236,-0.527096 c 0,-0.922195 -0.268274,-1.257541 -1.00603,-1.257541 -0.981445,0 -1.421204,1.429196 -0.670685,2.179716 0.763614,0.76362 1.676715,0.26141 1.676715,-0.922175 z m 3.521104,0.04183 c 0,-1.247863 -0.774268,-1.831975 -1.886305,-1.423036 -0.666683,0.245173 -0.857073,1.739674 -0.293425,2.303331 0.184432,0.18441 0.750331,0.33534 1.257537,0.33534 0.63985,0 0.922193,-0.37217 0.922193,-1.215616 z m 3.217413,0.415708 c 0.33194,-0.865009 -0.0042,-1.715131 -0.678206,-1.715131 -0.563361,0 -1.104849,1.484254 -0.750598,2.057453 0.43385,0.701985 1.088234,0.545215 1.428804,-0.342303 z m 6.517089,0.417117 c 0.130134,-0.210538 -0.08287,-0.819707 -0.473332,-1.353685 -0.675856,-0.924287 -0.709915,-0.905921 -0.709915,0.382817 0,1.274728 0.660504,1.816668 1.183247,0.970868 z m -13.263307,-4.521567 c -0.0095,-1.717678 -0.703809,-2.882233 -1.445105,-2.424092 -0.605742,0.374376 -0.770276,2.925675 -0.223909,3.47203 0.802534,0.802536 1.676263,0.253937 1.669014,-1.047938 z m 3.528805,-0.663771 c 0,-1.835131 -0.117149,-2.030399 -1.131782,-1.886291 -1.962667,0.278728 -1.860493,3.933345 0.109963,3.933345 0.859687,0 1.021815,-0.324794 1.021815,-2.047054 z m 3.404369,1.041018 c 0.50244,-0.804533 0.502277,-1.207787 -8.04e-4,-2.013365 -0.346003,-0.554036 -0.857223,-0.932443 -1.136047,-0.840883 -1.010048,0.331676 -0.90878,3.860284 0.110781,3.860284 0.218793,0 0.680529,-0.452723 1.02608,-1.006036 z m 3.386333,-1.006017 c 0,-1.263682 -0.243457,-1.793668 -0.880277,-1.916311 -0.724088,-0.139546 -0.880274,0.200572 -0.880274,1.916311 0,1.715738 0.15618,2.055742 0.880274,1.916292 0.63682,-0.122625 0.880277,-0.65263 0.880277,-1.916292 z m -10.311806,-4.221486 c 0,-1.485945 -0.493514,-1.945779 -1.337009,-1.245734 -0.849928,0.705387 -0.878278,2.292398 -0.04627,2.590842 0.951319,0.341239 1.383291,-0.07871 1.383291,-1.345108 z m 3.427221,0.07167 c -0.172093,-1.784808 -1.211869,-2.181979 -2.085693,-0.79668 -0.608787,0.965142 0.306984,2.431487 1.518517,2.431487 0.514714,0 0.679113,-0.473864 0.567176,-1.634807 z m 7.639107,0.498275 c 0,-1.126152 -1.621004,-2.607953 -2.209336,-2.01962 -0.168158,0.168062 -0.305737,0.947081 -0.305737,1.730948 0,1.184878 0.212055,1.425204 1.257537,1.425204 0.970328,0 1.257536,-0.259585 1.257536,-1.136532 z m -3.537102,0.0038 c -0.0087,-0.345821 -0.318533,-1.027405 -0.688301,-1.514634 -0.592498,-0.780692 -0.746555,-0.796376 -1.297815,-0.132131 -0.34403,0.414529 -0.494113,1.096114 -0.333514,1.514616 0.350611,0.913697 2.342402,1.027177 2.31963,0.13213 z m -4.008122,-4.401163 c 0,-1.535642 -0.302516,-1.747432 -1.719412,-1.203719 -0.94614,0.363064 -1.028924,1.272274 -0.192043,2.109145 1.073649,1.073661 1.911455,0.676794 1.911455,-0.905426 z m 3.417923,0.878867 c 0.368161,-0.443616 0.321839,-0.905332 -0.156447,-1.559425 -0.772545,-1.056512 -1.752429,-0.706262 -1.752429,0.626413 0,1.552809 0.992065,2.0377 1.908876,0.933012 z m 2.618256,-0.597667 c 0,-0.675311 -0.226355,-1.367751 -0.503014,-1.538722 -0.29347,-0.18137 -0.503014,0.330117 -0.503014,1.227845 0,0.8463 0.226356,1.538721 0.503014,1.538721 0.276659,0 0.503014,-0.552533 0.503014,-1.227844 z m -9.716681,-0.375517 c -0.160572,-0.401258 -0.279767,-0.282075 -0.303905,0.303919 -0.02184,0.530253 0.09705,0.827347 0.264193,0.660197 0.16715,-0.167112 0.185021,-0.600995 0.03972,-0.964116 z m 3.672801,-3.804048 c 0.0042,-0.34582 -0.55819,-0.62877 -1.249835,-0.62877 -0.782468,0 -1.257537,0.285041 -1.257537,0.754532 0,0.414985 0.339535,0.754513 0.754522,0.754513 0.414987,0 0.757988,0.282949 0.762224,0.62877 0.01027,0.832118 0.980044,-0.645272 0.990626,-1.509045 z m 3.018089,0 c 0.0042,-0.34582 -0.356051,-0.62877 -0.800637,-0.62877 -0.53044,0 -0.703371,0.273539 -0.503014,0.795673 0.167929,0.437609 0.30879,1.060086 0.313026,1.383283 0.01027,0.783905 0.980633,-0.73455 0.990625,-1.550186 z m -3.010388,-3.395336 c 0,-1.462067 -0.856257,-1.640073 -1.814854,-0.377266 -0.973653,1.282617 -0.853593,1.634787 0.557318,1.634787 1.00603,0 1.257536,-0.251504 1.257536,-1.257521 z m 3.468649,0.797574 c 0.854915,-0.541317 0.37127,-2.055115 -0.656592,-2.055115 -0.94574,0 -1.472344,0.845237 -1.111864,1.784637 0.320526,0.835274 0.768316,0.903773 1.768456,0.270478 z m -3.47635,-4.19293 c -0.0063,-0.915217 -0.101009,-0.987404 -0.495313,-0.377266 -0.630238,0.975219 -0.630238,1.509045 0,1.509045 0.276658,0 0.499548,-0.509301 0.495313,-1.131779 z m 4.031821,0.729361 c 0,-0.520613 -1.089039,-1.609635 -1.609648,-1.609635 -0.221325,0 -0.402411,0.452704 -0.402411,1.006017 0,0.670691 0.335344,1.006036 1.006029,1.006036 0.553317,0 1.00603,-0.18099 1.00603,-0.402418 z m -1.896115,-19.089403 0.135572,-10.940583 2.515075,-0.251506 c 2.133408,-0.213339 2.539467,-0.423257 2.675815,-1.383293 0.14848,-1.045521 -0.03289,-1.131782 -2.379738,-1.131782 -2.775627,0 -2.878012,-0.129621 -3.178382,-4.02412 -0.09017,-1.169243 -0.389203,-1.760551 -0.890307,-1.760551 -0.548743,0 -0.823116,0.754522 -1.00603,2.766581 l -0.251506,2.766582 -2.923909,0.151807 c -2.687076,0.139507 -2.911164,0.241362 -2.766583,1.257539 0.134963,0.948591 0.550515,1.14148 2.923908,1.357245 l 2.766584,0.251506 0.135571,10.940575 c 0.129944,10.486602 0.176485,10.940561 1.121975,10.940561 0.94548,0 0.992034,-0.453959 1.121974,-10.940561 z m 79.8634293,18.051026 c 0,-0.239052 -1.054497,-0.579169 -2.343321,-0.755825 -2.6213123,-0.359281 -8.0765493,-3.206646 -9.2113143,-4.80784 -0.406899,-0.574131 -1.166473,-1.043888 -1.687944,-1.043888 -0.521474,0 -2.303162,-0.351126 -3.959309,-0.780293 -3.955736,-1.025029 -6.74438,-3.586175 -7.233204,-6.643143 -0.187664,-1.173624 -0.538644,-2.133861 -0.779945,-2.133861 -0.557667,0 -0.576958,-3.160924 -0.02319,-3.797755 0.228554,-0.262835 0.722399,-1.454747 1.097442,-2.648713 0.811715,-2.584087 4.212593,-6.631913 5.571981,-6.631913 0.813435,0 0.963716,-0.371669 0.966087,-2.389321 0.0015,-1.314127 0.234519,-3.223613 0.517727,-4.243294 0.567578,-2.043528 3.027995,-4.433715 4.563996,-4.433715 0.540772,0 1.105822,-0.396123 1.25566,-0.880274 0.14985,-0.484153 0.466788,-1.248535 0.704326,-1.698627 0.237539,-0.450093 0.596069,-1.695056 0.796736,-2.766583 1.164369,-6.217455 7.9203073,-14.887108 13.6906683,-17.56873 1.575367,-0.732112 3.54337302,-1.661419 4.37334602,-2.065128 C 3.4790283,9.2929599 10.238185,8.6861479 14.778721,9.3282629 c 2.229649,0.315315 4.304634,0.7772521 4.611076,1.0265301 0.306442,0.249278 1.57577,0.745239 2.820733,1.102136 3.072036,0.880667 6.181338,3.035803 9.929625,6.882471 l 3.138923,3.221312 2.544752,-0.545752 c 2.826491,-0.606173 7.603419,-0.644233 9.537445,-0.07599 0.902172,0.265071 1.683978,0.07323 2.766581,-0.678852 5.296089,-3.679204 12.078617,-3.670906 18.611554,0.02278 2.371216,1.340666 2.803706,1.412882 7.560996,1.262487 l 5.04592,-0.159526 2.54557,1.930993 c 3.60605,2.735449 5.7072,5.325184 6.52488,8.042128 0.93394,3.103241 0.90958,8.385628 -0.0472,10.235837 -1.287,2.48875 -3.82132,6.037193 -4.31181,6.037193 -0.25706,0 -0.47082,1.075195 -0.47502,2.389321 -0.0154,4.834096 -1.88011,8.337456 -5.77703,10.853982 -1.95345,1.261491 -7.08108,2.440133 -8.746451,2.010452 -0.472874,-0.122054 -1.884902,0.801301 -3.387865,2.215269 -1.417375,1.333453 -3.341407,2.792536 -4.275627,3.242407 -0.934214,0.449871 -2.513702,1.213357 -3.509968,1.696651 -1.478476,0.717193 -2.6768,0.829342 -6.520171,0.610215 -2.784766,-0.158747 -4.785064,-0.497343 -4.895476,-0.828563 -0.329214,-0.987652 -2.677459,-0.599435 -4.218711,0.69744 -0.821972,0.691661 -1.886583,1.257541 -2.365795,1.257541 -0.479212,0 -1.310681,0.332341 -1.847709,0.738524 -1.092729,0.82651 -4.029849,1.02423 -4.476608,0.301352 -0.159488,-0.258044 -1.547343,-0.730197 -3.084139,-1.049249 -2.643868,-0.548865 -2.893684,-0.511773 -4.644115,0.68936 -2.01874,1.385241 -5.775327,2.822213 -7.408259,2.83381 -0.567149,0.0038 -1.293215,0.269357 -1.613481,0.589607 -0.441053,0.441069 -0.758621,0.435973 -1.309221,-0.02091 -0.568859,-0.472115 -0.783616,-0.462001 -0.987639,0.04658 -0.199506,0.497229 -0.270035,0.502153 -0.300421,0.02091 -0.02182,-0.345821 -0.393308,-0.62877 -0.825474,-0.62877 -1.813681,0 -5.7387497,-1.690168 -7.0124487,-3.01963 -1.333503,-1.391876 -2.765104,-1.533798 -2.765104,-0.274128 0,0.838525 -1.482149,2.126009 -3.818903,3.317351 -1.38957398,0.708448 -2.949433,0.982424 -5.59323,0.982424 -2.016442,0 -3.666254,-0.195572 -3.666254,-0.434643 z M 19.657085,73.702389 c 1.404398,-0.324166 2.55345,-0.77687 2.55345,-1.006017 0,-0.229146 0.344032,-0.41662 0.764517,-0.41662 1.050658,0 4.239149,-2.097948 5.838153,-3.841348 0.72656,-0.792175 2.278516,-2.861149 3.448791,-4.597706 1.806456,-2.680596 2.079725,-3.413511 1.809605,-4.853373 -0.174983,-0.932784 -0.781358,-2.284832 -1.347481,-3.004534 -2.058573,-2.617059 -0.03008,-1.226894 2.567353,1.759465 3.754293,4.31641 7.017039,6.74284 10.411659,7.742945 1.603627,0.472438 3.407635,1.091664 4.008903,1.376058 1.602928,0.758125 9.552591,0.758563 10.310606,4.95e-4 0.340028,-0.340023 1.036918,-0.618238 1.548642,-0.618238 3.699738,0 8.389256,-5.730321 8.414624,-10.282189 0.01027,-1.851919 0.05968,-1.918156 0.749573,-1.006037 0.848756,1.122159 1.010376,3.535395 0.267503,3.994506 -0.669995,0.414092 -0.642843,2.117796 0.04049,2.5401 0.615573,0.38046 7.001713,-2.704493 7.001713,-3.382313 0,-0.242132 0.5485,-0.648752 1.21889,-0.90364 1.50693,-0.572933 4.31513,-6.197835 4.31239,-8.63786 -10e-4,-0.927611 -0.65007,-2.989047 -1.44228,-4.579832 -0.79221,-1.590783 -1.31143,-2.892336 -1.15384,-2.892336 0.15761,0 1.03039,0.720961 1.93952,1.602139 l 1.65299,1.602137 1.22569,-1.151471 c 1.80298,-1.693819 2.53274,-5.31229 1.80233,-8.93684 -1.44465,-7.168874 -6.9136,-11.016523 -15.12836,-10.643472 -2.139778,0.09717 -3.776334,-0.008 -3.636777,-0.233873 0.435063,-0.70395 -1.383441,-2.285986 -3.04082,-2.645407 -0.870453,-0.188766 -1.743612,-0.596848 -1.940355,-0.906846 -0.219601,-0.346018 -2.0646,-0.564381 -4.778643,-0.565573 -3.966515,-0.0018 -4.638175,0.139317 -6.534495,1.372351 -2.359086,1.533937 -4.677134,4.600342 -4.677134,6.187095 0,0.572091 -0.282946,1.340089 -0.628769,1.706661 -0.503014,0.533195 -0.503014,0.712606 0,0.897041 0.672421,0.246553 0.894119,3.66782 0.237679,3.66782 -0.215104,0 -0.92264,-0.372312 -1.572304,-0.827354 -1.071763,-0.750695 -1.154227,-1.088605 -0.889959,-3.646858 0.160192,-1.550728 0.434535,-3.302491 0.609651,-3.892809 0.2545,-0.857919 -0.0087,-1.236453 -1.311311,-1.886305 -0.896342,-0.447107 -2.342732,-0.812958 -3.21421,-0.812958 -2.726723,0 -9.327259,3.714047 -9.327259,5.248341 0,0.821329 1.735094,1.746505 5.698907,3.03874 1.964374,0.640397 3.654976,1.414534 3.756897,1.720295 0.281085,0.843256 -0.714008,0.672935 -3.321467,-0.568497 -1.931446,-0.919581 -3.435989,-1.156306 -8.258198,-1.299347 l -5.896476,-0.174907 -3.852948,1.853193 c -5.05705,2.432344 -7.924009,5.104736 -9.234761,8.608038 -0.563537,1.506183 -1.0246097,3.476995 -1.0246097,4.379591 0,0.902594 -0.207192,1.85612 -0.460421,2.118946 -0.253232,0.262824 -0.536178,1.043755 -0.628768,1.735401 -0.09259,0.691645 -0.394706,1.205677 -0.671364,1.142292 -0.781428,-0.179032 -0.897374,-3.610833 -0.228806,-6.772378 l 0.605543,-2.863497 -1.695234,-1.548355 c -2.040265,-1.863501 -4.213379,-2.52918 -8.238786,-2.523762 -4.358644,0.0059 -4.982806,0.295022 -6.860229,3.178133 -1.5486613,2.378245 -1.6910263,2.923423 -1.6910263,6.475845 0,3.77892 -0.01654,3.831137 -0.641766,2.024211 -0.352969,-1.020118 -0.862273,-2.075272 -1.131783,-2.344782 -0.732263,-0.732264 -0.591355,-3.500612 0.261408,-5.135707 0.413281,-0.792435 0.752817,-1.976462 0.75452,-2.631175 0.003,-1.147268 -0.111484,-1.183088 -3.160733,-0.988924 -6.047221,0.385058 -9.013852,4.042036 -7.940363,9.788133 0.323817,1.733313 0.901026,2.829 2.01436,3.823763 1.792311,1.601421 1.633011,1.722126 -0.768688,0.582456 -0.94095,-0.44651 -1.710819,-1.117617 -1.710819,-1.491349 0,-0.37373 -0.477833,-0.935239 -1.061854,-1.247793 -0.921885,-0.493382 -1.323891,-0.313378 -3.049765,1.365591 -2.975625,2.894746 -3.928919,4.725428 -4.053058,7.783385 -0.09519,2.345004 0.105249,2.99501 1.517933,4.922633 1.510795,2.061483 4.691333,4.066807 6.450171,4.066807 0.384776,0 0.699592,0.242093 0.699592,0.53799 0,0.295896 0.490003,0.465669 1.088897,0.377265 0.767707,-0.113309 1.249917,-0.716527 1.634799,-2.045019 0.300244,-1.036341 1.111793,-2.275383 1.803438,-2.75341 l 1.257537,-0.869153 -0.880274,1.352427 c -1.171306,1.799561 -1.110446,3.567259 0.190893,5.544768 1.037172,1.576061 4.711142,3.891311 6.17499,3.891311 0.395035,0 0.8124513,0.28293 0.9276013,0.62877 0.14772,0.443674 1.603747,0.62877 4.946311,0.62877 4.44114502,0 4.87830902,-0.09525 7.000525,-1.524957 2.077968,-1.399899 2.276041,-1.717165 2.415694,-3.869296 0.121066,-1.86574 -0.12502,-2.763144 -1.205396,-4.395707 -0.746634,-1.128243 -1.216686,-2.192188 -1.044555,-2.364319 0.582908,-0.582914 1.888282,0.986949 3.168144,3.810036 0.700921,1.54608 1.528944,3.335678 1.840044,3.976863 0.688436,1.418892 4.5784657,4.138899 6.6469187,4.647706 2.227818,0.548009 2.934384,0.533846 5.746296,-0.11521 z m 20.12107,-3.856633 c 0.159184,-0.246676 0.798713,-0.60744 1.421192,-0.8017 0.622481,-0.194261 1.131785,-0.59839 1.131785,-0.898051 0,-0.773885 -5.913403,-6.218994 -6.530483,-6.013289 -0.281445,0.09373 -0.511727,0.445138 -0.511727,0.78073 0,0.335574 -0.774456,1.83844 -1.721014,3.33969 -1.822348,2.890236 -1.834063,3.306704 -0.113823,4.046844 1.254217,0.539625 5.897986,0.206086 6.324064,-0.454224 z M 11.629771,35.00423 c 0.912982,-1.136089 2.401445,-2.375422 3.307695,-2.754076 0.906248,-0.378656 1.725054,-0.863858 1.819567,-1.078233 0.09451,-0.21437 1.643158,-1.131815 3.441437,-2.038764 2.390955,-1.205863 3.945473,-1.649482 5.784672,-1.650797 2.406311,-0.0017 4.275626,-0.796314 4.275626,-1.817453 0,-0.263561 0.679071,-1.129796 1.509045,-1.924961 0.829975,-0.795166 1.509044,-1.646569 1.509044,-1.892005 0,-0.67805 -5.60342,-6.407742 -6.266529,-6.407742 -0.319128,0 -1.330157,-0.553279 -2.246736,-1.22951 -0.916579,-0.67623 -2.941174,-1.6188 -4.499108,-2.094597 -1.557927,-0.475798 -3.142731,-1.104581 -3.521782,-1.397297 -0.955196,-0.7376311 -11.7828667,-0.7234941 -12.6889837,0.01654 -0.388437,0.317252 -1.724853,0.866685 -2.969816,1.220962 -1.24496198,0.354279 -3.312499,1.396261 -4.594528,2.315517 -1.282024,0.919256 -2.526986,1.681807 -2.766582,1.694559 -0.791967,0.04215 -7.2263213,7.909363 -7.2263213,8.835543 0,0.202308 -0.313973,0.725189 -0.697724,1.16196 -0.541358,0.616171 -2.320366,6.972115 -2.320366,8.290105 0,0.218 2.68782,0.881301 4.275626,1.055143 0.276659,0.03029 1.149601,0.329224 1.939878,0.664292 1.2327483,0.522678 1.6699133,0.465183 3.0774593,-0.40473 0.902334,-0.557673 2.191093,-1.013947 2.863917,-1.013947 0.672828,0 1.474105,-0.25079 1.780627,-0.557312 0.397029,-0.397028 1.040778,-0.40714 2.23841502,-0.03515 0.924608,0.287181 2.69971198,0.677984 3.94467498,0.868455 1.244962,0.190471 3.055814,0.762184 4.024118,1.270465 0.968304,0.508286 1.892438,0.934164 2.05363,0.946387 0.16118,0.01217 1.0400587,-0.907292 1.9530447,-2.043377 z m -43.493346,1.059582 c 0.170991,-0.276658 0.537236,-0.503016 0.813894,-0.503016 0.276659,0 0.363121,0.226358 0.192137,0.503016 -0.17099,0.276659 -0.537235,0.503014 -0.813894,0.503014 -0.276658,0 -0.363121,-0.226355 -0.192137,-0.503014 z m -8.07437,-10.002597 c -0.688204,-0.688202 0.03133,-1.063733 2.038191,-1.063733 1.244963,0 2.263567,0.202582 2.263567,0.450181 0,0.462421 -3.897062,1.018252 -4.301758,0.613552 z m 10.835682,-2.048801 c 2.902008,-0.524533 5.350967,-0.879119 5.442118,-0.787964 0.268609,0.268611 -4.436426,1.162888 -7.700413,1.463604 -1.919929,0.176883 -1.09823,-0.06896 2.258295,-0.67564 z m 6.041449,-1.480797 c 0,-0.249596 0.64894,-0.68003 1.44209,-0.956523 1.806597,-0.629783 2.458348,-2.714453 1.368617,-4.377599 -0.415967,-0.634846 -2.1264,-2.230673 -3.800962,-3.546282 -1.674556,-1.315608 -2.944518,-2.492151 -2.822129,-2.614539 0.309199,-0.309198 7.279012,5.373905 7.812008,6.369816 0.71247,1.331264 -0.0015,3.516917 -1.496747,4.581589 -1.495288,1.064738 -2.502877,1.28355 -2.502877,0.543538 z M 34.115217,11.583752 c -0.726615,-0.726615 -0.273676,-4.0540751 0.87774,-6.4481391 0.667195,-1.387263 1.372618,-2.975008 1.567606,-3.528325 0.211997,-0.601582 0.446467,-0.76068205 0.583227,-0.395747 0.12578,0.335655 -0.342479,1.747475 -1.040588,3.137376 -2.478414,4.934414 -2.242048,6.7326061 0.946267,7.1987931 1.261436,0.18445 1.172019,0.233015 -0.544931,0.296018 -1.129691,0.04145 -2.204886,-0.07553 -2.389321,-0.259976 z M -29.222745,9.6193229 c -1.880492,-1.020183 -1.766027,-1.445088 0.125761,-0.466811 0.829974,0.429198 1.509045,0.8877231 1.509045,1.0189471 0,0.323689 -0.05405,0.305436 -1.634799,-0.5521361 z m 50.024833,-6.8551 c -0.691042,-0.691043 -0.833808,-6.986726 -0.175096,-7.721279 0.235688,-0.262826 0.705575,-2.416323 1.044188,-4.785549 0.338616,-2.3692279 0.844482,-4.6327949 1.124154,-5.0301509 0.379298,-0.538908 0.435268,-0.402964 0.220294,0.535074 -0.708223,3.090369 -1.855837,12.7752919 -1.715039,14.47351585 0.124964,1.50716305 0.37865,1.90615905 1.294655,2.03618705 0.626586,0.08894 1.00935,0.371889 0.850588,0.628768 -0.40716,0.658803 -1.926883,0.580298 -2.643749,-0.13656 z M -18.47379,1.7330419 c 0.172645,-1.04385205 -0.61569,-3.315978 -1.366777,-3.939325 -0.387844,-0.321881 -0.705172,-0.814405 -0.705172,-1.094497 0,-0.280094 0.452714,0.06627 1.006031,0.7697 0.553315,0.703428 1.006028,1.514955 1.006028,1.80339295 0,0.288438 0.374506,0.734017 0.832234,0.990175 0.500832,0.280278 0.70742,0.79099805 0.518804,1.28253305 -0.366432,0.954893 -1.443929,1.111804 -1.291148,0.188025 z m 42.696379,0.183614 c 0,-0.244841 0.622481,-0.843375 1.38329,-1.33007705 l 1.383291,-0.884916 -1.219464,1.33007805 c -1.318522,1.438116 -1.547117,1.568868 -1.547117,0.884915 z M -2.4299087,-0.27900915 c -1.18564,-0.89913995 -2.747507,-2.02973295 -3.470822,-2.51242695 -0.723311,-0.482695 -1.007981,-0.878821 -0.632601,-0.880277 0.375378,-0.0015 1.81194,0.896617 3.192354,1.995719 3.75372802,2.988766 6.758005,3.26336 8.163876,0.74618695 0.295149,-0.52845295 0.785449,-1.19239495 1.08956,-1.47542795 0.304109,-0.283031 0.957817,-1.872744 1.452677,-3.532693 0.494866,-1.65995 1.038299,-3.244446 1.207628,-3.521104 0.169336,-0.276659 0.582085,-1.8611549 0.917239,-3.5211039 l 0.6093667,-3.01809 -0.2438257,3.735196 c -0.134108,2.054358 -0.443333,3.9783889 -0.68717,4.2756259 -0.243835,0.297237 -0.841871,1.763543 -1.328965,3.258459 -0.487094,1.494915 -1.55073,3.475537 -2.363631,4.40138195 -2.063493,2.35019105 -4.84810298,2.36729405 -7.905686,0.04856 z m -21.7312503,0.285151 c 0.363112,-0.145306 0.796962,-0.127435 0.964114,0.03972 0.16715,0.16715 -0.129945,0.286035 -0.660206,0.264194 -0.585989,-0.02414 -0.705178,-0.143328 -0.303908,-0.303906 z m 51.401837,-0.642617 c 0,-0.64427795 1.439658,-2.26978895 1.741207,-1.96598395 0.101351,0.102092 -0.248972,0.720016 -0.778477,1.373146 -0.529503,0.65312995 -0.96273,0.91990795 -0.96273,0.59283795 z M 29.55689,-3.0861671 c -0.147606,-0.238835 0.455693,-1.091364 1.340667,-1.894511 0.884978,-0.803146 1.216466,-0.989728 0.73664,-0.414627 -0.479826,0.5751 -0.872415,1.297402 -0.872415,1.605112 0,0.745532 -0.866377,1.251761 -1.204892,0.704026 z m -37.9905477,-1.727393 c -0.669799,-0.341743 -1.311144,-0.904298 -1.425207,-1.250122 -0.3416823,-1.035887 0.627914,-0.713064 1.888499,0.62877 1.332858,1.418764 1.268574,1.504986 -0.463292,0.621352 z m 42.1430417,-3.234166 c 0.64129,-1.222696 1.579532,-1.9755609 1.579532,-1.267446 0,0.250107 -0.485651,0.885946 -1.079223,1.412978 -1.071729,0.951583 -1.075204,0.950572 -0.500309,-0.145532 z m 4.031117,-4.5536209 c 1.191667,-1.451615 2.429114,-2.801187 2.749877,-2.999048 0.843752,-0.520463 -2.359397,3.440508 -3.746049,4.632318 -0.643778,0.553317 -0.1955,-0.181656 0.996172,-1.63327 z m -27.522909,-4.654417 c 0,-0.691646 0.114165,-0.974591 0.253715,-0.628769 0.139546,0.345823 0.139546,0.911714 0,1.257539 -0.139545,0.345823 -0.253715,0.06287 -0.253715,-0.62877 z m 31.894365,-0.650463 c 0.188899,-0.496082 0.470164,-0.775256 0.625036,-0.620384 0.154868,0.154868 3.23e-4,0.560758 -0.343448,0.901971 -0.496788,0.493088 -0.554564,0.43531 -0.281588,-0.281587 z m -31.431058,-2.158045 c 0.02414,-0.585983 0.143328,-0.705176 0.303902,-0.303904 0.145306,0.363114 0.127435,0.796964 -0.0397,0.964112 -0.16715,0.16715 -0.286033,-0.129944 -0.264193,-0.660208 z"
         id="path156"
         inkscape:connector-curvature="0" />
    </g>
  </g>
</svg>
