<?xml version="1.0" encoding="UTF-8" standalone="no"?>
<!-- Created with Inkscape (http://www.inkscape.org/) -->

<svg
   xmlns:dc="http://purl.org/dc/elements/1.1/"
   xmlns:cc="http://creativecommons.org/ns#"
   xmlns:rdf="http://www.w3.org/1999/02/22-rdf-syntax-ns#"
   xmlns:svg="http://www.w3.org/2000/svg"
   xmlns="http://www.w3.org/2000/svg"
   xmlns:sodipodi="http://sodipodi.sourceforge.net/DTD/sodipodi-0.dtd"
   xmlns:inkscape="http://www.inkscape.org/namespaces/inkscape"
   width="209.99998mm"
   height="220.91879mm"
   viewBox="0 0 209.99999 220.91878"
   version="1.1"
   id="svg8"
   inkscape:version="0.92.3 (2405546, 2018-03-11)"
   sodipodi:docname="coalition_break.svg">
  <defs
     id="defs2" />
  <sodipodi:namedview
     id="base"
     pagecolor="#ffffff"
     bordercolor="#666666"
     borderopacity="1.0"
     inkscape:pageopacity="0.0"
     inkscape:pageshadow="2"
     inkscape:zoom="0.7"
     inkscape:cx="88.947794"
     inkscape:cy="425.33262"
     inkscape:document-units="mm"
     inkscape:current-layer="layer1"
     showgrid="false"
     fit-margin-top="0"
     fit-margin-left="0"
     fit-margin-right="0"
     fit-margin-bottom="0"
     inkscape:window-width="1920"
     inkscape:window-height="1017"
     inkscape:window-x="-8"
     inkscape:window-y="-8"
     inkscape:window-maximized="1" />
  <metadata
     id="metadata5">
    <rdf:RDF>
      <cc:Work
         rdf:about="">
        <dc:format>image/svg+xml</dc:format>
        <dc:type
           rdf:resource="http://purl.org/dc/dcmitype/StillImage" />
        <dc:title></dc:title>
      </cc:Work>
    </rdf:RDF>
  </metadata>
  <g
     inkscape:label="Layer 1"
     inkscape:groupmode="layer"
     id="layer1"
     transform="translate(-244.21792,573.02886)">
    <path
       style="fill:#000000;stroke-width:0.6205281"
       d="m 275.24379,-352.78446 c 0.2078,-0.85324 0.68507,-3.39414 1.06057,-5.64646 0.60518,-3.62963 0.54847,-4.37023 -0.49889,-6.51553 -0.76785,-1.57281 -1.67061,-2.48987 -2.57786,-2.61872 -0.7679,-0.10905 -1.39619,0.10038 -1.39619,0.4654 0,0.36503 -0.3554,0.66368 -0.7898,0.66368 -0.4344,0 -2.27382,0.97733 -4.08761,2.17184 -1.81378,1.19454 -3.53237,2.17187 -3.81911,2.17187 -0.28671,0 -1.08348,0.71466 -1.77056,1.58817 -1.5513,1.97212 -4.69378,4.49015 -4.36088,3.49429 0.4547,-1.36028 8.17694,-8.77899 9.95947,-9.56802 0.97121,-0.42989 1.76585,-0.97958 1.76585,-1.22152 0,-0.45178 4.01886,-1.72962 5.45925,-1.73581 0.44291,-0.002 1.49007,0.73542 2.32699,1.63848 1.3075,1.41084 1.52168,2.24053 1.52168,5.89501 0,2.42171 -0.2672,4.25309 -0.62052,4.25309 -0.34129,0 -0.62052,0.52643 -0.62052,1.16981 0,0.64339 -0.43419,2.10939 -0.96484,3.25777 -0.65291,1.41293 -0.84269,1.58643 -0.58703,0.53665 z m 35.37064,-2.00375 c -5.82934,-2.08146 -13.46851,-9.13369 -14.21727,-13.12491 -0.52715,-2.81004 0.71199,-5.12824 3.05562,-5.71646 0.84891,-0.21296 1.54347,-0.60528 1.54347,-0.87159 0,-0.5135 4.29838,-1.49499 4.71643,-1.07694 0.13532,0.13533 -0.52157,0.62775 -1.4596,1.09446 -5.83568,2.90339 -6.97854,5.23812 -4.18763,8.55492 0.85322,1.01401 1.55132,2.12027 1.55132,2.45837 0,0.33807 0.7679,1.11334 1.70647,1.72276 0.93854,0.60945 2.96301,2.16179 4.49881,3.44966 1.53582,1.28788 3.76972,2.76509 4.96423,3.28272 2.52603,1.0946 0.77153,1.27801 -2.17185,0.22703 z m -58.63991,-15.94077 c 0,-0.62793 2.41435,-2.19504 2.78476,-1.80753 0.10789,0.11305 -0.4744,0.70711 -1.29421,1.32029 -0.8198,0.6132 -1.49055,0.83244 -1.49055,0.48724 z m 4.33217,-2.87919 c 0.5056,-0.66278 1.64,-1.90314 2.52087,-2.75636 2.55465,-2.47444 4.31646,-5.34038 4.31646,-7.02158 0,-1.64992 -3.08904,-4.76845 -4.72339,-4.76845 -0.49777,0 -1.53676,-0.41395 -2.30888,-0.91985 -0.77212,-0.50591 -3.7641,-1.33872 -6.64884,-1.85068 l -5.24499,-0.93085 5.89501,0.27492 c 6.48362,0.30238 9.81134,1.17943 11.04957,2.91225 0.44596,0.62411 1.20856,1.13473 1.69462,1.13473 0.48609,0 1.05947,0.69993 1.27418,1.55541 0.47983,1.91182 -0.20615,5.89093 -1.0154,5.89093 -0.32581,0 -0.5924,0.36338 -0.5924,0.80753 0,0.79368 -4.38119,5.26448 -6.20527,6.3322 -0.82442,0.48255 -0.82573,0.4071 -0.0117,-0.6602 z m 12.51768,-1.52278 c 0.34596,-0.99242 2.92881,-4.55472 5.73968,-7.91622 2.81085,-3.3615 5.2918,-6.5839 5.51322,-7.16091 0.2214,-0.57702 0.6906,-1.04913 1.04261,-1.04913 0.35198,0 0.63999,-0.31166 0.63999,-0.69261 0,-0.6622 3.5593,-4.91339 11.31468,-13.51415 1.96789,-2.18243 3.57799,-4.32169 3.57799,-4.75393 0,-0.43224 0.76792,-1.4414 1.70647,-2.24256 0.93854,-0.80118 2.47105,-2.57125 3.40561,-3.93347 0.93453,-1.36222 2.16033,-3.11257 2.724,-3.88964 1.20563,-1.66209 0.82555,-2.35203 -0.79471,-1.44259 -0.63048,0.3539 -2.8976,1.06711 -5.03804,1.5849 -2.14044,0.51782 -5.07242,1.46713 -6.51553,2.10963 -3.2807,1.46058 -6.03676,2.13375 -6.03676,1.47447 0,-0.54728 14.28367,-14.5903 28.86205,-28.37573 6.70327,-6.33867 8.88682,-8.74587 8.07645,-8.90371 -0.90447,-0.17613 -7.14075,0.77845 -13.60651,2.08277 -0.8517,0.17191 -0.51538,-0.44164 1.21186,-2.21049 1.3149,-1.34658 2.69518,-2.44834 3.06731,-2.44834 0.3721,0 1.9943,-1.39618 3.60489,-3.10264 1.61057,-1.70645 3.10272,-3.10265 3.31591,-3.10265 0.41296,0 7.40825,-6.06918 13.55897,-11.76393 2.04773,-1.89594 4.79964,-4.37007 6.11531,-5.49807 1.31566,-1.12797 2.26481,-2.1782 2.10922,-2.33381 -0.43229,-0.43228 -9.3655,1.56247 -10.04632,2.24329 -0.82071,0.82069 -2.83218,0.75549 -2.83218,-0.0917 0,-0.61071 2.71468,-3.63594 10.73048,-11.95806 2.4573,-2.55122 2.70301,-3.8346 0.94603,-4.94099 -0.77222,-0.48628 -2.63159,-0.27804 -7.13608,0.79918 -3.35047,0.80123 -6.35704,1.69552 -6.68125,1.98729 -0.76192,0.68568 -11.69821,0.69396 -12.47263,0.009 -0.32421,-0.2866 -1.56682,-0.89354 -2.76133,-1.34876 -1.19454,-0.4552 -3.00957,-1.7117 -4.03343,-2.79216 -1.7306,-1.82626 -2.24483,-1.99369 -7.30743,-2.37928 -2.99521,-0.2282 -5.92721,-0.66319 -6.51555,-0.96676 -0.58835,-0.30358 -2.25801,-1.04261 -3.71039,-1.64225 -5.30271,-2.18939 -10.18356,-8.4877 -10.18356,-13.14097 0,-1.53737 0.30249,-3.0977 0.67223,-3.46744 0.84499,-0.84499 0.88437,-5.18389 0.0516,-5.6985 -1.87976,-1.16177 0.66435,-7.70497 4.47906,-11.51968 2.88313,-2.88313 2.86333,-1.59009 -0.0237,1.54185 -3.8621,4.18988 -4.49695,8.27657 -0.80284,5.16818 1.71019,-1.43903 6.01647,-2.79262 6.70233,-2.10676 0.16488,0.16487 -0.79438,1.36958 -2.13157,2.67725 -5.56452,5.44158 -8.27297,11.25528 -7.30236,15.67439 0.99818,4.54471 10.12756,10.48848 16.52911,10.76145 l 3.33755,0.14236 0.19443,-2.01673 c 0.10694,-1.10919 0.45599,-2.01673 0.77566,-2.01673 0.31966,0 0.58121,-0.37018 0.58121,-0.82261 0,-1.09136 2.42324,-3.26623 4.26198,-3.82512 1.10544,-0.33601 1.38453,-0.23835 1.12624,0.39406 -1.63475,4.00299 -1.83952,5.56798 -1.04394,7.9786 0.45022,1.36419 1.03913,2.48037 1.3087,2.48037 0.26955,0 1.83046,0.90752 3.4687,2.0167 2.91732,1.97522 3.12033,2.01673 9.86573,2.01673 4.25121,0 7.45738,-0.29359 8.37714,-0.76705 0.8195,-0.42188 2.60315,-1.11998 3.96366,-1.55133 1.64877,-0.52274 2.53977,-1.1981 2.67205,-2.02531 0.32768,-2.0497 1.48359,-4.65397 2.06565,-4.65397 0.29989,0 0.54526,1.24235 0.54526,2.7608 0,2.40152 0.27006,2.9668 2.07529,4.34368 1.14141,0.8706 2.32264,1.58292 2.62495,1.58292 0.74084,0 11.43347,-10.67816 11.43347,-11.41797 0,-0.32154 -0.48864,-1.13283 -1.08592,-1.80288 -0.80568,-0.90388 -0.0607,-0.68748 2.88636,0.83861 4.06713,2.10597 7.74122,2.63887 11.38579,1.65142 1.90549,-0.51627 2.29237,-2.28259 0.77567,-3.54133 -0.51194,-0.42488 -0.93079,-1.30327 -0.93079,-1.952 0,-0.98648 0.51686,-0.77095 3.15835,1.31705 1.7371,1.37308 3.6685,2.49653 4.29198,2.49653 0.6235,0 1.27448,0.34905 1.44663,0.77566 0.17214,0.42661 0.33503,0.17355 0.36197,-0.56214 0.0441,-1.20087 0.20733,-1.26438 1.59547,-0.62052 0.85057,0.3945 1.54865,0.9267 1.55132,1.18266 0.007,0.69993 4.21697,0.55978 4.6588,-0.15502 0.21085,-0.34129 1.13492,-0.62155 2.05334,-0.62284 2.00784,-0.002 5.48864,-1.99806 7.41775,-4.25202 l 1.4042,-1.64068 -0.75343,1.86159 c -1.95514,4.83074 -4.73857,6.60576 -11.67318,7.44408 -1.53582,0.18575 -2.88545,0.61117 -2.99922,0.94556 -0.11375,0.33442 -0.54575,0.60802 -0.96,0.60802 -0.78169,0 -5.78472,4.81411 -5.30839,5.10795 4.32122,2.66567 8.14435,3.19553 10.60772,1.47011 1.97284,-1.38183 2.46972,-1.2444 2.01733,0.55802 -0.37968,1.51283 -0.30533,1.5513 2.99824,1.5513 4.37101,0 6.83714,-0.89169 9.55483,-3.4548 1.58531,-1.49515 2.28843,-2.76767 2.5318,-4.58209 0.38996,-2.90737 0.97684,-3.13649 2.41437,-0.94255 0.79321,1.2106 0.93714,2.34584 0.62941,4.96423 l -0.39898,3.39469 h 3.45742 c 4.6884,0 10.84604,-2.91392 12.66213,-5.99197 1.40043,-2.37352 1.22075,-3.31595 -0.63213,-3.31595 -0.66243,0 -1.20434,-0.20944 -1.20422,-0.46541 1.2e-4,-0.25596 2.58307,-0.49997 5.7399,-0.54223 5.50817,-0.0736 10.40202,-1.18944 10.82842,-2.46864 0.29523,-0.88564 -5.99785,-2.11199 -8.81193,-1.71723 -2.85661,0.40072 -6.62558,-0.41109 -6.99044,-1.50566 -0.16346,-0.49069 0.52108,-0.74717 1.99443,-0.74717 3.173,0 6.07731,-1.37594 7.94701,-3.76496 l 1.60695,-2.05334 0.54191,2.09128 c 0.71609,2.7635 1.5304,2.9204 3.94757,0.76068 2.13284,-1.90568 2.06213,-2.9233 -0.2684,-3.86363 -1.01964,-0.41139 -0.58902,-0.54695 1.83332,-0.57704 2.21266,-0.0274 3.79358,-0.46226 5.25017,-1.44386 3.74452,-2.5234 6.8125,-8.28828 5.00533,-9.40518 -0.29722,-0.18364 -0.70911,-1.17748 -0.91528,-2.20846 -0.20615,-1.03097 -0.6406,-1.8745 -0.9653,-1.8745 -0.32474,0 -1.33601,1.52395 -2.2473,3.38657 -1.73372,3.54359 -4.32809,5.39363 -8.82476,6.29296 -1.27852,0.25571 -2.1256,0.86666 -2.38342,1.71899 -0.46716,1.54453 -2.68762,4.11467 -3.55484,4.11467 -0.32949,0 -0.9153,0.43248 -1.30181,0.96106 -0.85449,1.16857 -6.54511,1.85185 -10.49279,1.25985 -1.68731,-0.25303 -3.72284,-1.14631 -5.09264,-2.23489 l -2.28186,-1.81341 -1.95291,1.45977 c -1.07408,0.80286 -3.3039,1.65369 -4.95516,1.89071 -2.61522,0.37541 -3.32102,0.21999 -5.47513,-1.20551 l -2.47289,-1.63648 -2.08493,1.59025 c -3.04258,2.32068 -7.39347,2.23306 -10.46873,-0.21084 -2.17022,-1.72466 -4.24272,-1.97162 -5.08663,-0.60612 -0.52934,0.85646 -6.05008,0.63846 -8.85021,-0.34947 -1.39534,-0.49231 -3.35043,-1.49652 -4.34465,-2.23158 l -1.80767,-1.33647 -2.59719,1.8814 c -4.39819,3.18602 -13.01024,3.23525 -17.41394,0.0997 l -1.71817,-1.22345 -0.78312,1.8906 c -0.90301,2.1801 -3.86431,4.62881 -6.347,5.24837 -0.94178,0.23502 -1.86576,0.67563 -2.05334,0.97911 -0.46073,0.74548 -8.79765,0.70704 -9.05859,-0.0417 -0.11375,-0.32647 -1.44138,-1.24484 -2.95027,-2.04089 -3.93917,-2.0781 -5.25102,-4.11016 -5.29063,-8.19526 -0.03,-3.08839 0.16816,-3.58604 2.29417,-5.76447 1.27984,-1.31136 2.32699,-2.98417 2.32699,-3.71735 0,-0.83721 1.15415,-2.30628 3.10262,-3.94928 2.78306,-2.34669 3.10265,-2.87539 3.10265,-5.13265 0,-2.29505 0.37884,-2.88714 4.30504,-6.72868 2.36775,-2.31671 3.91305,-4.21221 3.43395,-4.21221 -1.51631,0 -5.48911,2.11256 -7.00169,3.72317 l -1.45688,1.55132 0.4142,-1.55132 c 0.22773,-0.85322 0.45954,-2.0728 0.51494,-2.71018 0.14892,-1.71444 -2.96083,-3.77714 -5.69454,-3.77714 -2.52005,0 -7.61966,1.44166 -8.23795,2.32886 -0.2099,0.30114 -1.02246,0.87133 -1.80579,1.26708 -2.40675,1.21592 -4.86019,6.41515 -4.90747,10.39975 -0.0347,2.93191 0.25695,3.88657 1.86683,6.10895 1.80403,2.49039 2.04931,2.61964 4.49883,2.37049 1.42492,-0.14494 3.14923,-0.48242 3.83183,-0.74998 0.83031,-0.32545 0.62493,0.0429 -0.62054,1.1132 -2.27523,1.95509 -4.06899,2.03819 -7.55636,0.34999 -3.00665,-1.45552 -4.80116,-3.63566 -5.44687,-6.61744 -0.30632,-1.41454 -0.78882,-2.0167 -1.61591,-2.0167 -1.20812,0 -6.2314,1.80492 -6.78907,2.43937 -0.17074,0.1942 -1.42634,0.87002 -2.79046,1.50194 -2.42216,1.12206 -2.45561,1.1218 -1.42989,-0.0117 0.88603,-0.97905 0.94922,-1.59544 0.404,-3.94131 -0.808,-3.47672 -0.24438,-11.81624 0.95278,-14.09747 1.49633,-2.85133 5.41732,-6.10665 9.88318,-8.2053 l 4.22724,-1.98654 2.87551,1.35164 2.87548,1.35165 1.58465,-1.80875 c 4.11812,-4.70043 10.22768,-6.79092 15.12416,-5.17493 2.37851,0.78499 6.62766,4.31801 6.62766,5.51069 0,1.03252 0.94269,0.90803 1.90507,-0.25156 0.44877,-0.54073 2.08059,-1.85326 3.62628,-2.91671 2.37371,-1.63316 3.34335,-1.92139 6.24097,-1.85526 l 3.43064,0.0783 4.08113,4.49273 c 3.78933,4.1715 5.53705,5.05999 5.53705,2.81486 0,-1.26682 3.40336,-4.1492 5.92116,-5.01478 1.51556,-0.52103 4.10478,-0.69695 7.36116,-0.50016 5.04233,0.30473 7.5231,1.10548 9.02273,2.91245 1.00456,1.21043 2.47319,1.24896 3.37846,0.0887 0.66848,-0.85683 3.4714,-1.24325 7.72732,-1.06528 1.67211,0.0699 2.86055,0.87311 6.13081,4.14337 3.5673,3.5673 4.17788,3.95388 5.06189,3.20484 3.50689,-2.97143 11.3887,-3.04939 15.18969,-0.15034 1.21055,0.92332 2.56156,2.49339 3.00229,3.48906 0.59953,1.35444 1.2227,1.81027 2.47479,1.81027 0.92041,0 1.84606,-0.27923 2.05699,-0.62052 0.46409,-0.75092 4.17075,-0.82702 4.99526,-0.10249 0.32422,0.28488 1.85443,0.98261 3.40048,1.5505 3.39729,1.24792 9.0941,6.50735 9.65386,8.91274 0.22256,0.95679 0.7238,2.01886 1.11364,2.36015 0.38984,0.34129 1.04847,1.38842 1.46359,2.32699 0.41514,0.93854 1.21648,1.70644 1.78074,1.70644 0.56428,0 2.02263,1.04713 3.24081,2.32699 1.94275,2.04109 2.24565,2.78997 2.46557,6.09565 0.19161,2.87923 0.0164,4.00374 -0.74539,4.76476 -0.54786,0.54787 -0.99612,1.24304 -0.99612,1.54485 0,0.74651 -3.15642,3.61151 -4.49883,4.08341 -0.59725,0.20991 -1.08592,0.6372 -1.08592,0.94938 0,0.31221 -0.55846,0.71368 -1.24104,0.89218 -0.90796,0.23744 -1.24106,0.84642 -1.24106,2.26894 0,2.41519 -2.19938,6.85919 -3.39469,6.85919 -0.48803,0 -1.11064,0.37935 -1.38356,0.84302 -0.66947,1.13733 -4.22786,2.23265 -8.95798,2.75739 -3.71388,0.41203 -3.98803,0.55945 -5.65345,3.04048 -3.00328,4.47404 -9.77004,8.25178 -14.78076,8.25178 -1.30211,0 -2.51175,0.23336 -2.68809,0.51876 -0.3779,0.61144 -2.24978,0.54922 -3.3168,-0.11023 -1.75229,-1.08297 -6.85513,-1.18464 -8.87533,-0.17684 -2.31333,1.15406 -8.06807,1.35153 -9.10707,0.31254 -0.7424,-0.74241 -2.32832,0.16769 -7.37189,4.23062 -1.40031,1.12802 -2.86632,2.05097 -3.25779,2.05097 -0.39146,0 -0.71173,0.28615 -0.71173,0.63588 0,0.34973 -0.62831,0.87623 -1.39621,1.16995 -0.7679,0.29375 -3.36931,2.17171 -5.78091,4.17321 -2.41158,2.00153 -5.85451,4.75609 -7.65092,6.12124 -4.98935,3.79163 -8.13152,6.5961 -8.13152,7.25759 0,0.65106 3.2498,0.17332 5.2745,-0.77526 1.95696,-0.91692 9.61818,-2.35138 9.61818,-1.80087 0,0.55246 -5.66302,5.54695 -6.2966,5.55326 -0.46043,0.005 -1.23419,0.64765 -11.38844,9.46463 -9.02384,7.83543 -13.34138,11.99564 -13.34138,12.85524 0,0.92347 1.99234,0.79332 3.44638,-0.22515 0.68223,-0.47785 2.88069,-1.07375 4.88548,-1.32425 3.56896,-0.44589 3.62677,-0.42926 2.76839,0.79623 -0.91912,1.31225 -7.05624,6.36105 -7.73223,6.36105 -0.21553,0 -3.64429,3.11015 -7.61972,6.91147 -3.97543,3.80131 -10.43064,9.59548 -14.34493,12.87595 -3.91429,3.28046 -10.78424,9.6644 -15.26656,14.1865 -4.48235,4.52209 -8.3645,8.222 -8.62701,8.222 -0.26254,0 -4.57916,3.98486 -9.5925,8.85525 -5.01335,4.87038 -10.54451,9.88212 -12.29148,11.13719 l -3.17629,2.28193 z m 13.02762,-11.29754 c 2.95163,-2.82644 12.02685,-11.72299 20.16717,-19.77015 8.14031,-8.04713 16.2835,-15.62328 18.09603,-16.83588 1.81249,-1.21259 6.55955,-5.13311 10.54898,-8.71226 3.98943,-3.57916 8.23063,-7.35888 9.42493,-8.39937 1.19427,-1.04049 2.01522,-2.04799 1.82432,-2.2389 -0.39441,-0.39441 -8.85547,1.81377 -10.97576,2.86446 -2.69621,1.33612 -2.2215,-0.20263 1.10015,-3.56608 1.84545,-1.86864 3.53993,-3.39755 3.76553,-3.39755 0.22562,0 2.74546,-2.37351 5.59964,-5.27449 2.85419,-2.90095 5.43048,-5.27449 5.72505,-5.27449 0.29457,0 2.42753,-1.60559 4.73988,-3.56803 2.31233,-1.96241 5.23486,-4.36322 6.49445,-5.33509 1.25962,-0.9719 2.17053,-1.88675 2.02426,-2.03303 -0.33615,-0.33613 -10.93008,2.16802 -12.37694,2.92563 -1.59922,0.83736 -3.07476,0.68356 -2.84631,-0.29668 0.11047,-0.4735 1.51955,-1.9395 3.13157,-3.25779 1.612,-1.31828 6.11242,-5.11945 10.00096,-8.44704 3.88851,-3.32758 7.38646,-6.05015 7.77318,-6.05015 0.38674,0 0.70314,-0.26134 0.70314,-0.58077 0,-0.49272 8.27048,-6.47081 11.64471,-8.41706 2.29103,-1.32143 2.6357,-1.65627 2.28658,-2.22119 -0.2078,-0.33631 -0.92923,-0.18645 -1.69953,0.35314 -0.73612,0.51559 -1.77992,0.93744 -2.31955,0.93744 -0.53963,0 -2.36235,0.66914 -4.05048,1.48697 -1.68814,0.81783 -4.95116,2.09616 -7.25118,2.84072 -2.29999,0.74457 -4.34094,1.61125 -4.53544,1.92594 -0.48768,0.78908 -1.52145,0.72008 -1.52145,-0.10155 0,-0.78359 12.6244,-13.59842 13.39637,-13.59842 0.82933,0 5.84002,-5.14459 5.84002,-5.99609 0,-1.4097 -4.17919,-1.67188 -7.91568,-0.4966 -2.99551,0.9422 -4.01736,0.99854 -6.98666,0.38524 -1.91287,-0.39509 -3.91771,-0.71837 -4.45518,-0.71837 -1.08574,0 -9.14788,7.69926 -11.84812,11.31485 -0.95182,1.27444 -3.23994,3.50834 -5.08473,4.96423 -1.8448,1.45587 -3.36976,2.90829 -3.3888,3.22758 -0.0188,0.31929 -0.62238,1.20615 -1.34072,1.97079 -0.72786,0.77477 -1.10557,1.7146 -0.85322,2.12294 0.26697,0.43196 0.61205,0.49233 0.84067,0.14705 0.40387,-0.60983 11.8447,-3.4998 12.25011,-3.09439 0.32039,0.32039 -13.47689,12.91868 -14.63479,13.36299 -0.51617,0.19818 -2.01048,1.42147 -3.32069,2.71868 -1.31022,1.29719 -2.50717,2.35851 -2.65988,2.35851 -0.15268,0 -1.17774,0.79588 -2.27782,1.76861 -11.0851,9.80166 -13.45257,12.04583 -13.17737,12.49111 0.3381,0.54704 2.68711,0.14987 3.73086,-0.631 0.34129,-0.25529 2.43557,-0.95628 4.65395,-1.55775 2.2184,-0.60146 4.52209,-1.33941 5.11935,-1.63989 1.28229,-0.64507 1.42419,0.17309 0.37731,2.17541 -0.78499,1.50154 -12.68154,13.44785 -13.41293,13.46906 -0.76503,0.0211 -23.44695,22.19128 -23.08118,22.55932 0.42352,0.42617 5.66306,-1.1172 8.9687,-2.64182 1.36518,-0.62962 3.59908,-1.34336 4.96423,-1.58605 1.36515,-0.24272 3.11543,-0.84924 3.88947,-1.34783 1.25003,-0.80516 1.44992,-0.79562 1.78804,0.0854 0.23697,0.61752 -0.11867,1.3417 -0.94197,1.91839 -0.72744,0.50954 -1.32263,1.27467 -1.32263,1.7003 0,0.42562 -1.00072,1.73618 -2.22377,2.9123 -3.96999,3.81764 -19.79215,21.78128 -20.25038,22.99117 -0.24497,0.64681 -0.73363,1.17603 -1.08592,1.17603 -0.35229,0 -0.64273,0.34905 -0.64543,0.77566 -0.002,0.42661 -2.2366,3.27829 -4.96423,6.33703 -2.72764,3.05877 -4.95933,5.93078 -4.95933,6.38225 0,1.3004 1.61575,0.10789 7.53846,-5.56357 z m 90.29112,-106.56648 c 1.41818,-0.36608 3.23321,-1.19871 4.03342,-1.85033 l 1.45494,-1.18475 -1.74686,-0.66874 c -2.66747,-1.02117 -3.3247,-0.84884 -6.00796,1.57534 -2.63152,2.37743 -3.19505,3.63069 -1.39796,3.10916 0.59725,-0.17331 2.24623,-0.61463 3.66442,-0.98068 z m -6.69993,-40.4642 c 0.80484,-0.29691 2.47407,-1.37298 3.70943,-2.39127 2.77051,-2.28369 3.69064,-2.37572 2.28367,-0.22843 -0.93273,1.4235 -0.95198,1.73447 -0.15667,2.52969 2.43748,2.4375 11.61408,1.05984 14.45875,-2.17065 0.80969,-0.91947 1.48096,-1.88121 1.49175,-2.1372 0.0117,-0.25597 -1.66969,-0.46538 -3.73438,-0.46538 -3.94831,0 -6.32809,-0.87257 -8.28881,-3.03912 -1.43662,-1.58746 -3.30245,-1.66551 -5.34903,-0.22374 -2.59942,1.83117 -8.95582,1.48707 -13.06193,-0.70713 -1.85077,-0.98897 -3.92351,-2.42054 -4.60608,-3.18126 -0.68258,-0.76072 -1.72687,-1.54732 -2.32066,-1.748 -2.24975,-0.7603 -2.22304,5.83689 0.0359,8.88471 1.7597,2.37417 5.96077,5.10912 8.60831,5.60412 2.39665,0.44807 4.28182,0.25048 6.92976,-0.72636 z m 75.70716,-12.0512 c 1.25485,-0.40519 -0.18411,-1.90811 -2.19485,-2.29248 -1.96197,-0.37506 -5.78676,1.1112 -5.78676,2.24865 0,0.61168 0.90119,0.75505 3.56803,0.56763 1.96243,-0.1379 3.94853,-0.3736 4.41358,-0.5238 z m -133.48341,169.35539 c 0.42661,-0.17215 1.12471,-0.17215 1.55132,0 0.42661,0.17214 0.0776,0.313 -0.77566,0.313 -0.85322,0 -1.20227,-0.14095 -0.77566,-0.313 z m -2.01673,-11.78871 c -0.68258,-0.1956 -2.00896,-0.90067 -2.94751,-1.56664 -3.18325,-2.25876 -1.79734,-5.4074 3.52061,-7.99842 1.33907,-0.65244 2.52071,-1.10021 2.62585,-0.99507 0.10507,0.10507 -0.92065,1.27685 -2.27954,2.60378 -2.99498,2.92452 -3.28751,5.06761 -0.76427,5.59927 0.93855,0.19771 2.19134,0.62195 2.78395,0.94262 1.35943,0.73561 8.71388,0.7665 9.50251,0.0399 0.32421,-0.29872 3.24226,-0.70595 6.4845,-0.90498 3.64134,-0.2235 5.42059,-0.15127 4.65398,0.18927 -0.68258,0.30311 -1.95313,0.57075 -2.8234,0.59472 -0.87029,0.0239 -1.861,0.32227 -2.20158,0.66283 -0.68459,0.68462 -16.58296,1.39811 -18.5551,0.83272 z m -39.6632,-11.53552 c -2.61499,-2.87944 -4.53162,-5.67866 -5.32464,-7.77651 -0.68142,-1.80271 -1.62705,-3.897 -2.10139,-4.65394 -0.47431,-0.75697 -1.02424,-2.49325 -1.22204,-3.8584 l -0.35965,-2.48213 1.00358,2.79239 c 0.55196,1.5358 1.19673,2.932 1.43281,3.10265 0.2361,0.17073 0.93027,1.63662 1.5426,3.25776 0.61231,1.62112 1.32969,2.94751 1.59417,2.94751 0.26448,0 1.08323,1.2443 1.81944,2.76511 1.24895,2.57995 4.98241,6.54281 6.16409,6.54281 1.63784,0 2.03713,-2.08838 1.82505,-9.54543 -0.12055,-4.24174 -0.0141,-7.38956 0.23657,-6.99515 0.25073,0.39441 0.46017,1.74777 0.4654,3.00748 0.005,1.25968 0.28873,2.46292 0.63002,2.67385 0.78148,0.483 0.81755,8.02493 0.0453,9.47149 -0.31638,0.59261 -0.72648,1.56617 -0.91134,2.16342 -0.66125,2.13662 -2.74379,1.09751 -6.83998,-3.41291 z m 29.39,-111.94443 c -0.53091,-0.1433 -1.45798,-1.09462 -2.06016,-2.11403 -0.91936,-1.55637 -0.98074,-2.19938 -0.38278,-4.01117 0.39164,-1.18673 0.96969,-2.15768 1.2845,-2.15768 0.31483,0 0.5724,-0.41887 0.5724,-0.93081 0,-0.51193 0.27925,-0.93078 0.62054,-0.93078 0.34129,0 0.62052,-0.51519 0.62052,-1.14488 0,-0.62969 0.51064,-1.60702 1.1348,-2.17184 1.44456,-1.30735 2.38179,-1.35228 1.08137,-0.0518 -0.61597,0.61597 -0.97511,2.07362 -0.97511,3.95774 0,2.40129 0.27213,3.16557 1.39619,3.92128 0.76789,0.51625 1.18848,1.15361 0.9346,1.41635 -0.25388,0.26274 -1.01655,-0.0244 -1.69481,-0.63832 -1.00935,-0.91345 -1.40432,-0.97408 -2.17567,-0.3339 -1.93546,1.60627 -0.4719,4.1903 2.81106,4.9632 l 2.14154,0.50417 -2.17187,-0.009 c -1.19451,-0.005 -2.60621,-0.12571 -3.13712,-0.26901 z"
       id="path190"
       inkscape:connector-curvature="0" />
  </g>
</svg>
