<?xml version="1.0" encoding="UTF-8" standalone="no"?>
<!-- Created with Inkscape (http://www.inkscape.org/) -->

<svg
   xmlns:dc="http://purl.org/dc/elements/1.1/"
   xmlns:cc="http://creativecommons.org/ns#"
   xmlns:rdf="http://www.w3.org/1999/02/22-rdf-syntax-ns#"
   xmlns:svg="http://www.w3.org/2000/svg"
   xmlns="http://www.w3.org/2000/svg"
   xmlns:sodipodi="http://sodipodi.sourceforge.net/DTD/sodipodi-0.dtd"
   xmlns:inkscape="http://www.inkscape.org/namespaces/inkscape"
   width="210mm"
   height="628.16022mm"
   viewBox="0 0 210.00001 628.1603"
   version="1.1"
   id="svg8"
   inkscape:version="0.92.3 (2405546, 2018-03-11)"
   sodipodi:docname="commander.svg">
  <defs
     id="defs2" />
  <sodipodi:namedview
     id="base"
     pagecolor="#ffffff"
     bordercolor="#666666"
     borderopacity="1.0"
     inkscape:pageopacity="0.0"
     inkscape:pageshadow="2"
     inkscape:zoom="1.4"
     inkscape:cx="363.62455"
     inkscape:cy="1116.2887"
     inkscape:document-units="mm"
     inkscape:current-layer="layer1"
     showgrid="false"
     fit-margin-top="0"
     fit-margin-left="0"
     fit-margin-right="0"
     fit-margin-bottom="0"
     inkscape:window-width="1920"
     inkscape:window-height="1017"
     inkscape:window-x="-8"
     inkscape:window-y="-8"
     inkscape:window-maximized="1" />
  <metadata
     id="metadata5">
    <rdf:RDF>
      <cc:Work
         rdf:about="">
        <dc:format>image/svg+xml</dc:format>
        <dc:type
           rdf:resource="http://purl.org/dc/dcmitype/StillImage" />
        <dc:title></dc:title>
      </cc:Work>
    </rdf:RDF>
  </metadata>
  <g
     inkscape:label="Layer 1"
     inkscape:groupmode="layer"
     id="layer1"
     transform="translate(-356.47936,1029.1417)">
    <path
       style="fill:#000000;stroke-width:1.20650673"
       d="m 506.02473,-402.17885 c -4.27183,-0.96549 -8.88671,-2.46182 -10.25531,-3.32521 -1.3686,-0.86335 -5.07663,-2.53634 -8.24001,-3.7177 -3.52727,-1.31726 -6.96558,-3.73945 -8.89041,-6.26302 -2.48494,-3.25795 -3.9918,-4.11505 -7.23467,-4.11505 -2.25274,0 -5.03869,-0.5151 -6.19091,-1.14471 -1.15228,-0.62955 -4.62957,-1.47056 -7.72729,-1.86888 -3.09776,-0.39854 -6.23487,-1.45031 -6.97136,-2.33774 -1.10982,-1.33723 -2.59151,-1.22377 -8.6517,0.66239 -4.02194,1.25173 -8.86095,2.27591 -10.7534,2.27591 -1.89246,0 -3.77639,0.54291 -4.18652,1.20649 -0.99011,1.60212 -7.52563,1.55319 -8.06349,-0.0602 -0.23211,-0.69682 -3.88035,1.72774 -8.10686,5.38789 -6.89968,5.97519 -8.40987,6.7369 -14.78657,7.45834 -3.90611,0.44186 -7.39339,1.27493 -7.74949,1.85114 -0.35613,0.5762 -2.75635,1.04767 -5.33386,1.04767 -3.34988,0 -5.17823,-0.7022 -6.41098,-2.46224 l -1.72461,-2.46218 -0.64387,2.46218 c -0.84849,3.24464 -4.87225,3.18459 -9.73233,-0.145 -10.72075,-7.34511 -10.54091,-12.52968 0.67616,-19.49019 4.09751,-2.54263 4.54867,-2.53497 4.64334,0.0789 0.0634,1.75355 0.24624,1.69213 1.07849,-0.36207 0.55108,-1.36053 3.36703,-3.51724 6.25768,-4.79272 2.8906,-1.27549 5.52712,-2.63634 5.8589,-3.02412 0.33197,-0.3876 2.23204,-1.40294 4.22277,-2.25594 1.99077,-0.853 5.13632,-3.36703 6.99015,-5.58671 l 3.37064,-4.03585 -0.0844,-45.62133 c -0.11355,-61.45569 -1.56637,-104.41875 -3.62326,-107.15317 -0.49919,-0.66357 -1.29765,-8.53605 -1.77435,-17.49436 -1.34918,-25.35228 -3.40912,-41.2214 -5.49816,-42.35607 -0.98652,-0.5358 -5.99963,-2.93492 -11.14024,-5.33131 -12.22155,-5.69729 -13.52791,-6.9953 -11.29915,-11.22687 0.93303,-1.77148 3.43375,-6.92344 5.55717,-11.44886 2.12342,-4.52541 4.16025,-7.92851 4.52623,-7.56253 0.36617,0.36617 -0.50101,3.11851 -1.92674,6.11664 -8.55698,17.994 -8.40126,17.5162 -5.70906,17.5162 0.94004,0 1.89017,0.40721 2.11138,0.90489 0.60967,1.37175 11.63103,6.33415 14.06795,6.33415 1.17672,0 2.67117,0.53174 3.32107,1.18164 1.70207,1.70207 17.01715,3.51263 33.04929,3.90707 l 13.84091,0.34064 0.77917,-5.42931 c 0.42864,-2.98608 1.16942,-13.9804 1.64639,-24.43175 l 0.86728,-19.00249 -4.02555,-0.18058 -4.0255,-0.18103 3.61952,-0.52924 c 1.99073,-0.29093 4.29819,-1.09057 5.12766,-1.77672 1.82424,-1.50896 2.0832,-17.34524 0.30142,-18.44635 -0.66358,-0.40995 -1.20649,-2.61385 -1.20649,-4.89724 0,-5.60218 -2.16187,-5.30167 -2.68235,0.37301 l -0.41496,4.52441 -0.95118,-4.82601 c -0.52312,-2.6543 -1.42765,-5.91189 -2.01006,-7.23904 -1.23576,-2.81614 -5.27526,-40.34488 -4.43321,-41.18688 0.76723,-0.76727 3.21455,13.59175 4.00799,23.51573 0.35249,4.4105 1.09208,9.10496 1.6433,10.43211 0.55121,1.32715 1.34069,3.4539 1.75438,4.72614 0.53201,1.63596 1.12833,1.93706 2.03696,1.02843 0.90859,-0.90863 0.70471,-4.58803 -0.6965,-12.56848 -1.08966,-6.20602 -2.11954,-13.18395 -2.28863,-15.50646 -0.16918,-2.32256 -0.91027,-5.30865 -1.64704,-6.6358 -0.73676,-1.32715 -2.49091,-6.63037 -3.89813,-11.78488 -3.58801,-13.14255 -5.9631,-17.00095 -11.02934,-17.91735 -3.68555,-0.6666 -3.77141,-0.7629 -0.80667,-0.9049 3.20388,-0.1532 3.31788,-0.3899 3.31788,-6.8874 0,-5.8282 -0.47192,-7.2005 -3.52673,-10.2553 -1.93969,-1.9397 -4.08678,-3.5267 -4.77133,-3.5267 -1.75174,0 -2.86963,7.0535 -2.37587,14.9909 0.23028,3.7012 0.0137,6.7287 -0.48628,6.7279 -0.49768,-9e-4 -0.90484,-5.3552 -0.90484,-11.8984 0,-6.5432 -0.3452,-14.4144 -0.76691,-17.4917 -0.75683,-5.5216 -0.71715,-5.6051 3.01628,-6.3518 2.98854,-0.5977 3.78313,-1.3695 3.78313,-3.6747 0,-1.605 1.34393,-4.3675 2.9865,-6.139 2.62425,-2.8301 2.79228,-3.5188 1.3852,-5.6782 -2.94236,-4.5155 -6.7306,-16.9026 -6.00934,-19.6501 0.62185,-2.3691 0.25308,-2.7147 -2.89685,-2.7147 -1.98516,0 -5.17034,0.311 -7.07812,0.691 l -3.46872,0.6909 0.0857,11.6758 c 0.0821,11.1502 0.0661,11.2239 -0.34975,1.6375 -0.48414,-11.1534 -1.54654,-11.9842 -5.62165,-4.3959 -1.408,2.6219 -2.91905,5.0442 -3.358,5.3829 -0.43868,0.3388 -1.40923,4.1427 -2.1563,8.4531 -2.41458,13.9323 -4.04301,20.5055 -5.07996,20.5055 -0.55797,0 -1.01452,0.8481 -1.01452,1.8846 0,1.0366 -0.88824,4.6004 -1.97385,7.9195 -1.39505,4.2651 -2.35033,5.6584 -3.25759,4.7511 -0.70603,-0.706 -1.70048,-1.2837 -2.20988,-1.2837 -2.01804,0 -11.86277,22.673 -11.86277,27.3205 0,5.3746 3.46229,15.61903 6.95368,20.57505 1.31,1.85958 2.72995,4.50453 3.15544,5.87769 0.42545,1.37316 2.12557,4.32902 3.77785,6.56854 3.57725,4.84872 3.99212,2.72233 1.239,-6.35057 -1.13791,-3.75007 -1.29669,-5.7309 -0.45938,-5.7309 0.76244,0 0.97362,-1.21908 0.52254,-3.01628 -0.76887,-3.06342 0.95532,-4.26836 2.15798,-1.50813 0.36116,0.82946 0.42682,-2.02092 0.14547,-6.33415 -0.28135,-4.31329 -0.21934,-6.88555 0.13817,-5.71615 0.97019,3.17453 2.8802,1.27008 2.8802,-2.8718 0,-2.1058 0.50457,-3.3077 1.20649,-2.8739 0.73695,0.4556 1.20649,-1.3951 1.20649,-4.7548 0,-6.2381 0.49417,-6.6108 3.69399,-2.7858 l 2.27103,2.7146 -0.0898,-6.0325 c -0.0492,-3.3179 0.31874,-7.9318 0.81788,-10.253 0.77658,-3.6108 1.04357,-3.8722 1.8485,-1.8097 0.58482,1.4984 0.97297,-1.1277 1.02564,-6.9398 0.0488,-5.3728 0.59805,-9.3504 1.29131,-9.3504 0.66357,0 1.2147,-2.036 1.22469,-4.5245 0.009,-2.4884 0.80055,-6.6961 1.75679,-9.3504 l 1.73865,-4.826 0.0137,9.0488 c 0.0365,25.0996 1.22669,73.50309 1.90057,77.21641 0.55363,3.05107 0.43001,3.70379 -0.44551,2.35234 -0.66654,-1.02875 -1.73473,-7.27242 -2.37368,-13.87484 l -1.16176,-12.00431 0.18195,17.83421 c 0.11719,11.46705 -0.20703,16.95906 -0.90726,15.38298 -0.5991,-1.34822 -1.4308,-2.45134 -1.84832,-2.45134 -0.4177,0 -1.77399,5.83652 -3.01445,12.96995 -1.24046,7.13347 -2.65777,13.5129 -3.14952,14.17648 -0.49175,0.66357 -1.16103,2.29237 -1.48725,3.61952 -0.42636,1.73491 -0.64643,1.39591 -0.78278,-1.20649 -0.10442,-1.99077 -1.38893,-5.90063 -2.85462,-8.68863 -10.10825,-19.22762 -20.57232,-40.32139 -22.02442,-44.39769 -3.47018,-9.74119 -0.89778,-24.80939 5.96073,-34.91599 1.72893,-2.5477 3.1435,-5.5691 3.1435,-6.7142 0,-1.145 1.01155,-3.3767 2.24795,-4.9592 3.61474,-4.6269 11.78101,-22.9511 12.62913,-28.3385 0.42864,-2.7228 2.22388,-7.5351 3.98939,-10.6939 1.76555,-3.1589 3.16716,-7.2516 3.11477,-9.095 -0.0593,-2.0779 1.01716,-4.3966 2.83218,-6.1017 2.6492,-2.4888 3.22171,-2.5928 6.02257,-1.0938 2.45712,1.315 3.57711,1.3554 5.43363,0.196 1.41106,-0.8811 2.33857,-0.9778 2.33857,-0.2435 0,0.6692 0.81442,1.2167 1.80978,1.2167 0.99536,0 1.80974,-0.5429 1.80974,-1.2065 0,-0.6635 -0.63339,-1.2065 -1.40759,-1.2065 -0.77416,0 -1.1158,-0.2918 -0.75916,-0.6484 0.3566,-0.3566 2.07915,0 3.82778,0.8002 2.77145,1.2627 4.06864,0.9976 10.10962,-2.0662 3.81159,-1.9332 8.56141,-4.6992 10.5551,-6.1467 1.99364,-1.4475 4.97977,-3.2108 6.63579,-3.9183 9.98162,-4.2646 11.66126,-7.8443 7.63877,-16.2795 -2.41417,-5.0626 -4.01765,-5.8208 -8.791,-4.1568 -5.58626,1.9474 -7.29786,0.4405 -2.03582,-1.7922 4.49947,-1.9092 4.63226,-2.1328 3.86239,-6.5066 l -0.79723,-4.5295 2.51969,4.0291 c 1.75237,2.8022 2.96438,3.6895 3.97989,2.914 1.95457,-1.4926 15.33574,-4.3283 16.22562,-3.4384 1.53737,1.5374 -3.80506,5.4157 -8.53869,6.1987 -6.90151,1.1414 -7.04414,1.3269 -4.4001,5.7212 1.28383,2.1338 3.42676,5.8796 4.76208,8.3242 3.36643,6.163 6.79088,8.2237 13.66648,8.2237 6.53584,0 10.51077,-1.6131 10.51077,-4.2653 0,-0.972 0.54292,-1.7673 1.20649,-1.7673 0.66358,0 1.20654,-0.5808 1.20654,-1.2907 0,-0.7099 1.6754,-3.7259 3.72313,-6.7022 4.71287,-6.8499 4.03316,-8.8982 -2.95294,-8.8982 -4.88283,0 -6.80274,-1.2583 -6.80274,-4.4584 0,-1.0128 11.30558,0.9362 12.86333,2.2176 2.56835,2.1126 10.06029,-9.637 10.06029,-15.7774 0,-4.1243 -0.50813,-4.3341 -4.7749,-1.9715 -5.08475,2.8156 -12.69096,-1.7117 -16.55435,-9.8532 -2.67783,-5.6431 -5.67564,-5.0383 -13.04537,2.6318 -7.95036,8.2743 -11.18346,9.2174 -17.42933,5.0841 -5.50372,-3.6422 -6.10838,-2.9748 -6.10838,6.7422 0,8.7573 -1.53418,6.0527 -2.33747,-4.1206 -0.74994,-9.498 -0.79276,-9.5469 -10.33083,-11.797 -6.04901,-1.4271 -11.46181,-5.2139 -11.46181,-8.0188 0,-0.8244 -0.64802,-1.7149 -1.44005,-1.9789 -0.86828,-0.2896 -1.4671,-3.084 -1.50814,-7.038 -0.0835,-8.0565 3.44487,-13.5407 13.92258,-21.6393 3.86334,-2.9861 7.04652,-5.8752 7.07374,-6.42028 0.0274,-0.5451 -0.76494,-1.8055 -1.76031,-2.8008 -0.99536,-0.9954 -1.80144,-2.4497 -1.79127,-3.2318 0.0137,-1.0892 0.22983,-1.0898 0.92117,0 0.4965,0.7806 4.33714,1.5895 8.53478,1.7976 4.19759,0.2079 7.88706,0.7909 8.19879,1.2953 0.3119,0.5044 2.29925,1.0149 4.41675,1.1344 2.11744,0.1195 -0.22208,0.5647 -5.19889,0.9892 l -9.04878,0.7718 10.48574,0.2175 c 5.9542,0.1236 10.83293,0.77908 11.28911,1.51728 0.54684,0.8847 -1.42897,1.1965 -6.18617,0.9762 -4.58853,-0.2125 -7.15414,0.1696 -7.46855,1.113 -0.34565,1.0365 2.3864,1.4369 9.8057,1.4369 10.6503,0 13.62271,-1.2958 9.64491,-4.2045 -1.22665,-0.89688 -1.81494,-2.04618 -1.30722,-2.55388 0.50771,-0.5077 1.56554,-0.2804 2.35078,0.5046 1.56008,1.56008 11.59145,1.92798 13.75244,0.5044 0.74005,-0.4876 1.74481,-2.165 2.23287,-3.7276 0.73124,-2.3414 1.47758,-2.7231 4.24292,-2.17 1.84562,0.3689 3.6285,0.3981 3.96198,0.065 1.15537,-1.1553 -3.97712,-10.0712 -8.58753,-14.9178 -4.02956,-4.236 -5.31636,-4.8691 -9.89549,-4.8691 -4.43782,0 -5.97792,0.6975 -9.81673,4.446 -5.93132,5.7917 -7.14816,4.5559 -1.45638,-1.4791 3.89964,-4.1349 5.13304,-4.6976 11.27019,-5.1415 l 6.8913,-0.4985 5.64987,6.4587 c 3.10743,3.5522 6.50802,8.7056 7.55683,11.4519 1.6479,4.315 2.50651,5.0924 6.32088,5.7231 2.42762,0.4013 6.38339,0.7359 8.79059,0.7432 4.47899,0.014 7.90749,2.5327 6.51454,4.78648 -0.42819,0.6926 -2.01945,1.2594 -3.53639,1.2594 -1.51694,0 -3.70867,1.0504 -4.87056,2.3342 -2.01294,2.2243 -2.01107,2.4659 0.041,5.1276 1.18387,1.5364 6.3864,4.8755 11.56121,7.4203 9.07272,4.4615 9.47099,4.8365 11.15305,10.5006 2.11913,7.136 0.80804,13.4044 -3.83289,18.3252 -3.30724,3.5067 -7.25034,5.0898 -15.97641,6.4142 -6.72371,1.0204 -8.44553,2.3511 -8.44553,6.5269 0,1.797 -1.35802,5.9383 -3.01783,9.2027 -1.65976,3.2645 -2.80332,6.5081 -2.54121,7.2081 0.2622,0.7 2.84172,2.016 5.73246,2.9244 10.92687,3.4339 8.20517,4.5039 -4.55565,1.7909 -3.47228,-0.7383 -4.08428,-0.3598 -7.54069,4.6639 -2.06893,3.0071 -3.7617,7.0217 -3.7617,8.9213 0,3.1136 0.66139,3.6788 6.71213,5.7355 3.69161,1.2548 7.23977,3.2675 7.88474,4.4726 0.64497,1.2051 1.70727,2.1911 2.36068,2.1911 0.65341,0 3.48468,1.475 6.29169,3.2778 2.80702,1.8029 6.46101,3.4193 8.11995,3.5923 1.65894,0.1728 6.81678,0.8831 11.46181,1.5783 4.64507,0.6951 9.9124,1.2743 11.70517,1.2869 2.49256,0.018 3.08472,0.4789 2.51627,1.9603 -0.60548,1.5779 -0.16097,1.791 2.39734,1.1489 3.35659,-0.8425 4.48816,0.1373 5.10235,4.4172 0.42682,2.9729 2.7637,9.9582 4.44776,13.294 0.61164,1.2115 1.87673,9.8983 2.81126,19.3041 2.61481,26.3165 3.10679,30.1867 4.16772,32.7859 2.02247,4.9549 3.85186,15.8266 3.3498,19.9074 -0.47069,3.82556 -0.53772,3.71042 -0.71264,-1.2244 -0.10625,-2.9959 -1.18529,-7.3393 -2.39803,-9.652 -2.23263,-4.2577 -4.28674,-14.6464 -5.72187,-28.9383 -0.43321,-4.3133 -1.19619,-8.3853 -1.69565,-9.0488 -0.49946,-0.6636 -1.21971,-5.8545 -1.60052,-11.5353 -0.81866,-12.2121 -2.83752,-21.0017 -5.29173,-23.0384 -1.10006,-0.913 -6.1232,-1.4969 -13.28937,-1.5447 -10.30895,-0.069 -11.6635,0.177 -12.87711,2.3362 -0.74597,1.3271 -3.66712,5.2182 -6.49151,8.6468 l -5.13518,6.2338 3.44181,3.4418 c 1.89296,1.893 4.81069,4.0655 6.48381,4.8278 2.78321,1.2681 5.54445,7.6157 3.31291,7.6157 -1.41275,0 -5.9844,8.2934 -5.9844,10.8563 0,1.2501 -0.54292,2.6084 -1.20649,3.0185 -0.66358,0.41 -1.20654,1.2886 -1.20654,1.9522 0,0.6636 0.62682,0.8191 1.39295,0.3457 0.86992,-0.5377 1.06513,-0.3306 0.51989,0.5517 -0.48017,0.7769 -1.4365,1.0644 -2.1252,0.6388 -0.82682,-0.511 -0.97853,0.6093 -0.44688,3.2981 0.51446,2.6008 0.4063,3.4948 -0.29914,2.4743 -0.81027,-1.1719 -1.82232,-0.071 -3.79736,4.1307 -1.48096,3.1506 -2.82202,6.9417 -2.98011,8.4247 -0.15824,1.483 -1.1297,3.9817 -2.15908,5.5527 -1.02938,1.5711 -3.06078,8.2717 -4.51425,14.89021 -1.45351,6.6186 -3.14947,12.97651 -3.76886,14.12878 -1.59127,2.96033 -1.39938,5.22506 0.58213,6.86959 1.3728,1.13928 1.87723,0.87211 2.5683,-1.36039 1.89487,-6.12174 10.30634,-22.68549 11.52013,-22.68549 0.71251,0 1.11447,0.4104 0.89327,0.9114 -0.22117,0.5013 -2.35585,4.98047 -4.74366,9.95368 -2.38781,4.97326 -5.63255,12.57126 -7.2105,16.88455 -1.67781,4.58615 -3.04819,6.93789 -3.3005,5.66414 -0.23712,-1.19801 -1.06454,-1.97007 -1.83828,-1.71571 -1.47996,0.48651 -4.80358,17.3587 -3.8965,19.78021 0.29002,0.77456 -0.25262,1.70763 -1.20603,2.07353 -1.96606,0.75446 -2.39985,6.77351 -0.4882,6.77351 0.68496,0 1.73641,-1.22159 2.33656,-2.71468 0.78332,-1.94881 1.11273,-2.14216 1.16759,-0.68537 0.041,1.11607 -1.55228,3.18901 -3.543,4.60654 -3.42572,2.43934 -3.61952,3.02512 -3.61952,10.94073 0,8.05483 0.10853,8.36336 2.93492,8.36336 3.26881,0 4.95292,3.29417 3.70083,7.23904 -0.52691,1.66022 -1.82547,2.41303 -4.1623,2.41303 -3.35769,0 -3.40634,0.10671 -4.26199,9.35043 -0.47602,5.14275 -1.29326,9.89334 -1.81603,10.55696 -0.5228,0.66357 -1.14725,7.16129 -1.38766,14.43941 l -0.4373,13.23288 5.4293,1.00703 c 10.52992,1.95311 56.28171,-1.36778 58.12455,-4.21902 1.28401,-1.98653 1.12309,-6.90115 -1.01739,-31.07216 -1.07411,-12.12948 -2.31904,-20.26425 -3.19243,-20.86006 -0.78742,-0.53713 -4.14634,-0.70293 -7.46426,-0.36845 -4.10625,0.41405 -5.26199,0.26357 -3.61952,-0.47064 1.3272,-0.5934 3.7276,-1.11707 5.33432,-1.16372 1.60668,-0.0465 3.90279,-0.97311 5.10249,-2.05881 1.78137,-1.6121 2.27682,-1.66742 2.70277,-0.30141 1.43468,4.60056 4.3825,31.81552 4.36955,40.3409 -0.009,6.13182 0.54123,10.30169 1.49337,11.31101 1.20653,1.27886 1.20653,1.70919 0,2.1516 -0.82947,0.30415 -1.50814,1.56154 -1.50814,2.79425 0,3.09334 -1.32706,3.67976 -11.10613,4.90763 -4.68793,0.58866 -9.26465,1.68534 -10.17049,2.43716 -0.90585,0.75176 -1.71125,3.60784 -1.78972,6.34678 -0.1327,4.62911 -0.2011,4.72496 -0.97197,1.36043 -0.52828,-2.30605 -1.46163,-3.46498 -2.5719,-3.19366 -4.40927,1.07763 -31.74335,0.21934 -35.82502,-1.12504 -6.91939,-2.27883 -7.46094,-3.68697 -7.5038,-19.50985 -0.0319,-11.21834 -0.38532,-14.17643 -1.70039,-14.17643 -2.55457,0 -4.65592,3.23255 -3.81783,5.87308 0.41359,1.30317 0.13406,2.75138 -0.62154,3.21829 -0.75545,0.4669 -2.94928,3.33351 -4.87512,6.37026 -2.55795,4.03348 -3.50155,7.01843 -3.50155,11.07644 0,3.05526 -0.49846,6.07081 -1.10768,6.70119 -1.54411,1.59774 -3.67985,50.77483 -3.74392,86.20491 -0.0784,43.39202 -0.047,45.1153 0.81114,44.25733 1.83911,-1.8391 3.97662,3.95838 4.14484,11.24197 0.14318,6.19301 0.37483,7.08108 1.10211,4.22281 0.654,-2.57017 0.98702,-0.47137 1.14858,7.23899 0.15276,7.29623 0.56772,10.06695 1.26445,8.44558 0.74602,-1.73609 1.06071,-0.4669 1.12172,4.52441 0.0766,6.26612 0.33562,6.9374 2.67637,6.9374 2.51358,0 2.57017,0.33106 1.87964,10.9898 -0.3917,6.0444 -1.01159,11.28939 -1.37772,11.65552 -0.36617,0.36617 -1.63153,-0.2084 -2.81203,-1.27672 -2.88453,-2.61048 -6.36014,-0.8048 -3.9773,2.06633 0.86805,1.04593 2.56561,1.90171 3.77237,1.90171 1.20672,0 2.5351,0.55177 2.95189,1.22619 1.92716,3.11824 3.01755,-1.16896 3.1684,-12.45758 0.0903,-6.76251 0.40766,-10.93818 0.70543,-9.27924 0.29777,1.65898 1.03805,3.53206 1.64544,4.16248 0.6074,0.63038 1.10435,2.66639 1.10435,4.52437 0,1.85803 0.48573,3.37825 1.07945,3.37825 0.62978,0 0.64178,1.88461 0.0274,4.52437 -2.53528,10.91766 -0.7385,12.3179 8.1277,6.33419 2.94974,-1.99077 5.87883,-3.61952 6.50916,-3.61952 0.63029,0 1.14603,-0.48409 1.14603,-1.07571 0,-0.59166 1.35729,-1.41639 3.01627,-1.83276 2.41814,-0.6069 3.01623,-1.51006 3.01623,-4.55465 0,-2.08872 0.37301,-3.42462 0.82892,-2.96871 1.59752,1.59751 1.27421,6.22913 -0.58268,8.3468 -1.69674,1.9351 -1.68721,2.5305 0.10078,6.27966 1.09377,2.29365 3.7451,5.036 5.94176,6.14564 2.18165,1.10207 7.88574,4.92711 12.67568,8.50007 4.78999,3.57296 9.07117,6.4963 9.51372,6.4963 1.44863,0 6.66402,6.28139 5.87158,7.07165 -0.42499,0.42362 -2.0578,-0.7224 -3.62846,-2.54728 -1.5707,-1.82483 -3.21089,-3.31787 -3.64487,-3.31787 -0.43411,0 -2.84568,-1.6288 -5.35917,-3.61953 -5.1682,-4.09326 -6.03255,-4.35865 -6.03255,-1.85219 0,0.97202 1.14881,2.38212 2.55289,3.13356 3.09151,1.65452 9.78467,9.06807 10.98145,12.16341 1.25884,3.25582 4.55971,2.51463 6.14441,-1.37972 0.40493,-0.99536 0.62221,0.36206 0.48254,3.01627 -0.22208,4.21638 -0.78734,5.08457 -4.47667,6.87255 -6.09042,2.95162 -15.13541,3.51551 -24.05482,1.49966 z M 399.3966,-412.4348 c 3.4892,-1.31548 11.23873,-8.0831 11.23873,-9.81473 0,-1.81005 -2.15588,-0.97972 -8.44553,3.25294 -3.45125,2.32251 -7.24825,4.22277 -8.43773,4.22277 -1.18949,0 -2.47518,0.81437 -2.85713,1.80978 -0.8421,2.19442 3.38659,2.45767 8.50166,0.52924 z m 51.05346,-32.50168 c 0,-1.24885 0.56927,-2.62247 1.26509,-3.05248 0.86604,-0.53525 0.8229,-1.3147 -0.1368,-2.47094 -2.15822,-2.60049 -3.54141,-0.85879 -3.54141,4.4593 0,2.91016 0.47898,4.53002 1.20654,4.0804 0.66357,-0.40995 1.20649,-1.76747 1.20649,-3.01628 z m -23.83329,-1.32874 c 9.76939,-3.28245 17.23986,-6.79699 19.02844,-8.95211 0.95651,-1.15254 1.60243,-10.32782 1.97043,-27.9909 0.30096,-14.45199 1.06052,-30.89125 1.68753,-36.53168 0.62705,-5.64044 1.1416,-15.24535 1.14347,-21.3443 0.002,-6.09894 0.54634,-11.4245 1.20991,-11.83463 1.65725,-1.02423 1.61133,-37.61237 -0.0483,-38.63819 -1.58552,-0.97991 -1.42651,-59.69211 0.16143,-59.69211 0.60133,0 1.09336,-2.33993 1.09336,-5.1998 0,-4.41602 -0.81835,-6.15845 -5.42931,-11.5603 -2.98608,-3.49832 -5.41211,-7.53781 -5.39113,-8.97668 0.0365,-2.48248 0.19015,-2.44322 3.01627,0.76904 1.63796,1.86182 2.97811,4.05615 2.97811,4.87627 0,0.82012 2.01111,2.40268 4.46905,3.51673 l 4.4691,2.02566 6.02744,-6.76266 c 3.3151,-3.71943 7.73207,-7.47484 9.8155,-8.34539 l 3.78802,-1.58274 1.33349,-15.93852 c 0.73343,-8.76619 1.83085,-16.26055 2.43874,-16.65413 0.6079,-0.39353 1.37148,-3.55504 1.69688,-7.0254 0.51952,-5.54093 0.2964,-6.40355 -1.83167,-7.07894 -1.67709,-0.53229 -3.02344,0.0274 -4.37229,1.81476 -2.13181,2.82621 -10.54319,4.61593 -18.58521,3.95445 -3.66981,-0.30187 -5.04115,-1.11958 -6.63579,-3.95669 -1.62743,-2.89548 -2.69894,-3.51199 -5.62954,-3.23903 -3.55321,0.33106 -3.62362,0.46977 -3.84565,7.57621 -0.61674,19.73821 -1.98566,39.94382 -2.7792,41.02121 -0.48879,0.66358 -1.24224,6.0222 -1.67444,11.90806 -0.43229,5.8858 -1.08113,11.17935 -1.44211,11.7634 -0.36115,0.5841 -1.99318,1.06194 -3.62722,1.06194 -1.98535,0 -3.41957,0.98469 -4.32332,2.96817 -1.06048,2.32757 -2.81267,3.2627 -8.11807,4.3328 -3.72108,0.75058 -8.20673,2.12953 -9.96808,3.06438 -1.76131,0.93485 -6.25864,1.6997 -9.99403,1.6997 h -6.79161 l 0.7359,17.79601 c 0.40493,9.78777 1.18879,18.88183 1.74238,20.20898 0.55359,1.32715 1.64298,11.09988 2.42092,21.71712 0.77789,10.61725 1.77649,19.4393 2.21909,19.60456 0.44278,0.16507 0.63508,14.14962 0.42773,31.07648 -0.33106,27.01706 -0.14683,30.86444 1.50814,31.49947 1.3079,0.50188 1.88511,2.32443 1.88511,5.95234 0,4.97371 2.29903,9.11896 2.51673,4.53773 0.0725,-1.52875 0.39216,-1.27904 1.06732,0.83371 0.52996,1.65894 1.83728,4.64502 2.9051,6.63579 1.56646,2.92029 1.90381,7.1156 1.74617,21.71713 -0.10762,9.95367 -0.40858,16.06159 -0.66868,13.57319 -0.47329,-4.52487 -2.66538,-6.39699 -2.8254,-2.41303 -0.0725,1.80545 -0.23529,1.76176 -1.12172,-0.30142 -0.74853,-1.74193 -1.10813,-1.90969 -1.2929,-0.60329 -0.14091,0.99536 -0.64488,-0.36207 -1.12013,-3.01628 -0.82135,-4.58738 -0.87256,-4.47466 -1.03526,2.28002 -0.13224,5.49081 0.30872,7.47037 1.94016,8.70882 3.14819,2.38982 12.58849,2.00715 21.10908,-0.85573 z m -22.91623,-103.0341 c 0.0137,-2.6543 0.26038,-3.59814 0.54907,-2.09734 0.28865,1.5008 0.27771,3.67251 -0.0228,4.82606 -0.30187,1.1535 -0.53808,-0.0743 -0.52472,-2.72872 z m 2.204,2.31248 c 0.0579,-1.40554 0.34382,-1.69141 0.72896,-0.72897 0.34839,0.87097 0.30552,1.91156 -0.0953,2.31248 -0.40083,0.40083 -0.68606,-0.3119 -0.63371,-1.58351 z m -3.47953,-11.96455 c 0.0228,-1.99073 0.29503,-2.65904 0.60087,-1.48516 0.30598,1.17389 0.28592,2.80269 -0.0456,3.61952 -0.3306,0.81684 -0.58081,-0.14364 -0.55618,-2.13436 z m 53.24696,-144.78082 c 0.005,-4.64502 0.22344,-6.39744 0.48464,-3.89421 0.26129,2.50322 0.25673,6.30368 -0.009,8.44553 -0.2663,2.14184 -0.48021,0.0939 -0.47488,-4.55132 z m 1.80632,242.80951 c -0.16781,-6.00199 -0.30552,-6.48878 -0.67393,-2.38553 -0.2549,2.83534 -0.97429,4.83928 -1.59897,4.45323 -1.27954,-0.7908 -1.57859,3.42148 -0.33151,4.6686 2.07545,2.0755 2.79844,0.2052 2.60436,-6.7363 z m -2.57263,-4.19982 c -0.30598,-1.17389 -0.5763,-0.50557 -0.60087,1.4852 -0.0228,1.99072 0.22572,2.95115 0.55618,2.13432 0.3306,-0.81684 0.35067,-2.44564 0.0456,-3.61952 z m 35.35912,-241.77366 c 0,-2.38859 -2.94924,-3.11938 -4.22947,-1.04799 -0.41359,0.66951 -0.40037,2.32689 0.0319,3.68304 0.62486,1.9688 1.12688,2.18002 2.49087,1.04799 0.93955,-0.77976 1.70828,-2.43715 1.70828,-3.68304 z m -17.13238,-20.6042 c 1.68808,-1.68808 1.93313,-6.55536 0.37848,-7.51625 -0.5881,-0.36343 -1.35168,0.41907 -1.69678,1.7386 -0.54561,2.08631 -1.65702,2.39944 -8.51662,2.39944 h -7.88912 l -0.36754,-5.7309 c -0.49887,-7.77503 -2.6927,-7.2716 -3.14956,0.72272 -0.29139,5.09614 0.0894,6.80109 1.80978,8.10553 2.75425,2.08845 17.41218,2.30026 19.43164,0.2809 z m 2.6543,-16.68765 c 0,-1.44438 -3.4031,-2.99374 -4.39563,-2.00121 -1.05652,1.05651 0.73557,3.24555 2.65708,3.24555 0.95619,0 1.73855,-0.55997 1.73855,-1.24434 z m -26.54313,-2.61075 c 0,-1.64028 -5.97341,-8.20996 -7.46476,-8.20996 -1.17357,0 -1.32706,7.6971 -0.17648,8.84773 1.39327,1.39327 7.64124,0.87174 7.64124,-0.63777 z m 32.33436,-0.005 c 1.61161,-1.61156 2.00874,-10.61724 0.46818,-10.61724 -0.53876,0 -2.04421,1.49304 -3.34542,3.31787 -3.84204,5.38817 -1.40193,11.57859 2.87724,7.29937 z m 10.41611,-21.17416 c 1.24046,-7.13347 2.67459,-13.51842 3.18695,-14.18879 0.51237,-0.67033 2.05051,-5.49082 3.41811,-10.71219 1.36759,-5.2214 2.97961,-10.1022 3.58217,-10.8463 0.60261,-0.744 2.04225,-4.8818 3.19927,-9.1951 1.15701,-4.3132 2.76032,-8.9281 3.56288,-10.2553 0.80261,-1.3271 2.66967,-5.664 4.14908,-9.6374 1.47941,-3.9734 3.12932,-7.7739 3.66653,-8.4455 1.85489,-2.319 2.75244,-9.0635 1.20618,-9.0635 -0.79614,0 -3.80553,-1.493 -6.6876,-3.3179 -6.1201,-3.8751 -6.8581,-7.3686 -2.31198,-10.9446 1.65894,-1.305 3.01628,-2.7815 3.01628,-3.2812 0,-0.4998 1.90025,-3.2276 4.22276,-6.062 2.32251,-2.8343 4.22277,-5.6637 4.22277,-6.2875 0,-1.0619 -8.69232,-7.4583 -17.58136,-12.9378 -2.15297,-1.3271 -4.99688,-3.0822 -6.31974,-3.9002 -2.13013,-1.3171 -2.33364,-1.2136 -1.77964,0.9049 0.34428,1.3156 1.01921,2.3921 1.50034,2.3921 1.74507,0 3.66981,9.5295 3.66981,18.1693 0,12.3416 -2.45461,42.5089 -3.57729,43.9657 -0.85633,1.1112 -1.44042,5.2178 -4.87544,34.2757 -0.65966,5.5804 -1.19934,12.74209 -1.19934,15.91532 0,3.17323 -0.54291,6.10506 -1.20649,6.51519 -1.40937,0.87101 -1.6609,19.90734 -0.26311,19.90734 0.51888,0 1.95839,-5.83647 3.19886,-12.96995 z m -5.80191,-15.9859 c 0.42865,-6.30398 1.1826,-12.00468 1.67527,-12.66828 0.49262,-0.6636 1.23038,-4.4641 1.63946,-8.4456 0.40904,-3.9814 1.09208,-10.6237 1.51776,-14.7605 0.55113,-5.3561 0.32467,-8.0627 -0.78638,-9.4015 -1.18182,-1.4241 -1.22154,-2.2189 -0.1637,-3.2768 0.76814,-0.7682 1.39664,-3.6992 1.39664,-6.5134 0,-2.8142 0.54297,-5.4523 1.20654,-5.8625 0.66358,-0.4099 1.20649,-3.3962 1.20649,-6.6358 0,-3.2395 0.54292,-6.2256 1.20649,-6.6357 0.66358,-0.41 1.20654,-4.4821 1.20654,-9.0488 0,-4.5668 -0.54296,-8.6387 -1.20654,-9.0488 -0.66357,-0.41 -1.20649,-2.6139 -1.20649,-4.8973 0,-2.2834 -0.46909,-4.1515 -1.04242,-4.1515 -1.30973,0 -6.91072,8.1981 -7.9064,11.5726 -0.40949,1.388 -2.07677,3.7752 -3.70488,5.3047 -2.52225,2.3696 -3.2467,2.5431 -4.89724,1.1733 -1.62132,-1.3456 -2.12051,-1.3253 -3.06229,0.1245 -2.32821,3.5841 -2.42817,7.2189 -0.63161,22.9597 1.01534,8.8958 2.66201,23.5037 3.65929,32.462 3.5674,32.04596 4.57398,39.25782 5.93596,42.53069 l 1.38128,3.31928 0.89828,-3.31928 c 0.49408,-1.82556 1.24913,-8.47705 1.67786,-14.78105 z m -50.77839,-44.45208 c -0.0319,-39.718 0.35386,-57.0216 1.29673,-58.214 0.738,-0.9332 1.70951,-3.2337 2.1589,-5.1122 0.68373,-2.858 0.46471,-3.348 -1.34179,-3.0016 -1.19208,0.2285 -2.74121,2.209 -3.45923,4.4224 -0.71524,2.2047 -2.06802,4.4829 -3.0062,5.0628 -1.23618,0.7639 -1.34197,1.418 -0.38441,2.3757 0.95774,0.9578 0.8027,2.4663 -0.56307,5.4795 -2.11157,4.6586 -3.7192,5.3696 -3.94574,1.745 -0.083,-1.3272 -0.25445,-3.0917 -0.38168,-3.9211 -0.12677,-0.8295 0.17146,-2.3459 0.66276,-3.3697 1.41078,-2.9392 -3.72126,-2.6877 -8.26615,0.4054 -4.37967,2.9805 -4.71999,4.1727 -2.15798,7.5599 0.97425,1.2881 1.78867,3.0776 1.80978,3.9768 0.0228,0.8991 1.66715,4.0482 3.65787,6.9979 1.99073,2.9497 3.61952,6.1437 3.61952,7.0978 0,0.954 -2.1708,3.7772 -4.82405,6.2736 -3.9618,3.7277 -4.82437,5.3477 -4.82601,9.0635 -10e-4,2.4884 0.42408,4.5243 0.94506,4.5243 0.52085,0 1.55087,2.8504 2.28895,6.3342 2.15981,10.1948 4.05738,17.0059 5.1128,18.3518 0.54086,0.6896 2.22506,6.5475 3.74268,13.0174 1.51762,6.4699 3.21838,11.76339 3.77944,11.76339 0.56111,0 1.02017,0.78765 1.02017,1.75037 0,1.92533 2.46451,13.9342 2.85964,13.9342 0.13589,0 0.22663,-25.43266 0.20155,-56.51716 z m 8.87518,38.3715 c 0.57141,-1.0219 1.42441,-4.8224 1.89551,-8.4456 1.10694,-8.5133 4.11606,-22.8007 5.45311,-25.8917 0.57406,-1.3272 1.33699,-3.7704 1.69537,-5.4294 1.91936,-8.8848 5.29911,-21.5332 6.54933,-24.5102 1.85128,-4.4083 1.94381,-3.9211 -1.89149,-9.962 -2.1947,-3.4568 -3.96417,-5.0357 -5.22689,-4.6639 -1.0499,0.3092 -2.89858,-0.5315 -4.10813,-1.868 -1.88497,-2.0828 -5.44471,-3.3736 -5.44471,-1.9742 0,0.2508 -0.84228,2.4718 -1.87171,4.9356 -1.27576,3.0533 -1.40253,4.1896 -0.39809,3.5689 1.01711,-0.6286 1.23659,-0.2932 0.70872,1.0823 -0.42089,1.0962 -1.14247,4.85 -1.60404,8.3419 -0.79868,6.0417 -0.73302,6.2612 1.35684,4.5391 2.06163,-1.699 2.09602,-1.6491 0.56134,0.8154 -1.24808,2.0043 -1.32054,3.3149 -0.30643,5.5406 0.93959,2.0621 0.97899,5.8835 0.13452,13.0593 -1.50034,12.7502 -1.64987,17.3751 -1.16628,36.084 0.31009,11.99794 0.61821,14.21794 1.50696,10.85848 0.61446,-2.32251 1.5847,-5.05884 2.15611,-6.08058 z m -3.83325,-49.1171 c -0.27634,-1.8248 -0.50265,-0.3319 -0.50265,3.3179 0,3.6497 0.22617,5.1428 0.50265,3.3179 0.27634,-1.8248 0.27634,-4.8109 0,-6.6358 z m -27.85337,4.2228 c -0.39991,-1.4931 -0.73494,-3.6648 -0.74397,-4.826 -0.0228,-2.8809 -2.05105,-2.6599 -3.68974,0.4022 -1.07307,2.0051 -0.92186,2.981 0.7478,4.826 2.81755,3.1133 4.57653,2.9215 3.68591,-0.4022 z m 71.93313,-41.3351 c 8.49683,-15.2066 9.71012,-19.505 6.30346,-22.3323 -2.02009,-1.6765 -2.6958,-1.3008 -4.67498,2.599 -0.73061,1.4397 -2.41426,3.2138 -3.74141,3.9425 -1.32715,0.7288 -2.73219,1.7575 -3.1223,2.2862 -0.39034,0.5287 -2.56027,1.886 -4.8225,3.0163 -2.26227,1.1302 -4.28907,2.9985 -4.50398,4.1516 -0.53594,2.8755 7.02335,13.1609 9.34413,12.714 1.01958,-0.1965 3.36744,-3.0661 5.21758,-6.3773 z m -26.89754,-4.2089 5.3781,-4.7216 -7.76992,-7.2797 c -7.69213,-7.2069 -7.79336,-7.2563 -10.11259,-4.9371 -2.31923,2.3192 -2.3164,2.3358 0.28044,1.6567 2.12516,-0.5557 2.65024,-0.1441 2.76607,2.1694 0.23894,4.7705 -0.22344,6.4083 -2.24969,7.9706 -1.06696,0.8226 -1.53518,1.9003 -1.04055,2.3949 0.49462,0.4947 1.88279,-0.4044 3.08481,-1.998 l 2.18548,-2.8973 0.82956,2.6137 c 0.45628,1.4376 1.69154,2.6138 2.74505,2.6138 1.71064,0 1.72154,0.2257 0.10214,2.1114 -5.58038,6.4979 -3.44875,6.6679 3.80106,0.3032 z m 75.73437,-4.3501 c -0.40083,-0.4008 -1.44152,-0.4437 -2.31248,-0.095 -0.96244,0.3853 -0.67657,0.6711 0.72896,0.729 1.27184,0.052 1.98443,-0.233 1.58352,-0.6337 z m -59.51012,-4.7003 c 2.44463,-1.659 5.12643,-3.0163 5.95959,-3.0163 2.62516,0 4.4105,-2.755 4.4105,-6.8059 0,-5.3764 -1.44507,-5.7982 -5.47039,-1.5967 -1.88461,1.9671 -4.59892,3.5766 -6.03177,3.5766 -4.02951,0 -10.21496,3.5602 -10.21496,5.8796 0,2.639 2.30231,4.979 4.89897,4.979 1.10184,0 4.00348,-1.3574 6.44806,-3.0163 z m -18.58607,-8.9776 c 0,-1.4235 -2.35311,-2.9463 -3.21733,-2.0821 -0.86426,0.8643 0.65852,3.2174 2.08207,3.2174 0.6244,0 1.13526,-0.5109 1.13526,-1.1353 z m 72.07102,-61.6983 c 4.68187,-9.1762 -0.80717,-17.8562 -16.23606,-25.6746 -3.40438,-1.7251 -6.50483,-4.1292 -6.88988,-5.3424 -0.62727,-1.9764 -1.86049,-2.1545 -11.85264,-1.7126 -9.84902,0.4355 -11.47549,0.8316 -13.91602,3.3875 -1.5199,1.5918 -2.33427,2.911 -1.80973,2.9314 6.12452,0.2394 18.68206,2.6647 21.75059,4.2011 4.453,2.2296 6.29539,1.6039 6.473,-2.1981 0.18377,-3.9326 2.53259,4.9725 2.44034,9.2519 -0.041,1.8974 -0.71186,4.218 -1.49103,5.1569 -0.77917,0.9388 -1.06222,2.0614 -0.62901,2.4946 0.4332,0.4332 1.59678,-0.2586 2.58576,-1.5374 1.765,-2.2821 1.83942,-2.2763 4.04251,0.316 1.23754,1.4563 2.72566,2.1894 3.3171,1.6342 1.43955,-1.3513 6.85946,0.8059 5.905,2.3503 -0.41359,0.6692 -0.17693,1.2167 0.52573,1.2167 0.70274,0 1.27772,1.674 1.27772,3.7201 0,4.3573 2.233,4.2603 4.50662,-0.1956 z m -87.75559,-1.7145 c 0,-0.9954 -0.54292,-1.8098 -1.20649,-1.8098 -0.66358,0 -1.20654,0.8144 -1.20654,1.8098 0,0.9953 0.54296,1.8097 1.20654,1.8097 0.66357,0 1.20649,-0.8144 1.20649,-1.8097 z m 38.60823,-1.8098 c 1.30718,-0.8448 0.19836,-1.1747 -3.99239,-1.188 -3.56494,-0.01 -5.51458,0.4469 -5.05643,1.188 0.94821,1.5343 6.67473,1.5343 9.04882,0 z m -27.2861,-0.7712 c 4.88274,-0.6692 5.34353,-0.9646 3.48628,-2.2348 -1.17704,-0.805 -4.44753,-1.8218 -7.26773,-2.2594 -4.88278,-0.7576 -5.12765,-0.6509 -5.12765,2.2349 0,3.308 0.44141,3.42 8.9091,2.2593 z m 49.00322,-1.6418 c 0,-2.8536 -1.02026,-2.9925 -5.37681,-0.7323 -3.40785,1.768 -2.44527,2.8709 2.66214,3.0501 1.94207,0.068 2.71467,-0.5915 2.71467,-2.3178 z m -75.79934,-8.5318 c 2.20668,-2.37 5.91243,-4.8272 8.23495,-5.4604 2.4765,-0.6753 4.71529,-2.2612 5.41375,-3.835 1.48201,-3.3392 3.02763,-3.5314 2.17486,-0.2704 -0.52942,2.0245 -0.0365,2.413 3.05804,2.413 2.02894,0 3.99158,-0.4895 4.3613,-1.0878 0.36982,-0.5983 4.06659,-1.4412 8.21516,-1.8732 12.61468,-1.3136 13.98419,-1.7445 13.34255,-4.1982 -0.87284,-3.3378 -5.63378,-4.9059 -14.8951,-4.9059 -7.07191,0 -8.61357,-0.3762 -9.8855,-2.413 -1.93951,-3.1056 -4.7852,-3.0686 -7.65245,0.099 -1.25063,1.382 -3.91369,3.2104 -5.91786,4.0632 -4.90887,2.0889 -12.69283,9.8865 -12.69283,12.7152 0,1.2561 -0.54292,2.6193 -1.2065,3.0294 -1.65583,1.0234 -1.51465,4.9686 0.28045,7.8433 1.37202,2.197 1.55182,2.219 2.32201,0.2855 0.45915,-1.1529 2.6403,-4.0352 4.84698,-6.4051 z m 5.82192,-1.2627 c 0,-0.6635 -0.54292,-0.8709 -1.20649,-0.4608 -0.66358,0.4099 -1.20649,1.2886 -1.20649,1.9521 0,0.6636 0.54291,0.871 1.20649,0.4609 0.66357,-0.4099 1.20649,-1.2886 1.20649,-1.9522 z m 51.30941,-3.2467 c 10.59918,0.9682 19.52698,1.5544 19.83957,1.3027 1.17617,-0.9473 -3.12247,-2.7034 -6.66119,-2.7211 -2.02392,-0.01 -4.35893,-0.6971 -5.18885,-1.5266 -2.02251,-2.0213 -34.63171,-1.9246 -36.66503,0.109 -0.76968,0.7696 -2.60373,1.3994 -4.07566,1.3994 -3.24651,0 -6.49315,1.156 -6.49315,2.3121 0,0.4661 4.49395,0.064 9.98654,-0.8941 8.71695,-1.5201 12.43643,-1.5177 29.25777,0.018 z m -3.71966,-13.3931 c 1.29924,-2.1022 -0.81383,-4.9349 -3.68131,-4.9349 -1.99538,0 -2.88718,0.6832 -2.88718,2.212 0,1.2165 0.36207,2.5738 0.80434,3.0162 1.17562,1.1757 4.97577,0.9823 5.76415,-0.2932 z m 19.97464,-3.1251 c 0,-1.2065 1.2065,-1.8098 3.61952,-1.8098 1.99073,0 3.61952,-0.5429 3.61952,-1.2065 0,-0.68 -3.40579,-1.2065 -7.80443,-1.2065 -6.19079,0 -7.67051,-0.34888 -7.15678,-1.68768 1.48369,-3.8665 -2.34075,-3.1148 -6.19502,1.2175 -4.96309,5.57868 -4.09773,6.45858 6.37651,6.48428 5.90669,0.014 7.54068,-0.374 7.54068,-1.7913 z m -8.14393,-2.6414 c 1.16126,-0.3037 3.06151,-0.3037 4.22277,0 1.1613,0.3037 0.21113,0.5517 -2.11139,0.5517 -2.32251,0 -3.27263,-0.248 -2.11138,-0.5517 z m -9.7632,543.75964 c 0,-1.65894 0.27406,-2.33761 0.60859,-1.50814 0.3347,0.82947 0.3347,2.18681 0,3.01628 -0.33471,0.82946 -0.60859,0.15093 -0.60859,-1.50814 z m 20.27242,-12.06505 c -0.78829,-2.19164 1.6671,-45.70314 2.72338,-48.26031 0.41132,-0.99536 1.07147,-6.96758 1.46733,-13.27154 0.70831,-11.27959 3.54022,-27.24182 5.67231,-31.97244 0.59818,-1.32715 1.83942,-7.29937 2.75831,-13.27159 0.91894,-5.97222 1.72332,-9.38768 1.78762,-7.58993 0.16644,4.65492 -2.48489,21.95119 -3.47524,22.67126 -1.76979,1.28684 -3.78537,15.98102 -4.96486,36.1952 -0.67762,11.61266 -1.58484,21.9283 -2.01604,22.92366 -0.43138,0.99536 -1.3505,9.1393 -2.04293,18.0976 -0.6924,8.95831 -1.55183,15.47345 -1.90988,14.47809 z m -17.86769,-16.22754 c -0.10807,-8.56651 0.25765,-13.95258 0.90202,-13.27159 0.62012,0.65555 0.6981,6.82736 0.1824,14.4178 l -0.90206,13.27154 z m 1.35292,-28.41325 c 0,-2.98608 0.2353,-4.20767 0.52285,-2.71463 0.28774,1.49305 0.28774,3.93622 0,5.42931 -0.28774,1.49304 -0.52285,0.27132 -0.52285,-2.71468 z m 1.02778,-14.57858 c 0.0825,-4.92155 0.56526,-12.74878 1.07298,-17.39381 0.60251,-5.51252 0.70694,-2.57947 0.30096,8.44553 -0.65692,17.82765 -1.62843,24.15596 -1.37371,8.94828 z m 12.67172,-15.01648 c -1.34206,-3.49736 -0.80594,-7.8634 1.05323,-8.57682 0.99536,-0.38213 1.80978,-1.39272 1.80978,-2.24609 0,-1.29865 2.46087,-3.01627 4.32145,-3.01627 1.06878,0 0.44141,5.92904 -0.70193,6.63579 -0.66357,0.40995 -1.20653,1.55073 -1.20653,2.53469 0,0.98392 -1.01689,2.88048 -2.25972,4.21456 -2.0102,2.15767 -2.34336,2.20783 -3.01628,0.45418 z m -10.22782,-19.93201 c -0.0994,-3.01929 0.32787,-6.00542 0.94958,-6.6358 0.62167,-0.63042 1.34124,-3.58938 1.59898,-6.57546 0.4145,-4.80021 0.49307,-4.58356 0.67939,1.87006 0.11583,4.01469 -0.29047,7.81516 -0.90284,8.44558 -0.61254,0.63038 -1.34557,2.77496 -1.62902,4.76568 -0.38167,2.68116 -0.56216,2.19638 -0.69609,-1.87006 z m 3.71866,-24.06983 c 0,-2.32251 0.24806,-3.27263 0.55176,-2.11138 0.3037,1.16126 0.3037,3.06151 0,4.22277 -0.3037,1.16125 -0.55176,0.21113 -0.55176,-2.11139 z m 24.08241,-3.01627 c -0.0274,-1.99073 0.38167,-6.06269 0.91278,-9.04878 l 0.96604,-5.4293 0.009,5.4293 c 0.005,2.98609 -0.4063,7.05805 -0.91274,9.04878 l -0.92103,3.61952 -0.0534,-3.61952 z m -22.85152,-6.0325 c 0.0137,-2.65435 0.26037,-3.59814 0.54902,-2.09734 0.28865,1.50079 0.27771,3.67251 -0.0228,4.82601 -0.30187,1.15355 -0.53813,-0.0743 -0.52472,-2.72867 z m 0.9975,-8.54613 c 0.0579,-1.40549 0.34383,-1.69141 0.72892,-0.72892 0.34839,0.87096 0.30552,1.91156 -0.0953,2.31248 -0.40083,0.40083 -0.68606,-0.31191 -0.63366,-1.58356 z m 25.43186,-2.91573 c 0,-1.65893 0.27405,-2.3376 0.60853,-1.50813 0.33471,0.82951 0.33471,2.1868 0,3.01627 -0.3347,0.82947 -0.60853,0.15094 -0.60853,-1.50814 z m 1.20649,-7.23904 c 0,-1.65893 0.27406,-2.3376 0.60858,-1.50813 0.33471,0.82951 0.33471,2.1868 0,3.01627 -0.33471,0.82947 -0.60858,0.15094 -0.60858,-1.50814 z m 1.20654,-18.0976 c 0,-1.65894 0.27405,-2.33761 0.60853,-1.50814 0.33471,0.82952 0.33471,2.18681 0,3.01628 -0.3347,0.82947 -0.60853,0.15093 -0.60853,-1.50814 z m -146.07454,-67.56435 c -0.0365,-0.99536 0.45997,-2.62416 1.1032,-3.61952 1.42528,-2.20546 1.42528,-0.30051 0,3.01627 -0.68368,1.59104 -1.05947,1.79656 -1.1032,0.60325 z m 31.2659,-6.79663 -3.01627,-1.73399 3.52645,0.34428 c 1.93956,0.18924 3.74934,1.02281 4.02171,1.85228 0.62026,1.88904 -0.67069,1.7573 -4.53189,-0.46243 z m 94.10753,0.0137 c 0,-1.42697 0.40858,-1.6194 1.50814,-0.70999 0.82947,0.6861 3.13689,1.48561 5.12761,1.77672 2.90871,0.42545 2.61253,0.56471 -1.50809,0.71 -3.99987,0.1409 -5.12766,-0.24989 -5.12766,-1.77673 z m -123.06369,-0.90963 c 0,-0.54506 0.79034,-2.70186 1.75638,-4.79286 0.966,-2.09105 2.83666,-6.51651 4.15697,-9.83438 2.88896,-7.25974 3.31523,-5.40705 0.59764,2.59739 -1.83195,5.39588 -1.81594,5.78863 0.30141,7.40603 2.11859,1.61812 2.0988,1.6671 -0.37574,0.93116 -1.90336,-0.56604 -3.13096,-0.0365 -4.52441,1.95342 -1.05177,1.50162 -1.9123,2.28425 -1.9123,1.73924 z m 39.89949,-2.26059 c -0.0465,-1.82483 0.45815,-3.31787 1.12173,-3.31787 1.41607,0 1.41607,0.92732 0,4.22276 -0.91885,2.13825 -1.04658,2.03519 -1.12173,-0.90489 z m 98.62255,1.8905 c 0.87092,-0.34839 1.91157,-0.30552 2.31248,0.0953 0.40083,0.40083 -0.31145,0.6861 -1.58356,0.63371 -1.40549,-0.0579 -1.6914,-0.34383 -0.72892,-0.72892 z m -121.32933,-1.21402 c 1.16126,-0.3037 3.06151,-0.3037 4.22277,0 1.16125,0.3037 0.21113,0.55177 -2.11139,0.55177 -2.32251,0 -3.27264,-0.24807 -2.11138,-0.55177 z m 127.28646,0.0319 c 0.82947,-0.3347 2.18681,-0.3347 3.01627,0 0.82947,0.33471 0.15094,0.60858 -1.50813,0.60858 -1.65894,0 -2.33761,-0.27405 -1.50814,-0.60858 z m 1.60869,-8.08971 c 0.27633,-0.24351 2.6744,-0.77384 5.3287,-1.17804 3.36353,-0.51213 4.09477,-0.40356 2.41303,0.35842 -2.31612,1.04935 -8.77837,1.73354 -7.74173,0.81962 z m 11.89446,-3.10748 c 1.48926,-0.94223 1.51894,-2.46008 0.20611,-10.5436 -0.84342,-5.19359 -1.68224,-17.85596 -1.86405,-28.13859 -0.18194,-10.28263 -0.4104,-19.91728 -0.50785,-21.41033 -0.3192,-4.88698 -2.17372,-2.85225 -3.84893,4.22277 -1.08369,4.57671 -1.79341,6.01367 -2.08567,4.22277 -0.49699,-3.04524 -1.52022,-3.40005 -3.6534,-1.26682 -2.03126,2.03121 -1.93897,-2.28371 0.13407,-6.27387 2.00157,-3.85245 4.07009,-11.76368 5.67823,-21.71705 0.69687,-4.3133 1.86423,-9.1996 2.59411,-10.8586 0.72988,-1.6589 1.78584,-4.1021 2.34659,-5.4293 0.56079,-1.3271 1.17703,-5.1276 1.36951,-8.4455 l 0.34976,-6.0325 0.91788,6.0325 c 0.50484,3.3179 2.07126,8.1856 3.4809,10.8171 1.66641,3.1108 2.50022,6.6984 2.38348,10.2553 -0.12039,3.6717 0.18012,4.9085 0.91474,3.7612 0.7566,-1.1819 1.14479,-0.065 1.25788,3.6196 0.36024,11.73839 -0.37529,24.19975 -1.53919,26.08327 -0.47976,0.7763 -0.34246,3.75372 0.30507,6.61641 1.08779,4.80937 0.91068,5.53784 -2.33031,9.58486 -3.56558,4.45232 -5.94217,10.71164 -4.05852,10.68893 0.56964,-0.009 2.12156,-1.40071 3.44871,-3.09745 1.32714,-1.69674 6.80533,-8.07056 12.17371,-14.16398 11.65415,-13.22814 12.74058,-15.09925 12.37395,-21.31224 -0.15504,-2.63031 0.0944,-5.15912 0.55505,-5.61955 0.83398,-0.83398 1.26668,3.48149 0.92413,9.217 -0.23621,3.95304 -3.82216,12.40646 -5.78339,13.63315 -0.84843,0.53075 -1.54261,1.63929 -1.54261,2.46351 0,1.89027 -9.858,11.65306 -11.76664,11.65306 -0.78104,0 -2.07021,1.22158 -2.86484,2.71467 -0.79463,1.49304 -3.00118,4.65711 -4.90344,7.03124 -3.1943,3.98674 -3.39726,4.83887 -2.65558,11.14926 0.44187,3.75797 1.54325,7.44694 2.44796,8.19779 2.70141,2.24198 1.88539,3.48386 -2.27623,3.46425 -2.8341,-0.0137 -3.43885,-0.32376 -2.18142,-1.11921 z m -11.89975,-40.58733 c 0.0579,-1.40553 0.34382,-1.6914 0.72892,-0.72896 0.34838,0.87096 0.30552,1.91156 -0.0953,2.31248 -0.40082,0.40082 -0.68605,-0.31191 -0.63366,-1.58352 z m 2.41302,-6.03255 c 0.0579,-1.40553 0.34383,-1.6914 0.72892,-0.72892 0.34839,0.87092 0.30553,1.91157 -0.0953,2.31249 -0.40083,0.40082 -0.68606,-0.31191 -0.63366,-1.58357 z m -101.34661,-20.51063 c 0.0579,-1.40549 0.34382,-1.6914 0.72896,-0.72892 0.34839,0.87097 0.30553,1.91157 -0.0953,2.31248 -0.40083,0.40083 -0.68606,-0.3119 -0.63371,-1.58356 z m 98.83833,-21.87791 c 0,-1.2497 0.59987,-2.8721 1.33307,-3.6053 0.73317,-0.7332 1.50404,-6.3159 1.71307,-12.4061 0.26266,-7.6581 0.93403,-11.6935 2.17645,-13.0847 0.98803,-1.1064 2.04349,-3.369 2.34541,-5.0279 l 0.54893,-3.0163 0.11036,3.0163 c 0.2207,6.0295 -5.31832,35.4267 -6.7658,35.9092 -0.80375,0.2676 -1.4614,-0.5354 -1.4614,-1.7852 z m -10.57867,-7.5809 c 0,-2.3225 0.24807,-3.2726 0.55176,-2.1113 0.3037,1.1612 0.3037,3.0615 0,4.2227 -0.30369,1.1613 -0.55176,0.2112 -0.55176,-2.1114 z m -46.52932,-97.3248 c -1.80312,-1.8031 -0.57415,-2.8152 3.41843,-2.8152 4.73818,0 5.65949,1.7465 1.50813,2.8591 -3.48153,0.933 -3.95386,0.9288 -4.92656,-0.046 z m -5.33495,-7.9429 c 0.89422,-2.7164 17.8022,-2.6066 17.8022,0.1159 0,0.536 -2.74285,0.4127 -6.0952,-0.2741 -4.53755,-0.9295 -6.69166,-0.8761 -8.42917,0.2089 -2.9766,1.8589 -3.90174,1.8446 -3.27783,-0.051 z m 3.88605,-13.168 c -4.94817,-4.3445 -4.77033,-6.0189 0.24807,-2.3358 4.02919,2.9571 11.98197,2.3808 12.86492,-0.9321 0.48104,-1.8051 0.53453,-1.8043 0.66317,0.01 0.13589,1.9169 -3.10679,4.6438 -7.40147,6.2239 -1.40166,0.5157 -3.54606,-0.4818 -6.37469,-2.9654 z m -0.66745,-70.69908 c -0.32422,-0.9732 -4.20822,-1.8231 -10.75801,-2.3543 -5.6377,-0.4573 -9.16451,-1.0517 -7.83736,-1.3211 1.32719,-0.2695 4.84461,-2.4674 7.81656,-4.8847 4.24812,-3.4552 4.95757,-3.7571 3.31788,-1.4118 -3.11112,4.4498 -2.62443,6.0631 1.83555,6.0841 4.74201,0.023 7.42545,1.5336 6.68226,3.7632 -0.42044,1.2609 -0.66837,1.2901 -1.05688,0.1245 z m 14.5836,-13.4871 c 0,-1.9737 -0.80585,-2.5089 -3.92117,-2.6045 -3.66562,-0.1126 -3.72458,-0.1787 -0.90489,-1.017 5.007,-1.4888 9.97369,2.9243 6.03255,5.3601 -0.66357,0.4099 -1.20649,-0.3721 -1.20649,-1.7386 z"
       id="path623"
       inkscape:connector-curvature="0" />
  </g>
</svg>
