<?xml version="1.0" encoding="UTF-8" standalone="no"?>
<!-- Created with Inkscape (http://www.inkscape.org/) -->

<svg
   xmlns:dc="http://purl.org/dc/elements/1.1/"
   xmlns:cc="http://creativecommons.org/ns#"
   xmlns:rdf="http://www.w3.org/1999/02/22-rdf-syntax-ns#"
   xmlns:svg="http://www.w3.org/2000/svg"
   xmlns="http://www.w3.org/2000/svg"
   xmlns:sodipodi="http://sodipodi.sourceforge.net/DTD/sodipodi-0.dtd"
   xmlns:inkscape="http://www.inkscape.org/namespaces/inkscape"
   width="210mm"
   height="554.37054mm"
   viewBox="0 0 210.00001 554.3706"
   version="1.1"
   id="svg8"
   inkscape:version="0.92.3 (2405546, 2018-03-11)"
   sodipodi:docname="communists.svg">
  <defs
     id="defs2" />
  <sodipodi:namedview
     id="base"
     pagecolor="#ffffff"
     bordercolor="#666666"
     borderopacity="1.0"
     inkscape:pageopacity="0.0"
     inkscape:pageshadow="2"
     inkscape:zoom="1.4"
     inkscape:cx="363.62451"
     inkscape:cy="976.84367"
     inkscape:document-units="mm"
     inkscape:current-layer="layer1"
     showgrid="false"
     fit-margin-top="0"
     fit-margin-left="0"
     fit-margin-right="0"
     fit-margin-bottom="0"
     inkscape:window-width="1920"
     inkscape:window-height="1017"
     inkscape:window-x="-8"
     inkscape:window-y="-8"
     inkscape:window-maximized="1" />
  <metadata
     id="metadata5">
    <rdf:RDF>
      <cc:Work
         rdf:about="">
        <dc:format>image/svg+xml</dc:format>
        <dc:type
           rdf:resource="http://purl.org/dc/dcmitype/StillImage" />
        <dc:title></dc:title>
      </cc:Work>
    </rdf:RDF>
  </metadata>
  <g
     inkscape:label="Layer 1"
     inkscape:groupmode="layer"
     id="layer1"
     transform="translate(-356.47937,992.2469)">
    <path
       style="fill:#000000;stroke-width:1.01956737"
       d="m 529.80585,-438.40655 c -1.40194,-0.22735 -3.46656,-0.83389 -4.58807,-1.34795 -1.12152,-0.51401 -4.10377,-1.45446 -6.62719,-2.08982 -2.52345,-0.63536 -7.48758,-2.48973 -11.03148,-4.12084 -3.54389,-1.63106 -6.68317,-2.96556 -6.97615,-2.96556 -0.29287,0 -1.66702,-0.89224 -3.05335,-1.98273 -1.96462,-1.54537 -3.70578,-1.89642 -7.89347,-1.59145 -6.1524,0.448 -14.25119,-1.66451 -17.8488,-4.65574 -2.84468,-2.36523 -4.52661,-10.26036 -3.58062,-16.80793 0.44658,-3.09104 0.18459,-4.47964 -1.03712,-5.49345 -1.37431,-1.14059 -1.92875,-1.09065 -3.48016,0.31329 -1.01497,0.91855 -2.33371,1.67006 -2.9305,1.67006 -1.56297,0 -2.32284,2.5621 -2.32284,7.83228 0,2.84645 -1.05381,6.90267 -2.75786,10.61507 -2.47139,5.38417 -3.1333,6.06774 -6.37227,6.58075 -1.98794,0.31483 -4.41112,1.00622 -5.38486,1.53635 -2.35217,1.28062 -9.95463,1.23808 -9.95463,-0.0559 0,-0.56076 -2.30843,-1.01955 -5.12983,-1.01955 -3.61931,0 -5.30262,-0.45036 -5.71668,-1.52937 -0.74981,-1.95391 -6.35208,-1.96644 -17.19159,-0.0385 -14.14139,2.51532 -41.63349,0.44415 -43.04841,-3.24317 -0.27591,-0.71856 -1.11447,-1.30644 -1.86382,-1.30644 -1.69037,0 -4.53678,-3.9314 -4.53678,-6.26604 0,-0.95373 1.13693,-3.08525 2.52654,-4.73666 1.98658,-2.36095 3.67522,-3.14949 7.90164,-3.68994 6.99554,-0.89451 18.48786,-3.71988 19.13929,-4.70537 0.28053,-0.42416 2.81747,-1.45469 5.63799,-2.29001 2.82052,-0.83532 6.89909,-2.72052 9.06351,-4.18936 2.16439,-1.46879 4.55944,-2.67054 5.32232,-2.67054 0.95042,0 1.39056,-1.36409 1.39812,-4.33316 0.0116,-4.15965 1.97949,-12.28653 4.01394,-16.56794 1.51322,-3.18452 5.15114,-23.63703 5.15114,-28.95985 0,-2.63332 0.40982,-5.22371 0.91073,-5.75645 0.50092,-0.5327 1.14811,-9.91528 1.4382,-20.85016 0.48689,-18.35175 2.1904,-32.07581 4.74587,-38.23376 1.13462,-2.73416 2.6976,-12.77595 4.20527,-27.01854 0.68269,-6.44877 1.63107,-12.1609 2.10755,-12.69361 0.47648,-0.53274 0.8663,-3.62967 0.8663,-6.88209 0,-4.46907 -0.35876,-5.91347 -1.46918,-5.91347 -0.80803,0 -1.75272,0.45879 -2.0993,1.01955 -1.10175,1.7827 -5.74712,1.09932 -8.13227,-1.19631 l -2.30231,-2.21587 5.47218,-5.34259 c 4.02392,-3.92858 5.47218,-6.09293 5.47218,-8.17786 v -2.83531 l -2.54893,3.45487 c -1.40189,1.90016 -2.54888,3.78709 -2.54888,4.19317 0,0.40608 -1.60583,1.73079 -3.56852,2.94379 -1.96266,1.213 -3.56848,2.85624 -3.56848,3.65164 0,1.70151 -0.64411,1.82301 -2.33706,0.4408 -9.92993,-8.10719 -14.92169,-12.62497 -15.43898,-13.973 -0.84958,-2.21394 1.22722,-8.2631 4.16658,-12.13639 1.31681,-1.73522 2.39424,-3.63237 2.39424,-4.2159 0,-0.5835 1.14699,-1.81249 2.54889,-2.73104 1.40194,-0.9186 2.54892,-2.26504 2.54892,-2.99212 0,-0.72707 1.19505,-2.36107 2.65567,-3.63106 2.43706,-2.11899 2.60045,-2.75065 1.98524,-7.67483 -0.8033,-6.42923 0.89944,-14.12825 4.07429,-18.42192 1.30937,-1.77087 2.75994,-5.99232 3.44513,-10.02622 0.65093,-3.83214 1.6099,-7.73202 2.13105,-8.66633 2.57428,-4.61532 4.07853,-23.10137 4.02573,-49.47353 -0.052,-26.02131 0.55514,-37.35921 2.00077,-37.35921 0.37572,0 1.24294,-1.5473 1.92682,-3.4386 0.68388,-1.8912 3.87298,-5.8324 7.0869,-8.7582 3.21392,-2.9259 7.77753,-7.1136 10.14133,-9.3061 2.36384,-2.1924 4.88726,-3.991 5.60763,-3.9968 2.14142,-0.015 10.30279,-4.4718 10.758,-5.8718 0.32215,-0.991 -1.8706,-1.265 -9.35665,-1.1691 -5.37761,0.069 -9.77748,0.5367 -9.77748,1.0395 0,0.5027 -0.91759,0.9141 -2.03911,0.9141 -1.12155,0 -2.03914,-0.2478 -2.03914,-0.5504 0,-0.9868 4.33085,-9.1216 5.13503,-9.6453 2.1099,-1.374 7.09978,-13.0468 7.09978,-16.6085 0,-3.5915 -0.19229,-3.862 -2.29402,-3.2255 -3.03343,0.9187 -8.37551,4.1838 -9.95101,6.0822 -1.4249,1.7169 -3.04849,2.0048 -3.04849,0.5405 0,-0.5372 2.99058,-3.1753 6.64572,-5.8626 l 6.64572,-4.8859 -0.64974,-6.3971 c -0.5902,-5.8106 -0.40392,-6.752 2.03156,-10.2664 2.4628,-3.5538 2.61586,-4.362 1.87757,-9.9159 -0.44211,-3.3257 -0.71536,-8.6497 -0.60731,-11.8311 l 0.19653,-5.7844 -3.55546,0.577 -3.55545,0.5769 0.69671,-3.7138 c 0.82252,-4.3843 0.14142,-4.5546 -4.79678,-1.199 -3.41461,2.3202 -3.66023,2.3596 -3.17646,0.5097 0.28824,-1.1027 0.92961,-2.0049 1.42498,-2.0049 0.49536,0 0.90063,-1.0947 0.90063,-2.4326 0,-3.0493 6.35343,-9.3855 10.9232,-10.8937 1.84293,-0.6082 3.35076,-1.4784 3.35076,-1.9338 0,-0.4554 2.06462,-1.4375 4.58803,-2.1826 3.88963,-1.1485 4.58314,-1.7477 4.55567,-3.9359 -0.0193,-1.4197 -0.72654,-3.4989 -1.57488,-4.6204 -2.82938,-3.7406 0.5386,-13.8906 6.31798,-19.0403 2.99323,-2.6671 10.96408,-4.2098 19.03551,-3.6841 9.7317,0.6338 19.55435,5.2223 27.3642,12.7828 3.52987,3.4171 6.00639,5.1248 6.43247,4.4354 0.38111,-0.6165 1.54513,-1.121 2.5868,-1.121 1.04171,0 2.04693,-0.4153 2.23387,-0.923 0.33255,-0.9032 3.59884,-1.4539 7.28963,-1.229 1.38675,0.084 1.77095,0.7957 1.52937,2.8309 -0.26127,2.1997 -1.09878,2.9346 -4.39278,3.8538 -2.47817,0.6915 -4.2048,1.8349 -4.41439,2.9232 -0.71633,3.7196 20.65652,23.2331 27.99956,25.5637 3.37149,1.0701 8.44333,7.0926 9.13707,10.8498 0.62272,3.3723 0.57679,3.4437 -0.96726,1.5014 -1.5723,-1.9779 -1.62197,-1.9444 -1.65342,1.1164 -0.0536,5.2166 -3.08255,7.0319 -11.83023,7.0899 -7.48157,0.05 -10.19196,0.8811 -7.76384,2.3818 2.6636,1.6462 10.22637,16.6986 11.10254,22.0978 0.56345,3.4723 0.5344,3.5041 -2.62253,2.8727 l -3.1923,-0.6384 v 5.2252 c 0,3.965 -0.36878,5.2253 -1.52937,5.2253 -0.84114,0 -1.52933,0.6264 -1.52933,1.3919 0,0.7655 -0.9507,2.6004 -2.11264,4.0776 -1.87745,2.3868 -2.28276,2.5156 -3.64131,1.157 -1.95529,-1.9552 -4.05999,-1.955 -4.81045,7e-4 -0.32293,0.8411 -1.28946,1.5294 -2.14821,1.5294 -1.10467,0 -1.56135,1.0437 -1.56135,3.5685 0,1.9626 -0.4588,3.5684 -1.01955,3.5684 -0.56076,0 -1.01956,-0.9176 -1.01956,-2.0391 0,-2.7454 -1.19423,-2.5663 -4.15544,0.6231 -6.11024,6.5811 -16.33407,12.9585 -29.74519,18.5546 -1.54209,0.6434 -2.8038,1.7175 -2.8038,2.3868 0,1.533 3.01015,18.2527 3.60555,20.0268 0.56415,1.6811 2.65409,0.5617 8.11945,-4.3489 2.24307,-2.0154 8.43693,-6.6127 13.76418,-10.2162 14.8413,-10.0392 14.60501,-9.7656 14.06455,-16.2829 -0.6357,-7.6657 0.77613,-6.179 1.59781,1.6826 0.71432,6.8342 2.40057,9.0639 9.461,12.5101 1.76146,0.8597 3.46759,2.2535 3.79136,3.0973 0.3237,0.8438 1.21135,1.5342 1.97237,1.5342 1.66563,0 5.81733,4.2308 5.81733,5.9282 0,0.6648 0.4588,1.2087 1.01956,1.2087 0.56076,0 1.01959,1.12 1.01959,2.4888 0,1.3688 0.39325,2.7318 0.87389,3.0288 0.48065,0.2971 1.46695,3.4211 2.19175,6.9423 0.7248,3.5212 1.69153,6.8881 2.14828,7.4822 1.35731,1.7653 1.49222,72.43005 0.14142,74.05772 -1.35527,1.63303 -3.04776,19.75554 -4.18234,44.78334 -0.77647,17.12861 -0.92954,18.07958 -3.29037,20.44038 -1.36178,1.36182 -3.26402,2.7784 -4.22716,3.14798 -0.96318,0.36955 -2.02157,1.95337 -2.35209,3.51947 -0.95508,4.52587 -2.02662,5.88373 -4.91542,6.22877 -1.48556,0.17764 -2.70099,0.7211 -2.70099,1.2081 0,0.48701 -0.53848,2.17707 -1.19666,3.75565 l -1.19666,2.87019 -0.58758,-3.55692 c -0.97747,-5.91722 -7.21476,-5.07049 -7.21476,0.9794 0,1.52925 -1.36806,4.7994 -3.04016,7.26705 -1.67207,2.46762 -3.0485,5.08718 -3.05871,5.82123 -0.0116,0.73405 -0.47733,1.05107 -1.03809,0.70449 -0.56079,-0.34643 -1.01959,-0.14566 -1.01959,0.4467 0,1.45237 -6.36526,4.04743 -7.64674,3.11746 -0.56076,-0.40692 -3.07951,-1.00233 -5.59722,-1.32309 -2.87227,-0.36608 -5.21214,-1.36687 -6.28083,-2.68661 -0.93674,-1.15685 -2.63208,-2.10338 -3.7674,-2.10338 -3.70435,0 -7.02343,-1.84212 -7.67344,-4.2588 -0.36878,-1.37157 -2.14939,-3.0698 -4.23028,-4.0349 l -3.59325,-1.66652 -2.94588,3.5738 c -5.10648,6.19509 -5.60377,10.0693 -5.83371,45.45087 -0.15067,23.20329 -0.55432,32.85122 -1.41746,33.89123 -0.77112,0.92915 -1.29396,6.51732 -1.44849,15.48237 -0.24392,14.15458 -0.61463,21.75319 -2.76214,56.62983 -0.86321,14.01916 -0.87628,19.45423 -0.0489,20.28169 0.82745,0.82746 0.97439,-0.38111 0.54827,-4.50958 -0.43294,-4.19486 -0.13757,-6.51793 1.15338,-9.06643 1.25505,-2.47791 1.89865,-7.17993 2.32489,-16.98492 0.32408,-7.45711 0.9406,-13.19217 1.3698,-12.74459 1.33218,1.38937 2.91531,21.82609 2.3139,29.87151 -0.53124,7.10713 -0.40169,7.8023 1.83568,9.85139 1.32402,1.21254 3.5496,2.35956 4.94575,2.54892 1.4266,0.19345 2.68746,1.1258 2.87859,2.12851 0.26435,1.38603 -0.35914,1.78424 -2.79342,1.78424 -1.7234,0 -3.13343,0.43071 -3.13343,0.95709 0,2.79767 24.49729,2.60654 28.53655,-0.22273 2.79717,-1.95922 1.08815,-3.17211 -3.15619,-2.23987 -2.84064,0.62388 -3.08765,0.47236 -2.77894,-1.70475 0.22388,-1.57896 1.59457,-2.97939 4.04091,-4.12862 2.03618,-0.95651 5.58894,-3.94053 7.8951,-6.63115 l 4.19297,-4.89203 0.008,4.70545 c 0.004,3.16933 -0.6591,5.55171 -2.03252,7.29776 -1.12156,1.42579 -2.03915,3.33904 -2.03915,4.25166 0,1.35778 0.38034,1.4557 2.09368,0.5388 2.84406,-1.52213 6.0544,-7.01188 6.05906,-10.36121 0.002,-1.50898 0.46261,-3.02718 1.02337,-3.37376 1.3538,-0.83671 1.37265,-29.05769 0.0193,-29.05769 -1.07582,0 -1.80124,2.48114 -2.38485,8.15655 -0.20192,1.96266 -0.44037,0.16493 -0.53012,-3.99475 -0.16956,-7.85128 1.49658,-20.19068 2.97789,-22.0568 1.57188,-1.98019 2.87416,-15.07067 3.99826,-40.19083 0.61405,-13.72245 1.50113,-25.19261 1.97121,-25.48921 1.05381,-0.66488 2.77347,-14.26517 4.18858,-33.12709 1.0515,-14.01454 1.37161,-15.78471 2.62743,-14.5289 0.62437,0.62438 -0.7618,22.15086 -2.70573,42.01888 -0.5487,5.60763 -0.99497,13.52203 -0.99181,17.58753 0.003,4.06554 -0.38188,7.39187 -0.85566,7.39187 -0.47379,0 -1.17127,9.06142 -1.54995,20.13645 -0.66457,19.43828 -1.00888,25.10691 -2.12084,34.92019 -0.28593,2.52345 -0.81031,14.20186 -1.1653,25.95209 -0.49625,16.42594 -0.99874,21.90328 -2.17409,23.69707 -2.25522,3.44186 -1.03667,5.14182 6.06854,8.46588 9.26635,4.33516 14.41025,7.54677 21.51037,13.43012 7.82134,6.48098 7.78651,6.4258 7.80547,12.36297 0.0231,6.95843 -2.80534,9.38219 -11.95297,10.24615 -7.23214,0.68299 -15.33378,0.67247 -19.63804,-0.027 z m -89.72196,-39.07208 c 0,-0.56076 -1.03231,-1.03979 -2.29402,-1.06457 -2.53582,-0.0497 -11.59972,-2.29363 -12.36795,-3.06186 -0.26781,-0.26782 3.72455,-0.48118 8.8718,-0.47421 9.05426,0.0116 9.45703,-0.0871 12.38224,-3.0461 1.66298,-1.68228 4.09244,-5.19727 5.39881,-7.81109 2.64318,-5.28852 6.60715,-18.28192 5.81811,-19.07096 -0.60739,-0.60743 -7.61329,6.02399 -7.61329,7.20632 0,0.45398 -2.11576,2.91119 -4.70168,5.4605 -4.67223,4.60607 -8.17589,5.57996 -7.90133,2.19625 0.16377,-2.01945 -1.72706,-2.3008 -3.50617,-0.52172 -0.67293,0.67293 -1.22348,0.92391 -1.22348,0.55775 0,-1.29299 2.53933,-6.38267 3.68643,-7.38882 0.63933,-0.5608 1.99776,-3.31361 3.01878,-6.1174 1.02102,-2.80384 2.12863,-5.32725 2.4613,-5.60763 0.33256,-0.28054 1.25311,-2.57444 2.04539,-5.09785 0.79224,-2.52342 2.49351,-6.6063 3.78061,-9.07307 1.28707,-2.46677 2.34015,-5.11334 2.34015,-5.88126 0,-0.76796 1.12252,-3.56717 2.49451,-6.22049 1.372,-2.65327 3.26317,-8.95341 4.20265,-14.00024 0.93944,-5.04687 2.10003,-9.95532 2.57902,-10.90763 1.47484,-2.93227 2.41363,-21.20876 1.08938,-21.20876 -0.63286,0 -1.45473,1.2617 -1.82644,2.80379 -0.37186,1.54213 -1.56474,4.86845 -2.65115,7.39187 -1.08642,2.52345 -2.62627,6.09474 -3.42186,7.93625 -0.79563,1.8415 -1.44656,3.82034 -1.44656,4.3974 0,1.56563 -6.21825,14.41345 -7.97089,16.46913 -2.11884,2.48515 -3.50578,2.22701 -2.73921,-0.50978 0.68989,-2.46295 0.70912,-2.50881 5.87556,-14.01904 1.88775,-4.20573 4.02192,-9.7114 4.74256,-12.23481 0.72068,-2.52342 1.68336,-5.31904 2.13934,-6.21247 0.45594,-0.89343 1.88905,-6.3991 3.18467,-12.23481 1.29562,-5.83572 2.66449,-10.83981 3.04194,-11.12019 1.29504,-0.96202 4.00974,-21.45335 3.88608,-29.33322 -0.0682,-4.33455 0.19923,-10.657 0.59398,-14.04991 0.61278,-5.26694 0.40423,-6.68318 -1.42629,-9.68589 -1.1792,-1.93433 -2.14573,-4.31987 -2.14782,-5.3012 -0.002,-0.98132 -0.46261,-1.78424 -1.02336,-1.78424 -0.5608,0 -1.0196,-1.14702 -1.0196,-2.54892 0,-2.08454 -0.4976,-2.54893 -2.73142,-2.54893 -2.77917,0 -9.59614,-2.03922 -10.52294,-3.14783 -1.14117,-1.36502 -7.07939,-1.85006 -7.86211,-0.64214 -0.44234,0.68256 -1.34652,7.66434 -2.00936,15.51501 -0.66284,7.85066 -1.50136,17.71496 -1.86343,21.92069 -0.36223,4.20573 -1.04795,8.56437 -1.52421,9.68588 -1.25704,2.96021 -1.93656,11.72504 -0.90903,11.72504 0.48122,0 1.15905,-1.26171 1.50636,-2.8038 1.85626,-8.24229 2.72746,-11.26993 4.11387,-14.29669 0.84052,-1.83499 2.38072,-7.11126 3.42274,-11.72503 1.04202,-4.61378 1.93325,-7.52582 1.98049,-6.47124 0.1422,3.17242 -3.11554,22.47491 -3.97825,23.57172 -0.44111,0.56076 -1.78236,4.91944 -2.9806,9.68589 -1.19828,4.76649 -2.57058,9.58396 -3.04964,10.70548 -0.47903,1.12151 -1.44417,4.56256 -2.14474,7.64673 -0.70056,3.08421 -1.69626,6.29586 -2.21271,7.137 -0.72537,1.18144 -0.82514,1.06545 -0.43856,-0.50978 0.27514,-1.12155 0.74946,-4.33316 1.05389,-7.137 0.50554,-4.65631 0.465,-4.78876 -0.4682,-1.52933 -0.56191,1.96266 -1.44301,4.31706 -1.95799,5.23199 -2.46088,4.37197 -5.14814,34.14788 -5.14814,57.04273 0,7.42273 -0.39687,12.15369 -1.01956,12.15369 -0.56075,0 -1.01959,2.24447 -1.01959,4.98768 0,5.67179 -3.57715,25.20517 -5.10559,27.87953 -1.51119,2.64422 -1.19597,5.07319 1.02733,7.91548 1.09659,1.40193 2.00401,3.10475 2.01646,3.78408 0.0231,1.34687 5.17738,2.98048 12.61757,4.00026 2.60577,0.35722 4.73774,1.0458 4.73774,1.53038 0,0.48453 1.37643,0.88098 3.05871,0.88098 1.68227,0 3.0587,-0.45884 3.0587,-1.01959 z m 78.86816,-165.76387 c 0.85131,-0.32677 3.41037,-3.45264 5.68678,-6.94663 3.32008,-5.09585 4.27359,-7.64104 4.81959,-12.86505 0.37417,-3.58181 1.29107,-7.68204 2.0371,-9.11156 2.47903,-4.75027 1.83819,-5.82809 -3.86708,-6.5038 -2.87986,-0.34103 -5.47977,-0.86375 -5.77757,-1.16155 -1.2214,-1.22144 0.61895,-1.38899 4.83978,-0.44065 7.08826,1.59265 9.63175,0.49456 14.80963,-6.39354 2.54026,-3.37928 4.61864,-7.24567 4.61864,-8.592 0,-2.89531 -0.30481,-2.96325 -3.60251,-0.80252 -3.50968,2.29964 -10.88836,1.06417 -17.04373,-2.8537 -2.66364,-1.69538 -4.84294,-3.30055 -4.84294,-3.56706 0,-0.26666 1.39504,-0.17803 3.10013,0.19653 3.91791,0.86052 7.60697,-1.41415 9.57036,-5.90107 1.38297,-3.16047 1.44024,-3.1859 1.52027,-0.67521 0.0459,1.43493 -0.59047,3.49955 -1.41376,4.58808 -2.06817,2.73435 -1.92432,3.50844 0.65197,3.50844 2.46869,0 5.9428,-2.70152 5.9428,-4.62121 0,-0.68558 0.68819,-1.81765 1.52933,-2.51575 2.30612,-1.91391 1.99067,0.76014 -0.58877,4.99119 -1.65395,2.71304 -1.82594,3.63772 -0.79505,4.27486 1.84181,1.13832 3.62193,-0.63359 5.0377,-5.01442 0.66507,-2.05803 2.29436,-5.61738 3.62061,-7.9097 1.32629,-2.29232 2.41144,-4.74911 2.41144,-5.45954 0,-0.71043 1.17951,-3.64008 2.62114,-6.51031 4.12183,-8.20645 5.53537,-15.33563 5.53537,-27.9179 0,-6.99415 0.40007,-11.51082 1.01959,-11.51082 1.26421,0 1.40864,-32.26533 0.14798,-33.04455 -0.47942,-0.29633 -1.19628,-5.25183 -1.59303,-11.01233 -0.39676,-5.7605 -1.2016,-12.7713 -1.78852,-15.5796 -1.16021,-5.5514 -4.42692,-11.7332 -6.20026,-11.7332 -0.61104,0 -1.86882,-0.6859 -2.79504,-1.5241 -1.50055,-1.358 -2.14273,-1.3024 -5.89356,0.5098 -2.31521,1.1186 -4.60044,2.0338 -5.07831,2.0338 -1.92763,0 -7.45472,7.0798 -11.38026,14.5773 -3.17115,6.0567 -4.1625,9.1041 -4.1625,12.7956 0,2.66499 -0.48203,5.32751 -1.07123,5.91667 -1.39114,1.39115 -1.57684,42.16054 -0.19614,43.0522 0.54138,0.34951 1.3103,2.92961 1.70879,5.73344 0.39841,2.80379 0.98784,6.19856 1.30976,7.54393 0.3576,1.49384 0.19036,2.20199 -0.42928,1.81903 -1.05639,-0.65285 -2.24731,1.43959 -4.21594,7.40728 -0.80191,2.43078 -0.83035,3.7195 -0.0921,4.17568 0.66496,0.41097 -0.30095,2.99508 -2.56114,6.85137 -3.96928,6.77258 -4.61716,11.63032 -2.04161,15.30747 2.31005,3.298 0.72391,2.77273 -2.70214,-0.8949 l -2.95269,-3.16086 -3.6622,7.82011 -3.66216,7.82006 2.71162,4.09753 c 2.49401,3.76871 7.19673,6.68394 15.19864,9.42169 1.0616,0.36338 1.66482,0.92576 1.34051,1.25007 -0.73124,0.73124 -10.44313,-2.37644 -14.21037,-4.54711 -2.73656,-1.57677 -2.84264,-1.53419 -6.33135,2.5416 -1.95152,2.27988 -4.91639,4.71196 -6.58861,5.40463 -2.08948,0.86549 -3.25026,2.21486 -3.71141,4.31432 -0.36916,1.68023 -1.7721,4.01236 -3.11793,5.18255 -3.17222,2.75821 -3.09246,3.79899 0.29132,3.79899 2.81116,0 7.45757,-3.50254 7.45757,-5.62169 0,-1.19061 5.00394,-3.98816 5.76763,-3.22448 0.70966,0.70974 -8.95715,10.88532 -10.34113,10.88532 -1.98354,0 -2.69941,2.86873 -1.28217,5.13812 1.60409,2.56858 2.00982,2.53078 7.71321,-0.71825 l 4.76961,-2.71713 -3.75888,3.99159 c -3.26117,3.46301 -3.58378,4.22781 -2.43652,5.7758 1.93815,2.61508 7.67829,2.32862 10.24121,-0.51113 4.35497,-4.82541 5.87024,-5.22979 2.69085,-0.71814 -2.08354,2.95659 -3.0236,5.26259 -2.59779,6.37232 0.73378,1.91213 3.02676,2.32276 4.01768,0.71944 0.34643,-0.56076 1.46725,-1.01955 2.49043,-1.01955 1.77958,0 6.80864,-4.85127 10.50567,-10.13416 0.9574,-1.36807 2.03576,-2.19236 2.39641,-1.83172 1.24583,1.24583 -0.60781,5.65437 -4.17043,9.91856 -4.41263,5.28158 -4.75775,6.90656 -1.17474,5.53164 z m -14.63541,-15.20935 c 0,-0.84114 0.45879,-1.52933 1.01959,-1.52933 0.56076,0 1.01956,0.68819 1.01956,1.52933 0,0.84114 -0.4588,1.52937 -1.01956,1.52937 -0.5608,0 -1.01959,-0.68823 -1.01959,-1.52937 z m 6.14865,0 c 0,-0.56076 0.44473,-1.70779 0.98835,-2.54893 0.54357,-0.84113 0.9883,-1.07053 0.9883,-0.50977 0,0.56076 -0.44473,1.70778 -0.9883,2.54892 -0.54362,0.84114 -0.98835,1.07054 -0.98835,0.50978 z m 10.62325,-7.54778 c -0.53275,-0.50635 -1.88621,-1.14132 -3.00772,-1.41107 -1.64475,-0.39563 -1.53454,-0.51336 0.56977,-0.60877 1.43492,-0.0651 3.49958,0.55536 4.58808,1.37866 1.57133,1.18849 1.65349,1.50363 0.39879,1.52937 -0.86919,0.0193 -2.01622,-0.38188 -2.54892,-0.88819 z m 14.14976,-82.30034 c -1.42352,-2.1741 -1.81769,-4.54823 -1.66806,-10.04731 0.18188,-6.68656 0.67313,-8.13258 6.88209,-20.25972 3.67738,-7.18259 6.68614,-13.68419 6.68614,-14.44802 0,-0.7638 0.48808,-1.69037 1.0846,-2.05903 1.97376,-1.21986 -1.92828,13.95828 -4.07309,15.84348 -1.14634,1.00753 -4.14847,8.26341 -4.14847,10.02634 0,0.99034 -0.46712,2.26773 -1.03801,2.83863 -1.41215,1.41214 -1.60544,15.69886 -0.22389,16.55267 0.74476,0.4603 0.6581,1.26055 -0.27475,2.53609 -1.28664,1.75958 -1.46675,1.70471 -3.22668,-0.98313 z m 14.62616,-57.18577 c 0.80565,-9.03203 1.35231,-9.44973 1.35231,-1.03343 0,3.70528 -0.44319,7.0108 -0.98484,7.34555 -0.61879,0.38226 -0.75536,-1.96358 -0.36762,-6.31212 z m -122.86033,149.93456 c 1.02548,-0.92803 1.86454,-2.25537 1.86454,-2.94961 0,-0.69424 0.6882,-1.52633 1.52933,-1.84909 1.74918,-0.67124 2.22416,-9.827 0.50978,-9.827 -0.56076,0 -1.03582,1.03231 -1.0557,2.29405 -0.0485,3.09585 -1.93595,6.25845 -5.31657,8.90957 -1.54213,1.20933 -2.80384,2.85369 -2.80384,3.65414 0,1.97102 2.98314,1.83977 5.27246,-0.23198 z m -11.39838,-7.46188 c 1.13917,-0.72018 1.22888,-1.25343 0.35761,-2.12481 -1.47997,-1.47997 -5.44683,-0.27322 -5.44683,1.65692 0,1.65356 2.80588,1.91152 5.0893,0.46789 z m 128.21915,-2.70858 c 1.64397,-0.44061 2.29301,-1.37558 2.29043,-3.2997 -0.003,-2.5421 -0.30635,-2.70125 -5.69383,-2.99304 -6.04311,-0.32716 -8.57654,0.83378 -8.57654,3.93056 0,2.43547 6.74421,3.76527 11.97994,2.36218 z m -133.34898,-2.36947 c 1.27134,-0.80418 1.19955,-1.28587 -0.49144,-3.29796 -1.08911,-1.29597 -2.81866,-3.06707 -3.8435,-3.9358 -1.78324,-1.51164 -1.75118,-1.63946 0.74631,-2.97608 1.43526,-0.76811 2.60957,-1.71087 2.60957,-2.09498 0,-0.3842 1.14703,-1.93607 2.54893,-3.44876 1.4019,-1.51268 2.54892,-3.61722 2.54892,-4.67674 0,-1.05955 0.4519,-2.20573 1.00422,-2.54707 1.58428,-0.97913 0.008,5.67514 -2.22735,9.39991 -2.34993,3.91653 -2.13128,8.93677 0.39001,8.95569 0.94372,0.008 2.83189,1.06137 4.19594,2.34284 l 2.48018,2.32997 0.66773,-3.33877 c 0.49132,-2.45656 0.1553,-4.03217 -1.2723,-5.96284 -1.66405,-2.25078 -1.74474,-2.89112 -0.56727,-4.50137 0.75497,-1.03254 1.53692,-2.37001 1.73765,-2.97219 0.20077,-0.60215 2.70191,1.31708 5.55819,4.26499 2.85628,2.94788 5.43638,4.96637 5.73356,4.48557 1.00599,-1.62771 -2.16732,-8.88717 -4.05063,-9.26647 -3.43245,-0.69127 -6.39131,-3.34336 -6.70764,-6.01216 -0.22312,-1.88305 -1.10175,-2.8673 -3.01158,-3.37381 -2.34635,-0.62229 -3.41361,0.0308 -8.21855,5.03046 -5.4427,5.66315 -11.00567,13.18457 -11.00567,14.88034 0,0.47768 1.17034,2.40292 2.6008,4.27833 2.62379,3.43996 5.63502,4.29582 8.57392,2.4369 z m 75.28462,-4.32881 c 2.89735,-2.89739 1.55526,-4.05698 -6.21448,-5.36952 -5.89124,-0.9952 -6.28434,-2.93577 -4.83824,-23.88358 0.67324,-9.75259 1.60902,-18.4699 2.07946,-19.37177 0.72414,-1.38822 2.27671,-13.65405 4.72448,-37.32464 0.28978,-2.80384 0.91046,-6.01548 1.37901,-7.137 0.46851,-1.12152 1.34679,-5.02136 1.95171,-8.66633 1.98015,-11.93116 3.21623,-17.80907 4.18088,-19.88155 0.52203,-1.12152 1.69472,-5.02136 2.60599,-8.66633 0.91127,-3.64493 2.48095,-8.46243 3.48814,-10.70543 1.00722,-2.2431 2.15567,-5.5994 2.55216,-7.4585 0.62322,-2.9224 0.46677,-3.3367 -1.15512,-3.0587 -1.61688,0.277 -1.99553,-0.6995 -2.74122,-7.0704 -0.58811,-5.0248 -1.29812,-7.3918 -2.21714,-7.3918 -2.55536,0 -9.55972,8.0593 -10.85345,12.4881 -0.6964,2.3841 -1.55877,4.5641 -1.91633,4.8445 -0.35761,0.2806 -1.48633,4.639 -2.50831,9.6859 -1.02199,5.0469 -2.24986,9.69032 -2.72858,10.31882 -0.47872,0.62847 -1.90601,7.28116 -3.17176,14.7837 -1.26576,7.50258 -2.62492,14.15415 -3.02044,14.7813 -0.39548,0.62712 -1.18221,7.50921 -1.74821,15.29352 -1.62655,22.36947 -3.25758,36.49784 -4.34102,37.60329 -0.65367,0.66696 -0.79374,-1.09624 -0.40501,-5.09781 0.32678,-3.3646 0.84157,-10.93488 1.14387,-16.82289 0.65633,-12.78258 2.54376,-28.65542 3.5765,-30.07724 0.95921,-1.32059 2.61771,-11.50408 4.0682,-24.9794 0.63374,-5.88801 1.53314,-11.62309 1.99861,-12.74459 0.4655,-1.1215 1.41758,-4.792 2.11579,-8.1565 0.69817,-3.3646 2.32045,-7.7804 3.60501,-9.8129 2.68507,-4.2484 4.31097,-11.0882 2.63582,-11.0882 -0.59771,0 -2.23371,-1.1471 -3.63564,-2.549 -3.36583,-3.3658 -4.38292,-3.2161 -5.19319,0.7647 -0.85158,4.1837 -2.86672,10.2913 -3.61626,10.9604 -0.88349,0.7886 -3.93375,16.0555 -4.68514,23.44998 -0.37032,3.64498 -0.99517,6.85662 -1.38834,7.137 -0.39313,0.28054 -1.73341,7.39187 -2.97836,15.80329 -1.24494,8.41142 -2.69096,16.2111 -3.21345,17.33262 -1.93052,4.14408 -4.12138,28.20033 -4.64272,50.97839 -0.407,17.78136 -0.90788,24.27116 -2.07209,26.84679 l -1.53539,3.39673 -6.54202,-0.33795 c -6.65604,-0.34373 -7.07946,-0.20809 -5.75748,1.84493 0.87262,1.35527 10.7343,4.44423 14.18848,4.44423 1.30013,0 2.36388,0.45879 2.36388,1.01955 0,0.56076 1.34549,1.01959 2.99,1.01959 3.52139,0 4.90413,-2.79759 3.07342,-6.21829 -0.80492,-1.50401 -0.98907,-5.5334 -0.57251,-12.52825 1.53958,-25.85329 3.56728,-27.0064 3.47025,-1.97344 -0.0802,20.6722 0.0748,21.04822 9.18012,22.27363 2.63944,0.35529 5.946,1.03235 7.3479,1.50475 3.76901,1.26999 7.58519,1.1834 8.97222,-0.20347 z m -59.95057,-4.89392 c 0,-2.15036 -1.48336,-2.74368 -2.54893,-1.01956 -0.74349,1.20295 0.22081,3.05871 1.58953,3.05871 0.52766,0 0.9594,-0.91763 0.9594,-2.03915 z m -3.5227,-29.07114 c 0.38627,-3.09161 1.15647,-5.9018 1.71156,-6.24488 0.5551,-0.34296 0.61617,-0.9105 0.13564,-1.26097 -0.48041,-0.35067 -1.38232,-1.55485 -2.00419,-2.67636 -0.62188,-1.12152 -1.73588,-2.03915 -2.47556,-2.03915 -2.83905,0 -4.25567,11.81474 -1.87391,15.62853 2.30377,3.68894 3.75707,2.59008 4.50638,-3.40717 z m 4.43466,-19.61319 c 0.54481,-2.10289 1.3073,-6.57624 1.69446,-9.94079 0.38712,-3.3646 1.05319,-6.5762 1.48012,-7.13696 1.01909,-1.33859 3.43665,-24.89474 2.82522,-27.52836 -0.41891,-1.8042 -0.60939,-1.70848 -1.65345,0.83108 -0.64904,1.57858 -1.18803,4.56083 -1.19774,6.62718 -0.0116,2.06635 -0.69794,6.96845 -1.52937,10.89361 -0.83139,3.92511 -1.51165,10.19543 -1.51165,13.93407 0,3.73862 -0.38897,6.95042 -0.86441,7.13735 -1.26691,0.4981 -2.42519,9.00617 -1.22606,9.00617 0.54577,0 1.43804,-1.72051 1.98288,-3.82335 z m 6.225,2.23382 c 0,-0.87424 -0.46631,-1.30132 -1.0362,-0.94911 -0.56989,0.35221 -0.77224,1.06753 -0.44963,1.58953 0.87401,1.41418 1.48583,1.15049 1.48583,-0.64042 z m 1.45407,-62.8811 c 0.39857,-6.29921 1.08564,-11.69015 1.52683,-11.9799 0.44115,-0.28978 1.89048,-7.17942 3.22074,-15.31052 1.33026,-8.1311 2.70349,-15.0132 3.05157,-15.2935 0.34797,-0.2806 0.9539,-2.5744 1.34622,-5.0978 0.39232,-2.5235 0.98553,-5.6802 1.31824,-7.0151 0.39286,-1.5761 0.19884,-2.291 -0.55348,-2.0391 -1.82154,0.6099 -10.3439,11.4164 -10.35092,13.1252 -0.003,0.8451 -0.74965,2.913 -1.65827,4.5953 -1.32929,2.4612 -1.64594,6.2163 -1.62089,19.2229 0.0193,10.3197 0.43514,16.56835 1.14849,17.28171 1.40749,1.40748 1.47254,10.5654 0.0813,11.42531 -1.10502,0.68295 -0.40966,2.53863 0.95127,2.53863 0.44786,0 1.1404,-5.15391 1.53901,-11.45313 z m 52.45354,-59.30152 c 2.54785,-5.0704 4.00485,-6.7862 6.5463,-7.709 5.79328,-2.1037 15.25528,-7.3013 16.31919,-8.9643 0.44843,-0.7009 1.42845,-1.2744 2.17783,-1.2744 0.74935,0 4.47941,-2.8955 8.28896,-6.4344 6.8834,-6.3944 7.10263,-6.915 4.58838,-10.8983 -0.53093,-0.8411 -1.2355,-2.8098 -1.56574,-4.3748 -0.73513,-3.4842 -1.97788,-2.841 -4.65675,2.4099 -1.28868,2.5261 -4.1181,5.3887 -7.63217,7.722 -3.07138,2.0393 -5.58431,4.113 -5.58431,4.6082 0,0.4952 -1.26175,1.3574 -2.80383,1.9158 -1.54209,0.5585 -3.72143,1.423 -4.84294,1.9211 -1.12152,0.4981 -5.90027,1.4058 -10.61947,2.0171 -4.71917,0.6112 -8.81492,1.3459 -9.10166,1.6326 -0.2867,0.2867 -0.526,4.0724 -0.53174,8.4125 -0.008,6.4373 0.41899,8.5955 2.3203,11.7145 1.2819,2.1029 2.66587,3.8234 3.07554,3.8234 0.40962,0 2.21957,-2.9349 4.02211,-6.5219 z m -14.20502,-1.6346 c 2.24103,0 2.3398,-0.2702 1.72848,-4.7304 -0.35645,-2.6017 -0.64839,-6.081 -0.64839,-7.7317 0,-4.4647 -2.08874,-3.0073 -4.05428,2.8288 -0.93455,2.7749 -2.46928,6.751 -3.41049,8.8359 -2.48268,5.4992 -2.10716,6.656 1.14826,3.537 1.5728,-1.5068 3.9292,-2.7396 5.23642,-2.7396 z m 15.35405,-31.1234 c 2.52342,-0.3476 5.31237,-1.2869 6.19767,-2.0871 0.8853,-0.8002 2.34936,-1.4548 3.25342,-1.4548 0.90411,0 1.95206,-0.4988 2.32882,-1.1084 0.37687,-0.6096 1.55041,-0.8821 2.60807,-0.6055 1.05771,0.2767 2.18,0.087 2.49402,-0.421 0.31405,-0.5081 1.28032,-0.9238 2.14727,-0.9238 1.22406,0 1.48937,0.9112 1.18734,4.0782 -0.25819,2.7075 0.0231,4.0783 0.83405,4.0783 1.74705,0 7.23761,-5.7253 8.08025,-8.4257 0.39124,-1.2538 1.12325,-2.5455 1.62663,-2.8702 0.76812,-0.4955 1.25443,-3.031 1.84231,-9.6052 0.0501,-0.5608 0.70646,-0.2089 1.45855,0.7824 1.46189,1.9265 4.17517,1.5075 5.05307,-0.7804 0.82931,-2.1612 -4.11094,-6.873 -6.43331,-6.1359 -2.84935,0.9043 -7.18899,-3.1972 -7.18899,-6.7946 0,-2.4689 -0.40307,-2.8748 -2.85477,-2.8748 -3.55919,0 -5.30174,-1.6703 -5.30174,-5.0819 0,-1.8466 -0.91528,-3.1757 -3.0587,-4.4418 -1.68232,-0.9938 -3.0587,-2.4364 -3.0587,-3.2059 0,-0.7696 -1.60583,-3.1018 -3.56852,-5.1829 -1.96266,-2.081 -3.56848,-4.1783 -3.56848,-4.6606 0,-1.2573 -2.81042,-1.084 -3.61827,0.2231 -0.43132,0.6979 -2.46326,0.8548 -5.55784,0.4292 -3.09458,-0.4256 -5.12648,-0.2686 -5.55784,0.4292 -0.37379,0.6051 -2.02924,1.1002 -3.67842,1.1002 -2.51871,0 -2.99855,-0.4079 -2.99855,-2.549 0,-1.6002 -0.57644,-2.5489 -1.54875,-2.5489 -1.16044,0 -1.38128,-0.6674 -0.88075,-2.6617 0.6117,-2.4371 0.4628,-2.5976 -1.76482,-1.903 -5.81703,1.8141 -7.11442,2.6388 -8.05875,5.1226 -1.56375,4.1129 -1.21982,5.3942 1.87776,6.996 3.358,1.7365 8.3362,8.7999 8.3362,11.828 0,1.1512 -0.68823,2.3571 -1.52937,2.6799 -0.84114,0.3229 -1.52933,1.0163 -1.52933,1.5411 0,0.5248 -1.83522,3.385 -4.0783,6.3559 -4.43374,5.8724 -5.06509,8.3774 -2.29401,9.1015 1.34267,0.3507 1.2165,0.4956 -0.50978,0.5846 -3.7489,0.1934 -3.4158,-3.714 0.82977,-9.7343 3.5106,-4.9781 3.82982,-7.4801 0.95447,-7.4801 -1.12152,0 -2.03915,0.6242 -2.03915,1.3871 0,0.7628 -1.16914,3.1099 -2.59809,5.2156 -2.10578,3.103 -2.54049,4.8206 -2.29402,9.0635 0.29402,5.0619 0.40454,5.235 3.34451,5.235 3.65654,0 4.85435,3.0287 1.6056,4.0598 -1.15343,0.3661 -2.09711,1.0626 -2.09711,1.5477 0,1.1244 2.17448,1.7284 9.17611,2.5488 6.43979,0.7546 13.8972,3.7416 10.91137,4.3705 -1.0083,0.2123 -2.38469,-0.067 -3.0587,-0.6205 -0.67402,-0.5537 -4.66075,-1.1626 -8.85935,-1.3532 -6.61428,-0.3001 -7.67961,-0.109 -7.97641,1.4323 -0.27013,1.4029 0.37341,1.78 3.0458,1.785 1.86358,0 4.76475,0.7509 6.44707,1.661 6.2596,3.3865 9.15248,3.6339 21.92069,1.8746 z m -0.4924,-7.5921 c -0.33718,-0.5453 -2.54345,-1.5516 -4.90313,-2.2361 -2.35972,-0.6846 -5.20798,-1.7992 -6.3295,-2.4769 -1.12152,-0.6778 -3.53025,-1.5432 -5.35272,-1.9232 -3.30078,-0.6882 -4.46318,-2.9389 -2.03915,-3.9483 0.91956,-0.3831 0.76064,-0.9472 -0.5707,-2.0262 -1.70413,-1.3811 -1.58721,-1.4835 1.52933,-1.3385 2.72653,0.1268 3.434,-0.2597 3.68405,-2.0128 0.2289,-1.6033 -0.37032,-2.3405 -2.29402,-2.8233 -1.44228,-0.3618 -2.60353,-1.3852 -2.60353,-2.294 0,-1.3219 0.6438,-1.1458 3.31357,0.9063 3.47253,2.669 4.76669,6.355 2.89016,8.2316 -0.60824,0.6082 -1.10592,1.4293 -1.10592,1.8247 0,0.7111 7.07037,5.1917 12.48972,7.9148 1.54209,0.7749 2.8038,1.8104 2.8038,2.3011 0,1.1829 -0.75005,1.1337 -1.51196,-0.099 z m 8.65273,-7.42 c 0.008,-2.6313 4.0756,-7.9016 6.09864,-7.9016 1.12976,0 2.0541,0.4588 2.0541,1.0196 0,0.5607 -0.82584,1.0195 -1.83522,1.0195 -2.51271,0 -4.28219,1.9801 -4.28219,4.792 0,1.2897 -0.45879,2.345 -1.01955,2.345 -0.56076,0 -1.01786,-0.5735 -1.01578,-1.2745 z m -21.41469,-23.478 c -3.41693,-2.4209 -4.13263,-3.3393 -2.80384,-3.5978 0.98133,-0.1907 1.78424,-1.0508 1.78424,-1.9108 0,-0.9096 -0.58773,-1.3381 -1.40509,-1.0245 -1.29539,0.4971 -3.69272,-1.002 -3.69272,-2.3091 0,-0.3083 1.72051,-0.6681 3.82335,-0.7992 2.10289,-0.1311 6.81462,-0.5098 10.47061,-0.8413 5.79641,-0.5257 7.00347,-0.3226 9.43098,1.5869 3.06506,2.4109 3.21912,2.8604 1.74863,5.1004 -0.8816,1.3429 -1.12156,1.3464 -1.96871,0.027 -0.80973,-1.2598 -1.07978,-1.1779 -1.68127,0.5097 -2.54149,7.1311 -8.49555,8.3658 -15.70618,3.257 z m 14.59792,-5.4788 c 0.36531,-0.365 -0.13179,-1.2682 -1.10453,-2.0067 -2.07664,-1.577 -8.39558,-1.8691 -8.39558,-0.3882 0,0.5608 1.60582,1.0196 3.56848,1.0196 1.96269,0 3.56852,0.4588 3.56852,1.0196 0,1.1523 1.36159,1.3572 2.36311,0.3557 z m -25.1167,1.4922 c -0.32562,-0.8133 -0.56708,-0.5717 -0.61598,0.616 -0.0443,1.0748 0.19653,1.677 0.53548,1.3382 0.33872,-0.3387 0.37495,-1.2182 0.0805,-1.9542 z m 94.63943,-3.47 c 1.41512,-0.3553 2.62615,-1.6309 3.01362,-3.1747 0.91562,-3.6481 0.17263,-3.859 -3.05539,-0.8673 -2.28716,2.1197 -3.82894,2.6054 -8.27,2.6054 -3.00233,0 -5.45873,0.4324 -5.45873,0.9609 0,0.9674 7.4874,2.0109 10.03547,1.3985 0.75305,-0.1811 2.43382,-0.5962 3.73503,-0.9228 z m -18.67094,-2.3284 c -1.51048,-1.6119 -3.79017,-3.4695 -5.06598,-4.1278 -2.21332,-1.1421 -2.18997,-1.0096 0.50978,2.8922 1.81584,2.6242 3.63068,4.103 5.06598,4.1278 2.18011,0.038 2.16724,-0.035 -0.50978,-2.8922 z m -79.19212,-0.1036 c -1.00302,-1.1083 -2.22115,-1.7694 -2.70696,-1.4692 -1.45257,0.8978 -1.0036,2.2838 0.90095,2.7815 3.37272,0.8814 3.6252,0.6979 1.80601,-1.3123 z m 82.33757,-5.9052 c -0.33063,-2.0926 -0.98865,-3.9577 -1.46224,-4.1446 -0.4736,-0.1869 -0.86106,-0.904 -0.86106,-1.5935 0,-0.6895 -1.37643,-2.5723 -3.05871,-4.184 -4.24295,-4.065 -4.05675,-6.4488 0.25472,-3.2632 1.82246,1.3465 5.54343,3.4999 8.26876,4.7852 2.72534,1.2854 6.9693,3.8744 9.43102,5.7535 4.6952,3.5839 5.58404,3.4268 2.83304,-0.5009 -1.70459,-2.4336 -14.89579,-11.3627 -16.78647,-11.3627 -1.29997,0 -10.06888,-8.6064 -16.62111,-16.3131 -2.62218,-3.0842 -5.50878,-6.3963 -6.41466,-7.3603 -0.90592,-0.9639 -2.15529,-2.7639 -2.77644,-3.9999 -0.6211,-1.236 -2.31983,-2.9708 -3.77495,-3.855 -1.45511,-0.8842 -4.89615,-3.324 -7.64677,-5.4219 -2.75062,-2.0978 -6.83631,-4.33 -9.07939,-4.9605 -5.28697,-1.4859 -17.25412,-0.4944 -20.74761,1.719 -4.37814,2.7738 -8.31035,6.8078 -8.30599,8.521 0.008,2.7934 8.73873,10.2598 11.99843,10.2598 3.14541,0 13.66823,2.8572 14.50629,3.9388 0.28053,0.3618 3.2103,1.5546 6.51096,2.6506 3.30062,1.0959 8.91881,4.1736 12.48482,6.8392 3.56602,2.6657 7.37946,5.3261 8.47435,5.912 1.09489,0.586 2.80183,2.4386 3.79318,4.1168 0.99138,1.6782 2.18454,3.0513 2.65146,3.0513 0.46697,0 4.10053,3.2004 8.07463,7.1119 3.9741,3.9116 7.59217,6.8854 8.04018,6.6086 0.44797,-0.2771 0.544,-2.2155 0.21348,-4.3081 z m -20.67552,-6.6912 c 0,-0.7463 -1.26171,-2.0073 -2.80379,-2.8021 -1.54209,-0.7948 -3.17073,-2.0193 -3.61916,-2.7212 -0.44843,-0.7019 -1.23099,-1.2761 -1.73896,-1.2761 -0.508,0 -3.58216,-1.8699 -6.83141,-4.1553 -7.174,-5.0458 -11.99089,-7.2971 -20.69151,-9.6706 -3.64497,-0.9944 -7.53221,-2.4195 -8.63832,-3.1671 -2.6352,-1.781 -7.67479,-1.7759 -7.67479,0.01 0,0.8405 2.25837,1.846 5.86254,2.6102 3.22436,0.6838 7.23892,1.8494 8.9212,2.5905 7.32227,3.2254 12.57503,5.8614 17.33266,8.698 2.80379,1.6717 6.93303,3.955 9.1761,5.074 2.24304,1.1191 5.45469,2.9619 7.13696,4.0951 3.63572,2.4491 3.56848,2.4356 3.56848,0.7168 z m 5.42228,-32.683 c 0.37995,-0.9899 -0.0428,-1.2609 -1.4088,-0.9036 -1.07327,0.2805 -1.70008,0.9169 -1.39292,1.4139 0.82943,1.3421 2.1857,1.095 2.80172,-0.5103 z m -47.14737,483.52244 c -2.12624,-1.98092 -2.28408,-2.77027 -1.68193,-8.41142 1.02063,-9.5613 2.68588,-18.14143 4.17652,-21.51889 0.74245,-1.68228 2.13348,-6.95855 3.09115,-11.72503 0.95767,-4.76649 2.04755,-8.89573 2.42195,-9.17611 1.43172,-1.07216 3.07932,-9.11222 4.17864,-20.39136 0.6285,-6.44877 1.58251,-12.5459 2.11996,-13.54916 0.54588,-1.01901 0.97404,-12.60682 0.97,-26.2539 -0.008,-23.966 1.07215,-31.38003 2.55432,-17.5476 1.00414,9.37159 -0.10135,56.54655 -1.38183,58.97004 -0.56642,1.072 -1.54243,6.07837 -2.16885,11.12524 -1.87052,15.0699 -2.92391,20.93902 -3.98955,22.22874 -0.85228,1.03146 -2.3756,7.12236 -5.02275,20.08328 -0.28631,1.40193 -0.99955,3.15319 -1.58493,3.89175 -0.58535,0.73852 -1.09728,4.2942 -1.13763,7.90153 -0.0405,3.60728 -0.10135,6.55874 -0.13603,6.55882 -0.0347,7e-5 -1.11855,-0.9836 -2.40912,-2.18593 z"
       id="path530"
       inkscape:connector-curvature="0" />
  </g>
</svg>
