<?xml version="1.0" encoding="UTF-8" standalone="no"?>
<!-- Created with Inkscape (http://www.inkscape.org/) -->

<svg
   xmlns:dc="http://purl.org/dc/elements/1.1/"
   xmlns:cc="http://creativecommons.org/ns#"
   xmlns:rdf="http://www.w3.org/1999/02/22-rdf-syntax-ns#"
   xmlns:svg="http://www.w3.org/2000/svg"
   xmlns="http://www.w3.org/2000/svg"
   xmlns:sodipodi="http://sodipodi.sourceforge.net/DTD/sodipodi-0.dtd"
   xmlns:inkscape="http://www.inkscape.org/namespaces/inkscape"
   width="210mm"
   height="460.43848mm"
   viewBox="0 0 210.00001 460.43845"
   version="1.1"
   id="svg8"
   inkscape:version="0.92.3 (2405546, 2018-03-11)"
   sodipodi:docname="conservatives.svg">
  <defs
     id="defs2" />
  <sodipodi:namedview
     id="base"
     pagecolor="#ffffff"
     bordercolor="#666666"
     borderopacity="1.0"
     inkscape:pageopacity="0.0"
     inkscape:pageshadow="2"
     inkscape:zoom="0.49497475"
     inkscape:cx="411.73599"
     inkscape:cy="836.38592"
     inkscape:document-units="mm"
     inkscape:current-layer="layer1"
     showgrid="false"
     fit-margin-top="0"
     fit-margin-left="0"
     fit-margin-right="0"
     fit-margin-bottom="0"
     inkscape:window-width="1920"
     inkscape:window-height="1017"
     inkscape:window-x="-8"
     inkscape:window-y="-8"
     inkscape:window-maximized="1" />
  <metadata
     id="metadata5">
    <rdf:RDF>
      <cc:Work
         rdf:about="">
        <dc:format>image/svg+xml</dc:format>
        <dc:type
           rdf:resource="http://purl.org/dc/dcmitype/StillImage" />
        <dc:title></dc:title>
      </cc:Work>
    </rdf:RDF>
  </metadata>
  <g
     inkscape:label="Layer 1"
     inkscape:groupmode="layer"
     id="layer1"
     transform="translate(-356.47937,945.28084)">
    <path
       style="fill:#000000;stroke-width:0.88054591"
       d="m 455.81532,-485.833 c -2.66364,-0.73277 -6.62611,-2.16303 -8.80545,-3.17835 -2.17937,-1.01532 -5.6464,-1.88837 -7.70457,-1.94009 -2.76797,-0.0695 -3.74215,-0.45275 -3.74232,-1.47193 -1.3e-4,-0.75783 -1.38706,-2.03922 -3.08214,-2.84754 -1.69504,-0.80832 -3.0819,-2.0565 -3.0819,-2.77373 0,-1.70106 -2.15335,-2.78022 -7.04438,-3.53033 -5.92033,-0.90795 -11.36751,-3.67559 -12.35714,-6.27849 -1.02331,-2.69156 -0.24062,-8.84269 1.47459,-11.58966 1.07729,-1.72519 1.05319,-2.26194 -0.18637,-4.1536 -1.45519,-2.22091 -1.11776,-8.54666 0.56783,-10.64476 0.41081,-0.51139 1.15031,-5.18677 1.64329,-10.38974 1.05709,-11.15651 2.63741,-20.90613 3.58887,-22.14123 1.44447,-1.87502 2.86751,-23.61234 2.29539,-35.06212 -0.31883,-6.38376 -0.82716,-18.83515 -1.12928,-27.66982 l -0.54933,-16.06299 -3.17738,-0.8826 c -1.74756,-0.48543 -3.6727,-0.88482 -4.27807,-0.88752 -0.60538,-0.003 -1.10069,-0.32615 -1.10069,-0.71899 0,-0.39274 -2.08026,-1.2187 -4.62286,-1.83545 -6.1506,-1.492 -15.62968,-6.29015 -15.62968,-7.91147 0,-1.10175 3.36646,-8.72724 7.43263,-16.83593 0.60717,-1.21074 1.77871,-4.77695 2.60344,-7.92491 0.82472,-3.14794 1.90836,-6.55077 2.4081,-7.56179 0.49971,-1.01106 0.777,-2.99228 0.61616,-4.40274 -0.28155,-2.46782 -0.44513,-2.55362 -4.3438,-2.27612 -3.94617,0.28088 -4.16815,0.15741 -8.54912,-4.75805 -2.47378,-2.77549 -5.127,-6.37241 -5.89607,-7.9931 -0.76908,-1.62073 -1.77023,-2.94676 -2.22474,-2.94676 -0.45454,0 -1.72376,-1.32216 -2.82048,-2.93816 -6.84164,-10.08106 -10.21225,-15.46414 -10.75645,-17.17879 -0.34156,-1.07609 -2.78581,-4.07013 -5.43164,-6.65336 -6.844,-6.68206 -7.07723,-9.82353 -1.6406,-22.09997 0.64341,-1.45289 1.44234,-3.73474 1.77538,-5.07075 0.6505,-2.60942 11.53977,-13.81898 14.48114,-14.90705 0.97871,-0.36206 1.7795,-1.07709 1.7795,-1.58901 0,-0.51189 1.00075,-1.31119 2.22394,-1.77625 1.22315,-0.46503 2.47523,-1.54491 2.78238,-2.39969 0.30718,-0.85481 1.7829,-2.79127 3.27946,-4.3033 1.49659,-1.512 4.50178,-5.0782 6.67822,-7.92491 6.04121,-7.90155 19.48076,-22.22331 22.56979,-24.05127 1.51373,-0.89581 5.07993,-2.29592 7.92492,-3.11143 5.7912,-1.66003 14.31526,-6.82496 18.65746,-11.30497 2.56796,-2.64946 2.77247,-3.22259 1.93536,-5.42429 -0.51478,-1.35402 -0.69503,-3.22098 -0.40053,-4.14888 0.72066,-2.27062 -0.65659,-3.72645 -4.8276,-5.10303 -1.91492,-0.63196 -4.76776,-2.47596 -6.33966,-4.09775 -2.45523,-2.53315 -2.91364,-3.7176 -3.25264,-8.40436 -0.49857,-6.89275 1.28706,-19.14403 3.21407,-22.05174 0.80821,-1.21956 2.70996,-3.2559 4.22609,-4.52518 1.51612,-1.26932 3.41687,-3.69929 4.22389,-5.39999 0.80705,-1.70067 1.84497,-3.09212 2.30657,-3.09212 0.46156,0 0.83923,-0.51189 0.83923,-1.1375 0,-1.77311 7.0556,-8.06765 11.44709,-10.21238 5.77899,-2.82235 21.24193,-5.53371 27.73721,-4.86361 15.04651,1.55234 25.09555,8.46373 25.09555,17.25989 0,3.32269 2.51467,8.15735 5.0996,9.80443 1.25464,0.79943 0.61039,10.77133 -0.81245,12.57483 -1.17763,1.49276 0.13313,9.15453 1.56605,9.15453 0.66611,0 3.48593,-1.5528 6.26631,-3.45069 6.01502,-4.10578 9.89416,-5.37956 9.89416,-3.24887 0,0.77896 0.39623,1.41628 0.88053,1.41628 0.4843,0 0.88054,-0.99063 0.88054,-2.20137 0,-1.9288 0.38156,-2.20137 3.0819,-2.20137 1.69508,0 3.08194,0.39624 3.08194,0.88057 0,0.48429 0.59436,0.88053 1.3208,0.88053 1.50797,0 1.76703,1.38137 0.41568,2.21658 -0.49785,0.30751 -1.64116,-0.34954 -2.5407,-1.46045 -1.41272,-1.74462 -1.83233,-1.85655 -3.07954,-0.82146 -1.33435,1.10741 -1.32543,1.32936 0.11781,2.92396 1.51273,1.67158 1.45143,1.81811 -1.95902,4.68383 -1.93636,1.62708 -4.51127,3.46343 -5.72202,4.08078 -1.21074,0.61739 -4.42876,2.61342 -7.15117,4.43562 -2.72241,1.82224 -5.30175,3.31314 -5.73187,3.31314 -2.19534,0 -2.90272,3.76382 -2.59011,13.78141 l 0.32348,10.36817 3.61233,2.50246 c 3.59692,2.49181 3.61233,2.52669 3.61233,8.17778 0,4.45769 0.28322,5.67529 1.32084,5.67529 1.63074,0 1.83448,-5.29789 0.26424,-6.86826 -0.82182,-0.82183 -0.80878,-1.05666 0.0589,-1.05666 1.96085,0 7.22037,4.59464 8.99002,7.85353 0.94177,1.73431 2.05577,3.74768 2.47557,4.47413 2.18396,3.77953 6.33025,13.23801 7.27764,16.6019 0.59389,2.10868 1.59913,4.03326 2.23379,4.2768 0.63469,0.24362 1.1529,0.89572 1.15154,1.4493 -0.003,1.09014 3.62627,8.65156 4.49772,9.37165 0.2932,0.24228 1.02837,2.02525 1.63404,3.96244 0.6057,1.93723 2.93846,6.29594 5.18396,9.68602 3.75095,5.66291 4.08329,6.6075 4.08951,11.62321 0.003,3.20211 -0.44832,5.91447 -1.0939,6.56008 -0.6054,0.60537 -1.10068,2.03613 -1.10068,3.17948 0,1.42753 -2.47028,4.61374 -7.88511,10.17028 -4.33678,4.45033 -11.50536,12.25211 -15.93014,17.33727 l -8.04502,9.24571 0.55129,11.83417 c 0.30319,6.5088 0.91212,12.26892 1.35309,12.80024 0.441,0.53136 1.0457,6.49898 1.3438,13.26141 0.67216,15.24725 0.48126,15.69634 -7.93058,18.65377 -3.39008,1.19194 -6.59552,2.71419 -7.12318,3.3828 -0.64957,0.82309 -1.01393,12.66468 -1.12818,36.66603 -0.10217,21.45972 -0.5054,35.787 -1.02181,36.30341 -1.12235,1.12235 -1.10115,7.28803 0.0266,7.98552 1.06717,0.65955 1.17986,6.31517 0.13878,6.95868 -0.40802,0.25226 -0.98128,7.12245 -1.27391,15.26725 -0.29254,8.14483 -0.79494,15.49396 -1.11633,16.33143 -0.32149,0.83747 -1.55244,1.76566 -2.73572,2.06266 -5.03198,1.26296 -0.26492,6.02766 9.62421,9.61932 4.65098,1.68922 9.2593,5.41424 10.70304,8.65149 3.14191,7.04522 2.5805,12.12238 -1.57926,14.28222 -8.69236,4.51323 -19.24564,5.77203 -31.20168,3.72182 -5.53271,-0.94876 -6.34582,-0.88176 -9.92248,0.81764 -8.43463,4.0076 -19.58809,5.32933 -27.23038,3.22694 z m 29.93855,-14.30475 c 0,-1.28795 -3.86307,-4.40204 -7.49586,-6.0425 -1.94342,-0.87761 -4.81046,-2.51008 -6.37125,-3.62774 -2.17764,-1.55942 -3.19919,-1.82167 -4.39146,-1.12744 -1.0919,0.63575 -1.18582,0.91258 -0.31583,0.93142 0.68072,0.0133 2.53647,1.01738 4.12385,2.22813 1.58738,1.21074 3.73903,2.20137 4.78141,2.20137 1.04241,0 3.14913,1.33644 4.68163,2.96988 2.67555,2.85177 4.98768,3.99535 4.98768,2.46688 z m 36.1024,-7.77811 c 0,-1.15993 -5.31217,-4.70303 -7.05124,-4.70303 -0.61589,0 -1.55972,-0.54683 -2.09744,-1.21521 -1.31304,-1.63217 -5.08429,-2.42741 -6.70847,-1.41458 -1.09753,0.68441 -0.95156,1.07649 0.88789,2.38484 1.21074,0.86117 3.78282,1.96202 5.71568,2.44632 2.41743,0.6057 3.61733,1.43026 3.8442,2.64164 0.18138,0.96859 0.74385,2.02192 1.24988,2.34071 1.14455,0.72102 4.1595,-1.07705 4.1595,-2.48069 z m -99.50171,-5.58357 c 0,-0.48429 -0.17472,-0.88053 -0.38828,-0.88053 -0.21366,0 -0.6332,0.39624 -0.93252,0.88053 -0.29919,0.4843 -0.12447,0.88054 0.38831,0.88054 0.51286,0 0.93249,-0.39624 0.93249,-0.88054 z m 65.16041,-7.04438 c 1.01339,-0.65489 0.70598,-0.85354 -1.3208,-0.85354 -1.45293,0 -3.23603,0.38409 -3.96247,0.85354 -1.01339,0.65493 -0.70598,0.85358 1.32083,0.85358 1.45289,0 3.236,-0.38409 3.96244,-0.85358 z m -19.04528,-16.17657 c 0.23296,-1.913 0.0815,-3.07209 -0.34456,-2.64164 -0.41767,0.42186 -0.96107,4.92761 -1.20751,10.01277 -0.41771,8.61841 -0.39434,8.79766 0.34458,2.64163 0.43595,-3.63223 0.97935,-8.13797 1.20749,-10.01276 z m 1.76652,-17.06403 c 0.33015,-6.65913 0.78056,-14.28685 1.00115,-16.95048 0.28887,-3.48836 0.18304,-4.22726 -0.37834,-2.64164 -0.42868,1.21074 -0.81893,5.23924 -0.86718,8.95221 -0.0483,3.71297 -0.44337,6.88291 -0.87798,7.04435 -1.19666,0.44449 -1.62854,15.70336 -0.44446,15.70319 0.62597,-6e-5 1.17826,-4.26792 1.56681,-12.10763 z m -28.2895,-90.61898 c -0.60537,-0.24428 -1.59597,-0.24428 -2.20134,0 -0.6054,0.24428 -0.11016,0.44416 1.10065,0.44416 1.21078,0 1.70606,-0.20002 1.10069,-0.44416 z m 7.87406,-3.81132 c 0.76499,-2.06791 0.74828,-2.07577 -1.01658,-0.4786 -1.95294,1.76739 -2.40432,3.4621 -0.77774,2.91989 0.55912,-0.18637 1.36657,-1.28496 1.79432,-2.44129 z m 44.72866,-28.18284 c 0.39142,-0.24361 0.99522,-2.82062 1.34171,-5.7264 0.44093,-3.6976 0.35094,-5.019 -0.29986,-4.40274 -0.96856,0.91724 -2.87257,11.02279 -2.65449,14.08872 0.0689,0.9686 0.29986,0.57366 0.51309,-0.87767 0.21333,-1.45133 0.70808,-2.83819 1.09952,-3.08191 z m -75.71704,-17.17352 c 1.0476,-1.69504 2.46678,-3.08191 3.15372,-3.08191 0.68694,0 1.24902,-0.73906 1.24902,-1.64232 0,-0.9033 0.79247,-2.64986 1.76107,-3.88124 1.28426,-1.63264 1.7611,-3.57216 1.7611,-7.16309 0,-4.28732 -0.22098,-4.92425 -1.70912,-4.92425 -0.94001,0 -1.92238,-0.34508 -2.18303,-0.76681 -0.26059,-0.42176 -1.57184,-0.9884 -2.91374,-1.25917 -1.3419,-0.2709 -3.0847,-0.74199 -3.87288,-1.04707 -1.0953,-0.42399 -1.56349,0.13213 -1.98642,2.35982 -0.30418,1.60302 -2.51783,5.49018 -4.91885,8.63815 -2.40105,3.14793 -4.37998,6.22767 -4.39758,6.8439 -0.0166,0.61618 1.60342,2.8946 3.60231,5.06312 4.68819,5.08609 7.69029,5.3333 10.4544,0.86087 z m 78.09826,-1.96445 c -0.22331,-0.85677 -0.4206,-0.36898 -0.43854,1.08391 -0.0166,1.4529 0.16474,2.15388 0.40593,1.55773 0.24128,-0.59619 0.25592,-1.7849 0.0333,-2.64164 z m -18.29211,-20.26934 c -0.0389,-0.84752 -1.01569,-3.12594 -2.17032,-5.06313 -4.75122,-7.97137 -5.08546,-9.22268 -3.87442,-14.50473 0.61379,-2.67701 1.4484,-5.2437 1.85476,-5.7038 0.40632,-0.46007 0.74388,-1.84694 0.75014,-3.08191 0.007,-1.23497 0.79873,-4.75721 1.76107,-7.82724 0.97648,-3.11502 1.74975,-8.05371 1.74975,-11.17501 0,-3.07622 0.39624,-5.838 0.88054,-6.13732 0.52723,-0.32582 0.88053,-6.15566 0.88053,-14.52903 0,-8.37337 -0.3533,-14.20314 -0.88053,-14.52899 -0.4843,-0.29919 -0.88054,-1.88903 -0.88054,-3.53272 0,-5.54946 -3.52167,-9.91412 -4.96484,-6.1533 -0.74382,1.93832 -2.23499,1.62409 -5.22344,-1.10068 -6.34556,-5.78561 -10.45583,-9.0256 -11.44998,-9.0256 -1.23967,0 -0.22531,5.61511 1.8223,10.08927 0.6743,1.47326 1.88165,7.4336 2.68301,13.2452 0.80136,5.81161 1.91319,11.52257 2.47074,12.69105 1.43975,3.0172 1.31238,46.35914 -0.14044,47.81199 -1.11287,1.11287 -1.52598,17.53346 -0.46773,18.59171 0.31883,0.31883 1.1119,0.13745 1.76274,-0.40269 0.88409,-0.73374 1.9067,-0.62551 4.04347,0.42785 4.03463,1.98894 9.48664,1.93619 9.39325,-0.0909 z m 12.01019,-0.27756 c 1.15703,-1.27847 2.57008,-1.76483 4.75934,-1.638 5.94895,0.34462 5.8546,0.43811 7.39665,-7.33029 0.79311,-3.99549 1.44168,-8.16144 1.44131,-9.2577 -3.6e-4,-1.09622 0.36606,-2.68121 0.81428,-3.52217 0.79753,-1.49629 2.71102,-18.20642 2.7085,-23.65274 -9e-4,-2.33658 -0.38962,-2.82933 -2.57555,-3.26654 -3.96943,-0.79387 -6.25626,-3.80393 -6.09026,-8.01637 0.12613,-3.20075 0.17805,-3.27909 0.49368,-0.74618 0.45558,3.65473 6.92115,9.28279 7.85836,6.84044 0.83274,-2.17006 -0.41641,-19.99741 -1.47539,-21.05636 -1.84484,-1.84484 -3.91479,0.81487 -4.47639,5.75183 l -0.54075,4.75345 0.10051,-5.67093 c 0.0995,-5.6254 0.12347,-5.67682 2.95108,-6.40622 l 2.85057,-0.73534 -0.54193,-8.12276 c -0.2982,-4.46754 -0.88743,-8.4992 -1.30966,-8.95931 -0.42223,-0.46007 -0.79051,-2.44129 -0.8184,-4.4027 -0.0266,-1.96142 -0.32615,-5.11591 -0.66261,-7.00997 l -0.61186,-3.44373 -2.3312,3.44373 c -1.28217,1.89406 -2.59571,4.33531 -2.91893,5.42498 -0.60108,2.02635 -3.4258,2.72794 -4.4315,1.10069 -0.87611,-1.41762 -3.72348,-1.01229 -4.34952,0.61915 -0.70428,1.83538 0.3333,10.82794 1.24938,10.82794 0.36269,0 0.92576,1.88217 1.25131,4.18259 1.91203,13.5115 3.15649,25.04928 3.16261,29.32219 0.003,2.68787 0.48254,5.36252 1.06371,5.94366 0.82183,0.82187 0.82183,1.05666 0,1.05666 -0.76086,0 -1.06178,2.89643 -1.07502,10.34643 -0.0266,14.86167 -1.22968,19.60131 -6.83195,26.90927 -2.52825,3.29799 -4.5968,6.567 -4.5968,7.26449 0,2.02186 5.57731,1.6147 7.5365,-0.55019 z m -71.28436,-4.98748 c -0.89507,-0.89511 -1.6336,0.45248 -0.8992,1.64079 0.55475,0.89765 0.76216,0.89834 1.06042,0.003 0.204,-0.61179 0.13145,-1.35175 -0.16108,-1.64432 z m -5.81526,-12.0031 c 0,-0.65892 0.62667,-6.62891 1.39259,-13.26663 0.76595,-6.63769 1.14684,-12.70905 0.84645,-13.49184 -0.42858,-1.11686 -1.78253,-0.20401 -6.28914,4.24103 -6.06467,5.9816 -5.92366,5.559 -4.24,12.70868 0.34216,1.45289 1.15866,2.9585 1.81445,3.34579 0.65579,0.38728 1.19237,1.22542 1.19237,1.86247 0,1.43942 3.35787,5.79856 4.46664,5.79856 0.44916,0 0.81664,-0.53911 0.81664,-1.19806 z m 98.08333,-1.22346 c 0.25393,-0.84752 0.92233,-4.31465 1.48567,-7.70476 0.56334,-3.39012 1.73215,-7.7488 2.59737,-9.68602 0.86523,-1.93719 2.23183,-8.67336 3.03691,-14.96926 0.80506,-6.2959 1.83279,-11.82352 2.28381,-12.28362 1.03885,-1.05969 1.08182,-7.52868 0.0499,-7.52868 -0.70135,0 -2.62982,10.64513 -4.14748,22.89421 -0.33014,2.66363 -0.89191,5.23924 -1.24862,5.72354 -0.35673,0.4843 -0.92,2.46552 -1.25174,4.40274 -1.07632,6.28495 -3.2093,14.93142 -4.0699,16.49826 -1.072,1.95171 -1.08195,4.19458 -0.02,4.19458 0.45168,0 1.02886,-0.69344 1.28263,-1.54099 z m -51.83871,-6.16381 c -0.34621,-3.26901 -0.92024,-6.33993 -1.27561,-6.82423 -0.35536,-0.4843 -1.17669,-3.25802 -1.82516,-6.16381 -1.04897,-4.7004 -5.90273,-15.36357 -7.98958,-17.55222 -1.71927,-1.80314 -1.89286,0.55991 -0.20834,2.83816 3.77368,5.10416 6.58315,12.68289 8.2482,22.25016 0.93665,5.38185 1.92694,10.14752 2.20068,10.59038 1.18861,1.92328 1.43811,0.41504 0.84995,-5.13844 z m 66.77582,-1.3208 c 0.28088,-2.0583 0.77393,-7.02005 1.09589,-11.02619 0.32182,-4.00611 0.89308,-7.47396 1.26908,-7.70636 0.37601,-0.2323 0.68495,-4.08708 0.68655,-8.56596 0.003,-10.83699 -1.24559,-7.46415 -2.06519,5.57488 -0.34768,5.53101 -0.97998,10.4934 -1.40507,11.02748 -1.19028,1.49553 -2.08808,14.43847 -1.00154,14.43847 0.50037,0 1.13949,-1.68406 1.42028,-3.74232 z m -114.44691,-20.80696 c 5.53258,-5.55338 8.23333,-8.84868 7.46814,-9.11219 -0.65928,-0.22697 -1.84224,0.55046 -2.62879,1.72775 -0.78658,1.1773 -1.77721,2.08443 -2.20137,2.01587 -0.42419,-0.0686 -0.99682,0.79028 -1.27251,1.90853 -0.32415,1.31512 -1.08877,1.97919 -2.16476,1.88032 -2.57621,-0.23663 -4.223,1.02427 -6.13792,4.7001 -0.96777,1.85772 -2.35463,3.8604 -3.08191,4.45037 -1.17457,0.95282 -1.1729,1.07582 0.0166,1.10068 0.73553,0.0166 5.23738,-3.88673 10.00411,-8.67143 z m 10.60932,-12.05628 c 0.76102,-0.76106 1.3837,-2.4342 1.3837,-3.7181 0,-2.22926 -0.0532,-2.25615 -1.18392,-0.59755 -1.15007,1.68722 -2.47244,5.69935 -1.87845,5.69935 0.16208,0 0.91761,-0.62265 1.67867,-1.3837 z m 22.07654,-0.37737 c -0.29919,-0.4843 -1.08688,-0.88057 -1.75016,-0.88057 -0.66328,0 -1.78077,-0.57479 -2.48332,-1.27734 -0.70252,-0.70255 -2.41486,-1.53359 -3.80519,-1.8468 -2.158,-0.48612 -2.01254,-0.28588 0.99429,1.36743 1.93722,1.06528 3.89864,2.29256 4.35871,2.72734 1.14169,1.07885 3.36209,1.0044 2.68567,-0.0902 z m -3.2148,-16.26267 c 0.99306,-1.68303 1.45656,-3.27577 1.03003,-3.53935 -0.92786,-0.57349 -1.85528,0.75783 -3.20244,4.59713 -1.23071,3.50747 -0.23496,3.02267 2.17241,-1.05778 z m 76.93215,-1.18396 c -0.34761,-0.8782 -1.7173,-2.9585 -3.04376,-4.62285 -3.22551,-4.04714 -3.2346,-1.28656 -0.01,2.96386 2.61019,3.4403 4.07324,4.23517 3.05355,1.65899 z m -47.67688,-20.19672 c 0.0353,-0.84752 0.82912,-2.7297 1.76384,-4.18259 2.2241,-3.45714 5.17218,-9.45072 5.19738,-10.56655 0.01,-0.51412 -1.84814,-0.75117 -4.46877,-0.56966 -2.52543,0.17472 -4.91347,-0.11382 -5.45993,-0.66042 -0.53422,-0.53422 -1.89516,-0.97129 -3.02433,-0.97129 -2.80518,0 -12.85965,-3.45628 -13.61638,-4.68073 -1.34889,-2.18254 -1.53017,0.23296 -0.29153,3.88296 0.99957,2.94542 3.28132,5.7326 9.47525,11.57419 8.23026,7.76207 10.30666,8.99185 10.42437,6.17409 z m 26.34676,-7.45206 c 1.06348,-2.0404 2.68846,-4.66942 3.61107,-5.84232 3.64274,-4.63098 1.17749,-5.84336 -8.8386,-4.3467 -3.66002,0.5469 -6.79884,1.10328 -6.97516,1.23643 -1.0268,0.77531 8.03248,12.66233 9.65014,12.66233 0.3404,0 1.48904,-1.66938 2.55255,-3.70974 z m -2.93787,-12.47815 c 1.04494,-0.33524 2.13162,-1.21338 2.41483,-1.95144 0.45944,-1.1973 0.72652,-1.1937 2.47863,0.0336 2.75886,1.93239 4.54768,1.72146 7.66809,-0.9042 2.94439,-2.47753 3.5265,-5.8157 1.48345,-8.50706 -1.23933,-1.63267 -5.8186,-2.15241 -5.8186,-0.66045 0,0.48433 -0.56134,0.88057 -1.24745,0.88057 -0.68607,0 -1.42903,0.49531 -1.65101,1.10069 -0.2952,0.80505 -0.68178,0.84019 -1.43941,0.13079 -1.40477,-1.31521 2.17401,-3.64461 6.18807,-4.02781 2.64087,-0.25193 3.0245,-0.61226 3.26242,-3.06283 0.24195,-2.49131 -0.0529,-2.88365 -2.86482,-3.81165 -4.40986,-1.45535 -11.66274,0.18305 -16.23515,3.66761 -2.49424,1.90082 -3.62358,2.03201 -3.62358,0.4209 0,-1.33282 2.07694,-2.3921 8.14507,-4.15424 2.30041,-0.66804 4.18259,-1.52434 4.18259,-1.90291 0,-0.37856 0.97668,-0.6883 2.17039,-0.6883 1.25527,0 2.56026,-0.72851 3.09511,-1.72789 0.5086,-0.95033 2.70188,-2.95058 4.87396,-4.44501 3.37993,-2.32544 3.94926,-3.15156 3.94926,-5.7304 0,-2.33942 -0.60187,-3.45824 -2.69139,-5.00309 -1.74789,-1.29228 -2.54852,-2.5363 -2.28381,-3.54856 0.28455,-1.08871 -0.0985,-1.55869 -1.27104,-1.55869 -1.78903,0 -2.25965,-1.29811 -0.79814,-2.20137 1.33086,-0.8225 1.05506,-2.20137 -0.44026,-2.20137 -2.51947,0 -1.36237,-3.22249 1.7611,-4.90458 2.09414,-1.12778 3.08191,-2.28444 3.08191,-3.60887 0,-2.94073 -1.42005,-3.25586 -5.5854,-1.23943 -3.96723,1.92052 -5.86169,2.2891 -5.86169,1.14049 0,-0.79191 -4.50019,-2.84359 -8.36518,-3.81378 -1.86031,-0.46696 -1.46963,-0.52869 1.3208,-0.20867 6.86733,0.78745 11.80162,0.63443 14.41823,-0.44722 2.38136,-0.98437 2.49581,-1.26556 1.93729,-4.75831 -0.32648,-2.04166 -1.16817,-4.03366 -1.87046,-4.4267 -0.70228,-0.39301 -1.27687,-1.24409 -1.27687,-1.8913 0,-0.6472 -1.48591,-1.83781 -3.30206,-2.6458 -1.81611,-0.80798 -4.29265,-1.98182 -5.50339,-2.60845 -4.84361,-2.50699 -10.5767,-3.41987 -17.73067,-2.82325 -12.36207,1.03096 -18.54408,2.96565 -24.00285,7.51177 -2.54103,2.1162 -8.4576,9.77734 -8.4576,10.9514 0,0.737 3.0032,1.04651 10.3464,1.06638 10.04442,0.0266 17.16654,1.23277 18.32144,3.10144 1.24535,2.01503 -0.71117,7.03682 -4.27541,10.97364 -3.37747,3.73054 -4.1129,4.12524 -7.88937,4.23444 l -4.16466,0.12047 -0.007,3.18331 c -0.003,1.89223 -0.75424,4.1353 -1.85176,5.53059 -1.48724,1.89073 -1.63753,2.59887 -0.77271,3.64091 0.5905,0.71151 1.61194,1.29365 2.26987,1.29365 0.65792,0 1.46204,1.05922 1.78696,2.35376 0.4781,1.90484 0.12646,2.72388 -1.84301,4.29438 -1.33854,1.06731 -4.01309,2.46183 -5.94343,3.09888 -3.79687,1.25308 -5.0984,3.34356 -5.0984,8.18876 0,2.09431 0.76019,3.54614 2.86179,5.46555 4.47453,4.08661 7.96002,6.26 11.16996,6.96501 2.79519,0.61392 2.92419,0.53641 2.38005,-1.4303 -0.31649,-1.14365 -0.75942,-4.45685 -0.98443,-7.36264 l -0.40915,-5.28327 1.14851,5.93111 c 1.54284,7.96755 2.91323,9.33361 9.69007,9.65916 6.43189,0.30884 20.47259,-0.53964 23.1523,-1.39934 z m -3.22072,-31.36159 c -0.66963,-1.25125 -0.66963,-2.27093 0,-3.52218 1.34553,-2.5141 1.80031,-2.17721 1.18875,0.88054 -0.48995,2.44974 -0.34269,2.64164 2.02745,2.64164 1.4057,0 3.41045,-0.59862 4.45502,-1.33026 1.20216,-0.84203 2.10106,-1.0036 2.44925,-0.44027 0.95341,1.54269 3.86536,0.96654 4.90164,-0.96979 0.54743,-1.02287 0.79694,-2.8975 0.55449,-4.16585 -0.41464,-2.16902 -0.36728,-2.20546 0.79677,-0.61356 1.7224,2.35556 1.54458,6.0884 -0.37271,7.82354 -1.8468,1.67132 -4.63907,1.90009 -6.044,0.49515 -0.6958,-0.6958 -1.45975,-0.6958 -2.75985,0 -2.84921,1.52488 -6.1492,1.15853 -7.19681,-0.79896 z m -10.40527,-8.87444 c -1.4246,-2.28115 -0.53458,-3.50237 4.44338,-6.09702 4.8032,-2.50359 7.723,-1.82237 7.723,1.80184 0,2.01287 -0.52713,2.84708 -2.20137,3.4836 -1.21075,0.46033 -2.20137,1.24302 -2.20137,1.7393 0,0.49628 -1.48964,0.90234 -3.31035,0.90234 -2.39835,0 -3.62527,-0.5042 -4.45329,-1.83006 z m 6.00257,-3.56101 c 0,-1.55527 -0.21999,-1.68633 -1.31112,-0.7808 -1.32523,1.09986 -1.04298,2.64969 0.48253,2.64969 0.45571,0 0.82859,-0.84099 0.82859,-1.86889 z m 15.62967,3.04682 c 0.60538,-0.24428 1.596,-0.24428 2.20137,0 0.60538,0.24428 0.11016,0.44413 -1.10068,0.44413 -1.21074,0 -1.70606,-0.19968 -1.10069,-0.44413 z m -13.4283,-10.59673 c -1.98871,-0.72758 -5.14457,-1.11417 -7.24852,-0.88789 -3.98854,0.42895 -4.07846,0.0443 -0.83218,-3.56191 0.98097,-1.08967 2.65671,-1.98122 3.72392,-1.98122 2.96549,0 8.31922,2.51124 8.31922,3.90227 0,0.68032 0.24062,1.86374 0.53448,2.62982 0.62511,1.62898 0.20601,1.61956 -4.49692,-0.10117 z m -35.27435,23.44952 c -1.15766,-1.27917 -1.59629,-2.96745 -1.47792,-5.688 0.13446,-3.09152 -0.0928,-3.76865 -1.13183,-3.36995 -0.97465,0.37401 -1.3002,-0.18604 -1.3002,-2.23691 0,-1.50471 -0.3575,-2.73586 -0.79441,-2.73586 -0.95821,0 -2.7278,4.8106 -2.7278,7.41543 0,2.60719 5.00545,8.4344 7.24496,8.4344 1.79718,0 1.80087,-0.0359 0.18704,-1.81911 z m 59.19363,-21.57454 c 0.89271,-2.32633 -1.07556,-3.483 -3.80826,-2.23791 l -2.39063,1.08924 2.14662,1.17799 c 2.89424,1.58828 3.43305,1.58439 4.05227,-0.0299 z m 33.58209,-11.54403 c 1.11483,-0.79214 2.58054,-2.76511 3.2571,-4.3844 0.67659,-1.61926 1.72586,-2.94413 2.33173,-2.94413 0.8568,0 0.86679,0.23496 0.0449,1.05666 -0.58115,0.58118 -1.05666,1.70849 -1.05666,2.50515 0,1.66047 -2.26783,3.83851 -4.84297,4.65122 -1.50461,0.47484 -1.46587,0.34601 0.26591,-0.8845 z m -12.62148,-6.31563 c 0.45614,-2.92925 5.16147,-9.81834 6.70601,-9.81834 0.44363,0 1.59906,-0.79251 2.56766,-1.76111 1.61906,-1.61906 1.7611,-1.63437 1.7611,-0.19003 0,0.8641 -2.21595,3.73687 -4.92428,6.38396 -2.70836,2.64713 -5.29452,5.60543 -5.74704,6.57403 -0.63372,1.35648 -0.71726,1.08341 -0.36345,-1.18848 z m 13.99407,-9.38004 c -0.94237,-2.45577 0.53429,-5.53075 3.49475,-7.27748 1.61906,-0.95524 3.99918,-2.42841 5.2892,-3.27366 1.45665,-0.95442 2.34548,-1.15427 2.34548,-0.52737 0,0.55522 -0.69344,1.26533 -1.54096,1.578 -0.84752,0.31284 -1.77098,0.90846 -2.05214,1.32386 -0.28122,0.41541 -1.86613,1.48734 -3.52217,2.38205 -2.44039,1.31848 -3.00939,2.14699 -3.0025,4.37206 0.01,3.04024 -0.2506,3.40586 -1.01166,1.42254 z m -9.11768,-8.58337 0.007,-2.86175 1.31541,2.52216 c 1.62369,3.11302 1.62356,3.20138 -0.007,3.20138 -0.90423,0 -1.31911,-0.9026 -1.31538,-2.86179 z m 18.1925,-5.65016 c -1.72166,-1.72166 -0.30817,-5.06276 3.81318,-9.01441 4.1955,-4.02262 4.326,-4.28606 2.80461,-5.66291 -0.8776,-0.79421 -2.95677,-1.91469 -4.62036,-2.48998 -3.06407,-1.05955 -5.39603,-3.27197 -4.67627,-4.43652 0.36718,-0.59416 4.63467,0.87924 5.61401,1.93829 0.24229,0.26192 1.53576,0.95754 2.87474,1.54591 3.43305,1.5086 4.81565,4.8474 3.2324,7.80574 -0.67473,1.26073 -2.02768,2.59874 -3.00656,2.97334 -2.94216,1.12595 -5.08612,4.07217 -4.44145,6.10337 0.55535,1.74972 -0.36645,2.46502 -1.5943,1.23717 z m -27.00341,-1.97559 c 0,-2.08519 4.35961,-8.88446 5.69662,-8.88446 0.53961,0 2.73106,-1.78313 4.86993,-3.96247 4.29342,-4.37466 5.35493,-4.86691 4.64556,-2.15425 -0.26026,0.99452 -3.19483,4.24526 -6.52168,7.22386 -5.79543,5.18879 -7.31794,7.91999 -4.94811,8.87624 0.60537,0.24428 0.01,0.47541 -1.3208,0.51365 -1.82081,0.0522 -2.42152,-0.34775 -2.42152,-1.61257 z"
       id="path305"
       inkscape:connector-curvature="0" />
  </g>
</svg>
