<?xml version="1.0" encoding="UTF-8" standalone="no"?>
<!-- Created with Inkscape (http://www.inkscape.org/) -->

<svg
   xmlns:dc="http://purl.org/dc/elements/1.1/"
   xmlns:cc="http://creativecommons.org/ns#"
   xmlns:rdf="http://www.w3.org/1999/02/22-rdf-syntax-ns#"
   xmlns:svg="http://www.w3.org/2000/svg"
   xmlns="http://www.w3.org/2000/svg"
   xmlns:sodipodi="http://sodipodi.sourceforge.net/DTD/sodipodi-0.dtd"
   xmlns:inkscape="http://www.inkscape.org/namespaces/inkscape"
   width="210mm"
   height="181.01587mm"
   viewBox="0 0 210.00001 181.01586"
   version="1.1"
   id="svg8"
   inkscape:version="0.92.3 (2405546, 2018-03-11)"
   sodipodi:docname="demonstrators.svg">
  <defs
     id="defs2" />
  <sodipodi:namedview
     id="base"
     pagecolor="#ffffff"
     bordercolor="#666666"
     borderopacity="1.0"
     inkscape:pageopacity="0.0"
     inkscape:pageshadow="2"
     inkscape:zoom="0.7"
     inkscape:cx="88.947832"
     inkscape:cy="349.9255"
     inkscape:document-units="mm"
     inkscape:current-layer="layer1"
     showgrid="false"
     fit-margin-top="0"
     fit-margin-left="0"
     fit-margin-right="0"
     fit-margin-bottom="0"
     inkscape:window-width="1920"
     inkscape:window-height="1017"
     inkscape:window-x="-8"
     inkscape:window-y="-8"
     inkscape:window-maximized="1" />
  <metadata
     id="metadata5">
    <rdf:RDF>
      <cc:Work
         rdf:about="">
        <dc:format>image/svg+xml</dc:format>
        <dc:type
           rdf:resource="http://purl.org/dc/dcmitype/StillImage" />
        <dc:title></dc:title>
      </cc:Work>
    </rdf:RDF>
  </metadata>
  <g
     inkscape:label="Layer 1"
     inkscape:groupmode="layer"
     id="layer1"
     transform="translate(-244.21791,553.0774)">
    <path
       style="fill:#000000;stroke-width:0.93195248"
       d="m 251.9771,-372.57201 c -4.99605,-0.2212 -7.28614,-0.70373 -7.63323,-1.60819 -0.75325,-1.96293 1.92169,-3.64052 6.68611,-4.19317 l 4.28535,-0.49707 1.67311,-5.50408 c 0.92021,-3.02724 2.0419,-5.9629 2.49265,-6.52369 0.45079,-0.56076 1.68692,-4.39472 2.74697,-8.51994 1.06005,-4.12519 2.57293,-8.73837 3.36193,-10.25146 0.78904,-1.51312 1.43719,-3.42258 1.44032,-4.24322 0.003,-0.82067 1.10309,-3.54664 2.4443,-6.05772 1.95077,-3.65238 2.38159,-5.59076 2.15391,-9.69129 -0.77369,-13.93399 -0.6597,-14.6343 2.86317,-17.58793 l 3.26182,-2.73471 -2.11914,-2.27081 c -1.16554,-1.24895 -2.52851,-3.69818 -3.02886,-5.44272 -1.63176,-5.68971 -1.13113,-8.27493 2.25894,-11.66501 2.79089,-2.79089 3.74626,-3.16866 8.01368,-3.16866 4.21835,0 5.19475,0.37439 7.5488,2.89445 1.81537,1.94335 2.70381,3.87257 2.70381,5.87128 0,1.63729 0.47094,3.44784 1.04653,4.02343 0.7741,0.77407 0.57093,1.73246 -0.78031,3.6812 -1.00474,1.44909 -2.10688,3.40839 -2.44915,4.35407 -0.34237,0.94568 -1.47614,1.94267 -2.51964,2.21555 -1.04352,0.27298 -1.7425,0.96699 -1.55324,1.54243 0.45551,1.38502 4.20018,1.89213 5.60813,0.75949 0.6125,-0.49274 2.44764,-1.18097 4.07809,-1.5294 1.63046,-0.34836 3.46415,-1.2356 4.07493,-1.97149 0.61073,-0.73592 1.64331,-1.33803 2.29455,-1.33803 1.5622,0 2.20612,-1.85691 2.85525,-8.23389 0.29552,-2.90368 0.89893,-6.1182 1.34074,-7.14334 0.44181,-1.02515 1.68998,-12.55806 2.77367,-25.62869 1.08372,-13.07063 2.32435,-24.42464 2.75704,-25.23115 0.43265,-0.80651 1.29058,-8.56499 1.90654,-17.24112 1.33524,-18.80788 1.41453,-19.17568 3.48634,-16.1687 0.85561,1.24184 2.20396,2.81632 2.99631,3.49888 1.28742,1.10898 1.27442,1.18922 -0.12223,0.75435 -0.85952,-0.2677 -2.02767,0.0736 -2.59592,0.75822 -1.07925,1.30044 -3.21294,18.46502 -4.30814,34.65711 -0.75688,11.19047 -1.36086,10.50876 11.49572,12.97556 4.74131,0.90968 8.62054,2.00206 8.62054,2.42749 0,1.03493 -4.05475,0.99108 -5.17231,-0.056 -0.88929,-0.83314 -16.23838,-4.17647 -16.74355,-3.6471 -0.41095,0.43068 -2.13767,15.98015 -2.85377,25.69875 -0.35012,4.75244 -1.00122,8.86611 -1.44683,9.14153 -1.37724,0.85117 -0.94015,12.37327 0.556,14.65666 1.5542,2.37202 0.92902,6.23697 -1.00887,6.23697 -1.71168,0 -1.64543,2.27205 0.10884,3.72784 1.90393,1.58012 1.76681,2.60213 -0.80105,5.96969 -1.6655,2.18428 -2.36525,4.65964 -2.88451,10.20419 -0.87059,9.2958 -2.7705,8.35263 -2.46001,-1.22116 0.23635,-7.28677 0.24798,-7.28026 -6.21347,-3.49113 -1.95437,1.14609 -3.8675,1.57462 -5.35875,1.20034 -1.88012,-0.47189 -2.31918,-0.23635 -2.31918,1.24458 0,1.00468 -0.4194,2.08586 -0.93198,2.40266 -1.12144,0.69309 -1.25515,6.70442 -0.15885,7.14496 0.66037,0.26523 2.55228,9.18986 4.51106,21.27958 0.29059,1.794 0.89812,3.72414 1.3499,4.28916 0.45177,0.56501 1.0909,3.60553 1.42024,6.75665 0.56425,5.39827 0.73927,5.72958 3.02897,5.73395 1.33655,0.003 3.68824,1.01729 5.22595,2.25497 l 2.79586,2.25035 -2.71615,1.04208 c -1.49389,0.57312 -6.07804,0.92138 -10.18699,0.77386 -7.42242,-0.26629 -7.47585,-0.28637 -8.24622,-3.06405 -0.42649,-1.53771 -1.04395,-6.69005 -1.3722,-11.44964 -0.32828,-4.75957 -0.95191,-8.87327 -1.38597,-9.14153 -0.43406,-0.26841 -0.79496,-1.82598 -0.80193,-3.46162 -0.0141,-3.67943 -0.90651,-7.16761 -1.83038,-7.16761 -0.68112,0 -2.1418,2.82041 -7.72242,14.91123 -4.69161,10.16466 -6.96993,15.25779 -8.02526,17.94009 -0.55456,1.40957 -1.54152,2.47846 -2.19322,2.37532 -0.6517,-0.1032 -4.39676,-0.32969 -8.3223,-0.50366 z m 49.78035,-68.10817 c 3.49888,-3.2544 2.03443,-4.51078 -3.46359,-2.97141 -4.39753,1.23123 -6.08167,3.72815 -4.78816,7.09896 0.52405,1.36571 0.80609,1.35504 3.12935,-0.1187 1.40436,-0.89073 3.70945,-2.69481 5.1224,-4.00899 z m 91.32518,68.07034 c -2.49434,-0.39559 -2.76148,-1.91291 -0.46597,-2.64654 0.897,-0.28672 2.46965,-0.88379 3.4948,-1.3269 1.02517,-0.44315 3.4366,-1.43215 5.35874,-2.19784 1.92214,-0.76568 3.49483,-1.87688 3.49483,-2.4693 0,-0.59242 1.05265,-3.17296 2.33922,-5.73447 3.37712,-6.72366 3.44207,-10.12293 0.22367,-11.70019 -3.14386,-1.54075 -3.30585,-4.13622 -0.53737,-8.60991 4.21054,-6.80389 9.98594,-18.45519 10.21109,-20.59984 0.12892,-1.22813 -0.11025,-4.4411 -0.53127,-7.13989 -0.67742,-4.34089 -1.12793,-5.07875 -3.90564,-6.39685 -2.6537,-1.25927 -3.13992,-1.97867 -3.13992,-4.64564 0,-1.7356 -0.42976,-3.15563 -0.95502,-3.15563 -0.52525,0 -1.363,-0.9436 -1.86166,-2.09692 -0.49869,-1.15329 -1.27847,-2.72594 -1.73285,-3.4948 -1.82249,-3.08381 -2.79417,-6.29544 -3.35108,-11.07666 -0.37228,-3.19589 -1.4132,-6.10528 -2.86567,-8.00956 -1.25459,-1.64483 -2.28103,-3.61994 -2.28103,-4.38912 0,-2.21586 3.15214,-4.48323 6.23267,-4.48323 h 2.82411 l 0.4852,7.77743 c 0.26699,4.2776 1.10584,9.20532 1.8643,10.95046 0.7585,1.74515 1.84842,4.32628 2.42203,5.73585 0.63617,1.56325 1.75188,2.56286 2.8605,2.56286 0.99964,0 3.3595,1.4543 5.24413,3.23174 l 3.42667,3.23175 -0.6442,-3.46475 c -0.35431,-1.90559 -0.84811,-6.9003 -1.09735,-11.09935 l -0.45315,-7.63467 3.77623,-2.38382 c 4.12001,-2.60086 4.89912,-2.77144 7.32073,-1.60305 7.90413,3.8136 7.23389,2.77377 6.97965,10.82905 -0.24093,7.62815 -1.15251,9.82507 -4.07756,9.82507 -3.09343,0 -2.05487,3.37067 1.56832,5.08996 1.82496,0.866 3.5757,2.27677 3.89053,3.13506 0.3149,0.85825 1.12824,1.89586 1.80763,2.30576 0.67935,0.40989 1.23521,1.77286 1.23521,3.02882 0,1.25596 0.31455,2.28072 0.69897,2.27723 1.63522,-0.0141 4.71092,-6.40939 5.15195,-10.71108 0.49352,-4.81335 -2.12425,-33.76005 -3.20279,-35.41569 -0.33462,-0.51341 -0.90774,-4.76386 -1.27396,-9.44547 -0.86424,-11.0476 -0.96667,-11.19653 -6.64496,-9.6592 -2.48311,0.67227 -4.9341,1.52816 -5.44667,1.90202 -0.51257,0.37387 -2.39977,0.96604 -4.19377,1.31602 l -3.26186,0.63628 2.69103,-1.47185 c 1.48009,-0.8095 4.87446,-2.10657 7.54306,-2.88236 8.09821,-2.3542 8.02981,-2.2213 6.93429,-13.47827 -0.52377,-5.38203 -1.30971,-10.44804 -1.74655,-11.25779 -0.43681,-0.80975 -1.09911,-4.31923 -1.47174,-7.79878 l -0.67749,-6.32651 -3.84044,0.56354 c -2.11224,0.30997 -4.88887,0.77481 -6.1703,1.03304 -1.28146,0.25818 -0.0282,-0.27862 2.7885,-1.19281 3.34513,-1.08639 5.48499,-2.39759 6.17653,-3.78468 1.0474,-2.10087 1.06871,-2.09196 2.10424,0.87854 0.57534,1.65046 1.0461,4.53191 1.0461,6.40323 0,1.87127 0.36668,3.80074 0.81486,4.2877 0.44815,0.48693 1.73313,10.53106 2.85549,22.32026 1.12236,11.7892 2.39967,22.27366 2.83848,23.2988 0.43881,1.02514 1.49111,9.20303 2.33845,18.17309 1.4655,15.51407 1.65726,16.40311 3.93301,18.23614 2.05348,1.65405 2.29684,2.38015 1.71809,5.12574 -0.37087,1.75934 -0.88904,5.66431 -1.15149,8.67778 l -0.47724,5.47903 -1.7281,-2.63435 -1.72813,-2.63433 -0.98065,2.74701 c -1.36833,3.83308 -3.44432,7.29723 -4.60486,7.68409 -0.5385,0.17963 -1.9605,-0.65505 -3.16003,-1.85455 -1.1995,-1.19953 -3.36676,-2.2791 -4.8161,-2.39903 l -2.63513,-0.21804 0.57118,4.82283 c 0.31419,2.65257 0.90316,5.06414 1.30894,5.35903 0.88741,0.64504 4.90323,13.09637 4.90323,15.20291 0,0.81792 0.35291,1.62693 0.78422,1.7978 0.43134,0.17083 1.04677,1.65797 1.36769,3.30469 0.51165,2.62566 0.23916,3.19734 -2.21422,4.64664 l -2.79768,1.65261 0.26488,8.39888 0.26523,8.39888 3.7278,1.2096 c 3.63396,1.17918 7.80268,4.34932 6.90272,5.24928 -0.69446,0.69446 -6.42633,0.68992 -11.3295,-0.0106 l -4.42677,-0.63099 v -4.3415 c 0,-2.45834 -0.78502,-5.88132 -1.80985,-7.89141 -0.99541,-1.95247 -2.07715,-4.7671 -2.40392,-6.25476 -0.55808,-2.54067 -0.87358,-2.70449 -5.20905,-2.70449 -3.55503,0 -4.74692,0.3746 -5.1895,1.63091 -0.31595,0.897 -1.58244,2.99406 -2.81431,4.66013 -2.99783,4.05446 -4.94022,8.88105 -4.94022,12.27585 0,2.42407 -0.39116,2.84341 -3.02883,3.24689 -4.95575,0.75811 -11.27187,1.11147 -13.51331,0.756 z m -51.0244,-121.86704 c -3.588,-0.67171 -4.63646,-1.03863 -2.32989,-0.81531 20.21182,1.95669 61.17794,0.96036 63.79215,-1.55149 1.14944,-1.10443 5.17234,-1.10495 5.17234,-6.7e-4 0,3.2227 -52.1667,5.07615 -66.6346,2.36747 z m 69.19745,-3.8347 c 0.64075,-0.25854 1.68918,-0.25854 2.32989,0 0.64071,0.25854 0.11659,0.47006 -1.16494,0.47006 -1.28143,0 -1.80566,-0.21169 -1.16495,-0.47006 z m 10.30975,-1.88332 c 0.67273,-0.26911 1.47657,-0.236 1.78625,0.0736 0.30961,0.30961 -0.24093,0.52993 -1.2232,0.48946 -1.08569,-0.0447 -1.30651,-0.26558 -0.56305,-0.56305 z m -59.47023,-37.14991 c -5.38203,-0.64913 -12.02869,-1.21968 -14.77037,-1.26786 -2.74172,-0.0483 -6.30643,-0.67908 -7.9216,-1.402 -1.61521,-0.72293 -3.56577,-1.56473 -4.33463,-1.87068 -0.76885,-0.30609 0.47668,-0.3237 2.76793,-0.0398 2.29121,0.28425 4.38809,0.8536 4.65974,1.26557 0.27157,0.41194 4.26833,1.01151 8.88147,1.33236 4.61317,0.32089 12.2774,1.01021 17.03164,1.53191 9.8547,1.08135 52.00988,-1.07527 53.68092,-2.7463 1.17244,-1.17245 2.44573,-1.24082 2.44573,-0.13139 0,1.47798 -3.90092,2.01084 -24.69674,3.37349 -23.54642,1.54286 -24.58653,1.54162 -37.74409,-0.0454 z m -34.9482,-6.67966 c -4.34227,-1.74764 -4.67214,-1.96374 -4.00937,-2.6265 0.27227,-0.27228 1.70516,0.11342 3.18419,0.85755 1.479,0.74395 3.73752,1.77713 5.01895,2.29593 1.28146,0.51877 1.70083,0.95001 0.93198,0.95829 -0.76886,0.007 -3.07547,-0.66009 -5.12575,-1.48527 z"
       id="path177"
       inkscape:connector-curvature="0" />
  </g>
</svg>
