<?xml version="1.0" encoding="UTF-8" standalone="no"?>
<!-- Created with Inkscape (http://www.inkscape.org/) -->

<svg
   xmlns:dc="http://purl.org/dc/elements/1.1/"
   xmlns:cc="http://creativecommons.org/ns#"
   xmlns:rdf="http://www.w3.org/1999/02/22-rdf-syntax-ns#"
   xmlns:svg="http://www.w3.org/2000/svg"
   xmlns="http://www.w3.org/2000/svg"
   xmlns:sodipodi="http://sodipodi.sourceforge.net/DTD/sodipodi-0.dtd"
   xmlns:inkscape="http://www.inkscape.org/namespaces/inkscape"
   width="209.99954mm"
   height="74.821945mm"
   viewBox="0 0 209.99955 74.821941"
   version="1.1"
   id="svg8"
   inkscape:version="0.92.3 (2405546, 2018-03-11)"
   sodipodi:docname="farmers_rebels.svg">
  <defs
     id="defs2" />
  <sodipodi:namedview
     id="base"
     pagecolor="#ffffff"
     bordercolor="#666666"
     borderopacity="1.0"
     inkscape:pageopacity="0.0"
     inkscape:pageshadow="2"
     inkscape:zoom="0.7"
     inkscape:cx="101.08979"
     inkscape:cy="137.10125"
     inkscape:document-units="mm"
     inkscape:current-layer="layer1"
     showgrid="false"
     fit-margin-top="0"
     fit-margin-left="0"
     fit-margin-right="0"
     fit-margin-bottom="0"
     inkscape:window-width="1920"
     inkscape:window-height="1017"
     inkscape:window-x="-8"
     inkscape:window-y="-8"
     inkscape:window-maximized="1" />
  <metadata
     id="metadata5">
    <rdf:RDF>
      <cc:Work
         rdf:about="">
        <dc:format>image/svg+xml</dc:format>
        <dc:type
           rdf:resource="http://purl.org/dc/dcmitype/StillImage" />
        <dc:title></dc:title>
      </cc:Work>
    </rdf:RDF>
  </metadata>
  <g
     inkscape:label="Layer 1"
     inkscape:groupmode="layer"
     id="layer1"
     transform="translate(-244.21815,499.98044)">
    <path
       style="fill:#000000;stroke-width:0.46803039"
       d="m 418.6476,-425.81527 c 0,-0.35462 0.31593,-0.90694 0.70206,-1.2274 0.87535,-0.72646 0.88526,-1.55579 0.0412,-3.43949 -0.36351,-0.81115 -0.92105,-2.6332 -1.23899,-4.04899 -0.97423,-4.33813 -2.73402,-7.07019 -5.07339,-7.87631 -2.25899,-0.77844 -2.23378,-0.7967 -2.58815,1.87475 -0.39801,3.00029 -1.90852,5.37167 -2.89836,4.55017 -0.36723,-0.30477 -0.79643,-0.42537 -0.95377,-0.26801 -0.25024,0.25022 0.22247,1.08338 1.92235,3.38816 0.58776,0.79693 -1.04167,3.89849 -2.37349,4.51781 -0.6926,0.32207 -1.32112,0.28702 -2.07349,-0.11569 -1.01222,-0.54174 -1.02796,-0.61555 -0.25209,-1.18289 1.35775,-0.99279 0.70418,-2.09905 -3.23495,-5.47555 -2.80484,-2.40423 -3.91527,-3.69966 -4.43293,-5.17138 -0.37986,-1.07998 -0.75063,-2.05357 -0.82394,-2.16351 -0.0732,-0.10985 -0.78279,0.41659 -1.57665,1.17008 -1.34096,1.27277 -1.42351,1.53602 -1.16341,3.71013 0.1539,1.28707 0.60786,3.27534 1.00861,4.41833 1.02563,2.92527 0.6325,4.04693 -1.54454,4.40675 -4.35747,0.72021 -6.92766,0.0341 -3.86797,-1.03245 1.27224,-0.44351 1.40409,-0.68221 1.40409,-2.54196 0,-1.12886 -0.14434,-2.19682 -0.32076,-2.37324 -0.45028,-0.45028 -1.53584,-3.66036 -1.54431,-4.56669 -0.004,-0.41425 0.72805,-1.67793 1.62651,-2.80819 0.89846,-1.13024 1.63561,-2.44537 1.63811,-2.92252 0.004,-0.73326 -0.25151,-0.64273 -1.64985,0.58504 -0.90992,0.79892 -1.88542,1.45258 -2.16778,1.45258 -0.93626,0 -0.0785,-3.81034 1.09614,-4.86947 0.59836,-0.53951 1.4841,-1.76039 1.96831,-2.71309 0.76225,-1.49968 0.8083,-2.01849 0.34319,-3.86558 -0.60726,-2.41164 -0.27892,-4.46491 0.71396,-4.46491 1.04482,0 1.29829,-1.35042 0.43296,-2.3066 -0.50734,-0.56061 -0.79161,-1.69515 -0.80332,-3.20609 -0.018,-2.33451 -0.0211,-2.33888 -1.76676,-2.61804 -0.96175,-0.15372 -2.13273,-0.70403 -2.60217,-1.22277 -1.31782,-1.45617 -1.64454,-1.15073 -1.64454,1.5374 0,1.3643 -0.24849,2.72904 -0.55218,3.03275 -0.42422,0.42422 -0.3971,0.84272 0.11711,1.80595 0.43252,0.81039 0.60483,2.17928 0.48723,3.87071 -0.48745,7.01101 0.40006,22.10014 1.423,24.19348 1.22262,2.50196 -0.71811,4.75505 -4.28326,4.97263 -1.61723,0.0987 -2.10612,-0.0345 -2.10612,-0.57351 0,-0.38612 0.47387,-0.90994 1.05306,-1.16404 0.95315,-0.41818 1.04995,-0.77343 1.02018,-3.74425 -0.018,-1.80522 -0.18049,-3.65557 -0.36086,-4.11187 -0.28618,-0.72392 -0.42276,-0.66425 -1.07171,0.46802 -0.40905,0.71373 -1.12333,2.73023 -1.58727,4.4811 -0.87334,3.29583 -1.83275,4.3661 -3.45287,3.85191 -0.47779,-0.1516 -1.87333,0.25791 -3.16863,0.92993 -3.39126,1.75945 -5.19207,0.8249 -2.64019,-1.37015 l 1.25847,-1.08248 -1.49248,-2.02946 c -0.82086,-1.11622 -1.49249,-2.29648 -1.49249,-2.62285 0,-0.32635 -0.42122,-0.81881 -0.93605,-1.09434 -0.51485,-0.27553 -0.93606,-0.7165 -0.93606,-0.97997 0,-0.26344 -0.60717,-1.25645 -1.34926,-2.20667 -0.7421,-0.95022 -1.49231,-2.34294 -1.66715,-3.09493 l -0.31789,-1.36724 -1.70064,1.70063 -1.70065,1.70066 0.11162,5.09203 c 0.0814,3.71568 -0.052,5.22129 -0.49346,5.57021 -0.84594,0.66854 -5.86757,1.17827 -6.20643,0.63001 -0.15142,-0.24493 0.20456,-0.69116 0.79094,-0.99163 2.21673,-1.1358 3.62075,-4.49541 2.23627,-5.35104 -1.48811,-0.91971 0.0961,-6.03291 3.8552,-12.443 1.45388,-2.47921 0.90833,-3.43881 -1.74806,-3.07472 -1.14769,0.15725 -2.54003,0.55394 -3.09411,0.8814 -0.80306,0.47461 -1.05043,0.47671 -1.21933,0.0106 -0.29693,-0.81998 -1.79533,-0.72882 -2.68765,0.16345 -0.59853,0.59855 -0.88657,0.63395 -1.4375,0.17671 -1.12314,-0.9321 -0.83335,-2.88111 0.59807,-4.02243 1.19426,-0.95222 1.28929,-1.28198 1.31773,-4.57252 0.0177,-1.95046 0.14806,-3.66365 0.29145,-3.8071 0.14346,-0.14346 0.15125,-1.23301 0.0177,-2.42128 -0.19028,-1.68823 -0.0693,-2.28786 0.55343,-2.74324 0.74796,-0.54692 0.74363,-0.68228 -0.0708,-2.20158 -0.4772,-0.89036 -1.85782,-2.59501 -3.06803,-3.78808 -1.2102,-1.19308 -2.20038,-2.34434 -2.20038,-2.55836 0,-0.21402 -0.54473,-0.89971 -1.21052,-1.52378 -2.18254,-2.04575 -5.88766,-7.40797 -5.70836,-8.26141 0.13833,-0.65852 0.55631,-0.3981 2.0255,1.26196 1.01816,1.15044 3.48345,3.82033 5.47842,5.93311 1.99498,2.11276 3.62723,4.08977 3.62723,4.39335 0,0.86211 2.83969,4.23269 3.31732,3.93749 0.23481,-0.14505 0.42693,0.0605 0.42693,0.45715 0,0.96086 2.91538,4.92068 3.51022,4.76777 0.25743,-0.0662 0.75928,-0.7366 1.11522,-1.48983 1.469,-3.10859 3.98998,-4.29513 5.74709,-2.70499 0.85243,0.77145 0.91647,1.20651 0.62909,4.27336 -0.31133,3.32236 -0.28584,3.44132 0.94464,4.40923 1.21111,0.95265 1.25214,1.12523 0.96968,4.07827 -0.24862,2.59918 -0.1477,3.32247 0.64214,4.60464 0.7726,1.25405 1.22853,1.52109 2.59711,1.52109 2.1107,0 4.70052,-1.07227 5.27382,-2.18352 0.24365,-0.47227 0.58932,-2.00618 0.76815,-3.4087 0.22087,-1.73205 0.61632,-2.75394 1.23279,-3.18574 1.13706,-0.79641 1.13078,-1.44083 -0.0285,-2.92279 -1.17846,-1.50659 -1.23279,-4.96984 -0.101,-6.44018 0.76943,-0.9996 1.20032,-1.06737 7.8291,-1.23133 3.85817,-0.0954 7.70127,-0.32809 8.54024,-0.51703 1.03452,-0.23297 1.77084,-0.13974 2.28818,0.28956 0.41954,0.34818 2.64987,0.84626 4.95625,1.10682 l 4.19347,0.47374 -1.19396,1.28709 c -0.84275,0.90849 -1.65342,1.28708 -2.75596,1.28708 -1.12853,0 -2.10885,0.47637 -3.53258,1.71654 -2.00013,1.74231 -2.52964,2.96376 -1.28481,2.96376 0.98834,0 3.83572,2.62723 4.67864,4.3169 1.1226,2.25032 0.89536,3.38868 -1.01045,5.062 l -1.73045,1.51937 0.13374,4.22383 c 0.15602,4.92841 0.50214,6.06801 2.17616,7.16487 1.04604,0.68539 1.29333,0.70663 1.64655,0.14151 0.2286,-0.36576 1.10575,-0.66503 1.94919,-0.66503 1.53043,0 1.53459,-0.007 2.0529,-3.1668 0.69289,-4.22479 1.40255,-4.97581 4.28268,-4.53222 1.22014,0.18792 2.37637,0.24707 2.56945,0.13144 0.57426,-0.34388 0.40162,-1.51472 -0.40486,-2.74558 -0.89446,-1.36513 -2.1221,-1.45598 -5.36056,-0.39672 -1.85488,0.60669 -2.45277,0.64175 -3.01313,0.17671 -1.66506,-1.38189 -0.0407,-3.13211 3.31339,-3.57002 2.97407,-0.3883 3.47603,-0.82901 3.47603,-3.05193 0,-1.19447 0.24367,-1.92302 0.70203,-2.09891 0.8789,-0.33726 0.91513,-1.39142 0.0591,-1.71991 -1.02447,-0.39313 -1.41533,-3.47838 -0.55027,-4.34344 0.39884,-0.39884 0.72518,-1.11286 0.72518,-1.58667 0,-0.63881 0.47881,-0.94239 1.85239,-1.17444 2.56172,-0.43281 3.44639,-0.0398 4.33806,1.9275 0.74493,1.64351 0.73358,1.75075 -0.37084,3.50024 -1.26716,2.00735 -1.35038,2.29141 -0.67126,2.29141 0.25742,0 0.46803,-0.24005 0.46803,-0.53344 0,-0.29338 0.3131,-0.76726 0.69577,-1.05307 1.96633,-1.46855 1.92637,-15.63109 -0.0462,-16.38805 -0.35723,-0.1371 -0.64953,-0.66976 -0.64953,-1.1837 0,-0.51397 -0.63183,-1.6541 -1.40409,-2.53365 -1.47016,-1.67442 -1.83515,-3.11369 -0.7896,-3.11369 0.75565,0 3.12976,-2.41587 3.12976,-3.18483 0,-0.30768 0.21061,-0.55942 0.46802,-0.55942 0.25742,0 0.46926,0.89511 0.47075,1.98913 0.004,2.90372 0.7672,7.09588 1.66013,9.11832 0.4282,0.96986 1.10004,2.50053 1.49299,3.40148 2.80872,6.44002 2.83155,6.55244 1.33091,6.55244 -1.28571,0 -1.40909,0.2849 -1.8728,4.32486 -0.2438,2.12401 -2.00203,5.54412 -3.48836,6.78556 -0.90804,0.75843 -1.05451,8.20635 -0.17866,9.08393 0.32179,0.32241 0.58504,1.68582 0.58504,3.0298 0,2.75396 1.6179,10.0953 2.5553,11.59495 0.33873,0.54186 0.75951,1.80249 0.93505,2.80137 0.28585,1.62624 0.15939,1.98105 -1.20934,3.39321 -1.54913,1.5983 -3.6851,2.13871 -3.6851,0.93235 z m -43.71969,-8.60604 c 0.53553,-0.36164 1.59696,-4.10442 1.59696,-5.6311 0,-0.86837 -1.95404,-3.37132 -2.63196,-3.37132 -0.62268,0 -2.04834,-1.54299 -2.04834,-2.2169 0,-0.54777 -1.96596,-3.34009 -3.87628,-5.5056 -0.24073,-0.27291 -0.34807,1.58078 -0.25742,4.44629 l 0.15549,4.91433 2.44746,2.93782 c 1.34611,1.6158 2.66986,3.35337 2.94165,3.86125 0.53056,0.99135 0.8711,1.10643 1.67249,0.56523 z m 2.68169,-9.43997 c 0.55104,-1.10459 0.56636,-1.41923 0.0782,-1.60655 -0.33385,-0.12807 -0.97178,0.17018 -1.41762,0.66279 -0.66243,0.73198 -0.70276,1.02566 -0.22067,1.60654 0.77198,0.93018 0.76359,0.93374 1.56004,-0.66278 z m -24.72027,-10.32714 c 0.15903,-0.25742 0.76125,-0.46804 1.33811,-0.46804 0.57687,0 1.24894,-0.19559 1.49348,-0.43465 0.24455,-0.23907 1.16557,-0.50234 2.04669,-0.58504 0.88114,-0.0828 1.69144,-0.42251 1.80069,-0.75508 0.15389,-0.46886 -0.67906,-0.57401 -3.7082,-0.46803 l -3.90682,0.13674 -0.14664,1.52111 c -0.1401,1.45249 0.46947,2.04531 1.08271,1.05306 z m 4.73328,-6.08441 c 1.82688,0 1.79059,-1.1532 -0.11675,-3.70796 -2.06785,-2.7698 -3.2513,-3.15564 -2.80293,-0.91384 0.16098,0.80444 0.29251,2.30126 0.29251,3.32629 0,1.50717 0.14169,1.80935 0.74034,1.5796 0.40717,-0.15619 1.25622,-0.28409 1.88679,-0.28409 z m 71.72819,31.58744 c -2.32344,-1.26241 -2.14062,-2.61492 1.34347,-9.93924 0.75489,-1.58699 1.07979,-2.91123 0.91859,-3.74425 -0.29962,-1.54846 0.64133,-5.27162 1.97714,-7.82324 1.23673,-2.36235 1.22001,-2.72776 -0.19772,-4.32124 l -1.16836,-1.31316 -1.43935,1.56602 c -1.29279,1.40655 -1.40589,1.76401 -1.11064,3.51023 0.57349,3.39184 0.57161,7.7653 -0.004,8.24261 -0.29744,0.24688 -1.00374,0.32779 -1.56952,0.17983 -0.75408,-0.19725 -1.02851,-0.6228 -1.02851,-1.59526 0,-0.72943 -0.33217,-1.51213 -0.73818,-1.73935 -0.65422,-0.36612 -0.67168,-0.84759 -0.15336,-4.2331 0.53544,-3.49762 0.81495,-4.14259 3.31236,-7.64333 2.82467,-3.95946 3.16542,-4.80594 2.09925,-5.21506 -0.74034,-0.28409 -2.17986,-3.14966 -2.17986,-4.33929 0,-1.07124 3.96806,-4.88036 5.084,-4.88036 1.02546,0 2.40448,1.41455 2.40448,2.46639 0,0.41503 0.22927,0.89628 0.50949,1.06946 0.3025,0.18696 0.4451,1.38649 0.35103,2.95281 l -0.1585,2.63794 1.87212,-0.15796 c 1.02966,-0.0869 2.0722,-0.3502 2.31675,-0.58504 0.24454,-0.23487 0.89641,-0.42701 1.44856,-0.42701 1.42159,0 2.54681,-1.43933 2.59006,-3.31307 0.0203,-0.88068 0.14753,-1.32511 0.28255,-0.98759 0.4607,1.15109 2.02063,-0.84524 2.02063,-2.58594 0,-0.94295 -0.19101,-1.47513 -0.46802,-1.30393 -0.60043,0.37109 -0.60223,0.38778 0.27733,-2.57407 0.52039,-1.7523 0.64952,-3.27719 0.4278,-5.05175 -0.22242,-1.78024 -0.16522,-2.44769 0.19069,-2.22769 0.27955,0.17282 0.50827,1.22368 0.50827,2.33533 0,1.15559 0.27891,2.25268 0.65125,2.5617 0.59236,0.49162 0.97649,2.94041 1.97045,12.56197 0.16044,1.55385 0.47432,2.45716 0.85362,2.45716 0.55622,0 1.67302,4.96962 1.67302,7.44477 0,1.14938 -3.01709,3.31993 -4.61476,3.31993 -1.03769,0 -1.09989,-0.13355 -0.83462,-1.79251 0.19535,-1.22156 0.07,-2.07876 -0.39332,-2.69119 -0.37399,-0.49425 -0.68343,-1.10926 -0.68767,-1.36667 -0.004,-0.25742 0.19134,-0.15319 0.43466,0.23173 0.37949,0.60027 0.54271,0.56699 1.14802,-0.23402 0.77886,-1.03068 0.95347,-2.10386 0.34229,-2.10386 -0.21622,0 -0.67303,-0.84813 -1.01514,-1.88476 -0.66368,-2.01098 -1.31991,-2.17572 -2.14375,-0.53822 -0.28038,0.55734 -0.64483,0.87831 -0.80987,0.71327 -0.16504,-0.16504 -1.38165,0.20479 -2.70355,0.82183 l -2.40347,1.12189 0.24491,4.58025 c 0.13479,2.51914 0.45569,4.83589 0.7133,5.14834 0.2576,0.31245 0.58216,3.72728 0.72123,7.58855 0.3401,9.44177 0.52499,10.30351 2.46829,11.50454 2.92901,1.81024 1.59066,2.73115 -2.65864,1.82938 -2.59862,-0.55147 -2.78489,-0.67879 -2.78489,-1.90352 0,-0.72188 -0.20629,-1.44001 -0.45843,-1.59584 -0.28961,-0.179 -0.25271,-0.61279 0.10012,-1.17788 0.46574,-0.74578 0.38419,-1.08023 -0.49031,-2.01113 -0.90818,-0.96669 -1.01291,-1.45624 -0.78025,-3.64705 0.46994,-4.42497 -1.10356,-4.8628 -2.79624,-0.77805 -0.45398,1.0955 -1.22366,2.85734 -1.7104,3.9152 -1.27193,2.76428 -1.15778,4.58628 0.35642,5.6893 0.71623,0.52173 1.10056,1.13229 0.90844,1.44313 -0.46038,0.74493 -3.52846,0.64233 -5.01956,-0.16787 z m -119.22774,-0.58516 c -0.35394,-0.12612 -1.01391,-0.59965 -1.4666,-1.05234 -0.79756,-0.79757 -3.16763,-0.7965 -3.74024,0.002 -0.51032,0.71138 -2.68727,0.89595 -3.50604,0.29725 -0.99511,-0.72765 -0.62358,-1.57567 0.95287,-2.17504 0.60507,-0.23005 1.43791,-0.93379 1.85075,-1.56386 0.70796,-1.08047 0.68939,-1.21142 -0.32655,-2.30321 -3.48492,-3.74518 -4.19647,-4.76888 -4.93798,-7.10412 -0.45072,-1.41947 -1.05824,-2.58373 -1.35006,-2.58728 -0.9089,-0.0106 -3.91656,3.68541 -3.89926,4.79222 0.009,0.57846 0.30609,2.40274 0.66011,4.05399 0.75013,3.49886 0.4904,6.09109 -0.62079,6.19561 -0.4168,0.0393 -1.00622,0.0945 -1.30982,0.12295 -0.30361,0.0285 -0.70728,0.20696 -0.89707,0.39673 -0.55832,0.55835 -4.16433,0.39481 -4.77573,-0.21657 -0.30891,-0.30891 -0.56163,-1.24423 -0.56163,-2.07851 0,-0.83429 -0.21061,-1.64706 -0.46803,-1.80616 -0.25741,-0.15902 -0.46804,-0.66635 -0.46804,-1.12725 0,-0.46091 -0.62502,-1.76481 -1.38893,-2.89756 -0.76392,-1.13278 -1.52535,-2.95727 -1.69211,-4.05445 -0.16681,-1.09718 -0.48948,-2.11004 -0.7172,-2.25078 -0.22771,-0.14098 -0.41403,-0.75772 -0.41403,-1.37087 0,-1.46938 -0.67584,-1.83146 -1.63261,-0.8747 -1.55913,1.55912 -2.21567,2.97061 -1.92343,4.13502 0.22867,0.91106 0.13904,1.10254 -0.41642,0.88941 -0.53636,-0.20582 -0.70784,0.0739 -0.70784,1.15492 0,0.78461 -0.21061,1.55671 -0.46803,1.71581 -0.25741,0.15902 -0.47122,0.856 -0.47513,1.54872 -0.004,0.69269 -0.28202,2.17874 -0.61803,3.30233 -0.46514,1.55544 -0.95257,2.18653 -2.04284,2.64495 -0.78756,0.33114 -1.57495,0.8335 -1.74976,1.11633 -0.17477,0.28284 -0.72662,0.51425 -1.22626,0.51425 -0.89584,0 -1.16555,-0.92443 -1.02412,-3.51022 0.0522,-0.95377 -0.78006,-3.55398 -1.2733,-3.97826 -0.57677,-0.49617 -2.94444,-5.75811 -3.52746,-7.83951 -0.43451,-1.55121 -0.96637,-1.297 -2.07415,0.99135 -1.08964,2.25093 -1.02835,2.62207 1.16523,7.05705 1.68107,3.39876 1.54614,4.81962 -0.54051,5.69148 -0.92706,0.38736 -2.3487,0.63013 -3.15921,0.5395 l -1.47363,-0.16486 1.28708,-0.5518 c 0.70789,-0.3035 1.28709,-0.65196 1.28709,-0.77437 0,-0.99425 -1.14924,-5.4965 -1.72959,-6.77579 -0.88059,-1.94116 -0.56747,-5.52421 0.72077,-8.24782 1.88549,-3.98632 1.55666,-7.30286 -0.95821,-9.66462 -0.7333,-0.68864 -1.4858,-1.32049 -1.67225,-1.40409 -2.50759,-1.12437 -6.83617,-4.01076 -7.00966,-4.67416 -0.12365,-0.4731 -0.62161,-0.86018 -1.10642,-0.86018 -0.60641,0 -0.88146,-0.33413 -0.88146,-1.07075 0,-0.58891 -0.62328,-1.79994 -1.38507,-2.69117 -1.47315,-1.72349 -1.77971,-3.18277 -0.86147,-4.10099 0.92633,-0.92634 1.65862,-0.64288 2.1764,0.84246 0.26922,0.77224 0.71104,1.40409 0.98185,1.40409 0.27081,0 0.49238,0.26143 0.49238,0.58099 0,0.31954 0.77214,1.7021 1.71587,3.07235 1.64872,2.39386 4.01265,4.08863 6.00938,4.30829 1.42378,0.15655 2.88027,-0.0488 2.22449,-0.31372 -0.31952,-0.12913 -0.92561,-0.96104 -1.34688,-1.8488 -0.86559,-1.82411 -0.65099,-5.21131 0.37123,-5.8594 1.08379,-0.68712 3.02118,-0.43917 3.86643,0.49481 1.03314,1.14162 1.92889,4.86099 1.22703,5.09495 -1.1126,0.37088 -0.39866,1.46657 1.1442,1.75602 1.17806,0.221 2.2967,1.02719 3.97826,2.86711 2.26047,2.4733 2.34246,2.66099 2.4304,5.56413 0.18071,5.96611 0.17459,6.02778 -0.61554,6.17994 -0.91716,0.17654 -1.23852,-0.85846 -1.63984,-5.28159 -0.21112,-2.32687 -0.5706,-3.57719 -1.2406,-4.31487 -0.51887,-0.57124 -1.12338,-0.92738 -1.34337,-0.79142 -0.6942,0.42903 -0.40484,4.06959 0.53606,6.74439 0.49803,1.41579 0.91238,3.14092 0.92078,3.83362 0.009,0.69271 0.2259,1.38964 0.48331,1.54873 0.25742,0.15903 0.46803,1.02443 0.46803,1.92298 0,1.79532 0.98354,4.04983 2.48119,5.68752 1.1431,1.24997 1.71274,0.71618 1.72391,-1.61549 0.004,-0.82141 0.2178,-1.62365 0.47521,-1.78273 0.25742,-0.15903 0.47549,-0.85603 0.48462,-1.54874 0.009,-0.6927 0.31758,-1.78599 0.68544,-2.42952 0.36789,-0.64354 0.67635,-1.72505 0.68546,-2.40335 0.0106,-0.78701 0.43996,-1.51065 1.18668,-1.9999 1.02012,-0.66841 1.17007,-1.1064 1.17007,-3.41762 v -2.65094 l -1.40409,1.34521 c -0.77226,0.73987 -1.42072,1.67438 -1.44104,2.07669 -0.0203,0.40232 -0.26097,0.0996 -0.53477,-0.6726 -0.27379,-0.77225 -0.88901,-1.96313 -1.36714,-2.64642 -0.47812,-0.68327 -0.87401,-1.52572 -0.87974,-1.87211 -0.005,-0.3464 -0.42226,-1.15634 -0.92565,-1.79987 -1.81816,-2.3244 -0.7038,-4.43474 1.3407,-2.53897 1.47644,1.36903 3.36532,1.46331 4.48691,0.22396 0.78914,-0.87198 0.78276,-0.96936 -0.14929,-2.27833 -1.98252,-2.7842 -0.98898,-6.17137 1.81018,-6.17137 1.98069,0 2.97655,1.45843 2.69593,3.94817 -0.23851,2.11593 0.52763,3.54031 1.90422,3.54031 0.6939,0 0.70012,0.0568 0.74486,6.78644 0.0232,3.50111 0.25059,5.96892 0.60354,6.55244 0.31141,0.51483 0.80533,2.46904 1.09761,4.34269 0.33935,2.17537 1.1074,4.49198 2.12498,6.40952 1.15016,2.16735 1.59357,3.60518 1.59357,5.16748 0,1.94866 0.10029,2.14966 1.00526,2.01501 1.71164,-0.25464 2.09056,-1.46503 1.12736,-3.60104 -1.13521,-2.51747 -0.84443,-7.97599 0.56603,-10.6254 0.9058,-1.70141 1.11715,-2.38721 1.83008,-5.93794 0.5252,-2.61577 -1.77162,-6.04269 -4.54607,-6.78285 -1.34098,-0.35775 -1.59807,-0.62636 -1.48932,-1.55602 0.0724,-0.618 -0.13833,-1.33618 -0.46802,-1.59595 -0.66127,-0.52099 -2.2376,-3.71382 -2.2376,-4.5322 0,-0.28486 -0.39726,-1.38343 -0.8828,-2.44129 -0.48554,-1.05786 -1.11585,-2.44992 -1.4007,-3.09346 -0.28483,-0.64354 -0.77911,-1.53469 -1.09838,-1.98034 -0.47492,-0.66289 -0.43956,-0.95121 0.19432,-1.58511 1.13303,-1.13303 2.2515,-0.49096 2.2515,1.29249 0,3.48919 5.50752,12.1016 7.7388,12.1016 1.09373,0 0.8067,-0.60551 -0.95238,-2.00909 -2.15157,-1.71675 -2.21957,-3.5028 -0.19808,-5.20377 1.88283,-1.5843 3.70834,-1.63586 3.70834,-0.10473 0,0.60884 0.42121,1.64246 0.93604,2.29696 0.55529,0.70593 0.93607,1.89871 0.93607,2.93217 v 1.74217 l 2.14683,-0.24199 c 2.95968,-0.33358 3.37196,-0.86824 2.26312,-2.93477 -0.49484,-0.92223 -1.37361,-2.12314 -1.95279,-2.66868 -0.57919,-0.54554 -1.05307,-1.37508 -1.05307,-1.84344 0,-0.62261 0.2831,-0.80474 1.05307,-0.6775 0.57918,0.0957 1.40488,-0.13373 1.83488,-0.50979 0.6926,-0.60583 0.83583,-0.58287 1.25546,0.20121 0.26053,0.4868 0.56247,2.09525 0.67099,3.57436 0.10861,1.47913 0.42453,2.91652 0.7022,3.19419 0.77538,0.77535 1.97188,0.0724 1.97188,-1.15844 0,-0.60519 0.522,-1.55422 1.15998,-2.10894 1.12693,-0.97985 1.17355,-0.98323 1.63642,-0.11835 0.60586,1.13205 0.23179,2.12069 -1.70891,4.51652 -1.64711,2.0334 -1.99308,3.92033 -0.88709,4.83821 0.89823,0.74548 2.72131,-0.22321 5.15993,-2.74171 1.01756,-1.05087 2.12329,-1.91069 2.45717,-1.91069 0.81493,0 0.76802,-0.84195 -0.095,-1.70497 -0.38612,-0.38613 -0.70205,-1.3217 -0.70205,-2.07905 0,-0.75735 -0.26326,-1.80868 -0.58504,-2.33628 -0.51294,-0.84104 -0.41954,-1.10295 0.75779,-2.12529 0.93097,-0.80838 1.77778,-1.1223 2.76099,-1.0235 1.43991,0.1447 1.56549,0.28432 2.86399,3.1847 0.58184,1.2996 0.73559,1.42392 0.74405,0.60165 0.005,-0.57006 0.5114,-1.93906 1.12343,-3.0422 0.61203,-1.10316 1.26008,-2.68782 1.44011,-3.52147 0.18002,-0.83366 0.55244,-1.65487 0.82759,-1.82492 0.33262,-0.20557 0.39897,0.10632 0.198,0.93069 -0.96327,3.95125 -1.01692,3.63132 0.48338,2.88287 3.28455,-1.63855 4.88068,1.19449 2.90344,5.1535 l -1.08485,2.17224 1.15504,0.88758 c 1.24678,0.95809 2.08637,1.18999 1.62901,0.45 -0.40615,-0.6572 0.81872,-4.98233 2.15481,-7.60879 0.22738,-0.44697 0.41342,-1.11905 0.41342,-1.49348 0,-1.00636 0.87641,-1.36816 1.6862,-0.69609 0.81312,0.67483 0.53549,3.39637 -0.56084,5.49769 -0.95852,1.83714 -0.80918,3.00246 0.62976,4.91449 1.26002,1.67427 2.9026,2.54317 3.78118,2.00018 0.24273,-0.15 0.33488,-1.59683 0.20486,-3.21668 -0.18823,-2.34481 -0.0821,-3.07204 0.52148,-3.57295 0.82455,-0.68433 1.06384,-4.21549 0.33773,-4.984 -0.44279,-0.46865 -0.66684,-1.88047 -1.44466,-9.1032 -0.26336,-2.44544 -0.67226,-4.8675 -0.90868,-5.38233 -0.23642,-0.51485 -0.55518,-2.16222 -0.70837,-3.66085 -0.26898,-2.63145 -0.24218,-2.71963 0.78258,-2.57417 0.99976,0.14187 1.06606,0.38061 1.14681,4.12887 0.10791,5.00792 1.06207,13.16861 1.62176,13.87001 0.23309,0.29213 0.5529,1.91342 0.71067,3.60288 l 0.28685,3.07174 1.6897,0.14133 c 1.59411,0.13338 1.69809,0.24344 1.83789,1.94555 0.0815,0.99232 -0.18561,2.63845 -0.59358,3.6581 -1.15634,2.88994 -0.0716,3.55807 2.84733,1.754 1.47249,-0.91004 1.57633,-1.13947 1.57633,-3.4826 0,-1.37961 -0.21061,-2.63854 -0.46803,-2.79762 -0.25741,-0.15903 -0.46804,-0.61358 -0.46804,-1.00998 0,-0.39638 -0.33212,-1.42059 -0.73805,-2.27601 -0.57987,-1.222 -0.62325,-1.7698 -0.20244,-2.55613 1.06504,-1.99003 2.98011,-0.19241 3.7307,3.50196 0.22941,1.12911 0.557,1.43405 1.67274,1.5571 2.01135,0.22184 2.30736,0.76664 0.91295,1.68031 -1.09886,0.71999 -1.20946,1.04985 -1.07711,3.21242 0.13657,2.2302 0.0515,2.45682 -1.13958,3.03698 -0.70789,0.3448 -1.28707,0.82604 -1.28707,1.06941 0,0.24337 -0.27208,0.44249 -0.60461,0.44249 -0.33252,0 -1.48176,0.8951 -2.55386,1.98913 -1.92202,1.96133 -1.95119,2.04146 -2.08658,5.73337 l -0.13727,3.74425 -1.40409,-0.14028 -1.40409,-0.14045 1.49179,1.07641 c 1.60301,1.15667 4.11343,4.97272 4.60462,6.99942 0.39633,1.63522 1.93347,3.00714 3.99355,3.56426 2.00988,0.54356 5.58905,2.73412 5.58905,3.42068 0,0.52932 -2.26022,3.7157 -3.03954,4.28501 -0.72364,0.52865 -2.48261,0.42124 -2.85053,-0.17406 -0.18282,-0.2958 0.14523,-0.88997 0.73856,-1.33748 l 1.06752,-0.80523 -2.1376,-1.47069 c -1.17568,-0.8089 -2.35558,-1.47071 -2.62202,-1.47071 -0.7926,0 -3.85047,-2.89787 -4.2969,-4.07207 -0.22746,-0.59827 -0.96555,-1.33928 -1.64019,-1.64667 -1.06946,-0.48727 -1.56534,-0.38159 -3.87065,0.82482 l -2.64403,1.38368 0.14258,3.54864 c 0.16469,4.09598 0.0541,4.25363 -3.57912,5.10569 -2.15366,0.50507 -2.59984,0.48695 -3.21739,-0.13055 -0.64398,-0.64396 -0.56808,-0.794 0.74527,-1.47316 1.4173,-0.73291 1.46236,-0.85297 1.46461,-3.90335 0.004,-3.55103 0.41455,-4.24863 4.35109,-7.36871 2.52746,-2.00324 2.37791,-2.71381 -0.66702,-3.16925 -1.53236,-0.22922 -1.8917,-0.0543 -3.72469,1.81342 -1.11581,1.13691 -2.36156,2.06712 -2.76838,2.06712 -0.4068,0 -1.56586,0.42122 -2.57567,0.93605 -1.00982,0.51485 -2.11144,0.93607 -2.44803,0.93607 -0.6593,0 -0.37142,2.09684 0.42778,3.11589 0.23368,0.29794 0.59383,1.61063 0.80034,2.91706 0.31366,1.98423 0.2399,2.49807 -0.44799,3.12061 -1.18301,1.07059 -3.5131,0.72876 -3.37418,-0.495 0.0584,-0.51483 -0.0938,-1.35729 -0.33837,-1.87212 -0.60159,-1.26659 -1.89295,-4.90508 -2.20096,-6.2014 -0.13762,-0.57919 -0.42337,-1.05307 -0.63501,-1.05307 -0.21163,0 -0.53004,-0.96859 -0.70757,-2.15242 l -0.32278,-2.15244 -1.18188,1.18188 c -1.43722,1.43722 -2.42566,4.12169 -2.43515,6.61348 -0.005,1.50352 0.31328,2.18042 1.69381,3.59421 1.03509,1.06003 1.59503,2.01757 1.43052,2.44627 -0.34682,0.90384 -1.77481,1.6417 -2.60484,1.34598 z m -2.7172,-13.22081 c 0.22638,-1.15634 0.62146,-2.35893 0.87794,-2.67242 0.25646,-0.31349 1.20857,-1.78779 2.11578,-3.27621 1.30696,-2.14425 1.69795,-3.34082 1.88282,-5.76207 0.19184,-2.51273 0.0897,-3.17506 -0.57489,-3.72659 -0.70359,-0.58393 -0.87733,-0.57933 -1.34256,0.0356 -0.29393,0.38841 -1.27155,0.99494 -2.1725,1.34786 -2.25957,0.8851 -2.80818,1.37713 -2.80818,2.51852 0,0.87557 -0.15355,0.81496 -1.40409,-0.55423 -0.98979,-1.08366 -1.4041,-2.01212 -1.4041,-3.14651 0,-1.88412 -0.40009,-2.00604 -1.77624,-0.5412 -0.92699,0.98673 -0.95101,1.16891 -0.31561,2.39365 0.37827,0.7291 0.68854,1.77544 0.68951,2.32521 9.4e-4,0.54977 0.39467,1.64391 0.87492,2.43143 0.50797,0.83301 0.89223,2.38269 0.91878,3.70532 0.0251,1.25042 0.26324,2.49106 0.52918,2.75702 0.26596,0.26595 0.48356,1.00403 0.48356,1.64018 0,1.38999 1.30172,2.95677 2.29729,2.76505 0.43611,-0.084 0.87792,-0.96122 1.12839,-2.24048 z m 15.18084,-0.32462 c 1.40995,-0.49369 2.07392,-1.02591 2.27388,-1.8226 0.15531,-0.61892 0.47542,-1.12529 0.71131,-1.12529 0.68425,0 1.27034,-2.03483 0.99736,-3.46276 -0.21505,-1.12496 -0.42375,-1.27454 -1.4828,-1.06272 -2.00436,0.40087 -3.17007,-0.90676 -3.53112,-3.96104 -0.29435,-2.48996 -0.24017,-2.69233 0.9773,-3.65 0.88277,-0.69437 1.79805,-0.96981 2.90459,-0.8741 1.68289,0.14559 1.80797,0.28321 3.20037,3.52092 0.46762,1.08738 1.0851,1.98248 1.37216,1.98913 0.28705,0.007 1.07686,0.44859 1.7551,0.9821 l 1.2332,0.97003 v -2.3521 c 0,-2.86976 -0.58957,-4.30769 -2.94945,-7.19344 -1.88689,-2.30738 -2.93753,-2.87708 -2.4452,-1.32589 0.23521,0.74113 0.0982,0.85829 -0.78753,0.67323 -3.80547,-0.79512 -5.42267,-1.39631 -6.44557,-2.3961 l -1.16102,-1.13477 1.25483,-0.91408 c 0.69016,-0.50274 1.17756,-1.16739 1.0831,-1.47697 -0.0945,-0.3096 -0.29865,-1.14207 -0.45375,-1.84998 -0.37075,-1.69195 -0.98878,-1.63101 -1.61281,0.15902 -0.27726,0.79535 -1.04487,1.87148 -1.70582,2.39137 -1.39827,1.09987 -1.30984,1.87957 0.25508,2.24899 0.78228,0.18468 1.23148,0.74065 1.52304,1.88503 0.22745,0.89273 0.60766,1.8232 0.84491,2.06774 0.74883,0.77179 0.46879,2.73146 -0.54442,3.80996 -0.87235,0.92859 -0.99611,1.74338 -1.16729,7.68487 -0.10525,3.65538 -0.0662,6.84898 0.087,7.09689 0.15319,0.2479 0.62583,0.30879 1.05029,0.13533 0.42444,-0.17354 1.66786,-0.62923 2.76316,-1.01277 z m 12.98709,11.86312 c -1.54707,-2.36112 0.23902,-9.27047 2.2253,-8.60837 0.77999,0.26 1.09573,2.01858 1.07118,5.96613 -0.0214,3.45517 -0.0416,3.51252 -1.27961,3.6555 -0.91836,0.10614 -1.46263,-0.16734 -2.01687,-1.01326 z m 110.72456,-28.65692 c 0.0225,-0.54522 0.13338,-0.65613 0.28277,-0.28276 0.13514,0.33785 0.11851,0.74154 -0.037,0.89706 -0.15549,0.15549 -0.26614,-0.121 -0.24582,-0.6143 z m -147.1838,-14.35293 c 0.19017,-0.57918 0.32276,-1.42164 0.29463,-1.87212 -0.061,-0.97816 1.21508,-1.10328 1.57904,-0.15478 0.28177,0.73427 -1.06911,3.08 -1.77373,3.08 -0.25267,0 -0.29598,-0.45609 -0.0999,-1.05307 z m -2.56857,-0.63892 c -0.0299,-0.54448 0.38061,-1.54287 0.91217,-2.21863 1.00048,-1.2719 0.8793,-2.17378 -0.29205,-2.17378 -1.07823,0 -0.78153,-1.47507 0.58322,-2.89958 1.43547,-1.4983 3.95602,-1.76419 5.51969,-0.58226 0.5941,0.44904 1.43445,0.60156 2.34016,0.42474 1.06521,-0.20796 1.24032,-0.15549 0.71115,0.21337 -0.99029,0.69013 -2.18763,0.61988 -3.98688,-0.23393 -1.42833,-0.67778 -1.65197,-0.67343 -2.76191,0.0538 -1.24402,0.81511 -1.56209,1.81351 -0.73969,2.32179 0.76444,0.47245 0.53902,1.48191 -0.64521,2.88927 -0.61226,0.72766 -1.21968,1.74423 -1.34978,2.25906 -0.22616,0.89479 -0.23898,0.89242 -0.29087,-0.054 z m -52.14752,-2.23625 c -0.19151,-0.48733 -0.23794,-0.9963 -0.10313,-1.13108 0.42688,-0.42686 0.80247,0.27267 0.6236,1.16143 -0.16398,0.81453 -0.18896,0.81308 -0.52042,-0.0304 z m 111.17852,-1.47411 c -0.57724,-0.40432 -1.03619,-1.09175 -1.01986,-1.52763 0.0216,-0.57933 0.14275,-0.51126 0.45018,0.25304 0.35778,0.88964 0.70237,1.01842 2.31047,0.86353 1.0395,-0.10012 1.88998,0.009 1.88998,0.24151 0,0.23297 -0.2987,0.42357 -0.66376,0.42357 -0.36509,0 -0.94586,0.10826 -1.29063,0.24054 -0.34476,0.13232 -1.09914,-0.0902 -1.67638,-0.49456 z m -90.91136,-0.21402 c -0.99797,-0.31959 -1.0324,-0.38731 -0.23401,-0.46037 0.51483,-0.0471 1.40629,-0.13797 1.98101,-0.20187 0.82258,-0.0914 0.9349,0.0159 0.52775,0.50705 -0.57101,0.68801 -0.60401,0.69026 -2.27475,0.15514 z m 43.05879,-4.6803 c 0.38612,-0.24952 1.17995,-0.45691 1.76403,-0.46086 0.89805,-0.005 1.01666,-0.18779 0.76832,-1.17724 -0.24089,-0.95979 -0.1233,-1.17008 0.65484,-1.17008 0.52169,0 1.33432,-0.14098 1.80585,-0.31339 0.79496,-0.29056 0.79057,-0.23739 -0.0601,0.73063 -0.72121,0.82069 -0.78665,1.12484 -0.30592,1.42194 0.78082,0.48258 -1.81583,1.44005 -3.87781,1.42986 -1.10912,-0.005 -1.28574,-0.11409 -0.74921,-0.46086 z m 15.27831,-1.20077 c 0.29444,-0.13656 0.42784,-0.65933 0.29644,-1.16182 -0.16716,-0.63938 -0.002,-0.91362 0.55026,-0.91362 1.16826,0 0.75157,2.06486 -0.446,2.21011 -0.51483,0.0624 -0.69514,0.002 -0.4007,-0.13462 z m 91.95494,-3.97276 c -0.0363,-0.79876 0.49376,-1.72648 1.59784,-2.79659 1.31458,-1.27413 1.59751,-1.85004 1.38478,-2.81868 -0.37482,-1.70645 0.48191,-3.6576 1.83123,-4.17061 0.62739,-0.23854 1.3619,-0.81394 1.63227,-1.27869 0.39661,-0.68175 0.49433,-0.7045 0.50581,-0.11781 0.007,0.39997 -0.72444,1.44318 -1.62725,2.31822 -1.39991,1.35684 -1.60044,1.80969 -1.36266,3.07715 0.34517,1.83994 -0.80851,4.24604 -2.37897,4.96159 -0.61918,0.28213 -1.21646,0.85219 -1.32728,1.26681 -0.11304,0.42307 -0.22529,0.22939 -0.25577,-0.44144 z m -2.04342,-1.64601 c -0.76945,-0.78238 -0.30997,-2.88407 0.87023,-3.98058 0.6717,-0.62406 1.39549,-1.55588 1.60844,-2.07071 0.37356,-0.90311 0.38822,-0.90026 0.41684,0.081 0.0159,0.55944 -0.47863,1.62126 -1.0999,2.35958 -0.62127,0.73833 -1.20045,1.93307 -1.28708,2.65499 -0.0867,0.7219 -0.31547,1.15193 -0.50853,0.95563 z"
       id="path229"
       inkscape:connector-curvature="0" />
  </g>
</svg>
