<?xml version="1.0" encoding="UTF-8" standalone="no"?>
<!-- Created with Inkscape (http://www.inkscape.org/) -->

<svg
   xmlns:dc="http://purl.org/dc/elements/1.1/"
   xmlns:cc="http://creativecommons.org/ns#"
   xmlns:rdf="http://www.w3.org/1999/02/22-rdf-syntax-ns#"
   xmlns:svg="http://www.w3.org/2000/svg"
   xmlns="http://www.w3.org/2000/svg"
   xmlns:sodipodi="http://sodipodi.sourceforge.net/DTD/sodipodi-0.dtd"
   xmlns:inkscape="http://www.inkscape.org/namespaces/inkscape"
   width="210mm"
   height="324.58041mm"
   viewBox="0 0 210 324.58042"
   version="1.1"
   id="svg8"
   inkscape:version="0.92.3 (2405546, 2018-03-11)"
   sodipodi:docname="farmers_2.svg">
  <defs
     id="defs2" />
  <sodipodi:namedview
     id="base"
     pagecolor="#ffffff"
     bordercolor="#666666"
     borderopacity="1.0"
     inkscape:pageopacity="0.0"
     inkscape:pageshadow="2"
     inkscape:zoom="1.4"
     inkscape:cx="363.62453"
     inkscape:cy="542.59468"
     inkscape:document-units="mm"
     inkscape:current-layer="layer1"
     showgrid="false"
     fit-margin-top="0"
     fit-margin-left="0"
     fit-margin-right="0"
     fit-margin-bottom="0"
     inkscape:window-width="1920"
     inkscape:window-height="1017"
     inkscape:window-x="-8"
     inkscape:window-y="-8"
     inkscape:window-maximized="1" />
  <metadata
     id="metadata5">
    <rdf:RDF>
      <cc:Work
         rdf:about="">
        <dc:format>image/svg+xml</dc:format>
        <dc:type
           rdf:resource="http://purl.org/dc/dcmitype/StillImage" />
        <dc:title></dc:title>
      </cc:Work>
    </rdf:RDF>
  </metadata>
  <g
     inkscape:label="Layer 1"
     inkscape:groupmode="layer"
     id="layer1"
     transform="translate(-356.47937,877.35182)">
    <path
       style="fill:#000000;stroke-width:0.62918431"
       d="m 443.89371,-554.75829 c -1.22713,-1.45839 -1.84692,-1.78363 -2.4481,-1.2847 -0.44274,0.36743 -1.39533,0.51367 -2.11689,0.32498 -0.72154,-0.18882 -1.50215,-0.0352 -1.73465,0.34094 -0.23257,0.3762 -1.00633,0.68399 -1.71964,0.68399 -1.26577,0 -1.28599,-0.19262 -0.84127,-8.02211 0.25059,-4.41215 0.69538,-8.31739 0.98837,-8.6783 0.293,-0.36091 0.83749,-6.73141 1.20999,-14.15666 0.37247,-7.42524 0.83575,-14.38371 1.02949,-15.46326 0.35292,-1.96672 -1.69175,-7.16034 -2.81898,-7.16034 -0.28579,0 -1.66342,1.25681 -3.06141,2.79292 -4.64658,5.10568 -11.78968,6.56402 -18.6062,3.79865 -1.08133,-0.43868 -1.12278,0.3548 -0.87382,16.73605 0.18382,12.09446 0.47394,17.26741 0.97786,17.43537 0.44933,0.14982 0.7165,1.96508 0.7165,4.86817 0,4.5997 -0.54792,6.03196 -1.7366,4.53935 -0.99194,-1.24561 -1.7273,-14.88759 -1.48709,-27.58838 0.20855,-11.02614 -0.5382,-19.9785 -1.80487,-21.63836 -0.8899,-1.16611 -1.61263,-11.93321 -2.91415,-43.41372 -0.21473,-5.19077 -0.60725,-9.72089 -0.87254,-10.06694 -0.59738,-0.77926 -1.10502,-5.81081 -1.61874,-16.04421 -0.21711,-4.32565 -0.48771,-7.96394 -0.60121,-8.0851 -0.11343,-0.12105 -0.57914,0.0214 -1.03472,0.31458 -0.45559,0.29419 -1.53618,0.53489 -2.40131,0.53489 -1.54414,0 -1.57629,0.10083 -1.75476,5.50538 -0.10273,3.1128 0.073,5.50535 0.40457,5.50535 0.95047,0 1.27507,-1.55484 0.90327,-4.32681 -0.40949,-3.05302 0.71902,-3.59318 1.31205,-0.62801 0.2164,1.08141 0.39325,6.39792 0.39325,11.8145 0,7.51067 0.21307,10.15248 0.89761,11.12985 0.56259,0.8032 1.14968,4.42492 1.57296,9.70353 0.97142,12.11447 0.985,11.94555 -0.95941,11.94555 -1.63351,0 -1.63439,0.002 -1.18761,3.93242 0.4899,4.30864 0.74718,4.93945 1.51064,3.70412 0.38955,-0.63027 0.61734,-0.55296 0.9806,0.3328 0.83583,2.03808 1.53877,20.9845 1.1458,30.8828 -0.26372,6.64352 -0.17335,9.59507 0.29355,9.59507 0.37094,0 0.81727,-0.35392 0.99182,-0.78649 0.17455,-0.43256 0.3397,0.28522 0.36702,1.59511 0.0274,1.30986 -0.4133,3.08814 -0.97915,3.95174 -0.83872,1.28007 -0.94778,2.46418 -0.59027,6.40938 0.24118,2.6616 0.68468,5.13586 0.98555,5.49839 0.30087,0.36251 0.65859,1.92767 0.79495,3.47812 0.17502,1.99054 0.30243,1.33975 0.43341,-2.21451 l 0.18549,-5.03346 0.81347,5.97725 c 0.4474,3.28749 0.72715,6.06461 0.62162,6.17141 -0.10559,0.10677 -1.17101,-0.21497 -2.36777,-0.71502 -2.10503,-0.87954 -2.1904,-1.04995 -2.6188,-5.22763 -0.6905,-6.7336 -1.59543,-26.16119 -1.61522,-34.67661 -0.01,-4.23913 -0.25171,-7.7075 -0.5375,-7.7075 -0.28577,0 -0.85202,-3.89308 -1.25833,-8.6513 -1.39702,-16.35983 -2.06866,-22.49607 -2.5998,-23.75171 -0.29275,-0.6921 -1.15888,-3.66498 -1.92469,-6.60642 -0.76582,-2.94145 -1.88729,-6.48061 -2.49217,-7.8648 -0.60485,-1.38422 -1.30582,-3.64929 -1.5577,-5.03349 -0.25188,-1.38419 -0.99855,-3.70452 -1.65926,-5.15626 -0.66073,-1.45173 -1.20133,-2.92855 -1.20133,-3.28185 0,-0.77555 -2.04217,-5.27583 -2.59499,-5.71855 -0.21616,-0.17311 -0.59736,-1.25704 -0.84733,-2.40895 -0.41632,-1.91837 -0.20808,-2.33056 2.47835,-4.90457 3.19506,-3.06139 3.51749,-4.83961 0.93237,-5.14199 -0.87659,-0.1025 -2.39731,-0.82715 -3.37936,-1.61021 -1.57296,-1.25424 -1.83842,-1.98127 -2.22937,-6.10542 -0.24408,-2.5749 -0.18263,-5.45204 0.13674,-6.39364 0.41851,-1.23429 0.31599,-2.24221 -0.36745,-3.61221 -0.53712,-1.07667 -0.69738,-2.05506 -0.36978,-2.25753 0.78084,-0.48257 0.73861,-5.14311 -0.0511,-5.63112 -1.93345,-1.19493 1.03743,-7.09706 3.85608,-7.66079 0.99363,-0.19881 1.80658,-0.5776 1.80658,-0.84194 0,-0.26434 0.35392,-0.46747 0.78648,-0.45142 0.43256,0.0166 1.60554,-0.0143 2.60664,-0.0699 l 1.82016,-0.0992 -0.47375,-5.19076 c -0.26056,-2.85493 -0.44626,-6.18174 -0.4127,-7.39291 0.0335,-1.2112 -0.2467,-3.61782 -0.62285,-5.34807 -0.37613,-1.73027 -0.78109,-5.65448 -0.89989,-8.72048 -0.1189,-3.06601 -0.3719,-5.73044 -0.56243,-5.92096 -0.19048,-0.19048 -0.90386,0.15814 -1.58519,0.77469 -1.23787,1.12026 -3.1732,0.95548 -3.1732,-0.27015 0,-0.35691 -0.42472,-0.64894 -0.94379,-0.64894 -1.3865,0 -1.16718,-0.80422 0.94379,-3.46051 2.13893,-2.69152 2.27883,-3.63909 0.92148,-6.24197 -0.65705,-1.25997 -0.75473,-2.04127 -0.31073,-2.48527 0.901,-0.90101 0.81235,-4.01127 -0.12319,-4.32312 -0.48461,-0.16147 -0.72432,-1.32532 -0.64558,-3.13435 0.0904,-2.07501 -0.22996,-3.32899 -1.14856,-4.49676 -0.9636,-1.22504 -1.17638,-2.13846 -0.87383,-3.75126 0.29471,-1.57092 0.15576,-2.22561 -0.5282,-2.48805 -0.51047,-0.19595 -1.33571,-1.17315 -1.83384,-2.1717 -0.49814,-0.99855 -2.15729,-3.45381 -3.687,-5.45613 -1.52968,-2.00231 -3.34754,-4.5447 -4.03963,-5.64975 -0.6921,-1.10506 -2.01466,-2.9884 -2.939,-4.18524 -3.125,-4.04615 -4.77252,-8.26364 -5.5814,-14.28785 -0.42983,-3.20096 -1.0244,-5.81994 -1.32132,-5.81994 -0.2969,0 -0.53981,-0.90303 -0.53981,-2.00672 0,-3.1372 -2.56201,-18.37275 -3.20167,-19.03952 -0.3154,-0.32874 -0.57344,-1.6264 -0.57344,-2.88368 0,-1.25728 -0.26306,-3.81962 -0.58454,-5.69412 -0.32151,-1.87447 -0.91765,-6.09791 -1.3248,-9.3854 -0.40711,-3.28749 -0.99696,-6.2936 -1.31076,-6.68026 -0.66456,-0.81885 0.94705,-2.44083 1.86285,-1.87486 0.32196,0.19904 0.77844,1.39076 1.01436,2.64838 0.2359,1.25759 0.67855,2.74718 0.98358,3.31016 0.52782,0.97418 2.27743,7.41868 2.92553,10.77597 0.16694,0.86514 0.54345,2.13924 0.83654,2.83134 0.29307,0.6921 0.70316,2.53247 0.91126,4.08969 0.58023,4.34143 2.26946,11.41005 3.26362,13.65661 0.49084,1.10916 1.19245,3.65737 1.55917,5.66266 0.36671,2.00527 1.02374,4.49536 1.46008,5.53351 0.86241,2.05192 1.67424,4.66296 2.86877,9.22667 0.43929,1.67833 1.54771,3.68167 2.58902,4.6793 1.00146,0.95946 1.82085,2.00141 1.82085,2.31545 0,0.69886 5.09745,6.11463 5.75521,6.11463 0.25949,0 1.26499,0.73581 2.23446,1.63512 l 1.76268,1.63511 0.49898,-3.05079 c 0.27445,-1.67793 0.34705,-6.16523 0.16123,-9.97179 -0.18572,-3.80657 -0.38136,-15.9813 -0.43477,-27.05492 -0.0535,-11.07366 -0.34733,-23.67307 -0.65315,-27.99871 -0.59008,-8.34647 -0.37672,-10.69614 0.97123,-10.69614 1.9574,0 2.8211,2.18048 3.11528,7.8648 0.67322,13.00693 1.75593,25.23835 2.32335,26.24646 0.33404,0.59348 0.76655,5.97302 0.96115,11.9545 0.3645,11.20432 2.32748,27.13425 3.72992,30.26881 l 0.79471,1.77624 1.36896,-1.77624 c 2.49418,-3.23623 5.87903,-8.65899 7.09788,-11.37129 0.66093,-1.47071 1.40078,-2.6751 1.64412,-2.67639 0.24334,-10e-4 0.95787,-1.34617 1.58783,-2.98862 0.62993,-1.64245 1.40924,-3.41096 1.73174,-3.93006 2.83132,-4.557 3.17932,-8.43146 3.01043,-33.51614 -0.14149,-20.99777 -0.0578,-23.23273 0.90624,-24.19663 0.80898,-0.80901 1.23686,-0.88719 1.79586,-0.32817 0.80952,0.80953 1.67767,9.09357 1.74715,16.67208 0.0245,2.68191 0.29148,4.87618 0.59306,4.87618 0.3016,0 0.74215,3.46839 0.97905,7.70752 0.23685,4.23912 0.72853,10.96352 1.09256,14.94311 0.36403,3.9796 0.66832,8.2266 0.67621,9.43777 0.019,2.85978 -1.54844,7.40244 -3.59276,10.41492 -0.89256,1.31526 -1.78277,3.02864 -1.97827,3.80751 -0.19547,0.77888 -0.71814,1.55532 -1.16145,1.72542 -0.44333,0.17003 -1.00595,1.1108 -1.25027,2.09038 -0.24431,0.9796 -1.27171,3.03292 -2.28311,4.56299 -1.01137,1.53004 -1.83887,3.26172 -1.83887,3.84816 0,0.982 0.31083,0.99701 3.93241,0.18976 2.16281,-0.48204 4.49866,-1.12292 5.19076,-1.42417 2.43959,-1.06181 8.28704,-1.89376 18.24636,-2.59603 5.53681,-0.39043 10.63319,-0.94615 11.32531,-1.23493 0.6921,-0.28877 3.24029,-0.70278 5.66266,-0.92001 4.88802,-0.43834 6.76083,-1.36204 8.13007,-4.00984 1.28164,-2.4784 8.25855,-8.80852 10.26306,-9.31161 0.9113,-0.22877 2.38358,-0.79509 3.2718,-1.25859 1.90769,-0.99556 7.52543,-1.11965 9.59602,-0.21188 2.94691,1.29181 11.20898,7.45725 11.20898,8.36451 0,0.30529 0.58554,1.37738 1.30121,2.38245 l 1.30123,1.82738 10.49598,0.01 c 15.91563,0.0143 40.38225,1.90978 40.38225,3.12876 0,0.2563 1.34488,0.64863 2.98862,0.87187 4.45049,0.6044 8.61642,2.14338 10.11229,3.73566 1.27317,1.35523 1.28323,1.47939 0.24765,3.05278 -2.00903,3.05243 -7.1411,8.1203 -10.44379,10.31316 -2.71199,1.80066 -4.24122,2.30495 -8.75789,2.88799 -3.00972,0.38852 -5.4722,0.90938 -5.4722,1.15748 0,0.36338 -8.51424,1.30981 -12.58367,1.39877 -4.9557,0.10844 -15.45114,1.2653 -16.05967,1.77034 -0.80827,0.67079 -0.55843,6.0278 0.33682,7.22278 0.25927,0.34605 0.66052,2.89424 0.89166,5.66266 0.23114,2.76842 0.70739,7.25739 1.05832,9.97551 0.68175,5.28077 0.39995,6.75082 -0.7278,3.79651 -0.63598,-1.66607 -0.76118,-1.72578 -1.50262,-0.71645 -0.44486,0.60561 -1.13153,1.10107 -1.52595,1.10107 -0.39442,0 -1.2877,0.57058 -1.98508,1.26796 -0.92762,0.92762 -1.71384,1.15605 -2.92922,0.851 -1.15479,-0.28984 -1.88137,-0.11605 -2.3832,0.57034 -0.39706,0.54302 -1.26235,0.9387 -1.92284,0.87927 -1.67018,-0.15029 -1.89907,1.73051 -0.46496,3.82072 1.54615,2.25353 2.7294,6.42855 2.29391,8.09387 -0.26022,0.99513 -0.71352,1.24109 -1.87718,1.01865 -0.84375,-0.16123 -1.68818,-0.54259 -1.87652,-0.84731 -0.18834,-0.30474 -0.641,-0.55408 -1.00593,-0.55408 -0.43099,0 -0.51636,1.04721 -0.24362,2.98865 0.67628,4.81394 1.56775,6.93043 3.661,8.69178 1.98465,1.66999 3.32464,1.76116 7.80105,0.53085 0.88924,-0.24439 1.78278,0.0521 2.59033,0.85974 0.67807,0.67807 2.04914,1.38518 3.04681,1.57138 3.09526,0.57762 7.2931,2.34491 10.15044,4.2733 1.50552,1.01608 2.97597,1.84741 3.26763,1.84741 0.29169,0 0.67933,0.38826 0.86144,0.86279 0.18216,0.47456 1.07693,1.05002 1.98852,1.27881 0.91159,0.22876 2.81729,1.25621 4.23492,2.28311 1.41761,1.02692 2.87819,1.86712 3.24574,1.86712 0.80106,0 6.06395,5.06473 6.06395,5.83564 0,0.29709 0.68175,1.44146 1.51496,2.54303 0.83324,1.10157 1.82877,3.18262 2.21232,4.62456 0.38353,1.44194 1.11572,3.42387 1.62707,4.40431 0.51137,0.98041 0.93149,2.1892 0.93363,2.68616 0.007,1.40182 1.98779,9.08746 2.52505,9.79256 0.2637,0.34605 0.67952,1.62015 0.92406,2.83132 0.63483,3.14432 2.1896,7.70236 2.93278,8.59783 1.11839,1.34757 0.35243,4.20167 -1.34455,5.0101 -0.86513,0.41214 -2.63371,1.26354 -3.93018,1.892 -1.2965,0.62847 -3.91179,2.56524 -5.81181,4.30398 l -3.45457,3.16132 -0.11272,7.42042 c -0.0621,4.0812 -0.36255,7.5748 -0.66789,7.76352 -0.31801,0.19666 -0.30995,0.65517 0.019,1.07358 0.31575,0.40176 0.74486,5.28683 0.9536,10.85575 0.37811,10.0869 1.88863,23.34545 2.93232,25.73824 0.30186,0.69209 0.68727,2.10775 0.85646,3.1459 0.16908,1.03817 0.78784,4.86046 1.37481,8.494 0.58697,3.63354 1.29688,7.1727 1.57755,7.8648 0.76152,1.87773 1.14459,4.90067 1.60716,12.68212 l 0.41727,7.01944 -2.12742,1.13327 c -1.1701,0.62328 -3.82626,1.75077 -5.90255,2.50553 -2.07632,0.75473 -4.62451,1.83602 -5.66266,2.40284 l -1.88755,1.03059 -2.67404,-2.90894 c -1.47071,-1.5999 -2.67404,-3.27593 -2.67404,-3.7245 0,-0.44859 -0.37743,-0.96043 -0.83875,-1.13745 -0.46131,-0.17693 -1.34967,-1.9769 -1.97409,-3.99974 -0.62444,-2.02279 -1.34736,-3.96094 -1.60651,-4.30702 -0.63541,-0.8485 -3.13086,-10.64385 -3.13086,-12.28955 0,-0.72169 0.28313,-1.13717 0.6292,-0.92332 0.34605,0.21379 0.62918,-0.0309 0.62918,-0.54404 0,-1.49958 -1.42807,-7.58733 -1.91243,-8.15252 -0.48435,-0.56518 0.69788,-3.55968 1.40853,-3.56762 0.75521,-0.01 3.43909,3.94915 4.79691,7.07342 0.71438,1.64376 1.59794,2.98862 1.96344,2.98862 1.03865,0 0.80294,-0.72751 -1.22299,-3.7751 -1.03518,-1.55723 -1.88337,-3.21235 -1.88484,-3.67804 -10e-4,-0.46566 -0.40586,-1.5982 -0.89861,-2.51673 -0.49275,-0.91851 -2.09641,-4.21823 -3.5637,-7.33269 -1.46731,-3.11447 -3.18764,-6.41421 -3.823,-7.33275 -0.89428,-1.2929 -1.15586,-2.856 -1.15829,-6.92103 l -0.002,-5.25093 -1.54721,1.88755 c -1.60255,1.95507 -2.18835,6.1639 -0.96329,6.92101 0.34605,0.21379 0.62917,1.31783 0.62917,2.45324 0,1.13541 0.56628,4.27844 1.25838,6.98453 0.76529,2.99224 1.25838,6.9797 1.25838,10.17614 0,2.89077 0.27076,5.7476 0.60168,6.3485 1.32347,2.40309 2.6806,8.92343 3.01141,14.46835 0.19214,3.22072 0.59034,6.00476 0.88488,6.1868 0.29452,0.18192 0.53549,0.9611 0.53549,1.73129 0,0.77019 0.58038,3.05162 1.28974,5.06984 0.70934,2.01825 1.16972,3.7895 1.02307,3.93617 -0.44838,0.44838 -4.8261,-2.37676 -4.88086,-3.14985 -0.0283,-0.39837 -0.45375,0.19595 -0.9456,1.32051 -0.89206,2.03987 -2.88104,2.77632 -3.74084,1.38513 -0.27827,-0.45023 -0.69245,-0.42346 -1.30427,0.0844 -0.56185,0.46628 -1.92144,0.60356 -3.64203,0.36774 -2.24181,-0.30729 -2.95283,-0.1472 -3.87562,0.87247 -1.12331,1.24123 -1.14015,1.23918 -2.78555,-0.33721 -0.91042,-0.87228 -2.25174,-1.58597 -2.98065,-1.58597 -0.72894,0 -2.00574,-0.80864 -2.83738,-1.797 l -1.51207,-1.79697 -0.99116,1.72696 c -0.90999,1.58557 -1.26736,1.71356 -4.36381,1.56296 -4.01471,-0.19524 -7.35852,-0.90646 -7.82718,-1.66476 -0.46799,-0.75721 -4.50575,-0.69136 -4.98325,0.0813 -0.48795,0.78953 -3.8918,0.82924 -4.37275,0.0511 -0.20237,-0.3275 -1.18335,-0.16599 -2.26259,0.3723 -1.46256,0.72962 -2.10976,0.78073 -2.7855,0.21997 -0.6224,-0.51653 -1.23524,-0.54057 -2.09204,-0.082 -0.9738,0.52116 -1.50024,0.34143 -2.68079,-0.91521 -1.18092,-1.25702 -1.56697,-1.38874 -1.96833,-0.67153 -0.27459,0.49068 -1.67375,1.50434 -3.10917,2.25253 l -2.6099,1.36035 -2.31521,-1.86056 -2.31522,-1.86054 -0.71906,1.90505 c -0.57767,1.53043 -0.98981,1.83424 -2.09578,1.54503 -0.98414,-0.25735 -1.72175,0.0787 -2.58692,1.17857 -1.59561,2.02847 -2.55616,1.94082 -4.53776,-0.41418 z m 31.72444,-28.4054 c 4.20044,-2.8549 8.73382,-5.90131 10.0742,-6.76974 3.43405,-2.22502 12.88139,-10.89476 16.98842,-15.59013 1.90328,-2.17594 4.23913,-4.76693 5.19077,-5.75781 0.95163,-0.99084 1.73027,-1.97387 1.73027,-2.18452 0,-0.21069 1.64628,-2.43288 3.65842,-4.93833 2.01211,-2.50544 4.48953,-5.74818 5.50535,-7.20604 1.01582,-1.4579 3.7581,-5.07234 6.09394,-8.03215 2.33585,-2.95977 4.247,-5.63952 4.247,-5.95494 0,-0.31539 0.70781,-1.13025 1.57296,-1.81076 0.86512,-0.68052 1.57294,-1.51678 1.57294,-1.85836 0,-0.34157 3.32683,-3.98156 7.39293,-8.08883 5.66732,-5.72475 8.42093,-8.00251 11.79721,-9.7587 4.84517,-2.52023 4.93114,-2.74105 2.78191,-7.14685 -0.67527,-1.38423 -1.80737,-5.06495 -2.51583,-8.17942 -0.70843,-3.11446 -1.54785,-6.22891 -1.86534,-6.92101 -0.31747,-0.69212 -1.00055,-3.34989 -1.51796,-5.90617 -0.51741,-2.5563 -1.37257,-5.30688 -1.9004,-6.11241 -0.5278,-0.80555 -0.95965,-1.84863 -0.95965,-2.31797 0,-1.83921 -7.7024,-8.7803 -11.56697,-10.42367 l -1.81462,-0.77165 0.42063,3.17085 c 0.27007,2.03595 0.18762,3.17088 -0.2302,3.17088 -0.35796,0 -0.65086,-0.43033 -0.65086,-0.95627 0,-0.52595 -0.70782,-2.07756 -1.57297,-3.44801 -0.86512,-1.37046 -1.57294,-2.77967 -1.57294,-3.13162 0,-1.08799 -4.49134,-5.67573 -5.57859,-5.6983 -0.56531,-0.0119 -2.16039,-0.56842 -3.54458,-1.23702 -3.82778,-1.84896 -4.32479,-1.66386 -5.17814,1.92857 -0.43237,1.82016 -2.04778,5.07809 -3.76669,7.59656 -1.65534,2.42527 -3.29027,4.9576 -3.63323,5.62737 -0.34296,0.66977 -1.12188,1.37592 -1.73094,1.56923 -0.60906,0.19333 -1.38898,0.87768 -1.73319,1.52081 -0.3442,0.64316 -1.86069,2.00277 -3.36999,3.0214 -4.3742,2.95212 -13.5594,7.80359 -14.30426,7.5553 -0.76133,-0.25378 7.53033,-6.16861 8.6474,-6.16861 0.39095,0 0.87378,-0.42471 1.07296,-0.94379 0.19928,-0.51907 0.78478,-0.94376 1.3013,-0.94376 0.51653,0 3.42754,-2.48722 6.46891,-5.52716 4.14952,-4.1476 5.81228,-6.30694 6.66176,-8.65128 0.62261,-1.71827 1.54279,-3.92571 2.04483,-4.90538 0.50207,-0.9797 0.91283,-2.23149 0.91283,-2.78179 0,-1.38731 -1.85417,-3.30178 -3.19777,-3.30178 -1.12597,0 -1.64397,0.57187 -5.58157,6.16204 -1.1951,1.69667 -3.03547,3.69533 -4.08969,4.44148 -1.05425,0.74615 -3.3991,2.61744 -5.21079,4.15839 -1.8117,1.54098 -4.40711,3.10151 -5.7676,3.46787 -1.36049,0.36633 -3.2758,1.08445 -4.25623,1.59582 -1.93511,1.00928 -6.22468,1.2652 -6.75748,0.40314 -0.37665,-0.60948 1.38561,-1.56659 4.81759,-2.61653 3.68486,-1.1273 2.9222,-2.20968 -2.20214,-3.12541 -4.28933,-0.76651 -7.3045,-1.72689 -8.02211,-2.55521 -0.17312,-0.19975 -1.25236,-0.74258 -2.39849,-1.20639 -1.14616,-0.46381 -3.74536,-2.47911 -5.776,-4.47845 -2.78029,-2.73748 -4.01367,-3.5511 -4.99441,-3.29463 -1.81003,0.47335 -1.62826,2.16457 0.58521,5.44429 1.03817,1.53824 1.88755,3.07939 1.88755,3.42475 0,0.34533 0.40055,0.78161 0.89011,0.96947 0.48957,0.18786 1.26818,1.13006 1.73025,2.09375 0.4621,0.96372 1.53468,2.09837 2.38356,2.52149 0.84888,0.42312 1.98142,1.31806 2.51676,1.98873 1.17695,1.47457 7.47875,5.76865 12.05149,8.21199 1.83226,0.97901 3.43964,2.10479 3.57195,2.50173 0.45979,1.37937 -2.40739,0.71053 -4.99762,-1.16583 -1.43314,-1.03817 -2.96432,-1.88755 -3.40264,-1.88755 -0.43831,0 -0.8913,-0.21236 -1.00666,-0.47189 -0.11534,-0.25954 -1.29017,-1.02203 -2.61073,-1.69441 -5.61325,-2.85814 -14.24979,-12.61497 -15.20197,-17.17392 -0.234,-1.12069 -0.66848,-2.18773 -0.96533,-2.37119 -0.29685,-0.18335 -1.90308,0.27942 -3.56941,1.02863 -1.6663,0.7492 -3.59592,1.57839 -4.28802,1.84264 -5.59905,2.13776 -7.29717,3.3166 -8.4224,5.84681 -0.76539,1.72104 -1.0572,3.4701 -0.85563,5.12853 0.38226,3.14536 -0.56081,2.38256 -1.41352,-1.14333 -0.42619,-1.76223 -1.02153,-2.69429 -1.81755,-2.84556 -2.42491,-0.46079 -6.63757,2.76074 -6.66704,5.0985 -0.007,0.61027 -0.27371,1.60124 -0.5911,2.20214 -0.31742,0.6009 -0.9835,3.79308 -1.48018,7.09375 -0.86269,5.733 -1.54409,7.83213 -4.38856,13.51928 -1.08913,2.1776 -1.1726,2.92706 -0.59562,5.34805 1.51572,6.36003 2.05332,8.25865 2.62926,9.28597 0.33294,0.59389 1.02442,2.14555 1.5366,3.44808 1.0088,2.56555 0.93742,2.52456 6.02153,3.45724 2.51161,0.46077 3.58567,0.4392 3.91695,-0.0787 0.29561,-0.46198 1.18257,0.11961 2.51675,1.65011 1.13315,1.29994 2.25094,2.36168 2.48396,2.35944 0.62714,-0.007 -1.2384,-3.51801 -2.36577,-4.45365 -0.92419,-0.767 -2.77679,-3.87964 -2.77679,-4.66539 0,-0.35389 4.69916,4.58649 9.7193,10.21824 2.00367,2.24775 2.25748,2.83062 1.58531,3.64055 -0.66751,0.80432 -0.5234,1.25334 0.86857,2.70624 0.91789,0.95808 1.66887,2.02536 1.66887,2.37176 0,0.34641 0.693,1.56914 1.54001,2.71717 0.84702,1.14807 1.7242,2.97265 1.94931,4.05465 0.22519,1.082 0.76277,2.53354 1.19476,3.22564 0.43199,0.6921 1.29105,2.8156 1.90903,4.71889 1.22782,3.78141 2.08371,5.18917 2.86237,4.70793 0.2774,-0.17145 0.99967,1.03501 1.60512,2.68096 0.60544,1.64595 1.76206,3.89394 2.5703,4.99553 0.80824,1.10157 1.46952,2.30487 1.46952,2.67403 0,0.36914 0.408,0.67115 0.90665,0.67115 0.49867,0 1.08164,0.28313 1.2955,0.6292 0.21378,0.34605 -0.18834,0.62918 -0.89385,0.62918 -0.86739,0 -1.70704,-0.83178 -2.59328,-2.56893 -0.80805,-1.58392 -1.63166,-2.44572 -2.14795,-2.24761 -1.32662,0.50909 -3.39745,-2.20007 -4.48754,-5.87078 -1.03184,-3.47462 -4.6046,-11.11065 -7.82822,-16.73117 -1.62681,-2.83641 -5.52633,-6.9131 -10.18454,-10.64716 -2.25923,-1.81105 -5.51538,-3.39296 -7.95735,-3.86585 -2.00393,-0.38807 -2.09349,-0.3295 -1.67988,1.09879 0.24028,0.82976 1.09356,2.92434 1.89616,4.65461 0.80258,1.73025 1.64971,3.78707 1.88247,4.57072 0.2328,0.78363 0.6618,1.27736 0.95337,1.09715 0.72575,-0.44854 3.04845,3.43712 3.61299,6.04421 l 0.46122,2.12997 0.32655,-2.44636 0.32657,-2.44634 1.40242,2.50845 c 0.88277,1.57898 1.55739,4.17569 1.82061,7.00795 0.22995,2.47471 0.66066,4.49948 0.95701,4.49948 0.72522,0 0.691,-5.88265 -0.0385,-6.63791 -0.31759,-0.32874 -0.76178,-2.01337 -0.98712,-3.74365 l -0.40971,-3.1459 1.30358,1.57294 c 0.71698,0.86515 1.48657,2.28081 1.7102,3.14593 0.22354,0.86512 0.78903,2.13144 1.2565,2.81403 0.46745,0.68259 0.84991,1.88591 0.84991,2.67403 0,0.78813 0.23423,1.43298 0.52043,1.43298 0.28621,0 0.85872,1.91114 1.27221,4.247 1.31505,7.42893 2.21127,10.46067 4.00711,13.55514 1.85214,3.19161 2.13146,4.21932 1.1467,4.21932 -1.8714,0 -5.68813,-7.13651 -5.68813,-10.6357 0,-0.37929 -0.28312,-0.68962 -0.62917,-0.68962 -0.77462,0 -0.82608,1.42122 -0.0808,2.2336 0.90897,0.9909 2.81324,7.82773 2.31723,8.31948 -0.70915,0.70306 -3.24404,-2.83099 -4.11447,-5.73624 -0.42788,-1.42807 -0.92862,-4.79487 -1.11277,-7.48177 -0.18406,-2.68692 -0.57753,-4.88531 -0.87414,-4.88531 -0.29658,0 -0.53926,2.54822 -0.53926,5.66268 0,3.11445 0.21426,5.66266 0.47598,5.66266 0.61239,0 2.04765,4.57945 2.01813,6.43923 -0.0214,1.38156 -0.0678,1.37045 -1.48326,-0.3598 -1.84575,-2.25612 -3.5276,-9.12824 -3.5276,-14.41386 0,-5.86058 -0.71101,-11.79947 -1.41267,-11.79947 -0.37263,0 -0.49902,3.91871 -0.3298,10.22424 0.25744,9.59277 0.37784,10.41854 1.94957,13.37016 1.77814,3.33928 2.07587,4.40835 1.05127,3.7751 -0.99534,-0.61514 -0.73133,0.70492 0.31459,1.57297 0.51908,0.4308 0.94379,1.12785 0.94379,1.54902 0,0.42114 0.70782,1.08825 1.57296,1.48243 0.86513,0.39418 1.57295,1.14744 1.57295,1.67394 0,0.52651 0.35392,0.95529 0.78648,0.95289 0.43256,-0.002 2.34373,1.5261 4.247,3.39667 1.90327,1.87057 5.08853,4.8865 7.07832,6.70207 1.9898,1.81559 3.61782,3.68469 3.61782,4.15356 0,0.46888 0.29202,0.8525 0.64891,0.8525 0.35692,0 0.82465,0.49549 1.03941,1.10107 0.56692,1.59855 2.15677,3.30324 3.08073,3.30324 0.43941,0 4.23565,-2.33586 8.43612,-5.19079 z m -13.17554,-19.94497 c -0.50278,-0.31806 -1.64076,-0.43297 -2.52885,-0.25535 -1.32465,0.26493 -1.99649,-0.15219 -3.73991,-2.32154 -2.12943,-2.64981 -4.45701,-9.57557 -4.45701,-13.26196 0,-0.9546 -0.28312,-1.91066 -0.62917,-2.12452 -0.34605,-0.21378 -0.6292,-0.69916 -0.6292,-1.07843 0,-0.37927 0.53572,-0.20475 1.19046,0.38778 0.65476,0.59253 1.7003,3.04306 2.32344,5.4456 0.62311,2.40251 1.36151,4.36823 1.64086,4.36823 0.27934,0 0.5079,0.37057 0.5079,0.82351 0,0.45294 0.41337,1.37311 0.9186,2.04486 0.82922,1.10249 0.85535,0.98604 0.26872,-1.19712 -0.35742,-1.33015 -0.52302,-2.54527 -0.368,-2.70029 0.15504,-0.15505 1.27716,1.2164 2.49368,3.04762 1.2165,1.83122 2.80911,3.86885 3.53912,4.52806 2.09101,1.88829 1.67453,3.68854 -0.53064,2.29355 z m 0.44224,-3.47295 c -1.41627,-1.94774 -1.39342,-2.42206 0.0787,-1.6342 0.64889,0.34726 1.33021,1.20663 1.51406,1.90969 0.44559,1.70397 -0.23959,1.58545 -1.59278,-0.27549 z m 47.38678,-16.13931 c 0.39275,-0.73386 0.47348,-1.216 0.1793,-1.0714 -0.29407,0.14459 -1.31283,0.65106 -2.26397,1.12552 -0.95111,0.47444 -1.89217,0.69973 -2.09123,0.50067 -0.44303,-0.443 1.16202,-3.64284 3.65509,-7.28682 2.12052,-3.09944 1.86622,-4.1895 -0.46621,-1.9983 -2.41526,2.26901 -1.87074,0.81652 1.2792,-3.41227 4.97349,-6.67691 10.99152,-15.3597 11.01599,-15.8939 0.0119,-0.2835 0.99986,-1.64799 2.19306,-3.03221 l 2.16942,-2.51673 -0.60105,2.13154 c -0.33054,1.17236 -1.0235,2.59839 -1.53984,3.16895 -0.51638,0.57058 -1.37813,2.0888 -1.91506,3.37381 -0.53691,1.28504 -1.25555,2.33643 -1.59696,2.33643 -0.34142,0 -0.62074,0.48773 -0.62074,1.08383 0,0.71968 0.94184,0.0326 2.80314,-2.04483 2.67213,-2.98249 3.89184,-3.30959 1.93768,-0.51965 -0.50699,0.72385 -1.51451,2.98113 -2.23895,5.01617 -0.72444,2.03506 -1.75636,4.50426 -2.2932,5.48709 -0.73024,1.33697 -0.79552,1.96753 -0.25922,2.50382 0.53629,0.53631 1.10256,0.24472 2.2486,-1.15781 2.15009,-2.63133 1.95112,-1.35302 -0.31116,1.99903 -1.03851,1.53879 -2.29653,3.56178 -2.79555,4.49555 -1.14333,2.13922 -6.30649,7.84897 -5.41309,5.9861 1.22547,-2.55528 0.66908,-3.00677 -1.193,-0.96807 -2.13135,2.33353 -2.91453,2.62205 -1.88237,0.69348 z m -35.27497,-12.97481 c -2.69302,-1.34394 -9.07638,-7.90625 -10.40917,-10.70097 -0.53636,-1.12468 -1.21545,-2.04486 -1.50909,-2.04486 -0.29366,0 -1.16199,-1.2033 -1.92964,-2.67403 -4.92224,-9.43054 -7.5964,-15.10164 -7.39952,-15.69225 0.26865,-0.80595 1.51482,1.01463 4.44316,6.49121 1.17936,2.20564 3.08227,5.70906 4.22869,7.78538 1.14642,2.07629 2.48373,4.55371 2.97179,5.50535 0.48804,0.95166 1.14975,1.73027 1.47047,1.73027 0.3207,0 0.5879,0.35392 0.59377,0.78648 0.0167,1.30404 5.55774,6.79634 7.55925,7.49407 1.0273,0.35811 1.86784,0.90657 1.86784,1.21876 0,1.08188 3.27567,0.56097 5.25095,-0.835 l 1.98467,-1.40262 -1.01586,1.55991 c -1.29274,1.98512 -4.97984,2.33906 -8.10731,0.7783 z m 34.91974,-2.67889 c 0.21378,-0.34605 0.5137,-0.62917 0.66632,-0.62917 0.15267,0 0.27744,0.28312 0.27744,0.62917 0,0.34608 -0.29984,0.6292 -0.66632,0.6292 -0.36647,0 -0.49132,-0.28312 -0.27744,-0.6292 z m 1.15707,-2.16507 c 0.19143,-0.49867 1.77888,-2.87407 3.52782,-5.27865 1.74896,-2.40458 3.17991,-4.56651 3.17991,-4.80432 0,-0.2378 1.13253,-2.01392 2.51673,-3.94694 1.38422,-1.93302 2.51675,-3.3629 2.51675,-3.17753 0,1.11665 -2.8974,6.50146 -5.62654,10.45698 -1.75012,2.53657 -3.18205,4.82853 -3.18205,5.09325 0,0.60442 -2.13296,2.56393 -2.79089,2.56393 -0.26931,0 -0.33309,-0.40802 -0.14173,-0.90672 z m 1.05275,-4.93324 c 0.52328,-0.42158 1.3125,-1.58167 1.75381,-2.57804 0.44129,-0.99637 0.94546,-1.66847 1.12036,-1.49356 0.61916,0.61914 -1.87138,4.87777 -2.84109,4.85808 -0.87526,-0.0167 -0.87892,-0.10511 -0.0331,-0.78648 z m 4.49037,-6.73598 c 0.76439,-1.03392 1.50333,-1.7663 1.64207,-1.62757 0.38536,0.38536 -1.80102,3.50737 -2.45621,3.50737 -0.31661,0 0.0497,-0.84591 0.81414,-1.8798 z m -30.28708,0.25442 c -0.005,-0.37489 0.834,-1.50743 1.86254,-2.51675 1.02854,-1.00933 1.87794,-2.02543 1.88755,-2.25803 0.01,-0.23257 1.83664,-2.83488 4.06007,-5.78284 2.2234,-2.94798 4.52073,-6.36762 5.10515,-7.5992 0.58442,-1.2316 1.31348,-2.23926 1.6201,-2.23926 0.67612,0 0.74907,1.69755 0.0856,1.99242 -0.25954,0.11534 -1.11185,1.48384 -1.89405,3.04106 -0.7822,1.55722 -2.01884,3.82229 -2.74811,5.03348 -1.58048,2.62488 -9.96801,11.30684 -9.97883,10.32912 z m 27.70376,-1.83514 c 0.83566,-1.3842 2.8702,-4.32683 4.52119,-6.53917 1.65101,-2.21237 3.00184,-4.38992 3.00184,-4.83906 0,-0.44914 0.25674,-0.97525 0.57052,-1.16918 0.96055,-0.59367 -0.0585,2.35191 -1.61601,4.67136 -0.80919,1.20502 -1.47124,2.52472 -1.47124,2.93269 0,0.408 -0.8494,1.45652 -1.88755,2.33008 -1.03817,0.87354 -1.88755,1.8458 -1.88755,2.16055 0,0.31476 -0.61888,1.11166 -1.37528,1.77089 -1.31937,1.14987 -1.31352,1.09631 0.14411,-1.31816 z m -69.94359,-2.70134 c -4.06879,-4.5276 -6.35944,-8.07135 -6.05404,-9.36592 0.22615,-0.95832 0.38144,-0.87675 0.95028,0.49884 0.37402,0.90445 1.1264,1.81573 1.67201,2.02509 0.54557,0.20927 0.99197,0.6966 0.99197,1.08274 0,0.38614 1.31823,2.37999 2.92944,4.43077 3.60826,4.59274 3.26958,5.51161 -0.48966,1.32848 z m 74.67573,0.31476 c 0.23638,-0.6205 0.58811,-0.96971 0.78182,-0.77597 0.19381,0.19381 4.1e-4,0.70139 -0.42958,1.1282 -0.6214,0.61676 -0.69367,0.5445 -0.35224,-0.35223 z m -5.61355,-0.79462 c 0.25207,-0.67269 1.53834,-2.81467 2.8584,-4.75993 2.27753,-3.35618 3.39277,-6.00752 1.44284,-3.43011 -0.50449,0.66685 -1.09184,1.03787 -1.30522,0.82449 -0.21331,-0.21331 0.72368,-2.03307 2.08234,-4.04376 1.35863,-2.01071 3.43279,-5.12734 4.60919,-6.92583 1.17643,-1.7985 2.25674,-3.15224 2.40071,-3.00827 0.14387,0.14387 -0.23115,1.01403 -0.83362,1.9335 -0.72417,1.1052 -0.86921,1.81152 -0.42797,2.08423 0.9582,0.59218 -2.02407,6.47307 -5.6862,11.21291 -1.66533,2.15539 -3.02786,4.16423 -3.02786,4.46407 0,0.29984 -0.57845,1.06866 -1.28546,1.70849 -1.2537,1.13457 -1.27412,1.1331 -0.82715,-0.0597 z m -68.72564,-3.59573 c -3.01916,-3.22207 -5.09964,-6.15988 -5.9544,-8.40808 -0.55879,-1.46969 -0.5186,-1.57736 0.32672,-0.87582 0.53008,0.43995 0.96381,1.0355 0.96381,1.32343 0,0.28796 0.63705,1.21581 1.41566,2.06189 2.3374,2.53994 6.29766,8.00325 6.00994,8.29097 -0.14767,0.14767 -1.39045,-0.92891 -2.76173,-2.39239 z m 102.44586,-8.32349 c -0.0119,-3.11447 0.2038,-6.37048 0.48077,-7.23563 0.49491,-1.54528 0.50502,-1.53977 0.5761,0.31461 0.0544,1.42239 0.21663,1.65946 0.65771,0.96198 0.93344,-1.47601 1.02576,-0.68484 0.62185,5.32986 -0.20903,3.11447 -0.42909,5.16717 -0.48878,4.56159 -0.15552,-1.57746 -1.22953,-1.35975 -1.55201,0.31459 -0.15006,0.77861 -0.28301,-1.13254 -0.29564,-4.247 z m -104.50927,1.88679 c -1.08421,-1.23484 -1.97129,-2.66001 -1.97129,-3.16705 0,-0.50704 -0.27932,-0.92189 -0.62073,-0.92189 -0.87309,0 -2.61242,-4.39657 -2.22378,-5.62111 0.17692,-0.55781 0.0583,-1.93333 -0.26391,-3.05673 -0.36344,-1.2672 -0.36232,-1.90444 0.002,-1.67872 0.32382,0.20023 0.58875,0.74009 0.58875,1.19993 0,0.45981 0.93942,2.2127 2.08757,3.89527 2.27068,3.32756 3.31589,5.56428 2.30954,4.94233 -1.17168,-0.72413 -0.62238,1.28472 1.0069,3.68243 2.13439,3.14101 1.58614,3.57529 -0.91597,0.72554 z m 108.86597,-0.22544 c -0.87877,-2.9331 -0.92771,-4.05992 -0.15552,-3.58272 0.62225,0.38457 1.61463,5.29012 1.1618,5.74296 -0.15195,0.15196 -0.60475,-0.82018 -1.00623,-2.16024 z m -34.37158,-3.3288 c 0.26743,-0.46709 0.82481,-1.27395 1.23866,-1.79305 0.41384,-0.51907 0.92262,-1.42484 1.13063,-2.0128 0.284,-0.80282 0.12009,-0.96997 -0.65848,-0.67122 -0.82603,0.31696 -0.75937,0.01 0.32805,-1.51875 0.75058,-1.05408 1.19315,-2.08806 0.98346,-2.29773 -0.579,-0.57903 1.64425,-3.6608 2.33362,-3.23475 0.33083,0.20451 0.60154,0.072 0.60154,-0.29455 0,-0.36647 0.42469,-0.66632 0.94377,-0.66632 1.35138,0 1.19184,0.86665 -1.02586,5.5727 -2.11529,4.4888 -3.3077,6.1313 -5.17759,7.13204 -0.92828,0.49679 -1.079,0.45023 -0.6978,-0.21545 z m -76.98556,-12.71983 c -0.75221,-1.50617 -1.36432,-3.13219 -1.36025,-3.61336 0.005,-0.48119 0.73464,0.63605 1.62345,2.48273 0.88881,1.8467 1.50091,3.47269 1.36025,3.61337 -0.14078,0.14078 -0.87121,-0.97655 -1.62345,-2.48274 z m -1.70813,0.81799 c -0.22805,-0.36907 -0.2798,-0.80599 -0.11486,-0.97092 0.1648,-0.1648 0.46752,0.13697 0.67243,0.67105 0.42546,1.10868 0.0628,1.3037 -0.55757,0.29987 z m -1.00647,58.0841 c 0.0751,-7.35039 -0.31457,-11.48293 -1.08252,-11.48224 -0.22116,1.9e-4 -0.38213,3.04386 -0.35799,6.76373 0.0647,9.95415 0.21022,12.11144 0.81787,12.11144 0.30094,0 0.58112,-3.32683 0.62264,-7.39293 z m -35.95264,-14.46257 c -0.14458,-0.95641 -0.26681,-0.32324 -0.27152,1.407 -0.005,1.73025 0.11367,2.51276 0.26294,1.73891 0.14934,-0.77386 0.15314,-2.18952 0.01,-3.14591 z m -4.73297,-44.52504 c -0.40186,-2.82941 -0.61943,-3.16429 -2.17225,-3.34342 -0.94911,-0.10963 -1.7214,-0.10963 -1.71619,0 0.005,0.10939 0.36754,1.19005 0.80519,2.40123 2.11249,5.84641 3.85546,6.37901 3.08325,0.94219 z m 26.20494,1.73184 c 0.37611,-0.95163 0.87421,-2.57965 1.10685,-3.6178 0.23257,-1.03817 0.70558,-2.24604 1.05092,-2.68419 0.34534,-0.43815 1.15244,-3.69418 1.79355,-7.23562 0.64109,-3.54144 1.48526,-7.14683 1.8759,-8.01195 1.69467,-3.75311 2.43749,-4.7735 4.12235,-5.66266 0.98359,-0.51908 1.87537,-1.13413 1.98177,-1.36679 0.10629,-0.23257 1.59284,-0.78166 3.30323,-1.22002 1.71037,-0.43837 3.10976,-1.15822 3.10976,-1.5997 0,-1.01073 1.36156,-1.69966 5.34807,-2.70609 1.73027,-0.43681 4.03812,-1.18817 5.12858,-1.6697 1.09044,-0.4815 2.40297,-0.87547 2.91669,-0.87547 0.51375,0 1.74504,-0.42295 2.73624,-0.93991 2.04834,-1.06825 5.2627,-1.26278 5.2627,-0.31846 0,1.43917 2.57014,0.56226 3.22712,-1.10107 0.37585,-0.95164 0.93606,-2.22188 1.24487,-2.82278 0.30881,-0.60091 0.56147,-3.21989 0.56147,-5.81997 0,-5.19136 -0.83264,-6.11653 -2.80104,-3.11235 -0.7789,1.18872 -1.26699,1.44182 -1.84905,0.95874 -0.55432,-0.46005 -1.01214,-0.43501 -1.53088,0.0837 -0.56728,0.56728 -0.74004,0.43485 -0.74004,-0.56732 0,-1.58952 1.72397,-5.86341 2.36789,-5.87024 0.80025,-0.01 2.03639,-3.30316 2.03639,-5.42764 0,-1.11964 -0.27157,-2.75001 -0.60349,-3.62303 -0.49677,-1.3066 -0.94034,-1.54464 -2.50855,-1.34617 -1.0478,0.13269 -2.06702,-0.0214 -2.26497,-0.34123 -0.62066,-1.00423 -1.54402,-0.63519 -1.54402,0.61712 0,0.89076 -0.32472,1.11456 -1.26171,0.86953 -0.69395,-0.18145 -1.61413,-0.0461 -2.04486,0.30084 -0.4307,0.34693 -1.7033,0.82755 -2.82796,1.06802 -1.92142,0.41085 -2.04486,0.33168 -2.04486,-1.31155 0,-1.36016 -0.16789,-1.58101 -0.75502,-0.99375 -1.12409,1.12409 -1.88603,0.91259 -1.24663,-0.34605 0.7564,-1.48898 1.88287,-9.33799 2.2917,-15.9681 0.18406,-2.98607 0.7587,-6.24211 1.27685,-7.23562 0.51815,-0.99351 0.94384,-1.98645 0.94595,-2.20654 0.002,-0.21997 -7.85305,-0.36167 -17.45597,-0.31459 -20.09469,0.0984 -20.01046,0.11557 -25.4308,-5.13046 -3.85273,-3.72875 -5.20622,-3.94901 -5.95418,-0.9689 -0.23933,0.95359 -0.11415,3.26422 0.2782,5.13474 0.47102,2.24549 0.50559,3.78919 0.10178,4.54366 -0.33634,0.62849 -0.61153,1.95407 -0.61153,2.94577 0,0.99168 -0.3348,2.13787 -0.74399,2.54705 -0.89991,0.89992 -0.91175,13.04028 -0.0143,14.17095 0.32835,0.41347 0.96954,6.20207 1.42488,12.86357 l 0.82788,12.1118 h 2.01868 c 1.52698,0 2.49921,0.5473 3.99151,2.24694 1.71048,1.94815 1.91742,2.55473 1.55605,4.56159 -0.22924,1.27305 -0.94611,3.42958 -1.59305,4.79226 -1.30846,2.756 -1.49511,4.4867 -0.54712,5.0726 0.34605,0.21378 0.6292,2.21251 0.6292,4.44142 0,2.28226 -0.27487,4.05255 -0.6292,4.05255 -0.92842,0 -0.72643,5.79645 0.24668,7.07834 0.45972,0.60559 1.59726,1.10107 2.5279,1.10107 2.73889,0 5.87079,3.54149 6.72152,7.60056 0.39311,1.87559 0.81504,3.76407 0.93763,4.19663 0.37428,1.32052 1.33096,0.88049 2.05197,-0.94376 z m -13.58676,-3.54988 c 1.20622,-0.91566 1.50521,-4.67438 0.51909,-6.5256 -0.3201,-0.6009 -0.85235,-2.36665 -1.18282,-3.92387 -0.59608,-2.80894 -0.60143,-2.81363 -0.67638,-0.59215 -0.0416,1.23155 -0.49125,2.7888 -0.99932,3.46052 -1.13574,1.50157 -1.23788,5.5184 -0.18334,7.20711 0.91166,1.45984 1.06276,1.48222 2.52267,0.37399 z m -14.61203,-4.18705 c 4.40452,-0.54409 5.91109,-1.04096 8.66458,-2.85755 3.2181,-2.12312 4.48144,-3.66493 3.66885,-4.47752 -0.40179,-0.40179 -4.90578,0.75989 -6.83604,1.76315 -1.70478,0.8861 -5.27714,0.66749 -6.14307,-0.37591 -0.63141,-0.76078 -0.61584,-0.94802 0.0801,-0.96572 3.69318,-0.0939 10.95813,-1.96776 12.21812,-3.15149 1.39604,-1.3115 1.44928,-2.9223 0.12604,-3.8143 -0.57732,-0.38918 -4.50114,0.74228 -5.28192,1.52305 -0.70132,0.70133 -6.40191,0.4913 -6.8618,-0.2528 -0.71892,-1.16324 0.4967,-1.67334 4.97313,-2.08693 4.347,-0.40162 6.10014,-0.99682 8.11632,-2.75551 1.74414,-1.52133 1.31854,-1.85994 -1.94384,-1.54647 -2.70999,0.26039 -3.18711,0.11177 -4.33755,-1.35071 -1.11893,-1.42249 -1.76661,-1.64331 -4.81989,-1.64331 -1.93999,0 -3.52725,-0.28315 -3.52725,-0.6292 0,-0.34605 0.50964,-0.62918 1.13254,-0.62918 0.62289,0 1.40151,-0.26294 1.73024,-0.58432 0.32876,-0.32139 1.58871,-0.67529 2.79988,-0.78649 1.96363,-0.18025 2.26528,-0.45769 2.785,-2.5616 0.32058,-1.29769 0.83276,-2.35942 1.13821,-2.35942 0.30543,0 0.38037,-0.28315 0.16646,-0.6292 -0.49037,-0.79343 -2.51161,-0.81198 -3.94095,-0.0362 -0.60087,0.32615 -3.4798,0.86838 -6.39761,1.20497 -6.14582,0.70896 -7.92054,2.03965 -7.25205,5.43765 0.20427,1.03815 0.43948,3.86949 0.52276,6.29183 0.0832,2.42237 0.25254,4.68744 0.37615,5.03349 0.12366,0.34605 -0.005,1.45052 -0.2851,2.4544 -0.32614,1.16758 -0.24165,2.25467 0.23448,3.01716 0.44402,0.711 0.57933,2.07178 0.33532,3.37246 -0.44795,2.38779 0.45083,4.05426 2.18657,4.05426 0.57229,0 3.43973,-0.29637 6.37209,-0.65862 z m 98.8508,-19.00523 c 0.81818,-0.43356 2.31305,-1.4953 3.32197,-2.35942 1.0089,-0.86415 2.80576,-2.40304 3.99298,-3.41978 1.18723,-1.01673 2.42168,-2.54063 2.74326,-3.3864 0.51097,-1.34396 0.26539,-1.81108 -1.94814,-3.70579 -1.39302,-1.19238 -2.53278,-2.5797 -2.53278,-3.08293 0,-0.50321 -0.44433,-1.9676 -0.98738,-3.25418 l -0.98738,-2.33923 -0.83,1.95014 c -1.25233,2.94254 -4.29715,4.46604 -10.60271,5.30515 -6.88959,0.91684 -9.11349,0.51486 -12.41585,-2.24419 -1.43497,-1.19888 -2.86,-2.17979 -3.16671,-2.17979 -0.58148,0 -0.90565,1.1717 -1.45775,5.26882 -0.18073,1.3406 -0.76527,2.92013 -1.29914,3.51005 -0.53386,0.58991 -0.97066,1.23835 -0.97066,1.44096 0,0.4396 5.46609,3.93981 9.43777,6.04345 5.35553,2.83664 14.56936,4.11347 17.70252,2.45314 z m -12.39911,-3.28124 c -0.5596,-0.85404 -0.86831,-1.91578 -0.68604,-2.35944 0.21664,-0.52733 0.46897,-0.36013 0.72875,0.48292 0.21854,0.70925 0.95682,1.63896 1.64064,2.066 1.10897,0.69255 1.31523,0.5702 1.90872,-1.13224 0.6346,-1.8204 1.80063,-2.63466 1.80063,-1.25741 0,1.32761 -2.07044,3.75297 -3.20376,3.75297 -0.64432,0 -1.62935,-0.69876 -2.18894,-1.5528 z m -75.8856,1.07449 c 0.11058,-0.77507 0.64073,-1.40924 1.17812,-1.40924 0.79716,0 0.83283,0.17383 0.1938,0.94379 -0.56599,0.68199 -0.58147,0.94376 -0.0559,0.94376 1.35157,0 5.05581,-7.44831 5.07981,-10.21431 0.005,-0.60014 -0.82147,-2.0158 -1.83707,-3.14593 -1.82387,-2.02952 -1.86834,-2.04174 -3.61782,-0.99444 -1.39428,0.83464 -1.87189,1.70504 -2.24409,4.0897 -0.26006,1.66616 -0.76513,3.53638 -1.12238,4.15604 -0.35725,0.61966 -0.4948,1.37706 -0.30565,1.68311 0.18905,0.30603 0.0167,1.2771 -0.38578,2.15791 -0.56987,1.25072 -0.54985,1.81817 0.0913,2.59088 1.12221,1.35217 2.78091,0.9129 3.02546,-0.80127 z m -1.84592,-12.6002 c 0.65912,-1.2316 -0.20617,-10.86834 -1.17024,-13.03264 -0.52923,-1.18808 -0.81148,-3.99572 -1.67613,-16.67337 -0.2007,-2.94144 -0.58891,-5.58891 -0.86289,-5.88329 -0.57098,-0.6135 -4.89522,0.70404 -6.24834,1.9038 -1.2344,1.0945 -0.44264,1.72387 1.11796,0.88866 1.10846,-0.59324 1.3134,-0.44726 1.67346,1.19206 0.22567,1.02742 0.24001,2.14359 0.0319,2.48032 -0.20807,0.33675 -0.048,1.92441 0.35583,3.52815 0.50366,2.00027 0.90117,2.65249 1.26591,2.07712 0.3402,-0.53669 0.53517,0.0866 0.54133,1.73042 0.005,1.41304 0.19904,2.75864 0.43071,2.99021 0.81939,0.81942 0.87582,4.96139 0.0806,5.91954 -0.57049,0.68741 -0.74221,2.79895 -0.58944,7.24853 0.15314,4.45891 0.0143,6.15444 -0.47753,5.85024 -0.3812,-0.23566 -0.6931,-0.12841 -0.6931,0.23795 0,0.36947 1.25148,0.66632 2.8092,0.66632 2.05332,0 2.97105,-0.30244 3.41075,-1.12402 z m 85.79724,-2.68388 c 3.76295,-1.04502 5.4893,-2.96382 6.48845,-7.21173 1.28658,-5.47001 1.15474,-7.05582 -0.73205,-8.80442 -1.38408,-1.28273 -2.38226,-1.54588 -6.44914,-1.70022 l -4.81159,-0.18263 -0.19548,-2.02324 c -0.16812,-1.73914 0.0399,-2.08239 1.48179,-2.44425 2.83617,-0.71183 9.6536,0.23138 11.95557,1.65406 l 2.12569,1.31376 0.99232,-2.08148 c 0.54578,-1.14483 1.61822,-3.21404 2.3832,-4.59824 1.28994,-2.33412 1.38023,-3.23077 1.24423,-12.3574 -0.0806,-5.41235 -0.41242,-10.53971 -0.73726,-11.39411 -0.39677,-1.04355 -1.25217,-1.68578 -2.60604,-1.95657 -2.54446,-0.50887 -21.66788,-0.39078 -24.19416,0.14934 -2.10381,0.44988 -2.31168,1.54155 -0.35207,1.84906 1.22321,0.1919 3.81258,2.87669 3.81258,3.953 0,1.17919 -2.30656,1.75308 -3.84273,0.95608 -2.89042,-1.49955 -4.36992,-1.56252 -7.20868,-0.30681 -1.54284,0.68247 -3.08503,1.0679 -3.42709,0.85649 -1.03303,-0.63845 -0.70311,-2.34475 0.75312,-3.89484 l 1.37507,-1.46367 -2.47614,0.85495 -2.47611,0.85492 -0.36113,5.63981 c -0.19856,3.10186 -0.5586,5.95936 -0.80001,6.34995 -0.82881,1.34104 0.37539,5.79324 2.46353,9.10824 4.4941,7.13459 4.77476,7.40946 7.13306,6.98627 1.17898,-0.21164 2.87776,-0.76774 3.77511,-1.236 0.8973,-0.46823 2.69322,-0.85309 3.99093,-0.85523 2.21422,-0.005 2.35943,0.11486 2.35943,1.92505 0,3.50568 -0.9164,4.36293 -4.66397,4.36293 -4.28688,0 -4.96585,0.76653 -4.40744,4.97594 0.34179,2.57651 0.2461,3.20345 -0.48892,3.20345 -0.51087,0 -1.22563,-1.04045 -1.62086,-2.35945 -0.70035,-2.33726 -0.70542,-2.32615 -0.5375,1.18097 0.19,3.97042 1.84555,6.67694 5.11226,8.35793 2.22357,1.14419 11.29978,1.34948 14.9421,0.33797 z m -8.93594,-5.57584 c -0.39396,-0.73612 -0.54492,-1.61567 -0.33546,-1.95459 0.47027,-0.76092 6.39673,-0.82232 6.86101,-0.0711 0.51803,0.83818 -1.69336,2.54091 -3.86371,2.975 -1.57175,0.31435 -2.08314,0.13198 -2.66184,-0.94933 z m -6.32075,-5.56535 c 0,-1.30477 3.0891,-2.24373 7.03778,-2.1392 2.31352,0.0614 4.38295,-0.1743 4.5987,-0.52335 0.7195,-1.16416 4.62295,-0.73766 5.32936,0.58231 1.07662,2.01168 0.74344,2.23481 -0.95477,0.6394 -1.3044,-1.2254 -1.70837,-1.34337 -2.15052,-0.62799 -0.39351,0.63672 -1.99737,0.88907 -5.78681,0.91054 -3.36176,0.019 -5.54067,0.31785 -6.07385,0.83293 -0.92134,0.89007 -1.99989,1.06557 -1.99989,0.32536 z m 6.95202,-13.64146 c -0.41375,-0.49853 -1.4816,-0.99401 -2.37302,-1.10107 -2.44934,-0.29414 -3.08784,-1.80606 -2.06788,-4.89656 0.47392,-1.43597 1.3769,-2.88658 2.0066,-3.22359 1.57527,-0.84306 1.48854,0.27608 -0.19809,2.55751 -1.62555,2.19869 -1.28727,3.33229 1.39349,4.66964 2.79884,1.39623 3.77199,1.28202 6.11161,-0.7173 2.183,-1.86551 2.21377,-1.45404 -0.44008,-5.88512 -0.87532,-1.46151 -0.86883,-1.46648 0.62271,-0.47613 1.56134,1.03667 2.87122,4.86428 2.23346,6.52631 -0.19761,0.51479 -0.89045,0.93601 -1.53979,0.93601 -0.64932,0 -1.69306,0.56625 -2.3194,1.25838 -1.34675,1.48811 -2.39712,1.59591 -3.42951,0.35192 z m -12.92929,-12.13254 c -3.79679,-0.93328 -3.22607,-3.37322 1.28865,-5.50901 3.5672,-1.68757 5.4197,-1.53535 7.18378,0.59024 0.78473,0.94553 0.70466,1.00726 -0.81233,0.62652 -1.50217,-0.37701 -1.68283,-0.24615 -1.68283,1.2188 0,0.90265 0.0243,1.82188 0.0538,2.04272 0.16384,1.22475 -3.02468,1.7697 -6.03099,1.03073 z m 23.52185,-0.56295 c -0.04,-0.3051 -0.11058,-0.97943 -0.15719,-1.49851 -0.0573,-0.6393 -0.64292,-0.88533 -1.81497,-0.76265 -2.02391,0.21188 -2.17582,-0.43523 -0.56826,-2.42047 0.92406,-1.14119 1.72861,-1.4128 3.92937,-1.32658 3.1168,0.12223 6.87326,1.66405 6.84337,2.80897 -0.0326,1.24948 -3.05991,3.06997 -5.69207,3.42301 -1.35716,0.18192 -2.50023,0.0813 -2.54013,-0.22377 z m 5.00885,-2.40957 c 0.13911,-0.71728 -0.0878,-1.01982 -0.6292,-0.83952 -0.4656,0.15505 -0.94439,0.78653 -1.06395,1.4033 -0.13912,0.71728 0.0877,1.01981 0.6292,0.83951 0.46559,-0.15505 0.94438,-0.78653 1.06395,-1.40329 z m -9.66423,-6.0513 c -0.52616,-2.3955 0.71543,-3.73375 3.46401,-3.73375 0.9028,0 1.9755,-0.33404 2.38376,-0.74233 0.84355,-0.84355 3.18314,0.0847 5.64392,2.239 2.54215,2.22564 1.86646,3.21996 -2.20186,3.24017 -1.98995,0.01 -4.79199,0.25372 -6.22677,0.54186 -2.58344,0.51879 -2.61307,0.50385 -3.06306,-1.54495 z m -89.64969,39.36535 c 0,-4.50073 -0.89878,-4.50049 -1.09339,3.1e-4 -0.0847,1.95987 0.11985,3.46021 0.47187,3.46021 0.34184,0 0.62152,-1.55722 0.62152,-3.46052 z m -0.19548,-10.22422 c -0.15837,-0.60561 -0.28774,-0.1101 -0.28774,1.10107 0,1.21117 0.12937,1.70666 0.28774,1.10107 0.15838,-0.60559 0.15838,-1.59655 0,-2.20214 z m -7.98391,-13.37018 c 0,-0.34605 -0.28313,-0.62917 -0.62918,-0.62917 -0.34607,0 -0.6292,0.28312 -0.6292,0.62917 0,0.34605 0.28313,0.62918 0.6292,0.62918 0.34605,0 0.62918,-0.28313 0.62918,-0.62918 z m 69.01709,-6.75177 c -0.15956,-0.61217 -0.30053,-0.26365 -0.31335,0.77453 -0.0119,1.03814 0.11771,1.539 0.29005,1.11303 0.1724,-0.42598 0.18287,-1.27538 0.0238,-1.88756 z m 49.64982,1.2464 c 0.18738,-0.60559 0.60325,-1.59271 0.92402,-2.19361 1.03166,-1.93247 0.68009,-2.99716 -0.98971,-2.99716 -1.46809,0 -1.57294,0.20974 -1.57294,3.14593 0,3.06862 0.95352,4.25853 1.63863,2.04484 z m -107.75611,-2.60907 c 2.09069,-2.09066 0.87281,-2.09894 -3.10386,-0.0214 l -3.71725,1.94231 2.76638,-0.31641 c 1.60792,-0.18383 3.30587,-0.85597 4.05473,-1.60484 z m -2.73631,-3.05359 c -0.007,-0.69619 -3.17454,-2.04484 -4.80229,-2.04484 -1.72619,0 -2.59212,1.19824 -1.40796,1.94827 1.06103,0.67205 6.21707,0.75223 6.21025,0.0965 z m 3.66296,-4.71887 c 0.18382,-0.96686 -0.35236,-1.10212 -4.39841,-1.10966 -2.53424,-0.005 -5.24477,-0.1793 -6.02338,-0.388 -0.99958,-0.26786 -1.41566,-0.10677 -1.41566,0.5484 0,1.18442 4.3073,2.27343 8.4881,2.14602 2.44475,-0.0744 3.18636,-0.33949 3.34935,-1.19676 z m 1.96714,-2.76719 c 0.15243,-0.1384 -0.19309,-0.72168 -0.76791,-1.29645 -0.90757,-0.90759 -1.2544,-0.93301 -2.63658,-0.19333 -1.86365,0.99741 -2.0275,1.69415 -0.49044,2.08576 1.06033,0.27015 3.32157,-0.0759 3.89493,-0.596 z m 21.7702,-0.89249 c 0.50131,-0.81114 -1.48293,-2.42703 -3.0145,-2.45485 -1.51758,-0.0276 -1.37911,0.97225 0.29728,2.14644 1.64963,1.15546 2.15805,1.21315 2.71722,0.30841 z m 6.58055,-0.58732 c 0,-0.34605 -0.40155,-0.62918 -0.8923,-0.62918 -0.49078,0 -1.34019,-0.17193 -1.88756,-0.38191 -0.6531,-0.25062 -0.99525,-0.0342 -0.99525,0.62918 0,0.70398 0.57334,1.01111 1.88756,1.01111 1.03814,0 1.88755,-0.28315 1.88755,-0.6292 z m -1.57297,-2.51673 c -0.21378,-0.34605 -0.65528,-0.62918 -0.9809,-0.62918 -0.32563,0 -0.59206,0.28313 -0.59206,0.62918 0,0.34605 0.44143,0.62917 0.98093,0.62917 0.53948,0 0.80591,-0.28312 0.59203,-0.62917 z m 23.59443,0 c 0,-0.34605 -0.56628,-0.62918 -1.25838,-0.62918 -0.6921,0 -1.25837,0.28313 -1.25837,0.62918 0,0.34605 0.56627,0.62917 1.25837,0.62917 0.6921,0 1.25838,-0.28312 1.25838,-0.62917 z m -53.60175,-1.64088 c 1.62383,-0.90249 3.16938,-1.77146 3.43455,-1.93103 0.2652,-0.15956 0.32805,-0.5395 0.13983,-0.84427 -0.18834,-0.30474 -1.2945,0.007 -2.45809,0.69415 -1.16359,0.68653 -3.63307,1.41906 -5.48776,1.62782 -1.85468,0.20879 -3.72604,0.65848 -4.15863,0.99934 -0.52842,0.41642 -1.09615,0.36275 -1.73025,-0.16361 -0.77295,-0.64149 -0.94376,-0.5985 -0.94376,0.23757 0,0.83785 0.73949,1.02081 4.12591,1.02081 3.27232,0 4.73671,-0.33946 7.07832,-1.64088 z m 61.50303,-0.71857 c -0.69586,-3.92621 -1.01356,-4.56159 -2.28102,-4.56159 -1.78299,0 -1.56474,2.63489 0.41292,4.98521 0.89589,1.06471 1.77681,1.93583 1.95756,1.93583 0.18073,0 0.14054,-1.06177 -0.0894,-2.35945 z m -11.335,0 c -0.23328,-0.95164 -0.81987,-2.13444 -1.30346,-2.62845 -1.38957,-1.41951 -1.93255,0.85697 -0.66556,2.79061 1.39449,2.12828 2.50807,2.03658 1.96902,-0.16218 z m 19.16332,1.46712 c 0,-0.94771 -0.85385,-2.18902 -1.31129,-1.90629 -0.30265,0.18691 -1.12238,0.034 -1.82163,-0.34035 -1.66019,-0.88852 -1.61615,-0.3772 0.10558,1.2269 1.21636,1.13319 3.02729,1.74323 3.02729,1.01974 z m 2.87032,-2.00764 c -0.20856,-0.83065 -0.0975,-1.50432 0.24788,-1.50432 0.35937,0 0.46486,-0.80301 0.24793,-1.88755 -0.21735,-1.08637 -0.11152,-1.88755 0.24905,-1.88755 0.34463,0 0.81878,-1.69881 1.05368,-3.77511 0.47396,-4.18936 1.62298,-5.14672 1.62298,-1.35226 0,4.10232 1.86634,8.0066 2.67658,5.59924 0.20641,-0.61315 0.49527,-0.59617 1.31081,0.077 0.79166,0.6535 1.25623,0.68912 1.91012,0.14648 0.47522,-0.39439 1.3246,-0.54033 1.88755,-0.32431 0.76439,0.29333 1.02838,0.0166 1.04267,-1.09023 0.0166,-1.31031 0.0937,-1.35478 0.66044,-0.38191 0.35271,0.60561 1.05195,1.1011 1.55383,1.1011 0.50188,0 0.91251,0.40561 0.91251,0.90136 0,1.48705 2.60653,1.94589 3.56986,0.62844 0.6312,-0.86322 0.84653,-0.92032 0.8841,-0.23447 0.0273,0.49869 0.33404,0.12817 0.68161,-0.82354 0.76668,-2.09917 1.63202,-2.21284 2.39503,-0.31458 0.31297,0.77861 0.58696,1.06176 0.60891,0.62917 0.0214,-0.43256 0.25971,-0.78646 0.5284,-0.78646 0.26867,0 0.39703,1.20331 0.28527,2.67402 l -0.20332,2.67403 1.272,-1.466 c 2.34594,-2.70369 3.31272,-8.23656 1.46067,-8.35933 -1.04863,-0.0694 -1.04863,-0.0868 0,-0.36073 0.77845,-0.20355 1.10107,-0.91948 1.10107,-2.44374 v -2.15601 h 3.14593 c 3.07602,0 3.14593,-0.0419 3.14593,-1.88758 0,-1.3504 -0.31335,-1.90831 -1.10109,-1.96053 -1.04864,-0.0694 -1.04864,-0.0868 0,-0.36072 0.60561,-0.15838 1.10109,-0.54015 1.10109,-0.84865 0,-1.14513 -2.55373,-1.86356 -6.62411,-1.86356 h -4.19012 l 0.41915,3.30322 c 0.23043,1.81678 0.57541,3.86948 0.76639,4.56158 0.19095,0.6921 0.13317,1.05589 -0.12842,0.80844 -0.26163,-0.24749 -0.96521,-2.2294 -1.56354,-4.40431 l -1.08788,-3.95434 -4.64917,0.22782 c -2.55704,0.12532 -4.74748,0.49099 -4.86766,0.81273 -0.12556,0.33604 -0.57025,0.29305 -1.04505,-0.10106 -0.57234,-0.47501 -0.95199,-0.4831 -1.23431,-0.0262 -0.22424,0.36281 -1.27445,0.65971 -2.33379,0.65971 h -1.92602 l 0.27306,3.7751 c 0.20523,2.83698 0.0675,3.77511 -0.55358,3.77511 -0.59086,0 -0.82662,-1.0767 -0.82662,-3.77511 v -3.7751 h -2.85108 c -1.73217,0 -2.94615,0.30864 -3.09337,0.78648 -0.13317,0.43256 -0.45725,1.63586 -0.72,2.67404 l -0.47769,1.88755 -0.36132,-2.20217 c -0.35092,-2.13867 -0.45201,-2.20811 -3.50727,-2.40943 -1.73025,-0.11414 -5.19864,-0.019 -7.70749,0.21093 -4.7529,0.43582 -5.26503,0.89162 -4.17968,3.71996 0.60394,1.57387 2.76059,1.24808 2.78314,-0.42041 0.0166,-1.2643 0.0877,-1.29795 0.66044,-0.31461 0.43727,0.75076 1.48218,1.12252 3.2841,1.16846 l 2.64276,0.0673 -2.67403,0.59883 c -2.33134,0.5221 -2.67523,0.81585 -2.68331,2.29208 l -0.01,1.69322 -0.78222,-1.54578 c -0.43023,-0.85017 -1.48722,-1.7122 -2.34887,-1.91562 -1.117,-0.26367 -1.66161,-0.90348 -1.8977,-2.22932 l -0.3311,-1.85949 -5.22148,0.0683 c -3.9819,0.0521 -5.47195,0.31892 -6.27664,1.12383 -0.92677,0.927 -0.94032,1.12799 -0.11153,1.65148 0.51907,0.32781 1.81828,0.4362 2.88713,0.24085 1.89397,-0.34614 1.93561,-0.30234 1.6384,1.72271 -0.27856,1.89802 -0.34973,1.9569 -0.82201,0.68016 -0.63048,-1.70435 -2.44731,-1.8399 -2.87243,-0.21426 -0.2661,1.01753 -0.55705,1.08997 -2.07572,0.51672 -1.50952,-0.56977 -1.63889,-0.79404 -0.89,-1.54293 0.48195,-0.48195 0.87625,-1.30327 0.87625,-1.82518 0,-0.79571 -0.68568,-0.87753 -4.24698,-0.50682 -2.33585,0.24317 -4.45935,0.56554 -4.71889,0.7164 -0.25954,0.15076 -0.4719,1.0981 -0.4719,2.10497 0,1.2302 -0.2645,1.72916 -0.80641,1.5212 -1.09174,-0.41894 -5.66858,1.21305 -5.97432,2.13028 -0.13483,0.40447 0.27393,0.73585 0.90836,0.7364 0.72042,6.2e-4 0.32743,0.41399 -1.04678,1.10107 -2.42504,1.21245 -3.04872,2.68224 -1.70737,4.02358 0.48076,0.48074 1.05784,1.29374 1.28239,1.80663 0.22449,0.51289 0.23329,-0.0528 0.019,-1.25726 -0.33811,-1.90325 -0.26472,-2.08666 0.56076,-1.40155 0.52238,0.43353 1.1184,1.63129 1.32448,2.66169 0.30341,1.51713 0.69419,1.87345 2.05464,1.87345 h 1.67992 l -0.36849,-4.56159 c -0.34522,-4.27332 -0.31198,-4.4423 0.52608,-2.67403 0.49202,1.03814 1.15023,2.31224 1.4627,2.83131 0.31247,0.51908 0.9319,1.7224 1.37654,2.67404 0.44462,0.95164 1.20128,1.73027 1.68145,1.73027 0.69828,0 0.65814,-0.36377 -0.20047,-1.81742 -1.47206,-2.49205 -0.82919,-3.72365 2.06838,-3.96247 1.931,-0.15909 2.4335,-0.47145 2.59563,-1.61304 0.16028,-1.12818 0.60742,-1.41644 2.20215,-1.41953 1.10061,-0.002 2.82851,-0.43537 3.83981,-0.96275 1.47128,-0.76724 1.93892,-0.79789 2.34023,-0.15338 0.40296,0.64711 0.75098,0.65084 1.77058,0.019 0.69795,-0.43257 1.9099,-0.78002 2.69322,-0.77215 1.26169,0.0119 1.20882,0.11296 -0.46335,0.87875 -3.8938,1.78323 -4.53298,1.94689 -8.37848,2.14521 -1.88439,0.0973 -2.06735,0.27536 -1.88755,1.83788 0.14197,1.23474 0.55966,1.73698 1.4582,1.75367 0.69253,0.0119 1.6127,0.24194 2.04486,0.50904 1.07049,0.66159 2.0441,-0.0416 2.0441,-1.47623 0,-1.74095 1.13441,-2.14454 1.37066,-0.48763 0.11129,0.7802 0.69776,1.51299 1.30335,1.62842 0.85532,0.16289 1.10109,-0.22163 1.10109,-1.72383 0,-1.58871 0.25255,-1.93197 1.41566,-1.92406 1.03415,0.007 1.18556,0.15553 0.56186,0.55064 -1.12241,0.71117 -0.48491,2.62447 1.4938,4.48337 1.80553,1.69619 1.87837,1.39147 0.64166,-2.68419 -0.49879,-1.64376 -0.64269,-2.98862 -0.31977,-2.98862 0.32291,0 0.76474,0.70781 0.98188,1.57294 0.4552,1.81362 1.20592,2.01665 2.02759,0.54839 0.39202,-0.70049 0.71217,-0.79999 1.01218,-0.31458 0.70839,1.1462 2.78053,0.81549 3.5174,-0.56141 0.37423,-0.69923 0.52486,-1.5231 0.33469,-1.83076 -0.60205,-0.97414 0.34926,-2.49735 1.3257,-2.12265 0.66187,0.254 0.73835,0.55403 0.2625,1.02988 -1.27835,1.27835 -0.67792,2.69914 1.50215,3.55454 1.19548,0.46906 2.03178,1.08233 1.85845,1.3628 -0.17336,0.28046 6.2e-4,1.10033 0.387,1.82194 1.03296,1.93009 2.57097,0.47477 2.082,-1.97005 -0.20166,-1.00797 -0.117,-1.83267 0.1881,-1.83267 0.71336,0 2.26283,4.92158 1.79022,5.68625 -0.52666,0.85217 0.91128,3.22569 1.67011,2.75672 0.35673,-0.22044 0.4787,-1.07781 0.27102,-1.90517 z m 8.57766,-7.65043 c -1.18573,-0.39522 -0.20737,-1.4041 1.3616,-1.4041 0.7755,0 1.67896,-0.26527 2.00772,-0.58949 0.32873,-0.32419 1.84981,-0.67811 3.38014,-0.78645 3.02591,-0.21426 3.6075,-0.85476 2.31935,-2.55421 -0.71105,-0.93806 -1.28323,-1.0132 -3.9111,-0.51372 -2.38506,0.45334 -3.27801,0.38968 -3.9654,-0.28273 -0.75614,-0.73961 -0.31696,-0.85972 2.9731,-0.81307 3.33866,0.0473 4.0296,-0.14862 5.11324,-1.4498 0.68912,-0.82748 1.2794,-1.2214 1.31171,-0.87535 0.0323,0.34605 0.11248,2.0781 0.17836,3.84901 0.10701,2.88651 -0.0433,3.2909 -1.4535,3.90661 -1.90746,0.83288 -8.26026,1.86492 -9.3151,1.5133 z m -16.16959,-4.70733 c 0.17098,-4.02742 0.25776,-4.35806 1.02065,-3.88657 0.44122,0.27269 0.5653,1.44168 0.33297,3.13675 -0.25193,1.838 -0.12461,2.8016 0.39775,3.01329 0.42245,0.17121 0.17573,0.33356 -0.54837,0.36088 -1.15398,0.0435 -1.30247,-0.28039 -1.203,-2.62435 z m 16.04693,-4.87618 c 0,-0.99247 0.41946,-1.25838 1.98507,-1.25838 1.9452,0 1.9622,0.0252 0.84625,1.25838 -0.62635,0.6921 -1.51961,1.25838 -1.98506,1.25838 -0.46545,0 -0.84626,-0.56628 -0.84626,-1.25838 z m -64.12339,16.29283 c -0.33157,-0.82883 -0.62079,-1.17624 -0.64271,-0.77197 -0.0533,0.98191 0.67966,2.84487 0.99513,2.52938 0.13769,-0.13769 -0.0214,-0.92855 -0.35242,-1.75741 z m 3.71206,0.53786 c -0.0143,-2.01489 -1.02871,-3.46032 -1.85183,-2.6372 -0.45459,0.45456 -0.4144,1.17475 0.13102,2.34927 0.95954,2.06612 1.73375,2.19565 1.72076,0.28793 z m 21.40189,1.16837 c 0,-0.13602 -0.42469,-0.41023 -0.94376,-0.60944 -0.51908,-0.19927 -0.94379,-0.088 -0.94379,0.24729 0,0.33519 0.42471,0.60944 0.94379,0.60944 0.51907,0 0.94376,-0.11129 0.94376,-0.24729 z m 4.42371,-1.60399 c -0.39144,-0.73144 -0.98067,-1.16369 -1.30934,-0.96053 -0.98887,0.61115 -0.67362,2.07346 0.50345,2.33528 1.51797,0.33763 1.62481,0.15529 0.80589,-1.37475 z m 32.069,0.9075 c 0,-0.51908 -0.28315,-0.94377 -0.6292,-0.94377 -0.34605,0 -0.62918,0.42469 -0.62918,0.94377 0,0.51907 0.28313,0.94378 0.62918,0.94378 0.34605,0 0.6292,-0.42471 0.6292,-0.94378 z m 6.68839,-0.47188 c -0.20855,-0.77863 -0.41675,-1.84037 -0.4624,-2.35944 -0.0457,-0.51908 -0.26189,-0.11771 -0.48048,0.89187 -0.55815,2.57782 -1.97041,2.8781 -1.97041,0.41892 0,-1.30497 -0.30892,-1.93997 -0.94378,-1.93997 -0.65914,0 -0.94377,0.66413 -0.94377,2.20214 0,2.1601 0.0495,2.20214 2.59012,2.20214 2.37899,0 2.5592,-0.11533 2.21072,-1.41566 z m 5.89528,0.15719 c 0,-0.34605 -0.70782,-0.62917 -1.57297,-0.62917 -0.86512,0 -1.57294,0.28312 -1.57294,0.62917 0,0.34605 0.70782,0.6292 1.57294,0.6292 0.86515,0 1.57297,-0.28315 1.57297,-0.6292 z m 3.77511,0.077 c 0,-0.82508 -1.62643,-2.01599 -2.10274,-1.53967 -0.86137,0.86136 -0.3647,2.09182 0.84438,2.09182 0.6921,0 1.25836,-0.24848 1.25836,-0.55215 z m -98.38868,-0.70622 c 0.82186,0 1.4943,-0.28261 1.4943,-0.62804 0,-0.34541 -5.2297,-5.90798 -11.62155,-12.3613 -8.46166,-8.54301 -11.80953,-12.34972 -12.31294,-14.0005 -0.38024,-1.24698 -0.93232,-2.8335 -1.22684,-3.5256 -0.29452,-0.69212 -1.16366,-3.94813 -1.93148,-7.23562 -0.76779,-3.2875 -1.6092,-6.2604 -1.86978,-6.60645 -0.26056,-0.34605 -0.96838,-2.40649 -1.57292,-4.57874 -0.60454,-2.17225 -1.21565,-3.83303 -1.35802,-3.69066 -0.14244,0.14244 0.16337,2.76906 0.67921,5.83709 0.51594,3.06802 1.12959,7.48938 1.36365,9.82524 0.234,2.33583 0.67574,4.24697 0.98148,4.24697 0.30575,0 0.55589,1.14164 0.55589,2.53697 0,2.92011 1.20932,6.18537 2.77023,7.47989 0.59267,0.49154 1.46952,1.76564 1.94857,2.83135 1.24606,2.7721 3.6947,5.2562 5.42312,5.50166 0.87521,0.12437 1.82608,0.92241 2.31291,1.94135 0.4547,0.95163 1.22613,1.73024 1.71429,1.73024 0.969,0 6.59396,8.20125 6.59396,9.61403 0,1.40531 0.81179,1.83207 2.74833,1.44476 0.99729,-0.19951 2.48569,-0.36264 3.30759,-0.36264 z m 105.93889,-0.36703 c 0,-0.54792 -0.33623,-0.88415 -0.74715,-0.74715 -1.16666,0.38888 -1.36016,1.74335 -0.24905,1.74335 0.54792,0 0.9962,-0.44828 0.9962,-0.9962 z m 11.40512,-1.26227 c 1.38746,-1.80454 1.60157,-2.60375 1.33383,-4.97903 -0.22044,-1.95542 -0.0861,-2.82944 0.43449,-2.82944 0.45898,0 0.60221,0.47639 0.36653,1.21902 -0.21284,0.67046 -0.0312,1.78875 0.40378,2.48513 0.6541,1.04735 0.60026,1.66549 -0.31164,3.57775 -1.49299,3.13081 -0.87508,3.42123 1.52091,0.7149 1.08992,-1.2311 2.35125,-2.09653 2.80293,-1.9232 0.45168,0.17336 1.40964,2.4e-4 2.12878,-0.38464 0.9864,-0.5279 1.30755,-1.31243 1.30755,-3.19437 0,-2.4909 -0.005,-2.49459 -2.51675,-2.49459 -1.3842,0 -2.51673,-0.25285 -2.51673,-0.56188 0,-0.85271 1.4577,-1.23336 3.34309,-0.87295 1.53627,0.29369 1.69039,0.14768 1.69039,-1.60062 0,-1.05807 0.28313,-2.09874 0.62918,-2.31262 0.34605,-0.21378 0.62917,-0.93841 0.62917,-1.61009 0,-1.04604 0.45135,-1.22125 3.14593,-1.22125 2.07078,0 3.16289,-0.26877 3.19559,-0.78646 0.0397,-0.6292 0.11319,-0.6292 0.36702,0 0.17455,0.43256 0.75314,0.78646 1.28575,0.78646 0.82924,0 0.84431,0.14886 0.10487,1.03539 -0.47492,0.56946 -1.19443,1.77276 -1.59889,2.67403 l -0.73538,1.63865 -0.0511,-2.04484 c -0.0423,-1.69229 -0.29521,-2.04141 -1.46679,-2.02483 -2.20568,0.0312 -3.6178,1.47045 -3.6178,3.68743 0,1.48162 0.36469,2.14235 1.41566,2.56479 l 1.41568,0.56903 -1.41568,0.0399 c -0.98291,0.0276 -1.41566,0.42455 -1.41566,1.29826 0,0.6921 -0.28313,1.25837 -0.62918,1.25837 -0.34605,0 -0.6292,0.99097 -0.6292,2.20215 0,1.21117 0.30223,2.20214 0.6716,2.20214 0.37559,0 0.50284,0.53165 0.28874,1.20622 -0.31123,0.98065 -0.13982,1.14269 0.91656,0.86644 0.71467,-0.18692 1.79191,-0.96596 2.39388,-1.73123 1.16642,-1.48288 6.42534,-2.79143 6.42534,-1.59881 0,0.39444 0.81443,0.30479 2.09625,-0.23091 1.85795,-0.7763 2.17142,-0.75937 2.75767,0.14887 0.59289,0.91853 0.83205,0.86667 2.30806,-0.50062 1.2994,-1.20371 1.64661,-1.31208 1.64661,-0.51396 0,0.8202 0.65284,0.98958 3.45381,0.89615 3.0305,-0.10106 3.41087,0.019 3.10353,0.98586 -0.7681,2.4144 2.19346,0.2967 3.07963,-2.20214 0.21474,-0.60561 0.68249,-1.10107 1.03943,-1.10107 0.3569,0 0.64892,-0.31961 0.64892,-0.71025 0,-0.39061 0.99097,-1.8071 2.20214,-3.14773 2.55326,-2.82614 2.8244,-4.31839 0.78648,-4.32836 -0.77861,-0.005 -2.47742,-0.18239 -3.7751,-0.39691 -1.58545,-0.26206 -2.35945,-0.15243 -2.35945,0.33402 0,0.39819 -0.70782,1.84529 -1.57294,3.21574 -1.91519,3.03381 -1.91581,3.04867 -0.15719,3.75549 1.18492,0.47629 0.97979,0.57553 -1.25838,0.60892 -1.47071,0.0214 -2.67403,-0.18668 -2.67403,-0.46386 0,-0.89656 1.55917,-3.89058 2.02871,-3.89565 0.25064,-0.002 0.92096,-0.90455 1.48957,-2.00415 0.97641,-1.88814 0.96857,-2.04959 -0.14102,-2.90539 -1.04785,-0.80812 -0.77098,-0.86205 2.55868,-0.49838 2.05351,0.22424 4.03545,0.64327 4.40428,0.93109 0.36886,0.28781 1.52003,0.72256 2.55818,0.96607 1.73431,0.4068 1.80634,0.35998 0.88712,-0.57663 -1.41266,-1.43939 -8.23292,-2.72777 -16.82223,-3.17781 -4.03959,-0.21165 -7.91098,-0.64029 -8.60308,-0.95254 -0.6921,-0.31224 -4.44418,-0.6448 -8.33798,-0.73902 l -7.0796,-0.17122 -0.019,3.77511 c -0.0143,2.98819 -0.15814,3.53378 -0.69087,2.61741 -0.39389,-0.67759 -0.50043,-2.30841 -0.25689,-3.93241 0.40816,-2.7219 0.38243,-2.77458 -1.35272,-2.76778 -3.34078,0.0119 -6.48769,0.7872 -6.48769,1.59594 0,0.44495 0.35393,0.95183 0.78649,1.12637 0.43256,0.17455 -0.0238,0.3397 -1.01263,0.36703 -1.67848,0.0464 -1.78185,0.19737 -1.54201,2.25181 0.14149,1.21118 0.0309,2.20215 -0.24574,2.20215 -0.27657,0 -0.51147,0.49548 -0.52198,1.10107 -0.0166,0.97399 -0.0863,0.98609 -0.60173,0.10487 -0.40151,-0.68654 -1.19001,-0.90698 -2.53692,-0.7093 -1.6614,0.24385 -1.9349,0.53461 -1.82473,1.9399 0.0713,0.90919 -0.083,2.1492 -0.34312,2.75555 -0.63167,1.47311 0.11652,4.27742 1.0897,4.08461 0.83704,-0.16575 0.90924,0.91891 0.2076,3.11972 -0.4263,1.33721 -0.29176,1.38491 3.83813,1.36123 4.11763,-0.0238 4.34257,-0.10606 5.93266,-2.17415 z m -3.85491,-0.25826 c 0,-2.36613 -1.40622,-2.50063 -2.4393,-0.23328 -1.10374,2.42246 -1.53076,1.40638 -0.70216,-1.6708 0.53144,-1.97366 0.89939,-2.47723 1.42555,-1.95107 1.06555,1.06555 1.71591,0.85742 1.71591,-0.54913 0,-0.69212 0.28313,-1.25838 0.6292,-1.25838 0.34605,0 0.62918,0.46857 0.62918,1.04129 0,0.96892 0.0799,0.96892 1.1506,0 0.63284,-0.57272 1.34068,-1.04129 1.57297,-1.04129 0.8148,0 0.41101,2.02424 -0.73365,3.67797 -0.63578,0.91855 -1.33473,2.16559 -1.5532,2.77117 -0.63595,1.76276 -1.6951,1.27132 -1.6951,-0.78648 z m 22.2044,-6.68245 c -0.6629,-1.42812 -0.56162,-1.93238 0.78648,-3.91626 0.85102,-1.25241 1.54731,-2.91919 1.54731,-3.70398 0,-0.78482 0.30484,-1.42693 0.6774,-1.42693 0.38153,0 0.60009,0.89708 0.50043,2.05392 -0.0973,1.12965 0.0392,2.40375 0.30351,2.83134 0.67797,1.09696 2.92294,0.96918 2.92294,-0.16646 0,-0.51908 0.26239,-0.94377 0.58307,-0.94377 0.32067,0 0.71252,-0.49548 0.87078,-1.10109 0.18097,-0.69274 0.3148,-0.47318 0.36072,0.59205 0.0402,0.93124 -0.18834,1.85465 -0.50778,2.05207 -0.31943,0.19737 -0.76232,1.18554 -0.98421,2.19581 -0.22187,1.01028 -0.79706,2.16353 -1.27814,2.5628 -0.73145,0.60703 -0.78353,0.40809 -0.31808,-1.21491 0.5118,-1.78451 0.43479,-1.94082 -0.95625,-1.94082 -1.04462,0 -1.815,0.58423 -2.48898,1.88755 -0.53686,1.03815 -1.0396,1.88534 -1.11724,1.88266 -0.0775,-0.002 -0.4835,-0.74254 -0.90196,-1.64407 z m 20.98155,-1.81155 c 1.45471,-2.48429 1.48615,-2.52125 1.48615,-1.74751 0,0.36538 -0.58307,1.33274 -1.29572,2.14971 l -1.29571,1.48535 z m -9.83273,-0.78648 c 0.35547,-0.60559 1.06788,-2.2336 1.58312,-3.6178 l 0.9368,-2.51673 -0.35794,2.98862 c -0.229,1.91286 -0.11771,2.98863 0.30976,2.98863 0.36726,0 0.66772,0.28312 0.66772,0.62917 0,0.34605 -0.85178,0.6292 -1.89288,0.6292 -1.62949,0 -1.80294,-0.15314 -1.24658,-1.10109 z m -12.59014,9.87254 c 0,-0.32565 -0.28312,-0.59206 -0.62917,-0.59206 -0.34605,0 -0.62918,0.44141 -0.62918,0.98091 0,0.5395 0.28313,0.80591 0.62918,0.59206 0.34605,-0.21379 0.62917,-0.65529 0.62917,-0.98091 z m -91.86089,-1.25838 c 0,-0.80177 -0.43223,-1.22123 -1.25838,-1.22123 -1.44049,0 -1.51297,0.23614 -0.59762,1.94653 0.77511,1.44831 1.856,1.0259 1.856,-0.7253 z m -30.41452,-0.31361 c 0.20689,-0.53898 0.73593,-0.84184 1.17581,-0.67305 0.78099,0.2997 0.76026,0.11533 -0.54566,-4.85112 -0.0761,-0.28978 -0.78579,0.76915 -1.57689,2.35317 -1.36924,2.74165 -1.38319,4.15093 -0.0411,4.15093 0.33648,0 0.78101,-0.44098 0.98782,-0.97993 z m 48.03167,0.70246 c 0,-0.15266 -0.28313,-0.45244 -0.62918,-0.66632 -0.34605,-0.21378 -0.6292,-0.0889 -0.6292,0.27747 0,0.36648 0.28315,0.66632 0.6292,0.66632 0.34605,0 0.62918,-0.12484 0.62918,-0.27747 z m -42.15534,-1.61008 c 0,-0.34605 -0.26644,-0.62918 -0.59206,-0.62918 -0.32562,0 -0.76703,0.28313 -0.98091,0.62918 -0.21378,0.34605 0.0526,0.62918 0.59206,0.62918 0.5395,0 0.98091,-0.28313 0.98091,-0.62918 z m -14.47125,-1.89609 c 0,-0.69681 -0.26534,-1.75855 -0.58963,-2.35945 -0.32432,-0.6009 -1.20176,-5.62266 -1.94986,-11.15947 -0.74812,-5.53684 -1.63615,-10.40422 -1.9734,-10.8164 -0.33725,-0.41218 -0.7159,-5.65015 -0.84146,-11.63991 -0.26662,-12.71929 -2.06222,-36.39708 -2.83037,-37.32261 -0.29154,-0.3513 -0.65383,-1.76768 -0.8051,-3.1475 -0.15124,-1.37982 -0.13745,2.58762 0.0307,8.81656 0.16812,6.22891 0.55389,11.59429 0.85727,11.92303 0.7531,0.81599 0.69819,3.95633 -0.0775,4.43577 -0.87307,0.53957 -0.79228,6.82085 0.0992,7.71229 0.5517,0.55168 0.52764,0.97021 -0.0992,1.72547 -0.6268,0.75524 -0.65086,1.17377 -0.0992,1.72545 0.45793,0.45793 0.72834,3.14823 0.72834,7.24608 0,3.83953 0.23951,6.36972 0.58285,6.15753 0.68002,-0.42029 1.11484,3.3254 1.60347,13.81341 0.19357,4.15262 0.63011,7.6446 0.97028,7.75993 0.34018,0.11534 0.6185,0.61482 0.6185,1.10992 0,1.07039 2.62645,5.26784 3.30321,5.27901 0.25954,0.005 0.4719,-0.56233 0.4719,-1.25911 z m 157.5236,0.32312 c 0.19928,-0.51907 0.088,-0.94376 -0.24726,-0.94376 -0.33521,0 -0.60944,0.42469 -0.60944,0.94376 0,0.51908 0.11129,0.94379 0.24727,0.94379 0.13602,0 0.41025,-0.42471 0.60943,-0.94379 z m -141.87264,-0.70784 c 2.17883,-0.43575 2.64849,-2.20825 1.13396,-4.27953 -0.69619,-0.95206 -1.28772,-1.05577 -3.61783,-0.63429 -1.53579,0.2778 -2.27124,0.61798 -1.63924,0.75819 1.06723,0.23685 1.07294,0.30795 0.0825,1.0321 -0.92298,0.67491 -0.95057,0.95908 -0.20855,2.14731 0.92773,1.48555 1.28827,1.56837 4.249,0.97622 z m -2.1235,-3.38185 c -0.21379,-0.34605 0.21093,-0.62918 0.94379,-0.62918 0.73295,0 1.15764,0.28313 0.94376,0.62918 -0.21378,0.34605 -0.63857,0.62918 -0.94376,0.62918 -0.30522,0 -0.72991,-0.28313 -0.94379,-0.62918 z m -6.6035,0.26348 c 1.20955,-1.58535 2.6947,-3.42572 3.30029,-4.08971 0.60558,-0.66399 1.10107,-1.44054 1.10107,-1.72568 0,-0.28515 0.99168,-1.91317 2.20371,-3.6178 1.21205,-1.70466 2.64937,-4.44093 3.19403,-6.08062 0.54469,-1.63967 1.2049,-3.11383 1.46712,-3.27592 0.26225,-0.16218 1.68859,-2.72927 3.16962,-5.70491 l 2.69277,-5.41024 -0.41054,-6.41427 c -0.22591,-3.52784 -0.56887,-9.10404 -0.76237,-12.39153 -0.19357,-3.28749 -0.64202,-6.33117 -0.99665,-6.76373 -0.45365,-0.55332 -0.41261,-0.78648 0.1384,-0.78648 0.54421,0 0.59037,-0.24004 0.15124,-0.78649 -0.34757,-0.43256 -0.83861,-3.47623 -1.09118,-6.76373 -1.037,-13.49766 -1.45603,-10.84091 -1.41841,8.99294 0.0281,14.82947 -0.16551,20.83758 -0.68884,21.3608 -0.40039,0.40038 -0.72796,1.18204 -0.72796,1.737 0,0.55495 -1.30187,3.63287 -2.89305,6.8398 -1.67908,3.38411 -2.75993,6.3398 -2.57583,7.04381 0.18002,0.68832 -0.33423,2.17299 -1.18877,3.43222 -0.82829,1.22054 -1.68407,2.92872 -1.90173,3.79599 -0.21758,0.86724 -1.49529,2.90741 -2.83921,4.53374 -1.34391,1.6263 -2.44346,3.31603 -2.44346,3.75494 0,0.43891 -0.28315,0.79801 -0.6292,0.79801 -0.34605,0 -0.62918,0.99097 -0.62918,2.20214 0,3.00677 1.11858,2.80535 3.77803,-0.68028 z m 14.50968,1.60193 c 0.66934,-0.35822 1.21699,-1.06066 1.21699,-1.56098 0,-0.50031 0.70785,-1.0566 1.57297,-1.23623 0.86512,-0.17954 2.29962,-0.47825 3.18773,-0.66364 1.10412,-0.23043 1.5455,-0.67816 1.39578,-1.41568 -0.18501,-0.9113 -0.84258,-1.0454 -4.23951,-0.86465 -2.21129,0.11771 -4.70194,0.47299 -5.53477,0.78965 -1.31735,0.50086 -1.45732,0.84122 -1.07638,2.61739 0.70173,3.27192 1.15562,3.57661 3.47719,2.33414 z m 142.47904,-5.04337 c 0.26935,-0.84865 0.0946,-1.22632 -0.56752,-1.22632 -0.75997,0 -3.53236,4.80626 -3.53236,6.12375 0,0.69631 3.74393,-3.77593 4.09988,-4.89743 z m -92.14431,-10.05705 c 1.73983,-0.93111 1.502,-2.29341 -0.466,-2.66964 -1.2194,-0.23304 -1.98334,0.0492 -2.7732,1.02457 -0.59959,0.74049 -0.95806,1.56008 -0.79659,1.82135 0.42101,0.68121 2.6124,0.58549 4.03579,-0.17621 z m 13.17151,-0.53715 c 0,-0.30759 0.35392,-0.54613 0.78649,-0.53006 0.43256,0.0167 2.83919,-0.0143 5.34807,-0.0699 l 4.56159,-0.0992 v -2.25053 c 0,-1.64854 -0.49197,-2.74252 -1.83916,-4.08969 -2.28771,-2.28773 -2.82157,-2.31734 -2.27158,-0.12604 0.42647,1.69922 0.41934,1.70354 -0.87557,0.53166 -0.71806,-0.64982 -1.30555,-1.70388 -1.30555,-2.34235 0,-1.23888 -0.18692,-1.2867 -5.03346,-1.2867 -5.03876,0 -5.40795,0.0683 -6.66747,1.23364 -1.35756,1.25603 -2.7703,3.58482 -2.7703,4.56661 0,0.36189 0.63705,0.91404 1.41566,1.22701 1.36078,0.54697 1.34858,0.57058 -0.31459,0.60892 -2.33597,0.0537 -2.22081,1.29825 0.12009,1.29825 2.17154,0 2.97274,-0.93932 1.90182,-2.2297 -0.53553,-0.64528 -0.55155,-0.91623 -0.0542,-0.91623 0.38842,0 0.70622,-0.39168 0.70622,-0.8704 0,-0.4787 0.57788,-1.0215 1.2842,-1.2062 0.97449,-0.25483 1.21622,-0.0828 1.00227,0.71309 -0.15505,0.57691 -0.44674,1.7937 -0.64816,2.704 -0.20665,0.93387 -0.91751,1.79923 -1.63144,1.98593 -2.68421,0.70195 -1.20641,1.70706 2.50986,1.70706 2.0763,0 3.77511,-0.25169 3.77511,-0.55928 z m -0.79958,-1.70841 c -0.25233,-0.25231 -0.45879,-1.09865 -0.45879,-1.88073 0,-0.82517 -0.4621,-1.54272 -1.10107,-1.7097 -1.04864,-0.27405 -1.04864,-0.29122 0,-0.36072 0.60558,-0.0402 1.12342,-0.56847 1.15074,-1.17408 0.0297,-0.65776 0.1774,-0.78441 0.36703,-0.31459 0.56316,1.39564 1.47085,0.83607 1.47085,-0.90674 0,-1.62388 0.0378,-1.64321 0.92377,-0.47187 0.50808,0.67172 0.93277,2.28307 0.94378,3.58075 0.0166,1.91276 -0.20831,2.35945 -1.18594,2.35945 -0.66325,0 -1.3062,0.30084 -1.42876,0.66851 -0.12247,0.36769 -0.42928,0.46207 -0.68161,0.20974 z m 1.21628,-3.55227 c -0.17454,-0.43256 -0.31737,-0.0787 -0.31737,0.78649 0,0.86512 0.14292,1.21904 0.31737,0.78648 0.17455,-0.43256 0.17455,-1.1404 0,-1.57297 z m -11.74201,1.06395 c 0,-0.5395 -0.28313,-0.80593 -0.62918,-0.59205 -0.34605,0.21378 -0.6292,0.65529 -0.6292,0.98091 0,0.32562 0.28315,0.59205 0.6292,0.59205 0.34605,0 0.62918,-0.4414 0.62918,-0.98091 z m -54.10987,-58.16243 c 0,-0.34605 -0.29984,-0.62918 -0.66629,-0.62918 -0.36648,0 -0.49135,0.28313 -0.27747,0.62918 0.21378,0.34605 0.51372,0.6292 0.66632,0.6292 0.15267,0 0.27744,-0.28315 0.27744,-0.6292 z m -28.31327,-1.92467 c 0,-0.67168 -0.28315,-1.22124 -0.6292,-1.22124 -0.34605,0 -0.62917,0.72454 -0.62917,1.61009 0,0.91318 0.27233,1.44177 0.62917,1.22123 0.34605,-0.21378 0.6292,-0.93841 0.6292,-1.61008 z m 18.30907,279.58941 c 0.0397,-4.6954 0.24812,-6.85112 0.56644,-5.85708 0.73776,2.30358 0.73776,12.44232 0,12.89828 -0.40716,0.25164 -0.60704,-2.23284 -0.56644,-7.0412 z"
       id="path422"
       inkscape:connector-curvature="0" />
  </g>
</svg>
