<?xml version="1.0" encoding="UTF-8" standalone="no"?>
<!-- Created with Inkscape (http://www.inkscape.org/) -->

<svg
   xmlns:dc="http://purl.org/dc/elements/1.1/"
   xmlns:cc="http://creativecommons.org/ns#"
   xmlns:rdf="http://www.w3.org/1999/02/22-rdf-syntax-ns#"
   xmlns:svg="http://www.w3.org/2000/svg"
   xmlns="http://www.w3.org/2000/svg"
   xmlns:sodipodi="http://sodipodi.sourceforge.net/DTD/sodipodi-0.dtd"
   xmlns:inkscape="http://www.inkscape.org/namespaces/inkscape"
   width="210.00002mm"
   height="239.26941mm"
   viewBox="0 0 210.00002 239.2694"
   version="1.1"
   id="svg8"
   inkscape:version="0.92.3 (2405546, 2018-03-11)"
   sodipodi:docname="farmers.svg">
  <defs
     id="defs2" />
  <sodipodi:namedview
     id="base"
     pagecolor="#ffffff"
     bordercolor="#666666"
     borderopacity="1.0"
     inkscape:pageopacity="0.0"
     inkscape:pageshadow="2"
     inkscape:zoom="0.49497475"
     inkscape:cx="411.73605"
     inkscape:cy="418.42867"
     inkscape:document-units="mm"
     inkscape:current-layer="layer1"
     showgrid="false"
     fit-margin-top="0"
     fit-margin-left="0"
     fit-margin-right="0"
     fit-margin-bottom="0"
     inkscape:window-width="1920"
     inkscape:window-height="1017"
     inkscape:window-x="-8"
     inkscape:window-y="-8"
     inkscape:window-maximized="1" />
  <metadata
     id="metadata5">
    <rdf:RDF>
      <cc:Work
         rdf:about="">
        <dc:format>image/svg+xml</dc:format>
        <dc:type
           rdf:resource="http://purl.org/dc/dcmitype/StillImage" />
        <dc:title></dc:title>
      </cc:Work>
    </rdf:RDF>
  </metadata>
  <g
     inkscape:label="Layer 1"
     inkscape:groupmode="layer"
     id="layer1"
     transform="translate(-356.47935,834.69631)">
    <path
       style="fill:#000000;stroke-width:0.49818107"
       d="m 362.70832,-596.76094 c -1.49821,-1.26067 -1.56739,-1.4682 -1.26046,-3.78189 0.20983,-1.58184 0.11994,-2.69472 -0.25385,-3.1452 -0.61731,-0.7438 -0.52889,-1.51207 0.78818,-6.84842 0.76434,-3.09689 0.77266,-3.735 0.0928,-7.11207 -0.41079,-2.04047 -0.63186,-4.20849 -0.49124,-4.81784 0.14065,-0.60936 1.45831,-2.24718 2.92828,-3.63961 2.61208,-2.47429 2.66028,-2.5703 2.12639,-4.23454 -0.30047,-0.93657 -0.72454,-3.31447 -0.94239,-5.28424 -0.87558,-7.91674 -2.20237,-7.501 -3.48018,1.09048 -0.326,2.192 -1.13,5.26774 -1.78663,6.83498 -0.65666,1.56724 -1.19391,3.18005 -1.19391,3.58402 0,0.92815 -2.29748,3.63844 -2.72384,3.21325 -0.17473,-0.17417 0.3813,-1.79622 1.23561,-3.60436 1.25061,-2.64695 1.68729,-4.49677 2.24099,-9.49313 0.8931,-8.05905 1.36506,-9.68293 4.21841,-14.51373 1.30755,-2.21375 2.52729,-4.49728 2.71048,-5.0745 0.55221,-1.73988 4.2669,-5.07544 7.19495,-6.46062 3.76088,-1.77918 7.92794,-2.59485 13.36273,-2.61564 2.51667,-0.009 5.17925,-0.24694 5.91683,-0.52738 0.7376,-0.28043 3.05005,-0.64829 5.13878,-0.81747 2.08875,-0.16908 4.61304,-0.71601 5.60956,-1.21514 1.4348,-0.71868 2.16048,-0.80669 3.48726,-0.42292 1.4763,0.42702 2.15365,0.24717 5.69885,-1.51316 2.21286,-1.09878 4.27741,-1.99779 4.58786,-1.99779 0.97058,0 5.0887,-2.70183 5.0887,-3.33862 0,-1.14881 1.74559,-4.067 2.56604,-4.28981 0.45235,-0.12276 1.07673,-0.69851 1.38754,-1.27927 0.46166,-0.86263 0.42512,-1.05592 -0.1997,-1.05592 -1.09324,0 -0.9489,-0.45905 0.50358,-1.60157 0.69761,-0.54873 1.71774,-1.95369 2.26696,-3.12211 0.54924,-1.16843 1.54773,-2.6403 2.21891,-3.27085 0.81194,-0.76277 1.2203,-1.69098 1.2203,-2.77379 0,-0.89507 0.22418,-1.76595 0.49817,-1.93529 0.274,-0.16927 0.49818,-0.74303 0.49818,-1.27485 0,-1.36606 1.59769,-1.23506 3.39643,0.27848 2.25954,1.9013 4.74908,1.5984 5.67653,-0.69066 0.29016,-0.71614 0.6653,-4.10433 0.83365,-7.52932 l 0.3061,-6.22726 1.33187,2.04696 c 1.54816,2.37937 2.36588,5.12935 2.87261,9.66028 l 0.36213,3.23819 0.88201,-1.99273 c 0.4851,-1.096 1.42024,-3.13746 2.07808,-4.53658 0.65785,-1.39912 1.45625,-3.83921 1.77419,-5.42246 0.53177,-2.64783 0.63527,-2.80334 1.29106,-1.93977 1.35124,1.77935 -0.19644,16.35412 -1.96261,18.48222 -0.36742,0.4427 -0.0292,1.17503 1.21275,2.62597 1.46591,1.71258 1.76802,2.50211 2.0297,5.30447 0.28104,3.00959 0.46907,3.4371 2.18873,4.97644 1.0347,0.92621 2.49138,2.06448 3.23706,2.52949 2.6711,1.66574 3.20517,6.21034 1.01058,8.59967 -1.11043,1.20898 -1.81832,1.51126 -3.73636,1.5955 -2.28374,0.10036 -2.36659,0.15722 -2.37316,1.6299 -0.009,2.22439 -0.5496,3.9815 -0.99938,3.25377 -0.22252,-0.36007 -0.70509,0.4662 -1.2119,2.07515 -0.46317,1.47038 -1.03393,3.12181 -1.26832,3.66981 -0.2344,0.54799 -0.53698,1.33263 -0.67238,1.74363 -0.13538,0.41099 -0.26388,-0.27276 -0.28552,-1.51946 -0.0217,-1.2467 0.15327,-2.47969 0.38863,-2.74 0.64519,-0.71346 1.57562,-6.08218 1.22633,-7.07595 -0.38786,-1.10347 -2.68512,-3.61003 -3.30862,-3.61003 -0.6556,0 -2.82795,2.59926 -2.82868,3.38457 -3.4e-4,0.35451 -0.37405,0.57869 -0.83049,0.49818 -0.56897,-0.10036 -0.96298,0.35488 -1.25332,1.44818 -0.55835,2.10236 -1.39999,2.57751 -1.41923,0.80119 -0.0132,-1.16163 -0.0987,-1.25602 -0.50725,-0.55558 -0.36884,0.63242 -0.11542,1.53998 1.01151,3.62304 0.827,1.52858 1.50362,3.0248 1.50362,3.32495 0,0.30015 0.69798,1.34069 1.55106,2.3123 1.37419,1.56512 1.51767,2.01023 1.25815,3.90355 -0.25052,1.8277 -0.10073,2.36538 1.0351,3.71521 1.28191,1.52346 1.43162,1.56882 4.31496,1.30736 2.15403,-0.19531 3.20413,-0.54472 3.76567,-1.25295 0.42828,-0.54014 1.25225,-1.12339 1.83105,-1.29607 0.65941,-0.19672 1.67622,-1.56522 2.72303,-3.66485 0.91887,-1.84301 2.1827,-4.04462 2.80854,-4.89248 0.62583,-0.84787 1.13924,-1.96877 1.14094,-2.4909 0.001,-0.52214 0.33796,-1.59147 0.74726,-2.3763 0.40932,-0.7848 0.74421,-1.77889 0.74421,-2.20906 0,-0.43018 0.41725,-1.69358 0.92723,-2.80759 0.95187,-2.07928 2.09349,-5.7369 2.34261,-7.50546 0.74013,-5.25421 1.13798,-10.09219 0.90596,-11.01669 -0.16476,-0.6563 0.0923,-1.76259 0.61514,-2.6477 0.70256,-1.18935 0.76688,-1.65158 0.2954,-2.12307 -0.70922,-0.70921 -0.8023,-2.71217 -0.14498,-3.11846 0.25922,-0.16024 0.1303,-0.93941 -0.29723,-1.79639 -0.42055,-0.84299 -0.62254,-2.04136 -0.45596,-2.70504 0.35155,-1.40068 0.0288,-1.66347 -2.42923,-1.97818 -1.10433,-0.1414 -2.54983,-0.86195 -3.62774,-1.80836 -1.69012,-1.48397 -1.82944,-1.52202 -2.45249,-0.66994 -0.90134,1.23266 -0.84929,4.91796 0.0804,5.68949 0.40752,0.33823 1.08007,0.48479 1.49455,0.32574 0.5684,-0.21813 0.75362,0.0742 0.75362,1.18971 0,0.98247 -0.25086,1.47891 -0.74728,1.47891 -0.411,0 -0.74726,0.31985 -0.74726,0.71079 0,0.72179 -2.59711,2.2783 -3.80142,2.2783 -1.08892,0 -2.03891,-2.06235 -2.40957,-5.23089 -0.19232,-1.64401 -0.3374,-3.43746 -0.32239,-3.98546 0.0151,-0.54799 0.0446,-2.00518 0.0661,-3.23817 0.0213,-1.23301 0.2611,-2.9448 0.53291,-3.80402 0.54482,-1.72219 4.6301,-5.82052 9.01238,-9.04111 3.92842,-2.88707 4.39481,-3.69615 4.39481,-7.62397 0,-2.57398 0.22527,-3.59562 1.0139,-4.5982 0.55765,-0.70895 1.47276,-2.3645 2.03356,-3.679 0.56081,-1.31452 1.34084,-3.10338 1.73338,-3.97525 0.39257,-0.87187 1.1349,-3.22576 1.64964,-5.23089 0.51474,-2.00513 1.32631,-4.40191 1.80347,-5.3262 0.47716,-0.92428 1.38159,-3.50237 2.00983,-5.72907 2.31441,-8.20294 3.80069,-13.0286 4.16228,-13.51402 0.20411,-0.274 1.00381,-2.29163 1.77709,-4.48363 2.57777,-7.30695 4.83155,-10.94639 9.68176,-15.63425 2.09991,-2.02961 5.71854,-4.0439 7.26479,-4.0439 0.36594,0 1.14406,-0.77457 1.72915,-1.72128 0.81105,-1.31232 1.02785,-2.34797 0.91245,-4.35908 -0.14348,-2.50065 -0.22915,-2.65077 -1.64717,-2.8869 -0.82269,-0.13708 -2.18798,-0.87073 -3.034,-1.63049 -0.846,-0.75977 -1.91173,-1.65649 -2.36828,-1.99272 -0.64841,-0.47752 -0.73549,-0.93947 -0.39791,-2.11047 0.61307,-2.12652 -0.099,-3.73176 -1.65521,-3.73176 -0.69382,0 -1.26149,0.19752 -1.26149,0.43894 0,0.24141 -2.11238,0.59731 -4.69416,0.79087 -4.50668,0.33787 -4.78538,0.29848 -6.97795,-0.98646 -1.25609,-0.73612 -3.17135,-2.37676 -4.25616,-3.64586 l -1.97234,-2.30746 1.30473,-1.36184 c 0.71758,-0.74901 1.46082,-1.26538 1.65159,-1.14747 0.19078,0.11787 0.61309,-0.28307 0.93847,-0.89106 0.32538,-0.60798 1.64823,-1.5351 2.93962,-2.06024 1.29142,-0.52515 4.58983,-2.01704 7.32983,-3.31531 2.74,-1.29827 6.43899,-2.84625 8.22,-3.43995 4.13056,-1.37694 5.27973,-2.13207 5.68165,-3.7335 0.17831,-0.71014 1.37549,-2.64507 2.66054,-4.29986 2.85292,-3.67373 6.36225,-5.56855 10.31332,-5.56855 2.76111,0 3.99419,0.48844 6.81706,2.7003 l 1.80896,1.41742 5.41467,-0.97482 c 18.4483,-3.32135 24.48548,-3.28047 26.75361,0.18113 0.85442,1.30401 0.84049,1.36651 -0.88358,3.96393 -1.8072,2.72266 -6.17759,7.05423 -10.63428,10.5398 -1.40134,1.09601 -2.55905,2.39226 -2.57268,2.88059 -0.0132,0.48835 -0.51149,1.06792 -1.10633,1.28797 -0.71665,0.26509 -0.88473,0.52171 -0.4982,0.76061 0.81904,0.5062 0.72855,3.15955 -0.12408,3.6397 -0.3891,0.21912 -0.78142,1.16043 -0.87181,2.09178 -0.18735,1.93024 -1.3248,2.8927 -2.71208,2.29479 -0.51674,-0.22273 -1.32305,-0.3579 -1.79178,-0.30038 -0.46874,0.0574 -1.31039,-0.14065 -1.87035,-0.44031 -1.71866,-0.91979 -2.22126,1.06771 -1.68898,6.67915 0.24833,2.61827 0.27716,5.23189 0.064,5.80806 -0.34556,0.93414 -0.6459,1.01201 -2.77449,0.71924 l -2.387,-0.32828 -1.4624,2.99346 c -0.80431,1.64641 -1.85937,3.09727 -2.34455,3.22416 -0.48519,0.12691 -0.88215,0.68377 -0.88215,1.23753 0,1.09612 -2.1706,3.07188 -3.3748,3.07188 -0.41226,0 -1.81735,-0.65704 -3.12245,-1.46007 -1.30509,-0.80303 -2.50684,-1.32612 -2.67054,-1.16242 -0.47594,0.47594 -0.34359,6.20521 0.18603,8.05174 0.26599,0.92748 1.37829,3.16781 2.47174,4.97853 1.09347,1.8107 2.24314,4.5252 2.55482,6.03219 0.31169,1.50701 0.88219,3.33748 1.26779,4.0677 0.38561,0.73024 1.27157,3.52334 1.96882,6.20689 0.69725,2.68353 1.45421,5.11252 1.68214,5.39774 0.22792,0.28522 0.77258,2.11303 1.21037,4.06184 1.16107,5.16853 4.75181,16.69388 5.62082,18.04141 1.27127,1.97122 3.66409,8.25705 3.28001,8.61638 -0.20009,0.18716 -0.81216,0.42045 -1.36016,0.51834 -2.25576,0.40298 -1.14587,5.24428 1.31509,5.73647 0.81802,0.16362 2.10906,1.11273 3.04211,2.23646 0.89153,1.07374 2.20928,2.6042 2.92834,3.40106 2.07291,2.29722 2.15192,2.99508 0.4133,3.65134 -1.41392,0.53368 -1.4975,0.702 -1.20584,2.4283 0.29207,1.7287 0.21743,1.87781 -1.09709,2.19229 -0.77575,0.18565 -1.65223,0.52625 -1.94773,0.75702 -0.29552,0.23076 -0.96807,0.49103 -1.49455,0.57838 -0.52651,0.0874 -1.4229,0.41522 -1.992,0.7286 -0.5691,0.31337 -2.18031,0.72173 -3.58045,0.90748 -2.12808,0.2823 -2.83691,0.15779 -4.32072,-0.75931 -1.94862,-1.20432 -2.01017,-1.51605 -1.7881,-9.05574 0.0644,-2.18584 -0.11185,-3.43663 -0.51989,-3.68878 -0.37582,-0.23228 -0.49072,-0.17662 -0.29371,0.14215 0.17793,0.28797 0.18358,1.54454 0.0132,2.79235 -0.28439,2.07485 -0.49371,2.35464 -2.44922,3.27385 -1.17604,0.5528 -2.26495,1.21008 -2.4198,1.46062 -0.61054,0.98791 3.85853,13.79545 7.06633,20.25075 1.83311,3.6889 2.94479,6.69314 5.346,14.44726 0.50909,1.64399 1.11478,3.24341 1.34596,3.55425 0.60895,0.81874 1.77941,5.27098 2.66725,10.14573 1.20024,6.59001 3.2441,14.58141 4.00833,15.67251 0.38106,0.54404 0.69284,1.30567 0.69284,1.69249 0,0.38684 1.00882,2.83296 2.24181,5.43584 2.21458,4.67501 2.83507,6.6678 1.54832,4.97275 -0.36398,-0.4795 -1.2326,-0.87181 -1.93023,-0.87181 -1.02318,0 -1.21806,0.19265 -1.00789,0.99636 0.31612,1.20882 -0.24519,1.26612 -1.79174,0.18283 -2.01751,-1.41312 -2.4612,0.79537 -0.86311,4.29623 0.8292,1.81646 2.7715,2.52606 7.80732,2.85233 l 4.48502,0.29057 3.91544,-4.06009 c 2.15344,-2.23305 4.23683,-4.0601 4.6297,-4.0601 1.15901,0 5.37621,4.34923 5.37621,5.54451 0,0.70471 -1.42227,2.41767 -4.10999,4.95002 -4.03802,3.80458 -5.53703,4.72662 -14.82089,9.1162 -2.18436,1.0328 -4.8745,2.83851 -6.47635,4.34712 -4.01754,3.78368 -4.63298,4.10575 -7.1303,3.73124 -2.03002,-0.3044 -2.19496,-0.4539 -2.94836,-2.67214 -0.43892,-1.29234 -0.92581,-4.74465 -1.082,-7.67179 -0.2855,-5.35142 -1.51748,-10.38662 -2.62793,-10.74074 -0.33374,-0.10638 -0.656,0.41641 -0.74728,1.2124 -0.0964,0.84059 -0.45894,1.39955 -0.90774,1.39955 -0.41102,0 -0.89279,0.20079 -1.07065,0.44622 -0.17774,0.24542 -0.65022,0.32079 -1.04973,0.16739 -0.50725,-0.19465 -0.73197,-1.08066 -0.74494,-2.93713 -0.017,-2.40477 -1.63974,-9.41961 -2.626,-11.35036 -0.48139,-0.94243 -2.19838,-6.91292 -3.44589,-11.98256 -0.9376,-3.81017 -1.74211,-9.32794 -2.31051,-15.84671 -0.25325,-2.90438 -0.63433,-4.13255 -1.88306,-6.06884 -4.55194,-7.05818 -6.3955,-10.12817 -8.5107,-14.17252 -2.90831,-5.56082 -2.75677,-5.32754 -3.25918,-5.01706 -0.23151,0.1431 0.68535,2.18271 2.03747,4.5325 1.35214,2.34978 2.7786,5.03864 3.16994,5.97523 0.39134,0.93661 0.94715,1.7029 1.23512,1.7029 0.28799,0 0.52361,0.33627 0.52361,0.74729 0,0.41099 0.22418,0.74726 0.49817,0.74726 0.61957,0 0.62277,4.68304 0.008,11.00477 -0.65815,6.76245 -3.36062,12.0735 -10.49724,20.62972 -1.82831,2.19201 -3.83724,4.43381 -4.46428,4.98183 -1.55315,1.35735 -4.97323,6.67943 -4.97323,7.73896 0,0.47249 -0.88959,1.77571 -1.97685,2.89607 l -1.97684,2.037 -0.81812,-1.72405 c -0.5013,-1.05639 -0.69742,-2.25606 -0.50646,-3.09784 l 0.31166,-1.37379 -1.00396,1.17609 c -1.38323,1.62037 -1.27539,3.98039 0.41798,9.1483 1.01697,3.1036 1.96694,4.94723 3.33541,6.47305 2.74472,3.06032 3.20927,3.33887 5.70444,3.42083 1.23299,0.0405 1.79345,0.18565 1.24545,0.32256 -0.54799,0.13689 -1.11241,0.43216 -1.25423,0.65613 -0.4077,0.64376 -5.03492,-1.91881 -7.09182,-3.92748 -1.38043,-1.34807 -2.14531,-2.73844 -2.92291,-5.31314 -1.58373,-5.24384 -1.74984,-8.528 -0.56727,-11.21477 1.85408,-4.21244 2.1586,-5.10526 1.8466,-5.41413 -0.17172,-0.17003 -0.85165,0.36328 -1.51072,1.18529 -1.36983,1.70844 -1.51007,1.24395 -0.49399,-1.63596 0.39012,-1.10567 0.58287,-2.13674 0.42838,-2.29123 -0.15459,-0.15459 -1.39971,0.60985 -2.7671,1.69859 -2.8387,2.2602 -3.35237,2.40194 -3.35237,0.92504 0,-0.86675 -0.19955,-0.99117 -1.1209,-0.69893 -0.6165,0.19554 -1.56225,0.38182 -2.10168,0.41394 -0.53943,0.0322 -1.66033,0.83576 -2.49091,1.78584 -2.36936,2.71029 -3.31796,3.54144 -6.11158,5.3549 -2.77709,1.80274 -3.58591,3.35799 -2.6529,5.1013 0.30369,0.56746 2.28434,2.29691 4.40144,3.8432 2.11709,1.5463 5.02067,3.94806 6.45238,5.33726 1.43173,1.38919 2.76996,2.35899 2.97386,2.15511 0.43382,-0.43383 -7.20981,-7.7909 -8.09435,-7.7909 -0.32934,0 -0.87788,-0.33627 -1.21899,-0.74727 -0.34108,-0.41101 -0.52242,-0.74728 -0.40295,-0.74728 0.85443,0 5.11976,2.56011 6.6993,4.02099 2.12661,1.96688 7.15454,7.69096 7.15454,8.14511 0,0.61343 -1.04127,0.24352 -1.99272,-0.70793 -0.54799,-0.54799 -0.99636,-0.78845 -0.99636,-0.53434 0,1.56284 5.80355,3.99278 9.6804,4.05318 1.86997,0.0292 1.93045,0.0708 0.7814,0.5389 -1.58193,0.6444 -6.6711,0.10601 -8.68652,-0.91894 -0.83941,-0.42687 -3.768,-2.94738 -6.508,-5.60112 -2.74,-2.65375 -6.06354,-5.45835 -7.38569,-6.23246 -2.56344,-1.50091 -4.81975,-4.49173 -4.81975,-6.38874 0,-1.30597 2.87706,-4.30182 5.30269,-5.52161 1.9098,-0.9604 6.588,-6.11071 6.98411,-7.68891 0.35846,-1.42823 -0.0834,-1.92382 -1.02134,-1.14544 -0.39322,0.32635 -0.82696,0.41211 -0.96387,0.19059 -0.53645,-0.86799 1.21403,-3.59526 5.36827,-8.36377 8.75029,-10.04418 9.49769,-10.93581 9.9963,-11.92511 0.27938,-0.55438 1.0058,-1.25615 1.61425,-1.55951 0.60844,-0.30333 2.09334,-1.44984 3.29977,-2.54779 l 2.19351,-1.99628 -0.17342,-9.91653 c -0.22393,-12.80335 -0.46292,-14.92889 -2.31943,-20.62745 -2.44456,-7.50362 -2.07003,-6.9164 -4.39098,-6.88437 -2.93279,0.0405 -3.29946,-0.51301 -2.58773,-3.90621 0.52627,-2.50902 0.49682,-2.88539 -0.27136,-3.46877 -0.47392,-0.35993 -1.2268,-0.66151 -1.67304,-0.67023 -1.12962,-0.022 -2.15755,2.73774 -2.02776,5.44426 0.0597,1.24393 -0.10996,2.71006 -0.37692,3.25806 -1.03933,2.13356 -1.29951,4.53422 -0.83372,7.69237 0.51544,3.49468 0.45255,10.87866 -0.0998,11.72381 -0.18377,0.28108 -0.36562,1.51987 -0.40422,2.75288 -0.0386,1.23299 -0.34165,3.47482 -0.67342,4.9818 -0.53156,2.41457 -0.73832,3.96013 -0.94459,7.06086 -0.0305,0.45848 -0.61589,1.49966 -1.30088,2.31373 -0.685,0.81409 -1.25045,2.00823 -1.25653,2.65369 -0.006,0.64543 -0.44948,1.73399 -0.9853,2.41898 -0.53581,0.685 -0.98002,1.8059 -0.98714,2.4909 -0.008,0.68501 -0.42585,1.92256 -0.93052,2.75012 -0.50468,0.82755 -1.07321,2.33419 -1.26342,3.34805 -0.19021,1.01387 -0.85593,2.46651 -1.47939,3.22806 -0.62344,0.76157 -1.63448,2.21377 -2.24672,3.22712 -0.61224,1.01335 -1.55041,1.98123 -2.08479,2.15084 -0.5344,0.16965 -0.97163,0.51746 -0.97163,0.773 0,0.25553 -0.30883,0.46461 -0.68627,0.46461 -0.37745,0 -0.94619,0.31318 -1.26386,0.69595 -1.12327,1.35346 -5.43441,2.37568 -8.44406,2.00219 -2.36481,-0.29347 -3.11328,-0.65336 -4.74576,-2.28193 -1.43188,-1.42842 -2.19882,-1.85075 -2.93603,-1.61676 -0.75803,0.24058 -1.56692,-0.26562 -3.36517,-2.10592 -3.0989,-3.17131 -5.39282,-5.16262 -5.94722,-5.16262 -0.24532,0 -0.94418,-0.88633 -1.55303,-1.96963 -1.37438,-2.44537 -2.63702,-3.1329 -2.07654,-1.13071 0.61649,2.20226 0.30132,6.18636 -0.83676,10.57682 -0.58567,2.25949 -0.93167,4.24133 -0.7689,4.40412 0.50524,0.50524 1.10605,-0.92825 1.71882,-4.10095 1.10066,-5.69885 1.14706,-5.78136 1.57317,-2.79782 0.32226,2.25634 0.20507,3.19742 -0.66389,5.33149 -0.69473,1.70616 -1.38462,2.64226 -2.01936,2.74 -0.9289,0.1431 -2.33448,3.07867 -2.35214,4.91255 -0.0132,1.31384 2.52908,3.24068 7.02208,5.32329 2.35926,1.09358 4.44618,2.24169 4.63758,2.55139 0.54186,0.87675 0.0132,0.68239 -2.53104,-0.93149 -1.29616,-0.82199 -2.65649,-1.49454 -3.02296,-1.49454 -1.34199,0 -5.41754,-2.45822 -7.29651,-4.40099 -1.0865,-1.12339 -2.23004,-1.88127 -2.61545,-1.73337 -0.4267,0.16381 -0.69149,-0.0859 -0.70249,-0.66232 -0.0151,-0.76715 -0.1463,-0.71243 -0.77132,0.32033 -0.72215,1.1934 -0.74118,1.14133 -0.45538,-1.24545 0.164,-1.37001 0.42881,-3.27555 0.58833,-4.23455 0.46679,-2.80631 -0.29684,-1.42448 -1.41092,2.5532 -0.566,2.02074 -1.38082,4.07167 -1.81074,4.55767 -0.58654,0.663 -0.63945,1.02579 -0.21196,1.45329 0.42751,0.42749 0.64928,0.36238 0.88844,-0.26086 0.1753,-0.45683 0.58907,-0.83058 0.91949,-0.83058 0.8271,0 3.53631,2.89692 3.10892,3.32432 -0.1901,0.19009 -0.61091,0.0804 -0.93514,-0.24389 -0.68541,-0.68543 -2.88114,-0.79814 -2.88114,-0.14781 0,0.24289 1.06485,0.5987 2.36636,0.79068 2.5162,0.37119 6.6941,2.23727 8.34453,3.7271 0.548,0.4947 2.0352,1.35053 3.30488,1.90187 2.08478,0.90528 2.39295,1.26112 3.17955,3.67149 1.11922,3.42959 1.53553,3.91449 3.36073,3.91449 3.30194,0 3.88445,-3.84328 1.05686,-6.9731 -0.99089,-1.09678 -1.57795,-1.99416 -1.30459,-1.99416 0.58812,0 2.63094,2.60205 3.75195,4.77901 0.53194,1.03301 1.50036,1.81097 2.93838,2.36045 1.72023,0.6573 2.15964,1.07496 2.21918,2.10934 0.0602,1.04836 -0.42467,1.6089 -2.59152,2.995 -3.60394,2.30541 -6.70881,2.18365 -6.69459,-0.26255 0.002,-0.42468 -0.66952,-1.33263 -1.49332,-2.01763 -1.08183,-0.89957 -1.61959,-1.90763 -1.93625,-3.62975 -0.56428,-3.0687 -1.62115,-4.18721 -4.84085,-5.12321 -1.43582,-0.4174 -2.88099,-1.08474 -3.2115,-1.48297 -0.83679,-1.00827 -1.47528,-0.90313 -1.47528,0.24291 0,0.53183 -0.22417,1.1055 -0.49817,1.27485 -0.274,0.16927 -0.53587,1.24743 -0.58193,2.39577 l -0.0838,2.08786 -0.19891,-1.92666 -0.19888,-1.92669 -1.03403,2.08993 c -0.66956,1.35333 -1.16528,1.87756 -1.40644,1.48735 -0.51543,-0.83399 -2.10246,2.60746 -1.89093,4.10046 0.36215,2.55631 4.99961,1.19317 5.53081,-1.62574 0.12465,-0.66125 0.25709,-0.13745 0.29439,1.16408 0.0486,1.69684 0.27095,2.36636 0.78572,2.36636 0.93805,0 1.35536,0.72559 1.48373,2.57988 0.0877,1.2669 -0.16325,1.63754 -1.56056,2.30382 -1.48784,0.70951 -1.96852,0.71721 -4.51579,0.0725 l -2.85069,-0.72159 -0.0923,-3.98546 c -0.0544,-2.35263 0.19117,-4.80184 0.59943,-5.97817 0.3804,-1.09599 0.78331,-3.50261 0.89536,-5.34803 l 0.20371,-3.35529 -1.6432,-0.5942 c -1.02755,-0.37157 -1.75199,-1.02762 -1.93356,-1.75105 -0.15967,-0.63628 -0.51026,-1.15687 -0.77904,-1.15687 -0.81584,0 -0.55435,-1.36503 0.78781,-4.11243 1.42819,-2.92347 2.93528,-10.27525 2.88453,-14.07117 -0.0218,-1.62962 0.0958,-2.14638 0.34028,-1.49455 0.50467,1.3461 0.79582,0.46348 1.31467,-3.98545 l 0.40671,-3.48726 0.28056,4.73271 c 0.1544,2.603 0.33923,4.06017 0.41095,3.23818 0.11429,-1.31134 0.18282,-1.3724 0.55852,-0.49818 0.71282,1.65885 0.54788,7.54058 -0.27984,9.97856 -0.4279,1.26035 -0.66978,2.55723 -0.53751,2.88195 0.13218,0.32471 0.2582,0.0727 0.27984,-0.55993 0.051,-1.49353 0.70196,-1.05734 1.76494,1.18274 0.46775,0.98567 0.98844,1.65412 1.15713,1.48543 0.91889,-0.91891 1.86627,-14.35609 1.10411,-15.66026 -0.31717,-0.54274 -0.47421,0.76188 -0.48445,4.02483 -0.008,2.66378 -0.23845,4.96588 -0.51333,5.13577 -0.32241,0.19925 -0.49818,-1.98756 -0.49818,-6.19787 0,-4.00506 0.19149,-6.50576 0.49818,-6.50576 0.27402,0 0.51693,0.39232 0.53984,0.87182 0.023,0.47949 0.38916,-0.50876 0.81384,-2.19613 0.74216,-2.94874 0.73087,-3.15327 -0.29075,-5.26365 -0.5846,-1.20763 -1.06293,-2.65062 -1.06293,-3.20664 0,-0.55604 -0.44835,-1.41672 -0.99635,-1.91266 -0.67148,-0.60766 -0.99637,-1.53438 -0.99637,-2.84194 0,-1.06714 -0.34762,-2.61249 -0.77249,-3.43408 l -0.77249,-1.49385 -0.95457,1.14495 c -1.18756,1.4244 -1.28084,0.80996 -0.14103,-0.92947 l 0.8466,-1.2921 -1.55365,0.80343 c -0.85451,0.44188 -3.08498,1.97615 -4.95661,3.4095 -2.68392,2.05542 -3.21631,2.32026 -2.51964,1.25346 1.01241,-1.55032 0.25462,-1.86058 -1.24019,-0.5078 -0.51342,0.46466 -1.54805,0.88739 -2.29917,0.93937 -2.06367,0.14291 -8.10106,3.26122 -8.56363,4.42315 -0.22252,0.55896 -1.15163,1.80093 -2.0647,2.75993 -0.91305,0.95899 -2.14892,2.97664 -2.74638,4.48362 -1.267,3.19589 -1.50128,2.33831 -0.38663,-1.41516 0.42342,-1.42579 0.64001,-2.80245 0.4813,-3.05924 -0.36927,-0.5975 0.59439,-2.31194 2.45117,-4.36085 0.80325,-0.88638 1.33611,-1.736 1.18411,-1.88799 -0.5573,-0.55729 -7.4773,1.24994 -9.96954,2.60366 -1.58099,0.85877 -3.22601,2.31098 -4.28365,3.78163 -0.94437,1.31311 -1.81917,2.28532 -1.94403,2.16049 -0.26264,-0.26265 1.04414,-2.42543 2.69581,-4.46166 0.62824,-0.77451 1.14227,-1.6152 1.14227,-1.86818 0,-0.74455 -2.31405,-0.52604 -2.98453,0.28183 -0.3386,0.40798 -0.78183,0.63907 -0.98496,0.51354 -0.5272,-0.32584 -2.06223,1.48575 -4.42396,5.22102 -1.1261,1.78101 -2.05214,2.85269 -2.0579,2.38152 -0.0113,-0.97726 1.51746,-3.87461 3.27754,-6.20917 1.3663,-1.81222 1.45314,-2.15052 0.55209,-2.15052 -1.18195,0 -8.03985,7.88669 -9.20541,10.58636 -0.6257,1.44927 -1.60921,1.85411 -1.60921,0.6624 0,-0.91671 3.47321,-7.76148 3.93838,-7.76148 0.19514,0 0.78999,-0.32915 1.32185,-0.73143 0.83958,-0.63502 0.85682,-0.73351 0.13086,-0.74728 -0.45994,-0.009 -1.13247,0.2644 -1.49455,0.60689 -0.36206,0.3425 -1.27481,0.94083 -2.0283,1.32963 -0.7535,0.38881 -1.36999,1.00531 -1.36999,1.37 0,0.3647 -0.21964,0.66308 -0.48807,0.66308 -0.99247,0 -2.70832,4.35351 -3.23979,8.22 -0.42892,3.12051 -0.40757,4.41792 0.0983,5.97817 l 0.64619,1.99272 -0.26058,-2.55086 c -0.14328,-1.40298 0.008,-3.75689 0.33555,-5.23089 l 0.59611,-2.68005 0.60207,4.38625 c 0.56197,4.09423 1.21196,6.24827 1.21196,4.01641 0,-0.53887 0.26903,-1.24877 0.59782,-1.57758 0.46498,-0.46496 0.46498,-0.59782 0,-0.59782 -0.32879,0 -0.59782,-0.58789 -0.59782,-1.30644 0,-1.05084 0.13387,-1.19543 0.68371,-0.73902 0.38458,0.31917 0.83414,2.09398 1.02753,4.05659 0.19345,1.96327 0.54806,3.36292 0.81083,3.20052 0.25687,-0.15873 0.46702,-0.58605 0.46702,-0.94956 0,-0.36351 0.33489,-1.30305 0.74421,-2.08786 0.4093,-0.78483 0.74558,-1.93136 0.74726,-2.54785 0.002,-0.61652 0.17115,-1.11914 0.37671,-1.11695 0.2055,0.002 0.44319,1.83968 0.52821,4.08333 0.15496,4.08766 1.00222,7.22811 1.11506,4.13269 l 0.0544,-1.49454 0.50038,1.36999 c 0.48245,1.32096 1.41369,1.89526 1.41369,0.87182 0,-0.274 0.22417,-0.49818 0.49817,-0.49818 0.274,0 0.5251,0.95278 0.55802,2.11727 l 0.0599,2.11727 0.51395,-2.14011 c 0.375,-1.56148 0.34098,-3.05691 -0.12577,-5.53098 -0.3519,-1.86499 -0.53465,-3.70421 -0.4061,-4.08715 0.1286,-0.38296 0.5199,0.81694 0.8697,2.66643 1.04431,5.52152 1.70502,4.14471 1.31488,-2.74 -0.32843,-5.79617 -0.30382,-6.04396 0.48993,-4.93317 0.71412,0.99935 0.80369,2.17338 0.61555,8.06846 -0.12107,3.7944 -0.0561,6.79759 0.14423,6.67372 0.20044,-0.1239 0.47858,0.0565 0.61812,0.4006 0.5035,1.24199 1.2859,-0.8293 1.6454,-4.35597 l 0.35551,-3.48726 0.60996,2.2418 c 0.33547,1.233 0.64967,1.79346 0.69821,1.24546 0.0527,-0.59593 0.19236,-0.73672 0.34728,-0.35031 0.28837,0.71913 -2.09108,11.31405 -2.84627,12.67354 -1.18098,2.12602 0.39484,5.27585 4.55209,9.09887 1.19163,1.09582 3.21302,3.05727 4.49201,4.35878 1.91923,1.95302 2.63825,2.36636 4.11651,2.36636 0.9851,0 2.2331,0.37844 2.77332,0.84099 0.96306,0.82461 0.94224,0.87562 -1.06758,2.61546 -1.12738,0.97594 -2.51959,2.04672 -3.09379,2.3795 -1.66404,0.96444 -4.01189,0.76992 -5.07678,-0.4206 -0.52197,-0.58352 -1.79166,-1.59638 -2.82153,-2.25078 -1.44841,-0.92034 -2.00966,-1.70264 -2.47812,-3.45422 -0.4467,-1.67008 -1.16261,-2.72081 -2.72773,-4.0033 -2.67532,-2.19223 -7.08446,-7.97395 -7.45874,-9.78067 -0.36782,-1.77555 -1.12605,-1.73036 -2.93059,0.17473 -0.80476,0.84958 -1.96129,1.73834 -2.57005,1.97504 -1.86948,0.72691 -2.61704,3.44955 -2.5901,9.43331 0.0324,7.18326 0.65647,11.30489 1.98383,13.10022 0.88622,1.19869 0.98038,1.66581 0.5335,2.64661 -0.48364,1.06148 -0.86477,1.191 -3.50421,1.191 -2.48451,0 -3.21688,-0.21486 -4.54676,-1.33387 z m 175.19523,-3.64069 c 0.69502,-0.82597 1.55258,-1.50178 1.90566,-1.50178 0.3531,0 0.91265,-0.32611 1.24344,-0.7247 0.95334,-1.1487 7.86871,-5.01472 12.17438,-6.80606 3.13882,-1.30588 4.80312,-2.43887 8.22,-5.5958 4.51122,-4.16802 5.28107,-5.30613 3.5892,-5.30613 -0.69955,0 -0.9277,-0.23339 -0.7305,-0.74728 0.32355,-0.84314 -1.06009,-1.06357 -1.56348,-0.24909 -0.16927,0.274 -0.57488,0.49106 -0.9012,0.48234 -0.32635,-0.009 -0.16137,-0.34267 0.36665,-0.74212 0.528,-0.39946 0.80735,-0.87893 0.62077,-1.06553 -0.18659,-0.18659 -0.88377,0.17229 -1.5493,0.79759 -0.96818,0.90955 -1.12165,1.36941 -0.76771,2.30035 0.52736,1.38705 0.44713,1.42045 -5.39928,2.24849 -2.27854,0.32271 -5.91528,0.48413 -8.08166,0.35871 -2.57208,-0.14894 -4.00585,-0.0409 -4.13192,0.31152 -0.36585,1.02233 -3.06026,-1.53004 -4.31813,-4.09046 -0.68499,-1.39434 -1.5017,-2.54832 -1.81488,-2.5644 -0.31318,-0.017 -0.69845,-0.36549 -0.85618,-0.77649 -0.56254,-1.46596 -1.71848,-0.7858 -2.05559,1.20953 -0.28718,1.69985 -0.49366,1.94518 -1.5724,1.86818 -1.02989,-0.0734 -1.36199,0.25148 -1.94587,1.90411 -0.502,1.42085 -0.56873,2.42161 -0.2326,3.48727 0.40023,1.26876 1.48187,11.6116 1.49784,14.3227 0.004,0.4795 0.47686,1.34354 1.0534,1.92008 1.39234,1.39232 3.56427,0.96161 5.24936,-1.04103 z m -2.26698,-10.01573 c -1.21194,-0.48458 -2.6354,-2.0146 -2.24112,-2.40888 0.11749,-0.11749 0.51578,0.19987 0.88522,0.70511 0.9193,1.25722 2.57491,1.41655 4.19334,0.40356 l 1.35192,-0.84619 -1.20774,1.34474 c -1.33704,1.48867 -1.29298,1.47683 -2.98162,0.80166 z m -168.54644,7.39305 c 0.30374,-0.3752 0.44633,-3.4667 0.35872,-7.77737 -0.14611,-7.18919 0.2194,-9.37057 1.86054,-11.10415 3.20879,-3.3895 3.72246,-4.34077 4.36162,-8.07739 0.59708,-3.49057 0.49573,-4.95222 -0.28898,-4.16749 -0.16532,0.16532 -0.49119,2.00072 -0.72424,4.07877 -0.45129,4.02413 -0.75856,4.94225 -1.50059,4.48365 -0.69683,-0.43067 -0.57648,-4.21326 0.13407,-4.21326 0.44842,0 0.44067,-0.15553 -0.0311,-0.62273 -0.50341,-0.49852 -0.71522,-0.47368 -1.06188,0.12446 -1.79868,3.10383 -1.98793,2.91557 -1.753,-1.74363 l 0.22609,-4.48363 -0.60809,4.24777 c -0.61795,4.31672 -1.56348,6.21553 -3.91532,7.86282 -0.69249,0.48505 -0.84301,0.8354 -0.46048,1.07181 0.75656,0.46758 0.92872,3.09527 0.21934,3.34808 -0.30761,0.10959 -0.72369,-0.31425 -0.92463,-0.94195 -0.82855,-2.58841 -0.80238,0.70241 0.0375,4.70295 0.50608,2.41087 0.83244,5.95034 0.78687,8.53397 -0.0427,2.42802 0.0452,4.61379 0.19575,4.85727 0.40672,0.65809 2.50853,0.53553 3.08782,-0.18001 z m 25.3956,-6.11896 c 2.02034,-1.22542 2.02683,-1.80463 0.0399,-3.56427 -0.87027,-0.77072 -2.9715,-2.8037 -4.66941,-4.51771 -3.23473,-3.26546 -3.34202,-3.28169 -4.67945,-0.70753 -0.54849,1.05564 -0.37839,1.39386 1.92663,3.83108 1.64534,1.73969 2.52821,3.10612 2.52821,3.9129 0,1.61268 1.25717,2.87702 2.38061,2.39421 0.47166,-0.20271 1.58473,-0.80961 2.47351,-1.34868 z m 51.95337,0.29307 c -0.58601,-1.09499 -1.45218,-1.74555 -1.82614,-1.37159 -0.40678,0.40676 0.99739,2.34021 1.69957,2.34021 0.48443,0 0.51593,-0.24109 0.12653,-0.96862 z m 113.05285,-10.0853 c 0.9877,-1.06018 1.36374,-2.39697 0.67424,-2.39697 -0.62702,0 -2.64757,2.15736 -2.64757,2.82684 0,0.9814 0.82622,0.80141 1.97333,-0.42987 z m 2.88745,-5.17498 c -0.49031,-0.49031 -1.3735,0.26238 -1.3735,1.17053 0,0.76046 0.0655,0.75911 0.84216,-0.0169 0.46319,-0.4632 0.70228,-0.98205 0.53134,-1.153 z m -176.28471,-6.09411 c -0.0446,-1.65165 -0.0902,-1.71203 -0.44853,-0.59331 -0.57626,1.79936 -0.57626,3.09614 0,2.73999 0.274,-0.16927 0.47583,-1.13534 0.44853,-2.14668 z m -22.08778,-7.63477 0.19669,-3.17126 -0.71515,2.98909 c -0.89578,3.74412 -0.94492,4.62012 -0.21843,3.8936 0.29712,-0.2971 0.62872,-1.96726 0.73689,-3.71143 z m 93.59818,0.95242 c 1.29979,-1.85572 0.8903,-2.81291 -0.48539,-1.13459 -0.67378,0.82199 -1.22618,1.66268 -1.22754,1.86818 -0.006,0.75536 0.95928,0.34238 1.71293,-0.73359 z m -4.19631,-0.64845 c 0.34659,-0.41763 0.49332,-0.89616 0.32606,-1.06342 -0.45193,-0.45193 -3.35749,0.86918 -3.04032,1.38236 0.432,0.69897 2.02481,0.51181 2.71426,-0.31894 z m 8.30243,-0.82207 c 1.37274,-1.28963 1.65958,-4.1996 0.365,-3.70283 -0.4334,0.16626 -0.99942,0.30239 -1.25779,0.30239 -0.44812,0 -0.88808,0.89253 -1.6576,3.36273 -0.46759,1.501 0.97016,1.52224 2.55039,0.0376 z m -36.86661,-1.50111 c -0.1591,-0.39743 -0.27708,-0.27939 -0.30098,0.30098 -0.0216,0.52515 0.096,0.81941 0.26165,0.65387 0.1655,-0.16551 0.1832,-0.59524 0.0394,-0.95485 z m 5.98309,-1.26711 c -0.12634,-0.48472 -0.23796,-0.20876 -0.24811,0.61323 -0.009,0.822 0.0932,1.21859 0.22966,0.88131 0.13651,-0.33728 0.14479,-1.00983 0.0188,-1.49454 z m 19.80492,1.00002 c 0.20648,-0.53809 0.006,-1.09607 -0.5401,-1.49455 -1.11537,-0.81559 -1.41723,-0.80011 -2.17372,0.11147 -0.49479,0.59618 -0.49479,0.89835 0,1.49454 0.83525,1.00641 2.30806,0.94595 2.71382,-0.11146 z m 16.21707,-2.95104 c 0,-0.0708 -0.26016,-0.69987 -0.57815,-1.39776 -0.65242,-1.43188 -1.65579,-1.66073 -2.10855,-0.48087 -0.40294,1.05007 -0.38684,4.44147 0.023,4.85136 0.25519,0.25517 2.66367,-2.43273 2.66367,-2.97273 z m -19.92724,0.82718 c 0.5672,-0.36159 0.61864,-0.68272 0.2135,-1.33271 -0.92875,-1.49003 -1.70805,-1.35849 -1.70805,0.28829 0,1.62246 0.2804,1.81842 1.49455,1.04442 z m -2.83829,-0.87837 c 0.11524,-0.2055 0.36118,-1.00684 0.5464,-1.78074 0.29783,-1.24442 0.21086,-1.38843 -0.75207,-1.24546 -1.32476,0.19669 -2.20861,1.47752 -1.78369,2.58485 0.31892,0.83111 1.61002,1.11753 1.98936,0.44135 z m 89.04336,-10.76587 c -0.62322,-0.62322 -0.69485,3.03727 -0.1399,7.15405 0.35042,2.59999 0.37667,2.50044 0.51359,-1.94805 0.0855,-2.77969 -0.0665,-4.8989 -0.37364,-5.206 z m -91.9235,8.13865 c 1.38613,-1.53167 0.3022,-2.13875 -1.63207,-0.91406 -0.88855,0.5626 -1.49051,1.22525 -1.33768,1.47255 0.48146,0.77899 2.02143,0.48938 2.96975,-0.55849 z m 27.36105,-0.099 c 1.04437,-1.49106 1.01819,-4.31093 -0.0439,-4.71846 -1.57069,-0.60273 -2.77995,2.65953 -1.86737,5.03765 0.416,1.08413 0.9961,0.98724 1.91117,-0.31919 z m -19.15173,-2.03133 c 0,-0.92416 -1.04331,-1.84327 -2.09236,-1.84327 -1.22269,0 -1.12719,0.77844 0.21049,1.71538 1.34969,0.94536 1.88187,0.98153 1.88187,0.12785 z m -10.992,-0.3184 c 0.59275,-0.37507 0.60363,-0.58705 0.0634,-1.23781 -1.16634,-1.40533 -3.83145,-0.68518 -3.23326,0.87368 0.34545,0.90023 2.0187,1.09247 3.16971,0.36413 z m 3.79854,-2.74619 c -0.71733,-2.82509 -1.04343,-3.12464 -1.83537,-1.68588 -0.62809,1.14108 -0.6466,1.12745 -0.95845,-0.7056 -0.17492,-1.02804 -0.0252,-3.38193 0.33271,-5.23089 0.35788,-1.84896 0.65894,-4.28708 0.66901,-5.41801 0.0113,-1.20052 0.3293,-2.31438 0.76558,-2.67646 0.65374,-0.54255 0.74726,-0.1173 0.74726,3.39687 0,2.20938 -0.22417,4.15559 -0.49817,4.32494 -0.61785,0.38185 -0.66208,2.2418 -0.0533,2.2418 0.64101,0 0.94708,-1.025 1.33815,-4.48169 0.36297,-3.20823 1.01031,-3.45452 1.31462,-0.50011 0.16927,1.64372 0.20145,1.60089 0.56091,-0.74726 0.59481,-3.88568 0.92041,-5.05718 1.1959,-4.30273 0.20266,0.555 0.32173,0.55975 0.65161,0.026 0.28667,-0.46383 0.50115,-0.2646 0.74013,0.68746 0.38478,1.53312 1.21868,1.33107 1.24237,-0.30104 0.0151,-1.06695 0.0324,-1.06976 0.74728,-0.12446 0.71677,0.94768 0.73142,0.94578 0.73142,-0.0951 0,-0.58421 -0.22419,-1.20072 -0.49819,-1.37007 -0.274,-0.16927 -0.49817,-0.85511 -0.49817,-1.52395 0,-1.27451 -1.21324,-1.70742 -1.66278,-0.59332 -0.13821,0.3425 -0.2791,-0.274 -0.31309,-1.36999 l -0.0618,-1.99273 -0.68643,1.49454 c -0.63016,1.37206 -0.66345,1.1679 -0.40619,-2.49089 0.31632,-4.49864 0.62003,-5.4832 0.6787,-2.20031 0.0217,1.21017 0.15026,1.92668 0.28571,1.59228 0.36408,-0.89851 1.71938,0.63617 3.11427,3.52643 0.8431,1.74694 1.28527,2.23201 1.58946,1.74363 0.30105,-0.48336 0.51205,-0.22696 0.73875,0.8978 0.33413,1.65777 4.56536,5.59551 6.13136,5.70604 0.44261,0.0312 1.41654,0.12954 2.16429,0.21843 1.59341,0.18944 2.21533,-0.51472 1.36234,-1.54252 -0.3877,-0.46718 -0.41344,-0.72546 -0.0723,-0.72546 0.29136,0 0.66831,0.22418 0.83766,0.49818 0.16927,0.274 0.66163,0.49817 1.09398,0.49817 0.66101,0 0.74523,-0.50885 0.52932,-3.19857 -0.25576,-3.18615 -0.26935,-3.21039 -3.49073,-6.22384 -3.08929,-2.88987 -3.24853,-3.15378 -3.55902,-5.89813 -0.17868,-1.58008 -0.73609,-3.49952 -1.23851,-4.2654 -1.1486,-1.75092 -2.8866,-2.99172 -3.58551,-2.55977 -0.29378,0.18151 -1.07803,-0.18076 -1.74276,-0.80526 -0.94653,-0.88923 -1.20857,-0.96611 -1.20857,-0.35458 0,0.42945 0.33628,0.90985 0.74728,1.06758 0.411,0.15778 0.74726,0.54541 0.74726,0.86155 0,0.3914 -0.26897,0.35664 -0.84289,-0.10883 -0.57274,-0.46458 -0.72299,-0.48413 -0.46878,-0.061 0.22999,0.38281 0.0985,0.62271 -0.34156,0.62271 -0.39362,0 -0.99475,0.33629 -1.33585,0.74728 -0.34109,0.411 -1.04109,0.74727 -1.55553,0.74727 -0.82595,0 -0.93537,0.40792 -0.93537,3.48728 0,1.95875 -0.21521,3.48726 -0.49102,3.48726 -0.27004,0 -0.74598,1.01264 -1.05763,2.25028 -0.68609,2.72476 -1.74364,3.70136 -1.28848,1.18991 0.16908,-0.93311 0.44055,-2.257 0.60322,-2.94202 0.16268,-0.68499 -0.33299,-0.006 -1.10151,1.50842 -0.76852,1.51462 -1.62094,3.08389 -1.89426,3.48727 -0.27334,0.40337 -0.52358,3.1994 -0.55612,6.2134 -0.0326,3.01399 -0.31205,6.37672 -0.62116,7.47271 -0.30911,1.096 -0.56327,2.70809 -0.56479,3.58241 -0.002,0.87434 -0.24534,1.7396 -0.54182,1.92282 -0.89564,0.55355 2.03804,3.21295 3.54431,3.21295 1.31964,0 1.32233,-0.008 0.76123,-2.21769 z m 17.61902,-15.51143 c -0.37204,-0.44828 -1.13258,-0.99995 -1.69008,-1.22593 -1.00639,-0.40791 -1.00616,-0.41109 0.0301,-0.44244 1.03563,-0.0313 3.08956,1.73032 2.59455,2.22533 -0.14197,0.14197 -0.56246,-0.10865 -0.9345,-0.55696 z m 2.3611,-1.03572 c -0.6267,-0.62668 -0.33208,-2.15877 0.41514,-2.15877 0.46498,0 0.74728,0.47049 0.74728,1.24545 0,1.20951 -0.4851,1.59065 -1.16242,0.91332 z m -10.29575,-11.62427 c -0.54799,-0.54799 -0.99637,-1.4576 -0.99637,-2.02135 0,-0.89445 0.26325,-1.0055 2.06655,-0.87182 2.62511,0.1946 3.53522,1.38244 2.1944,2.86403 -1.16551,1.28786 -1.99843,1.29529 -3.26458,0.0292 z m 1.49455,-1.52393 c 0,-1.02104 -1.21181,-1.32928 -1.75712,-0.44696 -0.39755,0.64323 0.70867,2.06189 1.31539,1.68692 0.24295,-0.15007 0.44173,-0.70814 0.44173,-1.23996 z m 17.93452,27.0523 c 0,-1.52249 -0.90829,-3.22345 -1.51953,-2.84567 -0.55056,0.34026 -0.64551,4.87708 -0.11317,5.40935 0.53143,0.53143 1.63277,-1.19785 1.63277,-2.56368 z m -35.37087,1.77916 c 0,-0.93955 -2.07822,-2.89664 -3.07592,-2.89664 -1.42665,0 -1.10931,1.83311 0.46048,2.65996 1.73105,0.91179 2.61544,0.99181 2.61544,0.23668 z m 1.73755,-5.76835 0.0627,-4.85009 -0.64193,2.49089 -0.64192,2.49091 0.26756,-3.58528 c 0.14724,-1.9719 0.087,-4.4379 -0.13368,-5.47998 -0.38613,-1.82364 -0.41108,-1.77323 -0.66474,1.34346 -0.2594,3.18692 -0.26987,3.20663 -0.66153,1.24545 -0.89268,-4.46967 -1.64847,-4.17274 -1.89907,0.74608 -0.15063,2.95798 -0.0684,3.27946 0.95598,3.72995 1.18423,0.5208 1.5956,2.8936 0.60754,3.50424 -0.30784,0.19027 0.0412,0.9688 0.87181,1.94463 0.76186,0.89505 1.48182,1.54691 1.59991,1.4486 0.11806,-0.0983 0.24293,-2.36129 0.27737,-5.02886 z m 6.98062,2.37352 c 0.16928,-0.274 0.0704,-0.49818 -0.21967,-0.49818 -0.29017,0 -0.52759,0.22418 -0.52759,0.49818 0,0.27401 0.0988,0.49819 0.21968,0.49819 0.12088,0 0.35826,-0.22418 0.52758,-0.49819 z m -11.2982,-2.14691 c 0.2383,-1.23742 -0.80311,-2.33672 -2.21367,-2.33672 -0.87813,0 -1.18447,0.27569 -1.18447,1.06599 0,2.05574 3.02885,3.18836 3.39814,1.27073 z m 39.68532,-0.30209 c 0.29731,-1.35361 -0.5058,-3.52918 -1.30277,-3.52918 -0.62972,0 -0.94634,1.64721 -0.63533,3.30506 0.38673,2.06142 1.50613,2.19087 1.9381,0.22412 z m -15.18531,-2.7819 c 0,-1.21777 -0.22537,-1.74363 -0.74727,-1.74363 -0.90768,0 -0.96748,1.15546 -0.12916,2.49766 0.82397,1.31941 0.87652,1.27419 0.87652,-0.75403 z m 17.15899,-1.85447 c 0.92586,-1.32183 1.00251,-2.95019 0.17775,-3.77497 -0.89441,-0.89441 -1.21319,-0.74472 -1.88909,0.88705 -0.63361,1.52968 -0.34022,3.99511 0.47541,3.99511 0.25325,0 0.80944,-0.49823 1.23597,-1.10719 z m -43.87629,-0.1495 c 0.3737,-0.97381 -1.3692,-2.72871 -2.71004,-2.72871 -1.46479,0 -1.08469,2.02931 0.53284,2.84473 1.60612,0.80968 1.8265,0.79793 2.1772,-0.11599 z m 7.49684,-4.83492 c 0.18678,-1.99257 0.46626,-4.0491 0.62114,-4.57004 0.2146,-0.72182 0.0902,-0.87372 -0.52316,-0.63837 -0.69761,0.26769 -0.81363,-0.23634 -0.87132,-3.78553 -0.0634,-3.9082 -0.0849,-3.98111 -0.4701,-1.60347 -0.46095,2.84525 -0.017,14.78891 0.53798,14.44643 0.20126,-0.12446 0.51873,-1.85644 0.70546,-3.84902 z m -5.59823,-1.33674 c 0.11674,-2.44162 0.45638,-4.73948 0.75476,-5.10636 0.29838,-0.36686 0.65139,-1.67587 0.78449,-2.90886 0.13312,-1.23299 0.40747,-2.74621 0.60973,-3.36272 0.22284,-0.6792 0.16381,-1.12091 -0.14988,-1.12091 -0.28469,0 -0.74191,0.72859 -1.01602,1.6191 -0.92393,3.00163 -2.6985,13.76217 -2.3985,14.54394 0.69908,1.82177 1.21729,0.48025 1.41544,-3.66419 z m -3.82672,0.16324 c 0,-1.12841 -0.25092,-1.48866 -1.12315,-1.61252 -1.50678,-0.21395 -1.9853,1.16844 -0.84182,2.43198 1.18095,1.30493 1.96497,0.97797 1.96497,-0.81946 z m 47.38983,0.058 c 0.41008,-1.06866 -0.52787,-3.5037 -1.3496,-3.5037 -0.90371,0 -1.17997,1.88667 -0.47042,3.21249 0.64114,1.19799 1.42397,1.32326 1.82002,0.29121 z m -44.73108,-6.2437 c 0.0132,-2.90191 -0.09,-3.46608 -0.46549,-2.52618 -0.70008,1.75201 -1.14732,6.78375 -0.69735,7.84545 0.34224,0.80742 0.42695,0.77005 0.76481,-0.33745 0.20899,-0.68499 0.38809,-2.92682 0.39803,-4.98182 z m -2.62546,-0.88004 c -0.48153,-0.48153 -2.77329,0.82453 -2.77329,1.58047 0,0.39699 0.61649,1.20863 1.37001,1.80366 l 1.36999,1.08185 0.15571,-2.0939 c 0.0857,-1.15165 0.0305,-2.2191 -0.12239,-2.37208 z m 48.03355,0.60164 c 0.004,-0.56414 -0.28181,-1.42155 -0.63558,-1.90534 -0.60033,-0.82099 -0.68679,-0.79821 -1.29696,0.3419 -0.56106,1.04835 -0.52962,1.41096 0.22181,2.55777 0.94438,1.44131 1.69586,1.00454 1.71073,-0.99433 z m -34.86504,-4.66942 c 0,-1.84009 -0.083,-1.94988 -1.37001,-1.81268 -0.7535,0.0804 -1.3412,0.30938 -1.30603,0.50899 0.0887,0.50265 2.15423,3.26242 2.44186,3.26242 0.12879,0 0.23418,-0.88142 0.23418,-1.95873 z m -6.00248,-3.01326 c -0.2987,-0.50981 -0.43188,0.0565 -0.40774,1.73382 0.0344,2.39961 0.0508,2.42736 0.44359,0.75709 0.22617,-0.96176 0.2102,-2.07095 -0.0358,-2.49091 z m 41.65529,2.77658 c 0.35031,-1.39571 -0.57846,-3.43341 -1.43659,-3.15188 -0.81942,0.26882 -1.03574,2.76523 -0.31491,3.63379 0.85984,1.03606 1.4084,0.88513 1.7515,-0.48191 z m -31.04951,-6.52274 c 0.24826,-0.82201 0.7152,-2.03239 1.03766,-2.68976 0.33444,-0.6818 0.5863,-3.40216 0.5863,-6.33291 0,-4.11897 -0.16381,-5.30164 -0.82569,-5.96447 -0.76889,-0.76995 -0.84681,-0.59145 -1.13329,2.59654 -0.33022,3.67478 -1.43406,8.0043 -2.6418,10.36175 -0.67269,1.31303 -0.66683,1.51719 0.0585,2.04766 0.44318,0.32406 0.80579,0.86116 0.80579,1.19354 0,1.20445 1.67242,0.24463 2.11241,-1.21235 z m 31.5696,0.14931 c -0.46449,-2.32243 -1.983,-3.16762 -2.53972,-1.41358 -0.43056,1.35661 0.5672,3.00792 1.81746,3.00792 0.90558,0 0.99961,-0.20757 0.72226,-1.59434 z m -23.9714,-3.63657 c 0.74884,-1.71119 2.24574,-10.07124 2.24574,-12.54232 0,-2.21014 -0.79976,-2.1127 -1.22409,0.14912 -0.18622,0.99274 -0.52376,2.16969 -0.75007,2.61547 -0.2263,0.44575 -1.25287,2.78131 -2.28127,5.19009 l -1.86984,4.3796 1.43546,1.49829 c 0.93039,0.9711 1.49784,1.27065 1.61275,0.85129 0.0975,-0.35585 0.47161,-1.31953 0.83132,-2.14154 z m 8.76285,1.74363 c 0.25157,0 0.47513,-0.3923 0.49676,-0.87182 0.0235,-0.5208 0.14047,-0.62109 0.29061,-0.24908 0.39309,0.97416 1.66278,0.72956 1.66278,-0.32034 0,-1.07383 -0.92785,-1.54785 -3.02983,-1.54785 -1.33757,0 -1.4538,0.14367 -1.4538,1.79694 0,1.43389 0.15929,1.73585 0.78802,1.49454 0.43341,-0.16626 0.99387,-0.30239 1.24546,-0.30239 z m 36.23487,-1.24755 c -0.31264,-0.68616 -0.66227,-1.15372 -0.77696,-1.03903 -0.23267,0.23269 0.77739,2.28658 1.1245,2.28658 0.12145,0 -0.035,-0.56139 -0.34754,-1.24755 z m -21.82838,-1.39721 c 0,-1.62044 -1.16957,-3.06652 -2.16976,-2.68271 -1.15596,0.44359 -1.01688,1.76478 0.3016,2.86469 1.48311,1.23726 1.86816,1.19976 1.86816,-0.18189 z m -39.3563,0.1832 c 0,-0.58778 -0.97162,-1.21655 -1.32849,-0.85971 -0.35684,0.35687 0.27193,1.32849 0.85971,1.32849 0.25784,0 0.46878,-0.21094 0.46878,-0.46878 z m 25.40724,-3.66612 c 0,-2.23288 -0.89021,-3.09012 -2.08556,-2.00834 -1.14503,1.03623 -1.15951,2.45738 -0.0316,3.11426 1.55399,0.9051 2.11727,0.61088 2.11727,-1.10592 z m 13.93323,-1.9678 c -0.0265,-2.72085 -1.88884,-4.24788 -3.37179,-2.76491 -1.03212,1.0321 -0.65694,2.25557 1.02127,3.3303 2.15698,1.38138 2.36907,1.33036 2.35052,-0.56539 z m -5.48365,-0.4982 c -0.0499,-0.61649 -0.0659,-1.50181 -0.0356,-1.96737 0.0618,-0.94666 2.68402,-3.08721 4.4337,-3.61908 1.03024,-0.31319 1.10906,-0.22194 0.81617,0.945 -0.31581,1.25833 0.41761,2.77327 1.34262,2.77327 0.24046,0 0.43718,-1.08745 0.43718,-2.41656 0,-2.96107 0.71622,-5.15878 2.56992,-7.88591 0.77854,-1.14537 1.41554,-2.47007 1.41554,-2.94381 0,-1.25289 -3.93496,-6.26844 -4.77587,-6.08742 -0.39276,0.0846 -1.88881,1.71236 -3.32457,3.61734 -1.86818,2.47873 -3.31614,3.82446 -5.09219,4.73271 -2.50346,1.28022 -6.24498,5.49117 -6.21808,6.99821 0.009,0.56848 0.18831,0.51591 0.74476,-0.21977 0.68637,-0.90744 0.73143,-0.85555 0.73143,0.84243 0,1.94643 0.83495,2.92478 1.54261,1.80753 0.30923,-0.48821 0.43706,-0.29079 0.44248,0.68343 0.009,1.67244 1.13267,1.82046 1.89052,0.24911 0.50004,-1.03683 0.54312,-0.98825 0.5743,0.64762 0.0352,1.84952 0.75451,2.96418 1.91264,2.96418 0.40337,0 0.64609,-0.45918 0.59248,-1.12091 z m 61.67219,-3.44828 c -0.26314,-3.67762 -0.63314,-4.55821 -1.4233,-3.38728 -0.48239,0.71485 -0.25163,5.09487 0.35118,6.66576 0.70326,1.8327 1.30595,-0.009 1.07212,-3.27848 z m -69.28695,1.7807 c 0.19783,-0.51553 -0.20241,-1.21096 -1.13655,-1.97481 -1.72831,-1.41322 -2.12121,-1.47347 -2.53733,-0.3891 -0.20832,0.54289 0.14781,1.22555 1.03977,1.99274 1.59456,1.37157 2.21658,1.45922 2.63411,0.37117 z m 72.55129,-0.26228 c 0.64367,-1.02224 -0.49672,-5.4183 -1.40559,-5.4183 -0.83567,0 -1.09004,1.24992 -0.84184,4.13646 0.21531,2.50392 1.14429,3.03377 2.24743,1.28184 z m 2.66706,-2.65409 c -0.38803,-2.83102 -1.21774,-4.88267 -1.82326,-4.50843 -0.69518,0.42966 -0.62459,1.63898 0.27183,4.65765 0.92012,3.09831 1.98256,2.99613 1.55143,-0.14931 z m -36.85353,1.13441 c 0.63418,-0.59577 1.15303,-1.35463 1.15303,-1.68636 0,-0.54108 2.05658,-2.21226 2.72247,-2.21226 0.14667,0 0.26661,0.75718 0.26661,1.68262 0,2.25068 1.10473,3.05838 4.12026,3.0125 2.27317,-0.0347 2.60936,-0.20415 4.19852,-2.11728 1.91273,-2.30269 2.38852,-2.46278 3.72494,-1.25332 0.80145,0.72531 1.15558,0.7463 2.89656,0.17172 2.48754,-0.82096 3.69873,-2.1348 3.83187,-4.15665 0.0571,-0.86577 -0.46933,-4.93213 -1.16967,-9.03636 -1.23851,-7.25816 -1.25798,-7.72137 -0.71226,-16.93815 0.30858,-5.21177 0.79783,-12.05403 1.08725,-15.20501 0.392,-4.26823 0.37381,-6.71843 -0.0714,-9.60897 -0.56914,-3.69566 -0.70032,-3.9641 -2.76272,-5.65409 -2.69886,-2.21153 -10.53599,-11.24823 -11.14558,-12.85156 -0.81476,-2.143 -5.16102,-7.7869 -5.63302,-7.31488 -0.26829,0.26828 -0.0827,1.02561 0.45929,1.87355 0.70695,1.10618 0.73465,1.28536 0.12427,0.80424 -0.63007,-0.49669 -1.28703,-0.47003 -3.32427,0.135 -1.93522,0.5747 -3.01925,1.31426 -4.55838,3.10993 -1.11065,1.29575 -2.0208,2.56245 -2.02255,2.81487 -0.002,0.25244 -0.30258,0.81288 -0.66844,1.24545 -0.36588,0.43258 -0.9596,1.57114 -1.31938,2.53013 -0.35978,0.95902 -1.27859,2.75247 -2.04182,3.98546 -0.76323,1.23299 -1.76713,3.69899 -2.23089,5.48 -0.46375,1.78099 -1.12817,3.9107 -1.47649,4.73272 -0.64965,1.53319 -1.52751,4.51778 -3.00382,10.21271 -1.1763,4.53761 -2.22577,7.96588 -2.97384,9.71452 -0.35163,0.822 -1.25491,3.17591 -2.00725,5.23091 -0.75235,2.05499 -2.00071,5.00644 -2.77412,6.55878 l -1.40624,2.82244 3.05249,3.15574 c 2.01975,2.08807 3.59475,4.33558 4.65529,6.643 1.67255,3.639 3.2841,5.56047 4.19267,4.99894 0.29329,-0.18132 0.94662,-1.15598 1.45185,-2.16606 0.50526,-1.01009 2.20903,-4.30251 3.78617,-7.31651 3.62246,-6.92263 5.95997,-13.35786 7.50381,-20.65816 0.20092,-0.95001 0.55662,-2.07091 0.79047,-2.49091 0.79822,-1.43357 4.82184,-14.70523 5.36671,-17.70177 0.29894,-1.64399 0.69539,-5.89226 0.88098,-9.44056 0.18716,-3.5797 0.62072,-6.99742 0.97376,-7.67792 l 0.63628,-1.22644 0.3146,1.25342 c 0.51788,2.06346 -0.0736,23.74523 -0.66732,24.4606 -0.29215,0.35202 -0.77739,3.65789 -1.07829,7.34635 -0.62049,7.6056 -1.97033,16.34572 -2.58295,16.72433 -0.22561,0.13953 -0.43041,-0.26411 -0.45513,-0.89678 -0.0333,-0.85577 -0.16758,-0.70384 -0.52431,0.59332 -0.26366,0.95899 -0.99735,2.86453 -1.63038,4.23454 -0.63304,1.36999 -1.52145,3.72453 -1.97422,5.23229 -0.45276,1.50776 -1.37999,3.4133 -2.06049,4.23454 -0.90339,1.09023 -1.15767,1.22429 -0.94235,0.49678 0.24704,-0.83465 0.12748,-0.79422 -0.73677,0.24909 -0.56741,0.68501 -1.03663,1.3985 -1.04273,1.58552 -0.006,0.18697 -0.45944,0.48238 -1.00744,0.6563 -0.54799,0.17398 -0.99636,0.60266 -0.99636,0.95273 0,0.35006 -0.47816,1.06355 -1.06257,1.5855 -1.05568,0.94288 -1.06018,0.94139 -0.695,-0.2308 0.52028,-1.66996 -0.70631,-1.1667 -1.74512,0.716 -0.52459,0.95075 -1.27458,1.51556 -2.14965,1.61889 -1.43992,0.17003 -2.54301,1.49332 -3.0861,3.70221 -0.2732,1.11121 -0.16192,1.38425 0.58899,1.4454 1.66257,0.13538 3.36246,0.0561 6.71824,-0.31318 2.23659,-0.24617 3.41106,-0.18603 3.64121,0.18622 0.49324,0.79808 1.27728,0.67351 1.27728,-0.20294 0,-0.79603 3.05338,-9.24986 4.40648,-12.2001 0.76143,-1.66018 0.80857,-1.68481 0.98543,-0.51446 0.10206,0.67605 -0.0604,1.31122 -0.36127,1.41152 -0.30086,0.10036 -0.54701,0.82379 -0.54701,1.60776 0,0.78398 -0.76414,3.1022 -1.69807,5.15159 -2.67647,5.87309 -2.66988,5.79448 -0.4849,5.79448 1.23397,0 2.26169,-0.3683 3.02266,-1.08319 z m 10.26553,-11.74498 c -0.17699,-0.47949 -0.55825,-1.02934 -0.84743,-1.22186 -0.32905,-0.21909 -0.0169,-0.88166 0.83548,-1.7709 0.90241,-0.94193 1.36125,-1.95739 1.36125,-3.01268 0,-1.91616 1.11117,-2.14186 2.21921,-0.45076 0.54736,0.83536 0.66402,1.84721 0.4355,3.77689 -0.25853,2.18268 -0.51914,2.71452 -1.51588,3.09349 -1.70208,0.64713 -2.12236,0.57716 -2.48813,-0.41418 z M 490.0124,-722.0272 c 0.19812,-0.92476 0.65133,-2.57813 1.00714,-3.67414 0.35581,-1.09599 0.91452,-3.3378 1.24159,-4.9818 0.32706,-1.64399 0.76346,-3.21327 0.96973,-3.48726 0.40463,-0.53746 0.61256,-1.68929 1.75376,-9.71454 0.88929,-6.25364 2.86391,-15.83418 3.11085,-15.09334 0.0966,0.28965 -0.26466,2.73927 -0.80267,5.44362 -0.53802,2.70436 -1.11923,7.04671 -1.29157,9.64972 -0.35848,5.41443 -1.65794,13.95746 -2.2354,14.69634 -0.21414,0.274 -0.66259,1.66402 -0.99654,3.08896 -0.33395,1.42493 -0.92377,2.85351 -1.3107,3.17464 -0.38693,0.32111 -0.7035,0.87944 -0.7035,1.24071 0,0.36129 -0.24815,0.81025 -0.55144,0.99769 -0.38652,0.23888 -0.44373,-0.16212 -0.19125,-1.3406 z m 27.98143,-0.13745 c -0.548,-1.42806 -0.90906,-16.03807 -0.44444,-17.98383 0.39981,-1.67432 0.47138,-1.19673 0.4479,2.98908 -0.0151,2.74 0.071,7.39176 0.19209,10.33725 0.12107,2.9455 0.18679,5.35545 0.14612,5.35545 -0.0407,0 -0.19441,-0.31407 -0.34171,-0.69795 z m -33.21692,-0.22406 c 0,-0.56726 0.94277,-3.4543 1.73243,-5.30525 0.35069,-0.822 1.02181,-3.68032 1.49136,-6.35182 1.04467,-5.94343 2.03955,-6.56196 1.60259,-0.99635 -0.32192,4.10022 -1.93409,9.75796 -3.11786,10.94174 -0.39168,0.39168 -0.71215,1.03239 -0.71215,1.42382 0,0.39143 -0.22417,0.71169 -0.49817,0.71169 -0.274,0 -0.4982,-0.19073 -0.4982,-0.42383 z m 45.18848,18.24444 c 0.42954,-0.47462 1.52685,-1.00288 2.43847,-1.17391 0.91162,-0.17096 1.9171,-0.62378 2.23443,-1.0061 0.3173,-0.38234 0.99783,-0.69516 1.51228,-0.69516 0.51446,0 0.93536,-0.33408 0.93536,-0.74241 0,-0.61711 0.17191,-0.59608 1.01821,0.12446 0.83775,0.71332 0.88189,0.89548 0.24909,1.028 -1.03288,0.21633 -0.96843,1.53314 0.20954,4.28126 0.66376,1.54849 1.27824,2.28312 1.9097,2.28312 0.51206,0 1.05567,-0.12465 1.20797,-0.27694 0.30337,-0.30337 -0.63214,-3.80583 -1.12361,-4.20669 -0.53937,-0.43992 -0.9628,-1.99272 -0.54338,-1.99272 0.22293,0 0.81109,0.44837 1.30702,0.99637 0.95195,1.05189 2.24181,1.33852 2.24181,0.49817 0,-0.274 -0.17323,-0.49817 -0.38488,-0.49817 -0.2117,0 -0.801,-0.77267 -1.30959,-1.71705 -1.46271,-2.71608 -2.91097,-3.80072 -5.19659,-3.89187 -1.12399,-0.0448 -1.80563,-0.22859 -1.51474,-0.40836 0.35421,-0.21891 0.24566,-0.88338 -0.32874,-2.01206 -1.16197,-2.28325 -1.07741,-2.25045 -2.45783,-0.95363 -1.2578,1.18167 -2.65717,2.08063 -4.62488,2.97107 -1.3339,0.60364 -1.35871,0.82772 -0.30716,2.77372 0.53408,0.98835 0.78521,2.58199 0.74148,4.70534 -0.0815,3.9603 0.60483,6.40892 0.84584,3.01737 0.0875,-1.2325 0.51065,-2.62927 0.9402,-3.10391 z m 1.4109,-11.22198 c 0.93346,-1.82563 1.82844,-2.61317 2.96964,-2.61317 0.61791,0 1.41682,-0.35348 1.77536,-0.78549 0.54005,-0.65074 0.5212,-1.05667 -0.10996,-2.36635 -2.99265,-6.21032 -3.93391,-8.35868 -4.62152,-10.54816 -1.58874,-5.05879 -3.23844,-11.01298 -3.55576,-12.83366 -0.17963,-1.03052 -0.52532,-1.99652 -0.76827,-2.14666 -0.24293,-0.15007 -0.44171,-0.60324 -0.44171,-1.00687 0,-0.40362 -0.37989,-1.56734 -0.84423,-2.58604 l -0.84421,-1.85218 -0.33936,3.48726 c -0.18659,1.91801 -0.34276,5.16863 -0.34692,7.22363 l -0.008,3.73635 0.58746,-2.98909 0.58746,-2.98908 0.37061,6.91702 c 0.20382,3.80435 0.26199,7.02562 0.12917,7.15838 -0.13275,0.13275 0.0604,0.54322 0.42939,0.91215 0.51149,0.51149 0.61331,1.94646 0.42883,6.0434 -0.13312,2.95496 -0.44433,6.15729 -0.6917,7.11628 -0.88746,3.44034 -0.76696,3.56768 2.16011,2.28278 1.43851,-0.63147 2.84839,-1.6037 3.13309,-2.1605 z m -10.23214,-49.98454 c 0,-0.29828 -1.06487,-2.70823 -2.36638,-5.35544 -2.31358,-4.70579 -2.36788,-4.92361 -2.43492,-9.76879 l -0.0685,-4.95567 -3.04509,-2.40494 c -2.95508,-2.33388 -3.27797,-2.79532 -3.05977,-4.37278 0.13482,-0.97472 2.05535,-4.10359 2.34252,-3.81641 0.12183,0.12182 -0.13161,1.06641 -0.56311,2.09918 -0.43152,1.03272 -0.6657,2.25225 -0.52039,2.71002 0.27403,0.86342 4.72586,4.589 8.85097,7.40706 l 2.37351,1.62145 1.48739,-1.05913 c 0.81808,-0.5825 1.48743,-1.30964 1.48743,-1.61582 0,-0.30617 0.49177,-1.08017 1.09284,-1.71998 0.98607,-1.04963 1.01757,-1.23856 0.3223,-1.93382 -0.42378,-0.4238 -1.64416,-1.10117 -2.71193,-1.50527 l -1.94141,-0.73476 2.15595,0.22788 c 1.18577,0.1254 2.57909,0.61083 3.09628,1.07888 0.89507,0.81002 0.96841,0.78944 1.5228,-0.42734 0.5226,-1.14698 0.42119,-1.43966 -0.98686,-2.84768 l -1.56933,-1.56933 1.12876,-1.19067 c 1.34223,-1.41586 2.42205,-1.6406 1.15485,-0.24035 -1.19746,1.32318 -0.83736,2.00507 1.4859,2.81362 2.53697,0.88294 5.17036,0.89629 5.50359,0.0279 0.14235,-0.37103 0.0322,-2.88977 -0.24478,-5.59723 -0.46612,-4.5562 -0.4288,-5.04946 0.50138,-6.62596 0.7988,-1.35387 0.90166,-1.9686 0.50138,-2.99639 -0.27698,-0.71121 -0.57007,-1.83776 -0.65131,-2.50349 -0.12898,-1.05636 -0.59148,-1.31688 -3.63498,-2.04723 -1.918,-0.46027 -3.71146,-0.70256 -3.98545,-0.53843 -0.274,0.16419 -1.48995,0.32937 -2.70214,0.36722 -1.33348,0.0416 -2.42337,0.36891 -2.7595,0.8286 -0.30558,0.41789 -1.10724,0.8376 -1.7815,0.93275 -1.05553,0.14893 -1.20418,0.39804 -1.0695,1.79224 0.13086,1.35446 -0.055,1.69969 -1.13657,2.11089 -1.21815,0.46314 -1.24956,0.55792 -0.54236,1.63723 0.69139,1.05521 0.66112,1.24248 -0.38362,2.37274 -0.62386,0.6749 -1.28558,1.62397 -1.4705,2.10903 -0.1849,0.48505 -1.0316,1.02099 -1.8815,1.19096 -0.99716,0.19944 -1.70379,0.72597 -1.99215,1.48445 -0.25342,0.66653 -0.85717,1.17538 -1.39456,1.17538 -1.75985,0 -2.28184,1.38004 -2.39242,6.32496 -0.0793,3.54141 -0.35161,5.20886 -1.09718,6.71578 l -0.99183,2.00467 1.28727,2.31637 c 1.66841,3.00225 6.70501,9.6252 9.61807,12.64744 2.21056,2.29342 3.46638,2.95648 3.46638,1.83023 z m -3.48241,-26.95276 c 0.008,-0.95406 2.29054,-5.70341 2.93302,-6.10049 0.89851,-0.5553 0.62986,0.86052 -0.67754,3.57064 -1.24245,2.57543 -2.26438,3.72168 -2.25548,2.52985 z m 11.61372,-11.73665 c -0.16852,-0.47952 -0.86826,-1.48022 -1.55485,-2.22381 -1.86278,-2.01738 -0.89163,-2.88255 3.23559,-2.88255 2.7924,0 3.19173,0.11429 3.0461,0.87181 -0.11674,0.60727 -0.80527,0.95719 -2.26909,1.15316 -3.01128,0.40316 -3.04687,0.77087 -0.17341,1.79144 2.56071,0.90947 3.57203,2.03135 1.32215,1.46665 -0.66822,-0.16776 -1.35399,-0.0798 -1.52396,0.19509 -0.49509,0.8011 -1.74888,0.57726 -2.08251,-0.37179 z m -38.76618,-0.61243 c -0.23689,-0.74636 0.31242,-1.60163 2.25991,-3.51861 3.95795,-3.89597 2.50389,-3.85537 -2.83414,0.0791 l -2.56367,1.88959 0.57095,-1.53049 c 0.53693,-1.43926 3.38146,-3.80519 5.51152,-4.58416 0.74114,-0.27104 0.82162,-0.48279 0.35926,-0.94517 -0.46239,-0.46238 -1.26209,-0.23549 -3.56949,1.01269 -2.99361,1.61938 -4.07461,2.00491 -3.19997,1.14122 0.7338,-0.72463 9.35939,-5.00592 10.09266,-5.00948 1.15954,-0.006 0.12879,0.90665 -1.40512,1.24354 -0.81885,0.17981 -1.48882,0.49601 -1.48882,0.70258 0,0.91774 0.73513,0.9003 2.57978,-0.0612 1.44107,-0.75114 1.91912,-1.27769 1.74936,-1.92685 -0.12842,-0.4913 0.0638,-1.0074 0.42741,-1.14693 0.36355,-0.13952 0.73109,0.0603 0.81676,0.4438 0.12145,0.54378 0.43019,0.47594 1.40121,-0.30793 l 1.24546,-1.00536 -1.24546,0.3041 c -1.07746,0.26308 -1.12378,0.22807 -0.34336,-0.25956 0.49612,-0.31001 1.23892,-0.4344 1.65063,-0.2764 0.41171,0.15797 1.39579,-0.0475 2.18683,-0.45649 0.79102,-0.40906 1.85289,-0.74374 2.35971,-0.74374 0.5068,0 1.18176,-0.26031 1.49989,-0.57845 0.31813,-0.31813 1.19953,-0.64464 1.95864,-0.72559 0.75912,-0.081 1.60853,-0.43713 1.88757,-0.79156 0.43909,-0.55771 5.24007,-1.12552 5.24007,-0.61972 0,0.10224 -0.92524,0.43514 -2.0561,0.73966 -1.34531,0.36225 -1.88701,0.72273 -1.56698,1.04274 0.52145,0.52145 6.65125,-0.31828 8.20102,-1.12344 0.50106,-0.26033 0.96022,-0.24531 1.13476,0.0371 0.16118,0.26089 -0.4977,0.62273 -1.46432,0.80405 -2.32091,0.43542 -2.25049,1.21318 0.11071,1.22282 1.25843,0.006 1.64408,0.14951 1.18163,0.44248 -0.37762,0.23917 -0.53026,0.68777 -0.33922,0.99686 0.48612,0.78656 1.27486,0.18132 1.27486,-0.9782 0,-0.53182 0.22418,-0.96696 0.49818,-0.96696 0.73028,0 0.60949,-1.4875 -0.12446,-1.53387 -0.49818,-0.0315 -0.49818,-0.0896 0,-0.29061 0.79044,-0.31894 0.82834,-3.65549 0.0414,-3.65549 -1.68759,0 0.8711,-0.90398 5.06484,-1.78939 1.81516,-0.38322 2.4561,-1.1997 0.94177,-1.1997 -2.7111,0 -17.06596,4.06785 -17.6416,4.99924 -0.14856,0.24046 -0.59076,0.31423 -0.98249,0.16381 -0.39176,-0.15025 -1.44943,0.10525 -2.35041,0.56801 -0.90098,0.46274 -2.75906,1.25212 -4.12905,1.7542 -6.91884,2.53557 -9.48784,3.65197 -15.44361,6.71121 -3.56199,1.82968 -6.75657,3.55876 -7.09907,3.8424 -0.44606,0.3694 -0.62489,0.32175 -0.63036,-0.16796 -0.006,-0.57006 -0.081,-0.56791 -0.44873,0.0132 -0.29742,0.46973 -0.11222,1.03768 0.56851,1.74364 0.70369,0.72975 1.07867,0.85829 1.23751,0.42425 0.1254,-0.3425 0.58025,-0.62271 1.01088,-0.62271 0.68074,0 0.66895,0.12596 -0.0904,0.96496 -1.56978,1.73459 1.37203,4.30451 5.11152,4.46537 0.93218,0.0401 1.09422,-0.14028 0.84152,-0.9364 z m 13.6967,-14.95574 c 0.41099,-0.26561 0.97145,-0.48292 1.24545,-0.48292 0.274,0 0.16193,0.21731 -0.24909,0.48292 -0.41099,0.26561 -0.97145,0.48293 -1.24545,0.48293 -0.274,0 -0.16193,-0.21732 0.24909,-0.48293 z m -2.98909,14.44724 c 0.61879,-0.39988 0.57598,-0.48292 -0.24909,-0.48292 -0.54799,0 -1.33263,0.21732 -1.74363,0.48292 -0.61879,0.39991 -0.57597,0.48293 0.24909,0.48293 0.548,0 1.33263,-0.21731 1.74363,-0.48293 z m -6.84999,-1.82448 c -0.3425,-0.1382 -0.90296,-0.1382 -1.24545,0 -0.3425,0.13821 -0.0623,0.25129 0.62272,0.25129 0.685,0 0.96523,-0.11316 0.62273,-0.25129 z m 8.07417,-0.13387 c 0.1576,-0.25506 0.0791,-0.59206 -0.17473,-0.74888 -0.64977,-0.40159 -2.09765,0.22753 -1.76446,0.76665 0.36086,0.58387 1.57423,0.57276 1.93919,-0.0169 z m 2.2631,-2.52533 c 0,-0.274 -0.2242,-0.49818 -0.49819,-0.49818 -0.274,0 -0.49818,0.22418 -0.49818,0.49818 0,0.274 0.22418,0.49819 0.49818,0.49819 0.27399,0 0.49819,-0.22419 0.49819,-0.49819 z m -4.98182,-0.69396 c 0,-0.1077 -0.33627,-0.32484 -0.74727,-0.48255 -0.41099,-0.15778 -0.74728,-0.0697 -0.74728,0.19579 0,0.26539 0.33629,0.48254 0.74728,0.48254 0.411,0 0.74727,-0.0881 0.74727,-0.19578 z m -2.97962,-1.55926 c 0.52648,-0.63436 0.49565,-0.70725 -0.1881,-0.44487 -0.44975,0.17266 -0.81772,0.51399 -0.81772,0.75867 0,0.64064 0.28838,0.55067 1.00582,-0.3138 z m 15.43416,-0.45737 c 0,-0.12088 -0.2242,-0.35824 -0.4982,-0.52759 -0.274,-0.16927 -0.49817,-0.0704 -0.49817,0.2197 0,0.29017 0.22417,0.52758 0.49817,0.52758 0.274,0 0.4982,-0.0988 0.4982,-0.21969 z m -7.22363,-0.77667 c 0.16927,-0.274 -0.0416,-0.49818 -0.46879,-0.49818 -0.42717,0 -0.77667,0.22418 -0.77667,0.49818 0,0.27399 0.21094,0.49817 0.46878,0.49817 0.25783,0 0.60733,-0.22418 0.77668,-0.49817 z m 9.46543,0 c 0.17775,-0.2875 -0.28392,-0.49496 -1.09151,-0.49055 -1.08658,0.006 -1.23235,0.11561 -0.65212,0.49055 0.95715,0.61854 1.36135,0.61854 1.74363,0 z m -6.50862,-0.94416 c 0.3332,-0.53913 -1.11469,-1.16826 -1.76445,-0.76667 -0.25374,0.15684 -0.33237,0.49382 -0.17474,0.7489 0.36496,0.59051 1.57835,0.60164 1.93919,0.0169 z m 11.24134,-0.55039 c 0,-0.274 -0.22418,-0.49817 -0.49818,-0.49817 -0.27399,0 -0.49817,0.22417 -0.49817,0.49817 0,0.274 0.22418,0.49818 0.49817,0.49818 0.274,0 0.49818,-0.22418 0.49818,-0.49818 z m -5.36471,-1.93666 c 2.26559,-1.06517 4.54906,-2.08133 5.07439,-2.25815 0.60779,-0.20458 0.78183,-0.49477 0.47861,-0.79799 -0.54988,-0.54988 -9.00215,2.15386 -10.0863,3.22643 -0.58253,0.57631 -0.44534,1.76637 0.20362,1.76637 0.11579,0 2.06408,-0.87149 4.32968,-1.93666 z m 10.26956,0.21892 c 0.11015,-0.56793 -0.0695,-0.80747 -0.49819,-0.66471 -0.36865,0.12276 -0.74776,0.62276 -0.84243,1.11111 -0.11015,0.56793 0.0695,0.80747 0.4982,0.66471 0.36865,-0.12276 0.74775,-0.62276 0.84242,-1.11111 z m -4.516,-0.55455 c 0.72783,-0.37761 0.97029,-0.74169 0.63281,-0.95025 -0.63627,-0.39324 -5.0071,1.16338 -5.0071,1.78322 0,0.5203 2.78984,-0.0113 4.37429,-0.83297 z m 15.08108,-1.46407 c -0.039,-0.73943 -1.15359,-0.6036 -1.41217,0.17209 -0.13971,0.41904 0.0881,0.60578 0.60752,0.49818 0.45703,-0.0947 0.81913,-0.3963 0.80465,-0.67031 z m 2.36837,-0.51136 c -0.15345,-0.15346 -0.43193,0.12314 -0.61902,0.61442 -0.27036,0.71 -0.21314,0.76723 0.27888,0.27888 0.34046,-0.33792 0.49354,-0.73992 0.34014,-0.8933 z m -10.32584,-0.85863 c 0.34949,-0.8905 0.67331,-1.84328 0.71963,-2.11728 0.0463,-0.27399 0.25053,-0.87976 0.45383,-1.34613 0.47919,-1.09929 -0.0866,-1.99035 -1.1351,-1.7876 -0.56677,0.10959 -0.84186,0.70358 -0.87797,1.89575 -0.029,0.95489 -0.22508,2.46476 -0.43591,3.35526 -0.24257,1.02461 -0.19543,1.61909 0.12841,1.61909 0.28144,0 0.79765,-0.7286 1.14711,-1.61909 z m 19.38932,0.31483 c 0,-0.41099 -0.22418,-0.60872 -0.49818,-0.43939 -0.27399,0.16927 -0.49819,0.64418 -0.49819,1.05517 0,0.411 0.2242,0.60872 0.49819,0.43938 0.274,-0.16928 0.49818,-0.64416 0.49818,-1.05516 z m -32.87995,-0.77872 c 0,-0.27003 -0.28023,-0.36033 -0.62273,-0.20068 -0.3425,0.15967 -1.01505,0.42868 -1.49455,0.5978 -0.47949,0.16908 -0.87181,0.4939 -0.87181,0.72167 0,0.22779 0.67255,0.17982 1.49454,-0.10676 0.822,-0.28654 1.49455,-0.74193 1.49455,-1.01196 z m 17.17714,0.6048 c 0.11185,-0.18113 0.31332,-1.71597 0.4476,-3.41095 0.21896,-2.76353 0.14819,-3.08178 -0.6858,-3.08178 -1.00145,0 -1.23403,0.52395 -1.76903,3.98546 -0.19057,1.23299 -0.59042,2.39629 -0.88852,2.58511 -0.29812,0.18882 0.18565,0.32261 1.07513,0.29731 0.88944,-0.0252 1.70872,-0.19411 1.82062,-0.37515 z m 2.25192,0.0699 c 0,-0.22655 0.68635,-0.31117 1.52521,-0.1881 1.23652,0.18151 1.57756,0.0237 1.80174,-0.83356 0.15214,-0.58157 0.41851,-1.08198 0.59206,-1.11202 0.1736,-0.0299 1.04568,-0.11598 1.93809,-0.19098 1.92772,-0.16193 3.11016,-1.02764 3.11016,-2.27692 0,-0.49827 0.2109,-1.0363 0.46867,-1.19561 0.27801,-0.17191 0.35281,0.42427 0.18396,1.46515 -0.38063,2.34557 0.59857,2.30531 1.5891,-0.0653 0.41826,-1.00106 0.8878,-1.69281 1.0434,-1.53721 0.15553,0.15553 0.0224,0.76969 -0.29599,1.36463 -0.72649,1.35745 -0.24958,1.89008 0.99594,1.11224 0.60066,-0.37513 1.06161,-0.41403 1.25219,-0.10563 0.57267,0.9266 1.76064,0.48354 2.36491,-0.88202 0.33344,-0.7535 0.89116,-1.6683 1.23936,-2.03288 0.92983,-0.97355 0.29825,-1.57894 -1.64727,-1.57894 -1.25202,0 -1.71422,-0.21883 -1.71422,-0.81162 0,-1.24171 -5.95942,-0.52299 -6.91075,0.83346 -0.37593,0.53599 -1.16055,0.95683 -1.74365,0.9352 -0.58307,-0.0217 -0.77991,-0.15233 -0.43741,-0.29061 1.20878,-0.48774 0.60441,-1.1792 -0.74726,-0.85492 -1.79345,0.43025 -1.9908,0.64505 -1.10648,1.20431 0.61465,0.38872 0.59224,0.4647 -0.13896,0.4711 -0.59578,0.006 -0.87181,0.40196 -0.87181,1.25308 0,0.685 -0.21716,1.24546 -0.48255,1.24546 -0.26539,0 -0.35423,-0.33439 -0.1974,-0.74309 0.36714,-0.95677 -1.26916,-1.62809 -1.81515,-0.74468 -0.22099,0.35758 -0.29757,0.92177 -0.17021,1.25376 0.12747,0.33199 -0.11749,0.7376 -0.54427,0.90136 -1.05701,0.40561 -1.0826,3.81628 -0.0286,3.81628 0.411,0 0.74727,-0.18528 0.74727,-0.4119 z m 3.89204,-4.91022 c 0.35962,-0.14385 0.78931,-0.12616 0.95485,0.0394 0.16551,0.16551 -0.12878,0.2833 -0.65387,0.26167 -0.58034,-0.0239 -0.6984,-0.14197 -0.30098,-0.30098 z m 10.05702,-0.099 c 0,-0.274 0.2242,-0.63674 0.4982,-0.80607 0.274,-0.16927 0.49817,-0.0838 0.49817,0.19029 0,0.274 -0.22417,0.63674 -0.49817,0.80606 -0.274,0.16928 -0.4982,0.0838 -0.4982,-0.19028 z m -6.5905,4.02006 c 0.11749,-0.35251 -0.31104,-0.59158 -1.06037,-0.59158 -1.50586,0 -2.19039,0.82738 -0.94885,1.14685 1.19515,0.30753 1.77502,0.14724 2.00922,-0.55527 z m 2.02992,-0.31661 c 0.11015,-0.56793 -0.0695,-0.80747 -0.49819,-0.66471 -0.36865,0.12276 -0.74776,0.62276 -0.84243,1.11111 -0.11015,0.56793 0.0695,0.80748 0.4982,0.66472 0.36865,-0.12277 0.74775,-0.62277 0.84242,-1.11112 z m 12.53149,-2.01862 c 1.2101,-1.23299 1.95676,-2.24181 1.65926,-2.24181 -0.29749,0 -0.81998,0.33627 -1.16108,0.74726 -0.34111,0.41102 -0.81691,0.74728 -1.05736,0.74728 -0.74805,0 -0.47859,-2.0081 0.3101,-2.31075 1.34378,-0.51565 0.84274,-1.6747 -0.72397,-1.6747 -1.27063,0 -1.61025,0.31429 -2.49092,2.30515 -1.30896,2.95916 -1.28345,3.34143 0.20413,3.05705 1.06306,-0.20322 1.1589,-0.11259 0.72975,0.6892 -0.84696,1.58255 0.23743,1.01738 2.53009,-1.31868 z m -41.47357,-2.79419 c 0.6165,-0.23062 1.1209,-0.56127 1.1209,-0.73474 0,-0.49705 -2.55061,0.27226 -3.69579,1.11472 -1.01743,0.74849 -1.01352,0.75604 0.20853,0.4011 0.685,-0.19897 1.74985,-0.55045 2.36636,-0.78108 z m 44.46266,-0.48867 c 0,-0.29859 0.50441,-0.95666 1.1209,-1.4624 1.06476,-0.87347 1.07762,-0.96355 0.25651,-1.79829 -0.82382,-0.83749 -0.87937,-0.80392 -1.18319,0.71514 -0.1753,0.87663 -0.51493,1.59388 -0.75468,1.59388 -0.23975,0 -0.43591,0.33627 -0.43591,0.74727 0,0.41099 0.22418,0.74728 0.49818,0.74728 0.27401,0 0.49819,-0.24431 0.49819,-0.54288 z m -41.84721,-0.45349 c 0,-0.274 -0.22418,-0.49818 -0.49818,-0.49818 -0.27401,0 -0.49819,0.22418 -0.49819,0.49818 0,0.274 0.22418,0.49817 0.49819,0.49817 0.274,0 0.49818,-0.22417 0.49818,-0.49817 z m 18.93087,0 c 0,-0.274 -0.44836,-0.49818 -0.99635,-0.49818 -0.548,0 -0.99637,0.22418 -0.99637,0.49818 0,0.274 0.44837,0.49817 0.99637,0.49817 0.54799,0 0.99635,-0.22417 0.99635,-0.49817 z m -16.43996,-1.04966 c 0,-0.2447 -0.33628,-0.44489 -0.74728,-0.44489 -0.411,0 -0.74726,0.32925 -0.74726,0.73164 0,0.44568 0.29207,0.61956 0.74726,0.44489 0.411,-0.15779 0.74728,-0.48695 0.74728,-0.73164 z m -4.7034,-0.18 c 0.77311,-0.58475 0.8113,-0.73461 0.19043,-0.74728 -0.42713,-0.009 -1.21177,0.31329 -1.74363,0.71559 -0.77311,0.58475 -0.8113,0.73459 -0.19043,0.74726 0.42713,0.009 1.21177,-0.31329 1.74363,-0.71557 z m 6.94521,-0.26494 c 0.16927,-0.274 -0.15365,-0.49818 -0.71788,-0.49818 -0.56417,0 -1.02576,0.22418 -1.02576,0.49818 0,0.274 0.32305,0.49817 0.71787,0.49817 0.39483,0 0.85642,-0.22417 1.02577,-0.49817 z m 13.97005,-0.0339 c 0.18095,-0.29268 0.64493,-0.41087 1.03122,-0.26263 1.35708,0.52075 3.68051,-0.27481 3.68051,-1.26022 0,-1.09173 -1.48568,-1.24963 -3.14637,-0.3344 -0.59849,0.32983 -1.31235,0.63196 -1.58635,0.6714 -0.274,0.0394 -0.77841,0.10582 -1.1209,0.14762 -0.87152,0.1062 -0.78281,1.57042 0.0951,1.57042 0.39483,0 0.86587,-0.23946 1.04676,-0.53214 z m 21.89898,-0.94463 c 0,-0.56455 -0.83939,-0.75662 -3.71226,-0.84945 -3.51673,-0.11354 -5.32598,0.40893 -4.73372,1.36724 0.14367,0.23247 2.10279,0.37521 4.3536,0.3172 3.21323,-0.0829 4.09238,-0.2622 4.09238,-0.83499 z m -38.60903,-0.54536 c 0,-0.25782 -0.22418,-0.46876 -0.49818,-0.46876 -0.274,0 -0.49817,0.3495 -0.49817,0.77667 0,0.42717 0.22417,0.63811 0.49817,0.46876 0.274,-0.16927 0.49818,-0.51883 0.49818,-0.77667 z m 5.88269,0.49023 c -0.0981,-0.29456 -0.39149,-0.53555 -0.65178,-0.53555 -0.26031,0 -0.55361,0.24099 -0.6518,0.53555 -0.0981,0.29454 0.19512,0.53555 0.6518,0.53555 0.45665,0 0.74997,-0.24101 0.65178,-0.53555 z m 23.72058,-1.26466 c 0.88902,-0.60882 0.89567,-0.6798 0.0924,-0.98801 -1.09936,-0.42186 -5.80431,0.11919 -6.42387,0.73884 -0.25741,0.25741 -0.32437,0.70042 -0.14875,0.98449 0.41813,0.67652 5.213,0.13237 6.48021,-0.73532 z m -32.7908,0.30484 c 0.27445,-0.27447 1.49624,-0.63544 2.71509,-0.80217 2.37135,-0.32438 3.09886,-0.69064 2.08843,-1.05141 -0.34422,-0.12295 -0.4773,-0.46377 -0.29575,-0.75754 0.21815,-0.35297 -0.0764,-0.42532 -0.86871,-0.21333 -0.65933,0.17643 -1.38017,0.32382 -1.60185,0.32757 -0.22167,0.004 -0.26605,0.22841 -0.0987,0.49926 0.17454,0.2824 -0.0254,0.36592 -0.46878,0.1958 -0.42524,-0.16324 -0.77314,-0.0747 -0.77314,0.19669 0,0.27136 -0.44837,0.61062 -0.99637,0.75393 -0.54799,0.14329 -0.99636,0.50572 -0.99636,0.80539 0,0.68091 0.63843,0.70348 1.2961,0.0457 z m 12.87576,-0.5399 c -0.16042,-0.25954 -0.50399,-0.34066 -0.76353,-0.1802 -0.25953,0.16043 -0.34063,0.504 -0.18019,0.76352 0.16042,0.25953 0.50397,0.34065 0.76351,0.18019 0.25954,-0.16042 0.34065,-0.50399 0.18019,-0.76351 z m 31.90989,0.0426 c -0.16927,-0.274 -0.57488,-0.49475 -0.90123,-0.49055 -0.3565,0.004 -0.29504,0.20038 0.15403,0.49055 0.95707,0.61851 1.12952,0.61851 0.74728,0 z m -6.25217,-0.49138 c 1.55792,-0.006 2.06035,-0.16343 1.69021,-0.53348 -0.7743,-0.7743 -5.76891,-0.38008 -6.05192,0.47769 -0.17191,0.52072 0.0716,0.61744 0.9572,0.38044 0.65318,-0.17473 2.18521,-0.3209 3.40451,-0.32465 z m 4.25945,-0.50497 c -0.16927,-0.274 -0.51885,-0.49819 -0.77667,-0.49819 -0.25784,0 -0.46878,0.22419 -0.46878,0.49819 0,0.274 0.3495,0.49818 0.77667,0.49818 0.42717,0 0.63811,-0.22418 0.46878,-0.49818 z m -35.12177,-0.44489 c 0,-0.24468 -0.35461,-0.58094 -0.78801,-0.74726 -1.11347,-0.42728 -1.20471,-0.3936 -1.20471,0.44487 0,0.41516 0.44282,0.74728 0.99637,0.74728 0.54799,0 0.99635,-0.20021 0.99635,-0.44489 z m 1.99273,-0.55148 c 0,-0.274 -0.22419,-0.49817 -0.49819,-0.49817 -0.274,0 -0.49818,0.22417 -0.49818,0.49817 0,0.274 0.22418,0.49818 0.49818,0.49818 0.274,0 0.49819,-0.22418 0.49819,-0.49818 z m -30.67883,231.16353 c 2.81418,-0.54221 4.31469,-2.72778 2.15796,-3.1432 -0.99048,-0.19075 -0.96632,-0.22378 0.20757,-0.28373 0.73067,-0.0373 1.45037,-0.34807 1.59932,-0.69057 0.14894,-0.3425 0.13821,0.0499 -0.0239,0.87182 -0.46153,2.34061 -2.03211,3.74595 -4.11166,3.67907 l -1.78135,-0.0572 z m -103.52891,-19.79965 c -0.1657,-0.1657 -0.31688,-2.00119 -0.3361,-4.07904 l -0.0348,-3.77786 -0.85813,2.49091 c -0.47198,1.36999 -1.12198,2.93927 -1.44446,3.48726 -0.5176,0.87957 -0.58556,0.7628 -0.57978,-0.99637 0.004,-1.09599 0.22425,-3.00153 0.49036,-4.23454 0.26611,-1.23299 0.72394,-3.80974 1.01742,-5.72609 0.29347,-1.91637 0.70833,-3.59773 0.92188,-3.73637 0.21356,-0.13858 0.55286,-0.77904 0.75401,-1.42312 0.41851,-1.34006 1.10006,-0.89281 1.34547,0.88294 0.0917,0.66355 0.44696,1.29872 0.78946,1.41153 0.43521,0.14328 0.64197,-0.51998 0.68667,-2.20282 l 0.064,-2.40785 0.52052,2.98908 0.52055,2.98909 0.57166,-2.49091 0.57166,-2.49091 0.83659,2.70588 c 0.46012,1.48821 0.83657,3.32448 0.83657,4.08058 0,0.75611 0.22419,1.51327 0.49819,1.68262 0.274,0.16927 0.49818,-0.0284 0.49818,-0.43939 0,-0.411 0.22946,-0.88908 0.50992,-1.06242 0.54318,-0.3357 0.40437,1.34856 -0.60802,7.37806 -0.61861,3.68416 -1.18809,4.48216 -2.20558,3.09065 -0.63154,-0.86368 -0.67357,-0.86174 -1.04534,0.0484 -0.28409,0.69551 -0.45374,0.29285 -0.63644,-1.51054 l -0.24909,-2.45883 -1.56703,3.05058 c -0.86185,1.67782 -1.70253,2.91507 -1.86816,2.74943 z m 6.17519,-6.39177 c 0,-0.97517 -0.18678,-1.65758 -0.41512,-1.51648 -0.39267,0.24271 -0.18659,3.28952 0.22258,3.28952 0.10582,0 0.19254,-0.79787 0.19254,-1.77304 z m -2.15059,-2.30582 c -0.15911,-0.39741 -0.27707,-0.27937 -0.30098,0.301 -0.0217,0.52515 0.0962,0.81939 0.26166,0.65385 0.16551,-0.16551 0.18321,-0.59522 0.0394,-0.95485 z m 4.89805,8.57456 c -0.2113,-0.34189 -0.13915,-0.77309 0.16042,-0.95818 0.62817,-0.38824 3.80888,-8.08195 4.86076,-11.7575 l 0.71284,-2.49091 -0.18151,3.51057 c -0.13783,2.66535 -0.55751,4.28465 -1.74322,6.72546 -2.00774,4.13301 -3.29153,5.8082 -3.80923,4.97056 z m 11.96719,-1.63116 c 0.18396,-0.6165 0.61066,-1.56926 0.94813,-2.11726 0.6914,-1.12273 1.78219,-5.20308 1.757,-6.57241 -0.0284,-1.54303 -1.78537,0.99769 -2.74307,3.9667 -0.97997,3.03802 -2.02111,4.84752 -2.78914,4.84752 -0.32273,0 -0.21674,-0.49946 0.26057,-1.22793 0.90492,-1.38104 1.05785,-2.75753 0.30639,-2.75753 -0.274,0 -0.49818,0.30883 -0.49818,0.68628 0,0.37744 -0.33626,0.96536 -0.74726,1.30646 -0.9746,0.80883 -0.94218,0.28251 0.16889,-2.74 0.50356,-1.37001 0.94222,-3.61181 0.97479,-4.9818 l 0.0593,-2.49092 -0.68374,2.40321 c -0.67663,2.37822 -3.03416,6.31497 -3.78174,6.31497 -0.40113,0 0.53875,-3.0472 1.07563,-3.48728 0.6918,-0.56709 2.02722,-7.02245 2.29039,-11.07167 0.15534,-2.39043 0.47588,-4.22669 0.71228,-4.0806 0.23639,0.14611 0.46034,2.43819 0.49766,5.09352 0.0373,2.65532 0.16532,4.26739 0.28443,3.5824 0.93634,-5.38405 1.85115,-8.55127 3.46687,-12.00302 1.31281,-2.80459 1.96367,-3.74844 2.1731,-3.1514 0.21689,0.61831 0.60746,0.1352 1.42256,-1.75954 1.61767,-3.76037 1.80991,-2.79004 0.28484,1.43778 -1.2437,3.44785 -2.09763,11.47543 -1.34946,12.68598 0.15477,0.25048 0.68966,-0.75666 1.18857,-2.23809 0.71878,-2.13426 0.86304,-2.33149 0.69479,-0.94988 -0.79645,6.53967 -0.75557,6.79064 0.40576,2.49091 0.62906,-2.329 1.39434,-4.79501 1.70063,-5.48 0.53461,-1.19562 0.55816,-1.17044 0.58847,0.62949 0.017,1.03122 -0.17077,2.26421 -0.41805,2.74 -0.83603,1.60845 -1.4947,4.8323 -1.79711,8.79572 -0.22466,2.94465 -0.62167,4.49243 -1.56543,6.10282 -0.69545,1.1867 -1.46888,2.03127 -1.71874,1.87683 -0.24986,-0.1544 -0.6065,0.1158 -0.79251,0.60057 -0.43719,1.1393 -1.74967,2.66909 -2.28995,2.66909 -0.23158,0 -0.2705,-0.50441 -0.0864,-1.12092 z m 3.56019,-3.95432 c -0.15911,-0.3974 -0.27709,-0.27936 -0.30098,0.301 -0.0217,0.52516 0.096,0.8194 0.26164,0.65385 0.16551,-0.1655 0.18321,-0.59521 0.0394,-0.95485 z m 58.28916,2.18344 c -1.57596,-1.64497 -1.80942,-2.67048 -0.29614,-1.30098 0.97668,0.88386 2.19255,2.69823 1.80822,2.69823 -0.0955,0 -0.77581,-0.62877 -1.51208,-1.39725 z m -74.07308,-0.47923 c 0,-2.20297 3.64075,-12.08516 4.23386,-11.49205 0.51004,0.51002 -2.99334,12.16245 -3.8081,12.66601 -0.23418,0.14479 -0.42576,-0.38355 -0.42576,-1.17396 z m 76.2217,0.99996 c 0,-0.55257 1.83311,-1.60793 2.18378,-1.25726 0.42615,0.42615 -0.68117,1.63559 -1.4975,1.63559 -0.37746,0 -0.68628,-0.17021 -0.68628,-0.37833 z m -2.73999,-3.60711 c 0.16927,-0.27399 0.40676,-0.49819 0.52758,-0.49819 0.12088,0 0.21968,0.2242 0.21968,0.49819 0,0.274 -0.23742,0.49818 -0.52759,0.49818 -0.29017,0 -0.38902,-0.22418 -0.21967,-0.49818 z m -72.94421,-7.76332 c 0.0239,-0.58036 0.14197,-0.6984 0.30098,-0.301 0.14386,0.35964 0.12616,0.78933 -0.0393,0.95485 -0.1655,0.16551 -0.2833,-0.12879 -0.26166,-0.65385 z m 33.91564,-5.18939 c 0,-0.685 0.11316,-0.96523 0.25129,-0.62273 0.1382,0.3425 0.1382,0.90296 0,1.24546 -0.1382,0.34249 -0.25129,0.0623 -0.25129,-0.62273 z m -60.04997,-3.19342 c -0.23997,-2.34239 -0.11278,-3.82494 0.47741,-5.56322 0.85067,-2.50558 3.17811,-6.3762 3.58775,-5.96656 0.13331,0.13331 -0.59059,2.18169 -1.60878,4.55181 -1.57483,3.66586 -1.8265,4.74711 -1.68539,7.24126 0.22299,3.94175 -0.36057,3.74246 -0.77099,-0.26329 z m 46.55977,-3.57353 c 0.0239,-0.58037 0.14197,-0.69841 0.30098,-0.301 0.14385,0.35963 0.12615,0.78932 -0.0394,0.95485 -0.1655,0.1655 -0.28328,-0.12879 -0.26164,-0.65385 z m 1.55232,-0.95485 c 0.009,-0.822 0.12183,-1.09797 0.24811,-0.61324 0.12635,0.48471 0.11806,1.15724 -0.0188,1.49454 -0.13651,0.33728 -0.23982,-0.0593 -0.22965,-0.8813 z m -17.96679,-0.24909 c -0.0273,-0.685 0.2879,-2.25427 0.70053,-3.48728 0.61348,-1.83313 0.69275,-1.92394 0.43478,-0.49818 -0.7329,4.05061 -1.08355,5.28158 -1.13531,3.98546 z m 5.11899,-2.09278 c 0.27035,-3.50422 2.13176,-7.38019 4.91636,-10.23721 2.43058,-2.49379 3.54751,-2.82467 1.68172,-0.49817 -2.21588,2.76302 -4.63833,6.54337 -5.02793,7.84633 -0.20484,0.68502 -0.69121,2.25427 -1.08084,3.48728 l -0.70842,2.24181 z m -8.14021,1.59458 c -0.0461,-1.65003 1.47462,-6.19756 2.68324,-8.02393 1.80891,-2.73345 2.02415,-2.40872 0.44792,0.67577 -0.73509,1.43849 -1.73562,3.84846 -2.22341,5.35545 -0.4878,1.507 -0.89627,2.40373 -0.90775,1.99271 z m -30.90228,-0.81461 c -0.009,-0.31103 0.30984,-1.31985 0.71011,-2.2418 0.5025,-1.15745 0.72834,-1.3679 0.72962,-0.67993 0.002,1.04298 -1.409,3.90627 -1.43973,2.92173 z m 85.19382,-2.29901 c 0.0132,-0.34249 0.57971,-1.63154 1.26075,-2.86455 1.24502,-2.25408 1.18899,-1.26935 -0.10375,1.8248 -0.71311,1.70671 -1.19675,2.14138 -1.15692,1.03975 z m -64.74429,-2.11727 c 0,-0.274 0.42956,-1.28281 0.9546,-2.24182 0.52503,-0.959 0.95459,-1.51944 0.95459,-1.24544 0,0.274 -0.42956,1.28281 -0.95459,2.24181 -0.52504,0.95899 -0.9546,1.51945 -0.9546,1.24545 z m -8.50322,-0.39348 c -0.0132,-0.67112 1.94095,-4.25315 2.51286,-4.60661 0.2981,-0.18414 0.0859,0.52915 -0.47179,1.58528 -1.26884,2.40338 -2.03117,3.53181 -2.04107,3.02133 z m 24.4184,-1.19782 c -0.008,-0.32723 0.48926,-1.12285 1.10576,-1.76805 0.6165,-0.64521 0.87206,-0.82584 0.56792,-0.40142 -0.30415,0.42442 -0.80174,1.22004 -1.10577,1.76805 -0.30401,0.548 -0.55959,0.72863 -0.56791,0.40142 z m 12.43938,-5.55087 c 0,-0.35114 -0.24271,-0.48844 -0.53934,-0.30511 -0.29663,0.1834 -0.17285,-0.37543 0.27515,-1.24169 0.44794,-0.86626 1.13902,-1.69955 1.53569,-1.85176 0.39666,-0.15214 0.72122,-0.58904 0.72122,-0.97074 0,-0.38168 0.22719,-0.69396 0.50487,-0.69396 0.29788,0 0.20447,0.71894 -0.22786,1.75363 -0.91266,2.18432 -2.26973,4.16314 -2.26973,3.30963 z"
       id="path331"
       inkscape:connector-curvature="0" />
  </g>
</svg>
