<?xml version="1.0" encoding="UTF-8" standalone="no"?>
<!-- Created with Inkscape (http://www.inkscape.org/) -->

<svg
   xmlns:dc="http://purl.org/dc/elements/1.1/"
   xmlns:cc="http://creativecommons.org/ns#"
   xmlns:rdf="http://www.w3.org/1999/02/22-rdf-syntax-ns#"
   xmlns:svg="http://www.w3.org/2000/svg"
   xmlns="http://www.w3.org/2000/svg"
   xmlns:sodipodi="http://sodipodi.sourceforge.net/DTD/sodipodi-0.dtd"
   xmlns:inkscape="http://www.inkscape.org/namespaces/inkscape"
   width="209.99995mm"
   height="161.38942mm"
   viewBox="0 0 209.99996 161.38941"
   version="1.1"
   id="svg8"
   inkscape:version="0.92.3 (2405546, 2018-03-11)"
   sodipodi:docname="festival.svg">
  <defs
     id="defs2" />
  <sodipodi:namedview
     id="base"
     pagecolor="#ffffff"
     bordercolor="#666666"
     borderopacity="1.0"
     inkscape:pageopacity="0.0"
     inkscape:pageshadow="2"
     inkscape:zoom="0.7"
     inkscape:cx="101.09058"
     inkscape:cy="300.69334"
     inkscape:document-units="mm"
     inkscape:current-layer="layer1"
     showgrid="false"
     fit-margin-top="0"
     fit-margin-left="0"
     fit-margin-right="0"
     fit-margin-bottom="0"
     inkscape:window-width="1920"
     inkscape:window-height="1017"
     inkscape:window-x="-8"
     inkscape:window-y="-8"
     inkscape:window-maximized="1" />
  <metadata
     id="metadata5">
    <rdf:RDF>
      <cc:Work
         rdf:about="">
        <dc:format>image/svg+xml</dc:format>
        <dc:type
           rdf:resource="http://purl.org/dc/dcmitype/StillImage" />
        <dc:title></dc:title>
      </cc:Work>
    </rdf:RDF>
  </metadata>
  <g
     inkscape:label="Layer 1"
     inkscape:groupmode="layer"
     id="layer1"
     transform="translate(-244.21795,543.26417)">
    <path
       style="fill:#000000;stroke-width:0.4857958"
       d="m 413.75123,-383.30346 c -1.84972,-2.99293 -2.58891,-10.54087 -1.49615,-15.27749 0.26297,-1.13979 0.53087,-4.14618 0.59537,-6.68089 0.0971,-3.81941 0.22127,-4.46769 0.72452,-3.78583 0.84755,1.14831 0.76504,6.98977 -0.16782,11.87813 -0.91591,4.7998 -0.60336,9.77089 0.81755,13.00232 1.15983,2.63767 0.90741,3.09812 -0.47351,0.86376 z m -58.8361,-0.24864 c 0,-0.20479 1.31265,-1.2086 2.917,-2.23069 3.11994,-1.98763 5.82733,-4.72171 5.82733,-5.88479 0,-0.39149 0.2186,-0.7118 0.48579,-0.7118 1.23482,0 0.31228,2.27599 -1.70664,4.21046 -2.98164,2.8569 -7.52348,5.64403 -7.52348,4.61682 z m -99.23588,-0.37843 c -0.14689,-0.14689 0.0527,-1.20592 0.44374,-2.35336 0.84278,-2.47345 3.55283,-4.84424 6.88477,-6.02292 1.25292,-0.44323 3.06898,-1.2967 4.03568,-1.89662 0.96669,-0.59988 1.99178,-1.09072 2.27797,-1.09072 1.15263,0 7.38059,-6.15127 7.38059,-7.28971 0,-0.16488 -0.46467,-0.7986 -1.03263,-1.40822 -1.1196,-1.20175 -2.04829,-1.20118 -7.03952,0.004 -2.24,0.54104 -2.64787,0.50599 -4.12927,-0.3548 -1.47591,-0.85761 -1.68403,-1.25046 -2.03823,-3.84756 -0.63622,-4.66494 -1.11035,-5.27022 -4.40734,-5.62659 -5.0739,-0.54843 -6.45907,-2.65952 -4.99028,-7.60546 0.43675,-1.47068 0.54385,-2.64968 0.27872,-3.06842 -0.63373,-1.0009 -0.50981,-2.98335 0.24902,-3.98403 0.60769,-0.80137 0.73467,-0.68886 1.50818,1.33657 0.74201,1.94291 0.7701,2.56275 0.23134,5.10159 -0.33732,1.58947 -0.48342,3.22841 -0.32467,3.64208 0.15882,0.41367 1.4673,1.27339 2.90794,1.91051 2.70458,1.1961 4.29116,2.87089 6.0616,6.39864 1.22295,2.43683 2.56485,3.07046 7.30471,3.44915 2.04609,0.16341 4.42807,0.584 5.29332,0.93445 l 1.57315,0.63722 0.76917,-2.76617 c 0.42305,-1.52139 1.31787,-4.73363 1.98849,-7.13832 0.67063,-2.4047 1.60727,-5.2466 2.08142,-6.31534 0.47415,-1.06875 1.00601,-2.54035 1.18188,-3.27022 0.1759,-0.72986 0.97245,-2.07037 1.77015,-2.97891 1.65331,-1.88301 1.76464,-2.66441 0.67876,-4.76426 -0.55453,-1.07234 -0.69038,-2.1931 -0.48285,-3.9837 0.15882,-1.37036 0.42004,-4.18924 0.58049,-6.26417 0.27679,-3.57929 0.22303,-3.86559 -1.04924,-5.58666 -0.73754,-0.99772 -1.9918,-2.50979 -2.78723,-3.36013 -0.79544,-0.85036 -1.80466,-2.59923 -2.24271,-3.88637 -0.66472,-1.9532 -0.99571,-2.3403 -2.00107,-2.3403 -0.66253,0 -1.46299,0.16763 -1.77877,0.37259 -0.38169,0.24767 -0.626,-0.0565 -0.72871,-0.90722 -0.13991,-1.15908 -0.54406,-1.39069 -4.28377,-2.45501 -5.42517,-1.54401 -7.00501,-2.31713 -9.57401,-4.68516 -2.15214,-1.98377 -4.02827,-5.2843 -4.02827,-7.08665 0,-0.53326 -0.21862,-1.10468 -0.48581,-1.26982 -0.26718,-0.16506 -0.48578,-1.80468 -0.48578,-3.64346 0,-1.83877 0.2186,-3.47834 0.48578,-3.64347 0.26719,-0.16507 0.48581,-0.62879 0.48581,-1.03034 0,-1.58004 2.61533,-6.1301 4.67315,-8.13019 1.19364,-1.16016 3.25379,-2.61689 4.5781,-3.23715 1.32431,-0.62029 2.40785,-1.3234 2.40785,-1.56247 0,-0.92068 -1.03869,-2.31401 -1.72503,-2.31401 -1.96758,0 -4.54183,-1.28274 -5.56196,-2.77149 -1.22957,-1.79445 -1.1302,-4.45552 0.22218,-5.94988 0.9438,-1.0429 0.94994,-1.48034 0.0208,-1.48034 -0.40078,0 -0.7287,-0.21861 -0.7287,-0.48579 0,-0.26719 -0.30139,-0.48579 -0.66975,-0.48579 -0.36837,0 -0.93313,-0.71049 -1.25501,-1.57885 -0.3219,-0.86835 -0.78562,-1.95843 -1.03054,-2.42239 -0.51124,-0.96851 -0.50997,-3.45552 0.002,-5.2289 0.22837,-0.79002 0.087,-1.63893 -0.40438,-2.42896 -0.70816,-1.13844 -0.70274,-1.17274 0.0863,-0.54778 0.74258,0.58817 0.84176,0.54726 0.84176,-0.34724 0,-0.99803 -1.75343,-2.37146 -2.31309,-1.8118 -0.43686,0.43686 -1.71568,-3.16505 -1.73313,-4.88146 -0.009,-0.99361 0.58971,-2.34015 1.74105,-3.9086 1.25633,-1.71147 1.6292,-2.59392 1.30956,-3.09923 -0.2458,-0.38855 -0.45024,-1.5224 -0.45434,-2.51967 -0.006,-1.49183 0.37952,-2.21705 2.17574,-4.09168 2.27016,-2.36928 3.74409,-2.62132 1.66046,-0.28395 -1.57885,1.7711 -2.87205,4.17526 -2.87205,5.33931 0,0.51906 0.43722,1.44788 0.97159,2.06401 1.09453,1.26199 1.18808,1.11843 0.48175,-0.73931 -0.60083,-1.58035 0.65473,-4.71256 2.60993,-6.51085 1.78864,-1.64511 1.59541,-0.74534 -0.49028,2.283 -1.56175,2.26758 -1.70511,2.71519 -1.2145,3.79198 0.93233,2.04624 0.63419,3.76982 -1.13157,6.54145 -1.90067,2.98345 -2.12769,4.48586 -0.81821,5.41515 1.59834,1.13429 1.96504,2.54374 1.867,7.17602 l -0.0958,4.52641 1.86634,1.17818 c 1.86105,1.17481 1.86577,1.18603 1.66099,3.93919 -0.11292,1.51857 -0.51414,3.48916 -0.89155,4.37911 -0.62333,1.46992 -0.60487,1.67753 0.20144,2.26711 0.48818,0.35697 1.93561,0.79317 3.21652,0.96934 1.8459,0.25388 2.71499,0.71567 4.19028,2.22649 1.4872,1.52304 2.2144,1.90619 3.61777,1.90619 2.77843,0 6.80772,1.3874 9.64518,3.3211 3.05353,2.08096 6.69531,6.91598 7.89969,10.48798 0.71793,2.12934 1.02255,2.48491 2.23651,2.61068 1.23429,0.12779 1.4698,-0.0643 1.93457,-1.57868 0.85833,-2.79668 5.94382,-9.83844 9.61554,-13.31443 1.87476,-1.77481 4.71382,-3.88037 6.30899,-4.67903 2.50277,-1.25305 3.40326,-1.44464 6.5695,-1.3978 3.09464,0.0457 4.2367,0.31734 7.29331,1.7343 4.04145,1.8735 6.437,4.17996 8.5829,8.26364 1.25711,2.39232 1.34954,2.96642 1.35174,8.39742 0.002,5.14507 -0.16176,6.3144 -1.39535,9.95881 -0.76875,2.2711 -1.66624,4.45718 -1.99444,4.85797 -0.3282,0.40078 -1.30872,2.085 -2.17895,3.74274 -0.87021,1.65772 -2.34362,3.90358 -3.27424,4.99079 -0.93061,1.08722 -1.57868,2.27211 -1.44016,2.6331 0.13862,0.361 1.29447,0.81271 2.56874,1.00379 1.69595,0.25433 2.74788,0.77842 3.92501,1.95555 1.50068,1.50068 1.60813,1.82587 1.60813,4.86704 0,3.14675 0.0376,3.24836 1.09303,2.95187 0.60117,-0.16892 2.16233,-0.59332 3.46926,-0.94318 2.83518,-0.75896 3.43214,-1.4846 4.72779,-5.74665 0.7939,-2.61153 1.4328,-3.6647 3.26008,-5.37391 2.1639,-2.02407 7.01812,-4.73739 8.47536,-4.73739 0.83248,0 1.9999,-2.35044 2.7357,-5.50797 0.65064,-2.79201 1.70401,-4.33327 3.68624,-5.39364 1.55704,-0.83292 4.14778,-2.5686 5.97997,-4.00633 1.39576,-1.09525 3.59041,-7.32059 2.98171,-8.45797 -0.23143,-0.43245 -0.92301,-1.11534 -1.53681,-1.51753 -0.6138,-0.40218 -1.97118,-2.2913 -3.01639,-4.19805 -1.4684,-2.67877 -2.14432,-3.46683 -2.97351,-3.46683 -1.23974,0 -1.84961,-0.64474 -2.49012,-2.63246 -0.33558,-1.0414 -0.96323,-1.59326 -2.36346,-2.07802 -2.49863,-0.86505 -4.53699,-2.89636 -6.81483,-6.7913 -1.02021,-1.7445 -2.30488,-3.45791 -2.85479,-3.80757 -3.54614,-2.25485 -6.8455,-3.95855 -10.84698,-5.60105 -0.60653,-0.24897 -1.33099,-1.05654 -1.60991,-1.79458 -0.83635,-2.21312 -3.41035,-5.94987 -4.50023,-6.53316 -0.56081,-0.30014 -2.55575,-0.70278 -4.43319,-0.89474 -2.68609,-0.27464 -4.08645,-0.74214 -6.5712,-2.19373 -6.96522,-4.06904 -7.51307,-4.20047 -14.15848,-3.39619 -1.77543,0.21486 -3.77118,0.25435 -4.43499,0.0878 -2.31581,-0.58123 -7.61793,-6.14339 -5.85618,-6.14339 0.17939,0 1.70501,0.67182 3.39051,1.49296 2.83588,1.38153 3.49119,1.50027 8.78271,1.5912 5.17549,0.0891 5.95854,0.22381 8.25066,1.42094 1.39289,0.72745 3.29369,1.99097 4.22399,2.8078 1.63074,1.4318 1.7841,1.46811 4.26867,1.0106 2.18168,-0.40174 2.91259,-0.32881 4.76323,0.47527 1.20233,0.52242 2.8419,1.56915 3.64345,2.32607 3.4697,3.27646 6.91607,6.73782 8.392,8.42845 1.05305,1.20623 2.00575,1.82174 2.81974,1.82174 1.85665,0 5.39571,1.78628 6.37777,3.21908 1.16114,1.69406 4.14781,4.54843 4.76229,4.55133 0.27003,0.001 1.45039,1.20467 2.62302,2.67419 2.23699,2.8034 2.80818,3.14297 3.26857,1.94318 0.45313,-1.18084 1.82216,-0.8408 3.42266,0.85016 2.00411,2.11735 2.66435,3.51282 2.31693,4.89702 -0.19329,0.77016 0.0846,1.70346 0.83839,2.81548 1.00158,1.47762 1.95371,3.49349 3.3788,7.1537 0.36676,0.94198 0.57117,1.03762 1.16474,0.545 0.39595,-0.3286 0.99166,-1.16248 1.32383,-1.85303 0.58394,-1.21407 2.00474,-2.3315 5.16538,-4.06256 1.08331,-0.59333 1.51099,-1.18045 1.51099,-2.07429 0,-0.6857 0.5465,-2.11248 1.21449,-3.17062 0.66796,-1.05813 1.21447,-2.1169 1.21447,-2.35284 0,-0.64264 4.4394,-4.56675 6.2825,-5.55327 1.50826,-0.80731 1.59131,-0.98273 1.30704,-2.76044 -0.39479,-2.4689 0.15699,-3.81377 2.68547,-6.5461 2.29629,-2.48133 3.46141,-3.34845 5.26666,-3.91953 1.12438,-0.35568 1.15901,-0.32045 0.48579,0.49431 -0.39868,0.4825 -0.72488,1.33382 -0.72488,1.89181 0,0.69394 -0.58754,1.30148 -1.85934,1.92265 -1.85406,0.90551 -1.85844,0.91469 -1.54144,3.21961 0.28753,2.0906 0.1814,2.46806 -1.10951,3.94983 -0.78509,0.90109 -1.77448,2.31636 -2.19867,3.14506 -0.89793,1.75422 -3.94301,4.56574 -4.94503,4.56574 -0.40554,0 -0.82308,0.7106 -1.01328,1.72446 -0.17792,0.94845 -1.09137,2.64265 -2.02984,3.76492 -0.93848,1.12225 -2.0565,2.77369 -2.48449,3.6699 -0.55569,1.16357 -1.57886,2.03364 -3.57883,3.0432 -2.29723,1.15965 -2.80066,1.63419 -2.80066,2.63997 0,0.94957 0.51406,1.52334 2.2787,2.54343 3.01372,1.74215 5.49402,4.28324 5.49402,5.6287 0,0.60931 0.76328,1.81825 1.74174,2.75873 0.95794,0.92077 2.05661,2.27532 2.44146,3.01009 0.38484,0.73476 0.9106,1.33593 1.16835,1.33593 0.25775,0 1.34107,-1.84501 2.40737,-4.10002 2.5436,-5.37925 4.90182,-7.29256 12.15872,-9.86485 1.43442,-0.50843 3.60347,-0.74991 6.30832,-0.7023 3.50071,0.0617 4.56279,0.28972 7.04405,1.51267 3.58832,1.76861 7.851,5.85394 9.16353,8.78233 1.37403,3.06559 1.64335,9.46798 0.59258,14.08781 -0.96954,4.26274 -3.44812,8.09685 -6.46997,10.00843 -1.13556,0.71831 -2.06464,1.5041 -2.06464,1.74619 0,0.9709 3.39781,1.79935 7.37992,1.79935 4.1273,0 5.78462,0.42403 8.28165,2.11882 2.00437,1.36041 7.73553,2.8412 8.50969,2.1987 0.87728,-0.72806 1.2682,-0.16561 0.66643,0.9588 -0.35615,0.66545 -0.33933,1.10187 0.0578,1.49898 0.42309,0.4231 0.0729,0.56022 -1.4308,0.56022 -1.33081,0 -2.93359,-0.51907 -4.83366,-1.56544 -2.71497,-1.49514 -3.06021,-1.56133 -7.68577,-1.47369 -4.39653,0.0834 -5.03664,-0.0217 -6.9419,-1.13822 -1.15433,-0.67649 -2.86579,-1.90341 -3.80322,-2.7265 l -1.70445,-1.49654 -2.62636,0.89274 -2.62637,0.89272 0.2973,2.169 0.2973,2.16899 -1.59456,-0.31892 c -0.877,-0.17535 -1.89515,-0.31891 -2.26253,-0.31891 -0.36738,0 -0.66798,-0.32791 -0.66798,-0.72869 0,-0.40078 -0.2186,-0.7287 -0.48579,-0.7287 -0.26719,0 -0.48579,0.32792 -0.48579,0.7287 0,0.40078 -0.32251,0.72869 -0.71668,0.72869 -0.54607,0 -0.61604,0.26467 -0.29397,1.11178 0.23248,0.61149 0.57095,2.74292 0.75213,4.73651 0.3884,4.27362 -0.62315,8.21479 -3.00001,11.68855 -2.21884,3.24283 -3.05683,5.09422 -3.05683,6.75362 0,1.25964 0.27587,1.62157 1.6847,2.21019 0.92657,0.38716 2.116,0.70392 2.6432,0.70392 0.52719,0 1.11185,0.24809 1.29926,0.55132 0.24695,0.39959 -0.31342,0.45566 -2.03595,0.20375 -1.70025,-0.24866 -2.82608,-0.77837 -3.95554,-1.86111 -0.86837,-0.83246 -1.57885,-1.74943 -1.57885,-2.03777 0,-0.28832 1.40407,-3.29673 3.12016,-6.68534 3.38043,-6.67505 3.97515,-9.18133 3.31618,-13.97484 -0.33365,-2.42706 -0.47844,-2.67188 -1.58009,-2.67188 -1.62842,0 -1.8878,-1.84875 -0.51912,-3.69999 l 1.02149,-1.38163 -1.80081,-0.75243 c -0.99045,-0.41383 -2.28895,-0.87493 -2.88554,-1.02468 -1.38496,-0.34758 -5.04443,-3.46192 -5.04443,-4.29295 0,-0.34724 -0.29944,-0.87989 -0.66545,-1.18363 -1.37184,-1.13853 -3.64239,-6.64434 -3.97832,-9.64696 -0.22026,-1.96881 -0.55861,-3.03621 -0.96244,-3.03621 -0.98369,0 -2.87996,-2.55676 -4.06895,-5.48626 -0.79691,-1.96346 -1.40436,-2.76534 -2.25694,-2.97933 -1.7546,-0.44037 -4.30454,-2.89891 -5.30286,-5.11276 -0.95981,-2.1285 -1.95061,-2.53675 -2.43702,-1.00417 -0.168,0.52961 -1.27586,1.65972 -2.46173,2.51131 -1.18583,0.85163 -2.15608,1.82707 -2.15608,2.16766 0,1.08384 -2.24669,3.27901 -3.93922,3.8489 -1.40882,0.47435 -1.68266,0.83187 -1.98254,2.5885 -0.47659,2.79183 -2.12477,5.5604 -3.95312,6.64045 -0.83864,0.4954 -2.4266,1.73196 -3.52879,2.74793 -1.11118,1.02426 -2.73809,1.98662 -3.65172,2.16011 -2.35749,0.44768 -2.66759,0.81849 -3.79889,4.54305 -1.08371,3.56791 -2.80716,6.06541 -4.54987,6.59341 -0.58944,0.17865 -1.57251,0.78328 -2.18459,1.34377 -0.61209,0.56049 -1.81445,1.24584 -2.67188,1.523 -2.13361,0.68966 -1.95533,1.60491 0.5764,2.95906 4.61234,2.46699 6.02564,4.92882 5.53861,9.64765 -0.21444,2.07782 -0.0836,2.86304 0.64345,3.8604 0.50196,0.68862 1.18208,1.2589 1.51137,1.26731 1.22738,0.0312 4.88501,4.13933 5.42029,6.08771 0.82682,3.00966 0.4276,7.17422 -0.67524,7.04404 -0.26719,-0.0316 -0.60444,0.44523 -0.74945,1.05947 -0.46493,1.96952 -1.07888,0.056 -1.25617,-3.91518 -0.21571,-4.83195 -0.79618,-5.68691 -5.18127,-7.63133 -2.77907,-1.23229 -3.52698,-3.05125 -2.82378,-6.86765 0.74857,-4.06256 -0.0529,-5.6527 -4.70122,-9.32697 l -2.45319,-1.93912 -0.52613,1.50929 c -0.28938,0.83011 -0.52614,1.91685 -0.52614,2.41498 0,0.49813 -0.19813,1.28529 -0.44031,1.74925 -0.24218,0.46394 -0.68927,1.77626 -0.99352,2.91623 -0.30424,1.13998 -1.15958,2.77954 -1.90075,3.64347 -0.93752,1.0928 -1.51926,2.533 -1.91178,4.73294 -0.96695,5.41939 -2.18984,7.05484 -3.47693,4.64989 -0.93884,-1.75423 -0.25512,-5.19781 1.4607,-7.35688 0.93577,-1.17751 1.43304,-2.36186 1.43304,-3.41303 0,-1.84676 1.11029,-6.39609 1.96695,-8.05943 0.31941,-0.62019 1.15416,-1.74205 1.85503,-2.49303 l 1.27425,-1.36543 -1.20714,-0.91055 c -1.08491,-0.81834 -1.22476,-1.31961 -1.38101,-4.94992 -0.21377,-4.96638 -0.91413,-5.95887 -4.50491,-6.38414 -1.96886,-0.23318 -2.96424,-0.0532 -5.19855,0.93994 -1.62175,0.72087 -4.13573,1.34555 -6.08504,1.51207 -3.16319,0.27018 -3.31122,0.33808 -3.1037,1.4236 0.29895,1.56381 -0.81272,3.06464 -1.65479,2.23409 -0.33861,-0.33399 -1.2236,-0.60725 -1.96662,-0.60725 -1.44336,0 -1.51831,0.15478 -2.08046,4.29529 -0.6365,4.68828 -2.68655,6.77039 -11.0177,11.19011 -1.94882,1.03386 -3.75249,2.21137 -4.00816,2.61668 -0.36059,0.57165 0.35748,1.53895 3.20135,4.31248 2.0164,1.96653 4.18618,4.53425 4.8217,5.70601 0.63556,1.17179 1.44077,2.59275 1.78937,3.15767 0.70329,1.13975 0.43901,7.79787 -0.34731,8.74995 -0.59753,0.7235 -1.21835,4.17922 -0.75079,4.17922 0.20491,0 1.10367,-0.55763 1.99725,-1.2392 1.37089,-1.04563 1.62469,-1.10976 1.62469,-0.41051 0,0.75356 0.0916,0.74578 1.01063,-0.0859 1.00594,-0.91037 1.00986,-0.90708 0.85014,0.70981 -0.14119,1.42858 -0.51186,1.81493 -3.07526,3.20489 l -2.91478,1.58052 0.0632,4.36076 c 0.07,4.82308 0.95041,7.43856 2.94412,8.74487 0.9407,0.61638 1.41222,0.65418 2.47781,0.19865 l 1.31604,-0.56258 -1.16075,0.99072 c -0.76474,0.6527 -1.51056,0.88477 -2.18607,0.68017 -1.82897,-0.55391 -4.16806,-2.63769 -4.47273,-3.98451 -0.16341,-0.72275 -0.60239,-2.39217 -0.97536,-3.7098 -0.37296,-1.31764 -0.6781,-3.00301 -0.6781,-3.74527 0,-1.72956 -2.30784,-4.03737 -3.253,-3.25294 -0.40386,0.33518 -0.85341,0.35978 -1.24062,0.0679 -0.33398,-0.25178 -1.56876,-0.76145 -2.74396,-1.13262 -2.04187,-0.64488 -2.24139,-0.61642 -4.49388,0.64118 -2.64832,1.47863 -4.3681,1.66415 -5.44489,0.58736 -0.4008,-0.40078 -0.8611,-0.7287 -1.02293,-0.7287 -0.16176,0 -1.58876,1.38387 -3.17097,3.07525 -2.44108,2.60952 -3.79576,3.52945 -8.94532,6.0745 -5.51963,2.72795 -6.24061,3.23946 -7.97025,5.6549 -1.04592,1.4606 -2.02187,2.53544 -2.16877,2.38852 z m 35.35373,-18.65056 c -0.16506,-0.26718 -0.88851,-0.48245 -1.6075,-0.47835 -1.0225,0.006 -1.14853,0.10998 -0.57857,0.47835 0.95986,0.62032 2.56944,0.62032 2.18607,0 z m 6.01955,-5.63142 c 0.56347,-2.96369 1.02449,-6.37921 1.02449,-7.59009 0,-2.86911 -1.81408,-6.23415 -4.99815,-9.27128 -3.28087,-3.12947 -3.91827,-3.43462 -4.90253,-2.34702 -1.10942,1.22587 -3.50172,6.28515 -3.93547,8.32276 -0.19907,0.93515 -0.7673,2.60176 -1.26273,3.70355 -0.49541,1.10182 -1.12443,3.00133 -1.39779,4.22115 -0.27337,1.21982 -0.93939,3.34008 -1.48004,4.71173 -0.54065,1.37164 -0.84072,2.72409 -0.66683,3.00547 0.43442,0.70289 5.04152,0.17957 6.90566,-0.78439 2.07737,-1.07425 4.28948,-0.93708 7.10219,0.44038 1.3246,0.64871 2.44848,1.13373 2.49753,1.07786 0.049,-0.0558 0.55019,-2.52643 1.11367,-5.49012 z m -30.06643,3.00754 c 0,-0.10723 -0.76513,-0.64636 -1.7003,-1.19812 -1.82161,-1.07477 -1.9826,-1.01381 -1.19738,0.45337 0.41699,0.77919 2.89768,1.41675 2.89768,0.74475 z m 85.01426,-10.67361 c 0,-3.19468 -1.27973,-5.64864 -3.39605,-6.5122 l -1.59702,-0.65164 1.35567,1.6078 c 1.80503,2.14074 2.54949,4.09946 2.48016,6.5254 -0.0406,1.41953 0.11952,1.93495 0.54999,1.76976 0.37719,-0.14468 0.60725,-1.18247 0.60725,-2.73912 z m -93.54773,0.71863 c 0.14762,-0.23869 -0.24128,-0.56186 -0.86399,-0.71815 -2.07993,-0.52201 -3.71587,-2.20225 -3.7608,-3.86254 l -0.0417,-1.54359 -0.45043,1.45739 c -0.63054,2.04017 -0.16377,3.49718 1.39026,4.34043 1.50335,0.81572 3.32568,0.97534 3.72673,0.32646 z m -3.82832,-11.53732 c -0.16359,-0.65171 -0.5096,-1.05378 -0.76895,-0.89351 -0.62682,0.3874 -0.59492,1.33355 0.10099,2.99581 0.5636,1.34626 0.57557,1.34977 0.76895,0.22512 0.10814,-0.62836 0.0626,-1.67568 -0.10099,-2.32742 z m 89.20078,0.31219 c -0.18934,-1.98533 -1.05484,-2.75634 -1.05484,-0.93965 0,0.86861 0.78459,2.88283 1.12296,2.88283 0.0645,0 0.0338,-0.87443 -0.0681,-1.94318 z m -13.42353,-8.55868 c 0.22468,-2.24796 0.16745,-2.67105 -0.26868,-1.98337 -0.30486,0.48078 -0.66047,2.12034 -0.79023,3.64346 -0.17259,2.02597 -0.10043,2.55836 0.26868,1.98339 0.27756,-0.43227 0.63315,-2.07183 0.79023,-3.64348 z m -40.17227,2.81559 c 1.73029,-1.18768 6.25229,-3.48702 6.85778,-3.48702 0.26691,0 1.71317,-0.78548 3.2139,-1.74549 3.34611,-2.14048 4.44688,-4.32899 4.90193,-9.74596 0.30103,-3.58347 0.26965,-3.76947 -0.52512,-3.11368 -0.73452,0.60609 -0.90307,0.60609 -1.28659,0 -0.69366,-1.09621 -0.5364,-2.16477 0.51538,-3.50188 0.53438,-0.67935 0.9716,-1.36466 0.9716,-1.52291 0,-0.15827 -0.43722,-0.28772 -0.9716,-0.28772 -0.53437,0 -0.97159,-0.23388 -0.97159,-0.51972 0,-0.28584 -0.65583,-1.47292 -1.45739,-2.63795 -0.80156,-1.16503 -1.45739,-2.33389 -1.45739,-2.59748 0,-0.26357 -0.23823,-0.55864 -0.52943,-0.6557 -0.86876,-0.28959 -2.86034,-6.66245 -3.18977,-10.20694 l -0.30668,-3.29984 h -1.76267 c -1.73963,0 -1.78704,0.0536 -3.62754,4.09739 -1.68165,3.69482 -3.71308,6.35019 -6.24884,8.16813 -0.77172,0.55326 -0.78266,0.73349 -0.12136,1.99954 0.95223,1.82327 0.98276,1.7662 -0.9449,1.7662 -0.91938,0 -1.78893,0.18983 -1.93231,0.42182 -0.1434,0.23201 0.0263,1.52824 0.37708,2.88053 0.46126,1.77823 1.33852,3.22542 3.16965,5.22899 4.59474,5.02737 5.17639,7.34556 3.23896,12.90881 -0.86586,2.48623 -0.95201,4.48446 -0.24989,5.79635 0.61787,1.15453 0.73054,1.15715 2.33689,0.0545 z m 0.91204,-23.96811 c -1.51581,-2.64117 -1.08788,-3.72476 1.60558,-4.06563 1.19132,-0.15074 1.44374,-0.009 1.44374,0.81382 0,1.01691 -1.31779,4.15745 -1.8939,4.51351 -0.17516,0.10814 -0.69504,-0.45956 -1.15542,-1.2617 z m 52.30705,22.05009 c -0.16506,-0.82554 -0.82159,-1.99079 -1.45884,-2.58946 -1.31571,-1.23603 -2.19894,-0.89297 -1.05616,0.41022 0.41146,0.46923 1.1185,1.58391 1.5712,2.47711 0.97246,1.91868 1.3625,1.79557 0.9438,-0.29787 z m 62.28326,-9.25185 1.02244,-1.24281 0.87151,1.33009 c 0.60233,0.91927 1.02727,1.17434 1.37581,0.8258 0.69847,-0.69846 -1.47143,-2.94615 -2.84421,-2.94615 -1.22343,0 -2.37901,1.13434 -3.10753,3.05049 -0.49161,1.29302 -0.46803,1.32536 0.57345,0.78689 0.59735,-0.30885 1.5462,-1.12078 2.10853,-1.80431 z m 22.66011,1.54148 c 1.00195,-0.16562 1.82172,-0.56533 1.82172,-0.88826 0,-1.07394 -2.42964,-1.71483 -6.45963,-1.7039 l -3.98497,0.011 1.21449,0.98426 c 2.30244,1.86597 3.8124,2.19149 7.40839,1.5971 z m -96.21186,-2.70012 c -0.32063,-0.32064 -0.61571,-1.46831 -0.65574,-2.55043 -0.0576,-1.55846 -0.11604,-1.67755 -0.28082,-0.57283 -0.26949,1.80639 0.21537,3.70621 0.94581,3.70621 0.43593,0 0.4337,-0.14009 -0.009,-0.58295 z m 81.45936,-2.47922 c 1.08874,-0.7205 2.14817,-1.31785 2.35429,-1.32747 0.87328,-0.0408 3.00689,-2.34166 4.26317,-4.59758 0.74398,-1.33595 1.85758,-3.19411 2.47469,-4.12926 1.44898,-2.19581 2.62539,-6.76891 2.61939,-10.18233 -0.007,-4.58294 -2.12925,-8.00743 -7.34678,-11.86096 -2.1837,-1.61283 -7.89764,-2.89288 -11.05224,-2.47597 -5.4257,0.71705 -11.52652,3.70861 -13.61441,6.67586 -1.45129,2.06252 -3.39436,6.14937 -3.70111,7.78457 -0.7911,4.2169 2.07877,11.64006 6.28161,16.24786 2.96556,3.25133 5.52727,4.62824 9.27713,4.98644 4.87165,0.46537 6.34182,0.27018 8.44426,-1.12116 z m -8.68715,-1.55288 c 0,-0.40078 0.25723,-0.72871 0.57162,-0.72871 1.05876,0 7.11595,-4.42324 9.39773,-6.86267 2.48971,-2.66167 6.01676,-9.60005 6.42417,-12.63749 0.32159,-2.39759 1.07436,-2.43196 1.16303,-0.0531 0.16194,4.34479 -0.74251,9.99007 -2.12095,13.23795 -0.93765,2.20933 -4.19048,5.52533 -6.65187,6.78104 -2.46988,1.26005 -8.78373,1.44909 -8.78373,0.263 z m 8.81136,-17.90309 c -1.14355,-1.21725 -1.36325,-3.19588 -0.45568,-4.10347 0.32063,-0.32062 1.3002,-0.58296 2.17684,-0.58296 1.30716,0 1.65032,0.22492 1.90766,1.25032 0.37721,1.50288 -0.38669,3.36239 -1.66157,4.04467 -0.73605,0.39394 -1.14401,0.26774 -1.96725,-0.60856 z m 1.57737,-1.99746 c 1.04255,-1.59112 0.98974,-2.16585 -0.17112,-1.86229 -1.29152,0.33773 -2.12963,1.42881 -1.78581,2.32482 0.40703,1.06065 1.06003,0.90631 1.95691,-0.46253 z m -69.16587,16.74288 c 0.006,-0.4008 0.14523,-1.27523 0.31147,-1.9432 0.21851,-0.8777 0.1524,-1.07611 -0.23847,-0.71546 -0.56206,0.51861 -2.51754,5.81166 -2.49097,6.74252 0.0226,0.79201 2.40734,-3.23576 2.41797,-4.08386 z m -36.40118,-0.58658 c -0.65381,-1.87551 -0.33808,-2.26487 0.91617,-1.12979 0.99653,0.90184 4.0731,1.10102 7.04492,0.45608 2.15624,-0.46792 8.09682,-3.68022 8.41578,-4.55068 0.15056,-0.41101 0.99708,-1.60253 1.88106,-2.64783 5.28356,-6.24768 8.03661,-19.19916 5.5718,-26.21197 -0.4995,-1.42118 -1.70784,-3.83404 -2.68521,-5.3619 -1.56647,-2.44878 -2.22154,-2.9902 -5.5286,-4.56939 -7.89796,-3.77144 -13.81849,-1.76435 -20.32917,6.89164 -1.23113,1.63681 -3.13532,4.72488 -4.23152,6.86237 l -1.9931,3.88637 -0.0147,5.82955 c -0.0147,5.58843 0.0501,5.96657 1.56374,9.14257 0.86837,1.82216 1.57884,3.46562 1.57884,3.65214 0,0.96909 2.55037,3.89038 3.6338,4.1623 0.68688,0.17241 1.68361,0.74819 2.21494,1.27953 0.96423,0.96421 0.96236,0.96546 -0.98394,0.65425 -1.86055,-0.29752 -1.95001,-0.25327 -1.95001,0.96475 0,0.90544 0.25423,1.27659 0.87444,1.27659 0.48092,0 1.11835,0.24392 1.41648,0.54204 0.29814,0.29813 1.05233,0.8002 1.67601,1.11568 1.40718,0.71186 1.7068,-0.0129 0.92868,-2.2443 z m 2.87712,-2.67006 c -0.8273,-0.30104 -3.40057,-2.60433 -3.40057,-3.04379 0,-0.15901 1.14768,-0.31105 2.55043,-0.33788 3.52038,-0.0674 8.89027,-2.85923 12.56254,-6.5315 3.15649,-3.1565 6.03009,-8.61431 6.8519,-13.01383 0.6929,-3.70947 0.91583,-4.35335 1.22176,-3.52851 0.46982,1.26681 -1.18614,8.14656 -3.51543,14.60487 -1.66855,4.62635 -6.26756,10.05576 -9.75044,11.511 -1.61039,0.67287 -5.10424,0.85486 -6.52019,0.33964 z m 0.76293,-16.13948 -1.36818,-1.42805 1.07093,-1.73281 c 1.14592,-1.85415 1.47381,-2.02799 2.28845,-1.21334 0.53684,0.53683 0.31061,4.77067 -0.29039,5.43472 -0.18287,0.20215 -0.94832,-0.27508 -1.70081,-1.06052 z m 3.61224,-9.74603 c -0.56997,-1.06498 -0.62869,-2.92644 -0.11696,-3.70951 0.57475,-0.87957 3.45762,-1.3203 4.26318,-0.65175 0.76329,0.63347 1.00797,4.11208 0.25657,3.6477 -0.24873,-0.15368 -0.57623,-0.0788 -0.7278,0.16635 -0.15166,0.24525 -0.93045,0.67419 -1.73084,0.9532 -1.23807,0.43159 -1.52824,0.37098 -1.94407,-0.40603 z m 2.79031,-0.7976 c 1.39839,-0.37476 1.61274,-3.09893 0.24289,-3.08694 -1.11773,0.009 -1.81755,0.51825 -2.22308,1.61524 -0.57622,1.55868 0.0147,1.99827 1.98019,1.4717 z m -36.79902,20.54152 c 0,-1.27896 -1.10721,-1.70851 -2.87829,-1.11663 -2.47425,0.82688 -2.28889,1.50994 0.45162,1.66439 1.82829,0.103 2.42667,-0.0319 2.42667,-0.54776 z m -2.7691,-1.69389 c 2.82681,-1.02237 5.60674,-2.83966 5.65699,-3.69809 0.0147,-0.25257 0.55101,-1.0177 1.19162,-1.70028 1.66971,-1.77912 3.20743,-4.8881 3.20743,-6.48484 0,-1.90512 -0.69042,-1.28728 -2.16792,1.94 -1.8988,4.14751 -4.22151,6.71562 -6.89906,7.62795 -3.37005,1.1483 -5.94926,1.00656 -7.69299,-0.42276 l -1.45739,-1.19461 1.55812,-0.0184 c 1.67021,-0.0187 9.85809,-5.10738 9.85809,-6.12666 0,-0.29774 0.41723,-0.91894 0.9272,-1.38046 0.50995,-0.46151 1.19639,-1.48896 1.5254,-2.28325 0.73606,-1.77701 0.31338,-2.84337 -2.57977,-6.50833 -2.05806,-2.60712 -3.70766,-3.51161 -7.94164,-4.35448 -1.66215,-0.33088 -3.78201,-2.31322 -4.29714,-4.01841 -0.18159,-0.60117 -0.56612,-1.09303 -0.85444,-1.09303 -0.90355,0 -5.56938,3.31748 -6.91504,4.9167 -4.15591,4.93902 -5.24397,12.81438 -2.53408,18.34162 3.166,6.45756 11.62932,9.27207 19.41462,6.45641 z m -13.16502,-13.29485 c -0.87984,-0.87985 -0.70009,-3.05316 0.3592,-4.34263 0.89136,-1.08505 1.01572,-1.10676 2.30753,-0.40284 1.7457,0.95125 2.05205,2.94147 0.66612,4.32742 -1.12329,1.12327 -2.45996,1.29094 -3.33285,0.41805 z m 3.20626,-1.45738 c 0.7964,-0.79638 0.73454,-2.30414 -0.10778,-2.62738 -1.59686,-0.61277 -3.5375,1.73495 -2.38597,2.88646 0.51559,0.51559 1.85861,0.37607 2.49375,-0.25908 z m 89.47112,12.8493 c 1.19556,-2.53814 1.91806,-5.43109 1.4315,-5.7318 -0.51666,-0.31931 -2.10042,2.99503 -2.62286,5.4889 -0.40388,1.9279 0.32743,2.07701 1.19136,0.2429 z m 7.2994,-8.86577 c 0,-0.60867 -0.51553,-0.60867 -1.45738,0 -0.58926,0.38079 -0.51952,0.47234 0.36435,0.47836 0.60117,0.004 1.09303,-0.21117 1.09303,-0.47836 z m 14.81466,-0.96818 c 0.3222,-0.52132 -4.50506,-5.61699 -4.9241,-5.19792 -0.39393,0.39391 0.76155,2.36204 2.40794,4.10147 1.58536,1.67494 2.037,1.87175 2.51616,1.09645 z m -9.4709,-6.37452 c 0,-2.55277 -1.4581,-0.66561 -2.21787,2.87051 l -0.28242,1.31451 1.25015,-1.36302 c 0.76292,-0.83181 1.25014,-1.93164 1.25014,-2.822 z m -81.26572,2.82718 c -1.4046,-0.60796 -4.72014,-4.42001 -4.72014,-5.42699 0,-0.96232 -2.32012,-2.83391 -3.12853,-2.52369 -0.60205,0.23102 -0.31536,0.9077 1.46136,3.44933 2.70397,3.86809 4.25076,5.1372 6.2263,5.1086 l 1.51332,-0.0218 -1.35231,-0.58533 z m -0.0165,-2.58268 c 0.16524,-0.43056 -0.0916,-1.46894 -0.57068,-2.30753 -1.36459,-2.38856 -4.72773,-6.67793 -5.01258,-6.39308 -0.14138,0.14138 0.19268,0.74818 0.74249,1.34829 1.3979,1.52582 3.05248,4.95945 3.05248,6.33456 0,1.82638 1.21306,2.51677 1.78829,1.01776 z m -5.41583,-5.98749 c -0.40576,-0.78461 -0.98019,-1.57644 -1.27653,-1.75959 -0.29637,-0.18306 -0.85363,-1.08644 -1.2384,-2.00731 -0.77308,-1.85027 -3.11864,-3.13454 -5.8671,-3.21246 -2.20998,-0.0626 -2.6495,0.52684 -2.03963,2.73561 0.55723,2.01811 0.91433,2.22417 6.40794,3.69757 1.85054,0.49631 3.60547,1.14323 3.89981,1.43758 0.86733,0.86732 0.89826,0.62536 0.11384,-0.8914 z m 93.64056,-2.53647 c 1.1249,-0.57655 1.79973,-1.13205 1.49962,-1.23443 -0.50727,-0.17315 -4.06941,1.65447 -4.06941,2.0878 0,0.36832 0.52879,0.19272 2.56979,-0.85337 z m -10.98072,-1.85505 c -1.02299,-2.32862 -1.79075,-3.11083 -1.79075,-1.82449 0,0.60583 2.27876,4.24202 2.65843,4.24202 0.10686,0 -0.28351,-1.08788 -0.86766,-2.41753 z m -93.60616,1.19645 c 0,-0.13716 -0.20488,-0.62908 -0.45531,-1.09304 -0.25044,-0.46396 -0.95298,-1.89792 -1.56123,-3.18659 -1.09996,-2.3304 -1.71685,-3.07271 -2.17379,-2.61578 -0.31338,0.31338 1.25031,5.75254 1.87948,6.53767 0.46837,0.58444 2.31085,0.86967 2.31085,0.35774 z m 109.30406,-5.58005 c 0,-0.53439 -0.0837,-0.9716 -0.18625,-0.9716 -0.10245,0 -0.30056,0.43721 -0.44031,0.9716 -0.13972,0.53437 -0.056,0.97158 0.18623,0.97158 0.24218,0 0.44033,-0.43721 0.44033,-0.97158 z m -18.09861,-1.07014 c 1.03592,-0.85974 0.68295,-2.06909 -1.11151,-3.80836 -1.42771,-1.38379 -1.7995,-1.54513 -2.17865,-0.94545 -0.5233,0.82771 -0.62175,3.89697 -0.16323,5.09165 0.32881,0.85688 2.23908,0.67 3.45346,-0.33784 z m -5.26007,-1.99927 c -0.11127,-0.085 -1.39447,-1.23274 -2.85143,-2.55042 -2.53574,-2.29337 -2.6042,-2.3233 -1.60143,-0.70017 0.57618,0.9326 1.76482,2.08029 2.64144,2.55042 1.41354,0.7581 2.37243,1.12873 1.81142,0.70017 z m -96.14709,-10.302 c 0,-0.82853 -2.1804,-1.82812 -3.3623,-1.54142 -0.54726,0.13275 -0.39779,0.33852 0.52178,0.71833 0.70882,0.29274 1.43219,0.76438 1.6075,1.04805 0.47219,0.76397 1.23302,0.62517 1.23302,-0.22496 z m 82.37786,-3.39898 c -0.51488,-0.38953 -1.05507,-0.58929 -1.20043,-0.44393 -0.30492,0.30492 0.92889,1.17206 1.65076,1.16016 0.26719,-0.004 0.0646,-0.32671 -0.45033,-0.71623 z m -8.30047,-5.10067 c -1.48648,-2.35473 -2.14974,-2.29368 -0.94022,0.0865 1.11429,2.19285 1.84392,3.06159 2.05057,2.4416 0.0924,-0.27688 -0.40736,-1.41453 -1.11035,-2.52813 z m -9.1022,-7.88393 c -0.11127,-0.33399 -0.82181,-0.60725 -1.57884,-0.60725 -0.75702,0 -1.46751,0.27326 -1.57883,0.60725 -0.13734,0.41218 0.36973,0.60724 1.57883,0.60724 1.20909,0 1.71623,-0.19506 1.57884,-0.60724 z m -20.28197,-5.67876 c 2.14587,-0.42391 2.12798,-0.43081 -0.97159,-0.37544 -1.73673,0.031 -4.36003,-0.10704 -5.82955,-0.30675 l -2.67188,-0.36316 1.21449,1.04897 c 1.2789,1.1046 2.65153,1.104 8.25853,-0.004 z m 45.02833,138.89708 c 0.48081,-0.44114 5.37449,-1.17628 4.94858,-0.74339 -0.16672,0.16928 -1.43677,0.48713 -2.82255,0.70621 -1.38578,0.21906 -2.34251,0.23579 -2.12603,0.0373 z m 10.09933,-6.75558 c -1.86705,-0.44776 -3.94865,-1.80427 -4.34212,-2.82963 -0.2801,-0.7299 -0.23453,-0.73096 0.56646,-0.0129 0.76192,0.68285 6.06999,2.80833 7.0134,2.80833 0.19057,0 0.69002,-0.34353 1.10987,-0.7634 1.0599,-1.05988 0.97037,-4.51103 -0.19666,-7.58242 -1.0545,-2.77518 -1.02086,-3.46606 0.0852,-1.7496 1.74971,2.71541 2.43161,7.60862 1.3436,9.64156 -0.53479,0.99929 -2.66984,1.18611 -5.57971,0.48825 z m 20.65647,-3.28158 c 0,-1.56124 1.78474,-6.30332 2.21165,-5.87639 0.0865,0.0865 -0.18195,1.18739 -0.59639,2.44645 -0.86465,2.6264 -0.61869,3.76236 0.81463,3.76236 1.37419,0 5.13375,-2.0442 7.77182,-4.22581 l 2.1861,-1.80782 -1.70029,1.85168 c -2.63049,2.86473 -7.06919,5.63934 -9.02157,5.63934 -1.59594,0 -1.66595,-0.0753 -1.66595,-1.78981 z m -8.07652,-0.42105 c -1.18023,-1.80125 -2.61898,-7.37674 -2.56076,-9.92353 l 0.0501,-2.19659 0.45498,1.94317 c 1.86008,7.9442 2.92893,10.41145 4.09216,9.44606 0.38292,-0.31779 0.69621,-0.75439 0.69621,-0.9702 0,-0.21585 0.66928,-1.83845 1.48731,-3.6058 1.41823,-3.06405 2.85836,-8.48186 2.8764,-10.82104 0.006,-0.60117 0.22705,-1.09306 0.49424,-1.09306 1.2001,0 -0.0217,6.57744 -1.94018,10.44463 -0.26512,0.53437 -0.81924,1.95531 -1.23139,3.15767 -1.79098,5.22461 -2.81664,6.06447 -4.41917,3.61869 z m -52.06499,-3.23007 c -0.85642,-0.8564 -0.71118,-1.5856 0.17002,-0.8542 0.6204,0.51488 0.88731,0.49077 1.51488,-0.13679 0.99774,-0.99772 0.35671,-1.97729 -1.11041,-1.69683 -1.65867,0.31708 -1.42725,-0.37569 0.42129,-1.26113 0.86837,-0.41592 1.86259,-1.21978 2.20939,-1.78635 0.93387,-1.52564 2.72537,-1.11658 2.92941,0.66886 0.25619,2.24173 -0.26996,3.39096 -2.08597,4.55636 -1.90082,1.21982 -3.17805,1.38075 -4.0487,0.51008 z m 5.50236,-3.82973 c 0.35297,-1.11211 -0.0641,-1.90265 -1.00387,-1.90265 -0.75656,0 -1.46901,2.07853 -0.98236,2.86595 0.43612,0.70566 1.64217,0.12081 1.98623,-0.9633 z m 79.42227,-1.6813 c -1.19823,-0.65612 -1.9212,-1.19295 -1.60661,-1.19295 0.60262,0 4.02806,1.89984 4.02806,2.23408 0,0.28124 -0.0307,0.26809 -2.42145,-1.04113 z m -30.80358,-13.13468 c -0.48598,-1.26642 -0.33417,-3.37012 0.28808,-3.99237 0.32063,-0.32061 1.05383,-0.58295 1.62935,-0.58295 1.22329,0 3.61724,2.05622 3.61724,3.10694 0,1.83943 -4.89405,3.13785 -5.53467,1.46838 z m 4.07729,-1.19093 c 0.61484,-0.41099 0.51162,-0.67902 -0.66068,-1.71551 -0.76418,-0.67564 -1.63861,-1.14545 -1.9432,-1.04405 -0.93473,0.3112 -0.95219,1.94639 -0.0279,2.62218 1.04034,0.76071 1.65162,0.79262 2.63185,0.13734 z m 34.12715,-1.69474 c -1.5078,-1.06654 -1.37098,-2.17785 0.54043,-4.389 1.50482,-1.74084 1.73231,-1.84462 2.88856,-1.31779 1.30964,0.59671 2.03942,2.74541 1.714,5.04655 -0.13716,0.96949 -0.47802,1.17906 -2.10676,1.29504 -1.19381,0.085 -2.3647,-0.15973 -3.03623,-0.6348 z m 4.15219,-0.9434 c 0.11842,-0.11842 0.0755,-0.7719 -0.0953,-1.45232 -0.2448,-0.97538 -0.61327,-1.23711 -1.74154,-1.23711 -1.76518,0 -2.85514,1.58248 -1.8905,2.74481 0.55611,0.67008 3.03875,0.63319 3.72732,-0.0555 z m -111.35012,-1.1649 c -0.54924,-0.8887 -0.45613,-3.45359 0.16764,-4.61922 0.89066,-1.66421 3.33501,-2.82218 4.56631,-2.1632 0.79105,0.42337 0.89202,0.85988 0.65728,2.84194 -0.39843,3.36399 -1.15974,4.35913 -3.33487,4.35913 -0.98871,0 -1.9141,-0.18838 -2.05641,-0.41865 z m 3.63391,-2.51322 c 1.90009,-1.0169 0.7508,-3.83976 -1.25062,-3.07174 -1.04003,0.39909 -1.50996,2.60082 -0.66879,3.13354 0.84711,0.53648 0.79858,0.53805 1.91941,-0.0619 z m -58.32742,-3.86787 c 0,-1.20101 2.99798,-4.58737 4.90235,-5.53739 0.77713,-0.38769 1.41299,-0.53692 1.41299,-0.33161 0,0.54359 -1.68422,1.98124 -2.32106,1.98124 -0.81842,0 -3.15529,3.27881 -2.7752,3.8938 0.19672,0.31831 0.95197,0.41332 1.86338,0.23442 1.14599,-0.22492 1.34878,-0.17278 0.80389,0.20701 -0.40078,0.27933 -1.43917,0.51119 -2.30753,0.51528 -1.25668,0.006 -1.57882,-0.19051 -1.57882,-0.96275 z m 5.73846,-0.33325 c 0.35067,-0.14027 0.76968,-0.12301 0.93111,0.0384 0.16139,0.16139 -0.12559,0.27624 -0.63761,0.25516 -0.56594,-0.0233 -0.68104,-0.13844 -0.2935,-0.2935 z m 2.03426,-0.61754 c 0.40078,-0.27123 1.1477,-0.49648 1.6598,-0.50055 1.2429,-0.009 0.85514,0.2681 -0.93111,0.66767 -1.06434,0.23806 -1.26085,0.19301 -0.72869,-0.16709 z m -10.4097,-3.36629 c -0.41622,-0.67347 0.96051,-4.72559 2.09601,-6.16915 1.35415,-1.72151 1.29668,-1.18886 -0.18774,1.74051 -1.14705,2.26359 -1.54267,3.88636 -0.94747,3.88636 0.54864,0 3.19485,-1.53058 6.39181,-3.69704 l 3.29999,-2.23627 -2.91478,2.70364 c -3.82607,3.54892 -6.93808,5.06595 -7.73782,3.77195 z m -5.64302,-2.26842 c -0.69835,-0.84147 -1.4785,-5.07499 -0.93521,-5.07499 0.19068,0 0.48199,0.84603 0.64733,1.88009 0.35625,2.22784 1.1732,3.0421 2.6616,2.65289 1.14395,-0.29915 2.23315,-2.02372 3.32313,-5.26168 l 0.65413,-1.94318 -0.1913,2.31641 c -0.26484,3.20664 -2.25963,6.18502 -4.14244,6.18502 -0.76505,0 -1.67281,-0.33957 -2.01724,-0.75456 z m 124.20637,-4.90067 c -1.3641,-1.47113 -1.75349,-4.19563 -0.6933,-4.85087 1.61536,-0.99835 3.22749,-0.63642 4.71585,1.05874 2.30432,2.62447 1.88022,4.24617 -1.27552,4.87732 -1.19866,0.23972 -1.70337,0.0404 -2.74703,-1.08519 z m 3.78759,-0.45194 c 0.90207,-0.90206 0.91029,-0.96915 0.26645,-2.17217 -0.75675,-1.41402 -2.33134,-2.11312 -3.17759,-1.41082 -0.98191,0.81494 -0.86672,2.23414 0.27396,3.3748 1.17142,1.17142 1.63718,1.20819 2.63718,0.20819 z m -122.02149,-8.20473 c -1.38712,-1.38698 -1.37956,-2.25245 0.0314,-3.57788 2.96965,-2.78985 5.14329,0.78355 2.38637,3.92313 -0.91487,1.04185 -1.04969,1.02259 -2.41768,-0.34525 z m -4.25073,-18.61729 c -1.5184,-0.32739 -2.18671,-1.08569 -2.17863,-2.47195 0.0147,-2.40154 1.3819,-3.24569 3.51458,-2.16891 2.40193,1.21273 1.25432,5.19937 -1.33595,4.64086 z m 1.70029,-3.07637 c 0,-0.78907 -0.22599,-0.96916 -0.97158,-0.77416 -0.53439,0.13972 -0.9716,0.043 -0.9716,-0.21492 0,-0.25795 -0.2186,-0.33389 -0.48579,-0.16873 -0.26719,0.16506 -0.48581,0.72455 -0.48581,1.24315 0,0.72384 0.33865,0.94294 1.45739,0.94294 1.16029,0 1.45739,-0.20963 1.45739,-1.02826 z m 184.90118,2.25983 c -1.20348,-1.83672 -1.00187,-3.9049 0.49543,-5.08269 0.70401,-0.55376 1.6391,-1.00685 2.078,-1.00685 1.38126,0 2.95735,1.44775 2.95735,2.71651 0,1.18356 -1.19868,3.49764 -2.17487,4.19864 -1.01203,0.72675 -2.59373,0.33763 -3.35591,-0.82561 z m 4.05687,-2.4152 c 0.53711,-1.0036 0.51781,-1.29926 -0.12687,-1.94402 -1.52676,-1.52676 -4.61783,0.75938 -3.25197,2.40513 0.9267,1.11661 2.66123,0.87991 3.37892,-0.46111 z m -92.74061,-0.2439 c -1.25514,-1.25513 -1.28512,-3.02314 -0.07,-4.12288 2.25825,-2.04367 4.96242,0.74581 3.40789,3.51541 -0.93398,1.664 -2.07396,1.87146 -3.33796,0.60747 z m 2.30195,-0.61281 c 1.45362,-1.45365 -0.0639,-4.5808 -1.60312,-3.30342 -1.19407,0.99099 -0.65118,3.88637 0.72869,3.88637 0.16029,0 0.55381,-0.26234 0.87443,-0.58295 z m 14.31409,-4.34048 c -0.41114,-0.41115 -0.35991,-0.84331 0.20162,-1.70028 0.81821,-1.24877 2.05338,-1.48562 2.96954,-0.56948 0.44887,0.44889 0.34215,0.83226 -0.47332,1.70029 -1.16889,1.24423 -1.8742,1.39312 -2.69784,0.56947 z m 81.69266,-0.0936 c -0.28696,-0.74783 0.40099,-2.58128 1.48225,-3.95026 0.74459,-0.94274 0.76126,-0.94215 1.76638,0.063 0.99325,0.99325 0.99593,1.0442 0.12633,2.4091 -1.38727,2.17737 -2.85922,2.82206 -3.37492,1.47818 z m -46.34923,-6.37499 c -0.47522,-1.24989 0.40588,-5.73438 1.30292,-6.6314 0.29564,-0.29565 0.93662,-0.0935 1.76234,0.55615 1.4386,1.13161 1.69604,3.06324 0.76439,5.73572 -0.43436,1.24606 -0.79711,1.5299 -1.9552,1.5299 -1.06199,0 -1.53643,-0.3013 -1.87445,-1.19037 z m 1.92656,-3.08902 c -0.006,-1.96422 -0.14377,-2.55369 -0.47835,-2.03597 -0.25902,0.40078 -0.47428,1.31696 -0.47836,2.03597 -0.004,0.71899 -0.23667,1.44893 -0.51684,1.62209 -0.34869,0.2155 -0.33132,0.52936 0.0551,0.99491 0.95288,1.14814 1.42628,0.27475 1.4185,-2.617 z m -151.4394,-0.5629 c -1.51653,-1.91997 -1.3869,-2.30961 0.89672,-2.69542 2.61634,-0.44204 3.16898,0.16286 2.02303,2.21409 -1.16687,2.08867 -1.59449,2.15917 -2.91975,0.48133 z m 173.32933,-1.43257 c -0.47437,-0.88634 -0.33956,-1.22022 0.9788,-2.42437 0.84092,-0.76805 1.78606,-1.91219 2.1003,-2.54251 0.36239,-0.72685 0.99758,-1.14606 1.73657,-1.14606 1.2198,0 1.51107,0.58486 2.08766,4.19204 0.28092,1.75757 0.27548,1.76397 -1.74277,2.04936 -1.11351,0.15753 -2.60639,0.42422 -3.3175,0.59287 -1.00696,0.23878 -1.41463,0.0791 -1.84306,-0.72133 z m 4.14732,-0.52629 c 1.51085,0 1.66055,-0.12779 1.66055,-1.41765 0,-0.77971 -0.13275,-1.76345 -0.29488,-2.18609 -0.36685,-0.956 -2.13411,-1.01976 -2.13411,-0.0769 0,0.38029 -0.54651,1.34093 -1.21447,2.13478 -1.39774,1.6611 -1.54332,2.2619 -0.44608,1.84085 0.42263,-0.16213 1.51568,-0.29488 2.42899,-0.29488 z m -84.51755,-0.28608 c -0.49295,-1.28459 -0.32701,-3.60029 0.25799,-3.60029 0.30334,0 1.05802,-0.54651 1.67709,-1.2145 1.76205,-1.90129 2.62932,-1.59856 2.62932,0.91779 0,2.4319 -1.0211,3.92695 -2.98558,4.37126 -0.9139,0.20671 -1.3701,0.0696 -1.57882,-0.47426 z m 108.12653,-1.9037 c -1.34453,-1.54633 -1.33259,-2.29616 0.0622,-3.91783 0.84764,-0.98546 1.38157,-1.22128 2.1866,-0.96577 2.1849,0.69345 2.35202,3.28704 0.34135,5.29771 -1.06605,1.06604 -1.34159,1.02198 -2.59025,-0.41411 z m -204.00041,-6.39049 c -0.85341,-0.34434 -0.7563,-2.70934 0.15754,-3.83612 0.7545,-0.93036 0.76175,-0.92997 0.54091,0.0286 -0.12302,0.53439 -0.38134,1.35417 -0.57382,1.82174 -0.24008,0.58316 -0.1254,0.85014 0.36516,0.85014 0.99852,0 3.27316,-1.87208 3.77065,-3.10332 0.36139,-0.89446 0.41846,-0.91104 0.44532,-0.12926 0.0457,1.33068 -1.42509,3.56177 -2.74424,4.16281 -0.63638,0.28996 -1.20142,0.50994 -1.25566,0.48884 -0.0542,-0.0211 -0.37184,-0.14854 -0.70582,-0.28338 z m 32.20084,-0.82034 c -1.35022,-0.9873 -1.09185,-3.54417 0.52912,-5.23608 0.73483,-0.76702 1.49701,-1.39457 1.69371,-1.39457 0.1967,0 1.037,0.57164 1.86731,1.27031 1.65752,1.3947 1.64404,2.24064 -0.0745,4.68069 -1.03143,1.46444 -2.58314,1.72708 -4.01557,0.67965 z m 3.93793,-2.9755 c 0.43979,-0.94842 0.41176,-1.31345 -0.13587,-1.7679 -0.95998,-0.79671 -3.09027,0.21142 -3.09027,1.46242 0,1.78142 2.43481,2.01197 3.2261,0.30548 z m 54.34763,2.48244 c -0.78845,-0.57653 -0.83027,-0.84732 -0.31894,-2.06464 0.32368,-0.7706 1.0049,-1.94655 1.51381,-2.61325 l 0.92531,-1.2122 1.48687,1.42452 c 1.58944,1.52279 1.85176,2.90745 0.81063,4.27898 -0.77058,1.0151 -3.14733,1.1155 -4.41768,0.18659 z m 3.65163,-2.00832 c -0.0226,-0.72665 -2.08672,-0.58626 -2.33509,0.15882 -0.15,0.45033 0.17168,0.59674 1.06767,0.48579 0.7054,-0.0874 1.27574,-0.37743 1.26742,-0.64461 z m -45.37644,0.96274 c -1.15578,-1.15577 -1.00347,-3.4295 0.29043,-4.33577 1.37812,-0.96528 2.51778,-0.96102 3.32569,0.0129 0.52818,0.63644 0.51751,1.11709 -0.0619,2.79334 -0.7805,2.25764 -2.21078,2.87335 -3.55415,1.52999 z m 3.01625,-2.35029 c 0.0946,-0.49596 -0.0696,-1.14329 -0.36477,-1.43849 -0.68236,-0.68236 -2.75603,1.24014 -2.23936,2.07613 0.52531,0.84995 2.40837,0.38888 2.60413,-0.63764 z m 79.54391,1.79047 c -0.42034,-1.09533 -0.33691,-1.61742 0.25846,-1.61742 0.29524,0 1.48025,-0.63673 2.63334,-1.41495 1.15311,-0.77822 2.2232,-1.28831 2.378,-1.13352 0.63528,0.6353 0.21695,2.94204 -0.68093,3.75459 -1.25173,1.13281 -4.21026,1.39798 -4.58887,0.4113 z m -130.24074,-2.56953 c 0.17167,-0.27791 0.88233,-0.50527 1.57905,-0.50527 1.52277,0 1.3466,0.23268 -0.51469,0.67982 -0.90293,0.21692 -1.26919,0.1568 -1.06436,-0.17461 z m 156.47371,-2.66617 c -0.96688,-2.53175 -0.49919,-3.95857 1.4586,-4.44996 1.52859,-0.38365 1.99699,0.0371 1.16169,1.04368 -0.38013,0.45801 -0.59596,1.74622 -0.53102,3.16942 0.14248,3.12145 -0.94073,3.24424 -2.08927,0.23686 z m -80.70704,1.14156 c -0.46965,-0.75992 0.3494,-3.75774 1.24914,-4.57198 0.50628,-0.45816 1.46658,-0.72977 2.25942,-0.639 1.27233,0.14561 1.3715,0.30472 1.28313,2.05803 -0.0527,1.04509 -0.41947,2.22384 -0.81506,2.61944 -0.80888,0.80888 -3.57694,1.18023 -3.97663,0.53351 z m 114.72929,-0.23489 c -0.69059,-1.79963 -0.33388,-2.63215 1.12781,-2.63215 1.91565,0 3.11648,1.20923 2.44564,2.46272 -0.6224,1.16293 -3.14629,1.28259 -3.57345,0.16947 z m -71.9027,-0.49861 c -0.15937,-0.41559 -0.28995,-1.61216 -0.28995,-2.65906 0,-1.79108 0.0861,-1.90344 1.45738,-1.90344 1.36294,0 1.4564,0.11806 1.44213,1.82172 -0.011,1.3468 -0.31564,2.04003 -1.16743,2.65906 -1.02552,0.74528 -1.18405,0.75426 -1.44213,0.0817 z m -53.24169,-1.01327 c -1.95893,-0.70012 -2.61173,-3.76776 -1.09304,-5.13638 0.46758,-0.42138 1.41839,-0.90792 2.11292,-1.08119 1.07802,-0.26895 1.35127,-0.10154 1.86739,1.14456 0.74649,1.80218 0.26898,4.27512 -0.95164,4.92838 -0.4951,0.26496 -0.96919,0.46449 -1.05356,0.44339 -0.0843,-0.0211 -0.48129,-0.15551 -0.88207,-0.29876 z m 2.34865,-2.51224 c 0.26563,-1.87739 -0.69754,-2.35994 -2.09325,-1.04874 -1.37422,1.291 -0.98043,2.34465 0.84189,2.25274 0.75471,-0.038 1.13867,-0.4075 1.25136,-1.204 z m 105.99114,0.78473 c 0.004,-0.0668 0.30947,-0.99587 0.67879,-2.06464 0.68631,-1.98603 2.34864,-3.1026 3.79358,-2.54813 0.58391,0.22406 0.61687,0.65982 0.18928,2.50276 -0.51562,2.22247 -0.52609,2.23146 -2.59335,2.23146 -1.1416,0 -2.07234,-0.0547 -2.0683,-0.12155 z m -138.09479,-3.95538 c -1.96826,-1.49411 -0.45782,-5.15328 2.12717,-5.15328 2.32213,0 2.97935,1.77776 1.62528,4.39629 -0.8103,1.56693 -2.29179,1.8658 -3.75245,0.75699 z m 3.71929,-2.3755 c 0.36661,-0.58121 0.34131,-0.97615 -0.0901,-1.40766 -0.80694,-0.80692 -2.3166,0.63565 -1.87352,1.79027 0.36076,0.9401 1.23708,0.76935 1.96373,-0.38261 z m 13.89082,-1.76647 c 0,-3.47195 0.83361,-4.18971 3.12346,-2.68934 1.35637,0.88874 1.1927,2.43649 -0.39464,3.73185 -1.8021,1.47061 -2.72882,1.11655 -2.72882,-1.04251 z m 83.09635,0.23006 c -1.14755,-1.22149 -1.11735,-3.08318 0.0733,-4.51778 0.71175,-0.85761 3.56858,-0.75981 4.48183,0.1535 1.00029,1.00029 0.96664,1.41457 -0.29767,3.66407 -1.25584,2.23448 -2.6073,2.45677 -4.25742,0.70028 z m 3.77191,-2.33443 c 0.12944,-1.12557 -0.0279,-1.33593 -1.00019,-1.33593 -1.63717,0 -3.02615,1.1311 -2.63637,2.14686 0.22937,0.59771 0.76124,0.78731 1.90066,0.67749 1.31916,-0.12706 1.60774,-0.37456 1.7359,-1.48842 z m -30.72465,1.86665 c -1.31711,-0.31259 -2.46864,-0.78999 -2.55894,-1.06088 -0.0903,-0.2709 0.76873,-1.68787 1.90897,-3.14886 1.85894,-2.38183 2.22375,-2.62998 3.53054,-2.40144 1.29087,0.22576 1.50766,0.51483 1.89748,2.53009 0.35579,1.83937 0.28386,2.51369 -0.37553,3.52004 -0.89739,1.36959 -0.96141,1.37774 -4.40252,0.56105 z m 3.4188,-1.13794 c 0.88699,-1.16846 0.87851,-4.00781 -0.0129,-4.00781 -0.37853,0 -0.7991,0.27324 -0.93462,0.60724 -0.197,0.4855 -0.33274,0.48528 -0.67704,-10e-4 -0.3178,-0.4489 -0.71519,-0.22341 -1.51662,0.86055 -1.17378,1.58766 -1.03964,2.25234 0.58707,2.90866 1.52914,0.61698 1.83971,0.57227 2.55316,-0.36758 z m -115.38084,-3.97809 c -0.85625,-0.52919 -0.46521,-3.46615 0.54578,-4.09908 0.99853,-0.62515 1.64481,-0.10649 2.04368,1.64037 0.20799,0.9109 -0.006,1.41681 -0.8531,2.02386 -0.63732,0.45632 -1.39472,0.646 -1.73636,0.43485 z m 90.30992,-2.65737 c -1.37398,-0.49336 -1.72869,-0.89504 -1.84833,-2.09295 -0.18854,-1.88809 1.66423,-3.53127 3.57079,-3.16681 1.76378,0.33718 3.03954,3.00195 2.25816,4.71687 -0.61516,1.35016 -1.42493,1.4606 -3.98062,0.54289 z m 2.81763,-0.87008 c 1.46438,-1.4644 0.1848,-3.54387 -1.66274,-2.70209 -1.10135,0.50182 -1.58106,2.21114 -0.83102,2.96118 0.51558,0.51558 1.8586,0.37604 2.49376,-0.25909 z m -61.07586,-0.67473 c -1.70434,-1.43412 -1.83534,-2.36709 -0.67426,-4.80193 0.94428,-1.98014 2.0765,-1.96941 3.90187,0.0369 1.20487,1.32432 1.0941,3.62364 -0.24917,5.17252 -0.9665,1.11439 -1.20917,1.0812 -2.97844,-0.40753 z m 2.06322,-1.85212 c 0.15387,-0.40074 -0.1131,-0.77872 -0.64857,-0.91876 -1.02913,-0.26913 -1.45192,0.007 -1.45192,0.95184 0,0.86191 1.76774,0.83406 2.10049,-0.0331 z"
       id="path255"
       inkscape:connector-curvature="0" />
  </g>
</svg>
