<?xml version="1.0" encoding="UTF-8" standalone="no"?>
<!-- Created with Inkscape (http://www.inkscape.org/) -->

<svg
   xmlns:dc="http://purl.org/dc/elements/1.1/"
   xmlns:cc="http://creativecommons.org/ns#"
   xmlns:rdf="http://www.w3.org/1999/02/22-rdf-syntax-ns#"
   xmlns:svg="http://www.w3.org/2000/svg"
   xmlns="http://www.w3.org/2000/svg"
   xmlns:sodipodi="http://sodipodi.sourceforge.net/DTD/sodipodi-0.dtd"
   xmlns:inkscape="http://www.inkscape.org/namespaces/inkscape"
   width="210.00034mm"
   height="147.07274mm"
   viewBox="0 0 210.00032 147.07272"
   version="1.1"
   id="svg8"
   inkscape:version="0.92.1 r15371"
   sodipodi:docname="fuse.svg">
  <defs
     id="defs2" />
  <sodipodi:namedview
     id="base"
     pagecolor="#ffffff"
     bordercolor="#666666"
     borderopacity="1.0"
     inkscape:pageopacity="0.0"
     inkscape:pageshadow="2"
     inkscape:zoom="0.49497475"
     inkscape:cx="-15.397418"
     inkscape:cy="533.22139"
     inkscape:document-units="mm"
     inkscape:current-layer="layer1"
     showgrid="false"
     fit-margin-top="0"
     fit-margin-left="0"
     fit-margin-right="0"
     fit-margin-bottom="0"
     inkscape:window-width="1920"
     inkscape:window-height="1028"
     inkscape:window-x="0"
     inkscape:window-y="0"
     inkscape:window-maximized="1" />
  <metadata
     id="metadata5">
    <rdf:RDF>
      <cc:Work
         rdf:about="">
        <dc:format>image/svg+xml</dc:format>
        <dc:type
           rdf:resource="http://purl.org/dc/dcmitype/StillImage" />
        <dc:title></dc:title>
      </cc:Work>
    </rdf:RDF>
  </metadata>
  <g
     inkscape:label="Calque 1"
     inkscape:groupmode="layer"
     id="layer1"
     transform="translate(47.148389,-27.933305)">
    <path
       style="fill:#000000;stroke-width:0.69048226"
       d="m -46.191562,86.512986 c 1.185869,-1.46428 19.779701,-8.16545 22.300275,-8.03696 2.568857,0.13095 115.429574,-41.050124 116.542004,-42.524308 0.771677,-1.022628 19.093583,-8.018413 21.000163,-8.018413 2.96849,0 7.209,5.614211 10.15776,13.448331 2.00869,5.336616 3.52411,13.920448 2.89798,16.415152 -0.50421,2.008945 -3.42963,3.590893 -11.06311,5.982482 -2.32787,0.729326 -5.39923,1.822596 -6.82524,2.429491 -1.42602,0.606896 -3.44568,1.042172 -4.48814,0.967282 -1.04245,-0.0749 -6.86685,1.674473 -12.943097,3.887473 -6.076242,2.213 -13.533451,4.92866 -16.571571,6.0348 -3.038123,1.10614 -7.543519,2.7327 -10.011995,3.61457 -2.468473,0.88187 -5.264928,1.94169 -6.214338,2.35515 -0.949411,0.41347 -6.542328,2.45081 -12.428684,4.52743 -5.886355,2.07663 -13.343572,4.7558 -16.571581,5.95372 -3.228015,1.19792 -8.354838,3.06709 -11.392948,4.15371 -3.03813,1.08661 -8.009602,2.897014 -11.0477324,4.023124 -3.038103,1.12609 -8.599028,3.15643 -12.357563,4.51186 -3.943517,1.42214 -7.2453836,3.05216 -7.8070686,3.8541 -0.535352,0.76433 -1.380397,1.38969 -1.87786,1.38969 -0.497484,0 -2.421847,0.59923 -4.276378,1.33163 -12.81596,5.06134 -15.306784,5.75553 -16.828056,4.68998 -3.500464,-2.45182 -8.014217,-10.70897 -9.961054,-18.222044 -1.311924,-5.0629 -1.425051,-11.29481 -0.231738,-12.76825 z m 1.200198,8.4103 c 0.284326,-0.46007 2.570761,1.54537 5.73272,5.02821 2.892851,3.186434 5.040967,6.076654 4.773582,6.422704 -0.267392,0.34606 -0.06969,0.27713 0.439236,-0.15317 2.46363,-2.08286 -6.287513,-19.596724 -9.791921,-19.596724 -1.580983,0 -1.873447,0.83801 -1.748288,5.00945 0.06681,2.23016 0.334513,3.71044 0.594671,3.28953 z m 3.48105,12.070244 c 2.599413,5.4537 6.835395,10.55048 8.112554,9.76114 0.361392,-0.22334 0.841704,-1.54366 1.067314,-2.93403 0.379006,-2.33551 0.131006,-2.82295 -3.257374,-6.40373 -6.858696,-7.24802 -8.687342,-9.514734 -7.675951,-9.514734 0.539946,0 0.792043,0.30694 0.560172,0.68209 -0.253665,0.41026 -0.06135,0.45947 0.482301,0.12346 0.577547,-0.35693 0.736638,-0.28804 0.440672,0.19085 -0.254709,0.41221 -0.168847,0.93136 0.190767,1.153674 0.359719,0.22232 0.819812,0.13597 1.022429,-0.191864 0.202512,-0.32785 -0.600757,-1.49811 -1.785295,-2.60058 -1.184517,-1.10246 -1.945191,-1.63756 -1.690377,-1.18909 0.254702,0.44846 0.1464,1.01126 -0.240877,1.25066 -1.014599,0.62705 -0.224959,3.381104 2.773686,9.672144 z m 5.09238,-12.903644 c 2.644277,5.21822 4.803017,13.205624 4.80813,17.790154 l 0.0049,4.19602 6.257504,-2.36452 c 3.441621,-1.30049 7.263678,-2.65854 8.493444,-3.01789 1.229766,-0.35935 2.588795,-1.3127 3.020068,-2.11853 2.134236,-3.98787 -2.590252,-20.411914 -7.556919,-26.270564 -0.565369,-0.66692 -0.856608,-1.38393 -0.647204,-1.59334 0.586344,-0.58634 3.152224,3.33937 5.348307,8.18273 2.451892,5.4079 4.159231,11.845734 4.159231,15.683814 0,2.03716 0.258624,2.81298 0.863107,2.58912 0.475017,-0.17579 11.50226457,-4.17067 24.505287,-8.877514 23.631963,-8.55431 23.642062,-8.55881 24.0593,-10.73908 0.889622,-4.64848 -3.839501,-18.26489 -7.951025,-22.893125 -2.483827,-2.796011 -0.362044,-3.329104 -28.70243543,7.211355 -1.51905097,0.56497 -5.24765397,1.9122 -8.28578397,2.99384 -3.0381306,1.08164 -7.6927096,2.77059 -10.3435066,3.75321 -2.650804,0.98263 -5.40659,1.6003 -6.123996,1.37261 -0.717407,-0.2277 -1.966461,-0.091 -2.775676,0.30382 -0.809215,0.39479 -3.483033,1.40463 -5.941837,2.24409 -2.458776,0.83946 -5.509121,1.96025 -6.778554,2.49065 l -2.308069,0.96437 2.119101,2.41353 c 1.165517,1.32744 2.865187,3.88581 3.777017,5.68525 z m -2.694982,8.529384 c -0.182678,0.18262 0.562777,1.18934 1.656452,2.23715 1.093696,1.04781 2.165079,1.6194 2.380905,1.27021 0.215819,-0.34919 -0.900582,-1.85058 -2.480858,-3.3364 -1.580304,-1.48584 -2.502254,-2.20686 -2.048842,-1.60227 0.453404,0.60459 0.674965,1.24868 0.492343,1.43131 z m 2.070245,1.26709 c 0.949411,0.89193 1.726207,1.77704 1.726207,1.96693 0,0.18988 -0.776796,-0.38452 -1.726207,-1.27644 -0.949411,-0.89194 -1.726207,-1.77706 -1.726207,-1.96694 0,-0.18988 0.776796,0.38452 1.726207,1.27645 z M 35.281034,69.707486 c 2.495502,4.99044 3.974599,10.6738 3.974599,15.27222 0,3.77693 0.06863,3.94315 1.174543,2.83742 1.034405,-1.03441 1.087512,-1.77291 0.445057,-6.18968 -0.82234,-5.65379 -4.378545,-14.787506 -6.945062,-17.83762 -2.084651,-2.477469 -3.496836,-1.960733 -1.680432,0.614894 0.717715,1.017693 2.081815,3.403937 3.031295,5.302766 z m 2.460268,-3.434145 c 0.212688,-0.212586 4.41e-4,-0.769746 -0.471439,-1.238121 -0.681941,-0.676859 -0.761248,-0.597547 -0.386528,0.386528 0.259409,0.680968 0.645383,1.064184 0.857967,0.851593 z m 3.783516,-1.053994 c 2.592024,4.549189 4.667234,11.618069 4.834435,16.467669 0.111173,3.22642 0.369348,4.1638 1.07368,3.89902 0.509985,-0.19174 1.610754,-0.52014 2.446121,-0.7298 1.272774,-0.31945 1.473879,-0.76647 1.241279,-2.75899 -0.195732,-1.67687 -7e-4,-2.38089 0.661036,-2.38834 0.781629,-0.009 0.779465,-0.11141 -0.01303,-0.61329 -1.114055,-0.70562 -0.449237,-2.13807 0.992307,-2.13807 0.987384,0 1.326982,1.51631 1.082533,4.83338 -0.100997,1.36901 0.01828,1.51188 0.572512,0.69048 1.007211,-1.49085 0.890015,-3.26067 -0.602347,-9.09575 -2.01912,-7.894741 -6.036433,-15.761612 -8.048822,-15.761612 -0.454637,0 -2.420075,0.514635 -4.367668,1.143634 -3.139282,1.013878 -3.433344,1.26849 -2.591793,2.244069 0.522094,0.605235 1.745914,2.498656 2.719613,4.2076 z m 4.262959,-5.501097 c 0.829651,-0.688547 1.257381,-0.428267 2.414101,1.46904 0.773203,1.268218 1.406996,2.538891 1.408404,2.823713 0.0049,1.023398 -2.971815,0.492204 -3.869603,-0.690481 -1.201087,-1.582215 -1.188068,-2.577167 0.04699,-3.602272 z m 3.04907,8.148301 c 0.466662,0.736165 0.671422,0.692745 1.020286,-0.216396 0.444173,-1.157498 1.827182,-0.845187 1.827182,0.412611 0,0.379765 -0.310736,0.49845 -0.690499,0.263741 -0.37977,-0.234716 -0.690479,-0.09768 -0.690479,0.304489 0,0.40218 0.49198,0.73123 1.093255,0.73123 1.568559,0 0.797835,1.68575 -0.884712,1.93506 -0.983623,0.14575 -1.538157,-0.27151 -1.835321,-1.38096 -0.59804,-2.232861 -0.527501,-3.134833 0.160232,-2.049786 z m -9.187389,-1.95672 c 0.18999,0 0.01303,-0.621434 -0.393825,-1.380965 C 38.849144,63.769334 38.361185,63.1479 38.1713,63.1479 c -0.189983,0 -0.01303,0.621434 0.393833,1.380966 0.406488,0.759531 0.894447,1.380965 1.084325,1.380965 z m 1.332381,3.452415 c 0.542713,0.94941 0.986781,1.41548 0.986781,1.03572 0,-0.37977 -0.444068,-1.46727 -0.986781,-2.416688 -0.542733,-0.949413 -0.986802,-1.415489 -0.986802,-1.035724 0,0.379764 0.444069,1.467274 0.986802,2.416692 z m 1.452876,10.86071 c 0.229391,-0.22945 0.253917,-0.82499 0.05456,-1.32343 -0.220518,-0.55082 -0.384042,-0.3872 -0.417155,0.41717 -0.03005,0.72788 0.133094,1.1357 0.36264,0.90626 z m 0.749293,4.84776 c 0.173805,-0.66459 0.173805,-1.7521 0,-2.41669 -0.173545,-0.66459 -0.315772,-0.12083 -0.315772,1.20834 0,1.32918 0.142227,1.87294 0.315772,1.20835 z m 1.341829,-4.02781 c 0.523033,0.59324 0.131525,-3.10507 -0.469092,-4.4306 -0.436057,-0.96246 -0.498191,-0.54396 -0.205124,1.38096 0.231219,1.51906 0.5347,2.8914 0.674188,3.04964 z m 0.67082,2.63246 c 0.229391,-0.22945 0.253924,-0.82499 0.05456,-1.32343 -0.220518,-0.55082 -0.384014,-0.3872 -0.417161,0.41717 -0.03004,0.72788 0.133093,1.1357 0.362674,0.90626 z M 55.198766,54.373124 c 3.647726,3.854225 8.223738,16.077332 8.223738,21.966672 0,1.85882 0.07766,3.37939 0.172632,3.37903 0.09494,-3.6e-4 9.479298,-3.3967 20.854131,-7.54741 16.826223,-6.139944 20.784883,-7.826213 21.236083,-9.045917 0.30502,-0.824542 0.26835,-3.254154 -0.0815,-5.399139 -0.60833,-3.730024 -3.89248,-13.498996 -5.02513,-14.947686 -4.715522,-6.031267 -4.647176,-6.009886 -11.076852,-3.46534 -2.381051,0.942304 -7.436354,2.825615 -11.234008,4.185139 -3.797652,1.359524 -8.458406,3.057309 -10.357234,3.772857 -1.898826,0.71555 -5.860468,2.135058 -8.803653,3.154463 -2.943194,1.019402 -5.351237,1.981522 -5.351237,2.138039 0,0.156529 0.649347,0.9707 1.443008,1.809292 z M 96.584941,36.55241 c 1.583077,-0.978391 6.214819,6.819618 8.903249,14.989509 0.83621,2.541194 1.57879,6.655303 1.65016,9.142464 0.0714,2.487161 0.25088,4.525003 0.3989,4.528539 1.35266,0.03231 16.50555,-5.945844 17.16555,-6.772184 2.51875,-3.15357 -0.94294,-16.575653 -6.39143,-24.781686 -1.35837,-2.045848 -2.91814,-3.891783 -3.46617,-4.102081 -1.41261,-0.54207 -17.434376,4.945929 -18.441593,6.316879 -0.709241,0.965363 -0.64878,1.191601 0.181348,0.67856 z M -45.155855,155.12566 c 2.426918,-0.87161 22.422829,-8.13537 26.06573,-9.46867 l 2.761921,-1.01088 -0.229651,-5.26026 c -0.38269,-8.76567 -0.371856,-8.77942 9.7010506,-12.30333 3.68385,-1.28876 5.708474,-1.67291 6.55957697,-1.24464 0.907859,0.45683 9.57057003,-2.43338 32.99327643,-11.00787 17.469187,-6.39505 40.462255,-14.76305 51.095681,-18.595574 14.229684,-5.12867 19.69806,-7.40844 20.71447,-8.63584 1.43089,-1.72795 11.5298,-5.80767 14.37624,-5.80767 1.75864,0 6.28397,4.39715 8.70497,8.4584 0.84895,1.42412 1.66263,2.58931 1.80819,2.58931 0.14557,0 5.58661,-1.8976 12.09123,-4.21688 6.50461,-2.31929 12.06541,-3.95055 12.35731,-3.62503 0.29191,0.32551 2.43808,3.02026 4.76928,5.98832 3.24091,4.12632 4.23852,5.93177 4.23852,7.67078 0,2.173704 -0.1909,2.338924 -4.31551,3.734884 -9.42629,3.1903 -21.5021,7.70357 -22.03339,8.23486 -0.30902,0.30903 -0.30526,2.69331 0.008,5.29841 0.59426,4.93618 0.0966,9.64917 -1.15065,10.89639 -1.00533,1.00533 -9.84385,4.50237 -12.76404,5.05019 -1.34661,0.25262 -2.58059,0.15176 -2.81668,-0.23022 -0.38498,-0.62291 -3.41407,0.3093 -15.27384,4.70057 -1.89882,0.70307 -6.870291,2.52531 -11.04771,4.04941 -4.177419,1.52411 -13.498932,4.93976 -20.714469,7.59035 -7.21554,2.65058 -15.294187,5.57921 -17.952555,6.50806 -7.528065,2.63038 -29.959382,10.78707 -34.17887,12.42847 -2.088721,0.81251 -4.419102,2.15733 -5.178628,2.98849 -1.916589,2.09733 -9.9634564,5.10036 -13.6668534,5.10036 -2.75891603,0 -3.367839,-0.31869 -5.939301,-3.10842 -1.575892,-1.70963 -3.218932,-3.88466 -3.6512,-4.83337 -0.432275,-0.94873 -1.086104,-1.72496 -1.452953,-1.72496 -0.366869,0 -3.9679096,1.21802 -8.0023456,2.70671 -14.407743,5.31642 -19.188868,6.96004 -20.246082,6.96004 -0.62875,0 -2.821913,-2.96192 -5.301181,-7.15942 -4.952107,-8.38415 -5.535559,-11.56964 -2.329906,-12.72095 z m 2.691565,10.6983 c 2.144936,3.54521 4.046937,6.29877 4.226688,6.11902 0.179814,-0.17976 -1.432488,-3.33183 -3.582769,-7.00463 -2.150259,-3.67278 -3.803742,-6.78366 -3.674353,-6.91304 0.129445,-0.12939 1.92867,2.70384 3.998424,6.29605 2.06972,3.59221 3.964752,6.53365 4.211134,6.53653 0.639171,0.008 34.6386896,-12.4106 35.0182706,-12.79017 0.666933,-0.66693 -2.333435,-9.0989 -4.25078,-11.94605 -2.244757,-3.33335 -2.78387,-3.37829 -8.6219146,-0.71875 -1.651179,0.75221 -5.079851,2.1059 -7.619244,3.00821 -3.968722,1.41018 -10.520708,3.78235 -20.152943,7.29642 -2.391788,0.87258 -3.42136,1.77779 -3.441852,3.02611 -0.0049,0.35444 1.744402,3.54507 3.889339,7.0903 z m 6.629962,7.44268 c 0.854464,-0.24832 7.03493,-2.44428 13.734338,-4.87991 6.69943,-2.43563 12.3583466,-4.42841 12.5753986,-4.42841 0.217128,0 2.115235,-0.64375 4.218207,-1.43057 2.66119,-0.99568 3.823548,-1.80257 3.823548,-2.65421 0,-1.03453 -2.774499,-0.21081 -17.9525526,5.32995 -11.971567,4.37025 -17.952518,6.88027 -17.952518,7.53412 0,0.69029 0.459855,0.84688 1.553579,0.52903 z m 21.922809,-41.07051 c 0.891632,-0.47719 1.811859,-0.50846 2.597038,-0.0883 1.6419206,0.87874 4.0032776,3.54067 3.1408506,3.54067 -0.379763,0 -1.26526,-0.63512 -1.9677346,-1.41136 -1.781513,-1.96855 -3.895446,-1.47654 -4.580623,1.06612 -0.622699,2.31077 -0.0049,8.63102 0.842958,8.63102 1.335098,0 2.729432,-0.91957 2.729432,-1.80008 0,-1.28935 1.7140976,-1.22055 3.0573616,0.12271 4.397265,4.39724 9.244719,20.41787 6.661149,22.01463 -0.351315,0.21712 -1.447259,0.0264 -2.43542,-0.42386 -1.313226,-0.59835 -2.00229,-0.61301 -2.560795,-0.0545 -1.372049,1.37202 5.081706,9.14134 7.593463,9.14134 0.907313,0 2.184366,-3.84341 2.184366,-6.57408 0,-2.67089 -3.02742903,-14.89033 -4.529805,-18.28328 -0.588536,-1.32918 -1.852339,-3.93214 -2.808452,-5.78437 -1.144401,-2.21696 -1.505401,-3.60069 -1.056486,-4.04962 0.852902,-0.85289 3.14646,3.30565 2.447192,4.4371 -0.277225,0.44855 -0.171718,0.58624 0.24975,0.32578 0.860362,-0.53173 2.43954497,3.50789 1.78521797,4.56663 -0.250009,0.40471 -0.11118,0.51236 0.31856,0.24678 0.715166,-0.442 1.75322603,2.42869 4.33779103,11.99591 0.461655,1.70894 0.851152,5.45538 0.865502,8.32542 l 0.02612,5.21826 4.188303,-1.5147 c 5.5319864,-2.00062 6.8336224,-3.95982 6.3072494,-9.49348 -0.895939,-9.41873 -6.1346424,-24.023 -10.9332754,-30.47934 -1.269224,-1.70767 -3.95956303,-4.5443 -3.95956303,-4.17487 0,0.22281 -0.58259,0.0933 -1.294618,-0.28775 -0.94747697,-0.50708 -2.38236797,-0.31065 -5.35123397,0.73256 -5.4013656,1.89794 -5.3950276,1.89156 -3.41505,3.44902 2.412511,1.89766 4.711153,5.2891 4.174001,6.15825 -0.619358,1.00216 -2.57011,-0.65808 -2.127764,-1.81088 0.422273,-1.10042 -2.330613,-4.11627 -4.3393536,-4.75381 -0.879256,-0.27906 -1.94524,-0.13169 -2.524489,0.34904 -1.431837,1.18832 -1.23796,1.52802 0.378383,0.66299 z m 12.2416686,30.79839 c 0.70188097,-0.70188 -0.354816,-1.28102 -1.286634,-0.70513 -0.703883,0.43502 -0.704436,0.59766 -0.0028,0.83154 0.479744,0.15993 1.059981,0.10304 1.2894,-0.12641 z m 5.104356,10.51834 c 0.321935,-0.50793 0.5656,-1.54495 0.541438,-2.30447 -0.03418,-1.07484 -0.197554,-0.96004 -0.737451,0.51785 -0.44362,1.21464 -1.232582,1.93272 -2.189563,1.99286 -1.37640503,0.0865 -1.36424003,0.11895 0.15215,0.40565 0.931006,0.17605 1.902834,-0.0902 2.23351,-0.61189 z m 6.173448,-34.06666 c 1.4209054,3.03812 3.0536364,6.93294 3.6282634,8.65515 1.458269,4.37042 3.233493,13.24964 3.233493,16.1731 0,1.34519 0.217905,2.4458 0.484303,2.4458 0.266377,0 4.228026,-1.3713 8.803662,-3.04733 4.575629,-1.67603 12.358641,-4.48806 17.295614,-6.24895 4.936944,-1.7609 9.36466,-3.71151 9.839362,-4.33471 1.061837,-1.394 1.113222,-6.48306 0.114829,-11.36501 -0.997426,-4.8767 -4.522368,-14.52496 -6.83793,-18.71638 -1.896804,-3.43341 -6.585539,-8.76428 -7.708572,-8.76428 -0.338765,0 -3.328039,1.05547 -6.642806,2.3455 -3.314789,1.29002 -7.114371,2.66269 -8.443544,3.05039 -1.997668,0.58269 -9.860037,3.46865 -19.4540614,7.14084 l -1.846778,0.70687 2.475374,3.21757 c 1.361481,1.76967 3.63797,5.70332 5.058896,8.74144 z m -5.109629,29.51812 c 0.191552,-0.47471 0.191552,-1.2515 0,-1.72621 -0.191552,-0.47471 -0.348289,-0.0863 -0.348289,0.86311 0,0.94941 0.156842,1.33781 0.348289,0.8631 z M 48.689291,120.48493 c 4.33429,6.59988 8.920025,22.22556 8.408835,28.6528 -0.283962,3.57023 1.063483,4.27598 2.259687,1.18356 2.94479,-7.61278 -7.383225,-36.04087 -13.104151,-36.06951 -1.826784,-0.009 -2.066148,-0.62176 2.435629,6.23315 z m 6.704024,2.26557 c 3.471162,7.33741 5.388599,14.36005 5.783926,21.18363 0.243929,4.2103 0.572998,6.0649 0.918867,5.17862 2.32946,-5.96909 -3.927824,-26.58159 -10.355478,-34.11266 -2.776089,-3.25266 -3.123832,-2.54975 -0.46309,0.93604 1.290339,1.69042 3.14244,4.75689 4.115775,6.81437 z m -1.306749,-7.55147 c 5.183984,6.79656 10.320856,22.59412 9.910578,30.47827 -0.257551,4.94927 0.762679,4.98264 1.319429,0.0431 0.598377,-5.30879 -2.015858,-15.92309 -5.796841,-23.53632 -2.97434,-5.989 -7.144945,-11.60472 -7.144945,-9.62067 0,0.21521 0.770304,1.40122 1.711779,2.63558 z m 7.595051,6.90495 c 3.477215,7.63024 5.428394,15.1835 5.487243,21.24183 l 0.05131,5.28057 5.4565,-1.99097 c 3.001079,-1.09503 5.609444,-2.14391 5.796379,-2.33084 0.186933,-0.18693 0.486148,-1.86215 0.664927,-3.72273 0.408123,-4.24746 -1.425251,-13.46771 -3.701669,-18.61607 -2.775295,-6.27663 -3.227894,-7.167 -5.697936,-11.20922 l -2.341757,-3.83227 -6.094727,2.03285 -6.094714,2.03285 2.087495,3.03408 c 1.148112,1.66875 3.122263,5.30471 4.386964,8.07992 z m 3.754795,-9.93183 c 0.411411,0 0.748021,-0.49197 0.748021,-1.09326 0,-1.86689 1.636365,-0.66744 3.75592,2.75307 1.663676,2.6848 1.853743,3.38427 1.053952,3.87858 -0.597563,0.36931 -1.156545,0.31055 -1.442168,-0.1516 -0.256534,-0.41507 -0.940024,-0.57291 -1.518896,-0.35077 -0.727865,0.2793 -1.321178,-0.27534 -1.923581,-1.79821 -0.479097,-1.21116 -0.994882,-2.43514 -1.14618,-2.71996 -0.151309,-0.28482 0.06151,-0.51786 0.472932,-0.51786 z m 4.718293,8.02063 c 0.664591,-0.23442 1.59674,-0.60727 2.071447,-0.82856 0.474706,-0.22127 0.863102,-0.0961 0.863102,0.27815 0,0.37426 -0.93215,1.00542 -2.071447,1.40259 -1.139294,0.39716 -2.071446,0.46379 -2.071446,0.14807 0,-0.31571 0.543756,-0.76583 1.208344,-1.00025 z m 1.567859,2.32896 c 1.585471,-0.84852 2.747656,-0.386 2.747656,1.09349 0,0.55238 0.380613,1.6138 0.845813,2.3587 0.95005,1.52127 0.309364,2.5168 -1.856507,2.88471 -1.620687,0.2753 -2.374976,-2.05695 -0.956067,-2.95616 0.675587,-0.42813 0.504775,-0.59292 -0.622547,-0.6006 -1.946656,-0.0133 -2.046693,-1.76952 -0.158356,-2.78014 z m 1.565205,1.46629 c 0.563895,-0.5639 0.486625,-0.76816 -0.290577,-0.76816 -0.58231,0 -1.285304,0.22657 -1.562214,0.50347 -0.276912,0.27691 -0.146143,0.62258 0.290574,0.76817 0.43673,0.14557 1.13973,-0.081 1.562217,-0.50348 z m 1.380965,3.45241 c 0.563895,-0.5639 0.486625,-0.76816 -0.290576,-0.76816 -0.582313,0 -1.285305,0.22657 -1.562218,0.50348 -0.276909,0.27691 -0.146142,0.62258 0.290578,0.76816 0.436729,0.14557 1.139729,-0.081 1.562216,-0.50348 z m 0.203191,8.62722 c 2.646619,-1.0156 3.050696,-0.53132 3.050696,3.65623 0,3.90738 -0.08539,4.10511 -2.071447,4.79746 l -2.071446,0.72211 v -3.02062 c 0,-2.29617 0.289802,-3.09635 1.208344,-3.3364 1.150806,-0.30073 1.150806,-0.31959 0,-0.39587 -1.506502,-0.0998 -1.59074,-1.85706 -0.116158,-2.42291 z m 4.759559,-32.80006 c 2.893012,3.20221 6.405321,10.04528 9.000421,17.53558 1.393451,4.02195 2.006836,7.36457 2.255977,12.29381 0.296681,5.86979 0.490327,6.71217 1.456391,6.33535 2.357254,-0.91948 17.979967,-6.53028 24.009027,-8.62271 6.92047,-2.4018 7.11855,-2.63193 7.12689,-8.28025 0.005,-3.20987 -2.04246,-12.73668 -3.49893,-16.28247 -2.10717,-5.12996 -5.1844,-11.029794 -6.67992,-12.807124 -0.90423,-1.07461 -1.45028,-2.26736 -1.21346,-2.65055 0.241,-0.38996 0.008,-0.53435 -0.53037,-0.32795 -0.52854,0.20282 -1.3595,-0.11146 -1.84662,-0.69839 -1.08998,-1.31335 -2.73611,-1.36374 -4.5332,-0.13876 -0.74909,0.51061 -1.98341,1.1058 -2.74294,1.32264 -0.75953,0.21684 -5.731003,1.99876 -11.047717,3.95981 -5.316711,1.96106 -10.67658,3.86621 -11.910817,4.23368 -1.234236,0.36746 -2.244068,0.84889 -2.244068,1.069834 0,0.22094 1.079702,1.59682 2.399336,3.0575 z M 107.90196,88.018036 c 2.13169,-0.48077 2.58897,-0.29002 4.72613,1.97155 3.14807,3.33131 5.55891,7.46415 4.93912,8.467 -0.29503,0.47736 -0.20294,0.62588 0.22435,0.3618 0.87009,-0.53775 1.75424,1.433144 1.11032,2.475044 -0.2498,0.40417 -0.14787,0.54555 0.22649,0.31419 0.83579,-0.51655 4.65348,10.60306 5.76068,16.77887 0.44255,2.46847 0.60982,5.96404 0.37172,7.76793 -0.23811,1.80388 -0.22107,3.27978 0.0378,3.27978 1.35962,0 8.65067,-3.08326 9.38587,-3.96912 1.36008,-1.63879 0.96343,-10.20479 -0.78964,-17.0531 -0.86967,-3.39728 -1.83045,-6.65981 -2.13509,-7.25007 -0.30464,-0.59026 -1.06062,-2.160714 -1.67995,-3.489894 -3.39782,-7.2923 -9.07275,-14.51349 -11.38623,-14.48867 -2.02287,0.0217 -9.73379,3.17632 -9.19907,3.76344 0.29456,0.32341 -0.0476,0.3778 -0.7603,0.12085 -0.71273,-0.25695 -1.72256,-0.11305 -2.24407,0.31978 -1.37957,1.14494 -1.20813,1.22152 1.41183,0.63062 z m 15.27047,42.087384 c 0.55688,-0.46217 0.97647,-1.34601 0.93241,-1.9641 -0.07,-0.98145 -0.11931,-0.97485 -0.38962,0.0522 -0.17023,0.64674 -0.98867,1.39453 -1.81873,1.66176 -0.90699,0.29197 -1.15554,0.6065 -0.62288,0.78819 0.48747,0.16629 1.34194,-0.0758 1.89882,-0.53795 z m 1.48692,-4.97868 c 0.17282,-0.66016 0.17911,-1.90303 0.0139,-2.76192 -0.16517,-0.8589 -0.30655,-0.31877 -0.31422,1.20029 -0.008,1.51906 0.12746,2.2218 0.30029,1.56163 z m 7.39679,-24.8313 c 1.27826,3.15182 2.46574,5.87223 2.63884,6.04533 0.25604,0.25604 17.29596,-5.75115 24.87119,-8.767994 l 1.89283,-0.75382 -2.58332,-3.24163 c -1.42082,-1.78289 -3.40927,-4.22199 -4.41877,-5.42022 l -1.83545,-2.1786 -6.45033,2.3518 c -7.53688,2.74796 -14.3741,5.19176 -15.59923,5.57556 -1.08134,0.33877 -1.23095,-0.30532 1.48424,6.389574 z m 2.87725,8.58535 c 0.21517,0.21517 3.8661,-0.84921 8.11317,-2.36529 4.24707,-1.51608 10.01139,-3.57498 12.80959,-4.57533 4.47482,-1.59973 6.42724,-2.995414 5.49477,-3.927894 -0.15987,-0.15987 -6.15072,1.8732 -13.31303,4.517924 -7.1623,2.64471 -13.12886,4.80857 -13.25904,4.80857 -0.38284,0 -0.27095,1.11654 0.15455,1.54202 z"
       id="path4893"
       inkscape:connector-curvature="0" />
  </g>
</svg>
