<?xml version="1.0" encoding="UTF-8" standalone="no"?>
<!-- Created with Inkscape (http://www.inkscape.org/) -->

<svg
   xmlns:dc="http://purl.org/dc/elements/1.1/"
   xmlns:cc="http://creativecommons.org/ns#"
   xmlns:rdf="http://www.w3.org/1999/02/22-rdf-syntax-ns#"
   xmlns:svg="http://www.w3.org/2000/svg"
   xmlns="http://www.w3.org/2000/svg"
   xmlns:sodipodi="http://sodipodi.sourceforge.net/DTD/sodipodi-0.dtd"
   xmlns:inkscape="http://www.inkscape.org/namespaces/inkscape"
   width="210mm"
   height="314.72357mm"
   viewBox="0 0 210.00001 314.72361"
   version="1.1"
   id="svg8"
   inkscape:version="0.92.3 (2405546, 2018-03-11)"
   sodipodi:docname="general_3.svg">
  <defs
     id="defs2" />
  <sodipodi:namedview
     id="base"
     pagecolor="#ffffff"
     bordercolor="#666666"
     borderopacity="1.0"
     inkscape:pageopacity="0.0"
     inkscape:pageshadow="2"
     inkscape:zoom="1.4"
     inkscape:cx="363.62454"
     inkscape:cy="523.96742"
     inkscape:document-units="mm"
     inkscape:current-layer="layer1"
     showgrid="false"
     fit-margin-top="0"
     fit-margin-left="0"
     fit-margin-right="0"
     fit-margin-bottom="0"
     inkscape:window-width="1920"
     inkscape:window-height="1017"
     inkscape:window-x="-8"
     inkscape:window-y="-8"
     inkscape:window-maximized="1" />
  <metadata
     id="metadata5">
    <rdf:RDF>
      <cc:Work
         rdf:about="">
        <dc:format>image/svg+xml</dc:format>
        <dc:type
           rdf:resource="http://purl.org/dc/dcmitype/StillImage" />
        <dc:title></dc:title>
      </cc:Work>
    </rdf:RDF>
  </metadata>
  <g
     inkscape:label="Layer 1"
     inkscape:groupmode="layer"
     id="layer1"
     transform="translate(-356.47936,872.42338)">
    <path
       style="fill:#000000;stroke-width:0.69707388"
       d="m 433.41461,-557.95611 c -0.76678,-0.18837 -2.07708,-0.48737 -2.91177,-0.66442 -1.47367,-0.31259 -3.71043,-3.73543 -3.71043,-5.6779 0,-1.27051 -1.88335,-1.95153 -2.97142,-1.07447 -1.67616,1.35111 -20.06047,3.55359 -25.72425,3.08181 -2.263,-0.18838 -2.72161,-0.5665 -4.00817,-3.30349 -2.37044,-5.04293 -1.40461,-11.47075 1.72359,-11.47075 0.55335,0 1.00726,-0.23527 1.00869,-0.52278 10e-4,-0.28757 1.49142,-1.09661 3.3111,-1.79786 1.81967,-0.70131 4.56322,-1.85274 6.09677,-2.55879 1.53358,-0.70602 4.6704,-1.82067 6.97076,-2.47695 2.30033,-0.65631 4.33928,-1.38697 4.53098,-1.62369 0.1918,-0.23658 1.7601,-1.17935 3.48538,-2.0947 5.30715,-2.81576 5.27198,-2.73527 3.90241,-8.92948 -0.66142,-2.99142 -1.49638,-5.98362 -1.85543,-6.64936 -0.35907,-0.66574 -0.65285,-1.73605 -0.65285,-2.3785 0,-1.38546 -1.98387,-8.45159 -2.84757,-10.14241 -0.33265,-0.65119 -1.11626,-3.47436 -1.7414,-6.27366 -0.62511,-2.79933 -1.53418,-6.03073 -2.02014,-7.1809 -1.25974,-2.98158 -2.22121,-6.86537 -3.23562,-13.07014 -0.48579,-2.97126 -1.13575,-5.40232 -1.44437,-5.40232 -0.30864,0 -0.56114,-0.72552 -0.56114,-1.61228 0,-0.88673 -0.92675,-2.50014 -2.05943,-3.5853 -1.72564,-1.65328 -2.09282,-2.60645 -2.2655,-5.88127 l -0.20602,-3.90823 h -2.78829 c -2.75612,0 -2.79053,0.0321 -2.9813,2.78828 -0.19759,2.85521 -0.7305,4.44053 -2.92887,8.71345 -1.07787,2.09501 -1.65085,2.46958 -4.05511,2.65089 -2.26218,0.17072 -3.01321,-0.0935 -3.91084,-1.37498 -0.61102,-0.87237 -1.11097,-2.30296 -1.11097,-3.1791 0,-1.52288 -0.17994,-1.47009 -4.09273,1.20072 -2.25101,1.53653 -4.3881,2.79369 -4.7491,2.79369 -0.36102,0 -1.5463,0.92886 -2.63397,2.06416 -2.58511,2.69827 -6.87984,3.43237 -10.3756,1.77352 -2.7622,-1.31075 -5.43876,-3.89875 -2.89472,-2.79896 2.18704,0.94548 8.01635,1.28701 8.01635,0.46967 0,-0.39456 -0.65834,-0.92633 -1.46297,-1.1817 -1.44113,-0.45739 -4.11363,-2.73839 -4.11363,-3.51098 0,-0.21789 1.01385,0.3259 2.25299,1.20825 2.74305,1.9532 9.37734,2.26611 11.45389,0.5402 0.70412,-0.58522 2.14286,-1.49564 3.19717,-2.02314 1.05432,-0.52747 1.91695,-1.36554 1.91695,-1.86235 0,-0.49681 0.62738,-1.23906 1.39415,-1.64943 0.76678,-0.41036 1.39416,-1.16718 1.39416,-1.68185 0,-0.51465 0.47051,-1.32624 1.0456,-1.8035 0.57508,-0.47728 1.04562,-1.2046 1.04562,-1.61625 0,-0.41166 -1.01949,0.21814 -2.2655,1.39937 -1.24601,1.18131 -3.79537,2.81126 -5.6652,3.62211 -5.53216,2.399 -13.29909,1.68273 -14.24821,-1.31401 -0.27858,-0.87964 -0.12146,-0.86718 0.99059,0.0785 2.66467,2.26648 5.35471,2.13198 9.29772,-0.46477 2.00607,-1.32115 3.81357,-2.4021 4.01665,-2.4021 0.80313,0 5.78273,-5.63809 5.78273,-6.54743 0,-1.47815 -2.83864,-1.88575 -10.29221,-1.47786 -10.43759,0.57116 -10.60091,0.63318 -10.72447,4.0725 -0.0864,2.40469 -0.15887,2.54572 -0.41946,0.81597 -0.17335,-1.15019 0.0835,-4.22281 0.57076,-6.82807 0.80129,-4.28503 0.77063,-4.85021 -0.32147,-5.92513 -1.1391,-1.12121 -1.30313,-1.07787 -2.90608,0.76754 -1.10451,1.27159 -1.69882,1.59025 -1.69882,0.91086 0,-1.42255 2.70843,-3.21496 4.86035,-3.21649 1.71508,-10e-4 1.75557,0.10987 1.52568,4.18245 -0.18179,3.21865 -0.0132,4.1837 0.73192,4.1837 2.43219,0 3.70031,-4.92574 1.76975,-6.8743 -0.70092,-0.70747 -0.12146,-0.77621 2.96256,-0.3514 4.40662,0.60693 17.13216,0.781 17.67207,0.24159 0.19918,-0.19891 0.82263,-3.22226 1.38541,-6.71839 1.29654,-8.05461 2.47767,-9.99811 6.0762,-9.99811 1.46685,0 2.9109,0.39209 3.20901,0.87132 0.29813,0.47926 0.58741,2.8517 0.64284,5.27212 0.12304,5.36786 1.05662,6.6594 2.7934,3.86437 1.86085,-2.99466 4.61226,-5.82536 5.6622,-5.82536 1.27088,0 2.2429,-2.81875 2.38825,-6.92587 0.11513,-3.25377 -0.3763,-5.1617 -2.67171,-10.37172 -0.58886,-1.33656 -1.29583,-6.47861 -1.67716,-12.1988 -0.36258,-5.43857 -0.85219,-12.63119 -1.08802,-15.9836 l -0.42878,-6.09527 2.53621,-3.25535 c 1.39492,-1.79043 2.53623,-3.55048 2.53623,-3.91119 0,-0.36073 0.8695,-1.95606 1.93222,-3.54523 1.06273,-1.58917 3.28953,-5.61776 4.94846,-8.95241 1.65894,-3.33465 4.10794,-7.25569 5.44224,-8.71342 2.15619,-2.35563 2.26481,-2.40587 0.97667,-0.4516 -0.79715,1.20937 -1.44935,2.54251 -1.44935,2.96257 0,0.42006 -0.23527,0.76491 -0.52279,0.76635 -0.28756,10e-4 -1.09681,1.49143 -1.79835,3.3111 -1.80305,4.67681 -2.31617,5.69585 -4.64941,9.23363 -1.13786,1.72524 -2.28115,3.60736 -2.54068,4.18244 -0.25951,0.57508 -1.83303,2.88037 -3.49668,5.12284 -2.65782,3.58262 -3.02314,4.51285 -3.01134,7.66782 0.008,1.97483 0.4198,5.15823 0.91645,7.07425 l 0.90304,3.48369 1.11189,-1.741 c 1.21326,-1.89974 1.84333,-3.11928 7.4326,-14.38629 4.64031,-9.35405 4.64303,-9.3608 5.98639,-14.84118 0.6044,-2.46568 2.03189,-5.99933 3.1722,-7.85256 1.14031,-1.85324 2.07328,-3.68833 2.07328,-4.07798 0,-0.38969 0.47052,-0.88905 1.0456,-1.10973 0.57511,-0.22078 1.04562,-0.73956 1.04562,-1.15309 0,-0.4135 0.68089,-1.47659 1.51309,-2.36243 2.12265,-2.25946 1.14581,-2.7397 -2.20285,-1.08293 -1.56141,0.77252 -2.55966,1.04702 -2.21829,0.60999 0.34136,-0.43702 0.80461,-1.76816 1.02944,-2.95806 0.2495,-1.31975 1.91868,-3.73487 4.28053,-6.19296 3.60175,-3.74855 3.87175,-4.26322 3.87175,-7.38021 0,-1.84285 0.36263,-3.57477 0.80587,-3.84869 0.58296,-0.36031 0.68453,0.24976 0.36711,2.20562 -0.37443,2.30734 -0.16677,2.98741 1.41579,4.63936 1.14054,1.19048 2.587,1.93568 3.75721,1.93568 1.0465,0 2.03437,0.39211 2.19529,0.87134 0.22869,0.68123 0.65968,0.69214 1.97504,0.0501 0.92535,-0.4517 3.30988,-1.18413 5.29894,-1.62758 1.98905,-0.44346 4.96906,-1.6602 6.62222,-2.7039 1.65314,-1.04368 3.51431,-2.08962 4.13589,-2.32428 0.62161,-0.23475 1.349,-1.31465 1.61644,-2.39995 0.26741,-1.08527 3.15942,-7.37045 6.42666,-13.96704 4.87869,-9.85007 6.00873,-12.74682 6.32248,-16.20696 0.37356,-4.11972 0.34382,-4.21319 -1.3412,-4.21319 -0.94777,0 -3.50082,0.35699 -5.6734,0.7933 l -3.95017,0.79331 v 3.23404 c 0,3.66456 -1.24594,5.85961 -4.19014,7.38212 -2.71146,1.40217 -8.15538,1.31454 -11.14411,-0.17941 -2.83223,-1.41566 -5.38095,-5.75852 -5.70828,-9.72654 l -0.21814,-2.64543 -1.70001,2.78828 c -3.51502,5.76519 -6.31635,11.8353 -6.31635,13.6867 v 1.91636 l 5.05379,-0.39032 c 3.39169,-0.26188 5.34036,-0.75094 5.92513,-1.48681 0.47924,-0.60309 0.87135,-0.74528 0.87135,-0.316 0,1.97643 -2.00038,2.69473 -7.40534,2.65903 l -5.49053,-0.0364 -0.34853,-2.37879 c -0.31723,-2.16502 -0.43729,-2.2713 -1.33606,-1.18273 -1.44456,1.74956 -1.20934,4.81327 0.63668,8.29307 l 1.62424,3.06168 6.76096,-0.32556 c 3.83631,-0.18469 6.9355,-0.0432 7.16448,0.32735 0.2408,0.38979 -1.25524,0.53293 -3.71262,0.35517 -2.26389,-0.16387 -4.83962,-0.11619 -5.72384,0.10591 -2.42811,0.60941 -4.89153,3.19929 -4.49291,4.72359 0.18864,0.72181 0.0588,1.1366 -0.28889,0.92175 -0.34763,-0.21472 -0.63204,-1.6328 -0.63204,-3.15097 0,-1.73147 -0.77947,-4.22104 -2.09122,-6.67918 -1.15019,-2.15538 -2.09122,-4.93771 -2.09122,-6.18293 0,-2.02328 -0.2524,-2.31137 -2.37197,-2.70904 -2.63084,-0.49354 -4.1367,-2.32692 -4.83282,-5.8839 -0.77429,-3.95645 1.59805,-7.5181 5.74432,-8.62411 0.53859,-0.14359 1.36346,-1.56232 1.833,-3.15255 0.87635,-2.96802 0.28533,-4.77771 -2.21937,-6.79574 -0.47583,-0.38339 -1.07602,-1.57107 -1.33377,-2.6393 -0.42035,-1.74227 0.0978,-2.50404 5.03176,-7.39846 3.02522,-3.00092 6.90471,-7.29747 8.62108,-9.5479 3.84574,-5.0423 7.61102,-8.91884 8.14463,-8.38526 0.21999,0.21999 -0.89882,1.73814 -2.48625,3.37365 -1.58741,1.63551 -2.87779,3.29055 -2.86746,3.67789 0.0105,0.38734 0.87293,-0.31805 1.91694,-1.56754 1.04402,-1.24947 2.12629,-2.26895 2.40504,-2.2655 0.6728,0.008 0.34099,5.57462 -0.33257,5.57928 -0.28754,0.002 -0.52279,-0.503 -0.52279,-1.12218 0,-1.03633 -0.13647,-1.03633 -1.71816,0 -0.94501,0.61918 -2.17837,1.12579 -2.74084,1.12579 -1.11926,0 -3.90588,3.51884 -3.90588,4.93223 0,0.48572 -0.51323,1.45022 -1.1405,2.14336 -1.05724,1.16824 -1.05382,1.29349 0.0469,1.71584 0.65304,0.25056 1.54266,0.10038 1.97698,-0.33399 1.13286,-1.13288 3.7764,-0.97359 4.24826,0.25609 0.73737,1.9216 2.5362,1.20106 2.5362,-1.01591 0,-1.51919 0.63971,-2.57193 2.43178,-4.00184 2.0733,-1.65435 2.25311,-2.01113 1.21987,-2.42049 -0.8388,-0.33231 -0.51443,-0.4952 1.05358,-0.52911 2.82647,-0.0611 2.91135,0.97536 0.19496,2.38008 -2.34422,1.21224 -3.28101,2.66448 -4.03108,6.24916 l -0.52055,2.48789 -2.58874,-1.38844 c -1.42382,-0.76364 -2.99226,-1.24638 -3.48538,-1.07276 -0.49314,0.17362 -1.81801,0.65323 -2.94415,1.06581 l -2.04756,0.75017 2.02427,1.05019 c 1.666,0.86433 2.31398,0.89516 3.66129,0.17414 1.14092,-0.61059 1.78174,-0.65009 2.11452,-0.13041 0.26267,0.41018 2.20271,0.92111 4.31138,1.13541 6.81979,0.69301 13.46359,1.89945 14.30477,2.59757 0.45134,0.37459 2.3579,0.99802 4.23682,1.38544 6.38335,1.31619 10.3155,2.57035 10.58397,3.37572 0.14727,0.44175 0.79051,0.8034 1.42951,0.80364 0.63897,2.3e-4 2.95962,1.41181 5.15699,3.13682 2.19734,1.72501 4.11842,3.13639 4.26909,3.13639 1.65804,0 9.85208,10.53731 10.64228,13.6857 0.22789,0.90746 0.81504,1.64992 1.30508,1.64992 0.89144,0 0.96558,-0.75199 2.14781,-21.78356 0.50034,-8.90085 -0.66029,-14.41917 -3.94241,-18.74467 -2.56437,-3.37955 -7.13578,-7.05251 -10.99839,-8.83672 -1.39652,-0.64509 -2.69599,-1.33841 -2.88769,-1.54067 -0.1918,-0.20234 -1.7601,-0.95067 -3.48535,-1.6631 -1.72527,-0.71242 -4.23474,-1.77528 -5.5766,-2.3619 -3.31682,-1.45003 -11.62069,-1.8937 -15.95989,-0.85274 -1.95699,0.46946 -3.55817,1.07118 -3.55817,1.33712 0,0.26596 -1.25473,0.81844 -2.78831,1.22778 -1.53356,0.40934 -2.78829,0.66078 -2.78829,0.55877 0,-0.10196 1.34478,-0.97354 2.98844,-1.93678 3.58062,-2.09839 10.72542,-3.51868 14.70002,-2.92218 4.27444,0.6415 9.75016,1.94656 10.54302,2.51279 0.38339,0.27379 2.10866,0.86289 3.83391,1.30914 1.72528,0.44622 4.44285,1.73162 6.03908,2.85644 1.59626,1.12482 3.18048,2.04512 3.5205,2.04512 0.34002,0 2.36282,1.55492 4.49509,3.45537 3.11079,2.77261 4.18479,4.32218 5.43528,7.8421 0.85717,2.41267 1.91992,5.14457 2.36172,6.07088 1.07848,2.26131 0.89147,17.16477 -0.23237,18.51894 -0.46723,0.56299 -0.9961,4.16932 -1.19923,8.17738 -0.47146,9.30315 -1.0701,10.30709 -6.14609,10.30709 -2.09981,0 -3.81784,0.26992 -3.81784,0.5998 0,0.3299 0.80824,1.7908 1.79606,3.24644 2.06952,3.04962 4.4776,8.84046 4.4776,10.76752 0,0.72476 0.86263,1.99662 1.91697,2.82633 l 1.91694,1.50858 -2.78828,-0.49691 c -2.29699,-0.40937 -2.63477,-0.33465 -1.91697,0.42412 0.47923,0.50655 0.87134,1.52486 0.87134,2.26289 0,1.13112 0.34213,1.27344 2.17835,0.9062 1.19812,-0.23975 2.60969,-0.43568 3.13685,-0.43568 0.52716,0 0.95847,-0.47052 0.95847,-1.0456 0,-0.57508 -0.36595,-1.04563 -0.81325,-1.04563 -0.44728,0 -0.61729,-0.19601 -0.37775,-0.43547 0.23948,-0.23949 1.42471,0.19075 2.63376,0.95636 1.35216,0.85612 1.90003,1.57619 1.42338,1.87076 -0.4262,0.26346 -0.77492,0.98917 -0.77492,1.61275 0,0.62361 -0.70579,1.88989 -1.56841,2.814 l -1.56841,1.6802 4.18244,-0.4447 c 2.30033,-0.24449 5.20191,-0.60256 6.44792,-0.79549 2.1368,-0.33088 2.2655,-0.23027 2.2655,1.77198 0,1.16756 -0.35209,2.12282 -0.78242,2.12282 -0.54337,0 -0.51936,0.31697 0.0785,1.03735 0.68903,0.83024 0.67127,1.09826 -0.0888,1.34241 -2.78296,0.89371 -6.34274,1.28822 -10.7089,1.18684 -2.68372,-0.0622 -8.17319,0.21841 -12.19877,0.62414 -5.84425,0.58883 -7.55327,1.01443 -8.48031,2.1118 -0.81481,0.96453 -2.42479,1.50641 -5.39911,1.8173 -4.986,0.52115 -6.27198,1.54704 -4.24206,3.3841 0.76543,0.69269 1.39171,1.52267 1.39171,1.84439 0,0.32171 -2.62708,2.29724 -5.83796,4.39007 -3.21085,2.09283 -6.02417,4.29044 -6.25177,4.88362 -0.22763,0.59316 -0.84123,1.07848 -1.36357,1.07848 -1.1529,0 -3.02382,3.27319 -2.29042,4.00714 0.28791,0.28812 3.13753,0.63338 6.33247,0.76725 l 5.809,0.24344 0.23263,3.93905 c 0.35367,5.98713 0.0603,7.07588 -1.90701,7.07588 -0.93181,0 -1.69421,0.1702 -1.69421,0.37791 0,0.20787 -0.48999,2.75014 -1.08889,5.64953 -0.59887,2.89936 -0.9087,5.45174 -0.68847,5.67194 0.22025,0.22026 1.32486,-0.28311 2.4548,-1.11852 1.12993,-0.83541 2.30238,-1.51859 2.60544,-1.51822 0.30306,3.7e-4 0.56763,1.72564 0.58791,3.83391 0.0408,4.23664 -0.76622,4.81399 -3.77903,2.70372 -1.3868,-0.97136 -1.8721,-0.99899 -3.4662,-0.19734 -1.01948,0.51267 -1.90653,0.94319 -1.97121,0.95668 -0.0648,0.0132 -0.33486,0.89003 -0.60035,1.9479 -0.41961,1.67185 -0.31307,1.86136 0.81467,1.4488 1.24633,-0.45592 1.24512,-0.41506 -0.0306,1.03772 -1.348,1.53522 -3.20308,2.04011 -3.20308,0.87177 0,-0.3523 0.54308,-1.5868 1.20679,-2.74329 1.52947,-2.66491 0.90875,-3.29864 -1.83907,-1.87769 -2.37154,1.22639 -2.58552,1.05358 -1.28466,-1.03756 0.72217,-1.16091 0.65878,-1.77214 -0.37029,-3.57032 -1.48108,-2.588 -1.10314,-3.23569 1.17622,-2.01582 2.45896,1.31599 3.55738,0.33231 2.10466,-1.88482 -0.64535,-0.98493 -1.36818,-3.37789 -1.6063,-5.3177 -0.34748,-2.83076 -0.77695,-3.70089 -2.17563,-4.4081 l -1.74269,-0.88114 1.91697,-0.0105 c 1.93061,-0.0105 2.39828,-0.96021 1.31438,-2.66952 -0.37559,-0.59229 -1.6665,-0.83891 -3.64873,-0.69709 l -3.0675,0.21946 -0.18311,4.15618 c -0.10064,2.28589 -0.49293,4.46598 -0.87158,4.84465 -1.01978,1.01975 -0.83485,3.64912 0.33918,4.82315 0.87477,0.87477 0.88146,1.08383 0.0451,1.40481 -0.54046,0.20734 -1.08135,0.0943 -1.20196,-0.25108 -0.12172,-0.34875 -1.71231,-0.40884 -3.57619,-0.13516 -3.43366,0.50427 -3.5607,0.62617 -6.19908,5.94993 -0.41153,0.83035 -0.345,1.61986 0.19074,2.2655 0.63397,0.76385 0.62356,1.23062 -0.0453,2.03658 -0.72499,0.87358 -0.62435,1.04562 0.61173,1.04562 1.30966,0 1.47949,-0.39804 1.47949,-3.46746 0,-3.0845 0.21182,-3.57385 1.91697,-4.43065 3.58984,-1.80371 7.90243,0.40918 7.74715,3.97528 -0.0827,1.9024 -0.13542,1.95812 -0.41211,0.43745 -0.69321,-3.80898 -4.43023,-5.48689 -6.59825,-2.96256 -1.76898,2.05971 -2.05067,3.7609 -0.91081,5.50054 1.25503,1.91544 4.56317,2.23963 5.93886,0.58201 0.48496,-0.58436 1.04426,-0.89996 1.24288,-0.70134 0.72191,0.72194 -2.21297,3.15795 -3.80467,3.15795 -1.72662,0 -2.28328,1.70494 -0.7633,2.33788 0.63408,0.26404 0.53915,0.63296 -0.34853,1.35482 -0.67093,0.54557 -1.21988,1.19445 -1.21988,1.44192 0,0.24739 -1.43386,1.86351 -3.18632,3.59116 -3.28931,3.24276 -3.67141,4.84521 -1.4752,6.18659 1.08227,0.66102 1.9577,0.0472 6.09942,-4.27763 2.79208,-2.91543 4.83577,-5.65783 4.83577,-6.48907 0,-0.79181 -0.31368,-1.24578 -0.69709,-1.00885 -0.38339,0.23685 -0.69707,0.078 -0.69707,-0.35322 0,-1.28722 1.3871,-3.48066 2.20111,-3.48066 0.49776,0 0.46074,0.35802 -0.10775,1.04315 -0.71588,0.86259 -0.45426,1.49611 1.51121,3.65963 4.08707,4.49894 10.77627,10.63284 11.59539,10.63284 0.43111,0 1.14163,0.66858 1.57895,1.48576 0.72231,1.34963 1.18276,1.44524 5.02568,1.04357 4.97725,-0.52021 6.16196,-1.40844 7.27118,-5.45141 0.87203,-3.17865 1.028,-8.92822 0.24212,-8.92822 -0.25635,0 -0.17678,-2.35436 0.17731,-5.23191 0.68895,-5.60216 0.14148,-7.31542 -2.33748,-7.31542 -1.79923,0 -3.45703,-0.73516 -3.45703,-1.53305 0,-0.37772 0.62736,-1.48437 1.39416,-2.45917 0.76678,-0.97481 1.39413,-2.65261 1.39413,-3.72845 0,-1.07584 0.31368,-2.14995 0.69709,-2.3869 1.27452,-0.7877 0.77465,-5.94948 -0.7888,-8.14516 -1.30822,-1.8372 -1.39155,-2.40148 -0.69709,-4.71946 0.43384,-1.44801 0.7888,-3.45898 0.7888,-4.46883 0,-1.12769 0.38473,-1.83608 0.99715,-1.83608 0.54842,0 1.11976,-0.70579 1.26969,-1.56841 0.26004,-1.49641 0.31028,-1.47833 1.0941,0.3939 0.45181,1.07929 0.8215,2.72613 0.8215,3.65966 0,0.93349 0.27969,1.69729 0.62151,1.69729 0.34184,0 0.80658,0.73735 1.03276,1.63854 0.62786,2.50165 5.26667,7.17307 9.07992,9.14389 4.73919,2.44932 8.80353,2.34971 13.31488,-0.32632 1.91694,-1.1371 4.26957,-2.0659 5.22804,-2.06403 1.47427,0.003 1.31095,0.19944 -1.06046,1.27681 -2.82159,1.28176 -9.39565,7.88728 -9.39565,9.4406 0,0.45916 -0.77379,1.88361 -1.71953,3.16548 -0.94572,1.2819 -1.55458,2.59757 -1.35301,2.92373 0.20155,0.32617 0.0343,0.59303 -0.37169,0.59303 -1.53395,0 -0.71822,2.83041 1.00447,3.48538 2.67155,1.01572 2.07977,1.41368 -1.39415,0.93752 -2.61462,-0.35836 -3.13682,-0.24001 -3.13682,0.71043 0,0.6592 0.56383,1.14033 1.33635,1.14033 2.5141,0 7.37562,2.59644 11.0367,5.89444 3.65621,3.29363 4.54065,5.49309 2.87763,7.15611 -1.07063,1.07062 -2.50747,0.42314 -6.18873,-2.78885 -3.52163,-3.07266 -6.95266,-4.98257 -10.21546,-5.68643 -2.65026,-0.57174 -3.89422,0.75761 -1.31475,1.40501 0.97414,0.24449 1.77119,0.72423 1.77119,1.06604 0,0.34184 0.54476,0.62151 1.21061,0.62151 1.75175,0 10.53383,6.23628 11.04352,7.84215 0.23738,0.7481 0.0408,1.72069 -0.4369,2.16133 -0.66447,0.61289 -0.7467,0.58623 -0.34988,-0.11355 0.81752,-1.44156 -4.58256,-6.06469 -10.39385,-8.8984 -2.84356,-1.38657 -5.50312,-2.31527 -5.91011,-2.06372 -1.41627,0.8753 -0.72647,2.54351 1.35123,3.26782 1.15017,0.40096 2.09123,1.012 2.09123,1.35788 0,0.83264 -0.11566,0.81209 -2.70786,-0.48108 -2.42721,-1.21085 -4.26287,-0.91263 -4.26287,0.69258 0,1.0828 0.85991,1.4572 5.05376,2.20048 1.43773,0.25477 2.61403,0.68168 2.61403,0.94862 0,0.26694 1.24077,1.03277 2.75725,1.70185 1.51646,0.66906 3.55541,2.16507 4.53098,3.32446 2.70811,3.21841 2.11359,3.50258 -1.04391,0.49891 -1.54971,-1.47419 -3.35339,-2.68195 -4.00817,-2.68393 -0.6548,-0.002 -2.44526,-0.77636 -3.97884,-1.72092 -3.46282,-2.1328 -7.31926,-2.36962 -7.31926,-0.44947 0,0.97486 0.84969,1.53975 3.3111,2.20125 1.86135,0.5002 2.79297,1.01356 2.12776,1.17242 -0.65085,0.15545 -1.80655,-0.0508 -2.56822,-0.45855 -2.09522,-1.12134 -5.44342,-0.91408 -5.93517,0.36737 -0.55453,1.44511 0.0585,2.37687 1.56412,2.37687 1.80223,0 10.66948,4.78563 12.93175,6.97924 0.72804,0.70597 2.13962,2.7926 3.13682,4.63699 0.9972,1.84438 2.32968,3.45255 2.96109,3.57369 1.14545,0.21973 13.62201,-11.62588 21.73087,-20.632 2.17716,-2.41805 3.95845,-4.18532 3.95845,-3.92728 0,0.74888 -4.58014,6.76802 -6.55884,8.61952 -2.53926,2.376 -2.44895,3.62385 0.80445,11.11608 1.26981,2.92426 2.90935,11.9293 2.94178,16.1574 0.0132,1.74443 0.40075,3.54811 0.86081,4.00819 0.60983,0.60984 6.00398,0.83649 19.90774,0.83649 15.07461,0 18.95847,0.18258 18.53301,0.87093 -0.29605,0.47899 -0.44767,1.73446 -0.33697,2.78994 0.1183,1.12841 -0.17941,2.04206 -0.72277,2.21766 -1.67219,0.54041 -13.9686,1.09702 -25.6462,1.16091 -8.74861,0.048 -11.81496,0.2999 -12.89586,1.05993 -0.77998,0.54842 -2.55349,1.30411 -3.94114,1.6793 -3.90552,1.05596 -6.18967,3.18786 -6.1947,5.78181 -0.002,1.2182 -0.47289,3.11338 -1.0456,4.21153 -0.57274,1.09816 -1.05245,2.50973 -1.06604,3.13682 -0.0132,0.62712 -0.50377,1.92443 -1.08928,2.8829 l -1.0646,1.74269 0.46491,-1.74269 c 0.25582,-0.95847 0.62369,-2.76508 0.81778,-4.01465 0.19417,-1.24957 0.63188,-2.44439 0.97293,-2.65516 1.07656,-0.66534 0.67755,-3.80798 -0.54296,-4.27634 -0.63966,-0.24554 -2.07666,0.078 -3.19333,0.71894 -1.11666,0.64089 -2.34958,1.16526 -2.73981,1.16526 -0.76965,0 -3.812,1.26147 -9.28508,3.84995 -1.91697,0.90662 -4.89695,1.8553 -6.6222,2.10817 -1.72527,0.25292 -4.0779,0.88983 -5.22807,1.41541 -1.15016,0.52561 -4.16761,1.43157 -6.70545,2.01321 -2.53781,0.58167 -5.51782,1.52882 -6.6222,2.10479 -1.10437,0.57596 -2.79218,1.05567 -3.75066,1.06602 -0.95847,0.0105 -3.77041,0.44351 -6.24874,0.96256 -2.47832,0.51904 -4.98779,0.72612 -5.57657,0.46018 -0.58881,-0.26596 -2.76149,-1.34908 -4.82819,-2.40692 -2.06672,-1.05785 -4.53851,-2.22024 -5.4929,-2.58311 l -1.73523,-0.65973 0.37865,5.4195 c 0.74562,10.67278 1.94558,21.47642 2.53752,22.84634 0.3313,0.76677 1.1484,5.7857 1.81577,11.15317 0.66735,5.36749 1.4649,10.25008 1.77233,10.85027 0.57503,1.12264 7.53583,2.74268 11.78446,2.74268 2.23536,0 2.25688,-0.0316 1.78234,-2.61403 -0.2642,-1.43771 -0.76965,-2.91201 -1.12319,-3.27624 -0.35357,-0.36421 -0.59584,-2.40316 -0.53841,-4.53098 0.0635,-2.3516 0.22447,-3.04869 0.41024,-1.77754 0.16808,1.15016 0.55674,2.40489 0.86352,2.78828 0.30677,0.38342 0.78031,2.65761 1.05236,5.05379 0.27205,2.39621 0.72521,4.35672 1.007,4.35672 1.26849,0 8.90098,-1.57533 10.1554,-2.09604 0.76678,-0.31831 3.58992,-1.12661 6.27366,-1.79625 2.68372,-0.66961 5.22196,-1.47657 5.64052,-1.79319 0.41854,-0.31666 2.928,-1.29491 5.57657,-2.17395 2.64858,-0.87901 5.4782,-1.96763 6.28806,-2.41915 1.55484,-0.86687 2.51091,-4.56502 3.43597,-13.29043 0.25662,-2.41973 0.6155,-4.25044 0.79769,-4.06826 0.18205,0.18232 -0.0511,4.04408 -0.51847,8.58193 -0.68334,6.63529 -1.10377,8.42904 -2.14734,9.16157 -1.36984,0.96158 -1.7053,2.89304 -0.69532,4.0035 1.75931,1.93433 2.62375,10.16967 1.74245,16.59949 -0.51114,3.72924 -2.35382,5.21803 -8.26989,6.68169 -1.91694,0.47425 -4.11273,1.10822 -4.8795,1.4088 -0.76678,0.30059 -3.33466,0.90702 -5.70639,1.34766 -2.37175,0.44061 -6.80282,2.0477 -9.84685,3.57129 -3.04403,1.52357 -6.20087,2.77016 -7.0152,2.77016 -0.81434,0 -1.4806,0.25951 -1.4806,0.57675 0,1.54066 -29.27969,4.3093 -33.80811,3.19683 z m -1.5687,-7.15114 c 0.64851,-1.09785 2.194,-2.31103 3.4614,-2.71716 l 2.28974,-0.73368 -2.32357,-0.0711 c -3.27139,-0.10011 -2.55718,-1.33256 2.46228,-4.24857 4.25329,-2.47092 10.3551,-7.51897 9.78165,-8.09242 -0.17125,-0.17124 -0.70797,0.16704 -1.19295,0.75126 -0.48495,0.58436 -1.1694,1.06246 -1.52096,1.06246 -0.35159,0 -2.26951,1.0979 -4.26206,2.43976 -1.99256,1.34188 -4.17507,2.43978 -4.85003,2.43978 -1.50713,0 -6.80778,4.67656 -6.80778,6.00622 0,0.53048 -0.31368,0.96451 -0.69706,0.96451 -1.06452,0 -0.83141,1.48447 0.45657,2.90769 1.52895,1.68944 1.82484,1.62397 3.20277,-0.70866 z m 54.16998,-6.74729 c 2.09336,-0.5656 5.15174,-1.02834 6.79648,-1.02834 1.64468,0 2.99036,-0.31368 2.99036,-0.69707 0,-0.38339 0.4566,-0.69706 1.01467,-0.69706 1.28685,0 6.11424,-3.24898 6.89422,-4.64 0.86902,-1.54989 -0.064,-5.43984 -1.64885,-6.87407 -1.35184,-1.22341 -1.38051,-1.19687 -1.38051,1.27587 0,2.23573 -0.42622,2.84701 -3.71769,5.33208 -2.51809,1.90118 -4.9022,3.03154 -7.38861,3.50305 -2.01901,0.38292 -5.20815,1.69227 -7.08697,2.90969 -3.74491,2.42664 -4.24586,3.07496 -1.84763,2.39128 0.86265,-0.24581 3.28117,-0.90986 5.37453,-1.47543 z m -87.92866,-1.43737 c 1.09099,-0.76417 1.84098,-0.88884 2.426,-0.40333 0.46574,0.38652 2.71581,0.80585 5.00017,0.93184 3.34622,0.18442 4.19733,0.0158 4.37954,-0.87203 0.15939,-0.77598 -0.65686,-1.35145 -2.76463,-1.94912 -1.64494,-0.46643 -3.67949,-1.1911 -4.52123,-1.6104 -2.47613,-1.23345 -8.75747,2.32844 -7.55039,4.28153 0.6113,0.98914 1.17925,0.91822 3.03054,-0.37849 z m 42.94159,-18.51393 c 0.8876,-1.7792 0.95069,-2.73309 0.33433,-5.05376 -0.41788,-1.57334 -1.05337,-3.42017 -1.41223,-4.10409 -0.60438,-1.15188 -3.39947,-13.72271 -3.39947,-15.28909 0,-0.38221 0.47052,-0.51436 1.0456,-0.29368 1.34247,0.51514 1.33683,-0.6542 -0.0382,-7.90259 -1.01988,-5.37648 -0.97172,-9.20375 0.0727,-5.76817 0.67636,2.22512 1.7384,1.95038 1.34742,-0.34853 -0.17915,-1.05432 -0.64674,-4.40507 -1.0388,-7.44607 -0.39203,-3.04102 -0.86449,-5.68085 -1.04992,-5.86627 -0.51551,-0.51549 -13.63932,1.76229 -14.37135,2.49431 -0.66985,0.66985 0.33067,7.0259 1.51085,9.59815 0.35182,0.76678 1.29457,4.68023 2.09501,8.69656 0.80048,4.01631 1.72575,7.62817 2.05621,8.02634 0.33043,0.39817 1.28967,4.48363 2.13158,9.07884 0.84192,4.59518 1.80592,8.65288 2.14221,9.01711 0.33628,0.36421 0.61623,1.46211 0.62211,2.43976 0.0132,2.05568 0.49425,2.84967 2.42908,4.00202 2.51842,1.49996 4.34732,1.07585 5.52296,-1.28084 z m -9.02586,-1.26382 c 0.22736,-0.36779 0.12066,-1.23042 -0.23712,-1.91694 -0.70275,-1.34895 -2.584,-9.76679 -3.31673,-14.84119 -0.24924,-1.72527 -0.69744,-3.45086 -0.99626,-3.8347 -0.29879,-0.38381 -1.20465,-4.12506 -2.013,-8.31388 -0.80837,-4.18884 -1.73491,-7.9527 -2.05897,-8.36412 -0.32408,-0.41145 -0.80611,-2.00281 -1.07121,-3.53636 -1.08685,-6.28731 -1.81659,-7.99378 -3.87324,-9.05731 -3.29216,-1.70244 -4.21714,-1.4042 -3.769,1.21524 0.21314,1.24601 0.65636,2.89285 0.98485,3.65963 0.32848,0.76677 1.27143,4.37413 2.09543,8.01635 0.82398,3.64222 1.75479,6.93588 2.06844,7.31926 0.31365,0.38342 1.11085,3.52024 1.77159,6.97076 0.6607,3.45052 1.61367,6.94117 2.11767,7.75703 0.504,0.81584 1.58016,4.26636 2.39146,7.66782 1.39289,5.83988 2.60974,7.92712 4.62142,7.92712 0.47919,0 1.05725,-0.30092 1.28456,-0.66871 z m 38.70511,-55.08931 c 15.00732,-0.64263 25.52982,-1.73183 26.83735,-2.77793 0.38339,-0.30675 2.10864,-0.77655 3.83391,-1.04404 4.18993,-0.64962 11.16666,-2.35337 12.89586,-3.14923 0.76678,-0.35291 3.08134,-1.1214 5.14345,-1.70775 2.06211,-0.58634 4.17946,-1.42312 4.70523,-1.85946 1.83126,-1.5198 0.77199,-25.63708 -1.15507,-26.29823 -0.37251,-0.12778 -0.67725,-0.74467 -0.67725,-1.37084 0,-1.93525 -2.23636,-7.11021 -3.07267,-7.11021 -0.43561,0 -3.44341,2.6652 -6.68398,5.92271 -6.02256,6.05402 -9.09225,7.81573 -12.24129,7.02537 -1.06641,-0.26765 -2.38825,0.0158 -3.51639,0.75556 -0.99422,0.65143 -2.95335,1.25708 -4.35364,1.34586 -1.4003,0.0888 -1.99704,0.0105 -1.32611,-0.17599 0.67096,-0.18548 1.21991,-0.58876 1.21991,-0.89611 0,-0.30738 0.9063,-0.74012 2.01405,-0.96166 1.90182,-0.38036 4.95668,-4.02574 4.95668,-5.91483 0,-1.17077 -7.58963,-7.06387 -9.65356,-7.49565 -1.01648,-0.21261 -2.33929,-0.64793 -2.93954,-0.96727 -0.71416,-0.37997 -1.6779,-0.1341 -2.78831,0.71129 -0.93331,0.71055 -3.1869,1.67746 -5.008,2.14866 -1.82112,0.4712 -3.3111,1.06016 -3.3111,1.30879 0,0.24871 -1.64684,1.01475 -3.65966,1.70246 -2.87804,0.98332 -4.05711,1.86454 -5.52074,4.12614 -1.02363,1.58169 -2.08635,3.81468 -2.36161,4.96224 -0.27527,1.14758 -0.81563,2.48615 -1.20078,2.97466 -0.38515,0.48851 -0.56217,1.02631 -0.39335,1.19514 0.16888,0.16887 1.53169,-1.23919 3.02857,-3.12892 3.10525,-3.92025 4.35177,-4.16424 1.38185,-0.2705 -1.51543,1.98684 -1.78426,2.80576 -1.20768,3.67863 0.40794,0.61755 1.12695,1.03029 1.59784,0.91716 0.61963,-0.14885 0.75748,0.66954 0.49902,2.96257 -0.40992,3.63679 0.0798,3.99001 1.70865,1.23252 1.39447,-2.36064 4.03667,-4.84141 4.03667,-3.79004 0,0.42016 -0.31484,0.95855 -0.69965,1.19635 -0.38478,0.2379 -0.51894,1.1523 -0.2981,2.03215 0.25424,1.01251 -0.0313,2.03258 -0.7775,2.77878 -1.4738,1.4738 -0.77118,2.35634 0.82613,1.03769 1.01449,-0.83749 1.12885,-0.82719 0.83359,0.0748 -0.18811,0.57509 -0.98034,1.14021 -1.76023,1.25582 -1.82147,0.26999 -8.01119,-3.3493 -8.95612,-5.23684 -0.39836,-0.79579 -1.11123,-1.9131 -1.58414,-2.48294 -0.68608,-0.82669 -0.65657,-1.44042 0.14596,-3.03691 0.55321,-1.10046 1.57109,-3.4124 2.26197,-5.13768 0.69087,-1.72525 1.57847,-3.37665 1.97242,-3.66972 0.39398,-0.2931 -1.47322,-0.44997 -4.14935,-0.34856 l -4.8657,0.18442 -0.57703,3.45572 c -0.39628,2.37325 -0.31487,3.94556 0.26003,5.01951 1.07363,2.00615 0.32269,7.84313 -1.19437,9.28355 -1.01678,0.9654 -1.04779,0.92343 -0.34026,-0.46038 0.42817,-0.83741 0.7785,-2.97371 0.7785,-4.7473 v -3.22474 l -2.61404,0.21631 -2.61403,0.2163 -0.2105,4.05421 c -0.2783,5.36207 -1.80142,5.01006 -2.09086,-0.48321 -0.17362,-3.29579 0.0329,-4.19222 1.19193,-5.17298 0.98929,-0.83712 1.46149,-2.21225 1.60418,-4.67169 l 0.20234,-3.48538 -4.01217,-0.20918 c -3.7071,-0.19338 -4.06156,-0.0793 -4.66226,1.5007 -0.8496,2.2347 -1.95622,2.8909 -4.87505,2.8909 h -2.39631 l -1.08907,4.87954 c -0.59898,2.68372 -1.3744,5.32267 -1.72314,5.86432 -0.84094,1.30611 -1.47717,21.64543 -0.68052,21.75514 0.51504,0.0709 14.78638,0.81862 22.22681,1.16449 1.15016,0.0535 8.8354,-0.19153 17.07831,-0.54457 z m -20.22912,-17.10304 c -0.48498,-0.58436 -0.74675,-1.19746 -0.58177,-1.36246 0.16492,-0.16493 0.68289,0.31312 1.15085,1.06246 1.01203,1.62049 0.67451,1.79843 -0.56908,0.3 z m 24.95171,-4.16561 c 1.63891,-2.4225 4.90206,-5.60144 5.30974,-5.17271 0.15333,0.16123 -1.29697,1.86161 -3.22287,3.77855 -2.30046,2.28974 -3.01634,2.768 -2.08687,1.39416 z m -7.48954,-6.27367 c 0,-0.38338 0.30409,-1.1676 0.67573,-1.74268 0.37166,-0.57509 0.67572,-0.73193 0.67572,-0.34854 0,0.38339 -0.30406,1.16761 -0.67572,1.74269 -0.37164,0.57508 -0.67573,0.73192 -0.67573,0.34853 z m 7.29792,-1.04559 c 0.69393,-0.76681 1.41856,-1.39416 1.61025,-1.39416 0.1918,0 -0.2192,0.62735 -0.91315,1.39416 -0.69393,0.76677 -1.41853,1.39413 -1.61025,1.39413 -0.1918,0 0.2192,-0.62736 0.91315,-1.39413 z m 8.71345,0.0896 c 0.57508,-0.34466 2.14349,-0.82105 3.48535,-1.05864 1.64582,-0.29138 1.98608,-0.23764 1.04563,0.16493 -2.15559,0.92283 -5.76869,1.63551 -4.53098,0.89377 z m -12.23985,-3.88739 c 0.74423,-0.59495 1.85074,-1.08172 2.45894,-1.08172 0.6082,0 1.80297,-0.4883 2.65505,-1.08512 0.85209,-0.59684 1.54926,-0.75789 1.54926,-0.35791 0,0.71617 -3.04142,2.22325 -6.33439,3.1388 -1.6215,0.45083 -1.63333,0.42875 -0.32886,-0.61405 z m 8.05741,0.31244 c 1.35145,-0.87337 2.09122,-0.87337 2.09122,0 0,0.38339 -0.70581,0.69227 -1.56844,0.68639 -1.26827,-0.008 -1.36831,-0.13989 -0.52278,-0.68639 z m -6.72427,-4.81868 c 1.47744,-0.77228 3.12428,-1.76769 3.65964,-2.21202 0.58385,-0.48453 0.9734,-0.52679 0.9734,-0.10564 0,0.97952 -2.94947,2.80923 -5.32973,3.3063 -1.72388,0.35999 -1.63083,0.22789 0.69669,-0.98872 z m 6.37571,0.63623 c 0.23685,-0.38338 0.74451,-0.69706 1.1279,-0.69706 0.38339,0 0.50321,0.31368 0.26625,0.69706 -0.23685,0.38339 -0.74448,0.69707 -1.12787,0.69707 -0.38339,0 -0.50321,-0.31368 -0.26628,-0.69707 z m -49.77941,24.38988 c 0.39999,-10.53541 0.8929,-14.17183 2.13636,-15.76039 0.33622,-0.42955 0.68507,-1.99796 0.7752,-3.48536 0.15861,-2.61825 0.0864,-2.71172 -2.27306,-2.93558 -2.77535,-0.2632 -4.08019,-1.14443 -4.90409,-3.31145 -0.79829,-2.09962 -4.01717,-2.83081 -5.25842,-1.19448 -1.63346,2.15338 -2.0502,5.87461 -0.74001,6.60782 2.00015,1.11934 1.44077,4.90957 -1.0678,7.23514 l -2.20849,2.04735 1.51142,-2.52203 c 2.24572,-3.74734 2.02599,-5.96758 -0.64872,-6.55504 -2.83579,-0.62285 -3.5386,0.20207 -3.96654,4.6557 -0.28145,2.92926 -0.46954,3.36289 -0.92477,2.13227 -0.31428,-0.84964 -0.86168,-1.54478 -1.2164,-1.54478 -1.06014,0 -1.56066,2.11451 -1.98012,8.36489 -0.21867,3.2588 -0.6875,6.29363 -1.04181,6.74402 -0.42156,0.53593 -0.0582,1.74719 1.05156,3.50511 1.41718,2.24498 2.31137,2.84079 5.44416,3.62759 2.06163,0.51781 4.08833,1.20976 4.50373,1.53775 0.81994,0.64735 7.65539,1.93088 9.35229,1.75612 0.86006,-0.0885 1.11834,-2.02367 1.45551,-10.90465 z m -15.397,-9.40279 c 0.47728,-0.57508 1.18146,-1.0456 1.56485,-1.0456 0.38887,0 0.31336,0.46232 -0.17072,1.0456 -0.47729,0.57508 -1.18147,1.04562 -1.56485,1.04562 -0.38885,0 -0.31336,-0.46234 0.17072,-1.04562 z m -19.12561,15.30664 c 1.44213,-3.0484 1.87992,-5.45791 2.48662,-13.68564 0.40497,-5.49224 1.00674,-10.50812 1.33723,-11.14643 1.06527,-2.05734 1.10129,-11.41316 0.0487,-12.68128 -1.35878,-1.63725 -1.87118,-1.45111 -3.56932,1.29649 -1.19182,1.92843 -1.53353,3.65041 -1.62527,8.19064 -0.10327,5.10608 -0.27205,5.7909 -1.51031,6.12494 -1.85946,0.50163 -2.23829,3.846 -0.63618,5.61633 1.15459,1.27578 1.27367,1.28142 2.55625,0.12067 1.02323,-0.92604 1.25405,-1.80334 0.9643,-3.6653 -0.35238,-2.26426 -0.3049,-2.34636 0.63283,-1.09473 1.64453,2.195 1.28538,6.16506 -0.72892,8.05737 -0.95847,0.90046 -1.74268,2.00631 -1.74268,2.45746 0,0.45115 -0.7842,2.29517 -1.74269,4.09782 -2.66691,5.01577 -2.16547,11.52505 0.80018,10.38703 0.53836,-0.20655 1.76645,-2.04053 2.72911,-4.07543 z m 3.09293,-2.02109 c 0,-0.93584 0.31367,-1.89542 0.69706,-2.13238 0.86202,-0.53274 0.9262,-5.00415 0.0793,-5.52754 -0.33976,-0.20998 -0.83899,1.3891 -1.10941,3.55351 -0.27044,2.16441 -0.65338,4.35664 -0.851,4.87163 -0.1976,0.51496 -0.0132,0.93632 0.41237,0.93632 0.42441,0 0.77165,-0.7657 0.77165,-1.70154 z M 380.919,-673.7233 c -0.71248,-1.95598 -0.72109,-1.94739 -0.7755,0.77548 -0.0403,2.02127 0.15123,2.54724 0.72046,1.97796 0.55032,-0.55032 0.56631,-1.34982 0.0551,-2.75344 z m 4.04897,2.07126 c 0,1.38219 0.7759,1.51827 1.95183,0.34236 0.65059,-0.65061 0.84118,-0.61188 0.85767,0.17415 0.0158,0.75087 0.20471,0.6957 0.73482,-0.21472 0.89131,-1.53058 0.27384,-2.6085 -1.49422,-2.6085 -0.74417,0 -1.35301,-0.37364 -1.35301,-0.8303 0,-0.45668 -0.46055,-0.22131 -1.02344,0.52279 -0.5765,0.76219 -1.03313,0.97259 -1.04562,0.48176 -0.0411,-1.61883 -1.41631,-0.88562 -1.41631,0.75519 0,2.24674 0.83488,2.86969 1.89781,1.41605 0.82092,-1.12266 0.89047,-1.12572 0.89047,-0.039 z m -5.92513,-1.26093 c 0,-0.70286 -0.39208,-1.40865 -0.87132,-1.56841 -0.55187,-0.18389 -0.87134,0.39114 -0.87134,1.56841 0,1.1773 0.31947,1.75239 0.87134,1.56844 0.47924,-0.15966 0.87132,-0.86555 0.87132,-1.56844 z m 86.65502,0.39211 c 0.17414,-0.52281 -0.0872,-0.78419 -0.60994,-0.60994 -0.50321,0.16783 -1.05216,0.71667 -1.21988,1.21988 -0.17415,0.52281 0.0872,0.78422 0.60994,0.60994 0.50318,-0.16783 1.05213,-0.71667 1.21988,-1.21988 z m -89.38168,-2.65405 c -0.76148,-0.76148 -1.28364,0.44951 -0.73693,1.70907 0.51839,1.19435 0.55598,1.19327 0.84481,-0.0237 0.16625,-0.70094 0.11777,-1.45902 -0.10775,-1.6846 z m 33.53458,-4.41324 c 0.47542,-1.69611 1.19074,-3.63278 1.58964,-4.30371 1.23867,-2.0834 -0.4302,-1.34068 -2.63819,1.17406 -2.61414,2.97734 -3.40766,5.23497 -2.12526,6.04664 1.55392,0.98353 2.26329,0.33154 3.17381,-2.91699 z m -9.08551,-0.12119 c -0.19338,-0.47924 -0.35158,-0.0872 -0.35158,0.87134 0,0.95848 0.15834,1.35058 0.35158,0.87132 0.19338,-0.47923 0.19338,-1.26343 0,-1.74266 z m 14.69971,-3.80406 c 1.0104,-2.17561 1.1616,-5.78071 0.24238,-5.78071 -0.78525,0 -2.15941,3.83668 -2.15941,6.02913 0,2.17629 0.84153,2.06722 1.91695,-0.24845 z m 25.12398,-4.56083 c 0.12014,-3.18603 -0.0753,-5.40232 -0.47649,-5.40232 -0.37407,0 -0.77935,-0.86265 -0.90067,-1.91697 -0.2005,-1.74174 -0.58217,-1.98067 -4.1767,-2.61403 -2.17587,-0.38339 -4.18866,-0.93234 -4.47289,-1.21988 -0.85234,-0.86231 -5.18267,-0.58957 -5.53402,0.34853 -0.17942,0.47927 0.0756,3.85136 0.56686,7.49357 l 0.89321,6.6222 4.85736,0.57724 c 2.67152,0.31747 5.16734,0.87844 5.54625,1.2466 0.3789,0.36813 1.31996,0.5789 2.09122,0.46835 1.24619,-0.17863 1.42495,-0.80229 1.60587,-5.60329 z m -6.47724,2.49722 c -1.92685,-0.41962 -4.77563,-1.83056 -5.39165,-2.67039 -0.28169,-0.384 -0.51694,-1.71766 -0.52281,-2.96367 -0.005,-1.24602 -0.32435,-2.26548 -0.70774,-2.26548 -1.04075,0 -0.84115,-1.80097 0.30501,-2.75219 1.33388,-1.10701 6.54743,-0.30859 8.72867,1.33672 1.36241,1.02766 1.72765,2.04649 1.97891,5.5203 0.33341,4.60914 0.13542,4.78032 -4.39039,3.79471 z m 22.30635,-11.97755 c 4.22454,-3.76749 6.64527,-6.90107 6.20917,-8.03756 -0.27587,-0.71885 -1.03967,-1.11763 -1.89898,-0.99143 -1.68061,0.24686 -9.07752,8.67522 -8.47259,9.65405 0.64208,1.03891 2.63158,0.74015 4.1624,-0.62506 z m -12.89587,-0.3313 c 0,-0.97778 -8.83337,-11.62724 -9.63671,-11.61797 -0.83963,0.0105 -2.21413,3.7006 -2.19137,5.8844 0.0285,2.73249 1.42994,4.5558 3.54005,4.60562 0.91621,0.0211 2.76373,0.45476 4.10559,0.96245 3.25838,1.23283 4.18244,1.2694 4.18244,0.16545 z m 25.22663,-1.34157 c -1.34533,-1.34225 -1.66768,-1.41763 -2.23546,-0.52278 -1.08594,1.71147 -0.80243,2.09122 1.56132,2.09122 h 2.24614 z m -44.74469,-0.17415 c 0.53433,-0.64382 2.06409,-1.04562 3.98092,-1.04562 h 3.11317 l -0.24529,-7.49354 c -0.22763,-6.95335 -0.40122,-7.74481 -2.40713,-10.97892 -1.18898,-1.91695 -2.7126,-5.21063 -3.38582,-7.31927 -0.67325,-2.10866 -1.48028,-4.34721 -1.79341,-4.97454 -0.31312,-0.62735 -0.80534,-3.13682 -1.09381,-5.5766 -0.47723,-4.03611 -0.58754,-4.26316 -1.22377,-2.519 -0.38458,1.05432 -0.93771,1.91694 -1.22916,1.91694 -0.62901,0 -3.38341,6.03068 -3.38341,7.40789 0,0.52637 -0.27234,0.957 -0.6052,0.957 -0.78762,0 -2.88016,7.47349 -2.88016,10.28644 0,1.19825 -0.3137,2.37249 -0.69709,2.60945 -0.38339,0.23685 -0.69706,1.03967 -0.69706,1.78381 0,0.74415 0.31367,1.35301 0.69706,1.35301 0.38339,0 0.69709,1.009 0.69709,2.24218 0,3.00304 1.98906,8.04842 3.94349,10.00283 2.4176,2.4176 5.79751,3.04951 7.20969,1.34794 z m 88.29227,-7.70945 c 0.92941,-2.42197 -9.26906,-9.66119 -14.33333,-10.17428 -4.01373,-0.40668 -3.30083,1.28714 1.45085,3.4472 2.42284,1.1014 4.8357,2.52599 5.36185,3.16575 0.52621,0.63976 1.38159,1.16321 1.9009,1.16321 0.51931,0 1.45802,0.78419 2.08603,1.74269 1.29241,1.97242 2.91299,2.27303 3.5337,0.65543 z m -68.72323,-3.96653 c 1.47409,-1.62943 2.69302,-3.66053 2.70875,-4.51356 0.0264,-1.37614 -0.22684,-1.50289 -2.23691,-1.12422 -3.87299,0.72963 -6.54909,3.92541 -5.79686,6.92257 0.61832,2.46355 2.30136,2.05745 5.32502,-1.28479 z m -4.81551,-7.66782 c 4.1972,-4.75221 5.854,-9.21047 3.72626,-10.02696 -2.078,-0.79739 -9.41784,7.63636 -9.41784,10.82147 0,1.45299 1.04112,3.56218 1.75832,3.56218 0.0469,0 1.8169,-1.96052 3.93326,-4.35669 z m 9.94378,3.04155 c 0.20998,-0.33995 -0.0851,-1.00574 -0.65594,-1.47952 -0.86375,-0.71685 -1.03793,-0.6131 -1.03793,0.61811 0,1.49548 0.99064,1.99924 1.69387,0.86141 z m -14.93826,-12.46163 c 0,-0.31834 1.25473,-1.80405 2.78828,-3.30153 1.95407,-1.90809 2.78829,-3.31258 2.78829,-4.69433 0,-3.53751 -2.99334,-3.2289 -5.05856,0.52152 -0.4766,0.86555 -2.20669,3.48475 -3.84463,5.82044 -2.53373,3.61305 -2.85505,4.44377 -2.15335,5.56735 0.78043,1.24965 0.94983,1.19551 3.15234,-1.007 1.28018,-1.28018 2.32763,-2.58808 2.32763,-2.90645 z m 41.12734,2.58247 c 0,-1.45844 -1.11576,-1.72799 -2.78489,-0.6728 -0.894,0.56518 -0.84555,0.80269 0.34084,1.67021 1.6357,1.19604 2.44405,0.86616 2.44405,-0.99741 z m -8.06515,0.81718 c 0.5358,-0.86695 -1.46963,-2.39107 -2.39425,-1.81962 -0.54405,0.33623 -0.52837,0.75147 0.0548,1.45417 0.93463,1.12614 1.787,1.25929 2.33943,0.36545 z m 2.34915,-3.0067 c 1.34381,-1.34381 0.96693,-2.50952 -0.77623,-2.40097 -1.27726,0.0796 -1.55036,0.42667 -1.31288,1.66892 0.3376,1.76611 0.86889,1.95227 2.08911,0.73205 z m -20.23083,-2.33985 c 1.913,-1.33991 1.95128,-2.7779 0.15255,-5.72819 -0.76536,-1.25529 -1.39155,-2.86812 -1.39155,-3.58407 0,-0.82917 -0.67546,-1.47125 -1.86064,-1.76872 -1.48668,-0.37314 -2.27485,-0.053 -3.9212,1.59351 l -2.06052,2.06053 1.87884,3.84018 c 1.03335,2.11212 2.06596,4.02735 2.29467,4.25603 0.77339,0.77339 3.34983,0.42204 4.90791,-0.66927 z m 20.34491,-2.02116 c 1.05427,-1.27033 0.36937,-2.47029 -1.40996,-2.47029 -0.84729,0 -1.35301,0.47765 -1.35301,1.27797 0,2.28257 1.36813,2.87299 2.76297,1.19232 z m -40.40496,-3.61329 c 0,-0.44423 1.88211,-2.88448 4.18244,-5.42282 3.00177,-3.31231 4.17626,-5.15238 4.16045,-6.51821 -0.0211,-1.7487 -0.50081,-1.40691 -5.92511,4.21371 -5.76173,5.97027 -6.33753,6.92726 -5.49261,9.12903 0.33349,0.86908 0.66047,0.91371 1.74269,0.23791 0.73269,-0.45755 1.33214,-1.19538 1.33214,-1.63957 z m 24.3976,1.46966 c 0,-1.11302 -1.85255,-2.19184 -2.55594,-1.48847 -0.22263,0.22262 -0.21894,0.88865 0.008,1.48028 0.53459,1.3931 2.54775,1.39958 2.54775,0.008 z m 1.54604,-3.63776 c 0.5348,-2.07452 -0.25161,-6.53062 -1.10316,-6.25033 -0.43529,0.14333 -0.88623,1.8827 -1.00213,3.86535 -0.16177,2.7656 0.0211,3.60485 0.79007,3.60485 0.55039,0 1.14223,-0.54894 1.31522,-1.21987 z m 16.57789,-2.67213 c 0,-5.11878 -1.65161,-4.87601 -1.95341,0.28715 -0.16861,2.88402 0.005,3.60485 0.87135,3.60485 0.84882,0 1.08206,-0.83894 1.08206,-3.892 z m -4.18244,0.27339 c 0,-2.61213 -0.0988,-2.78631 -0.93374,-1.64457 -0.70865,0.96914 -0.75068,1.67208 -0.17414,2.91609 0.41771,0.90154 0.83788,1.6416 0.93373,1.64458 0.0959,0.003 0.17415,-1.30925 0.17415,-2.9161 z m 8.03521,-1.29143 c 0.24739,-0.4002 0.0675,-1.18829 -0.39988,-1.7513 -1.04059,-1.25382 -2.88379,-0.0598 -2.29127,1.48426 0.44531,1.16049 2.04109,1.31883 2.69115,0.26704 z m -27.5533,-1.71215 c 0,-0.57509 -0.31368,-1.04563 -0.69707,-1.04563 -0.38339,0 -0.69706,0.47054 -0.69706,1.04563 0,0.57508 0.31367,1.04559 0.69706,1.04559 0.38339,0 0.69707,-0.47051 0.69707,-1.04559 z m -10.45611,-14.93021 c 0,-0.79807 -0.28839,-1.45104 -0.64084,-1.45104 -0.35246,0 -3.01877,2.58424 -5.92514,5.74277 -3.67818,3.99731 -5.28115,6.27488 -5.27404,7.49354 0.008,1.53643 0.7344,1.01101 5.92513,-4.29173 3.5923,-3.66977 5.91489,-6.61229 5.91489,-7.49354 z m 38.20506,10.98472 c 0.21367,-1.84755 0.19865,-1.85374 -4.19319,-1.71063 -4.72965,0.15413 -6.1289,0.64904 -6.1289,2.16771 0,1.04083 2.78829,1.60295 7.31927,1.47556 2.47677,-0.0696 2.81226,-0.28556 3.00282,-1.93264 z m -20.7782,-0.63399 c 0,-1.09569 -0.37548,-1.38905 -1.56129,-1.21988 -2.3169,0.33056 -2.52053,2.66251 -0.23264,2.66251 1.34916,0 1.7938,-0.35757 1.7938,-1.44263 z m -3.13684,-3.04055 c 6.01974,-3.60966 12.85887,-7.36709 13.40935,-7.36709 0.31852,0 2.25965,-1.08266 4.31359,-2.40595 2.05394,-1.32328 4.63123,-2.60294 5.72735,-2.84369 1.09611,-0.2408 1.9929,-0.88955 1.9929,-1.44179 0,-1.14772 -3.05799,-6.20654 -4.16555,-6.89106 -0.40518,-0.25029 -0.55622,-0.74731 -0.33565,-1.10422 0.53548,-0.86642 3.60944,-0.83077 4.15267,0.0482 0.23685,0.38342 1.17801,0.6971 2.09122,0.6971 0.91324,0 1.85427,-0.31368 2.09122,-0.6971 0.23686,-0.38338 1.11811,-0.70705 1.9581,-0.71922 0.83999,-0.0132 2.09011,-0.44904 2.77801,-0.97075 1.17891,-0.89413 1.1435,-1.03292 -0.61681,-2.41759 -1.02716,-0.80796 -2.46039,-1.46901 -3.18493,-1.46901 -0.77608,0 -1.5995,-0.74193 -2.00386,-1.80555 l -0.68647,-1.80553 -2.43718,1.97981 c -3.97849,3.2319 -12.04881,11.37464 -20.17618,20.35724 -9.95235,10.99957 -10.68398,12.31985 -4.90778,8.85624 z m -17.14217,-12.28456 c 2.4215,-2.70461 4.2021,-5.1181 3.95692,-5.3633 -0.58317,-0.58317 -9.46966,8.22791 -9.46966,9.3893 0,1.69516 1.12796,0.8714 5.51274,-4.026 z m 31.43219,-10.53093 c 0,-0.32134 -0.27711,-0.58428 -0.61579,-0.58428 -0.33865,0 -0.77982,-0.62738 -0.98034,-1.39416 -0.56041,-2.14296 -1.36204,-1.70116 -3.87308,2.13449 -1.27052,1.94076 -2.76711,3.70402 -3.32573,3.91837 -1.48223,0.56879 -3.05533,3.98435 -3.05533,6.63385 0,2.29487 0.0132,2.28647 5.92514,-3.91208 3.25882,-3.41654 5.92513,-6.47482 5.92513,-6.79619 z m -21.69304,4.67369 c 2.21647,-2.93572 2.87204,-4.42077 2.87204,-6.50604 0,-1.4861 -0.19838,-2.90052 -0.44108,-3.14309 -0.77613,-0.77615 -2.88741,2.59554 -4.07996,6.51574 -0.63589,2.0903 -1.44722,4.34523 -1.80294,5.01097 -0.80635,1.50908 -0.8136,1.9264 -0.0335,1.9264 0.33733,0 1.90574,-1.71178 3.48537,-3.80398 z m 27.9667,-9.26321 c 6.62689,-6.93321 17.28666,-16.90698 18.06982,-16.90698 0.41313,0 0.75118,-0.35069 0.75118,-0.77931 0,-0.42863 0.94106,-1.85113 2.09122,-3.16109 1.15017,-1.30998 2.09122,-2.68453 2.09122,-3.05459 0,-1.37919 -1.68241,-0.57356 -6.17473,2.95685 -2.54027,1.99629 -6.03278,4.33949 -7.76112,5.20709 -5.46299,2.74226 -6.38524,3.88819 -6.14325,7.6331 l 0.21235,3.2886 -3.73216,1.96732 c -2.0527,1.08206 -3.97766,1.81564 -4.27769,1.63019 -0.30002,-0.18548 -0.74622,-1.40696 -0.99153,-2.71455 -0.63352,-3.37691 -2.12779,-4.46487 -3.91319,-2.84909 -1.1851,1.07247 -1.24928,1.41587 -0.44143,2.36169 0.51992,0.6087 1.16703,1.7341 1.43803,2.50088 0.75397,2.13335 3.46717,5.91465 4.25018,5.92331 0.38338,0.005 2.42231,-1.7973 4.53097,-4.00342 z m -34.99945,-0.27995 c 2.5722,-0.82327 4.92759,-1.92116 5.23418,-2.43976 0.30659,-0.51857 1.06465,-0.94287 1.6846,-0.94287 0.61992,0 0.96627,-0.16098 0.76967,-0.35746 -0.41706,-0.41706 -9.25143,1.62407 -11.55087,2.66878 -0.86262,0.39189 -1.56841,1.13009 -1.56841,1.64038 0,1.18748 -0.0851,1.19638 5.43083,-0.56907 z m 61.02355,-1.05906 c 0.0638,-0.31948 -2.23646,-0.956 -5.11188,-1.41447 l -5.22807,-0.83359 5.75088,0.35867 c 5.06623,0.316 5.75086,0.2192 5.75086,-0.81396 0,-0.99333 -0.47571,-1.10132 -3.11029,-0.70623 -3.04456,0.45655 -5.95166,-0.36258 -5.95166,-1.67701 0,-0.34253 0.4929,-1.11571 1.09539,-1.71816 1.59035,-1.59039 -0.10591,-1.45473 -4.14364,0.33135 -3.45929,1.53021 -4.2037,3.17389 -1.65701,3.65879 0.86262,0.16414 0.2632,0.16993 -1.33235,0.0132 -1.59541,-0.15728 -3.07469,-0.005 -3.28731,0.33966 -0.76928,1.24475 2.84986,2.29329 9.67727,2.8038 7.3958,0.55298 7.36861,0.55422 7.54781,-0.34171 z m 20.51242,-0.58088 c -0.0996,-0.38339 -1.74951,-0.63745 -3.66648,-0.56457 -1.91694,0.0727 -5.09863,0.15122 -7.07043,0.17415 -2.19007,0.0263 -3.71588,0.38083 -3.92127,0.91313 -0.26135,0.67704 1.35564,0.79362 7.25153,0.52278 4.54862,-0.20892 7.51522,-0.62772 7.40665,-1.0456 z m -45.50483,-3.85873 c 1.16379,-1.16379 1.2477,-1.60501 0.52524,-2.76189 -0.95036,-1.52175 -1.19135,-8.36647 -0.29455,-8.36647 0.31091,0 0.96519,-1.56034 1.45396,-3.46741 0.48875,-1.90706 1.43776,-4.18128 2.1089,-5.05379 0.67114,-0.8725 2.38643,-3.93658 3.81175,-6.80907 2.81213,-5.66736 4.16898,-12.6759 3.77975,-19.52343 -0.18732,-3.29656 -0.41335,-3.83391 -1.61209,-3.83391 -1.2629,0 -1.43207,0.59898 -1.79689,6.36224 -0.22157,3.49923 -0.80134,7.42027 -1.28853,8.71342 -1.163,3.087 -4.03617,9.47817 -5.44419,12.11022 -5.1877,9.69747 -6.37768,12.42856 -7.16282,16.4392 -0.49409,2.52391 -0.67928,5.46168 -0.41158,6.52836 0.43933,1.75041 0.7041,1.89599 2.71639,1.49353 1.22628,-0.24528 2.85286,-1.0692 3.61466,-1.831 z m -31.74942,0.27516 c 0.6871,-0.62227 -1.20415,-1.6558 -2.27673,-1.24422 -1.85734,0.71274 -1.47822,2.57912 0.40626,1.99988 0.86262,-0.26518 1.70433,-0.60523 1.87047,-0.75566 z m 62.78313,0.36139 c 0,-0.56036 0.28079,-0.5494 0.98935,0.0387 0.76524,0.63512 1.1205,0.61497 1.56841,-0.0888 0.31849,-0.5005 1.0453,-0.90999 1.61514,-0.90999 0.56984,0 1.14179,-0.54895 1.27099,-1.21988 0.25582,-1.32856 -1.56915,-1.71674 -2.32457,-0.49444 -0.2466,0.39899 -1.04931,0.5347 -1.78384,0.30156 -0.74654,-0.23712 -1.33548,-0.0959 -1.33548,0.32013 0,0.40923 -0.94106,0.74407 -2.09123,0.74407 -1.99861,0 -2.62581,0.62719 -1.6265,1.6265 0.77257,0.77257 3.71773,0.52089 3.71773,-0.31771 z m -8.05382,-1.68212 c 1.03529,-0.78298 1.16363,-1.21912 0.54173,-1.84101 -1.06528,-1.06528 -4.33815,0.33106 -4.33815,1.85084 0,1.33888 2.02003,1.33363 3.79642,-0.0105 z m 3.17431,-1.75905 c 0,-0.40602 0.29202,-0.55775 0.6489,-0.33715 0.85006,0.52534 1.65564,-0.8038 1.0657,-1.75834 -0.30037,-0.48604 -0.9165,-0.32833 -1.78381,0.45658 -1.44474,1.30747 -1.72728,2.37713 -0.62786,2.37713 0.38339,0 0.69707,-0.3322 0.69707,-0.73822 z m -10.608,-1.13078 c 1.42541,-0.64455 4.30833,-1.82088 6.40648,-2.61403 4.43097,-1.67498 5.78107,-3.59306 4.8397,-6.87549 -0.91197,-3.1799 -1.9273,-3.9041 -3.13258,-2.23441 -0.5535,0.76677 -3.58199,3.98203 -6.72995,7.14501 -5.79894,5.8266 -6.06105,6.69401 -1.38365,4.57892 z m -9.25862,-6.83618 c 1.53358,-0.94132 4.04304,-2.32217 5.5766,-3.06853 1.53355,-0.74638 3.96461,-2.46452 5.40232,-3.8181 2.39151,-2.25154 2.61403,-2.78015 2.61403,-6.20975 v -3.74871 l -2.09122,0.30691 c -1.77639,0.26082 -2.09122,0.0788 -2.09122,-1.20842 0,-1.31839 -0.33057,-1.48721 -2.54343,-1.29899 -1.6701,0.142 -2.80702,0.69506 -3.3111,1.61051 -0.42222,0.76677 -0.94063,1.55096 -1.15201,1.74266 -0.57721,0.52347 -2.75251,6.53143 -2.75251,7.60222 0,1.29428 1.87276,-0.28209 3.64873,-3.07122 l 1.33156,-2.09122 -0.47371,2.35389 c -0.47754,2.37286 -4.87682,7.75039 -6.34221,7.75253 -0.75021,10e-4 -1.61966,2.12634 -1.64021,4.00932 -0.0132,1.2336 0.65394,1.08298 3.82438,-0.8631 z m 7.31929,-24.05731 c 0,-0.38339 -0.31368,-0.69706 -0.69707,-0.69706 -0.38341,0 -0.69709,0.31367 -0.69709,0.69706 0,0.38339 0.31368,0.69709 0.69709,0.69709 0.38339,0 0.69707,-0.3137 0.69707,-0.69709 z m -14.82282,-9.17163 c 3.88439,-0.94359 7.16424,-2.17334 7.1331,-2.6745 -0.0572,-0.92148 -3.60283,-2.69436 -8.34299,-4.17169 -2.87542,-0.89616 -5.56512,-1.88622 -5.97712,-2.20014 -2.6027,-1.98318 -21.43674,-3.63339 -23.86854,-2.09135 -0.79204,0.50226 -2.9168,3.92952 -2.9168,4.70483 0,0.1478 0.44638,0.26886 0.99198,0.26886 0.5456,0 1.93955,0.94757 3.0977,2.10572 1.89586,1.89586 2.3981,2.05897 5.03919,1.63664 1.61341,-0.25793 3.52564,-1.06125 4.24942,-1.78503 2.98965,-2.98965 8.93053,-3.25635 11.41379,-0.5124 1.47238,1.62695 0.51314,1.76182 -1.6675,0.23448 -1.4586,-1.02165 -1.78629,-1.00803 -4.16329,0.17283 l -2.58007,1.28169 4.54939,0.35003 c 3.21135,0.24713 5.15899,0.80482 6.6222,1.89637 2.45569,1.83195 2.22195,1.80341 6.41954,0.78374 z m -29.78991,-2.67861 c 0,-1.19356 -5.37534,-1.17717 -6.57253,0.0211 -0.43801,0.438 0.60272,0.67704 2.94773,0.67704 1.99364,0 3.6248,-0.31368 3.6248,-0.69706 z m -6.13811,-15.47889 c -0.88323,-0.88322 -2.22677,-0.12619 -2.22677,1.25453 0,0.83048 0.2834,0.87732 1.46898,0.24291 0.99872,-0.53451 1.24132,-1.01385 0.75779,-1.49736 z m 60.50988,240.93647 c 0,-2.07101 1.13878,-4.48513 2.11572,-4.48513 0.93677,0 0.83929,2.15137 -0.19865,4.38655 -1.1006,2.36991 -1.91694,2.41188 -1.91694,0.0985 z m -1.75336,0.1897 c -0.28072,-0.68766 -0.32906,-2.41294 -0.10749,-3.83389 0.37103,-2.37882 0.32263,-2.47635 -0.61081,-1.23047 -0.55756,0.7442 -1.01857,1.8421 -1.02444,2.43976 -0.005,0.59766 -0.34529,1.55716 -0.75424,2.13227 -1.62542,2.28576 0.0271,-6.3379 1.77273,-9.2502 l 1.76729,-2.9486 0.0509,2.43975 c 0.049,2.35811 0.0753,2.38143 0.78319,0.69707 1.33712,-3.18151 1.3192,-0.3375 -0.0332,5.27283 -0.93271,3.86926 -1.48687,5.15603 -1.84389,4.28148 z m -4.25221,-8.9405 c 0,-2.12358 0.19655,-3.04719 0.48314,-2.27085 0.40741,1.10337 0.56578,0.98068 1.01029,-0.78272 0.28994,-1.15016 1.26693,-3.37351 2.17111,-4.94076 0.90417,-1.56725 1.64394,-3.31097 1.64394,-3.87493 0,-0.56397 0.48677,-1.6343 1.08172,-2.37853 1.03938,-1.30018 1.06341,-1.28495 0.61384,0.38958 -0.25741,0.95847 -1.17667,3.3111 -2.04304,5.22804 -0.86636,1.91697 -2.14692,5.21063 -2.84572,7.31929 -1.73874,5.24683 -2.11528,5.48018 -2.11528,1.31088 z m 16.61362,-3.4021 c -0.008,-0.95847 0.23817,-2.52691 0.54512,-3.48538 0.43732,-1.36554 0.5553,-1.44097 0.54513,-0.34853 -0.008,0.76678 -0.25239,2.33521 -0.54513,3.48538 -0.47797,1.87842 -0.53345,1.91388 -0.54512,0.34853 z m -15.77431,-2.78829 c 0.23922,-1.34188 1.18455,-3.95289 2.1006,-5.80223 1.29249,-2.60931 1.50226,-3.66764 0.93647,-4.72477 -0.80959,-1.51277 -2.05325,-1.16342 -2.05325,0.57674 0,0.61637 -0.19918,0.92159 -0.44238,0.67828 -0.6062,-0.6062 1.02189,-4.36587 3.56083,-8.22272 l 2.10959,-3.20469 0.14596,3.35446 c 0.13621,3.12955 -0.47621,5.17058 -3.63529,12.11687 -0.52308,1.15016 -1.44751,3.34595 -2.05429,4.8795 l -1.10324,2.78832 z m -0.3611,-3.64553 c -0.0798,-0.82524 2.191,-6.19684 2.49234,-5.8955 0.15176,0.15176 -0.33591,1.65472 -1.08361,3.34 -0.74773,1.68531 -1.38164,2.83527 -1.40873,2.5555 z m 17.4266,-1.2921 c 0.0269,-0.92651 0.33323,-2.31194 0.68063,-3.07872 0.44022,-0.97167 0.50297,-0.54916 0.20708,1.39413 -0.49283,3.23651 -0.95855,4.12032 -0.88771,1.68459 z m 1.40019,-6.62219 c 0.0335,-0.81204 0.19865,-0.97723 0.42115,-0.42115 0.20128,0.50319 0.17652,1.10443 -0.0551,1.33607 -0.23158,0.23158 -0.39637,-0.18021 -0.3661,-0.91492 z m -14.30024,-8.85967 c 0.26188,-0.68748 0.65154,-1.07434 0.86618,-0.85973 0.21472,0.21472 4.5e-4,0.77711 -0.47597,1.24997 -0.68842,0.68331 -0.76849,0.60324 -0.39021,-0.39024 z m -136.59018,-11.64793 c -2.27166,-2.51444 -2.51004,-3.15189 -2.41138,-6.44794 l 0.1096,-3.65763 0.41329,3.43131 c 0.22737,1.88723 0.80541,3.56021 1.28464,3.71773 0.47924,0.15755 0.87614,-0.13173 0.88202,-0.643 0.0184,-1.51459 1.3603,0.93199 1.37279,2.50103 0.005,0.73661 0.52982,1.91291 1.16434,2.61403 0.63449,0.70113 0.82784,1.27479 0.42965,1.27479 -0.3982,0 -1.8584,-1.25566 -3.24487,-2.79032 z m 5.45051,-1.46489 c -0.26162,-0.42341 -0.63684,-2.77604 -0.83367,-5.22807 -0.1968,-2.45201 -0.61755,-4.45821 -0.93497,-4.45821 -0.81778,0 -2.0203,2.4377 -2.0203,4.09548 0,0.76935 -0.34724,1.61343 -0.77162,1.87571 -1.279,0.79048 0.035,-3.87162 2.07599,-7.36535 l 1.83245,-3.13682 0.44667,5.92514 c 0.24581,3.2588 0.67439,6.63089 0.95265,7.49354 0.52856,1.63846 0.073,2.12547 -0.7472,0.79858 z m -2.39481,-16.30848 c 0,-0.57508 0.1233,-1.04562 0.27398,-1.04562 0.1507,0 0.45449,0.47054 0.67519,1.04562 0.22078,0.57508 0.0975,1.0456 -0.27397,1.0456 -0.37135,0 -0.6752,-0.47052 -0.6752,-1.0456 z m 146.58471,-19.34381 c 0.84892,-0.86262 1.65158,-1.3226 1.78368,-1.02217 0.35122,0.79881 -1.30308,2.59058 -2.39183,2.59058 -0.60222,0 -0.38563,-0.55859 0.60815,-1.56841 z m -8.57806,-5.07062 c -1.39104,-1.67614 -0.26214,-2.00207 1.35006,-0.38979 0.9954,0.99541 1.15016,1.45225 0.49198,1.45225 -0.52816,0 -1.35706,-0.4781 -1.84204,-1.06246 z m 10.45314,-0.003 c -1.27115,-1.53164 1.7117,-4.65578 4.17048,-4.36798 2.34082,0.274 2.65007,2.33176 0.60638,4.03499 -1.97143,1.64299 -3.59569,1.75623 -4.77686,0.33299 z m 4.8965,-2.876 c 0,-1.4743 -2.6446,-1.09439 -3.13487,0.45034 -0.69032,2.175 0.27552,3.07488 1.80992,1.6863 0.72871,-0.65949 1.32495,-1.62097 1.32495,-2.13664 z m -20.21516,-0.58904 c -1.01069,-0.57775 -1.3035,-0.99726 -0.69706,-0.99873 0.57508,-10e-4 1.65451,0.45803 2.39871,1.02091 1.72171,1.30223 0.58936,1.28748 -1.70165,-0.0211 z m 8.00456,-3.84622 c -1.10844,-1.15693 -3.20045,-2.62641 -4.64893,-3.26547 -3.39372,-1.49732 -2.94621,-2.03189 0.49673,-0.59334 2.88468,1.20531 8.53721,5.96236 7.0847,5.96236 -0.50445,0 -1.82407,-0.94661 -2.9325,-2.10355 z m 26.84912,-6.87615 c 0,-0.38338 0.31371,-0.89094 0.69709,-1.12787 0.38339,-0.23685 0.69707,-0.11724 0.69707,0.26625 0,0.38339 -0.31368,0.89095 -0.69707,1.12788 -0.38338,0.23685 -0.69709,0.11724 -0.69709,-0.26626 z m -16.72974,-3.91619 c -0.90046,-0.95847 -1.30725,-1.74269 -0.90397,-1.74269 0.40328,0 1.12374,0.47055 1.60103,1.04563 1.32044,1.59104 3.02627,1.33385 2.57591,-0.38837 -0.31059,-1.18771 -0.20181,-1.29027 0.63334,-0.59713 0.87408,0.72541 0.8524,1.00921 -0.16282,2.13105 -1.51137,1.67006 -1.78385,1.63741 -3.74344,-0.44849 z m 18.85197,1.39416 c 0,-0.38339 0.61342,-1.48128 1.36315,-2.43975 0.74973,-0.95848 1.36315,-1.42902 1.36315,-1.04563 0,0.38339 -0.61342,1.48129 -1.36315,2.43976 -0.74973,0.95849 -1.36315,1.42901 -1.36315,1.04562 z m -22.74242,-4.59344 c -0.72926,-0.80582 -2.26962,-1.88006 -3.423,-2.38717 -1.66707,-0.73295 -1.80581,-0.93368 -0.67659,-0.97889 1.52623,-0.0611 6.51879,3.71161 5.83645,4.41042 -0.22605,0.23132 -1.00758,-0.23844 -1.73686,-1.04436 z m -38.4402,-1.21371 c -0.47121,-0.29123 -0.57701,-0.88737 -0.25108,-1.41471 0.43721,-0.70742 0.66663,-0.64198 1.02523,0.29244 0.55677,1.45093 0.31792,1.7972 -0.77415,1.12227 z m 41.53652,-0.79186 c -0.90512,-0.75403 -1.30216,-1.38138 -0.88236,-1.39416 0.41983,-0.0132 1.33109,0.6042 2.02502,1.37097 1.61436,1.78387 0.98608,1.7966 -1.14266,0.0237 z m -54.6053,0.005 c -0.20629,-0.33391 -0.0211,-0.72494 0.41042,-0.86898 0.99285,-0.33096 0.95829,-6.36572 -0.0385,-6.69794 -0.40621,-0.13542 -0.7138,-0.92583 -0.68353,-1.7565 0.0377,-1.03584 0.18021,-1.18183 0.45305,-0.46471 0.21894,0.57508 0.71203,1.2502 1.09579,1.50027 0.38373,0.25003 0.82474,2.17034 0.97997,4.26723 0.21893,2.95619 0.0437,3.90407 -0.77995,4.22012 -0.5842,0.2242 -1.231,0.13436 -1.43737,-0.19944 z m 78.75424,-0.72587 c 0.28852,-0.95847 1.12082,-2.84055 1.84958,-4.18244 5.46763,-10.06771 6.15529,-11.66697 6.15948,-14.32485 0.003,-1.55273 -0.36676,-3.19436 -0.82042,-3.64801 -0.4537,-0.45371 -0.63141,-1.01836 -0.39493,-1.25484 0.90112,-0.90112 1.85358,0.55437 2.29675,3.5097 0.41037,2.73641 0.10591,3.77755 -2.7984,9.56853 -5.36884,10.70524 -7.41661,14.06779 -6.29206,10.33191 z m -28.57796,-2.7803 c -0.24422,-0.39514 0.0356,-0.51201 0.65594,-0.27395 1.20763,0.46341 1.42859,0.96303 0.42589,0.96303 -0.36076,0 -0.84758,-0.31009 -1.08183,-0.68908 z m 33.01718,-24.2313 c -0.86708,-1.10559 -0.84242,-1.13025 0.26319,-0.2632 1.16116,0.91066 1.53042,1.48308 0.95671,1.48308 -0.14464,0 -0.69369,-0.54895 -1.21988,-1.21988 z m -3.00312,-3.45529 c -0.37827,-0.99349 -0.29821,-1.07355 0.39024,-0.39024 0.47639,0.47286 0.69056,1.03532 0.47594,1.24994 -0.21472,0.21472 -0.6044,-0.1723 -0.86618,-0.8597 z m -10.84945,-0.96166 c -4.13505,-1.20425 -3.61203,-1.23937 2.51197,-0.16861 1.98997,0.34792 2.19955,0.19759 2.61403,-1.87477 0.24792,-1.23913 0.47702,-3.54692 0.50932,-5.12842 l 0.0588,-2.87542 1.40191,3.0546 c 0.77107,1.68001 1.11892,3.24842 0.77304,3.48535 -0.34589,0.23685 -1.04125,1.45025 -1.54522,2.69628 -0.504,1.24602 -1.11355,2.23516 -1.35459,2.19806 -0.24106,-0.0371 -2.47716,-0.66121 -4.96921,-1.38696 z m -5.92514,-2.03099 c 0.23686,-0.38339 0.56916,-0.69707 0.73822,-0.69707 0.16914,0 0.30741,0.31368 0.30741,0.69707 0,0.38341 -0.3322,0.69709 -0.73822,0.69709 -0.40602,0 -0.54434,-0.31368 -0.30741,-0.69709 z m -5.31696,-2.61401 c -0.86707,-1.10562 -0.84241,-1.13028 0.2632,-0.2632 0.67096,0.52618 1.21991,1.07513 1.21991,1.21988 0,0.57371 -0.57245,0.20444 -1.48308,-0.95668 z m 11.93916,0.51114 c -0.57508,-0.36524 -1.75138,-0.66888 -2.61401,-0.67475 -1.15198,-0.008 -1.57431,-0.42712 -1.59059,-1.57908 -0.0132,-0.86263 -0.48271,-2.17732 -1.0456,-2.92152 -0.99122,-1.31051 -1.05305,-1.31264 -1.96331,-0.0677 -1.30495,1.78461 -2.54551,0.7584 -2.54551,-2.10563 0,-2.18549 0.18074,-2.39863 2.03421,-2.39863 1.11882,0 2.54909,-0.1976 3.17842,-0.43906 0.78775,-0.30229 1.26251,0.0132 1.52397,1.01314 0.20892,0.79874 1.11654,1.93499 2.01705,2.52501 0.95742,0.62733 1.82487,2.07257 2.08899,3.48043 0.5828,3.10668 0.2682,4.02639 -1.08362,3.16785 z m -15.33562,-4.1708 c -0.41036,-0.76678 -0.58928,-1.39413 -0.39759,-1.39413 0.1918,0 0.68429,0.62735 1.09469,1.39413 0.41036,0.7668 0.58928,1.39416 0.39758,1.39416 -0.1918,0 -0.68431,-0.62736 -1.09468,-1.39416 z m -4.82876,-5.38686 c -1.17809,-1.42922 -2.14197,-2.80472 -2.14197,-3.05667 0,-1.51748 7.71549,-4.18495 11.63613,-4.02292 1.32818,0.0548 1.50894,0.16941 0.56267,0.35686 -7.3234,1.44983 -8.6269,1.93199 -9.4671,3.50192 -0.77131,1.44119 -0.68621,1.9297 0.65117,3.73859 2.17719,2.94481 1.31762,2.58614 -1.2409,-0.51778 z m 21.70299,-0.22736 c -0.82455,-1.54478 -1.21424,-2.63258 -0.86597,-2.41734 0.74233,0.45879 2.92418,4.667 2.59199,4.99923 -0.12462,0.12462 -0.90146,-1.03712 -1.72602,-2.58189 z m -17.34637,-1.85369 c 0.45966,-0.74372 11.50247,-2.64644 12.06933,-2.07957 0.1694,0.1694 -2.00713,0.65211 -4.83649,1.07294 -2.82938,0.4208 -5.71631,0.98461 -6.41538,1.25286 -0.81196,0.31157 -1.10722,0.22263 -0.81746,-0.24633 z m 9.63395,-5.00304 c -0.58154,-0.36848 -0.67678,-0.76552 -0.24739,-1.03095 0.38415,-0.23738 0.87832,0.0371 1.09816,0.60994 0.4619,1.2037 0.4184,1.22522 -0.85085,0.42101 z m -1.05933,-3.24026 c -0.67266,-1.75291 -0.47423,-2.20522 0.34751,-0.79212 0.40686,0.6997 0.59292,1.41903 0.41345,1.5985 -0.17942,0.17941 -0.52192,-0.18337 -0.76096,-0.80638 z m -78.24415,-21.55443 c -0.53609,-1.397 -0.45292,-1.46782 2.35123,-2.00156 1.65572,-0.31518 2.2655,-0.17626 2.2655,0.51564 0,0.52078 -0.54894,1.1405 -1.21987,1.37716 -0.67093,0.23659 -1.61183,0.613 -2.09086,0.83634 -0.47905,0.22341 -1.06675,-0.10407 -1.306,-0.72758 z m 4.61673,-19.93565 c 0,-0.40602 0.31368,-0.54436 0.69707,-0.3074 0.38339,0.23685 0.69709,0.56913 0.69709,0.73822 0,0.16914 -0.3137,0.30738 -0.69709,0.30738 -0.38339,0 -0.69707,-0.3322 -0.69707,-0.7382 z m 24.83107,-27.46146 c -1.12116,-1.7111 -1.10883,-1.75747 0.42352,-1.59418 1.15469,0.12304 1.63675,-0.23843 1.79622,-1.34647 0.13595,-0.94477 0.98656,-1.7826 2.26071,-2.22677 1.42972,-0.49841 1.91789,-1.03753 1.62666,-1.79643 -0.61213,-1.59523 0.95112,-1.32171 1.82984,0.32015 0.61115,1.14195 0.51799,1.47831 -0.49828,1.79942 -3.73304,1.17941 -4.29885,1.66209 -4.51417,3.85111 -0.28096,2.85621 -1.44482,3.25143 -2.9245,0.99317 z m -12.98096,-3.25759 c 8e-5,-0.24054 0.47067,-0.82795 1.04576,-1.30521 0.79088,-0.65639 1.04562,-0.66495 1.04562,-0.0353 0,0.59877 1.03793,0.70289 3.69617,0.37077 2.70061,-0.33741 3.90465,-0.20998 4.4702,0.47265 0.63589,0.7677 -0.21024,0.93445 -4.74196,0.93445 -3.03378,0 -5.51587,-0.19681 -5.51579,-0.43745 z m 2.78845,-3.24726 c 0,-0.4202 0.31451,-0.95837 0.69896,-1.19596 0.46722,-0.28875 0.46722,-0.86497 0,-1.738 -1.16363,-2.17426 -0.83481,-3.4898 0.86944,-3.47821 1.21746,0.008 1.34331,0.15307 0.56244,0.64714 -0.80161,0.50719 -0.84624,0.98708 -0.21973,2.36217 0.65834,1.44492 0.56684,1.92429 -0.56243,2.94625 -0.7418,0.67133 -1.34871,0.8768 -1.34871,0.45661 z m 13.38381,-2.37982 c -0.46008,-0.46005 -0.83648,-1.85313 -0.83648,-3.09569 0,-2.98923 -0.83958,-3.3702 -2.80847,-1.27439 -0.88934,0.94667 -2.26811,1.70114 -3.0639,1.67661 -1.19303,-0.0366 -1.07381,-0.23079 0.67934,-1.10614 1.16945,-0.58385 2.42418,-1.7401 2.78831,-2.56943 1.24644,-2.83895 2.72361,-1.80305 3.12489,2.19145 0.21577,2.14662 0.80079,3.97077 1.39413,4.34602 0.56238,0.3557 0.69316,0.65151 0.29059,0.65739 -0.40256,0.005 -1.10835,-0.36574 -1.56841,-0.82582 z"
       id="path597"
       inkscape:connector-curvature="0" />
  </g>
</svg>
