<?xml version="1.0" encoding="UTF-8" standalone="no"?>
<!-- Created with Inkscape (http://www.inkscape.org/) -->

<svg
   xmlns:dc="http://purl.org/dc/elements/1.1/"
   xmlns:cc="http://creativecommons.org/ns#"
   xmlns:rdf="http://www.w3.org/1999/02/22-rdf-syntax-ns#"
   xmlns:svg="http://www.w3.org/2000/svg"
   xmlns="http://www.w3.org/2000/svg"
   xmlns:sodipodi="http://sodipodi.sourceforge.net/DTD/sodipodi-0.dtd"
   xmlns:inkscape="http://www.inkscape.org/namespaces/inkscape"
   width="210.00006mm"
   height="513.81665mm"
   viewBox="0 0 210.00007 513.81672"
   version="1.1"
   id="svg8"
   inkscape:version="0.92.3 (2405546, 2018-03-11)"
   sodipodi:docname="general_2.svg">
  <defs
     id="defs2" />
  <sodipodi:namedview
     id="base"
     pagecolor="#ffffff"
     bordercolor="#666666"
     borderopacity="1.0"
     inkscape:pageopacity="0.0"
     inkscape:pageshadow="2"
     inkscape:zoom="1.4"
     inkscape:cx="363.62466"
     inkscape:cy="900.2063"
     inkscape:document-units="mm"
     inkscape:current-layer="layer1"
     showgrid="false"
     fit-margin-top="0"
     fit-margin-left="0"
     fit-margin-right="0"
     fit-margin-bottom="0"
     inkscape:window-width="1920"
     inkscape:window-height="1017"
     inkscape:window-x="-8"
     inkscape:window-y="-8"
     inkscape:window-maximized="1" />
  <metadata
     id="metadata5">
    <rdf:RDF>
      <cc:Work
         rdf:about="">
        <dc:format>image/svg+xml</dc:format>
        <dc:type
           rdf:resource="http://purl.org/dc/dcmitype/StillImage" />
        <dc:title></dc:title>
      </cc:Work>
    </rdf:RDF>
  </metadata>
  <g
     inkscape:label="Layer 1"
     inkscape:groupmode="layer"
     id="layer1"
     transform="translate(-356.47933,971.96991)">
    <path
       style="fill:#000000;stroke-width:1.00037193"
       d="m 429.01084,-460.27811 c -4.10817,-3.23149 -7.40753,-9.14891 -8.10511,-14.53659 -0.59621,-4.60488 -0.40263,-5.14475 3.88979,-10.84826 4.42082,-5.87417 4.47795,-6.04495 2.67713,-8.00298 -3.09001,-3.35974 -4.02122,-9.31656 -4.02704,-25.75958 -0.004,-9.8333 -0.38165,-15.75587 -1.00595,-15.75587 -0.56264,0 -1.0004,-2.79906 -1.0004,-6.39643 0,-10.94686 -3.55861,-44.81404 -5.05666,-48.12384 -0.94973,-2.0983 -3.94669,-36.97004 -3.94669,-45.92219 0,-2.85824 -0.52392,-5.72075 -1.1643,-6.36112 -0.77346,-0.77351 -1.20623,-6.36025 -1.28926,-16.64409 -0.11154,-13.82351 -0.33499,-15.72539 -2.08692,-17.77549 -1.9538,-2.28622 -1.95365,-2.28985 0.0389,-0.8712 1.1004,0.78348 4.58495,3.90861 7.74347,6.94474 4.4283,4.25669 6.01425,5.24869 6.92893,4.33401 0.91473,-0.91472 0.83722,-1.59234 -0.33877,-2.96051 -3.56742,-4.15105 -2.61553,-4.39299 1.18483,-0.30096 l 4.15551,4.47424 -2.73599,0.73173 c -2.93189,0.78409 -5.59624,-0.20985 -9.09595,-3.39332 l -2.16152,-1.96619 -0.68563,6.40233 c -0.96176,8.98058 2.68491,56.95469 4.50782,59.30295 0.42709,0.55021 1.31262,5.95222 1.96778,12.00447 0.6552,6.05225 1.60603,14.3004 2.11302,18.32917 0.50694,4.02881 0.92175,9.22824 0.92175,11.55431 0,2.32606 0.40751,4.65686 0.90561,5.17957 0.49806,0.52268 1.21977,13.10487 1.60372,27.96038 0.38501,14.8948 1.15666,27.90749 1.72036,29.01081 1.81995,3.56224 5.07178,6.50226 7.19886,6.50857 1.14203,0.003 3.36586,0.67864 4.94183,1.50054 3.55805,1.85568 6.05483,1.90211 7.51737,0.13989 0.73112,-0.88095 1.42378,-11.81163 1.98106,-31.26162 l 0.85691,-29.90708 0.1138,29.51098 c 0.0628,16.23102 0.12666,30.29878 0.14217,31.26163 0.0601,3.73908 11.08864,0.58189 15.75609,-4.5105 2.24969,-2.45458 2.38218,-4.70159 3.90639,-66.26581 0.35427,-14.30532 1.05166,-26.27276 1.55003,-26.59433 0.51171,-0.33008 0.99703,-18.70243 1.11503,-42.21129 0.16183,-32.19404 -0.0745,-41.91101 -1.04149,-42.88153 -0.68775,-0.69018 -1.25047,-2.65872 -1.25047,-4.37451 0,-1.71582 -0.70216,-5.48405 -1.56032,-8.37386 -2.10522,-7.08898 -1.32816,-8.57856 1.46508,-2.80851 1.25096,2.58415 2.6521,4.69845 3.11363,4.69845 0.4615,0 1.14922,-2.48188 1.52822,-5.51528 0.379,-3.03337 1.08664,-5.76094 1.57253,-6.06126 0.48592,-0.3002 0.95109,-2.20757 1.0337,-4.23835 0.14935,-3.66988 0.15464,-3.66497 0.85015,0.80931 0.38493,2.47591 0.76749,3.77458 0.8501,2.88595 0.0828,-0.88867 0.99632,-2.69131 2.03033,-4.0059 1.03404,-1.31455 2.10726,-3.28847 2.3849,-4.38649 0.33574,-1.32843 0.54362,-0.90859 0.62086,1.25486 0.0639,1.78815 0.5662,3.25122 1.1164,3.25122 0.5502,0 1.0004,1.81224 1.0004,4.02715 v 4.02719 l 3.00111,-1.55193 c 1.65061,-0.85358 3.00112,-2.22976 3.00112,-3.0582 0,-0.82844 0.67523,-1.7654 1.50054,-2.08209 0.8253,-0.31684 1.50057,-0.92285 1.50057,-1.34699 0,-1.54202 3.13209,-8.22059 3.62441,-7.72827 1.20354,1.20355 -1.13897,8.23828 -4.24875,12.75906 -1.85742,2.70027 -3.37717,5.34821 -3.37717,5.88434 0,0.53614 -0.56272,1.33479 -1.25047,1.77478 -0.68775,0.43998 -1.85466,1.87318 -2.59311,3.18486 -1.0891,1.93452 -1.09988,2.53501 -0.0571,3.17958 2.45964,1.52016 -0.59592,5.70808 -5.16306,7.0764 -4.08624,1.22426 -4.1453,1.30718 -3.63612,5.10342 0.3089,2.30316 1.56167,4.90301 3.10732,6.44865 2.7729,2.77294 3.34658,6.16179 1.3766,8.13177 -1.47449,1.47449 -1.41082,50.05676 0.0692,52.91012 1.00373,1.93493 3.14457,14.74949 3.14457,18.82243 0,1.53963 -0.56987,2.48237 -1.50054,2.48237 -0.82531,0 -1.50058,-0.84523 -1.50058,-1.87825 0,-2.25295 -2.49519,-4.55474 -3.95765,-3.65087 -0.57429,0.35503 -1.04419,2.10431 -1.04419,3.88752 0,1.7832 -0.46392,3.7061 -1.0309,4.27309 -1.42886,1.42886 -1.47642,31.27475 -0.0522,32.69903 0.59568,0.59565 1.08301,4.29075 1.08301,8.21135 0,6.33878 -0.2813,7.39256 -2.5392,9.51382 -2.34614,2.20405 -2.51731,2.95911 -2.25087,9.92801 l 0.28849,7.54251 4.96119,-0.26353 c 7.96261,-0.42301 9.924,-3.0291 12.09555,-16.07113 0.97759,-5.87144 1.97039,-12.92618 2.20621,-15.67718 0.23593,-2.75105 0.83744,-5.42954 1.3369,-5.95225 0.4995,-0.52268 0.90818,-2.16606 0.90818,-3.65197 0,-1.4859 0.90032,-7.96801 2.00072,-14.40471 1.1004,-6.43674 2.00075,-14.783 2.00075,-18.54729 0,-3.76426 0.39031,-7.08536 0.86735,-7.38016 0.477,-0.29491 1.10192,-3.8102 1.3887,-7.81194 1.29134,-18.02121 3.95527,-41.45835 4.90947,-43.19384 0.57614,-1.04788 1.43535,-3.97398 1.90933,-6.50241 0.61807,-3.29701 0.72998,-1.51419 0.39567,6.30384 -0.25634,5.9955 -0.85536,11.39751 -1.33107,12.00446 -0.47572,0.60692 -1.14109,4.92992 -1.47861,9.60667 -0.33764,4.67676 -0.90531,10.30384 -1.26174,12.50465 -0.58952,3.6396 -0.50354,3.86506 0.95042,2.49265 1.00848,-0.95188 2.37121,-6.11252 3.69185,-13.98113 1.15129,-6.85979 2.47205,-12.93329 2.93499,-13.49676 0.46294,-0.56344 1.6306,-8.4522 2.59478,-17.53056 2.71588,-25.57167 1.83553,-61.86765 -1.64993,-68.02531 -2.38172,-4.20769 -2.42622,-4.22607 -7.02845,-2.90815 -2.41549,0.69176 -4.91446,1.65091 -5.55325,2.13151 -0.68711,0.51696 -1.42613,0.44546 -1.80966,-0.17506 -0.35655,-0.57693 -1.4436,-1.04895 -2.41561,-1.04895 -1.98279,0 -6.11758,-3.96589 -6.11758,-5.86767 0,-0.68037 1.48972,-1.8595 3.31051,-2.62026 5.28642,-2.20882 6.94795,-7.57952 4.30311,-13.90948 l -1.38972,-3.32605 -15.69953,0.19471 -15.69949,0.19472 -2.43734,2.91355 c -3.12234,3.73239 -6.40018,9.86589 -6.40018,11.97596 0,0.90164 -0.71354,3.14297 -1.58565,4.98081 -0.87211,1.8378 -1.43482,4.11936 -1.25046,5.07016 0.66045,3.40631 2.41809,2.33094 3.79125,-2.31964 0.7687,-2.6034 1.57079,-4.21401 1.78245,-3.57911 0.21173,0.63493 -0.27337,3.09828 -1.07787,5.47419 -1.76324,5.2074 -1.19671,6.68106 1.38042,3.59097 1.56043,-1.87099 1.90101,-1.97357 1.92842,-0.58075 0.0189,0.93042 -0.41688,1.96983 -0.96708,2.30989 -0.5502,0.3399 -1.00036,1.74369 -1.00036,3.11919 0,2.9697 -1.70641,2.2869 -3.0381,-1.2156 -0.50263,-1.32208 -1.60028,-2.40377 -2.43919,-2.40377 -1.11265,0 -1.52534,-1.08267 -1.52534,-4.00148 0,-3.76134 -0.17657,-4.00151 -2.94206,-4.00151 -1.61816,0 -3.2203,-0.45016 -3.56035,-1.00036 -0.33991,-0.5502 -2.72999,-1.01998 -5.31101,-1.04395 -4.29446,-0.0401 -6.8574,-0.43723 -15.79061,-2.44838 -3.01669,-0.67913 -3.12812,-0.57421 -4.40683,4.14881 -0.72152,2.66507 -1.74732,5.40829 -2.27949,6.09604 -0.64412,0.83237 -0.59224,1.25047 0.15502,1.25047 0.61758,0 1.12286,0.83196 1.12286,1.8488 0,1.19296 1.43664,2.49663 4.04984,3.67503 2.22738,1.00441 4.28485,2.20655 4.57217,2.67142 0.28735,0.46486 -1.97615,-0.25975 -5.02989,-1.61026 -4.50124,-1.99066 -6.16879,-2.2787 -8.80886,-1.52153 -8.25431,2.36732 -17.79179,8.76678 -17.79179,11.93789 0,2.24557 4.09532,13.2947 5.21818,14.07864 1.0463,0.73044 4.86334,8.19015 4.41844,8.63505 -0.63104,0.63104 -7.699,-9.10687 -8.27469,-11.40054 -0.41348,-1.6475 -1.7297,-2.59387 -4.71909,-3.39297 -2.2801,-0.60952 -4.76958,-1.62032 -5.53215,-2.24621 -2.40366,-1.97274 -5.65624,-7.93701 -8.00152,-14.67237 -2.71584,-7.79961 -4.06314,-10.81037 -12.0087,-26.83567 -3.36242,-6.78163 -6.1135,-12.77104 -6.1135,-13.30979 0,-0.53875 -0.95211,-3.06959 -2.11581,-5.62406 -1.76339,-3.87085 -2.04386,-6.01577 -1.68373,-12.87684 0.23745,-4.52778 0.90259,-8.82791 1.47767,-9.5559 0.57512,-0.72798 1.36957,-2.67402 1.76554,-4.32455 0.39594,-1.65053 2.08016,-5.92711 3.74271,-9.50353 1.66255,-3.57642 3.86294,-8.30323 4.88981,-10.50404 1.02682,-2.20084 2.34705,-6.25234 2.93378,-9.00335 0.98274,-4.60774 2.58793,-8.58646 7.61128,-18.86564 4.25215,-8.701 4.91041,-9.6019 7.03129,-9.6233 2.41276,-0.023 3.95697,-2.8242 2.41053,-4.3707 -0.55731,-0.5573 -2.93544,-1.2698 -5.28472,-1.5833 -4.01562,-0.5359 -4.29129,-0.7785 -4.60193,-4.0491 -0.31344,-3.2997 -0.23593,-3.396 1.50054,-1.8682 1.87497,1.6494 8.58578,2.573 22.25817,3.0632 8.63436,0.3096 10.97866,-1.5351 3.37025,-2.652 -2.63467,-0.3868 -6.81608,-1.0624 -9.29199,-1.5014 l -4.50169,-0.798 4.40664,-0.1339 c 4.34085,-0.1316 4.37961,-0.1637 2.59599,-2.1344 -0.99586,-1.1004 -2.52869,-2.0363 -3.40628,-2.0797 -1.35426,-0.067 -1.36866,-0.1626 -0.0949,-0.6307 0.8253,-0.3033 2.27824,-1.2289 3.22876,-2.0565 1.21466,-1.0576 2.96645,-1.3387 5.89538,-0.9458 3.23512,0.4339 4.78773,0.1002 6.94127,-1.492 2.27211,-1.6799 3.60368,-1.9265 7.35951,-1.3633 2.72401,0.4085 4.58548,0.3002 4.58548,-0.267 0,-1.5129 2.81165,-2.1908 5.26064,-1.2683 3.27523,1.2338 6.52494,-0.3783 7.98737,-3.9624 1.16445,-2.8538 1.24779,-2.4025 0.91393,4.9492 -0.27298,6.0115 0.096,9.3774 1.43615,13.1046 0.99189,2.7584 2.1647,5.0153 2.60623,5.0153 0.4415,0 0.80273,0.9003 0.80273,2.0007 0,3.2965 1.72955,2.2597 2.42634,-1.4545 0.61777,-3.2931 5.69152,-11.8081 9.01813,-15.1347 1.77349,-1.7735 2.04296,-3.4182 0.56,-3.4182 -0.5502,0 -1.00036,-0.9144 -1.00036,-2.0321 0,-1.1177 -0.67524,-2.2913 -1.50058,-2.608 -0.84882,-0.3259 -1.50054,-1.8159 -1.50054,-3.4309 0,-2.9314 -3.2851,-6.9346 -5.69068,-6.9346 -0.72155,0 -1.31191,-0.8658 -1.31191,-1.924 0,-1.0582 -1.05696,-3.1964 -2.34879,-4.7517 -1.29183,-1.5553 -2.63096,-3.9863 -2.9759,-5.4023 -0.57239,-2.35 -1.06059,-2.5682 -5.59722,-2.501 -4.36936,0.065 -5.40975,-0.3497 -8.60661,-3.4277 -8.6014,-8.2817 -8.79146,-19.7601 -0.53338,-32.2109 5.97668,-9.011 17.92057,-22.6344 22.29284,-25.4276 3.23697,-2.0678 4.96055,-2.3857 13.00482,-2.3985 6.11487,-0.011 10.12516,-0.496 11.77429,-1.4276 5.24982,-2.9656 8.66987,-4.3848 13.505,-5.6039 2.75101,-0.6936 6.7093,-2.0615 8.79611,-3.0396 5.52089,-2.5878 8.99534,-3.1415 12.16081,-1.938 3.78978,1.4409 16.34698,14.7923 17.08876,18.1696 1.05605,4.8082 -1.23221,14.1297 -4.0259,16.4002 -3.13575,2.5484 -3.34291,7.5842 -0.50358,12.2411 1.45297,2.3831 1.99701,5.0402 1.99701,9.7536 0,3.5631 -0.3939,6.4783 -0.87532,6.4783 -0.48143,0 -1.14733,1.3598 -1.47975,3.0219 -0.47715,2.386 -1.2592,3.153 -3.71563,3.6443 -2.62193,0.5243 -3.03965,0.9968 -2.65592,3.0041 0.2503,1.3101 0.0654,2.6228 -0.41087,2.9173 -0.47644,0.2945 -0.86622,1.3825 -0.86622,2.418 0,2.8237 -1.87095,3.428 -4.17551,1.3484 -1.12679,-1.0167 -3.01163,-1.8842 -4.18855,-1.9276 -1.17693,-0.043 -5.40356,-0.1558 -9.39256,-0.2499 -6.6715,-0.1573 -7.2527,-0.3415 -7.2527,-2.2944 0,-1.568 0.32705,-1.8602 1.25047,-1.1176 1.70259,1.3692 11.7728,1.4698 13.38269,0.1338 1.05877,-0.8787 1.02512,-1.4954 -0.18224,-3.3379 -0.81446,-1.243 -1.81111,-4.9156 -2.21476,-8.1613 -0.62132,-4.9963 -1.06343,-5.9482 -2.88289,-6.2077 -1.59128,-0.2269 -3.37509,1.1987 -6.87332,5.4931 -5.98953,7.3528 -7.80298,8.5912 -12.58075,8.5912 -4.78304,0 -6.6659,-1.4792 -7.49272,-5.8865 -0.79706,-4.2486 -1.59808,-4.7453 -7.30416,-4.5295 -4.604,0.1743 -9.03828,2.8526 -6.36403,3.844 1.51416,0.5614 1.67227,5.9204 0.20153,6.8294 -1.61525,0.9982 0.90092,3.4712 3.53188,3.4712 1.24143,0 3.74819,1.5544 5.62966,3.4907 1.86544,1.9198 3.9544,3.4954 4.64216,3.5013 1.81734,0.015 1.53279,1.9659 -0.39477,2.7055 -0.93903,0.3603 -2.11986,-0.011 -2.75101,-0.8683 -1.77356,-2.4054 -4.92508,-3.6803 -7.75844,-3.1387 -3.31123,0.633 -7.14539,-1.8088 -9.93984,-6.3304 -1.77481,-2.8716 -2.36808,-3.23 -3.62316,-2.1884 -0.82542,0.6851 -1.91803,2.343 -2.428,3.6843 -0.7301,1.9203 -0.51088,2.8267 1.03106,4.2632 1.39902,1.3034 2.09955,1.4757 2.45299,0.6035 0.27223,-0.6716 0.53716,-0.096 0.58903,1.28 0.0752,1.993 0.29114,2.1962 1.06403,1.0003 0.78202,-1.2101 0.97273,-1.0588 0.98505,0.7817 0.008,1.2552 0.69059,2.5413 1.51589,2.858 0.8253,0.3169 1.50058,1.2029 1.50058,1.9694 0,0.7664 0.72771,1.3935 1.61722,1.3935 1.12471,0 1.45789,0.6093 1.09401,2.0008 -0.35465,1.3564 -0.0302,2.0007 1.00618,2.0007 1.24022,0 1.29592,0.2813 0.29454,1.4878 -1.74642,2.1043 -0.49451,5.161 1.4521,3.5455 1.22257,-1.0146 1.34775,-0.632 0.83237,2.5438 -0.43711,2.6939 -0.28357,3.5384 0.54994,3.0233 0.63607,-0.3931 1.15648,-0.2182 1.15648,0.3885 0,0.6068 0.56271,0.9837 1.25046,0.8375 0.68776,-0.1459 2.49992,0.9093 4.027,2.3454 2.95015,2.7743 7.6514,4.2394 9.09976,2.8358 0.47969,-0.4649 1.49079,-0.6079 2.2469,-0.3176 1.42772,0.5478 1.26204,-1.905 -0.63739,-9.4372 -0.45092,-1.7882 -0.4561,-3.2512 -0.0113,-3.2512 0.4446,0 1.10203,1.6881 1.46092,3.7514 0.7825,4.4986 3.62202,10.2538 5.05904,10.2538 0.56786,0 1.59472,0.9003 2.28194,2.0008 1.04203,1.6685 2.33288,2.0007 7.77481,2.0007 4.87745,0 6.67074,-0.3789 7.10116,-1.5005 0.31685,-0.8254 1.42799,-1.5006 2.46952,-1.5006 1.2268,0 1.89372,-0.7046 1.89372,-2.0008 0,-1.1004 0.55202,-1.8882 1.22672,-1.7506 0.67467,0.1376 1.39324,-0.8753 1.5968,-2.2508 0.20342,-1.3755 0.95072,-2.8323 1.66044,-3.2372 2.24017,-1.2781 2.79736,-7.412 0.93196,-10.2589 -1.33338,-2.035 -1.95126,-2.3093 -3.08392,-1.3693 -1.08804,0.903 -1.6965,0.8914 -2.62449,-0.05 -0.94588,-0.9595 -0.78666,-1.5365 0.7338,-2.6586 2.63384,-1.944 2.74046,-1.9017 5.34492,2.1184 1.2567,1.9398 2.67777,3.2841 3.15791,2.9873 0.48014,-0.2968 0.63784,0.3596 0.35049,1.4587 -0.34482,1.319 0.28168,2.6683 1.84392,3.9696 2.7264,2.2712 4.95458,2.5511 6.6681,0.8375 0.9337,-0.9337 1.20044,-0.7114 1.20044,1.0004 0,1.7068 0.5876,2.2008 2.61762,2.2008 2.12507,0 2.51916,-0.3766 2.09441,-2.0008 -0.56378,-2.1558 1.64603,-2.8525 2.85305,-0.8995 0.39504,0.6391 1.93316,0.8506 3.66588,0.5041 2.27635,-0.4553 2.86043,-0.2715 2.45946,0.7732 -0.3002,0.7821 0.49901,1.9189 1.86113,2.6479 1.94113,1.0388 2.6783,1.0356 3.94684,-0.019 1.40583,-1.1668 1.3845,-1.4889 -0.21589,-3.2613 -1.38923,-1.5385 -0.46906,-1.3054 4.22633,1.0706 3.30124,1.6706 7.35274,3.3666 9.00334,3.769 5.74544,1.4005 7.50281,3.2534 7.50281,7.9104 0,4.7942 -1.55952,6.6996 -4.79169,5.8543 -2.31612,-0.6056 -4.39276,2.2531 -2.54789,3.5076 0.52521,0.3573 1.97187,4.2506 3.21477,8.6523 1.24295,4.4016 2.67142,8.9033 3.17444,10.0037 1.76123,3.8528 2.90171,11.06456 2.84768,18.00665 -0.0541,6.9587 -0.67296,6.74175 -2.34731,-0.82303 -0.46585,-2.10462 -1.71802,-3.30726 -4.91688,-4.72227 -3.88086,-1.7167 -4.46396,-2.45213 -6.08938,-7.6801 -0.98868,-3.17995 -2.12863,-6.46235 -2.53327,-7.29425 -2.07607,-4.2684 -4.11055,-13.6819 -3.57453,-16.5392 0.54434,-2.9015 0.34293,-3.2415 -2.17222,-3.6708 -3.82366,-0.6526 -29.02211,-0.064 -30.26974,0.707 -0.55712,0.3445 -1.01987,2.2876 -1.02826,4.3184 -0.0113,2.3934 -0.31193,3.2243 -0.85884,2.3618 -0.47912,-0.7557 -2.09313,-1.1879 -3.73609,-1.0004 -2.21608,0.253 -2.97087,0.9151 -3.22737,2.8312 -0.18413,1.3755 -0.74685,2.9286 -1.25047,3.4512 -0.50358,0.5227 -0.91566,1.9308 -0.91566,3.1291 0,1.1982 -0.67524,3.7948 -1.50054,5.77 -2.74564,6.57126 -2.99038,6.44418 12.71584,6.60245 7.81905,0.0787 14.33916,0.2658 14.48915,0.41594 0.29718,0.29719 0.63867,12.05891 0.43253,14.89401 -0.0771,1.06123 -0.94111,1.75065 -2.19381,1.75065 -3.1933,-8e-5 -5.93644,1.86521 -5.93644,4.0366 0,1.27073 -0.67838,1.96555 -1.9189,1.96555 -4.97132,0 -7.24941,4.17967 -3.01125,5.52482 2.34652,0.74476 5.88242,-1.8614 6.00949,-4.42941 0.0435,-0.87755 0.54064,-0.32894 1.10491,1.21886 0.80828,2.21745 0.70332,3.06619 -0.49478,4.00148 -0.83638,0.65289 -1.67737,2.08738 -1.86888,3.18782 -0.4762,2.73634 -5.0058,2.72133 -6.21131,-0.0189 -0.65702,-1.49445 -1.89554,-2.04767 -4.75177,-2.12257 -4.12178,-0.10814 -5.07053,1.39626 -2.32013,3.67888 2.28074,1.89285 0.56007,2.69108 -4.74972,2.20349 -4.68375,-0.43016 -4.7042,-0.44811 -4.08284,-3.58633 0.55912,-2.82409 0.45443,-3.0142 -1.001,-1.81742 -2.52087,2.0729 -3.71386,0.49988 -3.71386,-4.89687 0,-3.67394 0.3762,-4.94282 1.46537,-4.94282 2.20417,0 3.27875,-3.00115 2.77589,-7.75288 -0.54018,-5.10467 -1.69288,-5.4408 -3.18226,-0.92795 -0.65652,1.98926 -2.73914,4.4995 -5.18725,6.25234 -8.75389,6.26777 -10.14504,8.95699 -4.62499,8.94058 3.05057,-0.008 3.25118,0.20644 3.25118,3.49162 0,3.28525 -0.20076,3.50069 -3.25118,3.49162 l -3.25123,-0.0113 v 6.7374 6.73744 l 2.50094,-0.95087 c 2.88383,-1.09643 3.17897,-0.4066 0.90239,2.10904 -1.94574,2.14999 -0.89891,4.25646 1.76861,3.55888 1.56996,-0.41057 1.72214,-0.24009 0.78923,0.88402 -0.63569,0.76594 -2.12447,1.29323 -3.30839,1.17175 -1.64803,-0.16901 -2.13585,0.30663 -2.08114,2.02994 0.38335,12.0757 0.29454,11.68577 2.25816,9.9087 1.00619,-0.9106 3.14449,-1.66104 4.75177,-1.66766 1.60727,-0.008 4.74386,-1.0539 6.97015,-2.3272 2.22633,-1.27334 6.39034,-3.1575 9.25346,-4.18704 2.86307,-1.02959 5.20562,-2.17949 5.20562,-2.55542 0,-0.37583 2.50824,-1.95252 5.57382,-3.50357 6.27884,-3.17681 6.57432,-3.5934 8.45795,-11.92385 0.74643,-3.30121 1.67181,-6.22731 2.05641,-6.50241 0.38459,-0.27526 1.47362,-4.55168 2.42002,-9.50353 0.94644,-4.95185 2.12111,-9.78502 2.6104,-10.74042 1.22112,-2.38411 1.12755,-19.50536 -0.11079,-20.27076 -0.5502,-0.3399 -0.98417,-2.73 -0.9644,-5.311 l 0.0378,-4.6927 2.37174,2.9006 c 3.25648,3.9827 4.6873,14.71185 4.38286,32.86494 -0.15426,9.20155 0.14973,15.04033 0.82825,15.89822 0.58968,0.74575 1.34465,3.44912 1.67768,6.00749 0.57757,4.43696 0.48014,4.68182 -2.11264,5.30737 -10.73815,2.59077 -12.18606,3.67095 -8.74685,6.52521 0.81075,0.67286 1.76808,2.86629 2.12746,4.87427 0.35919,2.00798 1.21436,4.32614 1.90003,5.15145 0.68567,0.8253 1.51937,3.52628 1.85262,6.00223 1.83814,13.65518 3.65431,19.13201 5.4422,16.41152 0.38974,-0.593 2.23884,-1.60213 4.10908,-2.24247 6.10504,-2.09018 5.70475,-1.22782 -0.91442,1.97001 -3.56814,1.72385 -6.66106,3.28537 -6.87313,3.47011 -0.21211,0.18488 0.35049,1.45944 1.25047,2.83279 1.8716,2.85645 2.41904,20.57402 0.63565,20.57402 -0.5502,0 -1.00036,1.16385 -1.00036,2.58631 0,1.6984 -1.202,3.65045 -3.50129,5.68611 l -3.5013,3.0998 v 17.358 17.358 l -4.51512,1.93538 c -2.85112,1.22215 -4.86311,2.85075 -5.4594,4.41912 -0.51939,1.36601 -1.68403,8.91972 -2.58816,16.78602 -0.90414,7.86627 -1.99429,15.20265 -2.42256,16.30309 -0.42826,1.1004 -1.28158,4.92682 -1.89625,8.50313 -1.7204,10.00972 -3.62864,18.20508 -5.00255,21.4847 -0.68609,1.63778 -1.89762,6.13948 -2.69222,10.0037 -0.79464,3.86427 -1.86536,7.92628 -2.37941,9.02668 -0.51406,1.1004 -1.89701,9.20344 -3.07322,18.0067 -1.17621,8.80326 -2.52884,16.90629 -3.00584,18.00669 -0.47701,1.10041 -1.16234,5.82718 -1.52296,10.50389 -0.36071,4.67675 -1.06426,10.72129 -1.56361,13.43233 -0.81536,4.42642 -0.67762,5.17625 1.35063,7.35222 5.33746,5.7263 9.95697,8.4635 17.4394,10.33329 4.20239,1.05019 8.13298,2.29412 8.7346,2.76435 0.60162,0.47024 2.28168,1.1381 3.73341,1.48417 3.11549,0.74265 8.56876,6.62223 9.46904,10.20924 0.68042,2.71108 -1.78762,6.44377 -4.26066,6.44377 -0.74004,0 -1.34552,0.45016 -1.34552,1.00036 0,1.25735 -20.34509,1.35448 -22.77203,0.10889 -0.9554,-0.49039 -4.43806,-1.67359 -7.73931,-2.6293 -4.1842,-1.2113 -7.00028,-2.79494 -9.29727,-5.22831 -3.20983,-3.40035 -3.40398,-3.46194 -7.50281,-2.37984 -2.31424,0.611 -6.15257,1.22665 -8.5296,1.36821 -3.50425,0.20871 -4.63713,0.77918 -5.98824,3.0156 -1.36587,2.26088 -1.44337,3.11534 -0.4299,4.73819 2.58193,4.13434 1.50769,6.85642 -5.55411,14.07388 l -6.79063,6.94028 h -10.0808 c -8.76307,0 -10.43398,-0.2779 -12.78277,-2.12537 z m 96.18325,-236.71343 c -0.22913,-1.51309 -0.41674,-0.27525 -0.41674,2.751 0,3.02611 0.18754,4.2641 0.41674,2.75101 0.22912,-1.51305 0.22912,-3.98896 0,-5.50201 z m -136.17414,-5.76555 c 0.34709,-1.38291 2.67607,-4.31442 5.17549,-6.51455 2.49946,-2.20012 4.20062,-4.33238 3.78033,-4.73834 -0.42029,-0.406 -1.44507,0.2745 -2.27737,1.51264 -0.83226,1.23799 -2.37276,2.25086 -3.42333,2.25086 -1.05057,0 -2.19434,0.7878 -2.5417,1.75065 -0.34747,0.96286 -1.45864,2.94558 -2.46955,4.406 -2.22478,3.21425 -2.28342,3.84706 -0.35654,3.84706 0.81482,0 1.76546,-1.13144 2.11255,-2.51432 z m -3.59408,-2.11933 c 0,-0.89789 1.60765,-3.14872 3.57253,-5.00187 1.96491,-1.85311 3.13246,-3.3693 2.59459,-3.3693 -0.53788,0 -0.74541,-0.88924 -0.46116,-1.97611 0.33839,-1.29485 1.70539,-2.1991 3.96468,-2.62294 2.02983,-0.38078 4.08904,-1.62528 5.00668,-3.02577 0.85732,-1.30839 2.01225,-2.37893 2.56653,-2.37893 0.65539,0 0.66945,0.43731 0.0401,1.25047 -0.53217,0.68775 -1.28189,2.12557 -1.66611,3.19512 -0.6448,1.79511 -0.56056,1.82407 1.09519,0.37696 1.71518,-1.49922 9.29648,-3.46081 9.29648,-2.40536 0,0.27904 -1.80067,0.99185 -4.00147,1.58448 -2.99257,0.80579 -4.00152,1.58708 -4.00152,3.0987 0,1.11167 0.33764,1.8609 0.75029,1.66493 3.80657,-1.80774 6.16735,-2.69735 8.50317,-3.20434 2.95098,-0.64045 3.72759,-3.24808 1.25047,-4.19865 -0.8253,-0.31684 -1.50058,-1.25107 -1.50058,-2.07637 0,-0.93681 -0.56373,-1.27244 -1.50054,-0.89336 -4.31189,1.74486 -4.90614,1.78229 -2.751,0.17354 3.26098,-2.4345 2.97204,-4.75883 -0.50022,-4.02374 -2.29287,0.48539 -2.4595,0.397 -1.00036,-0.53085 1.79095,-1.13889 2.46105,-5.01529 0.86697,-5.01529 -0.48604,0 -1.11886,-0.89914 -1.40621,-1.99807 -0.28735,-1.09897 -1.57786,-2.42093 -2.86772,-2.93771 -1.28983,-0.51682 -1.78249,-0.96819 -1.0947,-1.00305 0.68776,-0.034 1.25047,-0.5136 1.25047,-1.0638 0,-1.47218 -3.20789,-1.15863 -5.44314,0.53202 -1.068,0.80779 -3.54395,1.46908 -5.50206,1.46953 -2.65171,5.7e-4 -4.56381,0.894 -7.49328,3.5013 -3.61877,3.22071 -8.57156,4.72718 -8.57156,2.60718 0,-1.05537 2.45118,-2.1078 4.90931,-2.1078 0.95949,0 2.80183,-1.12539 4.09404,-2.5009 1.58417,-1.68625 3.42322,-2.50093 5.64561,-2.50093 3.00823,0 11.36072,-3.47827 11.36072,-4.73101 0,-0.29 -1.35157,-2.88977 -3.00346,-5.777 -1.88162,-3.28869 -3.06614,-6.84992 -3.17133,-9.53427 -0.12402,-3.16074 -0.93775,-5.16161 -3.10241,-7.62705 -2.69391,-3.06815 -2.76749,-3.34223 -0.89755,-3.34223 1.23708,0 2.3131,-0.88383 2.74023,-2.25083 0.38683,-1.23795 3.56833,-5.97187 7.07,-10.51984 3.50172,-4.54797 6.36676,-8.68647 6.36676,-9.1967 0,-0.51024 0.78779,-1.52614 1.75064,-2.25752 1.86264,-1.41491 4.9531,-6.4285 8.49992,-13.78922 2.3145,-4.80326 3.03246,-16.01876 1.47286,-23.0086 l -0.78121,-3.5013 1.5315,3.3661 c 0.84232,1.8513 1.53151,4.3498 1.53151,5.5521 0,1.2023 0.42036,2.61361 0.93415,3.13632 1.43165,1.45645 1.70913,12.97594 0.35201,14.61123 -0.93091,1.12169 -3.24412,11.74536 -3.27932,15.06082 -0.004,0.39125 0.96085,1.61355 2.14451,2.7163 1.56379,1.45687 1.86884,2.35628 1.1159,3.29017 -3.01628,3.74115 -2.15003,11.78914 1.26888,11.78914 1.57049,0 1.86945,1.39682 1.52954,7.14687 -0.11872,2.00506 0.23744,3.92548 0.79082,4.26754 0.56676,0.35011 0.80315,2.85729 0.5412,5.73979 l -0.46509,5.11791 3.28586,-0.53651 c 3.2541,-0.53134 3.25928,-0.52593 0.53481,0.56132 -3.02667,1.20785 -3.63139,3.4377 -1.18668,4.37582 1.58663,0.60885 2.77634,0.11419 9.93992,-4.13207 5.23576,-3.10358 6.78666,-3.10426 3.00112,-10e-4 -1.65061,1.35301 -3.5638,2.46222 -4.25159,2.46494 -0.68775,0.003 -1.25043,0.35655 -1.25043,0.78606 0,0.42955 -1.35051,1.29081 -3.00111,1.91383 -5.40897,2.04167 -3.73254,3.95569 4.54252,5.18646 12.27443,1.82559 16.74296,1.52001 19.41854,-1.32801 2.52665,-2.6895 9.83481,-5.55299 14.17222,-5.55299 1.52013,0 3.02396,-0.42081 3.34186,-0.93517 0.31797,-0.51432 0.58755,-11.83947 0.59927,-25.16695 l 0.0227,-24.23182 -2.79112,-5.59446 c -1.5351,-3.07696 -3.3538,-5.95447 -4.04156,-6.39446 -0.68775,-0.43999 -1.25046,-1.41838 -1.25046,-2.17419 0,-0.75585 -1.48349,-3.32193 -3.2966,-5.70244 -6.38237,-8.37955 -8.0887,-13.31175 -8.67376,-25.07115 l -0.53425,-10.7395 -4.50169,5.4203 c -2.47591,2.9811 -5.00138,6.8839 -5.61216,8.6729 l -1.11049,3.2527 -3.14109,-4.3362 c -1.72762,-2.3849 -3.14109,-4.7187 -3.14109,-5.1864 0,-2.2045 -9.62557,0.4014 -12.00446,3.25 -0.63803,0.7639 -14.39454,2.295 -19.00706,2.1154 -1.92574,-0.075 -5.90835,-0.4252 -8.85025,-0.7782 -3.29936,-0.3959 -5.75553,-0.2352 -6.41001,0.4192 -1.84593,1.846 1.12611,4.061 6.38486,4.7586 2.70534,0.3588 5.1699,1.0588 5.4768,1.5554 0.30701,0.4965 -0.36373,2.5755 -1.49044,4.6199 -1.12665,2.0443 -4.38052,8.30234 -7.23085,13.90659 l -5.18241,10.18954 -5.10396,1.21837 c -5.84139,1.39437 -12.54019,4.60695 -14.32452,6.86969 -0.66968,0.84923 -2.15808,4.32349 -3.30756,7.72063 -1.14952,3.39713 -2.71097,6.69198 -3.46992,7.32185 -1.70448,1.41456 -3.03367,7.03227 -1.86551,7.88442 2.51478,1.83447 4.39318,8.1281 2.42589,8.1281 -0.51274,0 -1.89486,1.35187 -3.07141,3.00418 -1.94124,2.72616 -2.0375,3.49388 -1.04043,8.29661 1.53373,7.38806 11.21613,26.25473 13.38129,26.07423 1.12879,-0.0942 1.66652,0.63209 1.66652,2.25082 0,2.7273 1.18441,3.07825 3.00111,0.88924 0.68496,-0.82534 2.27563,-1.50058 3.53487,-1.50058 1.31581,0 3.36349,-1.27632 4.8148,-3.00111 2.03191,-2.41481 3.30812,-3.00112 6.53228,-3.00112 2.20387,0 4.28527,-0.45016 4.62529,-1.00036 0.33991,-0.5502 1.097,-1.00039 1.6821,-1.00039 0.67085,0 0.60378,0.55432 -0.18149,1.50057 -0.68495,0.82531 -2.81891,1.50054 -4.74219,1.50054 -2.4589,0 -4.51141,0.89083 -6.91492,3.00112 -1.87995,1.65064 -4.29672,3.00111 -5.37058,3.00111 -2.50385,0 -5.35093,6.44272 -4.41557,9.9921 0.62911,2.38721 0.70855,2.41273 1.59212,0.51183 0.51148,-1.1004 2.03607,-2.52109 3.38798,-3.15708 2.31495,-1.08906 2.45794,-0.98539 2.45794,1.78203 0,1.89379 -0.62234,3.16025 -1.75064,3.56247 -3.55669,1.26794 -4.2075,2.31688 -3.03458,4.89113 1.22994,2.69943 2.7845,3.22616 2.7845,0.94349 0,-1.52379 4.60669,-3.24861 5.71534,-2.13997 0.34104,0.34104 -0.30248,0.62034 -1.43052,0.62034 -1.30105,0 -2.24682,0.82288 -2.58687,2.25083 -0.29492,1.23795 -0.85,3.26374 -1.23368,4.50169 -0.43606,1.40689 -0.27866,2.25083 0.41941,2.25083 0.61437,0 1.11704,-0.73464 1.11704,-1.63253 z m 5.42983,-19.70293 c -0.28016,-0.73044 -0.034,-2.58151 0.54941,-4.11351 0.84742,-2.22893 1.50519,-2.66589 3.29202,-2.18693 1.22816,0.32932 2.57066,0.60469 2.98331,0.61221 0.9027,0.0151 0.98739,3.23361 0.14292,5.43389 -0.74481,1.9409 -6.24361,2.14163 -6.96781,0.25445 z m 5.57427,-2.17328 c 0,-1.83402 -0.53353,-2.50094 -2.00075,-2.50094 -1.4672,0 -2.00072,0.66692 -2.00072,2.50094 0,1.83402 0.53352,2.50093 2.00072,2.50093 1.46722,0 2.00075,-0.66691 2.00075,-2.50093 z m 6.00223,-3.44224 c 0,-0.51776 0.45016,-1.21958 1.00036,-1.5596 0.55021,-0.3399 1.0004,0.0836 1.0004,0.9413 0,0.85778 -0.45019,1.5596 -1.0004,1.5596 -0.5502,0 -1.00036,-0.42358 -1.00036,-0.9413 z m 48.91005,-31.66347 c 2.81052,-2.52691 5.11004,-5.45301 5.11004,-6.50244 0,-2.68761 -0.62945,-2.45538 -6.39458,2.3593 -8.59183,7.17542 -9.47226,7.34582 -2.10859,0.40819 3.85145,-3.6286 7.56531,-6.6152 8.25306,-6.63686 0.74579,-0.0227 1.25047,1.24101 1.25047,3.13318 0,2.45602 -1.02074,4.15067 -4.51923,7.50281 -2.48559,2.38161 -5.0102,4.33019 -5.61023,4.33019 -0.60007,0 1.2085,-2.06745 4.01906,-4.59437 z m -0.23064,-27.08951 c -0.36373,-0.36373 -0.66147,-1.48678 -0.66147,-2.4955 0,-1.00871 -0.33764,-1.84834 -0.75029,-1.86581 -0.41265,-0.0189 -1.57703,-0.65834 -2.58745,-1.42405 -1.7708,-1.34189 -1.75858,-1.4985 0.33764,-4.33363 2.44778,-3.31081 2.35246,-6.97669 -0.22345,-8.59127 -2.68617,-1.68372 -4.17948,0.40264 -2.66586,3.72464 2.29635,5.03991 -2.57263,10.23442 -6.73808,7.18857 -1.19542,-0.87411 -1.66777,-2.49866 -1.55601,-5.35153 0.0987,-2.51364 -0.35843,-4.40354 -1.18226,-4.89135 -1.55124,-0.91839 -3.05234,-8.92569 -1.81647,-9.68952 1.67968,-1.03809 21.22665,-3.72554 24.89544,-3.42276 l 3.79122,0.31268 -0.0563,5.50194 c -0.0405,3.95981 0.4452,6.04008 1.73261,7.42197 2.46396,2.64477 0.67062,4.58261 -4.24081,4.58261 -4.04938,0 -6.11305,1.65688 -3.82502,3.07099 1.11288,0.68778 0.8858,1.79129 -1.21111,5.88494 -1.41944,2.77112 -2.8785,4.74073 -3.2423,4.37692 z m -9.66482,-21.83603 c 1.05314,-1.26896 0.84042,-1.50054 -1.37808,-1.50054 -1.66501,0 -2.6234,0.5482 -2.6234,1.50054 0,0.8253 0.62011,1.50058 1.37808,1.50058 0.75792,0 1.93844,-0.67528 2.6234,-1.50058 z m 7.68596,-3.68887 c -0.31949,-0.79804 -0.55637,-0.56097 -0.60439,0.60438 -0.0435,1.05458 0.19283,1.64543 0.52544,1.31301 0.33234,-0.33234 0.36788,-1.19523 0.079,-1.91739 z m 10.82091,1.18793 c 0.33991,-0.5502 -0.0571,-1.00036 -0.88228,-1.00036 -0.82534,0 -1.77878,0.45016 -2.11883,1.00036 -0.33991,0.55021 0.0571,1.0004 0.88232,1.0004 0.8253,0 1.77874,-0.45019 2.11879,-1.0004 z m -0.23101,-4.65765 c -0.67728,-0.27412 -2.02779,-0.29076 -3.00112,-0.0378 -0.97332,0.2537 -0.41919,0.47783 1.23141,0.49825 1.65065,0.0189 2.44699,-0.18716 1.76971,-0.46116 z m 67.63538,102.94605 c 0.10095,-3.09372 0.56109,-6.10413 1.02221,-6.6898 0.46116,-0.5857 1.15149,-2.80031 1.53408,-4.92134 0.52298,-2.8991 0.38108,-3.75159 -0.5716,-3.43403 -1.84646,0.6155 -3.82544,9.29304 -3.83005,16.794 -0.004,7.88128 1.57975,6.37961 1.84536,-1.74883 z m -142.93241,-4.2534 c 0,-0.5502 -0.67523,-1.0004 -1.50057,-1.0004 -0.82531,0 -1.50054,0.4502 -1.50054,1.0004 0,0.5502 0.67523,1.00036 1.50054,1.00036 0.82534,0 1.50057,-0.45016 1.50057,-1.00036 z m 122.75232,-6.23325 c 1.66195,-1.2975 0.6561,-17.5216 -1.27043,-20.49153 -0.79048,-1.21859 -1.43725,-3.07669 -1.43725,-4.12908 0,-1.05238 -0.67527,-2.47386 -1.50058,-3.15882 -0.8253,-0.68491 -1.50053,-2.03595 -1.50053,-3.00221 0,-2.16708 -5.08445,-4.42649 -7.92923,-3.5236 -2.60861,0.82795 -2.72934,3.5247 -0.15766,3.5247 2.44766,0 7.31943,6.28493 9.01669,11.63219 1.32095,4.16179 1.10214,16.221 -0.35465,19.55646 -0.5986,1.37025 -0.30588,1.57291 1.59699,1.10596 1.28144,-0.31457 2.87306,-0.99574 3.53699,-1.51407 z m -89.0045,-2.84912 c 1.57155,-3.08018 1.67548,-22.81521 0.14027,-26.63388 -0.61871,-1.53895 -1.51071,-3.69843 -1.98223,-4.79884 -0.71361,-1.66539 -3.89545,-24.88221 -3.89545,-28.42373 0,-2.25015 -2.8855,-0.95344 -6.13593,2.75743 -6.78496,7.74608 -8.42347,9.94117 -10.49459,14.05944 -0.38671,0.76889 -0.11456,2.79468 0.60454,4.50169 0.71917,1.70702 1.44235,5.06819 1.60708,7.46924 0.17166,2.50305 1.32397,5.91735 2.70076,8.00295 1.32068,2.0006 4.1599,7.23879 6.3094,11.64043 2.14949,4.40165 4.13399,8.22807 4.40996,8.50317 0.27601,0.27525 1.14536,1.74846 1.93199,3.27414 1.64565,3.1919 3.04845,3.0891 4.8042,-0.352 z m 94.46957,-8.52684 c -0.1898,-4.53886 -0.87872,-8.53875 -1.61911,-9.40084 -1.49883,-1.7452 -2.81585,-10.28478 -1.4566,-9.44473 0.49784,0.30777 0.90519,1.71771 0.90519,3.13337 0,1.41562 0.84338,3.97754 1.87417,5.6931 1.0308,1.71553 2.1303,5.77175 2.44336,9.01383 0.76356,7.90767 1.67941,8.64064 7.16207,5.73208 6.17233,-3.2744 8.18205,-5.63113 6.515,-7.63979 -1.14986,-1.38552 -1.54164,-1.3149 -3.63934,0.6558 -1.29296,1.21463 -2.35079,1.70637 -2.35079,1.09273 0,-0.61365 0.45016,-1.39392 1.00036,-1.73398 0.5502,-0.3399 1.00039,-1.49203 1.00039,-2.55999 0,-1.06792 0.67524,-1.9417 1.50054,-1.9417 1.78971,0 1.81031,-0.99159 0.15124,-7.28151 -0.69346,-2.62934 -1.60769,-4.43375 -2.03165,-4.00983 -0.42391,0.42392 -1.20952,-0.0113 -1.7458,-0.97155 -1.39804,-2.49814 -3.73492,-2.14772 -5.05916,0.75861 -1.27376,2.79562 -3.44439,3.49989 -2.31245,0.75029 0.39639,-0.96286 0.95782,-2.57887 1.24759,-3.59113 0.37469,-1.30847 1.20926,-1.71001 2.88761,-1.3892 2.09804,0.40109 2.36078,0.0809 2.36078,-2.87608 0,-4.62166 -3.54198,-6.65943 -5.97308,-3.43645 -1.37815,1.82706 -2.26421,2.08613 -5.2313,1.5295 -3.46583,-0.6502 -5.97709,0.66571 -3.81753,2.00038 0.55916,0.34558 0.99355,1.83977 0.96527,3.32034 -0.0484,2.52778 -0.15426,2.46313 -1.7359,-1.05942 -0.92648,-2.06325 -2.04288,-3.75136 -2.4809,-3.75136 -1.40836,0 -2.03721,3.09806 -0.86648,4.26878 0.62325,0.62329 1.13322,1.80196 1.13322,2.61932 0,0.81736 0.81771,2.41545 1.81716,3.55132 2.19649,2.49632 4.01716,9.77806 4.64344,18.57134 0.25483,3.57635 0.48089,6.65248 0.50256,6.83589 0.0227,0.18338 0.60215,0.13725 1.2899,-0.10284 0.8971,-0.31306 1.15708,-2.66851 0.92006,-8.33643 z m 6.37738,-3.32624 c -0.31533,-0.51035 0.54411,-2.1985 1.91009,-3.75136 1.36601,-1.55291 2.49784,-2.28728 2.51523,-1.63201 0.0189,0.65528 -0.41855,1.46965 -0.96875,1.80971 -0.5502,0.33991 -1.00036,1.49203 -1.00036,2.55996 0,2.02068 -1.46114,2.62374 -2.45621,1.0137 z m 1.95599,-13.07723 c 0.33991,-0.5502 0.8168,-1.00036 1.05942,-1.00036 0.24273,0 0.44116,0.45016 0.44116,1.00036 0,0.55021 -0.47674,1.0004 -1.05942,1.0004 -0.58268,0 -0.78118,-0.45019 -0.44116,-1.0004 z m 11.62127,11.25422 c -0.93601,-1.66732 -1.01492,-1.66732 -1.6573,0 -0.37091,0.96285 -0.37091,2.53844 0,3.50129 0.64238,1.66728 0.72129,1.66728 1.6573,0 0.64351,-1.14622 0.64351,-2.35506 0,-3.50129 z m -0.11683,-6.19329 c 0,-0.51776 -0.45016,-1.21957 -1.00036,-1.55959 -0.5502,-0.33991 -1.00036,-2.4553 -1.00036,-4.70053 0,-2.55096 -0.58779,-4.51206 -1.56693,-5.22802 -0.86179,-0.63016 -1.82378,-3.06085 -2.13774,-5.40147 -0.55807,-4.16088 -3.08925,-7.17837 -6.02148,-7.17837 -2.07434,0 -1.47506,1.79337 1.585,4.74307 2.71176,2.61394 3.27671,4.24988 4.75336,13.7638 0.34141,2.20085 1.3296,4.5642 2.19562,5.25195 1.87024,1.4853 3.19289,1.61336 3.19289,0.30928 z m -52.51951,-5.06093 c -0.37545,-1.18331 -0.90796,-1.92642 -1.18306,-1.65132 -0.27525,0.27525 -0.19283,1.46836 0.18262,2.65172 0.37545,1.18332 0.90795,1.92642 1.18305,1.65132 0.27526,-0.27525 0.19283,-1.46836 -0.18261,-2.65172 z m 4.50165,-3.12358 c 0,-1.7739 -0.24689,-1.91837 -1.50054,-0.87789 -0.8253,0.68495 -1.50058,1.64039 -1.50058,2.12322 0,0.48286 0.67528,0.87789 1.50058,0.87789 0.86251,0 1.50054,-0.90281 1.50054,-2.12322 z m 41.01526,-23.57744 c 0,-2.58193 -0.0601,-2.61267 -1.46874,-0.75029 -1.89016,2.49901 -1.89889,3.44239 -0.0302,3.44239 0.96209,0 1.50057,-0.96603 1.50057,-2.6921 z m -41.1989,-13.5725 c 0.25597,-2.21876 -0.0843,-2.74246 -1.78203,-2.74246 -2.32773,0 -3.57453,2.156 -2.64605,4.57561 0.97008,2.52793 4.07298,1.2434 4.42808,-1.83315 z m 31.1952,1.2 c 0,-0.51773 -0.4502,-0.94134 -1.0004,-0.94134 -0.5502,0 -1.00036,0.70181 -1.00036,1.55959 0,0.85778 0.45016,1.2814 1.00036,0.94134 0.5502,-0.3399 1.0004,-1.04187 1.0004,-1.55959 z m -6.00223,-10.44487 c 0,0.40985 0.68079,0.17997 1.51286,-0.51043 1.9806,-1.64376 0.17619,-3.99126 -3.0677,-3.99126 -2.23287,0 -2.44781,0.83343 -1.51521,5.87462 0.0378,0.20493 0.74417,-0.18791 1.56947,-0.87275 0.8253,-0.68496 1.50058,-0.91003 1.50058,-0.50018 z m -27.74945,-4.53281 c 7.46697,-3.57771 8.27495,-5.58656 8.02507,-19.9522 -0.23328,-13.4173 0.77264,-17.0304 4.74182,-17.0304 1.60024,0 1.97769,0.6808 1.97769,3.567 0,5.7433 -3.19602,9.9578 -4.31226,5.6864 -0.25181,-0.9629 -0.50971,-0.062 -0.57353,2.0007 -0.20985,6.7885 4.67293,3.5497 6.38236,-4.2334 0.41723,-1.8995 1.24246,-4.2286 1.83383,-5.1755 0.77158,-1.2355 0.75763,-2.3749 -0.0495,-4.0344 -0.61852,-1.2719 -1.40741,-3.6067 -1.75307,-5.1885 -0.58672,-2.6851 -0.88443,-2.8416 -4.48702,-2.3584 -2.1222,0.2847 -4.28187,0.094 -4.79925,-0.4232 -0.58729,-0.5872 -1.92034,-0.4942 -3.54867,0.2477 -2.03346,0.9265 -3.2749,0.9121 -5.63484,-0.065 -3.46878,-1.4368 -8.06742,-0.6462 -8.06742,1.3871 0,0.7566 1.31535,2.7838 2.92297,4.5048 3.31523,3.5489 5.46783,11.5043 4.50362,16.644 -0.33802,1.8027 -1.68471,4.2827 -2.99227,5.5111 l -2.37741,2.23343 -0.059,-5.90013 c -0.034,-3.2451 -0.0813,-7.0256 -0.10813,-8.4011 -0.0265,-1.3755 -0.85706,-3.4012 -1.84476,-4.5016 -2.50558,-2.7916 -4.0465,-6.0046 -4.0465,-8.4374 0,-1.1366 -0.50268,-2.0665 -1.11708,-2.0665 -0.61436,0 -0.89385,0.8533 -0.62109,1.8964 0.33877,1.2951 -0.27904,2.3111 -1.94767,3.2041 -1.85973,0.9954 -2.27405,1.7971 -1.73413,3.3556 0.39015,1.1263 0.91045,4.9738 1.15613,8.5502 0.24576,3.5763 0.79336,6.9526 1.21697,7.5028 0.42362,0.5502 1.07016,2.2551 1.43676,3.78857 0.36675,1.53355 2.2619,5.00891 4.21181,7.72305 1.94994,2.71414 3.98404,6.52381 4.52029,8.46593 1.13647,4.116 1.5165,4.19574 7.14419,1.49929 z m -105.74651,-9.01681 c 1.87308,-1.55453 1.86389,-3.9569 -0.0151,-3.9569 -1.94227,0 -3.93028,7.47827 -2.89457,10.88834 0.72,2.3706 0.82613,2.2242 1.1288,-1.55699 0.18375,-2.29552 0.98516,-4.714 1.78093,-5.37445 z m 10.08973,6.58684 c 1.14702,-0.80337 2.67625,-2.94168 3.39837,-4.75176 0.72209,-1.81009 2.07698,-4.41647 3.01088,-5.79198 2.39276,-3.52421 7.9564,-14.11559 7.9564,-15.14639 0,-0.4728 -0.67523,-0.8595 -1.50054,-0.8595 -0.8253,0 -1.50057,0.4239 -1.50057,0.9421 0,0.554 -2.83865,0.7042 -6.8906,0.3645 -6.64518,-0.5571 -6.95291,-0.4826 -8.63868,2.0902 -2.03664,3.1083 -1.2347,4.5605 1.556,2.8176 2.73313,-1.7068 5.9203,-1.5065 6.65906,0.4186 0.34407,0.8971 -0.17468,3.2605 -1.15345,5.25194 -4.74636,9.65817 -5.44874,10.62344 -7.73995,10.63728 -1.75711,0.0113 -2.37389,0.65928 -2.6158,2.75104 -0.27941,2.41515 0.0189,2.73713 2.52842,2.73713 1.56474,0 3.78347,-0.65731 4.93046,-1.46072 z m 114.69011,-2.65369 c -1.68845,-1.68841 -3.6948,-0.0817 -2.17891,1.74494 0.83714,1.00868 1.52595,1.13459 2.24943,0.41114 0.72341,-0.72344 0.70182,-1.38371 -0.0707,-2.15608 z m 9.71647,2.31375 c 0,-1.62093 -2.22485,-2.95529 -4.10692,-2.46309 -1.51842,0.39707 -1.69004,0.80477 -0.79354,1.88502 1.22434,1.47521 4.90046,1.90888 4.90046,0.57807 z m 5.77296,-0.38766 c -0.6183,-1.85489 -2.77184,-2.16254 -2.77184,-0.39598 0,0.87117 0.71274,1.58395 1.58391,1.58395 0.87116,0 1.40575,-0.53459 1.18793,-1.18797 z m -5.77296,-5.31448 c 0,-0.83362 -0.88923,-1.50054 -2.00075,-1.50054 -2.21412,0 -2.71063,1.54757 -0.75029,2.33858 2.17691,0.87839 2.75104,0.70348 2.75104,-0.83804 z m -11.0041,-0.50018 c 0,-0.5502 -0.45016,-1.00036 -1.00036,-1.00036 -0.5502,0 -1.00036,0.45016 -1.00036,1.00036 0,0.5502 0.45016,1.0004 1.00036,1.0004 0.5502,0 1.00036,-0.4502 1.00036,-1.0004 z m 59.6772,-3.83016 c -0.9106,-1.00619 -1.65564,-2.34256 -1.65564,-2.9697 0,-0.62718 -0.61402,-0.9047 -1.36454,-0.61667 -1.69779,0.65149 -2.84178,-4.31394 -1.9831,-8.60734 0.48771,-2.4385 0.31004,-2.9064 -0.92417,-2.4328 -2.2765,0.8736 -3.16063,-1.4184 -1.3282,-3.4432 0.87922,-0.9715 1.59854,-2.7438 1.59854,-3.9385 0,-1.6499 -0.60117,-2.172 -2.50094,-2.172 -1.83402,0 -2.5009,-0.5336 -2.5009,-2.0008 0,-1.1863 -0.66692,-2.0007 -1.63831,-2.0007 -1.40371,0 -1.54259,0.8142 -0.96996,5.6862 0.3675,3.1275 1.06221,6.1661 1.54371,6.7525 0.48151,0.5865 1.62894,3.7673 2.54994,7.0685 1.78853,6.41105 5.1899,10.50395 8.72916,10.50395 1.97107,0 1.99837,-0.11229 0.44441,-1.82944 z m -34.66787,-0.17128 c 0,-0.5502 -0.4502,-1.00036 -1.0004,-1.00036 -0.5502,0 -1.00036,0.45016 -1.00036,1.00036 0,0.5502 0.45016,1.00036 1.00036,1.00036 0.5502,0 1.0004,-0.45016 1.0004,-1.00036 z m -18.50692,-1.00036 c 0.33991,-0.5502 0.14141,-1.0004 -0.44112,-1.0004 -0.58268,0 -1.05942,0.4502 -1.05942,1.0004 0,0.5502 0.1985,1.00036 0.44112,1.00036 0.24274,0 0.7194,-0.45016 1.05942,-1.00036 z m -43.82329,-18.73797 c -0.2537,-0.9733 -0.47783,-0.4191 -0.49821,1.2315 -0.0189,1.6506 0.18716,2.4469 0.46116,1.7696 0.27412,-0.6773 0.29075,-2.0277 0.0378,-3.0011 z m -38.01199,-12.4088 c 2.30818,-1.026 5.00917,-1.8717 6.00223,-1.8792 2.96032,-0.023 6.3072,-1.1554 6.3072,-2.1351 0,-1.4041 -3.11768,-2.2823 -3.85677,-1.0864 -0.57603,0.932 -8.32865,3.1725 -16.40075,4.7399 -1.51305,0.2938 -2.75101,1.1896 -2.75101,1.9906 0,1.8052 4.52105,1.1165 10.6991,-1.6298 z m -3.81156,-2.818 c 4.06329,-1.0553 7.86722,-2.398 8.45315,-2.984 0.58597,-0.586 2.32588,-1.0654 3.86646,-1.0654 2.33011,0 2.80103,-0.4257 2.80103,-2.5323 0,-3.4702 -2.59535,-4.1999 -5.43846,-1.5289 -1.86623,1.7532 -3.03764,2.0624 -5.82979,1.5385 -2.34308,-0.4395 -4.49976,-0.1353 -6.54623,0.9227 -1.81159,0.9369 -4.2081,1.347 -5.89667,1.0093 -2.09944,-0.4198 -3.33792,-0.023 -4.72741,1.5115 -1.03549,1.1442 -2.4882,2.0803 -3.2282,2.0803 -0.74004,0 -1.34552,0.4243 -1.34552,0.9429 0,0.5185 1.91319,1.1152 4.25158,1.3258 2.33836,0.2106 4.70175,0.4538 5.25195,0.5405 0.5502,0.087 4.32486,-0.7057 8.38811,-1.7609 z m 86.14706,-2.0486 c 0,-4.615 -2.542,-5.679 -3.59015,-1.5028 -0.79392,3.1633 0.0813,5.5043 2.05819,5.5043 1.12037,0 1.53196,-1.0751 1.53196,-4.0015 z m -101.27249,-1.1657 c 0.88727,-0.8873 0.75588,-1.4769 -0.55021,-2.4691 -2.26345,-1.7195 -2.88179,-1.6812 -3.61279,0.2238 -1.17512,3.0624 1.76195,4.6465 4.163,2.2454 z m 146.78941,-1.8354 c 1.77243,-0.4511 -5.08778,-0.8889 -16.75623,-1.0696 -10.86655,-0.1683 -20.95779,-0.3343 -22.42502,-0.3683 -1.46723,-0.034 -2.85521,0.5002 -3.08448,1.1879 -0.32516,0.975 3.95466,1.2244 19.4239,1.1322 10.91238,-0.065 21.19119,-0.4621 22.84183,-0.882 z m -135.05022,-3.0012 c 0,-2.1695 -3.90283,-1.8706 -4.3269,0.3313 -0.27374,1.4205 0.17241,1.7574 1.98707,1.5005 1.28692,-0.1822 2.33983,-1.0066 2.33983,-1.8319 z m 133.79975,0.081 c 0.41265,-0.045 0.75025,-0.5102 0.75025,-1.0346 0,-1.8355 -6.60113,-2.8773 -10.92247,-1.7239 -3.49253,0.9322 -4.65694,0.8225 -7.49631,-0.7067 -2.66593,-1.4356 -3.79674,-1.5773 -5.4647,-0.6846 -1.33618,0.715 -4.42996,0.8872 -8.4835,0.4719 -3.9977,-0.4096 -7.084,-0.245 -8.26459,0.4407 -1.5838,0.9199 -1.16654,1.1235 2.61746,1.2772 5.14389,0.209 5.93028,0.3278 8.00299,1.2109 1.98476,0.8456 23.32624,1.392 29.26087,0.7491 z m -122.29547,-0.9591 c 0,-0.4828 -0.67527,-1.4383 -1.50057,-2.1232 -1.25369,-1.0405 -1.50054,-0.896 -1.50054,0.8779 0,1.2204 0.63803,2.1232 1.50054,2.1232 0.8253,0 1.50057,-0.395 1.50057,-0.8779 z m 82.23058,-7.3252 c -0.9337,-0.9336 -1.20044,-0.6669 -1.20044,1.2005 0,1.8674 0.26693,2.1341 1.20044,1.2004 0.93367,-0.9336 0.93367,-1.4672 0,-2.4009 z m -2.18719,-22.5583 c 0.008,-0.9629 0.28546,-2.7645 0.61742,-4.0036 0.50472,-1.8834 0.003,-2.5038 -3.05832,-3.783 -2.0141,-0.8416 -3.90234,-2.1563 -4.19604,-2.9217 -0.29378,-0.7654 -1.20389,-1.6486 -2.02265,-1.9628 -1.14142,-0.4381 -1.34204,-0.048 -0.86012,1.6733 1.10815,3.9577 2.84451,7.1759 5.39391,9.9974 2.87125,3.1777 4.10648,3.4772 4.1258,1.0004 z m -56.27069,-3.0011 c -0.85071,-0.9629 -1.86476,-3.6899 -2.25348,-6.0599 -0.62672,-3.8213 -0.85237,-4.1101 -1.99285,-2.5504 -0.73932,1.0111 -0.9562,2.4177 -0.51012,3.3088 0.42671,0.8525 1.26483,2.788 1.86245,4.3011 0.59761,1.5131 1.84124,2.751 2.76363,2.751 1.51948,0 1.53173,-0.1645 0.13044,-1.7506 z m -7.46349,-11.5043 c 1.89111,-2.3384 3.99248,-6.0523 4.66976,-8.2531 1.39879,-4.5454 7.37089,-16.6815 10.16761,-20.662 2.00212,-2.8496 2.4083,-4.8475 0.9855,-4.8475 -1.31535,0 -9.12355,10.6767 -9.12355,12.4753 0,1.9165 -1.60772,4.8511 -5.41218,9.8792 -2.18995,2.8943 -2.87279,4.8284 -2.75611,7.8067 0.13952,3.5562 -0.14972,4.0654 -2.84088,5.0035 -3.37395,1.1762 -3.99773,2.8495 -1.06225,2.8495 1.06876,0 3.4718,-1.9019 5.3721,-4.2516 z m 11.89656,-7.4399 c 3.08082,-2.9516 3.53574,-4.3145 1.44012,-4.3145 -1.98745,0 -6.63736,3.9054 -6.63736,5.5747 0,2.2087 2.11067,1.6969 5.19724,-1.2602 z m 13.98491,-0.9345 c 3.67719,-2.5483 3.98647,-2.5878 14.74818,-1.8848 14.47855,0.9458 25.31637,-0.079 24.88614,-2.3523 -0.38596,-2.0395 -6.30841,-2.7946 -8.38721,-1.0693 -1.97534,1.6394 -3.02796,0.3735 -1.36022,-1.6361 0.94867,-1.143 2.58585,-1.5107 5.64459,-1.2674 3.87481,0.3081 4.30833,0.1214 4.30833,-1.8564 0,-1.2094 -0.50362,-2.5102 -1.11919,-2.8906 -1.85269,-1.1451 -22.40116,-1.2883 -27.57318,-0.1925 -2.65103,0.5618 -5.70807,1.6392 -6.79335,2.3943 -1.08524,0.755 -2.79574,1.3727 -3.80105,1.3727 -2.91952,0 -7.53226,2.8006 -8.22912,4.9963 -0.35201,1.1094 -1.83795,3.4405 -3.30189,5.1803 l -2.66163,3.1632 4.94183,-0.6773 c 2.76341,-0.3788 6.59747,-1.8248 8.69777,-3.2803 z m 2.02942,-5.7274 c 0.74084,-0.7408 2.96289,-1.6501 4.93786,-2.0207 2.79101,-0.5235 4.12243,-0.231 5.97717,1.3138 l 2.38626,1.9874 -2.19181,0.034 c -1.20548,0.019 -2.47001,-0.4169 -2.81007,-0.9671 -0.3399,-0.5502 -1.69053,-1.0003 -3.00111,-1.0003 -1.31055,0 -2.66106,0.4501 -3.00112,1.0003 -0.3399,0.5502 -1.29909,1.0004 -2.13123,1.0004 -1.2682,0 -1.29509,-0.2178 -0.16599,-1.347 z m 43.81263,0.9059 c 0,-3.2188 -1.43294,-5.462 -2.68757,-4.2073 -0.86916,0.8691 0.66654,7.6495 1.7325,7.6495 0.52529,0 0.95507,-1.549 0.95507,-3.4422 z m -38.54,-11.5137 c 2.08068,-4.0236 1.99175,-4.2228 -1.72498,-3.8644 -2.8588,0.2756 -3.28903,0.7059 -3.5647,3.5647 -0.26089,2.7069 0.0265,3.2512 1.72497,3.2512 1.24552,0 2.63214,-1.1481 3.56471,-2.9515 z m -12.50211,-3.8921 c -1.67212,-0.5574 -4.16213,0.7351 -3.49521,1.8142 0.38728,0.6266 1.32718,0.539 2.57421,-0.2397 1.08032,-0.6747 1.49479,-1.3832 0.921,-1.5745 z m 48.04099,-1.0454 c 0,-2.4222 -6.94777,-4.0211 -18.05399,-4.1548 -13.75833,-0.1657 -21.48834,0.7655 -23.16938,2.791 -1.09564,1.3202 -0.35503,1.3943 6.23488,0.6237 8.61746,-1.0077 25.38469,-0.6723 29.60758,0.5922 3.88967,1.1646 5.38091,1.2056 5.38091,0.1478 z m -57.52089,-10.9618 c 5.70138,-1.9321 11.70116,-4.4722 14.10553,-5.9718 3.42522,-2.1364 9.61922,-7.383 8.07044,-6.8361 -1.00789,0.3558 -2.18247,0.6472 -2.61025,0.6472 -0.42777,0 -2.75433,1.5712 -5.17016,3.4915 -2.41579,1.9204 -4.97975,3.496 -5.69767,3.5014 -3.30533,0.023 -15.48973,6.2563 -16.00092,8.1837 -0.24992,0.9422 -0.11153,0.9928 0.47436,0.1736 0.45481,-0.6357 3.52772,-2.071 6.82867,-3.1897 z m 45.02222,-0.166 c 0.34331,-0.5555 -0.3055,-2.1918 -1.44156,-3.6362 -2.82076,-3.586 -2.62355,-4.157 1.43559,-4.157 2.33419,0 3.50129,0.4668 3.50129,1.4005 0,0.7703 -0.45016,1.4005 -1.00036,1.4005 -0.55024,0 -1.00039,0.9004 -1.00039,2.0008 0,2.843 1.41728,2.4828 4.4604,-1.1338 3.91062,-4.6475 3.08948,-6.3079 -3.30049,-6.6742 -6.19419,-0.355 -8.16251,0.8495 -8.16251,4.9951 0,5.2036 3.56043,8.9556 5.50803,5.8043 z m -55.27437,348.63932 c 0.0113,-2.20081 0.21589,-2.98335 0.45526,-1.73897 0.23933,1.24434 0.23026,3.04501 -0.0189,4.00148 -0.25029,0.95642 -0.44618,-0.0616 -0.43507,-2.26251 z m -0.96652,-15.00558 c 0.008,-2.75101 0.2019,-3.75772 0.43174,-2.23707 0.22988,1.52062 0.22383,3.77144 -0.0151,5.00184 -0.23745,1.23042 -0.42558,-0.0151 -0.41806,-2.76477 z m -13.29093,-49.92856 c 0,-0.74828 -1.06085,-2.05558 -2.35741,-2.90511 -1.29656,-0.84954 -3.33743,-3.48977 -4.53527,-5.86718 -1.19784,-2.37741 -3.10456,-5.78562 -4.23714,-7.57378 -1.13254,-1.78819 -1.68013,-3.24313 -1.21682,-3.23326 0.95903,0.0189 7.34477,9.48039 7.34477,10.88065 0,0.8534 9.40046,8.10844 10.50623,8.10844 1.3628,0 0.26315,-4.15384 -1.25281,-4.73286 -4.18342,-1.59778 -10.12311,-10.07407 -12.32728,-17.59185 -1.13039,-3.8553 1.11571,-3.057 2.42161,0.86073 2.72579,8.17737 11.51192,18.02231 15.4135,17.27097 2.35643,-0.45383 2.47648,-6.30403 0.12969,-6.32596 -1.94457,-0.0189 -4.88735,-2.31049 -4.88735,-3.8071 0,-0.59194 -1.95864,-4.02563 -4.35257,-7.63041 -4.33726,-6.53107 -6.22648,-11.05579 -4.61614,-11.05579 0.46622,0 1.12588,0.45019 1.46594,1.00039 0.33991,0.55021 1.69136,1.00036 3.00297,1.00036 2.52517,0 9.94435,3.89229 9.07541,4.76122 -0.2813,0.2813 -1.63529,-0.22459 -3.00864,-1.12441 -2.56763,-1.6824 -6.55712,-2.21915 -6.58385,-0.8858 -0.008,0.41265 1.65537,4.01399 3.69696,8.00299 2.90546,5.67681 4.18961,7.2527 5.91024,7.2527 4.63837,0 4.74677,7.44318 0.16144,11.08619 -3.87126,3.07564 -9.75359,4.58873 -9.75359,2.50887 z m 78.26109,-3.59135 c 0,-1.92571 0.20568,-2.7135 0.45749,-1.75065 0.25181,0.96285 0.25181,2.53844 0,3.5013 -0.25181,0.96289 -0.45749,0.17505 -0.45749,-1.75065 z m -94.98964,-8.25306 c -1.17996,-1.52493 -2.38373,-4.75177 -1.77265,-4.75177 0.24387,0 1.1415,1.35052 1.99504,3.00112 1.59722,3.08864 1.48659,3.95932 -0.22232,1.75065 z m 30.56541,-16.72352 c -0.4043,-4.23957 -0.008,-4.81041 1.96899,-2.83374 1.6086,1.6086 1.51842,4.29291 -0.19207,5.71235 -1.14324,0.94882 -1.46118,0.43386 -1.77708,-2.87861 z m 18.06284,-16.70167 c -1.33913,-0.35768 -1.47313,-1.17841 -0.78976,-4.83616 0.86594,-4.63523 2.79656,-8.50604 4.24251,-8.50604 0.4722,0 -0.0862,1.6013 -1.24102,3.5585 -2.7501,4.6611 -2.79437,8.44596 -0.0987,8.44596 1.1004,0 2.00075,-0.52521 2.00075,-1.16709 0,-0.64189 0.28925,-0.87786 0.64273,-0.52438 0.69104,0.69104 -1.47419,3.76872 -2.51588,3.57619 -0.34519,-0.0639 -1.35353,-0.31003 -2.24054,-0.54698 z m 5.50719,-6.92161 c 0.33386,-0.87029 0.60722,-1.77065 0.60722,-2.00075 0,-0.23026 0.67528,-0.41836 1.50058,-0.41836 1.80883,0 1.93391,1.16725 0.3002,2.80106 -1.70947,1.70944 -3.1243,1.48504 -2.40788,-0.38195 z m -8.38081,-5.61128 c -0.008,-0.93038 0.43484,-1.96983 0.98508,-2.30989 1.26605,-0.78246 1.26605,0.54185 0,2.50094 -0.83574,1.29319 -0.97185,1.26676 -0.98508,-0.19094 z m 13.66217,0.18564 c 0.90777,-0.83437 11.14135,-2.49534 10.33144,-1.6768 -0.27525,0.2779 -2.89846,0.94028 -5.82975,1.47165 -2.93128,0.53141 -4.95703,0.6237 -4.50169,0.2053 z m -11.67673,-4.99627 c 0,-0.55021 0.45016,-1.0004 1.00036,-1.0004 0.5502,0 1.0004,0.45019 1.0004,1.0004 0,0.5502 -0.4502,1.00036 -1.0004,1.00036 -0.5502,0 -1.00036,-0.45016 -1.00036,-1.00036 z m 3.00111,-2.00076 c 0,-0.5502 0.47674,-1.00036 1.05942,-1.00036 0.58268,0 0.78118,0.45016 0.44112,1.00036 -0.3399,0.5502 -0.81675,1.00036 -1.05941,1.00036 -0.24274,0 -0.44113,-0.45016 -0.44113,-1.00036 z m -5.00187,-3.37883 c 0,-0.20758 0.7878,-0.99552 1.75065,-1.75065 1.58667,-1.24431 1.62206,-1.20895 0.37772,0.37772 -1.30685,1.66637 -2.12837,2.1963 -2.12837,1.37293 z m 87.11574,-9.0398 c 0.22912,-0.22761 3.31398,-1.94926 6.85494,-3.82555 7.46504,-3.9555 8.86947,-6.5263 8.99155,-16.45897 0.0711,-5.788 1.17368,-8.58204 2.52423,-6.39681 0.32214,0.52117 0.12817,1.23036 -0.43106,1.57593 -0.5592,0.34558 -1.0167,3.2465 -1.0167,6.44649 0,10.79098 -0.36259,11.45094 -8.49761,15.47155 -6.48853,3.2068 -9.64777,4.40199 -8.42535,3.18736 z m 15.92257,-40.46147 c 0,-6.52566 -0.21892,-14.06594 -0.48616,-16.75623 -0.35843,-3.6047 -0.25294,-4.23351 0.40048,-2.39045 0.48766,1.3755 0.93151,4.38758 0.98633,6.69346 0.0548,2.30591 0.5499,4.47076 1.1001,4.81082 1.43921,0.8895 1.25134,12.85389 -0.22496,14.33027 -0.96698,0.96697 -0.96516,1.64213 0.008,3.2012 1.0244,1.63956 0.9776,1.97576 -0.27488,1.97576 -1.26029,0 -1.50904,-1.95561 -1.50904,-11.86483 z M 379.09072,-856.551 c 0.24803,-0.4126 2.19881,-0.7502 4.33469,-0.7502 2.13585,0 4.1616,-0.4502 4.50166,-1.0004 0.3399,-0.5502 1.82967,-0.9648 3.31024,-0.9214 1.48062,0.043 2.12927,0.3059 1.44152,0.5835 -0.68775,0.2776 -1.25047,1.1365 -1.25047,1.9088 0,1.0838 -1.45966,1.3502 -6.39446,1.1671 -3.51695,-0.1304 -6.19139,-0.5747 -5.94318,-0.9874 z m 59.35514,-19.6983 c 0,-0.5177 0.45016,-1.2195 1.00036,-1.5596 0.5502,-0.3399 1.0004,0.084 1.0004,0.9414 0,0.8578 -0.4502,1.5596 -1.0004,1.5596 -0.5502,0 -1.00036,-0.4236 -1.00036,-0.9414 z m 49.5184,-4.2097 c -0.61021,-1.3988 -2.20228,-2.5344 -4.08205,-2.9117 -2.81797,-0.5656 -3.04343,-0.4183 -2.6344,1.7214 0.35503,1.8568 0.0113,2.3399 -1.67008,2.3399 -1.16457,0 -2.11736,-0.5751 -2.11736,-1.278 0,-2.2652 3.05696,-5.7246 5.05859,-5.7246 1.06921,0 1.944,-0.4502 1.944,-1.0004 0,-1.5082 9.38972,-1.2003 12.49311,0.4098 l 2.71804,1.4101 -2.59641,1.7013 c -1.61525,1.0583 -3.51906,1.4696 -5.03798,1.0884 -2.06941,-0.5194 -2.48982,-0.2204 -2.7583,1.9621 l -0.31684,2.575 z m -3.42232,-0.4343 c 0.048,-1.1654 0.28509,-1.4025 0.60439,-0.6044 0.28886,0.7221 0.25332,1.5849 -0.079,1.9174 -0.33234,0.3323 -0.56887,-0.2587 -0.52543,-1.313 z m 27.59995,-3.6681 c 0.8678,-4.559 1.33187,-4.7042 1.33187,-0.4168 0,2.0174 -0.43893,3.668 -0.97537,3.668 -0.56044,0 -0.7121,-1.383 -0.35654,-3.2512 z m -42.68451,-3.7514 c 0,-0.5502 0.45016,-1.0003 1.0004,-1.0003 0.5502,0 1.00036,0.4501 1.00036,1.0003 0,0.5502 -0.45016,1.0004 -1.00036,1.0004 -0.55024,0 -1.0004,-0.4502 -1.0004,-1.0004 z m 3.00112,-1.0003 c 0,-0.5502 0.45015,-1.0004 1.00039,-1.0004 0.5502,0 1.00036,0.4502 1.00036,1.0004 0,0.5502 -0.45016,1.0003 -1.00036,1.0003 -0.55024,0 -1.00039,-0.4501 -1.00039,-1.0003 z m 4.00151,-0.834 c 0,-0.4314 0.57353,-1.5688 1.27459,-2.5275 0.97454,-1.3328 1.83905,-1.5343 3.67231,-0.8561 1.31879,0.4878 1.9355,1.1727 1.37047,1.5218 -2.27578,1.4066 -6.31737,2.5976 -6.31737,1.8618 z"
       id="path584"
       inkscape:connector-curvature="0" />
  </g>
</svg>
