<?xml version="1.0" encoding="UTF-8" standalone="no"?>
<!-- Created with Inkscape (http://www.inkscape.org/) -->

<svg
   xmlns:dc="http://purl.org/dc/elements/1.1/"
   xmlns:cc="http://creativecommons.org/ns#"
   xmlns:rdf="http://www.w3.org/1999/02/22-rdf-syntax-ns#"
   xmlns:svg="http://www.w3.org/2000/svg"
   xmlns="http://www.w3.org/2000/svg"
   xmlns:sodipodi="http://sodipodi.sourceforge.net/DTD/sodipodi-0.dtd"
   xmlns:inkscape="http://www.inkscape.org/namespaces/inkscape"
   width="209.99983mm"
   height="349.28278mm"
   viewBox="0 0 209.99984 349.28282"
   version="1.1"
   id="svg8"
   inkscape:version="0.92.3 (2405546, 2018-03-11)"
   sodipodi:docname="general_1.svg">
  <defs
     id="defs2" />
  <sodipodi:namedview
     id="base"
     pagecolor="#ffffff"
     bordercolor="#666666"
     borderopacity="1.0"
     inkscape:pageopacity="0.0"
     inkscape:pageshadow="2"
     inkscape:zoom="1.4"
     inkscape:cx="363.62421"
     inkscape:cy="589.27619"
     inkscape:document-units="mm"
     inkscape:current-layer="layer1"
     showgrid="false"
     fit-margin-top="0"
     fit-margin-left="0"
     fit-margin-right="0"
     fit-margin-bottom="0"
     inkscape:window-width="1920"
     inkscape:window-height="1017"
     inkscape:window-x="-8"
     inkscape:window-y="-8"
     inkscape:window-maximized="1" />
  <metadata
     id="metadata5">
    <rdf:RDF>
      <cc:Work
         rdf:about="">
        <dc:format>image/svg+xml</dc:format>
        <dc:type
           rdf:resource="http://purl.org/dc/dcmitype/StillImage" />
        <dc:title></dc:title>
      </cc:Work>
    </rdf:RDF>
  </metadata>
  <g
     inkscape:label="Layer 1"
     inkscape:groupmode="layer"
     id="layer1"
     transform="translate(-356.47945,889.70299)">
    <path
       style="fill:#000000;stroke-width:0.67571634"
       d="m 357.77463,-541.77327 c -1.55289,-1.55287 -1.6707,-2.61426 -0.5606,-5.05065 0.5925,-1.30039 1.73636,-2.00666 4.56109,-2.81625 2.07363,-0.59429 4.07432,-1.31819 4.44596,-1.60864 0.37164,-0.29043 2.04406,-0.88199 3.71644,-1.31454 1.67239,-0.43258 4.30673,-1.67859 5.85405,-2.76895 1.54733,-1.09033 3.08898,-1.98243 3.42589,-1.98243 0.33691,0 1.83831,-1.04921 3.33645,-2.33157 l 2.7239,-2.33155 0.47776,-8.64884 c 0.26277,-4.75685 0.76415,-8.93769 1.11418,-9.29077 0.35001,-0.35305 0.65469,-6.13043 0.67704,-12.8386 0.0605,-18.15679 2.25564,-58.97061 3.30902,-61.52396 0.30665,-0.74329 0.91779,-4.9499 1.35811,-9.34803 0.74928,-7.48404 0.7215,-8.05652 -0.43322,-8.93174 -0.67862,-0.51435 -1.5922,-0.94483 -2.03021,-0.95666 -1.81145,-0.0488 -2.79679,-2.00684 -2.4691,-4.9063 0.70099,-6.2027 2.22349,-13.43327 3.31124,-15.72557 1.04467,-2.20142 1.05008,-2.50452 0.0644,-3.59378 -0.98503,-1.08841 -0.98455,-1.35964 0.005,-3.18955 0.59521,-1.09996 1.51726,-2.83249 2.04903,-3.85001 0.53175,-1.01755 1.34164,-2.0818 1.79975,-2.36503 1.8917,-1.16948 3.24061,-12.94328 2.21124,-19.30047 -0.42418,-2.61963 -0.85913,-3.37104 -2.25963,-3.9035 -0.95385,-0.36267 -4.09419,-2.62772 -6.9785,-5.03343 -2.88434,-2.40574 -5.57976,-4.37407 -5.98984,-4.37407 -0.4101,0 -0.74563,-0.30406 -0.74563,-0.67571 0,-0.37164 -0.31663,-0.6757 -0.70365,-0.6757 -1.39455,0 -7.29294,-3.06526 -7.97268,-4.1432 -0.92941,-1.4739 11.69768,4.99987 14.75777,7.56617 2.18879,1.83558 7.43289,5.00228 7.43289,4.48841 0,-0.12361 -0.60816,-1.48338 -1.35144,-3.02181 -0.74328,-1.53844 -1.35142,-3.55407 -1.35142,-4.47922 0,-0.92512 -0.30409,-1.86995 -0.67573,-2.09965 -0.37164,-0.22959 -0.67571,-2.35634 -0.67571,-4.72589 0,-4.90779 -0.85718,-7.77486 -2.3245,-7.77486 -0.5536,0 -1.34551,-0.63336 -1.7598,-1.4075 -0.70929,-1.32534 -0.82652,-1.3412 -2.00833,-0.27165 -1.45326,1.31517 -2.69167,0.82582 -2.69167,-1.0636 0,-0.72134 -0.30409,-1.31154 -0.67573,-1.31154 -0.37165,0 -0.67571,-0.72868 -0.67571,-1.6193 0,-1.5354 3.42349,-5.26545 5.45383,-5.94226 0.66125,-0.2204 0.51266,-1.7654 -0.65622,-6.82383 -0.83107,-3.59642 -1.79439,-6.71405 -2.14072,-6.92812 -0.83354,-0.51514 -0.81084,-2.33657 0.0291,-2.33657 0.81009,0 3.06661,4.89907 3.73483,8.10859 0.27084,1.30075 0.71974,2.6691 0.99758,3.04074 0.27783,0.37164 0.69667,3.05241 0.93071,5.95727 0.29255,3.63077 0.96516,6.37643 2.15193,8.78433 1.36526,2.77003 1.80905,4.91619 2.12162,10.25989 0.42379,7.24523 0.69512,8.0978 3.81732,11.99396 l 2.03055,2.53394 h 7.8908 c 7.03261,0 8.02378,-0.14685 9.1138,-1.35144 0.67267,-0.74329 0.94783,-1.35607 0.61151,-1.36176 -1.93858,-0.033 1.84962,-1.3222 3.90969,-1.33076 1.37172,-0.005 2.70947,-0.35889 2.97275,-0.78491 0.68422,-1.10706 0.31232,-10.92502 -0.44289,-11.69239 -0.34748,-0.35307 -0.62989,-2.02546 -0.62759,-3.71644 l 0.005,-3.0745 0.96346,1.84687 c 0.5299,1.01578 1.17824,5.05279 1.4407,8.97109 0.65052,9.7115 1.83706,10.059 1.55258,0.4547 -0.12182,-4.109 6.2e-4,-7.69282 0.27184,-7.96405 0.27122,-0.27122 0.49313,1.17926 0.49313,3.22332 0,4.26693 0.32506,4.84781 2.09447,3.7428 1.0701,-0.66828 1.56367,-0.50442 3.0958,1.02771 1.78187,1.78184 1.79479,1.85363 0.57651,3.19981 -0.68531,0.75739 -1.95916,1.37706 -2.83068,1.37706 -0.95804,0 -1.58456,0.40078 -1.58456,1.01359 0,0.72949 0.74635,1.01356 2.66297,1.01356 1.46465,0 2.85093,0.30409 3.0806,0.67573 0.22959,0.37165 1.1244,0.67571 1.98823,0.67571 1.03524,0 1.69915,0.49157 1.94772,1.44213 0.35995,1.37639 0.63005,1.42009 5.92382,0.9583 6.88125,-0.60024 7.51699,-0.84368 12.2293,-4.6823 3.94974,-3.21742 5.77018,-6.58835 4.95135,-9.16831 -0.38628,-1.217 1.02316,-6.77575 2.44849,-9.65679 0.31926,-0.64534 0.58047,-2.08627 0.58047,-3.20209 0,-1.65951 -0.27669,-2.02498 -1.52035,-2.00804 -2.09335,0.0286 -5.70031,-0.91476 -9.12421,-2.38608 -2.97678,-1.27916 -4.8969,-3.94432 -4.8969,-6.79694 0,-0.93838 -0.50973,-1.63995 -1.35144,-1.86007 -0.90277,-0.23598 -1.35144,-0.92168 -1.35144,-2.06515 0,-1.48044 -0.34243,-1.74758 -2.53392,-1.97682 l -2.53394,-0.26506 2.57675,-0.11365 c 2.47954,-0.10931 2.56875,-0.19614 2.365,-2.30412 -0.1277,-1.32054 -0.62688,-2.26903 -1.257,-2.38814 -1.79526,-0.33934 -11.53668,9.38475 -14.66514,14.63901 -3.37721,5.67204 -3.62834,7.0482 -1.17372,6.43213 2.23782,-0.56166 3.70766,0.73623 3.70766,3.27393 0,2.00528 -0.0398,2.02778 -3.00442,1.69363 -2.93792,-0.33113 -3.01119,-0.29196 -3.31155,1.77036 -0.16881,1.15992 -0.25914,-0.17315 -0.20048,-2.96264 0.0873,-4.15763 0.47053,-5.79076 2.12568,-9.06206 2.21726,-4.38235 9.46941,-12.56156 13.79669,-15.56039 1.51632,-1.05079 2.75695,-2.1448 2.75695,-2.43109 0,-0.97883 -2.74438,0.19511 -3.42377,1.46447 -0.37294,0.69686 -1.0736,1.26701 -1.55703,1.26701 -0.73667,0 -6.65196,5.96642 -11.0829,11.17863 -1.99965,2.35223 -3.7141,6.88017 -4.27463,11.28949 -0.53547,4.21215 -0.53611,4.2099 -0.25283,-0.90531 l 0.28402,-5.128 -3.33009,-3.65632 c -1.99893,-2.19474 -3.34238,-3.2307 -3.36079,-2.59159 -0.0179,0.58558 -0.80021,1.78767 -1.74076,2.67127 -1.4797,1.3901 -1.65318,1.98616 -1.28759,4.42412 0.35685,2.37964 0.18285,3.04097 -1.12016,4.25483 -1.90927,1.77876 -1.86381,1.7807 -4.32083,-0.18515 -1.92987,-1.54409 -1.98163,-1.72005 -1.16825,-3.96946 0.87356,-2.41573 0.33686,-5.28058 -1.16286,-6.20743 -0.39457,-0.2439 -0.71739,-1.03359 -0.71739,-1.75493 0,-1.14578 0.53382,-1.32649 4.22322,-1.42962 3.20982,-0.0896 3.55056,-0.17928 1.41998,-0.37335 -2.57416,-0.23445 -2.83795,-0.44032 -3.22793,-2.51908 -0.4254,-2.26755 -2.7346,-4.42239 -4.73915,-4.42239 -0.56099,0 -1.47262,0.87529 -2.02585,1.94509 -0.91575,1.77084 -0.89738,2.04329 0.20482,3.04074 1.4358,1.29937 2.8918,1.40277 4.00981,0.28476 0.60346,-0.60346 0.81086,-0.60954 0.81086,-0.023 0,0.43291 -0.61666,1.11712 -1.37036,1.52049 -0.75368,0.40336 -1.174,1.05112 -0.93399,1.43944 0.24007,0.38832 -0.20763,1.57706 -0.99466,2.64162 -1.82559,2.46928 -1.7984,3.04783 0.2583,5.49206 2.11725,2.51624 2.10722,2.80984 -0.16881,4.93843 -3.34856,3.13147 -6.36263,2.90852 -8.24564,-0.60992 -0.8154,-1.52358 -0.77385,-2.021 0.34179,-4.09263 l 1.27,-2.35826 -2.19109,-2.2606 c -1.72586,-1.78065 -2.28264,-3.039 -2.62225,-5.92653 -0.39414,-3.35114 -0.33556,-3.58707 0.68235,-2.74781 0.97326,0.80248 1.19787,0.69612 1.78368,-0.84465 0.89529,-2.35481 3.01311,-2.41544 2.56541,-0.0735 -0.21657,1.13278 -0.0204,1.6893 0.59695,1.6893 0.57991,2e-5 0.91985,-0.78093 0.91985,-2.11312 v -2.11311 l -3.24632,0.31193 c -2.95551,0.284 -3.31868,0.1586 -4.0543,-1.40017 -1.77191,-3.75467 -1.36937,-4.07712 5.35459,-4.2891 l 6.16253,-0.19435 1.29048,-3.28966 c 1.32955,-3.38929 1.15791,-5.83252 -0.40977,-5.83252 -0.49127,0 -1.58226,-0.55798 -2.42446,-1.23994 -1.3544,-1.09674 -1.44576,-1.48519 -0.79091,-3.36362 0.87915,-2.52199 0.0664,-3.37359 -2.11518,-2.21658 -0.80078,0.42469 -4.1926,1.29674 -7.5374,1.93792 -3.3448,0.64118 -6.71529,1.6219 -7.49002,2.17936 -1.88441,1.35596 -4.65944,7.03916 -5.99926,12.28638 -1.13689,4.45234 -2.49586,7.81231 -5.68937,14.06656 -1.04373,2.04405 -2.2959,5.2368 -2.78262,7.09503 -0.48672,1.85821 -1.14227,3.71435 -1.45679,4.12474 -0.31453,0.41038 -0.62011,1.97717 -0.67907,3.48176 -0.0973,2.48093 0.37728,3.94594 3.17182,9.79319 1.16389,2.43527 0.37006,2.35604 -2.08668,-0.20814 -1.5749,-1.64386 -2.05049,-2.85302 -2.32554,-5.91253 -0.34585,-3.84741 0.45408,-10.98021 1.30281,-11.61682 0.24773,-0.18592 0.83962,-1.70618 1.31525,-3.37857 0.47567,-1.67241 1.92893,-5.32128 3.22947,-8.10859 4.03351,-8.64458 4.18976,-9.02437 5.27263,-12.816 0.58022,-2.03159 1.83929,-4.87903 2.79794,-6.32762 1.38232,-2.08885 1.65214,-3.11796 1.30399,-4.97375 -0.35545,-1.89473 -0.10343,-2.77995 1.32511,-4.65275 0.97025,-1.27206 2.23841,-2.31285 2.81814,-2.31285 0.7664,0 0.61873,0.35292 -0.54117,1.29329 -1.94604,1.57767 -1.22127,2.59365 1.09677,1.53749 0.92627,-0.42205 2.10762,-0.60486 2.62519,-0.40624 0.6075,0.23317 1.19665,-0.37206 1.66215,-1.70741 0.60933,-1.74795 1.06691,-2.06701 2.95232,-2.05858 2.19249,0.0102 2.20321,0.0255 0.61776,0.84464 -1.63852,0.84764 -2.05802,1.97584 -0.88063,2.3683 0.35637,0.11876 1.11763,-0.2536 1.69169,-0.82774 0.57407,-0.57406 1.48611,-1.04375 2.02677,-1.04375 0.54066,0 1.14207,-0.60813 1.33645,-1.35141 0.27069,-1.03517 0.92167,-1.35145 2.78167,-1.35145 1.33553,0 2.42826,0.30407 2.42826,0.67571 0,1.47551 3.16762,0.64322 4.08648,-1.0737 0.82897,-1.54894 0.80332,-1.82386 -0.22372,-2.39859 -0.78619,-0.43998 -1.15995,-1.49643 -1.15995,-3.27855 0,-1.44617 -0.30407,-2.81735 -0.67571,-3.04702 -0.37164,-0.2296 -0.67571,-1.31191 -0.67571,-2.4049 0,-1.65647 -0.27457,-1.98728 -1.64943,-1.98728 -3.49425,0 -2.14176,-1.12997 1.51132,-1.26264 2.11998,-0.0769 4.42474,-0.31308 5.12167,-0.52465 0.82358,-0.25002 1.10527,-0.12284 0.80475,0.36347 -0.25436,0.41146 -1.50865,0.74811 -2.78746,0.74811 -2.19287,0 -2.32514,0.13051 -2.32514,2.2927 0,2.19438 1.36161,3.6041 2.68881,2.78387 0.29684,-0.18337 2.75534,-0.79965 5.4633,-1.36929 2.70797,-0.56962 5.3337,-1.37606 5.83495,-1.79207 1.43079,-1.18745 1.71031,-0.23853 0.3045,1.03366 -0.69203,0.62627 -3.12647,1.46775 -5.40988,1.86996 -2.28343,0.40221 -4.15167,1.00289 -4.15167,1.33482 0,0.33193 -0.43815,0.60351 -0.9737,0.60351 -1.8067,0 -1.85389,1.39669 -0.094,2.78105 1.61888,1.2734 1.67315,1.48289 0.73235,2.82609 -2.21325,3.15987 -0.3686,7.23148 3.27623,7.23148 0.70883,0 5.30358,-1.97648 10.21057,-4.39215 4.90697,-2.4157 9.21883,-4.39218 9.58189,-4.39218 1.53328,0 4.97099,-4.26108 4.97099,-6.16161 0,-1.07084 0.29454,-1.94698 0.65451,-1.94698 0.35997,0 0.53741,0.38009 0.39429,0.84465 -0.14301,0.46455 -0.44133,1.67244 -0.66268,2.68416 -0.5322,2.4324 -2.66524,4.37083 -6.88786,6.2595 -4.17267,1.86631 -4.86891,2.76346 -2.58873,3.33574 1.65955,0.41651 3.93989,-0.4432 9.65071,-3.63848 3.06214,-1.71332 2.92152,-1.47466 3.88266,-6.58928 l 0.85565,-4.55315 -2.31142,-2.24482 c -1.27128,-1.23465 -2.31142,-2.49701 -2.31142,-2.80527 0,-0.30825 -0.45174,-0.93536 -1.00386,-1.39358 -0.87885,-0.72936 -0.83676,-1.04561 0.33785,-2.53887 0.73795,-0.93817 1.34174,-2.27288 1.34174,-2.96603 0,-0.69318 0.26456,-1.26032 0.58788,-1.26032 0.32335,0 0.96256,-1.33814 1.42047,-2.97362 0.67791,-2.42119 0.66284,-3.32205 -0.0812,-4.84904 -1.38413,-2.84108 -2.61094,-2.88577 -2.15538,-0.0787 0.22295,1.3734 0.0702,2.51325 -0.37313,2.78728 -0.41258,0.25514 -0.75017,1.06086 -0.75017,1.79079 0,1.26029 -0.085,1.27138 -1.6893,0.2204 -0.9291,-0.60879 -1.68929,-1.54597 -1.68929,-2.08262 0,-0.53665 -0.30407,-0.7878 -0.67571,-0.55812 -0.37164,0.22959 -0.67571,0.97285 -0.67571,1.65147 0,1.33305 -2.6741,3.41641 -4.38513,3.41641 -1.13571,0 -2.36564,-2.55182 -2.38239,-4.94295 -0.0204,-2.83453 -0.60798,-3.02863 -6.74681,-2.22668 l -5.7436,0.75033 -0.33785,4.45968 c -0.36825,4.86086 -1.48029,6.86618 -3.63408,6.5533 -1.6966,-0.24645 -4.47452,-4.20917 -4.47452,-6.38291 0,-2.81918 -1.82261,-1.79885 -2.29073,1.28244 -0.71435,4.70181 -2.69921,11.99395 -3.26466,11.99395 -0.76413,0 -0.64558,-1.87351 0.14965,-2.365 1.02355,-0.63257 0.76737,-5.90347 -0.35933,-7.3931 -0.58997,-0.78001 -0.99208,-2.80151 -0.99208,-4.98736 v -3.67569 l -2.3305,0.37818 c -1.28177,0.20789 -3.33426,0.83176 -4.56107,1.38613 -4.75079,2.14672 -7.29847,2.08154 -7.29847,-0.18669 0,-1.7725 4.19435,-6.28149 9.50628,-10.21939 3.89964,-2.89092 4.71714,-3.81231 4.40712,-4.96716 -0.20942,-0.7798 -0.38479,-2.28251 -0.38985,-3.33933 -0.005,-1.27273 -0.41746,-2.02822 -1.21836,-2.23767 -0.66501,-0.17392 -1.5012,-0.86773 -1.85821,-1.54186 -0.35701,-0.6741 -1.22142,-2.23838 -1.92093,-3.47615 -0.85226,-1.50804 -1.01944,-2.33458 -0.50677,-2.50549 1.12037,-0.37345 0.93396,-1.49382 -0.24849,-1.49382 -0.55746,0 -1.01507,0.3801 -1.01691,0.84465 -0.005,1.33762 -3.29985,-2.91412 -4.75572,-6.13745 -1.59107,-3.52274 -1.76083,-9.0436 -0.31495,-10.24357 1.76803,-1.46734 6.56332,-0.22424 10.5185,2.72668 2.04007,1.52209 4.34636,2.67395 5.35387,2.67395 0.97349,0 2.05884,0.27122 2.41189,0.60269 0.35307,0.33149 6.41933,0.76394 13.48055,0.96103 13.64859,0.38096 19.03076,1.27449 22.48285,3.73261 1.12836,0.80345 2.34748,1.46085 2.70916,1.46085 0.36168,0 1.00381,0.41715 1.42694,0.92701 0.42315,0.50983 2.6649,1.59766 4.98169,2.41738 5.71994,2.0238 8.84493,3.46642 9.43879,4.35729 1.34145,2.01244 0.4234,4.26206 -3.19931,7.83977 -3.13081,3.09195 -3.71645,4.05193 -3.71645,6.09215 0,1.33203 0.28839,2.71075 0.64088,3.06383 0.89807,0.89955 2.73771,8.24428 2.73771,10.93028 0,4.59243 -1.55496,7.79541 -5.91253,12.17901 -2.32276,2.33665 -4.22321,4.681 -4.22321,5.20963 0,0.52865 -0.30409,1.14912 -0.67573,1.37881 -1.89047,1.16838 0.58361,6.54028 3.77469,8.19581 1.4891,0.77256 2.2864,0.81886 3.7392,0.21709 2.47301,-1.02437 4.41815,-0.30254 4.95565,1.83902 l 0.441,1.75705 1.85923,-1.78126 c 2.45089,-2.34812 5.30351,-2.39059 6.17745,-0.0919 0.80059,2.10571 1.14838,2.10571 3.09988,0 0.8611,-0.92913 1.96022,-1.67964 2.44252,-1.66781 0.5738,0.0128 0.46818,0.33175 -0.3056,0.91914 -0.65037,0.49372 -1.1825,1.22372 -1.1825,1.62226 0,0.8945 2.44192,1.73243 3.37253,1.15729 0.95197,-0.58836 0.85168,-2.18756 -0.16293,-2.59695 -0.66453,-0.26813 -0.66095,-0.3522 0.0179,-0.39416 0.47375,-0.0294 1.1504,0.70684 1.50363,1.63594 0.48971,1.28803 1.12777,1.6893 2.68616,1.6893 1.91664,0 2.04387,0.16013 2.04387,2.57158 0,1.64683 0.57787,3.35484 1.60699,4.74975 3.03629,4.11544 3.39897,7.06424 2.44723,19.89686 -1.11375,15.01727 -1.15458,17.06378 -0.3378,16.93315 0.37167,-0.0595 4.17257,-0.60816 8.44648,-1.21941 4.2739,-0.61124 8.83497,-1.60363 10.13574,-2.2053 1.7038,-0.78808 4.1597,-1.07246 8.7843,-1.01712 6.45317,0.0771 13.21178,-0.82225 14.59706,-1.94256 1.52309,-1.23182 8.78538,-1.51078 10.96918,-0.42137 1.13914,0.5683 2.16225,0.78898 2.27357,0.49043 0.11135,-0.29858 3.97935,-1.17119 8.5956,-1.9392 4.61626,-0.76798 8.70603,-1.70916 9.0884,-2.09153 1.4231,-1.4231 5.55458,-0.78695 7.49571,1.15418 3.28343,3.28343 4.59613,6.69535 4.27643,11.11514 -0.15706,2.17169 -0.56995,4.23028 -0.91748,4.57465 -0.34753,0.34439 -2.04988,1.00403 -3.783,1.46588 -4.79858,1.27873 -8.19824,0.0613 -9.59795,-3.43687 -0.95219,-2.37974 -0.95901,-2.96803 -0.0638,-5.50529 1.1754,-3.33145 0.93171,-3.78555 -1.55925,-2.90543 -1.43153,0.5058 -1.84503,1.08803 -1.84503,2.59781 0,1.07029 -0.35617,2.0672 -0.79148,2.21537 -0.49231,0.16754 -0.66248,-0.22372 -0.4502,-1.0356 0.27245,-1.04186 -0.0789,-1.36666 -1.74247,-1.61084 -3.00832,-0.44151 -6.18848,0.15681 -6.60514,1.2426 -0.5332,1.38947 1.06024,2.94009 3.08379,3.00089 1.89425,0.057 1.5851,0.24645 -1.53192,0.93851 -1.46874,0.32618 -1.76328,0.62703 -1.1825,1.20783 0.95234,0.95242 1.02104,3.20603 0.0978,3.20603 -0.37164,0 -0.67573,1.05848 -0.67573,2.35215 0,2.01676 -0.26492,2.41018 -1.85821,2.7593 -1.02202,0.22398 -2.31434,0.58632 -2.8718,0.80532 -2.3007,0.90372 -8.1086,1.90785 -8.1086,1.40188 0,-0.30003 1.21055,-0.7391 2.69012,-0.97566 1.47954,-0.23649 3.03716,-0.84833 3.46131,-1.35944 0.42417,-0.51108 1.64621,-0.92926 2.71562,-0.92926 1.64994,0 1.94441,-0.26953 1.94441,-1.7798 0,-2.23207 -1.40035,-7.0045 -2.0553,-7.0045 -0.26946,0 -0.64896,-0.60813 -0.84334,-1.35144 -0.44959,-1.71923 -1.27659,-1.71923 -2.35027,0 -0.50028,0.80108 -0.56648,1.35144 -0.16243,1.35144 0.37479,0 0.67957,1.29232 0.67727,2.8718 l -0.005,2.87179 -1.01146,-1.93945 c -0.55634,-1.0667 -1.43598,-3.19522 -1.9548,-4.73003 -1.55815,-4.60946 -2.79551,-3.61012 -2.61054,2.10839 0.0871,2.69443 0.023,4.89895 -0.14276,4.89895 -0.16575,0 -0.62887,-1.21629 -1.02916,-2.70286 -0.72656,-2.69818 -1.53338,-3.20886 -3.30111,-2.08934 -0.8922,0.56503 -0.7889,2.15201 0.32978,5.06728 0.22705,0.59199 0.0764,1.07636 -0.33496,1.07636 -0.41151,0 -0.74811,-0.57447 -0.74811,-1.27659 0,-0.70211 -0.58556,-1.99441 -1.30124,-2.8718 -1.03544,-1.26938 -1.37105,-1.38816 -1.64307,-0.58164 -0.70987,2.10481 -0.88903,6.47883 -0.32776,8.00212 0.54352,1.47505 0.82429,1.55085 4.12371,1.1137 2.93516,-0.38891 3.39294,-0.31556 2.67742,0.42898 -1.44177,1.50028 -5.92791,1.11216 -7.83311,-0.6777 -1.72454,-1.62014 -3.12884,-1.4644 -3.12884,0.34694 0,1.78859 -3.7121,4.85157 -6.48657,5.35229 -1.44959,0.26159 -2.97469,0.74328 -3.38917,1.07039 -2.31538,1.82743 -32.86131,3.73393 -38.77584,2.42016 -2.27263,-0.50483 -2.41176,-0.42241 -3.56201,2.10997 -0.65836,1.44941 -1.38362,5.05517 -1.6117,8.01278 -0.41008,5.31773 0.0595,7.56696 3.07444,14.72837 0.84598,2.0094 3.45071,11.64724 3.45071,12.76804 0,0.53435 0.38007,1.09914 0.84465,1.25511 0.65778,0.22091 0.6292,0.68799 -0.12922,2.11145 -0.85566,1.60609 -0.84664,2.04988 0.0743,3.65809 0.57652,1.00662 1.59708,3.95873 2.26791,6.56025 0.67085,2.60149 1.43252,5.03407 1.69259,5.40571 0.26006,0.37165 0.63724,1.96979 0.83818,3.55142 0.45935,3.61556 -0.83859,5.34689 -4.57498,6.10261 l -2.70286,0.54666 0.0179,5.37326 c 0.0204,6.0179 1.58172,19.87431 2.35504,20.91473 0.27623,0.37165 1.20452,5.08477 2.06283,10.47363 0.85831,5.38883 1.74121,9.94992 1.96197,10.13574 0.22066,0.18593 1.10803,4.89892 1.97168,10.4736 0.86367,5.57465 1.82606,10.74388 2.13865,11.48716 0.31262,0.74331 1.22566,6.36863 2.02899,12.50077 0.80333,6.13212 1.6933,11.45338 1.97771,11.82502 0.2844,0.37167 0.72931,2.19609 0.98868,4.0543 0.957,6.85604 0.0639,6.00608 11.96392,11.38549 1.78801,0.80828 4.41315,1.11528 9.53681,1.11528 6.65998,0 7.16864,0.0988 8.77702,1.70733 2.86907,2.86906 2.82348,4.30537 -0.22882,7.20896 -1.48642,1.41398 -3.22189,2.58954 -3.85663,2.61232 -0.63472,0.023 -5.92117,0.41097 -11.74763,0.86263 -8.24937,0.63946 -11.61373,0.6421 -15.20363,0.0128 -2.5355,-0.4451 -5.90232,-0.83326 -7.4818,-0.86263 -2.72814,-0.0506 -2.87179,0.0442 -2.87179,1.89859 0,2.17568 -0.36202,2.30419 -8.86912,3.14874 -4.18342,0.41531 -4.5506,0.34017 -5.60007,-1.14563 -3.26941,-4.62882 -5.1033,-7.79536 -5.11428,-8.83073 -0.008,-0.63755 -0.87576,-2.0425 -1.9311,-3.12208 -1.7477,-1.7879 -2.02381,-2.76892 -3.09692,-11.00368 -0.64798,-4.97245 -1.43113,-9.64895 -1.74035,-10.39223 -0.3092,-0.74331 -1.07131,-5.45641 -1.69356,-10.47363 -0.62226,-5.01719 -1.52835,-10.03438 -2.01354,-11.1493 -1.05205,-2.41752 -3.72816,-16.02548 -3.72742,-18.95384 3e-4,-1.13352 -0.26083,-2.34981 -0.5803,-2.70288 -0.7063,-0.78057 -1.82539,-9.10809 -2.81048,-20.91341 -0.40315,-4.83137 -0.92297,-9.24043 -1.15514,-9.79789 -0.23215,-0.55747 -0.78226,-3.68256 -1.22235,-6.94461 -1.96744,-14.58309 -3.68582,-5.47906 -5.07325,26.87824 -0.39838,9.2911 -0.98707,17.50106 -1.3082,18.24434 -0.52544,1.21614 -1.03844,10.33232 -2.66976,47.44211 -0.32352,7.35926 -0.80996,11.9891 -1.32485,12.60951 -0.55356,0.66698 -0.58717,1.12037 -0.10522,1.41828 0.90402,0.55866 0.93324,5.08814 0.0329,5.08814 -0.37164,0 -0.67571,0.7404 -0.67571,1.64529 0,0.90492 -0.28059,2.38329 -0.6235,3.28527 -0.57897,1.52278 -1.16026,1.69923 -8.13541,2.46951 -7.77588,0.85867 -9.48543,0.54523 -9.48543,-1.73922 0,-0.54843 -0.7112,-0.93085 -1.73112,-0.93085 -1.82366,0 -8.77657,3.01612 -9.44456,4.097 -0.2153,0.34817 -1.26019,0.63304 -2.3222,0.63304 -1.06204,0 -2.03234,0.26614 -2.1562,0.59145 -0.24824,0.65155 -15.12941,2.1114 -21.52307,2.1114 -3.1406,0 -4.34281,-0.30125 -5.39297,-1.35144 z m 59.40401,-18.0754 c 2.05657,-1.17053 2.07812,-1.24076 2.12751,-6.9261 0.0273,-3.15898 0.15273,-6.65581 0.27817,-7.77074 0.12565,-1.11492 0.4215,-6.8923 0.6576,-12.8386 0.23598,-5.94632 0.71399,-14.91644 1.06199,-19.93363 0.34799,-5.0172 0.69854,-10.94661 0.77901,-13.17649 0.0804,-2.22985 0.35144,-4.35836 0.60223,-4.73 0.25079,-0.37164 0.64992,-5.99699 0.88697,-12.50075 0.237,-6.50378 0.62284,-15.80364 0.85729,-20.66637 l 0.42627,-8.84131 -2.05512,-1.46335 c -1.76004,-1.25327 -2.97487,-1.46335 -8.46177,-1.46335 -4.36886,0 -7.0223,0.32107 -8.34212,1.0094 -1.06452,0.55519 -2.40794,1.01129 -2.98542,1.01358 -1.58753,0.005 -5.30491,4.18054 -6.05637,6.80068 -0.36544,1.27421 -0.66442,6.00639 -0.66442,10.51599 0,6.46387 -0.21453,8.37726 -1.01356,9.04043 -1.16981,0.97084 -1.47298,9.46004 -0.33788,9.46004 0.38119,0 0.67573,1.91452 0.67573,4.39215 0,3.53096 -0.20686,4.39215 -1.05537,4.39215 -0.92624,0 -1.02957,1.5296 -0.84464,12.50159 0.19103,11.33837 -0.13306,14.35577 -1.23422,11.48635 -0.21402,-0.55747 -0.66049,-1.01359 -0.99237,-1.01359 -0.82858,0 -0.76839,17.13337 0.0631,17.96489 0.36661,0.36659 0.74671,5.36858 0.84465,11.11552 l 0.17801,10.44901 4.0543,0.55978 c 2.22987,0.30787 4.51042,0.82213 5.06788,1.14277 0.55746,0.32064 3.80159,0.60085 7.20919,0.62271 4.71374,0.0301 6.69254,-0.24313 8.27325,-1.14276 z m 41.95344,-5.30665 c 3.15898,-0.59646 7.03259,-1.66095 8.608,-2.36551 1.57545,-0.7046 3.16282,-1.28109 3.52751,-1.28109 0.36467,0 2.34445,-0.7691 4.39951,-1.70908 3.48547,-1.59429 3.73647,-1.86664 3.73647,-4.0543 0,-1.28987 -0.26954,-2.34521 -0.59899,-2.34521 -0.32945,0 -0.80003,-1.44435 -1.04577,-3.20965 -1.21634,-8.73844 -2.53624,-16.18552 -3.0839,-17.39969 -0.81964,-1.81722 -3.37994,-14.91052 -3.37994,-17.28498 0,-1.04124 -0.26402,-2.05636 -0.58673,-2.25579 -0.32268,-0.19946 -0.78856,-2.2699 -1.03524,-4.60099 -0.931,-8.79751 -2.62226,-19.8054 -3.14448,-20.46643 -0.65313,-0.82669 -2.66644,-14.83661 -2.66644,-18.55466 0,-1.45186 -0.30406,-2.82766 -0.67571,-3.05736 -0.37164,-0.2296 -0.6757,-1.55861 -0.6757,-2.95319 0,-2.83773 -1.95337,-5.49326 -4.04077,-5.49326 -0.70686,0 -1.47313,-0.30407 -1.70283,-0.67571 -0.52939,-0.85657 -3.37136,-0.87511 -4.90811,-0.0322 -0.64534,0.35405 -3.24518,0.83643 -5.77741,1.07197 -3.80332,0.35377 -5.00342,0.77889 -6.90017,2.44425 -1.26285,1.1088 -2.76387,2.95368 -3.33558,4.09973 -1.12535,2.2558 -1.39105,6.61795 -0.46619,7.65347 0.31536,0.35308 1.1149,3.68266 1.77677,7.3991 0.66189,3.71644 1.60072,7.66938 2.08632,8.7843 1.25128,2.873 2.3187,7.14083 2.28154,9.12219 l -0.0317,1.68929 -1.06055,-1.52038 c -0.58331,-0.83619 -1.31993,-1.52035 -1.63694,-1.52035 -0.61973,0 -0.0523,3.95096 0.72763,5.06788 0.25955,0.37164 0.99862,3.10829 1.64235,6.08145 0.64374,2.97313 1.7569,6.6553 2.4737,8.18261 1.76785,3.76673 1.74857,5.90195 -0.0483,5.3317 -1.57151,-0.49878 -1.67683,0.0278 -0.47311,2.365 0.47852,0.92913 1.44384,4.27391 2.14519,7.43289 0.70133,3.15898 1.82833,6.80335 2.50442,8.09858 1.51977,2.91151 1.63235,6.09149 0.21581,6.09149 -1.03032,0 -1.44487,2.72203 -0.5507,3.6162 0.25462,0.25462 1.15806,3.83643 2.00774,7.95965 1.40755,6.8305 2.36281,9.37045 3.52465,9.37188 0.23317,2.8e-4 3.00866,-0.48749 6.16764,-1.08395 z M 423.23352,-673.7972 c 0.77283,-0.70002 1.23925,-1.54124 1.03645,-1.86937 -0.20278,-0.32812 -0.42367,-9.78974 -0.49086,-21.02583 l -0.12208,-20.42924 -2.70285,-0.21938 c -1.48657,-0.12054 -2.94602,-0.6527 -3.24324,-1.1825 -0.42032,-0.74929 -2.31923,-0.96328 -8.54863,-0.96328 h -8.00828 l -1.29553,2.19609 c -1.27393,2.15939 -2.89226,7.52557 -2.89226,9.59031 0,0.84754 0.88728,1.05425 4.5611,1.06257 6.41804,0.0153 6.95962,0.53778 4.16122,4.01998 -1.4101,1.7547 -2.37887,2.48644 -2.55687,1.9313 -0.15758,-0.49155 -0.60903,-1.10326 -1.00309,-1.35928 -0.47056,-0.30576 -0.31932,-0.90436 0.44067,-1.74413 1.5925,-1.75973 0.88692,-2.1825 -3.64248,-2.1825 -3.52876,0 -4.02728,0.1849 -5.29312,1.96253 -0.76859,1.0794 -1.39743,2.59976 -1.39743,3.37859 0,1.30501 0.41059,1.42584 5.2368,1.54104 4.05422,0.0968 4.45268,0.18056 1.76443,0.37057 -4.10453,0.29028 -5.09792,1.22025 -6.32762,5.92375 -0.48582,1.85821 -1.10537,3.68265 -1.37677,4.0543 -0.27141,0.37164 -0.86151,2.89 -1.3113,5.59636 -0.64199,3.8627 -0.64085,5.13393 0.005,5.91253 0.66616,0.80269 0.61406,0.99185 -0.27314,0.99185 -0.60297,0 -1.09633,0.4561 -1.09633,1.01357 0,0.72315 0.7358,1.01358 2.56773,1.01358 1.41225,0 2.8566,0.28583 3.20965,0.63518 0.90502,0.8955 5.85269,1.21889 17.29626,1.13053 8.68005,-0.0672 10.06996,-0.23291 11.30231,-1.34924 z m -26.94306,-1.75513 c -3.59692,-0.29771 -0.58704,-0.50754 10.37001,-0.72291 15.13787,-0.29752 20.01462,0.0963 11.81107,0.95368 -4.70589,0.49185 -14.70789,0.38781 -22.18108,-0.23087 z m 40.59699,0.97055 c 20.40741,-0.85249 26.89201,-1.60417 30.86002,-3.57723 1.24098,-0.61709 2.19606,-1.61291 2.19606,-2.28976 0,-0.94783 -0.5993,-1.21221 -2.8718,-1.26694 -2.87008,-0.0692 -2.87047,-0.0695 -0.64141,-0.59738 1.22671,-0.29053 2.3434,-0.64128 2.48159,-0.77944 0.36276,-0.36276 -1.67078,-8.88266 -2.31405,-9.69513 -0.29781,-0.37616 -0.99671,-2.26254 -1.55307,-4.19197 -0.85124,-2.95199 -0.86447,-3.56449 -0.0835,-3.86416 1.5132,-0.58068 1.07858,-2.4179 -0.59235,-2.50407 -1.14409,-0.059 -1.22771,-0.15476 -0.33786,-0.3874 1.49449,-0.39054 1.52925,-2.76108 0.0641,-4.37994 -1.1999,-1.32588 -5.26781,-1.70702 -5.97672,-0.55999 -0.22959,0.37164 -1.41324,0.67571 -2.63012,0.67571 -3.11181,0 -3.40553,0.63477 -1.30721,2.82495 1.36473,1.42446 2.51775,1.92926 4.57054,2.00095 l 2.74538,0.096 -2.70285,0.44251 c -1.4866,0.24338 -3.23501,0.1895 -3.88539,-0.11978 -0.6731,-0.32 -1.1825,-0.29648 -1.1825,0.0547 0,1.02156 1.56799,1.99635 3.71645,2.31051 1.96309,0.28703 1.95247,0.29959 -0.33607,0.39764 -2.03841,0.0873 -2.80453,-0.37882 -5.57465,-3.39195 -1.7663,-1.92129 -3.21144,-3.82353 -3.21144,-4.22725 0,-1.22078 3.43935,-2.35088 8.61536,-2.83085 4.41869,-0.40972 4.89895,-0.59644 4.89895,-1.90457 0,-2.28537 -2.02245,-9.48092 -2.73486,-9.73018 -0.35404,-0.12387 -0.64371,-0.63807 -0.64371,-1.14264 0,-1.36291 -1.27717,-1.89996 -2.36712,-0.99538 -0.52608,0.43659 -3.78154,0.95186 -7.23437,1.14501 -7.20703,0.40316 -9.4379,1.20304 -9.99385,3.58324 -0.36582,1.56614 -0.72242,1.7038 -4.89152,1.88829 -3.71182,0.16422 -4.56763,0.42165 -4.90175,1.47441 -0.2227,0.70148 -0.4669,9.18662 -0.54278,18.85587 -0.1019,12.99097 0.0751,17.79353 0.6779,18.39668 0.63756,0.63783 3.26078,0.62238 12.00185,-0.0705 6.15227,-0.48774 11.34003,-0.73276 11.52833,-0.54449 0.49387,0.4939 -14.10569,1.89427 -19.74861,1.89427 h -4.78338 l -0.42627,-9.29109 c -0.23445,-5.1101 -0.3624,-13.61654 -0.28432,-18.9032 0.0781,-5.28662 -0.048,-9.80215 -0.28047,-10.03448 -1.28898,-1.28895 -1.72211,1.77225 -2.13204,15.0681 -0.51374,16.66266 0.17596,25.49087 2.1017,26.89895 0.71235,0.52087 1.35951,0.61644 1.59493,0.23547 0.21784,-0.35256 3.86868,-0.78606 8.11286,-0.96335 z m 17.69641,-5.50587 c 0.65744,-0.17137 1.56967,-0.16013 2.02715,0.0255 0.45747,0.18516 -0.0805,0.32529 -1.19538,0.3115 -1.11492,-0.0128 -1.48922,-0.16523 -0.83177,-0.33652 z m 7.08216,-0.65497 c 0.46455,-0.18746 1.22472,-0.18746 1.68929,0 0.46456,0.18745 0.0845,0.34081 -0.84464,0.34081 -0.92913,0 -1.3092,-0.15349 -0.84465,-0.34081 z m -4.74129,-25.31356 c 0.45837,-0.46179 1.0036,-0.66942 1.21166,-0.46136 0.20814,0.20814 -0.16702,0.58586 -0.83338,0.83962 -0.96305,0.36671 -1.04066,0.2891 -0.37828,-0.37826 z m -27.19659,-1.3 c -0.2416,-0.76114 -0.0605,-1.84006 0.40211,-2.39762 1.10302,-1.32907 3.5854,-0.94249 3.8803,0.60427 0.53008,2.78053 -3.44126,4.44359 -4.28241,1.79335 z m 3.41664,-0.68825 c 0.6219,-1.00626 -0.0991,-1.55333 -1.39289,-1.05688 -0.59705,0.22909 -0.89629,0.72278 -0.66498,1.09705 0.54771,0.88625 1.49678,0.86771 2.05787,-0.0401 z m 18.89226,2.0721 c -0.22959,-0.37165 -0.72168,-0.67571 -1.09332,-0.67571 -0.37164,0 -0.48779,0.30406 -0.25809,0.67571 0.22959,0.37164 0.72167,0.67573 1.09332,0.67573 0.37164,0 0.48779,-0.30409 0.25809,-0.67573 z m -15.24181,-13.13044 c 0.56691,-0.68309 0.65896,-3.0756 0.32274,-8.38929 l -0.4704,-7.43363 -9.37065,-0.0616 -9.37068,-0.0616 0.44361,7.95005 c 0.2439,4.37254 0.71034,8.1254 1.03632,8.33967 0.326,0.21427 4.19795,0.43966 8.60435,0.50082 6.18539,0.0858 8.19242,-0.1065 8.80471,-0.84439 z m -14.7461,-1.5664 c -1.20712,-1.00544 -1.44596,-2.04245 -1.59521,-6.9261 l -0.17545,-5.74356 6.6976,-0.19461 c 3.68365,-0.10701 6.92535,0.0449 7.20378,0.33788 0.2784,0.29291 0.59651,2.35698 0.70691,4.58686 0.11033,2.22985 0.47878,4.43439 0.81863,4.89895 0.39577,0.54104 0.34526,0.84464 -0.14047,0.84464 -0.41715,0 -0.75845,0.57562 -0.75845,1.27914 0,1.70577 -1.26339,2.09943 -6.73757,2.09943 -3.38954,0 -4.97347,-0.31114 -6.01959,-1.1825 z m 9.37857,-21.79185 c 0,-0.37164 -0.62609,-0.6757 -1.39131,-0.6757 -0.76522,0 -1.20339,0.30406 -0.97369,0.6757 0.22959,0.37165 0.85578,0.67571 1.3913,0.67571 0.53555,0 0.9737,-0.30406 0.9737,-0.67571 z m 54.56411,-0.81183 c 3.87861,-0.82508 4.73562,-1.89102 1.52035,-1.89102 -1.27661,0 -2.02715,-0.34649 -2.02715,-0.93587 0,-1.51579 2.85808,-2.95424 7.49367,-3.77149 10.97738,-1.93526 12.10211,-2.23656 12.10211,-3.24208 0,-0.78351 -0.56354,-0.92047 -2.53394,-0.61579 -1.39366,0.21554 -4.13033,0.59761 -6.08145,0.84914 -1.95114,0.25156 -3.5475,0.68242 -3.5475,0.95755 0,0.27516 -1.10164,0.67903 -2.44811,0.89754 -1.97367,0.32029 -2.89613,0.0554 -4.75978,-1.36592 -2.27421,-1.73463 -2.38778,-1.74959 -7.00973,-0.92361 -2.58393,0.46177 -4.84734,1.08113 -5.02981,1.37636 -0.18235,0.29523 -1.74267,0.74837 -3.46716,1.00698 -1.72449,0.25858 -3.55266,0.63027 -4.0626,0.82595 -1.94951,0.74811 -0.65849,7.23826 1.56837,7.88457 1.81702,0.52735 14.2103,-0.18592 18.28273,-1.05231 z m 13.29051,-1.80225 c 0.19946,-0.32281 2.42198,-0.78989 4.93884,-1.038 4.95592,-0.48851 8.19905,-1.72439 4.57605,-1.74382 -3.06686,-0.0153 -13.17645,2.12072 -13.17645,2.78552 0,0.76198 3.19034,0.75876 3.66156,-0.003 z m 4.44703,-4.29996 c 2.0152,-0.92392 2.13439,-1.09247 0.80588,-1.13944 -2.47443,-0.0876 -11.21448,1.42819 -11.92142,2.06735 -0.35305,0.31923 -1.32335,0.5804 -2.1562,0.5804 -1.44374,0 -2.56042,0.8355 -1.94254,1.45339 0.53085,0.53087 12.81038,-1.85954 15.21428,-2.9617 z m -13.67408,-3.19156 c 1.30762,-0.71949 11.30716,-2.733 13.57257,-2.733 1.11543,0 1.45295,-0.40944 1.45295,-1.76254 0,-1.48968 -0.23546,-1.70385 -1.52038,-1.38339 -0.83619,0.2084 -3.8009,0.7429 -6.58821,1.18748 -2.78734,0.44458 -5.37195,1.03198 -5.74359,1.30535 -0.37165,0.27339 -1.66397,0.70834 -2.8718,0.96662 -2.51009,0.53672 -2.6683,0.86832 -1.01359,2.12442 1.44379,1.09598 1.28731,1.07897 2.71205,0.29506 z m 26.2208,-4.4297 c 0.75278,-4.01257 -1.45863,-5.40173 -5.36,-3.36702 -1.06451,0.55519 -2.33888,1.00943 -2.83193,1.00943 -1.35481,0 -1.79847,1.16643 -1.00649,2.64626 0.5612,1.0486 1.18212,1.24578 2.996,0.95145 1.25845,-0.20431 2.8544,-0.0421 3.54656,0.35994 1.91919,1.11518 2.17545,0.9608 2.65586,-1.60006 z m -41.26466,0.35719 c 0.37165,-0.27133 2.57616,-0.90385 4.89895,-1.40559 2.54758,-0.55031 4.22321,-1.26088 4.22321,-1.79091 0,-0.48327 0.76019,-1.53964 1.6893,-2.34748 0.9291,-0.80785 1.68929,-1.71805 1.68929,-2.02268 0,-0.7331 -3.08579,-0.70986 -4.57026,0.0345 -1.97007,0.98774 -9.61978,2.602 -9.61978,2.02998 0,-0.29526 1.24543,-0.90998 2.76762,-1.36605 1.67729,-0.50253 2.97653,-1.37861 3.29786,-2.22377 0.85793,-2.25649 1.73757,-19.43923 1.32448,-25.87158 -0.46228,-7.19796 -3.09713,-13.6798 -5.58081,-13.72894 -0.8092,-0.0153 -5.05588,-0.19537 -9.43705,-0.39838 l -7.96576,-0.36929 0.19512,3.54988 c 0.19128,3.4823 0.15374,3.56081 -1.9678,4.12552 -1.18952,0.31661 -2.33811,0.85933 -2.55238,1.20602 -0.62307,1.00815 1.04285,6.65345 2.08098,7.05183 0.51972,0.19946 0.94494,0.76366 0.94494,1.25385 0,0.4902 1.47845,2.34749 3.28545,4.12732 2.54523,2.50695 3.91542,3.32056 6.08145,3.61107 1.5378,0.20635 2.82881,0.10701 2.86893,-0.22066 0.50573,-4.13099 1.76209,-9.32636 2.29735,-9.50023 1.71438,-0.55688 2.5886,2.86781 2.44551,9.58019 -0.12029,5.64742 -0.37721,7.07948 -1.56372,8.71972 -1.14159,1.57815 -1.26824,2.20508 -0.6466,3.20048 0.95324,1.52641 1.00537,3.28341 0.0973,3.28341 -1.01515,0 -0.81332,1.43084 0.38928,2.7597 0.98152,1.08456 0.87553,1.38659 -1.35141,3.85155 -3.31921,3.67397 -3.17004,4.39207 0.79319,3.81852 1.76532,-0.25546 3.51374,-0.68648 3.88538,-0.95781 z m -44.59727,-2.66774 c 0,-1.54582 -1.48588,-1.57363 -1.88814,-0.0352 -0.27937,1.06827 -0.0922,1.3647 0.7586,1.20087 0.62124,-0.11978 1.12954,-0.64414 1.12954,-1.16555 z m 133.41444,-1.10132 c 1.32273,-1.28304 1.63995,-2.25084 1.60027,-4.88206 -0.0485,-3.21228 -1.69454,-7.578 -2.85724,-7.578 -1.03819,0 -1.31656,1.79628 -0.6941,4.47909 0.33379,1.43878 0.61418,3.14807 0.62305,3.79845 0.0266,1.95548 -2.46277,3.88535 -5.01188,3.88535 -2.97393,0 -3.63393,1.03492 -1.22658,1.92331 2.55269,0.94203 5.59237,0.28874 7.56648,-1.62614 z m -162.80811,-0.29717 c 0,-0.37164 0.45612,-0.6757 1.01358,-0.6757 0.55747,0 1.01356,-0.30407 1.01356,-0.67574 0,-0.37164 -0.3413,-0.6757 -0.75845,-0.6757 -0.55269,0 -0.55705,-0.24262 -0.0153,-0.8945 1.0864,-1.30905 -0.36912,-2.48409 -3.07706,-2.48409 -1.96616,0 -2.22987,0.2135 -2.22987,1.80503 0,0.99275 0.50324,2.36107 1.11832,3.04071 1.20444,1.33091 2.93598,1.66115 2.93598,0.55999 z m -3.22861,-2.13921 c 0.34904,-1.04712 2.47245,-1.22326 2.72184,-0.22576 0.093,0.37164 -0.54911,0.77732 -1.42671,0.90149 -1.09393,0.15477 -1.50115,-0.0577 -1.29513,-0.6757 z m 93.36651,2.25286 c 0.19103,-0.30915 2.56556,-0.94256 5.27667,-1.40762 7.71716,-1.32379 9.99717,-2.03923 9.99717,-3.1371 0,-0.67824 -0.48961,-0.90122 -1.52036,-0.69238 -0.83619,0.16932 -3.32475,0.4885 -5.53016,0.70911 -2.20538,0.22065 -4.3339,0.6563 -4.73001,0.96818 -0.3961,0.3119 -1.93651,0.78598 -3.42307,1.05353 -2.95835,0.53241 -4.58462,1.53455 -4.00698,2.4692 0.46844,0.75797 3.47372,0.78627 3.93674,0.037 z m -81.35358,-2.21961 c 0,-0.42931 0.6003,-0.59753 1.39277,-0.39031 1.66646,0.4358 2.65653,-1.39442 1.23963,-2.29158 -1.31834,-0.83476 -1.60532,-0.78116 -3.34077,0.62412 -0.86898,0.70365 -1.32347,1.58231 -1.04855,2.02715 0.61809,1.00013 1.75692,1.01997 1.75692,0.0306 z m 128.06655,-1.10231 c -0.53711,-2.14003 -0.86362,-2.59097 -1.45089,-2.00368 -0.64005,0.64003 0.34503,3.86051 1.18084,3.86051 0.46548,0 0.56477,-0.68265 0.27005,-1.85683 z m 21.56062,1.19785 c 1.94877,-0.74093 2.32406,-3.00477 0.83558,-5.0404 -0.84761,-1.15916 -0.9796,-1.12356 -2.365,0.6377 -1.47993,1.8814 -2.00493,5.06168 -0.83559,5.06168 0.34746,0 1.41172,-0.29653 2.36501,-0.65898 z m -3.29406,-3.75554 c 1.00608,-2.05634 1.67923,-3.88881 1.49592,-4.07215 -0.49096,-0.49093 -5.25289,4.95827 -5.25289,6.01101 0,0.99877 0.62953,1.79996 1.41434,1.79996 0.28238,0 1.33658,-1.68246 2.34263,-3.73882 z m -33.4885,2.04952 c 0,-0.55746 -0.30406,-1.01356 -0.67571,-1.01356 -0.37164,0 -0.6757,0.4561 -0.6757,1.01356 0,0.55746 0.30406,1.01359 0.6757,1.01359 0.37165,0 0.67571,-0.45613 0.67571,-1.01359 z m -59.43246,-0.71256 c 0.72883,-0.87818 0.63161,-1.29058 -0.59296,-2.51517 l -1.46475,-1.46473 v 2.51517 c 0,2.69044 0.65407,3.15604 2.05771,1.46473 z m 4.02373,-0.93386 c 0,-0.67586 -0.4561,-1.60736 -1.01356,-2.07002 -0.86209,-0.71545 -1.01359,-0.54265 -1.01359,1.15609 0,1.0985 0.19435,2.1917 0.43212,2.42936 0.68769,0.68771 1.59503,-0.17443 1.59503,-1.51543 z m -8.7843,-1.39429 c 0,-2.21701 -0.72423,-2.58349 -2.02003,-1.02219 -1.01833,1.22704 -0.42956,3.04934 0.98524,3.04934 0.69928,0 1.03479,-0.65724 1.03479,-2.02715 z m 11.48716,-0.29799 c 0,-1.70888 -0.99346,-2.85504 -1.61,-1.85744 -0.49277,0.7973 0.29,3.50685 1.0131,3.50685 0.32831,0 0.5969,-0.74222 0.5969,-1.64941 z m 38.1695,0.54559 c 0.56213,-0.2158 1.02206,-0.85463 1.02206,-1.41984 0,-0.82232 -0.54592,-0.94034 -2.73238,-0.59071 -1.50281,0.24032 -3.25123,0.70401 -3.88538,1.03044 -0.63413,0.32644 -1.91317,0.93519 -2.84227,1.35277 -1.37829,0.61945 -0.85111,0.69116 2.86329,0.38939 2.50393,-0.20329 5.01254,-0.54632 5.57468,-0.76205 z m 10.83729,-0.2416 c 2.22033,-0.45556 4.34103,-1.04919 4.71267,-1.31916 0.37164,-0.26997 2.42412,-0.86697 4.56109,-1.32667 2.13694,-0.4597 3.88536,-1.10014 3.88536,-1.42318 0,-1.10481 -1.47924,-1.50278 -2.93623,-0.78997 -0.80075,0.39177 -4.17219,1.32792 -7.49206,2.08032 -4.04289,0.91629 -6.4974,1.8541 -7.43289,2.83998 -0.95071,1.00189 -1.06753,1.35938 -0.36582,1.11947 0.56701,-0.19384 2.84756,-0.7252 5.06788,-1.18079 z m 13.26048,0.33173 c 0,-0.35308 -0.32687,-0.7509 -0.7264,-0.88406 -0.39951,-0.13306 -0.7264,0.26464 -0.7264,0.88406 0,0.61942 0.32689,1.01723 0.7264,0.88405 0.39953,-0.13306 0.7264,-0.531 0.7264,-0.88405 z m -77.80873,-2.18072 v -2.51859 l -1.7726,1.7726 c -1.88717,1.88717 -1.69267,3.26456 0.46105,3.26456 1.06367,0 1.31155,-0.47599 1.31155,-2.51857 z m -53.0841,0.0738 c 0.57592,-2.29472 0.25411,-2.53915 -2.63099,-1.99791 -2.68976,0.5046 -2.72403,0.55795 -1.55826,2.42466 1.23838,1.98297 3.64601,1.73769 4.18925,-0.42675 z m 11.11391,0.023 c 1.08798,-1.38316 1.20359,-1.93362 0.55583,-2.64639 -0.49903,-0.54906 -1.06819,-0.65852 -1.45986,-0.28069 -0.35305,0.34056 -1.18924,0.61921 -1.85821,0.61921 -1.43526,0 -1.45257,0.0935 -0.43212,2.33321 0.98417,2.15997 1.47848,2.15604 3.19436,-0.0255 z m 11.56296,-0.59505 c 0,-0.73884 -4.26329,-5.08954 -4.96895,-5.07082 -0.42607,0.0102 -0.24262,0.33047 0.40786,0.70929 0.65037,0.37879 1.1825,1.02978 1.1825,1.4466 0,0.91692 2.01039,3.22929 2.80759,3.22929 0.31405,0 0.571,-0.14149 0.571,-0.31436 z m 42.13773,-1.37226 c 0.76351,-1.98963 -0.29546,-3.04342 -3.05836,-3.04342 -1.52904,0 -2.49957,-0.2765 -2.27064,-0.64692 0.5214,-0.84365 -3.15178,-2.73164 -5.31449,-2.73164 -3.67423,0 -2.53818,3.30818 1.1918,3.47061 1.59092,0.0692 1.73749,0.16447 0.59299,0.38484 -0.83622,0.16115 -1.52038,0.7191 -1.52038,1.24009 0,1.92929 9.67336,3.16555 10.37908,1.32644 z m -13.88003,-1.52661 c 0.27388,-1.91925 -1.6031,-1.39195 -2.12307,0.59644 -0.25933,0.99167 -0.0554,1.28761 0.77804,1.12886 0.62126,-0.11824 1.22653,-0.89472 1.34503,-1.7253 z m -28.70788,-2.02385 c -1.11505,-1.39351 -3.47663,-5.5744 -5.24798,-9.29082 -1.77133,-3.71644 -3.66205,-7.59064 -4.20158,-8.60934 -0.53954,-1.01867 -1.44338,-3.45125 -2.00853,-5.40571 -1.80374,-6.23775 -2.43138,-7.27003 -4.4202,-7.27003 -1.46938,0 -1.89399,0.38916 -2.26435,2.07547 -0.25079,1.14151 -0.35091,2.16486 -0.2227,2.27409 0.1282,0.1093 1.52554,1.00352 3.10502,1.9873 1.5795,0.98379 2.8698,2.01293 2.86735,2.28701 -0.003,0.27406 -0.64266,1.41051 -1.42272,2.52546 -0.7912,1.13089 -1.20416,1.42965 -0.93403,0.67571 0.93628,-2.61331 0.65045,-3.3814 -1.6931,-4.54944 -2.02534,-1.00948 -2.41527,-1.5923 -2.71507,-4.05826 l -0.35003,-2.87948 -1.50565,2.365 c -1.92609,3.02544 -1.89981,3.93089 0.12897,4.44006 0.90175,0.22628 2.17119,0.99896 2.82098,1.71696 1.1117,1.22842 1.11464,1.44542 0.0498,3.67859 -0.62241,1.30522 -1.13168,2.87101 -1.13168,3.47952 0,1.23555 1.88556,3.57779 2.88022,3.57779 0.354,0 2.2073,1.62121 4.1185,3.6027 1.91118,1.98148 4.08303,3.82102 4.82632,4.08785 0.74328,0.26686 -1.00514,-1.89322 -3.88536,-4.80013 -5.22291,-5.2713 -5.82769,-6.37882 -4.53022,-8.29615 0.51658,-0.76339 0.58604,-0.58155 0.28137,0.73669 -0.31975,1.38329 -0.0401,1.9891 1.3341,2.88947 2.16889,1.42111 11.64486,10.87931 13.83229,13.80632 0.89452,1.19701 1.78152,2.02128 1.97109,1.8317 0.1895,-0.1895 -0.56765,-1.48481 -1.68271,-2.87833 z m -23.1999,0.50704 c 0,-0.37164 -1.52036,-0.6757 -3.37859,-0.6757 -1.85821,0 -3.37857,0.30406 -3.37857,0.6757 0,0.37167 1.52036,0.67574 3.37857,0.67574 1.85823,0 3.37859,-0.30407 3.37859,-0.67574 z m 50.00301,-3.16986 c 0,-1.34326 -1.21161,-1.05685 -2.03463,0.48098 -1.01246,1.89179 -0.0672,3.27791 1.1242,1.64853 0.50074,-0.6848 0.91043,-1.64307 0.91043,-2.12951 z m -7.80057,-8.98169 c 1.86536,-0.70919 1.87164,-0.73297 1.38985,-5.26083 -0.26619,-2.50161 -0.62302,-4.77644 -0.79295,-5.05517 -0.58709,-0.96297 -1.61639,-0.50138 -2.26025,1.01356 -0.35537,0.83622 -2.15502,3.64887 -3.99918,6.25039 -3.33032,4.69798 -7.48412,12.45365 -7.48412,13.97386 0,0.43656 2.53639,-1.68194 5.63643,-4.70782 3.10001,-3.02584 6.47963,-5.82215 7.51022,-6.21399 z m 25.92297,10.00841 c -0.27325,-1.85693 -1.90521,-2.48108 -1.90521,-0.72863 0,1.40242 0.54608,2.19607 1.51104,2.19607 0.33555,0 0.51292,-0.66034 0.39417,-1.46744 z m -3.93235,-0.94583 c 0,-1.57598 -0.0983,-1.63929 -1.05668,-0.6809 -0.58116,0.58117 -0.86727,1.36306 -0.63584,1.73757 0.78039,1.26264 1.69252,0.6932 1.69252,-1.05667 z m -51.75621,-0.18618 c 0.1946,-0.31477 -0.54771,-1.4359 -1.64943,-2.49142 l -2.00312,-1.9191 v 2.04094 c 0,1.12254 0.20278,2.24367 0.45048,2.49142 0.64003,0.64003 2.78157,0.55854 3.20207,-0.12182 z m 48.13326,-1.11697 c 0.21402,-0.55746 0.19307,-1.52365 -0.046,-2.14711 -0.39871,-1.03907 -0.52508,-1.04344 -1.51612,-0.0524 -1.11446,1.11441 -0.81722,3.21307 0.45506,3.21307 0.39498,0 0.89317,-0.45612 1.10708,-1.01359 z m -4.48565,-0.31408 c 0,-0.35856 -0.57618,-0.96029 -1.28037,-1.33716 -0.70421,-0.37688 -1.60854,-1.62668 -2.00965,-2.77733 -0.40114,-1.15066 -1.04127,-1.8993 -1.42252,-1.66368 -1.0757,0.66483 -0.81737,3.82148 0.4251,5.1944 1.16741,1.28997 4.28744,1.71479 4.28744,0.58377 z m -7.74296,-2.09587 c 0.72725,-1.17673 -0.10113,-1.42594 -1.02781,-0.30925 -0.53297,0.6422 -0.58423,1.0299 -0.13612,1.0299 0.39521,0 0.91902,-0.32429 1.16399,-0.72065 z m 8.39246,-1.25754 c 0.69581,-1.30013 0.31868,-3.42752 -0.60762,-3.42752 -0.83154,0 -2.25495,3.20679 -1.77099,3.98986 0.68646,1.11074 1.59863,0.89512 2.37861,-0.56234 z m -34.64413,-1.56931 c 0.30067,-0.46455 0.8588,-2.8211 1.24027,-5.2368 l 0.69361,-4.39215 -2.72076,-3.56464 -2.72076,-3.56467 -1.58101,1.81464 c -1.22099,1.4014 -1.50804,2.36702 -1.26052,4.24035 0.58114,4.39851 3.84942,11.45909 5.33558,11.52669 0.25682,0.0128 0.71292,-0.35887 1.01359,-0.82342 z m -18.71124,-1.56025 c 0,-1.11497 -1.06794,-1.30335 -1.6893,-0.29796 -0.55105,0.89161 0.25692,2.15694 1.06027,1.66044 0.34595,-0.21376 0.62903,-0.82693 0.62903,-1.36248 z m -7.1239,0.42443 c 0.21376,-0.34595 0.0797,-0.82 -0.29796,-1.05345 -0.37772,-0.23343 -0.68674,0.0495 -0.68674,0.62902 0,1.18692 0.40546,1.36168 0.9847,0.42443 z m 51.58602,-0.18183 c 0.92637,-0.92635 1.09774,-3.24344 0.23981,-3.24344 -1.01297,0 -2.95426,2.5946 -2.49604,3.33601 0.57856,0.93611 1.25529,0.90835 2.25618,-0.0924 z m 5.82616,-2.26094 c 0.52077,-2.07488 -0.17928,-3.58783 -1.03511,-2.23713 -0.76592,1.20876 -0.76533,3.95751 6.6e-4,3.95751 0.33137,0 0.79679,-0.77416 1.03425,-1.72038 z m -6.70819,-4.36692 c -0.63189,-1.02242 -1.6857,-0.11875 -1.6857,1.44543 0,1.23337 0.0983,1.26154 1.05667,0.30315 0.58117,-0.58117 0.86421,-1.36802 0.62903,-1.74858 z m -9.30333,-2.65234 c 1.69432,-3.28522 1.88783,-4.07873 1.0711,-4.39217 -1.68531,-0.6467 -1.99495,-0.4677 -3.86904,2.23664 -1.34531,1.94126 -1.69992,3.07802 -1.37009,4.39215 0.69581,2.77235 1.92484,2.11286 4.16803,-2.23662 z m 14.25307,1.36501 c 0.17851,-1.8197 0.003,-2.16174 -1.00583,-1.96734 -1.31405,0.25309 -1.9348,2.0248 -1.29423,3.69405 0.65127,1.69718 2.0685,0.63323 2.30006,-1.72671 z m -5.78979,-1.72827 c 0.76486,-1.05187 0.93367,-1.782 0.47719,-2.0641 -0.98866,-0.61102 -2.67425,0.94294 -2.67425,2.46542 0,1.70584 0.76665,1.56579 2.19706,-0.40132 z M 417.21,-800.4034 c 1.35716,-1.39365 3.74303,-3.42846 5.30192,-4.52178 1.55889,-1.0933 2.83433,-2.20942 2.83433,-2.48024 0,-0.27084 -0.93689,-0.69818 -2.08203,-0.94969 -1.59475,-0.35026 -3.0971,0.0424 -6.4193,1.67793 -2.38549,1.17438 -4.33558,2.49628 -4.33349,2.93754 0.008,1.39805 1.39394,5.87019 1.82108,5.87019 0.2255,0 1.5203,-1.14029 2.87749,-2.53395 z m 32.46204,1.56025 c 0,-0.53552 -0.30407,-1.16164 -0.67571,-1.39131 -0.37164,-0.22959 -0.67571,0.2084 -0.67571,0.9737 0,0.76522 0.30407,1.39131 0.67571,1.39131 0.37164,0 0.67571,-0.43817 0.67571,-0.9737 z m 7.93204,-1.53736 c 0.3199,-0.95973 -1.78074,-5.59754 -2.53537,-5.59754 -0.86707,0 -0.86089,1.15163 0.0102,1.6893 0.90739,0.56078 0.8664,3.71641 -0.0483,3.71641 -0.71185,0 -2.65459,1.63723 -2.65459,2.23713 0,0.55611 5.01602,-1.40581 5.22916,-2.0453 z m -4.32332,-1.04306 c 0.98795,-0.72242 1.04863,-1.18268 0.40091,-3.04074 -0.65893,-1.89021 -1.07746,-2.18947 -3.06216,-2.18947 -2.04097,0 -2.29889,0.20252 -2.29889,1.80503 0,1.89062 1.68276,4.27641 3.0163,4.27641 0.42882,0 1.30356,-0.38305 1.94384,-0.85123 z m -66.22233,-0.9193 c 1.547,-0.22883 3.42086,-0.77401 4.16414,-1.21136 1.44867,-0.85236 6.28783,-2.07833 11.02746,-2.79367 2.54868,-0.3847 4.28219,-1.77654 3.36049,-2.69824 -0.47893,-0.47893 -8.07581,1.01109 -10.33362,2.02677 -1.11495,0.50158 -4.3077,1.25843 -7.09504,1.68191 -2.78734,0.42346 -5.48394,1.18358 -5.99247,1.68912 -1.11819,1.11163 -0.35215,2.64588 1.05203,2.10703 0.55235,-0.21197 2.27002,-0.57266 3.81701,-0.80156 z m 55.47516,-1.04827 c 1.36865,-2.74354 2.19494,-11.0058 1.16437,-11.64274 -0.4097,-0.25335 -1.43766,-0.008 -2.28435,0.54446 -0.84669,0.55264 -3.21185,1.89608 -5.25588,2.98542 -4.31428,2.29916 -4.98833,3.79661 -2.2442,4.98568 1.0485,0.45431 2.90921,1.82597 4.13495,3.04816 1.22571,1.22217 2.49576,2.22212 2.8223,2.22212 0.32654,0 1.0748,-0.9644 1.66281,-2.1431 z m 3.08415,0.71192 c 0,-0.37166 -0.30406,-0.48779 -0.67571,-0.25812 -0.37164,0.2296 -0.6757,0.7217 -0.6757,1.09335 0,0.37164 0.30406,0.48779 0.6757,0.25809 0.37165,-0.22959 0.67571,-0.72168 0.67571,-1.09332 z m 31.27875,-5.32598 c 0.33004,-1.26205 0.0102,-1.3542 -4.82013,-1.39312 -2.84544,-0.023 -9.43057,-0.17954 -14.63358,-0.34786 -6.43301,-0.20815 -9.13569,-0.0902 -8.44645,0.36919 0.55746,0.37146 3.1573,0.68005 5.77738,0.68572 2.62009,0.005 5.05438,0.30092 5.40952,0.65606 0.35515,0.35515 3.22863,0.74937 6.38551,0.87604 3.15689,0.12667 6.69257,0.29221 7.85707,0.36786 1.61536,0.10497 2.20104,-0.18286 2.47068,-1.21389 z m -75.87602,-2.02715 c 0,-0.37164 -0.43815,-0.67573 -0.9737,-0.67573 -0.53553,0 -1.16161,0.30409 -1.39131,0.67573 -0.22959,0.37164 0.2084,0.67571 0.9737,0.67571 0.76522,0 1.39131,-0.30407 1.39131,-0.67571 z m 53.3816,-1.64943 c 0,-1.27873 -1.15137,-1.95053 -2.47347,-1.44317 -0.85455,0.32792 -0.89728,0.59858 -0.22269,1.4113 1.06453,1.28269 2.69624,1.30197 2.69624,0.0319 z m 8.82632,-0.0398 c 0,-0.37164 -0.76964,-0.77191 -1.71029,-0.88952 -1.21892,-0.15246 -1.71032,0.10318 -1.71032,0.88952 0,0.78635 0.4914,1.04191 1.71032,0.88952 0.94065,-0.11748 1.71029,-0.51787 1.71029,-0.88952 z m -46.0139,-34.84272 c 4.79526,-0.77799 6.7817,-1.81347 5.29197,-2.75848 -0.48215,-0.30583 -1.79334,-0.56073 -2.91379,-0.56643 -1.12044,-0.005 -3.17182,-0.61847 -4.55864,-1.36178 -1.38681,-0.74329 -3.00889,-1.35142 -3.60458,-1.35142 -1.51721,0 -9.39134,4.95661 -8.39938,5.28726 0.44634,0.1489 1.14981,-0.0677 1.56326,-0.48122 1.23427,-1.2343 4.88344,-0.88276 6.22503,0.59967 1.42961,1.57971 0.8876,1.52613 6.39613,0.6324 z m -23.12012,-3.02549 c 1.20786,-0.552 2.19609,-1.29952 2.19609,-1.6612 0,-0.36166 0.98823,-1.07067 2.19609,-1.57555 1.20783,-0.50488 2.6195,-1.42852 3.13699,-2.05253 1.84521,-2.22495 0.27329,-1.69492 -3.62844,1.22349 -2.17974,1.63035 -5.02664,3.52434 -6.32644,4.20883 -1.2998,0.68447 -2.51246,1.69203 -2.69478,2.239 -0.26065,0.78197 0.0153,0.74093 1.29648,-0.19206 0.89536,-0.65257 2.61617,-1.63809 3.82401,-2.19008 z m 14.19004,-9.94461 c 0.58025,-0.45779 0.84465,-0.40306 0.84465,0.17468 0,0.65875 0.21274,0.6646 0.98113,0.0268 0.68472,-0.56827 3.54278,-0.74635 9.46106,-0.58952 5.1314,0.13587 8.39547,-0.0276 8.26596,-0.41416 -0.38262,-1.14223 -3.36155,-1.52278 -13.02894,-1.66439 -14.29095,-0.20942 -18.26679,0.59472 -15.68874,3.17277 0.9169,0.9169 7.77753,0.38804 9.16488,-0.70646 z m 37.61056,0.27293 c 0.19639,-0.31768 2.17782,-1.24152 4.40331,-2.05297 6.3673,-2.32164 8.93097,-6.82072 4.7795,-8.38773 -1.11493,-0.42083 -2.02715,-1.00256 -2.02715,-1.29273 0,-0.29017 -0.75896,-0.52758 -1.68661,-0.52758 -2.05198,0 -10.05093,-2.67934 -10.36105,-3.47056 -0.26727,-0.68194 -6.00493,-3.2866 -7.23984,-3.2866 -0.47926,0 -0.97434,-0.30889 -1.10019,-0.68643 -0.59314,-1.77947 -28.26388,-2.90829 -28.26388,-1.15303 0,0.96154 2.35501,3.1909 3.37072,3.1909 0.35882,0 1.1505,0.76017 1.7593,1.6893 0.60877,0.9291 1.38328,1.68927 1.72114,1.68927 0.63824,0 5.22574,3.04224 9.4298,6.25342 1.33583,1.02036 2.70418,1.86072 3.04073,1.86748 0.33658,0.008 1.86294,0.86051 3.39192,1.89721 1.52902,1.0367 4.4937,2.29602 6.58825,2.79847 2.09452,0.50248 3.80823,1.1691 3.80823,1.48139 0,0.7475 7.92351,0.73822 8.38582,-0.0102 z m 5.96695,-6.50904 c 1.71885,-2.65347 2.54015,-2.99628 2.54015,-1.06028 0,1.20758 -2.28581,3.4169 -3.53514,3.4169 -0.29237,0 0.15527,-1.06047 0.99499,-2.35662 z m -46.78716,2.35662 c 0,-0.40389 2.62887,-0.67571 6.53517,-0.67571 h 6.53515 l -3.18603,-2.11032 c -3.09575,-2.05055 -3.94872,-3.46859 -1.20227,-1.99873 1.6999,0.90977 2.12946,0.91744 2.12946,0.038 0,-0.38083 -0.68416,-0.97622 -1.52038,-1.32304 -1.75955,-0.72985 -4.76446,-3.07784 -12.98627,-10.14741 -3.24162,-2.78732 -6.62501,-5.46456 -7.51864,-5.94939 -0.89364,-0.48483 -1.62479,-1.13354 -1.62479,-1.44159 0,-0.9026 -3.58806,-1.32876 -4.96828,-0.5901 -1.88888,1.0109 -1.30675,7.5318 0.94565,10.59319 1.60433,2.18056 1.66488,2.20194 1.88378,0.66509 0.12437,-0.87336 0.46445,-1.83676 0.75572,-2.1409 0.7942,-0.82935 5.10476,1.20102 6.3627,2.99699 1.43335,2.04638 1.41123,3.0403 -0.0414,1.86196 -0.84365,-0.68434 -1.0059,-0.69892 -0.61909,-0.0557 0.4015,0.66768 0.0802,0.76034 -1.37218,0.39577 -1.87164,-0.46974 -1.88252,-0.45469 -0.83479,1.15543 0.58387,0.89726 1.4348,2.77 1.89095,4.16169 0.71139,2.17027 1.00805,2.43467 2.08518,1.85821 1.54793,-0.82843 2.02038,-0.846 2.02038,-0.0751 0,0.3283 -0.63873,0.76394 -1.41943,0.9681 -0.78488,0.20533 -1.21948,0.69468 -0.97216,1.09485 0.24594,0.39802 1.15563,0.54589 2.02143,0.32858 0.86579,-0.21733 1.7773,-0.0664 2.02561,0.33541 0.56812,0.91922 3.07455,0.96386 3.07455,0.0546 z m -11.7653,-13.34197 c -0.73815,-0.73815 -1.24431,0.43574 -0.71435,1.65673 0.50253,1.15776 0.53895,1.15668 0.81893,-0.023 0.16115,-0.67946 0.11416,-1.41429 -0.10471,-1.63298 z m 12.9478,141.26229 c -0.65037,-0.17009 -1.1825,-0.55532 -1.1825,-0.85637 0,-0.30106 -0.55542,-0.69262 -1.23424,-0.87014 -1.25164,-0.32731 -4.17147,-5.16455 -4.17147,-6.9108 0,-2.2242 1.70962,-1.64631 5.13385,1.7354 3.7381,3.69164 4.83101,5.56837 2.14866,3.68957 -2.75886,-1.93237 -2.92381,-1.02515 -0.24389,1.34125 2.48335,2.1928 2.38255,2.61143 -0.45046,1.87109 z m 41.75644,-4.43315 c 0.68587,-2.26757 3.82659,-7.93968 4.39631,-7.93968 1.53216,0 1.72781,4.89775 0.25462,6.37106 -1.59135,1.59135 -2.54515,1.27853 -1.34148,-0.43996 1.20848,-1.72533 1.33584,-2.55251 0.39307,-2.55251 -0.36237,0 -1.28218,1.36832 -2.04405,3.04074 -1.45845,3.20153 -2.43866,4.10016 -1.65834,1.52035 z m 96.80764,-23.94273 c 0.48779,-0.19511 1.07059,-0.17111 1.29513,0.0534 0.22449,0.22449 -0.17469,0.38426 -0.88686,0.35491 -0.78719,-0.0324 -0.94729,-0.19256 -0.40827,-0.40823 z m -103.08896,-10.14 c 0.65038,-0.17009 1.71463,-0.17009 2.36501,0 0.65037,0.17008 0.11824,0.30902 -1.18251,0.30902 -1.30074,0 -1.83287,-0.13919 -1.1825,-0.30902 z m -32.74759,-55.06789 c -0.63681,-0.64746 -0.92637,-1.32026 -0.64345,-1.49512 0.84633,-0.52304 2.28994,0.69636 2.03673,1.72037 -0.1895,0.76609 -0.46149,0.72211 -1.39328,-0.22525 z m 24.47006,-3.96923 c 0,-0.39358 0.30409,-0.52766 0.67573,-0.29799 0.37164,0.2296 0.67571,0.55172 0.67571,0.7156 0,0.16396 -0.30407,0.29799 -0.67571,0.29799 -0.37164,0 -0.67573,-0.32202 -0.67573,-0.7156 z m 0.7072,-2.28721 c -0.99265,-1.19606 -0.52904,-2.11518 1.30942,-2.59595 0.98961,-0.25879 1.36197,-0.0266 1.36197,0.84927 0,1.87057 -1.66506,2.95927 -2.67139,1.74668 z"
       id="path571"
       inkscape:connector-curvature="0" />
  </g>
</svg>
