<?xml version="1.0" encoding="UTF-8" standalone="no"?>
<!-- Created with Inkscape (http://www.inkscape.org/) -->

<svg
   xmlns:dc="http://purl.org/dc/elements/1.1/"
   xmlns:cc="http://creativecommons.org/ns#"
   xmlns:rdf="http://www.w3.org/1999/02/22-rdf-syntax-ns#"
   xmlns:svg="http://www.w3.org/2000/svg"
   xmlns="http://www.w3.org/2000/svg"
   xmlns:sodipodi="http://sodipodi.sourceforge.net/DTD/sodipodi-0.dtd"
   xmlns:inkscape="http://www.inkscape.org/namespaces/inkscape"
   width="113.9672mm"
   height="110.13305mm"
   viewBox="0 0 113.9672 110.13305"
   version="1.1"
   id="svg8"
   inkscape:version="0.92.3 (2405546, 2018-03-11)"
   sodipodi:docname="graveyard_votes.svg">
  <defs
     id="defs2" />
  <sodipodi:namedview
     id="base"
     pagecolor="#ffffff"
     bordercolor="#666666"
     borderopacity="1.0"
     inkscape:pageopacity="0.0"
     inkscape:pageshadow="2"
     inkscape:zoom="1.4"
     inkscape:cx="182.14522"
     inkscape:cy="137.33983"
     inkscape:document-units="mm"
     inkscape:current-layer="layer1"
     showgrid="false"
     fit-margin-top="0"
     fit-margin-left="0"
     fit-margin-right="0"
     fit-margin-bottom="0"
     inkscape:window-width="1920"
     inkscape:window-height="1017"
     inkscape:window-x="-8"
     inkscape:window-y="-8"
     inkscape:window-maximized="1" />
  <metadata
     id="metadata5">
    <rdf:RDF>
      <cc:Work
         rdf:about="">
        <dc:format>image/svg+xml</dc:format>
        <dc:type
           rdf:resource="http://purl.org/dc/dcmitype/StillImage" />
        <dc:title></dc:title>
      </cc:Work>
    </rdf:RDF>
  </metadata>
  <g
     inkscape:label="Layer 1"
     inkscape:groupmode="layer"
     id="layer1"
     transform="translate(-404.49577,770.12813)">
    <path
       style="fill:#000000;stroke-width:0.26458332"
       d="m 450.99418,-660.33016 c -0.3638,-0.20797 -0.91477,-0.38234 -1.22437,-0.3875 -1.3396,-0.0223 -1.3865,-0.45413 -1.43767,-13.23854 -0.016,-4.00182 -0.12568,-7.3951 -0.24369,-7.54062 -0.11801,-0.14552 -0.34714,-2.09932 -0.50919,-4.34176 -0.16204,-2.24245 -0.41474,-4.2219 -0.56155,-4.39879 -0.1468,-0.17689 -0.8302,-0.46902 -1.51866,-0.64917 -2.132,-0.55788 -4.67918,-1.39918 -4.94268,-1.63251 -0.13825,-0.12241 -0.4853,-0.22256 -0.77123,-0.22256 -0.28594,0 -1.42298,-0.34184 -2.52678,-0.75963 -1.10378,-0.41779 -2.89986,-1.02492 -3.99126,-1.34917 -1.09141,-0.32425 -2.2225,-0.73899 -2.51354,-0.92164 -0.57527,-0.36102 -5.69862,-1.83798 -7.40834,-2.13568 -1.93192,-0.33638 -4.92479,-1.19135 -5.50922,-1.57381 -0.31691,-0.20739 -1.06484,-0.45507 -1.66207,-0.55039 -1.03895,-0.16581 -1.09157,-0.14066 -1.21751,0.58194 -0.0724,0.41539 -0.15933,5.81325 -0.19319,11.99524 -0.0339,6.182 -0.10882,11.31645 -0.16657,11.40989 -0.0577,0.0934 -0.77811,0.48861 -1.60079,0.87813 -1.49266,0.70674 -1.49876,0.70729 -2.91225,0.2627 -0.77904,-0.24505 -1.53773,-0.59168 -1.68597,-0.77029 -0.16782,-0.20221 -0.35384,-5.19666 -0.49294,-13.23484 -0.20912,-12.08471 -0.25453,-12.93282 -0.71025,-13.26605 -0.26776,-0.19579 -0.74328,-0.35599 -1.05672,-0.35599 -1.0009,0 -1.38203,-0.7729 -1.58071,-3.2056 -0.18461,-2.26024 0.0486,-3.40898 0.69202,-3.40898 0.15056,0 0.77145,-0.33684 1.37975,-0.74853 0.6083,-0.41169 1.64179,-1.00857 2.29663,-1.32638 0.65484,-0.31782 2.02406,-1.14184 3.04271,-1.83115 l 1.85208,-1.25331 0.0507,-8.83484 c 0.0333,-5.79634 0.14699,-8.93116 0.33073,-9.1149 0.15403,-0.15403 0.28006,-1.12682 0.28006,-2.16176 0,-1.77569 0.0438,-1.91412 0.77832,-2.45713 0.42807,-0.31649 1.43819,-0.86727 2.2447,-1.22394 0.80651,-0.35668 2.33151,-1.22904 3.38887,-1.93857 1.05737,-0.70953 2.63511,-1.62664 3.50609,-2.03802 0.87099,-0.41137 2.47833,-1.3061 3.57188,-1.98827 1.09355,-0.68218 2.70264,-1.60133 3.57577,-2.04255 0.87312,-0.44122 2.18168,-1.17941 2.90791,-1.64041 0.72623,-0.461 1.36123,-0.71573 1.41111,-0.56608 0.0499,0.14965 0.2431,0.27209 0.42937,0.27209 0.45202,0 1.46932,-5.2708 1.46932,-7.61283 0,-0.59795 0.11906,-1.16077 0.26458,-1.25071 0.14552,-0.0899 0.26458,-0.39462 0.26458,-0.67707 0,-0.3714 0.18309,-0.51355 0.66146,-0.51355 0.40205,0 0.66146,-0.15076 0.66146,-0.38443 0,-0.77662 0.61489,-1.74058 1.03639,-1.62474 0.23035,0.0633 0.68049,0.19012 1.00031,0.28182 0.50345,0.14436 0.61982,0.0244 0.86709,-0.89387 0.15707,-0.58334 0.39134,-1.12596 0.52058,-1.20584 0.12925,-0.0799 0.59023,0.15368 1.0244,0.51902 l 0.78942,0.66425 0.54698,-0.92707 c 0.64115,-1.08666 0.78343,-1.11522 1.75362,-0.35207 0.67911,0.5342 0.81775,0.55067 1.95391,0.23215 2.21409,-0.6207 3.07073,-0.71727 5.66203,-0.63831 3.95466,0.12051 5.26294,0.60333 7.40651,2.73334 l 1.79145,1.78012 0.98668,-0.93278 c 1.57298,-1.48708 3.80341,-2.80564 5.63826,-3.33319 0.93413,-0.26857 2.59138,-0.76076 3.68279,-1.09376 1.0914,-0.333 2.32496,-0.67956 2.74124,-0.77014 0.45655,-0.0993 1.52017,-0.93797 2.68058,-2.11354 2.30493,-2.33505 3.60125,-3.19404 5.60965,-3.71716 1.42521,-0.37122 1.56755,-0.36264 2.64604,0.15944 1.70311,0.82447 2.66509,2.14025 2.86706,3.92152 0.23119,2.03905 0.29192,2.20477 1.38736,3.78563 0.82713,1.19366 0.96734,1.60704 0.9671,2.85127 -2.6e-4,1.40594 -0.32968,2.23499 -1.39151,3.50204 -0.2687,0.32062 -0.39663,1.19946 -0.42368,2.91041 -0.038,2.40649 -0.0613,2.49047 -1.27963,4.61482 -1.43107,2.49535 -1.76583,3.69828 -1.77483,6.37758 -0.01,2.91279 0.39325,3.64037 4.57287,8.2553 3.19198,3.52444 4.66095,6.83063 4.67485,10.52162 0.004,1.17976 0.10509,1.65365 0.3512,1.65365 0.51279,0 1.8949,-1.55468 2.58737,-2.91042 0.89664,-1.75544 1.01285,-5.4372 0.26841,-8.50283 -1.71404,-7.0584 0.7723,-12.36348 7.83049,-16.70781 2.51782,-1.54972 5.98452,-2.73254 7.07988,-2.41561 1.77253,0.51286 2.79097,1.47563 2.79097,2.63842 0,0.76912 -1.29607,3.25901 -1.85101,3.55601 -0.60662,0.32465 -2.48151,3.00812 -2.77329,3.96932 -0.11044,0.3638 -0.37574,0.86096 -0.58956,1.10479 -0.99887,1.13906 -0.96265,6.64141 0.0566,8.5956 0.21533,0.41286 0.39225,0.87421 0.39315,1.02522 7.9e-4,0.15101 0.41005,1.25765 0.90924,2.45919 0.49918,1.20155 0.99072,2.56303 1.09229,3.02551 0.10158,0.46248 0.50926,1.49897 0.90596,2.3033 1.23938,2.51291 1.64949,4.62762 1.54922,7.98847 -0.0784,2.6297 -0.17835,3.17814 -0.81135,4.45417 -2.98906,6.02541 -5.81672,9.7093 -9.84975,12.83229 -2.40515,1.86244 -3.6939,2.77813 -3.90996,2.77813 -0.12696,0 -1.32584,0.63121 -2.6642,1.40271 -2.51339,1.44883 -5.91066,2.74566 -9.55901,3.64892 -1.1542,0.28575 -2.22577,0.61884 -2.38125,0.74019 -0.15548,0.12134 -0.60006,0.29632 -0.98796,0.38884 -0.69582,0.16595 -0.70779,0.20717 -0.89393,3.07915 l -0.18867,2.91094 -1.03453,0.93465 c -0.95076,0.85894 -1.13377,0.92273 -2.25982,0.78756 -2.75795,-0.33107 -2.71399,-0.26171 -2.71938,-4.28937 -0.004,-3.14867 -0.29837,-4.04734 -1.32481,-4.04734 -0.83567,0 -5.0952,-1.33461 -6.38002,-1.99901 -2.12045,-1.09651 -4.32328,-3.01804 -5.59459,-4.88016 -0.44707,-0.65484 -0.83874,-1.22588 -0.87037,-1.26896 -0.0941,-0.12821 -3.36387,1.56001 -4.22236,2.18008 -0.43656,0.31531 -1.32953,0.88287 -1.98438,1.26123 -0.65484,0.37837 -2.01057,1.29453 -3.01272,2.03592 -1.00216,0.74139 -1.94698,1.34798 -2.09962,1.34798 -0.15263,0 -0.5331,0.24011 -0.84548,0.53358 -0.51174,0.48075 -0.5469,0.68767 -0.35511,2.09002 0.11707,0.85604 0.26671,6.24163 0.33253,11.96798 0.0658,5.72635 0.20028,11.25094 0.29879,12.27687 l 0.1791,1.86532 -1.44037,1.11124 c -1.60113,1.23526 -1.64815,1.24827 -2.58212,0.71436 z m 1.71979,-1.45521 c -0.12801,-0.20712 -0.28021,-0.22249 -0.4566,-0.0461 -0.14552,0.14552 -0.17817,0.40439 -0.0726,0.57527 0.12801,0.20713 0.28021,0.2225 0.4566,0.0461 0.14552,-0.14552 0.17817,-0.40439 0.0726,-0.57528 z m -1.71623,-0.99218 c 0.002,-0.83675 -0.11815,-4.31933 -0.26691,-7.73907 -0.14876,-3.41974 -0.34085,-8.07925 -0.42686,-10.35446 -0.15278,-4.04104 -0.17109,-4.14346 -0.79143,-4.4261 -0.61323,-0.27941 -0.63502,-0.25267 -0.63502,0.77879 0,0.58746 0.11395,1.86483 0.25322,2.83859 0.13927,0.97376 0.29466,5.77843 0.3453,10.67705 0.0945,9.1429 0.16597,9.74655 1.15366,9.74655 0.26691,0 0.36544,-0.40725 0.36804,-1.52135 z m 2.90686,0.30242 c 0,-0.39435 -1.26421,-1.66738 -1.67148,-1.68313 -0.34508,-0.0133 0.0946,1.12743 0.68201,1.76943 0.56389,0.6163 0.98947,0.57919 0.98947,-0.0863 z m -0.71633,-2.8821 c -0.78958,-0.98959 -1.13575,-1.15673 -1.13575,-0.54838 0,0.38778 1.20459,1.47441 1.63446,1.47441 0.1321,0 -0.0923,-0.41672 -0.49871,-0.92603 z m -0.4743,-2.24897 c -0.265,-0.29282 -0.54135,-0.47288 -0.61411,-0.40012 -0.0728,0.0728 0.0845,0.37188 0.34953,0.6647 0.26501,0.29283 0.54136,0.47288 0.61412,0.40012 0.0728,-0.0728 -0.0845,-0.37187 -0.34954,-0.6647 z m 0.59845,-0.99219 c -0.5695,-1.19922 -0.8553,-1.65364 -1.04003,-1.65364 -0.37775,0 -0.24046,0.86162 0.21801,1.36823 0.42983,0.47495 1.00725,0.67544 0.82202,0.28541 z m -0.25978,-2.70687 c -0.32596,-0.52194 -1.00012,-0.93512 -1.00012,-0.61295 0,0.2617 0.84804,1.13701 1.10158,1.13701 0.1242,0 0.0785,-0.23582 -0.10146,-0.52406 z m 0.32279,-1.2819 c 0,-0.26568 -0.29765,-0.76268 -0.66146,-1.10446 -0.56574,-0.53148 -0.66145,-0.55493 -0.66145,-0.16203 0,0.49329 0.79705,1.7275 1.12448,1.74122 0.10914,0.005 0.19843,-0.20906 0.19843,-0.47473 z m 0,-2.12178 c 0,-0.12297 -0.23812,-0.43908 -0.52916,-0.70247 -0.6006,-0.54353 -0.68519,-0.37494 -0.20094,0.40047 0.33628,0.53847 0.7301,0.70137 0.7301,0.302 z m -42.22399,-2.57784 c -0.0126,-1.00584 -0.046,-5.82493 -0.0741,-10.70909 l -0.0511,-8.8803 -1.18268,-0.9886 -1.18268,-0.9886 -0.026,7.61994 c -0.0452,13.2294 0.007,14.70238 0.53822,15.19957 0.47754,0.44689 1.26655,0.73445 1.73678,0.63297 0.14813,-0.032 0.25449,-0.86201 0.24164,-1.88589 z m 1.47816,1.4785 c 0,-0.14552 0.17859,-0.26459 0.39687,-0.26459 0.21828,0 0.39688,-0.11906 0.39688,-0.26458 0,-0.14552 -0.18233,-0.26458 -0.40518,-0.26458 -0.22285,0 -0.47345,-0.17791 -0.55689,-0.39536 -0.23501,-0.61243 -0.62543,-0.19072 -0.62543,0.67556 0,0.51528 0.13406,0.77813 0.39687,0.77813 0.21828,0 0.39688,-0.11906 0.39688,-0.26458 z m 40.74583,-0.91574 c 0,-0.39272 -0.99349,-1.46551 -1.35719,-1.46551 -0.73356,0 -0.24998,1.46236 0.55587,1.68098 0.72503,0.19669 0.80132,0.17617 0.80132,-0.21547 z m -39.42292,-0.81967 c 0,-0.22687 -0.11906,-0.3389 -0.26458,-0.24897 -0.14552,0.0899 -0.26458,0.27556 -0.26458,0.41249 0,0.13694 0.11906,0.24897 0.26458,0.24897 0.14552,0 0.26458,-0.18562 0.26458,-0.41249 z m -0.24415,-1.65327 c -0.16751,-0.0558 -0.65735,-0.39837 -1.08854,-0.76119 l -0.78397,-0.65967 v 0.66319 c 0,0.50377 0.2385,0.77972 0.99218,1.14799 0.84056,0.41072 1.00692,0.4257 1.08854,0.098 0.053,-0.21275 -0.0407,-0.43249 -0.20821,-0.48833 z m 39.13052,0.0725 c -0.17709,-0.21339 -0.42648,-0.38798 -0.55418,-0.38798 -0.39788,0 -0.25451,0.58666 0.23084,0.94453 0.55301,0.40776 0.78798,0.003 0.32334,-0.55655 z m -0.12491,-1.7109 c -0.26339,-0.29104 -0.65724,-0.52916 -0.87524,-0.52916 -0.28082,0 -0.2185,0.15425 0.21379,0.52916 0.33557,0.29105 0.72943,0.52917 0.87524,0.52917 0.14581,0 0.0496,-0.23812 -0.21379,-0.52917 z m -38.78385,-1.38906 c -0.013,-0.34606 -0.45613,-0.96818 -1.05834,-1.48589 -0.91577,-0.78729 -1.03593,-0.82918 -1.03593,-0.36116 0,0.29118 0.28862,0.71854 0.64139,0.94968 0.35276,0.23114 0.71797,0.66155 0.81158,0.95647 0.22937,0.72269 0.66918,0.68215 0.6413,-0.0591 z m 39.18073,0.50914 c 0,-0.0474 -0.29766,-0.3658 -0.66146,-0.70757 -0.71026,-0.66726 -0.93901,-0.31535 -0.24568,0.37797 0.36831,0.36831 0.90714,0.56409 0.90714,0.3296 z m 30.56899,-5.00705 c -0.11252,-2.65576 -0.27977,-6.99601 -0.37168,-9.64502 -0.0944,-2.72003 -0.28586,-4.9347 -0.43995,-5.08826 -0.15007,-0.14955 -0.63554,-0.34444 -1.07884,-0.4331 l -0.80598,-0.1612 0.0858,4.98488 c 0.0472,2.74169 0.2079,6.0284 0.3571,7.3038 0.1492,1.27541 0.19288,3.2589 0.0971,4.40776 -0.16719,2.00474 -0.1466,2.11644 0.51127,2.77431 0.37701,0.37701 0.94743,0.68547 1.26761,0.68547 h 0.58214 z m 1.98578,3.38671 c -0.48782,-0.58778 -0.80477,-0.50617 -0.80477,0.20721 0,0.83764 0.28599,1.06212 0.75527,0.59284 0.32021,-0.3202 0.32906,-0.4632 0.0495,-0.80005 z m -32.55477,-0.019 c 0,-0.45523 -1.22202,-1.10946 -1.51852,-0.81296 -0.18673,0.18673 0.91652,1.19766 1.32008,1.20962 0.10914,0.003 0.19844,-0.17526 0.19844,-0.39666 z m -39.15834,-2.21284 c 0,-1.17283 -0.10402,-1.39342 -1.12381,-2.38324 -1.48157,-1.43802 -1.60023,-0.9268 -0.17672,0.7614 1.2149,1.4408 1.23097,2.13072 0.0227,0.97309 -0.67051,-0.64239 -1.10338,-0.70046 -1.10338,-0.14801 0,0.25491 1.91293,2.08382 2.18282,2.08694 0.10914,10e-4 0.19843,-0.57932 0.19843,-1.29018 z m 71.70209,-0.54486 c 0,-0.4273 -1.30536,-1.77255 -1.31455,-1.35472 -0.005,0.2089 0.25051,0.65539 0.56692,0.99219 0.63587,0.67685 0.74763,0.73104 0.74763,0.36253 z m -0.26458,-1.97082 c 0,-0.20271 -0.18135,-0.43816 -0.403,-0.52321 -0.32879,-0.12617 -0.35143,-0.0583 -0.12298,0.36857 0.32824,0.61332 0.52598,0.67145 0.52598,0.15464 z m -72.58634,-1.62822 c -1.12406,-1.02977 -1.23242,-1.0752 -1.23242,-0.51675 0,0.21828 0.11293,0.39687 0.25096,0.39687 0.13802,0 0.5734,0.29884 0.96751,0.66409 0.39411,0.36524 0.78286,0.59778 0.86389,0.51675 0.081,-0.081 -0.30144,-0.55847 -0.84994,-1.06096 z m 1.09194,-3.09334 c -0.0687,-2.47001 -0.12206,-2.71725 -0.60456,-2.8038 -0.42798,-0.0768 -0.46593,-0.0293 -0.19844,0.24825 0.1819,0.18875 0.33073,0.50607 0.33073,0.70515 0,0.25957 -0.22887,0.19901 -0.80899,-0.21407 -1.27112,-0.90512 -1.2592,-0.36167 0.0207,0.94244 1.28324,1.30752 1.19529,1.5583 -0.17891,0.51015 -1.20077,-0.91587 -1.17094,-0.23532 0.0412,0.93951 0.50932,0.49365 0.92604,1.05885 0.92604,1.25599 0,0.23526 -0.31823,0.11571 -0.92604,-0.34789 -1.16506,-0.88863 -1.20684,-0.51886 -0.0661,0.58549 1.42739,1.38192 1.5494,1.23019 1.46446,-1.82122 z m 39.72246,1.36662 c -0.76504,-0.19754 -1.16773,0.0892 -0.944,0.67224 0.14724,0.3837 0.23,0.37975 0.87309,-0.0416 l 0.71043,-0.4655 z m -1.683,-1.03891 c -0.0139,-1.7298 -0.0684,-1.86571 -0.74246,-1.85069 -0.0364,7.9e-4 -0.92784,-0.23732 -1.98103,-0.52917 -1.05318,-0.29185 -2.12799,-0.53064 -2.38847,-0.53064 -0.26048,0 -0.78322,-0.35285 -1.16165,-0.78411 -0.6244,-0.71158 -0.75203,-0.75441 -1.37977,-0.46302 -0.53509,0.24838 -0.70226,0.53078 -0.73826,1.24713 l -0.0466,0.92604 -0.10466,-1.00696 c -0.0576,-0.55382 -0.26816,-1.06969 -0.46798,-1.14637 -0.19983,-0.0767 -0.29857,-0.30816 -0.21943,-0.5144 0.0874,-0.22771 -0.0231,-0.37497 -0.28129,-0.37497 -0.23385,0 -0.42518,-0.11609 -0.42518,-0.25797 0,-0.14449 0.34299,-0.18937 0.77969,-0.10203 0.56337,0.11267 0.97701,7.9e-4 1.49089,-0.40349 0.39116,-0.30769 0.87374,-0.55943 1.07239,-0.55943 0.19866,0 0.3612,-0.11906 0.3612,-0.26458 0,-0.14552 0.17859,-0.26459 0.39687,-0.26459 0.21828,0 0.39688,-0.10595 0.39688,-0.23544 0,-0.1295 0.53578,-0.4873 1.19062,-0.79511 0.65484,-0.30781 1.19063,-0.66966 1.19063,-0.80411 0,-0.2227 -1.54627,-0.75419 -3.57188,-1.22774 -0.43656,-0.10206 -0.91281,-0.27777 -1.05833,-0.39046 -0.14552,-0.11269 -0.99101,-0.33643 -1.87886,-0.49719 -0.88786,-0.16076 -3.09051,-0.71984 -4.8948,-1.24241 -1.80428,-0.52256 -3.75207,-1.06255 -4.32843,-1.19997 -0.57635,-0.13743 -1.20544,-0.38059 -1.39796,-0.54037 -0.19253,-0.15979 -0.92901,-0.30238 -1.63662,-0.31688 -0.70762,-0.0145 -1.23185,-0.1165 -1.16495,-0.22666 0.0669,-0.11017 -0.0348,-0.24716 -0.22589,-0.30441 -2.57717,-0.77206 -4.494,-1.28337 -6.635,-1.76987 -2.57114,-0.58424 -2.59031,-0.58464 -4.05939,-0.0853 -1.83014,0.62208 -3.86935,1.721 -4.01077,2.16138 -0.12578,0.39167 1.44969,1.1032 4.80957,2.17216 3.80777,1.21146 3.6951,1.21347 6.36097,-0.1133 1.30302,-0.64849 2.41142,-1.13678 2.46311,-1.08509 0.14034,0.14034 -2.72218,1.64934 -3.49819,1.84411 -1.47524,0.37026 -0.65496,0.79567 4.08991,2.12107 5.26439,1.47051 5.00419,1.4351 6.46524,0.87995 0.72033,-0.27371 1.66542,-0.75095 2.10021,-1.06055 0.43479,-0.30959 0.70654,-0.42702 0.60391,-0.26095 -0.10264,0.16608 -0.77899,0.6858 -1.50299,1.15493 -0.724,0.46914 -1.31636,0.88374 -1.31636,0.92133 0,0.14064 1.68154,0.90086 1.99262,0.90086 0.17811,0 0.45521,0.15831 0.61579,0.35179 0.16683,0.20102 0.616,0.30423 1.04806,0.24082 0.4787,-0.0703 0.92024,0.0531 1.20347,0.33639 0.29291,0.2929 0.66739,0.39214 1.08463,0.28742 0.52155,-0.13091 0.63001,-0.0637 0.59733,0.37015 -0.022,0.29156 -0.16342,0.52901 -0.31435,0.52769 -0.41302,-0.004 -5.19316,-1.24206 -6.04634,-1.56647 -1.10268,-0.41927 -1.45449,-0.34986 -1.58199,0.31211 -0.10043,0.5214 -0.11913,0.50692 -0.15069,-0.11668 -0.0447,-0.88403 -0.0224,-0.87097 -2.85887,-1.67421 -1.28509,-0.36393 -3.25512,-0.95817 -4.37782,-1.32055 -2.93881,-0.94857 -3.1181,-0.91799 -3.1181,0.53175 0,1.57153 -0.45493,1.54528 -0.48651,-0.0281 -0.0135,-0.67029 -0.15974,-1.3817 -0.32508,-1.58091 -0.16533,-0.19922 -1.09216,-0.60266 -2.05961,-0.89653 -0.96745,-0.29388 -2.92129,-0.89215 -4.34186,-1.3295 -1.42056,-0.43735 -2.64095,-0.79519 -2.71197,-0.79519 -0.071,0 -0.13668,0.20836 -0.1459,0.46302 -0.0129,0.35476 -0.0727,0.32383 -0.25606,-0.13229 -0.13161,-0.32742 -0.45744,-0.59531 -0.72406,-0.59531 -0.26663,0 -0.59789,-0.10968 -0.73613,-0.24373 -0.13825,-0.13406 -0.96573,-0.48365 -1.83886,-0.77688 -0.87312,-0.29323 -2.04685,-0.7263 -2.60828,-0.96239 -0.56144,-0.23609 -1.09722,-0.35223 -1.19063,-0.25809 -0.1948,0.19631 -0.14512,3.09937 0.0675,3.94667 0.17582,0.70052 1.5031,1.30745 4.12825,1.88772 2.8979,0.64057 2.99899,0.63158 3.21602,-0.28601 0.18659,-0.7889 0.18744,-0.78819 0.1395,0.11522 -0.0442,0.83371 0.0284,0.92755 0.87781,1.13352 1.804,0.43746 5.69044,1.63866 5.82083,1.79907 0.0728,0.0895 2.54045,0.77004 5.48375,1.5123 2.94331,0.74225 5.89099,1.619 6.55041,1.94833 1.18067,0.58965 1.20529,0.591 1.61545,0.0879 0.3697,-0.45349 0.39972,-0.45774 0.26708,-0.0379 -0.0828,0.26214 -0.004,0.51487 0.17684,0.56686 2.45962,0.7073 6.93073,2.18268 7.82048,2.58061 1.47287,0.65873 2.00079,0.54861 2.14665,-0.44776 0.10996,-0.75122 0.12342,-0.73819 0.26458,0.25622 0.14865,1.04719 0.14966,1.04796 2.00081,1.53466 2.71252,0.71316 3.84058,0.92806 5.04193,0.96051 l 1.07318,0.029 -0.0148,-1.852 z m 28.46141,-2.98265 c -0.0445,-2.5863 -0.19035,-5.38427 -0.32421,-6.21771 -0.13385,-0.83344 -0.31729,-2.02136 -0.40764,-2.63982 -0.0903,-0.61847 -0.20308,-1.12448 -0.25051,-1.12448 -0.16991,0 -2.73047,1.5616 -4.05869,2.47525 -0.74457,0.51217 -2.01232,1.24277 -2.81723,1.62355 -1.77444,0.83945 -5.13986,2.98882 -5.13986,3.28265 0,0.35793 1.46681,2.22247 2.54773,3.23856 1.18228,1.11138 3.27987,2.27222 4.52933,2.50663 0.47489,0.0891 1.72596,0.49649 2.78016,0.90534 1.05421,0.40885 2.21037,0.7229 2.56925,0.69788 l 0.6525,-0.0455 z m 5.47595,4.13541 c -0.0976,-0.49592 -0.90394,-1.0841 -1.14952,-0.83852 -0.24177,0.24177 0.47309,1.27318 0.88243,1.27318 0.19395,0 0.31414,-0.1956 0.26709,-0.43466 z m 5.70424,-0.075 c 1.39352,-0.28032 3.10167,-0.80126 3.7959,-1.15763 0.69423,-0.35638 2.11217,-0.96577 3.15099,-1.35422 1.03881,-0.38845 3.21728,-1.59392 4.84104,-2.67883 1.62375,-1.08491 3.00758,-1.97256 3.07517,-1.97256 0.0676,0 0.84779,-0.49481 1.73377,-1.09958 1.63333,-1.1149 5.0668,-4.79157 5.79,-6.2001 0.21746,-0.42356 0.91971,-1.54401 1.56053,-2.4899 2.07812,-3.06738 2.65965,-5.59966 2.16422,-9.42407 -0.37772,-2.91578 -0.61024,-3.68006 -1.90104,-6.24838 -0.56567,-1.12553 -1.02849,-2.19886 -1.02849,-2.38517 0,-0.18632 -0.22061,-0.75371 -0.49025,-1.26088 -0.26963,-0.50717 -0.64234,-1.39837 -0.82823,-1.98046 -0.18589,-0.58208 -0.42869,-1.17739 -0.53955,-1.32291 -0.38896,-0.51055 -1.31697,-4.27824 -1.31697,-5.34682 0,-1.54123 0.94174,-4.38252 2.00186,-6.03976 0.49971,-0.78116 0.9087,-1.51531 0.90888,-1.63144 1.8e-4,-0.11613 0.71455,-1.08498 1.5875,-2.153 1.22799,-1.50239 1.58718,-2.13973 1.58718,-2.81629 0,-1.17206 -1.23364,-2.5179 -2.30798,-2.5179 -1.01759,0 -3.13404,0.72623 -4.3675,1.49863 -0.54281,0.33992 -1.07897,0.61804 -1.19147,0.61804 -0.3706,0 -2.73478,1.79272 -4.23378,3.21041 -1.69994,1.60773 -3.41193,4.12564 -3.7382,5.49796 -0.83774,3.52357 -0.84844,3.99769 -0.16458,7.29303 1.31965,6.35899 0.72268,9.30948 -2.55768,12.64116 -1.7015,1.72811 -1.76611,1.84271 -1.93923,3.43974 -0.22436,2.06969 -0.61909,3.65083 -1.03993,4.16561 -0.17845,0.21828 -0.77626,1.40891 -1.32846,2.64583 -1.08605,2.43271 -3.4084,5.55418 -4.74261,6.37452 -0.45721,0.28112 -1.26517,0.62993 -1.79546,0.77513 -0.66281,0.18148 -1.00734,0.44924 -1.10227,0.85665 -0.20774,0.89152 -0.22759,8.72472 -0.026,10.24469 0.17089,1.28824 0.20224,1.32818 1.04256,1.32818 0.47651,0 2.00652,-0.22936 3.40004,-0.50968 z m -35.29083,-1.08437 c 0,-0.35799 -1.28878,-0.83953 -1.64979,-0.61642 -0.17922,0.11077 -0.10427,0.30487 0.20507,0.53106 0.57521,0.42061 1.44472,0.47198 1.44472,0.0854 z m 29.1163,-0.76454 c -0.27775,-0.51898 -0.80588,-0.76422 -0.80588,-0.37422 0,0.26423 0.86092,1.16633 0.98995,1.0373 0.0612,-0.0612 -0.0216,-0.35958 -0.18407,-0.66308 z m -27.26422,-0.68412 c 0,-0.22048 -0.23518,-0.39687 -0.52916,-0.39687 -0.52712,0 -0.68822,0.28192 -0.35278,0.61736 0.32224,0.32224 0.88194,0.18231 0.88194,-0.22049 z m 27.78125,-0.44219 c 0,-0.43928 -0.80815,-1.2776 -1.23163,-1.2776 -0.46509,0 -0.44952,0.27771 0.056,0.99946 0.43675,0.62355 1.17562,0.79836 1.17562,0.27814 z m -26.19375,-0.48385 c 0,-0.14552 -0.38695,-0.25272 -0.85989,-0.23821 -0.81473,0.025 -0.82515,0.0375 -0.19844,0.23821 0.93366,0.29901 1.05833,0.29901 1.05833,0 z m -5.61185,-0.80012 c 0.5399,-0.29454 1.69602,-1.00765 2.56914,-1.58469 0.87313,-0.57703 1.84,-1.16068 2.1486,-1.29699 0.761,-0.33613 4.65609,-2.96316 4.55032,-3.06894 -0.10797,-0.10797 -6.35765,0.59724 -7.75725,0.87533 -0.64546,0.12824 -1.91451,0.076 -3.25301,-0.13396 l -2.19469,-0.34423 -1.59548,1.08347 c -0.87751,0.59591 -2.26425,1.37924 -3.08164,1.74073 -1.6852,0.74527 -1.6162,0.89098 0.73211,1.5462 0.80037,0.22332 1.67895,0.53338 1.95242,0.68904 0.55276,0.31463 3.39927,0.97581 4.34198,1.00854 0.33322,0.0116 1.04759,-0.21995 1.5875,-0.5145 z m 7.46394,-0.39051 c 0,-0.22048 -0.23519,-0.39687 -0.52917,-0.39687 -0.52711,0 -0.68821,0.28192 -0.35278,0.61736 0.32225,0.32224 0.88195,0.18232 0.88195,-0.22049 z m -47.62501,-1.32291 c 0,-0.21828 -0.11906,-0.39688 -0.26458,-0.39688 -0.14552,0 -0.26458,0.1786 -0.26458,0.39688 0,0.21828 0.11906,0.39687 0.26458,0.39687 0.14552,0 0.26458,-0.17859 0.26458,-0.39687 z m 49.67685,-0.0662 c 0.0735,-0.22331 -0.199,-0.33073 -0.83917,-0.33073 -0.52145,0 -0.94809,0.10914 -0.94809,0.24254 0,0.58107 1.59896,0.65997 1.78726,0.0882 z m 22.28982,-0.19234 c 0,-0.40343 -1.2402,-1.36763 -1.46717,-1.14066 -0.1722,0.17221 0.9122,1.53144 1.22179,1.53144 0.13496,0 0.24538,-0.17585 0.24538,-0.39078 z m -20.35127,-0.66755 c 0.13361,0 0.24294,-0.11907 0.24294,-0.26459 0,-0.14552 -0.41672,-0.26458 -0.92604,-0.26458 -0.50932,0 -0.92604,0.10914 -0.92604,0.24253 0,0.31675 0.56674,0.53922 1.01382,0.39796 0.19381,-0.0612 0.4617,-0.11132 0.59532,-0.11132 z m 4.60857,-2.91042 c 0.0912,-0.14754 -0.10674,-0.26279 -0.44741,-0.26053 -0.4915,0.003 -0.53334,0.0542 -0.21405,0.26053 0.49232,0.31816 0.46482,0.31816 0.66146,0 z m -17.72709,-12.65907 c 0,-9.30967 -0.0768,-12.2223 -0.33048,-12.52824 -0.41112,-0.49586 -1.36573,-0.73833 -10.78202,-2.73863 -1.74625,-0.37095 -3.54531,-0.84503 -3.9979,-1.0535 -0.8779,-0.40436 -3.51609,-1.0333 -3.67361,-0.87579 -0.0519,0.0519 0.7217,1.03656 1.71912,2.18811 0.99741,1.15156 1.87422,2.32601 1.94846,2.60989 0.12237,0.46793 0.0253,0.50378 -1.0394,0.38377 l -1.17438,-0.13237 v 1.16643 c 0,0.78798 -0.12759,1.21539 -0.39326,1.31733 -0.37012,0.14203 -2.00842,-0.10941 -4.10466,-0.62997 l -0.92604,-0.22996 0.0314,-1.51619 0.0314,-1.51619 -1.15585,-0.30915 c -0.63571,-0.17003 -1.15081,-0.37374 -1.14465,-0.4527 0.006,-0.079 0.84474,-0.56028 1.86353,-1.0696 1.99809,-0.99892 3.37637,-1.97651 3.13321,-2.22235 -0.0833,-0.0842 -1.8097,-0.52543 -3.83646,-0.98048 -2.02676,-0.45505 -3.80408,-0.91915 -3.9496,-1.03132 -0.14552,-0.11216 -0.80036,-0.2898 -1.45521,-0.39475 -0.65484,-0.10494 -2.64266,-0.53512 -4.41737,-0.95595 -1.77471,-0.42084 -3.32252,-0.76521 -3.43958,-0.76528 -0.11706,-7e-5 -0.22562,2.35142 -0.24124,5.22552 -0.0156,2.87411 -0.0471,8.25409 -0.0699,11.95551 -0.0228,3.70143 0.0495,6.81983 0.16069,6.9298 0.11122,0.10996 1.31875,0.44307 2.6834,0.74025 1.36465,0.29718 2.61481,0.64576 2.77813,0.77462 0.16332,0.12886 0.95179,0.38102 1.75215,0.56035 3.94976,0.885 11.27564,2.73269 11.50938,2.90283 0.2722,0.19814 1.93242,0.63691 6.08541,1.60826 1.30969,0.30633 3.39329,0.79472 4.63021,1.0853 1.23693,0.29059 2.60615,0.70589 3.04271,0.92288 0.64488,0.32054 1.85659,0.61796 4.63021,1.13648 0.0728,0.0136 0.13229,-5.4336 0.13229,-12.10491 z m -10.31875,8.19012 c -2.57626,-0.69108 -2.54817,-0.65428 -2.45889,-3.22092 l 0.0776,-2.23201 1.09004,0.0467 c 1.46974,0.0629 3.27559,0.56959 3.27559,0.91901 0,0.26951 -0.54612,0.22825 -2.73201,-0.20641 -0.69065,-0.13733 -0.74107,-0.0925 -0.66146,0.58861 0.0747,0.63913 0.25801,0.7809 1.37718,1.06507 1.98491,0.504 2.22622,0.98114 0.38266,0.75662 -1.62012,-0.1973 -2.12876,-0.0573 -1.90548,0.52458 0.13982,0.36437 0.92509,0.74202 2.74536,1.32028 0.50932,0.1618 0.9052,0.40646 0.87974,0.54368 -0.0694,0.37381 -0.33503,0.36031 -2.07037,-0.10519 z m -6.34673,-3.05417 c -1.4898,-1.74384 -2.3531,-1.96057 -2.61396,-0.65623 -0.24862,1.24308 -0.83475,0.82079 -0.79914,-0.57574 0.1,-3.91976 0.0513,-3.68033 0.74838,-3.68033 0.35521,0 0.71109,0.10557 0.79083,0.23459 0.0797,0.12903 0.53736,0.3082 1.01692,0.39817 1.77804,0.33356 2.6631,1.69933 1.64745,2.54224 -0.54555,0.45277 -0.50451,0.68794 0.3053,1.74965 0.4773,0.62578 0.61574,1.00702 0.43228,1.19048 -0.18345,0.18345 -0.6728,-0.20175 -1.52806,-1.20283 z m 0.0655,-2.73325 c 0.0623,-0.18917 -0.29863,-0.50528 -0.83072,-0.7276 -1.42205,-0.59418 -1.75159,-0.51607 -1.75159,0.41513 0,0.79745 0.0165,0.80717 1.23609,0.72761 0.69891,-0.0456 1.28395,-0.22601 1.34622,-0.41514 z m -6.81565,2.27282 c -0.50932,-0.1304 -1.16416,-0.34119 -1.4552,-0.46841 -0.29105,-0.12722 -0.73753,-0.2979 -0.99219,-0.37929 -0.39875,-0.12744 -0.46302,-0.50229 -0.46302,-2.70068 0,-2.30903 0.0442,-2.5391 0.46302,-2.41024 0.25466,0.0784 1.17739,0.35012 2.05052,0.60392 1.84038,0.53494 1.89846,0.56776 1.56986,0.88692 -0.14799,0.14374 -0.77703,0.10044 -1.56986,-0.10805 -2.20982,-0.58112 -2.43747,0.60953 -0.23545,1.23146 0.68839,0.19443 1.30496,0.51353 1.37015,0.70911 0.0808,0.24242 -0.0388,0.30914 -0.37579,0.20964 -0.27188,-0.0803 -0.94081,-0.22508 -1.48651,-0.32179 -0.88559,-0.15695 -0.99219,-0.11656 -0.99219,0.37597 0,0.6255 1.18937,1.35916 2.20342,1.35916 0.72469,0 1.45246,0.69631 1.07943,1.03278 -0.13208,0.11913 -0.65686,0.1099 -1.16619,-0.0205 z m -5.39565,-2.22455 c -0.0883,-0.23018 -0.1606,-0.64865 -0.1606,-0.92993 0,-0.66738 -1.47466,-1.55971 -2.57968,-1.56098 -0.77544,-7.9e-4 -0.8599,0.0754 -0.8599,0.77714 0,0.88186 -0.46983,1.32468 -0.82453,0.77712 -0.36615,-0.56523 -0.16768,-5.06239 0.22922,-5.19392 0.23153,-0.0767 0.33073,0.2444 0.33073,1.07068 0,1.32712 0.25687,1.62895 1.5875,1.8653 2.00581,0.35629 1.97043,0.36632 2.1142,-0.59919 0.0741,-0.49776 0.28358,-0.95417 0.46549,-1.01424 0.24993,-0.0825 0.33072,0.54248 0.33072,2.55866 0,2.4572 -0.23416,3.2891 -0.63315,2.24936 z m 20.87378,-1.34561 c -0.29104,-0.0634 -0.76729,-0.21959 -1.05833,-0.34714 -0.29104,-0.12754 -0.97148,-0.30461 -1.51208,-0.39348 -0.54059,-0.0889 -1.05222,-0.27374 -1.13694,-0.41082 -0.0847,-0.13708 -0.0719,-1.44216 0.0285,-2.90017 0.1746,-2.53508 0.20912,-2.65093 0.7898,-2.65093 0.84477,0 4.16405,0.78379 4.43342,1.04687 0.38405,0.37509 -0.23577,0.52975 -1.17237,0.29254 -2.6263,-0.66517 -3.08711,-0.5147 -2.73386,0.89277 0.11964,0.47668 0.45137,0.66978 1.58726,0.92399 1.96187,0.43904 1.86867,0.90748 -0.15148,0.76135 -1.35981,-0.0984 -1.5875,-0.0506 -1.5875,0.33268 0,0.61411 0.45479,0.93482 1.85208,1.30605 1.3229,0.35146 1.92042,0.73371 1.70127,1.08831 -0.15109,0.24447 -0.17689,0.2459 -1.03981,0.058 z m -9.20933,-2.90319 c -0.0992,-0.0992 -0.10872,-1.17537 -0.0211,-2.3914 0.18351,-2.5459 0.04,-2.84932 -1.54971,-3.27739 -0.7436,-0.20024 -0.97773,-0.36919 -0.78234,-0.56458 0.19539,-0.19539 1.08122,-0.0726 2.96003,0.41038 2.91547,0.74944 3.17845,0.85535 3.17845,1.28012 0,0.17687 -0.3236,0.22248 -0.8599,0.12119 -2.06136,-0.3893 -1.90462,-0.5465 -2.05052,2.05653 -0.12067,2.15287 -0.38168,2.85843 -0.87496,2.36515 z m -8.50855,-2.50384 c -0.84635,-0.7431 -0.93445,-0.95059 -0.92683,-2.18281 0.009,-1.47417 0.29053,-1.99849 1.58542,-2.95383 1.19426,-0.8811 2.4681,-0.25979 3.61802,1.76468 0.72258,1.27213 0.76401,2.2668 0.1262,3.02979 -1.19781,1.43289 -3.00094,1.57302 -4.40281,0.34217 z m 3.56267,-1.83 c 0,-1.38229 -0.83536,-2.37593 -1.99748,-2.37593 -0.67843,0 -1.01216,0.17006 -1.3522,0.68903 -0.40627,0.62004 -0.4135,0.79811 -0.0722,1.77872 0.32312,0.92849 0.53579,1.13472 1.43756,1.39409 1.36885,0.39371 1.98437,-0.0672 1.98437,-1.48591 z m -9.03186,-0.45572 c -0.87511,-1.91126 -1.90938,-5.09007 -1.7183,-5.28116 0.3086,-0.30859 0.90151,0.17919 1.07942,0.88803 0.28691,1.14313 1.43279,3.53126 1.69438,3.53126 0.28743,0 1.36178,-2.53268 1.36178,-3.21028 0,-0.27754 0.18653,-0.49389 0.42582,-0.49389 0.32954,0 0.3977,0.19444 0.30146,0.8599 -0.21414,1.4806 -1.65438,5.08643 -2.06091,5.15979 -0.24351,0.0439 -0.64383,-0.49307 -1.08365,-1.45365 z m 50.50543,18.25427 c 0.0722,-0.21688 -0.1707,-0.33073 -0.70569,-0.33073 -0.81842,0 -1.10411,0.36608 -0.48506,0.62157 0.5111,0.21094 1.06905,0.0747 1.19075,-0.29084 z m 1.9181,-0.85989 c 0.26177,-0.48912 0.20121,-0.52917 -0.80005,-0.52917 -1.33208,0 -1.07168,0.5896 0.46001,1.04156 0.0313,0.009 0.18428,-0.22135 0.34004,-0.51239 z m 11.23056,0.023 c 0.0821,-0.13285 0.62906,-0.32261 1.21543,-0.42168 0.58637,-0.0991 1.4066,-0.46661 1.82274,-0.81677 0.41614,-0.35016 0.85082,-0.63665 0.96595,-0.63665 0.28311,0 1.43407,-1.0964 1.43407,-1.36608 0,-0.11853 0.51973,-0.90145 1.15494,-1.73982 1.38206,-1.82406 1.95,-2.91263 3.07297,-5.88993 0.46654,-1.23693 0.95668,-2.45635 1.08919,-2.70982 0.39123,-0.74833 0.84395,-5.75443 0.67049,-7.41403 -0.0881,-0.84281 -0.38232,-2.03512 -0.65385,-2.64958 -0.27153,-0.61446 -0.7195,-1.69848 -0.99548,-2.40894 -0.31575,-0.81281 -1.33563,-2.22437 -2.75076,-3.80715 -3.60277,-4.0296 -4.21659,-4.87076 -4.66865,-6.39777 -0.77284,-2.61052 -0.0442,-6.65459 1.64839,-9.14874 0.90713,-1.33674 1.42433,-2.93172 1.42891,-4.40664 0.005,-1.64079 -0.31917,-2.41615 -1.62497,-3.88556 -1.63004,-1.83426 -2.33585,-3.52826 -2.3293,-5.59052 0.006,-1.9682 0.40797,-1.7102 0.69115,0.44389 0.2108,1.6035 1.0919,3.31482 2.49431,4.84458 l 1.08857,1.18742 0.63579,-0.73916 c 0.99354,-1.15506 0.98606,-3.35433 -0.018,-5.2896 -0.38806,-0.74798 -0.93074,-2.3027 -1.20594,-3.45493 -0.30747,-1.28731 -0.73395,-2.34506 -1.10625,-2.74371 -2.08031,-2.22752 -4.87106,-1.6396 -7.74257,1.6311 -1.59022,1.81128 -3.51116,3.2553 -4.63192,3.48193 -0.36675,0.0742 -1.55979,0.40984 -2.65119,0.74595 -1.09141,0.33611 -2.52016,0.77341 -3.175,0.97178 -1.59332,0.48267 -4.16074,1.93772 -5.2481,2.97429 -1.77395,1.69109 -2.25482,3.35332 -1.84944,6.39301 0.3259,2.4438 1.03484,4.01378 2.5716,5.69497 0.59749,0.65365 1.08635,1.34152 1.08635,1.52861 0,0.95532 -2.67418,-1.68876 -3.28733,-3.25034 -0.65641,-1.67173 -1.10187,-4.8707 -0.93951,-6.74687 0.17771,-2.05361 -0.26761,-3.10817 -2.12316,-5.02778 -1.78023,-1.8417 -3.12045,-2.38055 -5.9208,-2.38055 -3.83985,0 -6.01248,0.99831 -8.74567,4.01858 -1.50843,1.66687 -2.06683,3.07062 -1.54979,3.89596 0.39663,0.63312 1.30006,0.65165 1.91249,0.0392 0.29999,-0.29999 0.75707,-0.54544 1.01573,-0.54544 0.76821,0 1.62242,0.75969 1.85247,1.6475 0.29155,1.12512 0.75837,1.20613 1.31496,0.22821 0.33227,-0.58379 0.65996,-0.81451 1.15853,-0.8157 1.01548,-0.002 1.31661,0.51795 1.12187,1.93874 -0.13605,0.99258 -0.0857,1.25565 0.26638,1.39074 0.60978,0.234 1.58431,-0.47709 2.52237,-1.84052 0.44021,-0.63983 1.2279,-1.41556 1.75042,-1.72385 0.98339,-0.58022 2.50729,-0.76009 2.50729,-0.29595 0,0.14552 0.21537,0.26458 0.4786,0.26458 0.26323,0 0.67022,0.14883 0.90444,0.33073 0.46119,0.35818 0.50159,0.0466 -0.72895,5.62239 -0.6864,3.11024 -0.66671,3.3752 0.27195,3.65885 0.43656,0.13192 0.97235,0.3268 1.19063,0.43306 0.44822,0.2182 4.00571,1.19183 8.33437,2.28098 1.60073,0.40277 2.95011,0.83028 2.99861,0.95002 0.0485,0.11975 0.34617,0.22297 0.66146,0.22939 1.08676,0.0222 3.16237,0.69479 3.47866,1.12734 0.21008,0.2873 0.37583,2.42242 0.49126,6.32802 0.31801,10.76061 0.46168,12.6413 0.96571,12.6413 0.24433,0 0.53058,0.0864 0.63612,0.19189 0.10554,0.10554 0.92063,0.34054 1.8113,0.52222 1.57056,0.32037 2.31834,0.17117 2.31834,-0.46254 0,-0.11704 0.47417,-0.90614 1.05371,-1.75354 1.19991,-1.75452 1.88965,-4.09355 1.94929,-6.61046 0.0407,-1.71514 0.25072,-2.1404 0.5344,-1.08184 0.4286,1.5993 -0.24751,5.85842 -1.23229,7.76278 -0.4012,0.77583 -1.69257,2.16881 -4.2466,4.58076 -1.2853,1.2138 -1.55509,2.0753 -0.83663,2.67156 0.56912,0.47233 0.49172,1.09156 -0.26459,2.11667 -0.3638,0.49311 -0.6575,1.08178 -0.65265,1.30817 0.0117,0.54789 0.90916,1.60225 1.3638,1.60225 0.76382,0 1.53781,0.81679 1.53781,1.62285 0,0.77589 -0.51582,1.4417 -2.08296,2.68866 -0.76252,0.60674 -0.64052,1.2112 0.36317,1.7993 0.83965,0.49199 3.17295,0.6706 3.42535,0.26221 z m 0.94433,-2.6027 c 0.002,-0.40019 0.11946,-0.9062 0.26053,-1.12448 0.18783,-0.29065 0.25756,-0.0959 0.26053,0.7276 0.002,0.61846 -0.11501,1.12448 -0.26053,1.12448 -0.14552,0 -0.26276,-0.32742 -0.26053,-0.7276 z m 0.0475,-2.31511 c 0.005,-0.43656 0.0647,-0.58312 0.13178,-0.32569 0.0671,0.25743 0.0627,0.61462 -0.01,0.79375 -0.0725,0.17913 -0.12736,-0.0315 -0.12197,-0.46806 z m -1.10991,-2.51354 c 0,-0.14552 0.11906,-0.26458 0.26458,-0.26458 0.14553,0 0.26459,0.11906 0.26459,0.26458 0,0.14552 -0.11906,0.26459 -0.26459,0.26459 -0.14552,0 -0.26458,-0.11907 -0.26458,-0.26459 z m 1.45521,-1.05833 c 0.26339,-0.29104 0.53842,-0.52917 0.61118,-0.52917 0.0728,0 -0.0832,0.23813 -0.3466,0.52917 -0.26339,0.29104 -0.53842,0.52917 -0.61118,0.52917 -0.0728,0 0.0832,-0.23813 0.3466,-0.52917 z m -2.00613,-3.00135 c 0.37864,-0.47152 1.34467,-1.09111 1.34467,-0.86243 0,0.068 -0.38695,0.39493 -0.85989,0.72657 -0.61011,0.42783 -0.75093,0.4673 -0.48478,0.13586 z m 1.60925,-1.23198 c 0,-0.14552 0.12609,-0.26459 0.2802,-0.26459 0.15411,0 0.20662,0.11907 0.11668,0.26459 -0.0899,0.14552 -0.21603,0.26458 -0.2802,0.26458 -0.0642,0 -0.11668,-0.11906 -0.11668,-0.26458 z m 1.39841,-0.50661 c -0.25322,-0.40548 -0.23952,-0.57038 0.0687,-0.82614 0.323,-0.26807 0.38503,-0.18645 0.38503,0.5066 0,0.9676 -0.034,0.99155 -0.45368,0.31954 z m -15.8182,-28.775 c -0.43656,-0.23098 -1.30028,-0.82972 -1.91937,-1.33054 -0.92177,-0.74566 -1.1544,-0.83559 -1.2845,-0.49657 -0.21622,0.56347 -0.63454,0.25621 -0.62417,-0.45846 0.0106,-0.72891 0.49519,-1.37799 1.19454,-1.59995 0.44142,-0.14011 0.58548,-0.0149 0.79273,0.6891 0.20525,0.69721 0.55425,1.00628 1.84077,1.63017 l 1.5875,0.76984 1.97435,-0.5133 c 1.63057,-0.42393 1.99931,-0.61907 2.11774,-1.12075 l 0.1434,-0.60744 0.61818,0.65802 c 0.59719,0.63568 0.71403,1.61053 0.17342,1.44682 -0.14553,-0.0441 -0.23482,-0.16942 -0.19844,-0.27856 0.11559,-0.34678 -0.3691,-0.21843 -2.092,0.55397 -2.26537,1.0156 -3.33899,1.17888 -4.32415,0.65765 z m 7.40834,-5.37881 c -0.0899,-0.14552 -0.97536,-0.26458 -1.9676,-0.26458 -2.17188,0 -2.72088,-0.3939 -2.02635,-1.45389 0.41189,-0.62862 0.56008,-0.66257 2.87557,-0.65873 2.60285,0.004 2.85777,0.0778 3.32008,0.95647 0.23932,0.45486 0.20268,0.67187 -0.18986,1.12448 -0.50348,0.58052 -1.72499,0.76039 -2.01184,0.29625 z m -0.23628,-0.94768 c -0.0883,-0.23018 -0.1606,-0.52784 -0.1606,-0.66146 0,-0.31197 -3.09626,-0.31982 -3.28876,-0.008 -0.2601,0.42085 0.49752,0.78784 1.84027,0.89141 0.72391,0.0558 1.41823,0.12298 1.54294,0.14921 0.12471,0.0262 0.15448,-0.14064 0.0661,-0.37082 z m -9.3994,-0.2091 c -1.87231,-0.32903 -2.1775,-0.65608 -1.3678,-1.46578 0.86527,-0.86527 1.71346,-0.93471 3.31402,-0.27132 1.59054,0.65924 2.01921,1.23893 1.30329,1.76242 -0.53091,0.38821 -0.91332,0.38523 -3.24951,-0.0253 z m 1.03672,-0.93158 c 0,-0.36737 -0.76895,-0.57378 -1.47624,-0.39626 -1.0026,0.25164 -0.75095,0.63254 0.4179,0.63254 0.58209,0 1.05834,-0.10633 1.05834,-0.23628 z m 6.13395,-1.54016 c 0.13428,-0.69725 1.83499,-0.99664 3.26425,-0.57463 0.65182,0.19246 1.18513,0.50253 1.18513,0.68904 0,0.43946 -0.14836,0.42746 -0.91347,-0.0739 -0.65625,-0.42999 -2.52611,-0.29835 -2.52611,0.17783 0,0.12933 -0.24686,0.23514 -0.54857,0.23514 -0.37565,0 -0.52103,-0.14296 -0.46123,-0.45352 z m -27.36677,-0.38316 c -0.40018,-0.14616 -0.7276,-0.37115 -0.7276,-0.49998 0,-0.24816 0.50219,-0.10235 1.5875,0.46093 0.77101,0.40016 0.19984,0.4261 -0.8599,0.039 z m 3.50573,0.0429 c 0,-0.3315 0.28079,-0.3315 0.79375,0 0.32093,0.2074 0.28296,0.25726 -0.19843,0.26053 -0.32743,0.002 -0.59532,-0.11501 -0.59532,-0.26053 z m 18.65313,-0.94816 c -0.33705,-0.25616 -0.95205,-0.37318 -1.69394,-0.32232 -1.46908,0.10072 -1.78816,-0.46575 -0.36852,-0.65424 1.06627,-0.14157 2.745,0.46852 2.92999,1.06483 0.13681,0.44096 -0.21878,0.40478 -0.86753,-0.0883 z m 4.00284,51.0326 c -0.10252,-0.10252 -0.50931,-0.22438 -0.90399,-0.2708 -0.55358,-0.0651 -0.62689,-0.0235 -0.32073,0.18234 0.44672,0.30025 1.51357,0.37731 1.22472,0.0885 z m 4.59612,-2.71973 c 0,-0.10752 -0.3003,-0.13809 -0.66733,-0.0679 -0.53519,0.10231 -0.60682,0.20047 -0.36177,0.49574 0.23123,0.27862 0.39355,0.29514 0.66733,0.0679 0.19897,-0.16513 0.36177,-0.38822 0.36177,-0.49574 z m -64.85882,-1.46995 c 1.32943,-0.66059 2.41715,-1.30222 2.41715,-1.42583 0,-0.12361 -0.77391,-0.43424 -1.71979,-0.69028 l -1.7198,-0.46552 v -1.02239 -1.02238 l -0.99218,0.61443 c -0.54571,0.33794 -1.92437,1.05242 -3.06369,1.58774 -2.29423,1.07797 -3.73329,2.00975 -3.48592,2.25712 0.22591,0.22591 4.61475,1.30291 5.45537,1.33872 0.38044,0.0162 1.77942,-0.51102 3.10886,-1.17161 z m 49.2167,0.57781 c 0.24122,-0.29065 -0.037,-0.44127 -1.46659,-0.79406 -0.97035,-0.23946 -1.81231,-0.38735 -1.87102,-0.32865 -0.17021,0.17022 2.1339,1.47612 2.60931,1.47889 0.23684,10e-4 0.56458,-0.15891 0.7283,-0.35618 z m 2.28066,-1.48256 c 0,-0.21481 -0.35206,-0.46131 -0.79375,-0.55577 -0.43656,-0.0934 -1.25478,-0.36613 -1.81825,-0.60616 -1.4836,-0.63198 -1.46829,-0.55584 0.12382,0.61586 1.42346,1.04757 2.48818,1.28124 2.48818,0.54607 z m 2.66141,-1.44716 c 0.50711,-0.37321 0.50692,-0.38018 -0.0156,-0.55312 -1.11876,-0.37029 -4.50991,-1.81602 -4.74927,-2.02473 -0.13823,-0.12054 -0.40612,-0.21917 -0.5953,-0.21917 -0.72284,0 -0.2903,0.46979 1.06292,1.15446 0.77379,0.3915 1.81559,1.00044 2.31511,1.35321 1.07225,0.75722 1.30102,0.79062 1.98213,0.28935 z m 9.2229,-0.14178 c 0.66691,-0.28587 1.21256,-0.64306 1.21256,-0.79375 0,-0.3506 -0.16445,-0.34497 -0.87729,0.03 -0.68457,0.36014 -1.90314,1.28347 -1.69386,1.28347 0.0803,0 0.69169,-0.23389 1.35859,-0.51976 z m -7.38658,-0.90259 c 0.47246,-0.34548 0.45603,-0.38565 -0.3224,-0.78819 -0.45113,-0.23329 -0.86075,-0.51596 -0.91028,-0.62816 -0.11445,-0.25927 -3.16068,-1.71949 -3.29885,-1.58132 -0.1105,0.1105 3.63834,3.34913 3.88583,3.35699 0.0813,0.003 0.3719,-0.15911 0.6457,-0.35932 z m 2.09832,-1.78263 c -0.0797,-0.12903 -0.24849,-0.2346 -0.375,-0.2346 -0.1265,0 -0.94861,-0.42807 -1.82691,-0.95127 -2.349,-1.3993 -2.55107,-0.95569 -0.28322,0.62178 1.45208,1.01003 2.04128,1.2874 2.29228,1.07908 0.18582,-0.15421 0.2726,-0.38595 0.19285,-0.51499 z m 1.47374,-0.97963 c 0,-0.30591 -2.0688,-1.43169 -2.41741,-1.31549 -0.15912,0.053 0.17088,0.41214 0.73332,0.79799 1.03668,0.71119 1.68409,0.91013 1.68409,0.5175 z m 1.69794,-0.80711 c 0.24023,-0.3887 -0.83072,-1.12117 -4.47606,-3.06138 l -1.32292,-0.70411 0.86713,0.76589 c 0.47692,0.42125 1.1913,0.93291 1.5875,1.13703 0.3962,0.20413 0.82012,0.52827 0.94204,0.72032 0.22971,0.36185 1.75629,1.36875 2.07782,1.37048 0.10055,5.3e-4 0.24657,-0.10216 0.32449,-0.22823 z m 0.94789,-1.16129 c 0,-0.45869 -0.37357,-0.79886 -1.61452,-1.47015 -0.88799,-0.48035 -1.5726,-0.74818 -1.52136,-0.59517 0.0795,0.23747 2.87372,2.66208 3.06786,2.66208 0.0374,0 0.068,-0.26854 0.068,-0.59676 z m 0,-1.92051 c 0,-0.2996 -1.74581,-1.7004 -2.11666,-1.69837 -0.22638,10e-4 0.0578,0.39405 0.66146,0.91435 0.99058,0.85378 1.4552,1.10411 1.4552,0.78402 z m -0.66325,-3.04096 c -0.24913,-0.27529 -0.91051,-0.7269 -1.46973,-1.00358 l -1.01677,-0.50306 0.38436,0.55588 c 0.52606,0.76082 2.3468,2.02383 2.46182,1.70771 0.0513,-0.14103 -0.11054,-0.48166 -0.35968,-0.75695 z m -20.63571,-7.58166 c 1.89178,-0.96693 4.63021,-2.34803 6.08542,-3.06909 1.45521,-0.72107 2.82443,-1.46441 3.04271,-1.65187 0.3616,-0.31055 1.64144,-1.00742 7.73718,-4.2129 2.01816,-1.06126 2.47145,-1.47416 1.61836,-1.47416 -0.23872,0 -0.92333,-0.22964 -1.52135,-0.5103 -1.16301,-0.54583 -10.52452,-2.86332 -12.06692,-2.98723 l -0.92544,-0.0743 -0.4377,1.71979 c -0.24074,0.94589 -0.44937,2.08388 -0.46363,2.52888 -0.0238,0.74282 0.0662,0.82949 1.09856,1.05833 0.63709,0.14122 1.12448,0.40239 1.12448,0.60256 0,0.19432 -0.83344,0.79433 -1.85208,1.33335 -1.01865,0.53902 -2.23247,1.2055 -2.69738,1.48105 -0.77148,0.45726 -1.00256,0.47219 -2.64584,0.17096 -0.99029,-0.18153 -3.22928,-0.69271 -4.97553,-1.13595 -1.74625,-0.44324 -3.77032,-0.93119 -4.49792,-1.08432 -0.7276,-0.15313 -1.38245,-0.35327 -1.45521,-0.44474 -0.0728,-0.0915 -1.38245,-0.5012 -2.91041,-0.91051 -1.52797,-0.40931 -3.4138,-0.96994 -4.19073,-1.24586 -0.77694,-0.27591 -1.69265,-0.50166 -2.03491,-0.50166 -1.36683,0 -1.07003,-1.01959 0.54774,-1.88165 0.57623,-0.30706 1.37511,-0.7324 1.77529,-0.9452 0.71493,-0.38017 0.72761,-0.43035 0.72761,-2.88107 0,-1.37179 -0.0919,-2.49416 -0.20423,-2.49416 -0.11232,0 -1.21365,0.65765 -2.44739,1.46146 -1.23375,0.8038 -2.77896,1.71833 -3.4338,2.03228 -0.65485,0.31394 -1.25016,0.63855 -1.32292,0.72134 -0.0728,0.0828 -1.50151,0.85608 -3.175,1.7184 -1.67349,0.86232 -3.39989,1.82312 -3.83646,2.13511 -0.43656,0.31199 -1.67597,0.96402 -2.75424,1.44895 -1.98,0.89046 -3.69625,1.87465 -3.71685,2.13143 -0.0134,0.16746 5.19173,1.22587 7.79401,1.58482 3.07577,0.42426 3.95622,0.58881 4.23333,0.79118 0.14552,0.10628 0.91943,0.33912 1.71979,0.51743 1.92502,0.42888 9.05472,2.65047 9.3963,2.92786 0.14749,0.11977 1.57624,0.52622 3.175,0.90322 1.59876,0.377 4.03792,0.96633 5.42037,1.30963 3.90781,0.9704 4.12968,0.94089 8.06979,-1.07301 z m 0.64878,-13.73828 c 0.28289,-3.92598 0.58549,-7.32352 0.67243,-7.55009 0.087,-0.22658 -0.0254,-0.56421 -0.2496,-0.7503 -0.34364,-0.2852 -0.56251,-0.18796 -1.39339,0.61907 -1.71362,1.66443 -3.49574,1.01232 -3.14957,-1.1525 0.2119,-1.32511 -0.25906,-1.43179 -1.12862,-0.25565 -0.86428,1.16901 -1.89772,1.01431 -2.27589,-0.34068 -0.15142,-0.54254 -0.47498,-1.18612 -0.71902,-1.43016 -0.41523,-0.41523 -0.50476,-0.39013 -1.39456,0.39113 -0.52296,0.45917 -1.1127,0.83486 -1.31053,0.83486 -0.70855,0 -2.00315,-1.49884 -2.00315,-2.31917 0,-0.68042 -0.14849,-0.83907 -1.12448,-1.20136 -0.61846,-0.22958 -1.67501,-0.49515 -2.34787,-0.59015 l -1.22339,-0.17273 -0.19241,2.34014 c -0.10582,1.28708 -0.32699,2.5046 -0.49147,2.7056 -0.32251,0.3941 -0.67111,8.65922 -0.44121,10.46092 0.15938,1.24909 0.68921,1.52156 1.06038,0.54531 0.14958,-0.39343 0.41567,-0.65264 0.59694,-0.5815 2.06382,0.81 2.56377,1.13469 2.42421,1.57439 -0.19004,0.59878 0.65505,0.93738 2.4163,0.96812 0.71905,0.0125 1.90269,0.20146 2.63029,0.4198 1.29,0.38712 1.29659,0.39417 0.26458,0.28335 l -1.05833,-0.11364 1.05833,0.36075 c 0.58209,0.19841 1.29646,0.36153 1.5875,0.36248 l 0.52917,0.002 -0.52917,-0.22739 c -0.76689,-0.32955 0.0363,-0.32108 1.32292,0.0139 1.27367,0.33165 2.2866,0.80038 2.64583,1.22434 0.34783,0.4105 2.85344,1.13615 3.10992,0.90066 0.10973,-0.10074 0.43096,-3.39532 0.71386,-7.3213 z m -6.07091,3.71205 c -0.79937,-0.1944 -2.22812,-0.43629 -3.175,-0.53754 -1.66037,-0.17755 -2.91224,-0.69751 -2.91224,-1.20959 0,-0.27627 1.90718,0.006 2.11667,0.31277 0.0728,0.10671 0.66807,0.28214 1.32291,0.38985 1.49472,0.24586 5.07235,1.14895 5.24818,1.32478 0.22885,0.22886 -1.0926,0.0864 -2.60052,-0.28027 z m 0.26276,-1.47299 c -0.3638,-0.14514 -1.85208,-0.50604 -3.30729,-0.80198 -3.43152,-0.69786 -3.45874,-0.70704 -3.11548,-1.05031 0.19735,-0.19734 0.89559,-0.14667 2.35935,0.17122 3.16725,0.68785 6.01915,1.47599 6.29915,1.7408 0.34152,0.323 -1.39257,0.27667 -2.23573,-0.0597 z m -10.78698,-1.35078 c -0.59813,-0.19594 -0.82877,-0.41401 -0.74736,-0.70665 0.0648,-0.23278 0.19467,-0.80583 0.28869,-1.27344 l 0.17093,-0.8502 1.10559,0.42906 c 1.56639,0.60788 1.80449,0.85481 1.71441,1.77797 -0.0684,0.70069 -0.19205,0.82268 -0.87341,0.86147 -0.43656,0.0248 -1.18304,-0.0823 -1.65885,-0.23821 z m 2.12985,-0.72329 c 0.15595,-0.59636 -0.17471,-0.92446 -1.17101,-1.16199 -0.50296,-0.11991 -0.74503,-0.0496 -0.8599,0.24974 -0.38856,1.01256 -0.0932,1.32358 1.33062,1.40099 0.35449,0.0193 0.61498,-0.16252 0.70029,-0.48874 z m 10.29133,-0.6035 c -0.84964,-0.40227 -1.05383,-0.60526 -0.79375,-0.78906 0.23515,-0.16618 0.10928,-0.19486 -0.38319,-0.0873 -0.40394,0.0882 -1.83014,-0.0949 -3.175,-0.40772 -2.71955,-0.63254 -2.98181,-0.73489 -2.66313,-1.03928 0.38997,-0.37248 8.82045,1.43243 8.82045,1.88839 0,0.12924 -0.11033,0.23498 -0.24518,0.23498 -0.13485,0 -0.28368,0.16685 -0.33073,0.37078 -0.0691,0.29973 -0.30477,0.26699 -1.22947,-0.1708 z m -1.44127,-1.15358 c -0.0879,-0.0879 -0.31613,-0.0973 -0.50712,-0.0209 -0.21107,0.0845 -0.14838,0.14716 0.15985,0.15985 0.27891,0.0115 0.43518,-0.051 0.34727,-0.13896 z m -8.88235,-0.89848 c -0.65574,-0.88695 -1.36297,-0.99841 -2.51676,-0.39666 -1.3253,0.69121 -1.63088,0.0243 -0.56778,-1.2391 0.75846,-0.90138 0.88519,-2.3471 0.25181,-2.87276 -0.58385,-0.48455 -0.37829,-1.42662 0.33338,-1.52783 0.45363,-0.0645 0.69157,0.14128 1.05833,0.91532 0.59093,1.24712 1.44284,1.51106 2.71819,0.84216 1.66364,-0.87255 2.62075,-0.43613 1.06237,0.48442 -1.05833,0.62517 -1.79363,2.47039 -1.36196,3.41781 0.16693,0.36636 0.30351,0.77958 0.30351,0.91825 0,0.5246 -0.71687,0.22153 -1.28109,-0.54161 z m 7.76338,-0.19505 c -4.17044,-1.02061 -4.89479,-1.26498 -4.89479,-1.65137 0,-0.33132 0.97109,-0.36087 1.17208,-0.0357 0.0797,0.12902 0.59279,0.31285 1.1401,0.40851 3.53378,0.61761 7.21282,1.64999 7.21282,2.024 0,0.34732 -0.48158,0.26979 -4.63021,-0.74548 z m -8.59896,5.62927 c 0,-0.19546 -0.35719,-0.47989 -0.79375,-0.63208 -0.70787,-0.24676 -0.79375,-0.22002 -0.79375,0.24723 0,0.30028 0.25412,0.61997 0.59531,0.74892 0.68292,0.2581 0.99219,0.14462 0.99219,-0.36407 z m 16.92928,-7.16725 c 0.002,-0.44383 0.10979,-0.92008 0.23902,-1.05833 0.12923,-0.13824 0.31723,-1.05439 0.41778,-2.03589 0.17993,-1.75635 0.17177,-1.78874 -0.51677,-2.05052 -0.38478,-0.14629 -0.8109,-0.26598 -0.94695,-0.26598 -0.45711,0 -0.25272,0.66311 0.31336,1.01663 0.48197,0.301 0.54002,0.5236 0.41335,1.585 -0.45151,3.78316 -0.48333,4.40409 -0.20562,4.01295 0.15498,-0.21828 0.2836,-0.76002 0.28583,-1.20386 z m 1.57947,-5.82216 c -0.17451,-0.21027 -0.50206,-0.38231 -0.72789,-0.38231 -0.32364,0 -0.28876,0.12969 0.16469,0.61236 0.3164,0.3368 0.5915,0.78329 0.61131,0.99219 0.0198,0.2089 0.0885,0.10538 0.15261,-0.23006 0.0641,-0.33543 -0.0262,-0.78191 -0.20072,-0.99218 z m -15.75893,-3.71125 c 0.32832,-0.85558 0.12296,-1.11361 -1.4471,-1.81821 -0.88423,-0.39682 -1.64846,-0.68072 -1.69829,-0.6309 -0.0498,0.0498 -0.16745,0.39684 -0.26139,0.77114 -0.20436,0.81421 0.0843,1.0933 1.71529,1.65858 1.50265,0.52079 1.4991,0.52075 1.69149,0.0194 z m 1.39666,-2.11802 c 0.0995,-0.25929 -0.11201,-0.68937 -0.55298,-1.12448 l -0.71411,-0.70461 -0.52049,0.63307 c -0.48891,0.59465 -0.49351,0.66289 -0.0758,1.12448 0.54428,0.60142 1.64381,0.64364 1.86335,0.0715 z m 1.93894,-1.99263 c 0,-0.33213 -0.77604,-0.80467 -1.04675,-0.63737 -0.29992,0.18536 -0.37488,1.01088 -0.11535,1.27041 0.17599,0.17599 1.1621,-0.36117 1.1621,-0.63304 z"
       id="path435"
       inkscape:connector-curvature="0" />
  </g>
</svg>
