<?xml version="1.0" encoding="UTF-8" standalone="no"?>
<!-- Created with Inkscape (http://www.inkscape.org/) -->

<svg
   xmlns:dc="http://purl.org/dc/elements/1.1/"
   xmlns:cc="http://creativecommons.org/ns#"
   xmlns:rdf="http://www.w3.org/1999/02/22-rdf-syntax-ns#"
   xmlns:svg="http://www.w3.org/2000/svg"
   xmlns="http://www.w3.org/2000/svg"
   xmlns:sodipodi="http://sodipodi.sourceforge.net/DTD/sodipodi-0.dtd"
   xmlns:inkscape="http://www.inkscape.org/namespaces/inkscape"
   width="210mm"
   height="49.752567mm"
   viewBox="0 0 210.00001 49.752564"
   version="1.1"
   id="svg8"
   inkscape:version="0.92.3 (2405546, 2018-03-11)"
   sodipodi:docname="gunship.svg">
  <defs
     id="defs2" />
  <sodipodi:namedview
     id="base"
     pagecolor="#ffffff"
     bordercolor="#666666"
     borderopacity="1.0"
     inkscape:pageopacity="0.0"
     inkscape:pageshadow="2"
     inkscape:zoom="0.7"
     inkscape:cx="101.09067"
     inkscape:cy="44.859878"
     inkscape:document-units="mm"
     inkscape:current-layer="layer1"
     showgrid="false"
     fit-margin-top="0"
     fit-margin-left="0"
     fit-margin-right="0"
     fit-margin-bottom="0"
     inkscape:window-width="1920"
     inkscape:window-height="1017"
     inkscape:window-x="-8"
     inkscape:window-y="-8"
     inkscape:window-maximized="1" />
  <metadata
     id="metadata5">
    <rdf:RDF>
      <cc:Work
         rdf:about="">
        <dc:format>image/svg+xml</dc:format>
        <dc:type
           rdf:resource="http://purl.org/dc/dcmitype/StillImage" />
        <dc:title></dc:title>
      </cc:Work>
    </rdf:RDF>
  </metadata>
  <g
     inkscape:label="Layer 1"
     inkscape:groupmode="layer"
     id="layer1"
     transform="translate(-244.21792,499.31659)">
    <path
       style="fill:#000000;stroke-width:0.50608462"
       d="m 300.3787,-449.91553 c -2.74357,-1.17593 -4.09878,-3.52105 -2.03474,-3.52105 0.55669,0 1.01218,0.30314 1.01218,0.67362 0,1.15923 2.20705,1.92347 5.08371,1.76033 l 2.76059,-0.15646 0.15704,-1.89782 c 0.15321,-1.85108 0.11477,-1.89782 -1.56043,-1.89782 -0.94462,0 -1.87468,-0.15723 -2.06678,-0.34927 -0.19211,-0.19212 -1.42569,-0.43378 -2.74129,-0.53705 -3.23905,-0.25424 -11.76567,-2.03701 -12.45985,-2.60512 -0.30796,-0.25205 -1.50703,-0.71145 -2.66458,-1.0209 -3.86433,-1.03304 -5.98424,-4.63625 -4.93782,-8.39281 0.28364,-1.01826 4.09395,-3.28955 5.51854,-3.28955 0.42063,0 0.7648,-0.1917 0.7648,-0.42599 0,-0.23427 0.85401,-0.68435 1.89782,-1.00014 1.38585,-0.41928 2.34151,-1.2287 3.54258,-3.00055 0.90463,-1.3345 1.64477,-2.70635 1.64477,-3.04852 0,-0.34219 0.22775,-0.62216 0.5061,-0.62216 0.27834,0 0.50607,-0.30191 0.50607,-0.67091 0,-0.95113 2.00624,-2.65649 3.79565,-3.22638 1.26437,-0.4027 1.56056,-0.80883 1.77129,-2.42877 0.27974,-2.15053 1.02641,-2.72069 2.01035,-1.5351 0.35421,0.42679 1.00611,0.77598 1.44867,0.77598 0.44257,0 1.26871,0.55251 1.83587,1.22779 0.826,0.9835 1.65161,1.27801 4.14948,1.48021 2.21152,0.17903 3.38886,0.0474 4.04868,-0.45256 1.41487,-1.07214 3.43676,-0.87561 4.78351,0.46501 0.70552,0.70231 2.15463,1.35938 3.48507,1.58022 1.25257,0.20792 2.45281,0.63483 2.66723,0.94868 0.26538,0.38844 0.69523,0.20705 1.34634,-0.56807 0.52606,-0.62628 1.18881,-1.13869 1.47276,-1.13869 0.28397,0 0.58908,-0.51241 0.67802,-1.13869 0.12337,-0.86816 0.54619,-1.1759 1.78,-1.2953 1.48921,-0.14422 1.64472,-0.33297 1.94988,-2.36798 0.18229,-1.21624 0.19614,-2.43056 0.0306,-2.69848 -0.16565,-0.26792 -2.6372,-0.63607 -5.49249,-0.81809 -2.85528,-0.18209 -6.21623,-0.42507 -7.4688,-0.5401 -1.25255,-0.11496 -6.83213,-0.4675 -12.39907,-0.78324 -5.56693,-0.31574 -10.57716,-0.76407 -11.13385,-0.9963 -0.55669,-0.23223 -3.74503,-0.56149 -7.08519,-0.73167 -5.25902,-0.26798 -17.33476,-0.96778 -35.93201,-2.08235 -4.79279,-0.28724 -7.9081,-1.11135 -8.63262,-2.28364 -0.57425,-0.92914 0.15857,-1.06925 1.3861,-0.265 0.84977,0.55679 3.22197,0.88054 8.26778,1.12834 3.89183,0.19109 7.18995,0.51448 7.32912,0.71849 0.13925,0.20404 5.03554,0.6398 10.88082,0.96836 5.84528,0.32857 11.16032,0.68545 11.81124,0.7931 0.65091,0.10769 4.24504,0.35453 7.98698,0.54862 3.74193,0.19407 6.92354,0.54711 7.07027,0.78452 0.14671,0.23739 1.66207,0.43163 3.36745,0.43163 1.7054,0 8.64794,0.36104 15.42789,0.80229 l 12.32719,0.80229 1.71536,-1.30837 c 2.06343,-1.57385 2.36809,-1.6022 3.18369,-0.29621 0.34767,0.55669 1.07222,1.01218 1.61013,1.01218 0.5379,0 1.1277,0.24221 1.31068,0.53825 0.22241,0.35987 2.62228,0.44755 7.24158,0.26457 3.79989,-0.15053 14.31039,-0.39316 23.35666,-0.5392 24.1158,-0.38935 40.47438,-0.74839 47.06586,-1.03303 3.62585,-0.15665 5.43358,-0.0809 4.79506,0.20065 -0.56371,0.24858 -9.21774,0.59703 -19.23122,0.77436 -10.01347,0.17732 -21.96398,0.42641 -26.55669,0.55356 -4.59273,0.12719 -14.6132,0.37679 -22.26772,0.55481 -7.65453,0.17808 -13.99324,0.52456 -14.08603,0.77006 -0.0928,0.24552 -0.83293,0.44638 -1.64477,0.44638 -1.3778,0 -1.47607,0.13122 -1.47607,1.969 v 1.96897 l 5.68893,0.43493 c 5.50513,0.42086 5.71012,0.47924 6.34434,1.80717 0.57327,1.20032 0.81575,1.31129 1.93527,0.88565 1.70502,-0.64826 4.42253,-0.61823 5.09707,0.0562 0.38651,0.38651 1.14406,0.38106 2.62953,-0.0191 1.60117,-0.43116 2.35199,-0.41391 3.2274,0.0742 0.62744,0.34983 2.16563,0.57838 3.41818,0.50792 2.10488,-0.1184 2.40214,0.0241 3.92447,1.882 0.94603,1.15458 1.43069,2.1439 1.13868,2.32437 -0.72044,0.44525 -0.63167,3.06875 0.12414,3.67129 0.56143,0.44753 6.63806,0.74927 39.85417,1.97902 4.59271,0.17004 8.63506,0.53372 8.98301,0.80818 0.41627,0.32836 0.84892,0.32637 1.26519,-0.006 0.68644,-0.54777 2.67651,-0.52737 3.23708,0.0331 0.19128,0.19128 1.08295,0.3477 1.98159,0.3477 1.42091,0 2.66336,-0.99752 9.53126,-7.65238 4.34356,-4.2088 7.89737,-8.04551 7.89737,-8.52605 0,-0.48052 -1.73241,-2.5311 -3.84979,-4.55685 -2.8838,-2.75894 -3.67748,-3.79233 -3.16304,-4.1183 1.33442,-0.84552 2.10788,-0.41205 5.9686,3.34499 3.80176,3.69968 3.96448,3.79563 6.43663,3.79563 1.39493,0 2.65512,0.11878 2.80037,0.26411 0.14518,0.14537 0.0218,1.17178 -0.27423,2.28112 -0.53538,2.00578 -0.52373,2.03183 2.09759,4.68611 2.22424,2.2522 2.63598,2.9625 2.63598,4.54726 v 1.87814 l -3.64481,-3.53101 -3.64482,-3.53101 -1.09679,1.0304 c -0.60325,0.56671 -1.95821,2.32818 -3.01102,3.91433 -1.05282,1.58618 -2.9045,4.36727 -4.11488,6.18025 -1.21036,1.81295 -2.20065,3.57791 -2.20065,3.92215 0,0.34422 -0.22773,0.62587 -0.50608,0.62587 -0.27834,0 -0.50608,0.35323 -0.50608,0.78494 0,1.16323 3.239,2.30666 7.43242,2.62381 2.03579,0.15398 3.70144,0.47481 3.70144,0.71297 0,0.71789 -3.5283,0.47023 -8.28593,-0.5816 -2.46966,-0.54599 -4.63521,-0.90316 -4.81233,-0.7937 -0.17712,0.10941 -6.81054,0.58051 -14.74092,1.04676 -7.93038,0.46627 -14.87435,1.0354 -15.43104,1.26474 -0.55671,0.22934 -5.22534,0.67249 -10.37474,0.98478 -5.14942,0.31232 -13.34799,0.80965 -18.21904,1.10523 -4.87108,0.29556 -9.31197,0.72659 -9.86866,0.9578 -0.55669,0.23123 -3.43632,0.5573 -6.39916,0.72461 -4.76063,0.26884 -7.9397,0.91277 -11.31381,2.29164 -0.55669,0.2275 -2.15084,0.60791 -3.54258,0.84536 -2.37825,0.40578 -2.53043,0.52303 -2.53043,1.94999 v 1.51825 l 5.18736,0.14422 c 2.89587,0.0805 5.18737,0.35997 5.18737,0.63261 0,0.30524 -7.25938,0.48925 -19.35773,0.49068 -10.64675,10e-4 -21.86285,0.11744 -24.92466,0.25813 -3.39779,0.15608 -6.05586,0.0463 -6.82175,-0.28198 z m 38.07212,-2.2679 c 0.13428,-0.70252 0.10386,-1.36038 -0.0675,-1.46194 -0.17138,-0.10157 -6.57448,-0.26691 -14.22903,-0.36748 l -13.91732,-0.18286 -0.15857,1.64476 -0.15857,1.64478 h 14.14343 14.14345 z"
       id="path268"
       inkscape:connector-curvature="0" />
  </g>
</svg>
