<?xml version="1.0" encoding="UTF-8" standalone="no"?>
<!-- Created with Inkscape (http://www.inkscape.org/) -->

<svg
   xmlns:dc="http://purl.org/dc/elements/1.1/"
   xmlns:cc="http://creativecommons.org/ns#"
   xmlns:rdf="http://www.w3.org/1999/02/22-rdf-syntax-ns#"
   xmlns:svg="http://www.w3.org/2000/svg"
   xmlns="http://www.w3.org/2000/svg"
   xmlns:sodipodi="http://sodipodi.sourceforge.net/DTD/sodipodi-0.dtd"
   xmlns:inkscape="http://www.inkscape.org/namespaces/inkscape"
   width="209.99995mm"
   height="604.1958mm"
   viewBox="0 0 209.99995 604.19576"
   version="1.1"
   id="svg8"
   inkscape:version="0.92.1 r15371"
   sodipodi:docname="informant.svg">
  <defs
     id="defs2" />
  <sodipodi:namedview
     id="base"
     pagecolor="#ffffff"
     bordercolor="#666666"
     borderopacity="1.0"
     inkscape:pageopacity="0.0"
     inkscape:pageshadow="2"
     inkscape:zoom="0.49497475"
     inkscape:cx="-15.398671"
     inkscape:cy="1472.6367"
     inkscape:document-units="mm"
     inkscape:current-layer="layer1"
     showgrid="false"
     fit-margin-top="0"
     fit-margin-left="0"
     fit-margin-right="0"
     fit-margin-bottom="0"
     inkscape:window-width="1920"
     inkscape:window-height="1028"
     inkscape:window-x="0"
     inkscape:window-y="0"
     inkscape:window-maximized="1" />
  <metadata
     id="metadata5">
    <rdf:RDF>
      <cc:Work
         rdf:about="">
        <dc:format>image/svg+xml</dc:format>
        <dc:type
           rdf:resource="http://purl.org/dc/dcmitype/StillImage" />
        <dc:title></dc:title>
      </cc:Work>
    </rdf:RDF>
  </metadata>
  <g
     inkscape:label="Calque 1"
     inkscape:groupmode="layer"
     id="layer1"
     transform="translate(47.148057,180.63612)">
    <path
       style="fill:#000000;stroke-width:1.02763212"
       d="m -9.602473,422.57826 c -0.847796,-0.54787 -2.564578,-1.00322 -3.815071,-1.01189 -4.923149,-0.035 -13.318504,-4.13599 -16.456133,-8.04034 l -3.123635,-3.88696 1.429512,-19.91223 c 1.26404,-17.60729 3.13192,-31.10398 6.40442,-46.27626 0.548582,-2.54337 1.745651,-12.02327 2.66015,-21.06642 1.672924,-16.54293 2.346753,-21.71319 5.143001,-39.4617 0.83708,-5.31318 1.310787,-10.00206 1.052675,-10.4197 -0.496713,-0.80367 -2.813726,-1.28719 -14.294856,-2.98292 -14.087653,-2.08076 -18.015677,-4.64915 -16.086912,-10.51875 0.61684,-1.87716 2.053786,-9.19346 3.193209,-16.25843 1.139423,-7.06497 2.490829,-13.77028 3.003123,-14.90067 0.512295,-1.13039 1.72196,-5.52354 2.688146,-9.7625 0.966183,-4.23899 3.313561,-12.56279 5.216389,-18.49738 1.902832,-5.93458 3.459979,-11.31169 3.460332,-11.9492 10e-4,-1.8184 3.146259,-8.88329 3.705737,-8.3238 0.685263,0.68528 -1.603444,14.18287 -2.786356,16.43246 -0.523885,0.99632 -1.652269,5.13794 -2.507518,9.20368 -0.855253,4.06573 -2.270608,8.79978 -3.145238,10.52014 -1.62876,3.20369 -6.569938,25.5357 -6.569938,29.69329 0,1.27111 -0.410671,2.75039 -0.912596,3.28735 -0.501929,0.53692 -1.230506,4.0801 -1.619061,7.87369 l -0.706462,6.89745 2.9036,0.69457 c 1.596978,0.38218 3.382273,1.06743 3.967322,1.5231 0.585049,0.45566 6.134263,1.33736 12.331585,1.95938 6.197327,0.62198 12.930298,1.57118 14.962159,2.10938 5.356437,1.41881 41.004823,3.10127 49.856333,2.35306 6.63097,-0.56053 7.62867,-0.41667 8.24467,1.18857 0.38545,1.00447 0.18096,2.65869 -0.45444,3.6761 -0.63538,1.01744 -2.13408,10.08925 -3.33044,20.15963 -2.80017,23.57054 -3.77675,64.22876 -2.06903,86.14104 1.56811,20.12114 0.98899,22.62684 -5.39591,23.3465 -3.18626,0.35927 -6.53222,2.0507 -12.43753,6.28783 -4.86252,3.48889 -10.37406,6.46 -13.8446,7.46319 -3.17128,0.91669 -6.82821,2.07613 -8.1265,2.57654 -3.12483003,1.20442 -10.602843,1.1342 -12.540137,-0.11768 z M 6.589174,409.70351 c 10.48777,-1.68223 1.78192,-3.43657 -13.108751,-2.64164 -4.905575,0.26178 -10.27632,2.09435 -10.27632,3.50617 0,0.90236 16.07437097,0.308 23.385071,-0.86453 z m 95.820256,-2.69159 c -27.450476,-1.18818 -42.501166,-2.32335 -44.050796,-3.32246 -1.75325,-1.13035 -1.07432,-9.00295 2.61391,-30.31018 4.06305,-23.47258 4.31106,-27.1613 4.3786,-65.1251 l 0.0635,-35.71017 h -3.65736 c -2.17656,0 -3.40021,-0.41609 -3.02225,-1.02766 0.34933,-0.5652 4.3073,-1.02762 8.79553,-1.02762 h 8.16041 v -4.60961 c 0,-2.53529 0.45456,-6.58157 1.01014,-8.99176 1.86907,-8.10847 4.15514,-42.24564 4.14153,-61.84397 -0.007,-10.69166 0.2807,-19.14518 0.64028,-18.78557 0.35957,0.35966 0.77295,11.65069 0.9186,25.09134 0.14565,13.44065 0.75806,28.13703 1.36093,32.65862 1.7774,13.33078 4.57288,27.23226 5.47619,27.23226 0.46155,0 0.84626,1.04048 0.85491,2.31216 0.0334,4.89123 1.19676,5.38077 9.66106,4.06484 4.274516,-0.66454 8.585866,-1.64987 9.580756,-2.18962 0.9949,-0.53972 5.04595,-1.93394 9.00233,-3.09824 3.9564,-1.16429 11.12414,-4.0822 15.92829,-6.48428 l 8.73488,-4.36736 0.31343,-6.07844 c 0.35461,-6.88044 -2.3167,-31.99547 -3.79544,-35.68423 -2.10344,-5.24712 -4.40461,-17.88095 -5.26184,-28.8883 -0.49513,-6.35778 -1.50488,-12.83436 -2.24388,-14.39238 l -1.34366,-2.83273 -9.24869,0.46414 c -10.03474,0.50355 -9.21974,0.0416 1.73749,-0.98474 5.26743,-0.49342 6.96208,-1.04708 7.24511,-2.36712 0.8573,-3.99847 3.7065,5.13207 5.8757,18.82953 1.25316,7.91276 2.65131,15.31171 3.10705,16.44214 0.45575,1.13039 1.3585,5.21527 2.00615,9.07752 0.64765,3.86225 1.82534,8.949 2.61705,11.30397 2.00548,5.96518 4.19383,34.20389 2.78239,35.90456 -0.91075,1.09738 -7.10843,4.36181 -19.6934,10.37291 l -2.54353,1.21486 0.27071,25.15193 c 0.35266,32.77304 1.80395,49.19545 7.80719,88.35128 0.82325,5.36938 1.52753,10.73939 1.56509,11.93336 0.0621,1.97977 0.85482,2.23468 9.00341,2.89585 10.36836,0.8413 14.5124,2.31231 17.61083,6.25131 2.99189,3.80357 2.84065,4.4591 -1.44157,6.24833 -3.63831,1.52018 -25.46397,3.59748 -34.353,3.2696 -2.54342,-0.0936 -12.71696,-0.52084 -22.60792,-0.94897 z m 52.96579,-8.00003 c -1.0787,-1.74534 -11.70759,-3.31905 -17.51575,-2.59337 -6.94235,0.86741 -7.32974,2.27904 -0.76747,2.7965 10.43881,0.82309 18.85964,0.72952 18.28322,-0.20313 z M 5.298194,237.58526 c -10.736402,-1.51264 -22.116292,-3.77094 -22.887293,-4.54194 -0.409219,-0.40922 0.411106,-0.48565 1.822938,-0.16973 7.392842,1.65356 20.258015,2.67578 33.675825,2.67578 10.69901,0 14.71414,0.31771 13.92966,1.10219 -1.43918,1.43916 -18.65491,2.04491 -26.54113,0.93382 z m 43.34132,-11.79855 c 0.33041,-2.26077 1.00293,-4.54983 1.49451,-5.08675 0.49159,-0.53695 0.8938,-2.57938 0.8938,-4.53872 0,-1.95934 0.27991,-3.28253 0.62203,-2.94043 1.04239,1.04238 -0.71422,12.81626 -2.20938,14.80866 -1.23895,1.65092 -1.33194,1.39054 -0.80096,-2.24276 z m 58.042696,-2.56908 c 0,-1.41299 0.23327,-1.99104 0.51833,-1.28451 0.28508,0.7065 0.28508,1.86256 0,2.56905 -0.28508,0.70653 -0.51833,0.12856 -0.51833,-1.28454 z m 12.16933,1.65142 c 0,-0.22216 0.69365,-0.67006 1.54145,-0.99538 0.84778,-0.32548 1.54145,-0.14371 1.54145,0.40385 0,0.54745 -0.69367,0.99538 -1.54145,0.99538 -0.8478,0 -1.54145,-0.18177 -1.54145,-0.40385 z m 4.11052,-1.46915 c 0,-1.07811 8.18538,-3.64339 9.00622,-2.82255 0.32159,0.32198 -0.14721,0.58504 -1.04207,0.58504 -0.89487,0 -1.78123,0.39088 -1.96964,0.86865 -0.47357,1.20092 -5.99451,2.46165 -5.99451,1.36886 z m -17.23133,-7.37568 c 0,-1.97818 0.21149,-2.78745 0.46997,-1.79836 0.25848,0.98909 0.25848,2.60762 0,3.59671 -0.25848,0.98909 -0.46997,0.17983 -0.46997,-1.79835 z M -23.37038,204.41773 c -0.478609,-5.53582 -0.62315,-10.31212 -0.321203,-10.61406 0.804625,-0.80464 1.98829,11.7733 1.559213,16.56856 -0.241427,2.69808 -0.666826,0.652 -1.23801,-5.9545 z m 76.175204,-5.34942 c 0.2972,-7.34757 0.71258,-13.55193 0.92311,-13.78742 0.66826,-0.7475 0.19249,14.56619 -0.65185,20.98083 -0.5295,4.0227 -0.62378,1.52247 -0.27126,-7.19341 z m 51.358486,9.74863 c -0.29759,-1.13804 -0.16006,-3.33458 0.30563,-4.88125 0.73123,-2.42857 0.85877,-2.14632 0.93505,2.0691 0.0938,5.18719 -0.3541,6.2025 -1.24069,2.81215 z m -116.84868,-14.373 c 0,-0.56519 0.720945,-1.02762 1.602096,-1.02762 0.881151,0 1.316295,0.46243 0.966983,1.02762 -0.349324,0.5652 -1.070253,1.02762 -1.602092,1.02762 -0.531843,0 -0.966987,-0.46242 -0.966987,-1.02762 z m -11.141694,-4.11051 c 0,-1.41299 0.233232,-1.99104 0.518323,-1.28455 0.285083,0.7065 0.285083,1.8626 0,2.56909 -0.285083,0.70649 -0.518323,0.12856 -0.518323,-1.28454 z m 1.893005,-8.66093 c 0,-0.88846 0.359034,-1.61542 0.797879,-1.61542 0.438834,0 0.621481,-1.84974 0.405878,-4.11052 -0.243408,-2.55223 0.03845,-4.11051 0.74357,-4.11051 0.639743,0 1.13557,1.79478 1.13557,4.11051 0,2.53025 0.477906,4.11052 1.243097,4.11052 0.683702,0 7.178397,-0.72529 14.432649,-1.61181 7.25426,-0.88651 13.73763,-1.4291 14.40749,-1.20581 0.66987,0.22333 -3.16583,1.00023 -8.52376,1.72657 -5.35794,0.72634 -10.435357,1.67345 -11.283157,2.10469 -0.847795,0.43119 -4.200444,1.10646 -7.450332,1.5006 -4.991367,0.60528 -5.908884,0.46573 -5.908884,-0.89882 z m 91.535193,-1.01011 c -0.82263,-0.99118 -0.86244,-1.66066 -0.12584,-2.1159 0.59265,-0.36626 1.07754,-1.53623 1.07754,-2.59993 0,-2.61243 1.57866,-3.41027 4.08928,-2.06661 2.29789,1.22977 2.76189,5.08072 0.84335,6.99925 -1.65906,1.65907 -4.41168,1.55766 -5.88433,-0.21673 z m 4.87679,-2.83696 c -0.38241,-2.59903 -2.89746,-3.85821 -2.89746,-1.4507 0,0.89491 0.57804,1.63418 1.28454,1.64284 0.85636,0.0117 0.77073,0.348 -0.25692,1.01189 -1.30517,0.84348 -1.25483,0.99857 0.32839,1.01189 1.33822,0.0117 1.77646,-0.61876 1.54144,-2.21592 z m -20.28607,1.6322 c 0.0493,-1.19712 0.29281,-1.4406 0.62085,-0.62085 0.29685,0.74183 0.26034,1.62815 -0.0811,1.96963 -0.34147,0.3414 -0.58435,-0.26566 -0.53973,-1.34878 z m 58.301216,-1.13016 c 0.74182,-0.29673 1.62815,-0.26022 1.96963,0.0812 0.34148,0.3414 -0.26547,0.58434 -1.34877,0.53976 -1.19714,-0.0493 -1.44063,-0.29285 -0.62086,-0.62086 z M -24.947405,177.995 c -0.03806,-0.28624 0.360587,-2.02043 0.886348,-3.85363 0.90795,-3.16581 0.817745,-3.3338 -1.798357,-3.34875 -1.514839,-0.008 -3.406092,-0.42836 -4.202779,-0.93269 -2.347456,-1.48605 0.48701,-6.77278 6.22552,-11.61158 2.742032,-2.31208 4.985511,-4.58199 4.985511,-5.04422 0,-0.46219 -1.338232,-1.53238 -2.973847,-2.37819 -4.517687,-2.33621 -9.154545,-7.43038 -11.55038,-12.68955 -1.867348,-4.09908 -2.218971,-7.2724 -2.636567,-23.79443 -0.517631,-20.479827 -0.115547,-24.586557 7.475687,-76.355047 0.393679,-2.68469 1.115354,-4.88125 1.603731,-4.88125 1.198153,0 1.016616,14.67052 -0.260691,21.06645 -2.963142,14.83763 -5.049122,33.99229 -5.651517,51.895427 -0.958559,28.48835 1.028932,35.62932 11.46698,41.20041 8.205798,4.37968 8.719102,7.52224 1.805938,11.05633 -2.147032,1.09757 -5.487384,3.51184 -7.423008,5.36508 -3.213817,3.07699 -3.347624,3.43121 -1.541449,4.08076 2.20483,0.79295 5.237207,0.65014 10.96965,-0.51664 2.492958,-0.50744 3.853623,-0.40561 3.853623,0.28857 0,1.07528 -3.37699,2.57775 -6.050284,2.69182 -1.43608,0.0614 -2.101547,0.99962 -4.051627,5.71285 -0.584618,1.41298 -1.09424,2.3348 -1.132493,2.04848 z m 38.466649,-2.04848 c 0.34933,-0.56519 1.5327,-1.02761 2.62974,-1.02761 1.09704,0 1.99461,0.46242 1.99461,1.02761 0,0.5652 -1.18338,1.02762 -2.62973,1.02762 -1.49146,0 -2.35482,-0.44479 -1.99462,-1.02762 z m 6.67961,-1.02761 c 0,-0.5652 0.69366,-1.02766 1.54145,-1.02766 0.8478,0 1.54145,0.46246 1.54145,1.02766 0,0.56519 -0.69365,1.02761 -1.54145,1.02761 -0.84779,0 -1.54145,-0.46242 -1.54145,-1.02761 z m 6.1658,-1.02766 c -1.24012,-0.80142 -1.0776,-0.99923 0.83137,-1.01189 1.32315,-0.008 2.09186,0.43885 1.73771,1.01189 -0.76373,1.23576 -0.65693,1.23576 -2.56908,0 z m 53.73078,-4.62433 c 0.008,-2.82601 0.20729,-3.86011 0.4435,-2.29806 0.23622,1.56209 0.22989,3.87425 -0.014,5.13817 -0.24392,1.26392 -0.43718,-0.0155 -0.42947,-2.84011 z m -42.94065,0.8685 c 1.1304,-1.08973 4.25892,-3.49219 6.95229,-5.33875 2.69336,-1.84659 5.64816,-4.5038 6.56623,-5.90498 1.56262,-2.38487 1.54522,-2.64214 -0.2727,-4.02946 -2.11151,-1.61138 -8.07344,-3.564 -10.90998,-3.57313 -2.20352,-0.008 -4.48567,-3.49056 -5.38974,-8.22682 -0.83213,-4.35929 -4.45113,-16.36174 -5.57737,-18.49736 -0.44709,-0.8478 -1.86991,-5.00971 -3.16182,-9.24869 -1.29191,-4.23899 -2.67424,-8.16968 -3.07185,-8.73488 -0.3976,-0.56519 -1.77636,-4.49589 -3.06391,-8.734867 -1.28753,-4.23898 -2.92753,-9.09454 -3.64442,-10.79013 -0.7169,-1.6956 -2.59302,-6.78238 -4.16919,-11.30396 -1.57616,-4.52158 -3.18826,-8.45227 -3.58245,-8.73487 -0.39418,-0.2826 -1.76508,-3.40403 -3.04643,-6.93652 -1.28136,-3.53249 -2.6763,-6.4227 -3.09988,-6.4227 -0.42357,0 -1.01249003,-1.04048 -1.30871003,-2.31217 -0.49523,-2.12608 -4.52908597,-13.2347 -6.34376297,-17.46975 -0.440286,-1.02754 -0.330098,-1.79836 0.257041,-1.79836 1.045377,0 2.610202,2.68573 2.746722,4.71424 0.0684,1.01595 4.91852,12.13104 9.82591,22.51802 1.06812,2.26078 2.8394,6.65391 3.93617,9.7625 1.09677,3.10859 3.19845,8.28135 4.67039,11.49501 1.47193,3.21368 2.67624,6.38083 2.67624,7.03812 0,0.65731 0.63943,2.65228 1.42097,4.43329 0.78152,1.78101 2.01511,4.85672 2.7413,6.83491 1.65306,4.503047 3.00162,6.305347 4.17523,5.580017 0.50115,-0.30975 0.91119,-0.12289 0.91119,0.41518 0,0.53809 0.69254,1.24409 1.53898,1.5689 1.78531,0.68509 8.73734,-3.11751 8.73734,-4.77912 0,-0.61739 0.59043,-0.31507 1.31206,0.67181 1.57485,2.15374 7.45755,3.6067 11.01953,2.7217 3.09549,-0.7691 7.19342,-0.12266 7.19342,1.13474 0,0.4993 -2.31217,0.90783 -5.13816,0.90783 -2.82599,0 -5.13816,0.40007 -5.13816,0.88905 0,0.48897 0.95843,2.1075 2.12985,3.59671 2.4239,3.08148 6.52178,3.59205 7.97587,0.99374 0.78559,-1.40376 1.09743,-1.0844 1.72319,1.76463 1.35406,6.16499 2.50509,7.14272 8.40875,7.14272 2.94604,0 6.41867,-0.43299 7.71696,-0.96221 1.2983,-0.52921 3.9834,-1.22294 5.96693,-1.54164 l 3.60642,-0.57942 -0.0773,-7.32549 c -0.0907,-8.5934 -1.36839,-10.14388 -8.35958,-10.14388 -3.96072,0 -4.42793,-0.2544 -4.42793,-2.411197 0,-1.32616 -0.66506,-3.75394 -1.47792,-5.39507 -0.81286,-1.64112 -2.41495,-5.18043 -3.56019,-7.86512 -1.24216,-2.91187 -2.74339,-4.88125 -3.72089,-4.88125 -0.90124,0 -1.35282,-0.46244 -1.0035,-1.02764 0.34932,-0.56519 0.11807,-1.02763 -0.51382,-1.02763 -0.63191,0 -0.86539,-0.45878 -0.51884,-1.01949 0.34652,-0.56072 0.1077,-1.83241 -0.53076,-2.82599 -1.0959,-1.70543 -1.12842,-1.70289 -0.58121,0.0452 0.3515,1.12289 0.16336,1.59444 -0.47803,1.19805 -0.58171,-0.35954 -0.77704,-1.53781 -0.43407,-2.61843 0.59226,-1.86604 -0.76865,-7.59914 -2.7214,-11.46445 -1.45811,-2.88621 -1.04377,-19.0751 0.62149,-24.28229 0.83763,-2.61924 2.40216,-7.8837 3.47672,-11.69879 l 1.95377,-6.93651 h -11.56934 c -14.79015,0 -18.20057,-0.63894 -17.78837,-3.33266 0.17059,-1.11474 2.15989,-3.11192 4.42068,-4.43819 9.0003,-5.2798898 22.73057,-12.5925198 24.82515,-13.2216598 2.33684,-0.70193 3.83829,-3.21397 2.86361,-4.79103 -0.31779,-0.5142 -5.05925,-1.03 -10.53657,-1.14622 l -9.95876,-0.21133 9.24869,-0.34781 c 11.58613,-0.43568 14.11369,0.12204 13.68284,3.01916 -0.31686,2.13047 -6.54833,6.17774999 -17.03055,11.06114 -2.40645,1.1211 -4.94984,2.53147 -5.65198,3.13417 -0.70215,0.60269 -2.2015,1.7589698 -3.3319,2.5695198 -1.9406,1.39151 -1.8546,1.47523 1.54145,1.50067 9.5017,0.0712 17.59523,-4.5961898 24.32582,-14.0282598 2.54556,-3.56729 4.83079,-6.48597 5.07829,-6.48597 0.89889,0 -3.00206,6.70185 -4.36635,7.50139999 -2.17316,1.2736 -1.65779,4.42635001 1.00921,6.17384001 1.32629,0.86902 3.00091,3.00316 3.72138,4.7425398 0.72048,1.73937 1.99698,3.1625 2.83668,3.1625 1.05824,0 1.29369,0.55182 0.76727,1.79835 -0.41769,0.9891 -1.65495,5.02856 -2.74945,8.97657 -2.13538,7.70259 -2.496,8.44577 -3.57477,7.36701 -0.38389,-0.3839 0.0939,-2.35876 1.06192,-4.38859 2.16325,-4.53637 3.31904,-12.23355 1.96282,-13.07174 -1.73712,-1.0736 -6.75796,12.98876 -5.95035,16.66575 0.38937,1.77277 1.13275,2.96068 1.65195,2.63979 0.51921,-0.32089 0.94402,0.97793 0.94402,2.88626 0,3.29188 0.28112,3.55831 5.48538,5.19881 7.36917,2.32293 8.42,2.20873 10.8308,-1.17692 3.33743,-4.68699 10.30542,-11.51558 19.055476,-18.67424 4.49048,-3.67378 8.3328,-7.20682 8.53849,-7.8512 0.40826,-1.2789 -7.92494,-4.4803598 -11.66215,-4.4803598 -1.27896,0 -2.611176,-0.46244 -2.960486,-1.02764 -0.34932,-0.56519 -1.72608,-1.02763 -3.05949,-1.02763 -1.33342,0 -3.12011,-0.26698 -3.97042,-0.59327 -1.34925,-0.51775 -1.32724,-0.85256 0.17287,-2.63025 4.66423,-5.52731 9.220196,-9.27337 14.455096,-11.8854 3.16865,-1.58106 5.99239,-3.1532702 6.27499,-3.4938302 0.2826,-0.34055 2.9416,-1.4182 5.90889,-2.39476 2.9673,-0.97656 5.39505,-1.98981 5.39505,-2.25165 0,-2.75568 -13.43909,-10.59586 -24.663156,-14.38814 -3.10858,-1.05031 -5.88319,-2.15745 -6.16579,-2.46034 -0.2826,-0.30287 -1.6699,-1.05239 -3.08289,-1.66558 -2.48455,-1.07819 -2.61042,-0.942 -3.82524,4.13897 l -1.25616,5.25384 0.47813,-7.19343 c 0.26298,-3.95638 0.48141,-15.86407 0.48543,-26.46152 0.005,-13.28175 0.35725,-19.26811 1.13366,-19.26811 0.78985,0 1.02673,6.04008 0.79289,20.21748 -0.28272,17.13912 -0.10215,20.291 1.18581,20.70026 2.02998,0.64503 22.685746,10.25552 24.641016,11.46469 0.84779,0.5243 3.60548,1.98993 6.12819,3.25696 5.39692,2.71059 8.25866,4.99809 8.25866,6.60147 0,2.19052 -3.66525,4.45947 -8.2479,5.1058 -7.58523,1.0698102 -7.66206,1.2589302 -2.24951,5.5373102 6.12454,4.84116999 7.03533,7.60642 4.4803,13.60271 l -1.8999,4.4587698 2.56938,3.37963 c 2.34813,3.08856 2.44565,3.61085 1.13252,6.06467 -1.42001,2.65356 -1.40556,6.51528 0.0272,7.51163 0.40665,0.2826 1.54628,3.51964 2.53254,7.19343 2.80589,10.4521 2.87627,11.02282 0.88702,7.19342 -2.72639,-5.24841 -6.63529,-20.32954 -5.88331,-22.69878 0.38645,-1.21697 -0.19342,-3.45797 -1.44111,-5.57294 -1.89124,-3.2054 -1.94762,-3.80496 -0.60068,-6.3871598 1.83031,-3.50883 1.93234,-8.04408 0.21458,-9.53719001 -0.70649,-0.61411 -3.68293,-2.66735999 -6.61429,-4.56276999 l -5.32975,-3.44623 -6.18222,4.49848 c -5.244186,3.81593999 -8.335216,7.1365 -8.335216,8.95422 0,0.23801 3.07428,0.71986 6.83175,1.07073 3.757446,0.35088 8.598436,1.55882 10.757736,2.68431 3.67583,1.9159498 3.99156,1.9338798 4.95478,0.28136 0.56582,-0.97074 1.04283,-1.21424 1.06001,-0.54109 0.0171,0.67314 -0.43118,1.5096898 -0.99638,1.8589998 -0.56519,0.34933 -1.02763,1.69482 -1.02763,2.99001 0,1.64583 -1.88438,3.87091 -6.25821,7.38969 -7.83918,6.3067 -24.570756,22.06704 -24.570756,23.14448 0,1.11 19.432746,7.24561 20.621476,6.51094 0.52734,-0.3259 0.96588,-4.14915 0.97453,-8.49608 0.009,-4.86881 0.35818,-7.36293 0.90758,-6.49566 0.7201,1.13674 1.10682,1.0378 2.00828,-0.51382 0.93426,-1.60808 1.12154,-1.64873 1.14769,-0.24911 0.0171,0.91988 -0.68187,2.26435 -1.55346,2.98771 -1.1986,0.99475 -1.51158,2.9659 -1.28454,8.08998 l 0.30019,6.77478 4.88125,1.46571 c 4.52452,1.35861 6.57448,3.15864 3.59717,3.15864 -0.70624,0 0.68106,1.79631 3.0829,3.99181 2.40184,2.1955 4.36697,4.60992 4.36697,5.36539 0,0.75546 -2.8982,-1.49889 -6.44046,-5.00965 -5.61072,-5.56086 -7.49731,-6.72786 -14.64376,-9.05831 -4.511806,-1.4713 -9.590586,-3.28386 -11.286176,-4.02792 -1.69559,-0.74406 -5.16386,-1.89592 -7.70725,-2.5597 -2.54339,-0.66377 -7.74633,-2.78632 -11.56209,-4.71676 -3.81578,-1.93042 -7.65686,-3.50988 -8.53575,-3.50988 -0.90827,0 -2.49027,2.01713 -3.66527,4.6734 -1.88153,4.25352 -1.97621,5.58222 -1.05376,14.78941 0.99282,9.90973 2.60552,14.87605 5.6515,17.40399 1.77207,1.4707 2.18357,0.54989 3.30681,-7.39963 0.50959,-3.60657 1.00885,-4.65027 1.83116,-3.82797 0.8223,0.8223 0.81312,1.63881 -0.0338,2.99471 -0.64031,1.02528 -1.48654,4.44409 -1.88051,7.59732 -0.98604,7.89208 1.06706,11.30584 8.14748,13.54698 2.87375,0.90963 7.07474,3.2178 9.33553,5.1293 l 4.11053,3.47543 -4.29662,-0.78065 c -2.36315,-0.42935 -5.75128,-2.00465 -7.52918,-3.50067 -4.29291,-3.61224 -5.53966,-3.48313 -4.74477,0.49134 0.35325,1.76625 0.64227,3.8472 0.64227,4.62435 0,0.96753 1.31902,1.41299 4.18394,1.41299 2.44039,0 4.85953,0.67561 5.80516,1.621247 0.9554,0.95539 2.50795,1.3832 3.78023,1.04166 1.18743,-0.31876 3.0399,-0.5859 4.11661,-0.59362 1.8925,-0.0136 1.89575,-0.0824 0.0976,-2.069287 -2.37637,-2.62586 -0.57143,-2.6297 4.09502,-0.008 6.320676,3.550117 16.963026,5.361107 29.265006,4.979997 9.50146,-0.29437 11.63791,-0.67858 14.09642,-2.53499 2.77416,-2.094797 2.89161,-2.532707 2.75556,-10.276317 -0.11031,-6.27829 -1.00129,-10.73288 -3.98149,-19.90606 -2.11167,-6.49977 -4.26673,-12.35465 -4.78905,-13.01082 -0.5829,-0.7323 -0.57587,-1.42408 0.0194,-1.79126 0.53234,-0.32901 1.27899,0.64135 1.65927,2.15634 0.38024,1.515 2.27041,6.12732 4.20039,10.24961 1.92998,4.1223 4.01109,9.70046 4.6246,12.39594 0.61355,2.69547 1.54729,5.70384 2.07501,6.68527 1.25106,2.32668 1.23665,6.95046 -0.0233,6.95046 -0.5396,0 -1.27735,1.57936 -1.6395,3.50968 -0.36198,1.930337 -1.81392,4.589337 -3.22621,5.908887 -2.41649,2.25779 -3.25861,2.38521 -14.28883,2.16181 -6.44654,-0.13058 -11.72073,0.10059 -11.72041,0.51381 3.2e-4,0.41316 1.83571,3.73471 4.07865,7.38122 2.24294,3.64649 4.37616,8.61766 4.74044,11.04704 0.36431,2.42937 1.07232,4.41704 1.57335,4.41704 0.501,0 0.91095,0.83238 0.91095,1.84974 0,1.01736 0.40995,2.28905 0.91098,2.82599 1.01908,1.09204 3.55088,14.8405 2.86011,15.53126 -0.24274,0.24275 -0.7696,-1.31421 -1.17062,-3.46006 -0.40102,-2.14586 -1.10192,-4.36396 -1.55755,-4.92916 -0.45567,-0.5652 -1.79062,-4.27769 -2.96657,-8.24999 -2.23961,-7.56521 -9.29549,-22.12715 -12.06205,-24.89371 -1.37397,-1.37396 -1.75329,-1.39848 -2.53888,-0.1641 -0.50797,0.79816 -0.69197,2.08073 -0.4089,2.85016 0.33593,0.91308 -0.0171,1.19484 -1.01679,0.81128 -0.8423,-0.32322 -3.50654,0.30878 -5.92053,1.40446 -2.413986,1.09568 -5.456846,2.0023 -6.761906,2.01471 -1.46004,0.014 -2.10412,0.45732 -1.67434,1.15273 0.47031,0.76096 -0.0422,0.73376 -1.56881,-0.0832 -3.22002,-1.72331 -3.71788,-0.59111 -1.16639,2.65258 1.20274,1.52904 1.91443,3.05246 1.58152,3.38536 -0.33289,0.33289 -1.00137,-0.0845 -1.48548,-0.92761 -0.48411,-0.84308 -1.59081,-2.45775 -2.45932,-3.58815 -1.27418,-1.65837 -1.58543,-1.73984 -1.61181,-0.42186 -0.0529,2.64315 -5.0556,4.24214 -14.93335,4.77305 -8.41395,0.45224 -9.47783,0.29608 -11.78753,-1.73034 -2.39099,-2.09775 -2.61539,-2.12275 -3.85361,-0.42939 -0.72315,0.98843 -1.3148,1.24674 -1.3148,0.57352 0,-0.67322 -1.15608,-1.22404 -2.56908,-1.22404 -2.05526,0 -2.56908,0.51381 -2.56908,2.56908 0,1.41299 -0.46243,2.56908 -1.02763,2.56908 -0.5652,0 -1.02763,-0.95217 -1.02763,-2.11592 0,-1.16375 -0.46244,-1.83011 -1.02763,-1.48079 -0.5652,0.34932 -1.02764,0.16277 -1.02764,-0.41451 0,-0.91473 -13.09921,-0.46256 -14.23463,0.49137 -0.43712,0.36723 2.64475,10.33666 4.15817,13.45111 0.59439,1.22321 1.37063,4.89255 1.72497,8.15409 l 0.64425,5.93008 7.01572,2.12223 c 4.05676,1.22714 7.45511,2.91259 8.05752,3.99618 1.615,2.90501 -0.74665,7.25516 -5.34041,9.83703 -4.80005,2.69776 -5.86407,4.13529 -3.9556,5.3441 1.08263,0.68571 0.93211,0.90403 -0.63907,0.92675 -1.13039,0.0155 -3.21135,0.31771 -4.62434,0.66995 -2.56046,0.63802 -2.56219,0.63351 -0.51382,-1.34117 z m 55.94077,-59.76748 c 3.41773,-2.07845 7.990096,-7.3833 6.36383,-7.3833 -0.57416,0 -1.6482,0.8325 -2.38676,1.84999 -3.35868,4.62726 -8.18826,5.96084 -10.31885,2.84931 -0.41524,-0.60642 -0.76207,0.16911 -0.77072,1.7234 -0.019,3.42638 2.4987,3.76642 7.1125,0.9606 z M 46.726874,15.379043 c 0.28384,-1.49643 -0.4338,-1.79836 -4.27453,-1.79836 -2.5386,0 -5.3607,0.2859 -6.27134,0.63536 -1.48804,0.57101 -1.47053,0.77867 0.17288,2.05068 2.63649,2.04068 9.93603,1.41602 10.37301,-0.88768 z m -1.34067,153.357327 c 0.355,-0.5744 1.07595,-0.77834 1.6021,-0.45314 1.42537,0.88088 1.15959,1.49754 -0.64547,1.49754 -0.88116,0 -1.31163,-0.46996 -0.95663,-1.0444 z m -51.905781,-0.71426 c 0,-0.55906 4.232951,-1.31693 9.406561,-1.68416 13.46625,-0.95588 18.57344,-0.84993 17.81973,0.36975 -0.35259,0.57052 -3.73254,0.95942 -7.51098,0.86422 -3.77845,-0.0952 -9.76013,0.19575 -13.29261003,0.64691 -4.10234697,0.52372 -6.42270097,0.45268 -6.42270097,-0.19652 z m 34.682581,-3.03244 c 0.7065,-0.28508 1.86259,-0.28508 2.56908,0 0.7065,0.28508 0.12845,0.51831 -1.28454,0.51831 -1.41299,0 -1.99103,-0.23303 -1.28454,-0.51831 z m -39.820743,-10.49754 c 0,-0.49602 0.769363,-1.5365 1.709694,-2.3122 1.550288,-1.27888 1.594825,-1.19479 0.477661,0.90182 -1.274173,2.39127 -2.187355,2.98005 -2.187355,1.41038 z m 6.74568,-0.42708 c 0.385911,-1.01344 0.960523,-1.5838 1.276913,-1.26742 0.31639,0.31655 6.5e-4,1.14562 -0.701651,1.84271 -1.014903,1.00735 -1.132941,0.88931 -0.575262,-0.57529 z m 82.938203,-11.00273 c 0,-2.54337 0.20041,-3.58385 0.44535,-2.31215 0.24496,1.27169 0.24496,3.35263 0,4.62435 -0.24493,1.27169 -0.44535,0.2311 -0.44535,-2.3122 z m -10.41591,-3.71686 c -1.60942,-1.12728 -2.21692,-2.44933 -1.99732,-4.34663 0.2744,-2.37095 0.78476,-2.72663 3.91229,-2.72663 3.0912,0 3.63965,0.36863 3.90226,2.6227 0.18204,1.56246 -0.46453,3.3196 -1.59939,4.34664 -1.74254,1.57698 -2.10211,1.58584 -4.21784,0.10393 z m 8.84039,-3.36279 c -0.27926,-1.06783 -0.10906,-2.57075 0.37822,-3.33981 0.60233,-0.95069 0.89098,-0.3292 0.90168,1.94151 0.0175,3.73893 -0.51552,4.32136 -1.27991,1.3983 z m -12.46142,-18.75416 c -1.01328,-1.18343 -2.08022,-4.56991 -2.39223,-7.59294 l -0.56319,-5.45678 5.01644,-0.75593 c 2.75904,-0.41575 6.62821,-0.80003 8.59818,-0.85396 3.4588,-0.0947 3.62531,0.0764 4.85065,4.98317 1.92129,7.69365 1.05897,9.59988 -4.67812,10.34131 -2.63005,0.33989 -5.73159,0.80998 -6.8923,1.04464 -1.26951,0.25665 -2.83917,-0.42451 -3.93943,-1.70951 z m 45.613646,-3.00052 c 0,-0.59856 0.46244,-0.80249 1.02764,-0.45317 0.56519,0.34932 1.02763,0.83904 1.02763,1.08828 0,0.24924 -0.46244,0.45317 -1.02763,0.45317 -0.5652,0 -1.02764,-0.48973 -1.02764,-1.08828 z M 62.602814,101.21964 c 1.56206,-0.23622 3.87424,-0.22989 5.13816,0.014 1.26393,0.24391 -0.014,0.43718 -2.84012,0.42947 -2.82599,-0.008 -3.8601,-0.20729 -2.29804,-0.4435 z m -66.80622,-1.831667 c 0.159592,-1.29683 1.95939,-2.87908 4.87725997,-4.28769 3.67936003,-1.77623 4.25371003,-2.37739 2.81063003,-2.94183 -0.99755,-0.39017 -2.68049003,-0.48274 -3.73987003,-0.20569 -1.05937997,0.27704 -2.55537997,0.10502 -3.32444997,-0.38226 -0.887136,-0.56207 0.57391,-0.89169 3.99677997,-0.90168 6.76018003,-0.0198 7.40407003,2.36821 1.33253003,4.94184 -2.23440003,0.94712 -4.54477,2.64691 -5.13416,3.77731 l -1.071629,2.055257 z m -6.410964,-7.39207 c -0.0202,-1.55982 4.057449,-4.452 6.121802,-4.34224 0.863342,0.046 0.256303,0.66415 -1.348986,1.37389 -1.605277,0.70973 -3.332324,1.94387 -3.837884,2.74252 -0.589986,0.93203 -0.92483,1.01292 -0.934932,0.22581 z m 67.037264,-2.02338 c -1.85681,-0.74924 -1.57713,-3.87744 0.51382,-5.74702 1.74769,-1.56267 3.65078,-2.16469 6.05438,-1.91521 1.74673,0.1813 2.70692,5.22173 1.31436,6.89965 -1.16669,1.40578 -5.29804,1.80546 -7.88256,0.76258 z m -53.69378,-5.42457 c 0,-0.53184 0.45714,-1.24951 1.01586,-1.59482 0.58252,-0.36001 0.7548,0.0525 0.40387,0.96698 -0.68316,1.78029 -1.41973,2.10602 -1.41973,0.62784 z M 118.85154,58.796503 c -0.92619,-0.59856 -1.05294,-1.00245 -0.31755,-1.0119 0.67314,-0.008 1.50969,0.4467 1.85901,1.0119 0.78851,1.27584 0.43274,1.27584 -1.54145,0 z m -75.076236,-4.88125 c -5.10036,-7.03754 -5.35799,-7.49878 -3.83657,-6.86875 1.5859,0.65675 9.28941,11.75 8.15957,11.75 -0.43196,0 -2.3773,-2.19656 -4.323,-4.88125 z m -11.00753,-15.6714 c -1.75157,-3.10858 -3.74,-6.27729 -4.41873,-7.04156 -0.67872,-0.76427 -2.13747,-3.77009 -3.24166,-6.67961 -1.10418,-2.90951 -2.50199,-5.88766 -3.10622,-6.61811 -0.70144,-0.84795 -0.74218,-1.68454 -0.11268,-2.31403 0.62949,-0.62949 1.68413,0.95566 2.91716,4.3846 1.06217,2.95381 3.46599,8.08585 5.34183,11.40455 1.87583,3.31868 3.41061,6.28539 3.41061,6.59269 0,0.3073 0.75728,1.11245 1.68285,1.78925 0.92557,0.67678 1.4643,1.88385 1.19719,2.68237 -0.29215,0.87339 -1.7545,-0.80002 -3.67034,-4.20015 z M 0.60352397,35.799983 C 1.675924,33.890653 2.761134,31.231653 3.015104,29.891103 c 0.46152,-2.43615 0.46182,-2.4362 0.6017,-0.0922 0.17761,2.97605 -2.49753,9.47257 -3.90060003,9.47257 -0.58438,0 -0.18507,-1.56218 0.88732,-3.47151 z M -2.327916,32.506243 c 0.0493,-1.19713 0.29281,-1.44063 0.62086,-0.62086 0.29685,0.74182 0.26034,1.62815 -0.0811,1.96963 -0.34148,0.34148 -0.58435,-0.26547 -0.53973,-1.34877 z M 109.6724,29.971413 c 0.0654,-3.32951 0.13835,-3.40253 1.19963,-1.19962 0.83558,1.7344 0.81745,2.65833 -0.0696,3.54533 -0.91442,0.91442 -1.18309,0.3567 -1.13008,-2.34571 z m -136.623037,-2.20013 c 0.06688,-2.43545 0.474593,-5.8154 0.906051,-7.51099 0.608178,-2.39011 0.811784,-1.53775 0.906047,3.79297 0.06688,3.78173 -0.340856,7.16168 -0.906047,7.51099 -0.63062,0.38974 -0.980662,-1.07563 -0.906051,-3.79297 z m 19.403429,1.7377 c 0,-0.84779 0.462433,-1.54145 1.027631,-1.54145 0.565198,0 1.027635,0.69366 1.027635,1.54145 0,0.8478 -0.462437,1.54145 -1.027635,1.54145 -0.565198,0 -1.027631,-0.69365 -1.027631,-1.54145 z m 4.316052,-7.39895 c -1.520678,-4.95483 -0.784705,-5.6908 0.82211,-0.82211 0.67786,2.05393 1.03263,3.93427 0.78838,4.17851 -0.24426,0.24426 -0.96897,-1.26614 -1.61049,-3.3564 z m 21.36983,-5.18954 c -0.53993,-1.55429 -1.64281,-4.06239 -2.45083,-5.57353 -0.80803,-1.5111398 -1.20467,-3.0120098 -0.88142,-3.3352498 0.6648,-0.66481 4.3648,7.1273798 4.3648,9.1922698 0,0.73898 0.57805,1.57684 1.28454,1.86192 1.01059,0.40777 1.00516,0.53562 -0.0252,0.59944 -0.72049,0.0446 -1.75174,-1.19056 -2.29167,-2.74485 z m -44.572604,-2.6959 c -0.376006,-1.49811 -1.90557,-2.95089 -3.965022,-3.76597 -3.685058,-1.4584198 -6.949588,-3.9173398 -6.949588,-5.2345698 0,-1.28966 5.104965,-4.35069001 5.911195,-3.54447 0.389891,0.3899 0.02874,1.14043 -0.802796,1.66786 -1.214869,0.77067 -0.553255,1.78428 3.369564,5.16224 2.684689,2.3118098 4.881253,5.0921698 4.881253,6.1785998 0,2.78473 -1.710743,2.46024 -2.444606,-0.46369 z m 102.124924,-2.5817 c 0,-0.50059 0.73639,-2.2347198 1.63643,-3.8536198 1.53486,-2.76075 1.59952,-2.78399 1.04167,-0.37438 -0.32714,1.41299 -0.60109,3.1471198 -0.60881,3.8536198 -0.008,0.7065 -0.47646,1.28454 -1.04166,1.28454 -0.5652,0 -1.02763,-0.40957 -1.02763,-0.91016 z M 10.494924,5.1805132 c -1.06965,-3.01007 -2.38893,-5.76799001 -2.93171,-6.12869001 -0.54279,-0.36070999 -0.62756,-1.23721999 -0.18841,-1.94780999 0.7888,-1.27631 5.89464,10.89095 5.32976,12.70084 -0.14564,0.4666898 -1.14,-1.61426 -2.20965,-4.62434 z m 68.44122,-3.93141 c 0,-1.41300001 0.23327,-1.99104001 0.51833,-1.28454001 0.28508,0.7065 0.28508,1.86258001 0,2.56908001 -0.28509,0.70649 -0.51833,0.12844 -0.51833,-1.28454 z m -106.008364,0 c 0,-0.56520001 0.693652,-1.02763001 1.541448,-1.02763001 1.868509,0 1.96172,-1.43810999 0.287452,-4.43499999 -4.289415,-7.6779302 -4.912861,-14.5327002 -1.693948,-18.6248802 3.04192,-3.86718 6.198569,-4.81346 16.149549,-4.84119 l 8.612743,-0.0241 -0.44565,-5.81939 c -0.39985,-5.22118 -0.89433,-6.263 -4.810366,-10.13491 -3.652884,-3.61171 -4.311561,-4.86866 -4.038817,-7.70724 l 0.325903,-3.39177 11.81776997,0.0101 c 6.49977003,0.005 14.67132003,0.40802 18.15898003,0.89424 l 6.34122,0.88403 0.71909,-4.79533 c 0.39552,-2.63744 0.46421,-5.05024 0.15264,-5.36179 -0.31153,-0.31157 -3.7199,0.23991 -7.57413,1.22545 -13.65988,3.49293 -27.843644,2.91452 -31.322564,-1.27733 -1.655548,-1.99481 2.224089,-5.84629 9.225374,-9.15843 5.47852,-2.59176 13.18113,-5.54535 14.44799,-5.54013 1.05007,0.004 -10.39096003,6.65981 -13.92794,8.10218 -3.630232,1.4804 -7.189349,4.90458 -6.163804,5.93012 0.364743,0.36471 5.287737,0.88582 10.940034,1.158 11.7787,0.56718 21.00099,-0.87127 27.7768,-4.33251 6.99618,-3.57381 10.59151,-4.32564 5.4352,-1.13657 -3.48613,2.15611 -4.44845,3.41878 -4.95051,6.49566 -1.29132,7.91387 -1.79172,9.99965 -2.51881,10.49892 -0.41157,0.28259 -1.73046,3.51964 -2.9309,7.19342 -2.0991,6.42404 -2.17586,6.14789 -0.64275,-2.31217 l 0.69834,-3.85362 h -4.13449 c -2.27398,0 -7.75905,-0.69357 -12.18904,-1.54128 -4.43001,-0.84769 -10.25112,-1.54134 -12.935807,-1.54144 -4.193877,-1.6e-4 -4.881253,0.28881 -4.881253,2.05213 0,1.12876 1.546307,3.78775 3.436236,5.90888 3.381314,3.79493 5.18254397,7.61315 6.87791397,14.5796 0.99789003,4.10041 -0.47279,7.99154 -2.42166997,6.40729 -1.80453,-1.46691 -18.791224,0.35138 -21.819543,2.3356 -3.561393,2.33352 -3.659346,6.84091 -0.345401,15.8945902 1.119157,3.05754 1.79699,6.17896999 1.506295,6.93651999 -0.609084,1.58717001 -4.703574,1.89160001 -4.703574,0.34964001 z m 9.201588,-3.17092 c -0.630877,-1.17879 -0.953482,-2.33683 -0.716902,-2.57341 0.236572,-0.23658 0.957785,0.72789 1.602675,2.14327 1.416151,3.10810999 0.726631,3.44296 -0.885773,0.43014 z m 97.804066,-3.87803 c -0.1312,-4.4553002 -0.15078,-4.4776602 -3.57373,-4.07805 -2.90401,0.33903 -3.36635,0.11326 -2.95885,-1.4450402 0.26563,-1.01576 0.96102,-2.1423 1.54533,-2.50342 0.63756,-0.39403 0.74969,-0.15066 0.28043,0.60864 -0.56408,0.91271 0.0357,1.17168 2.1534,0.9295 2.49301,-0.28512 3.14177,-1.03256 4.30524,-4.96006 2.20251,-7.43492 2.53706,-8.00744 3.02217,-5.17175 0.23855,1.39453 -0.0249,2.6884 -0.58553,2.87527 -0.5606,0.18685 -0.77085,1.28979 -0.46719,2.45094 0.30365,1.16114 0.0874,2.41066 -0.4806,2.77672 -0.56797,0.36602 -1.49978,3.44014 -2.07072,6.8313202 -1.01233,6.01308 -1.04131,6.05483 -1.16994,1.68593 z m -74.12143,-0.59764 c 0,-0.88116 0.46244,-1.6021 1.02764,-1.6021 0.56519,0 1.02763,0.43514 1.02763,0.96698 0,0.53184 -0.46244,1.25279 -1.02763,1.6021 -0.5652,0.34932 -1.02764,-0.0858 -1.02764,-0.96698 z m -27.766671,-1.11313 c -1.921929,-2.31577 -0.806412,-2.5835002 1.484948,-0.35639 1.087988,1.05748 1.491434,1.92269 0.896551,1.92269 -0.594879,0 -1.666558,-0.70482 -2.381499,-1.56629 z m 61.421631,-2.19718 c 0.7065,-0.28509 1.86258,-0.28509 2.56908,0 0.70649,0.28508 0.12844,0.51832 -1.28454,0.51832 -1.413,0 -1.99104,-0.23323 -1.28454,-0.51832 z M 4.865504,-11.681937 c 0.0493,-1.19714 0.29281,-1.44063 0.62086,-0.62086 0.29686,0.74182 0.26035,1.62815 -0.0811,1.96963 -0.34148,0.3414802 -0.58436,-0.26547 -0.53974,-1.34877 z m 22.07945,-3.04144 c -8.29922,-4.32779 -21.43154,-19.26497 -23.67707,-26.93117 -0.87339,-2.98172 1.14047,-3.06055 2.08593,-0.0817 0.80828,2.54666 7.33182,12.99276 9.4328,15.10467 1.61224,1.62062 1.85577,1.47577 3.29224,-1.95833 0.89528,-2.14031 0.96195,-1.92281 0.43141,1.40768 -0.5778,3.62721 -0.3195,4.19681 3.26232,7.19342 2.13939,1.78986 5.31951,4.04418 7.06693,5.00958 3.94971,2.18212 2.24171,2.41275 -1.89456,0.25579 z m 18.17398,-14.5813 c -2.40208,-0.21634 -4.36743,-0.85016 -4.36743,-1.40847 0,-0.62166 1.49362,-0.72354 3.85362,-0.26287 2.11949,0.41375 4.66288,0.76501 5.65198,0.78059 0.98909,0.0155 1.79835,0.39166 1.79835,0.83575 0,0.44409 -0.57804,0.72663 -1.28454,0.62789 -0.70649,-0.0988 -3.24988,-0.35655 -5.65198,-0.57291 z m 9.76251,-48.22685 c 0.7065,-0.28508 1.86258,-0.28508 2.56908,0 0.7065,0.28509 0.12844,0.51833 -1.28454,0.51833 -1.41299,0 -1.99104,-0.23323 -1.28454,-0.51833 z m -5.4594,-1.70536 c -1.16578,-0.66592 -3.75282,-2.48246 -5.74897,-4.03676 -4.46013,-3.47284 -6.38944,-3.50411 -16.79461,-0.27219 -9.02425,2.803 -9.95045,2.99713 -7.79748,1.63426 1.22669,-0.77652 1.18694,-1.1829 -0.25693,-2.62675 -0.93946,-0.93947 -1.70811,-2.40089 -1.70811,-3.24763 0,-1.00874 -0.79715,-1.4263 -2.31217,-1.21114 -3.3775,0.47968 -3.73178,5.38885 -0.58538,8.11165 2.19898,1.90292 2.22504,2.03868 0.33627,1.75155 -4.79724,-0.72929 -5.39525,-10.04326 -0.7397,-11.52087 1.72991,-0.54905 1.82604,-1.03236 0.83506,-4.19846 -1.08556,-3.46829 -1.27975,-3.57799 -6.3339,-3.57799 -20.656889,0 -31.432465,-16.986063 -18.579353,-29.287523 3.16914,-3.03312 6.285893,-4.7273 11.891063,-6.46365 5.25818,-1.62886 7.92509,-2.02422 8.66477,-1.28454 0.73969,0.73969 0.33674,1.06858 -1.3092,1.06858 -2.13446,0 -10.09776,3.6709 -11.39249,5.25169 -0.28259,0.34505 -2.03659,1.40766 -3.897766,2.36139 -3.970375,2.03456 -5.350922,5.07512 -5.350922,11.78506 0,3.48748 0.596895,5.51818 2.094474,7.12565 2.588107,2.778 9.45441397,6.36044 12.190794,6.36044 1.11955,0 2.27951,0.39474 2.57768,0.87719 0.90675,1.467143 15.97104,2.148443 25.78379,1.166083 22.48754,-2.251213 37.41347,-5.081323 43.59687,-8.266423 2.02082,-1.04093 5.87646,-2.82716 8.5681,-3.96941 5.62789,-2.38831 18.971786,-11.9913 24.233206,-17.43952 3.54546,-3.67134 2.65778,-1.75232 -1.25449,2.712 -2.31839,2.64553 -1.10578,2.93188 4.02066,0.94945 4.05489,-1.56805 6.84257,-3.68203 9.00673,-6.83008 3.68962,-5.36698 1.47199,-6.76843 -4.04793,-2.55817 -2.75404,2.10061 -3.29393,2.25061 -2.774,0.77072 0.35507,-1.01063 1.61901,-2.67088 2.80876,-3.68943 2.10913,-1.80564 1.97059,-1.83873 -5.54405,-1.32415 -26.574996,1.81977 -25.895066,1.70851 -25.285456,4.13739 0.4716,1.87902 -0.29677,2.66662 -4.80322,4.92346 -16.63663,8.33163 -34.98569,13.11316 -50.35655,13.12228 -6.58562,0.004 -14.02298,-1.99062 -14.15885,-3.79705 -0.0342,-0.45274 -0.33332,-3.13534 -0.66509,-5.96133 -0.33177,-2.82598 -0.60941,-6.64504 -0.61699,-8.4868 -0.0217,-5.26854 2.43969,-23.97088 3.75188,-28.50796 l 1.18883,-4.11052 8.22106,-0.64836 c 4.52158,-0.35659 9.72397,-1.13358 11.56086,-1.72662 2.71379,-0.87616 3.3398,-0.80279 3.3398,0.39145 0,0.80834 0.80927,1.51712 1.79836,1.57507 0.9891,0.0579 -1.90112,0.75348 -6.4227,1.54564 -4.52158,0.79215 -9.60836,1.21482 -11.30395,0.93926 -1.6956,-0.27557 -3.76651,-0.0693 -4.60203,0.45834 -1.65054,1.04236 -4.95225,18.58293 -5.0841,27.00964 l -0.0764,4.88125 12.58849,-0.0613 c 16.69777,-0.0813 25.79536,-1.87895 42.71832,-8.44122 l 8.54955,-3.31529 -0.61906,-3.98816 c -0.34047,-2.19348 -1.92562,-6.81783 -3.52255,-10.27632 -1.59692,-3.45849 -3.75897,-8.3112 -4.80456,-10.7838 -1.50831,-3.56682 -2.79875,-4.88042 -6.24596,-6.35807 -4.72048,-2.02343 -3.33679,-2.24809 -16.29382,2.64554 -1.1304,0.42693 -0.45586,-0.4467 1.49896,-1.9414 3.67499,-2.80997 9.04838,-4.73539 13.24315,-4.74536 6.93363,-0.0163 13.48338,9.86292 16.20184,24.43832 0.9185,4.92469 2.10743,10.73254 2.64207,12.90634 l 0.97204,3.95235 17.146636,-0.66415 c 19.48094,-0.75457 22.06613,-0.16328 22.59159,5.16698 0.19808,2.01093 -0.35733,3.71287 -1.5699,4.81034 -2.89048,2.61585 -15.64378,8.88442 -19.57601,9.62211 -3.261506,0.61186 -3.469546,0.88013 -2.898166,3.73708 0.33857,1.69284 0.61558,6.18698 0.61558,9.98698 v 6.909093 l 4.110526,1.61466 c 3.56937,1.40209 4.11053,2.03577 4.11053,4.81323 0,6.88399 -4.91054,13.68515 -10.790136,14.94447 l -3.08289,0.66031 3.41211,-1.77514 c 7.053196,-3.6694 10.744746,-12.29159 6.607296,-15.43235 -2.47075,-1.87558 -10.533226,-1.88537 -10.533226,-0.0128 0,1.69295 -7.92725,8.8586 -9.80014,8.8586 -0.80547,0 -1.10405,-0.79291 -0.77394,-2.05526 0.48456,-1.85296 0.0315,-2.05527 -4.60237,-2.05527 -4.39707,0 -5.39201,0.3849 -6.88499,2.66346 -2.00401,3.05857 -11.51884,7.61291 -15.90462,7.61291 -1.63237,0 -3.1221,0.42924 -3.3105,0.95386 -0.19486,0.54258 -1.25649,0.4318 -2.46214,-0.25692 z m -2.19135,-6.60584 c 0.31367,-1.55429 0.89955,-3.75085 1.30198,-4.88125 0.64663,-1.81637 0.55759,-1.8761 -0.76602,-0.51382 -1.95725,2.01444 -3.96499,6.81816 -3.17842,7.60472 1.24781,1.24781 2.0862,0.54674 2.64246,-2.20965 z m -24.10255,-5.46335 c 1.78009,-2.86354 3.23651,-5.40693 3.23651,-5.65198 0,-0.24504 -1.10291,-0.44553 -2.45089,-0.44553 -3.88087,0 -7.70929,7.99466 -5.08508,10.61886 0.96509,0.9651 0.74505,1.19649 4.29946,-4.52135 z m 53.23587,-12.821443 c 0.33468,-0.87217 0.41226,-1.78202 0.17241,-2.02189 -0.70059,-0.70058 -8.03885,1.81198 -8.03885,2.75244 0,1.60666 7.22713,0.93548 7.86644,-0.73055 z m 19.14646,17.647363 c 0.68584,-1.47749 1.59381,-2.68995 2.0177,-2.69436 1.40274,-0.0148 0.80073,1.70156 -1.24698,3.5547 -1.97296,1.78553 -1.99005,1.76645 -0.77072,-0.86034 z m -3.89118,-1.67474 c -0.34932,-0.5652 0.1131,-1.02763 1.02763,-1.02763 0.91451,0 1.37695,0.46243 1.02764,1.02763 -0.34933,0.5652 -0.81175,1.02763 -1.02764,1.02763 -0.21587,0 -0.67832,-0.46243 -1.02763,-1.02763 z m -38.53621,-79.641493 c 3.36246,-1.92215 5.18417,-1.89951 2.62958,0.0326 -1.09712,0.82982 -2.71564,1.49238 -3.59671,1.47235 -1.0268,-0.0233 -0.67957,-0.56368 0.96713,-1.50503 z m 5.79417,-1.02763 c 0.32533,-0.8478 1.0611,-1.54145 1.63503,-1.54145 0.60148,0 0.5016,0.65296 -0.23576,1.54145 -0.70361,0.84779 -1.43937,1.54144 -1.63502,1.54144 -0.19567,0 -0.0896,-0.69365 0.23575,-1.54144 z m -15.04286,-2.50844 c 0,-0.53184 0.45715,-1.24951 1.01587,-1.59482 0.58253,-0.36 0.75479,0.0525 0.40387,0.96699 -0.68316,1.78028 -1.41974,2.10601 -1.41974,0.62783 z"
       id="path4701"
       inkscape:connector-curvature="0" />
  </g>
</svg>
