<?xml version="1.0" encoding="UTF-8" standalone="no"?>
<!-- Created with Inkscape (http://www.inkscape.org/) -->

<svg
   xmlns:dc="http://purl.org/dc/elements/1.1/"
   xmlns:cc="http://creativecommons.org/ns#"
   xmlns:rdf="http://www.w3.org/1999/02/22-rdf-syntax-ns#"
   xmlns:svg="http://www.w3.org/2000/svg"
   xmlns="http://www.w3.org/2000/svg"
   xmlns:sodipodi="http://sodipodi.sourceforge.net/DTD/sodipodi-0.dtd"
   xmlns:inkscape="http://www.inkscape.org/namespaces/inkscape"
   width="210mm"
   height="210mm"
   viewBox="0 0 210 210"
   version="1.1"
   id="svg8"
   inkscape:version="0.92.3 (2405546, 2018-03-11)"
   sodipodi:docname="default.svg">
  <defs
     id="defs2" />
  <sodipodi:namedview
     id="base"
     pagecolor="#ffffff"
     bordercolor="#666666"
     borderopacity="1.0"
     inkscape:pageopacity="0.0"
     inkscape:pageshadow="2"
     inkscape:zoom="0.49497475"
     inkscape:cx="499.92624"
     inkscape:cy="615.09443"
     inkscape:document-units="mm"
     inkscape:current-layer="g21"
     showgrid="false"
     inkscape:window-width="1920"
     inkscape:window-height="1017"
     inkscape:window-x="-8"
     inkscape:window-y="-8"
     inkscape:window-maximized="1" />
  <metadata
     id="metadata5">
    <rdf:RDF>
      <cc:Work
         rdf:about="">
        <dc:format>image/svg+xml</dc:format>
        <dc:type
           rdf:resource="http://purl.org/dc/dcmitype/StillImage" />
        <dc:title></dc:title>
      </cc:Work>
    </rdf:RDF>
  </metadata>
  <g
     inkscape:label="Layer 1"
     inkscape:groupmode="layer"
     id="layer1"
     transform="translate(0,-87)">
    <g
       id="g21"
       transform="translate(118.89756,67.317726)"
       style="fill:#000000">
      <g
         id="g114"
         transform="matrix(1.0400304,0,0,1.0400304,-0.84966849,33.333551)"
         style="fill:#000000">
        <path
           style="fill:#000000;stroke-width:0.26458332"
           d="m 87.288435,81.526429 c -0.618464,0.596757 -1.422136,1.173377 -1.785938,1.281374 -0.363802,0.107998 -0.720989,0.269608 -0.79375,0.359135 -0.178943,0.220178 -1.079296,0.728012 -3.439583,1.94006 -1.091406,0.560454 -2.135597,1.219547 -2.320427,1.464649 -0.259551,0.344193 -0.333584,2.947077 -0.325221,11.434146 0.0528,53.562627 0.02166,57.432727 -0.463206,57.582787 -0.254661,0.0788 -0.669763,0.25368 -0.922451,0.38857 -0.274235,0.14641 -12.290472,0.24527 -29.809722,0.24527 -23.232667,0 -29.378104,-0.0689 -29.483742,-0.33073 -0.106762,-0.26458 -0.137628,-0.26458 -0.154339,0 -0.02529,0.4005 -0.979112,0.44218 -1.219454,0.0533 -0.118417,-0.1916 -0.280543,-0.1869 -0.52405,0.0152 -0.259873,0.21568 -0.497178,0.20232 -0.902485,-0.0508 -0.44014,-0.27488 -0.654805,-0.27791 -1.075476,-0.0152 -0.632931,0.39527 -4.925306,0.44818 -5.1629653,0.0636 -0.2226336,-0.36023 -93.5868277,-0.36671 -93.9470157,-0.007 -0.16769,0.16769 -0.610399,0.14992 -1.264211,-0.0507 -0.776901,-0.23844 -1.123238,-0.23567 -1.520033,0.0121 -0.6125,0.38251 -9.940549,0.40086 -10.175925,0.02 -0.0814,-0.13171 -0.842608,-0.23947 -1.691576,-0.23947 -1.080595,0 -1.586305,-0.11135 -1.686035,-0.37123 -0.0784,-0.20418 -0.21395,-13.80707 -0.30135,-30.22865 -0.10921,-20.52123 -0.25184,-30.290268 -0.45613,-31.241696 -0.30413,-1.416389 -0.35322,-1.460358 -2.00095,-1.791989 -0.47294,-0.09519 -0.85989,-0.267195 -0.85989,-0.382241 0,-0.278884 -1.88421,-0.74096 -3.78596,-0.92846 -0.84535,-0.08335 -1.79785,-0.314899 -2.11667,-0.514564 -0.31881,-0.199665 -1.02615,-0.44132 -1.57185,-0.537006 -0.78143,-0.137023 -0.99788,-0.29789 -1.019,-0.757301 -0.0661,-1.438524 0.11225,-2.464441 0.58023,-3.337595 0.32366,-0.60388 0.50491,-1.471152 0.50491,-2.415929 0,-1.156658 0.14236,-1.66683 0.66146,-2.370426 0.71757,-0.972605 0.85162,-2.203579 0.35796,-3.287053 -0.36014,-0.790406 0.24578,-2.689249 1.10676,-3.468426 0.28581,-0.258657 0.51966,-0.603964 0.51966,-0.767352 0,-0.163386 0.23812,-0.500955 0.52916,-0.750152 0.43465,-0.372158 0.52917,-0.780505 0.52917,-2.286122 0,-1.008168 0.0689,-2.012627 0.15315,-2.232131 0.0908,-0.236585 -0.17856,-0.746196 -0.66146,-1.251506 -0.44803,-0.468823 -0.81461,-0.94606 -0.81461,-1.060524 0,-0.659619 0.75461,-1.924079 2.1679,-3.632665 1.67001,-2.018946 1.99613,-3.027617 1.17338,-3.629226 -0.3868,-0.28284 -0.36526,-0.382522 0.21888,-1.01282 0.515,-0.555694 0.89154,-0.699106 1.83555,-0.699106 0.65321,0 1.25434,-0.107908 1.33585,-0.239797 0.0815,-0.131887 0.7301,-0.319829 1.44132,-0.417645 l 1.29312,-0.17785 0.10764,-1.690473 c 0.0815,-1.279123 0.24935,-1.841315 0.690007,-2.310369 l 0.582363,-0.619897 -0.660504,-0.895263 c -0.864936,-1.172358 -0.852716,-2.282663 0.03532,-3.209578 0.994786,-1.038334 0.697269,-1.551628 -0.899356,-1.551628 -1.38416,0 -2.70151,-0.473882 -2.70482,-0.972984 -0.002,-0.331756 1.23702,-1.408266 1.62112,-1.408266 0.12589,0 0.45734,-0.228439 0.73654,-0.50764 0.48231,-0.482314 0.48458,-0.528513 0.0453,-0.926042 -0.25428,-0.230121 -0.65467,-0.418401 -0.88976,-0.418401 -0.23509,0 -0.75351,-0.280485 -1.15206,-0.623298 -0.65749,-0.565555 -0.72042,-0.775769 -0.67927,-2.269109 0.025,-0.905198 0.21726,-1.964166 0.42736,-2.353265 0.67545,-1.250915 1.69641,-3.613555 1.88331,-4.358206 0.23307,-0.928642 1.30891,-1.773206 2.258782,-1.773206 0.40835,0 0.816039,-0.119062 0.905975,-0.264583 0.203761,-0.329689 2.886803,-0.349366 3.50932,-0.02574 0.252688,0.131366 1.292868,0.384543 2.311514,0.562615 3.546496,0.619975 5.548307,1.881873 8.752514,5.517388 2.360379,2.678105 2.507202,3.369615 1.020812,4.807892 -0.84297,0.815689 -0.922631,1.009409 -0.755737,1.837841 0.283742,1.408443 0.151133,2.378467 -0.425344,3.111339 -0.816732,1.038304 -0.674164,1.945507 0.416817,2.652307 1.076126,0.697175 1.441979,1.479818 1.441979,3.084722 0,1.747147 0.261067,1.851086 4.729866,1.883121 2.128001,0.01527 4.077451,0.119963 4.332113,0.23268 0.326585,0.144555 0.46302,0.508458 0.46302,1.234972 0,0.566513 0.120285,1.030026 0.267298,1.030026 0.147013,0 0.838348,-0.401384 1.536301,-0.891964 0.697952,-0.490577 1.500401,-0.96665 1.783222,-1.057933 0.717966,-0.231736 1.175679,-1.362538 1.175679,-2.904567 v -1.309383 l -2.182812,0.196924 c -1.200547,0.10831 -2.659063,0.226642 -3.241146,0.262958 -0.582083,0.03632 -1.319599,0.149866 -1.638924,0.252323 -0.746774,0.239609 -1.539746,-0.849797 -1.303555,-1.790856 0.175229,-0.698159 0.809345,-0.949738 2.413312,-0.957448 1.636258,-0.0079 3.042709,-0.479345 3.042709,-1.01999 0,-0.255098 0.122843,-0.586658 0.272989,-0.736803 0.411337,-0.411338 0.459256,-3.071995 0.05774,-3.206081 -0.210484,-0.07029 -0.330729,-0.63342 -0.330729,-1.548863 0,-1.105482 -0.16418,-1.697471 -0.709317,-2.557637 -0.910309,-1.436365 -1.111535,-3.423483 -0.491439,-4.85303 1.303628,-3.005346 2.279221,-4.110381 4.041552,-4.577784 0.547614,-0.145237 2.514254,-0.255182 4.370308,-0.244324 2.315991,0.01355 3.498231,-0.08282 3.768587,-0.307197 0.31582,-0.262109 0.572736,-0.242099 1.295549,0.100899 0.495884,0.23531 0.990848,0.427839 1.099923,0.427839 0.379494,0 2.927749,2.821009 3.243574,3.59075 0.219515,0.535012 0.302572,2.535764 0.26832,6.463417 -0.04302,4.932664 -0.115679,5.834239 -0.546815,6.785033 -0.576551,1.271468 -0.753721,4.322527 -0.283879,4.888653 0.169606,0.204362 0.347009,0.84546 0.394234,1.424665 0.06896,0.845786 0.229095,1.121418 0.813464,1.400143 0.400183,0.190876 0.727604,0.459613 0.727604,0.597194 0,0.137578 0.125379,0.250145 0.27862,0.250145 0.153241,0 0.716661,0.297656 1.252045,0.661458 0.535382,0.363802 1.14763,0.661459 1.360549,0.661459 0.697613,8e-6 1.871286,-1.369523 1.871286,-2.183554 0,-0.961387 -0.43163,-1.785188 -0.935349,-1.785188 -0.213162,0 -0.387567,-0.119063 -0.387567,-0.264584 0,-0.145521 -0.182431,-0.264583 -0.4054,-0.264583 -0.544124,0 -0.922862,-1.061238 -0.599041,-1.678533 0.140772,-0.268351 0.788575,-0.723513 1.439564,-1.011478 0.650986,-0.287962 1.137041,-0.663286 1.080119,-0.834051 -0.11234,-0.337021 -1.611778,-0.669719 -3.12788,-0.694023 -1.266616,-0.02029 -1.825141,-0.675968 -1.833817,-2.152748 -0.0069,-1.167503 0.0016,-1.177931 4.299479,-5.330495 4.835099,-4.671568 4.812601,-4.660061 8.509177,-4.352284 l 1.88259,0.156744 4.016695,4.059542 c 2.449216,2.475341 4.088302,4.34485 4.200191,4.790652 0.147146,0.586269 0.03611,0.884951 -0.560467,1.507643 -0.40918,0.427093 -0.931174,0.776531 -1.159983,0.776531 -0.228812,0 -0.56139,0.232772 -0.739063,0.517271 -0.282896,0.45299 -0.225044,0.575162 0.465521,0.983088 1.080476,0.638252 0.998026,1.344438 -0.299514,2.565348 -0.785619,0.739222 -1.123638,1.294608 -1.218538,2.002147 -0.122389,0.912468 -0.04132,1.054518 1.190505,2.085856 0.727012,0.608689 1.491623,1.106707 1.699139,1.106707 0.207512,0 0.576016,-0.416719 0.818896,-0.926042 0.242879,-0.509323 0.54248,-0.926042 0.665784,-0.926042 0.123301,0 0.529378,-0.684609 0.90239,-1.521354 0.6178,-1.38585 0.703123,-2.020625 0.957948,-7.126888 0.153858,-3.083041 0.395994,-5.821479 0.538081,-6.085417 0.142086,-0.263935 0.3865,-1.491914 0.543139,-2.728841 0.214543,-1.694169 0.520882,-2.705843 1.241811,-4.101041 0.526354,-1.018646 1.091361,-2.119046 1.25557,-2.445332 0.164208,-0.326287 0.387858,-0.594178 0.496998,-0.595313 0.109141,-0.0011 0.199702,-0.150892 0.20125,-0.332793 0.0016,-0.181901 0.476531,-0.926041 1.055521,-1.653646 0.57899,-0.727604 1.055849,-1.441979 1.059685,-1.5875 0.0038,-0.14552 0.906013,-1.276614 2.004833,-2.513541 1.098822,-1.236927 2.171567,-2.576381 2.383882,-2.976563 0.212313,-0.400182 0.531792,-0.722722 0.709957,-0.716759 0.284726,0.0095 1.514559,2.238328 1.514559,2.744796 0,0.105449 0.357188,0.71088 0.79375,1.345401 0.436563,0.634521 0.79375,1.277313 0.79375,1.428427 0,0.151114 0.474202,0.965755 1.053783,1.810316 1.29056,1.880592 1.6384585,3.824645 1.314354,7.34459 -0.120591,1.309687 -0.298981,4.614648 -0.396425,7.344354 -0.09745,2.729707 -0.283286,5.028687 -0.412983,5.108845 -0.324519,0.200562 -0.298894,3.483878 0.02877,3.686384 0.145521,0.08994 0.264584,0.406014 0.264584,0.702395 0,0.296381 0.208359,0.907518 0.46302,1.358082 0.440013,0.7785 0.9052775,1.249956 3.8364585,3.887502 0.691224,0.621983 1.2567708,1.265664 1.2567708,1.430406 0,0.164743 0.238125,0.448247 0.5291667,0.630005 0.2910416,0.181758 0.5291666,0.45951 0.5291666,0.617223 0,0.157715 0.2163075,0.561745 0.4806818,0.897842 0.2643743,0.3361 0.6345422,1.30738 0.8225922,2.1584 0.474845,2.148906 0.4969509,2.20877 0.8156071,2.20877 0.1836023,0 0.2615248,-0.768675 0.2212684,-2.182812 -0.034174,-1.200547 0.034134,-2.449256 0.1517915,-2.77491 0.1653619,-0.457677 0.1019942,-0.631918 -0.2791116,-0.767499 -0.2711715,-0.09647 -0.8422031,-0.544401 -1.2689601,-0.995402 -1.1311043,-1.195363 -1.2627319,-3.104758 -0.3107373,-4.507597 1.2199884,-1.797754 0.7709852,-3.883396 -0.915789,-4.253873 -0.8392583,-0.184333 -1.3520181,-0.987346 -1.0956289,-1.715823 0.1725506,-0.490271 1.4315412,-1.834706 1.7274883,-1.844734 0.1193032,-0.004 0.7360681,-0.364537 1.3705892,-0.8011 0.6345211,-0.436562 1.26131367,-0.79375 1.39286979,-0.79375 0.13155877,0 0.89130713,-0.446484 1.68833263,-0.992187 2.92131738,-2.000152 3.81469618,-2.32079 6.30075278,-2.261389 1.236427,0.02955 2.4888004,0.167577 2.7830462,0.306737 0.2942484,0.13916 1.5470294,0.440526 2.7839564,0.6697 1.931572,0.357881 2.34791,0.532749 2.950125,1.239105 1.058757,1.241848 1.090385,2.192054 0.115779,3.47835 -0.824158,1.087736 -0.883986,1.181497 -1.43728,2.252448 -0.49848,0.964853 -0.367355,1.314783 0.884917,2.361555 0.758087,0.633682 1.190625,1.209733 1.190625,1.585666 0,0.668946 -0.906282,1.414182 -1.719791,1.414182 -0.972127,0 -1.71858,0.72861 -1.567929,1.530451 0.07425,0.395179 -0.0402,1.373351 -0.254331,2.173716 -0.400875,1.498385 -0.251698,2.044604 0.481558,1.763228 0.453501,-0.174024 0.576638,-0.969478 0.150077,-0.969478 -0.463952,0 -0.284173,-0.958591 0.274624,-1.464294 0.526926,-0.476862 0.555024,-0.472157 1.233771,0.206589 0.596519,0.596522 0.660463,0.807728 0.45298,1.496224 -0.189537,0.628954 -0.61149,0.988864 -1.958608,1.670632 -1.858872,0.940763 -2.19775,1.508175 -1.41502,2.369291 0.267417,0.294198 0.605274,1.076547 0.750795,1.738553 0.26998,1.228207 0.343423,1.301882 2.024361,2.030778 1.281194,0.555559 1.342604,0.543163 1.865987,-0.376619 0.247923,-0.435689 0.783704,-0.934209 1.190625,-1.107821 1.401683,-0.598014 1.597591,-0.909592 1.461627,-2.324587 -0.111805,-1.163576 -0.04237,-1.394859 0.633812,-2.111277 0.417653,-0.442505 0.860825,-0.804553 0.984824,-0.804553 0.124002,0 0.630404,-0.192159 1.125339,-0.427021 1.05637,-0.501283 1.179579,-1.262706 0.370716,-2.291009 -0.808085,-1.027313 -0.666528,-1.699075 0.727604,-3.452852 0.725649,-0.912842 0.75832,-1.771274 0.09843,-2.586202 -0.422016,-0.521165 -0.723273,-0.608324 -1.99935,-0.578448 -0.826357,0.01934 -1.667121,0.171829 -1.868368,0.338847 -0.201245,0.167021 -0.700522,0.265303 -1.109504,0.218408 -0.714891,-0.08197 -0.740905,-0.136003 -0.673703,-1.39932 0.0574,-1.079135 0.21405,-1.445718 0.876225,-2.050521 0.443479,-0.405056 0.928352,-0.736465 1.077498,-0.736465 0.149145,0 0.898522,-0.642572 1.665284,-1.427938 1.056706,-1.082341 1.435442,-1.686385 1.564873,-2.495804 0.118023,-0.738081 0.331957,-1.119028 0.692732,-1.233535 0.822566,-0.261072 1.594112,-1.438902 1.594112,-2.433545 0,-1.017175 0.92524,-3.257095 1.345401,-3.257095 0.150614,0 0.832249,-0.427974 1.514742,-0.951055 1.122484,-0.860301 1.367139,-0.940207 2.563815,-0.83738 1.508064,0.129588 4.404648,1.405393 5.503521,2.424036 0.407564,0.377806 0.912437,1.097174 1.121944,1.598594 0.209508,0.50142 0.536866,1.007525 0.727464,1.124678 0.190596,0.117152 0.626505,0.629721 0.96868,1.139044 0.737621,1.097934 2.389391,2.621851 2.857036,2.635898 0.181901,0.0055 0.33073,0.128998 0.33073,0.274519 0,0.14552 0.157839,0.264583 0.350755,0.264583 0.720214,0 1.501328,1.192043 1.501328,2.291149 0,1.276831 -0.499367,1.798508 -1.975443,2.063686 -1.296664,0.232947 -2.522474,1.073357 -2.522474,1.729394 0,0.562596 1.112391,1.525767 2.027365,1.755412 0.340159,0.08537 0.618469,0.261379 0.618469,0.391126 0,0.129744 0.343495,0.2359 0.76332,0.2359 0.52859,0 0.900885,0.209952 1.210672,0.682744 0.402873,0.614865 0.40839,0.766119 0.05547,1.521354 -0.621795,1.330624 -1.030099,2.922704 -0.930529,3.628363 0.07576,0.536941 0.260557,0.663888 1.063742,0.730748 0.534627,0.0445 1.114753,0.252862 1.289166,0.463021 0.426847,0.514318 1.839825,0.506846 1.839825,-0.0097 0,-0.38064 0.489334,-0.572116 1.852083,-0.72472 0.601425,-0.06735 0.668772,-0.201748 0.742043,-1.480794 0.04432,-0.773697 0.312213,-1.819116 0.595312,-2.323153 0.283102,-0.504033 0.514728,-1.110196 0.514728,-1.347022 0,-0.236829 -0.714374,-1.116717 -1.587499,-1.955308 -1.568249,-1.50622 -1.714543,-1.847948 -1.350331,-3.154252 0.195485,-0.701132 -0.231341,-1.82745 -0.904118,-2.385806 -0.215262,-0.178652 -0.391385,-0.760293 -0.391385,-1.292537 0,-0.763199 0.19571,-1.152316 0.926042,-1.841182 0.509323,-0.480407 0.926042,-1.040789 0.926042,-1.245294 0,-0.204507 -0.442127,-0.556561 -0.982504,-0.782346 -1.219555,-0.509561 -1.817505,-1.040458 -2.330836,-2.069455 -0.270037,-0.5413 -0.312158,-0.886632 -0.130326,-1.068464 0.147767,-0.147767 0.268666,-0.473107 0.268666,-0.722979 0,-0.249875 0.23899,-1.011857 0.53109,-1.693296 0.58035,-1.3539 3.649511,-4.625719 4.339203,-4.625719 0.231754,0 0.421373,-0.105841 0.421373,-0.235201 0,-0.129363 0.803672,-0.449461 1.785938,-0.711332 0.982265,-0.261874 1.869275,-0.599903 1.971132,-0.751176 0.101859,-0.151276 1.082114,-0.320337 2.178346,-0.375695 1.944505,-0.09819 2.030355,-0.07573 3.517731,0.920231 0.838523,0.561486 1.822799,1.156563 2.187281,1.322396 1.312143,0.596997 3.676782,2.992429 3.959767,4.011334 0.544423,1.960216 0.367956,2.87396 -0.799671,4.140687 -0.953662,1.034598 -1.065226,1.29122 -0.992188,2.282246 0.04938,0.669999 0.24102,1.190032 0.479164,1.300236 1.497954,0.693203 1.45125,0.60094 1.531934,3.026212 0.07454,2.240476 0.05377,2.332463 -0.727604,3.222395 -0.916654,1.044008 -1.053409,2.20509 -0.34131,2.897751 0.254662,0.247711 0.703514,0.940824 0.997453,1.540253 l 0.534432,1.089872 2.414915,0.01116 c 2.543768,0.01175 3.115194,0.226838 3.534794,1.330468 0.146957,0.386527 0.599315,0.666001 1.4073,0.869455 1.460309,0.36771 2.560913,1.598639 3.041806,3.401999 0.341916,1.28219 1.43954,2.721288 2.075571,2.721288 0.191056,0 0.347375,0.164015 0.347375,0.364479 0,0.200462 0.194786,0.526135 0.43286,0.72372 0.565926,0.469678 1.683856,2.247112 1.683626,2.676856 -2.64e-4,0.500785 1.932871,4.271671 2.315284,4.516321 0.181901,0.116372 0.330729,0.378703 0.330729,0.582959 0,0.204258 0.763133,1.230921 1.695852,2.281478 1.842527,2.07531 2.008315,2.51849 2.008315,5.368629 0,1.884254 -0.0071,1.903058 -1.124479,2.98123 z M 66.518644,145.01815 c -0.254661,-0.24692 -0.765498,-0.67349 -1.135195,-0.94794 -0.529762,-0.39327 -0.772787,-0.96662 -1.147074,-2.7062 -0.261197,-1.21397 -0.577599,-2.44534 -0.703115,-2.73638 -0.125518,-0.29104 -0.359674,-1.24354 -0.520345,-2.11667 -0.160671,-0.87312 -0.390411,-1.82562 -0.510529,-2.11666 -0.232315,-0.56289 -0.664647,-2.48775 -0.95082,-4.23334 -0.09543,-0.58208 -0.271495,-1.17739 -0.391261,-1.32291 -0.119763,-0.14552 -0.419065,-1.45521 -0.665115,-2.91042 -0.246049,-1.45521 -0.540268,-2.76489 -0.653822,-2.91042 -0.113557,-0.14552 -0.358357,-1.15755 -0.544007,-2.24895 -0.185648,-1.09141 -0.437304,-2.11525 -0.559234,-2.27521 -0.215265,-0.28239 -0.65731,-2.25996 -0.896332,-4.0099 -0.06469,-0.47363 -0.230153,-1.06894 -0.367686,-1.32292 -0.137536,-0.25397 -0.313407,-0.75942 -0.390824,-1.12322 -0.140904,-0.66213 -1.159166,-1.32292 -2.038569,-1.32292 -0.249905,0 -0.50894,0.14883 -0.575638,0.33073 -0.09701,0.26458 -0.191381,0.26458 -0.47184,0 -0.427241,-0.40306 -5.160089,-0.46099 -5.404114,-0.0662 -0.08994,0.14552 -0.677794,0.26459 -1.306348,0.26459 -1.119847,0 -1.148456,0.0222 -1.422792,1.10297 -0.214723,0.84594 -0.183462,1.63207 0.134136,3.37344 0.227756,1.24875 0.505653,2.38952 0.617553,2.53505 0.111898,0.14552 0.351687,1.21708 0.53286,2.38125 0.181176,1.16416 0.43615,2.25353 0.566611,2.42081 0.130463,0.16729 0.423177,1.47698 0.650481,2.91042 0.227303,1.43345 0.515657,2.73192 0.640786,2.88551 0.247023,0.3032 1.041921,4.5574 1.041921,5.57625 0,0.61504 -0.04682,0.6268 -2.495526,0.6268 -2.42194,0 -2.510612,0.0215 -3.007272,0.7276 -0.281464,0.40018 -0.565407,1.10638 -0.630984,1.56932 -0.152117,1.07385 0.06241,1.13436 4.038552,1.13905 3.52456,0.004 3.444796,-0.0516 3.934214,2.74777 0.331475,1.89591 0.140695,2.77668 -0.668046,3.08416 -0.337754,0.12841 -0.822722,0.55188 -1.077712,0.94104 -0.455927,0.69584 -0.451527,0.71797 0.265499,1.33473 l 0.729117,0.62716 h 7.410974 c 4.602596,0 7.604908,-0.10379 7.922744,-0.27389 0.637532,-0.3412 0.662683,-1.33928 0.04875,-1.93455 z M 59.853234,44.760183 c -0.56902,-0.148802 -0.870553,0.02371 -0.65397,0.374144 0.185272,0.299776 1.167818,0.294691 1.167818,-0.0061 0,-0.128547 -0.23123,-0.294192 -0.513848,-0.368098 z m -7.012399,0.59413 c -0.708652,0.379259 -0.666187,0.801444 0.08061,0.801444 0.637915,0 1.166016,-0.564619 0.836398,-0.894236 -0.169262,-0.169262 -0.48754,-0.137055 -0.917011,0.09279 z M 45.13507,120.56132 c -0.20633,-0.39551 -0.375877,-0.987 -0.376774,-1.31442 -7.94e-4,-0.32742 -0.155991,-0.59531 -0.344655,-0.59531 -0.209954,0 -0.52515,0.78284 -0.812514,2.01801 -0.258217,1.10991 -0.571211,2.21124 -0.695539,2.4474 -0.124328,0.23616 -0.419936,1.32235 -0.656908,2.41376 -0.236971,1.0914 -0.530415,2.2225 -0.652094,2.51354 -0.393444,0.94106 -0.80867,2.68897 -0.80867,3.40413 0,0.3833 -0.09878,0.69691 -0.219525,0.69691 -0.120737,0 -0.429805,0.98227 -0.686816,2.18281 -0.257011,1.20055 -0.55712,2.30188 -0.666911,2.4474 -0.109792,0.14552 -0.354645,1.03849 -0.544121,1.98437 -0.189473,0.94589 -0.638707,2.23157 -0.998294,2.85708 -0.658892,1.14616 -2.743803,2.96376 -3.399631,2.96376 -0.388517,0 -0.727205,1.0116 -0.585333,1.74829 0.141394,0.73419 1.559796,0.94155 5.812981,0.84981 3.585456,-0.0773 3.968329,-0.13269 4.483002,-0.64804 0.533627,-0.53433 0.540144,-0.59795 0.126002,-1.23001 -0.240205,-0.3666 -0.776356,-0.80722 -1.19145,-0.97915 -0.415095,-0.17194 -1.022141,-0.59728 -1.348989,-0.94519 -0.534932,-0.56941 -0.577882,-0.80811 -0.43012,-2.39045 0.09028,-0.96683 0.267261,-1.89298 0.393285,-2.05813 0.126023,-0.16514 0.436485,-1.25276 0.689914,-2.41693 0.253428,-1.16416 0.565002,-2.35479 0.692383,-2.64583 0.127383,-0.29104 0.42501,-1.3626 0.661397,-2.38125 0.236387,-1.01864 0.59881,-2.22726 0.805384,-2.68582 0.206576,-0.45855 0.375592,-1.15493 0.375592,-1.54751 0,-0.39258 0.167923,-1.08896 0.37316,-1.54752 0.205237,-0.45855 0.439111,-1.01233 0.519719,-1.23061 0.229092,-0.62037 -0.09902,-3.11473 -0.514475,-3.9111 z m -10.734132,-9.31806 c -3.612687,0 -3.907911,0.14043 -3.923358,1.86632 -0.0066,0.73567 0.195763,1.13818 0.929841,1.84968 1.342266,1.30098 2.112185,2.77722 2.477662,4.75066 0.4124,2.22683 1.208473,3.96986 1.810959,3.96514 0.898686,-0.007 1.625417,-0.32081 1.73972,-0.75115 0.06367,-0.23972 0.129582,-2.96594 0.146462,-6.05826 l 0.03069,-5.62239 z M 33.247291,52.505757 c -0.485068,0 -0.661458,0.14111 -0.661458,0.529166 0,0.516237 0.751758,0.747546 1.146527,0.352777 0.401658,-0.401656 0.137498,-0.881943 -0.485069,-0.881943 z M 31.62571,145.17756 c -0.108304,-0.40411 -0.4925,-0.69369 -1.202618,-0.90645 -0.57391,-0.17195 -1.162304,-0.53467 -1.307542,-0.80605 -0.209261,-0.39101 -0.487545,-17.71105 -0.49752,-30.96503 l -9.47e-4,-1.25677 h -5.953125 -5.953124 v 15.7601 c 0,10.69123 -0.09108,15.93029 -0.283194,16.28925 -0.155758,0.29104 -0.810602,0.75523 -1.455209,1.03154 -1.067088,0.45741 -1.172014,0.58522 -1.172014,1.42763 0,0.8642 0.07419,0.94541 1.124479,1.23083 0.779079,0.21173 3.43195,0.26895 8.636627,0.18629 6.934848,-0.11013 7.539754,-0.15705 7.871354,-0.61054 0.407537,-0.55734 0.409588,-0.57203 0.192833,-1.3808 z M 28.262751,53.079826 c -0.609251,-0.116179 -1.870007,1.011592 -1.521019,1.36058 0.136578,0.136578 0.681329,0.167092 1.210556,0.06781 0.795859,-0.149304 0.947955,-0.280373 0.879661,-0.758052 -0.04542,-0.317648 -0.301554,-0.619297 -0.569198,-0.670335 z M 11.154584,111.37555 H 7.8472924 v 5.8969 c 0,6.27887 0.023072,6.39202 1.3058642,6.40217 0.7703608,0.006 1.7368444,-1.03923 1.7368444,-1.87854 0,-0.4026 0.102433,-0.79532 0.227629,-0.87269 0.125198,-0.0774 0.304112,-0.69867 0.397586,-1.38065 0.222398,-1.62257 1.240401,-3.73502 2.27566,-4.72219 0.74194,-0.70748 0.818745,-0.92458 0.748866,-2.11667 l -0.07787,-1.32833 z M 10.42698,54.672792 c -0.5576995,0.107402 -0.5225337,0.576972 0.05217,0.696635 0.239708,0.04991 0.410851,-0.09594 0.410851,-0.350129 0,-0.27251 -0.173408,-0.40228 -0.463021,-0.346506 z M 5.8394701,111.5251 c -0.7341102,-0.73411 -0.9627658,-0.81111 -2.2489582,-0.75729 -0.7874688,0.0329 -1.4317609,0.17722 -1.4317609,0.3206 0,0.14337 -0.142875,0.1178 -0.3175,-0.0568 -0.477258,-0.47726 -4.1808901,-0.4087 -5.1928392,0.0961 -1.0606881,0.52914 -1.1821769,0.74589 -0.9670494,1.72536 0.1181443,0.53791 0.4086039,0.89086 0.8795014,1.06871 0.9215357,0.34805 2.158304,1.54026 2.158304,2.08055 0,0.23471 0.1435524,0.5703 0.31900549,0.74576 0.21806164,0.21806 0.35253346,1.88832 0.42496844,5.27843 0.10120841,4.73693 0.13436599,4.9972 0.73900238,5.80125 0.34817049,0.463 0.74930262,1.14761 0.89139969,1.52136 0.1420972,0.37374 0.3803703,0.67953 0.5294921,0.67953 0.1491218,0 0.2813659,0.20836 0.2938727,0.46302 0.012515,0.25467 0.126963,0.11433 0.2543413,-0.31184 0.127381,-0.42618 0.2359263,-3.41835 0.2412127,-6.64927 0.00767,-4.68635 0.089675,-6.02792 0.4054872,-6.63347 0.2177309,-0.41748 0.3966077,-0.88561 0.3975047,-1.04029 0.00212,-0.3687 1.2631525,-1.49953 2.1844422,-1.95892 0.4001823,-0.19955 0.7276041,-0.52129 0.7276041,-0.71498 0,-0.19369 0.1190625,-0.35216 0.2645833,-0.35216 0.4786921,0 0.2773601,-0.47569 -0.552614,-1.30566 z m 0.060613,-56.482833 c -0.2547646,-0.157451 -1.6193875,0.411348 -1.6226022,0.676328 -0.00444,0.365442 0.8392848,0.466087 1.3313119,0.158811 0.559644,-0.349504 0.6514015,-0.612577 0.2912903,-0.835139 z M 1.761876,134.26201 c -0.363802,-0.5763 -0.6614583,-1.15319 -0.6614583,-1.28198 0,-0.12879 -0.23043618,-0.52711 -0.51207983,-0.88516 -0.2816463,-0.35806 -0.79777957,-1.17779 -1.14696606,-1.82162 -0.73439071,-1.35409 -2.18315371,-3.76973 -2.86254551,-4.77296 -0.2577147,-0.38056 -0.6489779,-1.09493 -0.8694737,-1.5875 -0.5762281,-1.28724 -1.3038904,-2.44986 -1.6865387,-2.69466 -0.1819011,-0.11637 -0.3307292,-0.37513 -0.3307292,-0.57501 0,-0.19989 -0.2795296,-0.69999 -0.6211781,-1.11133 -0.5955109,-0.717 -0.8922676,-1.21457 -1.9451769,-3.26145 -0.2619931,-0.50932 -0.5642636,-0.96527 -0.6717083,-1.01321 -0.1074446,-0.0479 -0.4375626,-0.58372 -0.7335944,-1.19062 -1.746215,-3.57997 -1.179608,-3.35242 -8.347471,-3.35242 -5.872282,0 -6.202418,0.027 -7.268371,0.59531 -0.61417,0.32742 -1.174293,0.74506 -1.244719,0.92809 -0.230595,0.59928 0.649306,1.54549 1.741471,1.87271 0.930214,0.2787 1.341406,0.6358 2.352974,2.0434 0.110723,0.15407 0.428199,0.68985 0.705498,1.19063 0.488789,0.88268 1.030005,1.85329 2.573166,4.61465 0.406614,0.72761 0.923948,1.70987 1.14963,2.18281 0.225682,0.47295 0.501692,0.8599 0.613357,0.8599 0.111665,0 0.352626,0.32742 0.535469,0.7276 0.453742,0.99309 1.179076,2.26354 2.003986,3.51006 0.379502,0.57346 0.690001,1.12621 0.690001,1.22832 0,0.10212 0.458825,0.90835 1.019612,1.79161 0.560787,0.88328 1.361445,2.20126 1.779238,2.92887 0.417796,0.7276 1.035397,1.79916 1.372449,2.38125 0.33705,0.58208 0.6813739,1.26669 0.7651621,1.52135 0.083786,0.25466 0.2575163,0.46302 0.3860641,0.46302 0.1285478,0 0.233725,0.13156 0.233725,0.29236 0,0.1608 0.3571875,0.82161 0.7937499,1.46847 0.4365625,0.64687 0.79375,1.27183 0.79375,1.3888 0,0.11698 0.2966561,0.53278 0.6592385,0.92402 0.3625797,0.39123 0.7326735,1.00392 0.8224308,1.36155 0.08976,0.35762 0.2722985,0.65022 0.4056459,0.65022 0.1333473,0 0.3534066,0.29184 0.4890214,0.64854 0.2205117,0.57998 0.4225687,0.65689 1.9116806,0.7276 0.9158102,0.0435 2.58784188,0.0402 3.71562828,-0.007 l 2.05052072,-0.0863 v -5.80594 c 0,-5.7372 -0.00783,-5.81835 -0.6614583,-6.85376 z m -17.97115,-84.049696 c -0.655196,0.251423 -0.507032,0.970526 0.199969,0.970526 0.339551,0 0.699572,-0.08221 0.80005,-0.18269 0.297461,-0.297457 -0.546092,-0.962025 -1.000019,-0.787836 z m -0.05499,94.963756 c -0.08774,-0.32742 -0.312725,-0.59531 -0.499954,-0.59531 -0.187233,0 -0.898605,-0.50602 -1.580828,-1.12448 -0.974904,-0.88379 -1.289396,-1.37933 -1.469284,-2.31511 -0.12588,-0.65484 -0.234061,-4.60664 -0.240397,-8.78178 -0.008,-5.24109 -0.10196,-7.64705 -0.303657,-7.7717 -0.160674,-0.0993 -0.490091,-0.61234 -0.732039,-1.1401 -0.666737,-1.45432 -1.37645,-2.41475 -1.784382,-2.41475 -0.30553,0 -0.366691,1.61634 -0.367921,9.72344 -7.94e-4,5.83145 -0.110154,10.11474 -0.272989,10.70103 -0.185606,0.66828 -0.77116,1.42975 -1.85061,2.40659 -1.685605,1.52539 -1.829112,1.85413 -1.141209,2.61425 0.392698,0.43393 0.919636,0.48386 5.106458,0.48386 5.363324,0 5.593937,-0.0802 5.136812,-1.78594 z m -5.814669,-94.633048 c -0.200202,-0.521721 -1.3843,-0.534067 -2.061472,-0.02148 -0.980469,0.742143 0.652886,1.730409 1.675789,1.013939 0.612143,-0.428763 0.607034,-0.415616 0.385683,-0.992444 z m -6.693265,60.718248 c -0.688906,-0.49054 -1.151895,-0.54718 -4.472913,-0.54718 -3.302439,0 -3.822033,0.0628 -4.787802,0.57825 -0.595833,0.31804 -1.083336,0.77202 -1.083336,1.00883 0,0.43015 1.299038,1.8525 1.691886,1.8525 0.521819,0 1.76448,1.54206 1.918467,2.38069 0.09358,0.50963 0.269491,0.99159 0.390922,1.07103 0.316365,0.20694 0.346101,21.09117 0.0306,21.49219 -0.14011,0.17809 -0.334727,0.65826 -0.432486,1.06704 -0.344617,1.44106 -2.899976,3.62251 -4.988454,4.25852 -0.360936,0.10992 -0.46302,0.43451 -0.46302,1.47223 0,1.29097 0.02308,1.33122 0.763367,1.33122 3.603173,0 7.498821,-3.86434 8.114617,-8.04941 0.10541,-0.71639 0.204814,-6.06425 0.220898,-11.88414 0.02267,-8.20904 0.103397,-10.60635 0.359971,-10.69192 0.181901,-0.0607 0.330729,-0.275 0.330729,-0.4763 0,-0.48027 1.762448,-2.23573 2.24463,-2.23573 0.206201,0 0.496268,-0.20836 0.644594,-0.46302 0.485121,-0.8329 0.314759,-1.59698 -0.482672,-2.1648 z m -8.819993,-57.914019 c -0.325938,0.0465 -0.632322,0.292907 -0.68086,0.547568 -0.101156,0.530741 0.481981,0.619509 0.955968,0.145521 0.492697,-0.492697 0.376267,-0.786022 -0.275108,-0.693089 z m -6.507615,90.801759 c -0.412623,-0.15575 -1.097232,-0.73799 -1.521354,-1.29387 l -0.77113,-1.0107 -0.07778,-13.21261 c -0.08486,-14.41517 -0.100068,-14.25742 1.411026,-14.63668 1.315206,-0.3301 1.624504,-2.05589 0.452694,-2.52593 -0.400182,-0.16052 -0.991436,-0.41403 -1.313897,-0.56337 -0.419791,-0.19441 -0.694875,-0.18141 -0.968632,0.0458 -0.260297,0.21603 -0.43707,0.22875 -0.553802,0.0399 -0.22879,-0.37019 -11.950278,-0.38256 -12.178773,-0.0129 -0.08994,0.14552 -0.390429,0.26459 -0.667763,0.26459 -0.448244,1e-5 -1.052028,0.6975 -1.052028,1.21532 0,0.10547 0.565547,0.71081 1.256771,1.34521 l 1.25677,1.15345 0.132292,12.39019 c 0.08789,8.23181 0.227743,12.51473 0.416698,12.76125 0.156421,0.20407 0.432284,0.88771 0.613026,1.5192 0.220014,0.7687 0.794231,1.62126 1.737463,2.57969 0.774864,0.78734 1.524743,1.43153 1.666396,1.43153 0.141655,0 0.541502,0.22103 0.888548,0.49117 0.347046,0.27014 1.285838,0.64972 2.086202,0.84351 0.800365,0.1938 1.595927,0.45687 1.767917,0.58461 0.171989,0.12774 1.630505,0.30178 3.241145,0.38675 l 2.928438,0.15449 v -1.83372 c 0,-1.77085 -0.02572,-1.84342 -0.750224,-2.11689 z m 0.07098,-90.760648 c -0.574664,-0.22052 -1.115089,0.339312 -0.714375,0.740026 0.338677,0.338677 1.129035,0.128865 1.129035,-0.299715 0,-0.154654 -0.186597,-0.352795 -0.41466,-0.440311 z M -59.31113,41.177246 c -0.565399,-0.06693 -0.7072,0.02591 -0.7072,0.46302 0,0.396386 0.169776,0.546741 0.617361,0.546741 1.201311,0 1.278628,-0.86903 0.08984,-1.009761 z m -3.290938,70.965514 c -0.540319,-0.8092 -1.456573,-0.8995 -9.126703,-0.8995 h -7.776483 l -0.612163,0.65162 c -0.584767,0.62245 -0.592479,0.68166 -0.172313,1.32291 0.278469,0.425 0.684713,0.6713 1.107236,0.6713 0.367062,0 0.962655,0.29527 1.323541,0.65616 l 0.656156,0.65615 -0.07287,14.18964 -0.07287,14.18964 -0.874914,0.73028 c -0.817898,0.68269 -0.869624,0.82304 -0.79375,2.15369 l 0.08116,1.4234 3.221799,-0.0177 c 1.898444,-0.0104 3.365595,-0.13565 3.571875,-0.30486 0.192543,-0.15795 0.872839,-0.42697 1.511771,-0.59784 1.462103,-0.39101 3.789018,-2.53222 4.75039,-4.37128 l 0.691557,-1.32291 0.0856,-13.09149 c 0.07557,-11.55831 0.135242,-13.14635 0.509498,-13.5599 0.233145,-0.25762 0.546602,-0.46841 0.696571,-0.46841 0.371739,0 1.498364,-1.08274 1.493348,-1.43518 -0.0021,-0.15653 -0.09152,-0.41561 -0.198438,-0.57573 z m -3.914169,-70.48492 c -0.64117,0 -0.910426,0.11983 -0.910426,0.405178 0,0.573325 0.711796,0.775435 1.487001,0.42223 0.867635,-0.395322 0.566539,-0.827408 -0.576575,-0.827408 z m -13.580628,94.6292 c -1.176551,-1.99839 -3.400067,-3.04797 -5.72004,-2.70007 -1.266999,0.19 -3.400634,1.8331 -3.723288,2.86727 -0.100533,0.32224 -0.315571,0.67083 -0.477858,0.77464 -0.173152,0.11077 -0.295069,0.99228 -0.295069,2.13348 0,2.95374 1.126842,4.86852 3.975563,6.75543 0.673515,0.44612 1.571225,0.88726 1.994908,0.98032 0.423685,0.0931 0.838258,0.27909 0.921276,0.41342 0.08302,0.13432 0.563579,0.24423 1.067917,0.24423 0.755758,0 0.966428,-0.12793 1.198258,-0.72761 0.395266,-1.02244 -5.29e-4,-1.97484 -1.016815,-2.44739 -1.047096,-0.48684 -1.069162,-0.67326 -0.137461,-1.16126 2.765459,-1.44846 3.729481,-4.55603 2.212609,-7.13246 z M -92.476988,46.247056 c -0.07594,0.07594 -0.05603,0.270844 0.04426,0.433113 0.130884,0.211772 0.299323,0.198072 0.596863,-0.04854 0.373465,-0.309547 0.36908,-0.352447 -0.04426,-0.433113 -0.252333,-0.04924 -0.520922,-0.0274 -0.596863,0.04854 z m -4.701548,-0.05042 c -0.30163,-0.05847 -0.42885,0.03688 -0.353025,0.264583 0.0652,0.195797 0.330747,0.397134 0.590108,0.447411 0.30163,0.05847 0.42885,-0.03687 0.353025,-0.264584 -0.0652,-0.195797 -0.330747,-0.397134 -0.590108,-0.44741 z"
           id="path116"
           inkscape:connector-curvature="0" />
      </g>
    </g>
  </g>
</svg>
