<?xml version="1.0" encoding="UTF-8" standalone="no"?>
<!-- Created with Inkscape (http://www.inkscape.org/) -->

<svg
   xmlns:dc="http://purl.org/dc/elements/1.1/"
   xmlns:cc="http://creativecommons.org/ns#"
   xmlns:rdf="http://www.w3.org/1999/02/22-rdf-syntax-ns#"
   xmlns:svg="http://www.w3.org/2000/svg"
   xmlns="http://www.w3.org/2000/svg"
   xmlns:sodipodi="http://sodipodi.sourceforge.net/DTD/sodipodi-0.dtd"
   xmlns:inkscape="http://www.inkscape.org/namespaces/inkscape"
   width="210mm"
   height="612.74847mm"
   viewBox="0 0 210.00001 612.74845"
   version="1.1"
   id="svg8"
   inkscape:version="0.92.3 (2405546, 2018-03-11)"
   sodipodi:docname="militia.svg">
  <defs
     id="defs2" />
  <sodipodi:namedview
     id="base"
     pagecolor="#ffffff"
     bordercolor="#666666"
     borderopacity="1.0"
     inkscape:pageopacity="0.0"
     inkscape:pageshadow="2"
     inkscape:zoom="0.7"
     inkscape:cx="88.947816"
     inkscape:cy="1165.7981"
     inkscape:document-units="mm"
     inkscape:current-layer="layer1"
     showgrid="false"
     fit-margin-top="0"
     fit-margin-left="0"
     fit-margin-right="0"
     fit-margin-bottom="0"
     inkscape:window-width="1920"
     inkscape:window-height="1017"
     inkscape:window-x="-8"
     inkscape:window-y="-8"
     inkscape:window-maximized="1" />
  <metadata
     id="metadata5">
    <rdf:RDF>
      <cc:Work
         rdf:about="">
        <dc:format>image/svg+xml</dc:format>
        <dc:type
           rdf:resource="http://purl.org/dc/dcmitype/StillImage" />
        <dc:title></dc:title>
      </cc:Work>
    </rdf:RDF>
  </metadata>
  <g
     inkscape:label="Layer 1"
     inkscape:groupmode="layer"
     id="layer1"
     transform="translate(-244.21791,768.9437)">
    <path
       style="fill:#000000;stroke-width:2.3012948"
       d="m 260.67145,-156.97484 c -7.8743,-1.7447 -12.73212,-8.73199 -11.9087,-17.12877 0.65147,-6.646 1.93675,-7.91544 11.08614,-10.95237 13.98364,-4.64158 30.58263,-16.65717 32.50075,-23.52644 2.36876,-8.48305 2.21377,-137.54869 -0.20266,-168.76034 -1.16559,-15.05503 -3.21227,-28.46584 -4.54817,-29.80173 -2.99787,-2.99796 -3.23662,-34.2838 -0.28441,-37.2935 3.5026,-3.57098 9.86244,-30.96307 10.97654,-47.2765 1.06827,-15.64197 -3.30029,-36.78416 -7.91883,-38.32367 -1.5583,-0.51926 -3.02936,8.18098 -4.06466,24.04022 -0.89231,13.66982 -2.54889,29.91463 -3.68126,36.09955 -1.13228,6.18484 -2.05877,21.40826 -2.05877,33.82969 0,16.57506 -0.83064,23.07424 -3.12182,24.42483 -1.7774,1.04774 -4.38013,10.04197 -6.04376,20.885 -1.66128,10.82808 -4.68655,21.28806 -7.01217,24.24453 -2.2496,2.86002 -5.26556,9.56472 -6.70209,14.89952 -1.66868,6.1971 -3.92306,9.69945 -6.24312,9.69945 -3.07041,0 -3.4138,-2.22159 -2.22316,-14.38304 2.96691,-30.30482 2.43661,-42.82444 -2.02267,-47.75192 -3.70814,-4.09745 -3.83339,-5.34307 -1.05853,-10.52783 2.59395,-4.84694 2.61448,-6.2098 0.11656,-7.75357 -1.73574,-1.07279 -2.03929,-2.23795 -0.71062,-2.72694 2.79861,-1.02999 6.5725,-41.67267 9.79956,-105.53459 1.31033,-25.93155 3.37893,-48.1448 4.59688,-49.36275 1.21804,-1.21804 2.21455,-5.66523 2.21455,-9.88271 0,-12.471 5.66245,-23.25594 13.08081,-24.91409 3.5641,-0.79672 9.70101,-2.88454 13.63764,-4.63976 3.93663,-1.75521 12.73907,-4.37882 19.56102,-5.83022 17.28402,-3.67735 19.80578,-8.41479 10.49251,-19.71158 -2.94969,-3.57785 -6.70879,-11.42414 -8.35363,-17.43633 l -2.99066,-10.93114 h -11.20738 c -9.55959,0 -11.20739,-0.65668 -11.20739,-4.46676 0,-2.45669 0.87083,-5.00498 1.93526,-5.66279 1.06444,-0.65756 3.82191,-8.16585 6.12778,-16.68449 6.54241,-24.16955 21.64102,-43.04314 42.26221,-52.82844 10.59167,-5.0262 41.24466,-3.493 44.44345,2.2229 1.1629,2.078 3.58028,3.7782 5.37186,3.7782 12.80221,0 35.59534,38.74499 36.35727,61.80201 l 0.42967,12.99 -9.834,-0.7367 -9.83401,-0.7367 -5.67349,12.39263 c -3.12042,6.81586 -8.27431,14.83585 -11.45301,17.82207 -3.49061,3.27933 -5.77943,7.96971 -5.77943,11.84363 0,5.61565 1.21734,6.72828 9.78051,8.93891 5.37924,1.38869 13.04375,4.01761 17.03213,5.84197 15.24308,6.97234 16.47956,5.20633 19.01897,-27.16247 1.13403,-14.45506 2.99066,-23.86078 5.224,-26.46491 2.36084,-2.75285 4.75126,-16.50391 7.50298,-43.162 2.22108,-21.51704 4.96993,-40.10574 6.10865,-41.30824 1.13863,-1.2024 2.07025,-4.5069 2.07025,-7.3434 0,-5.9095 2.47418,-8.1664 6.33609,-5.7797 1.90778,1.1791 2.11131,5.8741 0.7167,16.5326 -1.07122,8.1872 -3.18357,26.27726 -4.6942,40.2001 -1.51055,13.92284 -3.83748,27.58405 -5.17102,30.3583 -2.01042,4.18243 -1.34869,6.32253 3.87426,12.5298 5.17389,6.14874 6.05533,8.94709 4.93531,15.66763 -0.74975,4.49998 -2.49018,17.50207 -3.86713,28.89342 -1.37695,11.39143 -3.13408,22.26508 -3.90471,24.16364 -0.77063,1.89855 -2.55437,12.7542 -3.96403,24.12363 -2.50479,20.20187 -1.09835,42.68571 3.31326,52.96973 5.11788,11.93018 7.41506,37.71544 4.55209,51.09458 -1.57022,7.33799 -3.72667,14.32546 -4.79206,15.52793 -2.55011,2.87811 -2.49775,20.44594 0.0696,23.24307 2.37033,2.58281 8.18064,65.25704 6.23041,67.20717 -0.73496,0.73584 -4.87825,0.2505 -9.20645,-1.07827 -7.40201,-2.27169 -8.29362,-1.93621 -15.00598,5.64549 -6.15031,6.94685 -8.12888,7.86221 -14.31824,6.62434 -8.43436,-1.68685 -12.71985,-6.61355 -14.76975,-16.9796 -2.81966,-14.25797 -8.73208,-10.79128 -10.83677,6.35401 -4.82833,39.33253 -8.93891,66.24868 -10.71936,70.18948 -1.14367,2.53141 -4.28567,20.13638 -6.98225,39.12204 -2.69667,18.98566 -5.8798,36.31761 -7.07384,38.51546 -5.30923,9.77303 1.95162,20.63242 16.03806,23.98681 3.27508,0.7802 6.99026,2.21847 8.25596,3.1968 1.26571,0.97841 6.96147,3.60993 12.65714,5.84788 11.66846,4.5847 21.58517,13.75845 19.82665,18.34115 -0.64277,1.67537 -3.59924,4.63854 -6.56971,6.58485 -4.58079,3.00153 -9.20298,3.20462 -30.44694,1.33816 -13.77541,-1.21021 -25.64001,-3.0538 -26.36575,-4.09667 -1.64189,-2.35954 -23.6102,-7.41592 -32.21981,-7.41592 -3.512,0 -11.2006,2.5602 -17.08563,5.68932 -10.57697,5.62383 -33.52752,9.06329 -44.40083,6.65408 z m 139.67391,-287.41871 c 2.11392,-2.61621 6.79334,-44.0009 6.79334,-60.0808 0,-5.60226 -1.65763,-14.03609 -3.68361,-18.74186 l -3.68352,-8.55595 -2.48871,5.75325 c -1.36877,3.16427 -4.2988,9.68101 -6.51109,14.48168 -6.3554,13.79116 -7.45585,21.90682 -3.74388,27.61049 1.81984,2.79635 4.02421,11.81563 4.89843,20.0428 2.3585,22.19532 4.41996,32.01097 5.55799,26.46482 0.51925,-2.53141 1.80688,-5.66993 2.86105,-6.97443 z"
       id="path164"
       inkscape:connector-curvature="0" />
  </g>
</svg>
