<?xml version="1.0" encoding="UTF-8" standalone="no"?>
<!-- Created with Inkscape (http://www.inkscape.org/) -->

<svg
   xmlns:dc="http://purl.org/dc/elements/1.1/"
   xmlns:cc="http://creativecommons.org/ns#"
   xmlns:rdf="http://www.w3.org/1999/02/22-rdf-syntax-ns#"
   xmlns:svg="http://www.w3.org/2000/svg"
   xmlns="http://www.w3.org/2000/svg"
   xmlns:sodipodi="http://sodipodi.sourceforge.net/DTD/sodipodi-0.dtd"
   xmlns:inkscape="http://www.inkscape.org/namespaces/inkscape"
   width="210mm"
   height="622.15558mm"
   viewBox="0 0 210.00001 622.15565"
   version="1.1"
   id="svg8"
   inkscape:version="0.92.3 (2405546, 2018-03-11)"
   sodipodi:docname="minister.svg">
  <defs
     id="defs2" />
  <sodipodi:namedview
     id="base"
     pagecolor="#ffffff"
     bordercolor="#666666"
     borderopacity="1.0"
     inkscape:pageopacity="0.0"
     inkscape:pageshadow="2"
     inkscape:zoom="1.4"
     inkscape:cx="363.62452"
     inkscape:cy="1104.9414"
     inkscape:document-units="mm"
     inkscape:current-layer="layer1"
     showgrid="false"
     fit-margin-top="0"
     fit-margin-left="0"
     fit-margin-right="0"
     fit-margin-bottom="0"
     inkscape:window-width="1920"
     inkscape:window-height="1017"
     inkscape:window-x="-8"
     inkscape:window-y="-8"
     inkscape:window-maximized="1" />
  <metadata
     id="metadata5">
    <rdf:RDF>
      <cc:Work
         rdf:about="">
        <dc:format>image/svg+xml</dc:format>
        <dc:type
           rdf:resource="http://purl.org/dc/dcmitype/StillImage" />
        <dc:title></dc:title>
      </cc:Work>
    </rdf:RDF>
  </metadata>
  <g
     inkscape:label="Layer 1"
     inkscape:groupmode="layer"
     id="layer1"
     transform="translate(-356.47937,1026.1394)">
    <path
       style="fill:#000000;stroke-width:1.19346952"
       d="m 375.82675,-406.71459 c -5.96903,-5.13431 -3.27498,-11.56407 9.85428,-23.51874 3.15888,-2.87628 6.39575,-6.33223 7.19298,-7.67982 2.12655,-3.59453 1.85748,-7.78208 -0.55442,-8.62997 -1.14875,-0.40371 -3.56552,-2.09862 -5.37063,-3.76625 -3.12225,-2.8844 -3.28203,-3.56579 -3.28203,-13.99749 0,-15.72159 -0.65469,-18.12158 -5.20847,-19.09432 -2.05839,-0.4398 -4.27962,-1.20068 -4.93602,-1.69108 -0.65641,-0.49041 -4.06992,-1.21538 -7.58555,-1.61111 -9.78865,-1.10184 -9.97544,-1.44515 -9.15173,-16.81987 0.94685,-17.67384 3.02911,-34.54599 4.3674,-35.38859 0.59749,-0.3762 1.60262,-7.62656 2.23363,-16.11187 1.30298,-17.52174 2.13801,-23.93837 3.56084,-27.36252 0.54553,-1.31281 2.1827,-10.44289 3.63819,-20.289 1.45544,-9.84611 3.02351,-18.43909 3.4846,-19.0955 0.83164,-1.18398 2.29024,-10.36791 4.92826,-31.03022 0.75425,-5.90768 1.77683,-11.27827 2.27238,-11.93468 0.49555,-0.6564 1.52671,-5.75851 2.29142,-11.33795 1.83989,-13.42395 3.66413,-22.83437 4.88235,-25.18582 0.54517,-1.05227 1.36328,-4.39464 1.8181,-7.42758 0.82569,-5.50596 0.81703,-5.52346 -5.63839,-11.42334 -8.77851,-8.0231 -13.4881,-17.30987 -14.52164,-28.63511 -0.44251,-4.85167 -1.53488,-10.49083 -2.42692,-12.53145 -0.89209,-2.04062 -2.59585,-8.2752 -3.78615,-13.85468 -1.19029,-5.57952 -2.52011,-10.41302 -2.95513,-10.74122 -1.42431,-1.0746 -3.52352,-18.9603 -3.52352,-30.0214 0,-8.3005 0.52744,-11.8414 2.2593,-15.1679 1.24262,-2.3869 4.58107,-9.1732 7.41878,-15.0809 2.83772,-5.9077 6.65458,-12.8358 8.48193,-15.3958 1.82735,-2.56 3.32244,-5.5286 3.32244,-6.5969 0,-1.0683 0.85194,-3.1586 1.8932,-4.6452 1.04127,-1.4867 3.07625,-5.4999 4.52212,-8.9182 3.64537,-8.6184 7.84321,-15.1664 9.72302,-15.1664 0.86949,0 3.91736,-1.7834 6.77307,-3.9632 5.08443,-3.8811 20.02886,-11.5519 22.50553,-11.5519 0.68875,0 3.23836,-1.001 5.66582,-2.2244 2.42746,-1.2235 6.56183,-3.2374 9.18745,-4.4755 5.01749,-2.3659 6.77921,-6.2766 4.21791,-9.3628 -0.82046,-0.9886 -1.43144,-8.2159 -1.58345,-18.7314 l -0.24764,-17.1218 3.87875,-3.787 c 3.59904,-3.5138 3.87879,-4.3531 3.87879,-11.6363 0,-4.3171 0.46845,-7.8493 1.04095,-7.8493 0.57251,0 1.39346,-2.2047 1.82433,-4.8992 1.1631,-7.2735 3.42821,-10.82193 11.21413,-17.56693 5.36888,-4.6512 8.27082,-6.2671 12.28814,-6.8428 2.89266,-0.4145 7.53607,-1.7769 10.31862,-3.0277 2.78259,-1.2507 5.6281,-2.2741 6.32339,-2.2741 0.69524,0 3.3864,-1.0253 5.98035,-2.2786 4.64423,-2.2438 4.78866,-2.2436 9.46302,0.014 2.61073,1.2614 7.44427,2.916 10.74122,3.6771 3.29691,0.761 5.99443,1.8285 5.99443,2.3722 0,0.5436 0.58554,0.9884 1.30113,0.9884 2.56052,0 10.56629,6.6306 12.24858,10.1445 0.94275,1.9693 2.44198,5.1381 3.33159,7.0419 0.92363,1.97663 1.61747,7.42483 1.61747,12.70113 0,7.3958 -0.45171,9.7395 -2.26354,11.7442 -2.23639,2.4746 -2.22407,2.5357 1.02674,5.0928 2.86694,2.2551 3.2089,3.1951 2.65764,7.305 -0.74292,5.5389 -5.93502,11.6114 -9.92798,11.6114 -4.60516,0 -4.41472,2.2932 0.64643,7.7838 5.64868,6.1281 6.02632,8.6225 1.89339,12.5051 -1.64105,1.5417 -2.98368,3.515 -2.98368,4.3852 0,0.8702 -0.71198,1.5822 -1.58219,1.5822 -1.58666,0 -6.77213,4.8337 -6.77213,6.3128 0,0.7269 3.47089,0.3721 10.59824,-1.0825 2.36868,-0.4835 2.73717,-0.1841 2.21803,1.801 -0.65618,2.5092 1.17085,4.58 6.27928,7.1172 12.02931,5.9746 12.31656,6.2875 13.90078,15.1413 0.81725,4.5675 1.86655,14.3662 2.33178,21.7749 0.4652,7.4087 1.29969,13.7509 1.85437,14.0937 0.55474,0.3428 1.01262,4.7538 1.01758,9.8023 0.005,5.0484 0.58523,12.6698 1.28945,16.9365 2.51149,15.2158 1.23694,35.7694 -2.55322,41.1746 -0.46028,0.6564 -2.07923,5.2215 -3.59769,10.1445 -1.51845,4.92312 -3.10894,9.21961 -3.5344,9.54781 -0.42536,0.32838 -1.09363,1.67083 -1.48489,2.98364 -0.39108,1.31285 -1.59509,4.80083 -2.67528,7.75109 -1.62252,4.43141 -1.71815,6.10905 -0.55018,9.64805 0.77761,2.35614 1.15106,5.31289 0.82989,6.57054 -0.37484,1.46847 -0.63349,0.95109 -0.7224,-1.44597 -0.18494,-4.98979 -2.6912,-7.07385 -6.01229,-4.99981 -2.97398,1.8573 -3.0471,2.90763 -0.60863,8.74373 1.39305,3.33399 2.21735,4.13451 3.22239,3.12947 1.69473,-1.69478 3.26005,-1.74034 3.26005,-0.0952 0,0.6906 -1.58922,1.80958 -3.5316,2.48674 -1.9587,0.68279 -3.85259,2.38271 -4.25219,3.81668 -0.3965,1.42206 -1.29887,3.76467 -2.0058,5.20581 -0.9902,2.01861 -0.82299,3.59457 0.72835,6.86374 2.74655,5.78797 2.9241,16.88753 0.35229,22.02793 -2.23124,4.45974 -2.82111,17.94431 -0.87035,19.89508 2.80019,2.80018 5.62265,74.72121 3.64983,93.00279 -0.70837,6.56409 -1.62599,27.93142 -2.03922,47.48296 -0.41318,19.55158 -1.20604,35.82934 -1.7619,36.17288 -0.55586,0.34372 -1.01068,1.94427 -1.01068,3.55718 0,2.2252 -1.07946,3.43164 -4.47547,5.00179 -2.46157,1.13811 -4.74405,2.33779 -5.07225,2.66599 -0.88731,0.88731 -8.37791,3.64829 -12.99773,4.79091 -6.60103,1.63258 -7.10385,2.84272 -7.43079,17.88387 l -0.29816,13.72373 3.50098,1.79135 c 1.92555,0.98529 3.7695,2.09344 4.0977,2.46265 1.16341,1.3087 13.82771,4.54575 20.87205,5.33495 4.09085,0.45834 8.56953,1.8136 10.47338,3.16926 2.96947,2.11446 3.291,2.99716 2.99735,8.22945 -0.31801,5.66673 -0.46731,5.88708 -4.50606,6.65043 -2.29742,0.43439 -13.03864,0.83855 -23.86936,0.8985 l -19.69227,0.10916 -9.32525,-4.54842 c -10.35691,-5.05159 -12.91514,-5.20126 -13.94566,-0.8159 -0.66764,2.84118 -1.15228,2.99333 -10.59386,3.32559 -9.10928,0.32072 -9.94481,0.15472 -10.53148,-2.08856 -0.35048,-1.34019 -1.0865,-2.43676 -1.63564,-2.43676 -1.14429,0 -5.88401,-10.21658 -5.88401,-12.68315 0,-0.90115 -1.01316,-1.63848 -2.25145,-1.63848 -1.76338,0 -2.43138,1.20017 -3.08174,5.53699 -0.45667,3.0453 -1.99457,7.33516 -3.41753,9.53298 -2.2422,3.46308 -3.24426,3.99796 -7.51337,4.01078 -5.60975,0.018 -6.97962,1.24952 -8.05882,7.25188 -0.87125,4.84541 -6.20909,10.43495 -12.84838,13.45404 -4.11913,1.87309 -21.50284,4.30605 -31.08827,4.35102 -2.90551,0.0135 -5.50001,-0.91775 -7.60838,-2.73135 z m 57.19993,-42.66953 c 13.69103,-2.53094 16.59402,-6.15483 15.34481,-19.15554 -0.62975,-6.55412 -2.1639,-7.25432 -9.02786,-4.12066 -3.49335,1.59491 -18.30923,4.18426 -34.47382,6.02506 -6.78304,0.77246 -9.66559,2.47189 -6.99374,4.12318 0.76272,0.47142 1.03644,1.77011 0.60823,2.88598 -0.50381,1.31299 0.17051,2.85206 1.91121,4.36172 2.07332,1.79821 2.38158,2.70406 1.34519,3.95286 -0.73945,0.89101 -0.9911,1.97341 -0.5592,2.40531 1.25395,1.25394 24.35192,0.90729 31.84518,-0.47791 z m 65.57978,-7.27255 c 2.75228,-0.78645 5.61931,-1.89208 6.37112,-2.45696 2.39083,-1.79623 3.04895,-9.00964 1.20238,-13.17794 -0.94441,-2.13173 -2.05203,-4.88297 -2.46142,-6.11382 -0.63133,-1.89804 -1.50276,-2.11663 -5.73754,-1.43947 -2.74628,0.43934 -5.55689,1.2419 -6.24586,1.78395 -0.68897,0.54202 -3.40093,1.3438 -6.02659,1.7818 -17.0731,2.84781 -17.38344,2.97551 -17.17175,7.06518 0.10781,2.08325 -0.0135,4.57364 -0.26704,5.53424 -0.25485,0.96057 0.74522,2.29634 2.22213,2.9683 2.90254,1.32062 3.37581,2.4751 1.49184,3.63946 -0.6564,0.40551 -1.19345,1.32395 -1.19345,2.04062 0,1.64417 20.5835,0.4416 27.81627,-1.62536 z m -45.95702,-27.50701 c 0.84455,-0.84455 1.42941,-4.88442 1.4254,-9.84616 -0.009,-10.28663 2.26241,-32.59775 3.65001,-35.86376 0.55775,-1.31281 1.6023,-12.05403 2.32118,-23.86936 0.71888,-11.81537 1.52761,-23.63069 1.79713,-26.25631 0.26974,-2.62566 0.83814,-13.36689 1.2636,-23.8694 0.42536,-10.50257 1.18975,-19.6326 1.69857,-20.289 1.78138,-2.29823 4.79141,-39.62654 4.79141,-59.42003 0,-10.98796 0.51039,-20.91062 1.13422,-22.05044 1.2055,-2.2026 5.33361,-42.15067 5.39396,-52.19809 0.0361,-5.91482 0.002,-5.968 -3.79661,-6.03886 -4.47101,-0.0835 -9.42133,-3.86062 -7.53367,-5.74828 1.72879,-1.72879 1.52075,-12.1557 -0.2702,-13.5392 -0.8205,-0.6338 -3.77437,-0.9117 -6.56409,-0.6175 l -5.07225,0.535 v 7.63215 7.63219 l 5.07225,0.14118 c 4.56687,0.12721 4.71554,0.21832 1.49184,0.91271 -2.51686,0.54233 -3.58041,1.47529 -3.58041,3.14083 0,6.01514 -4.41273,7.00917 -10.05175,2.26427 -3.15076,-2.6512 -4.36312,-2.97182 -8.55771,-2.26314 -3.99264,0.67454 -5.56365,1.78576 -8.58522,6.07242 -2.03403,2.88575 -4.13194,5.24682 -4.662,5.24682 -0.53005,0 -0.96372,0.86304 -0.96372,1.91792 0,1.26396 -0.64801,1.6692 -1.90065,1.18854 -1.26792,-0.48658 -2.10886,0.0668 -2.52615,1.66248 -0.34417,1.31556 -1.09991,2.39187 -1.67976,2.39187 -0.57986,0 -1.05425,0.5371 -1.05425,1.1935 0,0.65641 0.82447,1.19346 1.83217,1.19346 2.94444,0 7.47698,-3.50937 10.17883,-7.88105 4.65586,-7.53336 6.51569,-5.19409 7.85303,9.87759 0.69073,7.78443 0.48279,9.02881 -2.2934,13.72487 -1.67917,2.84037 -5.24537,7.28729 -7.92489,9.88201 -2.67952,2.59477 -4.87188,5.1299 -4.87188,5.63361 0,0.89065 -2.64226,6.92148 -9.69171,22.12095 -1.89005,4.07519 -3.43647,8.20573 -3.43647,9.17897 0,0.97324 -0.50638,2.08253 -1.12534,2.46504 -1.43997,0.88992 -9.61589,-7.22609 -9.61589,-9.54543 0,-0.96277 -0.47439,-1.75044 -1.05425,-1.75044 -0.57986,0 -1.44236,-1.20838 -1.91671,-2.68529 -0.82001,-2.55322 -0.89137,-2.56793 -1.45043,-0.29816 -0.32342,1.3128 -1.27474,3.99814 -2.11414,5.96736 -1.75378,4.11439 -6.5926,33.71168 -6.5926,40.32458 0,2.43679 -0.45225,4.4305 -1.00495,4.4305 -1.09665,0 -5.06733,31.43299 -4.82438,38.19104 0.11051,3.06938 0.43799,2.27811 1.2354,-2.98368 0.59691,-3.93843 1.5646,-8.23492 2.1505,-9.54773 0.58586,-1.31285 2.21261,-10.71141 3.61505,-20.88572 1.40244,-10.17436 3.01666,-19.57292 3.58713,-20.88572 0.57048,-1.31281 1.6734,-5.2355 2.45087,-8.71708 0.77752,-3.48157 1.56884,-6.16687 1.75856,-5.96736 0.67874,0.71387 -2.08049,30.24779 -3.04444,32.58648 -0.54106,1.31281 -2.15063,11.51698 -3.57675,22.6759 -1.42612,11.15897 -3.05928,21.3631 -3.62931,22.67591 -0.89015,2.05018 -3.50575,29.77916 -3.48424,36.93777 0.0135,3.76841 3.30264,-3.13006 5.34718,-11.20755 1.67543,-6.61903 1.67778,-6.60442 1.00356,6.19511 -0.66723,12.66646 -0.143,15.38847 1.95311,10.1445 0.67408,-1.68626 0.81396,2.31004 0.37574,10.74122 -0.74148,14.27238 0.64445,17.89947 3.10525,8.12675 0.73399,-2.91489 1.96312,-5.68828 2.73144,-6.16313 0.98704,-0.61003 1.11794,-0.19306 0.44611,1.42103 -0.52298,1.25637 -1.14136,9.53464 -1.37416,18.39614 -0.32748,12.4587 -0.14344,15.16474 0.81023,11.93473 0.67841,-2.29746 2.01107,-5.86952 2.96148,-7.93793 0.95046,-2.06845 1.73628,-4.75374 1.74634,-5.96736 0.009,-1.21362 0.51982,-2.9997 1.13283,-3.9691 0.7021,-1.11028 0.8699,5.29418 0.45347,17.30531 -0.55329,15.95778 -0.36447,19.45717 1.15664,21.4548 1.64544,2.16056 3.6663,2.45119 21.30911,3.06465 10.7202,0.37259 21.66639,0.77558 24.32485,0.89512 2.65846,0.11953 5.47804,-0.42717 6.2657,-1.2148 z m -62.92096,-73.25915 c 0.0573,-1.39035 0.34011,-1.67313 0.72105,-0.72104 0.34462,0.86151 0.30222,1.89091 -0.0943,2.28749 -0.39649,0.3965 -0.67869,-0.30853 -0.62686,-1.56645 z m 27.7906,-114.4736 c 0.40777,-4.59488 0.74531,-10.7263 0.74996,-13.62545 0.005,-2.89915 0.34823,-4.93151 0.76331,-4.51634 1.32954,1.32954 0.51391,23.92024 -0.91149,25.24635 -0.99106,0.92205 -1.14884,-0.94089 -0.60178,-7.10456 z m 25.45593,-33.58363 c -1.24429,-1.24429 0.33154,-2.81718 2.82278,-2.81718 1.27406,0 2.3165,0.80557 2.3165,1.79018 0,1.7702 -3.66391,2.50238 -5.13928,1.027 z m -3.81177,-11.77621 c 3.98647,-1.80561 15.85141,-3.63395 16.88365,-2.60171 0.8639,0.8639 -6.92851,2.79581 -14.49669,3.59403 -5.79524,0.6112 -5.86407,0.58261 -2.38696,-0.99232 z m 5.41326,-10.49575 c 2.04161,-1.81396 10.62517,-4.88591 11.42294,-4.0881 0.29996,0.29997 -1.217,1.19982 -3.37138,1.9993 -2.15438,0.79953 -4.8496,1.94594 -5.98942,2.54759 -3.00087,1.58404 -4.08891,1.34194 -2.06214,-0.45879 z m 72.16227,237.41429 c 9.58219,-2.13949 19.91221,-7.05752 21.10021,-10.04562 0.44611,-1.12223 0.84897,-7.70644 0.89507,-14.63152 0.0492,-7.4016 0.62145,-13.12863 1.38809,-13.89528 1.87476,-1.87476 2.19931,-121.08339 0.33605,-123.40809 -0.7389,-0.92186 -1.61981,-8.12089 -1.95757,-15.99779 -0.66191,-15.43709 -1.90155,-21.04635 -4.04547,-18.30534 -1.65585,2.11703 -3.91114,16.57304 -4.79678,30.74618 -0.39288,6.28573 -1.18398,12.02805 -1.75824,12.76077 -0.57431,0.73278 -1.38981,9.70876 -1.81224,19.94672 -0.42221,10.23792 -1.08759,18.41749 -1.47813,18.17684 -1.08132,-0.66642 0.98019,-57.14909 2.11311,-57.89751 0.54431,-0.35951 1.32183,-3.91385 1.7278,-7.89837 0.86096,-8.45004 3.6579,-19.79255 6.20882,-25.17919 0.9847,-2.07928 2.1219,-6.19967 2.52719,-9.15647 0.64666,-4.71784 0.11863,-6.61858 -4.31503,-15.52609 -2.77858,-5.5826 -4.79596,-10.86072 -4.48314,-11.72926 0.34597,-0.96039 1.20577,-0.17637 2.19443,2.00133 3.27102,7.20425 8.2351,14.31171 8.2351,11.79078 0,-13.91607 -10.51059,-36.36621 -15.56367,-33.24324 -1.78057,1.10045 -1.36391,4.63178 1.27203,10.78119 3.62448,8.45554 1.83272,7.86617 -2.26949,-0.74652 -3.56679,-7.48857 -3.56859,-7.50368 -1.26297,-10.43486 2.63541,-3.3504 3.00958,-7.70964 0.81717,-9.52138 -2.99906,-2.47834 -10.29096,-3.01391 -13.3898,-0.98348 -3.81168,2.49751 -5.08696,2.42665 -5.96227,-0.33109 -0.95822,-3.01905 -5.1962,-3.6625 -13.3561,-2.0279 -7.25749,1.45382 -8.52573,2.88783 -8.68103,9.81567 -0.046,2.05825 -0.88614,5.28064 -1.86673,7.16081 -1.2046,2.30973 -1.79718,7.09568 -1.82704,14.75643 -0.0225,6.23584 -0.6274,15.36591 -1.34019,20.28895 -0.71279,4.92308 -1.36752,21.89193 -1.45498,37.70866 -0.10601,19.19888 -0.60318,29.3146 -1.49523,30.43344 -3.4468,4.32293 -6.36954,38.6469 -6.39778,75.13391 -0.0135,20.39766 -0.4545,30.92413 -1.32525,31.79488 -1.52405,1.52405 -3.06637,42.42028 -1.79136,47.50028 l 0.83472,3.32582 22.31324,-0.64914 c 13.47686,-0.39198 25.62169,-1.38782 30.66755,-2.51443 z m 5.71197,-83.69422 c 0.009,-3.28203 0.24087,-4.48306 0.51503,-2.66888 0.27426,1.81413 0.26704,4.49943 -0.018,5.96732 -0.28328,1.46793 -0.50773,-0.0181 -0.4988,-3.29844 z m 1.26914,-19.69223 c 0,-5.57948 0.20569,-7.86201 0.45685,-5.07225 0.25125,2.78972 0.25125,7.35474 0,10.1445 -0.25125,2.78972 -0.45685,0.50719 -0.45685,-5.07225 z m -9.26247,-82.94612 c 0.36041,-2.62566 1.55815,-8.53334 2.66175,-13.12818 l 2.00657,-8.35431 0.36401,6.36264 c 0.20028,3.49939 -0.21967,7.066 -0.93314,7.9257 -0.71351,0.85971 -2.07512,3.90419 -3.02585,6.76554 l -1.72857,5.20248 z m -29.3081,-14.53251 c 0.0226,-0.54043 1.35214,-1.93912 2.95892,-3.10822 2.89098,-2.10345 2.91096,-2.09727 1.91639,0.59673 -0.94708,2.56535 -4.95619,4.63064 -4.87531,2.51149 z m 22.48618,-39.472 c -1.48449,-1.89293 -1.44231,-1.93511 0.45062,-0.45062 1.98803,1.55914 2.62025,2.53919 1.63795,2.53919 -0.24764,0 -1.18768,-0.93986 -2.08857,-2.08857 z m -23.14687,-11.35635 c -4.25535,-3.66034 -3.20629,-8.72452 2.04639,-9.87819 2.01369,-0.4425 4.13365,-0.24087 4.83404,0.45969 0.86759,0.8676 0.54485,1.06368 -1.05998,0.644 -2.83059,-0.74021 -6.97385,3.46331 -5.97616,6.06313 0.83877,2.18582 4.49794,2.41212 6.50757,0.40236 1.11388,-1.11389 1.43216,-1.03436 1.43216,0.35815 0,1.87963 -2.23715,4.65451 -3.75254,4.65451 -0.48851,0 -2.30269,-1.21664 -4.03148,-2.7037 z m -78.56988,49.54739 c 5.74769,-13.97268 9.49215,-20.00301 18.37251,-29.58841 8.8454,-9.54772 9.5014,-10.61424 9.5014,-15.44814 0,-5.95068 -0.90481,-8.96796 -2.68922,-8.96796 -0.6822,0 -3.84298,2.28253 -7.02391,5.07225 -3.18094,2.78972 -8.25116,7.19911 -11.26714,9.79866 -3.01597,2.59954 -6.62295,6.89603 -8.01556,9.54777 -2.58705,4.92614 -7.22978,27.63985 -6.04237,29.56111 0.91113,1.47425 3.91199,-2.73509 4.02386,-5.6443 0.0505,-1.31281 0.86602,-3.99811 1.81233,-5.96732 l 1.72049,-3.58041 -0.6938,5.37059 c -0.38161,2.95387 -1.44858,6.93005 -2.37108,8.83602 -2.00286,4.13807 -2.10674,5.48562 -0.4231,5.48562 0.68992,0 2.08284,-2.01396 3.09541,-4.47548 z m -0.39153,-35.20736 c 1.01379,-2.13336 3.49177,-5.4562 5.50658,-7.3841 2.01482,-1.92794 3.66332,-4.42076 3.66332,-5.5396 0,-2.88449 -6.03367,-4.25567 -7.8423,-1.7822 -0.75451,1.03188 -1.80741,1.87611 -2.33977,1.87611 -2.0708,0 -5.33302,4.0853 -5.33302,6.67862 0,1.50054 -0.53705,3.06018 -1.19345,3.46588 -0.65641,0.40551 -1.15944,1.64575 -1.11786,2.75571 0.06,1.60307 0.27832,1.51868 1.05999,-0.41003 1.24456,-3.07047 4.62766,-5.9311 5.72112,-4.83765 0.45743,0.45744 0.21832,1.21069 -0.53096,1.67385 -0.74947,0.46321 -1.732,2.31375 -2.18339,4.11227 -1.19751,4.77125 2.25037,4.314 4.58974,-0.60868 z m -10.17549,-16.18868 c 4.513,-4.00108 9.93317,-7.65848 12.2327,-8.25435 3.28717,-0.85177 4.12905,-1.6628 4.12905,-3.97776 0,-2.23919 -0.70958,-2.99027 -3.08584,-3.26651 -1.7172,-0.19983 -3.76702,0.46208 -4.62163,1.49184 -0.84473,1.01781 -2.4437,1.85054 -3.55334,1.85054 -2.25781,0 -8.43145,5.92636 -8.43145,8.09373 0,0.76944 -1.24497,2.21473 -2.76658,3.21174 -1.72333,1.12918 -3.38758,4.09333 -4.41346,7.86071 -0.9058,3.32636 -2.10372,6.33025 -2.66202,6.67532 -0.55829,0.34507 -0.34823,1.43095 0.467,2.41312 1.24903,1.50496 1.7273,0.94459 3.04196,-3.56408 1.22287,-4.19383 3.31103,-6.90231 9.66361,-12.5343 z m -14.08049,5.7458 c 0.35996,-0.32838 1.30293,-2.07364 2.09601,-3.87875 1.31299,-2.98842 1.2207,-3.28207 -1.03111,-3.28207 -1.46938,0 -2.72643,-0.96873 -3.09726,-2.38691 -0.79187,-3.02797 -1.24705,-2.99396 -3.9936,0.29816 -2.99387,3.58876 -2.88205,7.39177 0.34553,11.7575 l 2.66517,3.60486 1.18056,-2.7581 c 0.64927,-1.51697 1.47488,-3.02667 1.83456,-3.35487 z m 160.92694,-1.77985 c 0.25396,-2.16796 -0.28282,-3.76612 -1.49184,-4.44278 -1.0386,-0.58121 -1.88838,-1.81679 -1.88838,-2.74569 0,-1.80926 -4.54201,-4.78947 -5.63447,-3.69706 -0.36086,0.36086 0.14074,1.88135 1.1147,3.37874 0.974,1.49743 2.44022,4.76434 3.25829,7.25991 1.69027,5.15615 4.05206,5.28182 4.6417,0.24674 z m -134.01607,-6.65381 c 1.28452,-2.07838 -0.17863,-2.51853 -1.81531,-0.54621 -0.94135,1.13428 -1.03188,1.81905 -0.24042,1.81905 0.69804,0 1.62315,-0.57277 2.05582,-1.27284 z m -16.38535,-7.03312 c 2.70844,-3.66331 3.09487,-5.879 1.84152,-10.55867 -0.44657,-1.66745 -1.37439,-2.50834 -2.35317,-2.13273 -1.20004,0.4605 -1.33564,0.0938 -0.52704,-1.42432 0.59889,-1.12444 1.36527,-2.94646 1.70308,-4.04898 0.37529,-1.22458 2.61484,-2.40378 5.75608,-3.03055 l 5.14194,-1.02597 -0.42627,-5.32376 c -0.23456,-2.9281 -0.84315,-5.5923 -1.35259,-5.9205 -0.50945,-0.3283 -1.53803,-3.5592 -2.28569,-7.18 -0.74766,-3.6209 -2.10237,-8.0155 -3.01043,-9.7658 -0.9081,-1.7503 -2.04008,-4.9534 -2.51551,-7.1181 -0.77044,-3.5078 -0.65803,-3.7645 1.03373,-2.3604 1.6291,1.352 2.77772,0.8411 8.10266,-3.6039 11.97298,-9.9943 20.31417,-20.8086 23.22586,-30.1122 1.76316,-5.6337 2.15884,-3.8177 1.72707,7.9262 -0.20163,5.4791 0.11638,6.8624 1.57692,6.8624 1.60609,0 1.62454,0.3947 0.15156,3.234 -1.45134,2.7974 -1.44177,3.4949 0.0708,5.1662 2.11486,2.337 2.28429,7.2953 0.31665,9.2631 -1.11388,1.1139 -0.92926,1.4322 0.83084,1.4322 1.90804,0 1.66469,0.6173 -1.55148,3.9356 -4.36758,4.5062 -5.1999,7.631 -1.50605,5.6541 3.09785,-1.6579 4.19572,-1.5581 2.82035,0.2563 -0.6219,0.8205 -1.22129,4.2312 -1.33193,7.5794 -0.2278,6.89 2.57406,10.8213 6.90505,9.6887 1.33442,-0.3492 2.4262,-0.1475 2.4262,0.4474 0,1.9392 4.92118,1.1391 8.02864,-1.3052 3.58136,-2.8171 7.48645,-3.1283 7.48645,-0.5967 0,1.3426 1.43216,1.7902 5.72865,1.7902 3.15076,0 6.23887,-0.4896 6.86248,-1.088 0.62356,-0.5984 3.54815,-1.5548 6.49904,-2.1253 6.104,-1.18 6.77267,-2.6195 7.02496,-15.1221 0.21155,-10.4933 3.94248,-37.0459 5.33427,-37.9651 0.82249,-0.5432 0.80725,-1.3177 -0.0469,-2.3869 -0.69551,-0.8706 -1.64836,-4.2681 -2.11748,-7.5502 -0.89714,-6.2768 -3.85015,-18.5246 -4.66209,-19.3366 -0.26207,-0.2621 -4.0622,0.6818 -8.44466,2.0977 -4.38247,1.4157 -8.23663,2.3056 -8.56484,1.9774 -0.32793,-0.3284 2.6581,-2.8798 6.63622,-5.6703 7.79309,-5.4665 8.27736,-6.7104 5.34488,-13.7288 -2.46594,-5.9019 -14.41171,-22.0282 -16.32084,-22.0325 -0.81582,0 -3.63156,1.0131 -6.25718,2.2553 -15.26907,7.2242 -20.87517,9.5789 -25.95797,10.9031 -3.11797,0.8122 -5.66898,2.0879 -5.66898,2.8348 0,0.747 1.24361,3.2282 2.7636,5.5139 1.52003,2.2857 3.46489,5.9013 4.32198,8.0346 1.31939,3.2842 2.16565,3.8788 5.52021,3.8788 2.17905,0 4.29383,0.537 4.69952,1.1934 0.40552,0.6564 2.03769,1.1935 3.62669,1.1935 3.05414,0 12.2853,3.2255 14.23674,4.9745 0.63521,0.5693 -1.51304,0.226 -4.77386,-0.7633 -3.26082,-0.9891 -10.05482,-1.8042 -15.09775,-1.8113 -8.47877,-0.014 -9.22706,-0.2152 -9.94102,-2.6982 -4.29852,-14.9508 -15.14178,-26.43 -22.36994,-23.6819 -4.23532,1.6103 -10.4331,7.2205 -10.45768,9.4663 -0.0135,1.0904 -1.63921,4.3697 -3.61609,7.2874 -1.97688,2.9177 -3.91898,6.6772 -4.3157,8.3543 -0.39695,1.6772 -1.3913,3.855 -2.21014,4.8396 -0.81879,0.9846 -1.86276,3.0167 -2.31988,4.5159 -0.45711,1.4991 -1.74904,3.6473 -2.87095,4.7739 -1.12192,1.1264 -3.35686,5.002 -4.96647,8.6122 -1.60967,3.6103 -3.2975,6.8411 -3.75074,7.1796 -0.45324,0.3388 -1.99136,4.3665 -3.41802,8.9511 -1.42662,4.5845 -3.15599,9.5248 -3.84298,10.9784 -1.6199,3.4277 -1.61936,22.3182 7.7e-4,25.7443 0.68744,1.4536 2.41095,7.4765 3.83012,13.3842 1.41913,5.90766 3.2868,12.08383 4.15034,13.72488 0.86359,1.64101 1.92158,5.40045 2.3511,8.35427 0.42942,2.95382 1.24821,6.12019 1.81918,7.03637 1.28363,2.05947 4.63218,0.92398 5.71251,-1.93705 1.10468,-2.92545 7.43877,-9.14005 8.36839,-8.21047 0.41814,0.41815 -0.94879,2.52295 -3.03723,4.67769 -4.14114,4.27259 -4.5375,5.57006 -2.36503,7.74253 2.64714,2.64713 7.50174,1.65531 10.27806,-2.09994 z m 61.68813,-59.76158 c -2.06218,-1.0253 -1.92844,-1.1235 0.98298,-0.7222 3.25658,0.4488 10.31121,-1.7537 16.17614,-5.0506 2.68646,-1.5102 2.79459,-2.0172 2.03186,-9.5276 -1.06661,-10.5024 -2.29317,-11.6559 -8.96606,-8.4319 -3.46078,1.6721 -6.22064,2.2387 -8.30136,1.7044 -6.09939,-1.5663 -12.28805,-2.0567 -13.14726,-1.0418 -0.47976,0.5666 -0.56745,4.7874 -0.19486,9.3793 0.65568,8.0817 0.81112,8.4177 4.85451,10.4929 4.12797,2.1186 4.13501,2.1354 0.59677,1.4186 -5.2953,-1.0727 -6.28428,-2.7306 -6.8802,-11.5336 -0.43709,-6.4548 -1.1552,-8.7125 -3.75466,-11.8018 -2.44158,-2.9016 -3.12771,-4.8564 -2.85386,-8.1302 0.31981,-3.8221 0.76579,-4.3485 3.94095,-4.6505 1.96922,-0.1871 4.67143,-0.8865 6.00485,-1.5539 1.33347,-0.6673 8.51346,-1.5998 15.95556,-2.0721 15.32613,-0.9727 15.15455,-1.0678 14.68922,8.1437 -0.14931,2.9538 -0.40056,10.7313 -0.55843,17.2832 l -0.28689,11.9127 -4.77386,2.2625 c -5.75748,2.7287 -12.26717,3.5338 -15.51513,1.9189 z m 12.10054,-29.7423 c 5.34704,-2.0297 5.8015,-2.5154 5.8015,-6.2007 v -3.9984 l -10.12307,0.382 c -5.56771,0.2102 -10.66978,0.8208 -11.33796,1.3569 -0.66817,0.5362 -3.45532,1.3442 -6.19362,1.7956 -4.84603,0.7989 -7.51626,3.5433 -5.45408,5.6055 0.54088,0.5409 3.4366,1.4417 6.43494,2.0019 2.99839,0.5601 6.70542,1.8966 8.23785,2.97 2.50744,1.7563 2.98874,1.7683 4.80959,0.1204 1.11285,-1.0071 4.63403,-2.822 7.82485,-4.0333 z m -9.71359,-0.054 c 0.40552,-0.6565 0.97441,-1.1935 1.26391,-1.1935 0.28959,0 0.52627,0.537 0.52627,1.1935 0,0.6564 -0.56876,1.1934 -1.26387,1.1934 -0.69515,0 -0.93201,-0.537 -0.52631,-1.1934 z m -27.85808,-14.3217 c 0,-1.641 0.27064,-2.3123 0.60196,-1.4918 0.33109,0.8205 0.33109,2.1632 0,2.9837 -0.33109,0.8205 -0.60196,0.1493 -0.60196,-1.4919 z m 27.26135,-7.0345 c 0,-0.587 1.29111,-0.9898 2.86916,-0.8952 1.57799,0.095 2.62043,0.575 2.31649,1.0673 -0.78022,1.2637 -5.18565,1.1175 -5.18565,-0.1723 z m 87.12326,109.07613 c 0,-3.03257 -2.71818,-4.15083 -4.21246,-1.73303 -1.14956,1.86006 0.29455,4.71672 2.38479,4.71672 1.1539,0 1.82767,-1.1 1.82767,-2.98369 z m -4.79398,-5.81507 -0.0181,-3.73265 -2.46034,3.8414 c -1.35323,2.11274 -2.10192,4.42135 -1.66384,5.13017 1.40253,2.2694 4.16591,-1.22386 4.1443,-5.23892 z m -136.96326,-2.06074 c -0.61058,-7.48455 -1.40858,-9.42946 -3.86879,-9.42946 -1.72617,0 -2.36417,0.80522 -2.36417,2.98364 0,1.64106 0.53705,2.98368 1.19345,2.98368 0.65641,0 1.19346,1.03021 1.19346,2.28934 0,3.51916 1.34077,6.21681 2.83234,5.69875 0.73968,-0.25711 1.1958,-2.29358 1.01371,-4.52595 z m 16.88996,3.94095 c 0.32342,-0.5232 0.74008,-6.39412 0.9261,-13.04649 0.26975,-9.64658 -0.0406,-12.53458 -1.54195,-14.26548 -2.90944,-3.3585 -4.6412,-9.6645 -5.43032,-19.774 -0.83633,-10.7147 -2.08387,-11.525 -8.3673,-5.4348 -4.55379,4.4137 -4.78492,6.273 -1.6416,13.2054 1.26166,2.7826 3.1163,8.8075 4.12143,13.3888 1.11555,5.08474 2.66278,8.90449 3.97176,9.80542 4.64215,3.1951 5.12791,4.19504 5.12791,10.55534 0,5.83537 1.20491,8.20171 2.83397,5.56581 z m 133.36305,-6.80632 c 1.20978,-3.93847 2.78805,-8.15918 3.50725,-9.37933 0.71923,-1.22016 2.28135,-5.92712 3.47138,-10.45992 1.19002,-4.5328 2.89441,-9.1238 3.78754,-10.2022 2.04486,-2.4693 2.19146,-25.1125 0.189,-29.2138 -0.79628,-1.6311 -1.87697,-15.0434 -2.582,-32.0452 -0.72803,-17.5568 -1.83682,-31.1409 -2.77506,-33.9976 -1.65283,-5.0323 -4.58716,-6.6357 -7.58726,-4.1458 -2.18663,1.8147 -2.36846,14.3164 -0.24087,16.5715 1.1935,1.265 1.1935,1.6907 0,2.1283 -1.06364,0.3902 -1.49184,4.1332 -1.49184,13.0409 0,11.7717 -3.48614,35.3994 -5.88225,39.8675 -0.5421,1.0108 -1.37046,4.636 -1.84079,8.0559 l -0.85524,6.2181 h 4.6578 c 2.56175,0 5.62437,0.7068 6.80582,1.5707 2.78927,2.0396 1.99114,6.0832 -1.29346,6.5535 -1.51398,0.217 -2.84641,1.5045 -3.25942,3.15 -0.38612,1.538 -1.9048,3.0981 -3.39429,3.4867 -6.22042,1.6228 -9.35377,5.7534 -10.9946,14.49392 -3.14255,16.73957 -1.57664,26.30475 2.92829,17.8872 2.10905,-3.94077 4.12508,-3.76454 7.38563,0.64562 4.11083,5.56018 6.83154,4.34534 9.46442,-4.22599 z m -98.69522,-0.29816 c -0.45956,-3.11792 -1.34755,-5.99979 -1.97337,-6.40413 -0.68649,-0.44341 -0.5024,-1.80724 0.46402,-3.43796 1.26324,-2.13147 1.28647,-2.81706 0.11007,-3.2431 -0.82051,-0.29726 -1.49184,-1.8829 -1.49184,-3.5239 0,-1.8542 -0.56475,-2.7971 -1.49185,-2.4908 -2.50892,0.8291 -2.65178,16.2634 -0.19351,20.89008 3.21856,6.05717 5.59586,5.12723 4.57634,-1.79019 z m -18.7544,1.50822 c 8.201,-0.80589 12.79344,-2.99947 9.95383,-4.75442 -0.68829,-0.42537 -1.25142,-3.21125 -1.25142,-6.19078 v -5.41741 l -7.2531,0.84184 c -12.48305,1.4488 -13.47271,1.94941 -14.5419,7.35586 -1.14347,5.7821 0.71473,12.06369 3.01765,10.20097 0.80963,-0.65487 5.34335,-1.57109 10.07494,-2.03606 z m -22.56647,0.34146 c 0.78767,-0.78767 1.43216,-2.68069 1.43216,-4.20668 0,-3.17963 -4.19667,-5.34195 -8.29022,-4.27145 -3.85718,1.00864 -3.00199,7.70973 1.12941,8.84932 4.29441,1.18462 4.16441,1.19305 5.72865,-0.37123 z m 99.60441,-5.73921 2.15812,-5.36003 -0.62618,4.92132 -0.62618,4.92132 4.92317,0.78721 c 2.70776,0.43304 5.21014,0.50029 5.5609,0.14976 0.35093,-0.35094 0.88257,-3.59092 1.1819,-7.20042 l 0.54423,-6.56269 h -4.32491 c -2.57397,0 -4.39352,0.60399 -4.49429,1.49184 -0.0929,0.8205 -0.49596,-0.65122 -0.89511,-3.27048 -0.46646,-3.06099 -1.42012,-4.89439 -2.66937,-5.13179 -1.53352,-0.2914 -2.1192,1.0359 -2.77596,6.29246 -0.4578,3.66408 -1.59383,8.12165 -2.52454,9.90569 -2.21947,4.25445 -2.1436,5.29301 0.35139,4.81248 1.13982,-0.21967 3.02166,-2.78855 4.21665,-5.75649 z m -7.46123,0.30899 c 0.004,-1.14871 0.80963,-3.62687 1.79022,-5.50704 2.25985,-4.33312 2.24618,-5.53261 -0.0631,-5.53261 -1.58503,0 -1.54285,-0.4163 0.29816,-2.9461 2.2303,-3.0643 9.00536,-4.2438 10.4986,-1.8277 0.40551,0.6564 1.70177,1.1934 2.88025,1.1934 1.62833,0 2.75819,-2.0768 4.70719,-8.6526 1.41051,-4.759 2.56287,-9.3313 2.5608,-10.1607 -0.002,-0.8294 0.49487,-2.4406 1.10432,-3.5804 0.60945,-1.1398 1.68107,-5.2376 2.38141,-9.1064 0.70034,-3.8686 2.61844,-9.8773 4.26252,-13.3526 1.64408,-3.4752 2.98918,-6.8948 2.98918,-7.599 0,-0.7042 1.04659,-3.557 2.3257,-6.3396 1.27916,-2.7826 2.89744,-9.3557 3.59624,-14.607 0.69876,-5.2513 1.59171,-11.2932 1.98424,-13.4265 0.64585,-3.5097 0.43709,-3.8788 -2.19263,-3.8788 -1.59852,0 -5.5503,1.8797 -8.78167,4.1771 -5.85563,4.1632 -9.30834,5.1655 -10.59918,3.0768 -0.79371,-1.2842 -15.18707,-8.4474 -16.97386,-8.4474 -5.01835,0 -18.18392,30.5694 -18.27274,42.4278 -0.009,1.3457 -0.49334,2.9569 -1.07387,3.5804 -1.05629,1.1346 -3.14977,23.213 -2.20107,23.213 0.27651,0 2.17689,-0.835 4.22278,-1.8557 5.49875,-2.7431 8.84035,-0.6647 8.35062,5.1941 -0.29816,3.5647 -0.98483,4.5921 -3.7059,5.5433 -2.3593,0.8248 -4.01921,0.7436 -5.65278,-0.2765 -3.82791,-2.3906 -4.732,-1.6892 -4.732,3.6713 v 5.1156 l 8.35382,2.8968 c 6.76793,2.3469 8.22865,3.2913 7.69439,4.9745 -0.36266,1.1427 0.25125,3.46767 1.3645,5.16656 1.93841,2.95842 1.9159,3.1895 -0.53357,5.47149 -3.2689,3.04543 -3.21531,3.48316 0.42626,3.48316 2.04315,0 2.98599,-0.65835 2.99104,-2.08857 z m 0.17637,-48.93225 -5.95013,-5.669 -0.67955,-15.3581 -0.67954,-15.3581 12.61156,0.8596 c 6.93636,0.4728 14.04449,1.6072 15.79584,2.521 3.13628,1.6363 3.09988,1.6614 -2.41434,1.6687 -3.07917,0 -5.90723,-0.4922 -6.28451,-1.1026 -1.1861,-1.9192 -13.57614,-2.929 -15.57576,-1.2695 -0.97964,0.813 -1.78116,1.9844 -1.78116,2.6031 0,1.5839 13.31317,14.098 14.99825,14.098 0.76362,0 2.8765,-1.1706 4.69528,-2.6012 1.81878,-1.4307 5.24786,-2.9154 7.62015,-3.2995 3.83612,-0.621 4.38012,-1.1584 4.91771,-4.858 0.3983,-2.7415 0.93716,-3.6411 1.58025,-2.6388 1.18146,1.8415 -0.14209,8.6236 -1.68282,8.6236 -0.60422,0 -1.09864,1.311 -1.09864,2.9132 0,1.6023 -0.53705,3.2452 -1.19346,3.6508 -0.6564,0.4056 -1.19399,3.7941 -1.19467,7.5297 l -0.001,6.792 -5.84363,3.282 c -8.25476,4.6362 -10.82977,4.2917 -17.83961,-2.3869 z m 16.38399,0.6597 c 5.7997,-3.5221 6.06886,-4.0593 6.08992,-12.1538 l 0.018,-7.0186 -4.47552,0.9412 c -6.00065,1.2621 -13.29602,1.3647 -17.30527,0.2436 -3.17994,-0.8893 -3.28206,-0.7717 -3.28206,3.7794 0,2.5834 -0.63773,4.9097 -1.41724,5.1695 -1.53131,0.5105 7.76373,10.4677 9.77155,10.4677 0.65641,0 1.23726,-1.4769 1.2908,-3.282 l 0.0974,-3.2821 1.69627,3.8788 c 0.93296,2.1334 2.03417,3.8788 2.44708,3.8788 0.41273,0 2.69391,-1.18 5.06882,-2.6223 z m -5.22976,-24.8275 c 0.40551,-0.6564 0.97446,-1.1934 1.26391,-1.1934 0.28959,0 0.52631,0.537 0.52631,1.1934 0,0.6564 -0.56876,1.1935 -1.26391,1.1935 -0.69515,0 -0.93196,-0.5371 -0.52631,-1.1935 z m -30.43345,66.83435 v -7.16085 h -5.30297 c -5.94346,0 -9.01866,2.8578 -9.01866,8.38119 0,4.46816 2.12966,5.94047 8.59298,5.94047 h 5.72865 z m 12.13906,5.1856 c 1.2004,-1.08632 2.18257,-2.74885 2.18257,-3.69453 0,-2.50644 -4.76547,-8.79802 -6.05861,-7.99882 -0.6062,0.3749 -1.1022,3.60341 -1.1022,7.17489 0,6.92991 1.15511,7.97834 4.97824,4.51846 z m -1.63361,-32.19365 c 0.4407,-3.0738 -3.76982,-4.5958 -5.83385,-2.1088 -1.05542,1.2717 -1.0211,2.1037 0.1448,3.5084 2.06141,2.4839 5.24456,1.7007 5.68909,-1.3996 z m -5.61255,-75.0878 c -0.0271,-19.3505 -1.42833,-32.5814 -3.78984,-35.7499 -0.48919,-0.6564 -1.27677,-3.3417 -1.75017,-5.9673 -0.47336,-2.6257 -1.52193,-6.0694 -2.33008,-7.6526 -1.62134,-3.1765 -1.23572,-3.6625 -9.83785,12.4001 -4.39194,8.2011 -5.087,6.844 -5.087,-9.9321 0,-15.3535 -0.0361,-15.5557 -3.14463,-18.0015 -1.72955,-1.3604 -3.8589,-2.4735 -4.73191,-2.4735 -0.87297,0 -2.16209,-1.0741 -2.86469,-2.387 -0.70259,-1.3128 -1.88761,-2.3869 -2.63333,-2.3869 -0.74572,0 -2.3413,-0.8918 -3.54572,-1.9818 -1.20446,-1.09 -2.51786,-1.6538 -2.91873,-1.253 -0.401,0.401 -0.26342,8.3114 0.30583,17.579 l 1.03454,16.8501 3.56503,2.0065 c 1.96078,1.1036 4.10902,2.5812 4.77391,3.2835 0.66484,0.7024 2.6696,2.1811 4.455,3.2861 3.24268,2.0069 9.93759,11.2438 15.36289,21.1962 1.58034,2.899 3.24427,5.5514 3.69755,5.8943 0.45333,0.3428 1.9496,4.9078 3.32506,10.1445 1.37551,5.2366 3.01859,10.4537 3.65132,11.5935 0.63276,1.1398 1.15046,2.9748 1.15046,4.0777 0,1.1029 0.30177,1.7036 0.67035,1.335 0.36852,-0.3686 0.65766,-10.2061 0.64215,-21.8609 z m 43.60529,5.4421 c 2.23201,-1.9598 5.52531,-3.8843 7.31838,-4.2769 1.79307,-0.3924 3.93148,-0.9204 4.75199,-1.1732 1.00657,-0.3104 1.49184,-3.1617 1.49184,-8.7661 0,-8.776 -1.61246,-12.0574 -5.92492,-12.0574 -1.19571,0 -2.4626,-0.7521 -2.81529,-1.6713 -0.35275,-0.9192 -2.88761,-2.0507 -5.63308,-2.5146 -4.88559,-0.8254 -5.1418,-0.6948 -12.04988,6.1412 -6.92617,6.8539 -12.39076,15.1668 -11.21779,17.0647 0.32658,0.5283 2.20743,1.2834 4.17976,1.6779 1.97228,0.3942 5.60866,2.5975 8.08074,4.8957 2.47211,2.2982 5.22944,4.1931 6.1274,4.2108 0.89795,0.018 3.45884,-1.5711 5.69085,-3.5308 z m -105.70299,-25.8069 c 3.5653,-1.0561 6.75088,-2.2645 7.07908,-2.6853 0.89507,-1.1476 11.7805,-6.1317 13.45846,-6.1622 0.80296,-0.014 2.69765,-0.979 4.21047,-2.143 2.70884,-2.0843 2.71561,-2.148 0.44656,-4.2016 -3.35342,-3.0348 -10.51654,-3.9388 -13.07008,-1.6495 -1.13387,1.0165 -5.55219,3.0193 -9.8185,4.4507 -8.08674,2.7131 -9.75807,4.0217 -8.69024,6.8044 0.35049,0.9135 -0.59839,2.9762 -2.10864,4.5838 -2.62715,2.7964 -2.64307,2.9229 -0.36762,2.9229 1.30812,0 5.29539,-0.8641 8.86069,-1.9202 z m -14.1113,-2.2569 c 0.44612,-2.3326 0.0776,-2.9837 -1.68851,-2.9837 -2.8309,0 -4.2931,3.4618 -2.05951,4.876 2.56115,1.6218 3.13131,1.3339 3.74802,-1.8923 z m 136.36018,-0.5967 c 0.40551,-0.6565 -0.13578,-1.1935 -1.20347,-1.1935 -1.36951,0 -1.72739,-0.6733 -1.21533,-2.2865 0.79326,-2.4995 -0.36267,-3.5587 -6.07224,-5.5636 -2.87624,-1.01 -4.21394,-0.942 -5.91305,0.3004 -1.91707,1.4018 -1.97549,1.8185 -0.46001,3.2814 2.66996,2.5772 9.85473,6.476 12.10834,6.5706 1.10996,0.046 2.35006,-0.4524 2.75576,-1.1088 z m 6.56409,-1.264 c 0,-0.6176 -0.80562,-1.123 -1.79023,-1.123 -1.84557,0 -2.37103,1.4083 -1.02701,2.7523 0.95353,0.9535 2.81724,-0.1245 2.81724,-1.6293 z m -41.83113,-12.407 c 2.63397,-2.3836 4.05409,-10.0518 2.2616,-12.2116 -0.88731,-1.0691 -4.52509,-1.5673 -11.44521,-1.5673 -8.88199,0 -9.95956,-0.2228 -8.65875,-1.7902 1.21249,-1.4609 1.14393,-1.7902 -0.37304,-1.7902 -1.02227,0 -3.23628,0.5238 -4.92001,1.1639 -5.56546,2.116 -3.6939,12.1278 3.10673,16.6196 3.29042,2.1734 5.17546,2.5312 10.92703,2.0744 4.06987,-0.3234 7.84207,-1.3588 9.10152,-2.4986 z m -10.08482,-9.005 c -0.42897,-0.6943 0.75979,-1.1935 2.84281,-1.1935 1.96922,0 3.91236,0.5371 4.31801,1.1935 0.42897,0.6944 -0.75975,1.1935 -2.84281,1.1935 -1.96921,0 -3.91231,-0.5371 -4.31801,-1.1935 z m 17.30532,-5.34 c 0,-0.3112 -1.6112,-1.3992 -3.58041,-2.4175 -1.96921,-1.0183 -3.58041,-2.7091 -3.58041,-3.7572 0,-1.3556 0.43078,-1.5665 1.49184,-0.7307 0.82051,0.6463 2.86645,1.5022 4.54652,1.902 2.64141,0.6286 3.24693,0.1953 4.47552,-3.2022 0.78145,-2.161 1.4208,-4.8309 1.4208,-5.933 0,-1.1021 0.46993,-2.0038 1.04428,-2.0038 0.5744,0 1.38688,-1.7128 1.80552,-3.8062 0.6353,-3.1763 0.16645,-4.4201 -2.83446,-7.516 -1.97765,-2.0404 -3.59575,-4.5802 -3.59575,-5.644 0,-2.9351 -1.30207,-5.7098 -2.67943,-5.7098 -1.78211,0 -0.0992,14.3635 2.23016,19.0325 1.82176,3.6518 1.78495,3.935 -0.87951,6.7712 -2.3939,2.5482 -3.44328,2.8481 -7.54256,2.1555 -6.24193,-1.0546 -9.0307,-2.8976 -9.0307,-5.9682 0,-2.9191 1.07676,-4.3019 2.61136,-3.3535 0.61477,0.3798 0.48437,1.3942 -0.30086,2.3404 -1.09255,1.3164 -0.91542,1.8175 0.83715,2.3678 1.22264,0.3839 3.15554,1.1959 4.29536,1.8043 3.0324,1.6189 4.21137,1.3867 6.97091,-1.3728 1.66244,-1.6625 2.17486,-3.1369 1.55536,-4.4756 -0.50814,-1.0979 -1.75807,-6.0242 -2.77759,-10.9473 -2.05541,-9.9248 -4.31602,-11.6392 -6.55994,-4.9748 -1.96822,5.8457 -6.0988,8.4972 -13.28614,8.5287 -4.82597,0.023 -6.52467,-0.5195 -8.35428,-2.6588 -3.22261,-3.768 -5.28028,-7.6761 -5.28028,-10.0288 0,-3.0666 -1.37226,-1.014 -2.27585,3.4042 -0.46064,2.2523 -1.53912,3.9393 -2.51822,3.9393 -1.66199,0 -2.76442,-2.4655 -4.13573,-9.2493 -0.77973,-3.8573 -4.79163,-4.5122 -7.31089,-1.1935 -1.62157,2.1361 -2.24067,12.9151 -0.93693,16.3126 1.02593,2.6736 2.85599,2.3433 2.85599,-0.5154 0,-1.3217 0.64747,-3.4399 1.43884,-4.7071 1.17468,-1.8809 1.06507,-2.717 -0.59673,-4.5533 -3.78439,-4.1817 -1.42075,-8.7266 2.49959,-4.8063 1.95189,1.9519 1.80808,9.4347 -0.23772,12.3552 -3.4768,4.9638 -2.59341,10.082 1.74011,10.082 2.45886,0 3.11783,1.7508 1.123,2.9837 -1.52288,0.9412 -1.56614,9.7733 -0.0523,10.7088 0.62758,0.3879 2.06967,-0.712 3.20462,-2.4442 1.93917,-2.9595 2.15826,-3.0201 3.63287,-1.0034 1.37537,1.881 1.5692,1.4264 1.5692,-3.6808 0,-5.3796 0.13442,-5.649 1.75225,-3.5101 0.96372,1.2742 1.76929,4.2411 1.79018,6.5932 0.0226,2.3522 0.33785,4.5763 0.70385,4.9425 0.6754,0.6754 6.57217,-0.9272 10.3575,-2.815 1.13982,-0.5684 4.29369,-1.0334 7.00862,-1.0334 4.25238,0 4.73038,0.2481 3.45046,1.7902 -0.81717,0.9846 -3.268,1.7902 -5.44633,1.7902 -7.39799,0 -5.35656,2.1909 2.75003,2.9513 7.10885,0.6669 10.57008,1.0852 13.73586,1.66 0.49231,0.089 0.89512,-0.092 0.89512,-0.4037 z m 14.32163,-45.0619 c 0,-0.8018 -2.54551,-1.0179 -7.11228,-0.6039 -5.39066,0.4888 -7.46335,0.222 -8.56267,-1.1027 -1.23152,-1.484 -0.96868,-1.6268 1.74165,-0.9465 1.93827,0.4864 3.19208,0.3103 3.19208,-0.4484 0,-0.6874 2.41677,-1.6122 5.37063,-2.0551 l 5.37059,-0.8054 v -7.0253 c 0,-4.734 -0.48657,-7.0807 -1.49184,-7.1952 -5.95893,-0.6786 -11.54666,-0.481 -14.43481,0.5104 -2.29182,0.7866 -6.14987,0.7105 -11.87121,-0.2346 -9.86799,-1.6296 -18.48343,-0.076 -22.18216,3.9997 -2.50455,2.7598 -4.25973,13.4951 -2.62765,16.0715 0.89665,1.4153 1.92767,1.4364 6.57749,0.1344 3.70179,-1.0365 7.75948,-1.2431 12.34561,-0.6287 3.75736,0.5033 9.70605,1.0795 13.21934,1.2804 3.51329,0.2008 6.55547,0.5341 6.7604,0.7404 0.96886,0.9756 13.70483,-0.5961 13.70483,-1.6912 z m -31.03022,-3.3325 c -2.35935,-1.9094 -4.04502,-2.2687 -8.05588,-1.7168 -6.37717,0.8774 -6.45272,-0.5733 -0.18044,-3.467 l 4.83012,-2.2285 3.26032,3.1236 c 1.79316,1.7179 4.484,3.1235 5.97972,3.1235 1.64196,0 2.52481,0.5911 2.22818,1.4919 -0.80025,2.4298 -4.8593,2.2654 -8.06193,-0.3266 z m -31.24105,-20.7016 c 0.50782,-2.56093 -1.26996,-2.46563 -4.62068,0.2476 -3.57861,2.8977 -2.10945,5.9034 1.66325,3.4028 1.41434,-0.9375 2.7452,-2.5802 2.95743,-3.6505 z m 9.59946,-3.12323 c 1.04095,-0.01 1.40519,-0.8798 1.0068,-2.4032 -0.65365,-2.4997 1.94625,-3.4316 3.32952,-1.1935 1.23766,2.0026 5.13788,1.3324 6.90181,-1.1859 0.91658,-1.3086 2.13773,-1.98 2.71362,-1.4918 0.57589,0.4881 0.34643,-0.032 -0.50949,-1.1504 -1.85405,-2.4274 -6.75079,-1.8622 -13.61822,1.5718 -2.48173,1.241 -5.30131,2.2563 -6.26571,2.2563 -1.82753,0 -2.38718,2.5489 -0.88871,4.0473 0.47562,0.4756 1.95253,0.5725 3.28203,0.2152 1.32954,-0.3573 3.15125,-0.6569 4.04835,-0.6658 z m 47.89795,-5.3165 c 0,-2.4339 -2.33901,-3.5794 -3.9728,-1.9456 -1.04153,1.0415 -0.94329,1.6526 0.40236,2.5034 2.5184,1.5922 3.57044,1.4278 3.57044,-0.5578 z m -25.41975,-1.3867 c 0.21381,-0.642 -0.29591,-2.1038 -1.13292,-3.2486 -1.35832,-1.8576 -1.7771,-1.8924 -3.89485,-0.3239 -2.36743,1.7535 -2.36738,1.7618 0.0135,3.5811 2.52349,1.928 4.36929,1.9248 5.01374,-0.01 z m 17.06543,-1.5212 c 0,-1.5044 -3.50336,-4.2014 -4.35341,-3.3514 -1.22219,1.2222 0.60182,4.3987 2.52579,4.3987 1.00518,0 1.82762,-0.4713 1.82762,-1.0473 z"
       id="path558"
       inkscape:connector-curvature="0" />
  </g>
</svg>
