<?xml version="1.0" encoding="UTF-8" standalone="no"?>
<!-- Created with Inkscape (http://www.inkscape.org/) -->

<svg
   xmlns:dc="http://purl.org/dc/elements/1.1/"
   xmlns:cc="http://creativecommons.org/ns#"
   xmlns:rdf="http://www.w3.org/1999/02/22-rdf-syntax-ns#"
   xmlns:svg="http://www.w3.org/2000/svg"
   xmlns="http://www.w3.org/2000/svg"
   xmlns:sodipodi="http://sodipodi.sourceforge.net/DTD/sodipodi-0.dtd"
   xmlns:inkscape="http://www.inkscape.org/namespaces/inkscape"
   width="210.00003mm"
   height="331.45163mm"
   viewBox="0 0 210.00003 331.45161"
   version="1.1"
   id="svg8"
   inkscape:version="0.92.1 r15371"
   sodipodi:docname="mole.svg">
  <defs
     id="defs2" />
  <sodipodi:namedview
     id="base"
     pagecolor="#ffffff"
     bordercolor="#666666"
     borderopacity="1.0"
     inkscape:pageopacity="0.0"
     inkscape:pageshadow="2"
     inkscape:zoom="0.49497475"
     inkscape:cx="-15.398536"
     inkscape:cy="957.21469"
     inkscape:document-units="mm"
     inkscape:current-layer="layer1"
     showgrid="false"
     fit-margin-top="0"
     fit-margin-left="0"
     fit-margin-right="0"
     fit-margin-bottom="0"
     inkscape:window-width="1920"
     inkscape:window-height="1028"
     inkscape:window-x="0"
     inkscape:window-y="0"
     inkscape:window-maximized="1" />
  <metadata
     id="metadata5">
    <rdf:RDF>
      <cc:Work
         rdf:about="">
        <dc:format>image/svg+xml</dc:format>
        <dc:type
           rdf:resource="http://purl.org/dc/dcmitype/StillImage" />
        <dc:title></dc:title>
      </cc:Work>
    </rdf:RDF>
  </metadata>
  <g
     inkscape:label="Calque 1"
     inkscape:groupmode="layer"
     id="layer1"
     transform="translate(47.148093,44.264032)">
    <path
       style="fill:#000000;stroke-width:0.57744187"
       d="m 30.988821,285.50347 c 0,-0.92632 -0.292319,-1.78165 -0.649609,-1.90075 -0.397731,-0.13269 -0.64963,-1.7653 -0.64963,-4.21052 0,-2.44521 0.251899,-4.07795 0.64963,-4.21051 0.35729,-0.11916 0.649609,-0.71458 0.649609,-1.32331 0,-0.79557 0.405893,-1.10677 1.443608,-1.10677 0.793978,0 1.443608,-0.25984 1.443608,-0.57744 0,-0.31759 0.470036,-0.57743 1.044525,-0.57743 0.574488,0 1.548912,-0.38152 2.165391,-0.8478 0.6165,-0.46628 2.095333,-0.85607 3.286301,-0.86617 2.095748,-0.0175 4.475168,-1.56266 4.475168,-2.90557 0,-0.31759 0.24234,-0.57744 0.53855,-0.57744 1.02451,0 1.23392,-2.21482 0.55441,-5.8638 -0.37525,-2.0152 -0.73665,-6.0202 -0.80308,-8.9 -0.096,-4.15963 -0.34263,-5.49508 -1.19983,-6.49622 -1.258121,-1.46938 -2.294177,-1.61711 -2.763514,-0.39406 -0.194239,0.50635 -1.05954,0.86617 -2.082829,0.86617 -0.962747,0 -1.75044,0.25985 -1.75044,0.57744 0,0.31759 -0.29616,0.57745 -0.658142,0.57745 -0.361982,0 -0.979902,0.44003 -1.373159,0.97786 -0.671869,0.91883 -0.77403,0.91883 -1.692867,0 -0.537823,-0.53783 -1.349064,-0.97786 -1.802775,-0.97786 -0.552838,0 -0.824925,-0.6462 -0.824925,-1.95927 0,-1.20889 -0.331734,-2.08657 -0.866152,-2.29165 -0.476387,-0.18289 -0.866174,-0.74564 -0.866174,-1.25075 0,-0.50508 -0.259844,-0.75777 -0.577435,-0.56148 -0.347753,0.21498 -0.577434,-0.55085 -0.577434,-1.92519 0,-1.49581 -0.29843,-2.39657 -0.866174,-2.61445 -0.593585,-0.22776 -0.866152,-1.15578 -0.866152,-2.94898 0,-1.43913 -0.259865,-2.61661 -0.577457,-2.61661 -0.317591,0 -0.577434,-0.7877 -0.577434,-1.75044 0,-1.02327 -0.359822,-1.88853 -0.866152,-2.08283 -0.534441,-0.20515 -0.866174,-1.08276 -0.866174,-2.29165 0,-1.35661 -0.266435,-1.95926 -0.866152,-1.95926 -0.571957,0 -0.866174,-0.57211 -0.866174,-1.68422 0,-0.9263 -0.27619,-1.77626 -0.613772,-1.88879 -0.337583,-0.11261 -0.697667,-0.96879 -0.800177,-1.90282 -0.102575,-0.93402 -0.475972,-1.79474 -0.829836,-1.91268 -0.367351,-0.12244 -0.643432,-1.55655 -0.643432,-3.34228 0,-2.39534 -0.20275,-3.12781 -0.866152,-3.12781 -0.62248,0 -0.866173,-0.63628 -0.866173,-2.26166 0,-1.24389 -0.248473,-2.34826 -0.552162,-2.45413 -0.303689,-0.10585 -0.618618,-1.19621 -0.699849,-2.42299 -0.08119,-1.22676 -0.482367,-2.35893 -0.891425,-2.51589 -0.44664,-0.17132 -0.74376,-1.27412 -0.74376,-2.76035 0,-1.47661 -0.297774,-2.58918 -0.738216,-2.75819 -0.406024,-0.15583 -0.804039,-1.15806 -0.884484,-2.2272 -0.08053,-1.06914 -0.397884,-2.03052 -0.705393,-2.13639 -1.515433,-0.52169 0.170669,-8.75787 1.792933,-8.75787 0.294348,0 0.53516,-0.64961 0.53516,-1.44361 0,-0.79398 0.242341,-1.44359 0.538522,-1.44359 0.296203,0 0.720255,-0.57254 0.942341,-1.27233 0.222109,-0.69976 0.694349,-1.60022 1.049435,-2.00101 1.744701,-1.96918 2.089223,-2.52045 2.089223,-3.34287 0,-0.4898 0.405108,-0.89055 0.900242,-0.89055 0.495134,0 0.739657,-0.25984 0.543367,-0.57743 -0.196203,-0.31759 0.04823,-0.57744 0.543366,-0.57744 0.665322,0 0.900242,-0.60275 0.900242,-2.30978 0,-1.66816 0.240594,-2.30976 0.866174,-2.30976 0.476387,0 0.866152,-0.38976 0.866152,-0.86617 0,-0.47639 0.254911,-0.86616 0.566435,-0.86616 0.311546,0 0.729486,-0.64963 0.928767,-1.4436 0.199258,-0.79398 0.593999,-1.44361 0.877173,-1.44361 0.283152,0 0.514842,-0.38977 0.514842,-0.86615 0,-0.47639 0.389765,-0.86618 0.866152,-0.86618 0.476387,0 0.866174,-0.38976 0.866174,-0.86615 0,-0.47639 0.254889,-0.86617 0.566435,-0.86617 0.311545,0 0.729486,-0.64961 0.928766,-1.44361 0.199259,-0.79398 0.594,-1.44359 0.877152,-1.44359 0.283174,0 0.514842,-0.38979 0.514842,-0.86617 0,-0.47639 0.405107,-0.86615 0.900242,-0.86615 0.495134,0 0.739656,-0.25987 0.543366,-0.57746 -0.196203,-0.31759 0.04823,-0.57744 0.543366,-0.57744 0.495135,0 0.900242,-0.40729 0.900242,-0.90508 0,-0.64302 -0.335181,-0.79867 -1.157728,-0.53763 -0.769447,0.24422 -1.274315,0.0637 -1.505372,-0.53852 -0.249608,-0.65044 -1.136471,-0.90598 -3.144398,-0.90598 -1.772526,0 -2.96585,-0.29232 -3.258518,-0.79821 -0.546989,-0.94553 -3.422137,-1.42155 -11.965193,-1.98098 -4.178512,-0.27363 -6.386722,-0.6538 -6.544339,-1.12667 -0.172415,-0.51685 -2.268512,-0.71366 -7.601042,-0.71366 h -7.363132 l 0.220079,4.76389 c 0.121126,2.62015 0.467832,5.85339 0.770669,7.185 0.302838,1.3316 0.550591,5.03445 0.550591,8.22854 0,4.7772 0.153645,5.80745 0.866174,5.80745 0.68743,0 0.866152,0.83407 0.866152,4.04209 0,2.844 0.21388,4.0447 0.721804,4.05092 0.48121,0.006 0.433087,0.19555 -0.144261,0.56862 -0.476386,0.30786 -1.955198,0.56373 -3.286213,0.5686 -1.331038,0.004 -2.580647,0.26868 -2.776938,0.58627 -0.196203,0.31759 0.178089,0.57746 0.832084,0.57746 0.897885,0 1.20332,0.38874 1.247558,1.58795 0.147316,3.99325 0.518749,6.20746 1.07222,6.39196 0.330839,0.11022 0.601507,0.51127 0.601507,0.89108 0,0.37981 0.505785,1.05511 1.123966,1.50066 0.618181,0.44557 0.992603,1.02261 0.832084,1.28237 -0.160629,0.25973 -0.01746,0.47226 0.319642,0.47226 0.336339,0 0.611525,0.35795 0.611525,0.79546 0,0.4375 0.389765,1.11893 0.866174,1.5143 0.587539,0.48763 0.866152,1.79505 0.866152,4.06468 0,1.8402 0.236054,3.43243 0.524554,3.53831 0.578875,0.21235 0.802904,1.24611 0.698735,3.22405 -0.05216,0.99106 -0.418901,1.29924 -1.546096,1.29924 -0.838064,0 -1.323203,0.24994 -1.120802,0.57744 0.196203,0.31759 -0.159537,0.57745 -0.790835,0.57745 -0.631254,0 -1.537498,0.38977 -2.013885,0.86615 -0.476386,0.47639 -1.794198,0.86618 -2.928443,0.86618 -1.134267,0 -2.062292,0.25984 -2.062292,0.57743 0,1.12286 -2.797736,0.61419 -3.175934,-0.57743 -0.376146,-1.18514 -1.443608,-1.61212 -1.443608,-0.57746 0,0.31759 -0.389765,0.57746 -0.866152,0.57746 -0.557815,0 -0.869317,0.56532 -0.875013,1.58795 -0.0065,1.23744 -0.132475,1.39676 -0.568596,0.72181 -0.436186,-0.67495 -0.561721,-0.51563 -0.568617,0.7218 -0.0044,0.98089 -0.321563,1.58796 -0.826868,1.58796 -0.449935,0 -0.913184,0.28542 -1.029465,0.63424 -0.116325,0.34883 -1.43717,0.7724 -2.935318,0.94125 -1.49817,0.16893 -2.723926,0.53309 -2.723926,0.80937 0,0.2763 -0.501136,0.50236 -1.113642,0.50236 -0.612485,0 -1.503408,0.38976 -1.979795,0.86615 -0.67857,0.67859 -2.447255,0.86617 -8.166669,0.86617 -9.191573,0 -9.216213,-0.0175 -9.115012,-6.67212 0.06111,-4.01666 0.265561,-4.97762 1.273594,-5.98567 0.660455,-0.66044 1.432871,-1.20081 1.716481,-1.20081 0.283611,0 0.665235,-0.38977 0.848038,-0.86618 0.18289,-0.47639 0.860237,-0.86615 1.505394,-0.86615 0.645156,0 1.173005,-0.23093 1.173005,-0.51318 0,-0.28224 0.909474,-0.68379 2.021043,-0.89232 1.11157,-0.20843 2.021043,-0.62724 2.021043,-0.93043 0,-0.30321 0.779552,-0.55129 1.732326,-0.55129 0.952796,0 1.732326,-0.24234 1.732326,-0.53852 0,-0.2962 0.574641,-0.72091 1.276978,-0.94382 1.965412,-0.62379 4.497456,-3.46304 4.497456,-5.04312 0,-0.77953 0.389765,-1.74079 0.866152,-2.13617 0.635793,-0.52765 0.866173,-1.92872 0.866173,-5.26767 0,-4.46714 0.02597,-4.54883 1.443609,-4.54883 1.255393,0 1.443586,-0.25471 1.443586,-1.95371 0,-2.31589 -0.761001,-2.64512 -5.14139,-2.22423 -2.527329,0.24286 -3.181608,0.0973 -4.127966,-0.91853 -1.218422,-1.30782 -1.468684,-2.41029 -0.547142,-2.41029 0.699172,0 0.781604,-4.44309 0.08752,-4.71576 -0.269471,-0.10585 -0.659542,-12.60027 -0.86681,-27.76534 l -0.376867,-27.57284 h 2.599133 c 1.925408,0 2.599154,0.22451 2.599154,0.86615 0,0.65247 0.700416,0.86617 2.839094,0.86617 1.758188,0 2.930538,0.2748 3.079317,0.72181 0.163684,0.49168 2.01993,0.7856 5.822535,0.92189 3.070281,0.11 5.582312,0.43488 5.582312,0.72181 0,0.28692 2.310851,0.52169 5.135192,0.52169 4.031937,0 5.20662303,0.18616 5.46758003,0.86617 0.245788,0.64051 1.261242,0.86616 3.89795597,0.86616 H 6.901996 L 6.600511,109.21456 C 6.399507,102.20577 6.083138,98.627607 5.651557,98.483761 4.819233,98.206305 4.792563,91.877331 5.620348,91.049677 5.95924,90.710785 6.386521,88.450108 6.569869,86.025922 c 0.29042,-3.839991 0.211044,-4.407583 -0.616173,-4.407583 -0.52224,0 -0.949522,0.389787 -0.949522,0.866174 0,0.476387 -0.275186,0.866152 -0.611503,0.866152 -0.336338,0 -0.450939,0.259865 -0.254649,0.577456 0.196203,0.317592 -0.149935,0.577435 -0.769491,0.577435 -0.719861,0 -1.257117,0.520974 -1.488676,1.443608 -0.199258,0.793979 -0.617221,1.443609 -0.92876597,1.443609 -0.311546,0 -0.566436,0.269883 -0.566436,0.599739 0,0.329879 -1.039395,1.681475 -2.30978203,3.003542 -1.270365,1.322089 -2.30976,2.62661 -2.30976,2.89898 0,0.272349 -0.232126,0.351725 -0.515846,0.176343 -0.283719,-0.175251 -0.678439,0.329006 -0.877151,1.120801 -0.233065,0.928439 -0.767527,1.439615 -1.505241,1.439615 -0.629138,0 -1.14387,0.332017 -1.14387,0.737823 0,0.827959 -2.015172,2.726824 -2.893808,2.726824 -0.313968,0 -0.570844,0.25985 -0.570844,0.57744 0,0.31759 -0.389787,0.57745 -0.866173,0.57745 -0.476387,0 -0.866152,0.38977 -0.866152,0.86616 0,0.53893 -0.545375,0.86617 -1.443609,0.86617 -1.364865,0 -1.443608,-0.17329 -1.443608,-3.175933 0,-2.438089 -0.201223,-3.175934 -0.866152,-3.175934 -0.639919,0 -0.866174,-0.669906 -0.866174,-2.56441 0,-1.410435 -0.229485,-2.706247 -0.509953,-2.879578 -0.280468,-0.173287 -0.688435,-1.743675 -0.906571,-3.489619 -0.218246,-1.745966 -0.638282,-3.323839 -0.933656,-3.50638 -0.295373,-0.182454 -0.537037,-1.875648 -0.537037,-3.76247 0,-2.664431 -0.193366,-3.430561 -0.866152,-3.430561 -0.719447,0 -0.866174,-1.119033 -0.866174,-6.606509 0,-3.633576 -0.219577,-6.742216 -0.487954,-6.908087 -0.268398,-0.165867 -0.652009,-3.362301 -0.852489,-7.103182 -0.203405,-3.794486 -0.625842,-6.888716 -0.955633,-6.998637 -0.327238,-0.10908 -0.591119,-1.980007 -0.591119,-4.191015 0,-3.165236 0.179835,-3.993976 0.866152,-3.993976 0.654432,0 0.866174,-0.705761 0.866174,-2.887209 0,-2.69473 0.09625,-2.88721 1.443608,-2.88721 0.898235,0 1.443587,-0.327218 1.443587,-0.866163 0,-0.476389 0.275535,-0.866163 0.61231,-0.866163 0.354453,0 0.536819,-0.9119 0.433087,-2.165406 -0.164775,-1.99005 -0.342886,-2.188789 -2.200266,-2.454128 -1.736538,-0.248075 -2.049066,-0.532598 -2.220083,-2.021047 -0.10956,-0.95278 -0.434288,-1.818943 -0.721805,-1.924805 -0.287517,-0.105871 -0.522764,-0.560604 -0.522764,-1.010522 0,-0.569423 -0.701987,-0.818046 -2.309782,-0.818046 -1.607773,0 -2.30976,-0.248624 -2.30976,-0.818044 0,-0.44992 -0.304606,-0.919577 -0.676911,-1.04368 -0.37774,-0.125906 -0.788719,-1.771304 -0.92988,-3.722902 -0.242668,-3.354902 -0.193148,-3.512266 1.215869,-3.865916 0.807858,-0.202772 1.633591,-0.887747 1.834945,-1.522194 0.201441,-0.634451 0.608469,-1.153545 0.90465,-1.153545 0.296203,0 0.538543,-0.519697 0.538543,-1.154882 0,-0.6416012 0.384964,-1.1548842 0.866152,-1.1548842 0.476387,0 0.866174,-0.259848 0.866174,-0.577442 0,-0.317593 0.649609,-0.577443 1.443609,-0.577443 0.793978,0 1.443586,-0.259848 1.443586,-0.577441 0,-0.317594 0.761001,-0.577441 1.691078,-0.577441 0.930098,0 2.080864,-0.389774 2.557251,-0.866163 0.989635,-0.989631 2.10354,-1.142521 2.10354,-0.288722 0,0.317593 0.389765,0.577441 0.866173,0.577441 0.476387,0 0.866152,-0.259848 0.866152,-0.577441 0,-0.317593 0.649631,-0.577441 1.443609,-0.577441 h 1.443608 v -5.815665 c 0,-4.399557 -0.210825,-6.026575 -0.866173,-6.681828 -0.509146,-0.509143 -0.866152,-1.920224 -0.866152,-3.4234088 0,-2.17228 0.173941,-2.55724 1.154869,-2.55724 0.635204,0 1.6746,-0.5197 2.309782,-1.15488 0.973725,-0.97373 1.154869,-1.92481 1.154869,-6.06314 0,-3.97794 -0.16412,-4.90826 -0.866152,-4.90826 -0.725056,0 -0.864886,-1.1995 -0.858273,-7.36238 0.0087,-7.62193 0.330948,-10.1765 1.21672,-9.62906 0.28372,0.17536 0.671761,-0.0874 0.862289,-0.58394 0.213663,-0.55662 1.049915,-0.90276 2.181192,-0.90276 3.09909,0 3.816093,2.00452 3.816093,10.66866 0,5.80829 -0.182672,7.49719 -0.887017,8.20154 -0.695636,0.69565 -0.851354,2.02596 -0.721804,6.16626 l 0.165212,5.27924 1.587978,0.18272 1.58795703,0.18271 V 2.7877178 c 0,11.8890732 0.183108,16.4316342 0.668639,16.5934982 0.446291,0.148757 0.518617,0.788861 0.217591,1.92481 -0.248102,0.936056 -0.570647,1.377111 -0.716763,0.98012 -0.146006,-0.396991 -0.60595903,-0.721802 -1.02189203,-0.721802 -0.415954,0 -0.905851,-0.389772 -1.088653,-0.866163 -0.18289,-0.476389 -0.600373,-0.866163 -0.927938,-0.866163 -0.327565,0 -0.595571,0.389774 -0.595571,0.866163 0,0.476391 -0.389765,0.866163 -0.866151,0.866163 -0.476409,0 -0.866174,0.389774 -0.866174,0.866163 0,0.476389 -0.259844,0.866163 -0.577435,0.866163 -0.317591,0 -0.577456,0.649621 -0.577456,1.443606 0,1.154882 -0.288718,1.443604 -1.443587,1.443604 -1.275123,0 -1.443608,0.245014 -1.443608,2.099193 0,1.497403 0.413837,2.482729 1.443608,3.437078 0.793978,0.73584 1.443587,1.869993 1.443587,2.520344 0,0.876324 0.373745,1.182455 1.443608,1.182455 1.356768,0 1.443608,0.182606 1.443608,3.035382 0,1.66946 0.287234,3.943138 0.638304,5.052616 0.35107,1.109479 0.821717,5.395271 1.045877,9.523981 0.375688,6.919295 0.465737,7.359883 1.150526,5.630058 0.40860003,-1.032178 0.97734903,-1.876687 1.26388303,-1.876687 0.286514,0 0.529203,-0.584658 0.539308,-1.299243 0.01091,-0.714584 0.399869,-1.803646 0.86617297,-2.420134 0.466282,-0.616489 0.847798,-1.720846 0.847798,-2.454127 0,-0.733284 0.231668,-1.33324 0.514842,-1.33324 0.283152,0 0.677871,-0.649621 0.877151,-1.443604 0.199259,-0.793982 0.617221,-1.443606 0.928767,-1.443606 0.311546,0 0.566435,-0.779546 0.566435,-1.732326 0,-1.154882 0.288739,-1.732326 0.866174,-1.732326 0.476387,0 0.835379,-0.194893 0.797775,-0.43308 -0.341991,-2.165967 0.0777,-2.454128 3.574277,-2.454128 2.346425,0 3.792369,-0.286458 4.372073,-0.866163 0.624249,-0.624261 2.144767,-0.866163 5.444447,-0.866163 2.667225,0 4.578294,-0.241037 4.578294,-0.577443 0,-0.317591 0.389765,-0.577441 0.866152,-0.577441 0.476387,0 0.866173,-0.389774 0.866173,-0.866163 0,-0.476389 -0.242602,-0.866163 -0.539088,-0.866163 -0.296509,0 -0.621324,-0.714585 -0.721805,-1.587965 -0.102793,-0.893123 -0.49856,-1.524798 -0.904519,-1.443604 -0.449128,0.08983 -0.721804,-0.510073 -0.721804,-1.587965 0,-0.95278 -0.278417,-1.732326 -0.618683,-1.732326 -0.799457,0 -2.268534,-1.469064 -2.268534,-2.268522 0,-0.340281 -0.279835,-0.618688 -0.621848,-0.618688 -0.921739,0 -3.78113,-3.027558 -4.247652,-4.497458 -0.222916,-0.702332 -0.647622,-1.27696 -0.943825,-1.27696 -0.296182,0 -0.538522,-0.408334 -0.538522,-0.907412 0,-0.499071 -0.389787,-1.29718 -0.866174,-1.773572 -0.590267,-0.590272 -0.866152,-2.048544 -0.866152,-4.578287 0,-2.089791 -0.252379,-3.7121272 -0.577456,-3.7121272 -0.317591,0 -0.577435,-1.429167 -0.577435,-3.17593 0,-1.746761 0.259844,-3.17593 0.577435,-3.17593 0.317591,0 0.577456,-0.917625 0.577456,-2.039171 0,-1.279911 0.322502,-2.162926 0.866152,-2.371547 0.564689,-0.216675 0.866174,-1.114839 0.866174,-2.580366 0,-1.613249 0.244566,-2.247986 0.866152,-2.247986 0.538958,0 0.866174,-0.545363 0.866174,-1.443606 0,-0.793983 0.259843,-1.443604 0.577435,-1.443604 0.317591,0 0.577434,-0.519698 0.577434,-1.1548848 0,-1.203071 1.884662,-3.464651 2.887217,-3.464651 0.317591,0 0.577435,-0.27841 0.577435,-0.61869 0,-0.79945 1.469077,-2.26852 2.268534,-2.26852 0.340266,0 0.618683,-0.38977 0.618683,-0.86616 0,-0.47639 0.389765,-0.86616 0.866173,-0.86616 0.476387,0 0.866152,-0.2549 0.866152,-0.56645 0,-0.31154 0.649631,-0.72948 1.443609,-0.92876 0.793978,-0.19928 1.443608,-0.56583 1.443608,-0.81456 0,-0.24874 0.649609,-0.61529 1.443609,-0.81457 0.793978,-0.19928 1.443586,-0.61722 1.443586,-0.92876 0,-0.31154 1.039396,-0.56644 2.309783,-0.56644 1.668161,0 2.30976,-0.2406 2.30976,-0.86616 0,-0.66494 0.737845,-0.86617 3.175934,-0.86617 1.746752,0 3.175934,-0.25984 3.175934,-0.57744 0,-0.3483 2.406007,-0.57744 6.063127,-0.57744 3.65715,0 6.06315,0.22914 6.06315,0.57744 0,0.3176 1.0394,0.57744 2.30976,0.57744 1.66817,0 2.30976,0.2406 2.30976,0.86617 0,0.53894 0.54538,0.86616 1.44361,0.86616 0.89826,0 1.44361,0.32722 1.44361,0.86616 0,0.47639 0.38977,0.86617 0.86618,0.86617 0.62555,0 0.86615,0.6416 0.86615,2.30976 0,1.81782 0.21519,2.30809 1.01052,2.30189 1.78828,-0.014 3.60533,-0.6858 3.27973,-1.21265 -0.45973,-0.74384 1.35094,-0.62688 2.82137,0.18223 0.6937,0.38172 1.64634,0.75734 2.11696,0.83472 0.47063,0.0774 0.94702,0.41469 1.05865,0.74957 0.11174,0.33489 0.57108,0.60889 1.021,0.60889 0.44993,0 0.81805,0.38977 0.81805,0.86616 0,0.57745 0.57743,0.86617 1.73232,0.86617 1.46286,0 1.73233,0.22456 1.73233,1.4436 0,0.79398 0.2392,1.44361 0.53156,1.44361 0.29236,0 0.70212,0.7765618 0.91059,1.7256998 0.20842,0.949135 0.61887,1.873943 0.91204,2.055124 0.29315,0.181188 0.53303,0.852346 0.53303,1.491474 0,0.639126 0.38976,1.551824 0.86615,2.028213 1.22994,1.229941 1.24481,13.343489 0.0175,14.9649922 -0.46631,0.616487 -0.85607,1.68669 -0.86618,2.378224 -0.0109,0.691531 -0.63297,1.740796 -1.3842,2.331698 -0.7512,0.590903 -1.54826,1.649157 -1.77124,2.351679 -0.36746,1.157759 -0.98948,1.537502 -2.20426,1.345693 -0.23819,-0.03758 -0.43308,0.321393 -0.43308,0.797782 0,0.476391 -0.38977,0.866163 -0.86616,0.866163 -0.47638,0 -0.86617,0.389773 -0.86617,0.866163 0,0.476389 -0.38977,0.866162 -0.86615,0.866162 -0.47639,0 -0.86618,0.25985 -0.86618,0.577444 0,0.317591 1.42919,0.577441 3.17594,0.577441 1.74677,0 3.17593,-0.25985 3.17593,-0.577441 0,-0.317594 0.63106,-0.577444 1.40236,-0.577444 0.7713,0 1.79213,-0.389773 2.26851,-0.866162 0.47639,-0.47639 1.14459,-0.866163 1.48486,-0.866163 0.34029,0 0.61868,-0.259848 0.61868,-0.577442 0,-0.317593 0.38979,-0.577441 0.86618,-0.577441 0.47638,0 0.86615,0.259848 0.86615,0.577441 0,0.921524 2.72929,0.667003 3.09603,-0.288721 0.24461,-0.637444 1.25204,-0.866163 3.81516,-0.866163 1.93689,0 3.48276,-0.256308 3.48276,-0.577441 0,-0.317594 0.77956,-0.577441 1.73233,-0.577441 0.9528,0 1.732328,0.259847 1.732328,0.577441 0,0.317593 0.64963,0.577441 1.4436,0.577441 0.89826,0 1.44361,0.32722 1.44361,0.866163 0,0.656062 -0.71034,0.866163 -2.92846,0.866163 -1.833138,0 -3.252408,0.323961 -3.794618,0.866163 -0.47639,0.476389 -1.86532,0.866162 -3.08656,0.866162 -1.22122,0 -2.31267,0.276815 -2.42545,0.615144 -0.12484,0.374455 -2.51599,0.646834 -6.11126,0.696136 -4.40647,0.06043 -5.90621,0.270791 -5.90621,0.828461 0,0.535837 -1.07438,0.74747 -3.79462,0.74747 -3.86159,0 -5.44444,0.725497 -5.44444,2.495461 0,0.465095 -0.38979,0.995199 -0.86617,1.17801 -0.59359,0.227779 -0.86616,1.155797 -0.86616,2.948991 v 2.616608 h 8.99476 8.99478 l 1.68789,1.687908 c 0.92836,0.928348 1.68792,1.967743 1.68792,2.309769 0,0.342018 0.25687,0.621859 0.57084,0.621859 0.88728,0 2.86952,1.881894 2.54143,2.41277 -0.16128,0.260941 0.11196,0.474438 0.60703,0.474438 0.49513,0 0.90024,0.389774 0.90024,0.866163 0,0.476391 0.295,0.866163 0.65559,0.866163 0.36056,0 1.25762,0.649624 1.99345,1.443606 0.73586,0.793982 1.71227,1.443604 2.16985,1.443604 0.45757,0 0.98784,0.406243 1.17839,0.902761 0.190528,0.49652 0.561748,0.769678 0.824928,0.607024 0.53394,-0.32999 2.41685,1.64802 2.41685,2.538908 0,0.313961 0.66495,0.570843 1.47768,0.570843 0.90022,0 1.32883,0.24085 1.09679,0.616309 -0.20973,0.339363 0.16412,0.758845 0.83209,0.933509 0.80432,0.210345 1.21299,0.780859 1.21299,1.693458 0,0.838378 0.33852,1.376258 0.86615,1.376258 0.47638,0 0.86872,0.324811 0.87185,0.721802 0.002,0.396991 1.03994,1.631274 2.30408,2.74285 1.26415,1.111575 2.30099,2.475782 2.30411,3.031571 0.002,0.555787 0.24487,1.010523 0.53721,1.010523 0.29236,0 0.7028,0.779546 0.91205,1.732326 0.2093,0.952778 0.61969,1.732324 0.91205,1.732324 0.3022,0 0.53156,4.090334 0.53156,9.479677 0,7.053376 0.1842,9.54105 0.71938,9.719466 0.52191,0.173942 0.77691,2.762664 0.92903,9.431534 0.11545,5.055471 0.42532,9.327191 0.68885,9.492691 0.76259,0.47891 0.94865,13.2332 0.20013,13.71993 -0.35118,0.22835 -0.81414,1.37071 -1.02879,2.53859 -0.21475,1.16785 -0.70688,2.25243 -1.09382,2.41015 -0.54374,0.22168 -0.53613,0.40502 0.0336,0.80734 0.4054,0.28631 0.9037,1.9273 1.10732,3.64664 0.33773,2.85165 1.18117,4.58236 2.23311,4.58236 0.6426,0 2.5631,2.40985 2.5631,3.21618 0,0.40133 0.25029,0.8163 0.5562,0.92215 0.30592,0.10585 0.67294,1.14151 0.81561,2.3014 0.50347,4.09296 0.95371,4.41677 5.68168,4.0865 2.31364,-0.16172 4.33656,-0.47863 4.49536,-0.70447 0.15888,-0.22584 3.66238,-0.5662 7.78576,-0.75631 4.41915,-0.20384 7.58006,-0.5947 7.69922,-0.95219 0.11131,-0.33359 0.57028,-0.6065 1.02021,-0.6065 0.44992,0 0.81803,-0.25987 0.81803,-0.57746 0,-0.96307 3.94912,-0.64577 5.19039,0.41707 0.71713,0.61403 1.16148,1.70555 1.16148,2.85313 0,1.02224 0.25985,2.01923 0.57744,2.2155 0.77455,0.4787 0.77455,15.30221 0,15.30221 -0.31759,0 -0.57744,-0.91761 -0.57744,-2.03916 0,-1.27992 -0.3225,-2.16292 -0.86615,-2.37154 -0.67473,-0.25893 -0.86617,-1.40356 -0.86617,-5.17887 0,-3.02608 -0.22971,-4.84647 -0.61153,-4.84647 -0.33634,0 -0.48339,-0.20733 -0.32682,-0.46065 0.1567,-0.25336 0.0653,-0.81587 -0.20319,-1.25003 -0.37896,-0.61318 -2.14271,-0.75923 -7.90171,-0.65432 -4.07761,0.0742 -7.50047,0.37696 -7.60634,0.67259 -0.10585,0.29564 -1.8784,0.53752 -3.93897,0.53752 -2.5603,0 -4.02074,0.27425 -4.61267,0.86617 -0.73474,0.73475 -3.77305,0.86751 -20.02485,0.87499 -10.5373,0.004 -18.816448,0.22589 -18.398118,0.49114 0.89206,0.56565 -4.56356,1.23235 -10.08437,1.23235 -2.06081,0 -3.66867,0.25308 -3.66867,0.57746 0,0.34646 -2.30976,0.57743 -5.77441,0.57743 -4.74785,0 -5.77442,0.15408 -5.77442,0.86615 0,0.53896 -0.54537,0.86618 -1.4436,0.86618 -0.96729,0 -1.46319,0.33343 -1.50297,1.01052 -0.27938,4.75551 0.24279,27.61806 0.63633,27.86127 0.27787,0.17176 0.58654,5.35277 0.68593,11.51339 0.13422,8.31619 0.36661,11.26292 0.90251,11.44099 0.51589,0.17132 0.7218,1.95572 0.7218,6.25485 0,4.96173 0.15169,6.01503 0.86616,6.01503 0.47638,0 0.86617,0.38977 0.86617,0.86615 0,0.74088 1.66031,0.86618 11.47813,0.86618 9.49832,0 11.60212,-0.1495 12.19697,-0.86618 0.59468,-0.71654 2.69331,-0.86615 12.148868,-0.86615 8.63117,0 11.48874,-0.17678 11.6698,-0.7218 0.17634,-0.53117 2.89632,-0.76949 10.29771,-0.90232 5.53187,-0.0993 10.3048,-0.42411 10.6065,-0.7218 0.30173,-0.29771 5.04397,-0.54129 10.53833,-0.54129 h 9.98973 v -3.70525 c 0,-2.03789 0.25956,-3.79187 0.57676,-3.89774 0.36772,-0.12265 0.59088,-7.20405 0.61567,-19.53677 0.0218,-10.63937 0.1794,-19.92717 0.351,-20.63957 0.63933,-2.65339 1.34379,-0.50354 1.34379,4.10106 0,3.03416 0.26156,5.0222 0.7218,5.48584 0.93167,0.93861 0.80899,37.77839 -0.1268,38.09035 -0.32724,0.10912 -0.59496,0.56644 -0.59496,1.01635 0,0.6717 -1.65308,0.81805 -9.23908,0.81805 -5.08148,0 -9.23906,0.22658 -9.23906,0.50352 0,0.27691 -3.89774,0.69144 -8.66163,0.92117 -4.76389,0.22972 -8.66163,0.65277 -8.66163,0.94011 0,0.29673 -5.84165,0.52242 -13.52176,0.52242 -10.30411,0 -13.579038,0.17176 -13.762428,0.7218 -0.37403,1.12185 -30.45999,1.2016 -30.45999,0.0807 0,-0.4414 -0.38979,-0.80253 -0.86618,-0.80253 -0.70912,0 -0.86615,-0.99448 -0.86615,-5.48569 0,-3.01714 -0.22036,-5.4857 -0.4897,-5.4857 -0.26931,0 -0.6625,-2.66347 -0.87374,-5.91878 -0.44158,-6.80479 -0.57004,-7.75602 -1.12209,-8.30807 -0.22093,-0.22093 -0.40168,-4.90573 -0.40168,-10.41068 0,-8.68033 -0.1196,-10.00899 -0.90025,-10.00899 -0.49513,0 -0.73965,0.25985 -0.54336,0.57744 0.2082,0.33688 -0.37896,0.57743 -1.40952,0.57743 -0.97152,0 -1.76642,0.27842 -1.76642,0.61871 0,0.99601 -1.77359,2.48582 -3.07336,2.58158 -0.65932,0.0487 -1.29858,0.38778 -1.42058,0.75378 -0.122,0.36602 -0.7352,0.66547 -1.36266,0.66547 -0.62748,0 -0.99182,0.24114 -0.80967,0.53586 0.18224,0.29474 -0.23728,0.71631 -0.93204,0.93682 -0.69479,0.22052 -1.79776,0.89889 -2.45103,1.50751 -0.65328,0.60865 -1.77761,1.25463 -2.49852,1.43558 -0.72091,0.18093 -1.31074,0.69057 -1.31074,1.13252 0,0.44197 -0.1949,0.77281 -0.43307,0.73519 -1.39939,-0.22096 -2.454128,0.1807 -2.454128,0.93455 0,0.47638 -0.311829,0.86617 -0.69293,0.86617 -0.538958,0 -0.538958,0.15386 0,0.69293 0.381101,0.3811 0.69293,1.55858 0.69293,2.61659 0,1.17727 0.336077,2.05267 0.866152,2.25608 0.534436,0.20515 0.866176,1.08276 0.866176,2.29164 0,1.07759 0.23033,1.95926 0.51187,1.95926 0.28154,0 0.68724,1.16932 0.90155,2.5985 0.21432,1.42916 0.63359,2.59848 0.93172,2.59848 0.29814,0 0.54205,1.01774 0.54205,2.26166 0,1.24389 0.29915,2.36135 0.66474,2.48322 0.3656,0.12178 0.78756,1.70262 0.93767,3.51277 0.15015,1.81015 0.50061,3.29119 0.77887,3.29119 0.27827,0 0.50594,1.16932 0.50594,2.59848 0,1.92482 0.22455,2.5985 0.86617,2.5985 0.52862,0 0.86616,0.5385 0.86616,1.38182 0,0.76 0.38976,1.53139 0.86617,1.71421 0.47639,0.18289 0.86615,0.99014 0.86615,1.79409 0,0.80396 0.25984,1.46175 0.57744,1.46175 0.31759,0 0.58845,0.45471 0.6019,1.01052 0.0131,0.55578 0.79299,1.64795 1.73232,2.42702 1.33497,1.10723 1.70788,1.88783 1.70788,3.57493 0,1.18713 0.25985,2.31902 0.57744,2.51531 0.75808,0.46851 0.74468,2.44651 -0.0175,2.70083 -0.82432,0.27478 -0.87652,5.85501 -0.0574,6.12806 0.35919,0.11982 0.65306,1.10553 0.65306,2.19062 0,1.36875 0.26525,1.97294 0.86617,1.97294 0.52861,0 0.86615,0.53848 0.86615,1.38183 0,1.56392 0.94684,2.08282 3.80062,2.08282 1.08558,0 1.97382,0.25985 1.97382,0.57744 0,0.31759 0.77953,0.57743 1.73232,0.57743 1.15487,0 1.73233,0.28872 1.73233,0.86618 0,0.47638 0.23167,0.86615 0.51484,0.86615 0.28315,0 0.67787,0.64963 0.87715,1.44361 0.19926,0.79398 0.61722,1.44361 0.92877,1.44361 0.31154,0 0.56643,0.77955 0.56643,1.73232 0,0.95278 -0.25984,1.73233 -0.57743,1.73233 -0.31759,0 -0.57744,0.27518 -0.57744,0.61152 0,0.33634 0.25985,0.45092 0.57744,0.25463 0.34365,-0.21235 0.57743,0.47521 0.57743,1.69826 0,1.44182 -0.25847,2.05511 -0.86615,2.05511 -0.47639,0 -0.86617,0.25986 -0.86617,0.57746 0,1.15604 -4.62858,5.19697 -5.95276,5.19697 -0.73329,0 -1.83766,0.38152 -2.45413,0.8478 -0.61651,0.46628 -1.70555,0.85605 -2.42013,0.86615 -1.04621,0.0153 -1.29926,0.3464 -1.29926,1.70258 0,0.9263 -0.32482,1.83578 -0.72181,2.02104 -0.57743,0.26947 -0.57743,0.40422 0,0.67368 0.85496,0.39898 0.98091,3.12782 0.14448,3.12782 -0.31759,0 -0.57743,0.59175 -0.57743,1.31501 0,0.73436 -0.75457,1.97714 -1.70882,2.81448 -0.93986,0.82471 -1.54617,1.66212 -1.34737,1.86092 0.19883,0.19882 0.0397,0.36145 -0.35347,0.36145 -0.39321,0 -1.10471,0.38977 -1.5811,0.86616 -0.7055,0.70552 -2.78639,0.86617 -11.21888,0.86617 H 30.989148 Z m 18.478151,-39.31418 c 0,-0.31759 0.65777,-0.57744 1.46172,-0.57744 0.80395,0 1.61131,-0.38978 1.79411,-0.86617 0.18289,-0.47639 0.95419,-0.86615 1.71421,-0.86615 0.76,0 1.38183,-0.25985 1.38183,-0.57744 0,-0.31761 -0.38979,-0.57745 -0.86618,-0.57745 -0.47638,0 -0.86615,-0.38977 -0.86615,-0.86616 0,-0.47638 -0.25987,-0.86617 -0.57746,-0.86617 -0.31759,0 -0.57743,-0.38976 -0.57743,-0.86615 0,-0.47639 -0.36198,-0.86617 -0.80439,-0.86617 -0.44241,0 -0.95395,0.38978 -1.13675,0.86617 -0.18289,0.47639 -0.83244,0.86615 -1.44361,0.86615 -0.61118,0 -1.26712,0.40624 -1.45764,0.90277 -0.19053,0.49651 -0.55557,0.77351 -0.81116,0.61555 -0.25561,-0.15801 -0.8421,-0.0247 -1.30332,0.29607 -0.63728,0.44328 -0.6653,0.65362 -0.11676,0.87619 0.39701,0.16106 0.7218,0.92084 0.7218,1.68835 0,1.10356 0.30201,1.3955 1.44361,1.3955 0.79398,0 1.44361,-0.25986 1.44361,-0.57745 z M 161.87313,208.51121 c -0.16019,-0.39699 -0.29127,-0.0722 -0.29127,0.7218 0,0.79398 0.13117,1.1188 0.29127,0.72181 0.16019,-0.39699 0.16019,-1.04662 0,-1.44361 z M -18.093735,180.36774 c 0,-0.31384 1.039395,-0.73682 2.30976,-0.93996 3.220085,-0.51491 2.888177,-1.37663 -0.530206,-1.37663 -1.561985,0 -3.251011,-0.1578 -3.753369,-0.35051 -0.654803,-0.25126 -0.913402,-0.006 -0.913402,0.86616 0,0.69653 0.370319,1.21667 0.866174,1.21667 0.476386,0 0.866152,0.25985 0.866152,0.57744 0,0.31759 0.259865,0.57745 0.577456,0.57745 0.317591,0 0.577435,-0.25678 0.577435,-0.57062 z M 93.930002,142.78276 c 0,-2.4703 0.26561,-3.19723 1.68792,-4.61952 0.92833,-0.92835 2.09764,-1.68791 2.59847,-1.68791 0.50081,0 0.91059,-0.23093 0.91059,-0.51318 0,-0.28224 0.909468,-0.68379 2.021038,-0.89232 1.90516,-0.35743 2.02105,-0.51011 2.02105,-2.66276 0,-1.25598 0.25984,-2.28361 0.57743,-2.28361 0.31759,0 0.57746,-0.91761 0.57746,-2.03916 0,-1.27992 0.3225,-2.16292 0.86615,-2.37154 1.366,-0.52419 1.01052,-1.36371 -0.57744,-1.36371 -1.29923,0 -1.4436,-0.23097 -1.4436,-2.30976 0,-2.18146 -0.0962,-2.30978 -1.73233,-2.30978 -1.462858,0 -1.732328,-0.22456 -1.732328,-1.44361 0,-0.79398 -0.25984,-1.44359 -0.57743,-1.44359 -0.33307,0 -0.57746,-1.81253 -0.57746,-4.2827 0,-2.56899 -0.25102,-4.36636 -0.62734,-4.49181 -0.39872,-0.13291 -0.74582,-3.62292 -0.95241,-9.57592 -0.17874,-5.151735 -0.51768,-9.366781 -0.75314,-9.366781 -0.23544,0 -0.52881,-1.994636 -0.65192,-4.432506 -0.14164,-2.803476 -0.48309,-4.518932 -0.92927,-4.667666 -0.388,-0.12942 -0.70544,-0.863118 -0.70544,-1.630623 0,-0.767527 -0.23861,-1.395485 -0.53023,-1.395485 -0.29162,0 -0.94122,-0.157792 -1.44358,-0.350503 -0.81264,-0.31183 -0.9134,0.829421 -0.9134,10.345831 0,6.738425 0.21737,10.768792 0.58738,10.892122 0.68571,0.228569 1.00481,9.647991 1.08719,32.092841 0.0369,10.06672 0.26578,15.73528 0.63519,15.73528 0.31759,0 0.57745,-1.31923 0.57745,-2.93163 z m 3.02853,1.48802 c 0.3464,-1.812 -0.11087,-4.3308 -0.78607,-4.3308 -0.28058,0 -0.51013,1.29924 -0.51013,2.88722 0,3.01794 0.82056,3.9318 1.2962,1.44358 z m 9.675188,0.86618 c 0,-0.31759 -0.77955,-0.57744 -1.73233,-0.57744 -1.15489,0 -1.73232,-0.28874 -1.73232,-0.86617 0,-0.47639 -0.32482,-0.8012 -0.72181,-0.72181 -0.40511,0.081 -0.80155,-0.54816 -0.90358,-1.43402 -0.1471,-1.27744 -0.44993,-1.55623 -1.587978,-1.46203 -1.27767,0.10585 -1.40618,0.36872 -1.40618,2.87763 v 2.76127 h 4.042108 c 2.30976,0 4.04209,-0.24747 4.04209,-0.57743 z m 16.16836,-0.9074 c 0,-0.81668 -0.42145,-1.90634 -0.9366,-2.42146 -0.86384,-0.86386 -0.99214,-0.86065 -1.65162,0.0412 -0.39325,0.53782 -1.24323,0.97785 -1.88883,0.97785 -0.64559,0 -1.32337,0.38976 -1.50618,0.86617 -0.18289,0.47639 -0.86023,0.86615 -1.50539,0.86615 -0.64516,0 -1.173,0.25985 -1.173,0.57744 0,0.33365 1.82857,0.57746 4.33082,0.57746 4.26666,0 4.3308,-0.022 4.3308,-1.48486 z m -24.252558,-5.44447 c 0,-0.31759 -0.25984,-0.57744 -0.57743,-0.57744 -0.31759,0 -0.57744,0.25985 -0.57744,0.57744 0,0.31759 0.25985,0.57746 0.57744,0.57746 0.31759,0 0.57743,-0.25987 0.57743,-0.57746 z m 21.365368,-2.8872 c 0,-0.31759 -0.25987,-0.57745 -0.57746,-0.57745 -0.31759,0 -0.57743,0.25986 -0.57743,0.57745 0,0.3176 0.25984,0.57744 0.57743,0.57744 0.31759,0 0.57746,-0.25984 0.57746,-0.57744 z m -4.73871,-12.49688 c -0.19511,-1.67091 -0.0301,-2.15926 0.803,-2.37711 0.57667,-0.15081 1.04849,-0.77412 1.04849,-1.38512 0,-0.93385 -0.3682,-1.08922 -2.30976,-0.97464 -1.27039,0.0749 -2.30978,0.34533 -2.30978,0.60083 0,0.2555 -1.689,0.46454 -3.75337,0.46454 -2.61701,0 -3.75376,0.21852 -3.75472,0.7218 -0.001,0.53138 1.16281,0.67095 4.41118,0.52901 3.2229,-0.14077 4.54082,0.0153 4.88845,0.5773 0.61434,0.99404 -0.74636,1.54287 -3.95693,1.59597 -2.05564,0.0341 -2.45413,0.22811 -2.45413,1.19546 0,1.03839 0.38496,1.15489 3.81655,1.15489 h 3.81653 z M 52.640372,79.304498 c -0.19773,-0.319839 0.0469,-0.737409 0.54337,-0.927938 0.68673,-0.263531 0.90277,-1.218291 0.90277,-3.989895 0,-2.133203 0.2629,-3.731101 0.63422,-3.854881 0.34885,-0.116281 0.7724,-1.437179 0.94127,-2.935327 0.16893,-1.498157 0.53307,-2.723921 0.80937,-2.723921 0.27628,0 0.50233,-0.779548 0.50233,-1.732326 0,-1.462851 -0.22455,-1.732326 -1.44358,-1.732326 -0.89826,0 -1.44361,-0.32722 -1.44361,-0.866162 0,-0.476389 -0.24234,-0.866163 -0.53854,-0.866163 -0.29618,0 -0.71229,-0.547474 -0.92467,-1.216613 -0.44205,-1.39283 -2.04121,-3.402923 -2.70723,-3.402923 -0.24701,0 -0.4491,1.834279 -0.4491,4.076174 0,2.570402 -0.21323,3.944338 -0.57744,3.719292 -0.31759,-0.196291 -0.57745,0.162833 -0.57745,0.798006 0,0.635187 0.25986,1.315477 0.57745,1.511763 0.31759,0.19629 0.57744,1.48306 0.57744,2.859508 0,1.691876 0.2806,2.610309 0.86617,2.835008 0.66382,0.254734 0.86615,1.348277 0.86615,4.681322 0,3.553914 0.16456,4.348917 0.90024,4.348917 0.49514,0 0.73851,-0.261676 0.54084,-0.581515 z m -7.79295,-9.990781 c 0,-1.686062 0.34704,-3.540147 0.77118,-4.120187 0.80611,-1.102423 0.62108,-3.785646 -0.26105,-3.785646 -0.28055,0 -0.51013,-0.278407 -0.51013,-0.618689 0,-0.799456 -1.46905,-2.268521 -2.268507,-2.268521 -0.340289,0 -0.618683,0.599958 -0.618683,1.33324 0,0.733281 -0.381516,1.837638 -0.847798,2.454127 -1.098038,1.45173 -1.105,3.00395 -0.01746,4.090594 0.476387,0.476389 0.866174,1.627144 0.866174,2.55724 0,1.118224 0.29341,1.691079 0.866152,1.691079 0.476392,0 0.866172,0.389774 0.866172,0.866163 0,0.476389 0.25985,0.866163 0.57744,0.866163 0.31759,0 0.57743,-1.379503 0.57743,-3.065563 z M 40.227906,57.990029 c 0,-1.688353 1.513949,-5.158692 2.598478,-5.956296 0.340048,-0.250085 0.221344,-0.431949 -0.288718,-0.442362 -0.548189,-0.01113 -0.638718,-0.173418 -0.246596,-0.441921 0.930052,-0.636844 1.471372,-2.470309 1.086952,-3.681521 -0.2431,-0.765909 -0.896903,-1.073535 -2.281629,-1.073535 -1.067484,0 -2.330668,-0.389772 -2.807055,-0.866163 -0.476387,-0.476389 -1.372591,-0.866163 -1.99158,-0.866163 -0.618989,0 -1.425603,-0.361692 -1.792496,-0.803764 -1.140094,-1.373746 -2.938985,-1.555571 -2.938985,-0.297059 0,0.605453 0.259843,1.100823 0.577435,1.100823 0.317591,0 0.577434,0.649624 0.577434,1.443606 0,0.898245 0.327238,1.443604 0.866174,1.443604 0.577435,0 0.866152,0.577442 0.866152,1.732326 0,0.952778 0.259865,1.732326 0.577457,1.732326 0.317591,0 0.577434,0.631064 0.577434,1.402358 0,0.7713 0.389765,1.792131 0.866174,2.26852 0.476387,0.476389 0.866152,1.794199 0.866152,2.928457 0,1.814818 0.173287,2.062294 1.443608,2.062294 1.21013,0 1.443609,-0.272594 1.443609,-1.68553 z m 17.449276,-0.626485 c 0.56586,-0.607393 1.02885,-1.913319 1.02885,-2.902066 0,-0.988743 0.38979,-2.187489 0.86617,-2.663878 0.47639,-0.476391 0.86616,-1.886994 0.86616,-3.134685 0,-1.247683 0.25986,-2.268521 0.57745,-2.268521 0.31759,0 0.57744,-0.797053 0.57744,-1.771239 0,-1.571573 -0.14645,-1.725696 -1.29924,-1.367273 -0.71458,0.222177 -1.38586,0.629465 -1.49173,0.905072 -0.10585,0.275612 -0.79265,0.501114 -1.52617,0.501114 -0.73355,0 -1.48329,0.389774 -1.66609,0.866163 -0.20864,0.543657 -1.09165,0.866163 -2.37157,0.866163 -1.12154,0 -2.03916,0.25985 -2.03916,0.577443 0,0.317594 -0.64963,0.577441 -1.44361,0.577441 -0.89823,0 -1.4436,0.327218 -1.4436,0.866163 0,0.476389 0.25986,0.866163 0.57745,0.866163 0.31759,0 0.57744,0.43963 0.57744,0.976958 0,0.537321 1.03939,1.946174 2.30976,3.130779 1.43671,1.339699 2.30978,2.670108 2.30978,3.519693 0,1.752398 2.1303,2.022047 3.59067,0.45451 z m -3.73441,-13.711997 c 0.13204,-0.396992 0.8865,-0.721805 1.6767,-0.721805 0.7902,0 1.79893,-0.32481 2.2416,-0.721802 1.91081,-1.713576 2.564,-2.165406 3.13036,-2.165406 0.331,0 0.60182,-0.389774 0.60182,-0.866163 0,-0.476389 0.38976,-0.866163 0.86617,-0.866163 0.47639,0 0.86615,-0.278407 0.86615,-0.618689 0,-0.340274 0.38977,-1.008462 0.86618,-1.484851 0.47638,-0.476389 0.86615,-1.627144 0.86615,-2.557242 0,-0.930091 0.25984,-1.691079 0.57743,-1.691079 0.31759,0 0.57746,-0.909472 0.57746,-2.021046 v -2.021047 h -3.21002 c -1.99296,0 -3.07469,0.218931 -2.85313,0.577441 0.21995,0.355896 -0.76393,0.577443 -2.56441,0.577443 -1.6067,0 -2.92129,-0.25985 -2.92129,-0.577443 0,-0.317593 0.1949,-0.546668 0.43309,-0.50906 1.39937,0.220952 2.45413,-0.180708 2.45413,-0.934544 0,-0.476389 0.3816,-0.866163 0.84804,-0.866163 0.54374,0 0.73402,0.362605 0.53029,1.010524 -0.3026,0.962405 -0.27809,0.962405 0.51487,0 0.64048,-0.777348 1.71733,-1.010524 4.66668,-1.010524 3.73312,0 3.83408,-0.03909 3.83408,-1.484852 0,-0.816665 0.38976,-1.874625 0.86615,-2.351014 0.47638,-0.476389 0.86617,-1.886994 0.86617,-3.134683 0,-1.631505 -0.24323,-2.268521 -0.86617,-2.268521 -0.47639,0 -0.86615,0.389772 -0.86615,0.866163 0,0.663319 -0.7325,0.866163 -3.12782,0.866163 -1.93765,0 -3.25598,0.274653 -3.46465,0.721802 -0.26946,0.577441 -0.40421,0.577441 -0.67368,0 -0.21824,-0.467452 -1.64252,-0.721802 -4.04211,-0.721802 -2.90858,0 -3.70524,-0.186229 -3.70524,-0.866163 0,-0.577443 -0.57744,-0.866163 -1.73233,-0.866163 -1.15489,0 -1.73232,0.28872 -1.73232,0.866163 0,0.476389 0.38976,0.866163 0.86617,0.866163 0.53894,0 0.86615,0.545359 0.86615,1.443604 0,1.154885 0.28872,1.443604 1.44361,1.443604 0.79398,0 1.44361,0.25985 1.44361,0.577443 0,0.317592 0.38977,0.577442 0.86615,0.577442 0.47639,0 0.86618,-0.25985 0.86618,-0.577442 0,-0.317593 1.03939,-0.577443 2.30976,-0.577443 1.66816,0 2.30976,0.240603 2.30976,0.866163 0,0.476389 -0.36812,0.866163 -0.81803,0.866163 -0.44994,0 -0.90467,0.255299 -1.01052,0.567332 -0.10585,0.312032 -1.81118,0.636843 -3.7896,0.721802 -2.21631,0.09518 -3.70553,0.431546 -3.8796,0.876274 -0.18748,0.478785 0.29463,0.721802 1.43169,0.721802 1.61495,0 1.71421,0.133741 1.71421,2.309767 0,1.668166 0.24059,2.309769 0.86615,2.309769 0.47639,0 0.86618,-0.278409 0.86618,-0.618689 0,-0.340276 0.40633,-0.212354 0.90297,0.284291 0.49664,0.49664 0.7804,1.101309 0.6306,1.343708 -0.14972,0.242404 -2.44006,0.518397 -5.08943,0.613323 -2.6494,0.09492 -5.06391,0.418288 -5.36564,0.718588 -0.3017,0.300293 -1.54413,0.545987 -2.76096,0.545987 -1.433897,0 -2.329359,0.304787 -2.544789,0.866163 -0.205151,0.53443 -1.082761,0.866163 -2.291646,0.866163 -1.791994,0 -1.959258,-0.147883 -1.959258,-1.732326 0,-0.952778 0.259843,-1.732325 0.577435,-1.732325 0.916304,0 0.669752,-2.150793 -0.288718,-2.518587 -1.97137,-0.75649 -0.683916,-1.523506 2.557251,-1.523506 2.273096,0 3.714435,-0.291042 4.289555,-0.866163 0.47639,-0.476389 1.56836,-0.866163 2.42657,-0.866163 1.48007,0 1.54236,-0.111262 1.20975,-2.160869 -0.19293,-1.188479 -0.61663,-2.249529 -0.9417,-2.357885 -1.22672,-0.408904 -0.56434,-1.833108 0.85253,-1.833108 0.79398,0 1.44361,-0.259847 1.44361,-0.577441 0,-0.317593 -0.25985,-0.577441 -0.57744,-0.577441 -0.82959,0 -0.71379,-1.590641 0.13641,-1.874048 0.45521,-0.151746 0.14142,-0.768507 -0.86618,-1.7023 -0.86903,-0.805385 -1.58005,-2.019203 -1.58005,-2.697369 0,-1.092427 -0.32477,-1.23303 -2.84829,-1.23303 -2.431929,0 -2.907552,0.186666 -3.253581,1.276963 -0.466544,1.469901 -3.325935,4.497458 -4.247652,4.497458 -0.342035,0 -0.621869,0.278408 -0.621869,0.618688 0,0.880737 -1.283111,2.048116 -2.769779,2.519974 -0.699783,0.222096 -1.272308,0.646152 -1.272308,0.942344 0,0.296188 -0.779552,0.538528 -1.732325,0.538528 -1.154891,0 -1.732326,0.288722 -1.732326,0.866163 0,0.62556 -0.641599,0.866163 -2.309782,0.866163 h -2.309761 v 2.309769 c 0,1.668166 0.240594,2.309767 0.866174,2.309767 0.499499,0 0.866152,0.521967 0.866152,1.23303 0,0.678163 0.64963,1.835075 1.443608,2.570915 0.793979,0.73584 1.443609,1.869993 1.443609,2.520344 0,0.650348 0.278394,1.182455 0.618683,1.182455 0.340267,0 0.989897,0.371214 1.443608,0.824917 0.45369,0.453706 0.824904,1.10333 0.824904,1.443604 0,0.340282 0.389787,0.618689 0.866174,0.618689 0.476387,0 0.866152,0.389774 0.866152,0.866163 0,0.499499 0.521978,0.866163 1.233045,0.866163 0.678155,0 1.835075,0.649622 2.570913,1.443604 0.735837,0.793983 1.869995,1.443604 2.520346,1.443604 0.65035,0 1.182455,0.240795 1.182455,0.535104 0,0.840011 1.590925,1.039524 7.74796,0.971639 4.02169,-0.04435 5.7984,-0.27806 5.96691,-0.784938 z m -9.09535,-1.236644 c 0,-0.283168 -0.6496,-0.677889 -1.44358,-0.877165 -2.126611,-0.53374 -1.755287,-1.495204 0.57743,-1.495204 1.11157,0 2.02105,0.259848 2.02105,0.577441 0,0.317594 0.38976,0.577442 0.86617,0.577442 0.47639,0 0.86615,-0.259848 0.86615,-0.577442 0,-0.317593 0.38977,-0.577441 0.86618,-0.577441 0.47638,0 0.86615,-0.389774 0.86615,-0.866163 0,-0.476389 0.38976,-0.866163 0.86617,-0.866163 0.57744,0 0.86615,0.577442 0.86615,1.732326 0,1.154883 -0.28871,1.732326 -0.86615,1.732326 -0.47641,0 -0.86617,0.259848 -0.86617,0.577441 0,0.317594 -1.0394,0.577441 -2.30976,0.577441 -1.27039,0 -2.30979,-0.231681 -2.30979,-0.514839 z M 31.373784,27.53129 c -0.647426,-0.647432 -0.429551,-1.347362 0.419425,-1.347362 0.442406,0 0.953952,-0.389774 1.136755,-0.866163 0.254736,-0.663827 1.348279,-0.866163 4.681328,-0.866163 3.480758,0 4.34894,0.172916 4.34894,0.866163 0,0.654432 -0.705764,0.866163 -2.887217,0.866163 -2.181454,0 -2.887217,0.21172 -2.887217,0.866163 0,0.619283 -0.630905,0.866163 -2.213514,0.866163 -1.217441,0 -2.386758,-0.173222 -2.5985,-0.384964 z m 8.854122,-4.846095 c 0,-0.336336 -0.232628,-0.467751 -0.516937,-0.292034 -0.284309,0.175709 -0.674096,-0.09005 -0.866174,-0.590591 -0.553187,-1.441589 -0.414427,-1.970504 0.516937,-1.970504 0.476387,0 0.866174,-0.259847 0.866174,-0.577441 0,-0.317593 0.278394,-0.577441 0.618683,-0.577441 0.967985,0 2.174797,1.446579 2.591343,3.106174 0.3488,1.389741 0.23319,1.51336 -1.415108,1.51336 -0.987212,0 -1.794918,-0.275186 -1.794918,-0.611523 z m 1.732326,-2.035082 c 0,-1.019723 -1.243106,-0.842137 -1.600004,0.228568 -0.125709,0.377138 0.18289,0.685711 0.685707,0.685711 0.50286,0 0.914297,-0.411426 0.914297,-0.914279 z m -59.84515,18.526258 c 0.235204,-0.612954 1.191666,-0.866163 3.271788,-0.866163 1.812575,0 2.802603,-0.221368 2.582546,-0.577443 -0.196203,-0.317591 0.04823,-0.577441 0.543344,-0.577441 0.615323,0 0.900242,-0.548299 0.900242,-1.732326 0,-1.91012 -0.618312,-2.186397 -1.938546,-0.866163 -0.594174,0.594183 -2.057708,0.866163 -4.660791,0.866163 h -3.794617 v 2.309767 c 0,2.051253 0.154736,2.309769 1.381823,2.309769 0.760019,0 1.531409,-0.389774 1.714211,-0.866163 z m 1.523508,-6.317001 c 0,-0.543801 0.748911,-0.893291 2.165413,-1.010524 1.976914,-0.163619 2.181148,-0.342578 2.34636,-2.055906 l 0.180926,-1.876686 h -3.212534 -3.212512 v 1.973817 c 0,2.292774 0.482694,3.800601 1.216655,3.800601 0.28361,0 0.515671,-0.37409 0.515671,-0.831302 z m 61.497572,-1.478465 c -0.1962,-0.317593 -1.25102,-0.577441 -2.343847,-0.577441 -1.092843,0 -1.986975,0.259848 -1.986975,0.577441 0,0.317594 1.054739,0.577442 2.343852,0.577442 1.41552,0 2.20249,-0.228707 1.98697,-0.577442 z m 5.92236,-1.299245 c -0.36798,-1.120624 -3.32388,-1.283111 -3.32388,-0.182715 0,0.62549 0.54924,0.904517 1.78045,0.904517 1.1658,0 1.69863,-0.249178 1.54343,-0.721802 z M 21.749757,23.874161 c 0,-0.317593 -0.64963,-0.577443 -1.443608,-0.577443 -0.793978,0 -1.443609,0.25985 -1.443609,0.577443 0,0.317591 0.649631,0.577441 1.443609,0.577441 0.793978,0 1.443608,-0.25985 1.443608,-0.577441 z m 28.872105,-1.732326 c 0,-0.317593 -0.25987,-0.577443 -0.57746,-0.577443 -0.31759,0 -0.57743,0.25985 -0.57743,0.577443 0,0.317592 0.25984,0.577442 0.57743,0.577442 0.31759,0 0.57746,-0.25985 0.57746,-0.577442 z m 21.94278,-6.111259 c 0,-1.858733 -0.21498,-2.576055 -0.72181,-2.409597 -0.78893,0.259058 -1.28326,2.935109 -0.78298,4.238818 0.66231,1.725957 1.50479,0.701834 1.50479,-1.829221 z m 4.29363,-0.468396 c 1.37923,-0.34616 2.21902,-2.145954 1.66952,-3.577959 -0.17045,-0.443931 -0.54236,-0.663382 -0.82667,-0.487668 -0.28431,0.17571 -0.51694,-0.24335 -0.51694,-0.931256 0,-0.8745352 -0.26052,-1.1507672 -0.86615,-0.9183632 -0.58918,0.226078 -0.86618,-0.03119 -0.86618,-0.804384 0,-0.62522 -0.25984,-1.136764 -0.57743,-1.136764 -0.88047,0 -0.68804,2.189793 0.2385,2.7141572 0.87837,0.497096 0.61434,3.637705 -0.30583,3.637705 -0.62021,0 -0.68224,2.521147 -0.077,3.13149 0.23819,0.240221 0.51238,0.04828 0.60928,-0.426585 0.0969,-0.474848 0.78042,-1.015011 1.51894,-1.200373 z m -81.093401,0.289575 c 0,-1.001827 -1.040858,-1.794107 -2.356989,-1.794107 -0.29162,0 -0.530228,0.649621 -0.530228,1.443604 0,1.154884 0.288739,1.443606 1.443608,1.443606 1.031452,0 1.443609,-0.312091 1.443609,-1.093103 z M 44.847422,8.5719488 c 0,-0.604938 -0.60951,-0.866163 -2.021038,-0.866163 -1.411527,0 -2.021044,0.261225 -2.021044,0.866163 0,0.60494 0.609517,0.866163 2.021044,0.866163 1.411528,0 2.021038,-0.261223 2.021038,-0.866163 z m 2.88722,-1.154883 c 0,-0.793982 -0.25984,-1.443606 -0.57743,-1.443606 -0.31759,0 -0.57746,0.649624 -0.57746,1.443606 0,0.793983 0.25987,1.443605 0.57746,1.443605 0.31759,0 0.57743,-0.649622 0.57743,-1.443605 z m 29.44954,-2.055128 c 0,-0.298849 -0.25984,-0.54336 -0.57744,-0.54336 -0.31759,0 -0.57745,0.40511 -0.57745,0.900242 0,0.495134 0.25986,0.739646 0.57745,0.543362 0.3176,-0.19629 0.57744,-0.601394 0.57744,-0.900244 z m -32.33676,-0.254641 c 0,-0.476389 0.25492,-0.866163 0.56646,-0.866163 0.31153,0 0.72947,-0.649621 0.92877,-1.443604 0.19926,-0.793982 0.61255,-1.443604 0.9184,-1.443604 0.30585,0 0.94825,-0.392161 1.42757,-0.87147 0.47929,-0.479309 1.1122,-0.722688 1.40641,-0.540842 0.29424,0.181843 0.69086,-0.07562 0.88139,-0.572135 0.19053,-0.49652 0.94047,-0.902763 1.66648,-0.902763 0.72602,0 1.4696,-0.389774 1.65243,-0.866163 0.24461,-0.637443 1.25203,-0.866163 3.81515,-0.866163 3.24922,0 3.48277,-0.08904 3.48277,-1.328115 0,-0.730464 -0.31181,-1.639936 -0.69293,-2.021047 -0.53894,-0.538945 -0.53894,-0.69293 0,-0.69293 0.43463,0 0.69293,-0.953239 0.69293,-2.557243 0,-1.5867568 0.3548,-2.9120468 0.9349,-3.4921468 0.51421,-0.5142 0.73848,-1.11742 0.49838,-1.34049 -0.24007,-0.22307 -0.55251,-0.0808 -0.6943,0.31622 -0.14186,0.39699 -0.62591,0.7218 -1.07582,0.7218 -0.44992,0 -0.81805,0.52785 -0.81805,1.17301 0,0.64515 -0.38977,1.32257 -0.86616,1.50538 -0.47638,0.1828 -0.86617,0.69435 -0.86617,1.1367598 0,0.442412 -0.27839,0.804384 -0.61868,0.804384 -0.34027,0 -1.00847,0.389774 -1.48486,0.866163 -0.67335,0.67336 -2.40343,0.866163 -7.77232,0.866163 -5.60614,0 -6.968762,-0.163052 -7.238579,-0.866163 -0.251529,-0.655486 -1.313032,-0.866163 -4.364195,-0.866163 -4.024387,0 -4.036499,0.0048 -6.578801,2.620651 -2.015783,2.074097 -2.546971,3.037536 -2.546971,4.619536 0,1.74718 0.181798,1.998883 1.443608,1.998883 0.793978,0 1.443587,0.25985 1.443587,0.577441 0,0.317593 1.039395,0.577443 2.309782,0.577443 1.668161,0 2.30976,0.240603 2.30976,0.866163 0,0.476389 0.324815,0.868847 0.721804,0.872134 0.396989,0.0035 1.241491,0.640886 1.876696,1.416904 0.921979,1.126404 1.707991,1.416315 3.897716,1.437633 2.065003,0.02008 2.742843,-0.187364 2.742843,-0.839463 z m -28.880916,-3.32029 c 0.0044,-0.873381 0.268683,-1.587965 0.586274,-1.587965 0.317591,0 0.577435,-1.039396 0.577435,-2.309767 0,-1.270374 -0.259844,-2.309767 -0.577435,-2.309767 -0.317591,0 -0.577435,1.039393 -0.577435,2.309767 0,1.668166 -0.240616,2.309767 -0.866174,2.309767 -0.596683,0 -0.866152,0.598829 -0.866152,1.924805 0,1.058647 0.177216,2.101945 0.393629,2.318447 0.592253,0.59224 1.319863,-0.860574 1.329858,-2.655287 z M -5.967455,-22.898632 c 0,-0.63519 -0.259843,-1.15489 -0.577435,-1.15489 -0.317591,0 -0.577456,0.5197 -0.577456,1.15489 0,0.63518 0.259865,1.15488 0.577456,1.15488 0.317592,0 0.577435,-0.5197 0.577435,-1.15488 z M 73.575162,209.98985 c -1.35306,-0.35358 -1.45411,-4.22149 -0.11022,-4.22149 0.49514,0 0.75679,0.23213 0.58145,0.51585 -0.42248,0.68356 2.3602,1.35783 3.76439,0.91218 1.34662,-0.42742 1.55383,-3.16035 0.23964,-3.16035 -0.47641,0 -0.86618,-0.38977 -0.86618,-0.86618 0,-0.50783 -0.53747,-0.87375 -1.29923,-0.8845 -1.48942,-0.0218 -3.32031,-1.2401 -3.32031,-2.21073 0,-0.36198 -0.38976,-0.65814 -0.86615,-0.65814 -0.62556,0 -0.86617,-0.6416 -0.86617,-2.30976 0,-1.66816 0.24061,-2.30976 0.86617,-2.30976 0.47639,0 0.86615,-0.27841 0.86615,-0.6187 0,-1.4593 1.7483,-2.26851 4.9011,-2.26851 2.02046,0 3.11616,0.21859 2.89438,0.57743 -0.1962,0.31759 0.0482,0.57746 0.54337,0.57746 0.49513,0 0.90024,0.38976 0.90024,0.86615 0,0.58116 -0.58123,0.86617 -1.76642,0.86617 -1.03055,0 -1.61772,-0.24055 -1.40952,-0.57745 0.20821,-0.33689 -0.37896,-0.57744 -1.40952,-0.57744 -1.62305,0 -1.76641,0.15888 -1.76641,1.95845 0,1.60742 0.25873,2.02338 1.44361,2.32076 0.79398,0.19926 1.44361,0.61722 1.44361,0.92877 0,0.31154 0.57638,0.56643 1.28086,0.56643 2.84167,0 5.4989,6.35818 3.04994,7.29792 -0.47639,0.18289 -0.86615,0.69437 -0.86615,1.13678 0,0.44241 -0.38979,0.80439 -0.86618,0.80439 -0.47638,0 -0.86615,0.38976 -0.86615,0.86615 0,0.65775 -0.65995,0.85005 -2.74285,0.79917 -1.50858,-0.0369 -3.19758,-0.18572 -3.75339,-0.33105 z m 13.56989,-2.90481 c -0.71458,-0.8248 -1.29924,-1.84824 -1.29924,-2.27432 0,-0.42608 -0.25985,-0.77468 -0.57744,-0.77468 -0.94354,0 -0.65665,-4.64657 0.43307,-7.01397 l 1.01054,-2.19531 3.609,-0.0153 c 2.70699,-0.0109 3.60902,0.18616 3.60902,0.78948 0,0.44243 0.38977,0.95395 0.86615,1.13677 0.59154,0.22698 0.86618,1.15243 0.86618,2.9188 v 2.58643 l -3.03159,0.1746 c -2.82755,0.16281 -3.04385,0.2814 -3.21428,1.76249 -0.17983,1.56403 -0.13422,1.58797 3.03159,1.58797 3.47214,0 3.85308,0.35125 2.0528,1.89272 -1.84019,1.5756 -5.75744,1.26886 -7.3558,-0.57604 z m 5.05263,-8.24598 c 0,-0.31759 -0.25987,-0.57744 -0.57746,-0.57744 -0.31759,0 -0.57743,-0.38978 -0.57743,-0.86617 0,-1.4512 -1.57888,-0.9646 -1.87367,0.57743 -0.24234,1.26779 -0.0746,1.44361 1.37631,1.44361 0.90873,0 1.65225,-0.25984 1.65225,-0.57743 z m 8.084168,8.95034 c 0,-0.47638 -0.389768,-0.86615 -0.866148,-0.86615 -0.70199,0 -0.86618,-0.93034 -0.86618,-4.90826 0,-6.32072 0.71786,-7.21802 5.774438,-7.21802 3.31065,0 3.46465,0.0642 3.46465,1.44359 0,1.15489 -0.28872,1.44361 -1.44361,1.44361 -0.79398,0 -1.44361,-0.25985 -1.44361,-0.57744 0,-0.31759 -0.64963,-0.57743 -1.44361,-0.57743 -1.41152,0 -1.44361,0.0962 -1.44361,4.3308 0,2.50225 0.24383,4.33083 0.57746,4.33083 0.31759,0 0.57744,0.38976 0.57744,0.86615 0,0.47639 0.38976,0.86617 0.86617,0.86617 0.47639,0 0.86615,-0.25986 0.86615,-0.57745 0,-0.3176 0.64963,-0.57744 1.44361,-0.57744 0.89823,0 1.44361,0.32722 1.44361,0.86615 0,0.47641 -0.40511,0.86618 -0.90024,0.86618 -0.49514,0 -0.73966,0.25984 -0.54337,0.57743 0.22156,0.35851 -0.86017,0.57746 -2.85313,0.57746 -2.46838,0 -3.21002,-0.20013 -3.21002,-0.86618 z m 10.60172,-0.99716 c -0.2034,-0.32918 0.0563,-0.83706 0.57733,-1.12861 1.00151,-0.56048 1.39745,-5.09225 0.44489,-5.09225 -0.2763,0 -0.63775,-1.20146 -0.80327,-2.66991 -0.16543,-1.46844 -0.65406,-2.89762 -1.08562,-3.17593 -1.44695,-0.93309 0.71333,-1.6196 4.69588,-1.49232 3.63674,0.11632 3.76441,0.17154 3.94122,1.7081 0.13051,1.13424 -0.0757,1.58798 -0.72181,1.58798 -0.49749,0 -0.90452,-0.38979 -0.90452,-0.86618 0,-0.47638 -0.38976,-0.86615 -0.86615,-0.86615 -0.69775,0 -0.86617,0.89824 -0.86617,4.61952 0,3.5482 0.18529,4.61955 0.79882,4.61955 1.00151,0 1.66524,2.30622 0.74433,2.58627 -1.94409,0.59114 -5.62961,0.69632 -5.95493,0.17002 z m 11.77417,-1.072 c -0.78571,-0.86054 -1.01053,-2.13301 -1.01053,-5.7197 0,-5.78225 0.76836,-6.93589 4.61953,-6.93589 2.95753,0 4.61954,1.33544 4.61954,3.71183 0,0.76391 0.32481,1.54047 0.7218,1.72574 0.57744,0.26947 0.57744,0.40421 0,0.67368 -0.39699,0.18529 -0.7218,0.70495 -0.7218,1.15487 0,0.60851 -0.82936,0.81805 -3.23772,0.81805 -2.71513,0 -3.18113,0.14753 -2.8872,0.9134 0.19271,0.50236 0.35051,1.15199 0.35051,1.44361 0,0.2916 1.55908,0.53021 3.46465,0.53021 1.90554,0 3.46465,0.12701 3.46465,0.28212 0,0.15517 -0.44754,0.80478 -0.9945,1.44359 -1.37932,1.61094 -6.90515,1.58359 -8.38893,-0.0415 z m 4.76389,-9.19094 c 0,-2.03143 -1.35461,-2.36216 -2.31616,-0.56552 -0.76063,1.42128 -0.30465,2.29784 1.19536,2.29784 0.86036,0 1.1208,-0.40253 1.1208,-1.73232 z m 9.81652,8.37289 c 0,-0.47639 -0.38979,-0.86615 -0.86618,-0.86615 -0.69773,0 -0.86615,-0.89826 -0.86615,-4.61955 0,-2.54073 -0.24234,-4.61952 -0.53854,-4.61952 -1.03176,0 -1.29324,-2.29282 -0.36709,-3.21895 0.49808,-0.4981 0.90563,-1.40677 0.90563,-2.01928 0,-0.80292 0.40277,-1.11364 1.44361,-1.11364 1.15192,0 1.44359,0.28946 1.44359,1.43261 0,1.04651 0.38904,1.53023 1.4436,1.79492 0.79398,0.19926 1.44361,0.58905 1.44361,0.86618 0,0.2771 -0.64963,0.66687 -1.44361,0.86615 -1.37433,0.34493 -1.4436,0.56383 -1.4436,4.56319 0,3.78231 0.1209,4.23246 1.21298,4.51806 0.66714,0.17438 1.05841,0.56733 0.86949,0.873 -0.189,0.3057 0.0613,0.71113 0.55594,0.90096 1.46738,0.5631 0.33547,1.50819 -1.80633,1.50819 -1.38123,0 -1.98695,-0.26405 -1.98695,-0.86617 z m 7.50673,-1.44359 c 0,-1.27039 0.25985,-2.30978 0.57744,-2.30978 0.31759,0 0.57746,0.22955 0.57746,0.5101 0,0.72969 2.48224,1.28074 3.07933,0.68362 0.67672,-0.6767 -1.64236,-2.92605 -3.01674,-2.92605 -0.68353,0 -1.22787,-0.54022 -1.45461,-1.44361 -0.19926,-0.79397 -0.61722,-1.44358 -0.92877,-1.44358 -0.90831,0 -0.65205,-2.15337 0.29974,-2.5186 0.47639,-0.18289 0.86615,-0.71303 0.86615,-1.17831 0,-0.9449 2.0035,-1.32235 5.34134,-1.00635 1.84241,0.17437 2.16539,0.4113 2.16539,1.58797 0,1.09019 -0.30558,1.38296 -1.44358,1.38296 -0.794,0 -1.4436,-0.25986 -1.4436,-0.57745 0,-0.3176 -0.38979,-0.57744 -0.86618,-0.57744 -0.47638,0 -0.86615,0.40511 -0.86615,0.90024 0,0.49514 -0.25986,0.73964 -0.57746,0.54337 -0.31759,-0.1962 -0.57743,-0.10956 -0.57743,0.19293 0,0.61342 1.37076,1.25074 2.69014,1.25074 0.92306,0 4.23915,3.03713 4.23915,3.88255 0,1.12491 -1.48994,3.61546 -2.16541,3.6197 -0.39699,0.002 -0.7218,0.39426 -0.7218,0.87064 0,0.65443 -0.70576,0.86618 -2.88719,0.86618 h -2.88722 z M 85.851372,179.38524 c -0.47335,-0.20231 -1.6335,-1.14088 -2.57816,-2.08551 -1.67243,-1.67246 -1.71652,-1.86247 -1.67977,-7.23926 0.0247,-3.61579 0.26687,-5.59807 0.70147,-5.74294 0.36503,-0.12178 0.66368,-0.58935 0.66368,-1.03926 0,-0.44994 0.38979,-0.81806 0.86618,-0.81806 0.47638,0 0.86615,-0.25984 0.86615,-0.57743 0,-0.32639 1.64985,-0.57746 3.79461,-0.57746 4.06769,0 5.44447,0.71969 5.44447,2.84597 0,1.69867 -2.42737,1.62004 -3.18337,-0.10301 -0.68637,-1.56445 -4.32339,-2.24291 -4.32339,-0.80651 0,0.47006 -0.31333,0.95909 -0.69631,1.08674 -1.00376,0.33459 -0.77455,7.70056 0.3282,10.54681 0.49216,1.27037 0.91419,2.04992 0.93778,1.73233 0.0236,-0.31759 0.30777,-0.12266 0.63147,0.43308 0.72728,1.24865 1.34027,1.27384 2.51101,0.10302 1.2118,-1.21179 1.18612,-4.65364 -0.0399,-5.33971 -1.3971,-0.78185 -0.41286,-1.83838 1.70312,-1.82823 2.96096,0.0153 3.3693,0.57652 3.17338,4.36994 -0.14841,2.87347 -0.35631,3.43933 -1.33077,3.62225 -0.63519,0.11916 -1.31764,0.47485 -1.51655,0.79028 -0.43287,0.68645 -5.05418,1.14833 -6.27337,0.62698 z m 14.430478,-2.20027 c 0,-0.47638 -0.389768,-0.86615 -0.866148,-0.86615 -0.53099,0 -0.86618,-0.54003 -0.86618,-1.39548 0,-0.76753 -0.25569,-1.48211 -0.56822,-1.58798 -0.83158,-0.28167 -0.92892,-5.85281 -0.10716,-6.12675 0.37141,-0.12375 0.67527,-0.48187 0.67527,-0.79566 0,-1.41187 1.784688,-2.22041 4.901108,-2.22041 2.02045,0 3.11615,0.2186 2.89437,0.57744 -0.1962,0.31759 0.0482,0.57745 0.54337,0.57745 0.6153,0 0.90024,0.5483 0.90024,1.73233 0,1.15487 0.28872,1.73232 0.86615,1.73232 0.64249,0 0.86618,0.67569 0.86618,2.6166 0,1.79319 -0.27257,2.72121 -0.86618,2.949 -0.47639,0.18289 -0.86615,0.56442 -0.86615,0.84804 0,0.28361 -0.51971,1.03535 -1.15489,1.67054 -1.45352,1.45351 -6.35187,1.67617 -6.35187,0.28871 z m 4.50931,-5.45483 c 0.23426,-4.12836 -0.21963,-5.80527 -1.57131,-5.80527 -1.32671,0 -1.78551,1.09415 -1.77523,4.23368 0.0131,3.78253 0.53311,5.09266 1.94407,4.89132 1.04926,-0.14971 1.24945,-0.62363 1.40247,-3.31973 z m 10.50419,3.14507 c 0,-0.79398 -0.22665,-1.44361 -0.50365,-1.44361 -0.277,0 -0.66984,-1.03939 -0.87298,-2.30976 -0.20319,-1.27036 -0.62613,-2.30976 -0.93997,-2.30976 -0.31383,0 -0.57062,-0.77955 -0.57062,-1.73232 0,-1.15489 -0.28872,-1.73233 -0.86615,-1.73233 -0.54415,0 -0.86618,-0.54906 -0.86618,-1.47682 0,-1.37748 0.16281,-1.46487 2.42068,-1.29924 l 2.42065,0.17765 0.0506,2.84479 c 0.0299,1.6856 0.33774,2.94051 0.75526,3.07969 0.38758,0.1292 0.7047,0.60303 0.7047,1.05295 0,0.44991 0.25986,0.81805 0.57745,0.81805 0.55972,0 0.90088,-3.25512 0.68084,-6.49624 -0.0827,-1.21851 0.15015,-1.58796 1.00116,-1.58796 0.60993,0 1.21646,-0.3225 1.34784,-0.71665 0.17373,-0.52115 0.50188,-0.45365 1.20302,0.24749 1.07381,1.07381 1.27189,2.20149 0.38666,2.20149 -0.31759,0 -0.57743,0.53826 -0.57743,1.19614 0,0.65786 -0.38979,1.58588 -0.86618,2.06229 -0.50914,0.50912 -0.86615,1.92021 -0.86615,3.4234 0,1.40647 -0.25986,2.55723 -0.57745,2.55723 -0.3176,0 -0.57744,0.64963 -0.57744,1.44361 0,1.21906 -0.26947,1.44361 -1.73232,1.44361 -1.46286,0 -1.73233,-0.22455 -1.73233,-1.44361 z m 19.48867,0.2406 c -0.76279,-0.83543 -1.01053,-2.1078 -1.01053,-5.19011 0,-2.85969 -0.25955,-4.34289 -0.86617,-4.94948 -0.47639,-0.47641 -0.86615,-1.23739 -0.86615,-1.69108 0,-0.45371 0.38976,-0.82493 0.86615,-0.82493 0.54494,0 0.86617,-0.54963 0.86617,-1.48195 0,-1.27602 0.22067,-1.45657 1.58796,-1.29926 1.12185,0.1292 1.64077,0.55367 1.76784,1.44647 0.10934,0.76783 0.65801,1.33431 1.39836,1.44361 1.8227,0.26905 1.99141,1.62346 0.2021,1.62346 -1.47969,0 -1.49171,0.0373 -1.49171,4.61954 0,2.90003 0.23029,4.61952 0.61868,4.61952 0.34027,0 0.9899,0.37122 1.44361,0.82493 1.3842,1.3842 0.93134,2.06465 -1.34049,2.01417 -1.34965,-0.0299 -2.5461,-0.46506 -3.17593,-1.15489 z m -8.51728,-12.94431 c 0,-0.47639 -0.38977,-0.86618 -0.86616,-0.86618 -0.57743,0 -0.86617,-0.57743 -0.86617,-1.73232 0,-1.10959 0.29409,-1.73233 0.81805,-1.73233 0.44991,0 0.96962,-0.32481 1.15489,-0.7218 0.26947,-0.57744 0.40421,-0.57744 0.67368,0 0.18529,0.39699 0.70496,0.7218 1.15487,0.7218 1.15051,0 1.03595,2.61952 -0.17634,4.0355 -1.18073,1.37901 -1.89272,1.49009 -1.89272,0.29533 z M 98.549522,10.881718 c 0,-2.4380872 0.20123,-3.1759322 0.86618,-3.1759322 0.664928,0 0.866148,0.737845 0.866148,3.1759322 0,2.438087 -0.20122,3.17593 -0.866148,3.17593 -0.66493,0 -0.86618,-0.737843 -0.86618,-3.17593 z m 1.42297,-4.4962342 c -0.18224,-0.726175 -0.9018,-1.570684 -1.59898,-1.876686 -0.88687,-0.389272 -1.32506,-1.161888 -1.45891,-2.572382 -0.10519,-1.108802 -0.49502,-2.209182 -0.86617,-2.445289 -0.50075,-0.318545 -0.48863,-0.431566 0.0469,-0.438127 1.27853,-0.01571 0.78957,-2.989528 -0.7218,-4.390229 -1.17246,-1.086624 -1.44357,-1.885301 -1.44357,-4.252669 0,-2.2059538 0.21061,-2.9147838 0.86615,-2.9147838 0.62161,0 0.86618,0.63474 0.86618,2.24799 0,1.4655268 0.30148,2.3636778 0.86615,2.5803658 0.47639,0.182803 0.86617,0.860231 0.86617,1.505385 0,0.645152 0.25985,1.173005 0.57744,1.173005 0.32944,0 0.57743,1.719541 0.57743,4.003739 0,3.938461 0.026,4.006715 1.587978,4.186455 1.37864,0.158621 1.61159,0.468155 1.76718,2.348122 0.13597,1.643157 -0.0354,2.165406 -0.71081,2.165406 -0.4895,0 -1.03913,-0.594135 -1.221388,-1.320302 z"
       id="path4665"
       inkscape:connector-curvature="0" />
  </g>
</svg>
