<?xml version="1.0" encoding="UTF-8" standalone="no"?>
<!-- Created with Inkscape (http://www.inkscape.org/) -->

<svg
   xmlns:dc="http://purl.org/dc/elements/1.1/"
   xmlns:cc="http://creativecommons.org/ns#"
   xmlns:rdf="http://www.w3.org/1999/02/22-rdf-syntax-ns#"
   xmlns:svg="http://www.w3.org/2000/svg"
   xmlns="http://www.w3.org/2000/svg"
   xmlns:sodipodi="http://sodipodi.sourceforge.net/DTD/sodipodi-0.dtd"
   xmlns:inkscape="http://www.inkscape.org/namespaces/inkscape"
   width="210mm"
   height="203.90868mm"
   viewBox="0 0 210 203.90868"
   version="1.1"
   id="svg8"
   inkscape:version="0.92.3 (2405546, 2018-03-11)"
   sodipodi:docname="monarchists.svg">
  <defs
     id="defs2" />
  <sodipodi:namedview
     id="base"
     pagecolor="#ffffff"
     bordercolor="#666666"
     borderopacity="1.0"
     inkscape:pageopacity="0.0"
     inkscape:pageshadow="2"
     inkscape:zoom="0.49497475"
     inkscape:cx="411.73599"
     inkscape:cy="351.60521"
     inkscape:document-units="mm"
     inkscape:current-layer="layer1"
     showgrid="false"
     fit-margin-top="0"
     fit-margin-left="0"
     fit-margin-right="0"
     fit-margin-bottom="0"
     inkscape:window-width="1920"
     inkscape:window-height="1017"
     inkscape:window-x="-8"
     inkscape:window-y="-8"
     inkscape:window-maximized="1" />
  <metadata
     id="metadata5">
    <rdf:RDF>
      <cc:Work
         rdf:about="">
        <dc:format>image/svg+xml</dc:format>
        <dc:type
           rdf:resource="http://purl.org/dc/dcmitype/StillImage" />
        <dc:title></dc:title>
      </cc:Work>
    </rdf:RDF>
  </metadata>
  <g
     inkscape:label="Layer 1"
     inkscape:groupmode="layer"
     id="layer1"
     transform="translate(-356.47937,817.01595)">
    <path
       style="fill:#000000;stroke-width:0.74522299"
       d="m 438.32175,-613.61395 c -11.38669,-1.06856 -20.43634,-2.32448 -21.23884,-2.94756 -0.40987,-0.31822 -1.91894,-0.81034 -3.35352,-1.0936 -5.68562,-1.12264 -12.31588,-2.86462 -12.66877,-3.32851 -0.20504,-0.26926 -1.8817,-0.94789 -3.72612,-1.50778 -1.84442,-0.55988 -4.0973,-1.46871 -5.00635,-2.0196 -0.90905,-0.55093 -3.47345,-1.68286 -5.69864,-2.51542 -2.2268,-0.83314 -5.58809,-2.94995 -7.47613,-4.70821 l -3.43036,-3.19446 v -5.57863 c 0,-4.78032 0.26673,-5.93999 1.86307,-8.10386 1.75977,-2.38523 1.86306,-3.05651 1.86306,-12.10887 v -9.58367 l -4.51742,-5.24869 c -2.48457,-2.88675 -4.82372,-6.05435 -5.1981,-7.03908 -0.37438,-0.98471 -1.02437,-1.7904 -1.44438,-1.7904 -0.42001,0 -0.76366,-0.37091 -0.76366,-0.82427 0,-0.45336 -1.01082,-2.10053 -2.24623,-3.66039 -1.23544,-1.55985 -2.77924,-4.12323 -3.43072,-5.69641 -0.65145,-1.57318 -1.79935,-4.22089 -2.55087,-5.8838 -2.34558,-5.19013 -3.20427,-12.50155 -2.66123,-22.65953 0.53535,-10.01414 1.74592,-19.31088 2.67213,-20.52081 0.31374,-0.40987 0.99605,-2.08661 1.51622,-3.72612 0.5202,-1.63948 1.53158,-3.81927 2.24756,-4.84395 0.71595,-1.02467 1.79155,-3.03679 2.39018,-4.47133 1.41174,-3.3829 5.77359,-8.21307 11.37824,-12.59983 3.80398,-2.97736 8.08919,-5.34383 18.18411,-10.04201 2.5894,-1.20511 24.30236,-1.12104 25.52279,0.0989 0.51256,0.51236 1.69953,0.93153 2.63765,0.93153 3.24317,0 13.11532,3.13495 18.50765,5.87715 l 5.41261,2.75254 1.94244,-1.67082 c 1.40269,-1.20652 1.94243,-2.39329 1.94243,-4.27086 0,-1.43001 0.30954,-2.79135 0.6879,-3.02519 0.37832,-0.23377 0.91297,-1.44998 1.18809,-2.7026 0.27518,-1.25262 1.05546,-2.4837 1.73409,-2.73572 0.67863,-0.25209 2.1561,-1.13081 3.28325,-1.95286 1.74465,-1.27239 2.04935,-2.02775 2.04935,-5.08057 0,-3.52355 -0.0408,-3.58597 -2.34129,-3.58597 -3.56017,0 -6.60139,-3.53304 -6.60139,-7.66901 0,-4.10693 0.95818,-4.99979 5.36561,-4.99979 h 3.57707 v -4.45714 c 0,-5.11938 0.5438,-5.5077 7.12901,-5.09087 l 3.67672,0.23265 0.22083,4.19311 0.22082,4.19312 2.76014,0.45634 c 1.51809,0.25096 3.68236,0.46001 4.8095,0.46451 2.03811,0.008 2.04938,0.0366 2.04938,5.1825 0,4.50218 -0.21519,5.32502 -1.65627,6.3344 -0.91094,0.63807 -2.75538,1.1601 -4.09873,1.1601 h -2.44246 v 4.29462 c 0,3.70531 0.22504,4.39557 1.63976,5.03027 0.95654,0.4291 2.14771,2.13297 2.85876,4.08912 0.6704,1.84442 1.45375,3.87859 1.74073,4.52035 0.28701,0.64176 0.008,2.15083 -0.61844,3.35349 -0.62717,1.20268 -1.14235,2.76302 -1.14488,3.46742 -0.006,1.41807 0.60365,1.31363 5.76277,-0.98877 1.73747,-0.7754 3.50173,-1.40981 3.92052,-1.40981 0.41883,0 2.18306,-0.6414 3.92056,-1.42531 4.54406,-2.0502 7.76331,-2.91604 12.88844,-3.46638 3.98567,-0.42801 6.68399,-0.17913 17.47128,1.61213 1.43455,0.23829 2.72004,0.7382 2.85667,1.11112 0.1366,0.37289 0.81205,0.67798 1.50096,0.67798 2.13655,0 8.80013,2.71241 11.41207,4.64529 1.36855,1.01271 3.07512,2.04806 3.79239,2.30073 0.71728,0.25265 1.30414,0.80532 1.30414,1.22807 0,0.42271 0.42818,0.76859 0.9515,0.76859 1.49125,0 10.96285,9.92524 13.27983,13.91587 4.8204,8.30235 7.11144,13.81203 8.15803,19.61916 0.48015,2.66419 1.17224,5.42628 1.538,6.138 0.8714,1.69564 0.85442,7.68698 -0.0254,9.3355 -0.38029,0.71173 -1.06588,3.79618 -1.52349,6.85435 -0.63666,4.25465 -1.90587,7.73979 -5.40501,14.84174 -6.38006,12.94916 -14.70719,22.50625 -24.0701,27.62538 l -3.33541,1.8236 v 9.19464 c 0,7.23059 0.25856,9.58929 1.21043,11.042 0.88345,1.3483 1.20623,3.5747 1.19482,8.24151 l -0.0169,6.39417 -3.02907,2.91061 c -1.66601,1.60084 -3.32544,2.91061 -3.68762,2.91061 -0.36219,0 -1.26978,0.67544 -2.01688,1.50099 -0.88796,0.98116 -1.86345,1.34066 -2.81681,1.03808 -0.80214,-0.25462 -1.6681,-0.14477 -1.92433,0.24392 -0.25631,0.38883 -3.31636,1.44671 -6.80029,2.35086 -3.4839,0.90413 -7.00508,1.94162 -7.82483,2.30549 -0.81974,0.36388 -5.51465,1.21779 -10.43313,1.8976 -10.45338,1.44477 -45.91589,2.10923 -57.00954,1.06819 z m 33.40798,-1.44815 c 7.92262,-0.37151 14.7973,-0.99629 15.27707,-1.38836 0.47975,-0.39209 3.5551,-0.95262 6.83407,-1.24563 8.6222,-0.77048 18.22176,-2.38445 19.24799,-3.23615 0.48732,-0.40444 3.157,-1.26203 5.93264,-1.90574 5.59777,-1.29822 8.81964,-3.30555 10.86232,-6.76765 1.86889,-3.16753 2.42063,-6.33716 1.10312,-6.33716 -1.7266,0 -6.96453,1.81789 -6.96453,2.41712 0,0.31008 -0.63446,0.56377 -1.40993,0.56377 -2.14821,0 -16.64639,2.92807 -18.33848,3.70365 -0.81974,0.37573 -5.51466,1.40776 -10.43313,2.29338 -4.91847,0.88559 -9.61337,1.91823 -10.43311,2.29473 -2.28411,1.04907 -41.28792,1.21848 -41.94458,0.18223 -0.29324,-0.46274 -2.37757,-1.07332 -4.63186,-1.35683 -8.15983,-1.02631 -17.54496,-2.69903 -19.00319,-3.38693 -0.81975,-0.38671 -5.09443,-1.38072 -9.49932,-2.20891 -4.40487,-0.82819 -8.59674,-1.81312 -9.31529,-2.18874 -0.71851,-0.37565 -3.48617,-1.26797 -6.15036,-1.98297 -2.66416,-0.71499 -6.01767,-2.05301 -7.45222,-2.97333 -3.25009,-2.08509 -7.99053,-3.77426 -8.674,-3.09079 -0.28267,0.28268 0.40291,2.27527 1.52358,4.42797 1.79048,3.43939 2.64117,4.20604 7.01596,6.32262 2.73812,1.32476 6.31981,2.93864 7.95929,3.58637 1.63951,0.64776 4.04488,1.66322 5.3453,2.25662 1.30042,0.59343 4.82158,1.60366 7.82485,2.24499 3.00322,0.64134 6.13113,1.47356 6.95087,1.84938 2.1112,0.96786 10.37646,2.73361 15.64968,3.34326 2.45925,0.28431 4.86006,0.82667 5.33513,1.20522 0.47507,0.37855 4.33161,0.88497 8.57007,1.12537 4.23846,0.24026 7.84601,0.55997 8.01678,0.7102 0.44803,0.3941 4.57256,0.30335 20.80128,-0.45766 z m -25.21052,-11.93801 c 0,-0.42778 -1.98395,-0.70344 -4.65762,-0.64711 -3.99207,0.0839 -4.28494,0.1766 -2.04938,0.64711 3.94829,0.83109 6.707,0.83109 6.707,0 z m 21.50217,0.26645 4.58065,-0.47876 v -13.30786 c 0,-8.37508 0.2763,-13.30786 0.74521,-13.30786 0.40987,0 0.74524,-0.99966 0.74524,-2.22147 0,-2.96136 -1.03687,-3.14678 -13.68995,-2.44804 l -10.33647,0.57078 -0.30194,15.41963 -0.30193,15.41959 3.18615,0.28619 c 5.88228,0.52837 10.76079,0.54989 15.37304,0.0679 z m -2.84518,-12.29076 c -0.0141,-0.26025 0.4635,-1.60174 1.06225,-2.98088 0.59878,-1.37917 1.08991,-2.00451 1.09143,-1.38971 0.003,1.07394 -2.09958,5.34018 -2.15368,4.37059 z m 27.54685,10.20524 c 0,-0.18082 -0.33535,-0.53588 -0.74522,-0.78921 -0.4099,-0.25321 -0.74524,-0.10534 -0.74524,0.32864 0,0.43407 0.33534,0.78918 0.74524,0.78918 0.40987,0 0.74522,-0.14787 0.74522,-0.32861 z m -67.07007,-1.16181 c 0,-0.40987 -0.52282,-0.74524 -1.16181,-0.74524 -0.639,0 -0.95458,0.33537 -0.70125,0.74524 0.25321,0.40987 0.77614,0.74521 1.16181,0.74521 0.38568,0 0.70125,-0.33534 0.70125,-0.74521 z m 19.95245,-14.47691 c 0.15575,-10.18891 -0.0225,-13.50203 -0.74524,-13.96153 -0.52209,-0.33135 -2.81045,-0.60757 -5.08525,-0.61385 -2.27479,-0.006 -4.45455,-0.31444 -4.84394,-0.6848 -0.38937,-0.37035 -4.06147,-1.02774 -8.1602,-1.46085 -13.90987,-1.46984 -20.86218,-2.42573 -22.35669,-3.07389 -0.81974,-0.35554 -2.70466,-0.84526 -4.18872,-1.08836 -2.52527,-0.41358 -2.7264,-0.30137 -3.13667,1.74995 -0.2411,1.20556 -0.66908,6.56187 -0.95105,11.90291 -0.68725,13.01798 -0.89852,12.72161 10.62438,14.90335 4.85673,0.91958 9.50112,1.9844 10.32086,2.3663 2.28612,1.06501 20.39288,3.60963 24.59236,3.45607 l 3.72612,-0.13633 z m -17.9031,7.71022 c -1.09517,-0.6379 -1.30414,-1.87825 -1.30414,-7.74123 0,-3.83992 0.20364,-7.5121 0.45235,-8.16043 0.63024,-1.64238 9.3802,-1.68254 10.73569,-0.0493 0.98978,1.1926 0.7304,14.21021 -0.3169,15.90481 -0.64919,1.05042 -7.78365,1.08481 -9.567,0.0462 z m 5.40287,-2.11388 c 0,-0.78561 0.35148,-1.54552 0.78107,-1.68872 0.42959,-0.14308 0.97953,-2.18322 1.22209,-4.53344 l 0.44102,-4.27308 h -2.33991 c -2.15038,0 -2.33994,0.19913 -2.33994,2.45925 0,1.35258 -0.38821,2.84743 -0.86269,3.32192 -0.65342,0.65342 -0.63306,1.13934 0.0839,2.00327 0.78299,0.94344 0.72082,1.22724 -0.35968,1.64187 -1.23318,0.47322 -1.22992,0.55718 0.0586,1.49928 1.93564,1.41539 3.31561,1.23628 3.31561,-0.43035 z m 3.72612,-4.28505 c 0,-1.91272 -0.12139,-3.33797 -0.27011,-3.1672 -0.65302,0.75079 -1.01157,6.6449 -0.40423,6.6449 0.37086,0 0.67432,-1.56495 0.67432,-3.4777 z m -8.28562,-2.29777 c -0.0727,-3.52663 -0.18871,-3.88935 -0.65705,-2.04936 -0.84529,3.32192 -0.84529,6.3344 0,6.3344 0.42063,0 0.70682,-1.86638 0.65705,-4.28504 z m 6.04996,-6.14809 c 0,-0.40987 -0.50305,-0.74521 -1.11785,-0.74521 -0.61481,0 -1.11782,0.33534 -1.11782,0.74521 0,0.40987 0.50301,0.74522 1.11782,0.74522 0.6148,0 1.11785,-0.33535 1.11785,-0.74522 z m -30.72684,10.90353 c -3.28828,-0.78614 -6.75424,-3.73054 -5.08642,-4.32107 0.38533,-0.13632 0.93229,-2.93086 1.21544,-6.20985 0.28315,-3.27896 0.8078,-6.33392 1.16587,-6.78874 0.47629,-0.60498 1.80022,-0.59425 4.93163,0.04 l 4.28057,0.86689 -0.19857,4.80403 c -0.34994,8.46955 -0.98229,12.63334 -1.90447,12.54034 -0.48285,-0.0487 -2.46469,-0.46786 -4.40411,-0.93153 z m 4.62034,-8.85415 c 0.0141,-2.8725 -0.29597,-5.03026 -0.72153,-5.03026 -0.40987,0 -0.74893,1.59289 -0.75344,3.53981 -0.006,1.94688 -0.21237,4.8812 -0.462,6.52069 -0.42956,2.82152 -0.39052,2.9012 0.72972,1.49045 0.81025,-1.02036 1.19099,-3.07701 1.20725,-6.52069 z m -3.70244,0.5589 c 0,-2.99291 -0.278,-4.09873 -1.0309,-4.09873 -1.17415,0 -1.92494,2.23536 -1.93982,5.7755 -0.008,1.92855 0.29349,2.42196 1.48029,2.42196 1.30977,0 1.49043,-0.49682 1.49043,-4.09873 z m 0.74524,-6.70701 c 0,-0.6148 -0.50304,-1.11782 -1.11785,-1.11782 -1.1637,0 -1.47848,0.88137 -0.621,1.73885 0.85745,0.85748 1.73885,0.5427 1.73885,-0.62103 z m 106.88491,23.1704 c 5.31581,-1.03357 7.00357,-3.16001 1.82028,-2.29341 -1.79087,0.29941 -3.43387,0.82293 -3.65109,1.16334 -0.21716,0.34041 -1.81757,0.84641 -3.55631,1.12444 -1.73877,0.278 -3.33831,0.7918 -3.55454,1.14165 -0.389,0.62942 0.3349,0.53746 8.94166,-1.13602 z m -25.33188,-0.0684 c 5.71134,-0.60607 10.57393,-1.38993 10.80574,-1.74195 0.23181,-0.35199 1.93055,-0.86802 3.77499,-1.14675 1.84442,-0.27884 4.94641,-1.02729 6.8933,-1.66347 2.99127,-0.97745 3.53983,-1.45027 3.53983,-3.05113 0,-1.52493 -0.20026,-1.72818 -1.02698,-1.04211 -0.56481,0.46876 -2.81211,0.92902 -4.99399,1.02279 -3.81645,0.16392 -3.99294,0.0856 -4.64985,-2.06521 -0.37556,-1.22961 -0.97877,-2.81797 -1.34042,-3.5297 -0.92429,-1.81892 -0.81731,-5.14991 0.23716,-7.38431 0.96054,-2.03544 3.39529,-3.37152 6.83885,-3.75294 2.9728,-0.32926 4.93523,3.34986 4.93523,9.25247 0,2.36763 0.33456,4.29666 0.74522,4.29666 0.4584,0 0.74521,-3.7094 0.74521,-9.6377 0,-8.96873 -0.10309,-9.67037 -1.48378,-10.1086 -0.81608,-0.25913 -1.74434,-0.30988 -2.06284,-0.11295 -0.31847,0.19688 -5.77092,0.9286 -12.11653,1.62616 -6.34561,0.69756 -11.8481,1.55622 -12.22772,1.90816 -0.38888,0.36052 -1.13472,0.27095 -1.70834,-0.20505 -0.75998,-0.63075 -1.2368,-0.62624 -1.88078,0.0169 -0.47448,0.47448 -1.78186,0.86269 -2.90532,0.86269 -1.12345,0 -2.23986,0.31909 -2.48088,0.70908 -0.71859,1.16269 -1.34816,26.86487 -0.65784,26.85619 0.34951,-0.006 5.3084,-0.50386 11.01974,-1.10993 z m -5.78871,-5.34068 c -0.62464,-0.62466 -0.64663,-8.63519 -0.0361,-13.09086 l 0.4609,-3.36259 4.94197,-0.39948 c 6.86482,-0.55492 7.11363,-0.24898 6.52682,8.02177 -0.40919,5.76722 -0.71372,6.90219 -2.14863,8.00725 -1.6648,1.28211 -8.69273,1.8763 -9.74512,0.82391 z m 7.9801,-6.30336 c 0.25631,-1.28084 0.46578,-3.6283 0.46578,-5.21655 0,-2.36166 -0.26363,-2.88774 -1.44648,-2.88774 -1.8518,0 -2.78049,1.46556 -1.44982,2.28795 0.81296,0.50245 0.83239,0.81926 0.0955,1.55616 -0.97488,0.97488 -1.27524,5.24542 -0.42849,6.0922 1.13782,1.13782 2.32726,0.34932 2.76352,-1.83202 z m -4.00555,-5.49601 c 0,-0.61481 -0.32484,-1.11785 -0.72187,-1.11785 -0.397,0 -0.52878,0.50304 -0.29287,1.11785 0.23603,0.6148 0.56076,1.11782 0.72184,1.11782 0.16111,0 0.2929,-0.50302 0.2929,-1.11782 z m -73.03186,16.97553 c -1.02468,-0.18392 -2.18165,-0.64117 -2.57101,-1.01634 -0.91297,-0.87964 -1.90033,-0.87525 -1.90033,0.008 0,0.81332 1.86117,1.37825 4.47134,1.35718 l 1.86306,-0.0141 -1.86306,-0.33422 z m 112.52865,-6.05913 c 3.31096,-2.42145 3.90355,-4.78801 4.1838,-16.70847 l 0.26194,-11.1426 -1.66396,0.46629 c -0.91516,0.25631 -3.08921,0.67499 -4.83116,0.93009 -1.74197,0.25518 -3.1672,0.75358 -3.1672,1.10774 0,0.35416 -0.46856,0.64393 -1.04123,0.64393 -0.83791,0 -1.10092,2.43759 -1.34681,12.48248 -0.18759,7.66856 -0.0169,12.8665 0.4406,13.47826 0.94237,1.25766 4.60352,0.61492 7.164,-1.25772 z m -133.10393,-13.17312 c 0.28394,-6.36457 0.34159,-11.85453 0.12815,-12.19992 -0.21349,-0.34538 -1.4097,-0.83228 -2.65835,-1.082 -1.24862,-0.24983 -3.11526,-1.29909 -4.14811,-2.33194 -2.32509,-2.32509 -2.55535,-2.33039 -2.55535,-0.0589 0,1.0005 -0.33534,2.02633 -0.74521,2.27966 -1.211,0.74842 -0.93379,16.2337 0.33438,18.67808 1.08754,2.09622 6.57688,6.28688 8.23521,6.28688 0.63342,0 1.04312,-3.36422 1.40928,-11.57196 z m 118.93651,6.91433 c -0.0141,-5.87149 -0.7945,-8.75638 -2.3654,-8.75638 -1.30687,0 -1.40494,0.4535 -1.11148,5.14022 0.35024,5.59358 0.77315,6.78333 2.41122,6.78333 0.76784,0 1.07152,-0.90257 1.06566,-3.16717 z m -4.822,0.88819 c 0.76141,-2.39898 -0.36185,-8.89936 -1.53778,-8.89936 -0.91035,0 -1.02847,2.98483 -0.39077,9.87421 0.10872,1.17454 1.46375,0.48958 1.92855,-0.97485 z m -39.84225,-17.25737 8.52024,-0.21209 1.31298,-7.82485 c 0.72212,-4.30367 1.63444,-8.49554 2.02735,-9.31528 2.38245,-4.9705 3.5466,-54.62854 1.60293,-68.37421 -0.5651,-3.99626 -1.27347,-7.26593 -1.57417,-7.26593 -0.3007,0 -0.75369,-1.76059 -1.00665,-3.91241 -0.74732,-6.35705 -2.59166,-11.61283 -4.41813,-12.59033 -0.96767,-0.51789 -5.21481,-0.90565 -10.34348,-0.94435 -8.24289,-0.0622 -8.80393,0.0301 -10.64181,1.75279 -1.06709,1.00012 -2.30682,3.17991 -2.75491,4.84395 -0.44812,1.66404 -1.07878,3.69621 -1.40145,4.51595 -0.85813,2.17999 -2.11039,8.98028 -2.67599,14.53186 -0.27152,2.66416 -0.74282,5.17929 -1.04751,5.58916 -0.98454,1.32439 -1.54071,12.24868 -1.57451,30.92676 -0.0332,18.32415 0.40835,26.66286 1.55862,29.4363 0.74031,1.78501 2.99975,13.79389 2.99975,15.94362 0,1.89388 2.09408,3.05958 5.49621,3.05958 1.43731,0 2.83062,0.35162 3.09623,0.78141 0.32759,0.53005 0.77583,0.53833 1.39348,0.0254 0.50079,-0.41565 4.74466,-0.85112 9.43082,-0.96773 z m -11.90568,-36.04484 c 0.0358,-0.86816 0.21237,-1.04473 0.45023,-0.45023 0.21519,0.53794 0.18872,1.18069 -0.0589,1.42832 -0.24758,0.24758 -0.42376,-0.19265 -0.39142,-0.97809 z m 0.80405,-4.03662 c 0,-1.02468 0.16928,-1.44387 0.37591,-0.93153 0.20673,0.51233 0.20673,1.35072 0,1.86306 -0.20674,0.51234 -0.37591,0.0932 -0.37591,-0.93153 z m 0.62757,-3.72613 c 0,-0.81974 0.27462,-1.49045 0.61052,-1.49045 0.33577,0 1.06608,-1.67303 1.6229,-3.71785 0.55683,-2.04481 1.1617,-3.56856 1.34413,-3.38613 0.53763,0.53763 -2.24843,10.08489 -2.94292,10.08489 -0.34906,0 -0.63463,-0.67072 -0.63463,-1.49046 z m -5.90296,-1.92517 c 0.0358,-0.86813 0.21238,-1.0447 0.45024,-0.45023 0.21518,0.53797 0.18871,1.18072 -0.0589,1.42835 -0.24758,0.24758 -0.42376,-0.19265 -0.39142,-0.97812 z m 1.10662,-4.02566 c 0.28625,-1.42855 0.92657,-3.273 1.42288,-4.09873 0.49634,-0.82577 1.34498,-2.9283 1.88585,-4.67228 0.54087,-1.744 1.13131,-3.02299 1.31211,-2.84219 0.42144,0.42144 -2.6483,9.67521 -4.06375,12.2502 -1.07732,1.95986 -1.07743,1.95972 -0.55709,-0.637 z m -0.68889,-10.44406 c 0.25209,-1.84445 1.03541,-4.35958 1.74052,-5.58919 0.70507,-1.22961 1.88976,-4.24776 2.63263,-6.70701 0.74285,-2.45922 2.07603,-5.64506 2.96258,-7.07961 0.88655,-1.43455 1.82839,-3.19514 2.09298,-3.91241 0.26448,-0.71728 0.9108,-1.29901 1.43601,-1.29273 0.61985,0.008 0.68069,0.20364 0.1735,0.55892 -0.42984,0.30112 -1.20986,2.05656 -1.73341,3.90101 -0.52355,1.84441 -1.56315,4.69489 -2.31023,6.3344 -0.7471,1.63948 -2.03864,4.8253 -2.8701,7.07961 -0.83149,2.25429 -2.2028,5.44013 -3.04736,7.07961 l -1.53557,2.98089 z m -5.11867,59.01233 c 0.20589,-0.61782 -1.06014,-0.88494 -4.19447,-0.88494 -2.46919,0 -4.69672,-0.33535 -4.95004,-0.74524 -0.25322,-0.40987 -3.54277,-0.75105 -7.3099,-0.75815 -3.76714,-0.008 -9.19679,-0.51293 -12.06588,-1.12404 -2.86912,-0.61109 -7.49075,-1.32509 -10.27033,-1.5867 -2.77958,-0.26166 -5.23067,-0.76183 -5.44684,-1.11162 -0.53555,-0.86653 -4.03124,-0.80997 -4.03124,0.0653 0,1.14717 1.02949,1.47877 7.18185,2.31318 3.22274,0.43711 6.37524,1.0698 7.00557,1.40599 1.28585,0.68587 12.75808,2.07095 24.56416,2.9657 8.90966,0.67522 9.11615,0.66353 9.51712,-0.53938 z m 56.80773,-0.968 c 3.8938,-0.42303 7.3982,-1.08042 7.78757,-1.46088 0.38939,-0.38047 1.4595,-0.69173 2.37799,-0.69173 1.58855,0 3.036,-1.20609 2.314,-1.9281 -0.18618,-0.18618 -1.98035,-0.0254 -3.98706,0.35827 -6.4494,1.23158 -16.17627,2.3556 -21.38671,2.47136 -2.78817,0.062 -5.23925,0.38745 -5.44686,0.72339 -0.20759,0.3359 -1.69908,0.61075 -3.31437,0.61075 -1.7117,0 -2.93692,0.35649 -2.93692,0.85458 0,0.93038 11.39844,0.49578 24.59236,-0.93764 z m -113.05995,-4.9472 c -0.26645,-0.71728 -2.24789,-3.39538 -4.40312,-5.95135 -2.18646,-2.59301 -5.45354,-7.86352 -7.39107,-11.92356 -1.90987,-4.00201 -3.92261,-8.13344 -4.47277,-9.18096 -1.46998,-2.79881 -3.32279,-15.39942 -3.32279,-22.59773 0,-5.95526 2.16221,-19.02148 3.61785,-21.86257 0.37461,-0.73116 1.97387,-3.9959 3.55389,-7.25495 3.20866,-6.61845 9.27126,-13.71378 13.38613,-15.66644 1.46663,-0.69595 3.82924,-2.05436 5.25027,-3.01868 1.42099,-0.96434 3.82473,-2.13261 5.34158,-2.59616 1.51687,-0.46359 3.42863,-1.13537 4.24837,-1.49291 3.71472,-1.62022 12.12734,-2.24232 20.97648,-1.55121 4.97908,0.38883 9.67397,1.03214 10.4331,1.42956 0.75913,0.39739 2.88931,1.33746 4.73373,2.08901 1.84445,0.75155 3.76204,1.87588 4.26136,2.49849 0.78797,0.98256 0.90551,0.93527 0.89027,-0.35844 -0.0254,-2.14174 -3.73108,-4.76632 -8.68961,-6.15411 -2.35776,-0.65987 -4.45533,-1.44272 -4.66126,-1.73961 -0.20589,-0.2969 -3.03,-1.08836 -6.27575,-1.75877 -10.55087,-2.17936 -25.78077,-1.19463 -32.84666,2.12374 -1.22961,0.57746 -3.07403,1.43384 -4.09873,1.90306 -6.567,3.00705 -14.81082,9.38893 -14.95393,11.57647 -0.0282,0.41592 -1.18579,2.2653 -2.57459,4.10971 -2.67613,3.55406 -8.62164,15.05231 -9.98,19.30072 -0.44547,1.39325 -0.80994,4.47545 -0.80994,6.84933 0,2.37388 -0.33537,4.52341 -0.74524,4.77671 -0.92395,0.57104 -1.0042,16.5195 -0.0859,17.08699 0.36258,0.2242 0.88843,1.93578 1.16857,3.8038 0.27997,1.86799 1.61202,5.47715 2.95976,8.0203 1.34774,2.54319 2.70933,5.46233 3.02578,6.487 0.9457,3.06243 9.27154,12.7164 15.26409,17.69907 5.88662,4.8945 6.99556,5.49429 6.20022,3.35349 z m 141.64993,-0.56352 c 1.17398,-0.61227 2.81977,-1.11323 3.65725,-1.11323 2.09918,0 8.62212,-5.18095 14.47046,-11.49344 4.6084,-4.97409 8.2741,-11.36891 11.35337,-19.80592 0.52361,-1.43458 1.23767,-3.27899 1.58684,-4.09873 1.4419,-3.38498 2.18567,-7.74997 2.15872,-12.6688 -0.0453,-8.28588 -1.15292,-15.94534 -2.52485,-17.46132 -0.67973,-0.75107 -1.55977,-2.5387 -1.95567,-3.97252 -0.69798,-2.52789 -3.55896,-6.7873 -6.64414,-9.89172 -0.82898,-0.83416 -1.50724,-1.92517 -1.50724,-2.42444 0,-1.02913 -9.61165,-10.59077 -10.64618,-10.59077 -0.37018,0 -2.92233,-1.50908 -5.6714,-3.35349 -2.74908,-1.84442 -5.36183,-3.35352 -5.80615,-3.35352 -0.44429,0 -1.75113,-0.48938 -2.90408,-1.08754 -1.15291,-0.59813 -4.55437,-1.48409 -7.55874,-1.96874 -3.00437,-0.48465 -5.64036,-1.169 -5.85775,-1.52074 -0.55194,-0.89305 -6.82513,-0.80329 -7.38693,0.10562 -0.25321,0.40988 -1.69835,0.74632 -3.21117,0.74761 -3.54989,0.003 -16.02955,2.18111 -16.52789,2.88456 -0.21012,0.29653 -1.80172,0.95381 -3.53699,1.46065 -4.86028,1.41959 -6.24173,6.0957 -1.79549,6.07747 2.22023,-0.008 8.82618,-1.88311 10.0859,-2.86126 2.90393,-2.25476 20.10801,-3.12717 27.65444,-1.40235 8.33759,1.90568 16.02232,6.79393 23.29261,14.81639 6.20439,6.84629 8.37294,10.58633 10.73769,18.51897 0.42765,1.43458 1.04273,2.94365 1.36687,3.35352 0.32413,0.40987 0.98992,3.85873 1.47952,7.66411 0.68103,5.29308 0.68751,8.4422 0.0282,13.40148 -0.47448,3.56541 -1.11613,6.65592 -1.42587,6.86772 -0.30977,0.21181 -1.00085,1.977 -1.53575,3.92256 -0.54729,1.9906 -2.73347,5.90095 -4.9997,8.94267 -3.70413,4.97174 -16.00604,17.09246 -20.38454,20.08435 l -1.85137,1.26504 1.86306,0.0344 c 1.02468,0.0197 2.8236,-0.46646 3.99761,-1.07873 z m 5.65729,-15.52277 c 5.40788,-5.52356 8.93462,-10.18282 7.70768,-10.18282 -1.82174,0 -15.12487,13.92711 -15.12644,15.83597 -10e-4,1.45514 1.81225,0.0732 7.41876,-5.65315 z m -153.33438,-3.73505 c -1.88318,-2.06208 -3.55685,-5.43284 -4.21486,-8.48858 -0.28586,-1.32741 -0.82926,-2.60476 -1.20762,-2.83856 -0.94136,-0.58183 -0.88694,-11.51555 0.0575,-11.51555 1.05766,0 0.92559,-4.94793 -0.17913,-6.71712 -0.73584,-1.17823 -0.73584,-1.78239 0,-2.96066 0.50845,-0.81419 0.92446,-2.34529 0.92446,-3.4025 0,-2.54969 1.10582,-4.58369 4.37315,-8.04393 2.79406,-2.95902 9.30525,-7.56941 13.0211,-9.21985 1.16446,-0.51721 2.28741,-1.59123 2.49541,-2.38672 0.20815,-0.79549 0.84822,-1.62673 1.42263,-1.84712 0.57442,-0.22054 1.0444,-0.77569 1.0444,-1.2339 0,-1.56794 4.72384,-7.41276 7.3462,-9.08947 5.15115,-3.29364 7.21971,-4.21235 9.56365,-4.24765 1.30788,-0.0197 2.58526,-0.37114 2.83856,-0.78101 0.58503,-0.9466 9.65322,-0.97829 11.37477,-0.0397 2.74415,1.49603 10.88444,3.81974 11.94945,3.41106 0.92189,-0.35377 0.81802,-0.7495 -0.59031,-2.2486 -1.6628,-1.76997 -5.87974,-3.47055 -11.18296,-4.50981 -1.43455,-0.2811 -3.0211,-0.84354 -3.52572,-1.24986 -0.5046,-0.4063 -4.38324,-0.91562 -8.61925,-1.1318 -5.92104,-0.30219 -8.29354,-0.13294 -10.2609,0.7324 -1.4075,0.61903 -5.03338,1.8338 -8.05753,2.69945 -8.95287,2.56276 -15.70813,9.23042 -21.62046,21.3401 -3.8035,7.79032 -4.36726,9.75222 -5.34068,18.58595 -1.57926,14.33149 1.50209,29.37856 7.75881,37.88841 1.53222,2.08397 1.60917,2.10633 1.84656,0.53673 0.13632,-0.9008 -0.4114,-2.35957 -1.21697,-3.24167 z m 118.67735,-20.58404 c 2.93098,-1.81143 10.80033,-3.72333 15.38603,-3.73806 4.08183,-0.0141 7.51148,-1.57096 9.22884,-4.19196 0.68834,-1.05059 1.13798,-2.02375 0.99915,-2.16256 -0.32207,-0.32207 -6.47323,1.11878 -8.43676,1.97627 -0.81974,0.35796 -2.9995,0.96783 -4.84394,1.35528 -5.82125,1.22277 -10.79219,2.5444 -11.17834,2.97196 -0.20505,0.22701 -1.01085,0.76403 -1.79091,1.19353 -1.34604,0.74113 -3.13283,4.06301 -2.18544,4.06301 0.24588,0 1.51543,-0.66037 2.82137,-1.46747 z m -85.2909,-2.24147 c 0,-2.2286 -3.03673,-3.76989 -9.07683,-4.60693 -2.99536,-0.41508 -5.61577,-1.0129 -5.82316,-1.32847 -0.2073,-0.3156 -1.65843,-0.80949 -3.22457,-1.0976 -1.56614,-0.28808 -3.41055,-0.7222 -4.09873,-0.96468 -0.68818,-0.24251 -0.0955,0.78321 1.31695,2.27935 2.49575,2.64357 2.72038,2.72027 7.96715,2.72027 2.96948,0 5.60628,0.33534 5.85958,0.74521 0.25321,0.4099 1.22719,0.74524 2.16416,0.74524 0.93696,0 2.31056,0.67069 3.05242,1.49043 1.67638,1.85241 1.86303,1.85413 1.86303,0.0169 z m 133.3836,-10.45028 c -0.512,-3.8938 -1.18694,-7.41499 -1.49986,-7.82486 -0.31293,-0.40987 -1.31065,-3.26034 -2.21717,-6.3344 -0.90652,-3.07403 -2.11526,-5.85732 -2.68604,-6.18512 -0.57081,-0.32777 -1.03783,-1.0476 -1.03783,-1.59965 0,-1.2168 -10.2365,-11.58971 -11.44175,-11.59422 -0.46992,-0.002 -2.36351,-1.00636 -4.20793,-2.23246 -1.84442,-1.22611 -3.7911,-2.23073 -4.32592,-2.23248 -0.53484,-10e-4 -2.53535,-0.71519 -4.44559,-1.5854 -3.12788,-1.42492 -4.44965,-1.5491 -13.2951,-1.24911 -7.71622,0.26167 -10.07922,0.59042 -11.02211,1.53333 -1.10348,1.10345 -0.70428,1.20299 4.95222,1.23488 3.38382,0.0197 7.32392,0.37641 8.75579,0.79411 1.43184,0.4177 4.93656,0.75943 7.78827,0.75943 h 5.18492 l 4.23672,4.35668 c 3.40306,3.49941 4.33986,5.0024 4.76085,7.63854 0.56371,3.52952 2.6834,7.24089 7.22205,12.64511 1.57118,1.8708 2.8567,3.7184 2.8567,4.10577 0,0.38737 0.67069,1.12317 1.49043,1.63512 0.81974,0.51194 1.49045,1.27138 1.49045,1.68767 0,0.41626 1.1321,2.40266 2.51581,4.41422 1.38371,2.01155 2.7551,4.93776 3.04758,6.50274 0.29247,1.56496 0.92094,3.32074 1.3966,3.90174 1.37067,1.67424 1.55164,-2.22871 0.48091,-10.37164 z m -32.06998,-11.15869 c 0.74563,-0.39905 1.56948,-1.57729 1.83075,-2.6183 0.39511,-1.57419 0.78577,-1.81473 2.32141,-1.42931 1.66838,0.41874 1.84636,0.23998 1.84636,-1.85306 0,-2.66962 -2.11743,-3.3022 -2.76497,-0.82599 -0.25405,0.97135 -1.0165,1.49042 -2.1893,1.49042 -1.82735,0 -2.02541,0.27462 -2.82254,3.91244 -0.49056,2.23883 -0.25659,2.41289 1.77829,1.3238 z m -47.06081,-59.98952 c 0.12928,-2.99437 0.6028,-5.43667 1.11785,-5.76407 0.49152,-0.31244 2.48659,-0.57323 4.43351,-0.57951 3.17398,-0.0113 3.53868,-0.18477 3.52882,-1.68815 -0.006,-0.92221 -0.43776,-2.51514 -0.95933,-3.53981 -0.81932,-1.6096 -1.45148,-1.86306 -4.64667,-1.86306 h -3.6983 l -0.37261,-4.09873 -0.37263,-4.09874 -3.53981,-0.22701 -3.5398,-0.22702 v 4.51215 c 0,4.44534 -0.031,4.51218 -2.0871,4.51218 -1.1479,0 -3.0026,0.41919 -4.12154,0.93153 -1.72683,0.79067 -2.00282,1.32588 -1.82532,3.53981 0.20786,2.59408 0.23068,2.60951 4.16038,2.83487 4.28925,0.24589 4.40101,0.3681 4.9085,5.36259 0.18731,1.84441 0.36656,3.60501 0.39813,3.91241 0.0316,0.3074 0.72809,0.55893 1.54783,0.55893 0.81977,0 1.49045,0.35866 1.49045,0.79703 0,0.43838 0.75454,0.6899 1.67675,0.55893 1.53003,-0.21716 1.69637,-0.69288 1.90089,-5.43411 z"
       id="path396"
       inkscape:connector-curvature="0" />
  </g>
</svg>
