<?xml version="1.0" encoding="UTF-8" standalone="no"?>
<!-- Created with Inkscape (http://www.inkscape.org/) -->

<svg
   xmlns:dc="http://purl.org/dc/elements/1.1/"
   xmlns:cc="http://creativecommons.org/ns#"
   xmlns:rdf="http://www.w3.org/1999/02/22-rdf-syntax-ns#"
   xmlns:svg="http://www.w3.org/2000/svg"
   xmlns="http://www.w3.org/2000/svg"
   xmlns:sodipodi="http://sodipodi.sourceforge.net/DTD/sodipodi-0.dtd"
   xmlns:inkscape="http://www.inkscape.org/namespaces/inkscape"
   width="209.99998mm"
   height="197.68417mm"
   viewBox="0 0 209.99998 197.68417"
   version="1.1"
   id="svg8"
   inkscape:version="0.92.3 (2405546, 2018-03-11)"
   sodipodi:docname="money.svg">
  <defs
     id="defs2" />
  <sodipodi:namedview
     id="base"
     pagecolor="#ffffff"
     bordercolor="#666666"
     borderopacity="1.0"
     inkscape:pageopacity="0.0"
     inkscape:pageshadow="2"
     inkscape:zoom="0.7"
     inkscape:cx="407.56692"
     inkscape:cy="401.76693"
     inkscape:document-units="mm"
     inkscape:current-layer="g21"
     showgrid="false"
     inkscape:window-width="1920"
     inkscape:window-height="1017"
     inkscape:window-x="-8"
     inkscape:window-y="-8"
     inkscape:window-maximized="1"
     fit-margin-top="0"
     fit-margin-left="0"
     fit-margin-right="0"
     fit-margin-bottom="0" />
  <metadata
     id="metadata5">
    <rdf:RDF>
      <cc:Work
         rdf:about="">
        <dc:format>image/svg+xml</dc:format>
        <dc:type
           rdf:resource="http://purl.org/dc/dcmitype/StillImage" />
        <dc:title></dc:title>
      </cc:Work>
    </rdf:RDF>
  </metadata>
  <g
     inkscape:label="Layer 1"
     inkscape:groupmode="layer"
     id="layer1"
     transform="translate(-1.9231936e-5,-68.032166)">
    <g
       id="g21"
       transform="translate(118.89756,67.317726)"
       style="fill:#000000">
      <path
         style="fill:#000000;stroke-width:0.62500781"
         d="m -117.01199,197.07399 c -0.54556,-1.17999 -0.75164,-5.34916 -0.69316,-14.02315 0.0543,-8.04924 -0.13916,-12.3439 -0.55595,-12.3439 -0.84282,0 -0.85131,-12.03802 -0.009,-12.88025 0.56664,-0.56663 1.72593,-22.22415 2.11859,-39.57869 0.12605,-5.57071 0.31459,-6.61801 1.29397,-7.18759 0.63054,-0.36669 4.32501,-3.12769 8.20994,-6.13555 3.88493,-3.00783 7.216426,-5.468809 7.403323,-5.468809 0.1869,0 2.2993,-1.398183 4.694223,-3.10707 2.394925,-1.708911 5.348993,-3.522658 6.564594,-4.030562 1.215611,-0.507904 3.150928,-1.641021 4.30071,-2.518012 1.149787,-0.87698 2.415538,-1.594508 2.812781,-1.594508 0.39725,0 0.722265,-0.288217 0.722265,-0.640473 0,-0.352256 0.751155,-0.926074 1.669235,-1.275122 0.918073,-0.349053 2.994843,-1.607732 4.615038,-2.797065 1.620202,-1.189333 3.138989,-2.162427 3.375087,-2.162427 0.236106,0 2.278985,-1.335955 4.539749,-2.968788 2.26076,-1.632833 5.184679,-3.531294 6.4976,-4.218801 1.312922,-0.68751 6.826198,-4.225192 12.25173,-7.861511 5.42553,-3.636327 10.286477,-6.770272 10.80211,-6.964332 0.515631,-0.194058 2.818373,-1.766484 5.117207,-3.494286 2.298829,-1.727804 6.067089,-4.042227 8.373898,-5.143172 4.786492,-2.284377 8.02035,-2.286083 12.422619,-0.0066 1.3617601,0.705141 2.9601421,1.282067 3.5519501,1.282067 0.942726,0 4.009626,-3.324022 5.847267,-6.337485 0.34375504,-0.563707 2.242217,-3.132212 4.218804,-5.707782 1.976586,-2.575572 3.593795,-4.845216 3.593795,-5.043656 0,-0.198427 1.10232,-1.485382 2.449599,-2.859874 1.3472719,-1.374494 2.6102379,-3.003064 2.8065779,-3.619045 0.196349,-0.615983 1.625309,-2.664867 3.175478,-4.553076 1.550169,-1.888212 2.818486,-3.786674 2.818486,-4.218804 0,-0.432112 0.266221,-0.785675 0.5916,-0.785675 0.325379,0 1.578908,-1.47658 2.785622,-3.281289 1.206715,-1.80471 4.174909,-5.527624 6.595989,-8.2731429 2.42108,-2.745518 4.401967,-5.347115 4.401967,-5.781322 0,-1.57213599 2.262111,-0.72810199 5.841874,2.179709 2.009888,1.632618 4.499718,3.439219 5.532962,4.014669 1.033239,0.575452 2.287581,1.630154 2.787422,2.3437799 0.499851,0.713627 1.23221,1.297505 1.627478,1.297505 0.395268,0 2.322485,1.125014 4.282703,2.50003 1.960224,1.375017 3.870906,2.500031 4.24596,2.500031 0.375054,0 0.681915,0.260654 0.681915,0.579232 0,0.318578 0.80281,0.979727 1.784028,1.469222 0.981218,0.489495 4.0445,2.760122 6.807291,5.045839 2.762798,2.285716 5.267374,4.155848 5.565726,4.155848 0.298348,0 0.893749,0.562507 1.323104,1.250016 0.429355,0.687507 1.178566,1.250014 1.66491,1.250014 0.486342,0 1.679294,0.655969 2.650984,1.457707 0.9717,0.801737 2.75112,1.997063 3.95426,2.656282 1.20314,0.659217 2.41244,1.550146 2.68734,1.979839 0.27489,0.429692 0.87328,0.781259 1.32974,0.781259 0.45645,0 1.20396,0.450693 1.66113,1.001538 0.45716,0.550847 -1.12561,-0.05263 -3.51727,-1.341071 -2.39166,-1.288439 -5.19223,-2.766297 -6.22349,-3.284134 -1.03127,-0.517838 -3.646339,-2.164381 -5.811273,-3.65899 -2.164933,-1.494607 -4.147797,-2.717467 -4.406367,-2.717467 -0.258566,0 -2.156434,-1.335955 -4.217491,-2.968788 -7.9666,-6.311394 -8.980851,-7.054536 -10.375911,-7.602397 -0.791611,-0.31088 -2.966669,-1.715835 -4.833467,-3.122125 -1.866793,-1.406293 -3.715891,-2.556894 -4.109101,-2.556894 -0.393211,0 -2.514313,-1.5582669 -4.71356,-3.4628139 -4.266146,-3.694487 -6.373804,-4.223696 -6.73349,-1.690705 -0.132049,0.929905 0.186758,1.53167 0.937512,1.769618 3.581444,1.135122 4.094033,1.51992 3.299665,2.477072 -0.94966,1.1442729 -0.248396,2.0557009 0.785892,1.0214129 0.406774,-0.406774 1.239816,-0.739592 1.851205,-0.739592 0.951142,0 1.011462,0.219806 0.417842,1.522664 -0.896723,1.968093 -0.295816,3.4774 1.384474,3.4774 0.802515,0 1.457518,0.494711 1.655034,1.250014 0.179789,0.687509 0.575338,1.250016 0.878997,1.250016 0.30366,0 0.552113,0.297852 0.552113,0.661894 0,0.364041 -0.281253,0.48807 -0.625007,0.275618 -0.343755,-0.212459 -0.625007,-0.125789 -0.625007,0.192569 0,0.600206 4.48713,3.843934 6.406329,4.631109 0.601569,0.246737 1.093765,0.73893 1.093765,1.093761 0,0.354832 0.315847,0.64515 0.701888,0.64515 0.904438,0 8.849711,5.656921 8.473575,6.033062 -0.156403,0.156403 -1.230171,-0.292237 -2.386142,-0.996984 -1.155971,-0.704746 -2.324042,-1.282409 -2.595713,-1.283695 -0.804405,-0.0038 4.009394,4.938213 5.168401,5.30607 0.584639,0.185554 1.434207,1.031014 1.887923,1.878794 0.453712,0.847777 4.893714,5.400294 9.866649,10.116703 l 9.041715,8.575281 1.20646,-1.533198 c 0.66355,-0.843261 1.89366,-2.335567 2.73357,-3.316242 0.83992,-0.98067 1.52712,-1.936094 1.52712,-2.123157 0,-0.187065 1.01097,-1.573872 2.24661,-3.081797 1.83354,-2.237596 2.10675,-2.91019 1.48599,-3.658168 -0.48048,-0.57893 -0.51775,-0.916483 -0.1012,-0.916483 0.91504,0 1.48628,2.081256 0.96222,3.505747 -0.58069,1.578443 -6.5638,9.543304 -8.59896,11.447135 -0.89085,0.833372 -1.62256,2.099013 -1.62601,2.812535 -0.006,1.333736 7.14456,8.484911 8.4847,8.484911 0.98753,0 2.77172,2.094626 2.77172,3.253978 0,0.532407 -0.42832,1.323491 -0.95182,1.75796 -0.7966,0.661114 -0.88711,0.621332 -0.55509,-0.243933 0.54069,-1.409 -0.68229,-2.720141 -3.90786,-4.18956 -1.49069,-0.679083 -2.71033,-1.517981 -2.71033,-1.864223 0,-0.346235 -0.56219,-0.837492 -1.24931,-1.091669 -0.68709,-0.2542 -7.788742,-6.955057 -15.781423,-14.890814 C 49.916557,33.146453 39.340813,23.205042 38.43942,23.205042 c -0.322774,0 -4.966456,4.359428 -10.319291,9.687619 -5.35283,5.328192 -9.96445,9.687623 -10.248036,9.687623 -0.283591,0 -2.618182,2.109402 -5.187981,4.687558 -2.569809,2.578157 -4.8353499,4.687559 -5.0345449,4.687559 -0.802473,0 -12.131529,10.466205 -28.0270691,25.892471 -9.235209,8.96256 -18.235322,17.372103 -20.000251,18.687867 -5.04955,3.764431 -9.146545,8.037271 -9.146545,9.539081 0,2.36991 1.601594,3.11822 4.111832,1.92116 1.197221,-0.57091 2.338815,-1.46034 2.536874,-1.97646 0.198074,-0.51615 0.735886,-0.93845 1.195154,-0.93845 0.862985,0 6.72109,-4.78983 14.343917,-11.728205 2.40628,-2.190217 5.281133,-4.806805 6.388572,-5.814628 1.107435,-1.007831 2.245684,-1.832416 2.529438,-1.832416 0.283761,0 1.583189,-1.092975 2.887619,-2.428835 1.671933,-1.712216 2.124277,-2.530782 1.533111,-2.774343 -0.970923,-0.400023 9.6339781,-10.967261 13.38034314,-13.332821 1.28908,-0.81396 2.34377996,-1.737036 2.34377996,-2.05127 0,-0.314236 0.383724,-0.662278 0.852724,-0.773421 0.468993,-0.111143 6.586257,-5.713104 13.5939189,-12.4488 7.007658,-6.735691 13.917611,-13.290478 15.355456,-14.566189 1.591012,-1.41161 2.781271,-3.100926 3.040956,-4.315988 0.234688,-1.098083 0.709915,-2.348083 1.05607,-2.777775 0.869617,-1.079499 2.351328,-0.981036 2.351328,0.156261 0,0.52084 -0.555562,0.937512 -1.250014,0.937512 -1.041682,0 -1.250016,0.416672 -1.250016,2.500031 0,3.748934 1.924779,2.997014 2.119252,-0.82789 0.09147,-1.798839 2.255801,-2.24782 2.255801,-0.467954 0,1.588437 2.762624,1.832456 3.609683,0.31884 0.494475,-0.88357 0.625759,-0.881817 1.372813,0.01843 0.699183,0.842467 0.619987,1.214667 -0.515707,2.423553 -0.737959,0.78553 -1.341749,1.778271 -1.341749,2.206095 0,0.427824 -0.279029,0.605415 -0.620058,0.394647 -0.341028,-0.210759 -1.114476,-0.06739 -1.718771,0.31862 -0.971424,0.620526 -0.93586,0.667447 0.30693,0.405005 1.625,-0.34315 2.494992,0.622747 1.477436,1.640303 -0.892193,0.89219 -0.896411,2.747668 -0.0076,3.297046 0.378422,0.233885 1.281559,-0.168286 2.006968,-0.893683 1.032544,-1.032547 1.154566,-1.483273 0.561964,-2.075873 -1.009324,-1.009323 -0.957388,-1.756966 0.122033,-1.756966 0.575364,0 0.785173,-0.485772 0.607377,-1.406268 -0.251821,-1.303765 -0.223136,-1.295351 0.393586,0.115442 0.365861,0.836944 0.503156,1.944003 0.305097,2.460132 -0.232845,0.606797 1.250028,2.600679 4.19624,5.642277 2.505988,2.587126 3.911411,4.167747 3.123176,3.512489 -1.412054,-1.173827 -1.426374,-1.173485 -0.972241,0.02362 0.420886,1.109445 4.228451,5.715091 11.248922,13.606732 1.475992,1.659153 2.972867,2.83788 3.326385,2.619397 1.059757,-0.654965 0.728903,-2.551809 -0.665146,-3.813405 -0.719353,-0.651001 -1.587932,-1.749296 -1.930187,-2.440649 -0.342247,-0.691359 0.557195,-0.05275 1.998755,1.41908 2.309743,2.358261 2.575221,2.9203 2.235297,4.732254 -0.440367,2.347348 0.06749,3.212183 1.290312,2.197327 0.972199,-0.806885 1.138937,-3.668127 0.213758,-3.668127 -0.343754,0 -0.625009,-0.47407 -0.625009,-1.053483 0,-0.579414 -0.632819,-1.760472 -1.406266,-2.624575 l -1.406228,-1.5711 1.769266,1.109551 c 0.973094,0.610253 2.136589,0.968594 2.585539,0.796316 0.552713,-0.212105 0.714677,0.07528 0.501618,0.890019 -0.368667,1.409798 0.778649,1.643045 1.307173,0.26574 0.518227,-1.350485 1.446857,-1.153014 1.851323,0.39368 0.232538,0.889211 0.671764,1.206996 1.322914,0.95713 0.57819,-0.221861 0.9748,-0.03999 0.9748,0.446963 0,0.45156 0.5625,1.330085 1.25001,1.952274 1.60367,1.451293 1.62307,2.431093 0.0284,1.435225 -1.60688,-1.00352 -1.80025,-0.720772 -2.02265,2.957581 -0.10332,1.709008 -0.57627,3.410804 -1.05098,3.781776 -1.300697,1.016446 0.0648,3.086772 3.40858,5.16799 2.78187,1.731485 2.79139,1.749478 1.53046,2.890605 -1.76443,1.596795 -1.63095,2.100766 1.36498,5.153396 l 2.6338,2.683663 -1.54004,1.053498 c -2.15656,1.475239 -10.602663,9.667214 -10.602663,10.283634 0,0.65472 8.213793,6.73041 9.137583,6.75901 0.38499,0.0118 0.83992,1.26328 1.01097,2.7808 0.43934,3.89786 -0.22276,26.23902 -0.78879,26.61624 -0.52732,0.35141 -1.69404,23.41992 -2.21273,43.75054 -0.29412,11.52825 -0.49321,13.57944 -1.40116,14.43535 -1.39033,1.31064 -19.284711,2.4473 -31.996201,2.03237 -18.581909,-0.60652 -78.377032,-1.29674 -94.063678,-1.0858 -8.937613,0.12024 -27.26239,0.3147 -40.721735,0.43222 -21.232367,0.18544 -24.675407,0.34723 -26.011767,1.22284 -1.48486,0.97291 -1.56814,0.94883 -2.3166,-0.67005 z m 39.674733,-1.9081 c 11.687648,-0.24853 42.906788,-0.37132 69.3758681,-0.27286 85.8785199,0.31942 80.9385139,0.3862 80.9385139,-1.09437 0,-0.28869 -2.742221,-1.84326 -6.093825,-3.45461 -10.808842,-5.19656 -20.270148,-10.10079 -20.758798,-10.76023 -0.184372,-0.24884 -1.882112,-1.14963 -3.772759,-2.00181 -1.89065,-0.85215 -3.578171,-1.69296 -3.750047,-1.86846 -0.171876,-0.17551 -1.578145,-0.96676 -3.12504,-1.7584 -3.12492,-1.5992 -8.086207,-4.27347 -14.687683,-7.91705 -2.406281,-1.32812 -8.875113,-4.72047 -14.3751809,-7.5386 -5.50006796,-2.81812 -10.843886,-5.582 -11.875148,-6.14197 -1.031264,-0.55996 -2.235415,-1.01987 -2.675896,-1.02197 -0.440488,-0.002 -0.962769,-0.42575 -1.160634,-0.94137 -0.197861,-0.51563 -0.7447541,-0.9375 -1.2152971,-0.9375 -0.470543,0 -1.776409,-0.56148 -2.901917,-1.24769 -3.967774,-2.41916 -6.522287,-1.70681 -15.120239,4.21647 -2.61964,1.8047 -5.000881,3.28128 -5.291648,3.28128 -0.29076,0 -1.301397,0.60783 -2.245847,1.35075 -1.662519,1.30774 -5.117008,3.28625 -10.951543,6.2724 -1.546895,0.7917 -2.906287,1.65039 -3.02087,1.90821 -0.114592,0.25781 -0.469217,0.46876 -0.788072,0.46876 -0.672769,0 -6.352679,2.57507 -6.816191,3.09023 -0.442993,0.49233 -4.800441,2.73691 -24.687808,12.7169 -9.625122,4.83013 -18.370532,9.43708 -19.434242,10.23764 -1.06371,0.80056 -2.18872,1.46494 -2.50003,1.47637 -0.60929,0.0213 -3.37854,2.18776 -3.37854,2.6418 0,0.15119 2.03908,0.15615 4.5313,0.0118 2.49222,-0.14481 14.093928,-0.46673 25.781573,-0.71526 z m -36.854883,-0.74195 c 0.22378,-0.36206 1.85758,-1.35597 3.63068,-2.20869 1.77311,-0.85272 5.05071,-2.51975 7.28356,-3.70448 2.23285,-1.18475 4.90476,-2.47458 5.937574,-2.86629 1.032814,-0.3917 3.28411,-1.34869 5.002881,-2.12665 1.718774,-0.77797 4.390681,-1.93181 5.937576,-2.56413 1.546895,-0.6323 2.953161,-1.31584 3.125039,-1.51896 0.171877,-0.20316 2.140652,-1.03433 4.375054,-1.84708 2.234405,-0.81275 4.733304,-1.99028 5.553108,-2.61672 0.819804,-0.62642 1.952549,-1.13898 2.517213,-1.13898 0.564661,0 1.722064,-0.49141 2.571994,-1.09206 0.849936,-0.60064 7.859786,-4.27517 15.577444,-8.16565 7.717654,-3.89046 15.224184,-7.87807 16.681166,-8.86138 1.456986,-0.98333 3.439517,-2.33455 4.405631,-3.00275 0.966104,-0.66821 3.795647,-2.52332 6.287866,-4.12248 3.839634,-2.46376 4.531306,-3.17257 4.531306,-4.64361 0,-1.6855 -0.177593,-1.77609 -6.100239,-3.11177 -3.355131,-0.75664 -6.673921,-1.37572 -7.375091,-1.37572 -0.701173,0 -1.542045,-0.25221 -1.868613,-0.56048 -0.326567,-0.30827 -2.977825,-1.17047 -5.891686,-1.91601 -2.913861,-0.74557 -5.653327,-1.65049 -6.0877,-2.01099 -0.43437,-0.36051 -2.793148,-1.03719 -5.241734,-1.50373 -2.448581,-0.46657 -4.77168,-1.10723 -5.162441,-1.4237 -0.390761,-0.31647 -2.960505,-1.19855 -5.710541,-1.9602 -2.750032,-0.76163 -5.315421,-1.64013 -5.700869,-1.95218 -0.385444,-0.31205 -2.916724,-1.138 -5.625071,-1.83545 -2.708339,-0.69743 -5.768023,-1.64797 -6.799285,-2.11229 -1.031264,-0.4643 -3.984425,-1.18655 -6.562582,-1.60497 -2.578157,-0.41842 -5.812573,-1.25836 -7.187591,-1.8665 -1.375017,-0.60816 -4.750059,-1.61962 -7.500089,-2.24771 -2.75004,-0.6281 -5.14069,-1.33008 -5.31257,-1.55997 -0.17188,-0.22985 -1.47897,-0.61293 -2.90465,-0.85116 -2.727,-0.45568 -4.10941,0.39109 -2.79096,1.70955 0.84435,0.84435 0.96347,15.5379 0.13306,16.41448 -0.73566,0.77658 -1.44474,22.82222 -1.35594,42.15678 0.0387,8.42198 0.0643,16.08613 0.0569,17.03145 -0.0135,1.72793 0.81229,2.28586 1.56963,1.06048 z m 190.919311,-7.74241 c 0,-3.58913 0.24335,-6.6761 0.54079,-6.85993 0.48121,-0.29741 0.85209,-6.40267 1.67373,-27.55239 0.13354,-3.43755 0.38804,-9.90639 0.56554,-14.37519 0.1775,-4.4688 0.49798,-12.55483 0.71216,-17.96897 0.21418,-5.41412 0.22975,-9.84386 0.0346,-9.84386 -0.69375,0 -7.638609,2.63696 -10.714387,4.06824 -7.025169,3.26912 -10.154352,4.53516 -13.125164,5.3104 -1.718771,0.44849 -3.406292,1.01054 -3.750047,1.24901 -0.343752,0.23849 -2.734409,1.07396 -5.312566,1.85667 -2.578157,0.78268 -5.250066,1.65467 -5.937575,1.93776 -0.687507,0.28309 -3.078164,0.96124 -5.312566,1.50701 -2.234402,0.54577 -5.046937,1.49482 -6.250077,2.10898 -1.20314,0.61413 -4.015676,1.61837 -6.25008,2.2316 -2.234402,0.61326 -4.343804,1.33573 -4.687559,1.60554 -0.343752,0.26979 -2.442384,0.95213 -4.663631,1.51627 -2.221242,0.56418 -4.190016,1.25969 -4.3750559,1.54564 -0.309685,0.47854 -5.354966,1.85343 -10.64905896,2.90196 -1.20314004,0.2383 -2.46878004,0.61113 -2.81253504,0.82853 -0.343752,0.21732 -3.296916,0.95776 -6.5625821,1.64527 -5.308959,1.11767 -5.959435,1.40435 -6.144051,2.70783 -0.286355,2.02179 1.263909,3.50581 5.412068,5.1808 1.9494851,0.78717 5.3726681,2.45479 7.6070701,3.7058 4.08606304,2.28775 20.4756239,10.37484 26.8753349,13.26109 4.432475,1.99902 13.612465,6.50344 15.625197,7.66691 0.859386,0.49678 2.604269,1.39819 3.877516,2.00313 8.366056,3.97479 22.452725,11.33173 24.497865,12.79431 1.340653,0.95878 2.787141,1.74324 3.214419,1.74324 0.427274,0 0.938757,0.42187 1.136627,0.9375 0.197861,0.51562 0.756024,0.93752 1.240355,0.93752 0.484329,0 1.230726,0.42187 1.658664,0.9375 1.535789,1.85053 1.875019,0.83951 1.875019,-5.58817 z m -92.17147,-47.45436 c 0.678058,-0.46989 2.920354,-1.33816 4.98288,-1.92942 2.0625261,-0.59127 4.5938091,-1.43376 5.6250701,-1.87219 1.031264,-0.43841 3.421919,-1.14484 5.31256604,-1.5698 1.89064996,-0.42499 4.56255896,-1.27967 5.93757496,-1.89931 1.375017,-0.61964 3.9818739,-1.49014 5.7930229,-1.93448 1.811142,-0.44431 3.194414,-1.10491 3.073938,-1.46796 -0.120474,-0.36306 -2.024201,-1.04546 -4.230497,-1.51644 -6.3173089,-1.34858 -14.3631859,-7.61901 -16.5446759,-12.89383 -0.568663,-1.37503 -1.567307,-3.67994 -2.219208,-5.12203 -0.651896,-1.4421 -1.159909,-3.12961 -1.128902,-3.75005 0.03099,-0.62042 0.320297,-0.21402 0.642877,0.90322 0.32258,1.1172 0.859723,2.03129 1.193646,2.03129 0.333928,0 0.611446,0.49219 0.616707,1.09376 0.005,0.60157 0.313048,1.51563 0.683973,2.03126 0.544986,0.75764 0.594456,0.69766 0.257802,-0.3125 -0.229137,-0.6875 -0.528944,-3.21878 -0.666259,-5.62507 -0.389841,-6.831462 -0.891424,-9.51907 -1.938723,-10.388254 -0.80208,-0.665654 -1.069126,-0.621008 -1.562946,0.261404 -0.327567,0.585338 -0.9331681,1.065911 -1.3457791,1.06799 -0.412612,0.0019 -3.703365,2.562505 -7.312785,5.68987 -3.609419,3.12736 -7.195402,5.93126 -7.968849,6.23086 -0.773448,0.2996 -1.406269,0.83992 -1.406269,1.20068 0,0.36078 -0.632819,0.92011 -1.406266,1.24298 -0.773448,0.32287 -2.742224,1.60852 -4.375057,2.85696 -5.387729,4.11941 -3.091338,1.66164 4.25338,-4.55229 3.972187,-3.36063 7.985881,-6.67274 8.919318,-7.36024 2.834253,-2.087535 15.1089071,-12.384928 15.1089071,-12.675081 0,-0.149294 -0.492193,-0.09047 -1.093762,0.130631 -0.601571,0.221105 0.171876,-0.721284 1.718771,-2.094002 1.546893,-1.372721 3.093788,-2.498909 3.437542,-2.502634 0.34375504,-0.0038 0.13280504,0.366855 -0.468754,0.823517 -1.723628,1.308416 -1.278392,1.626297 0.81509104,0.58192 1.049869,-0.523745 2.24253996,-1.486575 2.65037496,-2.139627 0.407837,-0.653046 1.095746,-1.187358 1.528689,-1.187358 0.432943,0 0.787165,-0.281254 0.787165,-0.625009 0,-0.909574 -0.681101,-0.767979 -1.985893,0.412843 -0.630745,0.570813 -1.29961596,0.885042 -1.48637396,0.698279 C 0.29266414,82.605726 17.35886,69.455782 18.41891,69.455782 c 0.206955,0 -0.159522,0.594407 -0.814359,1.320902 l -1.190635,1.320905 2.398906,-0.999544 c 1.319398,-0.549744 3.46927,-1.847286 4.777498,-2.883416 1.308229,-1.036138 2.67374,-1.883887 3.034475,-1.883887 0.360736,0 1.023395,-0.497661 1.472581,-1.10592 0.449181,-0.608256 2.012026,-2.038157 3.472981,-3.177557 1.460956,-1.139402 2.656282,-2.329262 2.656282,-2.644127 0,-1.280123 -1.84344,-0.400937 -5.679671,2.708803 -7.476367,6.060512 -9.320516,7.405965 -9.320516,6.800059 0,-0.830778 7.003408,-6.936549 7.968851,-6.947475 0.429692,-0.005 0.781259,-0.235939 0.781259,-0.51353 0,-0.277579 1.26564,-1.396799 2.812535,-2.48715 2.171146,-1.530364 2.814716,-2.377355 2.822105,-3.71411 0.005,-0.95241 0.295059,-2.153533 0.643994,-2.669164 0.470794,-0.695709 0.531539,-0.494569 0.235539,0.779859 -0.219381,0.944556 -0.22583,2.168384 -0.01441,2.719609 0.290553,0.757179 0.884574,0.260859 2.429431,-2.029875 1.124664,-1.667664 2.382166,-3.805559 2.794452,-4.750883 0.412288,-0.945326 1.036896,-1.718773 1.388018,-1.718773 0.859123,0 0.805161,0.41418 -0.267516,2.053263 -0.942087,1.439543 -0.977842,2.688603 -0.116458,4.06794 0.673204,1.078001 -0.577439,2.497142 -3.146664,3.570638 -2.280742,0.952956 -2.625864,1.816291 -1.073383,2.685109 0.822025,0.460024 0.678103,0.631368 -0.781259,0.930104 -0.983899,0.201404 -3.617058,1.926505 -5.85146,3.833549 -2.234404,1.907034 -4.346461,3.471235 -4.693466,3.475999 -0.347003,0.005 -0.982213,0.571163 -1.411568,1.258672 -0.429355,0.687507 -1.129826,1.250827 -1.556606,1.251821 -0.42678,0.0013 -3.166622,1.962776 -6.088533,4.359511 -2.921912,2.396742 -5.523507,4.364705 -5.781321,4.373254 -0.257816,0.0085 -0.9917319,0.507731 -1.6309219,1.109303 -0.63919,0.601568 -2.186082,1.879197 -3.437542,2.839178 -1.25146,0.959982 -2.27538,2.014681 -2.27538,2.343779 0,0.329099 1.406269,0.598365 3.12504,0.598365 1.718771,0 3.12504,0.246095 3.12504,0.546881 0,0.300783 0.773448,0.705198 1.7187709,0.898712 0.945324,0.193467 2.281278,0.814121 2.968788,1.379143 l 1.250014,1.02736 -1.250014,-0.434439 c -0.68751,-0.23894 -1.812524,-0.565613 -2.500033,-0.725914 -1.284233,-0.299484 -1.310516,-0.327052 4.297367,4.508548 0.988538,0.852412 1.981126,1.549838 2.205753,1.549838 0.826617,0 5.016188,4.505797 5.416386,5.825228 0.22727,0.7493 1.059157,2.22546 1.848618,3.28036 2.692709,3.59806 3.185209,7.68468 1.78374,14.80096 -0.369343,1.8754 -1.489188,2.36889 -1.489188,0.65625 0,-0.76907 -0.18879,-0.87372 -0.683621,-0.37888 -1.039426,1.03941 -0.402641,3.00391 0.973713,3.00391 0.918918,0 1.421831,-0.75272 2.08792,-3.12505 0.482587,-1.71876 1.129346,-3.61341 1.437237,-4.2103 0.758516,-1.47051 0.711378,-6.55988 -0.0652,-7.03984 -0.343753,-0.21236 -0.625007,-0.82598 -0.625007,-1.36341 0,-0.79772 0.172159,-0.83429 0.937511,-0.19913 1.093464,0.90747 1.361512,10.2893 0.312505,10.93761 -0.652241,0.40312 -0.88648,2.81255 -0.273429,2.81255 0.301809,0 7.614471,-6.07177 11.992324,-9.95734 1.44317,-1.28089 2.003782,-0.8903 0.65626,0.45721 -1.557346,1.55735 0.576744,0.67137 2.648638,-1.09959 1.19016,-1.0173 2.509007,-1.86107 2.930775,-1.87503 0.421767,-0.0142 1.227559,-0.72853 1.790654,-1.58794 0.563088,-0.85938 1.287021,-1.5625 1.608738,-1.5625 0.321718,0 2.816409,-1.6781 5.543758,-3.72914 2.727353,-2.051009 5.877135,-4.164405 6.999524,-4.696427 1.12239,-0.532023 1.489845,-0.611772 0.816566,-0.177168 -0.67327,0.43458 -1.931231,1.56361 -2.795459,2.508929 -0.86423,0.945319 -1.816655,1.718766 -2.116503,1.718766 -0.299841,0 -3.072475,2.12046 -6.161401,4.71211 -3.088926,2.59165 -6.78061,5.4745 -8.20374,6.40633 -1.42313,0.93183 -5.50303,4.01457 -9.066439,6.85053 -3.563407,2.83598 -6.752327,5.15633 -7.086488,5.15633 -0.33416,0 -0.433742,0.28125 -0.221295,0.625 0.47763,0.77283 2.812536,0.83172 2.812536,0.0709 0,-0.30475 0.773447,-0.70857 1.718771,-0.89739 4.269927,-0.85291 10.686396,-2.75073 12.968912,-3.83586 1.375016,-0.65371 3.802266,-2.501 5.393892,-4.10507 1.591627,-1.6041 3.279148,-3.06838 3.750047,-3.25398 1.059002,-0.41736 10.381056,-8.54989 17.096515,-14.914911 2.755467,-2.611686 5.502137,-4.923204 6.103707,-5.136702 0.60157,-0.213546 1.09376,-0.678269 1.09376,-1.032816 0,-0.354548 0.42188,-0.644642 0.93751,-0.644642 0.51563,0 0.93751,-0.338178 0.93751,-0.751498 2e-5,-0.965941 -3.77211,-4.873573 -4.70454,-4.873573 -0.39011,0 -1.08559,-0.703135 -1.54552,-1.562521 -0.459935,-0.859385 -1.079044,-1.562519 -1.375797,-1.562519 -0.742878,0 -7.056114,-6.715803 -16.4512,-17.500218 -4.342308,-4.98444 -9.279595,-10.500191 -10.971753,-12.257225 -1.692158,-1.75704 -3.076652,-3.4327 -3.076652,-3.723697 0,-0.290996 -1.036312,-1.590362 -2.302916,-2.887486 l -2.302916,-2.358396 -3.790909,3.584173 c -5.449481,5.152303 -9.479476,8.573272 -14.02737,11.907513 -2.192508,1.60742 -7.031781,5.383549 -10.753942,8.391398 -3.7221579,3.007849 -7.0310669,5.468818 -7.3531409,5.468818 -0.322072,0 -0.749096,0.4261 -0.948943,0.946892 -0.199845,0.520788 -1.00338,1.208061 -1.78563396,1.527265 -1.41393704,0.576969 -13.74343414,10.497011 -16.74172414,13.47002 -0.863096,0.855837 -1.77494,1.556051 -2.026324,1.556051 -0.251384,0 -3.201508,2.201189 -6.555838,4.891514 -3.354323,2.690325 -6.942536,5.425249 -7.9738,6.0776 -1.031264,0.65238 -4.125052,3.04289 -6.875087,5.31229 -2.750033,2.2694 -5.843823,4.66735 -6.875084,5.32878 -1.031264,0.66145 -2.532845,1.97605 -3.33685,2.92137 -0.80401,0.94532 -1.775002,1.71879 -2.157776,1.71879 -1.065958,0 -4.818136,3.86858 -4.816973,4.96641 5.62e-4,0.53414 1.055264,2.47996 2.34378,4.32407 1.85151,2.64988 2.932492,3.54854 5.155283,4.28589 1.546893,0.51315 3.170896,1.22413 3.608902,1.57996 0.437998,0.35584 0.968754,0.47459 1.179463,0.26388 0.210711,-0.21071 1.161402,0.17103 2.112653,0.84845 2.25127,1.60303 3.094725,1.55579 3.118113,-0.17481 0.01725,-1.27799 0.07852,-1.304 0.671397,-0.28512 0.406248,0.69816 1.075187,0.98696 1.773027,0.76548 0.724429,-0.22984 1.83628,0.31283 3.144753,1.53512 1.113257,1.03995 2.680895,1.89081 3.483643,1.89081 0.802742,0 1.633358,0.28124 1.84581,0.62502 0.394907,0.63896 3.437545,0.89609 3.437545,0.29051 0,-0.18402 -0.446125,-1.01536 -0.991388,-1.84755 -0.545258,-0.83217 -0.811904,-1.80343 -0.592545,-2.15838 0.243941,-0.3947 -0.0061,-0.48995 -0.643846,-0.24522 -0.890874,0.34186 -0.93998,0.20811 -0.337298,-0.91789 0.387961,-0.7249 1.167265,-1.57651 1.731784,-1.89244 0.623583,-0.34897 0.871424,-0.97827 0.631508,-1.60348 -0.935111,-2.43688 4.857004,-11.20068 6.087171,-9.21023 0.17901,0.28968 -0.353943,0.83625 -1.184372,1.21461 -2.193422,0.99939 -3.588858,3.41553 -3.099257,5.36624 0.224814,0.89578 0.631669,1.62871 0.904098,1.62871 0.787279,0 8.119276,-5.67203 8.119276,-6.28108 0,-0.30251 -0.586595,-0.86397 -1.303547,-1.24766 -1.97783,-1.05852 -0.949056,-1.44293 1.605388,-0.59989 3.425987,1.13068 5.4634001,3.26576 4.8077311,5.03822 -0.52744,1.42579 -0.542388,1.421 -1.7055781,-0.54814 -1.388836,-2.3511 -1.596209,-2.39412 -3.150871,-0.65344 -1.176797,1.31759 -1.175316,1.32831 0.127395,0.9234 0.816372,-0.25375 1.601826,-0.0678 2.063681,0.48877 0.611127,0.73638 0.147829,1.35566 -2.568044,3.4327 -2.532707,1.93699 -3.36341,2.30696 -3.524612,1.5698 -0.12671,-0.57938 -0.59502,-0.81707 -1.172984,-0.59528 -0.529138,0.20315 -1.323259,0.0694 -1.764716,-0.29696 -0.570638,-0.47358 -0.927161,-0.46467 -1.233384,0.0307 -0.561418,0.9084 1.560714,2.45292 2.745554,1.99826 0.506456,-0.19441 0.314928,0.24953 -0.428401,0.99288 -0.778422,0.7784 -1.755733,1.18647 -2.321589,0.96934 -0.537489,-0.20622 -0.916663,-0.12969 -0.842619,0.17032 0.07406,0.3 -0.237059,1.31054 -0.691338,2.2457 -1.010621,2.08035 -0.05776,3.61231 2.246872,3.61231 0.817297,0 1.485992,0.26062 1.485992,0.57917 0,0.52741 1.178589,1.03692 2.829718,1.22335 0.35321,0.0399 1.19697,-0.31198 1.875023,-0.78187 z m -30.532977,-10.18198 c -0.226184,-0.22631 -0.171215,-0.71841 0.122151,-1.09379 0.293373,-0.37538 0.733904,-1.51863 0.978955,-2.54056 0.430451,-1.79508 0.405236,-1.82156 -0.744295,-0.78126 -0.654415,0.59224 -1.549352,1.0768 -1.988758,1.0768 -0.453367,0 -0.643315,0.4055 -0.439154,0.9375 0.43883,1.14358 -1.059564,1.26337 -1.954531,0.15614 -0.347355,-0.42969 -0.823112,-2.20727 -1.05724,-3.95017 -0.341465,-2.542 -0.221672,-3.33824 0.605578,-4.02478 0.938199,-0.77864 0.992082,-0.63369 0.597126,1.60639 l -0.434118,2.46226 1.477337,-1.42398 c 1.027418,-0.9903 1.477337,-2.12431 1.477337,-3.72359 0,-2.08439 0.186947,-2.33795 1.997363,-2.70897 1.426261,-0.29228 2.093188,-0.15968 2.332522,0.46411 0.279098,0.72731 0.598416,0.70092 1.908938,-0.1578 0.86558,-0.56714 1.573775,-1.41349 1.573775,-1.88076 0,-0.46727 0.839456,-1.28368 1.865449,-1.81424 1.025994,-0.53056 4.761965,-3.31202 8.302153,-6.18102 3.540196,-2.86901 7.109303,-5.42984 7.931363,-5.690745 1.255402,-0.398462 1.138821,-0.16205 -0.728322,1.477415 -1.222634,1.07349 -2.512406,1.95179 -2.86616,1.95179 -0.353757,0 -1.353169,0.84377 -2.220923,1.87503 -0.867748,1.03125 -1.766947,1.87502 -1.998212,1.87502 -0.662578,0 -7.86835,5.90124 -10.285348,8.42326 -1.969988,2.05561 -2.078757,2.34383 -1.093764,2.89831 0.864998,0.48691 1.093764,1.4589 1.093764,4.64718 0,3.57397 -0.137671,4.03151 -1.213128,4.03151 -1.559925,0 -2.327953,1.22768 -1.210727,1.93533 0.58435,0.37011 0.141119,0.54863 -1.378274,0.55512 -1.23179,0.005 -2.424673,-0.17551 -2.650864,-0.40167 z m 3.327953,-9.27638 c 0.620753,-0.74795 0.620753,-1.12707 0,-1.87502 -1.204914,-1.45186 -1.875023,-1.1168 -1.875023,0.9375 0,2.05429 0.670109,2.38935 1.875023,0.93752 z m 32.228086,8.8794 c 0.234711,-0.6164 0.5841871,-0.96327 0.7766221,-0.77084 0.192427,0.19252 3.99e-4,0.69674 -0.4267421,1.12071 -0.617271,0.61267 -0.68906,0.54088 -0.34988,-0.34987 z m 1.3947171,-8.09814 c -0.129876,-0.85114 -0.578788,-1.32696 -1.1372341,-1.20538 -0.677125,0.14741 -0.738819,0.0142 -0.231806,-0.50336 0.8464931,-0.8629 3.9967021,-0.17694 3.9967021,0.87022 0,0.82232 -1.239823,2.24478 -1.956556,2.24478 -0.251098,0 -0.553089,-0.63282 -0.671097,-1.40626 z M 49.678222,103.79961 c 0.763897,-0.80387 1.509798,-1.33658 1.657558,-1.18379 0.147758,0.15284 -0.477251,0.81049 -1.388906,1.46157 l -1.657559,1.18381 z m -59.0445139,-2.15603 c 0.0069,-1.37501 0.134931,-1.863926 0.284427,-1.08647 0.149506,0.77744 0.143813,1.90245 -0.01252,2.50003 -0.156427,0.59755 -0.278755,-0.0385 -0.271817,-1.41356 z m 61.7181589,0.0565 c 0,-0.20481 1.15912,-1.4263 2.57582,-2.714496 2.786615,-2.533827 4.739358,-3.872387 4.070596,-2.790294 -0.568571,0.919972 -6.646416,5.95385 -6.646416,5.50479 z m -20.625258,-1.5057 c 0,-0.755344 1.185766,-1.636009 1.619208,-1.202562 0.157324,0.157324 -0.142656,0.641795 -0.66659,1.076632 -0.594,0.49298 -0.952618,0.54039 -0.952618,0.12591 z m -50.625634,-2.191795 c 0,-0.6863 8.252329,-6.733478 8.896068,-6.518893 0.4754191,0.158506 0.1688061,0.592354 -0.772627,1.093337 -0.858474,0.456832 -2.844601,1.910221 -4.41362,3.229765 -2.533992,2.131089 -3.709821,2.827027 -3.709821,2.195791 z m 40.270078,-1.984159 c -1.275696,-1.203133 -2.512337,-2.187523 -2.748088,-2.187523 -0.855862,0 -3.346356,-3.132677 -2.855117,-3.591341 0.277584,-0.259184 0.626075,-0.132285 0.77442,0.282158 0.148349,0.414359 1.640258,1.73799 3.315349,2.94143 1.675089,1.20344 3.353253,2.762893 3.729252,3.465445 0.969801,1.81207 0.439768,1.594366 -2.215816,-0.910169 z m 15.668122,-0.665843 c 5.195233,-4.850659 5.96055,-5.457104 6.370067,-5.047575 0.527782,0.527771 -1.665815,2.900895 -2.681446,2.900895 -0.442862,0 -1.221889,0.594881 -1.73117,1.321977 -0.509281,0.727119 -1.861181,1.866614 -3.004226,2.532244 -1.725777,1.004966 -1.548239,0.715356 1.046775,-1.707541 z m 5.312568,1.631973 c 0,-0.919003 1.801097,-2.00967 2.938761,-1.779565 0.871841,0.176222 0.668382,0.457423 -0.907488,1.253732 -1.1172,0.564527 -2.031273,0.801152 -2.031273,0.525833 z m 17.500218,-1.889244 c 0,-0.335815 0.773447,-1.102762 1.718771,-1.704328 0.945324,-0.601543 1.925405,-1.381482 2.177959,-1.733171 0.252553,-0.35169 0.463494,-0.406872 0.468757,-0.1226 0.01063,0.577141 -3.440037,4.170737 -4.004909,4.170737 -0.198309,0 -0.360578,-0.274775 -0.360578,-0.610614 z M 41.412155,93.834217 c 0.211301,-0.341886 1.001351,-0.945319 1.755652,-1.340946 1.361937,-0.714339 1.363194,-0.710017 0.180829,0.621646 -1.192834,1.343426 -2.658746,1.887945 -1.936481,0.7193 z M 26.486769,91.32902 c -1.243142,-1.376013 -2.253999,-2.852598 -2.246355,-3.281297 0.01323,-0.747694 1.049489,0.361635 3.796262,4.064378 1.859971,2.507299 1.055574,2.100877 -1.549907,-0.783081 z m 4.302328,0.626819 c -0.212459,-0.343752 -0.08842,-0.625 0.275616,-0.625 0.364042,0 0.661896,0.281248 0.661896,0.625 0,0.343753 -0.124017,0.625 -0.275616,0.625 -0.151585,0 -0.449444,-0.281247 -0.661896,-0.625 z M -9.2114029,90.080804 c 0.21246,-0.343752 0.650933,-0.625 0.974398,-0.625 0.323468,0 0.588121,0.281248 0.588121,0.625 0,0.343764 -0.43848,0.625012 -0.9744,0.625012 -0.535918,0 -0.800573,-0.281248 -0.588119,-0.625012 z m 79.4014179,-1.944426 -1.224585,-2.555101 -1.79771,2.2409 c -1.608351,2.004852 -1.89776,2.140846 -2.747571,1.291032 -0.543163,-0.543172 -1.456868,-0.788939 -2.134014,-0.574023 -1.357399,0.430825 -1.468375,0.104647 -0.494862,-1.454097 0.776371,-1.243177 -0.08218,-3.021167 -3.731473,-7.7276 l -2.104656,-2.714354 2.579425,2.638526 c 2.16911,2.218804 2.806391,2.552238 4.00617,2.096084 0.92651,-0.352254 1.936205,-0.269779 2.879861,0.235255 1.216265,0.65092 1.288353,0.840917 0.442274,1.16559 -0.555971,0.213357 -1.01085,0.989325 -1.01085,1.724395 0,0.961938 0.277071,1.230179 0.988631,0.95713 0.543744,-0.208656 1.265834,-0.379372 1.60464,-0.379372 0.338803,0 0.437473,-0.562507 0.219262,-1.250016 -0.65337,-2.058588 0.606433,-1.41655 2.30196,1.173151 1.672863,2.555076 2.740333,5.706875 1.928747,5.69478 -0.264364,-0.0047 -1.031724,-1.156987 -1.705252,-2.56228 z M 64.53952,82.58071 c 0.212459,-0.343755 0.08842,-0.625009 -0.275616,-0.625009 -0.364042,0 -0.661896,0.281254 -0.661896,0.625009 0,0.343752 0.124017,0.625007 0.275616,0.625007 0.151584,0 0.449443,-0.281255 0.661896,-0.625007 z m -30.000376,6.25007 c -0.212459,-0.343752 0.209436,-0.625 0.937512,-0.625 0.728083,0 1.149964,0.281248 0.937512,0.625 -0.21246,0.343753 -0.634334,0.625024 -0.937512,0.625024 -0.303179,0 -0.72506,-0.281271 -0.937512,-0.625024 z m 10.312629,0.389037 c 0,-0.129687 0.492193,-0.621976 1.093764,-1.093762 0.9913,-0.777435 1.013406,-0.755324 0.235987,0.235987 -0.816492,1.041084 -1.329741,1.372175 -1.329741,0.857775 z M 31.806948,86.799519 c 0.679457,-1.27516 0.652369,-1.326298 -0.290517,-0.54849 -0.63957,0.527608 -1.039839,0.596207 -1.039839,0.178254 0,-0.872281 2.346824,-2.142003 3.099391,-1.676891 0.763652,0.471963 5.65072,-4.357809 5.65072,-5.584468 0,-0.531644 0.536081,-0.962263 1.197934,-0.962263 0.658858,0 1.305741,-0.323442 1.437518,-0.71876 0.131766,-0.395315 0.647401,-0.571712 1.145845,-0.391998 0.624801,0.225286 -0.812054,2.00137 -4.626533,5.718823 -5.477244,5.337912 -8.162408,6.965799 -6.574519,3.985793 z m -5.080402,0.223231 c 0,-0.901426 2.094276,-2.829439 7.334399,-6.752107 3.979444,-2.978949 4.791797,-4.20789 1.619326,-2.449755 -0.971374,0.538318 -2.258329,1.159196 -2.859898,1.379718 -0.601571,0.220514 -1.093764,0.786709 -1.093764,1.258196 0,0.482536 -0.529207,0.792173 -1.210702,0.708366 -0.665883,-0.0819 -1.204373,0.100938 -1.196635,0.406248 0.01819,0.717965 -1.397967,1.610576 -2.57467,1.622826 -1.150608,0.01205 6.096596,-7.435605 10.304081,-10.58897 1.723996,-1.292078 3.833396,-2.52718 4.687558,-2.744664 0.854153,-0.21749 1.201447,-0.233955 0.771754,-0.03661 -0.429695,0.197341 -0.781262,1.038518 -0.781262,1.869255 0,1.527817 0.859138,2.02353 1.55517,0.897323 0.208396,-0.337216 1.161945,0.295603 2.118964,1.406268 1.871162,2.171551 2.852424,4.206908 2.028189,4.206908 -0.70636,0 -2.577283,-2.142315 -2.577283,-2.95113 0,-1.307624 -1.883667,-1.393205 -2.661895,-0.120946 -0.426606,0.697428 -1.710223,1.850192 -2.852481,2.561694 -1.142251,0.71151 -2.330623,1.961174 -2.640813,2.777043 -0.33628,0.884484 -1.072957,1.483386 -1.824641,1.483386 -0.693373,0 -2.012463,0.84376 -2.931318,1.875024 -0.918862,1.031261 -1.953587,1.875023 -2.299392,1.875023 -0.345805,0 -1.143071,0.465469 -1.771711,1.034361 -0.733965,0.66426 -1.142976,0.76534 -1.142976,0.282547 z m 9.375117,-11.041416 c 0,-0.53592 -0.281252,-0.800573 -0.625007,-0.588121 -0.343755,0.212459 -0.625007,0.650935 -0.625007,0.9744 0,0.323466 0.281252,0.588121 0.625007,0.588121 0.343755,0 0.625007,-0.43848 0.625007,-0.9744 z m 2.429062,9.863254 c 0.417281,-0.783071 1.044551,-1.247104 1.393924,-1.031174 0.349379,0.215931 0.546207,0.444017 0.4374,0.506862 -0.108804,0.06286 -0.736072,0.52688 -1.393923,1.031181 -1.127604,0.864406 -1.152648,0.835374 -0.437401,-0.506869 z m 8.248154,0.883424 c 0.143222,-0.125317 0.963556,-0.59324 1.822941,-1.039839 1.429268,-0.742739 1.48937,-0.723314 0.704735,0.227837 -0.471788,0.571914 -1.292112,1.039841 -1.822943,1.039841 -0.530832,0 -0.84796,-0.10252 -0.704733,-0.227837 z m 11.823065,-2.897193 c 0,-0.343755 0.281255,-0.625007 0.62501,-0.625007 0.343755,0 0.625007,0.281252 0.625007,0.625007 0,0.343754 -0.281252,0.625009 -0.625007,0.625009 -0.343755,0 -0.62501,-0.281255 -0.62501,-0.625009 z M 42.351743,81.330788 c 0,-0.343755 0.281252,-0.625007 0.625007,-0.625007 0.343754,0 0.625007,-0.532419 0.625007,-1.183146 0,-1.670291 1.507419,-2.049045 2.409056,-0.605297 0.608932,0.975057 0.578358,1.39035 -0.156475,2.125165 -1.034637,1.034638 -3.502605,1.237766 -3.502605,0.288285 z m 18.378348,-3.281292 -1.190635,-1.406267 1.406269,1.190635 c 1.32154,1.118901 1.690795,1.621901 1.190632,1.621901 -0.118608,0 -0.751422,-0.632822 -1.406266,-1.406269 z m -12.484843,-8.90636 c -3.650484,-3.936619 -6.565195,-6.562582 -7.284198,-6.562582 -0.659247,0 -1.620509,-0.421881 -2.13614,-0.937512 -0.826673,-0.826678 -0.827554,-0.937512 -0.0073,-0.937512 0.51154,0 1.071933,-0.351566 1.245316,-0.781259 0.252197,-0.625007 0.325112,-0.625007 0.364587,0 0.02712,0.429693 0.775916,0.781259 1.663946,0.781259 1.022,0 1.513451,-0.28674 1.338997,-0.781259 -0.151584,-0.429693 -0.73752,-0.742198 -1.302096,-0.694452 -1.404561,0.118773 -1.28768,-1.148707 0.291008,-3.155683 0.888018,-1.12894 1.212885,-2.222173 0.996582,-3.353692 -0.308165,-1.612072 -0.283367,-1.629578 0.624232,-0.44063 2.779781,3.64145 3.563251,8.675726 1.436737,9.231822 -0.687507,0.179789 -1.246327,0.704782 -1.241822,1.166657 0.0045,0.461874 2.395169,3.473798 5.312568,6.693171 2.917404,3.219371 5.304371,5.961592 5.304371,6.093826 0,0.679078 -1.015068,-0.292284 -6.606649,-6.322154 z M 45.362042,57.784944 c -0.226491,-1.913254 -1.574595,-2.665614 -2.139327,-1.193939 -0.533707,1.390805 0.154892,2.864511 1.338454,2.864511 0.715098,0 0.942486,-0.474325 0.800873,-1.670572 z m 8.247365,13.19227 c -2.066662,-2.600675 -3.75757,-4.863835 -3.75757,-5.029244 0,-0.491923 3.084005,1.903562 3.1054,2.412106 0.01087,0.256822 0.941105,1.522463 2.067338,2.812535 3.293292,3.772359 3.802861,4.533107 3.036413,4.533107 -0.381711,0 -2.384923,-2.127828 -4.451581,-4.728504 z m -7.220814,2.186891 c -0.226585,-0.366624 -0.277928,-0.800635 -0.114096,-0.964467 0.163821,-0.163845 0.464418,0.136135 0.667976,0.666589 0.422618,1.10133 0.06243,1.295053 -0.55388,0.297878 z M -16.60889,126.6859 c -0.206743,-0.53873 -0.806585,-0.97952 -1.333009,-0.97952 -1.157072,0 -1.185417,0.27641 -0.191506,1.86791 0.86911,1.39167 2.119788,0.66285 1.524524,-0.88839 z m 36.74796,0.64865 c 2.170714,-1.12619 1.630221,-1.38963 -3.98825,-1.94393 -2.713408,-0.26769 -5.436748,-0.94456 -6.5625819,-1.6311 -1.058439,-0.64543 -2.400592,-1.17457 -2.982569,-1.17585 -1.165028,-0.002 -8.294371,-6.33343 -9.346848,-8.29999 -0.481494,-0.89968 -0.459412,-1.36145 0.08107,-1.6955 0.557607,-0.34462 0.574564,-1.06494 0.06803,-2.88929 -0.86865,-3.1285 -0.855618,-3.79162 0.05662,-2.87942 0.406092,0.40609 0.933843,2.39637 1.172783,4.42283 0.295003,2.50196 0.86039904,4.11043 1.76168304,5.01172 0.72999196,0.73 1.44756296,1.32727 1.59460296,1.32727 0.147049,0 0.111002,-1.51479 -0.08008,-3.36619 l -0.347423,-3.36618 1.694873,0.324 c 1.670694,0.31938 1.692051,0.38491 1.497505,4.59611 -0.133962,2.89969 0.06293,4.52953 0.612884,5.07344 0.6631,0.65583 0.774577,-0.15142 0.613845,-4.44547 l -0.196396,-5.24683 1.764466,-0.0884 c 2.014318,-0.10086 2.001968,-0.11338 2.5866139,2.61257 0.357434,1.66653 0.264922,1.96519 -0.5159259,1.66556 -0.523299,-0.20079 -1.075469,-0.83335 -1.227039,-1.40567 -0.15664,-0.59141 -0.30688,-0.3146 -0.348087,0.64134 -0.03988,0.92503 -0.353754,1.85571 -0.697509,2.06816 -0.343755,0.21237 -0.625007,1.51193 -0.625007,2.88772 v 2.50144 l 2.730072,-0.4094 c 2.5629129,-0.38434 2.7549839,-0.31014 3.1369449,1.21173 0.596101,2.37504 1.829849,2.06483 1.304303,-0.32797 -0.327486,-1.49102 -0.228995,-1.88362 0.419099,-1.67057 0.46595,0.15331 0.935274,1.02086 1.042933,1.92817 0.156663,1.32028 0.616546,1.72861 2.303228,2.04503 3.200228,0.60037 3.461675,0.15095 3.041552,-5.22774 -0.344811,-4.41442 -0.296366,-4.70989 0.584445,-3.5644 0.528231,0.68696 1.148631,1.06081 1.378673,0.83078 0.786933,-0.78693 1.525325,-5.19727 0.906292,-5.41318 -0.328568,-0.11457 -0.597371,-0.73081 -0.597371,-1.36939 0,-0.63856 -0.281252,-1.33487 -0.625007,-1.54731 -0.343755,-0.21236 -0.653047,-1.565 -0.687309,-3.00568 -0.03425,-1.44066 -0.287483,-3.32253 -0.562707,-4.18191 -0.440555,-1.375627 -0.513763,-1.26349 -0.612051,0.9375 -0.121938,2.7306 -0.328747,2.48674 -0.927606,-1.09376 -0.215602,-1.289077 -0.697315,-2.343767 -1.070475,-2.343767 -0.426332,0 -0.546539,0.812916 -0.323473,2.187527 0.195239,1.20313 0.161719,2.20904 -0.07448,2.23533 -0.2362,0.0262 -0.909368,0.14032 -1.495918,0.25321 -1.289716,0.24837 -2.153084,-0.70428 -2.538589,-2.80104 -0.236547,-1.286595 -0.314997,-1.176231 -0.444268,0.625 l -0.156994,2.18752 -0.517112,-2.50002 c -0.284411,-1.375037 -0.533319,-3.544843 -0.553131,-4.821844 -0.02573,-1.65817 -0.393301,-2.512992 -1.286036,-2.990754 -0.68751,-0.367941 -1.2500169,-1.221605 -1.2500169,-1.897015 0,-0.67541 -0.28661,-1.228043 -0.636912,-1.228043 -0.36905,0 -0.47922,0.722879 -0.261953,1.718773 0.288726,1.323489 0.22179,1.503161 -0.291023,0.781262 -0.3663,-0.515629 -0.670303,-1.429695 -0.675566,-2.031262 -0.0052,-0.601578 -0.290821,-1.093773 -0.634576,-1.093773 -0.343755,0 -0.625007,0.562495 -0.625007,1.250011 0,1.712644 -1.115539,1.584729 -1.362799,-0.156143 -0.18116,-1.275548 -0.505157,-1.393589 -3.485281,-1.269737 -1.80705896,0.07512 -3.846149,0.436565 -4.531306,0.803255 -1.451782,0.776974 -1.683321,3.122767 -0.308236,3.122767 0.654771,0 0.937512,0.659725 0.937512,2.187523 0,1.203134 -0.281253,2.187524 -0.625008,2.187524 -0.343754,0 -0.625009,-0.421872 -0.625009,-0.937524 0,-0.515628 -0.241222,-0.9375 -0.53605,-0.9375 -0.838215,0 -1.51748,13.4988 -0.751309,14.93041 0.464976,0.8688 0.450443,1.28626 -0.05057,1.45327 -1.343041,0.44769 0.193184,3.08827 4.13628404,7.10976 2.16083296,2.2038 4.38395496,4.00691 4.94027996,4.00691 0.556318,0 1.011495,0.27747 1.011495,0.61662 0,0.94043 4.154326,2.47156 7.9006169,2.91185 1.842234,0.21662 3.349523,0.6362 3.349523,0.93264 0,0.80091 1.511344,0.65351 3.412649,-0.33291 z M 0.52556214,114.09165 c 0.03,-0.72811 0.178089,-0.8762 0.377605,-0.3776 0.18054596,0.45116 0.15834096,0.99022 -0.04932,1.19794 -0.207688,0.20764 -0.355403,-0.16158 -0.328266,-0.82034 z m 14.99314286,-1.6667 c -0.02315,-0.60156 -0.323553,-1.09376 -0.667307,-1.09376 -0.343755,0 -0.625007,-0.67021 -0.625007,-1.48936 0,-1.23106 0.298121,-1.47297 1.718771,-1.39476 2.102901,0.11575 3.28129,0.80708 3.28129,1.92498 0,0.50607 -0.453079,0.72363 -1.135359,0.54521 -0.751483,-0.19654 -1.37114,0.19299 -1.832723,1.1523 -0.54368,1.12978 -0.706683,1.20811 -0.739665,0.35539 z m -16.19381986,-1.09376 c 0,-0.85938 0.141852,-1.21095 0.315248,-0.78126 0.173388,0.42969 0.173388,1.13283 0,1.56252 -0.173388,0.42969 -0.315248,0.0782 -0.315248,-0.78126 z m 2.85164196,-7.70745 c -0.696429,-1.77071 -0.582895,-2.67528 0.233318,-1.85905 0.375992,0.37599 0.57862,1.20568 0.450294,1.84377 -0.22505,1.11896 -0.249317,1.11951 -0.683621,0.0142 z m -3.262829,-0.41764 c -0.212459,-0.34375 -0.08842,-0.625 0.27561604,-0.625 0.364042,0 0.661896,0.28125 0.661896,0.625 0,0.34375 -0.124017,0.625 -0.275616,0.625 -0.151585,0 -0.449443,-0.28125 -0.66189604,-0.625 z m 11.4688929,-2.81255 c -0.05157,-1.203132 -0.121867,-2.515637 -0.156261,-2.916697 -0.03437,-0.401036 0.289066,-0.846365 0.718759,-0.989587 0.556701,-0.185672 0.781259,0.65278 0.781259,2.916698 0,3.544816 -1.196495,4.425956 -1.343766,0.989586 z m -5.1323319,0 c -0.42698,-1.112682 0.127774,-2.812522 0.917899,-2.812522 0.306972,0 0.558139,0.843766 0.558139,1.875023 0,1.975559 -0.866506,2.525919 -1.476038,0.937499 z m 3.508674,-1.249999 c 0.0069,-1.375033 0.134931,-1.863944 0.28443,-1.086486 0.149506,0.777459 0.143813,1.902473 -0.01252,2.500045 -0.156427,0.59755 -0.278753,-0.0385 -0.271815,-1.413559 z m -6.407693,-8.437617 c -0.495717,-0.306358 -0.693826,-0.764525 -0.440235,-1.018111 0.253591,-0.253586 0.789197,-0.132994 1.190245,0.26809 0.944331,0.944338 0.417251,1.471424 -0.75001,0.750021 z M -14.523971,125.78289 c 0,-0.72601 -1.818365,-2.21653 -2.217339,-1.81755 -0.565989,0.56599 0.458562,2.36604 1.346698,2.36604 0.478851,0 0.870641,-0.24681 0.870641,-0.54849 z m 39.388032,-1.02913 c 0.43483,-0.52394 0.616689,-1.12652 0.404136,-1.33908 -0.453937,-0.45395 -2.291698,0.944 -2.291698,1.74321 0,0.86092 1.018668,0.64281 1.887562,-0.40413 z m -110.013914,-7.59203 c 0,-0.23079 -0.492195,-0.97126 -1.093764,-1.64558 -1.055508,-1.18315 -1.044582,-1.21074 0.312505,-0.78835 0.773447,0.24071 1.406266,0.17622 1.406266,-0.14339 0,-0.55174 4.59464,-0.49302 8.267059,0.1056 0.93747,0.15283 2.477637,0.88602 3.422599,1.62932 0.995727,0.78325 1.811843,1.07028 1.941039,0.68269 0.126001,-0.37798 0.88339,-0.50301 1.74184,-0.28756 0.843854,0.2119 1.928424,0.0413 2.440342,-0.3835 0.506789,-0.4206 1.346899,-0.60145 1.866911,-0.40191 0.520006,0.1996 0.945468,0.15236 0.945468,-0.10512 0,-0.2573 1.406269,-0.40914 3.12504,-0.33745 1.718771,0.0716 3.125038,-0.13087 3.125038,-0.4501 0,-0.31923 0.430706,-0.58042 0.957125,-0.58042 0.526426,0 1.121775,-0.42906 1.323009,-0.95347 0.275517,-0.71798 0.572015,-0.7824 1.200509,-0.26079 0.62654,0.52 1.227741,0.4071 2.411331,-0.4528 2.029351,-1.47434 2.560832,-3.11538 1.594033,-4.92185 -1.271274,-2.3754 -0.314635,-4.05962 5.928805,-10.437914 3.278235,-3.349058 5.960432,-6.521987 5.960432,-7.050962 0,-0.528987 0.432279,-1.127648 0.960631,-1.330399 0.528342,-0.202679 1.343315,-1.108006 1.811054,-2.011655 1.225371,-2.367431 7.059811,-9.3553 11.851015,-14.193886 2.270143,-2.292591 4.132389,-4.484704 4.138335,-4.871367 0.0061,-0.38666 0.709069,-1.365354 1.562518,-2.174883 1.976269,-1.874567 1.963088,-2.590681 -0.04769,-2.590681 -0.99498,0 -1.440318,-0.257403 -1.178438,-0.681141 0.248653,-0.402324 1.252683,-0.525105 2.452854,-0.299954 1.800022,0.337691 2.294372,0.09064 4.332167,-2.164952 4.4254811,-4.89848 4.3867851,-6.497349 -0.194128,-8.021999 -5.113902,-1.702042 -8.640484,-0.529726 -16.233503,5.396361 -2.878085,2.246247 -6.393756,4.642514 -7.812599,5.325048 -1.418848,0.682527 -3.250472,1.765371 -4.070276,2.406316 -0.819804,0.640945 -1.894417,1.165359 -2.38803,1.165359 -0.493617,0 -2.671113,1.26564 -4.838897,2.812535 -2.167778,1.546895 -4.257266,2.812535 -4.643303,2.812535 -0.386041,0 -0.701888,0.288216 -0.701888,0.640477 0,0.352261 -0.724417,0.9159 -1.609808,1.252528 -0.885392,0.336623 -2.924482,1.52105 -4.531307,2.632065 -1.606827,1.111006 -3.691584,2.445829 -4.632802,2.966274 -2.57917,1.426149 -10.087702,6.232758 -14.432994,9.239315 -2.120776,1.467396 -5.121593,3.241092 -6.668488,3.941541 -3.91915,1.774605 -11.715028,6.868834 -15.893947,10.385939 -1.35096,1.13702 -2.82754,2.06729 -3.2813,2.06729 -0.45375,0 -0.82501,0.27716 -0.82501,0.6159 0,0.57792 -1.87248,1.99307 -6.76424,5.11212 -1.90796,1.21652 -1.99503,1.40578 -1.07171,2.32935 0.962,0.96228 4.13517,1.21553 9.39847,0.7501 1.03127,-0.0912 2.85941,-0.0406 4.062556,0.11244 1.203141,0.15308 2.694731,0.0189 3.314647,-0.29813 0.824985,-0.42178 1.868818,-0.1415 3.894037,1.04526 1.919913,1.12513 2.656647,1.33417 2.406706,0.68283 -0.316617,-0.82511 -0.126049,-0.82187 1.574788,0.0267 1.064246,0.53093 1.934987,1.22595 1.934987,1.54455 0,0.31857 0.281254,0.57922 0.625007,0.57922 0.343754,0 0.625009,-0.18875 0.625009,-0.41954 z m -22.332137,-5.63865 c 0.60811,-0.15851 1.45188,-0.14812 1.87503,0.0236 0.42315,0.17126 -0.0744,0.30085 -1.10566,0.28812 -1.03127,-0.0118 -1.37748,-0.15284 -0.76937,-0.31127 z m 7.807991,-0.63393 c 0.777457,-0.14953 1.902471,-0.14386 2.500031,0.0118 0.597563,0.15638 -0.03853,0.27874 -1.413554,0.27182 -1.375016,-0.007 -1.863928,-0.13488 -1.086477,-0.28444 z m 11.399106,-6.07654 c 0,-0.17197 0.562507,-0.61357 1.250017,-0.98151 0.687507,-0.36794 1.250014,-0.52836 1.250014,-0.35649 0,0.17197 -0.562507,0.61357 -1.250014,0.98151 -0.68751,0.36794 -1.250017,0.52836 -1.250017,0.35649 z m 4.375054,-2.78966 c 0,-0.30697 0.444882,-0.72887 0.988633,-0.9375 1.529306,-0.58687 1.680727,-0.45943 0.663176,0.55813 -1.062538,1.06253 -1.651809,1.19788 -1.651809,0.37937 z m 3.12504,-1.58541 c 0,-0.17197 0.562507,-0.613547 1.250016,-0.981489 0.687507,-0.367941 1.250014,-0.528361 1.250014,-0.356485 0,0.171971 -0.562507,0.613544 -1.250014,0.981484 -0.687509,0.36794 -1.250016,0.52836 -1.250016,0.35649 z m 51.92773,-32.408751 c 0.143246,-0.09728 0.822929,-0.589464 1.510439,-1.093764 1.156271,-0.848141 1.185683,-0.834879 0.39223,0.176861 -0.471788,0.601571 -1.151483,1.093764 -1.510439,1.093764 -0.358953,0 -0.535457,-0.07958 -0.39223,-0.176861 z m 56.198624,43.978541 c 0,-1.08147 -0.758648,-2.55116 -1.316887,-2.55116 -0.647682,0 -0.756996,2.09284 -0.141474,2.70837 0.60336,0.60336 1.458351,0.51119 1.458351,-0.15709 z m -3.323099,-7.0434 c -0.199514,-0.4986 -0.347617,-0.35048 -0.377603,0.3776 -0.02712,0.65888 0.120592,1.02803 0.328265,0.82034 0.207688,-0.20764 0.229893,-0.74678 0.04932,-1.19794 z M -11.716429,65.98579 c 3.7840421,-3.79908 9.5519891,-9.471962 12.8176551,-12.606408 3.390248,-3.254023 6.605913,-6.979413 7.495419,-8.683529 0.856811,-1.641497 3.8156729,-5.671859 6.5752509,-8.956361 5.46913,-6.509472 8.429612,-10.359326 8.429612,-10.961998 0,-0.212318 1.666377,-2.601895 3.703057,-5.310187 2.648034,-3.521232 3.606646,-5.292865 3.364649,-6.218263 -0.193042,-0.738217 -0.03862,-1.294098 0.359492,-1.294098 1.01345,0 0.855105,-1.807107 -0.255672,-2.9178839 -1.116926,-1.116928 -2.653746,-0.701978 -3.231166,0.872432 -0.223491,0.6093669 -0.939543,1.6704469 -1.591238,2.3579569 -1.608044,1.696417 -8.000326,10.741599 -9.499057,13.441325 -0.666795,1.201128 -2.559424,3.808671 -4.205845,5.794542 -1.646416,1.985871 -3.3204909,4.2359 -3.7201719,5.000063 -0.399673,0.764162 -1.74146,2.543848 -2.981744,3.954853 -3.560244,4.050311 -8.192633,10.147708 -8.192633,10.783583 0,0.318942 -0.426099,0.743402 -0.946894,0.94325 -0.520788,0.199845 -1.195272,1.016649 -1.49885,1.815122 -0.593962,1.562237 -12.8099971,15.993082 -18.4747741,21.824309 -1.900136,1.955963 -3.454786,3.899007 -3.454786,4.317867 0,0.835867 4.750096,-3.557024 15.307696,-14.156575 z m 21.974037,11.167907 c -0.4518219,-0.451825 -4.1438689,1.816598 -3.8171269,2.345266 0.193774,0.313549 1.177663,-0.04013 2.186408,-0.785915 1.008743,-0.745798 1.7425709,-1.447507 1.6307189,-1.559351 z M -4.6164459,74.720749 c 1.085957,-0.541753 2.264079,-1.526138 2.618045,-2.187528 0.353967,-0.661395 0.938868,-1.202534 1.29978404,-1.202534 0.360919,0 2.53073996,-1.652397 4.82182396,-3.671996 2.291086,-2.019594 6.1283089,-5.004563 8.5271579,-6.633265 2.398853,-1.628694 5.070762,-3.501629 5.937572,-4.162077 6.908319,-5.263615 8.178372,-6.15792 8.74523,-6.15792 0.353865,0 0.643395,-0.274028 0.643395,-0.608958 0,-0.334929 0.843762,-1.045281 1.875023,-1.57857 1.031262,-0.533286 1.875024,-1.391228 1.875024,-1.906542 0,-0.515312 0.632821,-1.181382 1.406269,-1.480155 0.773445,-0.298773 2.088113,-1.276204 2.921479,-2.17206 0.942642,-1.013326 2.182584,-1.628832 3.281292,-1.628832 0.971341,0 1.766077,-0.251162 1.766077,-0.558139 0,-0.618773 -1.884562,-1.584001 -2.722071,-1.394179 -0.293999,0.06664 -0.932093,-0.208774 -1.417992,-0.612041 -0.691273,-0.573704 -1.152816,-0.489424 -2.12174,0.387442 -0.98688,0.893113 -1.238291,0.936007 -1.238291,0.211255 0,-0.500159 0.332818,-1.242196 0.73959,-1.64897 0.406781,-0.406777 0.527038,-0.95215 0.267249,-1.211939 -0.259791,-0.259792 -3.965662,3.079708 -8.235273,7.421112 -4.269609,4.341404 -8.186791,8.056112 -8.704852,8.254915 -0.518057,0.198806 -0.941925,0.844773 -0.941925,1.435511 0,1.188929 0.797479,0.557121 7.951763,-6.299866 2.139064,-2.050176 4.047393,-3.5694 4.240739,-3.376053 0.620153,0.62015 -16.765922,16.141182 -18.080744,16.141182 -0.521125,0 -10.26932186,7.957656 -14.6711519,11.976367 -4.082945,3.727573 -4.283643,4.409944 -0.783473,2.663835 z M 29.851585,42.786145 c 0,-0.798338 2.398986,-3.015229 2.813903,-2.600314 0.168404,0.168427 -0.395816,0.965726 -1.253845,1.771803 -0.85803,0.80608 -1.560058,1.178909 -1.560058,0.828511 z m 45.473466,27.450004 c 0.39332,-1.197816 -2.445172,-2.022545 -3.461866,-1.005852 -0.462431,0.462431 -0.655664,1.140315 -0.429404,1.506407 0.545551,0.882724 3.564564,0.494368 3.89127,-0.500555 z m 0.77711,-4.76651 c 0,-1.664777 -1.473921,-3.210727 -2.472653,-2.593476 -0.95765,0.591856 -0.797991,1.639434 0.441381,2.89613 1.501852,1.522836 2.031272,1.443954 2.031272,-0.302654 z M 11.48263,44.455352 c 0.970656,0 7.452931,-7.035787 8.277736,-8.98455 0.418305,-0.988328 1.734941,-2.98607 2.925854,-4.439425 1.190916,-1.453358 2.165302,-2.854274 2.165302,-3.113151 0,-0.258877 0.703136,-1.023771 1.562521,-1.699765 0.859386,-0.675993 1.562519,-1.512897 1.562519,-1.859787 0,-0.346891 0.984388,-1.832026 2.187528,-3.300298 2.339009,-2.854458 2.73242,-4.103369 1.292572,-4.103369 -0.863304,0 -3.4801,3.106891 -3.4801,4.131883 0,0.275753 -1.125014,2.105188 -2.500031,4.06541 -1.375018,1.960222 -2.500032,3.803247 -2.500032,4.095611 0,0.292367 -0.562507,0.882866 -1.250014,1.312221 -0.68751,0.429355 -1.250017,1.103901 -1.250017,1.498987 0,0.395086 -2.020282,2.994297 -4.489511,5.776026 -6.9813829,7.864927 -7.8612679,8.924297 -6.3989129,7.704201 0.7145789,-0.596195 1.5671399,-1.083994 1.8945859,-1.083994 z m 16.855437,-15.15644 c 7.718215,-6.807329 10.247221,-8.356104 12.060295,-7.385776 1.761147,0.942536 3.203395,0.827205 3.203395,-0.256161 0,-1.454751 -2.496549,-2.644982 -6.453487,-3.076706 -3.280059,-0.357874 -3.758121,-0.256768 -4.823017,1.02002 -0.650138,0.779497 -1.191421,1.658106 -1.202859,1.952462 -0.01134,0.294356 -1.848942,2.876401 -4.083344,5.737877 -2.234402,2.861476 -4.062551,5.402167 -4.062551,5.645983 0,0.243813 -0.492193,0.816927 -1.093762,1.273584 -0.601571,0.456656 -0.870075,0.839229 -0.596677,0.850161 0.273403,0.01087 3.446805,-2.581716 7.052007,-5.761444 z m 10.888636,-11.67312 c 0,-0.825167 -3.672308,-2.552224 -4.067444,-1.912883 -0.379505,0.614058 2.084006,2.492114 3.269001,2.492114 0.439145,0 0.798443,-0.260653 0.798443,-0.579231 z m 43.125538,61.378384 c 0,-0.786416 1.7865,-2.345278 2.20647,-1.925317 0.16569,0.165687 -0.26301,0.811852 -0.95262,1.43595 -0.68962,0.624095 -1.25385,0.84431 -1.25385,0.489367 z m 3.12504,-3.104694 c 0,-0.343754 0.56251,-1.13407 1.25002,-1.756259 0.68751,-0.622189 1.25001,-0.849998 1.25001,-0.506246 0,0.343755 -0.5625,1.134071 -1.25001,1.75626 -0.68751,0.622189 -1.25002,0.849998 -1.25002,0.506245 z M 62.85853,56.823975 c 0.592044,-0.592044 -0.02624,-1.559008 -2.843785,-4.447281 -1.980181,-2.029906 -3.037819,-3.397392 -2.350312,-3.038856 0.687509,0.358535 2.937537,2.414411 5.000063,4.56862 2.062526,2.154206 3.212114,3.510568 2.554645,3.014137 -0.922086,-0.696228 -1.255522,-0.723972 -1.458351,-0.121348 -0.144616,0.429693 -0.577018,0.781262 -0.960874,0.781262 -0.481617,0 -0.463449,-0.234475 0.05863,-0.756541 z m -5.586327,-4.712279 c -0.777428,-0.9913 -0.755322,-1.013406 0.235987,-0.235987 0.601569,0.471787 1.093762,0.963983 1.093762,1.093764 0,0.514407 -0.51325,0.183309 -1.329742,-0.857787 z m 17.111189,-6.350728 c -3.475161,-1.635708 -3.687751,-2.098989 -2.586349,-5.636298 1.390604,-4.466111 2.554581,-6.344196 3.46411,-5.589353 0.462558,0.383886 0.841008,1.085418 0.841008,1.558959 0,0.47354 0.52807,0.860982 1.17349,0.860982 2.02277,0 2.75416,1.599901 2.44357,5.345245 -0.40173,4.844314 -1.2403,5.388157 -5.335829,3.460465 z m 3.792289,-0.921387 c 0.18272,-0.476186 -0.38292,-1.487607 -1.25699,-2.247607 -1.44199,-1.253791 -1.679864,-1.291192 -2.567374,-0.403684 -0.887505,0.88751 -0.871693,1.095755 0.170719,2.247604 1.323315,1.462252 3.169175,1.666198 3.653645,0.403687 z m 0.65254,-3.821774 c 0.77775,-2.026792 -1.08262,-3.860486 -2.78273,-2.74283 -0.73826,0.485328 -0.70379,0.714751 0.21293,1.417343 0.60157,0.461056 1.09376,1.158846 1.09376,1.550644 0,1.034394 1.05442,0.873552 1.47604,-0.225145 z M 69.227078,38.32473 c 0,-0.82132 1.742854,-2.959995 2.111639,-2.59121 0.624015,0.624015 -0.371723,3.096761 -1.247021,3.096761 -0.475539,0 -0.864618,-0.227506 -0.864618,-0.505551 z m -6.85153,-4.394587 c -1.179457,-0.63255 -2.270859,-1.546623 -2.425342,-2.031273 -0.199656,-0.626354 0.07609,-0.564877 0.953419,0.212577 0.678857,0.601571 1.4934,1.10271 1.810084,1.11364 0.785466,0.02712 3.154596,1.855148 2.404274,1.855148 -0.328879,0 -1.562977,-0.517542 -2.742435,-1.150092 z M 40.359529,29.653221 c 0.451175,-0.180546 0.990251,-0.158341 1.197934,0.04935 0.207687,0.207688 -0.161459,0.355405 -0.820322,0.328266 -0.728104,-0.02998 -0.8762,-0.178089 -0.377612,-0.377608 z"
         id="path130"
         inkscape:connector-curvature="0" />
    </g>
  </g>
</svg>
