<?xml version="1.0" encoding="UTF-8" standalone="no"?>
<!-- Created with Inkscape (http://www.inkscape.org/) -->

<svg
   xmlns:dc="http://purl.org/dc/elements/1.1/"
   xmlns:cc="http://creativecommons.org/ns#"
   xmlns:rdf="http://www.w3.org/1999/02/22-rdf-syntax-ns#"
   xmlns:svg="http://www.w3.org/2000/svg"
   xmlns="http://www.w3.org/2000/svg"
   xmlns:sodipodi="http://sodipodi.sourceforge.net/DTD/sodipodi-0.dtd"
   xmlns:inkscape="http://www.inkscape.org/namespaces/inkscape"
   width="209.99995mm"
   height="200.49763mm"
   viewBox="0 0 209.99996 200.49766"
   version="1.1"
   id="svg8"
   inkscape:version="0.92.3 (2405546, 2018-03-11)"
   sodipodi:docname="multiple_votes.svg">
  <defs
     id="defs2" />
  <sodipodi:namedview
     id="base"
     pagecolor="#ffffff"
     bordercolor="#666666"
     borderopacity="1.0"
     inkscape:pageopacity="0.0"
     inkscape:pageshadow="2"
     inkscape:zoom="1.4"
     inkscape:cx="363.62445"
     inkscape:cy="308.10751"
     inkscape:document-units="mm"
     inkscape:current-layer="layer1"
     showgrid="false"
     fit-margin-top="0"
     fit-margin-left="0"
     fit-margin-right="0"
     fit-margin-bottom="0"
     inkscape:window-width="1920"
     inkscape:window-height="1017"
     inkscape:window-x="-8"
     inkscape:window-y="-8"
     inkscape:window-maximized="1" />
  <metadata
     id="metadata5">
    <rdf:RDF>
      <cc:Work
         rdf:about="">
        <dc:format>image/svg+xml</dc:format>
        <dc:type
           rdf:resource="http://purl.org/dc/dcmitype/StillImage" />
        <dc:title></dc:title>
      </cc:Work>
    </rdf:RDF>
  </metadata>
  <g
     inkscape:label="Layer 1"
     inkscape:groupmode="layer"
     id="layer1"
     transform="translate(-356.47939,815.31045)">
    <path
       style="fill:#000000;stroke-width:0.48115033"
       d="m 445.61869,-615.08657 c -0.71752,-0.1093 -1.9625,-0.81325 -2.76661,-1.5644 -1.38997,-1.29841 -1.46205,-1.55315 -1.46205,-5.16626 0,-2.09028 -0.20195,-4.0062 -0.44878,-4.25759 -0.2479,-0.25252 -0.56827,-7.56398 -0.71575,-16.33507 -0.27665,-16.4531 -1.12632,-33.4107 -1.76258,-35.1766 -0.22259,-0.61782 -0.94811,-1.13139 -1.85433,-1.31264 -0.81875,-0.16385 -2.62196,-0.83065 -4.00713,-1.48199 -1.38515,-0.65132 -3.8717,-1.55763 -5.52565,-2.01399 -1.65396,-0.45636 -3.0072,-1.01077 -3.0072,-1.23201 0,-0.22126 -0.39445,-0.40228 -0.87658,-0.40228 -1.54432,0 -10.67103,-2.96584 -10.67103,-3.46768 0,-0.20984 -0.33466,-0.38151 -0.7437,-0.38151 -0.95439,0 -8.26448,-2.33578 -9.8416,-3.14466 -2.04452,-1.04861 -6.15876,-2.62914 -6.84386,-2.62914 -0.35808,0 -1.5088,-0.44101 -2.55713,-0.98002 -1.04832,-0.53901 -2.66386,-1.17536 -3.59007,-1.4141 -0.92621,-0.23875 -3.49812,-0.98417 -5.71533,-1.65651 -2.21724,-0.67232 -4.2203,-1.10561 -4.45129,-0.96285 -0.46621,0.28814 -0.18951,37.11867 0.33623,44.75195 0.37525,5.44838 0.32751,5.53154 -3.96107,6.90108 -1.76395,0.56331 -2.31007,0.53436 -4.57094,-0.24233 -1.41219,-0.48515 -2.74759,-1.0292 -2.96754,-1.20897 -0.46463,-0.3798 -0.76761,-6.12853 -0.99958,-18.96556 -0.26316,-14.56359 -1.32638,-35.06883 -1.85264,-35.73028 -0.26532,-0.33346 -1.59079,-0.92952 -2.9455,-1.32458 -1.35468,-0.39505 -3.11925,-1.11861 -3.92125,-1.6079 -1.45122,-0.88536 -1.45788,-0.90937 -1.39856,-5.04723 l 0.0596,-4.15763 4.27527,-2.89032 c 2.3514,-1.58968 4.5505,-2.89034 4.88691,-2.89034 0.33639,0 0.61163,-0.22115 0.61163,-0.49145 0,-0.27031 0.59542,-0.74662 1.32317,-1.05844 0.72774,-0.31184 2.98001,-1.71455 5.00504,-3.11716 2.02505,-1.40261 3.9068,-2.5502 4.18167,-2.5502 1.2436,0 1.39028,-1.21025 2.47856,-20.44889 0.2994,-5.29264 0.67425,-9.94778 0.83301,-10.34473 0.15875,-0.39695 0.36437,-2.33364 0.4569,-4.30373 0.19351,-4.11988 0.75363,-5.21432 3.34435,-6.53458 1.02514,-0.52243 1.97215,-1.05813 2.10447,-1.19044 0.2613,-0.26132 2.11137,-1.2524 9.14185,-4.89728 2.51401,-1.30337 5.11222,-2.67626 5.7738,-3.05088 1.69646,-0.96061 6.9741,-3.3384 10.10416,-4.55232 1.45549,-0.56449 4.16196,-1.75771 6.01437,-2.65164 1.85244,-0.89391 3.96736,-1.85207 4.69986,-2.12925 1.63676,-0.61935 1.99012,-1.52012 2.75255,-7.01673 0.33036,-2.3817 0.76362,-4.54686 0.96278,-4.8115 0.19917,-0.26465 0.63092,-1.672 0.95944,-3.12749 1.02044,-4.5208 1.27256,-4.92721 2.84285,-4.58231 1.27837,0.28078 1.40201,0.1784 1.69917,-1.40555 0.29251,-1.55925 0.45136,-1.69794 1.82009,-1.58915 1.31997,0.10493 1.54882,-0.0653 1.91061,-1.42087 0.22608,-0.84703 0.61461,-1.66585 0.8634,-1.81961 0.64908,-0.40116 3.86275,1.03452 3.86275,1.72567 0,0.80257 1.82349,-0.89804 2.18532,-2.03809 0.40057,-1.26209 1.08553,-1.13634 4.27653,0.78518 2.82829,1.70312 4.12346,2.08094 4.12346,1.20288 0,-0.85678 2.3788,-0.51022 4.22038,0.61484 2.25973,1.38053 4.21815,2.48456 6.35008,3.57976 0.91804,0.47162 2.05476,1.23638 2.52603,1.6995 0.47127,0.46311 1.25635,0.84201 1.7446,0.84201 1.61116,0 2.48032,1.55949 2.48032,4.45029 0,2.54098 0.0735,2.70732 1.32317,2.99303 2.12054,0.48482 3.47829,1.86244 3.15041,3.19656 -0.1553,0.63157 -0.52159,1.4521 -0.81415,1.82341 -0.70484,0.89451 -0.68353,7.76183 0.0286,9.23318 0.30833,0.63699 0.93994,2.27657 1.40357,3.64349 0.67352,1.98574 1.0928,2.53331 2.08575,2.72413 0.68351,0.1313 1.34351,0.13912 1.46666,0.0164 0.2994,-0.2962 0.0838,-4.96938 -0.25451,-5.51681 -0.14675,-0.23737 -0.65346,-0.43163 -1.1261,-0.43163 -0.47263,0 -1.21766,-0.39595 -1.65561,-0.87989 -1.06415,-1.17587 -1.11038,-6.71343 -0.0671,-8.04972 0.694,-0.889 0.71497,-0.87153 0.43556,0.36305 -0.18646,0.82377 -0.0127,1.69673 0.47376,2.39252 1.01033,1.44245 0.9679,1.84369 -0.19498,1.84369 -1.15337,0 -1.31059,1.51772 -0.24854,2.39914 0.59134,0.49078 0.79489,0.37894 1.18689,-0.65211 0.26023,-0.68445 1.01866,-1.71877 1.68539,-2.2985 0.68364,-0.5944 1.33849,-1.80552 1.50173,-2.77732 0.31215,-1.85838 1.52351,-4.85077 1.96364,-4.85077 0.14858,0 0.13148,0.55264 -0.038,1.2281 -0.28027,1.11664 -0.2195,1.18062 0.66956,0.7048 0.88114,-0.47158 0.9778,-0.38178 0.9778,0.90854 0,1.39836 0.0302,1.41622 1.28866,0.76328 1.49595,-0.77611 2.07938,-0.5603 2.07938,0.76913 0,1.4706 1.34511,1.66009 2.70635,0.38127 1.12119,-1.05331 1.24981,-1.07633 1.68345,-0.30144 0.58299,1.04176 2.82744,1.13485 2.82744,0.1173 0,-1.01059 0.62043,-0.89852 1.33179,0.24057 0.78868,1.26287 1.8879,1.22544 2.30172,-0.0784 0.29261,-0.92194 0.38139,-0.94938 0.77806,-0.24057 0.57749,1.03192 1.67007,1.02435 2.25206,-0.0164 0.67672,-1.20922 1.66496,2.52511 0.99804,3.77127 -0.37675,0.70395 -0.30872,0.89364 0.32053,0.89364 0.63093,0 0.73814,0.30331 0.51011,1.44345 -0.25856,1.29278 -0.16439,1.44345 0.90215,1.44345 1.44444,0 1.54704,0.97196 0.22855,2.16517 -1.50842,1.36511 -1.25698,2.64633 0.51939,2.64633 1.39599,0 1.46335,0.0835 1.16464,1.44345 -0.26451,1.20428 -0.16712,1.44345 0.58725,1.44345 1.4478,0 2.1751,0.9946 1.38499,1.89397 -0.84931,0.96676 -1.58904,4.94976 -1.43549,7.72904 0.0658,1.19084 0.13439,2.79416 0.15239,3.5629 0.032,1.36831 0.0529,1.37935 0.99792,0.52421 1.45207,-1.3141 1.56609,-0.6461 0.22626,1.32563 -0.70359,1.03545 -0.99295,1.87044 -0.70899,2.04594 0.26389,0.16313 0.48756,0.1213 0.49709,-0.0927 0.009,-0.2141 0.56127,-1.03881 1.22614,-1.83271 l 1.20884,-1.44345 -0.83073,2.16517 c -0.45691,1.19084 -1.14913,2.66346 -1.53825,3.27247 -0.46645,0.73002 -0.54536,1.26943 -0.23163,1.58316 0.31373,0.31375 0.92417,-0.20153 1.79159,-1.5123 0.72365,-1.09349 1.41008,-1.89382 1.52539,-1.77851 0.25787,0.25788 -0.88771,3.56768 -1.9375,5.59773 -1.06704,2.06344 -0.59406,1.88823 0.66547,-0.24651 1.24439,-2.10909 1.9911,-1.73826 0.88698,0.4405 -2.00626,3.95897 -3.27896,6.74302 -3.14413,6.87784 0.306,0.30599 1.11332,-0.57769 2.01503,-2.20563 1.59828,-2.88554 4.19165,-6.82412 4.37358,-6.64218 0.0955,0.0955 -0.007,0.9798 -0.23033,1.96504 -0.44365,1.96709 0.16857,8.44343 1.1243,11.8944 0.37736,1.36252 0.49811,3.55926 0.32571,5.92572 -0.28705,3.94052 0.004,5.14074 1.24385,5.14074 0.9528,0 4.00502,1.38901 5.10286,2.32222 0.72132,0.61313 1.21447,0.62855 3.39223,0.1062 1.40152,-0.33623 2.9704,-0.50397 3.48636,-0.37278 0.73398,0.18665 0.66766,0.2507 -0.30485,0.29438 -1.65251,0.0742 -2.05028,0.55023 -1.063,1.27215 0.68144,0.49827 0.49507,0.58158 -1.20155,0.5371 -3.08918,-0.0809 -3.55219,0.67176 -2.91815,4.74437 l 0.52363,3.36336 -3.18365,2.95744 c -1.751,1.62661 -3.18365,3.29042 -3.18365,3.69736 0,0.7345 1.89466,2.30276 3.46545,2.86843 0.4505,0.16221 1.27003,1.33419 1.82117,2.60434 0.55116,1.27015 1.21103,2.68532 1.46637,3.14484 0.25536,0.45951 0.46427,1.1632 0.46427,1.56373 0,1.41763 0.87871,0.69977 1.75665,-1.4351 0.48933,-1.18986 1.05207,-2.16419 1.25054,-2.16519 0.19848,-9.6e-4 0.36087,-0.22884 0.36087,-0.50633 0,-0.27751 0.85274,-1.78835 1.89497,-3.35748 1.04223,-1.56911 2.55786,-4.24188 3.36805,-5.93949 1.30364,-2.73153 1.47207,-3.57674 1.46433,-7.34814 -0.005,-2.34385 -0.43232,-6.85977 -0.95,-10.03536 -0.51768,-3.17559 -1.18211,-8.58853 -1.47653,-12.02875 -0.2944,-3.44022 -0.65497,-6.57974 -0.80127,-6.97668 -1.83522,-4.97928 -3.11442,-8.62136 -3.33759,-9.50272 -0.15076,-0.59544 -0.46542,-1.0826 -0.6992,-1.0826 -0.23379,0 -0.42507,-0.30812 -0.42507,-0.68471 0,-0.3766 -0.68472,-1.36944 -1.52161,-2.20632 -1.51944,-1.51945 -2.20133,-1.62409 -4.49276,-0.68939 -0.86493,0.35283 -0.89377,0.30833 -0.28502,-0.43966 0.91517,-1.12452 0.37702,-1.53196 -3.25566,-2.4649 -3.85859,-0.99096 -5.47049,-0.67578 -6.18183,1.20876 -0.55208,1.46265 -1.2938,1.74841 -2.52174,0.97156 -0.54614,-0.3455 -0.4156,-0.51126 0.6042,-0.76722 1.04427,-0.26208 1.35753,-0.68098 1.58825,-2.12377 0.20838,-1.30314 0.67063,-2.02369 1.68126,-2.62068 1.71251,-1.01162 1.78869,-2.08613 0.19098,-2.69357 -0.66158,-0.25154 -1.20288,-0.64447 -1.20288,-0.87316 0,-0.2287 0.5413,-0.66245 1.20288,-0.96389 0.66157,-0.30144 1.20288,-0.85978 1.20288,-1.24076 0,-1.25945 -0.57324,-2.21485 -1.32893,-2.21485 -0.64582,0 -0.63588,-0.12039 0.0749,-0.90571 0.94505,-1.04429 0.60995,-3.42464 -0.48211,-3.42464 -1.03754,0 -0.78942,-1.02105 0.31853,-1.31079 0.77531,-0.20275 0.95663,-0.5816 0.84201,-1.75926 -0.11929,-1.22592 -0.43257,-1.58522 -1.70982,-1.96124 -1.64542,-0.48442 -2.06075,-1.41113 -0.84202,-1.87882 0.93465,-0.35865 0.93465,-2.04709 0,-2.40574 -0.82784,-0.31768 -0.95938,-1.80165 -0.2248,-2.53622 0.66585,-0.66585 0.0706,-2.1013 -0.87138,-2.1013 -0.41395,0 -1.13496,0.34599 -1.60223,0.76887 -1.16794,1.05698 -1.99748,0.41426 -1.62923,-1.26236 0.23552,-1.07229 0.086,-1.47855 -0.699,-1.89865 -0.54923,-0.29394 -1.36995,-0.47138 -1.82382,-0.39431 -0.56105,0.0953 -0.9882,-0.35295 -1.33448,-1.40028 -0.71712,-2.16895 -0.95765,-2.29168 -2.78876,-1.42275 -1.30993,0.6216 -1.90692,0.66527 -3.07373,0.22486 -1.50076,-0.56649 -2.08305,-0.44018 -3.8195,0.82846 -0.92583,0.6764 -1.09966,0.67707 -1.76995,0.007 -0.4088,-0.40883 -1.04035,-0.74329 -1.40344,-0.74329 -1.13299,0 -3.25008,1.17389 -3.25401,1.8043 -0.002,0.38531 -0.65216,0.57791 -1.80808,0.53592 -1.2858,-0.0467 -1.4674,-0.12875 -0.63194,-0.2858 0.64482,-0.12111 1.76902,-0.859 2.49825,-1.63963 1.02267,-1.09477 1.74485,-1.4179 3.15799,-1.41301 1.00766,0.004 2.97506,-0.11657 4.37205,-0.26681 1.39695,-0.15021 2.80433,-0.062 3.12748,0.19589 0.33084,0.26414 1.00793,0.29962 1.54983,0.0811 1.61096,-0.64932 3.04566,-0.50011 3.95074,0.41086 0.47341,0.47651 1.51032,1.27115 2.30421,1.76586 0.79389,0.49473 1.72638,1.29571 2.07217,1.77997 0.34579,0.48425 1.11526,0.88045 1.70994,0.88045 0.59465,0 1.75009,0.7037 2.56762,1.56375 2.05313,2.15993 2.27993,3.67003 3.18512,21.20644 0.25272,4.89581 1.02994,5.99216 5.22445,7.36965 5.85942,1.92425 8.71199,4.45425 10.23082,9.07393 0.43502,1.32316 1.17292,2.94704 1.63979,3.60862 0.46687,0.66158 1.13734,1.96069 1.48992,2.8869 0.35259,0.92621 0.99745,2.00881 1.43305,2.40576 0.43559,0.39694 1.09434,1.47953 1.4639,2.40574 0.36958,0.92622 1.2825,2.58912 2.02871,3.69532 0.74621,1.10621 1.35676,2.5412 1.35676,3.18885 0,0.64767 0.34434,1.46335 0.7652,1.81263 1.4392,1.19442 4.88215,6.45711 5.485,8.38404 0.33119,1.05854 0.79252,2.1303 1.02518,2.3817 0.54017,0.58369 0.55685,7.82353 0.0187,8.15608 -0.22232,0.13748 -0.99144,2.15297 -1.70914,4.47904 -0.7177,2.32605 -1.60553,4.81979 -1.97297,5.54161 -0.6938,1.36298 -0.25052,2.16281 0.8386,1.51303 0.33079,-0.19736 1.7037,-1.18448 3.05091,-2.19357 1.75957,-1.31799 2.92875,-1.83475 4.15114,-1.83475 0.95747,0 1.97515,-0.32951 2.327,-0.75344 1.29497,-1.56037 3.26064,-2.13346 7.31758,-2.13346 3.77385,0 4.09915,0.0822 5.23981,1.32316 1.9041,2.07164 2.45744,4.00096 2.12929,7.42418 -0.16039,1.67246 -0.30929,3.6904 -0.33106,4.48429 -0.056,2.04471 1.18353,10.19392 1.61628,10.62599 0.51999,0.51915 0.44429,3.91391 -0.10929,4.89764 -0.25856,0.45952 -0.70808,1.78593 -0.99895,2.9476 -0.70568,2.81827 -5.23518,7.16679 -9.84225,9.44898 -1.85479,0.91881 -3.61453,1.67055 -3.91059,1.67055 -0.29604,0 -0.8078,0.32477 -1.13723,0.72172 -0.41009,0.49412 -1.5053,0.72173 -3.47297,0.72173 -3.10744,0 -5.34075,-1.09502 -5.91343,-2.89941 -0.16585,-0.52239 -0.61632,-0.9498 -1.0011,-0.9498 -0.98997,0 -4.54899,2.39856 -5.88999,3.96949 -0.62122,0.72773 -1.4193,1.32317 -1.77353,1.32317 -0.35421,0 -1.0698,0.54128 -1.59021,1.20286 -0.5204,0.6616 -1.14319,1.20288 -1.38398,1.20288 -0.24081,0 -1.18397,0.77211 -2.09594,1.71578 -3.03347,3.13893 -4.4539,3.74375 -7.95083,3.38548 l -3.08972,-0.31655 v 1.26844 c 0,0.89664 -0.66994,1.88633 -2.28546,3.37632 -2.07344,1.91232 -2.51296,2.10836 -4.73759,2.11301 -1.34865,0.004 -3.16636,-0.35117 -4.03934,-0.78667 l -1.58722,-0.79182 0.29018,-5.41467 c 0.28698,-5.355 0.27401,-5.44569 -1.17729,-8.22975 -0.8071,-1.54831 -1.64944,-3.41226 -1.87188,-4.14212 -0.44214,-1.45087 0.30633,-7.52378 1.0195,-8.27192 0.58487,-0.61354 0.55481,-2.54 -0.0455,-2.91096 -0.26465,-0.16349 -0.48116,-0.94176 -0.48116,-1.72936 0,-0.78759 -0.33325,-1.94057 -0.74052,-2.56217 -0.6696,-1.02194 -0.66475,-1.28913 0.0507,-2.7896 0.75331,-1.57969 0.74267,-1.75478 -0.22177,-3.64522 -0.55719,-1.09219 -1.01308,-2.53573 -1.01308,-3.20785 0,-0.67211 -0.22629,-1.22203 -0.50287,-1.22203 -0.27658,0 -2.06286,1.04481 -3.96949,2.32183 -1.90664,1.277 -3.79307,2.44093 -4.19207,2.5865 -0.90353,0.32963 -2.1689,4.98824 -2.94686,10.84934 -0.32491,2.44785 -0.76827,4.45064 -0.98526,4.45064 -0.21698,0 -0.39451,2.08548 -0.39451,4.63441 0,3.81142 -0.17276,4.91397 -0.97287,6.20856 -0.87531,1.4163 -0.91353,1.79588 -0.38134,3.78571 0.477,1.78346 0.46763,2.654 -0.0484,4.49704 -0.35196,1.25701 -0.67486,2.97451 -0.71752,3.81669 -0.0918,1.81432 -1.07778,3.00263 -4.10002,4.94199 -1.80408,1.15767 -2.82813,1.45348 -5.34336,1.5434 -3.55408,0.12712 -6.99996,1.83783 -8.19333,4.06763 -0.37809,0.70648 -2.30396,2.77403 -4.27972,4.59457 -2.74037,2.52507 -4.03403,3.3807 -5.45504,3.60793 l -1.86276,0.29787 0.27183,4.38278 c 0.90058,14.51995 0.89889,15.42711 -0.0309,16.51646 -0.85185,0.99799 -7.12467,4.541 -7.77934,4.39391 -0.1764,-0.0396 -0.90797,-0.16148 -1.62548,-0.27074 z m 1.56776,-4.58897 c 0.12166,-13.57617 -0.11584,-28.7303 -0.57123,-36.44712 -0.54798,-9.28732 -0.5686,-9.40439 -2.03313,-11.54761 -1.90659,-2.79014 -3.25153,-4.33036 -3.78136,-4.33036 -0.47838,0 -0.35326,4.79617 0.14439,5.53322 0.50435,0.74705 0.91288,8.26639 0.9803,18.04315 0.0338,4.89569 0.36274,13.32357 0.73108,18.72862 0.36832,5.40502 0.55161,10.19933 0.40731,10.654 -0.20191,0.63616 0.15712,0.93798 1.558,1.30968 1.00119,0.26565 1.98273,0.50539 2.18121,0.53274 0.19849,0.0273 0.37105,-1.08699 0.38349,-2.47632 z m 3.46576,-0.93554 c -0.98544,-0.98542 -1.06442,-0.99489 -1.38264,-0.16566 -0.41513,1.08183 1.16896,2.4696 1.93947,1.69909 0.3303,-0.33031 0.15021,-0.82648 -0.55683,-1.53345 z m 3.43982,-0.30916 c 0.13694,-0.22148 -0.77054,-1.14167 -2.0165,-2.04489 -2.88861,-2.09399 -2.98709,-2.13078 -2.98709,-1.11589 0,1.71292 4.24219,4.39273 5.00359,3.16078 z m -0.93901,-3.95551 c -0.46512,-0.51395 -1.13507,-0.93444 -1.48875,-0.93444 -0.3537,0 -0.91352,-0.43305 -1.24405,-0.96231 -0.68764,-1.10108 -1.47853,-1.28873 -1.24678,-0.2958 0.20438,0.87565 4.43588,4.10526 4.65558,3.55328 0.0933,-0.23444 -0.21088,-0.84677 -0.676,-1.36073 z m 0.74692,-2.33038 c 0,-0.53542 -0.69835,-1.32681 -1.68402,-1.90837 -0.92623,-0.54648 -1.68403,-1.21743 -1.68403,-1.49097 0,-0.27356 -0.32478,-0.49738 -0.72173,-0.49738 -1.3774,0 -0.67176,1.69217 1.34278,3.22009 2.38522,1.80906 2.747,1.89817 2.747,0.67663 z m 0,-3.39659 c 0,-1.03696 -0.34059,-1.39244 -3.0072,-3.13873 -1.55045,-1.01536 -1.8043,-1.06702 -1.8043,-0.36722 0,0.75685 3.64397,4.38289 4.45063,4.42876 0.19848,0.0109 0.36087,-0.40399 0.36087,-0.92281 z m -0.48984,-3.50733 c -0.005,-0.33079 -0.87083,-1.31734 -1.92459,-2.19234 -1.5268,-1.26778 -1.91592,-1.42148 -1.91592,-0.75675 0,0.45877 0.70367,1.43652 1.56373,2.17278 1.73421,1.48457 2.28973,1.67399 2.27678,0.77631 z m 0.009,-3.19792 c 0,-0.72581 -3.54923,-3.59611 -3.73981,-3.0244 -0.098,0.29378 0.49442,1.19151 1.31632,1.99493 1.48722,1.4538 2.42349,1.85151 2.42349,1.02947 z m -0.0109,-3.53817 c -0.005,-0.33079 -0.87171,-1.2109 -1.9246,-1.9558 l -1.9143,-1.35438 v 1.12264 c 0,0.70504 0.49216,1.42778 1.32315,1.943 1.57708,0.97778 2.52988,1.0704 2.51578,0.24454 z m -1.91431,-4.67458 c -0.93959,-0.78164 -1.76527,-1.17024 -1.86784,-0.87908 -0.22307,0.63336 1.82554,2.28538 2.83015,2.28225 0.4227,-10e-4 0.024,-0.58267 -0.96231,-1.40317 z m 1.20288,-2.4224 c -0.47898,-0.52926 -1.15132,-0.96229 -1.49411,-0.96229 -0.34278,0 -0.83429,-0.37711 -1.09223,-0.83801 -0.25792,-0.4609 -0.64744,-0.65952 -0.86557,-0.44139 -0.50221,0.5022 2.47793,3.204 3.53407,3.204 0.70346,0 0.69459,-0.10402 -0.0822,-0.96231 z m -80.82013,-12.87076 c -0.13529,-6.81429 -0.37934,-16.34067 -0.5425,-21.1697 l -0.29662,-8.78007 -1.75218,-2.28639 -1.75218,-2.28639 -0.25228,3.36806 c -0.13876,1.85242 -0.0889,6.3993 0.11093,10.10416 0.19974,3.70485 0.50262,12.2573 0.67301,19.00544 0.19386,7.67637 0.50632,12.51462 0.8347,12.92459 0.49315,0.61568 2.02764,1.41141 2.85294,1.47942 0.20353,0.0164 0.25941,-5.54484 0.1242,-12.35912 z m 3.11435,11.33109 c 0,-0.77727 -0.14221,-0.91626 -0.53545,-0.52308 -0.29451,0.29449 -0.38998,0.77084 -0.21218,1.05853 0.49769,0.80529 0.74763,0.62629 0.74763,-0.53545 z m 2.77808,-1.43314 c -0.10402,-0.31188 -0.5986,-0.79904 -1.09919,-1.08258 -0.5006,-0.28355 -1.29244,-0.94856 -1.75967,-1.47784 -0.83996,-0.95149 -0.84969,-0.94774 -0.86551,0.33359 -0.009,0.80646 0.38786,1.57876 1.05334,2.04489 1.25789,0.88105 2.9423,0.99578 2.67103,0.18194 z m 75.64944,-1.35452 c 0,-0.65622 -3.81793,-3.37107 -4.74078,-3.37107 -0.48678,0 -0.0922,0.67073 1.13214,1.9246 1.75404,1.79629 3.60864,2.53969 3.60864,1.44647 z m -75.73646,-2.33637 c -0.43317,-0.70091 -3.27352,-2.05607 -3.60811,-1.7215 -0.15384,0.15385 0.47677,0.89919 1.40128,1.65636 1.52209,1.24656 2.9633,1.2891 2.20683,0.0651 z m 75.53176,-0.49547 c -0.34086,-0.55154 -2.20106,-1.03696 -2.20106,-0.57438 0,0.60933 0.60391,0.99746 1.55203,0.99746 0.50079,0 0.79284,-0.19038 0.64903,-0.42308 z m -75.81706,-2.70442 c 0,-0.39694 -0.36185,-0.72171 -0.80414,-0.72171 -0.44226,0 -1.20007,-0.35834 -1.68402,-0.7963 -0.48394,-0.43797 -0.87989,-0.56428 -0.87989,-0.2807 0,0.52313 2.34567,2.47726 3.00718,2.50521 0.19847,0.009 0.36087,-0.30953 0.36087,-0.7065 z m 73.85657,-0.95137 c -1.92092,-1.65564 -3.12747,-2.12391 -3.12747,-1.21379 0,0.26463 0.27065,0.48892 0.60144,0.49845 0.33078,0.009 1.25097,0.54974 2.04489,1.20048 2.22612,1.82474 2.65706,1.39024 0.48114,-0.48514 z m 58.21919,-10.47597 v -11.18671 h -1.68403 c -1.6528,0 -1.68682,0.0402 -1.83468,2.16517 -0.0829,1.19086 -0.35351,2.37088 -0.60144,2.62227 -0.24792,0.25141 -0.45078,4.18913 -0.45078,8.7505 v 8.29342 l 1.56375,0.19406 c 0.86005,0.10674 1.88851,0.22869 2.28546,0.27103 0.62304,0.0664 0.72172,-1.45256 0.72172,-11.10974 z m 2.67668,8.11638 c -1.21206,-1.21206 -1.56691,-0.88355 -1.173,1.086 0.29536,1.47683 0.34352,1.50472 1.22319,0.70865 0.89937,-0.81394 0.89848,-0.84598 -0.0502,-1.79465 z m -59.69299,0.14003 c 0,-0.25732 -0.37891,-0.60157 -0.84201,-0.76502 -0.46311,-0.16348 -1.32834,-0.73488 -1.92271,-1.26987 -0.59438,-0.53497 -1.24394,-0.80586 -1.44345,-0.60197 -0.19953,0.20391 0.47884,1.10137 1.50745,1.99437 1.74683,1.51652 2.70072,1.74344 2.70072,0.64249 z m -75.05945,-0.96229 c 0,-0.52195 -0.37891,-1.06629 -0.84202,-1.20961 -0.4631,-0.1433 -1.21799,-0.4613 -1.67749,-0.70662 -1.97457,-1.05412 -1.82074,0.36041 0.22173,2.039 1.69086,1.3896 2.29778,1.35718 2.29778,-0.12275 z m 137.60899,0.3245 c 0,-0.62083 -3.35161,-3.64907 -4.03872,-3.64907 -0.80769,0 -0.11293,1.56219 1.27211,2.8603 1.68066,1.5752 2.76661,1.88481 2.76661,0.78877 z m -58.35974,-2.11605 c 3.87005,-3.89226 4.28065,-4.96266 2.93491,-7.65128 -0.36721,-0.73363 -0.37949,-1.25889 -0.0393,-1.68403 0.27187,-0.33981 0.64485,-1.86282 0.82886,-3.38445 0.39473,-3.26415 -0.0522,-3.48943 -3.10272,-1.56374 -1.04801,0.66159 -2.11796,1.20288 -2.37764,1.20288 -0.81641,0 -1.47562,3.56455 -1.43409,7.75448 0.0462,4.67025 0.37954,7.16119 0.95811,7.16119 0.22404,0 1.22841,-0.82577 2.23192,-1.83505 z m 65.24735,-1.2338 c 0.14003,-0.3647 0.0527,-0.86489 -0.19398,-1.11153 -0.27713,-0.27713 1.46787,-2.38337 4.56818,-5.51385 2.75911,-2.78601 5.46696,-5.80423 6.01745,-6.70718 0.87298,-1.43197 1.00109,-1.50342 1.00266,-0.55916 9.6e-4,0.59542 0.20382,1.08261 0.45074,1.08261 0.55837,0 3.49343,-3.59155 4.52182,-5.53324 l 0.76451,-1.44345 0.0193,1.32316 c 0.0222,1.51828 0.65582,1.69579 1.71769,0.48114 2.8637,-3.2757 3.53791,-4.25019 3.86488,-5.5862 l 0.36973,-1.51076 0.28125,2.10132 c 0.26705,1.99514 0.32068,2.05593 1.06143,1.20288 1.28912,-1.48449 2.03085,-3.16131 2.63224,-5.95053 l 0.57058,-2.64633 0.35546,2.04489 c 0.19551,1.12471 0.52046,2.04489 0.72212,2.04489 0.8025,0 2.53589,-4.74328 2.76508,-7.56637 0.13366,-1.64751 0.37636,-2.91305 0.53912,-2.81234 0.16276,0.10074 0.36534,2.00153 0.45016,4.22408 0.11329,2.96822 -0.0624,4.58225 -0.66167,6.08006 -1.06158,2.65315 -0.6309,3.02449 0.81342,0.70133 1.03132,-1.65887 1.13747,-2.36943 1.13747,-7.61375 0,-5.73003 -0.0145,-5.80739 -1.59759,-8.27443 -2.05568,-3.2044 -5.05214,-5.90918 -6.54642,-5.90918 -1.53476,0 -4.06794,2.1751 -5.03578,4.32397 -0.73459,1.63096 -2.27635,3.71742 -5.64465,7.63892 -2.16326,2.51852 -4.03019,5.38297 -4.03019,6.18355 0,0.37991 -0.86607,2.14857 -1.92459,3.93033 -1.05853,1.78177 -1.92782,3.55178 -1.93176,3.93334 -0.0109,0.97969 -3.32006,4.7375 -3.34283,3.79512 -0.009,-0.41129 0.63819,-1.78262 1.44027,-3.04738 1.03305,-1.62894 1.73769,-3.72612 2.41618,-7.19118 0.81173,-4.14543 1.58009,-6.15484 5.03719,-13.17311 2.24364,-4.55485 4.07935,-8.5197 4.07935,-8.81079 0,-0.29109 0.59543,-1.76084 1.32317,-3.26608 1.17515,-2.43069 1.32259,-3.27647 1.31799,-7.56112 -0.005,-4.74376 -0.0405,-4.89402 -2.12236,-8.99983 -1.16445,-2.29653 -2.42612,-4.29407 -2.8037,-4.43895 -0.75411,-0.28938 -2.26126,1.22597 -3.09003,3.10683 -0.66607,1.51159 -0.52536,4.14472 0.40794,7.6337 1.14736,4.28916 0.94171,9.93278 -0.47901,13.14529 -0.65047,1.4708 -1.42663,2.82498 -1.72483,3.00927 -0.29819,0.18429 -0.87486,1.13221 -1.28148,2.10648 -0.40664,0.97427 -1.70246,3.19465 -2.87961,4.93416 -1.17716,1.73952 -2.14029,3.30603 -2.14029,3.48112 0,0.65772 -3.12058,5.41019 -3.94868,6.01361 -0.58164,0.42383 -0.86282,1.25736 -0.86282,2.55768 0,2.51652 -0.57119,3.57874 -3.33189,6.19603 l -2.28381,2.16518 0.43539,9.38243 c 0.39679,8.55081 0.52245,9.45707 1.4177,10.22445 1.20816,1.03559 4.98048,1.16156 5.35757,0.17894 z m -144.4966,-0.78036 c 0,-0.52926 -0.27066,-0.96363 -0.60144,-0.96527 -0.33079,-10e-4 -1.19686,-0.31357 -1.9246,-0.69319 -1.91603,-0.99949 -1.72356,0.1764 0.24688,1.50827 1.95968,1.32455 2.27916,1.34561 2.27916,0.15021 z m 136.74499,-0.24368 c 0.0342,-0.60039 -3.00887,-2.29972 -3.40378,-1.90085 -0.36105,0.36465 2.40754,2.67819 2.9807,2.49081 0.21833,-0.0713 0.40871,-0.33686 0.42308,-0.58996 z m -62.40728,-0.71863 c -0.16348,-0.26463 -0.51387,-0.48114 -0.7785,-0.48114 -0.26464,0 -0.34734,0.21651 -0.18378,0.48114 0.16348,0.26463 0.51387,0.48117 0.77851,0.48117 0.26463,0 0.34733,-0.21654 0.18377,-0.48117 z m 22.34379,-0.71158 c 2.40338,-0.32757 6.43513,-2.19856 8.1347,-3.77505 1.87506,-1.73927 2.35387,-3.20666 2.93209,-8.98557 0.30449,-3.04328 0.73756,-5.96626 0.96238,-6.49554 0.56854,-1.33849 1.57226,-7.51869 1.27017,-7.82079 -0.43796,-0.43797 -3.20538,0.95353 -5.18388,2.60653 -1.05702,0.88309 -2.11983,1.60564 -2.36182,1.60564 -0.24198,0 -2.22429,1.15409 -4.40512,2.56464 -2.18082,1.41056 -4.37385,2.71431 -4.8734,2.89723 -0.96343,0.35278 -0.96337,0.48619 0.002,7.96538 0.24767,1.9178 0.18957,2.51091 -0.22115,2.25708 -0.30633,-0.18937 -0.55701,-0.86471 -0.55701,-1.50074 0,-0.63604 -0.44859,-2.3554 -0.99688,-3.8208 -0.72782,-1.94531 -1.24325,-2.66439 -1.90979,-2.66439 -1.24625,0 -4.78575,1.89172 -4.81724,2.57463 -0.0145,0.30407 -0.31701,2.28499 -0.67331,4.40205 -0.53132,3.15687 -0.53576,4.02712 -0.0247,4.83832 1.10513,1.75413 7.15773,4.13087 9.62476,3.77949 0.52926,-0.0755 1.92325,-0.26805 3.09776,-0.42811 z m -96.94819,-1.17077 c 0.29644,-0.47963 -3.15184,-3.41029 -4.01262,-3.41029 -0.95423,0 -0.56511,0.69357 1.27209,2.26739 1.94249,1.66402 2.32092,1.82185 2.74053,1.1429 z m 137.09846,-0.25395 c -0.26643,-0.6943 -2.25182,-2.19405 -2.9045,-2.19405 -0.19113,0 0.27479,0.64956 1.03539,1.44345 1.4822,1.54709 2.3009,1.87586 1.86911,0.7506 z m -136.83177,-2.86825 c 0,-0.37081 -0.75782,-1.12132 -1.68403,-1.6678 -0.92623,-0.54648 -1.68402,-1.21741 -1.68402,-1.49097 0,-0.27356 -0.32479,-0.49738 -0.72174,-0.49738 -1.27369,0 -0.77352,1.3307 1.07193,2.85187 1.93133,1.59196 3.01786,1.88154 3.01786,0.80428 z m 136.64668,-0.19807 c 0,-0.21513 -0.64954,-1.01345 -1.44345,-1.77406 -1.67102,-1.60094 -2.02039,-0.67616 -0.39727,1.05158 1.06043,1.12877 1.84072,1.43505 1.84072,0.72248 z m -10.56431,-7.30727 c -0.2906,-3.47469 -0.78961,-3.01989 -1.28184,1.16825 -0.19868,1.69052 -0.0882,2.91407 0.33313,3.68798 l 0.63046,1.15814 0.2899,-1.44345 c 0.15948,-0.79391 0.17221,-2.85082 0.0284,-4.57092 z m -127.81633,2.08155 c -1.87545,-1.58675 -3.07754,-2.02394 -3.07754,-1.11927 0,0.26464 0.1713,0.48117 0.38091,0.48117 0.20949,0 1.22511,0.79629 2.25694,1.76953 1.3109,1.23648 1.94207,1.57149 2.09521,1.1121 0.12057,-0.3616 -0.62446,-1.37119 -1.65552,-2.24353 z m 137.8995,0.49753 c 0,-0.75073 -1.27575,-2.05002 -2.04489,-2.08265 -0.63119,-0.0267 -0.38909,1.08062 0.43544,1.9917 0.98755,1.09124 1.60945,1.12638 1.60945,0.0909 z m -63.43269,-3.30133 c -0.19431,-3.76817 -0.44655,-4.00142 -6.29855,-5.82387 -2.26894,-0.7066 -4.7749,-1.56098 -5.56879,-1.89864 -0.79389,-0.33765 -2.47191,-0.76547 -3.72891,-0.95072 l -2.28547,-0.33681 -0.0682,1.61837 c -0.0669,1.58535 -0.0742,1.57912 -0.36087,-0.30622 -0.28723,-1.88955 -0.34517,-1.9382 -3.17948,-2.67062 -1.58779,-0.41032 -3.49642,-1.00574 -4.24137,-1.32316 -0.74498,-0.31744 -1.61105,-0.57994 -1.92462,-0.58336 -0.31355,-0.004 -1.96094,-0.44214 -3.66086,-0.97497 -1.69992,-0.53282 -3.25423,-0.80067 -3.45405,-0.59522 -0.1998,0.20542 -0.45232,1.13134 -0.56116,2.05755 -0.17457,1.48639 -0.20691,1.42536 -0.27486,-0.52013 -0.0615,-1.761 -0.29466,-2.31314 -1.1596,-2.74621 -1.18757,-0.59458 -8.34087,-2.72932 -10.82588,-3.23071 -0.86005,-0.17348 -1.56374,-0.47207 -1.56374,-0.66339 0,-0.53792 -4.70639,-2.10316 -5.27228,-1.75344 -0.27583,0.1704 -0.53002,0.8926 -0.56487,1.60474 -0.0536,1.09742 -0.10874,1.03899 -0.36085,-0.38346 -0.3593,-2.02667 -2.21046,-3.12936 -8.90922,-5.30704 -2.43167,-0.79051 -5.26953,-1.86979 -6.30636,-2.39838 -1.03681,-0.5286 -2.38062,-0.96109 -2.98625,-0.96109 -0.9146,0 -1.10686,0.26489 -1.13495,1.56373 -0.0338,1.56622 -0.77844,3.91233 -0.95436,3.0072 -0.0515,-0.26463 -0.048,-1.59657 0.007,-2.95988 0.0998,-2.44702 0.0806,-2.48317 -1.50404,-2.82705 -0.88282,-0.1916 -1.71338,-0.49248 -1.84569,-0.66862 -0.29269,-0.38964 -6.57485,-1.85231 -9.79076,-2.27959 -1.73841,-0.23097 -2.44156,-0.13839 -2.75924,0.36338 -0.63866,1.00871 -0.52741,4.57436 0.1604,5.1395 0.33078,0.27182 3.09137,1.08433 6.13465,1.80559 3.04328,0.72127 5.96737,1.57821 6.49796,1.90432 0.5306,0.32612 3.34533,1.18648 6.25494,1.91189 2.90964,0.72542 5.51341,1.50009 5.78617,1.72152 0.27276,0.2214 2.65446,0.97609 5.29266,1.67706 2.63821,0.70095 5.91198,1.78369 7.27509,2.40606 1.36309,0.62237 4.06956,1.60739 6.01437,2.18892 1.9448,0.58155 3.75254,1.20923 4.01717,1.39484 0.26463,0.1856 2.64633,1.03427 5.29264,1.8859 2.64633,0.85165 5.46106,1.83776 6.25497,2.19139 0.79389,0.35363 2.20127,0.79389 3.12747,0.97838 2.59936,0.51774 8.21317,2.24633 9.55346,2.94168 0.66189,0.34339 1.40555,0.49942 1.65258,0.34675 0.24705,-0.15275 0.58735,-0.0724 0.75623,0.17858 0.16894,0.2509 1.93094,0.96244 3.9157,1.58115 1.98475,0.61874 3.87355,1.32903 4.19734,1.57842 0.89182,0.68693 7.4573,3.14063 8.55314,3.19655 0.8842,0.0451 0.9492,-0.2049 0.80088,-3.08089 z m 87.73078,2.64684 c 0.16349,-0.26463 0.0809,-0.48114 -0.18378,-0.48114 -0.26463,0 -0.61497,0.21651 -0.77852,0.48114 -0.16349,0.26463 -0.0809,0.48115 0.18379,0.48115 0.26464,0 0.61496,-0.21652 0.77851,-0.48115 z m -160.46363,-1.6035 c 0,-0.70226 -3.4832,-3.68916 -4.30215,-3.68916 -1.14022,0 -0.35974,1.76593 1.31292,2.97061 1.99619,1.43769 2.98923,1.6764 2.98923,0.71855 z m 134.94371,-2.07849 c -1.23369,-0.90208 -1.51279,-0.3658 -0.43146,0.82906 0.61515,0.67973 0.97092,0.81028 1.10575,0.40577 0.10929,-0.32803 -0.19409,-0.8837 -0.67429,-1.23483 z m -136.74661,-3.15883 c -1.57928,-1.57929 -2.15748,-1.90117 -2.60718,-1.45147 -0.31782,0.31782 -0.48402,0.64645 -0.36934,0.73032 0.11456,0.0838 0.92879,0.73701 1.80913,1.45147 2.63895,2.14162 3.5004,1.60268 1.16739,-0.73032 z m 135.4821,-1.17407 c 2.21167,-0.2656 2.93331,-0.64405 5.22932,-2.74248 l 2.66359,-2.43436 -0.35989,-2.66628 c -0.19794,-1.46646 -0.42528,-3.78956 -0.5052,-5.16245 -0.0798,-1.3729 -0.37663,-2.92841 -0.65936,-3.4567 -0.28274,-0.5283 -0.51408,-1.69903 -0.51408,-2.60163 0,-1.03003 -0.3583,-1.96535 -0.96228,-2.51196 -0.93853,-0.84934 -0.96231,-0.8404 -0.96231,0.36199 0,0.8758 -0.72101,1.88111 -2.48956,3.47118 -2.87368,2.5837 -5.06047,3.62467 -7.61444,3.62467 -2.16134,0 -3.33,1.05171 -2.40592,2.16517 0.41354,0.49826 1.5145,0.72173 3.55587,0.72173 3.02292,0 4.90557,-0.84199 7.87146,-3.52044 1.84157,-1.66307 1.19064,-0.1462 -0.72173,1.68186 -2.57401,2.46057 -3.56921,2.84441 -7.12151,2.74668 -1.73492,-0.0478 -3.37512,0.13384 -3.64486,0.40368 -0.26976,0.26975 -0.42057,1.22168 -0.33514,2.11537 l 0.1553,1.62492 3.64001,0.13894 3.63999,0.13893 2.20765,-1.94323 c 2.06195,-1.81501 3.26284,-2.40411 3.26284,-1.60059 0,0.18845 -0.91115,1.27104 -2.02478,2.40576 l -2.02477,2.06309 h -3.96121 c -2.17867,0 -4.08704,0.2036 -4.24085,0.45247 -0.15385,0.24886 0.19904,0.8984 0.78407,1.44345 1.39803,1.30246 4.60501,1.31581 6.89662,0.0287 0.94232,-0.52926 1.98553,-0.96231 2.31827,-0.96231 0.33273,0 1.35461,-0.64075 2.27082,-1.42388 0.91622,-0.78315 1.86875,-1.4327 2.11674,-1.44345 0.8658,-0.0375 -2.2605,2.80252 -3.75517,3.4114 -0.82898,0.33768 -1.73664,0.91633 -2.01705,1.28587 -0.30464,0.40152 -1.80534,0.77591 -3.72892,0.93032 -1.77049,0.14221 -3.21907,0.42723 -3.21907,0.63358 0,0.89616 2.45306,1.1247 6.65551,0.62004 z m -56.88319,-2.93128 c 0.60862,-0.59542 1.35412,-1.08258 1.65664,-1.08258 0.30253,0 2.23987,-1.19086 4.3052,-2.64633 2.06533,-1.45549 3.87472,-2.64633 4.02088,-2.64633 0.14621,0 0.80702,-0.5413 1.46862,-1.20288 0.89745,-0.89746 1.01211,-1.20288 0.45157,-1.20288 -1.1812,0 -7.50987,1.49221 -8.69335,2.04975 -1.62376,0.76498 -3.50298,0.51557 -6.06184,-0.80455 -1.27522,-0.65789 -3.25841,-1.33711 -4.40706,-1.50936 -1.84567,-0.27678 -2.33127,-0.13548 -4.17694,1.21594 -1.14867,0.84103 -3.16635,2.2159 -4.48378,3.0553 -1.31743,0.83937 -2.31831,1.74267 -2.22418,2.0073 0.0942,0.26463 1.82156,0.97071 3.83875,1.56905 2.01722,0.59833 4.34023,1.40568 5.16228,1.79408 3.78346,1.78766 5.15921,2.04533 6.63905,1.24342 0.76867,-0.41655 1.89554,-1.24451 2.50416,-1.83993 z m 6.45109,2.03285 c -0.0353,-0.25801 -0.60031,-0.79389 -1.2557,-1.19084 -1.05924,-0.64153 -1.24222,-0.64153 -1.64687,0 -0.3468,0.54982 -0.14221,0.85953 0.85876,1.30023 1.45378,0.64004 2.14114,0.60326 2.04381,-0.10948 z m 7.09344,-4.19803 c -0.27169,-0.83405 -2.68134,-1.94175 -3.52213,-1.61911 -1.02829,0.39461 -0.83923,1.23029 0.39009,1.7244 1.62857,0.65461 3.36061,0.59638 3.13204,-0.10529 z m -32.80714,-1.84404 c 0.49876,-0.5511 1.63414,-1.3059 2.52307,-1.67733 2.47964,-1.03605 6.34204,-3.66787 6.05782,-4.12775 -0.13948,-0.22557 -0.66098,-0.41015 -1.159,-0.41015 -0.49804,0 -1.02526,-0.19376 -1.17163,-0.43061 -0.31946,-0.51689 -9.04356,-3.41858 -10.27818,-3.41858 -0.47721,0 -1.08289,-0.21526 -1.34599,-0.47836 -0.26309,-0.26309 -1.11832,-0.52254 -1.90054,-0.57655 -0.7822,-0.054 -1.85524,-0.35879 -2.3845,-0.6773 -0.52926,-0.3185 -1.7201,-0.73551 -2.64633,-0.92667 -0.92621,-0.19116 -2.55009,-0.74005 -3.60862,-1.21974 -1.05854,-0.4797 -4.11562,-1.45037 -6.79354,-2.15705 l -4.86892,-1.28488 -3.37143,2.22113 c -1.85429,1.2216 -4.04776,2.45685 -4.87437,2.74502 -0.8266,0.28816 -1.50293,0.6794 -1.50293,0.86941 0,0.60352 3.50554,2.30891 6.49552,3.15997 1.58781,0.45194 3.10343,0.99013 3.36807,1.19599 0.26463,0.20584 2.17022,0.86976 4.23464,1.47535 l 3.75348,1.1011 2.83882,-2.002 c 1.56135,-1.10107 3.01566,-2.00197 3.23179,-2.00197 0.21613,0 1.20104,-0.5491 2.18868,-1.22023 0.98765,-0.67112 1.79571,-0.99726 1.79571,-0.72475 0,0.63033 -3.77936,3.38843 -4.64312,3.38843 -0.35724,0 -0.64952,0.16367 -0.64952,0.36369 0,0.20003 -0.66001,0.65585 -1.46669,1.01291 -1.67893,0.74316 -1.64938,1.67302 0.0609,1.91727 0.64085,0.0915 1.39412,0.35403 1.67391,0.5834 0.2798,0.22935 1.68715,0.72601 3.12748,1.1037 5.42063,1.42139 8.40707,2.3564 8.84965,2.7707 0.72764,0.68114 1.49049,0.50351 2.46575,-0.57415 z m -58.49571,-0.20085 c -0.32943,-0.39695 -0.8155,-0.72172 -1.08013,-0.72172 -0.2684,0 -0.21629,0.31913 0.11784,0.72172 0.32943,0.39694 0.8155,0.72173 1.08013,0.72173 0.26839,0 0.21629,-0.31913 -0.11784,-0.72173 z m 91.21312,-0.49148 c -0.50995,-0.3858 -1.04498,-0.58365 -1.18895,-0.43968 -0.302,0.302 0.92001,1.16085 1.63498,1.14907 0.26463,-0.004 0.0638,-0.32359 -0.44603,-0.70939 z m 4.53581,-1.3742 c 0,-0.95049 -1.30393,-1.89944 -2.15906,-1.57129 -0.99444,0.3816 -0.91939,1.63234 0.11421,1.90243 1.56987,0.41025 2.04489,0.33333 2.04489,-0.33114 z m 5.17773,-1.38208 c -0.10729,-0.33078 -1.0197,-0.99536 -2.02754,-1.47683 -1.41316,-0.67509 -1.95568,-0.74391 -2.37103,-0.30073 -0.39271,0.41902 -0.39416,0.62826 -0.005,0.77247 0.29327,0.10875 0.94281,0.50786 1.44345,0.88685 1.1421,0.86458 3.22967,0.94796 2.96051,0.11821 z m -24.78293,-13.15047 c 0.1994,-6.06504 0.22888,-16.5016 0.0655,-23.19236 l -0.29703,-12.16501 -1.26838,-0.62581 c -0.69763,-0.34419 -3.00053,-1.12245 -5.1176,-1.72945 -2.11705,-0.607 -4.07812,-1.28442 -4.35792,-1.50537 -0.27978,-0.22095 -1.68715,-0.71072 -3.12747,-1.0884 -4.9857,-1.30736 -8.39466,-2.35408 -8.87371,-2.72469 -0.51204,-0.39615 -4.89317,-1.66433 -8.32779,-2.41064 -1.14007,-0.24771 -2.76395,-0.77634 -3.60864,-1.17474 -2.0337,-0.9592 -8.68209,-2.9284 -11.39936,-3.37643 -1.19084,-0.19635 -2.38675,-0.53481 -2.65755,-0.75214 -0.27081,-0.21735 -2.21949,-0.86742 -4.33035,-1.44464 -2.11089,-0.57721 -4.26513,-1.1706 -4.78721,-1.31862 -0.52206,-0.14803 -1.49638,-0.55472 -2.16516,-0.90375 -0.66878,-0.34903 -1.5821,-0.63596 -2.02958,-0.63758 -0.44748,-0.001 -0.92979,-0.19094 -1.0718,-0.42069 -0.14203,-0.22976 -1.39974,-0.56664 -2.79501,-0.74863 -1.39526,-0.182 -3.024,-0.45052 -3.61942,-0.59673 l -1.08259,-0.26584 v 8.4632 c 0,9.52769 -0.75694,20.21254 -1.54558,21.81691 -0.39471,0.803 -0.3695,1.25243 0.1022,1.82072 0.4916,0.59233 0.50363,0.98369 0.056,1.8207 -0.37334,0.69804 -0.52298,3.05784 -0.43339,6.83419 0.12657,5.33364 0.20933,5.78106 1.09917,5.94156 0.52928,0.0955 1.61187,0.45159 2.40576,0.79142 2.34768,1.00488 4.10917,1.57757 8.16267,2.65382 2.10776,0.55963 4.05643,1.19784 4.33035,1.41821 0.27393,0.22039 3.42102,0.98377 6.99358,1.69641 3.57254,0.71264 7.14508,1.60028 7.93897,1.97255 1.35973,0.63759 5.7943,1.92714 10.94617,3.18308 1.25702,0.30644 2.28546,0.71246 2.28546,0.90226 0,0.18978 1.46149,0.71797 3.24777,1.17373 4.60468,1.17487 8.01919,2.25426 8.29984,2.62371 0.13239,0.17421 2.83878,0.94359 6.01438,1.70979 3.17559,0.7662 6.63987,1.8881 7.69841,2.4931 1.05853,0.60502 2.14111,1.03106 2.40574,0.94676 0.28808,-0.0918 0.62665,-4.57851 0.84371,-11.1806 z m -18.25086,3.00971 c -0.84107,-0.31066 -1.6891,-0.72723 -1.88452,-0.9257 -0.19541,-0.19847 -0.81718,-0.36087 -1.38174,-0.36087 -1.8575,0 -2.18121,-0.89498 -2.18121,-6.03041 0,-4.9253 0.20293,-5.823 1.1586,-5.12519 0.28898,0.21098 2.20343,0.78665 4.25434,1.27922 3.45669,0.83022 4.2899,1.29333 3.36044,1.86776 -0.20264,0.1253 -1.54894,-0.0786 -2.99176,-0.45275 -3.53698,-0.91748 -3.85703,-0.87328 -3.85703,0.53271 0,1.25185 0.80566,1.79617 3.52252,2.37988 0.78198,0.16803 1.26638,0.53905 1.14274,0.87531 -0.22899,0.62279 -0.23388,0.62303 -2.62037,0.11711 -1.5241,-0.32311 -1.56374,-0.28979 -1.56374,1.31456 0,1.6043 0.0764,1.66847 3.0072,2.52843 3.28781,0.96469 4.34068,1.55628 3.93578,2.21142 -0.3529,0.57103 -2.02877,0.48021 -3.90125,-0.21141 z m -12.37913,-4.77794 c -0.50449,-0.85838 -1.3279,-2.38592 -1.82979,-3.39451 -0.75033,-1.50785 -1.13254,-1.80719 -2.15028,-1.68402 -0.93435,0.11311 -1.37036,0.56254 -1.77882,1.83381 -0.37843,1.17778 -0.82839,1.68402 -1.49681,1.68402 -1.19271,0 -1.51526,-1.41646 -0.67858,-2.97984 0.48691,-0.90979 0.49964,-1.37137 0.0573,-2.07963 -0.35969,-0.57594 -0.39539,-1.01728 -0.0971,-1.20158 0.25921,-0.16022 0.4713,-1.14456 0.4713,-2.18749 0,-1.57969 0.16167,-1.8962 0.96882,-1.8962 0.53286,0 1.3448,0.19625 1.80432,0.43611 0.45952,0.23987 1.80981,0.69426 3.00067,1.00977 1.19084,0.3155 2.54407,0.91063 3.00718,1.32249 1.15634,1.02837 1.0788,3.26617 -0.14276,4.12182 l -0.9848,0.68978 1.05587,2.17334 c 1.59377,3.28043 0.55054,5.14146 -1.20639,2.15213 z m 0.17967,-6.83424 c 0.47966,-0.57797 0.30149,-0.87389 -1.00424,-1.66795 -1.99595,-1.21381 -4.22311,-1.72054 -4.84199,-1.10166 -0.85887,0.85887 -0.22665,2.69048 1.05059,3.04368 2.08148,0.57558 4.19053,0.45504 4.79564,-0.27407 z m -13.41294,3.88239 c -0.30556,-0.36817 -1.55672,-0.81955 -2.78035,-1.00304 -3.30007,-0.49487 -3.51802,-0.89682 -3.51802,-6.48783 0,-5.47007 0.31024,-5.95291 3.01109,-4.68643 0.85792,0.40229 2.48004,0.97576 3.60472,1.2744 2.42302,0.64335 2.8281,1.72434 0.48117,1.28396 -5.40605,-1.01437 -5.17237,-1.03773 -5.17237,0.51717 0,1.27931 0.2293,1.49083 2.28547,2.10825 3.24051,0.97304 2.35984,2.08597 -1.08261,1.36809 -0.74885,-0.15621 -0.99536,0.0856 -1.1114,1.09011 -0.17295,1.49705 0.60136,2.04193 3.60974,2.54015 2.10249,0.34819 3.33964,1.30112 2.80734,2.16237 -0.43628,0.70593 -1.47784,0.62437 -2.13478,-0.16712 z m -12.86761,-6.43578 c 0.37423,-2.34034 -0.49137,-3.28981 -3.42719,-3.75926 -2.01808,-0.32272 -2.03232,-0.31464 -2.03232,1.15156 0,1.59559 -0.84332,2.50439 -1.43522,1.54669 -0.20092,-0.3251 -0.33266,-2.57216 -0.29274,-4.99345 0.058,-3.51989 0.21438,-4.40233 0.77998,-4.40233 0.44834,0 0.73526,0.52863 0.78347,1.44346 0.0418,0.79389 0.096,1.66742 0.12021,1.94114 0.0622,0.70098 2.64305,2.14864 3.83042,2.14864 1.03299,0 2.23174,-1.62143 1.76142,-2.38245 -0.40429,-0.65416 0.41159,-0.98454 1.21144,-0.49056 0.52978,0.32717 0.69875,1.51221 0.69875,4.90004 0,4.34643 -0.0315,4.47294 -1.15087,4.63119 -1.08785,0.15385 -1.13424,0.0587 -0.84745,-1.73467 z m 43.13668,0.37362 c -0.39697,-0.25405 -1.82312,-0.71032 -3.16927,-1.01392 -4.29083,-0.9678 -4.51098,-1.33692 -4.13279,-6.92958 l 0.32537,-4.8115 2.48725,0.0633 c 2.69218,0.0686 7.85748,1.49354 7.85748,2.16774 0,0.57698 -1.64476,0.49312 -5.17236,-0.26371 -2.84382,-0.61011 -3.01111,-0.59613 -3.07938,0.25749 -0.0396,0.49645 -0.0938,1.15152 -0.1202,1.45567 -0.0265,0.30416 0.81795,0.84803 1.87648,1.20859 3.41924,1.16465 3.28674,1.07538 2.6805,1.80584 -0.47334,0.57035 -0.76558,0.56431 -1.97884,-0.0409 -1.9384,-0.967 -3.1074,-0.66906 -3.1074,0.79198 0,1.15762 0.51599,1.55971 3.60862,2.81212 0.66157,0.26793 1.90655,0.77466 2.76662,1.12607 1.73258,0.70793 1.94393,1.11748 0.80266,1.55543 -0.92512,0.355 -0.77529,0.37182 -1.64467,-0.18458 z m -18.45093,-10.91962 0.27747,-4.72228 -2.0617,-0.96762 c -2.65178,-1.24456 -3.17974,-2.40632 -0.8722,-1.91928 0.89142,0.18812 2.27032,0.61862 3.06421,0.95663 2.28608,0.97331 4.20631,1.60502 5.88857,1.9372 1.52307,0.30072 2.40181,1.00491 1.89123,1.51551 -0.14057,0.14058 -1.3847,0.0127 -2.76474,-0.28256 -1.38004,-0.29596 -2.63262,-0.41466 -2.78352,-0.26377 -0.15093,0.15093 -0.38994,2.04992 -0.53122,4.22004 -0.23519,3.61274 -0.34669,3.95846 -1.32121,4.09705 -1.05214,0.14967 -1.06118,0.0971 -0.78689,-4.57092 z m -15.99213,-0.35412 c -2.19905,-0.95747 -3.56783,-2.95679 -3.56783,-5.21139 0,-1.59388 0.32353,-2.23986 1.92288,-3.83921 1.84939,-1.84936 2.0088,-1.90999 4.17009,-1.5859 2.7044,0.40555 4.3026,1.37828 5.23865,3.18842 1.03841,2.00803 0.89239,5.34827 -0.30007,6.86422 -0.85265,1.08397 -1.35838,1.26504 -3.48834,1.24895 -1.37013,-0.0109 -3.15905,-0.30966 -3.97538,-0.66509 z m 6.05518,-1.72185 c 1.50652,-1.50652 1.21496,-3.2286 -0.9057,-5.34925 -2.60374,-2.60374 -4.57541,-2.51198 -6.30939,0.29369 -0.77685,1.25698 -0.88095,1.84456 -0.50288,2.83893 1.05105,2.76448 5.80481,4.12979 7.71797,2.21663 z m -19.17596,-4.45063 c -1.41026,-3.11291 -3.17946,-9.4406 -2.75753,-9.86253 0.63672,-0.63672 1.6356,0.47347 1.91258,2.1257 0.31918,1.90396 2.68562,6.89016 3.27146,6.89313 0.18225,9.6e-4 1.13323,-1.29743 2.11327,-2.88521 0.98005,-1.58781 2.07589,-2.88691 2.43523,-2.88691 0.87871,0 0.84103,0.2083 -0.53224,2.94241 -2.20223,4.38452 -3.71408,6.68059 -4.39888,6.68059 -0.37485,0 -1.2946,-1.35324 -2.04389,-3.00718 z m 26.19633,-3.17708 c -0.13949,-0.22577 -1.88317,-0.68922 -3.87478,-1.02989 -1.99159,-0.34068 -3.82735,-0.86794 -4.07945,-1.17173 -0.25212,-0.30376 -0.52403,-1.94494 -0.60428,-3.64706 l -0.14585,-3.09476 -2.28546,-0.64366 c -1.25701,-0.35403 -2.28546,-0.83745 -2.28546,-1.07429 0,-0.58148 2.35846,-1.64747 6.91242,-3.12435 l 3.78494,-1.22748 2.47,2.25738 c 4.95751,4.53072 8.50432,8.01411 8.33372,8.18471 -0.096,0.096 -1.33246,-0.0449 -2.74749,-0.3132 -2.90658,-0.55122 -3.54219,-0.1533 -3.15561,1.97549 0.33646,1.85275 -0.18983,3.31929 -1.1912,3.31929 -0.48278,0 -0.99195,-0.1847 -1.13147,-0.41045 z m 59.85952,41.6003 c 0,-0.67602 -1.38367,-1.47451 -1.81233,-1.04587 -0.12712,0.12712 -0.10293,0.56527 0.0538,0.97364 0.355,0.92508 1.75857,0.98273 1.75857,0.0722 z m 5.29266,-0.25281 c 0,-0.6686 -3.10008,-2.445 -4.26685,-2.445 -1.47136,0 -1.26587,0.71406 0.53794,1.86924 1.60985,1.03097 3.72891,1.35816 3.72891,0.57576 z m 18.96609,-1.29361 c 1.11035,-0.42608 0.97236,-2.11368 -0.17276,-2.11368 -1.10723,0 -1.6621,0.73481 -1.28901,1.70706 0.3024,0.78804 0.39835,0.81472 1.46184,0.40662 z m -18.48494,-1.55123 c 0,-0.21991 -0.54567,-0.69189 -1.21259,-1.04881 -0.95496,-0.51108 -1.33747,-0.5241 -1.8003,-0.0613 -0.46282,0.46283 -0.43521,0.68409 0.13002,1.04145 0.89008,0.56271 2.88289,0.61015 2.88289,0.0686 z m -21.17061,-0.77464 c 0,-0.72229 -0.86383,-1.49013 -1.24621,-1.10775 -0.33561,0.33559 0.32879,1.80108 0.81653,1.80108 0.23632,0 0.42968,-0.312 0.42968,-0.69333 z m 23.57637,-0.49262 c 0,-0.82993 -1.73544,-1.87465 -2.41571,-1.45423 -0.80508,0.49757 -0.51817,1.19673 0.49109,1.19673 0.52928,0 0.96231,0.21652 0.96231,0.48115 0,0.26463 0.21651,0.48116 0.48114,0.48116 0.26465,0 0.48117,-0.31717 0.48117,-0.70481 z m -20.68946,-1.17272 c 0,-0.23876 -0.64956,-0.66053 -1.44345,-0.93729 -1.50199,-0.52359 -1.85762,-0.19756 -0.86608,0.79399 0.67448,0.67447 2.30953,0.77592 2.30953,0.1433 z m 24.0575,-0.27073 c 0,-0.95268 -1.74058,-1.82421 -2.90507,-1.45461 -1.32097,0.41926 -1.17574,1.03232 0.37904,1.60019 1.89693,0.69282 2.52603,0.65656 2.52603,-0.14567 z m -89.81608,-1.37062 c 1.36802,-0.87683 3.29924,-2.00866 4.29162,-2.51516 1.79503,-0.91617 2.35028,-2.00653 1.20286,-2.36211 -0.33079,-0.10256 -3.00549,-0.74161 -5.94378,-1.42025 -2.93829,-0.67863 -5.94951,-1.54888 -6.69161,-1.9339 -0.7421,-0.385 -2.40074,-0.95225 -3.68587,-1.26055 -1.97504,-0.47381 -2.65057,-0.43491 -4.3656,0.25131 -2.46206,0.98511 -6.61841,3.9655 -6.61841,4.74583 0,0.51415 5.85442,2.72105 7.21836,2.72105 0.31635,0 1.25745,0.30733 2.09136,0.68294 2.5412,1.14467 7.21079,2.56145 8.65188,2.62502 0.80248,0.0355 2.38359,-0.59478 3.84919,-1.53418 z m 112.30413,0.29975 c -0.44736,-0.44735 -0.97464,-0.6521 -1.17175,-0.45499 -0.19712,0.19711 -0.0398,0.55981 0.3494,0.806 1.1714,0.74081 1.69199,0.51861 0.82235,-0.35101 z m -42.79305,-0.71524 c 0.13784,-0.72357 -1.05489,-1.49479 -4.95538,-3.20405 -0.26463,-0.11602 0.005,0.31997 0.60144,0.96874 0.59542,0.64879 1.08258,1.39301 1.08258,1.65382 0,1.5903 2.97832,2.1197 3.27136,0.58149 z m 3.65681,-1.98504 c 1.0543,-0.77093 0.70578,-1.11541 -3.28065,-3.2427 -2.92815,-1.56255 -2.96296,-1.3317 -0.27947,1.85333 1.82857,2.17033 2.26118,2.33916 3.56012,1.38937 z m 21.55105,-0.34787 c -0.87596,-0.53406 -1.82896,-0.82499 -2.11778,-0.64648 -0.76816,0.47474 0.98755,1.62148 2.47925,1.6193 1.2019,-0.002 1.19328,-0.0249 -0.36147,-0.97282 z m 18.0019,-2.26313 c -0.48909,-0.48909 -0.89265,0.24726 -0.49136,0.89657 0.30315,0.49049 0.41648,0.49087 0.57945,0.002 0.11148,-0.3343 0.0718,-0.73863 -0.088,-0.89852 z m -35.63108,0.31175 c 0.44025,-0.71235 -1.86585,-3.05357 -5.21444,-5.29386 -3.23281,-2.1628 -3.09454,-1.74433 0.85992,2.60294 2.86674,3.15146 3.73737,3.68949 4.35452,2.69092 z m 18.7407,0.0391 c 0.16348,-0.26463 0.068,-0.48115 -0.21217,-0.48115 -0.28025,0 -0.50955,0.21652 -0.50955,0.48115 0,0.26463 0.0955,0.48114 0.21217,0.48114 0.11675,0 0.34601,-0.21651 0.50955,-0.48114 z m 5.53323,-0.0673 c 0,-0.86836 -1.56229,-1.82534 -3.00718,-1.84205 -1.68091,-0.0195 -1.68064,0.48965 9.5e-4,1.50444 1.56542,0.94474 3.00634,1.10656 3.00634,0.33761 z m -120.81606,-2.93995 c 1.87191,-1.38931 3.40616,-2.6843 3.40943,-2.87773 0.004,-0.19342 -0.58947,-0.47736 -1.3172,-0.63096 -0.72776,-0.15366 -1.86448,-0.58083 -2.52606,-0.94939 -1.16702,-0.65014 -1.1978,-0.79986 -1.03319,-5.02256 0.0933,-2.39383 0.0164,-4.35243 -0.1713,-4.35243 -0.18757,0 -1.12998,0.61603 -2.09429,1.36893 -0.96429,0.7529 -2.83583,1.97973 -4.15901,2.72627 -1.32315,0.74654 -2.83878,1.72318 -3.36804,2.1703 -0.52927,0.44714 -1.71956,1.2231 -2.6451,1.72437 -0.92553,0.50128 -1.89988,1.16557 -2.16518,1.47621 -0.26531,0.31064 -1.2402,0.97867 -2.16641,1.48449 -3.37776,1.84467 -2.11396,2.71891 5.43958,3.76281 1.27166,0.17567 3.22031,0.60344 4.33035,0.95045 3.67329,1.14829 4.77302,0.91046 8.46646,-1.83076 z m 101.12053,0.58451 c 0.8882,-0.47534 1.33638,-2.38881 0.55951,-2.38881 -0.35198,0 -5.56215,-3.58487 -8.40983,-5.78638 -1.55065,-1.19879 -1.79655,-0.56095 -0.30073,0.78001 0.56236,0.50413 2.3084,2.48634 3.88013,4.40493 1.57171,1.91858 2.96624,3.48835 3.09896,3.48835 0.13275,0 0.66008,-0.22416 1.17196,-0.4981 z m 20.41726,-0.46421 c -0.96829,-1.06995 -1.93696,-1.23967 -2.439,-0.42735 -0.421,0.68118 0.65602,1.37274 2.15271,1.38227 1.12674,0.007 1.13427,-0.0182 0.28629,-0.95492 z m 3.13713,-1.6724 c -0.67934,-0.81854 -2.41541,-0.99981 -2.41541,-0.2522 0,0.26463 0.42026,0.48115 0.9339,0.48115 0.51366,0 1.07662,0.23091 1.25107,0.51315 0.1744,0.28225 0.43457,0.39574 0.57811,0.25221 0.14348,-0.14348 -0.0127,-0.59097 -0.34767,-0.99431 z m 4.80185,0.0276 c 0,-0.53167 -3.46123,-2.25455 -4.20517,-2.09319 -0.58876,0.12766 -0.18693,0.50002 1.31826,1.22152 2.15684,1.03386 2.88691,1.25428 2.88691,0.87167 z m -22.97493,-1.05736 c 1.33956,-0.47251 1.00257,-1.0704 -1.44345,-2.5611 -1.25701,-0.76607 -3.01723,-1.85256 -3.91162,-2.41445 -2.86322,-1.79877 -2.69575,-0.78524 0.4207,2.54628 1.66693,1.78195 3.26963,3.12434 3.56157,2.98308 0.29193,-0.1413 0.9097,-0.39046 1.3728,-0.55381 z m 22.73435,-1.88372 c -1.65156,-1.35376 -2.16518,-1.47387 -2.16518,-0.50631 0,0.37489 0.59544,0.89909 1.32317,1.16489 2.14371,0.78294 2.37752,0.60007 0.84201,-0.65858 z m -17.32141,-1.27795 c 0.31621,-0.30425 -0.0145,-0.86177 -0.96231,-1.62626 -1.48067,-1.1933 -6.97668,-4.1315 -6.97668,-3.72981 0,0.12312 1.23096,1.61716 2.73544,3.3202 2.75177,3.11495 3.69758,3.485 5.20355,2.03587 z m 19.00544,-0.15057 c -1.66004,-0.94898 -2.97172,-0.93725 -1.71236,0.0145 0.5137,0.38853 1.37977,0.69875 1.92461,0.68936 0.90561,-0.0164 0.88739,-0.076 -0.21225,-0.70466 z m 3.84324,-0.1202 c -0.009,-0.60315 -3.36714,-2.57972 -3.86206,-2.27383 -0.86702,0.53585 -0.46436,1.23681 1.1014,1.91736 1.75576,0.76312 2.76954,0.89402 2.76066,0.35647 z m -19.56552,-1.44345 c 0.32088,-0.54496 -0.53648,-2.52604 -1.09319,-2.52604 -0.26806,0 -2.12234,-1.09833 -4.1206,-2.44075 -1.99828,-1.34241 -3.85556,-2.36664 -4.12726,-2.27606 -0.8095,0.26984 7.04107,7.60371 8.13943,7.60371 0.54402,0 1.08476,-0.16239 1.20162,-0.36086 z m 22.45839,-2.28547 c -0.32945,-0.39694 -1.16789,-0.71484 -1.86324,-0.70642 -1.2155,0.0146 -1.22823,0.0426 -0.33026,0.72172 0.51368,0.38854 1.35212,0.70642 1.86322,0.70642 0.77145,0 0.82753,-0.12257 0.33028,-0.72172 z m -17.41765,-0.81795 c 0.31757,-0.31757 0.57738,-0.82868 0.57738,-1.13585 0,-0.60029 -5.24834,-3.57943 -6.30587,-3.57943 -0.35086,0 0.53812,1.19086 1.97552,2.64633 1.43739,1.45547 2.73993,2.64633 2.89452,2.64633 0.15457,0 0.5409,-0.25983 0.85845,-0.57738 z m 3.44575,-4.11384 c -0.0127,-0.90522 -0.45905,-1.62712 -1.41317,-2.28546 -0.76705,-0.52926 -2.95784,-2.09903 -4.86844,-3.48834 -1.91057,-1.38932 -3.71047,-2.51918 -3.99976,-2.5108 -0.28929,0.009 0.0695,0.45949 0.79718,1.00244 0.72774,0.54294 1.32316,1.24791 1.32316,1.56659 0,0.98714 6.66557,6.97479 7.81869,7.02349 0.19848,0.009 0.35254,-0.58018 0.34234,-1.30792 z m 0.40493,-4.63425 c 0.0549,-1.46176 -0.2052,-1.80391 -2.56097,-3.36804 -1.44216,-0.95756 -2.80841,-1.741 -3.03611,-1.741 -0.22768,0 -0.82644,-0.45825 -1.33056,-1.01832 -1.20317,-1.33668 -5.00637,-3.95188 -5.00637,-3.44253 0,0.55658 11.10855,11.19694 11.68962,11.19694 0.10075,0 0.21075,-0.73217 0.24439,-1.62705 z m 3.9269,-3.60054 c -0.0349,-0.62601 -1.39223,2.12845 -1.39052,2.82185 9.7e-4,0.39695 0.3181,-0.007 0.70468,-0.89725 0.3866,-0.89044 0.69522,-1.75651 0.68584,-1.9246 z m -0.94525,-2.59116 c 0,-0.79414 -0.84714,0.1093 -1.12087,1.19544 -0.26503,1.05169 -0.25013,1.05718 0.42308,0.15603 0.38378,-0.51369 0.69779,-1.1219 0.69779,-1.35156 z m -3.36805,-0.60136 c 0,-1.91956 -0.12275,-2.16712 -1.08258,-2.18225 -0.59542,-0.009 -1.62389,-0.32648 -2.28546,-0.70466 -1.81911,-1.0399 -2.06435,-0.86865 -1.10979,0.77491 0.70331,1.21097 3.81947,4.27716 4.34688,4.27716 0.072,0 0.13093,-0.97432 0.13093,-2.16516 z m 4.8115,-2.64633 c 0.28325,-0.52927 0.40677,-0.96231 0.27443,-0.96231 -0.13239,0 -0.47232,0.43304 -0.75557,0.96231 -0.28326,0.52926 -0.40675,0.96229 -0.27444,0.96229 0.13239,0 0.47233,-0.43303 0.75558,-0.96229 z m -0.1333,-5.28873 c -0.22098,-1.00881 -2.27897,3.04595 -2.2472,4.42755 0.0189,0.82115 0.32852,0.49004 1.21575,-1.30008 0.65473,-1.32101 1.11887,-2.72838 1.03145,-3.12747 z m -51.40399,-0.4975 c 1.27915,-0.78707 2.53004,-1.43103 2.77976,-1.43103 0.2497,0 1.52487,-0.69515 2.83367,-1.54474 1.30883,-0.84961 5.43093,-3.08401 9.16022,-4.96533 3.7293,-1.88129 7.43595,-3.88725 8.23701,-4.45765 0.80104,-0.57039 2.05036,-1.26289 2.77626,-1.53887 0.72592,-0.27599 2.6062,-1.25572 4.1784,-2.17717 1.57222,-0.92144 3.05099,-1.67536 3.28616,-1.67536 0.90913,0 6.76532,-4.00842 6.59757,-4.51588 -0.0975,-0.29491 -1.78375,-0.90442 -3.74726,-1.35447 -6.09846,-1.39781 -9.3059,-2.2578 -10.30612,-2.76335 -1.3927,-0.7039 -11.63495,-2.91391 -13.50445,-2.91391 -1.80164,0 -1.92003,0.22697 -2.38435,4.57094 -0.16967,1.58779 -0.40897,3.25095 -0.53168,3.69591 -0.15548,0.56349 0.29702,1.05585 1.49062,1.62225 2.41905,1.14792 2.49881,1.57415 0.45447,2.42832 -1.72087,0.71903 -4.32703,2.56403 -6.91976,4.89875 -1.78265,1.60525 -3.00606,1.74497 -5.46608,0.6243 -1.20757,-0.5501 -2.44715,-1.0002 -2.75462,-1.0002 -0.30748,0 -1.88912,-0.63059 -3.51475,-1.40134 -1.62561,-0.77072 -4.57956,-1.88255 -6.56431,-2.47073 -1.98474,-0.58816 -4.69122,-1.56447 -6.01438,-2.1696 -2.30876,-1.05586 -10.90167,-3.59117 -12.14905,-3.58453 -0.33079,0.002 -0.60144,-0.16839 -0.60144,-0.37816 0,-0.20975 -1.02844,-0.65272 -2.28546,-0.9844 -6.37361,-1.6817 -6.00976,-1.52374 -5.34761,-2.3216 0.3397,-0.40931 1.88269,-1.60328 3.42887,-2.65327 1.54618,-1.05 3.0164,-2.44868 3.26716,-3.1082 0.57063,-1.5009 0.60273,-7.8726 0.0396,-7.8726 -0.22895,0 -0.93827,0.41062 -1.57628,0.91246 -0.63799,0.50186 -2.8865,1.62933 -4.99667,2.50547 -2.11018,0.87616 -3.94494,1.71774 -4.07725,1.87019 -0.13239,0.15239 -1.7562,0.88336 -3.60862,1.6243 -3.50242,1.4009 -8.40673,3.67219 -11.30704,5.23652 -0.92621,0.49957 -3.28394,1.67173 -5.23939,2.6048 -1.95546,0.93304 -4.42378,2.32552 -5.48514,3.09437 -1.06138,0.76886 -2.3303,1.39792 -2.81987,1.39792 -1.28695,0 -1.09318,0.9089 0.30726,1.44136 0.65856,0.25037 3.48709,1.00688 6.28563,1.68113 2.79855,0.67423 5.56163,1.52399 6.14018,1.88837 0.57854,0.36436 3.4336,1.24847 6.34456,1.96468 2.91096,0.7162 5.72569,1.48411 6.25495,1.70646 1.44649,0.60766 9.19932,2.86561 9.83927,2.86561 0.30704,0 1.46659,0.41029 2.57676,0.91177 1.11017,0.50145 3.96714,1.39806 6.34883,1.99244 2.3817,0.59438 4.55927,1.25856 4.83907,1.47595 0.2798,0.2174 1.79543,0.75218 3.36807,1.18838 1.57262,0.43621 3.94191,1.09532 5.26507,1.46468 1.32317,0.36936 3.08803,0.99489 3.92193,1.39009 0.83388,0.3952 1.91647,0.73501 2.40574,0.75514 0.48927,0.0202 1.6474,0.33298 2.57363,0.69519 2.09368,0.81877 3.25007,0.59025 6.20082,-1.22536 z m 75.59472,1.46749 c 0,-0.25823 -0.45607,-1.17843 -1.0135,-2.04489 -0.55741,-0.86645 -0.88218,-1.17874 -0.72171,-0.694 0.16039,0.48476 0.29176,1.40495 0.29176,2.04489 0,0.71348 0.27916,1.16353 0.72174,1.16353 0.39694,0 0.72171,-0.21128 0.72171,-0.46953 z m -73.9746,-21.72932 c 0.45724,-2.94721 1.02572,-5.59955 1.26328,-5.89408 0.23755,-0.29453 0.57698,-2.15941 0.75426,-4.14414 0.17731,-1.98475 0.63227,-5.49097 1.01103,-7.79162 0.37876,-2.30064 0.56696,-4.50013 0.41822,-4.88774 -0.14875,-0.3876 -0.95856,-0.9825 -1.79961,-1.32198 -0.84103,-0.33948 -1.70229,-0.9006 -1.91392,-1.24694 -0.67436,-1.10359 -1.97957,-0.68156 -3.40078,1.09962 -1.15905,1.45264 -1.58242,1.67766 -2.64633,1.40663 -0.69658,-0.17749 -3.15446,-0.28916 -5.46192,-0.24826 l -4.1954,0.0744 -2.46856,-2.46855 c -2.25858,-2.25858 -2.44863,-2.61989 -2.23447,-4.24765 0.12875,-0.9785 0.37253,-2.21213 0.54172,-2.7414 0.25492,-0.79742 -0.11747,-1.1684 -2.17355,-2.16516 -1.36463,-0.66158 -3.14444,-1.69005 -3.9551,-2.28547 -0.81066,-0.59544 -1.81077,-1.08178 -2.22249,-1.08078 -1.20569,0.004 -2.35031,3.66617 -2.93105,9.38062 -0.29582,2.91096 -0.72145,5.72569 -0.94582,6.25495 -0.22438,0.52926 -0.54251,4.58898 -0.70698,9.02157 -0.24214,6.52648 -0.17749,8.05927 0.33952,8.05927 0.35117,0 0.87438,-0.6249 1.16267,-1.38868 0.45305,-1.20024 0.71217,-1.35141 1.90981,-1.11411 l 1.38562,0.27454 -1.20286,0.29183 c -2.39019,0.57991 -1.40795,3.64583 1.05611,3.29651 1.27634,-0.18094 1.83399,-2.20048 0.79029,-2.86204 -0.46589,-0.29531 -0.35252,-0.40995 0.41066,-0.41528 1.40204,-0.009 1.70417,0.59762 1.09466,2.20076 -0.5644,1.48447 -0.0649,2.25927 1.82064,2.82474 0.8003,0.23997 1.08259,0.12802 1.08259,-0.42952 0,-0.83324 0.52339,-0.97791 1.22694,-0.33913 0.25139,0.22824 2.73052,1.11244 5.50917,1.96487 2.77863,0.85245 5.48511,1.75073 6.01438,1.99618 0.52926,0.24544 1.93661,0.74721 3.12747,1.115 1.19084,0.36782 1.77349,0.69015 1.29477,0.71632 -1.08175,0.0591 -0.58024,1.00721 0.53793,1.01695 0.44749,0.004 1.35491,0.30746 2.01651,0.67457 2.44022,1.35403 2.59999,1.14363 3.49059,-4.59679 z m -9.98613,-4.57224 c -4.83481,-1.51511 -7.15739,-2.55249 -5.74975,-2.56813 0.54251,-0.005 1.19204,0.17658 1.44346,0.40584 0.25139,0.22922 1.97271,0.80573 3.82515,1.28109 3.37968,0.86731 6.40241,2.12384 5.05206,2.1001 -0.39694,-0.007 -2.45385,-0.55548 -4.57092,-1.2189 z m 1.66684,-1.35176 c -0.38749,-0.3835 -3.44152,-1.3932 -6.7867,-2.24378 -3.34519,-0.85059 -6.59294,-1.93936 -7.21726,-2.4195 l -1.13508,-0.873 1.13015,-0.0109 c 0.62159,-0.005 1.81243,0.30579 2.64633,0.69259 1.46675,0.68036 8.19169,2.70096 11.13917,3.34691 0.79389,0.17404 1.98475,0.73641 2.64633,1.24985 l 1.20288,0.93351 -1.46064,0.0109 c -0.80335,0.005 -1.77767,-0.30308 -2.16518,-0.68659 z m -12.39686,-1.70195 c -0.87347,-0.20688 -1.7215,-0.50948 -1.8845,-0.67247 -0.51982,-0.51983 1.47544,-0.30462 3.71324,0.40049 2.35804,0.74301 1.00795,0.9438 -1.82874,0.27198 z m -7.2118,-1.22903 c -0.34123,-0.38616 -1.39315,-0.70209 -2.33762,-0.70209 -1.64369,0 -1.70113,-0.0567 -1.34137,-1.32316 0.20671,-0.72775 0.40918,-2.08099 0.44995,-3.0072 0.0407,-0.92621 0.33654,-2.17262 0.65727,-2.76979 0.32071,-0.59718 0.6692,-2.4328 0.77442,-4.07914 0.17494,-2.73816 0.29687,-3.0216 1.42948,-3.32451 0.97626,-0.26109 1.35562,-0.11057 1.79326,0.71108 1.01337,1.90275 1.96228,2.28795 3.07523,1.24836 1.17931,-1.10159 1.81947,-1.16507 2.57452,-0.25529 0.44124,0.53167 0.30464,0.87198 -0.65212,1.62456 -1.55246,1.22117 -2.19398,2.94595 -2.19398,5.89865 0,1.78908 -0.15784,2.29877 -0.65297,2.10877 -0.64018,-0.24566 -1.52758,1.37349 -1.84609,3.36838 -0.18853,1.18083 -0.9377,1.39795 -1.72998,0.50138 z m 1.40132,-2.32236 c 0.29949,-1.11988 0.17276,-1.38522 -0.84711,-1.77295 -1.84821,-0.70269 -2.57475,-0.55201 -3.02138,0.62661 -0.48383,1.27684 0.0727,2.1438 1.55878,2.42814 1.61841,0.30968 1.93038,0.13657 2.30971,-1.2818 z m 0.90311,-2.93373 c 0,-1.30313 -3.39391,-2.34575 -4.07078,-1.25056 -0.31162,0.50424 1.92856,1.8255 3.22877,1.90432 0.4631,0.028 0.84201,-0.26612 0.84201,-0.65376 z m -2.16517,-4.58786 c 0.16349,-0.26463 0.0809,-0.48116 -0.1838,-0.48116 -0.26463,0 -0.61495,0.21653 -0.7785,0.48116 -0.16349,0.26464 -0.0809,0.48115 0.18378,0.48115 0.26463,0 0.61496,-0.21651 0.77852,-0.48115 z m 21.68823,7.4646 c -1.03847,-0.37 -2.94468,-0.92619 -4.23603,-1.23598 -1.29135,-0.30978 -2.24041,-0.67076 -2.10903,-0.80215 0.30501,-0.305 8.56242,1.80945 9.17144,2.34849 0.68627,0.60746 -0.66763,0.45878 -2.82638,-0.31036 z m 1.99266,-1.47457 c -1.26569,-0.33313 -2.56986,-0.82864 -2.89817,-1.10113 -0.32832,-0.27249 -2.32402,-0.94625 -4.43489,-1.49728 -6.35462,-1.65882 -9.63685,-3.05361 -9.12703,-3.87852 0.2702,-0.43718 1.38908,-0.12403 4.31957,1.20888 0.79788,0.36292 3.07458,1.13157 5.05931,1.70815 1.98475,0.57658 4.47471,1.43687 5.53323,1.91174 1.05853,0.47489 2.5635,1.05996 3.34435,1.30017 2.29452,0.70582 0.72108,1.01064 -1.79637,0.34799 z m -10.16857,-1.11362 c -0.14148,-0.22894 -1.55474,-0.67151 -3.14058,-0.9835 -1.58583,-0.312 -3.03399,-0.81104 -3.21813,-1.10899 -0.22532,-0.36455 -0.0462,-0.43095 0.5477,-0.20305 0.48536,0.18625 1.87411,0.55576 3.0861,0.82113 3.26203,0.71425 3.88768,0.94629 3.88768,1.44193 0,0.56485 -0.81959,0.58774 -1.16277,0.0326 z m 16.55958,17.01593 c 0,-0.39694 -0.21653,-0.72173 -0.48116,-0.72173 -0.26463,0 -0.48114,0.32479 -0.48114,0.72173 0,0.39695 0.21651,0.72172 0.48114,0.72172 0.26463,0 0.48116,-0.32477 0.48116,-0.72172 z m 41.17345,-6.86375 c 1.02657,-0.70295 1.10373,-1.94635 0.17294,-2.78863 -0.51143,-0.46281 -0.92987,-1.10621 -0.92987,-1.42974 0,-0.32353 -0.32477,-0.85778 -0.72171,-1.18722 -0.43878,-0.36416 -0.72174,-1.41812 -0.72174,-2.68843 0,-1.14918 -0.34454,-3.10425 -0.76563,-4.34455 -0.59917,-1.76486 -0.64756,-2.51427 -0.22255,-3.44707 0.72195,-1.58451 0.47619,-1.72224 -1.8366,-1.02932 -1.57486,0.47184 -2.10381,0.46356 -2.71356,-0.0426 -0.53297,-0.44234 -0.90835,-0.47763 -1.26684,-0.11911 -0.33508,0.33508 -1.02797,0.35948 -2.02448,0.0713 -0.97417,-0.28174 -1.95586,-0.25701 -2.74975,0.0693 -1.50281,0.61766 -3.81739,-0.11493 -3.81739,-1.20812 0,-0.51766 -0.49573,-0.73362 -1.68402,-0.73362 -0.92623,0 -1.68404,-0.21652 -1.68404,-0.48115 0,-0.9838 -0.91486,-0.43092 -1.88535,1.13938 -0.55085,0.89129 -1.00155,1.8171 -1.00155,2.05735 0,0.24024 0.9202,0.86423 2.04489,1.38665 1.71523,0.79672 2.0692,1.20194 2.19566,2.51358 0.17712,1.83604 -0.72223,2.09665 -2.07537,0.60144 -1.12888,-1.24741 -3.75061,-1.33703 -3.51871,-0.1202 0.0918,0.48161 0.67325,0.90207 1.35845,0.98233 1.38037,0.16166 3.43079,1.0804 3.98044,1.78353 0.2072,0.26505 0.24573,1.61863 0.0856,3.00794 -0.28436,2.46797 -0.26259,2.52605 0.94645,2.52605 0.68062,0 1.2375,0.17313 1.2375,0.38488 0,0.45032 4.90213,1.53279 8.55636,1.88938 2.04444,0.1995 4.6918,0.68046 8.28389,1.50499 0.13239,0.0304 0.47289,-0.10383 0.75683,-0.29827 z m -11.94358,-4.78284 c 0.87178,-0.16785 1.08259,-0.52993 1.08259,-1.85909 0,-1.29391 -0.1952,-1.65056 -0.90339,-1.65056 -0.49686,0 -1.17291,0.32479 -1.50235,0.72173 -0.32945,0.39695 -0.93081,0.72172 -1.33636,0.72172 -0.62265,0 -0.60442,-0.14694 0.11711,-0.94418 1.36771,-1.51132 3.72213,-2.08322 6.02423,-1.46332 2.3072,0.62126 2.74893,1.39549 1.92756,3.37844 -0.5731,1.38361 -0.6996,1.43247 -3.54313,1.3693 -1.62185,-0.036 -2.46166,-0.15931 -1.86624,-0.27404 z m -4.21006,-6.64915 c 0,-0.81269 0.26738,-1.19142 0.84202,-1.19264 0.4631,-10e-4 1.55092,-0.43402 2.41737,-0.9623 1.8993,-1.158 3.24072,-1.1695 5.16075,-0.0442 2.41967,1.41815 1.883,2.2369 -1.34229,2.0478 -1.53216,-0.0898 -3.04779,0.0422 -3.36804,0.29316 -0.32028,0.25108 -1.28601,0.5898 -2.14608,0.75276 -1.42279,0.26954 -1.56373,0.18891 -1.56373,-0.89461 z m -6.41777,6.21007 c -1.40416,-0.76096 -2.10116,-0.64088 -1.541,0.26547 0.1744,0.28225 0.8998,0.50449 1.61192,0.49391 l 1.29477,-0.0193 z m -8.76153,-3.67201 c -0.18707,-0.86005 -0.55943,-2.10503 -0.82748,-2.76661 l -0.48736,-1.20288 -0.36567,1.20288 c -0.57904,1.90472 -0.51481,3.74755 0.13984,4.01169 1.5305,0.61759 1.8837,0.33216 1.54067,-1.24508 z m 8.44319,0.36087 c 0,-0.40095 -0.42768,-0.72172 -0.9623,-0.72172 -0.53461,0 -0.96229,0.32077 -0.96229,0.72172 0,0.40096 0.42768,0.72173 0.96229,0.72173 0.53462,0 0.9623,-0.32077 0.9623,-0.72173 z m -15.91178,-2.91097 c 0.0186,-0.80713 0.23902,-1.6732 0.48982,-1.92459 0.25079,-0.25139 0.60545,-1.9186 0.78816,-3.70486 0.28207,-2.75782 0.21948,-3.24777 -0.41493,-3.24777 -0.5852,0 -0.81246,0.80819 -1.04858,3.72892 -0.16585,2.05091 -0.4,4.8115 -0.5204,6.13467 -0.15567,1.71112 -0.0902,2.12789 0.2266,1.44345 0.24503,-0.52926 0.46074,-1.62268 0.47933,-2.42982 z m 5.65749,-8.29091 1.07062,-4.19492 -1.0243,-0.72174 c -1.69463,-1.19404 -6.15786,-2.93955 -6.68436,-2.61414 -0.82615,0.51059 0.93261,2.0071 3.71342,3.15968 1.98153,0.8213 2.59361,1.31525 2.59361,2.0931 0,0.55996 -0.18709,1.22379 -0.41573,1.4752 -0.42337,0.46549 -1.50886,4.47829 -1.50886,5.5779 0,0.47903 0.12329,0.48161 0.59249,0.0127 0.32588,-0.32588 1.07429,-2.48025 1.66311,-4.78746 z m -1.78182,-1.34303 c 0.004,-0.28389 -1.0211,-1.01804 -2.2781,-1.63145 -1.25702,-0.6134 -2.9747,-1.62612 -3.81711,-2.25045 -1.79756,-1.33227 -2.07699,-1.38628 -2.07699,-0.40155 0,0.40351 0.50998,0.92754 1.1333,1.16452 2.36932,0.90081 6.08426,3.50973 6.09132,4.27778 0.007,0.69282 0.0702,0.70348 0.4738,0.0791 0.25652,-0.39695 0.46972,-0.95398 0.47378,-1.23787 z m -16.73982,-2.85448 c 0.947,-3.72142 1.98397,-4.92579 5.63549,-6.54522 3.23559,-1.43496 3.38587,-0.83384 0.25845,1.03365 -3.58865,2.14291 -4.5928,3.53575 -4.69957,6.51873 -0.0829,2.3171 -0.0567,2.36347 1.33914,2.36347 1.21763,0 1.46968,-0.22464 1.74109,-1.55169 0.52282,-2.55633 1.76475,-3.93011 4.99131,-5.52119 2.98496,-1.47195 3.10333,-1.49039 4.67049,-0.72699 1.60268,0.78067 1.60841,0.7792 1.76575,-0.45781 0.2832,-2.22638 -0.30542,-3.5305 -1.59353,-3.5305 -0.68435,0 -1.3923,-0.40269 -1.69179,-0.9623 -0.33723,-0.63012 -1.00744,-0.96231 -1.94153,-0.96231 -0.7846,0 -1.42652,-0.18338 -1.42652,-0.40753 0,-0.81133 -1.76962,-2.42213 -3.00029,-2.73102 -0.6926,-0.17385 -1.63352,-0.72961 -2.09095,-1.23507 -0.45745,-0.50547 -1.20368,-0.91902 -1.65829,-0.91902 -2.10537,0 -10.76244,4.81175 -11.24488,6.25011 -0.13402,0.3996 -0.67993,1.91741 -1.2131,3.37288 -1.14869,3.13577 -1.26129,5.08975 -0.31426,5.45316 0.97995,0.37604 1.62591,-0.60778 2.01651,-3.07128 0.36145,-2.27977 2.7586,-5.26878 4.22551,-5.26878 0.42341,0 0.76984,-0.18893 0.76984,-0.41986 0,-0.23092 1.08258,-0.95561 2.40575,-1.61045 3.99246,-1.97584 3.03201,-0.89804 -2.45765,2.75795 -2.7669,1.84271 -3.24716,2.38541 -3.70177,4.18322 -1.11519,4.41008 -1.11522,4.62121 -4.7e-4,5.6596 1.72094,1.6033 2.26573,1.07209 3.48452,-3.39767 0.40355,-1.47993 1.1911,-3.27224 1.75011,-3.9829 1.11488,-1.41734 4.23937,-3.19398 5.59746,-3.1828 0.90501,0.007 0.42852,0.34892 -3.1086,2.22762 -1.82652,0.97012 -3.2713,3.69209 -3.7583,7.08065 -0.25153,1.75019 -0.16894,2.44618 0.32794,2.766 1.39864,0.90012 2.06918,0.16985 2.92231,-3.18265 z m 12.41683,2.96825 c 0,-0.35361 -1.29912,-1.20348 -2.8869,-1.88857 -1.58781,-0.68511 -2.88554,-1.09946 -2.88387,-0.92079 0.004,0.34463 2.32145,1.85973 4.32732,2.82816 1.52404,0.73581 1.44345,0.73687 1.44345,-0.0187 z m -23.09522,-11.60106 c 0,-0.93899 -0.51177,-1.43408 -2.52603,-2.44376 -1.38934,-0.6964 -2.86787,-1.57386 -3.28565,-1.94991 -1.13765,-1.02399 -1.40557,-0.84656 -1.40557,0.93083 0,1.49946 0.2144,1.72172 3.00717,3.11751 3.64177,1.82008 4.21008,1.86669 4.21008,0.34533 z m 1.81754,-2.93951 c 1.56536,-1.09642 1.36013,-2.42354 -0.47367,-3.06281 -0.84869,-0.29585 -2.0235,-0.98927 -2.61072,-1.54092 -1.20679,-1.13374 -1.9496,-0.88245 -2.62238,0.88708 -0.55629,1.46314 -0.0367,2.22046 2.41148,3.51472 2.11507,1.11816 1.99748,1.11096 3.29529,0.20193 z m 4.86794,-3.27977 c 0.82359,-0.99237 0.21246,-1.97434 -1.6473,-2.64682 -1.96624,-0.71101 -2.63242,-0.42077 -2.63242,1.14686 0,1.88136 3.07017,2.95737 4.27972,1.49996 z m 27.51001,16.59884 c 0.0186,-0.16531 0.18094,-0.65812 0.36087,-1.09493 0.28558,-0.69351 0.43089,-0.65538 1.14615,0.30071 0.79608,1.06416 0.78595,1.09493 -0.36086,1.09493 -0.649,0 -1.16477,-0.1353 -1.14616,-0.30071 z m 3.8162,-4.14894 c -0.52282,-0.62997 -0.47574,-0.86558 0.28865,-1.44418 1.34031,-1.0145 1.7174,-0.87698 1.5468,0.56407 -0.18196,1.53716 -0.97469,1.91727 -1.83545,0.88011 z"
       id="path487"
       inkscape:connector-curvature="0" />
  </g>
</svg>
