<?xml version="1.0" encoding="UTF-8" standalone="no"?>
<!-- Created with Inkscape (http://www.inkscape.org/) -->

<svg
   xmlns:dc="http://purl.org/dc/elements/1.1/"
   xmlns:cc="http://creativecommons.org/ns#"
   xmlns:rdf="http://www.w3.org/1999/02/22-rdf-syntax-ns#"
   xmlns:svg="http://www.w3.org/2000/svg"
   xmlns="http://www.w3.org/2000/svg"
   xmlns:sodipodi="http://sodipodi.sourceforge.net/DTD/sodipodi-0.dtd"
   xmlns:inkscape="http://www.inkscape.org/namespaces/inkscape"
   width="209.99998mm"
   height="266.09427mm"
   viewBox="0 0 210 266.09427"
   version="1.1"
   id="svg8"
   inkscape:version="0.92.3 (2405546, 2018-03-11)"
   sodipodi:docname="ninja.svg">
  <defs
     id="defs2" />
  <sodipodi:namedview
     id="base"
     pagecolor="#ffffff"
     bordercolor="#666666"
     borderopacity="1.0"
     inkscape:pageopacity="0.0"
     inkscape:pageshadow="2"
     inkscape:zoom="0.7"
     inkscape:cx="88.947781"
     inkscape:cy="510.70352"
     inkscape:document-units="mm"
     inkscape:current-layer="layer1"
     showgrid="false"
     fit-margin-top="0"
     fit-margin-left="0"
     fit-margin-right="0"
     fit-margin-bottom="0"
     inkscape:window-width="1920"
     inkscape:window-height="1017"
     inkscape:window-x="-8"
     inkscape:window-y="-8"
     inkscape:window-maximized="1" />
  <metadata
     id="metadata5">
    <rdf:RDF>
      <cc:Work
         rdf:about="">
        <dc:format>image/svg+xml</dc:format>
        <dc:type
           rdf:resource="http://purl.org/dc/dcmitype/StillImage" />
        <dc:title></dc:title>
      </cc:Work>
    </rdf:RDF>
  </metadata>
  <g
     inkscape:label="Layer 1"
     inkscape:groupmode="layer"
     id="layer1"
     transform="translate(-244.21792,595.6166)">
    <path
       style="fill:#000000;stroke-width:0.63069284"
       d="m 257.08926,-330.40152 c -0.67336,-0.50931 -2.2176,-0.93659 -3.43168,-0.94956 -5.30542,-0.0567 -9.39124,-2.40856 -9.43941,-5.43355 -0.0322,-2.01567 3.03304,-5.46122 6.24244,-7.01717 1.58489,-0.76837 4.22972,-2.69399 5.87742,-4.27916 2.7643,-2.65942 2.99579,-3.11796 2.99579,-5.93475 0,-5.33577 -0.55174,-6.87692 -2.62491,-7.33226 -1.50408,-0.33035 -1.71215,-0.57276 -1.11217,-1.29569 0.91327,-1.10042 -0.0954,-1.17694 -1.33057,-0.10083 -0.49777,0.4336 -0.21763,0.005 0.62234,-0.9544 1.17851,-1.34468 1.35643,-1.91374 0.77893,-2.49125 -0.84224,-0.84224 -1.01849,-3.01896 -0.24443,-3.01896 0.27723,0 0.38762,-0.99725 0.24534,-2.21612 -0.14231,-1.21887 0.0884,-2.6343 0.51254,-3.14544 1.19251,-1.43688 0.29213,-3.01536 -1.41154,-2.47461 -1.26004,0.39992 -1.32177,0.33479 -0.55658,-0.5872 0.72795,-0.87714 0.72628,-1.03702 -0.0119,-1.03702 -0.47937,0 -1.22281,-0.56244 -1.65209,-1.24986 -0.69657,-1.11536 -0.59414,-1.29066 0.95199,-1.62939 0.95291,-0.20881 2.05522,-0.47655 2.4496,-0.59509 0.74868,-0.22503 1.59645,-7.65904 1.51996,-13.32858 -0.0672,-4.98636 0.96832,-11.0691 2.43128,-14.28047 0.72779,-1.59766 1.3233,-3.15986 1.3233,-3.47155 0,-0.53176 2.76871,-4.97328 7.15984,-11.48565 1.0525,-1.56096 3.51136,-4.8248 5.46408,-7.25295 1.95274,-2.42818 3.73377,-4.91154 3.95781,-5.51858 0.22407,-0.60704 0.7001,-1.10371 1.05787,-1.10371 0.35775,0 0.65047,-0.31413 0.65047,-0.69807 0,-0.38395 1.13525,-2.1239 2.52279,-3.86654 2.4774,-3.1115 3.02261,-4.2651 2.01579,-4.2651 -0.78603,0 -4.53858,4.06618 -4.53858,4.91791 0,0.41707 -0.27977,0.75833 -0.62174,0.75833 -0.34195,0 -1.373,1.13525 -2.29124,2.52279 -0.91821,1.38751 -2.0664,2.52276 -2.55151,2.52276 -0.48511,0 -1.04538,0.42571 -1.24504,0.94603 -0.19975,0.52034 -0.62213,0.94605 -0.93878,0.94605 -0.31668,0 -1.74927,0.74081 -3.18358,1.64624 -2.7469,1.73406 -9.9374,3.3385 -15.13579,3.37731 -4.0458,0.0303 -6.83253,-2.23913 -6.81868,-5.55264 0.0143,-3.34065 0.70939,-4.12742 3.23242,-3.65699 1.16535,0.21716 4.96188,0.43298 8.43675,0.47937 5.83733,0.078 6.63602,-0.0644 10.49955,-1.87077 4.60671,-2.15381 9.05023,-6.60045 11.23019,-11.23815 0.68479,-1.45683 2.85169,-4.2174 4.81528,-6.13453 3.2113,-3.13531 3.53084,-3.68256 3.17857,-5.44387 -0.43529,-2.17638 0.58149,-10.54365 1.41036,-11.60622 0.74856,-0.95964 1.30666,-5.0692 0.89973,-6.62527 -0.18807,-0.71893 -0.71266,-1.30713 -1.1659,-1.30713 -0.45326,0 -1.62637,-0.67221 -2.60689,-1.49379 -1.67289,-1.40169 -8.48654,-4.7944 -13.45062,-6.69742 -1.21407,-0.46544 -2.63315,-1.19026 -3.15347,-1.6107 -0.52032,-0.42044 -2.2376,-1.32607 -3.81619,-2.01251 -4.01948,-1.74783 -7.22432,-4.75936 -8.58433,-8.06651 -0.63765,-1.55061 -1.37224,-2.82037 -1.6324,-2.82166 -0.26016,-0.001 -0.473,-0.8538 -0.473,-1.89443 0,-1.04067 0.28381,-1.89208 0.63068,-1.89208 0.34688,0 0.63069,-0.69963 0.63069,-1.55469 0,-0.85509 0.4309,-2.82385 0.95754,-4.37506 0.99794,-2.93936 1.17198,-5.63202 0.6806,-10.53028 -0.27594,-2.75069 -0.21596,-2.88582 1.16276,-2.62223 1.18714,0.22693 1.51888,-0.0508 1.80907,-1.51474 0.91645,-4.62291 2.1346,-8.30252 3.44541,-10.40744 1.2248,-1.96679 1.32468,-2.53926 0.68713,-3.93853 -0.41029,-0.90047 -1.0045,-1.63724 -1.32049,-1.63724 -0.31596,0 -0.11036,-0.46422 0.45715,-1.03162 0.76992,-0.76994 1.21332,-0.84994 1.74792,-0.31534 1.18487,1.18487 2.35609,0.81027 2.35609,-0.75357 0,-0.80842 0.70832,-2.86604 1.57409,-4.57253 0.86574,-1.70645 1.57528,-3.43565 1.57674,-3.84265 10e-4,-0.40697 0.71216,-1.5832 1.57935,-2.6138 0.92725,-1.10199 1.57674,-2.66583 1.57674,-3.7965 0,-1.88798 2.19712,-6.40961 3.11452,-6.40961 0.25694,0 0.78351,-0.69429 1.17015,-1.54287 0.99287,-2.17912 5.15413,-6.65613 6.18668,-6.65613 0.47532,0 1.27925,-0.99335 1.78651,-2.20745 0.96712,-2.31464 1.97994,-3.08189 1.31889,-0.99911 -0.21096,0.66458 -0.0579,1.40959 0.34018,1.65557 0.52465,0.32425 0.48833,0.59638 -0.13206,0.98945 -0.59402,0.37642 -0.27713,0.56175 1.03639,0.60609 l 1.89208,0.0639 -1.89208,0.5782 c -1.04063,0.31799 -2.74352,0.41829 -3.78415,0.22288 -1.12722,-0.21168 -1.5806,-0.13802 -1.12154,0.18211 0.55843,0.38953 -0.0119,1.48516 -2.06803,3.9801 -1.56121,1.89341 -3.00303,4.08117 -3.20403,4.86165 -0.20094,0.7805 -0.61848,1.41908 -0.92774,1.41908 -0.30929,0 -0.56232,1.17939 -0.56232,2.6209 0,2.77038 2.03186,6.19483 4.44049,7.4839 1.41004,0.75464 3.75851,-0.16424 3.75851,-1.47075 0,-0.4301 2.12859,-2.89634 4.73018,-5.48061 2.60162,-2.58424 4.73021,-5.06049 4.73021,-5.50277 0,-0.44227 0.28381,-0.80415 0.63069,-0.80415 0.34688,0 0.63071,-0.80088 0.63071,-1.77973 0,-0.97885 0.46301,-3.1386 1.0289,-4.79943 0.79197,-2.32427 0.8524,-3.12878 0.26248,-3.49339 -0.91357,-0.56461 0.57578,-1.27992 2.6649,-1.27992 1.17458,0 1.21382,0.0922 0.33513,0.78837 -1.29548,1.02621 -3.66073,7.52984 -3.66073,10.06574 0,1.64126 -0.84005,2.78881 -4.94586,6.75627 -4.8305,4.66771 -4.9545,4.86387 -5.31549,8.40727 -0.20333,1.99544 -0.81578,4.52239 -1.36105,5.61547 -1.12941,2.26392 -1.31486,5.93413 -0.33063,6.54244 0.40137,0.24805 0.0167,1.05312 -0.98102,2.05028 -1.35188,1.35188 -1.57933,2.03825 -1.28785,3.88599 0.84153,5.33396 0.67712,10.60863 -0.36762,11.79585 -0.71125,0.80824 -1.11827,2.78702 -1.31629,6.39955 -0.15756,2.87622 -0.11108,5.33794 0.10322,5.47047 0.21453,0.13254 2.65155,-0.15756 5.41579,-0.64458 7.30689,-1.28745 12.44993,-1.17048 15.43233,0.35103 1.35989,0.69375 2.73896,1.26137 3.06465,1.26137 1.34318,0 3.33983,-5.35477 3.62624,-9.72511 0.33708,-5.14409 1.48374,-10.99825 2.24658,-11.4697 0.82594,-0.51045 0.6085,-2.77256 -0.26545,-2.76185 -2.03257,0.0248 -3.85266,2.95045 -4.91056,7.89314 -1.2858,6.00748 -3.46371,10.16011 -5.74589,10.95568 -2.89898,1.01058 -3.41208,0.16948 -1.25581,-2.05856 1.0532,-1.08824 2.35073,-3.02353 2.88337,-4.30061 0.53264,-1.27708 1.25655,-2.50005 1.60868,-2.71768 0.80334,-0.49649 0.84372,-2.21331 0.052,-2.21331 -0.32349,0 -0.78145,0.60892 -1.01768,1.35319 -0.70336,2.2161 -5.27801,6.73377 -7.25938,7.16897 -1.01313,0.2224 -2.00395,0.66656 -2.20185,0.98674 -0.59488,0.96252 -2.54397,0.65805 -3.65641,-0.57119 -1.34549,-1.48675 -1.31846,-2.00011 0.10536,-2.00011 0.63195,0 2.26387,-0.84352 3.62647,-1.87453 1.36261,-1.03098 2.79423,-1.88243 3.18141,-1.89208 0.8682,-0.0215 5.82358,-7.3041 6.32235,-9.29141 0.19999,-0.79635 0.61645,-1.4479 0.92574,-1.4479 0.30926,0 0.56232,-0.38702 0.56232,-0.86004 0,-1.16419 3.09216,-4.18551 4.28364,-4.18551 0.52699,0 1.88841,-0.70954 3.02537,-1.57673 1.13697,-0.8672 2.60067,-1.57674 3.25269,-1.57674 0.65199,0 1.95748,-0.80582 2.90108,-1.7907 0.9436,-0.98491 3.05431,-2.47492 4.69052,-3.31115 2.56495,-1.31091 3.84399,-1.5186 9.28183,-1.50716 5.77938,0.0119 6.55738,0.16209 9.30097,1.7933 3.91378,2.32687 7.90527,6.90862 8.42307,9.66861 0.22573,1.20282 1.11765,2.89434 1.98223,3.75891 1.28499,1.28499 1.5056,1.98073 1.20854,3.81126 -0.19975,1.23162 -0.80124,2.72314 -1.33638,3.31447 -0.53515,0.59133 -0.97299,1.46327 -0.97299,1.93763 0,0.47436 -0.76155,1.9614 -1.69235,3.30455 -1.31819,1.90217 -1.65973,3.07245 -1.54477,5.29344 0.23242,4.48785 -1.49747,8.67462 -5.05286,12.23004 l -3.12256,3.12253 3.34117,0.005 c 5.66348,0.007 11.29254,1.23128 16.04539,3.48671 2.50217,1.18738 4.71689,2.4299 4.92163,2.76114 0.20476,0.33126 1.99889,1.06311 3.98703,1.62636 3.17331,0.899 8.67853,3.22351 11.4985,4.8551 0.52032,0.30104 2.74474,1.4046 4.94315,2.45234 3.14241,1.49765 4.18757,1.74691 4.88786,1.16571 0.68175,-0.56577 0.89078,-0.56439 0.89078,0.005 0,0.40984 0.28843,0.56688 0.64098,0.349 0.35253,-0.21787 0.4777,-0.66034 0.27811,-0.98326 -0.19952,-0.32292 -0.10083,-0.58711 0.2193,-0.58711 0.32018,0 1.35739,1.11866 2.30489,2.48591 1.69261,2.44243 1.77678,2.47953 4.8108,2.1202 2.63838,-0.31248 3.45418,-0.12347 5.60249,1.29823 1.38291,0.91518 3.22763,1.66398 4.09933,1.66398 0.92193,0 1.91692,0.54272 2.37862,1.29748 0.90112,1.47309 4.71772,3.50307 5.36647,2.85434 0.72868,-0.72871 -0.70663,-2.34766 -3.32772,-3.75358 -1.37844,-0.73935 -2.58817,-1.519 -2.68831,-1.73253 -0.10012,-0.21358 -3.36401,-2.00726 -7.25307,-3.98606 -3.88904,-1.97887 -7.49671,-3.83381 -8.01703,-4.12217 -3.14718,-1.74417 -13.35694,-6.32489 -14.0973,-6.32489 -0.48668,0 -1.22614,-0.4112 -1.64324,-0.91378 -0.41711,-0.50258 -1.79997,-1.25038 -3.07302,-1.66179 -1.27305,-0.4114 -3.47483,-1.41926 -4.89283,-2.23969 -1.418,-0.82041 -2.97488,-1.49166 -3.45976,-1.49166 -0.48487,0 -2.3047,-0.67634 -4.0441,-1.50294 -1.73938,-0.8266 -4.43965,-2.0004 -6.00063,-2.60843 -4.857,-1.89192 -6.93761,-2.87098 -6.93761,-3.26468 0,-0.89673 10.2474,0.47811 13.03757,1.74918 1.63214,0.74353 4.09571,1.74991 5.47462,2.2364 1.37891,0.48652 2.8224,1.14622 3.20773,1.46602 0.38533,0.3198 2.11269,1.05894 3.8386,1.64252 1.72589,0.58359 3.2799,1.26929 3.45334,1.52377 0.17354,0.25451 1.91242,1.05551 3.86437,1.78005 1.95198,0.7245 4.50629,1.90087 5.67626,2.61415 1.16996,0.71326 2.47054,1.29791 2.89022,1.2992 0.41965,0.001 2.54824,1.13492 4.73018,2.51914 2.18194,1.38423 3.76395,2.51948 3.51556,2.52279 -0.89175,0.0119 -5.23429,-2.21638 -5.68958,-2.91942 -0.25573,-0.39488 -1.1896,-0.89983 -2.07525,-1.12213 -0.88567,-0.22216 -3.71429,-1.38921 -6.28582,-2.59316 -2.57154,-1.20394 -5.07609,-2.18902 -5.56568,-2.18902 -0.48957,0 -1.56699,-0.52856 -2.39426,-1.17462 -0.82727,-0.64604 -2.21364,-1.38471 -3.08084,-1.64148 -0.86722,-0.25677 -2.42999,-0.95499 -3.47282,-1.55156 -1.04285,-0.59658 -3.88098,-1.74803 -6.30694,-2.55874 -2.42596,-0.81075 -5.04899,-1.76028 -5.82894,-2.11009 -1.49397,-0.67004 -2.85424,-0.0489 -1.59595,0.72877 0.40349,0.24936 2.38196,0.98014 4.39658,1.62398 3.45418,1.10388 8.17815,3.06468 10.28528,4.26913 0.52032,0.29742 1.72722,0.84849 2.682,1.22459 2.07777,0.81845 25.68972,12.78742 31.06008,15.74443 7.94427,4.37422 10.57373,5.59884 11.19603,5.21422 0.81942,-0.50644 -1.50504,-2.3963 -5.20445,-4.23134 -6.18207,-3.06652 -8.30739,-4.28665 -8.00087,-4.59317 0.38952,-0.38952 13.51315,5.93976 14.02153,6.76233 0.61206,0.99034 1.31374,0.65266 2.06361,-0.99308 0.95894,-2.10466 2.21364,-1.98793 5.70648,0.53088 1.60744,1.1592 3.41928,2.28553 4.02632,2.50298 0.60704,0.21739 1.10371,0.68427 1.10371,1.03739 0,0.3531 1.00155,1.0605 2.22563,1.57195 1.94731,0.81363 2.17434,1.13417 1.81561,2.56345 -0.29231,1.16471 -0.0968,1.86259 0.68127,2.43152 0.93742,0.68543 0.62806,0.81909 -2.19405,0.94786 -1.80693,0.0825 -3.75362,0.39181 -4.32595,0.68751 -0.57233,0.29568 -2.17586,0.83845 -3.56338,1.20619 -1.38754,0.36773 -3.50545,1.48954 -4.70649,2.49289 -1.91231,1.59755 -2.06909,1.93754 -1.26139,2.73542 0.50728,0.5011 2.05758,1.37793 3.44509,1.94848 1.63526,0.67244 2.07046,1.04883 1.23708,1.06988 -0.70715,0.0167 -2.39907,-0.53512 -3.75984,-1.22888 -2.78616,-1.42046 -3.89045,-1.57321 -4.22026,-0.58377 -0.12419,0.37269 -1.99725,0.83826 -4.16226,1.03456 -3.01212,0.27312 -4.19316,0.13158 -5.02991,-0.60292 -0.60144,-0.52792 -2.65447,-1.0921 -4.56233,-1.25372 -2.65775,-0.22526 -4.2578,-0.83246 -6.84333,-2.59746 -2.35824,-1.60987 -4.06767,-2.30468 -5.67623,-2.30714 -2.61237,-0.005 -6.44971,-0.91377 -9.23933,-2.19052 -4.48061,-2.05067 -6.55318,-2.8515 -7.37983,-2.8515 -0.48523,0 -1.19079,-0.30855 -1.5679,-0.68565 -0.49374,-0.49374 -0.80426,-0.49374 -1.1094,0 -0.53205,0.86088 -7.07496,0.90819 -7.60226,0.0551 -0.2143,-0.34688 -1.15353,-0.63498 -2.087,-0.6402 -0.93344,-0.005 -2.83243,-0.41848 -4.21995,-0.91835 -2.62912,-0.94717 -7.06013,-1.24065 -8.7781,-0.58141 -0.54871,0.21048 -0.99763,0.8661 -0.99763,1.45676 0,0.59066 -1.32161,2.61795 -2.93691,4.50504 -1.61531,1.88712 -3.57206,4.86153 -4.34834,6.60982 -0.77626,1.7483 -1.86707,3.55687 -2.42398,4.01908 -0.55691,0.46218 -1.01256,1.23047 -1.01256,1.70734 0,0.47684 -0.94031,1.9321 -2.08959,3.2339 -2.4248,2.74657 -3.58664,6.23688 -3.58664,10.77458 0,3.6777 0.32485,3.97302 5.59564,5.08674 1.86352,0.39377 4.13401,1.12259 5.04555,1.61962 0.91153,0.49701 2.93448,1.4976 4.49543,2.22351 1.56098,0.7259 4.45158,2.23055 6.42358,3.34363 1.97201,1.11308 4.74664,2.67193 6.16586,3.46414 1.41922,0.79218 4.34676,2.92978 6.50562,4.75018 4.23273,3.56915 7.58794,6.04996 9.54028,7.05401 2.72657,1.40222 5.41197,9.55867 3.53,10.72178 -0.34688,0.2143 -0.63068,0.89447 -0.63068,1.51128 0,0.61684 -1.13525,2.70686 -2.52277,4.64452 -1.38754,1.93765 -2.52279,3.81452 -2.52279,4.17082 0,0.35631 -0.35474,0.8748 -0.78836,1.15219 -1.27527,0.81585 -2.99579,4.34808 -2.99579,6.15034 0,1.73258 -2.65194,4.76045 -4.16939,4.76045 -1.1901,0 -2.22735,2.23248 -3.20892,6.90657 -0.93523,4.45344 -1.91699,5.90119 -4.99099,7.35989 -1.11618,0.52966 -2.7895,2.05982 -3.71848,3.40033 -1.65238,2.38438 -1.66534,2.47744 -0.59734,4.2854 1.56355,2.64691 9.24874,5.79831 14.14007,5.79831 2.3088,0 6.03453,2.15297 7.13805,4.12488 0.77666,1.38783 0.0215,3.12335 -1.77776,4.08635 -1.34959,0.72229 -3.0733,0.63886 -11.87696,-0.57479 -7.98933,-1.10138 -11.6398,-1.3212 -16.28189,-0.98045 -6.40641,0.47026 -9.11804,-0.20786 -12.34028,-3.0857 -1.7503,-1.56325 -1.78948,-3.19736 -0.15757,-6.57483 0.69379,-1.43593 1.2614,-2.90175 1.2614,-3.2574 0,-0.35563 0.72403,-1.12102 1.60896,-1.70086 1.53228,-1.004 3.43659,-3.88775 3.43659,-5.20421 0,-0.33866 -0.49667,-0.74556 -1.10371,-0.90419 -1.00767,-0.26333 -1.0031,-0.2948 0.0524,-0.36159 1.58861,-0.10059 0.96638,-1.60155 -0.76946,-1.85625 -1.1318,-0.16615 -1.26235,-0.38006 -0.66842,-1.09568 0.40594,-0.48914 0.5733,-1.31865 0.37195,-1.8434 -0.40947,-1.06707 1.16721,-1.35005 1.80174,-0.32338 0.21429,0.34688 0.0725,0.63071 -0.31535,0.63071 -0.38783,0 -0.51831,0.30228 -0.28995,0.67176 0.80517,1.30282 2.65375,-1.32912 3.05428,-4.3486 0.21812,-1.64508 0.82739,-3.60586 1.35372,-4.35725 0.87833,-1.25401 0.85211,-1.42227 -0.31918,-2.04914 -1.76743,-0.94589 -1.59547,-2.44043 0.36662,-3.18642 1.34751,-0.51233 1.57204,-0.90619 1.24938,-2.19181 -0.4275,-1.70324 0.67702,-2.1607 2.00664,-0.83111 0.85437,0.8544 0.81921,0.93759 2.29552,-5.43128 0.56401,-2.43316 1.60899,-5.01182 2.35116,-5.80181 1.42027,-1.51178 1.22731,-3.3783 -0.34924,-3.3783 -0.51398,0 -1.16147,-0.37334 -1.43886,-0.82964 -0.2774,-0.45631 -2.34914,-1.50138 -4.60385,-2.32238 -2.25474,-0.82103 -4.66713,-1.84465 -5.36089,-2.27469 -0.69376,-0.43005 -2.68045,-0.98241 -4.41487,-1.22743 -1.73439,-0.24504 -3.58912,-0.52292 -4.1216,-0.61753 -0.53249,-0.0946 -2.66109,-0.37698 -4.7302,-0.62749 -2.06912,-0.25052 -4.04587,-0.6656 -4.39275,-0.9224 -0.34688,-0.2568 -2.28704,-0.65285 -4.31148,-0.88012 -2.02445,-0.22717 -4.4937,-0.83356 -5.48726,-1.34735 -0.99351,-0.51376 -3.34607,-0.93411 -5.2279,-0.93411 h -3.4215 l -6.85859,7.31054 c -3.77221,4.02079 -6.97114,7.6394 -7.10873,8.04134 -0.13754,0.40192 -0.63426,0.95773 -1.10371,1.23515 -0.46945,0.27739 -0.85356,0.7907 -0.85356,1.14068 0,0.34998 -0.83197,1.68401 -1.84879,2.96447 -1.18705,1.49476 -2.13522,3.73908 -2.64896,6.26992 -0.44011,2.16802 -1.02719,3.94185 -1.30468,3.94185 -0.27747,0 -0.50557,0.49667 -0.50685,1.10371 -0.001,0.60703 -0.54223,1.98904 -1.20204,3.07111 -1.11921,1.83542 -1.13544,2.16261 -0.24185,4.87688 0.80398,2.44217 0.83666,3.59498 0.20333,7.17765 -1.08593,6.14416 -1.25718,11.81121 -0.51317,16.98394 0.51271,3.56473 0.46792,4.92736 -0.21263,6.4646 -0.47422,1.07132 -1.03677,1.94783 -1.25014,1.94783 -0.9343,0 -6.2444,5.25399 -6.26912,6.20285 -0.0517,1.99008 -2.85765,5.97108 -5.02927,7.13574 -2.6224,1.4064 -4.99415,1.49252 -6.64831,0.24138 z m 18.01187,-30.25333 c 0,-0.96796 -1.53275,-2.3965 -2.03377,-1.89551 -0.4975,0.4975 0.97898,3.37902 1.55042,3.02585 0.26584,-0.16424 0.48335,-0.67295 0.48335,-1.13034 z m 76.03246,-5.34592 c -0.23313,-0.37711 -0.97464,-0.68566 -1.64792,-0.68566 -1.16835,0 -1.17384,0.0532 -0.12038,1.16679 1.11485,1.17856 2.5524,0.78743 1.76837,-0.48113 z m 8.47987,-9.19907 c 0.46385,-0.86667 0.63049,-1.78862 0.37036,-2.04876 -0.54697,-0.54695 -2.26191,1.57526 -2.26191,2.79906 0,1.33739 0.98292,0.94751 1.89155,-0.7503 z m -89.27996,-1.00755 c 0.31017,0.50187 0.80768,0.44416 1.72798,-0.20047 0.7108,-0.49787 1.68551,-0.75435 2.16602,-0.56997 0.48048,0.1845 0.87363,0.0403 0.87363,-0.32042 0,-1.09499 -2.46951,-1.52337 -6.13906,-1.06488 l -3.47985,0.43479 1.81366,1.11041 c 1.06471,0.65185 1.97646,0.86166 2.20785,0.50806 0.23956,-0.36607 0.56506,-0.32588 0.82977,0.1025 z m 90.32422,-4.06613 c 0.20548,-0.53529 0.26745,-1.07446 0.13778,-1.19818 -0.12944,-0.12371 -2.43511,-0.42864 -5.12345,-0.67759 -3.45075,-0.31956 -4.88787,-0.24543 -4.88787,0.25212 0,0.39232 1.0486,0.70892 2.3651,0.71409 1.3008,0.005 3.07462,0.40302 3.94182,0.88422 2.12776,1.18066 3.12048,1.18772 3.56652,0.0253 z m -18.99256,-4.74496 c 0.58046,-0.93919 -0.0925,-1.44983 -1.30008,-0.98646 -0.55727,0.21382 -0.83657,0.67464 -0.62067,1.02398 0.51121,0.82717 1.39705,0.80987 1.92075,-0.0374 z m -57.26046,-15.64813 c 0.73798,-0.99818 2.94542,-3.547 4.90544,-5.66403 1.96001,-2.11706 3.45715,-4.16863 3.32703,-4.55908 -0.38817,-1.16445 -7.83675,5.50289 -8.67651,7.76647 -0.42116,1.13525 -1.02829,2.56074 -1.34916,3.16778 -0.93673,1.77208 0.32812,1.27047 1.7932,-0.71114 z m -19.36435,-10.08786 c 0.0167,-0.56458 0.56611,-2.01985 1.22104,-3.23392 0.6549,-1.21408 1.78798,-3.37151 2.51792,-4.79426 0.72995,-1.42275 2.16716,-3.39158 3.19381,-4.37518 1.73637,-1.66355 2.5798,-4.7058 1.30461,-4.7058 -0.85242,0 -6.47352,8.58409 -8.81267,13.45799 -2.09491,4.365 -2.28699,7.02797 -0.3936,5.4566 0.51622,-0.42843 0.95223,-1.24087 0.96889,-1.80543 z m 33.31286,-6.07205 c 0.71631,-1.21408 1.59578,-2.20742 1.95437,-2.20742 0.35858,0 0.65197,-0.39096 0.65197,-0.86882 0,-0.47784 0.42571,-1.22211 0.94602,-1.65395 0.52032,-0.43183 0.94606,-1.04516 0.94606,-1.36299 0,-0.31782 -1.67378,1.04672 -3.71949,3.03231 -2.06209,2.00147 -3.57773,3.97958 -3.40133,4.43923 0.51665,1.34635 1.2387,0.96684 2.6224,-1.37836 z m 6.90748,-9.32338 c 1.02102,-1.23024 2.01567,-4.15938 1.50865,-4.44283 -0.2469,-0.13801 -1.07629,0.98715 -1.84309,2.50043 -1.31851,2.60214 -1.1286,3.70523 0.33444,1.9424 z m -25.12848,-9.88574 c 1.47233,-2.75103 0.18236,-2.28914 -1.94316,0.69576 l -1.38568,1.946 1.34185,-0.71815 c 0.73802,-0.39498 1.63218,-1.26061 1.98699,-1.92361 z m 43.07125,-4.85555 c -0.427,-0.17282 -1.27842,-0.18331 -1.89208,-0.0238 -0.61364,0.15995 -0.26426,0.30126 0.77637,0.31413 1.04064,0.0119 1.54272,-0.11799 1.11571,-0.29074 z m 2.98379,-9.67738 c 0,-0.34688 -0.26707,-0.63071 -0.59347,-0.63071 -0.3264,0 -0.76887,0.28383 -0.98326,0.63071 -0.2143,0.34688 0.0527,0.63068 0.59347,0.63068 0.5408,0 0.98326,-0.2838 0.98326,-0.63068 z m 11.28485,-14.42361 c 0.82999,-0.23241 1.73866,-1.04326 2.01927,-1.80181 0.48171,-1.30211 0.41499,-1.3371 -1.19374,-0.62592 -0.93716,0.41432 -1.98776,1.08755 -2.33464,1.49612 -0.34688,0.40857 -1.19832,0.87578 -1.89208,1.03826 -0.99384,0.23265 -0.92696,0.29758 0.31534,0.30568 0.86723,0.005 2.25584,-0.17997 3.08585,-0.41233 z m 71.71356,-10.48222 c -0.52654,-0.8036 -1.8912,-2.07868 -3.0326,-2.83351 -1.9694,-1.30242 -1.9526,-1.26018 0.3296,0.82846 2.09057,1.91327 2.46145,2.68217 2.83813,5.88384 l 0.43327,3.68299 0.19451,-3.05035 c 0.12467,-1.95606 -0.14899,-3.57451 -0.76287,-4.51143 z m 16.62013,1.29209 c 0.62485,-0.75287 0.39356,-0.97642 -1.34839,-1.30323 -2.25734,-0.42346 -5.55829,0.50638 -5.55829,1.5657 0,1.01685 6.03529,0.78751 6.90668,-0.26247 z m -33.02075,-6.43643 c -0.89531,-0.82119 -1.34595,-1.15057 -1.00143,-0.73194 0.34452,0.4186 0.6264,1.35712 0.6264,2.08559 0,0.72844 0.35476,1.68281 0.78836,2.12082 0.63336,0.63979 0.83025,0.52327 1.00143,-0.59252 0.13492,-0.87891 -0.38464,-1.93711 -1.41476,-2.88195 z m -102.54728,-5.26864 c 0,-0.72055 -0.42046,-1.26139 -0.98064,-1.26139 -1.4171,0 -6.58767,-2.45121 -6.58767,-3.12304 0,-0.90557 -3.57656,-2.44476 -6.80615,-2.92909 -2.58138,-0.38709 -2.86547,-0.32318 -2.18866,0.49229 0.42776,0.51543 1.988,1.3279 3.46722,1.80548 2.77456,0.8958 10.42732,4.69752 11.48763,5.70681 0.97523,0.9283 1.60827,0.65627 1.60827,-0.69106 z m 53.55909,-23.90345 c 2.09946,-2.6508 3.38214,-6.74479 1.96519,-6.27246 -0.43935,0.14636 -1.31839,1.63502 -1.95344,3.30796 -0.63502,1.67292 -1.63976,3.5778 -2.23276,4.23304 -0.59297,0.65524 -0.77421,1.19136 -0.4027,1.19136 0.3715,0 1.55216,-1.10695 2.62371,-2.4599 z m -62.15047,0.8747 c 2.82432,-1.18008 2.88094,-1.56827 0.22883,-1.56827 -1.37266,0 -2.31745,0.4191 -2.84347,1.26139 -0.94366,1.51107 -0.41564,1.57304 2.61473,0.30688 z m 7.20405,-1.92945 c 1.83542,-1.28559 10.94932,-1.49376 12.4077,-0.2834 1.1582,0.96121 2.16096,0.32907 1.12359,-0.7083 -1.8255,-1.8255 -16.37928,-0.80441 -17.03578,1.19519 -0.36457,1.11046 1.80874,0.98427 3.50449,-0.20356 z m 49.95069,-7.79787 c 0,-0.3249 0.91337,-0.67967 2.02971,-0.78837 1.7692,-0.17234 2.10097,-0.50087 2.58484,-2.56026 0.54284,-2.3104 0.60744,-2.35426 2.92311,-1.98397 1.79308,0.28674 2.45795,0.14422 2.73856,-0.58706 0.58439,-1.52294 -0.77697,-2.11679 -5.86138,-2.55683 -2.60162,-0.22526 -6.63316,-0.86672 -8.95898,-1.42568 -4.85163,-1.166 -5.94051,-0.93473 -6.84902,1.45483 -0.52759,1.38769 -0.42392,2.02436 0.54179,3.3273 1.45465,1.96266 5.61636,4.42485 7.503,4.43901 0.76001,0.005 1.55724,0.2942 1.77163,0.64108 0.49231,0.79657 1.57674,0.82405 1.57674,0.04 z m -2.24456,-3.48872 c -0.68961,-0.52158 -0.87997,-0.93473 -0.43589,-0.94603 0.4336,-0.0119 0.78837,-0.30628 0.78837,-0.65609 0,-0.37875 -0.50613,-0.31994 -1.25119,0.14541 -1.03921,0.64899 -1.43612,0.59645 -2.34258,-0.31001 -1.03472,-1.0347 -0.99432,-1.09629 0.77817,-1.18609 1.36587,-0.0691 1.11811,-0.19666 -0.91959,-0.47303 -1.55994,-0.21167 -2.91768,-0.76865 -3.08082,-1.26403 -0.43915,-1.33367 5.19386,-0.40307 7.49997,1.23901 1.15325,0.82119 2.30799,1.15953 3.09975,0.90824 1.7117,-0.54327 1.7481,1.90266 0.0419,2.8158 -1.6635,0.89029 -2.73232,0.82042 -4.17809,-0.27311 z m 9.81287,3.11362 c 0,-1.00701 -1.67616,-1.98309 -2.31254,-1.34671 -0.20142,0.20142 -0.19809,0.80403 0.007,1.33929 0.48368,1.26047 2.30513,1.26631 2.30513,0.007 z m -70.80841,-1.30728 c -0.20953,-0.20953 -0.75356,-0.23194 -1.20883,-0.0498 -0.50313,0.20142 -0.35367,0.35079 0.38104,0.38104 0.66484,0.0274 1.03735,-0.12157 0.82779,-0.33125 z m 2.06288,-0.24965 c 0,-0.34688 -0.28381,-0.63071 -0.63069,-0.63071 -0.34688,0 -0.63068,0.28383 -0.63068,0.63071 0,0.34688 0.2838,0.63069 0.63068,0.63069 0.34688,0 0.63069,-0.28381 0.63069,-0.63069 z m 3.15347,0.0372 c 0,-0.32643 -0.28381,-0.7689 -0.63069,-0.98326 -0.34688,-0.2143 -0.63071,0.0527 -0.63071,0.59345 0,0.54079 0.28383,0.98326 0.63071,0.98326 0.34688,0 0.63069,-0.26705 0.63069,-0.59345 z m -20.18218,-3.50603 c 0,-0.52032 -0.42571,-0.94605 -0.94603,-0.94605 -0.98488,0 -1.25129,0.74594 -0.52559,1.47161 0.7257,0.7257 1.47162,0.4593 1.47162,-0.52556 z m 0.45989,-3.21917 c -0.20953,-0.20953 -0.75354,-0.23193 -1.20883,-0.0498 -0.50314,0.20143 -0.35368,0.35079 0.38103,0.38107 0.66487,0.0274 1.03738,-0.12181 0.8278,-0.33127 z m 86.57658,-6.71425 c 6.2e-4,-0.56141 -0.99799,-0.72617 -3.46881,-0.57233 -4.50805,0.28071 -4.50874,1.3607 -8.4e-4,1.3607 2.35412,0 3.46908,-0.25334 3.46965,-0.78837 z m -67.16963,-2.3651 c 0.22025,-0.35622 -0.2964,-0.63069 -1.18695,-0.63069 -0.8672,0 -1.75214,-0.2838 -1.96653,-0.63068 -0.57769,-0.93475 -1.57673,-0.76425 -1.57673,0.2691 0,1.3484 3.99249,2.18594 4.73021,0.99227 z m 162.71876,81.35938 c -1.08081,-1.1281 -2.46539,-1.89597 -3.42915,-1.90173 -0.88901,-0.005 -2.04211,-0.28476 -2.56243,-0.62103 -0.73722,-0.47642 -0.56318,-0.6135 0.78837,-0.62104 2.76487,-0.0143 2.19707,-2.00304 -0.96234,-3.3686 -1.46527,-0.63333 -3.90258,-1.73361 -5.41622,-2.4451 l -2.75203,-1.2936 1.9994,-1.26592 c 1.61223,-1.02081 2.66607,-1.19713 5.44215,-0.91061 2.55051,0.26324 3.32718,0.16257 2.9967,-0.38847 -0.25296,-0.42175 0.0167,-0.36903 0.621,0.12181 0.58692,0.47607 1.06712,1.19634 1.06712,1.60057 0,0.89115 5.77142,4.82858 8.82969,6.02388 3.1677,1.23805 4.41486,2.4989 4.41486,4.46335 0,2.00399 -1.14523,2.47678 -6.03126,2.48996 -2.73051,0.007 -3.45578,-0.26552 -5.00586,-1.88347 z m -8.63263,-4.21499 c 0.45529,-0.18212 0.99926,-0.15971 1.20884,0.0498 0.20953,0.20953 -0.16305,0.35863 -0.82777,0.33124 -0.73474,-0.0303 -0.88417,-0.17973 -0.38107,-0.38104 z m -6.96573,-0.65693 c 1.13358,-0.1404 2.83644,-0.13754 3.78416,0.007 0.94772,0.14398 0.0191,0.25875 -2.06104,0.2552 -2.0813,-0.005 -2.8567,-0.12133 -1.72312,-0.26164 z m -143.2732,-105.87781 c -0.80949,-2.10948 -0.32583,-3.1667 1.91294,-4.18143 1.99086,-0.90238 2.41006,-0.91985 3.19659,-0.13325 0.56382,0.56384 0.7426,1.41767 0.47398,2.26396 -0.34967,1.10173 -0.22884,1.28104 0.63917,0.94798 0.58871,-0.22597 1.1891,-0.41076 1.33417,-0.41076 0.14517,0 0.26376,-0.83809 0.26376,-1.8624 0,-2.88223 -1.22616,-4.97607 -3.08172,-5.26247 l -1.64847,-0.25444 1.75566,-0.0944 c 1.38628,-0.0746 2.02972,0.36997 3.0581,2.11293 0.71633,1.21407 1.55819,2.20742 1.87082,2.20742 0.91821,0 0.6519,-2.75356 -0.41341,-4.27451 -0.54001,-0.77095 -0.696,-1.40173 -0.34669,-1.40173 0.34931,0 0.92438,0.49667 1.27796,1.10371 0.5562,0.95495 0.64544,0.8831 0.66203,-0.53293 0.0238,-1.97634 -1.72979,-3.70809 -3.81464,-3.76847 -1.0328,-0.03 -0.40433,-0.45198 1.94175,-1.30399 4.94672,-1.79651 6.58835,-2.14015 6.0481,-1.26599 -0.24548,0.39717 -0.98045,0.72215 -1.63325,0.72215 -1.54714,0 -2.18948,1.08914 -1.28507,2.17888 0.5125,0.61753 0.52063,0.98279 0.0286,1.28686 -0.37785,0.2336 -0.50778,0.98922 -0.28872,1.67935 0.38094,1.20028 -0.0844,2.88886 -1.99801,7.24952 -0.91869,2.0935 -3.23545,3.30073 -5.94052,3.09552 -0.85442,-0.0648 -2.02178,0.10774 -2.59413,0.38345 -0.70244,0.33839 -1.16366,0.18092 -1.41908,-0.48476 z m 19.47882,-12.88163 c -0.25704,-0.41589 -0.0763,-0.99914 0.40182,-1.29613 1.04886,-0.65161 1.61428,0.50352 0.69598,1.42182 -0.42016,0.42016 -0.78637,0.37823 -1.0978,-0.12562 z m 1.59564,-3.5737 c -0.005,-0.76 0.29338,-1.56892 0.66336,-1.79756 1.03282,-0.63832 1.0891,-0.12825 0.17687,1.60267 -0.79692,1.51218 -0.83132,1.52017 -0.84023,0.19499 z m -12.46548,-1.89103 c 1.47268,-0.38485 1.39888,-0.76486 -0.54192,-2.79062 -1.72641,-1.80198 -1.5871,-3.08156 0.33546,-3.08156 1.48966,0 4.46364,-2.99877 4.46364,-4.50084 0,-1.25916 0.93544,-1.58232 1.57674,-0.54471 0.21429,0.34688 0.0891,0.63071 -0.27814,0.63071 -0.36735,0 -0.66791,0.67688 -0.66791,1.5042 0,1.66679 -2.32518,3.54133 -4.39268,3.54133 -1.66429,0 -1.61897,0.36535 0.33305,2.68521 1.65807,1.9705 1.28843,3.06089 -0.98593,2.90821 -0.67032,-0.045 -0.62436,-0.14755 0.15757,-0.35193 z m 8.29911,-0.58871 c 0.3404,-0.88708 0.0529,-0.98228 -1.97953,-0.65571 -1.30776,0.21 -2.09348,0.17711 -1.74606,-0.0732 0.34743,-0.25034 1.03687,-1.24104 1.53207,-2.20158 0.49522,-0.96055 1.06238,-1.50747 1.26039,-1.21539 0.19809,0.29208 0.85666,0.71431 1.46373,0.93828 1.39526,0.51479 1.45907,3.32894 0.0875,3.85529 -0.75359,0.28919 -0.91332,0.12181 -0.61803,-0.64778 z m 8.15145,-0.52554 c 0,-0.50506 0.24113,-0.76925 0.53588,-0.58711 0.29472,0.18212 0.37258,0.59539 0.17306,0.91831 -0.50997,0.82517 -0.70887,0.73228 -0.70887,-0.3312 z m -2.71156,-3.15535 c -0.47617,-0.57376 -0.59991,-1.66596 -0.32866,-2.90092 0.37987,-1.72956 0.28697,-1.93653 -0.73259,-1.63251 -3.23188,0.96373 -4.53329,1.08519 -4.92017,0.4592 -0.2635,-0.42633 0.24247,-0.68442 1.35023,-0.68876 0.9744,-0.005 2.87048,-0.18855 4.21352,-0.41033 l 2.44186,-0.40337 -1.11227,1.69754 c -0.89871,1.37162 -0.97661,1.99534 -0.40564,3.24844 0.79984,1.75547 0.61662,1.98371 -0.50628,0.63071 z m -7.53995,-2.60117 c 0.0303,-0.73473 0.17974,-0.88417 0.38104,-0.38106 0.18212,0.45529 0.15971,0.99926 -0.0498,1.20884 -0.20953,0.20952 -0.35863,-0.16305 -0.33124,-0.82778 z"
       id="path99"
       inkscape:connector-curvature="0" />
  </g>
</svg>
