<?xml version="1.0" encoding="UTF-8" standalone="no"?>
<!-- Created with Inkscape (http://www.inkscape.org/) -->

<svg
   xmlns:dc="http://purl.org/dc/elements/1.1/"
   xmlns:cc="http://creativecommons.org/ns#"
   xmlns:rdf="http://www.w3.org/1999/02/22-rdf-syntax-ns#"
   xmlns:svg="http://www.w3.org/2000/svg"
   xmlns="http://www.w3.org/2000/svg"
   xmlns:sodipodi="http://sodipodi.sourceforge.net/DTD/sodipodi-0.dtd"
   xmlns:inkscape="http://www.inkscape.org/namespaces/inkscape"
   width="210.00002mm"
   height="171.73325mm"
   viewBox="0 0 210.00003 171.73325"
   version="1.1"
   id="svg8"
   inkscape:version="0.92.3 (2405546, 2018-03-11)"
   sodipodi:docname="paparazzi.svg">
  <defs
     id="defs2" />
  <sodipodi:namedview
     id="base"
     pagecolor="#ffffff"
     bordercolor="#666666"
     borderopacity="1.0"
     inkscape:pageopacity="0.0"
     inkscape:pageshadow="2"
     inkscape:zoom="0.7"
     inkscape:cx="-42.811301"
     inkscape:cy="220.34303"
     inkscape:document-units="mm"
     inkscape:current-layer="layer1"
     showgrid="false"
     fit-margin-top="0"
     fit-margin-left="0"
     fit-margin-right="0"
     fit-margin-bottom="0"
     inkscape:window-width="1920"
     inkscape:window-height="1017"
     inkscape:window-x="-8"
     inkscape:window-y="-8"
     inkscape:window-maximized="1" />
  <metadata
     id="metadata5">
    <rdf:RDF>
      <cc:Work
         rdf:about="">
        <dc:format>image/svg+xml</dc:format>
        <dc:type
           rdf:resource="http://purl.org/dc/dcmitype/StillImage" />
        <dc:title></dc:title>
      </cc:Work>
    </rdf:RDF>
  </metadata>
  <g
     inkscape:label="Layer 1"
     inkscape:groupmode="layer"
     id="layer1"
     transform="translate(-167.78243,457.12774)">
    <path
       style="fill:#000000;stroke-width:0.62222099"
       d="m 330.49475,-286.98935 c -1.65932,-1.12604 -2.54426,-1.40032 -3.01126,-0.93331 -0.79443,0.7944 -3.74219,0.86789 -5.24314,0.13075 -5.58736,-2.74427 -5.735,-2.78568 -7.33383,-2.05722 -3.22889,1.47118 -13.34657,0.26917 -13.34657,-1.58559 0,-1.03679 -5.06025,-1.09514 -6.08519,-0.0703 -0.77376,0.77376 -1.45697,0.55926 -6.48251,-2.03509 -2.13001,-1.09958 -3.85014,-1.18789 -23.141,-1.18789 -11.46198,0 -20.98793,-0.23938 -21.16875,-0.53195 -0.18084,-0.2926 -6.56734,-0.71913 -14.19223,-0.94788 -7.62493,-0.22882 -14.97898,-0.47935 -16.34235,-0.55691 -2.15419,-0.12252 -2.58619,0.0826 -3.29822,1.56508 -1.10518,2.30129 -2.91754,3.16234 -5.64928,2.68398 -1.24438,-0.21801 -2.96251,-0.37348 -3.81806,-0.34573 -7.48734,0.24291 -12.4306,0.0696 -13.39392,-0.46947 -1.12336,-0.62865 -1.94768,-0.40336 -6.99639,1.9121 -1.0184,0.46707 -1.6174,0.44302 -2.14665,-0.0863 -0.40374,-0.40374 -2.14809,-0.73514 -3.87631,-0.73641 -2.03392,-10e-4 -3.85547,-0.43723 -5.16443,-1.2353 l -2.02223,-1.23297 0.0141,-12.60912 c 0.007,-6.93503 0.30567,-18.4891 0.66257,-25.67576 0.35689,-7.18666 0.73566,-18.53221 0.84172,-25.21235 0.17426,-10.98062 0.31967,-12.38239 1.5152,-14.61298 0.72731,-1.35701 1.32239,-2.90541 1.32239,-3.44092 0,-0.53553 0.33961,-1.31328 0.75466,-1.72834 0.9062,-0.9062 0.78645,-9.64604 -0.21471,-15.67197 -0.40967,-2.46569 -0.60712,-11.69529 -0.50581,-23.64438 0.0915,-10.77999 0.10983,-22.95997 0.0412,-27.06663 -0.16392,-9.78392 0.25377,-12.75553 1.79282,-12.75553 0.64328,0 1.31606,0.23698 1.49504,0.52659 0.17897,0.28964 5.44553,0.75502 11.70336,1.03419 6.25786,0.27919 12.49793,0.62334 13.86681,0.76477 1.36888,0.14134 14.38503,0.30607 28.92475,0.36581 25.27792,0.10394 26.44569,0.15968 26.65985,1.2717 0.19073,0.99059 0.64171,1.11598 3.04104,0.84553 1.54937,-0.17473 3.03816,-0.67529 3.30839,-1.11254 0.39027,-0.63148 7.98118,-0.78469 36.90438,-0.74485 20.02719,0.0275 36.99142,0.23376 37.6983,0.45808 0.70689,0.22436 1.28525,0.93252 1.28525,1.57369 0,0.64119 0.27999,1.33885 0.62221,1.55036 0.75758,0.4682 0.83213,4.46348 0.0917,4.92101 -0.29171,0.18037 -0.72713,10.76682 -0.96756,23.52557 -0.39662,21.04615 -1.64476,43.06779 -2.61411,46.12195 -0.34998,1.10269 -0.15004,1.15884 2.64451,0.74276 1.66273,-0.24757 3.33352,-0.70532 3.71287,-1.01725 0.37938,-0.31191 3.6894,-1.10806 7.35563,-1.76921 3.66625,-0.66114 6.99584,-1.47174 7.39913,-1.80131 0.67929,-0.55517 5.84988,-1.93898 10.99987,-2.94393 1.1978,-0.23376 2.31779,-0.62852 2.4889,-0.8773 0.17121,-0.24877 1.8511,-0.6388 3.73333,-0.86668 l 3.42222,-0.41437 -1.55556,1.24307 c -0.85557,0.68368 -2.53555,1.56298 -3.73332,1.95402 -1.19779,0.39102 -3.15777,1.21873 -4.35557,1.83932 -1.19776,0.62061 -3.29776,1.58742 -4.66664,2.14844 -1.36888,0.56105 -3.60887,1.55415 -4.97778,2.20688 -1.36888,0.65272 -3.46887,1.59653 -4.66664,2.09732 -1.19779,0.50082 -2.87778,1.32375 -3.73333,1.82878 -0.85555,0.505 -3.83819,2.02369 -6.62808,3.37483 -6.72803,3.25838 -6.88762,3.43504 -6.56931,7.27325 0.19824,2.39027 0.0165,3.37723 -0.73642,4.0022 -1.0981,0.91135 -1.36784,4.7316 -0.37728,5.34379 0.35019,0.21636 0.62221,3.20951 0.62221,6.84587 0,5.97159 0.10489,6.53472 1.3829,7.42992 0.76059,0.53273 1.88058,0.96862 2.4889,0.96862 0.60829,0 1.10718,0.21001 1.10866,0.46667 0.001,0.25667 1.68027,1.16666 3.73065,2.02221 2.05037,0.85557 3.72916,1.76556 3.73064,2.02223 10e-4,0.25666 0.42825,0.46667 0.94837,0.46667 0.52015,0 1.99013,0.63644 3.26668,1.41433 1.27653,0.7779 4.00095,1.95902 6.05429,2.62471 2.05332,0.66568 5.23176,1.98921 7.06317,2.94118 1.83141,0.95197 3.7214,1.73086 4.19997,1.73086 0.4786,0 0.87016,0.28001 0.87016,0.62223 0,0.83975 -1.07054,0.78368 -4.70928,-0.24664 -1.68766,-0.47789 -4.31458,-1.05016 -5.83761,-1.27176 -1.52301,-0.22153 -3.06302,-0.63068 -3.42222,-0.90912 -0.3592,-0.27846 -4.08307,-1.14274 -8.27528,-1.92063 -4.19222,-0.7779 -7.62222,-1.65779 -7.62222,-1.95532 0,-0.7641 -3.58446,-0.67642 -3.84127,0.0941 -0.11641,0.34921 0.12299,5.3192 0.53193,11.04442 0.40896,5.72524 0.76085,13.24175 0.78201,16.70338 0.0334,5.47532 -0.13052,6.50869 -1.26093,7.94574 -1.49039,1.8947 -4.24783,3.45281 -5.38949,3.04536 -0.89901,-0.32084 -1.05641,-1.41834 -0.20342,-1.41834 0.3159,0 1.48096,-0.9066 2.58906,-2.01467 l 2.01468,-2.01471 -0.13805,-16.0989 c -0.0924,-10.77726 -0.3734,-16.47567 -0.84993,-17.23872 -0.84177,-1.34786 -1.51689,-1.53813 -8.85674,-2.49586 -3.07998,-0.40191 -6.01998,-0.89231 -6.53331,-1.08981 -1.31634,-0.50641 -4.35556,-0.54801 -4.35556,-0.0595 0,0.22411 -1.36058,0.58806 -3.02354,0.80868 -6.61117,0.87699 -6.78571,4.87519 -0.69575,15.93698 0.84784,1.53999 1.68196,2.93998 1.85364,3.11109 0.17167,0.17121 0.7124,1.08752 1.20164,2.03648 1.8098,3.51022 2.65696,1.54883 3.76132,-8.70825 0.39593,-3.67736 0.84099,-6.80724 0.98905,-6.9553 0.51192,-0.51192 0.26673,8.72039 -0.38735,14.58638 -0.58813,5.27437 -0.5395,6.0986 0.46665,7.90877 0.61777,1.11144 1.47322,2.2447 1.901,2.51839 0.42777,0.27367 0.78784,0.83365 0.80016,1.24443 0.0118,0.41077 0.6423,1.48267 1.4,2.38203 7.34996,8.72404 9.73035,11.74257 9.26015,11.74257 -0.30433,0 -1.6108,-0.7176 -2.90325,-1.59469 z m -3.88017,-2.51182 c 0.49967,-0.49967 -0.8334,-3.36014 -1.56593,-3.36014 -0.67745,0 -2.90454,-2.54614 -2.93471,-3.35512 -0.0118,-0.30533 -1.26881,-2.01607 -2.79429,-3.80167 -1.52548,-1.78558 -3.13247,-4.05577 -3.57106,-5.04485 -0.43861,-0.98908 -2.2149,-3.89832 -3.94733,-6.46499 -1.7324,-2.56665 -3.5347,-6.06664 -4.00509,-7.77776 -0.47036,-1.7111 -1.05166,-3.25111 -1.29174,-3.42222 -0.24009,-0.1712 -0.63322,-1.48794 -0.87359,-2.92629 -0.40731,-2.43714 -0.27482,-2.78862 1.94601,-5.16227 2.12168,-2.26767 2.82672,-2.6098 6.42751,-3.11894 2.22445,-0.31454 5.16445,-0.43368 6.53333,-0.26478 5.61403,0.69272 10.96495,1.75867 11.26496,2.24411 0.17567,0.28439 0.93306,0.5135 1.68285,0.5091 1.68984,-0.009 10.58235,2.00318 11.0077,2.49189 0.32595,0.3745 7.05953,1.88484 10.26664,2.30278 1.77979,0.23188 1.75084,0.18202 -0.62222,-1.07247 -1.36887,-0.72364 -4.02888,-1.87454 -5.91109,-2.5575 -1.88223,-0.68298 -4.44034,-1.78263 -5.68472,-2.4437 -1.24436,-0.66104 -2.57742,-1.2019 -2.96232,-1.2019 -0.38491,0 -1.8868,-0.53504 -3.33751,-1.189 -1.4507,-0.65396 -4.17764,-1.75425 -6.05987,-2.44511 -1.88221,-0.69089 -4.59868,-1.83583 -6.03658,-2.54433 -1.43792,-0.70852 -2.89819,-1.28822 -3.24502,-1.28822 -0.34685,0 -1.62037,-0.869 -2.83006,-1.93112 -2.93862,-2.58012 -2.92554,-4.78157 0.0541,-9.1079 1.23946,-1.79962 2.52025,-3.27204 2.84619,-3.27204 0.32595,0 2.18184,-1.48626 4.12423,-3.30278 6.04048,-5.64914 9.72753,-8.19368 16.90932,-11.66954 7.50094,-3.63035 9.24543,-4.65331 8.76117,-5.13758 -0.28907,-0.28907 -1.0486,-0.23731 -1.68782,0.115 -0.63924,0.35233 -3.40225,1.10582 -6.14003,1.67444 -2.73776,0.56859 -5.25775,1.24661 -5.59999,1.50664 -0.34222,0.26005 -3.2822,1.1156 -6.53331,1.90123 -3.25111,0.78563 -6.19109,1.63803 -6.53333,1.89423 -0.84499,0.63256 -9.62951,1.81835 -13.47064,1.81835 -4.01718,0 -6.36815,-2.10105 -6.98037,-6.23835 -0.71783,-4.85098 2.75874,-14.90309 8.0665,-23.32333 2.16615,-3.4364 9.5845,-17.75718 9.5845,-18.50246 0,-1.29334 -1.47002,-0.11194 -3.86838,3.10867 -1.46535,1.96778 -3.15441,3.94366 -3.75348,4.39084 -0.59907,0.44717 -1.08922,1.20576 -1.08922,1.68574 0,0.48001 -0.70414,1.65412 -1.56475,2.60917 -0.8606,0.95505 -3.51889,4.11644 -5.90731,7.02533 -5.63531,6.8633 -8.32076,9.6813 -12.11352,12.71139 -2.62386,2.09626 -3.64062,2.51338 -6.65858,2.73169 l -3.56182,0.25763 -3.03997,-3.12101 c -1.67197,-1.71656 -3.41606,-4.05923 -3.87575,-5.20592 -0.45968,-1.14671 -1.57973,-3.2049 -2.48899,-4.5738 -0.90926,-1.36888 -2.04716,-3.39886 -2.52867,-4.51108 -0.48148,-1.11224 -1.08709,-2.02223 -1.34578,-2.02223 -0.25869,0 -0.47032,-0.24474 -0.47032,-0.54385 0,-0.46399 -1.17611,-2.62608 -4.04445,-7.43514 -3.08624,-5.17438 -4.60073,-8.19944 -4.96136,-9.90986 -0.23447,-1.11221 -0.68414,-2.02223 -0.99917,-2.02223 -0.72649,0 -0.75424,2.30331 -0.0332,2.749 0.29683,0.18343 0.69561,1.52997 0.88617,2.99226 0.48706,3.73758 2.22781,11.7511 2.87533,13.23648 1.92882,4.42475 3.13232,17.35617 1.99462,21.43225 -0.89675,3.21288 -8.0595,3.01627 -13.31912,-0.36554 -1.29619,-0.8334 -3.01731,-1.76644 -3.82472,-2.07343 -0.80741,-0.30697 -3.33459,-1.83604 -5.61598,-3.39795 -2.28133,-1.56188 -4.28513,-2.8398 -4.45283,-2.8398 -0.16767,0 -2.23508,-1.25999 -4.59421,-2.79998 -2.35911,-1.54001 -4.61604,-2.8 -5.01535,-2.8 -0.39935,0 1.61576,2.46206 4.47796,5.47123 6.80736,7.15684 11.11516,12.22809 11.11516,13.08503 0,0.37886 0.55998,0.98851 1.24445,1.35482 0.68444,0.3663 1.24746,1.00615 1.25112,1.42188 0.005,0.41573 1.06608,1.87588 2.36085,3.24476 4.67189,4.93935 5.72134,6.75312 5.72134,9.88844 0,3.94733 -1.88512,5.73549 -6.6778,6.3343 -4.64308,0.5801 -20.4749,-0.0235 -21.46677,-0.81747 -0.4338,-0.34756 -2.67871,-0.82822 -4.98872,-1.06812 -3.2983,-0.34257 -4.19966,-0.25859 -4.19849,0.39109 0.001,0.73671 4.74376,3.51981 7.62071,4.4722 0.59889,0.19825 1.08889,0.80814 1.08889,1.35527 0,0.69076 0.35781,0.88123 1.17077,0.6232 0.75123,-0.23842 1.30705,-0.0165 1.55114,0.61974 0.5716,1.48957 1.63365,0.46472 1.63365,-1.57646 0,-2.12944 0.9381,-2.89549 2.23139,-1.82215 0.70626,0.58614 1.10716,0.59915 1.65275,0.0536 0.99181,-0.99183 1.71585,-0.90192 1.71585,0.21307 0,1.28626 1.7582,1.16809 4.50217,-0.3026 2.30866,-1.23737 4.75871,-1.01363 5.7073,0.52119 0.206,0.33356 1.48846,0.79461 2.8496,1.02459 3.28356,0.55474 5.94139,3.50372 4.90431,5.44153 -0.56984,1.06475 -0.49007,1.45824 0.43226,2.13268 1.74657,1.27712 2.63523,1.01229 4.77285,-1.42233 1.85035,-2.10741 2.15346,-2.22809 4.80321,-1.91252 1.55554,0.18531 3.59822,0.63056 4.53933,0.98953 1.55306,0.59239 1.71112,0.9415 1.71112,3.77918 0,2.92013 0.10277,3.12652 1.55555,3.12652 1.12496,0 1.55556,-0.33432 1.55556,-1.20772 0,-0.66426 -0.30516,-1.39632 -0.67811,-1.62681 -0.85438,-0.52805 -0.23282,-4.06076 1.31126,-7.45372 0.6284,-1.38075 1.34162,-3.34076 1.58493,-4.35554 0.78843,-3.28831 2.47434,-4.22243 5.10145,-2.82656 0.59425,0.31577 3.14399,1.20165 5.66612,1.96868 l 4.5857,1.39459 -0.35426,2.99129 c -0.19496,1.6452 -0.71842,3.62929 -1.16348,4.40909 -0.44506,0.7798 -1.22921,2.67781 -1.74254,4.2178 -0.77714,2.33145 -1.22585,2.83354 -2.68141,3.00046 -2.19696,0.25192 -2.06002,2.06893 0.1959,2.59776 0.92078,0.21589 1.62669,0.87373 1.73522,1.61717 0.1237,0.84786 1.43141,1.84599 4.04232,3.0856 2.12264,1.00777 4.0703,1.76232 4.32814,1.67676 0.86002,-0.28535 0.48231,1.12278 -0.39106,1.45792 -0.47293,0.18155 -1.62414,-0.37837 -2.55826,-1.24408 -1.90786,-1.76812 -2.26849,-1.90537 -7.4111,-2.82018 -3.93896,-0.70071 -4.9564,-0.36035 -5.53482,1.85154 -0.24562,0.9392 0.0668,1.31705 1.33275,1.61237 3.29297,0.76812 10.67588,4.76225 10.66621,5.7704 -0.005,0.57494 -0.20224,0.73159 -0.46667,0.37145 -0.55683,-0.75864 -5.92015,-3.42163 -6.89119,-3.42163 -0.84722,0 -1.62545,2.77406 -1.04272,3.71693 0.23,0.37211 2.1452,1.49914 4.25606,2.50454 4.34931,2.07157 4.76476,1.92715 6.26719,-2.17847 0.76793,-2.0985 0.91714,-2.23777 0.95414,-0.89062 0.0663,2.41534 -1.16113,8.74088 -2.10494,10.84758 -0.45995,1.02666 -1.32751,3.96666 -1.92795,6.53333 -0.60046,2.56665 -1.38971,5.04873 -1.75395,5.5157 -1.6472,2.1119 4.77591,4.86109 10.12612,4.33407 2.0223,-0.19919 2.09177,-0.2985 2.3209,-3.31646 0.26586,-3.50154 1.29428,-8.70402 2.09099,-10.57777 0.29105,-0.68443 0.70457,-2.04746 0.91895,-3.02896 0.21448,-0.98149 0.50917,-1.66515 0.65507,-1.51927 0.43605,0.43607 -1.03456,8.12915 -1.95793,10.24227 -0.47124,1.07839 -0.85678,3.35618 -0.85678,5.06175 0,4.38527 1.58844,5.3699 8.71108,5.39977 l 5.28888,0.0212 0.19496,-2.02222 c 0.22247,-2.30693 1.36058,-2.77798 1.36058,-0.56312 0,2.60973 2.50449,3.99808 8.45182,4.68522 0.37075,0.0428 0.84203,-0.0901 1.04729,-0.29532 z m -30.60135,-39.44895 c -0.0188,-0.51333 0.23722,-1.35333 0.56895,-1.86666 0.73505,-1.1374 0.73505,-0.15498 0,1.55555 -0.35259,0.82054 -0.5464,0.92653 -0.56895,0.31111 z m 3.47805,-1.65386 c -0.52086,-0.52085 0.74904,-2.08396 1.6782,-2.06564 0.38586,0.007 1.40159,0.5614 2.25714,1.23062 l 1.55555,1.21678 -2.54073,0.0141 c -1.39743,0.007 -2.72499,-0.1705 -2.95016,-0.39558 z m -9.21067,-28.67942 c -0.77397,-0.98687 -0.75196,-1.00888 0.23493,-0.23493 0.59891,0.46968 1.08889,0.95968 1.08889,1.08888 0,0.51211 -0.51096,0.18249 -1.3238,-0.85397 z m -107.56488,64.5698 c 0.74451,-0.46966 0.97448,-2.44227 1.13668,-9.74985 0.12887,-5.80398 0.41037,-8.83391 0.76825,-8.26832 0.31071,0.49101 0.56921,2.44673 0.57443,4.34606 0.005,1.89933 0.33368,3.77746 0.72982,4.17361 0.5456,0.54559 0.52711,0.9531 -0.0762,1.68001 -0.54059,0.65135 -0.5721,0.9597 -0.0981,0.9597 0.38413,0 0.69841,0.94779 0.69841,2.10621 0,2.80403 1.97169,4.05643 7.14708,4.5397 3.1482,0.29399 4.34136,0.15263 5.58386,-0.66149 1.50807,-0.98811 1.58015,-1.30437 1.58015,-6.93211 0,-3.2432 0.25003,-5.89675 0.55566,-5.89675 0.96208,0 1.311,1.81491 1.311,6.81914 0,5.39981 0.61845,6.47193 3.54014,6.1369 l 1.74875,-0.2006 0.17191,-14.31109 c 0.0981,-8.16278 -0.0823,-14.84572 -0.42004,-15.55551 -0.32559,-0.68444 -0.75584,-2.78444 -0.95611,-4.66667 -0.20036,-1.88221 -0.69439,-5.86924 -1.09801,-8.86004 -0.73328,-5.4332 -0.73592,-5.43882 -3.11353,-6.61517 -1.36512,-0.67541 -2.53399,-0.92763 -2.74166,-0.59159 -0.19919,0.32216 -0.74622,0.079 -1.21583,-0.54038 -0.8175,-1.07823 -0.85466,-1.07489 -0.87359,0.0786 -0.0266,1.61407 2.32785,10.29859 3.21574,11.86189 0.93718,1.65005 1.47687,20.92396 0.54884,19.59995 -0.35981,-0.51333 -0.6585,-3.0868 -0.66374,-5.71882 -0.005,-2.63203 -0.28952,-4.95854 -0.63174,-5.17005 -0.34222,-0.21142 -0.62224,-1.01528 -0.62224,-1.78619 0,-1.64024 -2.27254,-10.56504 -3.08012,-12.09638 -0.30478,-0.57791 -1.39333,-2.87072 -2.41903,-5.09517 -1.26326,-2.73969 -2.48363,-4.40707 -3.78285,-5.1685 -1.05488,-0.61824 -1.91798,-1.40477 -1.91798,-1.74783 0,-0.34307 -0.25064,-0.46884 -0.55702,-0.2795 -0.30636,0.18931 -0.71758,-0.0741 -0.9138,-0.5855 -0.19613,-0.51136 -0.64557,-0.92975 -0.99853,-0.92975 -0.84431,0 -0.83448,6.02965 0.0118,6.55198 0.446,0.27564 0.4219,0.68101 -0.0762,1.28116 -0.56657,0.68268 -0.53868,0.88887 0.12535,0.92707 0.63058,0.0362 0.65052,0.13122 0.0762,0.36296 -0.45498,0.18367 -0.77775,1.43757 -0.77775,3.02146 0,2.93145 -1.021,6.33064 -1.6981,5.65354 -0.23046,-0.23023 -0.61969,-1.8792 -0.86519,-3.66407 -1.94958,-14.17467 -2.34347,-15.54947 -5.33178,-18.60976 -1.7546,-1.79689 -2.80833,-2.36878 -4.36454,-2.36878 h -2.05149 l -0.0517,5.75556 c -0.0285,3.16553 -0.16086,6.45553 -0.29418,7.31108 -0.13334,0.85555 -0.43283,13.08459 -0.66569,27.17565 l -0.42338,25.62007 2.11754,0.25808 c 4.17655,0.50898 10.22377,0.42721 11.13975,-0.15074 z m 5.44986,-30.50319 c -0.69218,-5.13537 -0.59049,-9.29038 0.19449,-7.94332 0.34574,0.5934 0.54721,3.39339 0.44774,6.22222 l -0.18085,5.14332 z m 98.60421,25.04439 c 0.14768,-1.62556 0.16344,-3.15908 0.0348,-3.40787 -0.35075,-0.67898 -15.83052,0.13499 -17.44459,0.91738 -1.01377,0.49136 -1.78621,0.48882 -2.79998,-0.009 -0.92182,-0.45282 -10.00746,-0.78253 -26.59996,-0.96526 -13.85996,-0.15262 -25.68758,-0.47951 -26.28358,-0.72639 -0.76058,-0.31506 -1.19151,-0.10512 -1.44542,0.70455 -0.19896,0.63439 -0.56925,1.57345 -0.82284,2.08678 -0.25358,0.51333 -0.16321,1.49333 0.20107,2.17777 0.63985,1.20275 1.41236,1.25171 23.06199,1.46172 12.31997,0.11947 22.51662,0.3295 22.65923,0.46667 0.14251,0.13711 6.76436,0.24938 14.71509,0.24938 h 14.45583 l 0.26848,-2.95555 z m 2.22151,-8.97562 c 0.13334,-0.70374 -0.57224,-1.37555 -2.17246,-2.06832 -1.3035,-0.56431 -3.30976,-1.4854 -4.4584,-2.04687 -1.98298,-0.96933 -2.13259,-0.96044 -2.96371,0.17614 -0.7678,1.05004 -0.73361,1.33875 0.27833,2.35071 2.60112,2.60113 8.92014,3.67844 9.31624,1.5883 z m -14.50125,-6.70726 c 0.23651,-2.03782 0.82401,-4.03209 1.30555,-4.43174 0.48153,-0.39962 0.87549,-1.37579 0.87549,-2.16925 0,-0.79344 0.28001,-1.61569 0.62223,-1.8272 1.17324,-0.72508 0.64301,-2.17777 -0.79487,-2.17777 -1.90714,0 -4.1829,-1.67291 -4.1829,-3.07483 0,-1.76582 2.70554,-3.14737 6.1636,-3.14737 1.70296,0 3.26933,0.27999 3.48082,0.62221 0.5812,0.9404 1.55556,0.74553 1.55556,-0.31111 0,-0.59853 -0.60096,-0.93332 -1.67531,-0.93332 -2.49661,0 -13.40884,-1.8855 -14.62913,-2.52775 -1.73201,-0.91152 -2.0072,0.58289 -0.34773,1.88823 2.20576,1.73504 3.06004,5.24432 2.34547,9.6348 -0.59255,3.64077 -2.44264,6.56024 -4.15729,6.56024 -0.45366,0 -0.82486,0.25864 -0.82486,0.57476 0,0.31611 -1.47,0.83059 -3.26665,1.14325 -3.07283,0.53475 -3.15591,0.59583 -1.40002,1.0292 1.02669,0.2534 2.45622,0.74457 3.17673,1.09154 1.3024,0.62713 6.52019,1.53526 9.67328,1.68361 1.56449,0.0736 1.67229,-0.11429 2.08003,-3.6275 z m -5.78338,-0.15263 c -1.05756,-1.05753 -0.92546,-3.30811 0.2515,-4.28489 0.54898,-0.45562 1.24205,-1.46991 1.54012,-2.25397 0.29813,-0.78405 0.95146,-1.42555 1.45187,-1.42555 0.70352,0 0.90983,0.90294 0.90983,3.98202 0,3.56976 -0.14087,4.01983 -1.36109,4.34705 -1.85437,0.49731 -1.94169,0.48591 -2.79223,-0.36466 z m 3.48621,-2.17842 c 0.10912,-0.73696 -0.24161,-1.43711 -0.83391,-1.6644 -1.95511,-0.75024 -2.93412,1.07212 -1.40009,2.60616 1.0198,1.01979 2.00495,0.60448 2.234,-0.94176 z m 0.12276,-3.60822 c 0,-0.51333 -0.27999,-0.93334 -0.62221,-0.93334 -0.34222,0 -0.62221,0.42001 -0.62221,0.93334 0,0.51333 0.27999,0.93332 0.62221,0.93332 0.34222,0 0.62221,-0.41999 0.62221,-0.93332 z m 18.04007,8.24443 c -0.005,-1.11466 -0.85604,-1.80387 -4.18316,-3.38149 l -4.17883,-1.98147 -1.09547,1.66994 c -1.07116,1.63291 -1.06464,1.67895 0.29429,2.07587 0.76437,0.22318 2.50976,0.98231 3.87864,1.68676 3.4142,1.75698 5.29013,1.73226 5.28453,-0.0696 z m -35.46225,-2.9048 c 0,-0.31433 -0.99474,-1.18627 -2.21055,-1.93768 -2.46802,-1.52532 -5.2561,-6.54667 -5.2561,-9.46624 0,-1.03284 -0.26259,-1.62464 -0.62221,-1.40236 -0.34225,0.21142 -0.62224,1.17373 -0.62224,2.13831 0,2.20761 -0.7588,2.80087 -4.79138,3.74597 -3.25692,0.76332 -5.14416,2.07007 -4.00575,2.77362 0.32814,0.20272 2.79173,0.80264 5.47465,1.33295 2.68291,0.53033 5.43805,1.20884 6.12249,1.50784 1.49354,0.65243 4.79274,1.76133 5.44442,1.82993 0.25667,0.027 0.46667,-0.20813 0.46667,-0.52234 z m 11.60283,-4.64534 c 1.66935,-1.93481 2.48784,-7.15717 1.44117,-9.19557 -0.4107,-0.79984 -1.75045,-2.50426 -2.97721,-3.78758 -1.93312,-2.02228 -2.60766,-2.33461 -5.05976,-2.34286 -1.79804,-0.007 -2.52483,-0.20248 -1.99403,-0.53889 0.94231,-0.59724 -3.15356,-2.78712 -6.48707,-3.46839 l -1.91852,-0.39207 v 2.89946 c 0,2.04741 -0.30168,3.06826 -1.02664,3.47395 -0.82116,0.45955 -0.88431,0.80243 -0.31552,1.71317 0.67526,1.08129 0.77658,1.06553 2.01181,-0.31278 0.71538,-0.79828 2.14073,-1.62754 3.16739,-1.84279 l 1.86666,-0.39139 -1.72084,1.19567 c -2.66254,1.84997 -3.53256,3.36766 -3.48162,6.07355 l 0.0468,2.4889 0.59221,-2.64444 c 0.32571,-1.45443 0.85571,-2.64444 1.1778,-2.64444 0.32206,0 0.5856,-0.40684 0.5856,-0.90409 0,-1.0819 3.64629,-2.19867 7.19467,-2.20354 1.96156,-0.002 2.8831,0.37994 4.11254,1.70764 1.56621,1.69134 3.62609,5.40059 3.62609,6.5295 0,0.94296 -3.36211,5.42046 -4.08107,5.43497 -0.36238,0.007 -1.20236,0.41597 -1.86667,0.90816 -1.08909,0.80691 -0.96318,0.84071 1.28109,0.34367 1.36888,-0.30315 3.09016,-1.24807 3.82505,-2.09981 z m -3.35205,-1.34169 c 3.76524,-3.49134 0.9669,-10.86368 -4.12352,-10.86368 -3.06372,0 -6.00845,2.56784 -5.95018,5.18862 0.0682,3.07156 0.8151,4.32704 3.43725,5.77837 3.25071,1.79926 4.6074,1.77815 6.63645,-0.10324 z m -3.12139,-2.30815 c 0.1404,-0.42777 1.21376,-0.82686 2.38517,-0.88687 1.17143,-0.06 1.56988,0.0372 0.88541,0.21588 -0.68444,0.17873 -1.51042,0.57786 -1.83555,0.88686 -0.86091,0.81827 -1.73153,0.68726 -1.43503,-0.21589 z m -0.40553,-4.5111 c 0.5606,-0.85555 1.22823,-1.55556 1.48362,-1.55556 0.25542,0 0.33056,0.70001 0.16697,1.55556 -0.19331,1.01132 -0.7124,1.55555 -1.48361,1.55555 -1.12231,0 -1.13131,-0.0837 -0.16698,-1.55555 z m -18.99403,4.64477 c 1.36394,-0.72997 1.5893,-2.62127 0.42575,-3.5731 -0.42777,-0.34996 -2.95181,-0.83751 -5.60897,-1.08348 -7.605,-0.70396 -6.82127,-1.79319 1.00293,-1.39387 6.58796,0.33624 6.62827,0.32963 6.62827,-1.08367 0,-1.81495 -1.00867,-2.17535 -6.11755,-2.18581 -4.98937,-0.009 -6.94909,-0.46698 -6.94909,-1.61962 0,-1.0252 5.91368,-1.24111 6.53331,-0.23855 0.21142,0.34222 1.90803,0.62223 3.77006,0.62223 3.34685,0 3.38548,-0.0212 3.38548,-1.86666 0,-1.56426 -0.24605,-1.86666 -1.51882,-1.86666 -0.83537,0 -1.69188,-0.28002 -1.9034,-0.62224 -0.21235,-0.34356 -3.00991,-0.62221 -6.24708,-0.62221 -6.65553,0 -6.27081,-0.35422 -6.72798,6.19459 -0.13029,1.86702 -0.55427,3.50037 -0.94205,3.62962 -2.7347,0.91156 1.97026,5.3794 6.21007,5.8971 4.16425,0.50846 6.87631,0.44532 8.05907,-0.18767 z m 37.29234,-4.95588 c 0,-0.34222 -0.43652,-0.62224 -0.97005,-0.62224 -0.53353,0 -0.79699,0.28002 -0.5855,0.62224 0.21141,0.34222 0.64803,0.62221 0.97005,0.62221 0.32204,0 0.5855,-0.27999 0.5855,-0.62221 z m -9.33331,-9.60771 c 0,-2.2015 -0.96089,-2.46176 -1.12525,-0.30478 -0.0764,1.00298 0.14557,1.8236 0.49316,1.8236 0.34765,0 0.63209,-0.68347 0.63209,-1.51882 z m 12.53104,-0.36854 c -0.80791,-0.67305 -2.11501,-1.22373 -2.90466,-1.22373 -2.43907,0 -3.40399,-0.6795 -3.40799,-2.39991 l -0.005,-1.64454 -0.92951,1.78223 c -1.12668,2.16035 -1.1331,2.2567 -0.15169,2.28332 0.42778,0.0118 1.89778,0.56213 3.26666,1.22333 1.36887,0.66123 3.18888,1.2024 4.04443,1.20264 l 1.55555,4e-4 -1.46892,-1.22374 z m 6.85396,-6.69411 c 0.69385,-1.46873 1.10323,-3.08292 0.90973,-3.58712 -0.43318,-1.12884 -2.7326,-2.0405 -6.17573,-2.44848 l -2.60792,-0.30901 2.10336,0.65744 c 3.07579,0.96138 5.05219,2.4283 5.05219,3.74986 0,1.1838 -1.48054,5.57802 -2.55682,7.58856 -0.32804,0.61281 -0.3957,1.43901 -0.15027,1.836 0.26045,0.4214 0.8036,-0.43076 1.30507,-2.04751 0.47241,-1.52315 1.42664,-3.97104 2.12046,-5.43974 z m -26.36847,5.57901 c -0.14134,-0.85663 0.32596,-1.02516 2.62793,-0.94748 1.53999,0.052 2.37999,-0.06 1.86666,-0.24886 -0.51333,-0.18884 -1.07334,-0.53823 -1.24445,-0.77646 -0.1712,-0.2382 -1.08557,-0.62268 -2.03215,-0.85437 -1.47687,-0.3615 -1.81154,-0.1832 -2.35873,1.25593 -0.35071,0.92247 -0.48822,2.06667 -0.30556,2.54268 0.44598,1.16216 1.66357,0.34436 1.4463,-0.97144 z m 72.65007,-4.61973 c -0.24702,-3.50778 -0.5617,-6.49305 -0.69928,-6.63394 -0.41237,-0.42229 -5.20238,1.33487 -5.88675,2.15947 -0.34916,0.42072 -0.79963,2.15654 -1.00107,3.85736 l -0.36626,3.09244 3.65443,1.8684 c 2.00993,1.02763 3.90048,1.90568 4.20124,1.95121 0.30883,0.0468 0.35135,-2.69293 0.0976,-6.29494 z m -48.84044,0.0762 c 0.90515,-2.74267 0.47507,-4.27621 -1.19925,-4.27621 -0.66666,0 -1.30816,-0.28806 -1.42551,-0.64016 -0.11735,-0.35207 -1.01127,-0.70208 -1.9865,-0.77778 -1.77678,-0.13781 -2.07093,0.14698 -3.39259,3.2846 -1.81206,4.30197 -1.54288,4.93411 2.75417,6.46756 2.26495,0.80825 2.49092,0.77961 3.45423,-0.43808 0.56692,-0.71659 1.37487,-2.34556 1.79545,-3.61993 z m -48.15428,1.57814 c 1.07837,-0.48213 2.48607,-0.87658 3.12821,-0.87658 0.64213,0 1.77344,-0.42441 2.51404,-0.94315 1.22424,-0.8575 1.55468,-0.82617 3.63958,0.34483 2.47663,1.39104 5.29248,1.42344 5.73874,0.0661 0.21213,-0.64519 -0.17873,-0.74326 -1.66312,-0.41724 -1.50323,0.33018 -1.94039,0.21471 -1.94039,-0.51248 0,-1.17548 -5.64865,-5.06512 -6.15972,-4.24158 -0.20554,0.33114 -2.0536,1.08145 -4.10694,1.66733 -4.2428,1.21059 -7.77776,3.15298 -7.77776,4.27368 0,2.15049 2.67083,2.40807 6.62736,0.63917 z m 87.11628,-3.65142 c -0.26579,-0.75304 -2.30401,-0.51189 -3.21049,0.37985 -0.41287,0.40616 -0.20601,0.91925 0.6149,1.52498 1.10252,0.81355 1.32344,0.79481 2.0306,-0.17238 0.43643,-0.59684 0.69067,-1.37647 0.56499,-1.73254 z m -45.67512,-5.46112 c 0.5067,-0.34565 0.25895,-0.4659 -0.71416,-0.34664 -1.21524,0.14886 -1.64041,0.75628 -2.30587,3.29372 -1.09556,4.17763 -1.04738,4.22168 0.71946,0.65773 0.83861,-1.69156 1.87388,-3.31374 2.30057,-3.60481 z m -69.24695,-2.10814 c 0.77674,-1.874 1.29487,-3.52466 1.15141,-3.66813 -0.14345,-0.14346 -1.20129,-0.3394 -2.35076,-0.4354 -1.91202,-0.15968 -2.13875,0.009 -2.66379,1.98047 -0.31565,1.18528 -1.1104,2.90849 -1.76613,3.82939 -1.63269,2.29288 -1.54646,4.13452 0.20766,4.43731 1.80504,0.31157 3.57936,-1.69908 5.42151,-6.14364 z m -4.62672,2.25522 c 0.25394,-0.85555 0.85962,-2.11555 1.34593,-2.79999 0.82545,-1.16174 0.85609,-1.12037 0.46117,0.62222 -0.23258,1.02665 -0.83836,2.28667 -1.34593,2.8 -0.81766,0.82693 -0.87022,0.756 -0.46117,-0.62223 z m -3.20179,-0.46665 c 0.54712,-1.28335 1.62752,-3.37084 2.40088,-4.6389 1.4006,-2.29655 1.40123,-2.30925 0.16156,-3.24561 -1.52866,-1.1547 -2.42621,-0.94594 -2.68673,0.62497 -0.19378,1.16917 -1.36723,4.12848 -2.77103,6.98888 -0.563,1.14716 -0.52276,1.55699 0.19754,2.01268 1.4109,0.89254 1.63646,0.74688 2.69757,-1.74202 z m 122.34009,0.77775 c 0.53518,-0.64483 0.55872,-0.93332 0.0762,-0.93332 -0.3841,0 -0.69841,0.29653 -0.69841,0.65895 0,0.36242 -0.26064,0.49785 -0.57922,0.30097 -0.31857,-0.19684 -0.75509,-0.0734 -0.97006,0.27437 -0.61922,1.00194 1.31239,0.73423 2.17152,-0.30097 z m -126.85931,-2.17777 c 0.28505,-0.51333 0.95256,-1.91332 1.48334,-3.11109 0.53078,-1.19779 1.36812,-2.87742 1.86073,-3.73257 0.8025,-1.39303 0.7846,-1.59885 -0.17214,-1.97846 -0.58734,-0.23306 -1.26475,-0.44339 -1.50535,-0.46745 -0.44412,-0.0444 -1.52639,2.23334 -2.93574,6.17848 -1.52908,4.28029 -1.54731,4.49596 -0.36024,4.26274 0.61116,-0.12017 1.3444,-0.63832 1.62945,-1.15165 z m -1.97223,-4.60004 c 2.10588,-4.41245 2.2934,-5.35549 1.06499,-5.35549 -0.85743,0 -2.27764,2.50781 -2.27764,4.02186 0,0.46872 -0.21001,0.94555 -0.46665,1.05961 -0.25669,0.11405 -0.9725,1.11741 -1.59074,2.22962 -1.10222,1.98291 -1.09982,2.02223 0.1237,2.02223 0.92086,0 1.74527,-1.0423 3.14627,-3.97783 z m -4.42266,1.23194 c 0.12464,-0.64686 1.03779,-2.4946 2.02936,-4.10612 2.10663,-3.42373 2.24006,-4.34797 0.62769,-4.34797 -0.84398,0 -1.28711,0.59653 -1.57228,2.11651 -0.21847,1.16409 -1.0929,3.42528 -1.94342,5.02486 -1.34997,2.53892 -1.40803,2.88168 -0.4571,2.69855 0.5991,-0.11547 1.19118,-0.739 1.31575,-1.38583 z m 41.15596,-0.5575 c 0.005,-0.27686 -0.27047,-0.33034 -0.61269,-0.11876 -0.34222,0.21142 -0.61794,0.85804 -0.61269,1.43673 0.007,0.90674 0.0929,0.92316 0.61269,0.11876 0.33175,-0.51333 0.60746,-1.15986 0.61269,-1.43673 z m 97.69823,0.69006 c 0,-1.00514 -0.1839,-1.18488 -0.69246,-0.67644 -0.38083,0.38086 -0.50432,0.99684 -0.27439,1.3689 0.64363,1.04138 0.96685,0.8099 0.96685,-0.69246 z m 2.74909,0.9912 c 0.54134,-0.20766 1.01672,-1.11772 1.05641,-2.02221 0.0463,-1.05394 0.17426,-1.25348 0.35673,-0.55566 0.53057,2.03023 1.55302,1.16536 1.1034,-0.93332 -0.50075,-2.33733 -0.96317,-2.97285 -1.35823,-1.86666 -0.15286,0.42777 -0.64016,0.77778 -1.08307,0.77778 -1.3302,0 -2.11228,1.44883 -1.76329,3.26665 0.36442,1.89844 0.31579,1.86001 1.68805,1.33342 z m -145.00028,-1.21019 c 0.21259,-0.55373 0.10817,-0.80348 -0.24453,-0.5855 -0.33832,0.20906 -0.61512,0.64363 -0.61512,0.96565 0,0.89504 0.446,0.6978 0.85965,-0.38015 z m 0.0466,-4.32323 c 0.92088,-1.8822 1.93373,-3.42222 2.25079,-3.42222 0.86735,0 0.69295,2.33818 -0.20131,2.69903 -0.6013,0.24265 -0.59411,0.32498 0.0317,0.36296 0.70812,0.043 2.99783,-4.18142 2.49358,-4.60049 -0.87674,-0.72865 -3.11544,-1.56974 -3.5172,-1.32145 -0.27471,0.1698 -0.87867,1.51273 -1.34214,2.98434 -0.46348,1.47157 -1.21292,3.11767 -1.66543,3.65795 -0.93088,1.11137 -1.10514,3.0621 -0.27357,3.0621 0.30205,0 1.30265,-1.53999 2.22353,-3.42222 z m 48.8229,-2.79998 c -0.0188,-0.58863 -0.21965,-0.46573 -0.54336,0.3327 -0.28226,0.69633 -0.97979,1.65329 -1.55008,2.12659 -0.57031,0.47331 -1.31637,1.44359 -1.6579,2.15618 -0.34157,0.71259 0.36957,0.17568 1.58027,-1.19327 1.21068,-1.36888 2.18767,-2.90887 2.17107,-3.4222 z m -51.59269,0.61323 c 0.45016,-1.36394 1.02097,-2.47989 1.26851,-2.47989 0.63832,0 1.19699,-2.44036 0.79718,-3.48224 -0.6192,-1.61364 -1.20438,-0.89513 -2.32922,2.86 -0.61506,2.05334 -1.37709,3.73333 -1.69337,3.73333 -0.7013,0 -1.75037,2.6019 -1.33343,3.30719 0.5335,0.90252 2.44962,-1.39098 3.29033,-3.93839 z m 30.22835,1.73873 c 1.1683,-1.10196 2.1242,-2.22871 2.1242,-2.50388 0,-0.27517 0.97997,-1.92498 2.17777,-3.66623 1.19776,-1.74127 2.17777,-3.4895 2.17777,-3.88501 0,-0.39549 0.6794,-1.71891 1.50981,-2.94095 2.31589,-3.40815 5.95684,-10.35033 5.95684,-11.35791 0,-0.94546 -16.55116,-17.1979 -17.51399,-17.1979 -0.30641,0 -0.85612,0.76999 -1.22155,1.7111 -0.36545,0.9411 -1.33946,3.01236 -2.16443,4.60279 -0.825,1.59046 -1.49999,3.30269 -1.49999,3.80499 0,0.50229 -0.53341,1.59137 -1.18535,2.42018 -0.65194,0.82881 -1.813,2.71111 -2.58012,4.1829 -1.35127,2.59244 -2.72626,3.74922 -3.51681,2.95867 -0.21118,-0.21118 0.0414,-0.87589 0.56145,-1.47686 1.12235,-1.29697 6.09862,-11.50429 6.09862,-12.50953 0,-0.38405 0.88492,-2.3865 1.96651,-4.44986 l 1.96652,-3.75158 -1.45276,-1.54641 c -1.1724,-1.24795 -1.25736,-1.54638 -0.44024,-1.54638 2.40986,0 3.9459,-1.36516 4.77508,-4.24388 0.46126,-1.60142 1.3361,-4.03166 1.94406,-5.40057 0.60798,-1.36887 1.7293,-5.28886 2.49184,-8.71107 0.76254,-3.42222 1.72798,-6.72455 2.14546,-7.33851 0.69483,-1.02184 0.78638,-0.9733 1.08211,0.57369 0.37947,1.98505 -0.66506,10.21768 -1.41091,11.12035 -0.28276,0.34222 -0.83635,2.44222 -1.23019,4.66667 -0.39384,2.22443 -1.24939,5.16443 -1.90121,6.53331 -1.68723,3.54336 -1.77293,5.28783 -0.30133,6.13418 0.67924,0.39064 1.60511,1.20026 2.05751,1.79915 0.45239,0.59888 1.15663,1.09429 1.56501,1.10087 0.40837,0.007 2.77164,1.5363 5.2517,3.39932 6.63714,4.98579 6.96851,5.11899 8.33892,3.35146 0.62849,-0.81064 1.72109,-2.646 2.42797,-4.07856 0.70692,-1.43256 1.47896,-2.69258 1.71568,-2.80001 0.69314,-0.31454 3.23042,-5.32973 3.23042,-6.38524 0,-0.53109 0.27999,-0.96561 0.62221,-0.96561 0.34222,0 0.62224,-0.34448 0.62224,-0.7655 0,-0.42103 0.95274,-2.31102 2.11723,-4.2 1.16449,-1.88896 2.58285,-5.0393 3.15192,-7.00076 0.56906,-1.96143 1.27448,-3.71449 1.56759,-3.89564 0.29312,-0.18108 1.15203,-2.21631 1.90867,-4.5226 0.75668,-2.30627 1.58615,-4.47322 1.84331,-4.81546 0.42928,-0.5713 1.4803,-4.33158 1.52536,-5.45746 0.0118,-0.26386 -2.43079,-0.57854 -5.42521,-0.69934 -4.90631,-0.19778 -5.44445,-0.10912 -5.44445,0.89865 0,0.61502 -0.6818,1.92854 -1.51513,2.91889 -0.83335,0.99037 -1.70628,2.62184 -1.93987,3.62552 -0.23352,1.00366 -0.91603,2.94485 -1.51654,4.31373 -2.66916,6.08429 -3.11732,7.25307 -3.11732,8.12952 0,0.51246 -0.41999,1.09291 -0.93335,1.28991 -0.51333,0.19707 -0.93332,0.83779 -0.93332,1.42403 0,1.08354 -4.28729,6.54328 -4.76391,6.06668 -0.25107,-0.25107 0.20272,-1.52856 2.09132,-5.8884 0.4872,-1.1247 1.29299,-3.64469 1.79064,-5.59999 0.49762,-1.9553 1.29813,-4.39507 1.77892,-5.42175 0.48078,-1.02666 1.64332,-3.54665 2.58341,-5.59999 0.94009,-2.05332 1.97745,-3.91201 2.30526,-4.13041 1.22808,-0.81823 -0.17779,-1.47633 -3.54865,-1.66115 -2.36772,-0.12982 -3.48144,0.044 -3.48144,0.54319 0,0.50506 -0.24267,0.53953 -0.77777,0.11053 -0.42778,-0.34297 -5.2407,-0.72726 -10.6954,-0.85397 l -9.91764,-0.23047 -0.66452,3.11112 c -0.52766,2.47032 -0.91992,3.11109 -1.90458,3.11109 -1.09074,0 -1.21754,-0.35584 -1.05332,-2.95555 0.10277,-1.62554 0.10277,-2.97415 0,-2.99689 -0.10277,-0.0235 -4.45671,-0.19755 -9.67559,-0.38864 l -9.48885,-0.34728 v 3.58714 c 0,3.76296 -1.64415,8.05496 -3.85051,10.05172 -1.61268,1.45944 -2.18676,0.49106 -0.95002,-1.60255 1.02988,-1.74345 2.90673,-8.66926 2.92467,-10.79238 0.007,-0.94105 -0.62435,-1.08888 -4.65747,-1.08888 -4.45474,0 -4.66665,0.0649 -4.66665,1.4311 0,0.78712 -0.35,1.78137 -0.77778,2.20945 -1.10356,1.10433 -1.13093,45.96476 -0.0284,46.64581 0.46022,0.28432 0.91497,3.02527 1.17869,7.10439 l 0.42938,6.64147 2.02643,0.96158 c 1.11455,0.5289 2.21281,0.96162 2.4406,0.96162 0.22788,0 1.33189,0.7 2.45358,1.55555 1.12169,0.85555 2.33855,1.55556 2.70417,1.55556 0.3656,0 2.15277,0.98 3.97151,2.17777 1.81873,1.19777 3.66317,2.17777 4.09875,2.17777 0.43559,0 0.79196,0.25777 0.79196,0.57278 0,0.31503 0.83679,0.75659 1.85954,0.9812 1.02273,0.22459 2.01924,0.66689 2.21448,0.98277 0.19519,0.31591 0.90724,0.57436 1.58223,0.57436 0.67498,0 1.37635,0.38857 1.55861,0.86352 0.18226,0.47493 1.17994,1.03322 2.21711,1.24064 2.10374,0.42077 3.37067,-0.68082 5.26375,-4.57662 1.17951,-2.42738 7.20867,-10.67494 7.55237,-10.33126 0.71503,0.71506 -2.26218,7.01202 -4.81043,10.1744 -3.91921,4.8637 -4.18243,5.78201 -2.03051,7.08434 0.93716,0.56716 1.79804,1.0568 1.91309,1.08808 0.115,0.0313 1.16501,-0.84473 2.33331,-1.94669 z m -4.72511,-15.4186 c 0.4516,-0.85557 1.47743,-2.42199 2.27964,-3.48097 0.80219,-1.05897 1.45855,-2.19456 1.45855,-2.52354 0,-0.32897 0.70001,-1.54694 1.55556,-2.70659 2.75833,-3.73871 1.80131,-0.20225 -1.16289,4.297 -2.91284,4.42146 -5.71558,7.41633 -4.13086,4.4141 z m -25.07356,-8.05333 c 0.18414,-0.70398 0.58207,-1.27999 0.88438,-1.27999 0.83925,0 0.65512,1.00453 -0.33474,1.82603 -0.72566,0.60225 -0.82429,0.50425 -0.54964,-0.54604 z m 1.69224,-4.07999 c 0.86505,-8.93294 2.44868,-20.58254 2.83356,-20.8444 0.61462,-0.41818 1.74887,-9.83522 2.26951,-18.84266 0.23306,-4.03236 0.6744,-7.48645 0.98073,-7.67576 0.30631,-0.18931 0.99908,0.0235 1.53947,0.47121 0.82268,0.68277 0.91982,1.77979 0.59715,6.74244 -0.58066,8.92977 -1.00357,12.64071 -1.59728,14.01589 -0.70099,1.62361 -2.43878,11.09213 -2.94247,16.03234 -0.21753,2.1333 -0.57981,4.01873 -0.80508,4.18984 -0.22529,0.17121 -1.01869,2.13111 -1.7631,4.35554 -1.17893,3.5228 -1.32243,3.72343 -1.11249,1.55556 z m -8.97884,25.31879 c -0.007,-0.90674 -0.0929,-0.92318 -0.61269,-0.11876 -0.78747,1.21854 -0.78747,2.04224 0,1.55553 0.34222,-0.21141 0.61793,-0.85801 0.61269,-1.4367 z m 6.23175,-6.09888 c 0,-0.47542 -0.28,-0.86439 -0.62222,-0.86439 -0.34222,0 -0.62223,0.64399 -0.62223,1.43111 0,0.78711 -0.21001,1.70303 -0.46665,2.03539 -0.25669,0.33235 0.0235,0.0774 0.62221,-0.56671 0.59889,-0.64406 1.08889,-1.55998 1.08889,-2.0354 z m 130.66641,0.12629 c 0,-0.13946 -0.69771,-1.60953 -1.55046,-3.26665 -0.85272,-1.65713 -1.72269,-3.99298 -1.93321,-5.19075 -0.31652,-1.80082 0.005,-1.43656 1.86156,2.1044 1.23438,2.3552 2.24432,4.64867 2.24432,5.0966 0,0.44793 0.27581,0.98487 0.61288,1.19321 0.77321,0.47787 10.67646,-0.85031 11.51762,-1.54467 0.34377,-0.2838 1.65564,-0.70854 2.91526,-0.94392 1.25962,-0.23539 2.45078,-0.84638 2.64703,-1.35778 0.19613,-0.5114 0.81056,-7.13387 1.36514,-14.71657 0.56161,-7.67876 1.29372,-13.96812 1.65249,-14.19612 0.81341,-0.5169 1.47555,-35.22155 0.68628,-35.96909 -0.30377,-0.28768 -2.51228,-0.62021 -4.90784,-0.73895 l -4.35554,-0.21588 -0.18814,3.62698 c -0.15991,3.08402 -0.32291,3.51504 -1.08888,2.87935 -0.52836,-0.4385 -0.90082,-1.8438 -0.90082,-3.39884 0,-2.05431 -0.25864,-2.71887 -1.14871,-2.95162 -0.63179,-0.16533 -7.01416,-0.15968 -14.18304,0.0118 l -13.03435,0.31294 0.46721,4.3727 c 0.25697,2.40499 0.65436,5.23668 0.88306,6.29264 0.41216,1.90307 0.40454,1.90984 -0.86714,0.77011 -0.70565,-0.6324 -1.54994,-0.98484 -1.87619,-0.78321 -0.6136,0.37921 -1.00533,-1.22326 -1.73299,-7.08916 -0.23352,-1.8822 -0.73326,-3.62792 -1.11059,-3.87934 -0.37736,-0.25142 -2.18236,-0.46143 -4.01111,-0.46667 l -3.32507,-0.009 0.36021,2.95555 c 0.19801,1.62554 0.5182,4.63556 0.71129,6.68887 0.19308,2.05334 0.61175,5.55333 0.93031,7.77776 0.31857,2.22445 0.58475,5.49793 0.59153,7.27438 0.007,1.77647 0.25285,3.37859 0.54682,3.56029 0.29398,0.18155 0.72016,1.8082 0.94707,3.61449 0.38411,3.05752 1.70336,7.38766 3.37025,11.06191 0.38812,0.85555 1.00286,2.73374 1.36606,4.17373 0.36322,1.43999 0.93219,2.78615 1.26441,2.99148 0.74185,0.45847 4.33527,-1.58686 4.35208,-2.47716 0.007,-0.35398 1.44606,-2.1836 3.1986,-4.06584 6.28875,-6.75406 5.71908,-5.19942 4.82539,-13.16851 -0.43505,-3.87951 -1.00761,-7.20181 -1.27235,-7.38289 -0.26475,-0.18108 -0.61574,-4.10104 -0.78001,-8.71108 -0.16415,-4.61004 -0.16791,-7.54188 -0.007,-6.51522 0.15968,1.02666 0.52285,2.42667 0.80684,3.11111 0.28399,0.68444 1.14719,5.16443 1.91821,9.95553 0.77103,4.7911 1.6057,8.8511 1.85479,9.02221 0.24912,0.1712 0.66106,1.15111 0.91545,2.17777 l 0.46253,1.86666 2.11291,-2.48887 c 1.16209,-1.36891 2.11705,-2.82499 2.12215,-3.23576 0.005,-0.41077 0.48991,-1.01584 1.07736,-1.34461 0.88248,-0.49383 0.94553,-0.85072 0.36287,-2.05313 -1.37104,-2.82921 -3.29302,-21.67756 -2.2105,-21.67756 0.57435,0 2.0087,11.13075 2.04466,15.86663 0.009,1.36888 0.44012,3.04627 0.95498,3.72754 0.91319,1.20833 0.97744,1.18547 2.62433,-0.93332 2.7926,-3.59281 5.84349,-6.83865 6.42793,-6.83865 1.21661,0 0.41717,3.46321 -1.93907,8.39997 -1.36888,2.86811 -2.48888,5.59789 -2.48888,6.06621 0,0.46832 -0.4111,1.39501 -0.91354,2.05929 -1.05631,1.39658 -1.2373,3.75875 -0.33091,4.31893 0.34225,0.21141 0.62224,1.13516 0.62224,2.05256 0,1.97879 2.40904,13.58482 3.19025,15.36962 0.29958,0.68446 0.95255,2.64444 1.45104,4.35556 l 0.90637,3.11109 -1.797,-2.17777 c -0.98835,-1.19777 -1.92866,-2.73776 -2.08956,-3.42222 -0.8424,-3.58336 -2.3691,-8.86109 -2.87987,-9.95553 -0.31943,-0.68444 -0.96502,-2.64444 -1.43465,-4.35554 l -0.85388,-3.11111 -1.32933,2.14059 c -1.46713,2.36247 -1.37323,6.12978 0.24131,9.6816 0.4667,1.02668 1.43301,4.10381 2.14736,6.83811 0.71433,2.73428 1.59166,5.32428 1.94956,5.75553 0.47582,0.57332 0.39149,0.78413 -0.31369,0.78413 -0.91131,0 -5.41014,-6.60527 -5.41014,-7.94327 0,-1.18782 -2.05712,-6.99003 -2.47824,-6.99003 -0.23235,0 -0.77578,0.76999 -1.20748,1.71109 -0.43171,0.94111 -1.21701,2.55111 -1.74508,3.57777 -1.68554,3.27686 -3.27063,9.23821 -3.27552,12.31891 -0.005,2.77506 0.13781,3.04757 2.01745,3.86453 1.87318,0.81416 5.44445,1.25623 5.44445,0.67395 z M 174.85348,-376.22 c -0.34243,-0.34243 -1.44731,1.26209 -1.46132,2.12215 -0.005,0.32209 0.38758,0.0426 0.87295,-0.62125 0.48534,-0.66374 0.75012,-1.33915 0.58837,-1.5009 z m 111.77338,-7.48563 c 0,-0.34222 0.58677,-0.62224 1.30395,-0.62224 0.71717,0 2.14847,-0.60135 3.1807,-1.33635 1.66465,-1.18535 1.84058,-1.6061 1.55666,-3.72277 -0.17591,-1.31248 -0.92603,-3.6381 -1.66663,-5.168 -0.74062,-1.5299 -1.3979,-4.16712 -1.46064,-5.86051 -0.0628,-1.69342 -0.22647,-2.97067 -0.3639,-2.83837 -0.88502,0.85207 -2.05153,-4.44814 -3.19961,-14.53781 -0.72893,-6.40597 -1.57719,-12.20719 -1.88505,-12.89166 -0.30789,-0.68443 -0.63355,-3.20442 -0.72374,-5.59998 -0.16321,-4.33518 -0.17261,-4.35653 -2.03062,-4.56616 -1.02666,-0.11594 -2.14666,-0.43864 -2.48888,-0.71736 -0.77961,-0.63496 -2.53878,-0.78357 -8.24443,-0.69644 -4.50953,0.0689 -4.5111,0.0694 -4.5111,1.81109 0,0.95821 0.25252,2.00822 0.56118,2.33332 0.30867,0.32512 1.17386,5.07111 1.92266,10.54665 0.74881,5.47553 1.59794,10.41239 1.88696,10.97076 0.28902,0.55836 0.84878,2.79836 1.24391,4.97775 0.39513,2.17941 1.25346,5.1372 1.90739,6.57286 0.65394,1.43567 1.18898,2.95579 1.18898,3.37806 0,2.66198 4.73947,12.90635 7.54656,16.3118 1.74023,2.11121 4.27565,3.09281 4.27565,1.65536 z m -9.05574,-18.84585 c -0.36066,-0.41477 -1.30475,-3.41411 -2.098,-6.66522 -0.79323,-3.25111 -1.66896,-6.47111 -1.94604,-7.15554 -0.27705,-0.68444 -0.6771,-2.64445 -0.88894,-4.35554 -0.21189,-1.71112 -0.532,-4.09112 -0.71144,-5.28889 -0.24629,-1.64395 -0.16461,-1.94899 0.33298,-1.24445 0.36261,0.51333 0.66356,1.82001 0.66878,2.90372 0.005,1.08369 0.22741,2.06369 0.49346,2.17777 0.26614,0.11406 1.14349,3.70739 1.94965,7.98516 0.80616,4.27776 1.66978,8.05777 1.91918,8.39999 0.46476,0.63778 1.40495,4.06339 1.10353,4.02078 -0.0922,-0.0141 -0.46251,-0.36304 -0.82316,-0.77778 z m 22.30918,-44.77626 c -0.48259,-6.35112 -1.81502,-6.61813 -1.55949,-0.31251 0.20907,5.15918 0.53614,6.53279 1.35858,5.70543 0.31203,-0.31388 0.40243,-2.74069 0.20084,-5.39292 z m 16.541,4.04444 c -0.0444,-1.05274 -0.18156,-1.29215 -0.35676,-0.62222 -0.3476,1.33022 -1.43773,1.44816 -1.43773,0.15545 0,-0.51333 -0.28,-0.93332 -0.62224,-0.93332 -0.69512,0 -0.85287,2.05082 -0.20742,2.6963 0.22811,0.22811 0.92815,0.41481 1.55556,0.41481 0.84713,0 1.12216,-0.44042 1.06856,-1.71112 z m 11.09205,-0.85311 c -0.43584,-3.24948 -1.37541,-4.26779 -1.57086,-1.70256 -0.18202,2.38752 0.36976,4.26679 1.25258,4.26679 0.41666,0 0.53469,-0.95087 0.31828,-2.56423 z m 7.02451,1.28307 c 0,-0.70464 -0.26776,-1.1157 -0.59502,-0.91343 -0.32729,0.20225 -0.43733,0.77879 -0.24456,1.28116 0.49358,1.28622 0.83958,1.13465 0.83958,-0.36773 z m -46.04434,-0.89664 c 0,-0.85555 -0.27999,-1.55553 -0.62223,-1.55553 -0.34222,0 -0.62222,0.69998 -0.62222,1.55553 0,0.85558 0.28,1.55556 0.62222,1.55556 0.34224,0 0.62223,-0.69998 0.62223,-1.55556 z m 15.36449,-0.76592 c -0.1578,-0.6054 -0.29721,-0.26073 -0.30988,0.76592 -0.0118,1.02669 0.11641,1.522 0.28684,1.10074 0.17049,-0.42126 0.18084,-1.26126 0.0235,-1.86666 z m 2.95101,1.76403 c 0.18955,-0.30661 -0.0722,-1.3566 -0.58167,-2.33333 l -0.92619,-1.77587 -0.005,2.33334 c -0.005,2.18421 0.72809,3.04376 1.5117,1.77586 z m 15.28444,-0.0647 c 0,-0.34222 -0.12347,-0.62221 -0.2744,-0.62221 -0.15098,0 -0.44743,0.27999 -0.65895,0.62221 -0.21141,0.34222 -0.0879,0.62221 0.2744,0.62221 0.36242,0 0.65895,-0.27999 0.65895,-0.62221 z m 14.75756,-3.56922 c -0.14298,-0.94581 -0.26386,-0.31967 -0.26852,1.39145 -0.005,1.7111 0.11241,2.48495 0.26003,1.71966 0.14769,-0.76529 0.15145,-2.16528 0.009,-3.11111 z m -56.75749,2.94701 c 0.21142,-0.34222 0.088,-0.62224 -0.27437,-0.62224 -0.36242,0 -0.65895,0.28002 -0.65895,0.62224 0,0.34222 0.12346,0.62221 0.27437,0.62221 0.15098,0 0.44746,-0.27999 0.65895,-0.62221 z m 16.48886,-0.31113 c 0,-0.51333 -0.27999,-0.93332 -0.62221,-0.93332 -0.34222,0 -0.62224,0.41999 -0.62224,0.93332 0,0.51335 0.28002,0.93334 0.62224,0.93334 0.34222,0 0.62221,-0.41999 0.62221,-0.93334 z m 12.24724,-0.42778 c -0.19872,-0.49635 -0.34606,-0.34892 -0.37592,0.37595 -0.027,0.65591 0.11993,1.02341 0.32681,0.81665 0.20672,-0.20672 0.22882,-0.74342 0.0491,-1.1926 z m -85.38377,-7.19442 c 0.94729,0 1.59189,0.44069 1.79811,1.22926 0.37519,1.43475 1.64967,0.91336 1.64967,-0.67487 0,-1.46212 -1.2111,-2.57661 -2.8,-2.57661 -2.2554,0 -2.80779,1.21279 -2.67812,5.88 l 0.12182,4.38665 0.21589,-4.12222 c 0.20224,-3.86284 0.3088,-4.12221 1.69256,-4.12221 z m 17.99219,5.98887 c 0.21377,-1.06944 0.3889,-3.04595 0.3889,-4.39225 0,-1.47346 0.24768,-2.29477 0.62221,-2.06329 0.34222,0.21142 0.62224,-0.052 0.62224,-0.5855 0,-0.53353 -0.31915,-0.97005 -0.7092,-0.97005 -1.47494,0 -2.36276,2.26104 -2.38214,6.06666 -0.0212,4.11225 0.80431,5.21283 1.45799,1.94443 z m 25.27773,1.32222 c 0,-0.34222 -0.27999,-0.62221 -0.62221,-0.62221 -0.34222,0 -0.62222,0.27999 -0.62222,0.62221 0,0.34222 0.28,0.62224 0.62222,0.62224 0.34222,0 0.62221,-0.28002 0.62221,-0.62224 z m -64.33505,-1.69814 c -0.63249,-0.63249 -1.15438,0.31976 -0.63543,1.15944 0.39203,0.6343 0.53859,0.63479 0.74935,0.002 0.14416,-0.43231 0.0929,-0.95519 -0.11382,-1.16195 z m 9.57961,0.41698 c 0,-0.32202 -0.27999,-0.5855 -0.62221,-0.5855 -0.34222,0 -0.62224,0.43652 -0.62224,0.97005 0,0.53353 0.28002,0.79702 0.62224,0.5855 0.34222,-0.21141 0.62221,-0.64803 0.62221,-0.97005 z m 26.57239,-2.60771 c -0.14839,-0.76999 -0.26964,-0.13992 -0.26964,1.4 0,1.53998 0.12134,2.16998 0.26964,1.39999 0.14839,-0.77 0.14839,-2.02999 0,-2.79999 z m -6.07682,-5.06777 c -0.77366,-0.83526 -1.41349,2.48027 -0.8579,4.44554 0.45365,1.60463 0.51143,1.53688 0.92864,-1.08889 0.24467,-1.53999 0.21283,-3.05048 -0.0708,-3.35665 z m 73.27766,1.96393 c -0.14887,-0.77399 -0.27626,-0.28726 -0.28317,1.08162 -0.007,1.36887 0.11499,2.00214 0.27061,1.40725 0.15568,-0.59491 0.16132,-1.7149 0.0118,-2.48887 z m -120.70529,-2.18504 c -0.14251,-0.9411 -0.2592,-0.1712 -0.2592,1.7111 0,1.88223 0.11664,2.65222 0.2592,1.71112 0.14251,-0.9411 0.14251,-2.48111 0,-3.42222 z m 5.65993,-0.45414 c -0.107,-0.0929 -0.89449,-0.34125 -1.75004,-0.5517 -0.85557,-0.21048 -1.20555,-0.22201 -0.77778,-0.0254 0.42778,0.19636 0.77778,1.03768 0.77778,1.86936 0,0.83168 0.34998,2.07794 0.77778,2.76949 0.70829,1.14502 0.79513,1.02729 0.97226,-1.31764 0.10701,-1.41624 0.10701,-2.65107 0,-2.74406 z m 146.14524,2.3208 c -0.15662,-0.59888 -0.28455,-0.10888 -0.28455,1.08889 0,1.19777 0.12793,1.68777 0.28455,1.08888 0.15663,-0.59888 0.15663,-1.57888 0,-2.17777 z m -124.87311,0.48857 c 0,-1.2393 -0.43038,-2.07512 -1.31124,-2.54654 -1.48272,-0.79353 -2.86696,0.0569 -2.10343,1.2924 0.34631,0.56036 0.5883,0.53546 0.98494,-0.10136 0.37387,-0.60025 0.64359,-0.25981 0.93334,1.17802 0.50966,2.52918 1.49639,2.6462 1.49639,0.17755 z m 48.22213,1.22253 c 0.21142,-0.34222 -0.20859,-0.62221 -0.93334,-0.62221 -0.72484,0 -1.14483,0.27999 -0.93332,0.62221 0.21142,0.34222 0.6315,0.62224 0.93332,0.62224 0.30184,0 0.72183,-0.28002 0.93334,-0.62224 z m 28.31105,-0.85712 c 0,-0.81367 -0.42001,-1.82796 -0.93334,-2.25397 -0.77775,-0.64549 -0.93332,-0.56297 -0.93332,0.49513 0,1.69381 0.62525,3.2382 1.311,3.2382 0.30561,0 0.55566,-0.66572 0.55566,-1.47936 z m 20.2772,-1.47304 c -0.67974,-0.67971 -1.14582,0.40123 -0.65782,1.52555 0.46274,1.0661 0.49628,1.06513 0.7541,-0.0212 0.14839,-0.6257 0.10512,-1.30235 -0.0962,-1.50371 z m 5.71348,1.2024 c 0.13546,-0.40639 -0.19707,-0.7389 -0.73888,-0.7389 -0.54186,0 -0.98518,0.44334 -0.98518,0.9852 0,1.09878 1.33949,0.90743 1.72406,-0.2463 z m 2.00927,0.19449 c 0,-0.51333 -0.27122,-0.93334 -0.60269,-0.93334 -0.33148,0 -0.44154,0.42001 -0.24456,0.93334 0.19707,0.51333 0.4682,0.93332 0.6027,0.93332 0.13451,0 0.24455,-0.41999 0.24455,-0.93332 z m 9.7454,-1.08889 c -0.17261,-0.42777 -0.31386,-0.0778 -0.31386,0.77778 0,0.85555 0.14134,1.20556 0.31386,0.77778 0.17262,-0.4278 0.17262,-1.12778 0,-1.55556 z m 2.699,1.08889 c 0,-0.51333 -0.27999,-0.93334 -0.62221,-0.93334 -0.34222,0 -0.62221,0.42001 -0.62221,0.93334 0,0.51333 0.27999,0.93332 0.62221,0.93332 0.34222,0 0.62221,-0.41999 0.62221,-0.93332 z m -133.97081,-2.64444 c -0.15662,-0.59889 -0.28455,-0.10889 -0.28455,1.08888 0,1.19777 0.12793,1.68777 0.28455,1.08889 0.15663,-0.59889 0.15663,-1.57889 0,-2.17777 z m 21.23655,1.55555 c -0.10935,-0.76999 -0.47883,-1.40001 -0.82105,-1.40001 -0.34222,0 -0.7117,0.63002 -0.82105,1.40001 -0.13687,0.96331 0.11923,1.4 0.82105,1.4 0.70175,0 0.95785,-0.43669 0.82105,-1.4 z m 34.14341,-0.92149 c -0.1578,-0.60539 -0.29723,-0.26073 -0.30991,0.76593 -0.0118,1.02666 0.11641,1.522 0.28684,1.10074 0.1705,-0.42126 0.18085,-1.26127 0.0235,-1.86667 z m 61.16867,1.38814 c 0,-0.51333 -0.41999,-0.93332 -0.93332,-0.93332 -0.97165,0 -1.23448,0.7359 -0.51852,1.45185 0.71595,0.71595 1.45184,0.45313 1.45184,-0.51853 z m 9.95553,0.31113 c 0,-0.34222 -0.27999,-0.62223 -0.62221,-0.62223 -0.34222,0 -0.62221,0.28001 -0.62221,0.62223 0,0.34222 0.27999,0.62222 0.62221,0.62222 0.34222,0 0.62221,-0.28 0.62221,-0.62222 z m -107.90032,-2.33018 c -0.6692,-0.6692 -1.02447,0.26802 -0.55469,1.46335 0.44064,1.12126 0.47394,1.12322 0.69184,0.0405 0.12606,-0.62568 0.0642,-1.30235 -0.1371,-1.50371 z m 80.52261,2.05579 c 0,-0.15098 -0.27999,-0.44744 -0.62223,-0.65895 -0.34222,-0.21142 -0.62222,-0.0879 -0.62222,0.2744 0,0.36242 0.28,0.65894 0.62222,0.65894 0.34224,0 0.62223,-0.12346 0.62223,-0.27439 z m 2.48888,-0.34784 c 0,-0.34222 -0.27999,-0.62222 -0.62221,-0.62222 -0.34222,0 -0.62224,0.28 -0.62224,0.62222 0,0.34222 0.28002,0.62223 0.62224,0.62223 0.34222,0 0.62221,-0.28001 0.62221,-0.62223 z m -97.18493,-1.08889 c -0.25258,-1.31154 -1.35686,-1.22883 -1.63827,0.12276 -0.11735,0.56373 0.22553,0.9662 0.8234,0.9662 0.64087,0 0.94605,-0.40779 0.81487,-1.08889 z m 3.22957,0.15545 c 0,-0.51333 -0.28,-0.93334 -0.62222,-0.93334 -0.34222,0 -0.62223,0.42001 -0.62223,0.93334 0,0.51333 0.28001,0.93332 0.62223,0.93332 0.34222,0 0.62222,-0.41999 0.62222,-0.93332 z m -20.17034,-0.93334 c 0.48481,0 0.88149,-0.28 0.88149,-0.62222 0,-0.34222 -0.56001,-0.62221 -1.24445,-0.62221 -0.89028,0 -1.23045,0.39842 -1.19532,1.39999 0.027,0.76999 0.19025,1.04999 0.36296,0.62221 0.17262,-0.42777 0.71052,-0.77777 1.19532,-0.77777 z m 101.68127,0.62223 c 0,-0.34222 -0.41999,-0.62223 -0.93332,-0.62223 -0.51333,0 -0.93334,0.28001 -0.93334,0.62223 0,0.34222 0.42001,0.62222 0.93334,0.62222 0.51333,0 0.93332,-0.28 0.93332,-0.62222 z"
       id="path73"
       inkscape:connector-curvature="0" />
  </g>
</svg>
