<?xml version="1.0" encoding="UTF-8" standalone="no"?>
<!-- Created with Inkscape (http://www.inkscape.org/) -->

<svg
   xmlns:dc="http://purl.org/dc/elements/1.1/"
   xmlns:cc="http://creativecommons.org/ns#"
   xmlns:rdf="http://www.w3.org/1999/02/22-rdf-syntax-ns#"
   xmlns:svg="http://www.w3.org/2000/svg"
   xmlns="http://www.w3.org/2000/svg"
   xmlns:sodipodi="http://sodipodi.sourceforge.net/DTD/sodipodi-0.dtd"
   xmlns:inkscape="http://www.inkscape.org/namespaces/inkscape"
   width="210.00005mm"
   height="244.53893mm"
   viewBox="0 0 210.00005 244.53893"
   version="1.1"
   id="svg8"
   inkscape:version="0.92.3 (2405546, 2018-03-11)"
   sodipodi:docname="police.svg">
  <defs
     id="defs2" />
  <sodipodi:namedview
     id="base"
     pagecolor="#ffffff"
     bordercolor="#666666"
     borderopacity="1.0"
     inkscape:pageopacity="0.0"
     inkscape:pageshadow="2"
     inkscape:zoom="1.4"
     inkscape:cx="363.62462"
     inkscape:cy="391.33518"
     inkscape:document-units="mm"
     inkscape:current-layer="layer1"
     showgrid="false"
     fit-margin-top="0"
     fit-margin-left="0"
     fit-margin-right="0"
     fit-margin-bottom="0"
     inkscape:window-width="1920"
     inkscape:window-height="1017"
     inkscape:window-x="-8"
     inkscape:window-y="-8"
     inkscape:window-maximized="1" />
  <metadata
     id="metadata5">
    <rdf:RDF>
      <cc:Work
         rdf:about="">
        <dc:format>image/svg+xml</dc:format>
        <dc:type
           rdf:resource="http://purl.org/dc/dcmitype/StillImage" />
        <dc:title></dc:title>
      </cc:Work>
    </rdf:RDF>
  </metadata>
  <g
     inkscape:label="Layer 1"
     inkscape:groupmode="layer"
     id="layer1"
     transform="translate(-356.47934,837.33107)">
    <path
       style="fill:#000000;stroke-width:0.92523533"
       d="m 529.66459,-593.45488 c -4.60458,-0.46038 -5.60869,-0.90858 -6.92827,-3.09271 -2.44301,-4.04352 -0.74328,-5.7136 6.1553,-6.04801 5.54438,-0.26892 5.75396,-0.37512 8.92622,-4.52974 2.51126,-3.28889 3.01255,-4.53887 2.20867,-5.50749 -0.57196,-0.68915 -1.58706,-1.253 -2.25578,-1.253 -0.66872,0 -3.84451,-2.98052 -7.0573,-6.62333 -3.21276,-3.64285 -9.69016,-10.82499 -14.39419,-15.96033 -4.70403,-5.13531 -8.5553,-9.75724 -8.55841,-10.27094 -0.003,-0.5137 -0.83836,-1.45403 -1.85611,-2.08964 -1.01775,-0.63557 -1.85048,-1.60825 -1.85048,-2.1615 0,-0.55322 -0.87319,-2.23217 -1.94043,-3.73097 -1.61891,-2.27354 -2.15475,-5.28676 -3.23377,-18.18492 -0.71131,-8.50287 -1.49792,-15.9996 -1.74795,-16.65934 -0.45817,-1.20886 -3.54769,0.72205 -16.67133,10.41942 -3.0533,2.25616 -5.9678,4.13441 -6.47668,4.17396 -0.50887,0.0395 -2.34603,1.25009 -4.08255,2.6902 l -3.15733,2.61835 1.1277,10.07874 c 0.62022,5.5433 1.47925,10.91147 1.90888,11.92922 0.70824,1.67759 3.13411,14.21896 3.07928,15.91939 -0.014,0.38889 -1.22201,1.37059 -2.68772,2.18157 -2.40311,1.32968 -2.72637,2.08932 -3.2907,7.73316 -0.34411,3.44226 -0.90348,6.5322 -1.24286,6.86651 -0.52171,0.51391 -41.57988,0.39568 -48.55665,-0.13988 -1.80743,-0.13883 -2.37946,-0.75842 -2.61673,-2.83466 -0.41005,-3.58815 0.34725,-4.12151 6.79272,-4.78306 3.04644,-0.31263 6.37169,-0.91383 7.38945,-1.33587 1.01775,-0.42205 3.81895,-1.27384 6.22489,-1.8929 3.99317,-1.02744 4.42892,-1.41599 4.99955,-4.45785 0.34376,-1.83275 0.36851,-13.66091 0.0549,-26.28477 -0.31368,-12.62386 -0.20982,-23.90111 0.23115,-25.06056 0.44082,-1.15945 4.27666,-5.04369 8.5241,-8.6316 4.24743,-3.58794 9.17981,-8.03393 10.96091,-9.88004 1.78107,-1.84608 3.6118,-3.36096 4.06825,-3.36638 1.00538,-0.0105 8.07387,-5.73699 12.2956,-9.95872 3.53042,-3.53042 3.81808,-5.55516 1.21561,-8.55582 -1.01775,-1.17351 -1.85048,-2.87806 -1.85048,-3.7879 0,-0.90987 -0.41635,-1.91164 -0.92522,-2.22612 -0.50888,-0.31438 -0.92523,-1.81702 -0.92523,-3.33889 0,-3.09848 -2.0632,-7.67218 -4.82471,-10.6954 l -1.83254,-2.00623 -4.76719,2.50892 c -2.62194,1.3799 -5.59991,2.98587 -6.61766,3.56885 -3.75146,2.14881 -15.81396,7.5196 -18.27689,8.13776 -1.39749,0.35074 -2.54089,1.00894 -2.54089,1.46267 0,1.29334 -4.14301,0.96659 -7.06482,-0.55724 -1.4576,-0.76017 -3.37036,-1.38473 -4.25058,-1.38784 -1.6278,-0.007 -7.25513,-1.94294 -12.27812,-4.22659 -1.52663,-0.69407 -4.75337,-2.0867 -7.17057,-3.0947 -4.28411,-1.78652 -5.34761,-3.08921 -3.46964,-4.24984 1.71019,-1.05696 0.94533,-3.93757 -1.46473,-5.51673 -2.24823,-1.47309 -2.45881,-1.47179 -3.55098,0.021 -1.0308,1.40965 -1.68557,1.46197 -5.83655,0.46614 l -4.6755,-1.12161 -0.099,-6.50437 c -0.0839,-5.5056 -0.45443,-6.92673 -2.41371,-9.25517 -1.27306,-1.51296 -2.3147,-3.54095 -2.3147,-4.50656 0,-0.9789 -1.12577,-2.33911 -2.54438,-3.07421 -1.39941,-0.72516 -3.71083,-2.40128 -5.13646,-3.7247 -1.42564,-1.32343 -3.17156,-2.40622 -3.8798,-2.40622 -0.70824,0 -1.93661,-0.92645 -2.72972,-2.05876 -0.81434,-1.16263 -3.15293,-2.47154 -5.37258,-3.00703 -3.32291,-0.80164 -3.93054,-1.30583 -3.93054,-3.26133 0,-3.34228 4.29373,-3.54385 10.06975,-0.47272 2.46994,1.31328 6.00277,2.41552 7.85073,2.44944 4.71309,0.0864 15.08627,3.48926 16.92413,5.55173 0.8449,0.94816 2.75319,1.72389 4.24069,1.72389 3.2772,0 4.2589,0.81175 2.92523,2.41874 -1.2553,1.51253 -0.35868,3.00878 2.44087,4.07314 1.50359,0.57169 2.36366,1.84045 2.79071,4.11672 0.74625,3.97785 1.94987,4.89983 3.87865,2.97105 1.3073,-1.3073 1.87373,-1.06636 6.01975,2.56043 2.51715,2.20196 5.67909,4.55481 7.02654,5.22857 1.34744,0.6738 4.32349,2.5533 6.61343,4.17676 2.28998,1.62346 4.7881,3.08071 5.55141,3.23842 1.67578,0.3462 5.72875,-1.7391 6.75395,-3.47492 0.40694,-0.68904 1.17865,-1.25278 1.71487,-1.25278 1.08741,0 13.86538,-10.48358 17.38447,-14.26295 1.28527,-1.38028 4.68256,-3.17523 7.87776,-4.16211 7.29418,-2.25294 12.7004,-5.45458 12.34312,-7.30978 -0.15282,-0.79349 -1.73446,-1.81674 -3.51475,-2.27393 -4.91063,-1.26096 -6.47524,-3.13512 -6.47524,-7.7562 0,-2.99326 -0.3619,-4.02017 -1.41686,-4.02017 -2.70601,0 -2.549,-2.84358 0.38236,-6.92543 1.59761,-2.22463 3.1483,-5.26271 3.44603,-6.75133 0.50993,-2.54969 0.33501,-2.74066 -3.01689,-3.29447 -1.957,-0.32347 -5.34075,-0.59246 -7.51946,-0.59805 -2.70989,-0.007 -4.13438,-0.46122 -4.50918,-1.43795 -0.76769,-2.0005 -0.59242,-2.07911 7.12144,-3.19401 10.4846,-1.51534 10.9257,-1.67938 12.45156,-4.63004 1.5074,-2.91495 0.75975,-5.56183 -2.24696,-7.95514 -0.80158,-0.63802 -1.34797,-2.83086 -1.38787,-5.56988 l -0.0657,-4.51761 4.16354,0.20213 c 9.126,0.44324 11.09706,0.76695 11.09989,1.82285 0.002,0.61634 1.93507,1.345 4.3978,1.65745 8.89009,1.12791 10.80307,2.17609 15.60193,8.54876 2.48707,3.30273 6.93789,8.10321 9.89068,10.66777 4.65958,4.04684 5.3318,5.04232 5.0888,7.5361 -0.27976,2.87226 -0.28186,2.87331 -5.96727,2.87331 -4.96837,0 -5.91548,0.29234 -7.49212,2.31309 -0.99261,1.27219 -2.06701,3.38897 -2.38757,4.70396 -0.32068,1.31496 -1.85968,3.99761 -3.42034,5.96143 -1.57527,1.98222 -2.71643,4.41718 -2.56529,5.47364 0.25143,1.75666 0.91277,1.90553 8.59935,1.9349 6.35872,0.0245 9.20195,0.46174 12.02805,1.85048 2.03554,1.00024 3.90914,2.08555 4.16358,2.41175 0.25457,0.32626 2.63208,1.23571 5.28368,2.02113 2.65163,0.78538 6.19066,2.0475 7.86451,2.80477 1.67388,0.75723 5.60739,2.28361 8.74115,3.39197 3.13376,1.10836 7.00531,3.11834 8.60341,4.46659 l 2.90569,2.45143 0.27137,19.82149 c 0.23079,16.86287 0.0567,20.07234 -1.16739,21.50186 -0.87288,1.01946 -1.34619,3.04885 -1.20341,5.15985 0.2885,4.268 -2.67702,7.84734 -7.89489,9.52853 -1.93133,0.62225 -4.09969,1.59759 -4.81856,2.16734 -0.97775,0.775 -1.40507,0.74465 -1.69626,-0.12064 -0.21402,-0.6361 -1.17767,-1.15655 -2.14129,-1.15655 -2.37174,0 -4.58944,-3.63379 -4.74512,-7.77516 -0.10491,-2.78875 0.5151,-4.06083 3.43771,-7.05387 l 3.56563,-3.65152 -2.9517,-0.59036 c -3.77227,-0.75446 -3.77706,-1.22396 -0.10246,-10.07398 1.56271,-3.7637 3.62745,-11.97867 3.62745,-14.43241 0,-2.29152 -0.44222,-2.62597 -4.67171,-3.53304 -2.56946,-0.55102 -6.64974,-1.00188 -9.06732,-1.00188 -2.41755,0 -4.79111,-0.38299 -5.27456,-0.85105 -0.48342,-0.46807 -2.74815,-0.98852 -5.03274,-1.15655 l -4.15379,-0.30563 -0.81856,6.01402 c -0.6432,4.72564 -0.47947,7.32426 0.76422,12.13002 0.87053,3.36379 1.49879,6.90281 1.39616,7.8645 -0.37204,3.48584 0.0539,4.98683 1.41434,4.98683 0.76331,0 1.38784,0.39551 1.38784,0.87886 0,0.48338 1.19896,2.66925 2.66436,4.85747 3.46908,5.18028 4.33958,9.78129 5.65426,29.88524 0.59902,9.15984 1.4705,17.37719 1.93664,18.26084 0.46618,0.88364 0.84756,3.94208 0.84756,6.7965 0,3.26042 0.60196,6.22975 1.61916,7.9869 1.53058,2.64394 7.35154,9.05396 8.22196,9.05396 1.16358,0 24.80868,21.77877 24.5492,22.6115 -0.1682,0.5401 -0.89693,1.31496 -1.61919,1.7219 -1.45974,0.82252 -1.80233,3.42365 -0.4509,3.42365 1.49883,0 5.18651,5.84827 3.94799,6.26112 -0.61008,0.20353 -1.10927,0.86795 -1.10927,1.47691 0,1.83306 -16.91752,18.9938 -19.72148,20.00498 -2.7121,0.97806 -6.6261,1.0004 -15.7337,0.0899 z M 382.55522,-770.42406 c -0.29549,-0.7381 -0.51461,-0.51888 -0.55899,0.55898 -0.0402,0.97534 0.17835,1.52181 0.48594,1.21436 0.30738,-0.30739 0.34025,-1.10546 0.0731,-1.77334 z"
       id="path409"
       inkscape:connector-curvature="0" />
  </g>
</svg>
