<?xml version="1.0" encoding="UTF-8" standalone="no"?>
<!-- Created with Inkscape (http://www.inkscape.org/) -->

<svg
   xmlns:dc="http://purl.org/dc/elements/1.1/"
   xmlns:cc="http://creativecommons.org/ns#"
   xmlns:rdf="http://www.w3.org/1999/02/22-rdf-syntax-ns#"
   xmlns:svg="http://www.w3.org/2000/svg"
   xmlns="http://www.w3.org/2000/svg"
   xmlns:sodipodi="http://sodipodi.sourceforge.net/DTD/sodipodi-0.dtd"
   xmlns:inkscape="http://www.inkscape.org/namespaces/inkscape"
   width="210.00002mm"
   height="496.73108mm"
   viewBox="0 0 210.00003 496.73113"
   version="1.1"
   id="svg8"
   inkscape:version="0.92.3 (2405546, 2018-03-11)"
   sodipodi:docname="political_refugees.svg">
  <defs
     id="defs2" />
  <sodipodi:namedview
     id="base"
     pagecolor="#ffffff"
     bordercolor="#666666"
     borderopacity="1.0"
     inkscape:pageopacity="0.0"
     inkscape:pageshadow="2"
     inkscape:zoom="1.4"
     inkscape:cx="363.62455"
     inkscape:cy="867.91875"
     inkscape:document-units="mm"
     inkscape:current-layer="layer1"
     showgrid="false"
     fit-margin-top="0"
     fit-margin-left="0"
     fit-margin-right="0"
     fit-margin-bottom="0"
     inkscape:window-width="1920"
     inkscape:window-height="1017"
     inkscape:window-x="-8"
     inkscape:window-y="-8"
     inkscape:window-maximized="1" />
  <metadata
     id="metadata5">
    <rdf:RDF>
      <cc:Work
         rdf:about="">
        <dc:format>image/svg+xml</dc:format>
        <dc:type
           rdf:resource="http://purl.org/dc/dcmitype/StillImage" />
        <dc:title></dc:title>
      </cc:Work>
    </rdf:RDF>
  </metadata>
  <g
     inkscape:label="Layer 1"
     inkscape:groupmode="layer"
     id="layer1"
     transform="translate(-356.47936,963.42718)">
    <path
       style="fill:#000000;stroke-width:0.90601599"
       d="m 363.53322,-467.48505 c 0,-0.4443 -1.01411,-1.06232 -2.25357,-1.37342 -3.59077,-0.90121 -5.33337,-4.39189 -4.65676,-9.32817 0.31778,-2.3174 1.28217,-4.9921 2.14342,-5.94378 2.36925,-2.61799 8.67885,-6.66471 12.20705,-7.82914 1.72685,-0.56991 4.52465,-2.05795 6.21732,-3.30679 1.69267,-1.24882 4.60197,-2.72726 6.46507,-3.28546 1.8631,-0.5582 5.94608,-3.19026 9.0733,-5.849 3.12718,-2.65874 5.99158,-4.83975 6.36531,-4.84663 0.37373,-0.007 0.67952,-0.54786 0.67952,-1.20207 0,-0.65425 1.25741,-2.38699 2.79424,-3.85057 l 2.79424,-2.66107 -0.62011,-9.96615 c -0.34106,-5.4814 -0.98692,-10.35351 -1.43523,-10.82689 -0.44831,-0.47341 -0.81509,-4.01134 -0.81509,-7.86208 0,-10.45453 -3.10688,-32.98038 -4.68319,-33.95459 -1.18707,-0.73366 -0.82526,-4.26361 0.63494,-6.19414 1.0427,-1.37859 1.32753,-4.90337 1.31781,-16.30828 -0.0137,-14.63644 -0.42229,-18.62669 -1.91317,-18.62669 -1.35383,0 -8.0033,-5.14427 -10.10798,-7.81993 -2.8429,-3.61419 -2.82756,-12.32488 0.0274,-16.32934 1.12119,-1.57187 2.03853,-3.45852 2.03853,-4.19266 0,-0.73407 0.64137,-1.86701 1.42523,-2.51756 1.56491,-1.29874 4.91687,-7.44476 4.91687,-9.01535 0,-0.54358 -1.52889,-1.61967 -3.39754,-2.39134 -4.96182,-2.049 -6.88707,-3.93583 -5.31179,-5.20591 0.68195,-0.54988 1.9823,-3.03829 2.88961,-5.52982 0.9073,-2.49156 1.89905,-4.73394 2.20392,-4.98309 0.73383,-0.59974 4.52184,-12.80286 4.52184,-14.56713 0,-0.75831 0.35637,-1.76609 0.79194,-2.23947 0.43557,-0.47341 1.73534,-5.14163 2.88837,-10.37388 1.15304,-5.23225 2.35877,-9.71703 2.67946,-9.96619 0.84649,-0.65774 2.67545,-12.60095 2.14238,-13.99009 -0.28353,-0.73918 -2.74866,-1.34045 -6.63542,-1.61854 -4.79555,-0.34315 -7.95372,-1.28733 -14.06506,-4.20502 -4.33449,-2.06941 -9.2114,-4.77736 -10.83753,-6.01771 -1.62618,-1.24032 -3.40754,-2.25512 -3.95861,-2.25512 -0.55111,0 -1.32802,-0.54039 -1.72654,-1.20084 -0.39849,-0.66048 -1.438,-1.4631 -2.31004,-1.78362 -1.14615,-0.42126 -1.58553,-1.58015 -1.58553,-4.18177 0,-1.97946 0.4077,-3.85101 0.90601,-4.15896 0.49831,-0.30785 0.91128,-1.45325 0.91771,-2.54502 0.0137,-2.36565 3.32864,-13.23021 4.45688,-14.60822 0.43547,-0.5319 1.67836,-4.0249 2.76199,-7.76223 1.08359,-3.73729 2.33911,-7.61053 2.78999,-8.60714 0.45091,-0.99662 1.25278,-5.4814 1.78198,-9.96616 1.11797,-9.47486 2.35911,-14.61825 4.14156,-17.16306 0.69863,-0.9974 1.27022,-2.69223 1.27022,-3.76626 0,-1.07404 0.62452,-3.44753 1.38784,-5.27437 1.54385,-3.69504 1.16488,-5.05384 -1.40945,-5.05384 -0.94966,0 -2.13122,-0.7559 -2.62566,-1.6798 -1.18827,-2.2203 3.07493,-6.4744 6.48818,-6.4744 3.17044,0 15.24593,-2.5645 16.47687,-3.4993 0.53549,-0.4066 4.13331,-1.4641 7.99522,-2.3499 6.79818,-1.5594 7.02162,-1.6953 7.02162,-4.2709 0,-1.4631 1.01925,-4.1602 2.26504,-5.9935 1.24577,-1.8334 2.26502,-4.1353 2.26502,-5.1154 0,-0.9801 2.08485,-3.7394 4.63299,-6.1317 4.53913,-4.2616 4.6208,-4.4307 4.03267,-8.3527 -0.3301,-2.2017 -1.1919,-4.4941 -1.91494,-5.0941 -0.72304,-0.6001 -1.31463,-1.4761 -1.31463,-1.9466 0,-0.4706 -1.00623,-2.1748 -2.23607,-3.7872 -1.5142,-1.9852 -2.43157,-4.6714 -2.84153,-8.3202 -0.33319,-2.9637 -0.90614,-5.7962 -1.27368,-6.2945 -0.36756,-0.4984 -0.93548,-2.7558 -1.26209,-5.0166 -0.53423,-3.6976 -0.99679,-4.3306 -4.60543,-6.3019 -4.59563,-2.5104 -8.71539,-8.1755 -8.82812,-12.1393 -0.10444,-3.6765 8.4785,-11.8066 14.03198,-13.2913 2.11413,-0.5653 4.25162,-1.3399 4.74993,-1.7214 0.49831,-0.3815 3.77085,-1.3826 7.27235,-2.2245 3.50149,-0.842 6.79709,-1.815 7.32354,-2.1623 1.08965,-0.7189 11.22555,-12.6146 11.22555,-13.1746 0,-1.2696 6.37685,-6.8314 8.74956,-7.6312 4.88759,-1.6475 12.99482,1.3568 12.99482,4.8155 0,0.6169 0.55717,1.3355 1.23816,1.5968 0.68099,0.2613 1.97145,3.2608 2.86769,6.6656 0.89625,3.4047 1.9283,6.5981 2.29347,7.0964 1.23734,1.6885 3.56686,10.7309 3.56686,13.8453 0,2.3296 -0.7832,3.8804 -3.16022,6.2574 -2.5441,2.5441 -2.9857,3.4864 -2.26505,4.8329 1.52139,2.8428 1.04544,8.6046 -0.91683,11.0992 -0.99664,1.267 -1.81204,2.9288 -1.81204,3.6928 0,0.764 -0.4077,1.6411 -0.906,1.9491 -1.52872,0.9448 -1.01507,3.2329 1.359,6.0543 3.52006,4.1834 2.98333,9.5418 -2.20683,22.0322 -1.42129,3.4204 -0.61994,11.3918 1.25046,12.4385 0.74348,0.4161 1.9775,2.0686 2.74226,3.6722 3.06489,6.4267 5.2095,8.1442 10.74271,8.603 2.82629,0.2342 5.13873,0.7308 5.13873,1.1032 0,0.3725 1.99822,0.9422 4.44055,1.2662 4.39147,0.5825 5.50571,1.5733 5.54194,4.9281 0.0103,0.8312 1.6124,2.8365 3.56313,4.4559 3.25984,2.7064 4.06199,2.9446 9.91455,2.9446 5.36247,0 6.65621,0.3096 8.19489,1.9612 2.18519,2.3455 1.74897,5.26792 -1.42249,9.53005 -2.52362,3.39144 -2.57317,3.74945 -0.79157,5.71809 1.04575,1.15554 1.4164,4.57992 1.62576,15.02061 0.17841,8.89965 0.67257,14.25257 1.44496,15.65503 0.64555,1.17214 0.97127,2.90546 0.7238,3.8518 -0.24758,0.94638 -0.18218,1.55519 0.14519,1.35291 0.32736,-0.20237 0.48183,2.9569 0.34346,7.02039 -0.13834,4.06346 -0.27737,8.20352 -0.30888,9.20014 -0.10992,3.47882 -1.96959,10.89677 -3.52063,14.04324 -0.85978,1.7441 -2.14088,4.38938 -2.84694,5.87841 -1.00442,2.11831 -2.06596,2.8368 -4.87906,3.3023 -4.08976,0.67682 -7.61807,-0.48704 -4.50133,-1.48478 4.91967,-1.57491 7.81168,-3.34764 8.48236,-5.19954 0.40705,-1.12386 0.6484,-6.12045 0.53632,-11.10354 -0.12807,-5.69853 0.17772,-9.53866 0.82485,-10.34978 0.85655,-1.07386 0.64969,-1.17063 -1.23639,-0.57823 -3.38835,1.06421 -14.9717,1.6973 -18.60024,1.01658 -1.75058,-0.32839 -4.55304,-1.80013 -6.22766,-3.27046 -3.64463,-3.20005 -5.63423,-3.58844 -3.94577,-0.77033 0.6271,1.04671 3.58645,3.54111 6.57629,5.54321 2.98987,2.00205 4.51876,3.42623 3.39757,3.16481 -2.444,-0.56977 -2.61268,0.0743 -0.453,1.72956 1.36476,1.04599 1.40057,1.33647 0.25716,2.08639 -1.07222,0.70326 -0.84252,1.05593 1.19149,1.82924 1.38592,0.52693 2.90098,0.95805 3.36685,0.95805 0.46588,0 0.84704,0.61155 0.84704,1.35901 0,1.44547 -3.18362,1.89864 -4.00473,0.57004 -0.26813,-0.43396 -1.6173,-1.01695 -2.99802,-1.29558 -1.38072,-0.27874 -3.22389,-0.7826 -4.09592,-1.11996 -1.28905,-0.49868 -1.58553,-0.11643 -1.58553,2.04366 0,3.70799 3.49913,6.89023 6.69453,6.08826 4.91896,-1.2346 9.7294,2.74869 6.82589,5.6522 -0.69709,0.69709 -0.0103,1.91344 2.40404,4.25827 1.85888,1.80537 3.7653,3.28245 4.23645,3.28245 2.44681,0 8.07569,3.68051 12.90867,8.44051 2.98983,2.94467 6.35343,5.70566 7.47462,6.13545 1.15766,0.44379 2.03853,1.55107 2.03853,2.56244 0,0.97956 0.43286,2.04853 0.96192,2.37548 0.52902,0.32702 1.33435,1.57416 1.78958,2.77154 0.45526,1.19734 1.48334,2.177 2.28467,2.177 2.89409,0 0.70088,2.03535 -2.503,2.32285 -2.2369,0.20067 -3.44401,-0.12259 -3.7861,-1.01407 -0.27634,-0.71983 -1.3589,-1.30878 -2.40595,-1.30878 -1.04705,0 -3.68148,-1.22309 -5.85427,-2.71804 -2.1728,-1.49492 -4.34313,-2.71805 -4.82291,-2.71805 -0.47978,0 -1.10701,-0.61155 -1.39386,-1.35901 -0.28696,-0.74746 -1.25899,-1.35904 -2.16037,-1.35904 -2.81536,0 -5.58382,-2.64384 -7.54694,-7.20725 -1.03935,-2.41596 -2.82448,-5.27084 -3.96703,-6.34422 l -2.07733,-1.95155 -3.34692,2.27127 c -3.91625,2.65765 -6.32727,5.53801 -7.28375,8.70169 -0.37664,1.24577 -1.23073,2.88944 -1.89796,3.65262 -1.8117,2.07222 0.40431,7.79489 3.82369,9.87434 2.63757,1.60402 4.85191,6.515 4.85191,10.76059 0,1.03398 0.33798,2.08887 0.75119,2.34422 0.41314,0.25545 1.27538,2.82759 1.91611,5.71607 0.64068,2.88851 1.48084,6.47493 1.86696,7.96988 0.38613,1.49492 0.70819,4.3008 0.71569,6.23529 0.007,1.9345 0.38838,3.76921 0.84645,4.07709 0.96388,0.64785 3.22094,8.36012 2.82547,9.65447 -0.35716,1.16903 2.20673,6.76062 3.09993,6.76062 0.389,0 1.11238,0.91734 1.60751,2.03853 0.49512,1.12119 2.52152,4.07706 4.5031,6.56862 2.90153,3.64826 3.60375,5.26865 3.60741,8.32443 0.007,5.23763 -2.49427,15.55679 -4.59515,18.96299 -2.3361,3.78756 -2.19738,6.04213 0.67308,10.94023 3.15068,5.3762 3.2068,8.45384 0.73192,40.14273 -0.29176,3.73729 -0.88598,7.61053 -1.32021,8.60715 -0.43428,0.99661 -1.02856,4.66596 -1.32069,8.15414 -0.2921,3.48814 -0.90262,10.42953 -1.35665,15.42526 -0.45403,4.99576 -0.93754,12.66201 -1.07448,17.03612 -0.24552,7.83897 -0.21059,7.98399 2.42335,10.12021 1.46979,1.19204 4.09932,2.90307 5.84339,3.80229 1.7441,0.89923 3.49711,2.14458 3.8956,2.76746 0.39848,0.62288 1.08352,1.13253 1.52231,1.13253 0.43879,0 3.53547,1.26716 6.8815,2.81588 3.94224,1.82467 8.03073,2.96024 11.61492,3.22604 8.32214,0.61713 9.33968,0.96864 13.39368,4.62676 4.22769,3.81489 6.18075,7.72949 6.18075,12.38837 0,4.00854 0.074,3.99131 -18.89248,4.39456 -14.68817,0.3123 -25.6759,-0.59628 -26.25731,-2.17112 -0.16608,-0.44995 -0.86974,-0.81807 -1.56361,-0.81807 -0.69391,0 -2.59656,-0.81389 -4.2281,-1.80861 -1.63152,-0.99477 -4.26567,-1.8102 -5.85359,-1.81205 -2.59587,-0.003 -2.9158,0.29381 -3.17105,2.94118 l -0.28388,2.94453 h -12.06991 c -13.30171,0 -13.39899,-0.0418 -14.81573,-6.3421 -0.33627,-1.49492 -1.0777,-4.55273 -1.64781,-6.79514 -1.22611,-4.82239 -0.50578,-10.82818 1.89494,-15.79895 1.8681,-3.86803 2.42811,-14.46289 0.81708,-15.45858 -0.49834,-0.30784 -0.92012,-2.67637 -0.93734,-5.26306 -0.0308,-4.64858 -3.30066,-18.83365 -4.94769,-21.46441 -1.1882,-1.89793 -1.08526,-20.33456 0.12225,-21.86437 1.85797,-2.35422 2.11986,-6.75206 0.53669,-9.01235 -1.69743,-2.42342 -2.06879,-10.76268 -0.56723,-12.7383 2.56892,-3.37997 3.36233,-8.80452 2.2621,-15.46649 -0.63689,-3.85649 -1.63148,-6.8867 -2.40188,-7.31786 -0.72318,-0.40472 -1.3149,-1.25329 -1.3149,-1.88573 0,-0.63244 -3.03425,-4.50633 -6.74275,-8.60869 -3.70853,-4.10236 -7.47983,-9.05819 -8.38066,-11.01296 -0.90083,-1.95477 -1.84173,-3.55475 -2.09089,-3.55553 -0.61062,-0.002 -5.43613,10.27043 -5.43613,11.57219 0,0.56734 -1.47272,3.33377 -3.27275,6.14766 -1.82276,2.84944 -3.48259,6.77096 -3.7464,8.85123 -0.26059,2.05432 -0.84889,4.2118 -1.30751,4.79442 -1.21063,1.53803 -1.17621,11.99759 0.0435,13.21733 1.78017,1.78016 1.15081,7.95659 -1.32675,13.0205 -2.31517,4.73206 -2.33956,4.97679 -1.23491,12.40166 1.27672,8.58146 -0.0342,26.25458 -2.2573,30.45542 -2.78976,5.26919 -5.01816,14.41173 -5.01816,20.58813 0,5.90718 2.06517,14.7143 4.67377,19.93172 0.53683,1.07366 0.72897,2.35189 0.42702,2.84047 -0.30203,0.48858 -0.10376,2.1655 0.44033,3.72644 1.62706,4.66733 0.45495,6.94193 -4.86249,9.43631 -2.61563,1.227 -7.40583,2.52998 -10.64482,2.89553 -3.23902,0.36557 -6.80643,1.01185 -7.92766,1.43615 -1.24788,0.47228 -2.03852,0.42883 -2.03852,-0.11197 0,-0.48598 -0.73387,-0.88361 -1.63083,-0.88361 -0.89693,0 -2.09229,-0.46146 -2.65628,-1.02548 -0.76331,-0.76328 -1.79413,-0.54135 -4.03178,0.86796 -1.65346,1.04137 -4.41836,2.53765 -6.14421,3.32507 -1.72582,0.78739 -3.76438,1.98162 -4.53006,2.65381 -0.76571,0.67219 -4.44999,2.13143 -8.18732,3.24272 -3.7373,1.1113 -7.50305,2.38045 -8.36833,2.82033 -2.05692,1.04572 -13.37605,1.03894 -13.37605,-0.007 z m 62.4863,-35.3451 c 0.0346,-2.6162 -5.25097,-14.13627 -6.09757,-13.28972 -0.96305,0.96306 -0.17977,7.62947 1.2095,10.29225 0.70493,1.3512 1.28416,3.50996 1.28724,4.79726 0.003,1.2873 0.2712,2.606 0.59552,2.93046 0.92039,0.92042 2.9733,-2.31076 3.00531,-4.73025 z m 76.31665,-11.07271 c 0.60481,-0.3738 1.20707,-10.15323 1.64676,-26.73922 0.38126,-14.38246 0.98859,-27.06727 1.34969,-28.18846 0.58117,-1.80472 0.34692,-2.03853 -2.04212,-2.03853 -2.65963,0 -2.70747,0.0863 -3.31114,5.97858 -0.82602,8.06226 -0.70842,56.45683 0.14039,57.76294 0.37353,0.57473 0.80629,-0.57471 0.96898,-2.57368 0.16163,-1.98679 0.72308,-3.87752 1.24751,-4.20163 z m -74.87169,-33.6363 c 0.34777,-1.12123 1.49642,-3.87324 2.55262,-6.11562 1.43496,-3.04657 1.92035,-5.83283 1.92035,-11.02361 0,-3.82061 -0.27839,-7.22482 -0.6188,-7.56492 -0.34038,-0.34004 -2.00134,-0.16232 -3.69107,0.39554 -2.73661,0.90316 -3.0288,1.31017 -2.67432,3.72544 0.21881,1.49133 0.75869,2.93443 1.19954,3.20691 1.1092,0.68551 1.01359,15.55274 -0.10444,16.24373 -1.14362,0.70678 -1.19105,3.17105 -0.061,3.17105 0.46475,0 1.12948,-0.91733 1.47722,-2.03852 z m 1.77047,-26.9214 c 0.50687,-0.0171 3.02353,-1.87131 5.59259,-4.11869 3.10982,-2.72038 4.88081,-5.06723 5.29864,-7.02162 0.34521,-1.61453 1.00809,-3.40887 1.47304,-3.98737 0.5319,-0.66182 0.4931,-1.2696 -0.10444,-1.63902 -0.52252,-0.32291 -0.95001,-1.55826 -0.95001,-2.74523 0,-2.67004 -1.46006,-3.68504 -3.21074,-2.23211 -1.71496,1.42329 -1.66545,0.92474 0.38264,-3.85331 0.9361,-2.18382 1.99726,-6.60049 2.35811,-9.81479 0.59457,-5.29635 3.2493,-12.03489 8.19116,-20.79188 1.11215,-1.97072 1.09839,-2.43948 -0.10615,-3.62408 -1.23142,-1.21091 -1.51307,-1.18615 -2.56063,0.22497 -1.07798,1.45212 -4.14832,2.25704 -4.14832,1.08753 0,-0.27395 0.65466,-1.764 1.45482,-3.31131 2.00545,-3.8781 1.15434,-7.77627 -2.55703,-11.71146 l -3.10154,-3.28857 -9.33803,-0.1469 c -5.13589,-0.0808 -9.59218,-0.19656 -9.90284,-0.25717 -1.51135,-0.29551 -5.47345,1.40407 -5.9069,2.53369 -0.74702,1.94668 -5.36737,1.52758 -10.20743,-0.92594 -4.39617,-2.22847 -6.64786,-1.92022 -6.64786,0.91008 0,0.66168 -0.51532,1.52909 -1.14516,1.92758 -0.62986,0.39849 -2.10143,2.76308 -3.27021,5.25461 -1.16879,2.49156 -2.51181,5.27597 -2.98453,6.18759 -1.69531,3.26936 7.11459,11.56202 15.07385,14.18881 3.59885,1.18772 5.91629,4.92711 5.91629,9.5465 0,3.11811 -1.42845,2.12 -2.15338,-1.50467 -0.67154,-3.35768 -2.08804,-5.31481 -3.84666,-5.31481 -0.99754,0 -1.2481,2.41859 -1.2481,12.04783 0,11.9855 0.0171,12.07991 3.17109,18.24001 1.74407,3.40568 3.17105,6.41842 3.17105,6.69497 0,0.27669 -1.21889,-0.6649 -2.7086,-2.09215 -1.48975,-1.42725 -2.86149,-2.42085 -3.04832,-2.20803 -0.95802,1.09116 -2.39723,4.50961 -2.39723,5.69398 0,2.48451 4.45808,6.72713 7.93362,7.55016 2.17499,0.51502 6.47907,0.39602 11.99872,-0.33181 4.73394,-0.62422 9.02187,-1.14965 9.52873,-1.16759 z m 80.24143,-1.7517 c 1.06746,-1.44383 3.12783,-2.86252 4.57858,-3.1527 1.45074,-0.29004 2.86173,-1.24929 3.1355,-2.13143 0.27361,-0.88213 0.85999,-2.28668 1.30271,-3.12119 0.4427,-0.8345 0.88426,-5.52314 0.98121,-10.41919 l 0.17635,-8.90191 -3.72733,-6.3421 c -2.05003,-3.48817 -4.66182,-8.17678 -5.80394,-10.41919 -1.14214,-2.24237 -2.41708,-4.32641 -2.8332,-4.63117 -0.41613,-0.30477 -0.95275,-3.97412 -1.19252,-8.15415 -0.43331,-7.55437 -0.4255,-7.58817 1.29994,-5.62926 1.09499,1.24316 1.94781,3.9984 2.3099,7.46267 0.57025,5.45579 2.16252,9.3755 3.61227,8.89226 1.22296,-0.40767 4.17842,-9.88034 4.21057,-13.49566 0.0274,-2.90772 -0.70657,-4.04946 -5.84793,-9.11555 -3.91875,-3.86136 -6.07158,-6.76165 -6.4598,-8.70272 -0.84012,-4.20064 -4.95364,-6.84969 -10.50634,-6.76593 -2.512,0.038 -5.08363,0.64521 -5.96248,1.40808 -0.84998,0.73777 -2.71099,1.61894 -4.13561,1.95812 -3.38017,0.80482 -11.87733,8.87428 -13.24941,12.58253 -0.59005,1.59471 -1.4465,3.60738 -1.90324,4.47264 -1.05677,2.00198 -1.07653,8.38542 -0.0308,10.44377 0.43893,0.86529 1.6962,3.40794 2.79387,5.65032 1.09769,2.24238 3.08287,5.66385 4.41154,7.60324 l 2.41571,3.52619 0.27395,-4.65868 c 0.19416,-3.30593 0.64969,-4.65871 1.56823,-4.65871 1.92083,0 2.70774,4.02943 2.52348,12.92144 -0.22498,10.85466 -1.64418,17.1595 -4.40257,19.55789 -4.33573,3.76986 -2.28004,11.04584 3.64741,12.9099 2.00075,0.62918 4.06664,1.46118 4.5909,1.84889 0.52426,0.38773 4.60132,0.842 9.06015,1.00952 4.45883,0.16745 8.80826,0.38845 9.66536,0.49091 0.85714,0.10238 2.43181,-0.99501 3.49927,-2.43883 z m 8.07956,-1.90495 c 0,-0.4983 -0.4077,-0.906 -0.906,-0.906 -0.49831,0 -0.90601,0.4077 -0.90601,0.906 0,0.49831 0.4077,0.90601 0.90601,0.90601 0.4983,0 0.906,-0.4077 0.906,-0.90601 z M 455.11381,-661.607 c 1.64278,-3.06956 -0.14656,-32.48026 -1.97623,-32.48026 -0.44811,0 -0.81831,-4.99439 -0.82266,-11.09867 -0.003,-6.10428 -0.26778,-13.26202 -0.58522,-15.90603 l -0.57734,-4.80733 -7.34241,0.60987 c -4.03835,0.33559 -7.72976,0.9698 -8.20314,1.40976 -1.20546,1.1203 -8.42079,1.00168 -9.13264,-0.14999 -0.4014,-0.64942 -0.99161,-0.61432 -1.86553,0.11095 -0.91905,0.76277 -1.27837,0.77513 -1.27837,0.0438 0,-1.1933 -3.2923,-1.38068 -4.00473,-0.22806 -0.26812,0.43397 -1.68558,1.0286 -3.14972,1.32145 -3.29312,0.65859 -6.92601,5.33446 -7.59967,9.78147 -0.41506,2.74007 -0.1719,3.44777 1.46567,4.26793 3.61696,1.81136 13.29462,3.124 18.79417,2.5492 4.51485,-0.47191 5.52653,-0.31984 5.9949,0.90069 0.65381,1.7038 -2.12166,18.32384 -3.29788,19.74828 -0.43585,0.52786 -1.08428,2.52115 -1.44092,4.42963 -0.37123,1.98634 -1.27747,3.66774 -2.11961,3.93272 -0.80913,0.25442 -2.28655,0.78296 -3.28316,1.17429 -11.09169,4.35504 -14.4253,5.32563 -15.78766,4.59649 -0.82639,-0.44228 -3.49321,-2.9323 -5.92625,-5.53341 l -4.42366,-4.72928 -1.71072,2.11262 c -0.9409,1.16198 -1.94169,3.26755 -2.22399,4.67912 -0.28216,1.41154 -0.86834,2.78588 -1.3023,3.05408 -1.58559,0.97997 -0.78057,4.60881 1.24953,5.63251 3.42428,1.72668 12.8383,3.78702 20.11325,4.40199 3.79571,0.32086 7.11558,0.93011 7.37751,1.35387 0.26196,0.42379 7.57266,0.77054 16.2461,0.77054 15.21048,0 15.80693,-0.0692 16.81268,-1.94837 z m 11.85624,1.13557 c 0.16608,-0.44708 7.53883,-1.73781 16.38379,-2.86835 8.845,-1.13053 16.0818,-2.39561 16.0818,-2.81125 0,-0.41565 0.73746,-0.75575 1.63885,-0.75575 0.90138,0 2.35616,-0.5245 3.23282,-1.16553 1.40565,-1.02781 1.47006,-1.65754 0.54532,-5.33011 -0.91049,-3.61584 -1.30661,-4.09949 -3.00634,-3.67052 -1.0767,0.27154 -2.20416,0.86566 -2.50543,1.31986 -0.30134,0.45417 -1.9321,-0.0171 -3.62405,-1.04969 -1.69195,-1.0315 -4.17095,-1.87696 -5.50886,-1.87881 -3.149,-0.003 -7.08059,-1.50855 -7.08059,-2.70891 0,-0.51604 -0.78434,-2.66661 -1.74294,-4.779 -1.49824,-3.30148 -5.5052,-18.09307 -5.5052,-20.3223 0,-1.01394 5.95474,-3.50386 10.24626,-4.28433 3.22872,-0.5872 3.43311,-0.81413 3.17105,-3.52108 -0.24004,-2.47855 -0.66983,-2.9305 -2.99812,-3.15191 -1.49495,-0.14211 -3.53348,-0.61388 -4.53009,-1.04825 -0.99661,-0.43441 -3.64672,-1.45527 -5.8891,-2.26857 -2.6637,-0.96617 -5.50794,-3.0774 -8.20469,-6.09028 -4.54471,-5.07757 -5.48872,-5.18588 -10.36864,-1.18978 -2.55235,2.09007 -2.70439,2.5717 -2.49376,7.89958 0.12328,3.12058 0.4603,6.78935 0.74873,8.15281 0.5108,2.41441 0.5923,2.44393 3.12831,1.13252 5.64909,-2.92128 9.94191,-1.15543 9.94191,4.08959 0,2.59272 -0.47625,3.81523 -1.75246,4.49821 -2.92155,1.56358 -5.71689,1.065 -8.39063,-1.49663 l -2.54111,-2.43455 v 3.5908 c 0,5.2804 1.75914,18.39993 2.70182,20.15009 1.01757,1.88916 3.64028,15.61285 3.64028,19.04825 0,1.40175 0.27189,2.82047 0.60402,3.15267 0.88323,0.88323 3.72541,0.73766 4.07705,-0.20889 z M 419.6765,-676.912 c 0.76379,-0.39304 2.91765,-1.37959 4.7863,-2.19232 2.84639,-1.23799 3.39757,-1.92018 3.39757,-4.20505 0,-3.43359 1.60192,-10.35279 3.26114,-14.08587 0.69791,-1.57022 1.26895,-3.09914 1.26895,-3.39754 0,-0.2986 -2.9559,-0.54176 -6.56862,-0.5407 l -6.56862,0.002 -1.7152,7.27289 c -0.94337,4.00011 -2.01103,7.45573 -2.37254,7.67916 -0.36154,0.22327 -0.91453,1.94419 -1.22888,3.8239 -0.31435,1.8797 -0.83502,4.38041 -1.15708,5.55718 -0.55381,2.02346 -0.4203,2.10321 2.4613,1.47033 1.67579,-0.36808 3.67185,-0.99083 4.43568,-1.38387 z m -8.34406,-13.54055 c 1.61529,-9.94445 1.66898,-11.37495 0.47181,-12.57213 -2.07404,-2.07403 -4.15818,-0.17601 -5.436,4.95026 -0.60874,2.44211 -1.93378,5.92265 -2.94456,7.73459 -2.48088,4.44726 -2.32391,6.12216 0.94565,10.08871 3.87088,4.696 4.75333,3.40319 6.9631,-10.20143 z m 85.43858,3.27768 c -1.02603,-2.25221 -1.86547,-4.59293 -1.86547,-5.20163 0,-0.60871 -0.21093,-0.89597 -0.46837,-0.63836 -0.66401,0.664 1.4933,9.99628 2.66452,11.52644 1.86279,2.43355 1.64247,-1.35511 -0.33079,-5.68645 z m -3.24762,0.92227 c -0.33216,-2.06668 -1.12547,-4.58286 -1.7628,-5.59156 -0.63737,-1.00867 -1.4614,-4.06647 -1.83122,-6.7951 -0.84115,-6.20643 -2.85482,-10.43429 -4.37055,-9.17637 -0.59385,0.49286 -2.50506,1.03133 -4.24714,1.19662 -2.79859,0.26539 -3.13027,0.5643 -2.84828,2.5656 0.17567,1.24577 0.7815,3.08044 1.34658,4.07706 0.56504,0.99661 1.86813,4.84903 2.8957,8.56091 1.76968,6.39244 2.03349,6.79096 4.99556,7.54554 1.71999,0.43818 3.49827,1.15619 3.95179,1.5956 1.60689,1.557 2.46629,-0.27087 1.87036,-3.9783 z m 8.81568,-1.7766 c -1.34935,-2.76948 -2.62521,-7.36847 -3.87553,-13.97003 -1.11321,-5.87739 -2.88358,-8.52712 -4.57029,-6.84041 -1.22584,1.22584 0.69277,11.3403 2.96764,15.645 0.91779,1.73671 1.66871,3.64676 1.66871,4.24457 0,0.59785 0.40841,2.16119 0.90761,3.47414 0.83964,2.20844 1.01836,2.27638 2.38733,0.90741 1.15796,-1.15797 1.26987,-1.91046 0.51453,-3.46068 z m -86.01899,-10.21983 c 0.39897,-2.08691 0.29757,-2.198 -0.90758,-0.99295 -0.74622,0.74623 -1.08064,1.80362 -0.74311,2.34973 0.90032,1.45677 1.15249,1.2495 1.65069,-1.35678 z m 49.16888,-8.61365 c 0.72626,-2.28823 -0.5746,-3.82235 -2.86684,-3.38093 -2.04055,0.39298 -2.78372,3.41634 -1.1018,4.48222 2.01459,1.27669 3.32973,0.91176 3.96864,-1.10129 z m 65.4826,-12.74156 c 0.21265,-1.83231 -0.42855,-2.92792 -2.71804,-4.64367 -4.37761,-3.28066 -8.98078,-4.4576 -10.69759,-2.73517 -0.7829,0.7855 10.35026,10.24078 11.77823,10.00313 0.74746,-0.1243 1.4843,-1.30534 1.6374,-2.62429 z m -42.63463,-2.23453 c 3.27672,-0.87813 2.50806,-3.05302 -1.07904,-3.05302 -1.71469,0 -3.36959,-0.40769 -3.67754,-0.90603 -0.34466,-0.55765 1.17392,-0.90601 3.9495,-0.90601 5.68039,0 7.37569,-0.64901 7.37569,-2.82362 0,-1.48927 -0.5546,-1.67753 -4.07708,-1.3841 -6.05758,0.5046 -4.93355,-0.86146 1.81204,-2.20225 3.23902,-0.64384 5.8891,-1.50348 5.8891,-1.91039 0,-0.40687 0.61158,-0.73979 1.35904,-0.73979 0.74746,0 1.359,-0.61158 1.359,-1.35904 0,-0.74746 -0.62462,-1.359 -1.38811,-1.359 -0.76345,0 -2.8518,0.61154 -4.64073,1.359 -3.46383,1.44729 -10.77758,1.84598 -11.53,0.6285 -0.24826,-0.40177 1.8681,-1.21594 4.70312,-1.80927 2.83502,-0.59329 6.78541,-1.87402 8.77867,-2.84601 1.99322,-0.97203 4.33754,-1.97973 5.20958,-2.23937 0.87203,-0.25956 1.58552,-1.30028 1.58552,-2.31257 0,-2.61022 -3.67682,-2.4125 -6.25944,0.33661 -2.28069,2.42767 -7.83188,3.42048 -12.31389,2.20231 -2.28224,-0.62031 -8.60715,-5.49479 -8.60715,-6.63337 0,-0.19245 1.41976,-0.11985 3.15503,0.16197 2.4841,0.40311 3.28604,0.17053 3.77126,-1.094 0.90799,-2.3662 -1.73304,-3.83752 -6.23125,-3.47143 -17.84546,1.45242 -16.80961,1.21464 -19.71706,4.52605 -2.30021,2.6198 -2.72236,3.85221 -2.72236,7.94793 0,4.17297 0.31572,5.05422 2.26892,6.33402 1.24792,0.81766 3.46698,1.72626 4.93128,2.01911 1.46431,0.29278 4.82612,2.38356 7.47075,4.646 7.42186,6.34933 12.97356,8.40244 18.62515,6.88787 z m -6.11562,-9.39515 c -0.74746,-0.48303 -0.95131,-0.87823 -0.453,-0.87823 0.4983,0 1.51758,0.3952 2.26504,0.87823 0.74746,0.48307 0.95131,0.87827 0.45301,0.87827 -0.49831,0 -1.51759,-0.3952 -2.26505,-0.87827 z m 34.2474,2.53687 c 1.7651,-1.7651 1.25621,-3.41 -1.40431,-4.53924 -1.37034,-0.58162 -3.51081,-1.94007 -4.75657,-3.0188 -1.2458,-1.07873 -3.08048,-2.24995 -4.07709,-2.60272 -1.40948,-0.49889 -1.18981,0.024 0.98877,2.35874 1.54042,1.65007 3.70866,4.32518 4.81828,5.94467 2.21228,3.22885 2.8092,3.47907 4.43092,1.85735 z m -68.22298,-1.43448 c -2.50108,-2.14684 -4.07709,-7.1176 -4.07709,-12.85939 0,-5.27686 1.4791,-7.88735 7.93687,-14.00821 l 3.38832,-3.21156 -6.7951,-0.15067 c -3.73733,-0.0829 -7.30474,-0.13183 -7.92766,-0.10855 -0.62288,0.024 -1.13252,-0.26333 -1.13252,-0.63692 0,-0.37342 -4.58669,-0.89436 -10.19267,-1.15762 -11.05642,-0.51927 -18.34192,-1.95943 -20.83834,-4.11928 -1.42003,-1.22854 -1.75852,-1.21522 -3.24242,0.12773 -0.91127,0.82471 -2.1344,1.49943 -2.71804,1.49943 -1.87081,0 -1.13496,-4.98405 1.20385,-8.15414 1.24576,-1.68856 2.26504,-3.38651 2.26504,-3.77321 0,-0.38675 0.96864,-2.85571 2.15256,-5.48661 3.93354,-8.74127 4.43116,-11.32851 3.8882,-20.21631 -0.53059,-8.68543 -1.93658,-13.54888 -4.54139,-15.7091 -0.82464,-0.68391 -1.49937,-1.64022 -1.49937,-2.12517 0,-0.48495 -0.84317,-2.06585 -1.87371,-3.51314 -1.03055,-1.44725 -1.51677,-2.63141 -1.08044,-2.63141 0.97524,0 6.41682,7.28636 8.73922,11.7019 1.26641,2.40784 1.82612,5.88249 2.16492,13.44005 0.25134,5.60598 0.60942,10.19267 0.79584,10.19267 0.18629,0 1.04688,-0.36013 1.91217,-0.80029 3.74271,-1.90392 6.56599,-2.73151 13.96716,-4.09404 4.32511,-0.79626 9.27324,-1.44777 10.99587,-1.44777 2.8392,0 3.17318,0.27532 3.57235,2.94457 0.53607,3.58471 0.0401,3.93594 -6.62433,4.6899 -2.89399,0.32737 -6.44172,1.18396 -7.88383,1.90337 -1.44215,0.71945 -5.13164,1.41589 -8.19887,1.54772 -3.55806,0.15273 -5.74411,0.6675 -6.03901,1.42164 -0.61514,1.57292 3.22122,6.68296 4.61549,6.14791 1.46462,-0.56204 2.28306,1.7966 1.58645,4.57204 -0.51029,2.03321 -0.3212,2.21854 2.00716,1.96651 3.05131,-0.3301 4.17064,2.35439 1.72671,4.14143 -1.419,1.0376 -1.41965,1.19543 -0.0103,2.36572 1.53433,1.27337 24.42397,2.90885 27.9555,1.99744 1.39226,-0.35932 1.58532,-1.0486 1.16345,-4.1538 -1.09205,-8.03758 -1.59683,-26.56441 -0.81732,-29.99745 0.45259,-1.99322 0.592,-4.54536 0.3099,-5.67135 -0.54292,-2.16611 -9.72436,-8.94022 -13.35105,-9.85044 -1.16125,-0.29141 -2.11136,-0.91751 -2.11136,-1.3912 0,-0.47368 -0.37089,-0.63202 -0.82423,-0.35184 -1.18307,0.73119 -3.70579,-0.40352 -3.70579,-1.66686 0,-0.58881 0.81539,-2.66993 1.812,-4.62474 2.35593,-4.62093 2.40627,-7.12614 0.0873,-4.34832 l -1.66435,1.9938 -3.96809,-5.82282 c -3.25638,-4.7784 -4.41781,-5.8266 -6.47544,-5.8443 -3.67881,-0.031 -19.25542,3.4833 -22.16712,5.0021 -1.37828,0.719 -3.19543,1.3098 -4.03805,1.3128 -0.84265,0 -1.80814,0.4523 -2.14557,0.9983 -0.33729,0.5459 -2.01767,0.8287 -3.73394,0.6283 -3.00106,-0.3503 -3.21286,-0.1716 -5.53567,4.66998 -2.09924,4.37552 -2.45999,6.42719 -2.75709,15.67992 -0.18799,5.85513 -0.70657,10.64568 -1.15238,10.64568 -0.44581,0 -0.8106,-0.64552 -0.8106,-1.43452 0,-0.78899 -0.49194,-1.27055 -1.09318,-1.07013 -0.60128,0.20032 -1.622,3.39415 -2.26827,7.09713 -0.6463,3.70302 -1.51265,7.34429 -1.92525,8.09175 -0.41256,0.74746 -1.68894,5.23225 -2.83632,9.96619 -1.14738,4.73394 -2.59751,9.62642 -3.22248,10.87219 -0.62501,1.24576 -1.65662,4.61898 -2.29251,7.49606 -1.15221,5.21307 -1.14711,5.24056 1.48433,8.00525 1.45229,1.52581 4.27135,3.60395 6.26458,4.61806 1.99326,1.01415 5.11613,2.60176 6.93971,3.52804 1.82362,0.92627 5.28912,2.19532 7.70114,2.82009 2.41202,0.62477 4.6397,1.49101 4.95039,1.92498 0.31059,0.43399 4.08199,0.94504 8.38063,1.1357 7.23423,0.32086 7.81575,0.21676 7.81575,-1.40006 0,-0.96069 -0.4077,-1.9987 -0.906,-2.30669 -1.34925,-0.83385 -1.0951,-3.69825 0.44125,-4.9733 1.35415,-1.12385 4.31566,-0.76081 6.76501,0.8293 1.12885,0.73284 1.13933,1.18738 0.0733,3.17907 -0.68404,1.27819 -1.73651,2.32398 -2.33874,2.32398 -0.60223,0 -1.55491,0.55415 -2.11705,1.23148 -0.84652,1.02 1.15728,1.43085 11.66728,2.39209 6.97913,0.63832 12.68934,1.48279 12.68934,1.87656 0,0.87504 2.87505,1.47029 7.70111,1.59446 3.52132,0.0907 3.57272,0.049 1.81204,-1.46215 z m -14.36708,-4.06692 c -1.1542,-0.84399 -1.54378,-2.10759 -1.33301,-4.32357 0.27326,-2.87221 0.56641,-3.15359 3.54642,-3.40339 4.40716,-0.36941 6.00258,1.51324 4.45287,5.25461 -0.61942,1.49536 -1.45108,2.71883 -1.8482,2.71883 -0.39709,0 -1.27665,0.213 -1.9546,0.47304 -0.67794,0.26025 -1.96651,-0.0637 -2.86348,-0.71952 z m 5.3422,-2.52865 c 0.71911,-1.16351 -2.09225,-4.47297 -3.79978,-4.47297 -1.54194,0 -1.617,4.21831 -0.086,4.83605 1.91146,0.77129 3.26283,0.64501 3.88585,-0.36308 z m -15.66407,1.25809 c -4.11797,-2.87255 -1.52731,-8.68004 3.13133,-7.01946 3.8992,1.3899 4.63351,3.55156 2.11653,6.23078 -2.50392,2.66528 -2.54813,2.67192 -5.24786,0.78868 z m 4.55441,-3.96381 c -0.28388,-1.08605 -1.08948,-1.73862 -1.9431,-1.57422 -2.07403,0.39941 -2.37962,3.20043 -0.398,3.64826 2.34,0.52878 2.89351,0.0384 2.3411,-2.07404 z m -54.09407,-8.62711 c -2.15533,-2.15533 -1.70387,-2.71698 0.6148,-0.76485 1.12119,0.94394 2.20841,1.82255 2.41606,1.95244 0.20751,0.12978 -0.0692,0.23628 -0.6148,0.23628 -0.54577,0 -1.63299,-0.64069 -2.41606,-1.42376 z m 12.16651,-24.62419 c 0,-1.12119 0.35675,-2.03856 0.79277,-2.03856 0.43601,0 1.02633,-1.16783 1.31178,-2.59522 0.2897,-1.44818 3.18879,-5.50434 6.55941,-9.17726 5.9656,-6.50058 6.03425,-6.63385 5.55047,-10.7685 -0.2695,-2.30258 -0.79465,-5.20574 -1.16718,-6.45151 -0.59422,-1.98737 -0.50194,-2.12136 0.75273,-1.09307 2.02281,1.65781 3.63309,11.66738 2.50807,15.59014 -0.54861,1.91282 -2.98501,5.10047 -6.3347,8.28796 -4.13989,3.93936 -5.44329,5.79082 -5.44329,7.7321 0,2.11859 -0.38499,2.55245 -2.26501,2.55245 -1.74493,0 -2.26505,-0.46811 -2.26505,-2.03853 z m 65.87969,33.81416 c 0.21745,-6.01019 3.82667,-14.62295 6.41275,-15.30308 1.08729,-0.28593 0.92381,-0.43835 -0.5495,-0.51218 -3.06531,-0.15375 -10.7861,8.04012 -11.58407,12.29359 -0.73626,3.92464 1.80386,9.58438 4.10342,9.14298 1.0752,-0.20648 1.47125,-1.58285 1.6174,-5.62131 z m -35.07516,-0.41243 c 0,-1.82697 -3.2646,-3.23228 -4.15646,-1.78924 -0.92484,1.49646 0.39965,3.49561 2.316,3.49561 1.19847,0 1.84046,-0.59521 1.84046,-1.70637 z m 58.31258,-21.45379 c 2.28244,-2.21666 3.84954,-3.06089 5.00258,-2.69494 1.24522,0.39524 1.9359,-0.11677 2.67332,-1.98175 1.81873,-4.59967 2.01405,-6.98878 1.13143,-13.83987 -0.54761,-4.2507 -0.5559,-7.11743 -0.0205,-7.65584 0.4693,-0.47341 0.8533,-2.06263 0.8533,-3.53166 v -2.67096 l -8.09521,0.52446 c -8.54616,0.55368 -9.29793,0.28593 -10.26242,-3.65381 -0.4929,-2.01336 0.35116,-2.43752 4.54091,-2.28192 0.62288,0.024 1.13252,-0.32018 1.13252,-0.76328 0,-0.44297 2.804,-0.80537 6.23115,-0.80537 7.4685,0 8.09758,-0.55932 9.1711,-8.15414 0.93768,-6.63365 2.00935,-8.14973 5.77352,-8.16764 l 2.83362,-0.0137 -3.43472,-2.93108 c -2.32411,-1.98329 -3.49598,-3.7776 -3.62409,-5.54909 -0.16265,-2.24974 0.38421,-2.92704 3.88776,-4.81494 2.24241,-1.2084 6.02559,-2.4328 8.40713,-2.721 2.38151,-0.2883 4.52458,-0.8387 4.76237,-1.2234 1.02839,-1.664 -19.97004,-6.3274 -22.22249,-4.9353 -0.50224,0.3102 -0.91316,1.3316 -0.91316,2.2695 0,1.9961 -1.43376,3.1571 -2.25594,1.8268 -2.18036,-3.528 -5.64131,3.7162 -4.67185,9.77887 0.45728,2.85964 0.17292,4.08955 -1.42763,6.17523 -1.09924,1.43242 -2.5229,2.93046 -3.16373,3.32894 -0.64079,0.39849 -1.16508,1.26827 -1.16508,1.93286 0,0.66459 -0.8105,1.4203 -1.80112,1.67935 -0.99062,0.25888 -2.19115,1.4968 -2.66782,2.75058 -0.47669,1.25377 -1.39893,2.61826 -2.04945,3.03222 -2.76561,1.7599 -7.07185,9.48083 -7.07185,12.67951 v 3.26676 l 1.93785,-2.46358 c 1.06582,-1.355 2.18704,-2.0687 2.49156,-1.58604 0.30443,0.48269 1.36908,1.03006 2.36569,1.21645 1.36325,0.25477 1.8818,1.18026 2.09366,3.73613 0.33524,4.04555 -1.39147,5.1653 -5.09596,3.30443 -1.3386,-0.6724 -2.73955,-1.37154 -3.11328,-1.55365 -0.37373,-0.18217 -0.67952,3.62604 -0.67952,8.46254 0,7.60406 0.17875,8.64519 1.32192,7.69648 1.41657,-1.17563 6.40706,-0.52899 8.41775,1.09078 1.41472,1.13968 1.45605,4.42521 0.0935,7.4161 -0.80211,1.76041 -0.77681,2.59707 0.11095,3.66672 1.87827,2.26317 4.96563,1.59443 8.50397,-1.84197 z m 7.37357,2.32178 c -0.30784,-0.4983 -1.24936,-0.87734 -2.09198,-0.84231 -1.24895,0.0521 -1.19721,0.20751 0.28011,0.84231 2.42441,1.04182 2.45588,1.04182 1.81201,0 z m 42.48582,-0.5271 c 0.30237,-0.78821 0.54994,-2.07452 0.54994,-2.85848 0,-1.22491 -0.25477,-1.19474 -1.81201,0.21436 -0.99664,0.90193 -1.81204,2.18824 -1.81204,2.85848 0,1.69777 2.40469,1.52995 3.07411,-0.2147 z m -60.0146,-6.21023 c 1.24827,-2.73966 0.45352,-5.04086 -1.74092,-5.04086 -3.59532,0 -5.22231,4.53725 -2.24816,6.26954 2.34658,1.36678 2.88163,1.20196 3.98908,-1.22868 z m 28.83583,-0.0798 c -0.63035,-0.75951 -1.33264,-1.19436 -1.5607,-0.9663 -0.6283,0.62832 0.64829,2.34723 1.74328,2.34723 0.60076,0 0.53204,-0.51988 -0.18252,-1.38093 z m 30.84089,-1.81204 c 1.75075,-2.10955 0.50153,-2.50708 -1.37219,-0.43667 -0.90467,0.99966 -1.22392,1.81759 -0.70938,1.81759 0.51454,0 1.45122,-0.62141 2.08157,-1.38092 z m -15.13672,-5.29981 c 0.26264,-0.68452 1.92282,-1.51574 3.68921,-1.84711 1.7664,-0.33147 3.46393,-1.01075 3.77233,-1.50974 0.36147,-0.58487 -0.35161,-0.65288 -2.00675,-0.19142 -5.16472,1.43996 -14.37263,0.67394 -17.86834,-1.48653 -2.54803,-1.57481 -3.27244,-1.72989 -3.27244,-0.70054 0,4.20642 14.27044,9.42418 15.68599,5.73531 z m -2.54879,-10.53363 c 0.30785,-0.4983 1.86094,-0.90826 3.45106,-0.91107 4.43537,-0.007 9.68618,-1.73575 9.68618,-3.18769 0,-1.1854 -4.32676,-4.75867 -4.78486,-3.95159 -0.1089,0.1921 -0.64757,1.16464 -1.19676,2.16125 -1.38401,2.5115 -4.61091,2.79171 -6.50346,0.56471 -1.80862,-2.12825 -4.8669,-1.83543 -8.36152,0.80053 l -2.23577,1.68644 2.70754,0.96518 c 1.48913,0.53084 3.31908,1.34914 4.06654,1.81845 1.80143,1.13101 2.498,1.14286 3.17105,0.0538 z m -44.10808,-6.63847 c 0.19826,-1.67538 -0.13184,-2.42168 -1.07147,-2.42168 -1.527,0 -2.81992,3.09545 -1.90871,4.56982 1.00062,1.61905 2.67726,0.41054 2.98018,-2.14814 z m -39.18889,1.23652 c 0.4795,-0.47951 4.42452,-1.44075 8.76661,-2.13609 7.55575,-1.20991 10.65626,-2.50625 10.65626,-4.45547 0,-1.02856 -9.86914,-0.0531 -11.3252,1.11954 -0.4983,0.40123 -3.65805,1.02099 -7.02162,1.37723 -4.92388,0.52148 -6.11561,0.95082 -6.11561,2.20316 0,0.85553 0.27189,1.82732 0.60401,2.15951 0.88858,0.88858 3.43274,0.73493 4.43555,-0.26778 z m 87.80963,-6.60273 c -0.70732,-5.25317 -1.01852,-5.94474 -2.11317,-4.6962 -1.2995,1.48214 -0.11814,9.45278 1.40085,9.45278 1.10927,0 1.23751,-0.85629 0.71232,-4.75658 z m -5.87167,-1.63901 c 0,-2.91584 -0.3188,-3.5706 -1.73794,-3.5706 -0.95586,0 -2.38284,-0.24758 -3.17105,-0.54994 -2.04452,-0.78455 -1.84546,1.96901 0.24895,3.44314 0.92511,0.65114 1.97374,2.10712 2.33025,3.23557 0.95976,3.03781 2.32979,1.53351 2.32979,-2.55817 z m 16.43948,-2.5304 c 0.17772,-3.91265 0.18149,-9.21283 0.007,-11.77819 l -0.31436,-4.66429 h -4.38918 c -2.41403,0 -4.64114,0.40773 -4.94912,0.90604 -0.30785,0.4983 -1.93878,0.906 -3.62405,0.906 -1.68528,0 -3.32022,0.41438 -3.6332,0.9208 -0.31298,0.50642 -0.96815,0.67418 -1.45588,0.37274 -0.48772,-0.30134 -1.55792,-0.29038 -2.37818,0.024 -1.21382,0.46577 -1.01785,0.81796 1.05297,1.89231 2.9532,1.53214 8.79501,1.74797 10.16737,0.37561 0.6552,-0.65521 1.29956,-0.51649 2.10417,0.453 1.02332,1.23303 0.51481,1.39743 -4.32258,1.39743 -3.66045,0 -5.93307,0.45074 -6.83873,1.35644 -0.75958,0.75958 -2.02445,1.10006 -2.87464,0.77379 -1.14204,-0.43821 -1.43691,-0.15683 -1.19002,1.13512 0.28456,1.49003 1.28779,1.75014 7.5665,1.9621 8.65385,0.29209 10.70865,0.8142 8.37083,2.12664 -2.38681,1.33993 -1.90586,3.34819 0.90601,3.78311 2.40267,0.3716 2.41883,0.40985 0.453,1.07184 -1.12119,0.3776 -2.03853,1.22344 -2.03853,1.87971 0,1.03544 1.20817,1.45369 6.01967,2.0838 0.67839,0.089 1.14824,-2.32261 1.35966,-6.9782 z m -43.1124,3.37792 c 3.20902,0.024 5.83455,-0.34781 5.83455,-0.82766 0,-0.94997 -10.97629,-1.18402 -14.25956,-0.30408 -1.1156,0.29894 -1.79478,0.92159 -1.5093,1.38353 0.28559,0.46194 1.32473,0.58415 2.30943,0.27155 0.98469,-0.31264 4.41589,-0.5481 7.62488,-0.52348 z m 18.91018,-12.19631 c 0.9962,-3.96918 -0.1356,-5.81205 -3.57005,-5.81205 -4.17085,0 -4.60351,1.23279 -1.74708,4.97775 2.87837,3.77377 4.51492,4.03052 5.31713,0.8343 z m -43.88016,-3.35545 c 0,-0.64209 -0.81543,-2.76681 -1.81205,-4.72164 -0.99661,-1.95481 -1.81204,-4.0736 -1.81204,-4.7084 0,-1.68199 -5.57615,-12.05293 -6.48051,-12.05293 -0.42218,0 -0.76759,0.9854 -0.76759,2.1896 0,1.2043 -0.30819,2.3254 -0.68504,2.4916 -0.37674,0.166 -1.35376,2.42754 -2.17115,5.02546 -1.72924,5.49616 -1.93412,5.19407 6.66484,9.82829 6.36501,3.43031 7.06354,3.62292 7.06354,1.94802 z m 12.69533,-4.28939 c 0.52727,-0.98521 1.46317,-1.79126 2.07979,-1.79126 2.11554,0 4.43821,-5.78294 3.76469,-9.37323 -0.34175,-1.82109 -0.88156,-3.31089 -1.19985,-3.31079 -0.31812,10e-5 -1.9395,2.956 -3.60275,6.56861 -1.66322,3.61265 -3.64594,7.7286 -4.406,9.14665 -1.34479,2.50892 -1.33103,2.55101 0.51177,1.56477 1.04154,-0.55741 2.32507,-1.81954 2.85235,-2.80475 z m -4.93029,-3.82979 c 0.93394,-2.11783 1.92152,-4.05445 2.19457,-4.3036 0.68243,-0.62271 2.79372,-5.39819 3.61806,-8.18349 0.37345,-1.2619 0.38099,-4.9313 0.0171,-8.1541 l -0.66226,-5.8598 -0.12396,5.6626 c -0.0681,3.1144 -0.4767,5.6626 -0.90779,5.6626 -0.43112,0 -1.87008,-0.8544 -3.19769,-1.8987 -2.26446,-1.7812 -5.07866,-1.8365 -5.07866,-0.1 0,0.4271 1.01928,1.7341 2.26504,2.9044 2.94556,2.7672 2.86968,4.3402 -0.22634,4.6965 -2.4301,0.2794 -2.48688,0.4189 -2.30261,5.65088 0.31469,8.93256 1.6652,10.13514 4.40506,3.92241 z m 55.94151,1.19622 c 1.59826,-0.60768 2.4326,-1.59292 2.4326,-2.87259 0,-1.69822 -0.36264,-1.87519 -2.83129,-1.38143 -1.55721,0.31161 -6.65354,0.56624 -11.32519,0.56624 -4.82907,0 -8.49391,0.37568 -8.49391,0.87073 0,0.47889 0.91734,1.74435 2.03853,2.81212 1.83108,1.74383 2.73606,1.88994 8.89259,1.43561 3.76976,-0.27806 7.94876,-0.922 9.28667,-1.43068 z m -61.90841,-6.93434 c 0.0171,-2.50957 -0.90409,-3.30747 -2.39428,-2.07077 -1.50687,1.25062 -1.57056,3.69424 -0.13389,5.13108 1.31339,1.3134 2.50649,-0.13081 2.528,-3.06031 z m 62.89468,-0.89039 c 1.44691,-0.71451 3.15561,-1.29918 3.79712,-1.29918 1.78944,0 2.46143,-1.7394 1.24035,-3.2107 -1.19536,-1.4403 -8.96844,-1.8541 -10.43155,-0.5553 -0.47341,0.4203 -4.32624,1.257 -8.56184,1.8595 -9.87349,1.4044 -10.88476,1.7256 -10.29245,3.26914 0.9486,2.47204 19.2108,2.42427 24.24837,-0.0634 z m -67.59208,-6.91648 c 1.31455,-1.3145 1.45043,-5.2548 0.18114,-5.2548 -0.4983,0 -1.72976,0.8237 -2.7365,1.8305 -1.50259,1.5025 -1.62433,2.0644 -0.67952,3.1366 1.4265,1.6187 1.86484,1.6577 3.23481,0.2876 z m -55.53879,-1.6308 c -0.30784,-0.4983 -1.57922,-0.906 -2.82498,-0.906 -1.27933,0 -2.02134,0.3943 -1.70507,0.906 0.30784,0.4983 1.57919,0.906 2.82499,0.906 1.27929,0 2.02133,-0.3943 1.70506,-0.906 z m 39.41171,-2.5903 c 0,-0.8675 0.37856,-1.9647 0.84122,-2.4381 0.46266,-0.4734 1.68562,-3.0158 2.71764,-5.6498 1.74914,-4.4642 1.77718,-4.9405 0.41359,-7.0216 -2.04381,-3.1193 -3.75391,-2.8818 -3.26444,0.4533 0.42123,2.8698 -1.32212,11.5928 -2.65432,13.2811 -0.97134,1.231 -0.007,4.1605 1.13523,3.4537 0.44609,-0.2756 0.81108,-1.2111 0.81108,-2.0786 z m -31.62681,0.3253 c -0.007,-0.4983 -0.84354,-1.0363 -1.85991,-1.1955 -1.82215,-0.2856 -2.45143,0.743 -1.21258,1.9819 0.88097,0.8809 3.08705,0.3164 3.07249,-0.7864 z m 15.89446,0.01 c 2.29347,-1.1961 2.36678,-1.3541 0.63069,-1.359 -2.56457,-0.01 -4.83071,0.8856 -4.83071,1.9033 0,1.162 1.23532,1.0019 4.20002,-0.5443 z m -4.65302,-3.1765 c 0.64771,-1.048 -1.71065,-1.048 -4.98309,0 -2.03453,0.6516 -1.92471,0.7346 1.07906,0.8157 1.83924,0.05 3.59608,-0.3174 3.90403,-0.8157 z m 14.50847,-2.7053 c -2.0498,-2.1395 -2.31706,-3.0204 -1.82526,-6.0162 1.24097,-7.5594 1.54772,-8.4928 2.79105,-8.4928 1.50899,0 1.77345,-4.1225 0.32189,-5.0196 -0.62854,-0.3884 -0.39154,-1.2505 0.67948,-2.4721 1.58974,-1.8132 1.58922,-1.8555 -0.0137,-1.2691 -0.91281,0.3335 -1.82604,0.6066 -2.02941,0.6066 -0.60292,0 -7.63619,15.4737 -7.63619,16.8001 0,0.6698 1.22313,1.9404 2.71805,2.8234 1.49492,0.8831 2.71805,1.9952 2.71805,2.4714 0,1.438 2.89888,4.1748 3.81944,3.6058 0.47256,-0.2921 -0.22155,-1.6589 -1.5422,-3.0375 z m -4.99529,0.4403 c 0,-0.7475 -0.4077,-1.3591 -0.90604,-1.3591 -0.4983,0 -0.906,0.6116 -0.906,1.3591 0,0.7474 0.4077,1.359 0.906,1.359 0.49834,0 0.90604,-0.6116 0.90604,-1.359 z m 77.01134,0.053 c 0,-1.3601 -1.62658,-2.806 -2.34664,-2.0859 -0.63193,0.6319 0.61915,3.3914 1.53758,3.3914 0.44499,0 0.80906,-0.5875 0.80906,-1.3055 z m -51.1411,-0.5854 c 0.33489,-0.5418 0.15512,-1.4387 -0.39952,-1.9933 -1.71531,-1.7153 -1.19471,-4.2699 0.87015,-4.2699 1.27073,0 1.78369,-0.4919 1.58556,-1.5204 -0.276,-1.4318 -1.03732,-1.7773 -7.38162,-3.3497 l -2.55861,-0.6342 1.80698,1.9396 c 1.37859,1.4797 1.68332,2.7013 1.28548,5.153 -0.40263,2.481 -0.14005,3.4923 1.15129,4.4367 2.02493,1.4806 2.83948,1.5339 3.64029,0.2383 z m 12.50452,-2.698 c 1.30816,-1.029 2.7901,-1.6165 3.29323,-1.3056 0.57354,0.3545 0.91477,-1.3028 0.91477,-4.4427 0,-5.6382 -0.20135,-5.6887 -6.65145,-1.67 -3.2344,2.0151 -3.3785,2.281 -2.03853,3.7616 1.7262,1.9074 1.87611,4.2953 0.30922,4.9276 -0.72599,0.2927 -0.6072,0.4826 0.33079,0.5285 0.80485,0.039 2.53365,-0.7704 3.84183,-1.7994 z m 23.90304,0.3393 c -0.84238,-0.8423 -1.78599,-1.2772 -2.09692,-0.9662 -0.89165,0.8917 0.47722,2.4979 2.12883,2.4979 1.38301,0 1.38051,-0.1192 -0.0308,-1.5317 z m 6.5794,0.6257 c 0,-0.4983 -0.61155,-0.9061 -1.35901,-0.9061 -0.74745,0 -1.35904,0.4078 -1.35904,0.9061 0,0.4983 0.61159,0.906 1.35904,0.906 0.74746,0 1.35901,-0.4077 1.35901,-0.906 z m -15.40225,-7.6317 c 0,-1.4438 -4.52629,-7.1704 -5.16372,-6.533 -0.40137,0.4014 4.18184,7.8225 4.83109,7.8225 0.18285,0 0.3325,-0.5802 0.3325,-1.2895 z m -17.85542,-4.097 c 1.00733,-0.94 -0.99911,-2.2721 -5.248,-3.4842 -2.28182,-0.6508 -3.95963,-1.7987 -4.53009,-3.0991 -0.49831,-1.1359 -1.92772,-2.5514 -3.17646,-3.1454 -3.33412,-1.586 -10.76546,-8.9809 -11.90695,-11.8486 -1.37151,-3.4455 -2.00268,-1.0802 -0.8344,3.1269 0.52714,1.8984 0.96976,5.4901 0.9836,7.9817 0.024,4.4635 0.0949,4.5745 4.76164,7.5576 2.60508,1.6651 6.3673,3.3619 8.36056,3.7706 3.79047,0.7771 10.35824,0.29 11.5901,-0.8595 z m 7.77315,-5.5809 c 3.63135,-1.2659 4.64618,-3.1816 4.64618,-8.7704 0,-2.9753 0.72986,-5.8274 2.19772,-8.5881 1.20875,-2.2733 2.47068,-5.9535 2.80431,-8.1782 0.54131,-3.6099 0.32942,-4.3528 -1.97124,-6.907 -2.22166,-2.4667 -2.9846,-2.7793 -5.52236,-2.2627 -1.61949,0.3298 -2.94453,0.9694 -2.94453,1.4214 0,2.19 2.78856,7.1058 4.03083,7.1058 0.7729,0 1.40527,0.3743 1.40527,0.8319 0,0.4576 0.22566,1.4198 0.50125,2.1382 0.6538,1.7038 -3.81462,6.996 -5.90697,6.996 -0.89128,0 -2.05781,-0.5268 -2.59224,-1.1707 -0.5344,-0.644 -2.48588,-1.2728 -4.33662,-1.3975 -1.85074,-0.1246 -3.70579,-0.4372 -4.12236,-0.6946 -1.09489,-0.6767 -0.93189,-5.5825 0.20888,-6.2876 1.44712,-0.8943 2.24423,0.3602 1.01182,1.5926 -1.98278,1.9828 -1.09616,3.178 2.77845,3.7454 2.11784,0.3102 4.76791,0.8208 5.88914,1.1348 1.82919,0.5123 2.03852,0.2514 2.03852,-2.5413 0,-1.7118 -0.65164,-5.3066 -1.44811,-7.9885 -0.79642,-2.682 -1.2361,-6.1823 -0.97709,-7.7785 0.51214,-3.156 -0.68332,-3.9443 -6.02066,-3.9701 l -2.55673,-0.014 0.59974,4.8 c 0.55624,4.452 0.4077,5.0055 -2.04873,7.6352 -2.38689,2.5551 -3.03086,2.7839 -6.51959,2.3159 -6.5692,-0.8811 -9.98515,-5.5672 -8.35693,-11.4642 0.58864,-2.1318 0.54752,-3.4306 -0.13012,-4.1082 -0.71702,-0.717 -0.21642,-0.9908 1.81153,-0.9908 4.47797,0 4.27827,-2.1814 -0.47105,-5.1457 -8.20876,-5.1235 -8.53794,-5.2037 -12.68191,-3.0896 -4.21618,2.1509 -5.59525,4.166 -5.59525,8.1758 0,1.865 0.44653,2.7776 1.35904,2.7776 0.74746,0 1.359,-0.607 1.359,-1.3489 0,-0.9086 0.81331,-1.2935 2.49157,-1.1794 3.51642,0.2394 6.2995,2.2256 6.80212,4.855 0.63319,3.3122 -0.80735,3.5538 -1.93323,0.3242 -0.74527,-2.1379 -1.43194,-2.7153 -2.96182,-2.4904 -2.05788,0.3023 -3.54927,2.5577 -1.69134,2.5577 2.14393,0 3.63484,2.6863 3.63484,6.5492 0,2.1783 0.50964,4.5098 1.13252,5.1811 0.92659,0.9987 0.83074,1.114 -0.5271,0.6342 -0.91282,-0.3225 -2.23786,-0.5863 -2.94457,-0.5863 -0.91001,0 -1.28494,-1.1367 -1.28494,-3.8959 0,-3.6161 -1.17214,-6.0703 -2.89923,-6.0703 -1.38523,0 -0.71372,5.7872 1.14996,9.9109 2.23652,4.9488 8.09141,8.5739 8.09141,5.0099 0,-0.7631 0.61154,-1.6221 1.359,-1.9089 0.74746,-0.287 1.35904,-1.2933 1.35904,-2.2366 0,-0.9433 0.4077,-1.7151 0.90601,-1.7151 0.49831,0 0.906,1.4192 0.906,3.1538 0,2.7072 0.35278,3.2292 2.49157,3.6867 6.73096,1.4399 9.70727,5.3948 9.06706,12.0484 -0.30099,3.1277 -0.3601,3.0441 -1.08321,-1.5319 -0.82735,-5.2355 -3.18735,-8.2969 -6.396,-8.2969 -1.05657,0 -2.69538,-0.5662 -3.64179,-1.2582 -2.09537,-1.5322 -4.06168,-0.9302 -4.06168,1.2436 0,2.0543 16.3779,17.1351 19.69089,18.1314 3.64087,1.095 8.6093,1.0566 11.9036,-0.092 z m -6.66261,-4.4083 c -0.65453,-1.059 3.55118,-2.2604 4.92994,-1.4082 0.53478,0.3304 0.73774,0.9804 0.45102,1.4443 -0.68764,1.1126 -4.68761,1.0859 -5.38096,-0.036 z m -0.97521,-5.5189 c 2.46252,-0.4121 5.92803,-0.4051 7.70114,0.017 2.55556,0.6062 1.62744,0.7615 -4.47732,0.7492 -7.0909,-0.014 -7.34635,-0.075 -3.22382,-0.7648 z m -5.75905,-20.497 c 0.42013,-0.4201 0.8804,-2.1269 1.02281,-3.7928 0.20135,-2.3558 -0.24449,-3.4009 -2.00613,-4.7028 -4.10445,-3.0333 -6.89396,-3.1372 -9.47439,-0.3528 -2.90738,3.1371 -2.90268,4.9344 0.0206,8.0893 2.0137,2.1728 2.81663,2.4426 5.99881,2.0158 2.02065,-0.2712 4.01764,-0.8365 4.43781,-1.2567 z m -9.68145,-2.4605 c -0.57566,-1.5002 2.6648,-5.9787 4.326,-5.9787 1.58378,0 0.64439,3.4056 -1.49331,5.4138 -2.00962,1.888 -2.30254,1.9464 -2.83269,0.5649 z m 27.7245,-7.7908 c 0,-0.4983 -0.17978,-0.906 -0.39955,-0.906 -0.21984,0 -0.65151,0.4077 -0.95949,0.906 -0.30785,0.4983 -0.12807,0.9061 0.39955,0.9061 0.52772,0 0.95949,-0.4078 0.95949,-0.9061 z m -5.76963,-8.2752 c -0.73187,-1.6775 -1.36397,-2.5669 -1.40461,-1.9764 -0.11027,1.6036 1.7165,6.0452 2.2621,5.4996 0.26024,-0.2602 -0.12568,-1.8457 -0.85749,-3.5232 z m -5.75058,-3.824 c -1.14125,-3.5925 -2.07948,-5.0938 -3.18879,-5.1026 -1.35582,-0.01 -1.18793,0.7429 1.22193,5.4852 1.53656,3.0237 2.97152,5.3199 3.18883,5.1026 0.21744,-0.2175 -0.33251,-2.6857 -1.22197,-5.4852 z m -36.07934,-1.4618 c 2.2845,-1.9772 5.82876,-4.046 7.87616,-4.5974 2.04743,-0.5513 4.38209,-1.3527 5.18817,-1.781 5.14579,-2.7341 22.45609,-3.6205 32.25853,-1.6519 4.98549,1.0013 5.36131,0.9509 6.87694,-0.9208 1.24714,-1.5401 1.66898,-1.68 1.89906,-0.6299 0.19998,0.9125 0.70736,1.0926 1.56587,0.5558 1.95617,-1.2231 1.70092,-8.1016 -0.47307,-12.7484 -1.04911,-2.2424 -2.20101,-5.7079 -2.55981,-7.7011 -1.49194,-8.2886 -7.02652,-15.8553 -11.59715,-15.8553 -4.99423,0 -10.75447,4.6332 -15.20642,12.2312 -1.16793,1.9933 -4.49358,6.718 -7.39041,10.4994 -2.89684,3.7814 -5.26694,7.1361 -5.26694,7.4549 0,0.3188 -2.25878,2.8384 -5.01949,5.5991 l -5.0195,5.0195 -6.3057,0.2233 c -5.50574,0.1948 -6.30573,0.021 -6.30573,-1.3757 0,-1.3627 0.86389,-1.5989 5.84671,-1.5989 h 5.8467 l 5.61443,-6.5233 c 3.08795,-3.5878 5.18407,-6.6668 4.65806,-6.8421 -1.94398,-0.648 -12.59417,2.7267 -16.98281,5.3813 -9.45781,5.7208 -11.18024,8.9893 -7.78849,14.7792 1.38897,2.3711 2.92464,3.1833 7.50691,3.9699 0.34343,0.059 2.49352,-1.5105 4.77798,-3.4877 z m 37.51057,-19.713 c -2.75295,-3.2794 -4.4073,-6.5915 -4.4073,-8.8238 0,-2.1987 0.2284,-2.2969 5.33915,-2.2969 6.94406,0 7.79668,2.1505 3.74771,9.4523 -1.84019,3.3185 -2.95936,3.7175 -4.67956,1.6684 z m 4.09564,-3.3877 c 0.80479,-1.2283 1.46325,-2.9075 1.46325,-3.7316 0,-1.1247 -0.70233,-0.8117 -2.81616,1.2549 -1.54888,1.5143 -2.54409,3.1936 -2.21159,3.7316 0.94552,1.5299 1.97802,1.1664 3.5645,-1.2549 z m -4.87885,-4.109 c 0.77399,-1.4463 0.689,-1.812 -0.42116,-1.812 -0.78687,0 -1.39089,0.7869 -1.39089,1.812 0,0.9966 0.18937,1.812 0.42113,1.812 0.23148,0 0.85751,-0.8154 1.39092,-1.812 z m 74.84323,219.63475 c -0.30236,-0.7882 -0.54994,-2.3375 -0.54994,-3.44283 0,-1.10537 -0.48101,-2.49078 -1.0689,-3.07866 -0.79341,-0.79338 -0.81153,-1.59909 -0.0705,-3.12575 0.54919,-1.13126 1.69497,-3.98768 2.54611,-6.34758 0.85115,-2.3599 2.0651,-4.72021 2.69764,-5.24519 0.63254,-0.52495 2.04606,-3.28275 3.14119,-6.12846 1.09513,-2.8457 2.34665,-5.98939 2.78113,-6.986 0.43447,-0.99665 0.94103,-3.23903 1.1257,-4.9831 0.188,-1.77478 0.39955,-0.63781 0.48071,2.58221 0.14519,5.75774 -1.32264,9.69857 -8.60756,23.11092 -1.60929,2.96289 -1.97175,7.84869 -0.90015,12.13302 0.7565,3.02446 -0.52371,4.25255 -1.57556,1.51142 z m 6.24492,-47.80562 c -0.76071,-1.8206 -1.78533,-3.31018 -2.27693,-3.31018 -0.49162,0 -0.89388,-0.4077 -0.89388,-0.906 0,-0.49831 0.33216,-0.90601 0.73794,-0.90601 0.94662,0 4.89564,7.35265 4.27981,7.96848 -0.25511,0.25511 -1.08626,-1.02568 -1.84694,-2.84629 z"
       id="path513"
       inkscape:connector-curvature="0" />
  </g>
</svg>
