<?xml version="1.0" encoding="UTF-8" standalone="no"?>
<!-- Created with Inkscape (http://www.inkscape.org/) -->

<svg
   xmlns:dc="http://purl.org/dc/elements/1.1/"
   xmlns:cc="http://creativecommons.org/ns#"
   xmlns:rdf="http://www.w3.org/1999/02/22-rdf-syntax-ns#"
   xmlns:svg="http://www.w3.org/2000/svg"
   xmlns="http://www.w3.org/2000/svg"
   xmlns:sodipodi="http://sodipodi.sourceforge.net/DTD/sodipodi-0.dtd"
   xmlns:inkscape="http://www.inkscape.org/namespaces/inkscape"
   width="210.00002mm"
   height="455.84924mm"
   viewBox="0 0 210.00002 455.84923"
   version="1.1"
   id="svg8"
   inkscape:version="0.92.3 (2405546, 2018-03-11)"
   sodipodi:docname="radicals.svg">
  <defs
     id="defs2" />
  <sodipodi:namedview
     id="base"
     pagecolor="#ffffff"
     bordercolor="#666666"
     borderopacity="1.0"
     inkscape:pageopacity="0.0"
     inkscape:pageshadow="2"
     inkscape:zoom="0.49497475"
     inkscape:cx="411.73605"
     inkscape:cy="827.71337"
     inkscape:document-units="mm"
     inkscape:current-layer="layer1"
     showgrid="false"
     fit-margin-top="0"
     fit-margin-left="0"
     fit-margin-right="0"
     fit-margin-bottom="0"
     inkscape:window-width="1920"
     inkscape:window-height="1017"
     inkscape:window-x="-8"
     inkscape:window-y="-8"
     inkscape:window-maximized="1" />
  <metadata
     id="metadata5">
    <rdf:RDF>
      <cc:Work
         rdf:about="">
        <dc:format>image/svg+xml</dc:format>
        <dc:type
           rdf:resource="http://purl.org/dc/dcmitype/StillImage" />
        <dc:title></dc:title>
      </cc:Work>
    </rdf:RDF>
  </metadata>
  <g
     inkscape:label="Layer 1"
     inkscape:groupmode="layer"
     id="layer1"
     transform="translate(-356.47935,942.98623)">
    <path
       style="fill:#000000;stroke-width:1.65940368"
       d="m 368.59584,-492.67696 c 0.52432,-3.53803 1.44188,-14.46018 2.03895,-24.27135 0.59707,-9.81123 1.5564,-17.84009 2.1319,-17.84191 0.57575,-0.002 1.22048,-2.46129 1.43328,-5.46546 0.21262,-3.00411 1.89113,-19.61744 3.72963,-36.91841 1.83851,-17.30097 3.34448,-34.62991 3.34674,-38.50875 0.002,-3.8789 0.59456,-7.05247 1.31688,-7.05247 1.94187,0 7.03479,-54.47897 7.00763,-74.96092 -0.0251,-17.48761 -0.0928,-17.80271 -5.53232,-24.92843 -9.99136,-13.08942 -15.45594,-27.57036 -18.6632,-49.45699 -0.60209,-4.107 -1.8099,-8.35486 -2.68462,-9.43963 -0.87473,-1.08476 -2.82349,-11.73584 -4.33066,-23.669 -2.56026,-20.2712 -2.55605,-22.7582 0.064,-37.8533 1.54247,-8.8863 4.37367,-19.2762 6.29158,-23.0888 2.26203,-4.4968 4.01374,-12.4985 4.98611,-22.7761 1.58513,-16.7544 4.62016,-23.8627 13.82629,-32.3819 4.84462,-4.4832 21.22671,-7.0424 23.32694,-3.6441 1.98708,3.2151 7.28252,2.0098 12.92115,-2.9409 2.99934,-2.6335 8.81245,-5.7463 12.91813,-6.9174 4.10562,-1.1711 8.14182,-2.7178 8.96919,-3.4369 0.82743,-0.7192 3.441,0.031 5.80796,1.6671 2.3669,1.636 5.19221,3.4869 6.27841,4.1129 1.09744,0.6326 4.61019,-1.1755 7.90619,-4.0694 4.97557,-4.3686 7.6661,-5.347 16.69768,-6.072 10.62688,-0.853 10.83836,-0.7879 16.31794,5.0221 5.38123,5.7057 5.90932,5.8808 17.21812,5.7065 10.84036,-0.1668 12.00572,0.1669 16.45409,4.7125 7.60257,7.7691 9.32329,13.4262 10.17274,33.4441 l 0.78905,18.5954 9.33558,1.9483 c 16.97308,3.5422 20.50189,12.1587 16.04963,39.1893 -1.4728,8.9417 -3.38406,17.75107 -4.24724,19.57647 -0.86325,1.82533 -2.66061,8.7133 -3.99424,15.30655 -2.199,10.87204 -4.17128,16.58875 -9.84277,28.53025 -1.04783,2.20615 -6.01212,8.62969 -11.03178,14.27459 -11.49959,12.93187 -15.33321,17.52888 -17.42327,20.89268 -0.91292,1.46929 -3.75854,5.68134 -6.32363,9.36004 -6.49748,9.3184 -8.08963,22.4477 -6.08706,50.19605 2.55035,35.3395 3.61699,45.51198 4.95877,47.29304 0.68763,0.91266 1.63774,4.27295 2.11132,7.46728 2.21017,14.90623 6.59263,39.24593 7.46961,41.48514 2.54358,6.49422 5.37691,27.69773 6.20886,46.46328 0.5055,11.4084 1.19376,22.05033 1.52893,23.64881 0.33491,1.59842 0.0564,2.56515 -0.61714,2.14827 -0.67453,-0.41708 -2.18778,-7.32523 -3.3628,-15.35183 -1.17495,-8.02654 -2.72012,-15.34048 -3.43372,-16.25315 -0.71361,-0.91267 -1.78213,-6.88652 -2.37456,-13.27525 -1.51588,-16.34791 -5.82189,-40.89923 -7.82408,-44.61017 -0.92735,-1.71884 -3.25668,-14.41326 -5.1764,-28.20988 -1.91966,-13.79662 -4.16175,-25.5457 -4.98241,-26.10903 -2.22529,-1.52762 -2.33316,-56.9631 -0.11603,-59.7497 0.99915,-1.25586 3.064,-6.10895 4.58867,-10.78474 1.52466,-4.67572 4.96297,-11.39629 7.64076,-14.93463 2.67773,-3.53828 4.88934,-7.28083 4.91474,-8.31667 0.0251,-1.03584 1.91302,-3.10659 4.19468,-4.60159 2.28167,-1.49507 4.14852,-3.72969 4.14852,-4.96592 0,-1.23617 1.23378,-3.2716 2.74177,-4.52313 5.08734,-4.22209 15.42772,-19.42277 18.12257,-26.64069 1.47179,-3.94206 3.28916,-8.66087 4.03857,-10.4862 0.74942,-1.82533 3.00217,-12.27955 5.00612,-23.23157 2.00396,-10.9521 4.30826,-20.6223 5.12071,-21.4894 4.29666,-4.5854 -0.41519,-22.3761 -6.83685,-25.8128 -4.72013,-2.5261 -11.67024,-2.1078 -10.61621,0.6391 1.72122,4.4854 -7.33144,9.3285 -17.38564,9.301 -5.12478,-0.013 -10.33411,-0.6693 -11.57623,-1.4563 -1.40531,-0.8904 0.78874,-1.2799 5.8079,-1.0312 8.06179,0.3995 13.87421,-2.3489 13.87421,-6.5605 0,-4.0596 -9.62528,-11.1108 -16.40888,-12.0206 -3.75252,-0.5036 -6.82273,-1.5636 -6.82273,-2.3561 0,-2.0764 10.61539,-1.7775 12.75193,0.3588 0.98994,0.9899 3.56619,1.5499 5.72493,1.2445 3.8005,-0.5375 3.90944,-0.9743 3.43247,-13.7543 -0.27094,-7.2593 -1.0736,-13.9799 -1.78375,-14.9346 -0.71009,-0.9546 -2.19487,-4.8972 -3.29951,-8.7611 -2.21218,-7.738 -5.66027,-10.3984 -13.47745,-10.3984 -3.45543,0 -6.51417,1.4542 -9.2358,4.3909 -3.59585,3.88 -4.06925,5.8956 -4.06925,17.3258 0,7.1142 0.74672,13.3965 1.65939,13.9605 0.91266,0.5638 1.65944,2.475 1.65944,4.2465 0,1.7714 0.93876,3.2209 2.08618,3.2209 1.44677,0 1.9085,2.2345 1.50641,7.2904 -0.31923,4.0098 0.26216,8.8635 1.29098,10.7862 1.27436,2.3812 1.3118,3.4956 0.11728,3.4956 -0.96434,0 -2.61275,-1.8862 -3.66314,-4.1915 -1.05034,-2.3053 -2.71448,-3.9236 -3.69809,-3.5962 -3.25153,1.0825 -2.99313,6.4651 0.54,11.2436 1.91383,2.5887 3.47977,5.4837 3.47977,6.4333 0,0.9496 0.68155,1.7266 1.51456,1.7266 0.83302,0 5.48303,2.6136 10.33342,5.808 4.85039,3.1943 9.95598,5.8652 11.34581,5.9354 1.38982,0.07 5.51388,1.1533 9.16455,2.4071 l 6.63765,2.2795 -9.88912,-0.333 c -9.65149,-0.3249 -9.92601,-0.2133 -11.42264,4.6454 -0.84342,2.738 -2.19668,6.4716 -3.00725,8.297 -0.8105,1.8253 -1.6442,7.99277 -1.85261,13.70547 -0.40328,11.06163 -3.14705,14.10864 -4.52734,5.02813 -1.03766,-6.82618 -5.78124,-7.73735 -19.50762,-3.747 -14.89243,4.3294 -33.70031,21.51798 -49.72429,45.44337 -0.25463,0.38007 -0.95331,0.20132 -1.55245,-0.39763 -1.5367,-1.53671 4.19625,-14.08581 9.71923,-21.27482 2.55499,-3.32573 4.64537,-6.44718 4.64537,-6.93663 0,-1.50209 -9.95122,1.86629 -15.92288,5.38964 -5.47939,3.23297 -5.64935,3.23861 -5.64935,0.18815 0,-2.94541 10.10136,-11.12799 17.00889,-13.778 8.95369,-3.43504 -4.28079,-10.17775 -19.05242,-9.7068 -9.46478,0.30167 -15.72657,2.50369 -20.91451,7.35452 l -3.87494,3.62313 -5.25179,-6.53599 c -2.88852,-3.59485 -6.01324,-8.06053 -6.94391,-9.92375 -0.93066,-1.86321 -3.42043,-4.2493 -5.53276,-5.30246 -2.11239,-1.05309 -4.6739,-2.74793 -5.69225,-3.76633 -1.01841,-1.0184 -5.01847,-1.8516 -8.88909,-1.8516 -8.07891,0 -10.87555,-2.5809 -5.25267,-4.8475 14.93627,-6.021 14.61334,-5.7819 14.61334,-10.8163 0,-3.06 -1.68165,-6.6524 -4.48256,-9.576 l -4.48261,-4.6788 3.62181,-2.5367 c 2.64343,-1.8516 3.23692,-3.3017 2.19713,-5.3684 -4.76717,-9.4757 -7.46936,-33.5001 -3.49137,-31.0416 0.91267,0.5639 1.65938,2.8585 1.65938,5.0987 0,2.2402 0.66531,5.3697 1.47845,6.9545 1.39164,2.7123 5.35809,18.9969 7.77504,31.921 0.5977,3.1944 1.62131,6.5547 2.27546,7.4673 0.65408,0.9127 2.20891,6.0713 3.45517,11.4635 2.47754,10.71957 8.39814,19.23549 13.37328,19.23549 1.74418,0 3.17125,-0.74672 3.17125,-1.65938 0,-0.91267 -0.7824,-1.65939 -1.73859,-1.65939 -0.95626,0 -3.56982,-1.97585 -5.80797,-4.39079 -3.14648,-3.39523 -4.06924,-6.20023 -4.06924,-12.37033 0,-7.8057 0.12669,-8.0033 5.8079,-9.0691 3.19434,-0.5996 5.8079,-1.7532 5.8079,-2.5643 0,-0.8111 1.12014,-1.4747 2.48914,-1.4747 1.369,0 2.48908,1.0401 2.48908,2.3115 0,1.9286 3.29386,4.3261 5.94362,4.3261 1.39183,0 0.65026,-9.7876 -0.80994,-10.6901 -1.7941,-1.1088 -3.3493,-11.9498 -4.23444,-29.5172 -0.96447,-19.1409 -3.95159,-30.2859 -9.98947,-37.2707 -6.47472,-7.4901 -12.25402,-7.8864 -21.90181,-1.5018 -6.74898,4.4662 -6.90132,4.7826 -8.95758,18.6039 -1.1505,7.7333 -2.71342,14.4447 -3.47305,14.9142 -0.7597,0.4697 -1.38123,2.7409 -1.38123,5.0474 0,5.6453 -6.87605,29.3461 -8.91757,30.7378 -2.37167,1.6167 -2.26254,31.56032 0.13233,36.36292 1.10057,2.20685 3.53514,11.31558 5.41015,20.24155 1.87501,8.92597 4.08662,17.5134 4.91474,19.08316 0.82812,1.56975 2.61269,8.94585 3.96582,16.39131 1.96407,10.80756 3.84942,15.58307 9.3497,23.68261 11.49921,16.93332 12.04968,19.81551 9.99003,52.30687 -2.70068,42.60289 -3.34723,49.56279 -4.94076,53.18198 -0.80367,1.82539 -2.28129,11.53289 -3.28371,21.57229 -2.55022,25.54206 -5.8853,50.98114 -7.07028,53.93063 -0.55004,1.369 -2.29196,11.82321 -3.87106,23.23161 -1.57904,11.4084 -3.47017,21.52632 -4.20252,22.48427 -0.73229,0.95794 -1.83568,4.89486 -2.45195,8.74866 -0.61651,3.85381 -1.85067,7.45826 -2.7432,8.00986 -1.00907,0.62341 -1.26219,-1.43002 -0.66939,-5.42984 z m 53.21835,-327.78232 c 3.31883,-6.6527 3.28954,-9.5196 -0.13547,-13.3045 -3.17238,-3.5054 -6.96642,-3.8306 -12.93996,-1.1088 -3.21253,1.4637 -4.22046,3.1557 -4.20114,7.0524 0.0314,6.3878 1.44275,8.6651 6.65904,10.74679 6.51147,2.59858 7.84428,2.17355 10.61772,-3.38589 z m 24.78299,-0.5745 c -0.52557,-1.369 -2.4044,-2.4891 -4.17567,-2.4891 -4.23162,0 -11.35904,-7.7998 -11.35904,-12.4307 0,-2.0069 1.32284,-4.8461 2.93957,-6.3093 2.77281,-2.5094 2.90402,-2.2868 2.31184,3.9226 -0.85077,8.9211 1.69757,11.4986 11.36825,11.4986 8.50884,0 9.93078,-1.3973 9.93078,-9.7588 0,-3.5814 -1.1096,-4.9099 -5.39303,-6.4571 -2.96623,-1.0714 -7.25994,-1.5014 -9.54161,-0.9557 -4.04754,0.9682 -4.06774,0.928 -0.82969,-1.6514 4.21111,-3.3545 9.83168,-3.4666 13.03818,-0.2603 3.89426,3.8942 4.38559,3.126 4.38559,-6.8578 0,-7.6221 -0.68901,-9.9478 -3.7337,-12.6029 -3.50191,-3.0539 -3.52768,-3.2204 -0.41457,-2.6837 3.79787,0.6548 3.81838,-0.5601 0.5469,-32.4151 -1.67531,-16.3128 -2.32733,-18.5918 -6.76541,-23.6465 -6.11723,-6.9671 -10.84262,-7.1445 -20.12847,-0.7557 -11.37484,7.8261 -11.73384,8.6093 -9.19428,20.0566 1.2144,5.474 2.6825,9.9527 3.26245,9.9527 2.85967,0 5.39879,16.4499 5.83838,37.8241 0.57136,27.7838 1.41133,32.6643 6.19845,36.0173 4.81426,3.37204 13.00901,3.37349 11.71527,0 z m -8.89712,-40.0289 c 0,-2.3046 0.41833,-2.3722 2.90395,-0.4697 1.59717,1.2225 3.2151,2.434 3.59542,2.6923 0.38006,0.2584 -0.92653,0.4697 -2.90396,0.4697 -2.21023,0 -3.59541,-1.0372 -3.59541,-2.6923 z m 57.41798,33.3669 c 2.26286,-3.4535 2.53944,-6.6717 1.60457,-18.6683 -0.62153,-7.9725 -1.03747,-16.7356 -0.92483,-19.4736 0.57951,-14.0825 0.14927,-39.5624 -0.84845,-50.2779 -1.45486,-15.623 -5.27066,-20.6994 -15.55942,-20.6994 -8.13366,0 -12.8839,2.2634 -17.80202,8.4822 -3.33947,4.2226 -3.41774,5.2514 -1.78677,23.4991 0.93807,10.4958 2.50507,19.6131 3.48215,20.2608 1.12559,0.7462 1.85042,10.9703 1.97818,27.9035 0.12857,17.0436 0.86625,27.3904 2.03619,28.5603 1.33977,1.3398 1.72147,-0.6618 1.41534,-7.4217 l -0.41895,-9.2561 6.05307,-1.8135 c 8.0811,-2.4212 17.31194,-2.2972 19.40244,0.2609 2.27797,2.7872 0.88796,13.8468 -2.3642,18.8101 -1.5722,2.3995 -1.8984,4.0067 -0.8132,4.0067 0.99659,0 3.04237,-1.8779 4.54615,-4.1729 z m -18.0071,-25.2081 c 2.0535,-0.3957 5.41378,-0.3957 7.46728,0 2.0535,0.3958 0.37317,0.7192 -3.73364,0.7192 -4.10706,0 -5.78721,-0.3237 -3.73364,-0.7192 z m 11.13382,23.1751 c 4.4855,-4.8374 5.5083,-11.7505 2.22434,-15.0345 -2.80084,-2.8008 -11.51226,-2.4764 -15.8929,0.5921 -7.27079,5.0926 -3.15162,18.989 5.62872,18.989 2.1033,0 5.72117,-2.0459 8.03984,-4.5464 z m 50.15308,-38.9092 c -0.52996,-1.3237 -0.92289,-0.9305 -1.00254,1.0026 -0.0721,1.7493 0.31986,2.7294 0.87153,2.178 0.55128,-0.5513 0.61024,-1.9826 0.13108,-3.1806 z m -81.37893,341.33437 c -1.25247,-3.26383 -1.58996,-73.88776 -0.35875,-75.11872 0.52432,-0.52432 1.00562,13.17265 1.06997,30.43737 0.064,17.26472 0.48731,34.93735 0.93969,39.27252 0.82129,7.86811 0.14425,10.0865 -1.65066,5.40883 z m -2.4628,-80.49682 c 0,-2.28166 0.37693,-3.21509 0.83697,-2.07426 0.46035,1.14084 0.46035,3.00769 0,4.14852 -0.46035,1.14084 -0.83697,0.2076 -0.83697,-2.07426 z m -52.94885,-252.64415 c 1.04544,-3.1399 6.22353,-3.5864 6.22353,-0.5369 0,1.5393 -1.41879,2.6108 -3.45705,2.6108 -2.02779,0 -3.17157,-0.8576 -2.76648,-2.0743 z"
       id="path344"
       inkscape:connector-curvature="0" />
  </g>
</svg>
