<?xml version="1.0" encoding="UTF-8" standalone="no"?>
<!-- Created with Inkscape (http://www.inkscape.org/) -->

<svg
   xmlns:dc="http://purl.org/dc/elements/1.1/"
   xmlns:cc="http://creativecommons.org/ns#"
   xmlns:rdf="http://www.w3.org/1999/02/22-rdf-syntax-ns#"
   xmlns:svg="http://www.w3.org/2000/svg"
   xmlns="http://www.w3.org/2000/svg"
   xmlns:sodipodi="http://sodipodi.sourceforge.net/DTD/sodipodi-0.dtd"
   xmlns:inkscape="http://www.inkscape.org/namespaces/inkscape"
   width="209.99991mm"
   height="560.99829mm"
   viewBox="0 0 209.99992 560.99836"
   version="1.1"
   id="svg8"
   inkscape:version="0.92.3 (2405546, 2018-03-11)"
   sodipodi:docname="rebel.svg">
  <defs
     id="defs2" />
  <sodipodi:namedview
     id="base"
     pagecolor="#ffffff"
     bordercolor="#666666"
     borderopacity="1.0"
     inkscape:pageopacity="0.0"
     inkscape:pageshadow="2"
     inkscape:zoom="1.4"
     inkscape:cx="363.62438"
     inkscape:cy="989.36853"
     inkscape:document-units="mm"
     inkscape:current-layer="layer1"
     showgrid="false"
     fit-margin-top="0"
     fit-margin-left="0"
     fit-margin-right="0"
     fit-margin-bottom="0"
     inkscape:window-width="1920"
     inkscape:window-height="1017"
     inkscape:window-x="-8"
     inkscape:window-y="-8"
     inkscape:window-maximized="1" />
  <metadata
     id="metadata5">
    <rdf:RDF>
      <cc:Work
         rdf:about="">
        <dc:format>image/svg+xml</dc:format>
        <dc:type
           rdf:resource="http://purl.org/dc/dcmitype/StillImage" />
        <dc:title></dc:title>
      </cc:Work>
    </rdf:RDF>
  </metadata>
  <g
     inkscape:label="Layer 1"
     inkscape:groupmode="layer"
     id="layer1"
     transform="translate(-356.4794,995.56074)">
    <path
       style="fill:#000000;stroke-width:1.01080787"
       d="m 507.06722,-436.58042 c -5.98718,-1.56922 -8.04624,-2.68489 -11.62429,-6.29843 -5.18273,-5.23418 -8.19502,-6.50087 -17.18058,-7.22464 -3.72212,-0.2999 -7.58845,-0.98149 -8.59184,-1.51481 -1.00342,-0.53333 -3.30271,-1.51769 -5.10952,-2.18747 -2.89027,-1.07139 -3.28514,-1.66469 -3.28514,-4.9362 0,-2.04512 -0.47915,-4.19756 -1.06474,-4.78315 -1.99978,-1.99977 -1.40922,-10.69124 1.00029,-14.72113 1.23559,-2.06652 1.99404,-4.16574 1.68551,-4.66495 -0.30869,-0.4992 -2.27778,-1.15169 -4.37613,-1.44991 -2.09834,-0.29798 -4.61119,-0.86309 -5.58409,-1.25533 -1.22275,-0.49295 -1.76891,-0.23763 -1.76891,0.82699 0,0.84706 0.34116,1.69174 0.75808,1.87707 3.72559,1.65579 5.69087,15.59138 2.74758,19.48277 -0.81623,1.07914 -1.48407,3.37622 -1.48407,5.10456 0,4.01319 -1.59252,5.56843 -5.70195,5.56843 -1.8018,0 -3.55711,0.45485 -3.90072,1.01079 -0.83211,1.34642 -6.27412,1.29687 -7.11568,-0.0649 -0.40083,-0.64859 -2.63155,-0.86337 -5.61908,-0.54105 -3.76177,0.40584 -4.95438,0.20401 -4.95438,-0.83792 0,-2.67063 -1.98033,-2.66991 -22.01457,0.008 -2.93497,0.39235 -5.57726,1.10325 -5.87181,1.57984 -0.70138,1.13485 -9.23423,1.12533 -9.93657,-0.0115 -0.29837,-0.48267 -2.94062,-1.1907 -5.8718,-1.57338 -5.30039,-0.69199 -14.61034,-2.9912 -18.46991,-4.56138 -1.11189,-0.45233 -3.26681,-1.32158 -4.78873,-1.93166 -2.70743,-1.08533 -2.75381,-1.24605 -2.15168,-7.45424 0.91193,-9.4024 1.6676,-9.89218 16.1163,-10.44502 6.62808,-0.25368 13.6431,-0.71319 15.58889,-1.0213 4.80584,-0.76098 10.10807,-2.68798 10.10807,-3.67356 0,-0.4442 0.91643,-0.80767 2.03649,-0.80767 1.12002,0 3.73549,-1.56051 5.81213,-3.46783 4.02236,-3.69434 4.07729,-3.51058 -1.55398,-5.19808 -0.70753,-0.21203 -1.53675,-1.19184 -1.84272,-2.17735 -0.30601,-0.9855 -0.9779,-2.58169 -1.49327,-3.54703 -1.24093,-2.3245 -1.19662,-5.82588 0.0737,-5.82588 0.55594,0 1.01084,-2.29031 1.01084,-5.08958 0,-2.7993 0.61768,-6.09705 1.37266,-7.32836 1.07941,-1.76047 1.18634,-4.39829 0.50047,-12.34685 -0.47969,-5.55944 -1.03632,-22.42583 -1.23689,-37.4809 -0.29608,-22.22073 -0.65256,-27.83324 -1.89418,-29.81884 -1.72773,-2.76298 -4.80691,-20.32983 -4.80691,-27.42339 0,-2.57012 -0.44324,-4.8246 -0.98497,-5.00993 -0.56943,-0.19484 -1.10248,-7.26616 -1.26351,-16.76151 -0.1532,-9.03355 -0.34728,-16.42506 -0.4314,-16.42564 -0.084,-5.7e-4 -1.09217,1.591 -2.24023,3.53679 -2.79254,4.73299 -7.01616,4.91641 -10.41786,0.45241 -1.29316,-1.69697 -4.07665,-4.99476 -6.18553,-7.32836 -2.10889,-2.3336 -5.29294,-7.19953 -7.07565,-10.81315 -3.01676,-6.11505 -3.23647,-7.2706 -3.17133,-16.67835 0.0653,-9.42632 0.285,-10.48304 3.25626,-15.66752 1.75245,-3.05767 5.67402,-10.56296 8.71458,-16.67835 l 5.52828,-11.11886 -1.9082,-9.60267 c -1.0495,-5.28147 -1.93223,-10.81563 -1.96161,-12.29817 -0.0306,-1.4825 -0.416,-2.8471 -0.8592,-3.03242 -0.44321,-0.18529 -1.62053,-4.20329 -2.61631,-8.92879 -0.99578,-4.72554 -2.56634,-10.1839 -3.49011,-12.1297 -1.18076,-2.48703 -1.67963,-6.25109 -1.67963,-12.67265 v -9.13478 l 6.46584,-8.04892 c 3.55623,-4.42694 7.30887,-8.64334 8.33919,-9.36978 1.03032,-0.72645 1.87329,-1.92165 1.87329,-2.65597 0,-0.73426 0.64419,-1.86966 1.43149,-2.52316 2.54189,-2.1095 10.43543,-14.6147 11.6575,-18.468 0.79914,-2.5198 0.86245,-4.3464 0.19407,-5.5955 -0.91739,-1.7141 -0.95143,-16.0192 -0.0401,-16.837 0.22158,-0.1991 1.54018,-0.7039 2.93007,-1.1221 l 2.52703,-0.7603 -2.77974,2.6081 c -3.23013,3.0307 -3.31942,3.4653 -1.19448,5.8134 1.2935,1.4293 1.35719,2.1169 0.34574,3.7362 -0.68167,1.0915 -0.93534,2.7768 -0.56377,3.7451 0.54123,1.4105 1.42737,1.6361 4.45547,1.1345 3.76919,-0.6242 3.77236,-0.6218 1.11998,0.8699 -2.79636,1.5726 -4.30716,4.1404 -3.34863,5.6913 1.01202,1.6374 5.09057,0.9789 9.95468,-1.6074 2.61394,-1.3899 5.29718,-2.5287 5.96265,-2.5308 0.66555,0 2.6531,-0.8837 4.41689,-1.9592 2.4641,-1.5024 3.07536,-2.458 2.63927,-4.1255 -0.49302,-1.8854 -1.04209,-2.0813 -4.1827,-1.4921 -1.98836,0.3729 -4.91232,1.349 -6.4977,2.1688 -1.58538,0.8198 -3.61721,1.3491 -4.51523,1.1762 -0.89798,-0.1731 1.40686,-1.3875 5.12191,-2.699 5.55051,-1.9595 6.75461,-2.7793 6.75461,-4.5985 0,-3.5436 -1.78373,-4.6446 -4.89497,-3.0214 -4.32,2.254 -5.06872,1.5768 -0.91716,-0.8296 2.08478,-1.2083 3.79054,-2.626 3.79054,-3.1504 0,-0.5244 0.75621,-1.5064 1.68043,-2.1822 0.9575,-0.7001 1.41687,-1.9157 1.06776,-2.8254 -0.50765,-1.3229 -1.24521,-1.422 -4.30224,-0.5779 -2.02927,0.5603 -3.90687,0.8014 -4.17246,0.5358 -0.26552,-0.2655 1.02795,-0.7976 2.87449,-1.1824 1.84658,-0.3847 4.88576,-1.5794 6.7537,-2.6547 2.62089,-1.5088 3.71711,-1.6889 4.80133,-0.7891 1.91626,1.5903 4.03844,-0.2762 6.66339,-5.8605 2.37994,-5.0631 3.83894,-6.351 3.83894,-3.3887 0,2.2842 2.44714,2.8242 3.70565,0.8178 0.4359,-0.6949 0.67139,-2.0016 0.52335,-2.9037 -0.3297,-2.0094 2.89524,-2.991 6.58496,-2.0042 3.96303,1.0599 4.16948,3.139 0.31174,3.139 h -3.19407 l 4.78262,3.6506 c 4.63786,3.5402 4.9692,3.6299 10.94362,2.9642 3.38852,-0.3775 7.98042,-1.5295 10.20419,-2.5598 2.2238,-1.0304 6.1939,-2.7054 8.82251,-3.7223 4.18999,-1.621 5.15949,-2.5967 7.86329,-7.9138 3.05015,-5.9982 3.07738,-6.0204 2.48095,-2.0216 -1.21939,8.1755 -1.62672,9.3882 -3.80437,11.3258 -1.22203,1.0873 -4.98376,3.3572 -8.3594,5.0442 -3.37561,1.687 -8.10623,4.4933 -10.51242,6.2364 -2.40623,1.7431 -4.98899,3.1692 -5.7395,3.1692 -0.75048,0 -1.36453,0.4018 -1.36453,0.8929 0,0.4911 -1.02344,1.1807 -2.27434,1.5324 -4.29384,1.2073 0.39208,2.4728 5.81216,1.5697 2.77971,-0.4631 6.82961,-0.8692 8.99974,-0.9023 4.90173,-0.075 13.08383,-3.8861 17.87306,-8.3253 l 3.62416,-3.3593 -0.42406,-10.1081 c -0.23305,-5.5594 -0.84068,-10.5401 -1.34986,-11.0683 -2.02506,-2.1004 -0.78237,-5.68 3.50245,-10.0887 3.80402,-3.9141 4.52776,-5.3524 5.13374,-10.2027 0.79732,-6.3813 -1.00327,-10.5888 -4.53127,-10.5888 -1.62767,0 -1.99832,-0.6883 -1.99832,-3.7109 0,-2.041 -0.73069,-4.5183 -1.62374,-5.5051 -1.49892,-1.6564 -1.45056,-2.0374 0.62971,-4.9588 1.26443,-1.7758 1.86614,-3.5352 1.37102,-4.0088 -0.48534,-0.4644 -4.5213,-1.3847 -8.96887,-2.0452 -4.44752,-0.6605 -8.95282,-1.658 -10.01167,-2.2165 -1.05886,-0.5586 -9.12123,-1.0251 -17.91638,-1.0367 -17.36743,-0.023 -23.11775,1.2893 -23.11775,5.2752 0,2.3157 1.03903,3.0396 7.58108,5.2823 l 5.05405,1.7326 -4.04326,-0.4116 c -2.22376,-0.2266 -5.55723,-0.7217 -7.40767,-1.1007 -3.23952,-0.6634 -3.35215,-0.5811 -3.03242,2.2171 0.33925,2.9678 0.51594,3.0491 7.1867,3.304 5.63372,0.2155 3.89289,6.1723 -1.80375,6.1723 -4.41177,0 -9.21865,10.4707 -8.1324,17.7145 0.91238,6.084 3.72536,9.455 7.34532,8.8023 1.54649,-0.2789 3.39968,-0.9726 4.11814,-1.5416 0.87861,-0.6957 1.64028,-0.7005 2.32619,-0.015 1.31383,1.3137 -1.07891,9.3536 -2.60897,8.7665 -0.59488,-0.2281 -1.97823,0.2628 -3.07418,1.0913 -1.8216,1.3771 -1.3204,1.5091 5.84116,1.5385 4.89841,0.019 7.83376,-0.3721 7.83376,-1.0468 0,-0.5963 -0.85076,-0.8089 -1.9019,-0.4753 -3.05057,0.9682 -3.65106,-2.7083 -1.53954,-9.4258 0.29723,-0.9457 0.82509,-1.0657 1.68448,-0.3829 0.68836,0.547 4.84325,1.7812 9.23309,2.7427 9.03733,1.9795 11.9755,4.186 13.66205,10.26 1.13939,4.1037 1.425,7.4575 0.63502,7.4575 -0.25558,0 -2.26048,-1.7603 -4.45544,-3.9118 -4.121,-4.0394 -8.67279,-6.1962 -13.07661,-6.1962 -2.38976,0 -2.43836,0.1043 -0.86001,1.8484 2.72145,3.0072 2.13911,4.5063 -1.10683,2.8493 -1.5442,-0.7884 -4.24398,-1.1976 -6.0741,-0.9207 -1.88998,0.2857 -3.95149,-0.047 -4.83579,-0.7809 -1.24548,-1.0337 -2.01999,-1.0231 -4.03397,0.055 -1.37091,0.7338 -2.49257,1.712 -2.49257,2.174 0,0.462 -0.48171,0.8401 -1.07047,0.8401 -0.58876,0 -0.77703,-0.4748 -0.41837,-1.0551 1.00235,-1.6219 -1.33159,-3.7936 -4.89856,-4.5583 -4.85119,-1.0399 -4.95495,-1.3042 -2.02213,-5.1493 2.55774,-3.3534 2.64706,-3.8258 1.52024,-8.0389 -1.75206,-6.5507 -1.46507,-13.6902 0.75262,-18.7225 1.68112,-3.8148 1.9396,-6.5048 1.22657,-12.7637 -0.20821,-1.828 -1.98155,-1.5549 -4.92217,0.7582 -2.56138,2.0147 -9.27007,2.7002 -13.99901,1.4303 -3.84211,-1.0317 -6.15142,-7.3098 -5.62909,-15.3033 0.16656,-2.5519 18.77997,-22.5161 20.99243,-22.5161 0.76575,0 1.3923,-0.4488 1.3923,-0.9973 0,-0.5485 1.7048,-1.7095 3.78847,-2.5801 3.80743,-1.5909 6.8392,-1.5833 28.05196,0.07 3.89162,0.3033 13.21632,0.1616 20.72156,-0.3148 18.31076,-1.1623 26.38371,-0.4154 29.75626,2.7529 1.42428,1.338 2.58961,3.3267 2.58961,4.4191 0,1.0925 1.39669,4.2563 3.10375,7.0306 3.53793,5.7499 3.82645,8.5103 1.54332,14.7645 -0.88805,2.4326 -1.61465,5.2755 -1.61465,6.3175 0,1.042 -0.63365,1.8945 -1.40807,1.8945 -1.80066,0 -2.63519,2.2136 -2.63519,6.9898 0,4.951 -2.1127,15.5878 -3.2467,16.3463 -0.48752,0.3259 -1.15991,3.8549 -1.49419,7.842 -0.33428,3.987 -1.12598,7.9579 -1.7594,8.8241 -0.63342,0.8663 -3.1826,1.8405 -5.66485,2.1649 -2.48225,0.3244 -4.84737,1.0903 -5.25581,1.7019 -0.40844,0.6116 -0.74956,3.8412 -0.75808,7.1768 -0.0153,5.7168 0.18567,6.2254 3.48976,8.8617 1.92784,1.5383 4.70025,4.836 6.16086,7.3283 1.46064,2.4924 3.18103,4.5285 3.82312,4.5247 0.64213,0 3.64705,-3.7564 6.6776,-8.3392 3.03059,-4.5827 6.6695,-9.6124 8.08648,-11.1771 2.29646,-2.5358 2.61356,-3.8534 2.91919,-12.1297 0.18872,-5.1066 0.75716,-9.7169 1.26351,-10.2451 0.50635,-0.5281 0.92063,-2.1782 0.92063,-3.6667 0,-1.4886 0.76962,-3.3308 1.71027,-4.0938 0.97427,-0.7903 1.40216,-0.8736 0.99433,-0.1937 -0.39377,0.6565 -0.25367,1.4794 0.31136,1.8286 1.54145,0.9526 1.23608,2.5372 -0.48893,2.5372 -1.2119,0 -1.51619,1.5096 -1.51619,7.5214 0,4.1368 -0.4549,7.8025 -1.01084,8.1461 -1.48884,0.9202 -1.22932,4.2485 0.37937,4.8658 0.97603,0.3744 -0.0417,2.0584 -3.41519,5.6519 -2.64298,2.8151 -5.56419,6.7175 -6.49166,8.6719 -0.92744,1.9545 -2.13104,3.5536 -2.67468,3.5536 -0.54361,0 -1.38997,1.0234 -1.88078,2.2743 -0.49084,1.2509 -3.02321,4.7485 -5.62752,7.7726 -4.78415,5.5553 -14.11549,23.6612 -13.2956,25.7979 0.24412,0.6365 -0.87189,1.7397 -2.4803,2.4517 -3.78447,1.6751 -3.7348,3.8188 0.10811,4.6628 1.66783,0.3664 3.03243,1.0848 3.03243,1.5965 0,0.5118 0.88285,0.9305 1.96195,0.9305 1.07907,0 2.28382,0.5208 2.67724,1.1574 0.5109,0.8266 -0.12187,0.9435 -2.21467,0.4089 -4.88336,-1.2476 -9.7862,-1.1506 -10.24816,0.2028 -0.24106,0.7056 0.38013,1.2635 1.40605,1.2635 1.17679,0 0.57111,0.6812 -1.68467,1.8947 -2.83873,1.5271 -3.5335,2.5093 -3.58122,5.0627 -0.0344,1.74227 -0.6011,3.70984 -1.26347,4.37222 -1.11506,1.11505 -1.75562,6.86487 -0.76477,6.86487 0.24183,0 1.6854,-0.47361 3.20801,-1.05255 4.46935,-1.69923 7.92407,-0.37822 9.35427,3.57686 1.50572,4.16398 9.2604,11.24975 13.27734,12.13203 1.59198,0.34956 3.4365,1.2888 4.09895,2.08699 0.66242,0.79816 1.75172,1.45121 2.42063,1.45121 1.67096,0 5.61191,-4.34025 5.61191,-6.18053 0,-0.82589 0.39613,-1.93372 0.88029,-2.46185 2.21146,-2.41237 2.05589,-6.19203 -0.40386,-9.81187 -1.37392,-2.02193 -2.49806,-3.97132 -2.49806,-4.33196 0,-0.36065 -0.96847,-2.01575 -2.15214,-3.67807 -2.18399,-3.06705 -4.86673,-15.27115 -4.90364,-22.30715 -0.0229,-4.302 -1.20372,-4.8229 -3.50038,-1.544 -2.14617,3.0641 -1.98621,4.9568 0.87345,10.3351 1.34581,2.5312 2.03168,4.6021 1.52414,4.6021 -0.50754,0 -1.72238,-1.6702 -2.69967,-3.7115 -1.3785,-2.8794 -2.66509,-3.9579 -5.73908,-4.8109 -2.17922,-0.6048 -4.16925,-1.7775 -4.42228,-2.6061 -0.37134,-1.2156 -0.20133,-1.2625 0.87926,-0.243 2.12275,2.0026 4.53605,1.4785 5.8182,-1.2635 0.64993,-1.3899 1.74886,-3.7779 2.4421,-5.3068 0.69329,-1.5288 2.64775,-4.8266 4.34328,-7.3284 1.69552,-2.5017 3.6721,-5.7344 4.39236,-7.1837 0.72029,-1.4493 4.49425,-6.4528 8.3866,-11.1188 3.89235,-4.6661 7.47797,-9.5073 7.96805,-10.7582 0.49004,-1.2509 1.34546,-2.2743 1.9009,-2.2743 0.55541,0 1.74672,-1.425 2.64733,-3.1666 1.35157,-2.6135 1.40025,-3.3169 0.27851,-4.0277 -1.04885,-0.6647 -0.95529,-0.8647 0.41011,-0.8767 1.33897,-0.011 1.76891,-0.8608 1.76891,-3.4936 0,-1.913 0.45486,-3.7593 1.0108,-4.1029 1.31371,-0.8119 1.31371,-7.2746 0,-8.0865 -0.55594,-0.3434 -1.0108,-1.493 -1.0108,-2.5544 0,-1.0631 -1.20941,-2.5633 -2.69317,-3.3407 -2.59041,-1.3573 -2.47958,-1.408 2.90349,-1.3302 4.64699,0.067 6.22732,-0.4002 9.31308,-2.7538 2.99048,-2.2809 3.48506,-3.1133 2.53215,-4.2615 -1.66561,-2.0069 -2.95827,-1.7731 -2.95827,0.5351 0,2.5774 -1.5549,3.4371 -5.91968,3.2731 -4.35198,-0.1636 -8.32758,-3.5219 -6.42343,-5.426 0.85833,-0.8583 1.22421,-6.1518 1.22421,-17.7114 0,-14.0433 -0.28539,-17.1223 -1.92654,-20.7721 -2.35832,-5.2453 -3.77125,-28.0017 -1.85739,-29.9155 0.63571,-0.6357 3.56658,-1.1558 6.51313,-1.1558 h 5.35727 l -0.13753,3.2851 c -0.10201,2.4307 -0.25253,2.6853 -0.5799,0.979 -0.39254,-2.047 -0.85985,-2.2369 -4.15829,-1.6902 -2.04382,0.3389 -4.28462,0.7937 -4.97955,1.0109 -1.49274,0.4666 -1.72979,7.5341 -0.25253,7.5341 0.55594,0 1.02467,-1.0235 1.04155,-2.2744 0.0229,-1.7675 0.22158,-1.9364 0.88625,-0.7581 1.30222,2.308 2.43565,21.0739 1.15995,19.2054 -0.56935,-0.8339 -1.04213,-3.65 -1.05065,-6.2579 -0.0153,-4.6811 -1.24571,-6.9593 -2.58673,-4.7894 -0.37899,0.6134 -0.183,1.6216 0.43556,2.2402 0.61871,0.6187 1.12491,3.7545 1.12491,6.9684 0,5.4424 0.17955,5.8884 2.61501,6.4997 1.824,0.4578 3.4292,0.041 5.30673,-1.3769 2.63953,-1.9939 2.68954,-2.2464 2.57921,-13.0195 -0.0913,-8.9247 0.0443,-10.0378 0.72278,-5.9321 0.4594,2.7797 0.77966,8.0106 0.71169,11.6242 -0.068,3.6137 -0.102,14.9106 -0.0753,25.1042 l 0.0481,18.5339 3.10795,2.6931 3.10792,2.693 1.06966,66.2079 c 1.0443,64.63913 1.36319,72.10032 3.18001,74.40309 0.4858,0.6157 1.77987,3.79975 2.87575,7.07565 2.55495,7.63743 2.88943,24.96409 0.52752,27.326 -0.83308,0.83307 -1.80391,2.73375 -2.15737,4.22373 -0.35339,1.48995 -1.28449,3.44992 -2.06892,4.35546 -1.07812,1.24453 -1.40781,4.82219 -1.35055,14.65672 0.0756,12.97331 -1.13568,28.47388 -2.3825,30.49126 -0.3614,0.5849 -2.13032,1.37836 -3.93074,1.7633 -1.80047,0.38494 -3.7727,1.10034 -4.38278,1.58973 -0.75594,0.60641 -1.1073,9.56271 -1.10313,28.11858 0.008,31.31295 0.58792,29.1272 -10.07984,37.92645 -8.42782,6.95171 -14.37026,9.79544 -22.07528,10.56421 l -6.06484,0.60511 -0.29761,8.58618 c -0.16351,4.72241 -0.73225,9.02087 -1.26351,9.55213 -1.1996,1.19964 -1.29202,30.56503 -0.0986,31.30267 0.47713,0.29494 1.19444,6.80352 1.59405,14.46368 0.39961,7.66016 1.28648,18.81493 1.97078,24.78843 1.09473,9.55633 1.57534,11.20654 4.0012,13.73857 2.69993,2.8181 2.75105,3.10456 2.46853,13.82404 l -0.28843,10.94629 -6.00208,1.66056 c -9.13689,2.52783 -8.99302,2.96844 3.60662,11.04529 4.24196,2.71926 8.0257,5.45064 8.40831,6.06969 0.38261,0.6191 2.14285,1.80242 3.91164,2.62957 1.76884,0.82715 5.26291,2.85176 7.76465,4.4991 2.50177,1.64731 6.30629,3.956 8.45457,5.13043 2.14827,1.17438 4.13449,3.00923 4.41383,4.07744 0.27927,1.06818 0.90971,1.94221 1.40082,1.94221 2.64836,0 -1.96394,5.9421 -4.68145,6.03119 -0.56416,0.0191 -3.00943,2.08054 -5.43395,4.58227 l -4.40818,4.54866 -10.2336,-0.0558 c -6.61816,-0.0344 -12.80415,-0.72939 -17.50963,-1.96268 z m -17.08781,-40.35257 c 2.04126,-1.62217 5.51528,-3.2542 7.72006,-3.62669 4.15588,-0.70214 5.32075,-2.11622 2.23977,-2.71907 -0.9729,-0.19026 -5.63525,0.0344 -10.36078,0.50318 -4.7255,0.46711 -11.43477,0.68171 -14.9094,0.47682 -4.74434,-0.27965 -6.31757,-0.0405 -6.31757,0.96056 0,0.7332 1.25091,1.82228 2.77975,2.42017 1.52883,0.59788 4.1443,1.70385 5.81212,2.45768 1.66783,0.75384 4.1696,1.55757 5.55945,1.78603 1.38986,0.22846 2.80561,0.47735 3.14616,0.55307 0.3404,0.0756 2.28921,-1.18958 4.33044,-2.81175 z m -44.6463,-5.58883 c 2.70472,-1.89449 0.95643,-2.67362 -4.40382,-1.96257 -4.99537,0.66268 -17.64766,-1.16586 -19.78879,-2.85989 -0.67055,-0.53058 -1.69525,-0.67048 -2.27705,-0.31098 -1.45469,0.89908 0.57084,4.57432 2.52106,4.57432 0.81435,0 1.48063,0.42464 1.48063,0.94368 0,2.30116 19.10024,1.97418 22.46797,-0.38464 z m 28.40293,-2.23729 c 0.36714,-0.36714 -0.23953,-1.30264 -1.34775,-2.07894 -1.49197,-1.04502 -2.01517,-2.56209 -2.01517,-5.84315 0,-2.43744 -0.38662,-4.67064 -0.85916,-4.96267 -1.08442,-0.6702 -0.2086,9.40462 1.0242,11.78327 0.95838,1.84898 2.06816,2.23121 3.19788,1.10149 z m 11.7992,-3.24946 c 0,-5.35441 -1.06256,-10.23441 -2.22843,-10.23441 -0.58532,0 -0.68965,2.57043 -0.26513,6.53415 0.67219,6.2768 0.61565,6.51794 -1.43574,6.12287 -1.17453,-0.22616 -2.13551,0.0191 -2.13551,0.5415 0,0.52405 1.3646,0.95277 3.03242,0.95277 2.84763,0 3.03243,-0.23878 3.03243,-3.91688 z m 6.6784,1.30722 c -0.33734,-0.87942 -0.61355,-2.24398 -0.61355,-3.03243 0,-0.78845 -0.45486,-1.43355 -1.0108,-1.43355 -0.55594,0 -1.01083,1.3646 -1.01083,3.03242 0,2.11133 0.4934,3.03242 1.62438,3.03242 1.06589,0 1.41343,-0.54967 1.0108,-1.59886 z m -43.27933,-0.92816 c 1.8394,-2.07523 -1.2778,-17.62955 -3.13817,-15.65911 -0.25787,0.27353 0.0191,3.14833 0.61306,6.38881 0.89336,4.86338 0.82967,6.05163 -0.36485,6.80749 -2.09081,1.32311 -2.96316,1.15544 -2.96316,-0.56962 0,-0.83391 -0.42463,-1.51619 -0.94367,-1.51619 -0.51903,0 -1.14103,-1.02344 -1.38229,-2.27435 -0.24144,-1.25086 -0.27048,-0.59601 -0.0649,1.45522 0.20553,2.05124 -0.0581,3.99646 -0.58613,4.32268 -0.54058,0.33429 -1.25992,-2.05983 -1.64704,-5.4814 -0.37783,-3.34103 -1.33174,-6.60948 -2.11943,-7.26322 -1.22129,-1.01358 -1.34129,-0.16007 -0.81477,5.79513 0.55415,6.26759 0.4641,6.79492 -0.87803,5.14215 -1.44682,-1.7816 -1.51108,-1.7816 -1.97182,0 -0.26207,1.0129 -0.52904,0.136 -0.59353,-1.94893 -0.0646,-2.08478 -0.54188,-3.79054 -1.06092,-3.79054 -0.519,0 -1.16582,-1.25086 -1.43738,-2.7797 -0.27162,-1.52884 -0.38555,-0.25482 -0.25329,2.83135 0.20554,4.79358 -0.0267,5.6312 -1.59504,5.74933 -1.00946,0.076 -1.83539,-0.51579 -1.83539,-1.31513 0,-1.64643 -1.15249,-1.89154 -2.57753,-0.54822 -1.18474,1.11681 -5.50891,-0.40844 -5.50891,-1.94308 0,-0.60668 -0.45489,-0.82192 -1.01083,-0.47832 -1.9542,1.20778 -0.98115,3.50657 1.76891,4.17911 1.52888,0.37402 4.37177,1.54324 6.31757,2.59862 2.9248,1.58634 5.23716,1.86599 13.34472,1.61377 5.3938,-0.16772 10.21007,-0.75991 10.70283,-1.31585 z m 10.31991,0.43319 c 0,-2.09987 -2.66311,-3.93598 -3.90603,-2.69306 -1.44265,1.44265 -2.84079,0.10621 -3.45178,-3.29958 l -0.45333,-2.52699 -0.13753,2.70635 c -0.0928,1.82591 0.72877,3.38788 2.52568,4.80134 2.88477,2.26915 5.42311,2.7428 5.42311,1.01194 z m 44.89695,-0.28768 c -0.35453,-0.92357 -1.9027,-1.2726 -4.74655,-1.07004 -2.47446,0.17611 -4.53739,-0.19752 -4.98628,-0.90364 -0.4782,-0.75215 -0.77149,-0.35033 -0.78115,1.07001 -0.0153,2.08322 0.44908,2.27435 5.51223,2.27435 4.23737,0 5.40495,-0.32015 5.00175,-1.37068 z m 11.1456,-1.88669 c 1.08457,-1.54843 1.5735,-4.60206 1.5735,-9.82727 v -7.58077 l -2.04467,2.04467 c -1.93116,1.9312 -1.95534,2.22388 -0.43498,5.27143 1.69139,3.39047 1.14611,7.67846 -0.89126,7.00836 -0.64774,-0.21317 -1.4543,-2.17123 -1.79237,-4.35156 -0.57714,-3.72208 -0.6244,-3.62462 -0.77359,1.59524 -0.18223,6.37498 -2.10754,5.23506 -2.1341,-1.26351 -0.008,-2.08478 -0.47036,-3.79054 -1.0263,-3.79054 -1.1125,0 -1.42015,11.38338 -0.33696,12.46661 1.55027,1.55027 6.34523,0.59097 7.86069,-1.57266 z m -71.20467,-9.88316 c 0,-2.11133 -0.49336,-3.03242 -1.62435,-3.03242 -1.06592,0 -1.41342,0.54967 -1.01079,1.5989 0.33734,0.87938 0.61355,2.24398 0.61355,3.03243 0,0.78844 0.45486,1.43352 1.0108,1.43352 0.55594,0 1.01079,-1.36457 1.01079,-3.03243 z m 58.62688,2.02163 c 0,-0.55594 -0.45489,-1.0108 -1.01083,-1.0108 -0.55594,0 -1.01079,0.45486 -1.01079,1.0108 0,0.55594 0.45485,1.0108 1.01079,1.0108 0.55594,0 1.01083,-0.45486 1.01083,-1.0108 z m -79.1844,-3.2851 c -0.28041,-0.69497 -0.50983,-0.12646 -0.50983,1.26347 0,1.38989 0.22961,1.95844 0.50983,1.26351 0.28042,-0.69492 0.28042,-1.83206 0,-2.52698 z m 27.29181,-4.04326 c -0.28041,-0.69493 -0.50983,-0.12645 -0.50983,1.26351 0,1.38986 0.22923,1.95844 0.50983,1.26352 0.28042,-0.69493 0.28042,-1.8321 0,-2.52703 z m -36.04769,1.26351 c 0,-0.55594 -0.45489,-1.01079 -1.01083,-1.01079 -0.55595,0 -1.0108,0.45485 -1.0108,1.01079 0,0.55594 0.45485,1.0108 1.0108,1.0108 0.55594,0 1.01083,-0.45486 1.01083,-1.0108 z m 85.77635,-9.34995 c -0.13333,-8.75321 -0.1914,-8.99515 -0.91086,-3.79054 -1.12399,8.13087 -1.10783,13.14049 0.0424,13.14049 0.61126,0 0.95456,-3.69564 0.86849,-9.34995 z m 15.30442,3.28511 c 0,-0.55595 -0.79601,-1.00385 -1.76891,-0.99533 -1.51172,0.0115 -1.54847,0.15778 -0.25252,0.99533 1.90763,1.23279 2.02163,1.23279 2.02163,0 z m -56.68376,-42.4539 c 0.46945,0 1.20155,1.02344 1.62683,2.27431 2.11932,6.23306 2.28638,6.49567 2.39416,3.76403 0.16122,-4.08448 -1.8742,-19.49279 -2.86723,-21.70585 -1.0683,-2.38075 -2.61417,-12.82027 -4.19107,-28.30261 -0.62288,-6.11539 -1.53434,-12.02861 -2.02549,-13.14053 -0.49115,-1.11188 -1.06768,-4.75079 -1.28112,-8.08644 -0.21356,-3.33568 -0.22999,0.53065 -0.0382,8.59188 0.4931,20.55263 1.52265,35.69503 2.51259,36.95446 0.46291,0.58895 1.19906,9.23136 1.63592,19.20534 0.60828,13.88809 0.86268,16.06345 1.08632,9.29 0.16084,-4.86452 0.67617,-8.84459 1.14562,-8.84459 z m -44.92373,-19.41744 c -0.40251,-4.00826 -1.09446,-7.98829 -1.53762,-8.84455 -0.44313,-0.85627 -1.82263,-4.51343 -3.06555,-8.12709 -1.24292,-3.61362 -2.64408,-7.00237 -3.11364,-7.5305 -1.20376,-1.35398 -1.06715,-15.46687 0.15702,-16.22349 1.27776,-0.78967 1.34691,-21.40534 0.0745,-22.19177 -0.96323,-0.59529 -1.9346,5.83483 -2.35988,15.62152 l -0.24145,5.55945 -2.02159,-4.04322 c -1.87561,-3.75122 -2.01735,-5.99669 -1.96207,-31.09136 0.042,-19.03109 -0.25749,-26.73099 -1.01053,-25.97807 -1.83485,1.83485 -1.96023,37.11251 -0.18567,52.22229 0.86219,7.34105 2.00639,14.16401 2.54265,15.16212 1.13022,2.10358 3.62409,10.33202 4.68577,15.46061 0.40278,1.94579 1.0414,3.76524 1.41912,4.04325 0.7572,0.55724 4.11332,14.02346 4.11332,16.50445 0,2.06984 1.80521,6.74411 2.60458,6.74411 0.34804,0 0.30372,-3.27949 -0.099,-7.28775 z m 100.61634,-52.20537 c 0.0115,-3.13717 0.67869,-10.25262 1.48417,-15.81207 0.80545,-5.55942 1.47891,-12.00332 1.49656,-14.31977 0.0191,-2.42441 0.56824,-4.40676 1.29557,-4.67136 2.63308,-0.95796 -0.78161,-4.25743 -4.40612,-4.25743 h -3.42764 l -1.4009,8.08644 c -0.77045,4.44756 -1.70033,8.3139 -2.0664,8.59187 -0.64622,0.49073 -2.40561,10.3965 -3.68823,20.76543 -0.7117,5.75364 0.19866,7.12442 5.1339,7.73102 5.03258,0.6186 5.55788,0.0428 5.57909,-6.11413 z m -60.73153,-8.73639 c 1.50878,-3.48151 3.24904,-16.22144 2.57997,-18.88718 -0.53454,-2.12971 0.11729,-3.21217 3.9816,-6.6138 4.99174,-4.39393 5.7894,-6.33949 2.59912,-6.33949 -2.41819,0 -2.47992,-0.58039 -0.48381,-4.54862 1.2901,-2.56469 0.86034,-2.32072 -2.78594,1.58141 -2.37123,2.53757 -5.10287,5.60793 -6.07035,6.82292 -0.96747,1.21504 -2.37337,2.20914 -3.12426,2.20914 -1.93009,0 -8.80566,-6.97124 -12.60354,-12.77893 -4.35034,-6.65254 -4.12341,-3.58833 0.26284,3.54943 4.22568,6.87641 10.01359,13.27275 12.01024,13.27275 2.37149,0 2.70979,2.48378 2.24825,16.50781 -0.24107,7.32106 -0.22502,11.94643 0.0344,10.27857 0.26055,-1.66782 0.86818,-3.94213 1.35005,-5.05401 z m 37.88602,-20.32433 c 0.87941,-0.33734 1.5989,-1.24716 1.5989,-2.02159 0,-1.05916 -1.6282,-1.40808 -6.57028,-1.40808 -7.06044,0 -8.61097,1.37458 -3.2851,2.91235 4.07019,1.17523 6.19508,1.30837 8.25648,0.51732 z m 12.99287,-7.5465 c 2.93191,-2.41673 3.76101,-3.8187 3.73598,-6.31753 -0.0191,-1.76635 -0.64006,-4.01262 -1.38312,-4.99167 -1.19624,-1.57621 -1.49622,-1.60516 -2.61864,-0.25252 -0.69722,0.8401 -2.06484,1.52742 -3.03915,1.52742 -1.90339,0 -3.03502,3.62753 -3.03502,9.72905 0,4.27447 1.44066,4.34388 6.33995,0.30563 z m -10.88857,1.08441 c 0.3851,-0.62314 -1.34183,-1.01079 -4.50269,-1.01079 -2.82009,0 -5.97072,-0.52668 -7.00142,-1.17034 -1.97632,-1.23425 -5.17424,-0.57634 -5.17424,1.06447 0,1.35345 2.53773,1.8742 9.79575,2.01021 3.44182,0.0646 6.539,-0.33772 6.8826,-0.89355 z m -1.88448,-3.53159 c 1.59241,-0.83051 2.66785,-1.53434 2.38988,-1.56407 -0.27812,-0.0306 -2.77971,-0.24297 -5.55945,-0.47387 -2.77971,-0.23076 -6.53235,-0.68485 -8.33916,-1.00877 -1.90885,-0.34231 -3.28514,-0.16543 -3.28514,0.42184 0,0.55594 1.59707,1.31043 3.54902,1.67661 1.95194,0.36599 3.79822,1.0691 4.10289,1.562 0.83112,1.34481 3.89079,1.08185 7.14196,-0.61374 z m 25.10736,-3.50249 c 0.32932,-0.53305 -0.0607,-5.1954 -0.86737,-10.36078 -0.80652,-5.16534 -1.78725,-12.78474 -2.17945,-16.93198 -0.3922,-4.14725 -1.09015,-8.24105 -1.55104,-9.09727 -0.46085,-0.85627 -1.59355,-8.83466 -2.51709,-17.72976 -0.92354,-8.8951 -2.02518,-16.6278 -2.44814,-17.18375 -0.42295,-0.55594 -0.9965,-3.2851 -1.27459,-6.06484 -1.00621,-10.05779 -4.05666,-30.37058 -4.85757,-32.34583 -0.4508,-1.11192 -1.5667,-8.59638 -2.47969,-16.63216 -1.69273,-14.89817 -2.21471,-16.90016 -5.01172,-19.22146 -1.32896,-1.10294 -1.92509,-1.01698 -3.62688,0.52312 -1.68654,1.52632 -1.93192,2.63591 -1.42794,6.45705 0.33467,2.53773 0.98814,5.52377 1.45201,6.63565 0.46391,1.11188 1.35948,7.25257 1.99019,13.64593 2.00245,20.29861 3.41687,30.32423 4.27813,30.32423 0.45986,0 0.83609,1.84605 0.83609,4.10232 0,2.25624 0.41906,7.14602 0.93126,10.86618 0.5122,3.72013 1.45686,11.53991 2.09929,17.37733 0.6424,5.83742 1.51604,11.29578 1.9414,12.12969 0.4254,0.83392 1.58187,7.65688 2.56993,15.16212 0.98807,7.50525 2.1495,14.55564 2.58094,15.66752 0.43143,1.11192 1.35955,4.63709 2.0625,7.83379 1.18218,5.37611 1.48896,5.81213 4.08941,5.81213 1.54622,0 3.08086,-0.43617 3.41033,-0.96923 z m -23.72828,-1.41552 c 0,-0.93603 -2.25612,-1.67936 -7.07862,-2.33215 -8.09259,-1.09545 -10.4561,-0.3948 -6.95075,2.06044 3.02574,2.11932 14.02937,2.33242 14.02937,0.27163 z m -102.22413,-0.99338 c 1.33537,-1.60906 0.51009,-2.68671 -2.05754,-2.68671 -1.81098,0 -2.52073,2.02789 -1.17928,3.36934 1.02104,1.02107 1.99302,0.81607 3.23682,-0.68263 z m 100.29274,-4.09418 c -1.90384,-2.29402 -6.63278,-3.80651 -10.82637,-3.46263 -7.8707,0.64533 -2.21177,4.83113 6.56398,4.8552 4.52695,0.0115 5.23617,-0.21929 4.26239,-1.39257 z m 31.40212,-12.74386 c 0.65454,-4.7255 1.64097,-8.89047 2.19198,-9.25543 0.55105,-0.36485 1.0867,-6.05075 1.19031,-12.63509 0.10354,-6.58435 0.55228,-14.87418 0.99701,-18.42182 0.66631,-5.31536 0.56068,-6.36815 -0.60049,-5.98324 -0.99349,0.32931 -1.62121,3.20105 -2.12825,9.73615 -0.39557,5.09799 -1.41901,11.62563 -2.27431,14.50585 -0.85535,2.88022 -1.55516,6.42786 -1.55516,7.88358 0,1.45575 -0.55102,3.19781 -1.22447,3.87126 -1.44418,1.44418 -1.78057,19.81748 -0.4199,22.93384 0.80648,1.84715 0.95823,1.75989 1.75791,-1.0108 0.4814,-1.66782 1.41079,-6.89876 2.06537,-11.6243 z m -128.71898,10.83677 c 0.44293,-2.28321 -7.67686,-6.21327 -9.57772,-4.63568 -1.91309,1.58771 -1.67699,3.0783 0.43097,2.72121 0.98069,-0.16619 2.82857,0.74341 4.10641,2.02125 2.51962,2.51957 4.53918,2.47682 5.04034,-0.10697 z m 109.35632,0.28194 c 2.06873,-2.06873 2.94058,-10.43161 1.19967,-11.50758 -0.4521,-0.27927 -2.04413,1.37682 -3.53786,3.68051 -4.63595,7.14968 -2.87597,13.04124 2.33819,7.82707 z m -128.36636,-4.29593 c 0.003,-1.25087 0.7525,-3.63891 1.66461,-5.30674 0.91212,-1.66782 1.70531,-4.13173 1.76269,-5.47536 0.13868,-3.2448 2.63132,-4.07458 2.63132,-0.8759 0,1.32502 -0.4824,2.89149 -1.07196,3.48105 -0.58956,0.58956 -0.91956,3.29603 -0.73328,6.01431 0.31785,4.63881 0.39204,4.7561 1.20769,1.90992 0.47797,-1.66783 1.41969,-3.71471 2.09269,-4.54862 0.67304,-0.83391 1.97093,-3.4446 2.88427,-5.80155 0.9133,-2.35694 4.07726,-7.8153 7.03098,-12.12969 2.95373,-4.31439 6.01037,-9.43637 6.79256,-11.3822 0.78218,-1.94579 3.29182,-7.17673 5.57694,-11.6243 2.28516,-4.44753 4.73463,-10.36074 5.44331,-13.14049 0.70868,-2.7797 1.65308,-5.96376 2.09869,-7.07564 0.44561,-1.11188 1.8227,-7.01089 3.06023,-13.10889 1.23754,-6.09801 2.84863,-12.01123 3.58023,-13.14049 0.73157,-1.12931 1.47291,-3.82477 1.64735,-5.98997 0.46196,-5.73355 -1.8007,-5.837 -4.29579,-0.19637 -1.12853,2.55121 -2.41344,4.63859 -2.85538,4.63859 -0.8495,0 -3.16408,6.8403 -3.11793,9.21452 0.0153,0.76942 1.36732,-0.19293 3.00523,-2.13888 3.90625,-4.64054 3.9231,-2.40959 0.0191,2.50322 -2.79908,3.5222 -6.05931,9.78112 -9.01582,17.30841 -1.45572,3.7063 -9.82933,12.23945 -10.93025,11.13854 -0.42032,-0.42032 0.16198,-1.52911 1.29419,-2.46399 2.79411,-2.30732 7.83697,-9.28084 6.71141,-9.28084 -0.4981,0 -1.72891,0.90974 -2.73513,2.02162 -1.00624,1.11189 -2.37084,2.02163 -3.03246,2.02163 -0.66157,0 -2.02869,0.9125 -3.038,2.02782 -1.00934,1.11528 -2.07221,1.79076 -2.36191,1.50106 -0.28958,-0.28958 1.00537,-2.10747 2.87793,-4.03947 3.21859,-3.32075 3.39826,-3.88624 3.28698,-10.34566 -0.13143,-7.6357 0.43789,-10.68368 1.83481,-9.82035 0.52446,0.32397 0.93805,-1.45209 0.93805,-4.02855 0,-3.4224 0.39018,-4.60829 1.5162,-4.60829 0.83391,0 1.51623,-0.64541 1.51623,-1.43428 0,-1.6972 -3.12878,-7.87196 -4.48367,-8.84868 -0.56217,-0.4053 -0.43006,-1.30328 0.32587,-2.21399 3.50921,-4.22835 -2.48603,-11.75923 -7.07831,-8.89131 -1.75864,1.09828 -2.0504,1.09584 -1.69514,-0.0153 0.2361,-0.73741 1.87748,-1.77598 3.64781,-2.30789 4.89264,-1.47008 3.85877,-2.57069 -2.41486,-2.57069 -4.78995,0 -5.58329,-0.26094 -5.29779,-1.74351 0.45451,-2.36 4.55721,-4.28833 9.16244,-4.30644 3.34478,-0.0115 3.7905,-0.30601 3.7905,-2.49169 0,-1.36223 -0.79601,-2.94043 -1.76891,-3.50707 -2.79231,-1.62637 0.47327,-1.29102 3.70573,0.38051 2.63862,1.36445 2.99602,1.3089 4.87755,-0.75811 3.65725,-4.01782 4.33617,-6.28292 3.39433,-11.32432 -0.48584,-2.60055 -1.38951,-5.23445 -2.00818,-5.85315 -0.61867,-0.6186 -1.12484,-2.1442 -1.12484,-3.39 0,-1.2459 -0.45489,-2.5464 -1.01083,-2.8899 -0.55594,-0.3435 -1.01079,-1.9625 -1.01079,-3.5975 0,-4.7509 -2.5932,-3.5667 -5.58627,2.551 -2.88683,5.9005 -12.72831,18.02237 -19.25287,23.71404 -6.64863,5.79991 -7.90917,8.61285 -7.88456,17.59498 0.0115,4.35419 0.44538,8.22053 0.96323,8.59187 1.05748,0.75823 2.6317,5.29187 4.44627,12.80483 0.67135,2.77971 1.63783,5.96376 2.1477,7.07564 0.50986,1.11188 1.80214,6.79767 2.8717,12.63509 2.28099,12.44924 4.55511,17.8927 6.72329,16.09326 1.93826,-1.60864 1.78438,-0.55365 -0.60141,4.12291 -3.1865,6.24601 -2.45917,7.5658 1.65797,3.00863 2.02377,-2.24008 3.92582,-3.82661 4.22683,-3.5256 0.30104,0.30105 -0.83777,2.01876 -2.53055,3.81725 -3.94079,4.18682 -8.02538,12.11296 -9.2382,17.92669 l -0.94894,4.54862 -0.12149,-6.26779 c -0.0669,-3.44728 0.37783,-8.59588 0.98814,-11.44134 1.15402,-5.38107 0.52213,-8.47737 -0.69069,-3.38439 -0.37974,1.59443 -1.24399,3.58129 -1.92065,4.41521 -3.58787,4.42174 -8.19792,15.46652 -8.96551,21.47968 -0.65091,5.09906 0.73684,6.59836 2.30056,2.48546 0.48427,-1.27371 1.6758,-2.97588 2.64782,-3.78259 1.62305,-1.34703 1.70141,-1.26111 0.96002,1.05232 -2.59938,8.11146 -3.62179,25.26228 -1.50595,25.26228 0.55594,0 1.01362,-1.02345 1.01706,-2.27431 z m 120.87999,0 c 3.04725,-3.53003 6.47557,-8.66359 6.47557,-9.69658 0,-0.51361 -0.94474,-1.18088 -2.09937,-1.48284 -2.16283,-0.56557 -6.97734,2.72034 -7.0204,4.79144 -0.0115,0.59468 -0.91196,2.21838 -1.99912,3.60827 -1.08717,1.38985 -1.98679,3.09557 -1.99913,3.7905 -0.0382,2.11061 4.55064,1.41239 6.64245,-1.01079 z m -16.77302,0.3763 c 0,-1.27413 -2.96721,-3.55833 -3.68712,-2.83842 -1.03513,1.03513 0.50968,3.72548 2.13918,3.72548 0.85137,0 1.54794,-0.39916 1.54794,-0.88706 z m -81.87544,-1.95427 c 0,-1.34818 -1.32158,-2.16925 -5.01543,-3.11594 -7.7269,-1.98033 -9.18345,-0.0722 -2.56561,3.36086 4.18496,2.17108 7.58104,2.06132 7.58104,-0.24488 z m 90.16868,-0.56179 c 2.56778,-2.64748 4.26728,-5.03843 6.03539,-8.49086 0.98428,-1.92188 0.86088,-2.52779 -0.76545,-3.75837 -2.8756,-2.1759 -4.24574,-1.85678 -5.91876,1.37854 -0.82765,1.60047 -2.16103,3.16174 -2.96308,3.46951 -0.80205,0.30793 -1.78244,2.03539 -2.17857,3.83918 -0.56122,2.55506 -0.31633,3.57495 1.10867,4.61692 2.2988,1.68093 1.95267,1.75894 4.6818,-1.05492 z m -87.64165,-4.65349 c 0,-0.81752 -1.13717,-2.06139 -2.52703,-2.76419 -2.41604,-1.22172 -2.34945,-1.26741 1.51623,-1.04067 3.44839,0.2021 4.04322,-0.0604 4.04322,-1.78446 0,-1.64345 -1.03994,-2.22701 -5.55945,-3.1198 -3.05767,-0.60404 -6.14725,-0.88911 -6.86567,-0.63357 -1.84891,0.65768 -0.97955,2.51698 1.89147,4.04532 2.37306,1.26325 2.34002,1.29385 -1.09064,1.0108 -2.47664,-0.20439 -3.53783,0.12683 -3.53783,1.10432 0,1.92803 6.52437,5.29053 9.60267,4.94899 1.42271,-0.15778 2.52703,-0.92996 2.52703,-1.76674 z m 82.37468,-4.06575 c 4.04349,-4.82949 4.16742,-5.17753 2.8798,-8.08644 -0.74004,-1.67187 -2.10208,-3.0398 -3.02673,-3.0398 -1.77143,0 -10.96581,9.55958 -10.96581,11.40134 0,1.77017 3.21843,4.77161 5.11659,4.77161 0.97396,0 3.67222,-2.27102 5.99615,-5.04671 z m -11.85711,-4.30328 c 3.38791,-1.8936 8.83084,-7.05913 8.83084,-8.38079 0,-2.03443 -3.64242,-4.59737 -5.51334,-3.8794 -1.544,0.59246 -1.60501,0.42413 -0.49206,-1.35796 0.69871,-1.11883 0.98546,-2.77684 0.6372,-3.68437 -0.69519,-1.81173 -4.25269,-2.24531 -5.24526,-0.6393 -0.34345,0.55594 -1.48502,1.0108 -2.53647,1.0108 -1.05144,0 -2.27549,0.57817 -2.72006,1.28479 -0.44458,0.70665 -2.05923,1.83405 -3.58806,2.50536 -2.92683,1.28514 -3.6346,4.04792 -1.56674,6.11578 1.66137,1.66136 4.34747,1.52245 5.86267,-0.30334 0.6921,-0.83391 1.73682,-1.5162 2.32157,-1.5162 0.58478,0 0.0741,1.05275 -1.13458,2.33945 -2.63816,2.80824 -2.70089,3.5157 -0.52492,5.92013 1.9793,2.18709 2.67446,2.25884 5.66921,0.58498 z m -1.78262,-10.86618 c 0.34345,-0.55594 1.07956,-1.01079 1.6355,-1.01079 0.55594,0 0.72969,0.45485 0.38609,1.01079 -0.34345,0.55594 -1.07956,1.0108 -1.63551,1.0108 -0.55594,0 -0.72969,-0.45486 -0.38608,-1.0108 z m 34.64122,10.2976 c 0.22005,-0.66016 -0.32015,-1.20033 -1.20036,-1.20033 -0.88022,0 -1.60043,0.72022 -1.60043,1.60044 0,1.78503 2.17601,1.47416 2.80079,-0.40011 z m -98.01091,-2.42774 c 0.35529,-1.87362 -2.26571,-2.89817 -8.10336,-3.16766 -2.69887,-0.12455 -3.32675,0.22616 -3.32675,1.85811 0,3.4529 10.78943,4.68906 11.43011,1.30955 z m 92.17769,-2.46708 c 0,-1.85923 -3.96578,-1.7267 -4.68852,0.15663 -0.32014,0.83392 -0.29608,2.26041 0.0527,3.17 0.57829,1.50706 0.81213,1.49316 2.63514,-0.15664 1.10034,-0.99578 2.00058,-2.42227 2.00058,-3.17003 z m 5.05405,-3.95069 c 0,-2.40084 -0.40293,-4.61421 -0.89542,-4.91862 -0.49248,-0.30448 -1.5087,-5.22096 -2.25826,-10.92582 -0.74956,-5.70485 -1.5027,-9.2353 -1.67367,-7.84541 -0.17077,1.38986 -0.71158,3.43674 -1.20139,4.54862 -1.19834,2.72011 -1.99672,12.49851 -1.31268,16.07691 0.31671,1.65613 1.35291,3.0966 2.43045,3.37839 1.30527,0.34116 1.87855,1.41847 1.87855,3.52953 0,2.58613 0.22579,2.85104 1.51619,1.77996 0.91945,-0.76305 1.51623,-2.9765 1.51623,-5.62356 z m -95.51693,1.57319 c 0.70368,-1.13855 -0.30907,-1.57162 -5.81656,-2.48691 -2.95544,-0.49119 -3.79054,-0.30066 -3.79054,0.8649 0,2.03683 8.46722,3.46641 9.6071,1.62201 z m 81.36561,-1.56872 c 0,-0.8011 -0.45485,-1.45656 -1.01079,-1.45656 -0.55594,0 -1.01084,0.93657 -1.01084,2.08127 0,1.1447 0.4549,1.80016 1.01084,1.45655 0.55594,-0.34345 1.01079,-1.28017 1.01079,-2.08126 z m 68.73495,-0.0229 c 0,-3.1666 -2.37387,-2.82001 -2.85004,0.41611 -0.2147,1.45778 0.20974,2.19515 1.26351,2.19515 1.03204,0 1.58653,-0.91261 1.58653,-2.61126 z m -147.57796,-3.28278 c 0,-1.44933 -4.64302,-3.39998 -7.1775,-3.01542 -2.39923,0.36408 -2.39274,0.38616 0.60725,2.07122 3.26157,1.83194 6.57025,2.30743 6.57025,0.9442 z m 72.27277,-0.17077 c 0.34345,-0.55594 0.14288,-1.01079 -0.44576,-1.01079 -0.58876,0 -1.07047,0.45485 -1.07047,1.01079 0,0.55594 0.20057,1.01084 0.44576,1.01084 0.24527,0 0.72686,-0.4549 1.07047,-1.01084 z m -17.75807,-4.2507 c 6.38442,-3.37232 6.99026,-4.48382 5.12217,-9.39725 -0.8213,-2.16015 -1.43929,-2.52721 -3.28514,-1.95118 -1.25041,0.39022 -2.50093,1.02287 -2.7789,1.40586 -0.27813,0.383 -2.61891,1.55864 -5.20206,2.61249 -5.69117,2.32187 -7.27739,4.46445 -5.92956,8.00953 1.33002,3.49821 4.50231,3.31968 12.07349,-0.67945 z m -52.49307,-0.69519 c 0,-1.23074 -2.59503,-2.12975 -6.14752,-2.12975 -2.98647,0 -4.00506,1.42733 -1.68624,2.36298 2.18067,0.87995 7.83376,0.71162 7.83376,-0.23342 z m 34.36745,-0.2915 c 0,-0.42024 0.68228,-0.50226 1.51623,-0.18223 0.91525,0.35109 1.51619,0.004 1.51619,-0.87406 0,-2.19794 -1.16869,-2.92015 -2.68671,-1.6603 -1.05233,0.87334 -1.35987,0.70134 -1.3714,-0.7669 -0.008,-1.04094 -0.58872,-3.02685 -1.29007,-4.41307 -1.0056,-1.98752 -2.07095,-2.53177 -5.03915,-2.57429 -2.71763,-0.039 -3.78298,0.38089 -3.83237,1.50959 -0.0451,1.02791 -0.44416,0.7844 -1.16529,-0.71082 -0.60328,-1.25087 -1.82336,-2.32619 -2.71133,-2.38957 -0.88793,-0.0634 -2.92079,-0.26781 -4.51744,-0.45432 -3.12094,-0.36447 -4.3992,0.56389 -6.56619,4.76913 -1.7777,3.44976 -0.94822,4.67239 3.69251,5.4427 2.06529,0.34268 4.43736,0.89763 5.27127,1.23291 0.83392,0.33543 3.443,0.6725 5.79796,0.74936 2.35496,0.0768 4.5927,0.45077 4.97279,0.8309 0.9109,0.91085 6.413,0.47415 6.413,-0.50903 z m 46.49715,0.18338 c 0,-1.1434 -0.1765,-1.19589 -5.05401,-1.50366 -4.67993,-0.29532 -6.36292,0.78054 -2.52703,1.61533 4.7438,1.03238 7.58104,0.99058 7.58104,-0.11156 z m 39.48798,-0.0344 c 2.59304,-1.38776 2.47221,-2.86861 -0.319,-3.91253 -1.79504,-0.67131 -2.4345,-0.43174 -3.03441,1.13672 -0.71399,1.86686 -0.26055,3.82217 0.88617,3.82217 0.28157,0 1.39204,-0.47086 2.46739,-1.04636 z m -52.16624,-1.91619 c 1.01278,-1.63871 -1.18799,-2.13666 -2.49306,-0.56412 -1.01565,1.22375 -0.95372,1.50508 0.33122,1.50508 0.86918,0 1.84203,-0.42345 2.16188,-0.94096 z m -66.20147,-2.55262 c 1.92077,-2.31439 0.30296,-3.5821 -4.57157,-3.5821 -4.76611,0 -5.76319,1.3369 -2.72007,3.64697 2.35266,1.78591 5.78095,1.75542 7.29164,-0.0649 z m 77.85824,-0.0306 c 2.06613,-2.48954 0.49924,-4.72179 -2.74681,-3.91328 -2.52714,0.62948 -2.6659,0.53279 -1.41465,-0.98597 0.763,-0.92613 2.01387,-1.68387 2.7797,-1.68387 0.76584,0 1.39246,-0.68231 1.39246,-1.51623 0,-1.16395 -1.2916,-1.51619 -5.55945,-1.51619 -6.0741,0 -6.92585,1.06306 -3.28511,4.10026 1.94465,1.62232 2.01789,1.9022 0.5054,1.93093 -0.9729,0.0191 -1.76891,-0.37822 -1.76891,-0.88205 0,-0.50364 -1.13362,-0.38994 -2.51916,0.25253 -4.01548,1.86243 -3.14913,3.58546 1.48995,2.96324 3.12339,-0.41895 4.16635,-0.17116 4.65677,1.10699 0.79032,2.05956 4.80569,2.14862 6.46981,0.14364 z m -33.4307,-3.66794 c 3.46665,-1.73227 6.52883,-3.73812 6.80482,-4.45738 0.27583,-0.71927 -0.24413,-2.75026 -1.15582,-4.51336 -1.22928,-2.37715 -2.09716,-3.01859 -3.35826,-2.4821 -4.60692,1.95993 -9.58682,3.5154 -9.98379,3.11842 -0.24413,-0.24412 1.29209,-1.01331 3.41411,-1.70893 2.12207,-0.69565 4.89433,-1.93872 6.16063,-2.7624 2.1451,-1.39527 2.19687,-1.65858 0.75811,-3.85441 -0.84934,-1.29622 -1.54427,-3.05508 -1.54427,-3.90855 0,-2.08371 -1.81632,-1.95382 -6.57024,0.46983 -2.1809,1.11192 -4.21025,2.0065 -4.50965,1.98801 -1.12789,-0.0695 4.28505,-4.0096 5.50867,-4.0096 2.83075,0 3.71822,-2.69383 2.13544,-6.48196 -0.8333,-1.99435 -1.87943,-3.62038 -2.32477,-3.61331 -1.42405,0.0229 -12.37898,5.85262 -13.95091,7.42456 -3.72907,3.72907 -0.66692,8.35401 4.76065,7.19033 l 3.32655,-0.71323 -2.77974,2.21337 c -4.59301,3.65725 -2.75163,10.08729 2.68228,9.36657 1.91214,-0.25367 1.94633,-0.17459 0.35033,0.80839 -3.17519,1.95558 -1.48972,9.07546 2.14843,9.07546 1.00354,0 4.66097,-1.41736 8.12762,-3.14963 z m 63.94339,-1.98667 c 0.37593,-2.4565 0.71694,-6.34404 0.75812,-8.63898 0.0546,-3.03731 0.6419,-4.54999 2.15866,-5.55945 3.04584,-2.02713 3.71773,-14.76866 1.08407,-20.55863 -1.01992,-2.24221 -2.66257,-5.98496 -3.6504,-8.31719 -0.9878,-2.33226 -2.87533,-5.25447 -4.19455,-6.49376 -1.31917,-1.23925 -2.39851,-2.81134 -2.39851,-3.49343 0,-0.68209 -1.59202,-2.17948 -3.53782,-3.32754 -1.94579,-1.14803 -3.53782,-2.78498 -3.53782,-3.63765 0,-0.85267 -0.45489,-1.55031 -1.01083,-1.55031 -0.55594,0 -1.0108,2.50792 -1.0108,5.57317 0,5.54703 1.33228,9.33409 3.84659,10.93406 0.72572,0.46181 1.74102,1.94828 2.25616,3.30326 0.51518,1.35493 2.05475,2.88862 3.42134,3.40823 2.02312,0.76916 2.54284,1.75164 2.79785,5.28858 0.26628,3.69156 0.67303,4.39485 2.70922,4.68291 2.19114,0.30983 2.35392,0.71273 1.90339,4.70979 -0.27087,2.40398 -1.57075,6.57266 -2.88844,9.26373 -1.84906,3.77636 -2.36236,6.39218 -2.24955,11.46311 0.19102,8.5845 0.13715,8.31998 1.59665,7.83575 0.69493,-0.23037 1.57094,-2.42907 1.94667,-4.88557 z m 9.73658,2.02808 c -0.19905,-0.59762 -0.79434,-1.08659 -1.32247,-1.08659 -0.52816,0 -1.12326,0.48897 -1.32246,1.08659 -0.19904,0.59766 0.39587,1.08663 1.32246,1.08663 0.92656,0 1.5217,-0.48897 1.32247,-1.08663 z m 6.25857,-2.31006 c 0,-1.86821 0.28921,-5.50711 0.64282,-8.08648 0.53864,-3.92987 0.37478,-4.6897 -1.01083,-4.6897 -1.3931,0 -1.65358,1.27375 -1.65358,8.08647 0,4.7171 0.42116,8.08644 1.0108,8.08644 0.55594,0 1.01079,-1.52853 1.01079,-3.39673 z m -122.59442,-0.27278 c 0.39824,-1.21518 -5.39043,-2.46758 -7.57286,-1.6384 -1.00323,0.38127 -1.02233,0.81152 -0.0863,1.9396 1.37988,1.66263 7.08894,1.4381 7.65897,-0.30104 z m 60.32229,0.047 c 0.37784,-0.98443 0.15167,-1.44654 -0.58677,-1.20032 -1.511,0.50364 -2.34296,2.80098 -1.01435,2.80098 0.5428,0 1.26329,-0.72029 1.60112,-1.60066 z m -58.01398,-5.02925 c 0,-0.83938 -1.07081,-1.52082 -2.52702,-1.60819 -1.38986,-0.0833 -3.08939,-0.19713 -3.77667,-0.25253 -0.68733,-0.0558 -1.39704,0.66406 -1.57713,1.59925 -0.24412,1.26703 0.52519,1.78835 3.01855,2.04585 4.04204,0.41741 4.86227,0.11652 4.86227,-1.78423 z m 69.57727,-0.59411 c 0.18529,-0.47434 1.20876,-0.86245 2.27431,-0.86245 1.06558,0 1.93739,-0.45486 1.93739,-1.0108 0,-0.55594 -0.88289,-1.01083 -1.96196,-1.01083 -2.73119,0 -3.4987,-1.67948 -1.05908,-2.31744 1.10561,-0.2892 2.01024,-1.30745 2.01024,-2.26289 0,-1.44754 -0.54777,-1.60593 -3.28514,-0.94993 -4.2679,1.02283 -7.67472,1.03692 -11.1189,0.0458 -1.52884,-0.43984 -2.77615,-0.40927 -2.77184,0.068 0.0115,1.3152 5.08416,3.39471 8.2801,3.39471 4.47064,0 3.29454,1.67202 -1.30279,1.85219 -4.97829,0.19522 -5.97438,0.72285 -5.97438,3.16564 0,1.67474 0.6479,1.80891 6.31756,1.30821 3.47464,-0.30677 6.46916,-0.946 6.65449,-1.42034 z m 45.65483,-1.93292 c 0,-2.10885 -1.48708,-2.63384 -2.55694,-0.90276 -0.91689,1.48361 0.30449,4.25671 1.539,3.49385 0.55984,-0.34612 1.01794,-1.51203 1.01794,-2.59109 z m -61.21339,-0.47789 c 1.88176,-1.42332 1.85074,-1.48407 -0.75812,-1.48407 -1.74407,0 -2.72022,0.54406 -2.72022,1.51624 0,1.88654 0.95326,1.87771 3.47834,-0.0306 z m -51.99712,-0.30258 c 0,-1.39699 -4.80702,-3.51428 -6.50205,-2.86386 -2.1124,0.8106 -2.01288,2.43285 0.18453,3.00709 3.07085,0.80251 6.31752,0.72893 6.31752,-0.14326 z m 1.51623,-5.22482 c -0.34345,-0.55594 -2.44416,-1.01083 -4.66796,-1.01083 -2.43809,0 -3.7952,0.40129 -3.41851,1.01083 0.34345,0.55594 2.44416,1.0108 4.66796,1.0108 2.43809,0 3.7952,-0.4013 3.41851,-1.0108 z m 112.19968,0 c 0.34345,-0.55594 -0.31174,-1.01083 -1.45656,-1.01083 -1.1447,0 -2.08126,0.45489 -2.08126,1.01083 0,0.55594 0.65542,1.0108 1.45655,1.0108 0.8011,0 1.73766,-0.45486 2.08127,-1.0108 z m -65.18471,-5.0772 c 0.89572,-1.67371 0.74868,-1.99848 -0.90497,-1.99848 -3.23143,0 -5.1723,1.11525 -5.1723,2.9721 0,0.95976 0.2873,2.03225 0.63831,2.38334 0.94746,0.94742 4.21449,-1.06905 5.43896,-3.35696 z m 17.17133,1.58645 c 0,-0.2128 0.3041,-1.17977 0.6759,-2.14851 0.54662,-1.42442 0.25673,-1.6517 -1.51623,-1.18809 -1.20564,0.31518 -2.1921,0.16083 -2.1921,-0.34307 0,-1.41152 -1.99591,-1.08629 -3.68223,0.60006 -1.34775,1.34772 -1.28357,1.51619 0.57761,1.51619 1.43203,0 2.09383,0.65023 2.09383,2.05716 0,1.74397 0.30792,1.89246 2.02159,0.97527 1.11192,-0.59506 2.02163,-1.25618 2.02163,-1.46913 z m -62.87942,-0.68859 c 0.2319,-1.22485 -0.63182,-1.76253 -3.33821,-2.07847 -3.89292,-0.45451 -5.07926,0.35911 -4.13005,2.83292 0.81293,2.11848 7.04378,1.48907 7.46826,-0.75445 z m 67.93347,-0.93438 c 0,-1.07907 -0.45489,-1.96196 -1.01083,-1.96196 -0.55594,0 -1.0108,1.16403 -1.0108,2.5867 0,1.46703 0.43751,2.31626 1.0108,1.96196 0.55594,-0.34346 1.01083,-1.5076 1.01083,-2.5867 z m -15.16212,-0.44573 c 0,-1.38985 -0.45489,-2.52702 -1.01083,-2.52702 -0.55594,0 -1.0108,1.13717 -1.0108,2.52702 0,1.38985 0.45486,2.52703 1.0108,2.52703 0.55594,0 1.01083,-1.13718 1.01083,-2.52703 z m 63.14887,1.55925 c 0.32894,-0.53225 -0.70077,-1.63944 -2.28829,-2.46036 -1.58752,-0.82092 -3.47337,-2.19989 -4.1908,-3.06436 -0.71743,-0.86444 -1.70774,-1.32246 -2.20069,-1.01779 -1.04353,0.64492 -1.21274,5.84609 -0.22234,6.83641 1.03604,1.03601 8.22699,0.79861 8.9022,-0.29379 z m 21.93614,-5.47154 c 3.04011,-4.18763 5.17742,-13.58778 4.46591,-19.64163 -0.66242,-5.6362 -3.29259,-15.01996 -4.74082,-16.91391 -0.44003,-0.57546 -1.75393,-4.52313 -2.91976,-8.77258 -1.16579,-4.24944 -2.73986,-9.00955 -3.49786,-10.57797 -0.758,-1.56845 -2.13005,-7.62776 -3.04897,-13.46518 -0.91895,-5.83742 -2.06648,-11.52315 -2.5501,-12.63505 -0.48362,-1.1119 -1.16181,-4.86 -1.50714,-8.3291 -1.16303,-11.6843 -2.98887,-14.5553 -12.05149,-18.9499 -2.72331,-1.3206 -5.22543,-2.7735 -5.56021,-3.2286 -0.33467,-0.4551 -2.07141,-1.5936 -3.85915,-2.5299 -3.23472,-1.6942 -3.26283,-1.6877 -5.81137,1.341 -2.79464,3.3213 -3.39047,6.9317 -1.14397,6.9317 0.77932,0 2.3213,1.4283 3.42661,3.1741 1.56734,2.4754 1.81548,3.8512 1.12735,6.2506 -0.48526,1.692 -0.71632,3.2424 -0.51346,3.4453 0.68439,0.6844 5.66142,-0.9514 5.66142,-1.8607 0,-0.4957 0.90974,-0.9012 2.02163,-0.9012 2.55453,0 2.55235,1.0742 -0.008,4.3303 -2.4243,3.0822 -3.81503,8.8101 -2.13888,8.8101 0.62543,0 1.13714,-0.4548 1.13714,-1.0108 0,-0.8367 4.88022,-1.5573 5.13443,-0.7581 0.62627,1.9691 1.24464,16.61983 0.68686,16.27512 -0.42196,-0.26093 -0.76724,-1.32219 -0.76724,-2.35858 0,-1.03643 -1.19765,-3.30776 -2.66147,-5.04741 -2.2037,-2.61893 -3.27689,-3.11033 -6.23944,-2.85723 -4.67507,0.3994 -5.6357,2.83267 -1.1183,2.83267 4.13846,0 6.98678,2.51201 6.98678,6.16188 0,1.54886 0.47694,3.11086 1.05989,3.47116 0.65707,0.40606 0.70715,1.10103 0.1318,1.82854 -0.51044,0.64546 -1.21633,2.77746 -1.56864,4.73784 -0.74914,4.16845 -5.37088,10.11785 -11.06328,14.24141 -4.2149,3.05328 -3.5536,3.59616 2.32646,1.90977 4.1937,-1.20273 7.09215,-0.47988 7.09215,1.76872 0,2.30613 5.95073,-3.49377 6.71698,-6.54679 0.31786,-1.26626 0.91139,-2.30231 1.31906,-2.30231 0.40767,0 1.31333,-1.9095 2.01258,-4.24337 1.122,-3.74489 1.39722,-4.01839 2.34315,-2.32814 0.7766,1.38775 0.74894,2.02282 -0.10048,2.30594 -0.64476,0.21509 -1.17232,0.95514 -1.17232,1.64483 0,0.68977 -1.60608,3.49473 -3.56907,6.23332 -2.00566,2.79812 -3.37244,5.76579 -3.1201,6.77483 0.24679,0.98753 -0.68553,3.14383 -2.07214,4.79175 -2.27591,2.70471 -2.36893,3.14844 -0.95624,4.5611 1.01344,1.01344 1.36636,2.55771 1.00144,4.38224 -0.45149,2.25739 -0.0432,3.15831 2.05471,4.53284 1.94224,1.27261 2.61818,2.57734 2.61818,5.05382 0,2.27217 0.82391,4.11237 2.5799,5.76201 1.85399,1.74175 2.41628,3.07571 1.99829,4.74101 -0.89256,3.5562 3.37568,4.86143 10.94339,3.3465 3.25542,-0.65168 6.13518,-0.96866 6.39944,-0.70436 0.26437,0.26437 -0.0115,1.39928 -0.61218,2.52221 -2.39266,4.47079 0.13333,5.92471 3.1277,1.8002 z m -5.2312,-26.80747 c 0,-1.11708 -0.6168,-2.3948 -1.37063,-2.83938 -0.79361,-0.46803 -1.60525,-3.36162 -1.92788,-6.87316 -0.3064,-3.33569 -0.90417,-6.93551 -1.32816,-7.9996 -0.54123,-1.3583 -0.41856,-1.71695 0.41165,-1.20384 0.65042,0.40198 1.1826,1.51757 1.1826,2.47912 0,0.96151 0.87421,3.46298 1.94274,5.5588 2.4657,4.83633 3.62053,11.34495 2.1718,12.24029 -0.63181,0.39052 -1.08212,-0.1765 -1.08212,-1.36223 z m -10.61346,-24.36926 c -1.59791,-1.66786 -2.45085,-3.03242 -1.89544,-3.03242 0.5554,0 2.01872,1.36456 3.25179,3.03242 1.2331,1.66782 2.08604,3.03242 1.89544,3.03242 -0.19064,0 -1.65392,-1.3646 -3.25179,-3.03242 z m -66.20792,50.03497 c 1.6486,-1.98644 5.50149,-1.93514 7.53702,0.10048 1.29271,1.2927 1.91474,1.36918 3.10463,0.38165 0.8184,-0.67922 1.48804,-1.86155 1.48804,-2.62739 0,-1.07352 -1.96795,-1.39245 -8.59187,-1.39245 -7.65764,0 -8.59188,0.20134 -8.59188,1.85315 0,3.41213 2.83587,4.35745 5.05406,1.68467 z m -30.14487,-4.75503 c 5.14757,-3.16736 5.50168,-3.80892 3.82828,-6.9357 -1.40792,-2.63071 -1.82645,-2.54338 -9.14927,1.90911 -7.31273,4.44635 -9.29627,6.80012 -6.98808,8.2924 2.16329,1.39856 6.67306,0.2021 12.30907,-3.26581 z m 12.96112,0.71181 c 2.20111,-2.343 2.23236,-2.52588 0.42891,-2.51155 -2.9287,0.0229 -4.8432,1.60284 -4.14576,3.42034 0.80576,2.09972 0.91579,2.07282 3.71685,-0.90879 z m -36.06091,0.8511 c 1.33904,-1.33904 -1.6794,-3.37813 -5.00057,-3.37813 -2.7402,0 -3.41408,0.39904 -3.41408,2.02163 0,1.67 0.67388,2.02159 3.87478,2.02159 2.13112,0 4.17406,-0.29913 4.53987,-0.66509 z m 59.8149,-2.36733 c 0.34345,-0.55594 1.73502,-1.0108 3.09206,-1.0108 2.83648,0 3.33259,-1.57487 0.69848,-2.21715 -3.41721,-0.83322 -14.72969,-0.29875 -15.07414,0.71231 -0.81664,2.3969 9.88274,4.78227 11.2836,2.51564 z m -58.12145,-3.03242 c 0,-0.55594 -1.13717,-1.0108 -2.52702,-1.0108 -1.38985,0 -2.52703,-0.45871 -2.52703,-1.01935 0,-0.60427 -0.82329,-0.50525 -2.02163,0.24297 -3.15704,1.97162 -2.41077,2.79786 2.52703,2.79786 2.50177,0 4.54865,-0.4549 4.54865,-1.01084 z m 11.65635,-0.45364 c 5.683,-2.37451 10.58141,-6.60806 10.58141,-9.14521 0,-2.69715 -2.82222,-5.50528 -3.86755,-3.8483 -0.37478,0.59376 -2.95541,1.84829 -5.73511,2.78784 -8.21148,2.77554 -10.43685,5.93446 -6.91901,9.82161 2.00554,2.21613 1.61579,2.19091 5.94026,0.38406 z m 21.08187,-2.45386 c 1.44922,-1.60139 1.4888,-1.98415 0.25406,-2.45792 -2.08857,-0.80144 -5.70058,0.32435 -5.70058,1.77701 0,3.04133 2.97382,3.41309 5.44641,0.68091 z m 29.93185,-0.63032 c 1.10198,-1.32781 0.17535,-1.5162 -7.4573,-1.5162 -7.99807,0 -9.85554,0.54475 -8.04174,2.35855 0.37058,0.37058 3.72639,0.67388 7.4573,0.67388 4.79656,0 7.15197,-0.44412 8.04174,-1.51623 z m -60.64848,-1.5162 c 0,-0.55594 -2.2743,-1.01083 -5.05401,-1.01083 -2.77974,0 -5.05405,0.45489 -5.05405,1.01083 0,0.55594 2.27431,1.0108 5.05405,1.0108 2.77971,0 5.05401,-0.45486 5.05401,-1.0108 z m 59.63768,-3.53782 c 0,-1.20338 -1.46003,-1.51623 -7.07564,-1.51623 -5.61561,0 -7.07568,0.31289 -7.07568,1.51623 0,1.20334 1.46007,1.51619 7.07568,1.51619 5.61561,0 7.07564,-0.31288 7.07564,-1.51619 z m -64.18629,-1.51623 c -0.34345,-0.55594 -1.28017,-1.01079 -2.08127,-1.01079 -0.80113,0 -1.45655,0.45485 -1.45655,1.01079 0,0.55594 0.93656,1.0108 2.08126,1.0108 1.1447,0 1.80016,-0.45486 1.45656,-1.0108 z m 12.52552,-0.97076 c 7.7614,-2.83689 9.2797,-4.4358 7.83834,-8.25446 -1.18779,-3.14676 -1.13461,-3.13721 -7.72877,-1.38565 -1.7134,0.45513 -1.22523,-0.0986 1.51623,-1.71943 2.22377,-1.3149 3.86618,-2.83113 3.64984,-3.36938 -0.21624,-0.53826 -0.82945,-2.22954 -1.36239,-3.75837 -1.0846,-3.11132 -2.37539,-3.41347 -5.26039,-1.23135 -1.07914,0.81622 -2.74998,1.48406 -3.71295,1.48406 -0.963,0 -3.15039,1.1776 -4.86085,2.61685 -5.41611,4.55736 -3.34787,9.11434 3.63635,8.01205 l 3.86713,-0.61034 -3.16376,1.46114 c -3.94317,1.8211 -4.77536,3.12893 -3.98779,6.26687 0.75441,3.00579 2.44485,3.09198 9.56901,0.48801 z m 18.77222,0.35835 c 1.25332,-1.25335 1.35673,-1.94445 0.45382,-3.03242 -1.62205,-1.95443 -3.69541,-1.76009 -4.88228,0.45764 -0.68737,1.28438 -0.63541,2.23042 0.16657,3.03243 1.55523,1.55523 2.33237,1.4718 4.26185,-0.45765 z m 33.86263,-1.87026 c 2.16203,-2.60508 0.0882,-3.5821 -7.604,-3.5821 -7.34895,0 -7.5214,0.0581 -7.5214,2.52703 0,2.45054 0.2105,2.52702 6.9519,2.52702 4.85337,0 7.32064,-0.44435 8.1735,-1.47195 z m -65.66577,-1.62015 c 0,-0.52312 -0.45489,-0.95116 -1.01083,-0.95116 -0.55594,0 -1.0108,0.70914 -1.0108,1.57587 0,0.86673 0.45486,1.29477 1.0108,0.95116 0.55594,-0.34345 1.01083,-1.05274 1.01083,-1.57587 z m 65.26693,-4.09659 c 1.17915,-1.90793 -1.8211,-2.8814 -8.14459,-2.64259 -4.85168,0.18338 -6.12028,0.57971 -6.39164,1.99752 -0.29646,1.54871 0.54398,1.76891 6.75156,1.76891 4.11172,0 7.38188,-0.47208 7.78467,-1.12384 z m -36.99607,-4.18293 c 0.0485,-1.16326 -4.81543,-0.89973 -5.55762,0.30105 -0.35987,0.58257 -0.39162,1.74454 -0.0703,2.58219 0.50566,1.31773 0.92209,1.27715 3.09023,-0.30104 1.3782,-1.00323 2.52011,-2.1652 2.5376,-2.5822 z m 27.82896,-0.75807 c -0.34345,-0.55594 -1.73503,-1.01084 -3.09206,-1.01084 -1.35708,0 -2.46739,0.4549 -2.46739,1.01084 0,0.55594 1.39146,1.01079 3.0921,1.01079 1.80398,0 2.83185,-0.42108 2.46735,-1.01079 z m 10.6135,0 c 0,-1.2898 -5.07984,-1.2898 -7.07568,0 -1.11035,0.71758 -0.36637,0.98397 2.77974,0.99532 2.36275,0.008 4.29594,-0.43938 4.29594,-0.99532 z m -5.61725,-4.31859 c 3.27288,-4.99503 -1.27773,-9.10671 -5.67475,-5.12745 -2.28359,2.06664 -2.3195,3.20694 -0.17574,5.57592 2.23328,2.46773 4.02985,2.33001 5.85037,-0.44847 z m 5.61725,-0.22999 c 0,-0.83391 -0.42803,-1.51619 -0.95116,-1.51619 -1.27463,0 -2.18751,1.57846 -1.37992,2.38601 1.13836,1.13836 2.33108,0.69332 2.33108,-0.86982 z m -60.26651,-2.03519 c 2.01368,-0.84136 3.66126,-1.97854 3.66126,-2.52699 0,-0.54849 0.83391,-0.99727 1.85315,-0.99727 2.986,0 3.1865,-0.97618 1.04445,-5.08576 l -2.01968,-3.87482 -4.7349,1.43692 c -2.6042,0.79032 -4.96232,1.42279 -5.24029,1.40552 -1.37679,-0.0856 6.83251,-3.91104 8.47141,-3.94756 1.61617,-0.0344 1.81204,-0.59151 1.30676,-3.70542 -0.76361,-4.70556 -1.14626,-5.01333 -3.94931,-3.17668 -1.27639,0.83632 -3.7871,1.84264 -5.57939,2.23629 -1.7923,0.39366 -3.51819,1.13561 -3.83536,1.6488 -0.31709,0.51316 -1.45953,0.93301 -2.53864,0.93301 -1.39191,0 -1.96195,0.69825 -1.96195,2.40329 0,3.13217 2.01506,4.72515 5.10666,4.03699 1.39967,-0.31174 2.02526,-0.18338 1.44024,0.29493 -0.56878,0.46517 -1.85533,2.13514 -2.85901,3.711 -1.73243,2.72003 -1.73614,2.96328 -0.0726,4.80134 2.11198,2.33371 5.00996,2.45256 9.90727,0.40633 z m 17.81258,-0.49184 c 2.90337,-2.90337 2.5867,-4.4042 -0.75246,-3.56613 -3.41114,0.85615 -5.31239,2.3576 -5.31239,4.19531 0,2.07255 3.75238,1.6833 6.06485,-0.62918 z m 62.22419,-3.60586 c -2.99789,-2.21265 -3.82955,-1.73143 -1.95416,1.13076 1.24066,1.89353 1.98564,2.27839 2.80301,1.44819 0.81309,-0.82589 0.58421,-1.52128 -0.84885,-2.57895 z m -21.42635,-0.94275 c -0.32015,-0.83392 -0.7606,-1.51623 -0.97909,-1.51623 -0.21853,0 -0.39724,0.68231 -0.39724,1.51623 0,0.83391 0.44056,1.51619 0.97908,1.51619 0.53848,0 0.71724,-0.68228 0.39725,-1.51619 z m -10.4736,-0.5054 c 0,-0.55594 -0.68232,-1.01083 -1.51624,-1.01083 -0.83391,0 -1.51619,0.45489 -1.51619,1.01083 0,0.55594 0.68228,1.01079 1.51619,1.01079 0.83392,0 1.51624,-0.45485 1.51624,-1.01079 z m -34.68531,-4.21945 c 3.20747,-3.01325 2.9839,-4.87782 -0.58483,-4.87782 -3.17985,0 -4.32573,1.64196 -3.45897,4.95652 0.69432,2.65508 1.14314,2.64633 4.0438,-0.0787 z m 44.32954,1.11975 c 0.36637,-0.59292 0.47105,-1.27326 0.23266,-1.51184 -0.87571,-0.87571 -9.81703,-1.6925 -11.49192,-1.0498 -1.59229,0.61103 -1.57694,0.77691 0.19637,2.11916 2.24699,1.70064 10.09141,2.01441 11.06293,0.44248 z m -0.54696,-5.99757 c 0,-1.77659 -0.67388,-2.02163 -5.55945,-2.02163 -4.88558,0 -5.55945,0.24489 -5.55945,2.02163 0,1.77655 0.67387,2.02159 5.55945,2.02159 4.88557,0 5.55945,-0.24489 5.55945,-2.02159 z m -63.1755,-4.8868 c 1.66782,-1.01572 4.28329,-2.15985 5.81213,-2.54246 2.36683,-0.59239 2.77974,-1.21839 2.77974,-4.21429 0,-4.72776 -1.21346,-4.66178 -12.86492,0.69916 -4.97704,2.28998 -5.69003,3.1624 -4.82136,5.89939 0.81997,2.58349 4.99293,2.65608 9.09441,0.15816 z m 17.72467,0.29532 c 0.93412,-1.12552 0.98745,-1.86553 0.19178,-2.66124 -1.59313,-1.59313 -4.27053,-0.23457 -4.27053,2.16696 0,2.42796 2.24791,2.70039 4.07879,0.49428 z m 44.20565,0.35071 c -0.59304,-1.77919 -5.83176,-2.90525 -8.03364,-1.72685 -2.95151,1.57957 -1.16724,2.93527 3.86324,2.93527 3.0981,0 4.44329,-0.38979 4.1704,-1.20842 z m 0.23419,-4.85643 c 0,-0.55594 -2.04688,-1.01083 -4.54862,-1.01083 -2.50177,0 -4.54865,0.45489 -4.54865,1.01083 0,0.55594 2.04688,1.0108 4.54865,1.0108 2.50174,0 4.54862,-0.45486 4.54862,-1.0108 z m -67.08157,-3.53159 c 1.59241,-0.83051 3.5776,-1.51451 4.41151,-1.52001 2.40752,-0.0153 8.08644,-3.86955 8.08644,-5.48736 0,-2.69383 -2.0671,-2.8066 -8.89739,-0.48538 -8.31161,2.82463 -11.23581,5.15055 -9.34289,7.43139 1.61278,1.94324 2.12348,1.9487 5.74233,0.0615 z m 20.98166,-0.089 c 0.33734,-0.87937 0.61356,-2.01654 0.61356,-2.52702 0,-1.18764 -3.09948,-1.17454 -4.98903,0.0229 -1.2027,0.76106 -1.22478,1.19116 -0.12875,2.51155 1.69395,2.04112 3.71998,2.0386 4.50441,-0.008 z m 41.46694,-0.0619 c 0.84419,-2.19996 0.1872,-2.71158 -2.41971,-1.8842 -1.72123,0.54631 -1.9137,0.96865 -0.96323,2.11389 1.55974,1.87935 2.60076,1.80868 3.38294,-0.22961 z m 0.58975,-5.9798 c 0,-1.6679 -1.59753,-1.94969 -2.52702,-0.44576 -0.82433,1.33381 0.38433,3.22657 1.58606,2.48385 0.51751,-0.31976 0.94096,-1.237 0.94096,-2.03809 z m -20.88741,-5.40152 c 3.70485,-3.83751 6.73609,-7.26071 6.73609,-7.60701 0,-0.3461 -1.36456,0.076 -3.03243,0.9385 -1.66782,0.8625 -3.03242,2.0797 -3.03242,2.7049 0,0.6252 -2.04688,3.0702 -4.54862,5.43327 -2.50177,2.36314 -4.54865,4.5691 -4.54865,4.90216 0,1.70706 2.32103,-0.0481 8.42603,-6.37182 z m -38.51145,2.49284 c 1.81445,-0.78799 4.09502,-1.67906 5.06795,-1.98018 1.80555,-0.55884 2.37101,-4.16467 0.99273,-6.33067 -0.83307,-1.3093 -6.2995,-0.6293 -6.2995,0.7836 0,0.4911 -0.62447,0.8929 -1.38771,0.8929 -0.76323,0 -3.49243,0.931 -6.06485,2.0689 -4.45112,1.969 -5.93869,4.41408 -3.91901,6.44175 0.98424,0.98814 7.40308,-0.0493 11.61039,-1.8763 z m 14.00725,0.39059 c 2.32676,-1.24521 1.64815,-2.98164 -1.16521,-2.98164 -1.28808,0 -1.96196,0.69431 -1.96196,2.02154 0,2.3142 0.37937,2.43068 3.12717,0.9601 z m 48.1764,-1.21278 c -0.48183,-1.46309 -4.80642,-2.36006 -4.80642,-0.99688 0,1.44349 1.18726,2.2604 3.28514,2.2604 1.09794,0 1.75707,-0.54746 1.52128,-1.26352 z m 0.24756,-4.29596 c 0,-0.8423 -0.89852,-1.5162 -2.02163,-1.5162 -2.01376,0 -2.62922,1.0771 -1.34771,2.3586 1.23107,1.2311 3.36934,0.6965 3.36934,-0.8424 z m -65.23568,-3.1113 c 7.25815,-3.4452 7.61963,-3.778 7.61963,-7.016 0,-1.8696 -0.37669,-3.6322 -0.83746,-3.9168 -1.92994,-1.1928 -20.38951,7.6511 -20.38951,9.7684 0,1.5785 3.12607,4.7811 4.66675,4.7811 0.72652,0 4.74979,-1.6275 8.94059,-3.6167 z m 16.51473,0.3821 c 1.88428,-1.8842 1.44505,-2.8302 -1.31402,-2.8302 -1.85315,0 -2.52703,0.5391 -2.52703,2.0216 0,2.2517 1.98098,2.6687 3.84105,0.8086 z m 49.23078,-0.8157 c 0.34612,-0.5599 -0.10162,-1.2984 -0.99475,-1.6411 -1.93537,-0.7427 -3.01393,0.076 -2.08367,1.581 0.83937,1.358 2.25906,1.3858 3.07842,0.06 z m 5.55502,-7.7306 c 0,-2.7538 -1.21882,-3.0288 -3.46562,-0.782 -1.63608,1.6361 -2.10541,4.6334 -0.91234,5.8264 1.15807,1.1581 4.37796,-2.5519 4.37796,-5.0444 z m -76.10121,-0.499 c 3.21752,-1.1945 6.07749,-2.4978 6.35546,-2.8962 0.27813,-0.3984 1.54787,-1.0497 2.82196,-1.4475 1.80482,-0.5634 2.17047,-1.2076 1.65533,-2.9159 -0.3637,-1.2061 -1.01985,-2.5798 -1.45804,-3.0527 -0.73291,-0.7909 -7.91911,1.1256 -9.08409,2.4226 -0.27813,0.3094 -2.6447,1.3648 -5.25944,2.3452 -4.57204,1.7143 -6.75393,4.4405 -5.35964,6.6965 0.96403,1.5598 3.90858,1.2314 10.32846,-1.152 z m 23.53921,1.161 c 0,-0.5559 -0.68232,-1.0108 -1.51623,-1.0108 -0.83391,0 -1.51619,0.4549 -1.51619,1.0108 0,0.556 0.68228,1.0109 1.51619,1.0109 0.83391,0 1.51623,-0.4549 1.51623,-1.0109 z m -5.66741,-2.286 c 1.25743,-1.9934 0.28805,-3.2474 -1.87008,-2.4192 -1.80451,0.6925 -2.16531,5.0755 -0.36866,4.4766 0.65523,-0.2185 1.66258,-1.1442 2.23858,-2.0574 z m 6.3579,-2.9575 c -0.32282,-0.8064 -0.5622,-0.5668 -0.61068,0.6107 -0.0439,1.0655 0.19484,1.6626 0.53088,1.3267 0.33581,-0.3358 0.37172,-1.2078 0.0798,-1.9374 z m 51.87151,-0.8213 c 0,-0.556 -0.41769,-1.0108 -0.92813,-1.0108 -0.51047,0 -1.64765,-0.2762 -2.52702,-0.6136 -1.04923,-0.4026 -1.59891,-0.055 -1.59891,1.0109 0,1.0588 0.87991,1.6243 2.52703,1.6243 1.38985,0 2.52703,-0.4548 2.52703,-1.0108 z m 5.05405,-1.9643 c 0,-1.3754 -4.17995,-4.1006 -6.28979,-4.1006 -2.46021,0 -2.25525,1.5858 0.44985,3.4806 2.49081,1.7446 5.83994,2.1002 5.83994,0.62 z m -56.60526,-1.5735 c 0,-0.8339 -0.62661,-1.5162 -1.39245,-1.5162 -0.76583,0 -1.9587,0.6823 -2.65076,1.5162 -1.06413,1.2822 -0.84924,1.5162 1.39245,1.5162 1.68238,0 2.65076,-0.5539 2.65076,-1.5162 z m -8.06619,-1.0353 c 0.70326,-0.8473 1.00599,-1.8132 0.67277,-2.1465 -1.03513,-1.0351 -3.72547,0.5098 -3.72547,2.1393 0,1.9797 1.41288,1.9831 3.0527,0.01 z m 10.9097,-3.2607 c -0.37974,-1.9933 -4.56535,-2.9784 -6.1066,-1.4371 -1.60735,1.6073 0.0863,3.206 3.39685,3.206 2.35637,0 2.97049,-0.4008 2.70975,-1.7689 z m 54.77254,0.9761 c 0,-1.2721 -5.9701,-4.439 -7.07774,-3.7545 -1.62362,1.0035 -1.16063,3.3486 0.76018,3.8506 3.0087,0.7863 6.31756,0.7359 6.31756,-0.096 z m 2.02163,-4.0989 c 0,-1.5869 -1.14275,-2.4941 -6.31756,-5.0154 -1.88249,-0.9172 -0.51186,3.7675 1.51623,5.1822 3.06623,2.1389 4.80133,2.0786 4.80133,-0.1669 z m -56.09985,-1.1731 c 0.81194,-1.3138 -6.55894,-1.3138 -8.59188,0 -1.09805,0.7097 -0.20859,0.9841 3.22547,0.9954 2.60794,0.01 5.0228,-0.4394 5.36641,-0.9954 z m 97.91127,-15.9202 c 0.4102,-10.3807 0.28844,-16.4256 -0.33122,-16.4256 -0.5391,0 -3.26975,3.0244 -6.06814,6.721 -4.25945,5.6266 -5.11426,7.4782 -5.24969,11.3715 -0.13524,3.8849 -0.23037,4.0919 -0.57753,1.2571 l -0.41577,-3.3936 -2.4549,2.3063 c -1.35016,1.2684 -2.45486,3.1207 -2.45486,4.1161 0,2.1537 4.00196,4.757 4.11165,2.6746 0.0382,-0.7145 0.59189,-0.2086 1.23169,1.1241 0.91203,1.8999 10.71837,7.8201 11.4047,6.8852 0.0852,-0.1161 0.44702,-7.6026 0.804,-16.6367 z m -109.53557,13.9492 c 0,-1.5277 -1.38729,-2.0073 -2.68672,-0.9289 -1.9958,1.6564 -1.65097,2.7877 0.66513,2.182 1.11188,-0.2908 2.02159,-0.8547 2.02159,-1.2531 z m 13.96401,-2.3249 c 0.28385,-1.4964 -0.4547,-1.769 -4.79263,-1.769 -3.59959,0 -5.12812,0.4018 -5.12812,1.3478 0,2.2412 1.24823,2.805 5.51402,2.4903 2.92626,-0.2158 4.16555,-0.7977 4.40673,-2.0691 z m 56.23712,1.3444 c 0.67881,-1.0983 -4.15668,-5.1349 -6.15115,-5.1349 -2.15205,0 -1.62175,2.7483 0.86665,4.4913 2.54162,1.7802 4.43924,2.0113 5.2845,0.6436 z m -25.91422,-3.8714 c 0.39839,-4.132 -1.80597,-4.418 -4.79201,-0.6218 -2.89176,3.6762 -2.63366,4.5923 1.19012,4.2236 2.88862,-0.2785 3.32334,-0.7132 3.60189,-3.6018 z m -8.90862,0.2525 c 0,-0.8339 -0.63365,-1.5162 -1.40808,-1.5162 -0.77443,0 -1.66989,0.6823 -1.98988,1.5162 -0.39575,1.0313 0.0546,1.5162 1.40808,1.5162 1.09492,0 1.98988,-0.6819 1.98988,-1.5162 z m 16.67835,-1.4458 c 0,-3.2511 -2.3051,-3.8664 -3.42042,-0.9132 -1.0806,2.8614 -0.4926,4.0957 1.74572,3.6646 1.00495,-0.1936 1.6747,-1.2939 1.6747,-2.7514 z m -54.11762,-0.261 c 3.08472,-3.311 2.61333,-4.8634 -1.47684,-4.8634 -1.9458,0 -3.54401,0.3411 -3.55162,0.7581 -0.008,0.417 -0.27735,1.7401 -0.59918,2.9402 -0.42292,1.5765 -0.0684,2.3155 1.2773,2.6625 1.02447,0.264 1.95871,0.5331 2.07603,0.5976 0.11729,0.064 1.14077,-0.8782 2.27431,-2.095 z m 29.17969,-0.144 c 0.27316,-1.433 -0.17841,-1.7754 -2.00096,-1.5162 -1.30768,0.186 -2.51079,1.1575 -2.70685,2.1858 -0.27316,1.433 0.17841,1.7754 2.00096,1.5162 1.30768,-0.186 2.51079,-1.1575 2.70685,-2.1858 z m 45.65946,0.8402 c 0,-0.8339 0.45489,-1.5162 1.01083,-1.5162 2.1409,0 0.87108,-3.7664 -1.98071,-5.8748 -3.63887,-2.6903 -4.08414,-2.7287 -4.08414,-0.3522 0,1.038 1.22787,2.4361 2.77971,3.165 1.7717,0.8321 2.28943,1.482 1.42775,1.7921 -0.74356,0.2678 -1.85797,-0.019 -2.47645,-0.6379 -1.56329,-1.5633 -3.75264,-1.4067 -3.75264,0.2686 0,1.5212 3.79119,4.5341 5.81213,4.6189 0.69497,0.031 1.26352,-0.6293 1.26352,-1.4632 z m -58.62685,-1.0108 c 0,-1.1793 -1.34775,-1.5162 -6.06485,-1.5162 -4.71709,0 -6.06484,0.3369 -6.06484,1.5162 0,1.1793 1.34775,1.5162 6.06484,1.5162 4.7171,0 6.06485,-0.337 6.06485,-1.5162 z m 43.89937,-2.6416 c -1.01973,-1.6499 -2.45623,-0.9194 -2.45623,1.2491 0,1.7854 0.25252,1.9358 1.50507,0.8963 0.8278,-0.687 1.2558,-1.6524 0.95116,-2.1454 z m -45.16288,-0.5226 c 3.17252,-0.8501 2.8445,-2.3975 -0.5054,-2.3841 -4.61184,0.019 -10.36078,1.2074 -10.36078,2.1427 0,0.9977 7.42837,1.1628 10.86618,0.2414 z m 49.78229,-3.9711 c 0,-1.4671 -0.43751,-2.3163 -1.0108,-1.962 -0.55594,0.3435 -1.01083,1.5076 -1.01083,2.5867 0,1.0791 0.45489,1.9619 1.01083,1.9619 0.55595,0 1.0108,-1.1639 1.0108,-2.5866 z m 12.29256,-1.4566 c -2.94418,-2.6891 -5.21692,-3.8274 -5.21692,-2.6129 0,1.4128 4.88248,5.6119 6.54282,5.6271 1.68471,0.015 1.4789,-0.4524 -1.3259,-3.0142 z m -79.00588,-1.9899 c 0,-0.5385 -0.68228,-0.7172 -1.51623,-0.3972 -0.83391,0.3201 -1.51619,0.7606 -1.51619,0.979 0,0.2186 0.68228,0.3973 1.51619,0.3973 0.83395,0 1.51623,-0.4406 1.51623,-0.9791 z m 121.38378,-50.1713 c 1.35272,-1.6299 0.32359,-18.2223 -1.18806,-19.1566 -0.50624,-0.3129 -0.97419,-3.1575 -1.03998,-6.3214 -0.0657,-3.1638 -0.46681,-7.117 -0.89122,-8.7849 -0.65722,-2.5827 -0.80117,-2.208 -0.97102,2.5271 -0.10965,3.0577 -0.42418,4.8771 -0.6989,4.0432 -0.27469,-0.8339 -0.88786,-2.4259 -1.3625,-3.5378 -0.47465,-1.1119 -1.07265,-2.704 -1.32892,-3.5379 -0.25635,-0.8339 -0.47762,6.9867 -0.49195,17.3792 -0.0229,16.8155 0.15893,18.9352 1.65552,19.2577 2.40073,0.5172 4.96691,-0.2419 6.31703,-1.8686 z m -105.63634,-34.2214 c 0.34307,-1.3671 1.22493,-2.9844 1.95958,-3.5941 0.73466,-0.6097 6.71699,-1.4723 13.29403,-1.9168 6.92661,-0.4682 9.5378,-0.8698 6.20578,-0.9545 -3.16384,-0.081 -5.98748,-0.5266 -6.27473,-0.9913 -0.54796,-0.8866 -3.09466,-0.8352 -5.66192,0.1142 -0.83391,0.3083 -5.26233,0.8117 -9.84094,1.1184 -5.4945,0.3679 -9.25746,1.1688 -11.0682,2.3552 -2.34847,1.5388 -2.47714,1.8489 -0.89363,2.1538 1.01737,0.196 2.21078,-0.2277 2.65199,-0.9417 0.63816,-1.0326 1.10952,-1.0429 2.30545,-0.05 1.01843,0.8452 1.7145,0.9058 2.15828,0.1876 1.39176,-2.2519 2.70295,-0.9915 2.05196,1.9725 -0.51796,2.3584 -0.31556,3.0324 0.91124,3.0324 0.86749,0 1.858,-1.1185 2.20111,-2.4855 z m 62.65333,-8.1091 c 1.00036,-5.3324 -0.12799,-6.5953 -1.59723,-1.7877 -0.72212,2.3627 -1.80952,4.3029 -2.41646,4.3114 -0.60694,0.01 -0.44293,0.4333 0.36446,0.9441 2.06163,1.3042 2.90425,0.5035 3.64927,-3.4678 z m -7.64423,2.5679 c 0,-0.5232 -0.45486,-1.2323 -1.0108,-1.5759 -0.55594,-0.3435 -1.01079,-1.735 -1.01079,-3.0921 0,-2.146 0.46081,-2.4674 3.53782,-2.4674 2.47087,0 3.53782,-0.4572 3.53782,-1.5162 0,-1.1399 -1.22015,-1.5162 -4.91663,-1.5162 h -4.91667 l -0.63778,4.6533 c -0.35071,2.5592 -0.38578,5.061 -0.0779,5.5594 0.74562,1.2065 5.49477,1.1676 5.49477,-0.045 z m -0.25253,135.7299 c 0.69493,-0.2804 1.83206,-0.2804 2.52703,0 0.69492,0.2805 0.12645,0.5099 -1.26352,0.5099 -1.38989,0 -1.95843,-0.2296 -1.26351,-0.5099 z m -93.94198,-31.3561 c 0.72969,-0.2919 1.6015,-0.2559 1.93739,0.08 0.33581,0.3358 -0.26131,0.5747 -1.32666,0.5308 -1.17756,-0.048 -1.41706,-0.288 -0.61073,-0.6106 z m 4.23279,-1.3311 c 0.83391,-0.5389 1.97104,-0.9798 2.52698,-0.9798 0.55598,0 0.32856,0.4409 -0.50539,0.9798 -0.83392,0.5389 -1.97105,0.9798 -2.52699,0.9798 -0.55598,0 -0.32855,-0.4409 0.5054,-0.9798 z m 0.82126,-8.7769 c 0.72969,-0.2919 1.6015,-0.256 1.93739,0.08 0.33581,0.3358 -0.26131,0.5748 -1.3267,0.5309 -1.17752,-0.048 -1.41705,-0.288 -0.61069,-0.6107 z m 18.12299,-22.1244 c -0.50242,-2.6282 1.18512,-3.128 6.10828,-1.8091 l 2.30934,0.6187 -2.30934,1.1907 c -4.95525,2.5549 -5.61985,2.5549 -6.10828,-3e-4 z m -6.379,-4.59 c -0.38204,-0.6181 -0.0676,-1.5208 0.69844,-2.0061 2.17632,-1.3785 2.76389,-1.0813 2.19129,1.1083 -0.5852,2.2379 -1.82373,2.6227 -2.88973,0.8978 z m -7.35162,-7.9734 c 0,-1.3899 0.22922,-1.9585 0.50982,-1.2636 0.28042,0.695 0.28042,1.8321 0,2.5271 -0.28041,0.6949 -0.50982,0.1264 -0.50982,-1.2635 z m 64.88122,-2.6532 c 0.31097,-1.0425 0.85576,-3.1134 1.21033,-4.602 0.35453,-1.4887 1.24292,-2.9362 1.97422,-3.2168 1.06237,-0.4077 1.04529,0.034 -0.0852,2.2012 -0.77802,1.4912 -1.4174,3.4805 -1.4208,4.4206 -0.003,0.9401 -0.50983,2.0205 -1.12533,2.4009 -0.72614,0.4487 -0.92044,0.027 -0.55342,-1.2039 z m -63.87043,-2.4009 c 0,-1.3898 0.2296,-1.9584 0.50983,-1.2635 0.28041,0.695 0.28041,1.8321 0,2.527 -0.28042,0.695 -0.50983,0.1265 -0.50983,-1.2635 z m 39.51461,-0.6968 c 0.9729,-0.2544 2.56492,-0.2544 3.53782,0 0.97294,0.2545 0.17688,0.4623 -1.76891,0.4623 -1.94579,0 -2.74181,-0.2078 -1.76891,-0.4623 z m -7.56927,-1.0289 c 1.25736,-0.2418 3.07681,-0.2327 4.04325,0.019 0.96641,0.2529 -0.0623,0.4508 -2.28611,0.4396 -2.22376,-0.012 -3.01451,-0.2182 -1.75714,-0.46 z m -43.68604,-3.2585 c -0.31977,-0.5175 -0.1192,-1.2267 0.44572,-1.5758 0.56503,-0.3492 1.0273,-0.1834 1.0273,0.3682 0,0.5519 1.2509,1.1928 2.77974,1.4244 2.63423,0.3991 2.61089,0.4291 -0.44576,0.5726 -1.77399,0.083 -3.48716,-0.272 -3.807,-0.7895 z m 93.89075,-4.4524 c 0.039,-3.0939 0.63219,-6.1861 1.31787,-6.8715 1.91107,-1.9104 2.79415,-0.1662 1.31509,2.5973 -0.72384,1.3525 -1.07589,3.3776 -0.78233,4.5001 0.2934,1.1226 -0.0191,2.7967 -0.69405,3.7203 -1.01504,1.3881 -1.21549,0.7043 -1.15658,-3.9462 z m -110.61411,-7.4944 c -9.9e-4,-0.417 2.8419,-0.6315 6.31757,-0.4766 11.40825,0.5081 12.54046,0.9085 3.03426,1.0729 -5.1425,0.089 -9.3508,-0.1791 -9.35183,-0.5963 z m -6.30392,-0.9676 c 1.25736,-0.2418 3.07681,-0.2327 4.04325,0.019 0.96641,0.2529 -0.0623,0.4508 -2.28611,0.4396 -2.2238,-0.012 -3.01451,-0.2181 -1.75714,-0.46 z m 114.0218,-0.5922 c 0.37974,-0.9969 0.94478,-1.5579 1.25599,-1.2467 0.31136,0.3114 6.5e-4,1.1268 -0.69015,1.8125 -0.99831,0.9909 -1.11441,0.8748 -0.56584,-0.5658 z m -20.37216,-3.3575 c -0.50589,-0.1231 -2.73852,-0.5304 -4.9614,-0.905 l -4.04162,-0.6811 2.7653,-1.4488 c 3.10188,-1.6253 11.94078,-0.7346 12.60916,1.2706 0.34536,1.0361 -4.19604,2.2936 -6.37144,1.7643 z m -10.52246,-11.4137 c 0,-1.4444 0.51843,-1.7914 2.07022,-1.3856 1.13863,0.2976 5.89018,-0.4852 10.55903,-1.7399 8.94304,-2.4033 11.63438,-2.2355 11.62357,0.7248 -0.008,1.583 -1.06753,1.8089 -8.78305,1.8687 -5.8025,0.045 -8.91148,0.4732 -9.17494,1.2635 -0.21928,0.6575 -1.72516,1.1955 -3.34664,1.1955 -2.22606,0 -2.94819,-0.472 -2.94819,-1.927 z m 82.54542,-26.0468 c -0.28882,-1.0147 -0.75858,-6.1663 -1.0435,-11.4477 l -0.51804,-9.6027 1.40708,11.0842 c 1.31547,10.3625 1.37579,14.2552 0.15434,9.9662 z"
       id="path636"
       inkscape:connector-curvature="0" />
  </g>
</svg>
