<?xml version="1.0" encoding="UTF-8" standalone="no"?>
<!-- Created with Inkscape (http://www.inkscape.org/) -->

<svg
   xmlns:dc="http://purl.org/dc/elements/1.1/"
   xmlns:cc="http://creativecommons.org/ns#"
   xmlns:rdf="http://www.w3.org/1999/02/22-rdf-syntax-ns#"
   xmlns:svg="http://www.w3.org/2000/svg"
   xmlns="http://www.w3.org/2000/svg"
   xmlns:sodipodi="http://sodipodi.sourceforge.net/DTD/sodipodi-0.dtd"
   xmlns:inkscape="http://www.inkscape.org/namespaces/inkscape"
   width="209.99916mm"
   height="217.50468mm"
   viewBox="0 0 209.99916 217.50471"
   version="1.1"
   id="svg8"
   inkscape:version="0.92.3 (2405546, 2018-03-11)"
   sodipodi:docname="retired_generals.svg">
  <defs
     id="defs2" />
  <sodipodi:namedview
     id="base"
     pagecolor="#ffffff"
     bordercolor="#666666"
     borderopacity="1.0"
     inkscape:pageopacity="0.0"
     inkscape:pageshadow="2"
     inkscape:zoom="1.4"
     inkscape:cx="363.62295"
     inkscape:cy="340.24683"
     inkscape:document-units="mm"
     inkscape:current-layer="layer1"
     showgrid="false"
     fit-margin-top="0"
     fit-margin-left="0"
     fit-margin-right="0"
     fit-margin-bottom="0"
     inkscape:window-width="1920"
     inkscape:window-height="1017"
     inkscape:window-x="-8"
     inkscape:window-y="-8"
     inkscape:window-maximized="1" />
  <metadata
     id="metadata5">
    <rdf:RDF>
      <cc:Work
         rdf:about="">
        <dc:format>image/svg+xml</dc:format>
        <dc:type
           rdf:resource="http://purl.org/dc/dcmitype/StillImage" />
        <dc:title></dc:title>
      </cc:Work>
    </rdf:RDF>
  </metadata>
  <g
     inkscape:label="Layer 1"
     inkscape:groupmode="layer"
     id="layer1"
     transform="translate(-356.47978,823.81397)">
    <path
       style="fill:#000000;stroke-width:0.4964546"
       d="m 428.27246,-606.38596 c -3.50321,-0.29423 -4.21987,-0.66144 -4.21987,-2.16211 0,-1.63764 0.93812,-2.30403 3.2435,-2.30403 1.12861,0 2.21644,-0.16756 2.41738,-0.37234 0.20095,-0.20479 1.74616,-0.63153 3.43382,-0.94832 2.62443,-0.49264 1.63166,-0.54125 -6.86065,-0.33604 -5.461,0.13191 -11.26951,0.32771 -12.90782,0.43496 -1.63829,0.10714 -7.22342,0.33568 -12.41136,0.50765 -5.18796,0.17188 -9.66476,0.50291 -9.94846,0.73544 -0.28369,0.23254 -2.74114,0.46521 -5.46099,0.51705 -2.71986,0.0518 -6.99323,0.35464 -9.49635,0.67287 -5.11585,0.65038 -6.4161,0.38013 -7.12356,-1.48062 -1.00042,-2.63132 1.08126,-6.68102 3.43427,-6.68102 0.75505,0 1.53258,0.15968 1.72785,0.35503 0.19526,0.19525 1.40373,0.6213 2.68549,0.94674 2.68594,0.682 22.84347,-0.0308 23.66046,-0.83658 0.25941,-0.25584 3.27536,-0.4686 6.70215,-0.47279 3.42678,-0.004 6.51612,-0.18885 6.86522,-0.4104 0.91587,-0.58118 0.64154,-14.54823 -0.29182,-14.85843 -0.51517,-0.17113 -0.61816,0.90178 -0.49646,5.17204 l 0.15348,5.38808 -2.83316,0.14823 c -2.8248,0.14786 -2.83685,0.14241 -4.09574,-1.85184 -1.08127,-1.71286 -1.26259,-2.57188 -1.26259,-5.9816 0,-3.18055 -0.14973,-3.99398 -0.74469,-4.04355 -0.40957,-0.0341 -0.96809,-0.11784 -1.24114,-0.18614 -0.27305,-0.0683 -0.71985,-0.15198 -0.99289,-0.18613 -0.27307,-0.0342 -0.49647,-0.84397 -0.49647,-1.79966 v -1.73759 l -8.81206,-0.008 c -4.84665,-0.004 -9.31076,-0.14035 -9.92024,-0.30382 -1.58936,-0.42599 -1.95202,0.91275 -2.36616,8.73417 -0.19362,3.6566 -0.57366,6.99921 -0.84453,7.42802 -0.92482,1.46403 -2.89346,2.62103 -3.77485,2.21852 -0.46337,-0.21164 -1.28928,-0.39856 -1.83538,-0.41539 -0.85936,-0.0265 -1.01324,-0.42431 -1.14396,-2.95758 -0.0831,-1.60983 0.0844,-3.16248 0.37234,-3.45036 0.30538,-0.30537 0.52338,-2.86974 0.52338,-6.1564 0,-5.62862 -10e-4,-5.63365 -1.36967,-6.41914 -0.75333,-0.43233 -1.76289,-1.30733 -2.24344,-1.94443 -1.02253,-1.35558 -1.91701,-5.53967 -1.51387,-7.08129 0.27522,-1.05243 -0.094,-2.33039 -1.81309,-6.27677 -0.47579,-1.0922 -1.25116,-3.21455 -1.72305,-4.71632 -0.47189,-1.50178 -1.25568,-3.62412 -1.74175,-4.71631 -0.48609,-1.09222 -1.15194,-3.54549 -1.47967,-5.45174 -0.32774,-1.90627 -0.7743,-3.69351 -0.99237,-3.97164 -0.21807,-0.27815 -0.89696,-3.52167 -1.50863,-7.20785 -0.61168,-3.68619 -1.28259,-6.92554 -1.49092,-7.19859 -0.77929,-1.02144 -1.63968,-10.69636 -1.54755,-17.40206 0.0469,-3.4164 0.0981,-3.55186 2.11126,-5.58511 1.13475,-1.14608 2.34285,-2.08379 2.68469,-2.08379 0.34183,0 1.7033,-0.55839 3.0255,-1.24086 1.38136,-0.71302 3.72387,-1.37665 5.50681,-1.56008 l 3.10285,-0.31923 -0.008,-2.53568 c -0.0113,-4.37607 -0.25839,-4.7697 -2.98925,-4.7697 -3.27187,0 -3.95434,-0.34889 -3.95434,-2.02146 0,-0.97012 0.35324,-1.60048 1.11702,-1.99337 0.61437,-0.31602 1.67553,-1.08522 2.35815,-1.7093 1.31774,-1.20473 3.75356,-2.75039 6.2057,-3.93777 2.51984,-1.22016 3.88961,-2.3151 9.65023,-7.71401 5.22554,-4.89741 10.70483,-8.53147 11.41843,-7.57312 0.1533,0.20599 0.72568,0.62068 1.2718,0.92154 1.14323,0.62984 1.6599,4.30766 0.75784,5.39456 -0.29917,0.36049 -0.67906,1.79611 -0.84418,3.19027 -0.2786,2.35244 -0.22377,2.53484 0.76186,2.53484 0.58414,0 1.06206,0.18313 1.06206,0.407 0,0.22387 1.84308,0.68833 4.09575,1.03215 5.25648,0.8023 5.89947,1.02044 4.59221,1.55796 -0.54609,0.22457 -1.7058,0.42399 -2.57709,0.44318 -0.87129,0.0191 -1.72226,0.2583 -1.891,0.53135 -0.16868,0.27305 -0.68461,0.49986 -1.14633,0.50405 -0.46171,0.004 -1.17351,0.21876 -1.58175,0.47686 -0.64183,0.40574 -0.61839,0.55983 0.17319,1.13863 0.6744,0.49313 0.96518,1.47995 1.10437,3.74789 0.10395,1.69319 0.52866,3.73543 0.94385,4.53834 0.96315,1.86253 0.96792,3.80345 0.009,4.17095 -0.53548,0.20548 -0.74467,1.04339 -0.74467,2.9828 0,2.52044 0.10639,2.75981 1.62487,3.65574 0.89368,0.52727 2.49408,1.09975 3.55644,1.27215 2.6535,0.43059 3.1996,1.09462 1.85751,2.2586 -1.36316,1.18226 -1.35855,1.24307 0.35037,4.61218 0.9285,1.83052 1.53704,3.97609 1.76009,6.20568 0.5421,5.41865 1.01899,6.476 3.09658,6.86576 0.9774,0.18332 2.14055,0.52225 2.58478,0.75308 0.44421,0.23085 2.11827,0.68422 3.72012,1.0075 4.28121,0.86404 4.31924,0.7842 3.66837,-7.70081 -0.3964,-5.16775 -0.38109,-8.66028 0.0597,-13.61739 0.56837,-6.39179 0.66386,-6.76587 2.31305,-9.06143 0.94612,-1.31694 1.72024,-2.50562 1.72024,-2.64151 0,-1.42023 7.95465,-5.80862 12.65958,-6.98395 1.63831,-0.40926 3.42554,-0.94837 3.97164,-1.198 1.39802,-0.63909 10.36931,-1.49776 15.64841,-1.49776 5.53568,0 16.78191,0.91316 18.11051,1.47053 0.54609,0.22908 2.72429,0.77246 4.84045,1.2075 4.9983,1.02753 7.61504,2.86001 9.14568,6.40463 0.61372,1.42121 1.12483,3.08971 1.13578,3.70778 0.0113,0.61808 0.22849,1.5117 0.48337,1.98582 0.25491,0.47413 0.70437,3.74663 0.99883,7.27222 0.29446,3.52559 0.78348,6.70911 1.08671,7.07447 1.0105,1.21757 2.41592,0.78682 2.74132,-0.8402 0.33284,-1.66431 2.12336,-3.31801 4.09889,-3.78571 0.70653,-0.16737 1.62259,-0.59591 2.03569,-0.95255 0.4131,-0.35663 1.86524,-0.92961 3.22695,-1.27327 4.18759,-1.0568 5.59787,-2.98931 5.29523,-7.25608 -0.1608,-2.26796 -0.34099,-2.64813 -1.3781,-2.90844 -1.83221,-0.45984 -1.56314,-2.34124 0.56727,-3.96617 1.48865,-1.13546 1.71349,-1.55567 1.45707,-2.72313 -0.51007,-2.32231 -0.4217,-4.38832 0.24826,-5.80455 1.06531,-2.25191 1.42737,-3.26601 1.74235,-4.87997 0.34338,-1.75952 2.32446,-3.85335 4.38109,-4.63039 2.27847,-0.86086 7.3403,-0.62042 10.80768,0.51337 1.75167,0.57278 3.40825,1.21374 3.6813,1.42435 0.27305,0.21062 1.67094,0.65828 3.10643,0.99479 1.7313,0.40586 2.9482,1.04183 3.61461,1.88903 0.55253,0.70243 1.89976,1.67794 2.99381,2.16774 1.44523,0.64707 2.20192,1.39968 2.76704,2.75223 0.77516,1.8552 0.77038,2.19034 -0.14523,10.2092 -0.14805,1.29699 -0.48431,2.35816 -0.74713,2.35816 -0.26281,0 -0.34433,0.21601 -0.18107,0.48003 0.16324,0.26403 2.39231,0.44506 4.95364,0.4023 2.6989,-0.045 4.93476,0.14654 5.31772,0.45554 0.36344,0.29331 1.40347,0.69219 2.31116,0.88639 4.14601,0.88707 7.71219,6.49746 6.08512,9.57329 -0.62766,1.18653 -2.03707,9.05612 -2.37722,13.27341 -0.15424,1.91136 -0.45074,3.6986 -0.65907,3.97164 -0.20835,0.27305 -0.85857,3.73583 -1.44493,7.69505 -0.58639,3.95922 -1.26141,7.64539 -1.50006,8.19149 -0.23864,0.54611 -0.55942,1.77483 -0.71283,2.7305 -0.68574,4.27162 -1.79645,9.09656 -2.21293,9.61299 -0.25033,0.31039 -0.90912,2.18204 -1.464,4.15922 -0.55486,1.97718 -1.47668,4.18964 -2.04848,4.91656 -0.95237,1.21074 -0.97651,1.41799 -0.28772,2.46922 0.85466,1.30439 0.97575,3.26947 0.27977,4.54028 -0.25969,0.47413 -0.61089,2.14676 -0.78046,3.71696 -0.31315,2.89985 -1.16929,4.34369 -2.57566,4.34369 -0.68861,0 -0.73764,0.87498 -0.42421,7.57094 0.19491,4.16401 0.56124,7.78316 0.81406,8.04256 0.25282,0.25939 0.45967,1.20887 0.45967,2.10992 0,1.54259 -0.10189,1.63831 -1.74432,1.63831 -0.95939,0 -2.18559,0.27556 -2.72492,0.61237 -0.82395,0.51457 -1.1363,0.45511 -1.95566,-0.37233 -0.85883,-0.86731 -1.0164,-1.97649 -1.32152,-9.30162 -0.24712,-5.93278 -0.53441,-8.47289 -1.00218,-8.86111 -0.40931,-0.33972 -3.7796,-0.57244 -8.96805,-0.6193 l -8.31229,-0.0751 -1.01038,1.53464 c -2.36088,3.58588 -6.7196,3.4405 -6.7196,-0.22411 0,-1.38358 -0.1593,-1.55875 -1.41813,-1.55875 h -1.41812 l -0.34518,4.57232 c -0.18983,2.51476 -0.53797,4.80465 -0.77364,5.08866 -0.23567,0.28399 -0.58547,2.10946 -0.7773,4.0566 -0.19186,1.94714 -0.52824,3.83054 -0.74751,4.18533 -0.22672,0.36685 -1.67993,0.73775 -3.36929,0.85995 -4.53227,0.32782 -4.47369,0.59532 -2.99755,-13.68777 0.38497,-3.72499 0.37767,-5.28255 -0.027,-5.77017 -0.30489,-0.36736 -1.891,-0.81915 -3.52471,-1.00397 -1.63371,-0.18482 -2.97038,-0.54839 -2.97038,-0.80787 0,-0.2595 -0.26168,-0.47181 -0.58148,-0.47181 -0.31981,0 -1.02264,-0.39096 -1.56185,-0.8688 -0.97423,-0.86335 -0.97843,-0.78621 -0.67142,12.32383 0.22972,9.80884 0.15911,13.34241 -0.27502,13.77662 -0.32155,0.32153 -1.96118,0.584 -3.64844,0.584 -3.00134,0 -3.10735,-0.0465 -5.1488,-2.26128 -1.14638,-1.24369 -2.31695,-2.92848 -2.60124,-3.74399 -0.49804,-1.42872 -0.55996,-1.45448 -1.70004,-0.70748 -2.292,1.50179 -18.12217,3.4208 -20.91262,2.53514 -1.06662,-0.33852 -1.58545,-1.39198 -2.07454,-4.21229 -0.27322,-1.57545 -0.42481,-1.69182 -2.27851,-1.74903 -1.46131,-0.045 -2.27183,0.23377 -3.06864,1.05585 -0.59738,0.61631 -2.00499,1.26459 -3.13987,1.44605 l -2.05708,0.32895 0.32837,2.38754 c 0.32493,2.36251 0.31188,2.3918 -1.24415,2.79501 -1.48799,0.38558 -1.58004,0.54758 -1.71293,3.01425 -0.14223,2.63937 -1.23579,4.57227 -2.58692,4.57227 -0.36726,0 -0.66774,0.19737 -0.66774,0.43858 0,0.24122 -0.61436,0.5933 -1.36525,0.78242 -2.25771,0.56862 -10.59363,1.0302 -13.77662,0.76288 z m 11.37061,-1.79275 c 0.79284,-0.37816 1.70019,-0.68758 2.01632,-0.68758 0.31615,0 1.06373,-0.4555 1.66132,-1.01226 0.8237,-0.76737 1.08468,-1.57798 1.07892,-3.35105 -0.0131,-3.96236 0.96247,-3.75489 -15.95012,-3.39275 -20.50051,0.43894 -34.36405,0.88572 -34.76812,1.12045 -0.18463,0.10733 -4.09423,0.31837 -8.68796,0.46909 -4.59373,0.15068 -8.49469,0.42701 -8.6688,0.61391 -0.17413,0.18689 -0.47774,0.87193 -0.67478,1.52226 l -0.35823,1.18241 6.81307,-0.35304 c 3.7472,-0.19418 7.22629,-0.43263 7.73132,-0.5299 0.50504,-0.0972 8.24283,-0.44253 17.19509,-0.76727 8.95224,-0.32472 16.50022,-0.76092 16.77326,-0.96935 0.27305,-0.2084 4.07093,-0.41341 8.43974,-0.45558 4.54007,-0.0439 8.01417,-0.28029 8.10874,-0.55197 0.32533,-0.93439 1.07566,-0.45385 1.07566,0.68887 0,1.3235 -1.15914,2.51578 -2.97872,3.06388 -0.68262,0.20561 -1.36305,0.56235 -1.51205,0.79271 -0.14898,0.23036 -2.27136,0.56593 -4.71634,0.7457 -6.18143,0.45451 -7.86901,1.53975 -4.04861,2.60355 2.15225,0.59929 9.68728,0.1184 11.47029,-0.73208 z m 55.63021,-8.01027 c 0.45837,-1.1927 -0.26359,-16.47072 -0.79384,-16.79843 -0.57454,-0.35508 -0.55221,-31.8421 0.0229,-32.1975 0.25861,-0.15987 0.20591,-0.80326 -0.12403,-1.51479 -0.46151,-0.99507 -0.93773,-1.23769 -2.43541,-1.2408 l -1.86169,-0.004 -0.027,11.04612 c -0.0559,22.88271 0.0878,40.77828 0.3306,41.17119 0.13828,0.2238 1.21969,0.40689 2.40309,0.40689 1.59101,0 2.23864,-0.22638 2.48555,-0.86879 z m -6.5648,-12.6596 c 0.2492,-23.5704 0.006,-38.10267 -0.65369,-38.89631 -0.52249,-0.62956 -0.69435,-0.64311 -1.00972,-0.0796 -0.20903,0.37353 -0.50917,11.36819 -0.66698,24.43258 -0.26282,21.75788 -0.21713,23.83055 0.54383,24.67141 0.45691,0.50489 1.01952,0.91797 1.25026,0.91797 0.23073,0 0.47207,-4.97075 0.5363,-11.04611 z m -69.0573,3.47517 c 0.0366,-3.89096 0.0188,-7.99959 -0.0401,-9.13029 -0.0604,-1.1622 0.14955,-2.21422 0.48279,-2.42023 0.37606,-0.23242 0.40912,-0.47675 0.0912,-0.67466 -0.29091,-0.18107 -0.62785,-4.649 -0.80961,-10.73584 -0.17132,-5.73404 -0.43791,-12.05787 -0.59262,-14.05294 l -0.28128,-3.6274 -1.56847,0.15217 -1.56853,0.15217 0.19422,15.63831 c 0.10677,8.60109 0.23941,16.19683 0.29463,16.87947 0.0552,0.68262 0.13547,4.31294 0.17807,8.06739 l 0.0777,6.82625 h 1.73758 1.73759 z m 3.98542,-16.3017 c -0.17619,-24.19462 -0.24459,-24.89824 -2.34262,-24.09313 -0.7752,0.29746 -0.82243,1.12046 -0.5382,9.3764 0.17131,4.97767 0.45247,15.30565 0.62466,22.95104 0.18614,8.26467 0.51958,14.15906 0.82243,14.53784 1.49167,1.86571 1.60052,0.13679 1.43373,-22.77215 z m 126.01859,22.75562 c -2.4e-4,-0.34131 -0.20705,-2.96632 -0.45961,-5.83335 -0.25256,-2.86703 -0.5892,-9.01064 -0.74809,-13.6525 -0.54332,-15.87313 -0.91859,-22.12069 -1.34456,-22.38397 -0.23432,-0.14485 -0.42605,-0.71288 -0.42605,-1.26238 0,-2.01358 -2.26398,-3.13225 -3.44911,-1.70424 -0.61864,0.74542 -0.39336,6.6251 0.50526,13.18746 0.24305,1.77481 0.44634,4.27494 0.45174,5.55582 0.006,1.28086 0.20876,2.45181 0.45188,2.60206 0.24314,0.1503 0.58466,4.68739 0.75894,10.0825 0.17431,5.39512 0.43586,10.75876 0.58128,11.91924 0.25336,2.02195 0.33556,2.10993 1.97157,2.10993 1.03498,0 1.707,-0.24436 1.70675,-0.62057 z m -37.71042,-6.57802 c 0.42042,-3.54965 0.89819,-6.78902 1.06172,-7.1986 0.63048,-1.57911 3.18905,-31.63973 2.73189,-32.09689 -0.16043,-0.16061 -1.08418,-0.14316 -2.05259,0.0385 l -1.76074,0.33031 v 3.37376 c 0,3.92965 -0.85718,11.2795 -1.48302,12.71603 -0.23791,0.54611 -0.57047,2.66845 -0.73905,4.71633 -0.52052,6.32406 -1.77344,15.59808 -2.21827,16.41938 -0.23267,0.4296 -0.58501,2.50945 -0.78295,4.6219 l -0.35993,3.84084 2.41927,-0.15386 2.41928,-0.15386 z m -68.77868,3.7234 c -0.16868,-0.27305 -0.71031,-0.49645 -1.20348,-0.49645 -0.49316,0 -1.48529,-0.46303 -2.20474,-1.02894 -0.71946,-0.56591 -1.30809,-0.81669 -1.30809,-0.55724 0,0.75872 1.37036,1.68313 3.1059,2.09514 0.88572,0.21027 1.67944,0.40519 1.76382,0.43312 0.0844,0.028 0.015,-0.17262 -0.15348,-0.44563 z m -65.07642,-1.11702 c 0.28147,-1.38952 1.28886,-22.76423 1.28492,-27.26364 -0.002,-1.82032 0.19808,-3.38415 0.44374,-3.47518 0.24565,-0.091 0.52489,-2.26901 0.62057,-4.84 0.19169,-5.1522 -0.0357,-5.55409 -2.55208,-4.51176 -1.79356,0.74293 -1.82135,0.96581 -2.72441,21.84587 -0.0886,2.04788 -0.32179,7.24203 -0.51831,11.54258 l -0.35726,7.81915 h 1.78829 c 1.45649,0 1.83024,-0.20725 2.01454,-1.11702 z m 33.14754,-0.42181 c 0.93659,-0.50125 0.99556,-0.85671 0.72075,-4.34397 -0.16456,-2.08893 -0.4456,-7.26083 -0.62438,-11.4931 -0.17882,-4.23229 -0.46198,-7.80676 -0.62929,-7.94329 -0.16737,-0.13659 -0.30881,-0.47162 -0.31448,-0.74467 -0.063,-3.04374 -0.83624,-14.77464 -1.05534,-16.01067 -0.22633,-1.27677 -0.52737,-1.61347 -1.44261,-1.61347 -1.62069,0 -1.82439,0.55848 -1.77986,4.87996 0.0751,7.29173 1.19279,26.64832 1.56718,27.14135 0.20733,0.27307 0.53868,2.61881 0.7363,5.21278 0.19764,2.59398 0.45896,4.88388 0.5807,5.08867 0.30993,0.52129 1.04969,0.464 2.24103,-0.17357 z m 52.57928,-1.24892 c 0.57582,-0.69383 0.53934,-0.77749 -0.27042,-0.62057 -0.51478,0.0998 -1.02894,0.46063 -1.1426,0.80194 -0.29487,0.88562 0.62553,0.76749 1.41302,-0.18145 z m -32.80541,-0.73556 c 3.50501,-0.75169 3.94446,-1.80299 2.73884,-6.5523 -0.4994,-1.96729 -1.07899,-3.80029 -1.28796,-4.07334 -0.20897,-0.27305 -0.86553,-2.5071 -1.459,-4.96456 -0.59348,-2.45743 -1.25251,-4.69149 -1.4645,-4.96454 -0.21199,-0.27304 -0.89897,-3.00976 -1.52659,-6.08155 -0.62765,-3.07182 -1.29659,-5.58513 -1.48659,-5.58513 -0.93437,0 -1.29949,14.815 -0.65879,26.7306 0.36927,6.86792 0.0938,6.57401 5.14459,5.49082 z m 40.12195,-1.5124 c 0.091,-0.23391 0.45463,-0.42528 0.80802,-0.42528 1.08375,0 2.00589,-1.43908 1.34537,-2.09958 -0.42653,-0.42653 -0.84815,-0.31331 -1.69173,0.45431 -0.61798,0.56233 -1.77984,1.23238 -2.58193,1.48899 -2.31016,0.73908 -2.27864,1.78476 0.0409,1.35852 1.05261,-0.19341 1.98831,-0.54305 2.07932,-0.77696 z m -20.396,-1.7311 c 0.61436,-0.16455 1.11702,-0.59976 1.11702,-0.96691 0,-0.65335 4.2427,-2.19536 6.0403,-2.19536 1.00565,0 6.91611,-2.93595 7.4805,-3.71586 0.2006,-0.27719 0.36814,-1.0086 0.37232,-1.62534 0.004,-0.61672 0.67782,-2.04651 1.49697,-3.17732 0.81916,-1.13081 1.48936,-2.23518 1.48936,-2.45419 0,-0.21899 0.97545,-1.80516 2.16767,-3.52481 4.1938,-6.04913 6.24775,-11.64032 4.80578,-13.08227 -0.26035,-0.26036 -0.53961,-2.22353 -0.62057,-4.3626 l -0.14711,-3.88923 -9.41574,0.0636 c -5.17865,0.0349 -9.53504,0.23371 -9.68087,0.44174 -0.1458,0.20801 -2.16407,0.42546 -4.48498,0.48322 -5.51163,0.13716 -12.43123,0.60177 -13.5284,0.90836 -0.78801,0.22021 -0.86879,1.11085 -0.86879,9.57955 0,9.19214 0.26804,11.17566 1.983,14.67437 0.81976,1.67242 1.98864,6.80673 1.98864,8.73517 0,2.33269 1.65302,3.53291 5.46099,3.96503 1.50178,0.17038 2.8422,0.33966 2.97873,0.37608 0.1366,0.0364 0.7509,-0.0685 1.36526,-0.23313 z m 33.85947,-13.58782 c -0.034,-8.05945 -0.24983,-13.90074 -0.51389,-13.90074 -0.25052,0 -0.45684,0.39096 -0.45853,0.8688 -10e-4,0.47783 -0.33428,1.50386 -0.7391,2.28006 -0.40485,0.7762 -1.06268,2.45173 -1.46188,3.72342 -1.21961,3.88518 -1.96095,5.68397 -3.38274,8.208 -0.74997,1.33139 -1.36357,2.61597 -1.36357,2.85463 0,0.23865 -0.17938,0.43392 -0.39839,0.43392 -0.46902,0 -2.08992,4.3302 -2.08635,5.57367 0.006,1.64816 4.60523,3.5686 9.08021,3.79042 l 1.38271,0.0685 z m -23.58178,11.67425 1.46561,-1.19785 -2.3344,0.83945 c -2.35765,0.84781 -3.0645,1.60697 -1.46563,1.57412 0.47783,-0.009 1.52834,-0.55689 2.33442,-1.21572 z m -22.82093,-4.53348 c 0.54639,-0.83391 0.62824,-1.22467 0.22861,-1.09145 -0.34236,0.11409 -0.80417,0.69865 -1.02624,1.29896 -0.53838,1.45536 -0.2413,1.37809 0.79763,-0.20751 z m 84.08154,0.85952 c 0.91563,-0.58026 0.51745,-2.24011 -0.58848,-2.4531 -0.92075,-0.17732 -2.27081,1.15676 -2.29918,2.27196 -0.0188,0.70364 1.87576,0.82243 2.88766,0.18107 z m -118.08092,-2.78752 c 0,-0.68262 -0.2234,-1.24114 -0.49645,-1.24114 -0.27306,0 -0.49646,0.55852 -0.49646,1.24114 0,0.68262 0.2234,1.24114 0.49646,1.24114 0.27305,0 0.49645,-0.55852 0.49645,-1.24114 z m 66.63401,-2.70865 c -0.29922,-2.03876 -0.60556,-1.90942 -0.60556,0.25568 0,0.97178 0.18614,1.65183 0.41369,1.51122 0.22752,-0.14054 0.31387,-0.93572 0.19187,-1.7669 z m 70.12268,1.19581 2.31714,-0.34747 -0.29515,-1.80035 c -0.16231,-0.99019 -0.4838,-3.88786 -0.71435,-6.43928 -0.58768,-6.50314 -0.61245,-6.522 -9.03263,-6.87845 -3.6606,-0.15499 -6.91502,-0.48621 -7.23201,-0.73608 -0.35623,-0.2808 -0.69925,-0.25551 -0.8981,0.0662 -0.17695,0.28632 -1.14631,0.53319 -2.15413,0.5486 -4.86713,0.0745 -6.68486,2.00097 -7.25134,7.68539 -0.18947,1.90125 -0.46886,4.18287 -0.62087,5.0703 -0.23191,1.35394 -0.12384,1.61346 0.67249,1.61346 0.52188,0 1.16474,0.21588 1.42857,0.47969 0.26384,0.26384 3.15693,0.5431 6.42908,0.62057 3.27217,0.0775 7.99348,0.21378 10.49178,0.30289 2.49833,0.0891 5.58511,0.006 6.85952,-0.18539 z m -34.25538,-1.87484 c 0.91529,-0.91531 1.85277,-9.88968 1.08515,-10.38806 -0.72758,-0.47237 -2.97437,-0.0259 -5.60513,1.11394 l -2.05428,0.89003 -0.35722,3.55714 c -0.19647,1.95641 -0.20323,3.71143 -0.015,3.90006 0.48921,0.49026 3.77614,1.47056 5.13683,1.53201 0.63387,0.0287 1.44821,-0.24368 1.80967,-0.60512 z m -102.96824,-0.6022 c 0.42627,-0.26346 0.49684,-1.86723 0.25877,-5.88122 -0.44078,-7.43189 -0.63615,-8.33053 -1.68905,-7.76976 -0.4583,0.24408 -4.68755,0.9014 -9.39831,1.46071 -5.45534,0.64772 -8.99913,1.30139 -9.76075,1.80041 -1.07185,0.7023 -1.23183,1.26476 -1.544,5.42877 -0.19156,2.55489 -0.17863,4.91971 0.0287,5.25511 0.28754,0.46523 2.88341,0.54561 10.94776,0.33902 5.81399,-0.14898 10.83463,-0.43381 11.15697,-0.63304 z m 147.63087,-0.35409 c 0.12778,-0.61438 0.3743,-2.63522 0.54786,-4.4908 0.3384,-3.61804 -0.11352,-4.81773 -1.81493,-4.81773 -0.79406,0 -0.93148,0.3861 -0.92782,2.60638 0.007,4.44057 0.56758,7.81917 1.29653,7.81917 0.36634,0 0.7706,-0.50266 0.89836,-1.11702 z m -177.26413,-0.49647 c 0.16455,-0.61436 0.30241,-2.7367 0.30613,-4.71632 0.006,-3.40588 -0.0533,-3.59888 -1.11023,-3.59169 -2.1896,0.015 -2.52208,0.63697 -2.23719,4.18594 0.17338,2.16009 0.56811,3.63617 1.14186,4.27017 1.13381,1.25285 1.53232,1.22178 1.89943,-0.14804 z m 102.58257,-7.57092 c 0,-0.68262 -0.22342,-1.24114 -0.49647,-1.24114 -0.27305,0 -0.49645,0.55852 -0.49645,1.24114 0,0.68262 0.2234,1.24114 0.49645,1.24114 0.27305,0 0.49647,-0.55852 0.49647,-1.24114 z m 20.53267,-0.25669 c 0.62747,-1.25784 0.64307,-1.69858 0.0972,-2.75069 -0.53444,-1.03014 -0.70493,-1.10968 -0.95908,-0.44738 -0.347,0.90429 -0.4255,4.6959 -0.0972,4.6959 0.11653,0 0.54811,-0.67403 0.95909,-1.49783 z m -61.63911,-2.57311 c -0.46337,-0.46335 -0.59575,-0.33097 -0.59575,0.59574 0,0.92672 0.13247,1.05912 0.59575,0.59575 0.46335,-0.46335 0.46335,-0.72812 0,-1.19149 z m 42.45558,-1.75558 c -0.11408,-0.75464 -0.21053,-0.25506 -0.21424,1.11018 -0.004,1.36527 0.0897,1.9827 0.20747,1.3721 0.11783,-0.61063 0.12083,-1.72765 0.008,-2.48228 z m -104.63816,2.04189 c 1.44406,-0.72039 1.58243,-0.97058 1.3042,-2.35815 -0.17112,-0.85375 -0.44556,-2.39004 -0.60972,-3.41397 -0.16419,-1.02395 -0.47848,-1.86171 -0.6985,-1.86171 -0.22002,0 -0.47072,-0.61436 -0.55711,-1.36526 -0.13585,-1.18052 -0.42184,-1.39883 -2.11371,-1.61347 -1.7543,-0.22256 -1.99894,-0.42789 -2.36617,-1.98581 -0.22527,-0.95569 -0.61077,-2.09573 -0.85665,-2.53343 -0.2459,-0.4377 -0.60447,-1.84541 -0.79683,-3.12822 -0.40943,-2.73026 0.42064,-3.72878 3.12165,-3.7552 1.53124,-0.015 1.61331,-0.11071 1.61042,-1.87751 -0.002,-1.02393 -0.35716,-2.53191 -0.78997,-3.35106 -0.54056,-1.0231 -0.91412,-3.74295 -1.19327,-8.68795 -0.40959,-7.2563 -1.27362,-14.00479 -1.97193,-15.402 -0.20795,-0.41613 -0.77976,-2.61547 -1.27065,-4.88746 -0.4909,-2.272 -1.17059,-4.2376 -1.51044,-4.36801 -0.97867,-0.37555 -3.51869,1.17068 -4.9017,2.98391 -1.18406,1.55237 -1.2668,2.02454 -1.2668,7.22813 0,7.0609 1.39055,16.54144 2.95615,20.15466 0.23663,0.54609 0.90403,3.3242 1.48312,6.17357 0.57906,2.84935 1.26408,5.43517 1.52225,5.74623 0.25817,0.31109 0.81189,2.19375 1.2305,4.18371 0.4186,1.98996 1.07195,4.20736 1.45188,4.92752 0.37994,0.72019 0.95323,2.31474 1.27395,3.54346 0.6969,2.66976 2.43126,6.45392 2.95798,6.45392 0.20674,0 1.10285,-0.36266 1.99135,-0.8059 z m 134.77841,-1.46362 c 0.56937,-0.56934 0.78014,-1.77772 0.78014,-4.47229 0,-3.48058 -0.0531,-3.65899 -0.92713,-3.11315 -0.5551,0.34668 -1.30218,0.41634 -1.86171,0.17356 -0.51401,-0.22297 -1.10212,-0.36992 -1.30691,-0.32658 -0.20478,0.0433 -0.37234,-0.36799 -0.37234,-0.91409 0,-1.0978 -0.51187,-1.27534 -1.32698,-0.46023 -0.65388,0.65387 -4.13401,0.9831 -4.13401,0.39109 0,-0.23502 -0.33512,-0.42731 -0.74469,-0.42731 -0.46335,0 -0.74467,0.46887 -0.74467,1.24114 0,0.68262 -0.2234,1.24114 -0.49647,1.24114 -0.27429,0 -0.49645,1.29738 -0.49645,2.89927 v 2.89926 l 2.10994,0.63618 c 1.16045,0.3499 2.33333,0.70313 2.60638,0.78496 1.69888,0.50906 6.21391,0.14804 6.9149,-0.553 z m 43.50614,-0.5851 c 0.38233,-0.75089 1.19968,-2.15465 1.81632,-3.11946 0.61665,-0.96482 1.4789,-2.97546 1.91611,-4.46809 0.43719,-1.49265 0.99804,-2.92611 1.2463,-3.18552 0.5976,-0.62442 0.57766,-1.76241 -0.031,-1.76241 -0.26524,0 -0.67288,0.72607 -0.90585,1.61348 l -0.42361,1.61347 h -3.43812 -3.43812 l 0.16024,4.46809 c 0.088,2.45745 0.27071,4.85905 0.40581,5.3369 0.3735,1.32119 1.91073,1.03767 2.69186,-0.49646 z m -158.64815,-1.13061 c 0.5461,-0.23743 1.43972,-0.52898 1.98584,-0.64791 0.54609,-0.11896 -0.86488,-0.24216 -3.13548,-0.27383 -3.96634,-0.0553 -6.04895,0.44102 -6.04895,1.44163 0,0.5469 5.69011,0.13603 7.19859,-0.51989 z m 148.25503,0.18107 c 0.5312,-0.6435 0.5446,-0.87144 0.0608,-1.03427 -0.42992,-0.14467 -0.62057,-1.4763 -0.62057,-4.33425 0,-3.14424 -0.17113,-4.19101 -0.71927,-4.40138 -0.45121,-0.17319 -0.84618,0.13078 -1.05983,0.81569 -0.18726,0.60042 -0.49716,1.20339 -0.68859,1.33991 -0.33487,0.23884 -2.00041,6.39446 -2.00041,7.39329 0,0.26788 0.72606,0.57718 1.61347,0.68731 0.88743,0.11014 1.86539,0.23597 2.17326,0.27967 0.30789,0.0437 0.86639,-0.29198 1.24114,-0.74597 z m -21.63427,-0.14016 c 0.25939,-0.25806 1.81205,-0.53732 3.45035,-0.62057 2.51625,-0.12797 2.95608,-0.28628 2.83285,-1.02018 -0.10114,-0.60194 0.18013,-0.86879 0.91529,-0.86879 0.64363,0 1.1633,-0.39066 1.32079,-0.9929 0.14373,-0.54955 0.67718,-0.99292 1.19466,-0.99292 0.60404,0 0.93501,-0.35146 0.93501,-0.99291 0,-0.5461 -0.20786,-0.9929 -0.46192,-0.9929 -0.25406,0 -0.53332,-0.48517 -0.62057,-1.07814 -0.20395,-1.38596 -1.20039,-1.72383 -1.51669,-0.51427 -0.34268,1.31043 -3.71448,1.327 -4.12922,0.0203 -0.45331,-1.42827 -1.21489,-1.06519 -1.21489,0.5792 0,1.51625 -0.41891,1.85647 -1.26594,1.02815 -0.55631,-0.54401 -2.28432,0.73208 -3.12925,2.31084 -0.31315,0.5851 -0.56935,1.86043 -0.56935,2.83406 0,1.37368 0.20017,1.77022 0.89362,1.77022 0.4915,0 1.10586,-0.21113 1.36526,-0.46919 z m -116.93988,-1.50423 c 0,-0.27811 -0.68638,-0.35337 -1.61349,-0.17694 -2.26248,0.43067 -2.33455,0.66095 -0.20685,0.66095 1.00119,0 1.82034,-0.21781 1.82034,-0.48404 z m -8.95761,-2.9511 c 0.48682,-0.90963 0.44252,-0.91923 -0.97543,-0.21186 -1.73173,0.86389 -1.86345,1.16475 -0.50998,1.16475 0.53649,0 1.20493,-0.42881 1.48541,-0.95289 z m 2.66166,0.26439 c 0.18538,-0.48299 -0.021,-0.61389 -0.69156,-0.43856 -1.09923,0.28746 -1.29606,1.12706 -0.26421,1.12706 0.38038,0 0.81046,-0.30983 0.95577,-0.6885 z m -7.80798,-1.16955 c -0.3443,-0.3443 -1.28618,0.35523 -1.28618,0.95522 0,0.32921 0.28487,0.29153 0.75669,-0.10001 0.41617,-0.34538 0.65445,-0.73023 0.52949,-0.85517 z m 10.87698,0.86513 c 0.16868,-0.27305 -0.0283,-0.49645 -0.43787,-0.49645 -0.40957,0 -0.88276,0.2234 -1.0515,0.49645 -0.16868,0.27305 0.0283,0.49645 0.43785,0.49645 0.40958,0 0.88276,-0.2234 1.05152,-0.49645 z m 107.97886,-3.47517 c 0,-0.27307 -0.2234,-0.49647 -0.49645,-0.49647 -0.27305,0 -0.49645,0.2234 -0.49645,0.49647 0,0.27305 0.2234,0.49645 0.49645,0.49645 0.27305,0 0.49645,-0.2234 0.49645,-0.49645 z m 23.82222,-1.36526 c 0.004,-0.34131 -0.2158,-0.62057 -0.48885,-0.62057 -0.27305,0 -0.49304,0.61436 -0.48885,1.36526 0.006,1.06386 0.11389,1.20085 0.48885,0.62057 0.2647,-0.40959 0.48468,-1.02395 0.48885,-1.36526 z m -159.1486,0.49644 c 0.20417,-0.20478 7.26042,-0.85053 15.68055,-1.435 8.42014,-0.58449 15.55096,-1.21204 15.8463,-1.39455 0.69525,-0.42969 0.69833,-4.38144 0.004,-5.07581 -0.37974,-0.37972 -1.11188,-0.25335 -2.54578,0.43943 -1.6318,0.78841 -2.54101,0.90493 -4.80386,0.61569 -3.70498,-0.47356 -27.18482,-0.57149 -27.64047,-0.11521 -0.3307,0.33108 0.58268,6.12856 1.09739,6.96551 0.1259,0.20481 0.62537,0.37235 1.10985,0.37235 0.48447,0 1.04791,-0.16756 1.25206,-0.37235 z m 56.88657,-0.86879 c 0,-0.43535 -0.45185,-0.74467 -1.08781,-0.74467 -1.06307,0 -1.06588,0.0169 -0.12402,0.72889 1.20856,0.91411 1.21192,0.91415 1.21192,0.015 z m 54.11354,-0.49645 c 0,-0.40957 -0.2234,-0.74467 -0.49645,-0.74467 -0.27305,0 -0.49647,0.3351 -0.49647,0.74467 0,0.40958 0.22342,0.74469 0.49647,0.74469 0.27305,0 0.49645,-0.33511 0.49645,-0.74469 z m 1.48936,-1.09219 c 0,-1.1322 -0.17581,-1.65595 -0.45826,-1.36526 -0.41588,0.42802 -0.18389,3.20214 0.26791,3.20214 0.1047,0 0.19035,-0.82661 0.19035,-1.83688 z m 70.46662,0.17807 c 0.24306,-0.6393 0.59323,-2.17133 0.77816,-3.4045 0.40271,-2.68552 0.33951,-2.72457 -5.14962,-3.18237 l -3.87856,-0.32344 -1.14659,1.61023 c -0.63064,0.88565 -1.95115,1.93636 -2.93452,2.3349 -3.7986,1.53959 -4.51839,1.90008 -4.51839,2.26295 0,0.47815 -0.6872,0.36095 6.45392,1.10073 9.45922,0.97995 9.87761,0.9639 10.3956,-0.3985 z m -51.14013,-0.40329 c 5.37064,-1.73519 6.23478,-2.88572 4.95266,-6.59405 -0.6708,-1.9402 -0.78799,-2.0234 -3.05571,-2.16891 l -2.35816,-0.15123 v 3.25416 3.25416 h -1.69698 c -0.93336,0 -2.05038,0.13566 -2.48228,0.30134 -0.7913,0.30363 -1.06801,1.73273 -0.45432,2.34641 0.51485,0.51486 3.13816,0.39034 5.09479,-0.24181 z m 13.68774,-0.92773 c 0.27305,-0.20389 1.61348,-0.51368 2.97873,-0.68844 1.36526,-0.17469 3.26419,-0.51277 4.21986,-0.75116 1.45383,-0.36267 1.53085,-0.44174 0.47165,-0.48426 -0.69629,-0.028 -1.49884,-0.2837 -1.78347,-0.56831 -0.35902,-0.35904 -0.7121,-0.28301 -1.15299,0.24822 -0.76133,0.91736 -2.07466,0.99221 -2.90149,0.16531 -0.46951,-0.46948 -0.76779,-0.36127 -1.36859,0.49647 -0.82087,1.17196 -2.41553,1.45859 -2.98537,0.53658 -0.23649,-0.38264 -0.49031,-0.30273 -0.80085,0.25217 -0.25004,0.4468 -0.31714,1.03481 -0.14917,1.30672 0.3093,0.50042 2.55953,0.16774 3.47163,-0.51336 z m -75.70933,-0.44508 c 8.60109,-0.28571 19.88302,-0.70817 25.07096,-0.9388 5.18796,-0.23064 14.63039,-0.46481 20.98317,-0.52039 6.35279,-0.0555 12.11775,-0.31669 12.81099,-0.58026 1.14008,-0.43346 1.246,-0.70461 1.10906,-2.8393 l -0.15142,-2.36009 -2.73051,0.004 c -1.50178,10e-4 -5.07625,0.1638 -7.94328,0.36014 -2.86701,0.19642 -7.89362,0.50405 -11.17022,0.68364 -3.2766,0.17957 -6.25936,0.56632 -6.62833,0.85943 -0.44916,0.35677 -7.42241,0.56148 -21.09934,0.61941 -22.05607,0.0934 -41.93239,0.60486 -44.58454,1.14728 -1.83347,0.37499 -2.20167,1.19862 -1.43603,3.21239 l 0.51179,1.3461 9.80967,-0.23655 c 5.39533,-0.13003 16.84693,-0.47029 25.448,-0.75599 z m 70.9777,-1.25275 c 0.5616,-1.04937 0.50942,-1.50026 -0.38782,-3.35107 l -1.03673,-2.13855 -0.0315,2.23404 c -0.0169,1.22873 -0.16625,2.73671 -0.33088,3.35107 -0.4165,1.55415 0.94296,1.48152 1.78695,-0.0955 z m 25.52166,-0.98158 c 0.85274,-0.38032 2.16437,-0.8283 2.91475,-0.99551 0.84832,-0.18904 1.86214,-1.0563 2.68061,-2.2931 1.27153,-1.92143 1.30587,-2.16035 1.00952,-7.02477 -0.16869,-2.76962 -0.53724,-5.26613 -0.8189,-5.54781 -0.28168,-0.28166 -0.51214,-1.04063 -0.51214,-1.6866 0,-2.2464 -0.80087,-3.02481 -2.84732,-2.76753 -1.80542,0.22699 -1.99567,0.0961 -5.59241,-3.84737 -4.2916,-4.7053 -4.92279,-5.66185 -4.94694,-7.49693 -0.0225,-1.7084 -0.43958,-1.93797 -3.61497,-1.98978 -1.43457,-0.0235 -2.85802,-0.237 -3.16321,-0.47464 -0.77375,-0.60248 -4.8864,4.31395 -5.91893,7.07577 -0.44941,1.20207 -1.00673,2.6324 -1.23847,3.1785 -0.53835,1.26855 -0.86525,3.0198 -1.47379,7.89544 -0.60389,4.83826 -0.3398,5.26061 3.28941,5.26061 2.5206,0 3.35978,-0.50784 2.11275,-1.27853 -0.36766,-0.22723 -0.44877,-1.26479 -0.23866,-3.0526 0.2438,-2.07423 0.17075,-2.65992 -0.31181,-2.5014 -0.34658,0.11389 -0.7032,0.85993 -0.79246,1.65804 -0.16175,1.44657 -1.07884,2.97539 -1.07884,1.79859 0,-0.32767 -0.32191,-0.59574 -0.71536,-0.59574 -1.12892,0 -1.32363,-0.77693 -0.56242,-2.24415 0.71189,-1.37217 0.54715,-2.66866 -0.42359,-3.33336 -0.35805,-0.24517 -0.32923,-0.36724 0.0878,-0.37235 0.34131,-0.004 0.62399,-0.51026 0.62817,-1.12462 0.0131,-2.05292 0.62748,-2.46056 2.38422,-1.58419 0.86891,0.43346 1.57981,0.99515 1.57981,1.24821 0,0.25305 0.24477,0.46009 0.54394,0.46009 0.29916,0 1.21008,0.47434 2.02427,1.0541 1.64494,1.1713 1.63205,2.47068 -0.0484,4.87309 -1.10375,1.57796 -1.57104,3.90379 -0.83421,4.15201 1.06926,0.36021 2.28599,-0.27899 2.28599,-1.20092 0,-0.51424 0.2234,-0.935 0.49645,-0.935 0.69534,0 0.62823,-6.75284 -0.0782,-7.88425 -0.8193,-1.3119 -0.17038,-2.64562 1.19314,-2.45202 1.03943,0.14767 1.15466,0.52116 1.6157,5.23744 0.36071,3.68987 0.73401,5.31398 1.36526,5.93973 0.53955,0.53483 0.86879,0.63276 0.86879,0.25839 0,-0.83331 4.01002,-0.78162 5.65716,0.073 1.23178,0.63907 1.09323,0.69399 -2.54964,1.01087 -6.2453,0.54323 -15.7274,1.87753 -16.26357,2.28858 -0.27304,0.20933 -1.39464,0.52854 -2.49243,0.70934 -3.82046,0.62924 -3.88214,0.91376 -1.04804,4.83553 1.21919,1.68709 1.82673,2.17239 2.22325,1.77586 0.3964,-0.3964 0.87292,-0.39647 1.74248,-2.6e-4 0.93871,0.4277 1.43313,0.37987 2.29209,-0.22179 0.89871,-0.62946 1.33102,-0.65967 2.40927,-0.16831 1.15376,0.52568 1.39793,0.47238 2.00178,-0.43708 0.83028,-1.25044 1.4379,-1.29979 2.6375,-0.21417 1.04915,0.94948 1.18503,2.65703 0.2873,3.61056 -0.51453,0.54653 0.25964,0.60477 4.53114,0.3409 2.83344,-0.17507 5.8494,-0.62941 6.70215,-1.00973 z m 20.14834,-4.01159 c 0.29316,-2.45746 0.73385,-4.91489 0.97929,-5.46101 0.75184,-1.67278 1.44041,-5.27663 1.75484,-9.18441 0.43353,-5.38831 1.32947,-11.58791 1.75775,-12.16313 0.48544,-0.65196 1.48471,-6.55455 1.48471,-8.77001 0,-2.15499 -2.59279,-5.29542 -4.46809,-5.41181 -4.20144,-0.26079 -4.35738,-0.17488 -5.24136,2.88748 -0.45321,1.57003 -1.02209,3.24088 -1.2642,3.71295 -0.24208,0.47209 -0.92577,3.26465 -1.51933,6.2057 -0.59353,2.94103 -1.22123,5.45903 -1.39487,5.59556 -0.3399,0.26721 -1.99669,6.90049 -2.00176,8.0143 -10e-4,0.37051 -0.37178,1.34386 -0.82244,2.16302 -0.94397,1.7158 -1.60977,11.17022 -0.78663,11.17022 1.67326,0 9.37144,1.62712 9.94319,2.10164 0.43725,0.36287 0.62531,1.26264 0.51208,2.44995 -0.3667,3.84523 0.55403,0.98813 1.06682,-3.31045 z m -37.21495,3.47517 c 0,-0.40957 -0.2234,-0.74467 -0.49647,-0.74467 -0.27305,0 -0.49645,0.3351 -0.49645,0.74467 0,0.40959 0.2234,0.74469 0.49645,0.74469 0.27307,0 0.49647,-0.3351 0.49647,-0.74469 z m 4.96454,-0.74467 c 0,-0.27305 -0.3351,-0.49645 -0.74468,-0.49645 -0.40957,0 -0.74469,0.2234 -0.74469,0.49645 0,0.27305 0.33512,0.49645 0.74469,0.49645 0.40958,0 0.74468,-0.2234 0.74468,-0.49645 z m -126.77599,-2.31969 c 2.67836,-2.04287 4.27028,-5.63436 4.54753,-10.25951 0.28742,-4.79465 -1.25232,-15.69753 -2.27214,-16.08886 -0.37389,-0.14354 -1.52748,0.019 -2.56353,0.36083 -1.76213,0.58156 -1.88051,0.74512 -1.83362,2.53356 0.061,2.32333 -0.76681,3.39574 -1.897,2.45777 -0.42115,-0.34953 -0.76573,-1.16665 -0.76573,-1.81585 0,-1.08908 -0.19645,-1.18035 -2.54097,-1.18035 h -2.54097 l 0.2355,6.3298 c 0.16568,4.45162 0.48628,6.89812 1.08069,8.24516 1.00288,2.27272 0.59337,3.03162 -0.74506,1.3807 -0.7288,-0.89895 -0.95018,-1.96206 -0.95018,-4.5629 0,-1.865 -0.22339,-3.52895 -0.49646,-3.69771 -0.27305,-0.16869 -0.49987,-1.46651 -0.50405,-2.88392 -0.0113,-3.66405 -0.40451,-4.07715 -3.8215,-4.00985 -5.97985,0.11784 -9.05593,1.36515 -10.87923,4.4115 -0.75336,1.25871 -0.87056,2.44855 -0.75674,7.68291 0.13173,6.05422 0.80637,9.02649 2.28316,10.05774 0.28728,0.2006 1.79244,0.36816 3.34479,0.37234 2.77745,0.008 2.83252,-0.0201 3.4508,-1.72998 0.34559,-0.95569 0.84409,-1.73759 1.10779,-1.73759 0.2637,0 0.33191,-0.14767 0.15161,-0.32793 -0.18032,-0.18032 -0.75323,0.057 -1.27304,0.52739 -0.91471,0.82777 -0.95612,0.77535 -1.28681,-1.62904 -0.18792,-1.36639 -0.18688,-2.97211 0.002,-3.56829 0.23103,-0.72793 0.16531,-0.97353 -0.19993,-0.74775 -0.34185,0.21126 -0.43321,0.0475 -0.24588,-0.4406 0.164,-0.42725 0.0188,-1.11325 -0.32243,-1.52447 -0.50527,-0.60881 -0.45519,-0.93034 0.26963,-1.73127 0.4896,-0.54097 1.17843,-0.98359 1.53078,-0.98359 0.35234,0 1.4687,1.67552 2.48083,3.7234 1.01211,2.04788 2.03516,3.72342 2.27344,3.72342 0.2383,0 0.62562,0.50598 0.86076,1.12441 0.57879,1.52235 4.94197,6.32098 6.21642,6.83685 2.03593,0.8241 4.27816,0.51017 6.05924,-0.84832 z m -3.30387,-11.10094 c -0.39826,-0.74415 -0.37407,-1.46854 0.0921,-2.75762 0.51268,-1.41778 0.51219,-1.82253 -0.002,-2.14067 -0.74085,-0.45787 -0.32548,-2.70395 0.64972,-3.51328 0.9019,-0.74852 2.24826,-0.0876 2.24826,1.1036 0,0.55505 -0.39096,1.29506 -0.86879,1.64448 -0.81594,0.59663 -0.79999,0.70853 0.26226,1.83925 1.19308,1.27 1.11559,2.32748 -0.29056,3.9647 -0.96782,1.12691 -1.4287,1.09593 -2.09038,-0.14054 z m 23.59034,11.43482 c 0.41974,-0.67913 2.23406,-0.62976 2.23406,0.0608 0,0.38212 0.23678,0.36075 0.75343,-0.0681 0.57713,-0.47898 6.06651,-0.65117 23.45748,-0.73589 12.48723,-0.0608 26.72533,-0.37649 31.64024,-0.70152 13.68081,-0.90467 14.23109,-1.0167 12.41135,-2.52695 -0.40957,-0.33992 -0.74469,-1.12383 -0.74469,-1.74204 0,-0.82965 -0.35752,-1.19483 -1.36524,-1.39443 -4.51793,-0.89496 -4.83507,-1.06381 -4.99178,-2.6578 -0.12516,-1.27315 -0.41513,-1.59209 -1.67689,-1.84445 -1.46893,-0.29378 -1.51376,-0.37878 -1.20802,-2.29064 0.29961,-1.87372 0.24724,-1.98555 -0.92952,-1.98555 -0.68585,0 -1.40896,-0.0169 -1.60693,-0.0373 -0.89812,-0.0929 -0.52722,1.07245 1.08926,3.42243 0.96412,1.40157 1.75917,2.72127 1.76675,2.93264 0.008,0.21138 0.67782,1.26188 1.48936,2.33444 0.81157,1.07259 1.47556,2.21072 1.47556,2.52917 0,0.68608 -9.84635,1.22534 -22.42319,1.2281 -4.75649,0.001 -8.3446,0.20166 -8.43973,0.47183 -0.0953,0.27067 -5.63988,0.57485 -13.0733,0.71722 -7.0993,0.13604 -13.63389,0.39922 -14.52131,0.58498 -2.35687,0.49335 -2.08705,-0.49164 1.11927,-4.08584 2.68858,-3.01385 3.66831,-4.64845 1.74038,-2.90369 -1.26579,1.14554 -5.61695,1.5984 -7.20283,0.74966 -1.01977,-0.54577 -1.35917,-0.48513 -2.57355,0.45986 -0.76938,0.59869 -2.34834,1.78837 -3.50882,2.64374 -1.16046,0.85536 -2.10991,1.7356 -2.10991,1.95609 0,0.22049 -0.26487,0.40089 -0.58858,0.40089 -0.68172,0 -2.88662,1.96215 -2.88662,2.56882 0,0.59285 10.30554,0.5093 10.67377,-0.0865 z m -3.6241,-3.07803 c -1.45852,-1.45849 0.0388,-2.87943 3.03423,-2.87943 2.24751,0 3.05127,0.94385 2.03696,2.39199 -0.85498,1.22065 -4.03255,1.52609 -5.07119,0.48744 z m 82.54133,-0.46316 c 0.50662,-0.46903 -5.8065,-7.1891 -7.1687,-7.63079 -0.41554,-0.13473 -1.28698,-1.02724 -1.93652,-1.98332 -1.00826,-1.48407 -1.46216,-1.73834 -3.10285,-1.73834 -1.59086,0 -1.92183,0.17094 -1.92183,0.9929 0,0.82596 0.33097,0.99291 1.96836,0.99291 1.44317,0 2.10652,0.25819 2.48626,0.96774 0.28485,0.53225 1.13049,1.26041 1.87918,1.61812 0.75036,0.35852 1.43082,1.13728 1.51629,1.73532 0.0923,0.6456 0.41434,0.98542 0.79537,0.8392 0.35218,-0.1351 1.03849,0.36201 1.52515,1.10475 0.69615,1.06243 0.76475,1.54276 0.32166,2.25223 -0.99149,1.58765 -0.68198,1.97429 1.29854,1.62223 1.02393,-0.18201 2.07653,-0.52985 2.33909,-0.77295 z m -56.08031,-1.42337 c 0,-0.99121 -5.13213,-0.73191 -6.20567,0.31356 -0.65465,0.63749 -0.32448,0.70741 2.73048,0.57816 2.69275,-0.11389 3.47519,-0.3147 3.47519,-0.89172 z m 60.44335,0.66412 c -0.34131,-0.13772 -0.89983,-0.13772 -1.24114,0 -0.34131,0.13773 -0.0621,0.2504 0.62057,0.2504 0.68262,0 0.96188,-0.11277 0.62057,-0.2504 z m -52.38144,-1.26125 c 1.04422,-0.86287 0.25328,-1.26865 -2.21908,-1.13847 -1.30219,0.0687 -2.53521,0.15199 -2.74,0.18539 -0.61321,0.10019 -0.42039,1.44679 0.24825,1.73364 0.84303,0.36169 3.95188,-0.15348 4.71083,-0.78064 z m 5.50101,0.0272 c -0.34945,-2.34885 -3.38559,-2.51958 -3.38559,-0.19039 0,1.10994 0.20696,1.25673 1.77211,1.25673 1.53106,0 1.75053,-0.14504 1.61348,-1.06634 z m 36.61961,0.56987 c 0.71431,0 1.20051,-0.28972 1.20051,-0.71538 0,-1.12704 -0.87404,-1.3825 -2.31948,-0.67791 -1.51286,0.73747 -2.33977,2.25986 -0.9346,1.72064 0.46917,-0.17994 1.39326,-0.32735 2.05357,-0.32735 z m 19.86748,-1.622 c 0.32091,-0.32091 -1.31349,-3.34253 -1.80801,-3.34253 -0.78672,0 -4.1024,4.64779 -3.64324,5.10695 0.26575,0.26575 4.93114,-1.24433 5.45125,-1.76442 z m -42.7947,1.32415 c 0.59464,-0.22818 0.65812,-0.51848 0.27136,-1.24114 -0.40143,-0.75008 -1.0605,-0.94327 -3.21787,-0.94327 -2.29984,0 -2.71303,0.13867 -2.71303,0.91015 0,0.5006 0.14898,1.05912 0.33097,1.24114 0.41196,0.41198 4.27869,0.43599 5.32857,0.0332 z m 10.63163,-1.06739 c -0.21109,-1.11388 -3.87979,-1.57254 -3.87979,-0.48506 0,1.06034 0.51016,1.35386 2.35318,1.35386 1.34246,0 1.6573,-0.1792 1.52661,-0.8688 z m -44.11218,-1.57691 c 0.64984,-1.21427 0.21398,-1.52594 -2.13403,-1.52594 -1.75633,0 -3.80559,1.04465 -3.80301,1.93866 4.5e-4,0.1625 1.22824,0.33833 2.7284,0.39079 2.18665,0.0766 2.82295,-0.0829 3.20864,-0.80351 z m 15.81782,-1.17721 c 0.15254,-0.79952 -0.18239,-0.87704 -3.21671,-0.74468 -2.79657,0.12197 -3.41654,0.30328 -3.55708,1.04015 -0.15255,0.79952 0.18238,0.87703 3.21671,0.74467 2.79655,-0.12196 3.41654,-0.30328 3.55708,-1.04014 z m 9.9145,-0.27923 c -0.2162,-1.1382 -5.35813,-1.49169 -5.35813,-0.36833 0,1.11 1.22256,1.59165 3.49098,1.37532 1.54816,-0.14767 1.98556,-0.38355 1.86715,-1.00699 z m 27.78022,1.10696 c 1.6579,-0.4443 1.40596,-1.6729 -0.34304,-1.6729 -1.5262,0 -2.28965,0.64351 -1.7669,1.48936 0.35387,0.57257 0.5837,0.59255 2.10994,0.18351 z m -70.91871,-1.93274 c 2.04646,-1.47023 3.44737,-3.12201 2.91611,-3.43831 -0.0747,-0.0445 -1.58539,-0.36737 -3.35713,-0.71758 -1.77174,-0.35018 -3.44727,-0.78267 -3.72342,-0.96109 -0.87374,-0.56452 -3.94288,-1.5583 -4.83659,-1.56607 -1.40526,-0.0131 -1.68852,2.32499 -0.4425,3.65129 0.57948,0.61686 1.05362,1.60981 1.05362,2.20657 0,1.266 0.60996,1.39995 1.49867,0.32913 0.949,-1.14349 3.96233,0.15949 3.96233,1.71335 0,0.80094 0.28395,0.68292 2.92891,-1.21729 z m 55.06349,0.8804 c -0.18557,-0.97325 -1.78074,-1.35655 -2.82543,-0.67892 -1.03635,0.67225 -0.19094,1.54772 1.49456,1.54772 1.15731,0 1.45893,-0.19691 1.33087,-0.8688 z m 12.42172,-1.52863 c -0.54047,-0.0899 -1.32671,-0.0313 -1.74718,0.13003 -0.61029,0.23419 -0.64314,0.43958 -0.16287,1.01823 0.52416,0.63156 0.74903,0.61483 1.74718,-0.13003 1.09148,-0.81448 1.09917,-0.86257 0.16287,-1.01823 z m -41.90859,0.11033 c 1.56727,-0.60143 0.72936,-1.18802 -1.69698,-1.18802 -1.8755,0 -2.48228,0.18201 -2.48228,0.74467 0,0.77545 2.59614,1.05084 4.17926,0.44335 z m 69.18091,-1.68854 c 0.41339,-5.38301 1.79799,-11.28781 3.15239,-13.44368 0.78695,-1.25264 1.43082,-2.44285 1.43082,-2.64496 0,-0.47005 -15.96874,0.20644 -16.63123,0.70456 -0.27304,0.20529 -3.06562,0.87463 -6.20569,1.48741 -3.14008,0.61278 -5.99425,1.34243 -6.34264,1.62142 -0.44702,0.35803 -1.25044,0.20569 -2.7305,-0.51772 -1.56757,-0.76622 -3.44465,-1.0906 -7.43397,-1.28475 l -5.33688,-0.25974 v 2.67336 c 0,1.47036 -0.19674,2.79496 -0.43719,2.94357 -0.24044,0.14861 -0.54766,0.84813 -0.68268,1.55451 -0.33315,1.74273 0.38493,1.95684 9.06314,2.7023 3.95922,0.34009 7.41083,0.81427 7.67021,1.05369 0.65073,0.60066 5.60457,0.55008 5.98228,-0.0612 0.16869,-0.27305 0.66052,-0.49645 1.0928,-0.49645 1.82958,0 7.59516,-2.06332 7.59516,-2.71808 0,-0.37961 0.45399,-0.83429 1.00887,-1.0104 0.55487,-0.176 1.52051,-0.80552 2.14584,-1.3987 4.63601,-4.39752 5.69767,-5.23776 5.90524,-4.6735 0.39524,1.07441 -0.53176,7.96151 -1.43317,10.64786 -0.75347,2.24545 -0.77732,2.75295 -0.18163,3.86587 0.95974,1.79328 2.20403,1.4017 2.36891,-0.74548 z m -58.21831,0.99697 c 0.17469,-0.28268 -0.25282,-0.49645 -0.9929,-0.49645 -0.74007,0 -1.16762,0.21377 -0.99291,0.49645 0.16868,0.27305 0.61556,0.49645 0.99291,0.49645 0.37734,0 0.82416,-0.2234 0.9929,-0.49645 z m 12.0192,-0.68009 c -0.24871,-0.74614 -4.43426,-0.72717 -4.68372,0.0212 -0.10677,0.32026 0.32144,0.65707 0.95154,0.74847 1.84739,0.26798 3.93458,-0.1625 3.73218,-0.76971 z m 9.57658,-0.0646 c -0.64959,-0.7827 -2.97872,-1.04149 -2.97872,-0.33097 0,0.75105 0.64259,1.07566 2.12935,1.07566 1.24806,0 1.37502,-0.11126 0.84937,-0.74469 z m -47.91139,-2.07319 c 4.24306,0.98149 3.85541,1.0802 6.38703,-1.6263 1.30676,-1.39703 2.29144,-2.79346 2.1882,-3.10319 -0.1032,-0.30973 -1.0688,-0.61336 -2.14566,-0.67476 -1.68017,-0.0957 -2.59186,0.32692 -6.42604,2.97935 -2.45745,1.70002 -4.54131,3.46846 -4.63077,3.92985 -0.13191,0.68 0.19657,0.59511 1.73408,-0.44828 1.08716,-0.73776 2.32204,-1.18879 2.89316,-1.05667 z m 54.63395,0.79903 c 0.17995,-0.29121 0.23926,-0.61746 0.13173,-0.72499 -0.341,-0.34099 -2.38619,0.35833 -2.38619,0.81592 0,0.62126 1.86069,0.54621 2.25446,-0.091 z m -43.95665,-0.95987 c 0,-0.27305 -0.65703,-0.49645 -1.46005,-0.49645 -0.80305,0 -1.59816,0.2234 -1.7669,0.49645 -0.18257,0.29545 0.40856,0.49644 1.46005,0.49644 0.97179,0 1.7669,-0.2234 1.7669,-0.49644 z m 20.75831,-0.37235 c -0.091,-0.47783 -0.66596,-0.94019 -1.27754,-1.02744 -0.84454,-0.12046 -1.11196,0.0884 -1.11196,0.86879 0,0.77278 0.31668,1.02744 1.27755,1.02744 0.94882,0 1.23492,-0.22355 1.11195,-0.86879 z m 10.92201,-0.24822 c 0.13266,-0.69623 -0.1867,-0.8688 -1.60842,-0.8688 -1.19954,0 -1.77399,0.22776 -1.77399,0.70332 0,1.45895 3.1069,1.61095 3.38241,0.1655 z m 37.82333,-0.18051 c 0,-1.26542 -0.0584,-1.28897 -2.35816,-0.95207 -1.297,0.19 -2.57039,0.55047 -2.8298,0.80106 -0.25939,0.25059 -0.92961,0.48204 -1.48936,0.51435 -1.7605,0.1017 1.74047,0.81121 4.31916,0.87544 2.2267,0.0555 2.35816,-0.0131 2.35816,-1.23878 z m 13.813,-0.0266 c -0.24155,-1.24548 -1.40164,-1.41651 -1.40164,-0.20663 0,0.60982 0.32055,1.03429 0.78109,1.03429 0.46232,0 0.71557,-0.33778 0.62055,-0.82766 z m 23.04841,-0.92179 c 0.13172,-0.68913 0.046,-1.37254 -0.19036,-1.51865 -0.23642,-0.14617 -0.42988,0.41772 -0.42988,1.25298 0,1.84304 0.29458,1.96922 0.62024,0.26567 z m -99.73879,-0.15254 c 0.93546,-1.03367 0.63173,-1.57668 -0.87566,-1.5656 -1.51021,0.0113 -2.46461,0.76912 -2.11512,1.67988 0.40929,1.06662 1.97626,1.00675 2.99078,-0.11427 z m 18.44469,-1.07674 c 0.17901,-0.28963 -0.32581,-0.49645 -1.21183,-0.49645 -0.83528,0 -1.51867,0.2234 -1.51867,0.49645 0,0.27305 0.54532,0.49645 1.21183,0.49645 0.66652,0 1.34991,-0.2234 1.51867,-0.49645 z m -20.86895,-1.51826 c 0.2327,0.37651 0.55317,0.40866 0.93285,0.0936 0.3181,-0.26398 1.35937,-0.5727 2.31395,-0.68601 0.95458,-0.11334 -0.009,-0.22235 -2.14326,-0.24232 -3.3309,-0.0311 -3.75213,0.0563 -2.98186,0.6196 0.58505,0.42779 1.00597,0.47952 1.2104,0.14879 0.20605,-0.33337 0.43489,-0.31061 0.66792,0.0664 z m 98.31586,0.0289 c 0.16869,-0.27305 1.28578,-0.49645 2.48228,-0.49645 1.19648,0 2.32542,-0.24267 2.50872,-0.53925 0.23516,-0.38051 -0.74268,-0.44089 -3.32176,-0.20512 -3.97906,0.36377 -4.1603,0.42332 -3.67546,1.2078 0.41278,0.66787 1.60175,0.68746 2.00622,0.033 z m -79.03137,-1.04662 c 4.81999,-0.74274 5.30786,-1.05558 5.30786,-3.40348 0,-1.97061 -0.98254,-3.49317 -2.25421,-3.49317 -0.38167,0 -1.56851,-0.45586 -2.63743,-1.01301 -2.74503,-1.43078 -9.98198,-1.94508 -10.95041,-0.7782 -0.37534,0.45226 -0.58724,0.91748 -0.47089,1.03384 0.11634,0.11633 1.99127,0.26952 4.16649,0.34039 4.2057,0.13697 7.38369,1.06234 7.04587,2.05146 -0.11258,0.32976 -1.07755,0.6031 -2.14429,0.60744 -1.44982,0.006 -1.89814,0.19274 -1.77562,0.73998 0.24065,1.07474 1.17001,1.53271 2.48264,1.22335 0.91932,-0.21664 1.12056,-0.0901 0.97895,0.61564 -0.15104,0.75311 -0.68819,0.88223 -3.5287,0.84821 -3.47614,-0.0417 -4.36786,0.73548 -1.54521,1.34663 0.79663,0.17243 1.51732,0.34003 1.60153,0.37234 0.0842,0.0323 1.75977,-0.18884 3.72342,-0.49142 z m -91.02178,-0.90656 c 0.78109,-1.45951 0.63308,-1.88091 -0.78581,-2.23702 -1.72088,-0.43192 -1.91848,-0.13435 -1.11559,1.67942 0.78111,1.76468 1.19104,1.8849 1.9014,0.5576 z m 36.54374,-5.29587 c -0.67891,-3.28287 -2.25834,-6.65167 -3.11856,-6.65167 -0.15592,0 -0.15329,1.09996 0.006,2.44436 0.29911,2.52556 1.07615,4.32751 2.28016,5.28763 0.46671,0.37215 0.58158,1.0003 0.35097,1.9191 -0.21465,0.85527 -0.10282,1.65713 0.29913,2.14499 0.56946,0.69114 0.65994,0.65716 0.80129,-0.30101 0.0876,-0.59407 -0.19089,-2.7736 -0.61894,-4.8434 z m 62.27777,1.27448 -0.53405,-1.22403 0.25544,1.24114 c 0.14054,0.68263 0.29606,2.02306 0.34571,2.97873 l 0.0902,1.73759 0.18835,-1.7547 c 0.10357,-0.96507 -0.052,-2.30551 -0.34568,-2.97873 z m -17.38551,2.80143 c 0,-0.68648 -2.36187,-1.58083 -2.85982,-1.08289 -0.14317,0.14317 0.0221,0.60089 0.3676,1.01707 0.78578,0.94681 2.49222,0.99188 2.49222,0.0659 z m 90.30811,-0.60646 c -0.72136,-0.8692 -1.18197,-0.52945 -0.76289,0.56269 0.16831,0.43867 0.5419,0.65181 0.83012,0.47367 0.35991,-0.22243 0.33884,-0.54708 -0.0672,-1.03636 z m -3.92499,-0.20433 c 0,-0.27981 -0.52805,-0.70949 -1.17344,-0.95489 -1.0606,-0.40323 -1.80529,-1.43069 -1.80529,-2.4907 0,-0.21888 0.4468,-0.5148 0.9929,-0.65761 1.28797,-0.33681 1.27245,-1.84914 -0.036,-3.51261 -1.14749,-1.45881 -1.94977,-1.69064 -1.94977,-0.56339 0,0.40957 0.2234,0.74467 0.49645,0.74467 0.27305,0 0.49647,0.67022 0.49647,1.48936 0,1.11327 -0.22986,1.48937 -0.91017,1.48937 -1.66075,0 -1.51293,0.56048 0.73137,2.773 2.19396,2.1629 3.15753,2.67642 3.15753,1.6828 z m 9.0209,-3.99011 c 0.49121,-2.30401 1.10775,-4.63591 1.3701,-5.18201 0.56737,-1.18104 2.5168,-8.41994 2.5168,-9.34574 0,-1.30504 -5.86894,-0.40659 -9.78514,1.49796 -1.96872,0.95745 -3.82604,2.03792 -4.1274,2.40103 -0.66194,0.79759 0.0734,5.39975 1.21573,7.60881 0.91137,1.76241 6.79632,7.58255 7.4475,7.3655 0.25811,-0.0859 0.87119,-2.04153 1.36241,-4.34555 z m -90.43946,2.51303 c 0,-1.10589 -0.97297,-1.31073 -1.88653,-0.39715 -0.92546,0.92544 -0.70974,1.39007 0.64539,1.39007 0.91017,0 1.24114,-0.26478 1.24114,-0.99292 z m -81.33179,-0.69994 c 1.10546,-0.77428 1.0571,-0.79194 -1.33154,-0.48624 -1.36326,0.1745 -2.81374,0.65157 -3.22332,1.06026 -0.66141,0.65995 -0.51251,0.71433 1.33155,0.48624 1.14191,-0.14129 2.5924,-0.61835 3.22331,-1.06026 z m 156.08729,-0.67712 c -0.85488,-0.81881 -0.86546,-0.80823 -0.23748,0.23747 0.3615,0.60194 0.76411,0.98757 0.89473,0.85697 0.13059,-0.13059 -0.16512,-0.6231 -0.65725,-1.09444 z m -159.96786,-2.05635 c 1.67702,-1.34225 3.89717,-3.31701 4.9337,-4.38832 2.08833,-2.15844 1.9207,-2.70266 -1.0266,-3.33299 -1.25268,-0.2679 -1.79651,-0.75957 -2.37709,-2.14909 -0.41404,-0.99095 -1.11402,-2.20084 -1.55551,-2.68868 -1.0777,-1.19085 -4.17057,-1.16216 -5.67076,0.0527 -1.01725,0.8237 -1.08535,1.0839 -0.5522,2.10993 0.70858,1.36355 2.09877,8.4139 2.0989,10.64435 8e-5,1.40055 0.31842,2.19268 0.88124,2.19268 0.12065,0 1.59131,-1.09824 3.26832,-2.44051 z m 2.13065,0.57881 c 0.21747,-1.44987 -0.28556,-1.40054 -1.78035,0.1745 l -1.20945,1.27446 1.41112,-0.16606 c 1.01836,-0.1199 1.45777,-0.47691 1.57868,-1.28302 z m 22.41062,-0.31876 c 0.87614,-0.45307 1.59299,-0.92415 1.59299,-1.04684 0,-0.32606 -3.14045,0.32204 -3.72342,0.76843 -0.27305,0.20906 -1.55762,0.5381 -2.8546,0.73118 -1.29698,0.19309 -2.35816,0.5081 -2.35816,0.70003 0,0.60158 5.67273,-0.28898 7.34319,-1.1528 z m -15.88337,-0.985 c 1.39855,-1.31837 3.34978,-4.29561 2.95721,-4.5122 -0.0694,-0.0383 -0.71052,-0.43429 -1.42461,-0.87994 -0.96836,-0.60432 -1.44154,-0.66707 -1.86171,-0.24691 -0.81993,0.81993 -0.69685,1.20697 0.48187,1.51522 1.26514,0.33084 1.02952,1.39875 -0.45677,2.07012 -0.5967,0.26953 -1.08491,0.77219 -1.08491,1.11703 0,0.91043 -1.85677,0.76939 -2.38889,-0.18144 -0.36056,-0.64429 -0.53463,-0.67544 -0.85726,-0.15349 -0.241,0.38995 -0.16831,0.73385 0.17957,0.84981 0.32139,0.10714 0.58434,0.71376 0.58434,1.34807 0,0.94449 0.20225,1.10473 1.11704,0.88514 0.61436,-0.14749 1.85373,-0.96263 2.75416,-1.81144 z m 152.15364,-0.37022 c -0.30633,-0.30632 -0.43783,-0.86737 -0.29224,-1.24677 0.18201,-0.47431 0.015,-0.59391 -0.53525,-0.38284 -0.93961,0.36057 -0.99922,0.8866 -0.25751,2.27249 0.39668,0.74124 0.69016,0.86586 1.09219,0.46382 0.40205,-0.40203 0.40012,-0.6994 -0.008,-1.1067 z m -139.92969,0.62107 c 0.14692,-0.23779 0.94207,-0.5673 1.7669,-0.73227 1.70304,-0.34061 1.71633,-0.43351 0.79173,-5.53754 -0.44746,-2.4701 -0.82575,-3.42905 -1.30798,-3.3157 -0.37315,0.0876 -1.41264,0.0218 -2.30999,-0.14655 -1.24296,-0.23317 -1.63953,-0.56673 -1.66512,-1.40059 l -0.0336,-1.09454 -0.53872,1.11704 c -0.2963,0.61436 -0.91677,1.11702 -1.37883,1.11702 -1.52008,0 -2.41914,-1.62767 -2.60946,-4.7242 l -0.18257,-2.97085 -0.0938,3.5993 c -0.0713,2.73488 -0.26323,3.5993 -0.7991,3.5993 -0.38788,0 -0.85287,-0.67217 -1.0333,-1.4937 -0.46269,-2.10661 -1.41386,-1.27294 -1.06821,0.93623 0.21175,1.35333 0.1578,1.58352 -0.21818,0.92979 -0.65596,-1.14075 -1.44315,-1.10998 -1.44315,0.0565 0,1.33145 2.11164,3.25116 5.16807,4.69831 2.01803,0.95548 2.73275,1.58839 2.99919,2.65588 0.61264,2.45432 3.07223,4.1371 3.95624,2.70673 z m 113.60362,-1.38582 c -0.34131,-0.13773 -0.89981,-0.13773 -1.24112,0 -0.34133,0.13772 -0.0621,0.2504 0.62055,0.2504 0.68264,0 0.96188,-0.11277 0.62057,-0.2504 z m 9.30852,-0.47378 c 0,-0.10471 -0.94945,-0.16813 -2.10993,-0.14092 -1.71922,0.0403 -1.8801,0.11559 -0.86879,0.40605 1.15402,0.33153 2.97872,0.16906 2.97872,-0.26521 z m 2.97873,-0.19034 c 0,-0.27305 -0.21021,-0.49645 -0.46716,-0.49645 -0.25693,0 -0.60522,0.2234 -0.77398,0.49645 -0.16868,0.27305 0.0415,0.49646 0.46716,0.49646 0.42569,0 0.77398,-0.22341 0.77398,-0.49646 z m -13.62767,-0.95471 c 0.25939,-0.25204 1.08015,-0.5313 1.82386,-0.62056 0.96766,-0.11614 1.23699,-0.34645 0.94702,-0.80974 -0.54527,-0.87118 -5.02976,0.20124 -5.02976,1.2028 0,0.77279 1.53822,0.92772 2.25888,0.2275 z m 27.40429,-1.60041 c 0.88741,-0.27534 1.61349,-0.66945 1.61349,-0.87581 0,-0.72447 -0.6591,-1.02377 -1.22328,-0.55554 -0.31347,0.26016 -2.73675,0.53747 -5.38509,0.61626 -2.76856,0.0824 -4.82237,0.35427 -4.83216,0.6397 -0.0407,1.18994 6.19819,1.30128 9.82704,0.17544 z m -16.54773,0.26796 c 1.501,-0.57599 0.77295,-1.17607 -1.28395,-1.05829 -2.41751,0.13848 -3.30801,1.35964 -0.99146,1.35964 0.81958,0 1.84351,-0.13567 2.27541,-0.30135 z m 5.00517,-3.67268 c 1.36524,-0.32928 2.69449,-0.79854 2.9539,-1.04283 0.25939,-0.24428 1.18496,-0.44415 2.05681,-0.44415 1.01245,0 1.69828,-0.29472 1.89821,-0.81573 0.4796,-1.24981 0.87695,-0.46376 0.50823,1.00537 -0.17938,0.71486 -0.67433,1.29972 -1.09981,1.29972 -0.42549,0 -0.62568,0.14786 -0.44485,0.32876 0.38614,0.38614 3.26701,0.33148 5.94916,-0.11296 1.38924,-0.23017 2.01441,-0.63402 2.35071,-1.51856 0.25198,-0.66275 0.79674,-1.33494 1.21059,-1.49375 0.41385,-0.15874 1.18656,-1.27011 1.71712,-2.46954 1.18173,-2.67151 2.26576,-2.93527 1.863,-0.45331 -0.2792,1.72051 -0.27558,1.7244 0.89722,0.95595 2.3825,-1.56106 3.89001,-4.17613 4.10031,-7.11277 0.10902,-1.5231 0.51523,-3.47326 0.90257,-4.33367 1.00565,-2.23398 0.88262,-3.15962 -0.62979,-4.73825 -1.565,-1.63348 -2.63762,-1.79596 -2.63762,-0.39949 0,1.18192 -0.7621,1.31752 -1.18667,0.21112 -0.2616,-0.68168 -0.46762,-0.64991 -1.60943,0.24823 -1.43076,1.12546 -2.91305,1.33695 -3.43632,0.49029 -0.24019,-0.38865 -0.48462,-0.38865 -0.87326,0 -0.29684,0.29684 -1.0262,0.53972 -1.62078,0.53972 -1.40132,0 -2.17379,0.97068 -2.53273,3.18265 -0.25729,1.58545 -0.17057,1.78189 0.78615,1.78189 0.90933,0 0.996,0.14823 0.56141,0.96027 -0.71814,1.34188 -0.67205,1.41455 0.72722,1.14705 1.51402,-0.28942 1.5738,0.20509 0.20138,1.66597 -1.03902,1.10597 -0.97083,3.17708 0.10451,3.17708 0.63626,0 2.39961,-3.89899 2.41364,-5.33689 0.006,-0.61435 0.2343,-1.11703 0.50735,-1.11703 0.48545,0 0.71976,0.99241 0.58605,2.48228 -0.14298,1.59361 0.49536,3.47947 1.06783,3.1545 0.3191,-0.18107 -0.0794,0.37899 -0.88553,1.24471 -0.80612,0.86571 -1.66902,1.50625 -1.91755,1.42341 -0.24852,-0.0828 -1.18631,0.58381 -2.08396,1.48146 -2.00792,2.00793 -4.09796,2.38161 -2.23616,0.39983 l 1.15766,-1.23228 -1.32407,-1.04153 c -1.44112,-1.13357 -1.33883,-1.95493 0.24347,-1.95493 0.8725,0 0.95749,-0.21002 0.65302,-1.61346 -0.19252,-0.88741 -0.50523,-1.72519 -0.6949,-1.86171 -0.18966,-0.1366 -0.39411,-1.95454 -0.45432,-4.04004 -0.12009,-4.15584 0.58055,-5.58291 2.59927,-5.29491 0.59436,0.0848 1.41388,-0.28119 1.87659,-0.83806 0.80721,-0.97147 0.83945,-0.97229 1.86171,-0.0471 0.97623,0.88349 1.09694,0.89011 1.96136,0.10789 0.51795,-0.46873 1.2785,-0.69645 1.73761,-0.52027 1.3404,0.51436 0.98644,-1.37136 -0.57914,-3.08546 -0.96924,-1.06118 -2.22053,-1.72152 -4.09575,-2.16146 -1.48508,-0.34842 -2.97994,-0.85543 -3.32191,-1.12672 -1.18511,-0.94009 -6.32654,-1.62465 -10.00472,-1.33206 -3.24629,0.2582 -3.8043,0.45316 -4.7724,1.66726 -0.60297,0.75617 -1.38665,2.58523 -1.74152,4.06458 -0.61129,2.54804 -0.58779,2.75086 0.44603,3.85129 0.91354,0.97244 1.03665,1.5031 0.75596,3.25844 -0.27075,1.69325 -0.68025,2.31607 -2.12753,3.23594 -2.31025,1.46836 -3.71424,3.05014 -3.30094,3.71889 0.47987,0.77644 5.81063,0.62206 6.8953,-0.1997 0.50518,-0.38272 0.77126,-0.93413 0.59128,-1.22534 -0.17994,-0.29123 -0.11464,-0.52949 0.14542,-0.52949 0.76441,0 1.13944,1.5586 0.54685,2.27263 -0.30009,0.3616 -1.49571,0.7999 -2.65693,0.97404 -1.16123,0.17413 -2.42753,0.52445 -2.81402,0.77845 -1.23458,0.8114 0.9555,1.97909 3.51088,1.87192 2.71846,-0.11409 3.97269,-0.6852 3.99371,-1.81876 0.0295,-1.59093 1.47356,0.92311 1.47356,2.5654 0,1.24729 -0.10094,1.37149 -0.62055,0.76417 -0.47564,-0.55584 -1.57712,-0.68512 -4.71633,-0.55355 -3.61418,0.15142 -4.09575,0.28121 -4.09575,1.10341 0,0.51246 -0.24638,1.47252 -0.54752,2.13345 -0.40608,0.89122 -0.39511,1.48649 0.0424,2.30402 0.50342,0.94064 0.89318,1.0664 2.65747,0.85739 1.13713,-0.13472 3.18453,-0.51433 4.54979,-0.8436 z m 8.26988,-4.96216 c 0,-0.68262 0.11277,-0.96188 0.2504,-0.62057 0.13773,0.34131 0.13773,0.89983 0,1.24114 -0.13772,0.34131 -0.2504,0.0621 -0.2504,-0.62057 z m -8.0265,-10.19004 c -0.2622,-0.68962 -0.81517,-1.38374 -1.22885,-1.54248 -2.18827,-0.83971 0.47258,-4.15403 3.33501,-4.15403 2.5396,0 3.35969,0.43284 3.35969,1.77324 0,1.33552 -1.60159,2.41469 -3.02949,2.04128 -0.59542,-0.15574 -0.94216,0.0113 -0.94216,0.45183 0,0.41377 0.50559,0.69819 1.24114,0.69819 0.68263,0 1.24114,0.22342 1.24114,0.49647 0,0.27305 -0.43362,0.49645 -0.96362,0.49645 -0.52998,0 -1.10167,0.2234 -1.27043,0.49644 -0.5294,0.8566 -1.24746,0.54447 -1.74243,-0.75739 z m 4.80908,-3.51257 c 0.3995,-1.04108 -0.56486,-1.59908 -2.22994,-1.29028 -1.80077,0.33393 -2.32673,1.25876 -0.94593,1.66324 1.90965,0.5594 2.86096,0.44768 3.17587,-0.37296 z m -126.42777,17.91302 c 0.37229,-0.44858 0.37728,-0.74544 0.0169,-0.96856 -0.28634,-0.17694 -0.52058,-0.86705 -0.52058,-1.53357 0,-0.6665 -0.22342,-1.21183 -0.49647,-1.21183 -0.27305,0 -0.49645,0.2234 -0.49645,0.49647 0,0.77935 -1.56597,0.581 -2.5673,-0.32518 -0.69611,-0.62998 -0.90789,-1.54953 -0.90789,-3.94235 0,-1.71638 0.22342,-3.25877 0.49646,-3.42753 0.27889,-0.17244 0.49645,0.22131 0.49645,0.89831 0,1.12683 0.17751,1.20674 2.73051,1.22967 3.17103,0.0285 3.38267,-0.44648 1.78006,-3.9951 -0.52273,-1.15747 -1.09219,-3.14741 -1.26547,-4.42208 -0.17319,-1.27465 -0.63798,-2.58559 -1.0327,-2.91317 -1.36053,-1.12914 -7.17694,-0.31986 -7.17694,0.99859 0,0.68217 1.64687,0.64911 2.343,-0.0471 0.78546,-0.78547 3.61446,0.52152 3.61446,1.66987 0,0.94709 -0.74796,1.17325 -1.24114,0.37527 -0.52017,-0.84164 -2.14497,-0.55056 -3.19036,0.57154 -0.82628,0.8869 -1.12423,0.96078 -1.75694,0.43568 -0.64175,-0.53261 -0.76193,-0.47574 -0.76193,0.36056 0,0.54609 0.33512,1.27101 0.74469,1.61093 0.42952,0.35649 0.74467,1.4393 0.74467,2.55865 0,1.26701 0.25849,2.03979 0.74469,2.22636 0.51942,0.19933 0.74467,1.00965 0.74467,2.6789 0,1.95046 0.22573,2.57068 1.22034,3.35303 0.67117,0.52795 1.50439,1.60534 1.85159,2.3942 0.3472,0.78884 0.8281,1.57444 1.06868,1.74577 0.59704,0.42518 2.16351,-0.0293 2.81761,-0.8174 z m -7.24074,-14.19501 c -0.45218,-0.73163 0.69718,-1.41682 2.39246,-1.42626 1.03682,-0.006 1.36524,0.23126 1.36524,0.98532 0,0.80053 -0.33095,0.99289 -1.70828,0.99289 -0.93957,0 -1.8618,-0.24837 -2.04942,-0.55195 z m -15.89286,12.16554 c 0.43192,-0.16568 0.7853,-0.83596 0.7853,-1.48937 0,-1.29743 0.47391,-1.50844 1.37162,-0.61073 0.43875,0.43877 0.68846,0.28494 1.04048,-0.64097 0.25476,-0.67005 0.82157,-1.51569 1.25959,-1.87921 0.43801,-0.36353 0.79965,-1.24797 0.80362,-1.96542 0.008,-1.48176 1.29914,-5.45033 2.07836,-6.38921 0.28504,-0.34346 0.82601,-0.62449 1.20217,-0.62449 1.04106,0 2.783,1.96739 2.46822,2.78768 -0.35304,0.92005 1.07304,1.5039 1.82839,0.74855 0.42535,-0.42535 0.35491,-0.92668 -0.28161,-2.00421 -0.46686,-0.79035 -0.84885,-1.90517 -0.84885,-2.47741 0,-0.82042 -0.30873,-1.04042 -1.46005,-1.04042 -0.80305,0 -1.59814,0.2234 -1.7669,0.49645 -0.16868,0.27305 -0.74045,0.49645 -1.27043,0.49645 -0.64701,0 -0.96362,0.34151 -0.96362,1.03939 0,0.62186 -0.39884,1.1437 -0.9929,1.29904 -0.5461,0.14279 -0.99292,0.48435 -0.99292,0.75899 0,0.28208 -0.32402,0.23042 -0.74467,-0.11877 -0.58413,-0.48478 -0.74469,-0.48658 -0.74469,-0.008 0,0.33533 -0.56516,1.28133 -1.25591,2.10224 l -1.25588,1.49256 0.24529,-2.16557 0.24528,-2.16557 -0.67932,2.48228 c -0.37362,1.36524 -0.70076,3.12398 -0.72698,3.9083 -0.0403,1.20931 -0.1608,1.33212 -0.79235,0.80802 -0.63376,-0.52599 -0.74467,-0.3964 -0.74467,0.87007 0,2.10576 0.5491,4.59093 1.01436,4.59093 0.21659,0 0.74717,-0.13566 1.17907,-0.30134 z m 11.70729,-4.66322 c 0,-0.81914 -0.2234,-1.48936 -0.49645,-1.48936 -0.55221,0 -0.68521,2.12804 -0.16549,2.64776 0.56088,0.56088 0.66194,0.38403 0.66194,-1.1584 z m 3.16228,0.37235 c 0.44025,-1.64279 0.38947,-1.86171 -0.43177,-1.86171 -0.49645,0 -0.74469,0.49645 -0.74469,1.48936 0,1.7465 0.74501,1.98229 1.17646,0.37235 z m 7.75974,-0.34304 c 0,-1.33679 -0.93918,-1.78519 -1.84398,-0.88037 -0.90482,0.90482 -0.45645,1.84398 0.88035,1.84398 0.62288,0 0.96363,-0.34075 0.96363,-0.96361 z m -12.90783,-6.48321 c 0,-1.14998 -1.10169,-1.31355 -1.9514,-0.28971 -0.46329,0.55824 -0.39906,0.75105 0.31155,0.93533 1.55386,0.40291 1.63985,0.36904 1.63985,-0.64562 z m -13.62163,-1.93916 c 1.07521,-0.52043 2.80993,-1.62672 3.8549,-2.45842 2.65381,-2.11216 9.11053,-9.42336 10.03661,-11.36485 0.42329,-0.88743 0.92668,-1.61523 1.11867,-1.61735 0.40178,-0.004 1.66951,-2.56454 1.40226,-2.83181 -0.0976,-0.0976 -2.36009,2.17947 -5.0277,5.0602 -2.66762,2.88074 -5.37796,5.37015 -6.02297,5.53204 -0.64502,0.16193 -1.17279,0.49354 -1.17279,0.73698 0,0.24346 -0.20193,0.44264 -0.44875,0.44264 -0.24682,0 -1.83212,0.78192 -3.52287,1.73759 -1.69077,0.95568 -3.28799,1.73758 -3.54941,1.73758 -0.77994,0 -3.89739,2.68046 -3.89739,3.35108 -4e-5,0.99717 4.95786,0.77383 7.22944,-0.32568 z m 143.18631,-3.78208 c -0.34538,-0.41616 -0.75722,-0.62742 -0.9152,-0.46945 -0.15799,0.15799 0.0415,0.49506 0.44309,0.74909 1.05099,0.66464 1.1883,0.58332 0.47211,-0.27964 z m -126.58595,-3.69613 c 4.62032,-2.24817 4.59936,-2.23547 5.16203,-3.12747 0.70872,-1.12355 -0.0357,-1.69578 -1.23317,-0.94794 -1.30133,0.81269 -1.86587,0.40511 -1.57155,-1.13462 0.16212,-0.84768 -0.0188,-1.34524 -0.56302,-1.55432 -1.18464,-0.45459 -0.98171,-0.90844 0.68797,-1.53868 0.81916,-0.3092 1.48936,-0.91669 1.48936,-1.34998 0,-0.43329 0.22342,-0.81573 0.49647,-0.84987 0.27305,-0.0341 0.77571,-0.0901 1.11702,-0.12402 0.34131,-0.0341 0.69208,-0.80815 0.77946,-1.72003 0.14673,-1.5306 0.0704,-1.63078 -0.99292,-1.3039 -0.94499,0.2905 -4.37875,3.42121 -4.37875,3.99228 0,0.0886 -0.67441,1.16023 -1.49869,2.38159 -0.82429,1.22137 -1.85516,3.07377 -2.29082,4.11645 -0.43565,1.04267 -1.32507,2.52917 -1.97647,3.30332 -0.65141,0.77415 -1.18438,1.59821 -1.18438,1.83125 0,0.58972 2.15855,-0.12553 5.95746,-1.97399 z m 24.15616,18.22943 c -0.17695,-3.07181 -0.34649,-9.27128 -0.37665,-13.77662 -0.0302,-4.50532 -0.19872,-10.20212 -0.37461,-12.65958 l -0.31977,-4.46809 h -2.7239 c -2.63839,0 -2.73197,-0.0467 -2.98119,-1.48936 -0.24616,-1.42493 -0.38604,-1.5001 -3.23355,-1.73759 l -2.97627,-0.24823 -0.14336,-4.34398 c -0.13303,-4.02781 0.24932,-5.28276 1.16035,-3.8087 0.32669,0.52861 5.13765,0.4115 6.67814,-0.1625 0.40958,-0.15255 7.67022,-0.52294 16.13476,-0.82293 8.46456,-0.3 18.62946,-0.75318 22.5887,-1.00707 6.89939,-0.44244 44.25706,-1.16306 53.19546,-1.02612 2.57373,0.0394 4.42566,-0.14617 4.6215,-0.463 0.51898,-0.83971 9.44706,-0.6881 10.16133,0.17263 0.35008,0.42179 0.5227,1.95534 0.43314,3.84752 l -0.14898,3.14619 -1.86171,0.15405 c -1.80581,0.14955 -1.86171,0.21207 -1.86171,2.08517 v 1.93108 l -2.8546,0.14879 -2.85463,0.1488 -0.13247,13.37115 c -0.085,8.57684 0.0486,13.55215 0.37235,13.87592 0.80299,0.80299 0.62171,3.28488 -0.23995,3.28488 -0.63986,0 -0.75284,-1.69444 -0.80271,-12.03902 -0.0319,-6.62146 -0.19946,-13.49116 -0.37233,-15.26598 l -0.31433,-3.22695 -3.7234,0.0216 c -8.88738,0.0514 -26.14769,0.8347 -27.05677,1.22772 -0.54611,0.23608 -11.71633,0.55927 -24.82273,0.71818 -13.44543,0.16305 -26.2096,0.55536 -29.29083,0.90033 l -5.46101,0.61144 0.19865,18.24266 c 0.10921,10.03346 0.0876,18.24267 -0.0482,18.24267 -0.13585,0 -0.39173,-2.5133 -0.56872,-5.58511 z m 31.44674,-32.9177 c 12.15074,-0.15424 22.42735,-0.4083 22.83693,-0.56445 1.76552,-0.67315 8.76468,-1.08291 23.82982,-1.39506 7.23582,-0.14992 14.34204,-0.39625 15.79161,-0.54737 2.50702,-0.26136 2.62809,-0.33942 2.48226,-1.60065 -0.1792,-1.54964 2.01816,-1.48051 -20.2597,-0.63727 -8.05497,0.30489 -20.78903,0.69429 -28.29791,0.86534 -7.50887,0.17094 -13.8759,0.48112 -14.14895,0.68906 -0.27305,0.20793 -6.41668,0.5402 -13.6525,0.73835 -7.23584,0.19816 -13.60287,0.44486 -14.14896,0.54825 -0.5461,0.10339 -3.39451,0.33457 -6.3298,0.51375 -5.09604,0.31108 -6.12256,0.69977 -4.96454,1.8798 0.20478,0.20869 3.6117,0.24698 7.57094,0.0852 3.95922,-0.16193 17.14009,-0.42057 29.2908,-0.57486 z m -28.54613,-3.02909 c 4.09575,-0.16625 7.67022,-0.4665 7.94327,-0.66718 0.27305,-0.2007 10.54966,-0.5184 22.83692,-0.70604 12.28725,-0.18764 26.80855,-0.54707 32.26955,-0.79875 5.46099,-0.25168 14.56473,-0.60991 20.23052,-0.79608 5.66578,-0.18614 10.30143,-0.52646 10.30143,-0.75618 0,-0.22972 0.90587,-0.41768 2.01302,-0.41768 h 2.01302 l -0.15124,-2.35815 -0.15123,-2.35816 -5.95746,0.0863 c -3.2766,0.0475 -14.33513,0.20824 -24.57451,0.35728 -32.08274,0.46695 -50.45024,1.10685 -51.38305,1.79011 -0.27305,0.2 -5.29964,0.51192 -11.17022,0.69316 -14.79417,0.45671 -18.89919,0.80367 -19.21397,1.62401 -0.14223,0.37075 -0.10376,1.70753 0.0857,2.97063 l 0.34439,2.29653 3.55858,-0.32874 c 1.95723,-0.18088 6.90967,-0.46479 11.00542,-0.63107 z m 17.1263,-13.82445 c -0.33917,-0.40865 -0.89705,-0.743 -1.23975,-0.743 -0.34272,0 -0.84581,-0.27926 -1.11799,-0.62057 -0.45033,-0.56473 -1.619,-23.06866 -2.38379,-45.90241 l -0.30281,-9.04066 1.15761,-0.23518 c 2.89301,-0.58773 13.20808,-1.29347 18.90566,-1.29347 3.64541,0 6.39988,-0.20786 6.57823,-0.49645 0.41056,-0.66431 6.05945,-0.63824 6.47234,0.0298 0.21316,0.3449 2.31958,0.44373 6.11089,0.28675 3.18207,-0.13172 5.7856,-0.28569 5.7856,-0.34208 0,-0.16681 2.05405,-0.31542 9.99771,-0.72345 7.36764,-0.37844 7.52664,-0.36512 8.08486,0.67791 0.31317,0.58516 1.00834,1.06396 1.54485,1.06396 0.9042,0 0.97543,0.36043 0.97543,4.93525 0,2.75463 -0.21935,5.07079 -0.49645,5.24207 -0.27678,0.17112 -0.49645,2.47764 -0.49645,5.21276 0,2.73512 0.21967,5.04172 0.49645,5.21278 0.59736,0.36918 0.69819,34.32031 0.10301,34.68815 -0.4006,0.24759 -7.55191,0.581 -22.69169,1.05792 -8.65895,0.27276 -25.64819,1.04063 -32.83072,1.48384 -3.20081,0.19751 -4.16399,0.0953 -4.65299,-0.49395 z m 24.07944,-3.72042 c 5.73405,-0.25006 14.94947,-0.61107 20.47874,-0.80225 9.36141,-0.32368 10.0532,-0.41142 10.0532,-1.27498 0,-1.48816 -2.03353,-1.88932 -10.08551,-1.9896 -4.14624,-0.0516 -6.19819,-0.17563 -4.55988,-0.27549 1.63829,-0.0998 3.19094,-0.39274 3.45035,-0.65079 0.25939,-0.25806 2.10248,-0.46921 4.09574,-0.46921 4.08108,0 4.83434,-0.75058 1.28712,-1.28253 -1.89862,-0.2847 -17.4069,-0.0923 -36.22989,0.44948 -2.65734,0.0766 -3.27513,0.28454 -4.59221,1.5465 -1.91811,1.83786 -1.90601,2.15469 0.0918,2.40259 1.38473,0.17188 1.3115,0.21151 -0.51657,0.27969 -2.0804,0.0777 -5.06856,1.68762 -5.06856,2.73094 0,0.29965 2.09087,0.35005 5.58513,0.13453 3.07179,-0.18936 10.2766,-0.54891 16.01065,-0.79897 z m -22.24006,-0.94203 c 0.41624,-0.66646 0.47204,-2.08599 0.19145,-4.86937 -0.21783,-2.16076 -0.29157,-4.64051 -0.16381,-5.51054 0.12778,-0.87005 -0.0295,-4.54174 -0.34938,-8.15933 -0.31986,-3.61757 -0.57069,-10.97932 -0.55739,-16.35941 0.015,-5.94699 -0.1685,-9.90109 -0.46731,-10.08576 -0.27031,-0.16699 -0.49147,-1.18971 -0.49147,-2.27256 0,-1.65658 -0.20196,-2.04559 -1.27347,-2.45297 -0.70039,-0.26629 -1.37061,-0.48417 -1.48937,-0.48417 -0.40987,0 -0.2148,8.87827 0.20072,9.13507 0.22914,0.14167 0.56994,7.13619 0.75736,15.5435 0.3068,13.76302 0.90087,23.17994 1.61423,25.58747 0.33777,1.13991 1.29287,1.10606 2.02852,-0.0719 z m 54.26137,-4.66921 c 0,-1.17412 0.25308,-2.38783 0.56238,-2.69715 0.32652,-0.32652 0.40171,-0.94073 0.17938,-1.46453 -0.61869,-1.45702 -0.64613,-2.86193 -0.0632,-3.23593 0.70971,-0.45533 0.52605,-37.6178 -0.18944,-38.33332 -0.26896,-0.26896 -0.48902,-0.94077 -0.48902,-1.49295 0,-0.99295 -0.0113,-0.99244 -1.05046,0.0465 l -1.05047,1.05048 0.65148,19.04215 c 0.35829,10.47318 0.66344,21.33219 0.67812,24.1311 0.015,2.79894 0.19422,5.08883 0.399,5.08866 0.20479,-1.6e-4 0.37233,-0.96094 0.37233,-2.13505 z m -50.59309,-0.43211 c 0.4149,-0.77528 0.47541,-3.3862 0.21568,-9.30853 -0.19853,-4.52706 -0.43653,-13.55341 -0.52887,-20.05853 -0.17075,-12.03309 -0.30879,-12.88899 -2.15545,-13.37189 -0.83339,-0.21794 -0.92439,0.34975 -1.20491,7.51727 -0.20437,5.22209 -0.0621,10.42711 0.43582,15.94454 0.40661,4.50531 0.86157,10.64894 1.01106,13.65249 0.14955,3.00356 0.35933,5.74025 0.46634,6.08158 0.29851,0.95227 1.1203,0.73897 1.76033,-0.45693 z m 48.11083,-7.33294 c 0,-4.4095 -0.20134,-7.54195 -0.49647,-7.72434 -0.29703,-0.1835 -0.49645,-3.45436 -0.49645,-8.14285 0,-10.47527 -0.53596,-19.90683 -1.13126,-19.90683 -0.26556,0 -0.35488,0.63672 -0.19876,1.41721 0.16962,0.8481 0.002,1.81903 -0.41742,2.41783 -1.11186,1.58739 -1.3859,7.85161 -0.99006,22.63067 l 0.3682,13.74711 h 1.23847 c 1.05229,0 1.19442,0.17544 0.94546,1.16743 -0.29226,1.16444 -0.0191,1.81129 0.76457,1.81129 0.22754,0 0.41372,-3.33788 0.41372,-7.41752 z m -32.76601,5.43169 c 0,-0.31089 3.1079,-0.49928 8.31562,-0.50404 4.57358,-0.004 8.64485,-0.21582 9.04728,-0.47031 0.61565,-0.38933 0.53694,-0.6705 -0.49645,-1.77324 -1.00487,-1.07229 -1.544,-1.26482 -2.96572,-1.0591 -1.51187,0.21877 -1.59247,0.1822 -0.62057,-0.28083 0.61435,-0.29277 1.11701,-0.73524 1.11701,-0.98329 0,-0.57438 -4.49409,0.054 -5.3661,0.75039 -0.35737,0.28538 -1.86578,0.53646 -3.35199,0.55794 -1.48623,0.0216 -2.47839,-0.0355 -2.20484,-0.12647 0.93002,-0.30943 0.50208,-1.07553 -0.61963,-1.10927 l -1.11702,-0.0336 1.11702,-0.53873 c 0.61436,-0.29629 1.11702,-0.83967 1.11702,-1.20753 0,-0.36784 0.17037,-0.66881 0.37874,-0.66881 0.2083,0 0.59926,-0.48821 0.8688,-1.08491 0.75416,-1.66957 1.95012,-1.84077 1.54357,-0.22096 -0.38361,1.52839 -0.0492,1.59346 3.16634,0.61608 3.52552,-1.07161 5.59432,-2.43937 6.12667,-4.05056 0.26629,-0.80594 0.89566,-1.75725 1.39862,-2.11404 0.50294,-0.35681 0.94088,-1.13873 0.97318,-1.73761 0.0443,-0.81873 0.13697,-0.72435 0.37375,0.38043 0.24141,1.12606 0.6626,1.54102 1.80296,1.77634 0.81838,0.16887 2.26987,0.65663 3.22556,1.08393 3.37654,1.50971 3.47518,1.50192 3.47518,-0.27423 0,-0.89249 -0.27738,-1.9001 -0.61642,-2.23914 -0.49092,-0.49091 -0.48474,-0.69778 0.0304,-1.0161 0.42673,-0.26373 0.59419,-1.22458 0.4923,-2.82453 -0.13547,-2.12709 -0.31958,-2.4826 -1.49955,-2.89534 -1.09872,-0.38434 -1.93798,-0.18145 -4.58176,1.10761 -1.78014,0.86795 -3.74398,1.57069 -4.3641,1.56161 l -1.12745,-0.0169 1.13099,-0.94317 1.13102,-0.94319 -1.45566,-1.65792 c -0.80063,-0.91184 -1.52093,-1.98797 -1.60069,-2.39137 -0.20231,-1.02329 0.49179,-2.94664 1.69801,-4.70508 1.00386,-1.46345 1.0042,-1.47426 0.0199,-0.62057 -1.49895,1.3 -1.71942,1.09329 -1.58834,-1.48936 0.0865,-1.70353 0.46318,-2.73807 1.35704,-3.72668 0.93638,-1.03564 1.09773,-1.50815 0.66333,-1.94255 -0.43439,-0.43439 -0.68669,-0.2777 -1.03721,0.64423 -0.50334,1.32389 -1.29965,2.08271 -2.71803,2.5901 -1.42089,0.50831 -0.72853,-0.80757 0.82283,-1.56384 1.41181,-0.68823 1.67458,-1.31394 0.78313,-1.86488 -0.3071,-0.18981 -1.52805,0.78614 -2.79411,2.23344 -1.45471,1.66296 -2.51025,2.47017 -2.98957,2.28625 -0.56801,-0.21797 -0.67059,-0.0219 -0.43961,0.84009 0.16568,0.61843 0.30432,1.41872 0.30806,1.77843 0.004,0.41063 0.3502,0.54501 0.92959,0.36113 0.52609,-0.167 1.18454,0.0225 1.53165,0.4407 0.49568,0.59725 0.35612,1.06489 -0.75099,2.51637 -0.94652,1.24094 -1.51766,1.62495 -1.87916,1.26345 -0.28568,-0.28564 -0.96048,-0.51936 -1.49956,-0.51936 -0.96865,0 -0.96893,-0.0131 -0.0244,-1.11701 1.26416,-1.4776 1.10841,-5.33689 -0.2154,-5.33689 -0.47579,0 -1.09794,-0.23287 -1.38257,-0.5175 -0.35902,-0.35902 -0.71209,-0.28301 -1.15298,0.24824 -0.34953,0.42113 -0.94327,0.76571 -1.31941,0.76571 -0.92253,0 -0.87763,-2.19991 0.0608,-2.97873 0.83774,-0.69525 1.00338,-1.98581 0.25488,-1.98581 -0.26939,0 -0.80509,0.75464 -1.19047,1.67698 -0.38539,0.92235 -0.94689,1.82916 -1.24781,2.01512 -0.97383,0.60186 -0.6528,3.66323 0.44581,4.25117 1.24478,0.6662 1.25557,1.39102 0.0401,2.69851 -1.09258,1.17537 -2.04116,5.12309 -1.08971,4.53508 0.3175,-0.19623 1.25298,-0.20837 2.07886,-0.027 1.4943,0.32819 1.49664,0.33406 0.48433,1.21203 -1.30888,1.13518 -1.28434,1.50864 0.0998,1.51806 0.90326,0.006 0.97451,0.0996 0.37234,0.48886 -0.40959,0.26468 -1.35905,0.48467 -2.10993,0.48885 -0.7509,0.004 -1.36526,0.231 -1.36526,0.50405 0,0.27305 -0.4884,0.49645 -1.08531,0.49645 -0.59693,0 -2.48772,0.35172 -4.20178,0.78158 -1.71406,0.42987 -3.62727,0.68986 -4.25158,0.57773 -0.83738,-0.15048 -0.57882,-0.30738 0.98583,-0.59856 1.16651,-0.21709 2.25004,-0.60362 2.40786,-0.85898 0.52377,-0.84748 -0.14317,-0.92182 -1.58035,-0.17619 -1.26887,0.65829 -1.51227,0.65198 -2.2986,-0.0597 -0.71628,-0.64822 -1.01935,-0.6798 -1.63345,-0.17018 -1.01851,0.84528 -1.10135,8.44746 -0.0921,8.44746 0.36407,0 0.82941,-0.16756 1.0341,-0.37234 0.20469,-0.20479 0.92852,-0.38295 1.6085,-0.39592 1.13803,-0.0218 1.21136,0.10958 0.92219,1.65094 -0.17281,0.92099 -0.74385,2.43957 -1.26904,3.37464 -0.52519,0.93507 -0.76222,1.70014 -0.52671,1.70014 0.80877,0 4.02294,-4.10132 4.03863,-5.15332 0.0169,-1.12856 2.07918,-3.78287 2.93921,-3.78287 0.73031,0 0.61676,1.50727 -0.22442,2.97873 -0.39021,0.68262 -0.71741,1.92252 -0.72707,2.75531 -0.009,0.83281 -0.29686,1.81033 -0.63817,2.17227 -0.51318,0.5442 -0.0193,0.61081 2.85461,0.38495 l 3.47519,-0.27312 -2.48228,0.84217 c -4.69303,1.59226 -6.2059,2.81366 -4.80465,3.87904 0.98462,0.74861 5.54934,0.88718 5.54934,0.1685 z m -3.23261,-6.9595 c -0.30343,-0.49095 1.18077,-3.57459 1.86735,-3.87974 0.20479,-0.091 0.37235,-0.44735 0.37235,-0.79187 0,-0.3445 0.4468,-1.0307 0.99291,-1.52492 0.96387,-0.8723 0.9929,-0.86712 0.9929,0.17676 0,2.44208 -3.42288,7.31836 -4.22551,6.01967 z m 6.21134,-0.58365 c 0,-0.15742 0.32636,-1.03783 0.72525,-1.95659 0.5021,-1.15652 0.72636,-1.36498 0.72888,-0.67756 0.002,0.5461 -0.32435,1.42656 -0.72524,1.95658 -0.4009,0.53003 -0.72889,0.83494 -0.72889,0.67757 z m 0.2675,-4.37176 c 0.19262,-0.95567 1.21676,-3.52482 2.27587,-5.70921 1.66967,-3.44373 1.88295,-3.70769 1.60452,-1.98583 -0.47363,2.92884 -1.44683,5.4465 -2.92165,7.55831 l -1.30897,1.87434 z m 16.22381,-5.04124 c 0.25768,-0.77303 1.36835,-0.9084 1.40727,-0.1715 0.015,0.27305 -0.34642,0.57364 -0.80185,0.66799 -0.51767,0.10714 -0.74461,-0.0788 -0.60542,-0.49647 z m -29.89558,15.96326 c 0,-0.27305 -0.21023,-0.49647 -0.46716,-0.49647 -0.25693,0 -0.60522,0.22342 -0.77398,0.49647 -0.16869,0.27305 0.0415,0.49645 0.46716,0.49645 0.42569,0 0.77398,-0.2234 0.77398,-0.49645 z m 16.87945,-4.74563 c 0,-0.42569 -0.2234,-0.6359 -0.49645,-0.46715 -0.27305,0.16868 -0.49647,0.51705 -0.49647,0.77398 0,0.25695 0.22342,0.46715 0.49647,0.46715 0.27305,0 0.49645,-0.34829 0.49645,-0.77398 z m 5.18796,-0.77118 c 0.25938,-0.24235 0.97227,-0.44065 1.58417,-0.44065 1.07212,0 2.02049,-0.8055 1.52809,-1.2979 -0.13134,-0.13134 -1.43797,0.0649 -2.90344,0.43615 -1.82618,0.46267 -2.71822,0.95383 -2.83515,1.56104 -0.13867,0.71996 0.0473,0.82 0.99203,0.53399 0.63947,-0.19358 1.37489,-0.55026 1.6343,-0.79263 z m -14.12415,-12.64516 c 0,-0.43233 -0.26529,-0.69763 -0.58953,-0.58955 -0.92054,0.30686 -1.07322,1.3756 -0.19651,1.3756 0.43231,0 0.78604,-0.35371 0.78604,-0.78605 z m -6.55186,-4.6212 c 1.96522,-2.42788 3.57314,-4.66192 3.57314,-4.96454 0,-0.30262 0.2234,-0.5502 0.49645,-0.5502 0.27304,0 0.49646,-0.89362 0.49646,-1.98583 0,-1.35575 -0.217,-1.98582 -0.68389,-1.98582 -1.01444,0 -1.95516,1.35767 -1.59358,2.2999 0.20411,0.53189 -0.54295,2.07124 -2.11121,4.35029 -2.92957,4.25738 -4.5399,7.25054 -3.90077,7.25054 0.0826,0 1.75817,-1.98645 3.7234,-4.41434 z m 2.58022,-7.93842 c 0,-0.27305 0.22342,-0.63453 0.49647,-0.80327 0.27305,-0.16869 0.49645,-0.0835 0.49645,0.18962 0,0.27305 -0.2234,0.63453 -0.49645,0.80327 -0.27305,0.16869 -0.49647,0.0835 -0.49647,-0.18962 z m 5.43866,5.55582 c 0.0131,-0.59826 -0.22053,-1.23784 -0.51737,-1.42129 -0.38865,-0.2402 -0.38865,-0.48463 0,-0.87328 0.79802,-0.798 0.65755,-4.09338 -0.20497,-4.80922 -0.62892,-0.52196 -0.74468,-0.42068 -0.74468,0.65157 0,0.69829 -0.2449,1.89853 -0.54422,2.66718 -0.29933,0.76867 -0.63173,2.25289 -0.73866,3.29829 -0.10696,1.0454 -0.64395,2.53202 -1.19335,3.3036 -1.74588,2.45184 -1.08083,2.64372 1.46097,0.42151 1.50738,-1.31787 2.46858,-2.57184 2.48228,-3.23836 z m 20.87344,3.81821 c 0,-0.27305 -0.2234,-0.49645 -0.49645,-0.49645 -0.27305,0 -0.49647,0.2234 -0.49647,0.49645 0,0.27305 0.22342,0.49647 0.49647,0.49647 0.27305,0 0.49645,-0.22342 0.49645,-0.49647 z m -31.77309,-1.48937 c 0.29227,-0.54609 0.41969,-0.99289 0.28317,-0.99289 -0.1366,0 -0.48737,0.4468 -0.77963,0.99289 -0.29227,0.54612 -0.41969,0.99292 -0.28317,0.99292 0.1366,0 0.48737,-0.4468 0.77963,-0.99292 z m 6.6607,-1.31217 c 0.41563,-1.0831 -0.13622,-1.58653 -0.72264,-0.65926 -0.58708,0.92831 -0.59958,1.47499 -0.0338,1.47499 0.24384,0 0.58421,-0.36708 0.75636,-0.81573 z m -4.03643,-2.65239 c 0.1441,-0.55074 0.0863,-0.89282 -0.12835,-0.76018 -0.21463,0.13266 -0.50808,0.69178 -0.65209,1.24251 -0.1441,0.55074 -0.0863,0.89282 0.12834,0.76016 0.21462,-0.13266 0.50807,-0.69176 0.65208,-1.24249 z m 36.09919,-0.99997 c 0,-0.27305 -0.22342,-0.49645 -0.49647,-0.49645 -0.27304,0 -0.49644,0.2234 -0.49644,0.49645 0,0.27304 0.2234,0.49644 0.49644,0.49644 0.27305,0 0.49647,-0.2234 0.49647,-0.49644 z m -18.61706,-11.45699 c 5.18796,-0.25811 10.73992,-0.60043 12.33768,-0.76071 1.83013,-0.18351 3.10681,-0.0897 3.45035,0.25393 0.61224,0.61221 4.31839,0.75519 4.31839,0.16662 0,-0.2083 0.50266,-0.59926 1.11702,-0.8688 0.61436,-0.26954 1.11702,-0.82517 1.11702,-1.23474 0,-0.59901 -0.91396,-0.77282 -4.67181,-0.88848 -2.77005,-0.0852 -4.88192,0.0662 -5.18796,0.37233 -0.63689,0.63691 -4.9089,0.68439 -5.55514,0.0617 -0.25941,-0.24993 -1.03014,-0.54137 -1.71276,-0.64762 -1.53384,-0.23877 14.3078,-0.9346 17.32839,-0.76113 1.37822,0.0792 2.26366,-0.0991 2.39517,-0.48193 0.16343,-0.47599 -5.19897,-0.5508 -24.77522,-0.34559 -13.74112,0.14411 -26.08302,0.4174 -27.42644,0.6075 -2.67659,0.3787 -3.51129,1.35374 -1.69351,1.97825 1.53843,0.52855 25.24265,-0.28193 26.34571,-0.90077 1.35327,-0.75925 2.1007,-0.61704 1.37198,0.26102 -0.34175,0.41179 -1.4231,0.74441 -2.41894,0.74405 -0.99051,-3.5e-4 -3.58817,0.22051 -5.77256,0.49078 -2.1844,0.27028 -6.15012,0.62654 -8.81269,0.7917 -4.62539,0.28689 -5.60528,0.76561 -3.30725,1.6157 1.03838,0.38413 7.40601,0.25006 21.55257,-0.4538 z"
       id="path461"
       inkscape:connector-curvature="0" />
  </g>
</svg>
