<?xml version="1.0" encoding="UTF-8" standalone="no"?>
<!-- Created with Inkscape (http://www.inkscape.org/) -->

<svg
   xmlns:dc="http://purl.org/dc/elements/1.1/"
   xmlns:cc="http://creativecommons.org/ns#"
   xmlns:rdf="http://www.w3.org/1999/02/22-rdf-syntax-ns#"
   xmlns:svg="http://www.w3.org/2000/svg"
   xmlns="http://www.w3.org/2000/svg"
   xmlns:sodipodi="http://sodipodi.sourceforge.net/DTD/sodipodi-0.dtd"
   xmlns:inkscape="http://www.inkscape.org/namespaces/inkscape"
   width="210mm"
   height="109.57996mm"
   viewBox="0 0 210.00001 109.57996"
   version="1.1"
   id="svg8"
   inkscape:version="0.92.3 (2405546, 2018-03-11)"
   sodipodi:docname="riots.svg">
  <defs
     id="defs2" />
  <sodipodi:namedview
     id="base"
     pagecolor="#ffffff"
     bordercolor="#666666"
     borderopacity="1.0"
     inkscape:pageopacity="0.0"
     inkscape:pageshadow="2"
     inkscape:zoom="0.7"
     inkscape:cx="88.947816"
     inkscape:cy="214.9285"
     inkscape:document-units="mm"
     inkscape:current-layer="layer1"
     showgrid="false"
     fit-margin-top="0"
     fit-margin-left="0"
     fit-margin-right="0"
     fit-margin-bottom="0"
     inkscape:window-width="1920"
     inkscape:window-height="1017"
     inkscape:window-x="-8"
     inkscape:window-y="-8"
     inkscape:window-maximized="1" />
  <metadata
     id="metadata5">
    <rdf:RDF>
      <cc:Work
         rdf:about="">
        <dc:format>image/svg+xml</dc:format>
        <dc:type
           rdf:resource="http://purl.org/dc/dcmitype/StillImage" />
        <dc:title></dc:title>
      </cc:Work>
    </rdf:RDF>
  </metadata>
  <g
     inkscape:label="Layer 1"
     inkscape:groupmode="layer"
     id="layer1"
     transform="translate(-244.21791,517.35944)">
    <path
       style="fill:#000000;stroke-width:0.56776214"
       d="m 362.29428,-408.20272 c -1.87361,-0.33761 -3.78981,-0.77408 -4.25821,-0.96996 -0.4684,-0.19591 -2.09791,-0.52348 -3.62109,-0.72805 -4.67097,-0.6273 -5.21295,-1.24033 -3.46084,-3.91439 1.01997,-1.55668 0.29344,-4.31488 -1.13657,-4.31488 -1.36649,0 -1.00787,-1.54449 0.44317,-1.90869 0.71988,-0.18068 2.8277,-1.71831 4.68403,-3.41698 l 3.37518,-3.08847 -2.24432,-2.3222 c -1.2344,-1.2772 -2.57271,-2.32217 -2.97406,-2.32217 -0.41164,0 -0.88714,0.98463 -1.09091,2.25893 -0.28931,1.80919 -1.26929,3.22418 -4.92204,7.10694 -3.42779,3.64361 -4.82072,4.76549 -5.60699,4.51595 -1.41572,-0.44935 -1.33286,-0.12768 0.71563,2.77852 1.48983,2.11366 1.66204,2.68592 1.11555,3.70706 -1.18272,2.2099 -6.43341,1.48043 -9.81303,-1.36334 -0.91734,-0.77189 -2.14102,-1.40344 -2.71929,-1.40344 -2.65147,0 -3.69535,-3.4054 -1.70029,-5.54683 0.62454,-0.67037 1.13553,-1.71904 1.13553,-2.33039 0,-1.33798 3.45089,-4.18141 6.87931,-5.66835 1.36883,-0.59365 3.0904,-1.73002 3.82572,-2.52522 1.26875,-1.37203 1.33388,-1.82144 1.27596,-8.80456 l -0.0609,-7.35871 1.89146,-2.74468 c 1.04029,-1.50958 3.00261,-3.52708 4.36069,-4.48337 2.90197,-2.04337 3.33089,-2.88618 1.72775,-3.39499 -2.06912,-0.65672 -4.57028,-3.16286 -4.57028,-4.5794 0,-1.55588 1.80399,-3.47238 4.26608,-4.53208 0.94114,-0.40508 3.0428,-1.65251 4.67034,-2.77208 1.62756,-1.11957 3.22085,-2.03555 3.54065,-2.03555 0.3198,0 0.58144,-0.23521 0.58144,-0.52265 0,-0.28746 0.76355,-0.69037 1.69679,-0.89535 0.93322,-0.20493 1.83212,-0.59166 1.99753,-0.85931 0.16544,-0.26766 -0.37935,-1.92309 -1.21062,-3.67874 -1.13418,-2.39545 -1.3493,-3.35412 -0.862,-3.84143 0.35714,-0.35714 0.64935,-1.35585 0.64935,-2.21933 0,-2.53277 2.93392,-5.36584 6.68658,-6.45678 5.58579,-1.62382 9.40036,-0.20235 11.23993,4.18875 0.43694,1.04302 1.30887,2.03092 1.93757,2.19533 1.45677,0.38096 1.4566,1.4101 -4.3e-4,2.72869 -0.73556,0.66568 -1.02027,1.42328 -0.79805,2.12345 0.40519,1.27663 -1.7153,3.83079 -3.18035,3.83079 -0.52233,0 -1.49055,0.46909 -2.15163,1.04243 -0.91416,0.79285 -1.04371,1.20065 -0.54108,1.70328 0.78672,0.78672 2.82672,0.86972 3.58483,0.14592 0.92339,-0.88165 4.96246,-1.75826 5.61318,-1.21821 0.35323,0.29315 2.48249,0.29353 5.09164,9.6e-4 2.46651,-0.2766 5.53169,-0.54464 6.81151,-0.59565 3.49439,-0.13926 7.03716,-1.09351 7.38039,-1.98795 0.16759,-0.43673 0.56434,-0.794 0.88172,-0.794 0.31739,0 1.82274,-0.76648 3.34526,-1.70329 1.58409,-0.97469 3.55696,-1.70328 4.61217,-1.70328 1.65734,0 1.80974,0.13648 1.50567,1.34797 -0.30503,1.21534 -0.11223,1.38413 1.96,1.7155 2.04899,0.32763 2.25757,0.50477 1.92272,1.63277 -0.45722,1.5402 -1.82489,2.68466 -3.20827,2.68466 -0.56484,0 -1.02699,0.21733 -1.02699,0.48295 0,0.62747 -7.1996,2.24222 -11.91608,2.67258 -2.02592,0.18476 -3.94212,0.54898 -4.2582,0.80918 -0.31609,0.26019 -2.93976,0.90666 -5.83038,1.43658 -4.33351,0.79442 -5.57873,1.26568 -7.09703,2.6858 -1.01274,0.94729 -1.84135,2.134 -1.84135,2.63719 0,1.16016 -2.82718,1.49046 -5.77967,0.67524 -2.01085,-0.55522 -2.26482,-0.4763 -4.14276,1.28742 -2.76712,2.59884 -6.59171,5.48146 -7.27268,5.48146 -0.92118,0 -6.36702,5.14397 -6.36702,6.0141 0,0.43948 -0.19957,0.79904 -0.44329,0.79904 -0.24382,0 -0.72975,0.75895 -1.07989,1.68655 -0.58782,1.55732 -0.46686,1.8794 1.5788,4.2034 1.21849,1.38426 2.21542,2.66925 2.21542,2.85553 0,0.18627 0.39257,0.78582 0.87238,1.33229 3.88365,4.42325 3.92678,4.53792 3.84717,10.23019 -0.0421,3.0124 -0.34656,5.63753 -0.69402,5.98501 -0.34042,0.34042 -0.61896,1.59784 -0.61896,2.79427 0,1.40986 -0.29967,2.29031 -0.85163,2.50211 -1.45434,0.5581 -0.96264,1.28396 2.27104,3.35252 4.95821,3.17173 3.78414,4.56691 -2.83882,3.37351 z m -76.36399,-12.04961 c -0.46843,-0.15965 -1.4904,-0.88099 -2.27107,-1.60282 -0.78067,-0.72185 -2.09579,-1.56792 -2.92248,-1.88015 -1.27926,-0.48314 -1.56271,-1.01695 -1.90346,-3.58463 -0.22021,-1.65932 -0.73496,-3.78344 -1.1439,-4.72024 -0.40891,-0.9368 -1.31323,-5.79117 -2.00958,-10.78747 -0.69636,-4.9963 -1.48568,-9.3273 -1.75404,-9.62441 -0.4981,-0.55147 -5.02834,3.41929 -5.02834,4.40732 0,0.2827 -1.25484,2.09094 -2.78852,4.01834 -3.86059,4.85169 -5.91473,8.80597 -5.09037,9.79926 0.35035,0.42215 1.07218,0.76755 1.60406,0.76755 1.36831,0 3.65322,2.58941 3.23851,3.67009 -0.5654,1.4734 -2.78127,1.92854 -7.80478,1.60309 -6.94194,-0.44973 -7.84228,-1.60303 -5.66783,-7.26034 2.03225,-5.28739 4.98205,-10.10693 8.73958,-14.27926 1.61896,-1.79768 2.99199,-3.96965 4.79157,-7.57959 0.54483,-1.09293 1.18222,-2.07233 1.41642,-2.17641 0.2342,-0.10407 0.42583,-0.64775 0.42583,-1.20812 0,-1.35956 1.60157,-5.17402 2.68382,-6.39206 0.97335,-1.09549 1.10959,-5.82216 0.19935,-6.91888 -0.3093,-0.37267 -0.73487,-1.75644 -0.94573,-3.07501 -0.21094,-1.31858 -0.56273,-2.50827 -0.78197,-2.64376 -0.21925,-0.13562 -2.80449,0.25004 -5.74498,0.85676 -2.94051,0.60673 -6.29547,1.1065 -7.45551,1.1106 -3.1869,0.0107 -3.51758,-1.06354 -3.07014,-9.97908 l 0.37582,-7.48865 -2.06169,-1.21643 c -1.13394,-0.66904 -2.50861,-1.07459 -3.05482,-0.90122 -0.5475,0.17381 -1.59779,-0.17446 -2.34063,-0.77593 l -1.3475,-1.09115 1.05708,-3.03828 c 1.74745,-5.02257 2.11167,-5.37224 6.41444,-6.15844 2.12605,-0.38847 4.63202,-1.0153 5.56882,-1.39295 8.03842,-3.24057 9.99462,-3.03727 8.42884,0.87603 -0.48982,1.22416 -1.3731,3.17218 -1.96285,4.32893 -0.58973,1.15676 -1.07225,2.43317 -1.07225,2.83646 0,0.40332 -1.0138,1.17248 -2.25287,1.7093 l -2.25284,0.976 0.34465,7.11293 c 0.18948,3.9121 0.43541,7.21792 0.54638,7.34629 0.35814,0.41432 6.68392,-1.21993 8.44066,-2.18062 0.9368,-0.5123 2.80193,-1.28696 4.14473,-1.72148 2.9609,-0.95813 3.34994,-1.4801 2.11789,-2.8415 -1.15407,-1.27523 -4.03787,-7.10293 -4.57491,-9.2452 -0.57321,-2.28655 0.0236,-3.94194 2.24645,-6.23071 1.35228,-1.39241 2.70126,-2.15782 4.27013,-2.42288 1.26135,-0.21309 2.43752,-0.62072 2.61372,-0.90582 0.38576,-0.62417 4.22769,-0.70163 4.22769,-0.0852 0,0.23824 0.57486,0.68535 1.27746,0.99358 1.02159,0.44821 1.31199,1.09721 1.44979,3.24004 0.13112,2.03851 0.50328,2.93988 1.55561,3.76765 1.20008,0.94399 1.27124,1.18103 0.53737,1.79009 -0.51055,0.4237 -0.8459,1.67468 -0.8459,3.15536 0,2.12379 -0.22877,2.58843 -1.70329,3.45947 -2.33808,1.38112 -2.42024,3.9848 -0.14206,4.4979 4.64292,1.04564 5.71468,1.49223 7.02068,2.92557 1.72755,1.89599 3.28602,4.2908 4.53204,6.96413 0.50941,1.09296 2.52213,3.718 4.47271,5.83347 3.3464,3.62927 3.65534,3.82588 5.47506,3.48449 1.56243,-0.29311 2.31456,-0.0674 3.96184,1.18907 1.86425,1.42194 2.00152,1.72226 1.65142,3.61253 -0.21008,1.13393 -0.61602,2.14684 -0.90219,2.25092 -0.28617,0.10407 -0.52031,0.53612 -0.52031,0.96008 0,0.42394 -0.26834,0.93665 -0.59632,1.13935 -0.94497,0.58405 -4.52371,-1.38984 -5.05544,-2.78839 -0.26557,-0.69854 -2.32423,-2.75783 -4.57478,-4.57618 -2.25057,-1.81837 -4.76654,-4.09098 -5.59107,-5.05024 -0.82451,-0.95927 -2.39336,-2.72741 -3.48629,-3.92918 l -1.98719,-2.18506 -1.23504,2.44256 c -1.77021,3.50101 -3.02317,6.49019 -3.02317,7.21241 0,0.34314 -0.22656,0.62389 -0.50348,0.62389 -0.91037,0 -1.79766,6.98831 -1.63921,12.91073 0.0856,3.19752 0.34714,5.81632 0.58136,5.81956 0.2342,0.004 0.4258,0.46576 0.4258,1.02783 0,0.56209 0.22592,1.26469 0.50205,1.56136 0.27613,0.29665 0.80369,4.755 1.17236,9.90745 0.59387,8.29983 0.80122,9.46519 1.81847,10.21972 2.92577,2.17014 5.59133,4.73985 5.59133,5.39028 0,0.39384 -0.31937,0.97492 -0.7097,1.29133 -0.8529,0.69129 -4.90985,1.25497 -6.10344,0.848 z m 42.72409,-13.88575 c -1.63941,-0.29899 -2.98075,-0.77661 -2.98075,-1.06137 0,-0.28476 -0.97635,-0.67387 -2.16967,-0.8647 -2.94907,-0.47156 -3.77519,-1.87324 -2.54878,-4.32445 1.82343,-3.64451 2.09031,-4.17739 3.78077,-7.5489 1.29076,-2.57434 1.69404,-4.13033 1.65075,-6.36915 -0.0639,-3.31322 -0.54153,-5.26998 -1.286,-5.26998 -0.71015,0 -11.44413,12.18111 -12.60573,14.30518 -0.53448,0.97732 -1.76932,2.59983 -2.7441,3.60556 l -1.77236,1.82861 2.00677,2.00675 c 1.77363,1.77363 1.90386,2.09216 1.12099,2.74189 -1.5216,1.26283 -5.51284,0.67099 -9.38114,-1.39108 -3.41052,-1.81801 -3.58002,-2.00725 -3.42739,-3.82596 0.11352,-1.3522 1.13339,-3.09862 3.4775,-5.95469 1.82431,-2.22274 3.61401,-4.59646 3.97712,-5.27494 0.36312,-0.67847 1.92802,-2.92964 3.4776,-5.00259 1.54955,-2.07296 2.81738,-4.01238 2.81738,-4.30982 0,-0.29744 0.53479,-1.29183 1.18843,-2.20979 0.90751,-1.27446 1.03707,-1.85138 0.54814,-2.44053 -0.35218,-0.42432 -0.77142,-2.1399 -0.93168,-3.81238 -0.28634,-2.98832 -1.61532,-8.75653 -2.53195,-10.98953 -1.29931,-3.1652 -1.23384,-8.80031 0.10214,-8.80031 0.31334,0 2.18057,-1.1495 4.14941,-2.55442 1.96884,-1.40495 4.46425,-2.92401 5.54538,-3.37574 l 1.96567,-0.82131 -0.55325,-3.01158 c -0.30429,-1.65638 -0.90159,-3.81669 -1.32735,-4.80068 -1.15124,-2.66069 -1.00777,-7.19155 0.26418,-8.34264 0.57106,-0.51681 1.33752,-0.93964 1.70328,-0.93964 0.36574,0 0.66499,-0.25551 0.66499,-0.56777 0,-0.31227 0.49571,-0.56776 1.10158,-0.56776 0.60587,0 2.57889,-0.76648 4.38449,-1.70328 5.32925,-2.76498 9.8435,-1.78569 9.8435,2.1354 0,2.56232 1.07474,5.07509 2.59741,6.07277 1.77312,1.16178 1.75554,2.46347 -0.0425,3.14708 -0.97942,0.37237 -1.41941,0.96959 -1.41941,1.92667 0,2.26417 -0.59672,3.18005 -2.62378,4.02701 -2.20185,0.91998 -2.42114,1.68592 -0.74028,2.5855 1.32218,0.7076 4.95963,0.2825 7.62229,-0.8908 0.9368,-0.41282 2.50256,-0.91084 3.47945,-1.10673 2.13094,-0.42731 7.9649,-5.97901 9.09245,-8.65253 0.42376,-1.00485 0.77049,-2.60167 0.77049,-3.54852 0,-0.94684 0.25549,-1.72153 0.56776,-1.72153 0.31229,0 0.57436,-0.7026 0.58241,-1.56133 0.0107,-1.24912 0.44632,-1.76005 2.17319,-2.55494 2.73953,-1.26103 3.17476,-1.24738 6.14934,0.19248 3.35439,1.62383 3.33488,3.30445 -0.0751,6.48002 -2.15819,2.0098 -6.55873,7.78808 -6.55873,8.61216 0,0.71896 -4.96465,6.02877 -6.4914,6.94269 -0.95764,0.57327 -3.52962,1.50158 -5.71549,2.06294 -2.18589,0.56136 -4.22983,1.201 -4.5421,1.42147 -0.31227,0.22046 -1.86976,0.72747 -3.4611,1.12669 l -2.89332,0.72584 -1.01176,3.90081 c -0.55645,2.14544 -1.2109,4.0239 -1.4543,4.17435 -0.24341,0.15042 -0.86908,1.62949 -1.39036,3.28676 -0.87725,2.78904 -0.87972,3.28536 -0.033,6.67015 0.50314,2.0113 1.1457,4.16788 1.4279,4.79244 0.28223,0.62454 0.9193,2.6046 1.41572,4.40016 0.82996,3.00184 0.82728,3.52742 -0.0335,6.52924 -0.51482,1.79556 -1.13054,3.52014 -1.36823,3.8324 -0.2377,0.31227 -0.82511,2.31349 -1.30538,4.44715 -0.48027,2.13367 -1.27692,4.32546 -1.77032,4.87068 -1.31416,1.45212 -1.1718,1.80621 1.74869,4.35009 3.95246,3.44276 2.80918,4.24993 -4.20716,2.97032 z m -9.22614,-40.45206 c 0,-0.45068 0.50638,-1.17412 1.12527,-1.6076 1.378,-0.9652 1.54156,-2.03399 0.95361,-6.23132 -0.47855,-3.41631 -1.02678,-3.86763 -3.25173,-2.67689 -0.87783,0.4698 -1.09819,1.20358 -1.09819,3.65695 0,1.68806 0.25549,3.2271 0.56775,3.4201 0.31227,0.19291 0.56778,1.23005 0.56778,2.30456 0,1.0745 0.25549,1.95366 0.56775,1.95366 0.31227,0 0.56776,-0.36876 0.56776,-0.81946 z m 119.372,7.34101 c -1.80227,-1.28148 -1.60354,-2.23203 0.99359,-4.75247 3.15492,-3.06175 2.98915,-3.81957 -0.94307,-4.31086 -1.76775,-0.22088 -3.62007,-0.64638 -4.11626,-0.9456 -0.49621,-0.29922 -3.58485,-0.8817 -6.86368,-1.29444 -3.49518,-0.43994 -4.97282,-0.78047 -3.57172,-0.82311 2.86933,-0.0873 10.78224,0.95313 12.37203,1.6267 0.62453,0.26461 2.02974,0.6075 3.1227,0.76196 1.09293,0.1545 2.41854,0.45164 2.94579,0.66037 0.61318,0.24276 1.31878,-0.0412 1.95817,-0.7879 0.55627,-0.64969 2.34737,-1.46905 4.03857,-1.84751 2.83601,-0.63469 3.12057,-0.59853 4.26027,0.54116 l 1.22128,1.22126 -1.35709,1.8564 c -0.7464,1.021 -1.82013,2.19023 -2.38606,2.59826 -0.56596,0.40804 -1.02899,1.06054 -1.02899,1.44997 0,0.38945 -0.83035,1.49913 -1.84522,2.46599 -2.32353,2.21358 -6.78308,3.01416 -8.80031,1.57982 z m -9.22613,-4.94306 c 0,-0.57267 5.04833,-0.50158 6.52926,0.0918 0.72329,0.28989 -0.25572,0.43619 -2.69688,0.40306 -2.10781,-0.0285 -3.83238,-0.25137 -3.83238,-0.49499 z m 8.23255,-27.86339 c -0.62455,-0.37608 -1.25102,-0.7567 -1.39218,-0.84582 -0.45853,-0.28945 0.0107,-4.36217 0.5678,-4.91834 0.29727,-0.29726 0.54048,-2.26885 0.54048,-4.38129 0,-4.2923 0.33266,-4.70122 4.32906,-5.32176 1.44546,-0.22446 2.55492,-0.077 3.23426,0.42971 0.96262,0.71805 0.98318,1.09469 0.29768,5.45131 -0.60563,3.8489 -1.09545,5.15503 -2.75835,7.35521 -2.18211,2.88717 -3.05673,3.29207 -4.81875,2.23098 z m -38.89171,-5.37337 c 2.02974,-0.54344 3.94594,-1.15399 4.25821,-1.35677 1.00731,-0.65417 3.8692,-0.78479 4.07114,-0.18584 0.10923,0.32407 -1.75197,0.91638 -4.20867,1.33933 -7.0242,1.20933 -8.0714,1.26098 -4.12068,0.20321 z m 30.09138,-0.5457 c -0.78067,-0.14012 -1.66211,-0.48848 -1.95877,-0.77431 -0.29665,-0.28583 -4.76779,-0.57596 -9.93585,-0.64475 l -9.39645,-0.12511 8.23255,-0.19356 c 10.45783,-0.24602 16.46509,0.24429 16.46509,1.34388 0,0.79906 -0.69822,0.87979 -3.40657,0.39392 z m -53.08576,-1.82644 c 2.45321,-0.98426 5.2426,-1.73654 6.28571,-1.69521 0.60235,0.0238 -0.5655,0.53385 -2.59526,1.1333 -3.70092,1.09302 -5.81735,1.41526 -3.69045,0.56191 z m 8.51643,-2.87413 c 0.62454,-0.26837 1.51877,-0.48795 1.98717,-0.48795 0.53681,0 0.43188,0.18046 -0.28388,0.48795 -0.62453,0.26836 -1.51876,0.48795 -1.98716,0.48795 -0.53682,0 -0.43186,-0.18047 0.28387,-0.48795 z m 6.24539,-1.49149 c 1.87361,-0.43888 3.91755,-1.04316 4.54211,-1.34283 2.27649,-1.09237 19.96303,-3.04638 20.4495,-2.25926 0.13519,0.21869 -1.98351,0.57306 -4.70815,0.78754 -6.40399,0.50406 -12.60048,1.39243 -14.03806,2.01257 -1.36274,0.58786 -7.48747,1.75135 -8.75308,1.66281 -0.49439,-0.0345 0.63406,-0.42196 2.50768,-0.86083 z m 28.73998,-3.98416 c 0.9268,-1.11675 10.89043,-1.08034 11.82288,0.0431 0.57913,0.6978 -0.25545,0.80681 -5.89351,0.76973 -5.46013,-0.0358 -6.46043,-0.17296 -5.92937,-0.81292 z"
       id="path151"
       inkscape:connector-curvature="0" />
  </g>
</svg>
