<?xml version="1.0" encoding="UTF-8" standalone="no"?>
<!-- Created with Inkscape (http://www.inkscape.org/) -->

<svg
   xmlns:dc="http://purl.org/dc/elements/1.1/"
   xmlns:cc="http://creativecommons.org/ns#"
   xmlns:rdf="http://www.w3.org/1999/02/22-rdf-syntax-ns#"
   xmlns:svg="http://www.w3.org/2000/svg"
   xmlns="http://www.w3.org/2000/svg"
   xmlns:sodipodi="http://sodipodi.sourceforge.net/DTD/sodipodi-0.dtd"
   xmlns:inkscape="http://www.inkscape.org/namespaces/inkscape"
   width="209.99986mm"
   height="229.06842mm"
   viewBox="0 0 209.99987 229.06843"
   version="1.1"
   id="svg8"
   inkscape:version="0.92.3 (2405546, 2018-03-11)"
   sodipodi:docname="roberrer.svg">
  <defs
     id="defs2" />
  <sodipodi:namedview
     id="base"
     pagecolor="#ffffff"
     bordercolor="#666666"
     borderopacity="1.0"
     inkscape:pageopacity="0.0"
     inkscape:pageshadow="2"
     inkscape:zoom="0.7"
     inkscape:cx="137.05408"
     inkscape:cy="389.12219"
     inkscape:document-units="mm"
     inkscape:current-layer="layer1"
     showgrid="false"
     fit-margin-top="0"
     fit-margin-left="0"
     fit-margin-right="0"
     fit-margin-bottom="0"
     inkscape:window-width="1920"
     inkscape:window-height="1017"
     inkscape:window-x="-8"
     inkscape:window-y="-8"
     inkscape:window-maximized="1" />
  <metadata
     id="metadata5">
    <rdf:RDF>
      <cc:Work
         rdf:about="">
        <dc:format>image/svg+xml</dc:format>
        <dc:type
           rdf:resource="http://purl.org/dc/dcmitype/StillImage" />
        <dc:title></dc:title>
      </cc:Work>
    </rdf:RDF>
  </metadata>
  <g
     inkscape:label="Layer 1"
     inkscape:groupmode="layer"
     id="layer1"
     transform="translate(-120.19305,303.49725)">
    <path
       style="fill:#000000;stroke-width:0.50912231"
       d="m 250.16023,-74.882171 c -0.22454,-0.192632 -1.88704,-0.61173 -3.69441,-0.931333 -2.19065,-0.387375 -4.01206,-1.102411 -5.46371,-2.144912 -1.34075,-0.962856 -3.30617,-1.771734 -5.11438,-2.104853 -1.61525,-0.297572 -3.33464,-0.744566 -3.82087,-0.993328 -0.48622,-0.248758 -1.74631,-0.455664 -2.80016,-0.459794 -1.05387,-0.004 -2.48889,-0.297318 -3.18893,-0.651528 -1.19749,-0.605917 -1.27387,-0.888298 -1.29078,-4.772559 -0.01,-2.270689 -0.2652,-4.440385 -0.56738,-4.821535 -0.35428,-0.446863 -0.6629,-6.931644 -0.86897,-18.257717 -0.39795,-21.87261 -0.77476,-28.51083 -1.61842,-28.51083 -0.34485,0 -0.74699,0.51548 -0.89368,1.14552 -0.94705,4.06746 -2.00102,7.87836 -2.36691,8.55814 -0.23505,0.43672 -0.70895,2.15032 -1.05308,3.80799 -0.34413,1.65769 -1.14312,4.16418 -1.7755,5.57 -0.6324,1.40581 -1.53366,4.38887 -2.00281,6.629 -0.46915,2.24014 -1.04975,4.53119 -1.29022,5.09123 -0.45114,1.05064 -1.53453,7.10276 -1.91389,10.691564 -0.37207,3.51995 -2.88003,7.891396 -4.5274,7.891396 -0.94239,0 -1.21744,0.66562 -1.51041,3.655132 -0.14451,1.473761 -0.52682,2.842867 -0.84974,3.042459 -0.32295,0.199586 -1.74366,0.518219 -3.15715,0.70807 -1.41347,0.189846 -2.79906,0.516134 -3.07907,0.725062 -0.65082,0.485612 -7.76151,1.387342 -16.5413,2.097666 -10.09194,0.816479 -15.38231,0.02194 -19.18958,-2.882015 -1.49537,-1.140566 -1.6896,-1.566737 -1.6896,-3.706929 0,-4.894493 1.3138,-5.877765 8.65507,-6.477563 4.4555,-0.364022 5.73464,-0.903376 8.78235,-3.703076 0.90526,-0.83159 1.4001,-1.804121 1.4001,-2.751729 0,-0.806073 0.28148,-1.966007 0.62549,-2.577637 0.59582,-1.05929 1.0532,-3.0705 2.39484,-10.53082 0.32731,-1.82011 0.80468,-3.69441 1.06081,-4.16511 0.25612,-0.4707 0.92114,-3.08527 1.47778,-5.81017 0.55666,-2.72489 1.21352,-5.08903 1.45971,-5.25365 0.40569,-0.27126 0.77778,-1.73822 2.19294,-8.64556 0.25206,-1.23022 0.66404,-2.49031 0.91552,-2.80017 0.25148,-0.30984 0.8591,-3.08352 1.35026,-6.16371 0.49118,-3.0802 1.06809,-5.82946 1.28201,-6.10947 0.21393,-0.28002 0.89059,-3.37295 1.50369,-6.87316 0.61311,-3.50022 1.32042,-6.58168 1.5718,-6.84769 0.25139,-0.26602 0.46103,-1.41154 0.4659,-2.54561 0.0154,-3.78295 1.43904,-9.0648 3.04384,-11.29944 0.84118,-1.1713 1.52943,-2.73768 1.52943,-3.48084 0,-1.1626 -0.15991,-1.30367 -1.14554,-1.01088 -0.63004,0.18723 -1.37462,0.61258 -1.65464,0.94538 -0.28001,0.33282 -1.5401,0.90132 -2.80017,1.26334 -1.26009,0.36201 -3.50784,1.22544 -4.99501,1.9187 -2.12296,0.98966 -3.63502,1.28147 -7.03733,1.35815 -4.2994,0.097 -4.34508,0.0847 -5.82386,-1.565 -2.67823,-2.9877 -1.93374,-8.33639 2.33113,-16.74812 1.25477,-2.47483 2.28288,-4.78607 2.28465,-5.13611 0.008,-1.42261 -1.84433,-0.47038 -4.53725,2.33345 l -2.85238,2.96984 -4.68845,0.33279 c -5.02181,0.35645 -6.45314,0.0637 -7.98064,-1.63194 -0.68282,-0.758 -1.57788,-1.07668 -3.02408,-1.07668 -2.49578,0 -7.87698,0.94708 -9.15585,1.6114 -0.57177,0.29703 -1.16095,0.30186 -1.52737,0.0135 -0.32806,-0.25906 -1.85658,-0.86539 -3.39667,-1.34741 -7.726,-2.41812 -11.16705,-5.78714 -12.76267,-12.4955 -0.36631,-1.54011 -0.82494,-3.02928 -1.01915,-3.3093 -0.19423,-0.28001 -0.86941,-2.79625 -1.50041,-5.59161 -0.9184,-4.06852 -1.59062,-5.74334 -3.36954,-8.39508 -1.22224,-1.82193 -2.22225,-3.59366 -2.22225,-3.93718 0,-0.58437 -1.08564,-3.35793 -2.09863,-5.36157 -0.5742,-1.13568 -0.58043,-5.12895 -0.01,-5.75998 0.24088,-0.26603 0.85639,-2.13922 1.36779,-4.16266 0.85048,-3.36504 0.87419,-4.25873 0.27786,-10.4728 -0.71196,-7.41922 -0.27945,-10.61714 1.56982,-11.60683 0.51075,-0.27336 0.92866,-0.73335 0.92866,-1.0222 0,-0.28885 0.54616,-1.25447 1.21371,-2.14585 0.66754,-0.89137 1.36287,-2.19343 1.54519,-2.89349 1.18739,-4.55933 1.40837,-4.90972 4.11915,-6.5311 1.4849,-0.88818 3.00768,-1.61818 3.38395,-1.62226 2.13872,-0.0231 8.70881,-3.31113 11.77963,-5.89506 0.78222,-0.65819 2.75357,-2.99231 4.38079,-5.18691 3.23899,-4.36845 6.29842,-6.72415 10.08525,-7.76545 1.3421,-0.36905 2.55472,-0.80251 2.69473,-0.96324 0.96884,-1.11229 2.41991,-1.30329 6.18948,-0.81478 2.21753,0.28738 4.19496,0.76579 4.39427,1.06312 0.19932,0.29734 1.63649,0.81958 3.19374,1.16053 3.3428,0.73193 6.05311,2.43848 7.10323,4.47259 0.41542,0.80472 0.9848,1.61496 1.26528,1.80056 0.28048,0.18568 2.11369,1.52307 4.07381,2.97218 1.96011,1.44911 4.25117,2.92873 5.09122,3.28809 0.84005,0.35933 2.03258,1.20217 2.65007,1.87298 1.46694,1.59365 3.5036,5.44991 3.94877,7.47673 0.38289,1.74325 2.0924,3.33589 4.79131,4.46372 0.94426,0.39459 1.79947,0.71744 1.90051,0.71744 0.24471,0 -1.80526,-3.68616 -2.39251,-4.30209 -0.97811,-1.02589 -0.37607,-2.81932 1.70263,-5.07195 2.03377,-2.20395 2.38216,-2.37455 5.79867,-2.8396 1.99919,-0.27215 6.01009,-0.48503 8.91312,-0.47308 5.02903,0.0206 5.97766,-0.0999 8.32598,-1.05841 3.36733,-1.37439 5.5153,-2.03768 6.59886,-2.03768 0.67786,0 1.37405,-0.2291 1.54711,-0.50911 0.40998,-0.66336 6.20861,-0.66336 6.61859,0 0.17299,0.28001 0.84591,0.50911 1.49523,0.50911 2.11595,0 4.72917,1.41088 5.06083,2.73233 0.49009,1.95263 -0.1997,4.28331 -1.5246,5.15141 -1.56271,1.02393 -1.52827,1.45488 0.18704,2.33997 3.03076,1.56385 3.69226,4.50727 1.27281,5.66347 -1.9288,0.92173 -2.39749,3.89359 -2.05111,13.00553 0.14105,3.70909 -0.75769,6.04987 -3.04013,7.91844 -0.63003,0.5158 -1.14552,1.18953 -1.14552,1.49718 0,0.30765 -0.35969,0.95683 -0.79933,1.4426 -0.5114,0.56511 -0.90803,2.32173 -1.10112,4.87676 -0.26797,3.54565 -0.46582,4.14676 -1.76438,5.36019 -2.14468,2.00408 -1.60185,3.57249 1.53054,4.42227 1.31387,0.35643 2.96162,0.95254 3.66166,1.32467 0.70004,0.37213 2.21448,0.92868 3.36542,1.23677 3.34258,0.89477 6.5562,4.08641 7.61384,7.56182 0.48964,1.60892 1.08341,3.14296 1.31951,3.40897 0.23611,0.26603 0.42928,1.12091 0.42928,1.89977 0,0.77883 0.22579,2.96679 0.50173,4.86211 0.27593,1.89532 0.73662,8.13368 1.02371,13.86303 0.28708,5.72937 0.74863,10.64367 1.02564,10.92069 0.27702,0.27701 0.50591,0.85877 0.50864,1.2928 0.006,0.83015 1.4228,3.83872 4.21005,8.93508 2.47117,4.51845 2.93849,5.25822 5.58557,8.84208 1.33009,1.80078 2.41833,3.47714 2.41833,3.72526 0,0.70335 -1.89599,-0.48482 -2.77406,-1.73842 -0.92605,-1.32213 -1.07883,-0.3318 -0.17261,1.11921 0.33942,0.54351 0.45537,1.14993 0.2577,1.34763 -0.401,0.40099 -2.40219,-1.22634 -2.40219,-1.95338 0,-0.2553 -0.58251,-1.22789 -1.29447,-2.1613 -0.71196,-0.93344 -1.9402,-2.92281 -2.72945,-4.42085 -3.99332,-7.57967 -4.78655,-9.34231 -5.60903,-12.46393 -0.54825,-2.08088 -1.80728,-3.68171 -2.41646,-3.07254 -0.73186,0.73187 0.94236,5.99515 3.18497,10.01256 1.32863,2.38016 2.73792,4.95758 3.13176,5.72763 0.39381,0.77004 0.92835,1.40009 1.18787,1.40009 0.25951,0 0.47183,0.31845 0.47183,0.70766 0,0.38924 1.03097,2.10816 2.29106,3.81985 1.26007,1.71169 2.29104,3.33475 2.29104,3.6068 0,0.27203 0.68732,0.85004 1.52736,1.28445 0.89052,0.46051 1.52737,1.19642 1.52737,1.76495 0,0.53631 0.21448,1.10768 0.47664,1.2697 0.26213,0.16202 0.96881,1.9511 1.57039,3.97575 0.60157,2.02463 1.3035,4.07899 1.55985,4.56522 0.25636,0.48624 0.46611,2.24394 0.46611,3.90602 0,2.91792 -0.0733,3.08477 -2.13051,4.84561 -1.17176,1.00299 -2.94734,2.07474 -3.94569,2.38163 -2.71769,0.83547 -10.72484,1.22255 -10.72484,0.51845 0,-0.32689 0.92587,-0.58755 2.16377,-0.60914 6.54362,-0.1141 9.13565,-1.70697 4.86154,-2.98752 -1.19905,-0.35923 -2.63396,-0.97105 -3.18862,-1.35957 -0.55468,-0.3885 -1.43866,-0.70639 -1.9644,-0.70639 -1.52493,0 -4.41791,-3.22636 -4.41791,-4.92702 0,-2.58951 2.35729,-5.21202 4.70939,-5.23923 0.77004,-0.01 1.40008,-0.15124 1.40008,-0.31638 0,-0.53644 -12.36714,-13.4461 -12.88103,-13.4461 -0.30597,0 -0.37065,1.13095 -0.16741,2.92744 0.81017,7.16086 1.84137,21.11253 1.84441,24.9539 0.002,2.31393 0.22079,4.60499 0.48656,5.09123 0.95799,1.75252 1.80096,12.31313 1.89932,23.79454 0.0552,6.4404 0.15721,13.73327 0.22681,16.206373 l 0.12643,4.496559 2.01624,1.725827 c 1.17721,1.007645 3.2033,2.052202 4.86883,2.510131 7.31002,2.009847 8.56847,4.023451 6.8284,10.925769 -0.36378,1.442935 -0.75496,1.827587 -2.20893,2.171998 -0.97178,0.230195 -2.18654,0.657567 -2.69944,0.949723 -1.01983,0.580892 -14.26985,0.55396 -14.95107,-0.0304 z m 4.68295,-8.924741 c 0,-0.888841 -0.2935,-0.992697 -2.42429,-0.857865 -1.82109,0.115243 -2.49969,-0.04312 -2.72736,-0.636403 -0.19943,-0.519712 -0.95712,-0.789806 -2.21567,-0.789806 -1.35172,0 -2.27898,-0.366395 -3.16201,-1.249418 -0.87295,-0.872956 -1.59031,-1.160264 -2.38083,-0.953539 -1.05502,0.275898 -1.07542,0.357743 -0.30203,1.21232 0.45616,0.504054 1.71864,1.0667 2.80553,1.250325 1.08689,0.18363 2.53453,0.773081 3.21698,1.309894 0.68245,0.536819 1.89199,0.979536 2.68788,0.983823 0.79589,0.004 1.79072,0.233106 2.21074,0.508486 1.14656,0.751709 2.29106,0.363157 2.29106,-0.777817 z m -67.57908,-4.290281 c 0.48624,-0.26336 1.88014,-0.778845 3.09757,-1.145526 2.4332,-0.732846 2.84899,-1.596526 0.88733,-1.843108 -0.81867,-0.102909 -1.81753,0.341839 -2.85858,1.272805 -0.88011,0.787042 -1.98197,1.58671 -2.4486,1.777041 -0.46661,0.190327 -0.55889,0.362163 -0.20508,0.381841 0.35381,0.0197 1.04113,-0.179686 1.52736,-0.443053 z m 14.05236,-12.376497 c 0.39504,-0.63004 0.87835,-2.05497 1.07401,-3.1665 0.19566,-1.11153 0.93772,-3.05893 1.64904,-4.32754 l 1.29328,-2.30657 -1.32865,1.52737 c -1.68533,1.9374 -4.25796,6.38158 -4.68953,8.10111 -0.42816,1.705981 0.96497,1.825767 2.00185,0.17213 z m 51.18492,-19.4315 c 0.0693,-5.50461 -0.26185,-4.70595 -0.61574,1.48494 -0.17203,3.00919 -0.11603,4.57072 0.13701,3.81842 0.23539,-0.70005 0.45085,-3.08656 0.47875,-5.30336 z m 20.65127,-26.13494 c -0.21034,-0.49003 -0.63993,-1.80738 -0.95462,-2.92744 -0.86354,-3.07342 -1.34883,-3.58235 -4.11768,-4.31818 -1.40008,-0.37207 -2.79033,-0.86354 -3.08943,-1.09212 -0.2991,-0.2286 -1.32322,-0.47942 -2.27582,-0.55739 -1.65998,-0.13586 -1.75164,-0.0512 -2.20437,2.03606 -0.75667,3.48853 -0.0716,4.34322 4.33268,5.406 2.06034,0.49718 3.97517,1.09147 4.25519,1.32064 0.46778,0.38287 2.03716,0.78261 3.74561,0.95406 0.47129,0.0473 0.56931,-0.21386 0.30844,-0.82163 z m -39.94716,-10.7888 c 0,-0.5435 -0.22912,-1.1298 -0.50914,-1.30285 -0.28001,-0.17299 -0.53569,-1.16028 -0.56817,-2.19382 -0.0325,-1.03353 -0.16895,-1.45132 -0.30341,-0.92841 -0.34673,1.34914 0.33104,5.41327 0.90278,5.41327 0.26287,0 0.47794,-0.44469 0.47794,-0.98819 z m 35.23848,-7.2806 c -6.71362,-9.78286 -8.40118,-12.48754 -10.08855,-16.16907 -0.70589,-1.54009 -1.53947,-3.25838 -1.85239,-3.81841 -0.31294,-0.56003 -0.82351,-2.27694 -1.13465,-3.81535 -0.39321,-1.94433 -0.83113,-2.84822 -1.4364,-2.96478 -1.2636,-0.24335 -1.09649,1.67435 0.41334,4.74363 0.68873,1.40009 1.25432,2.91565 1.25688,3.36792 0.002,0.45227 0.46288,1.40483 1.02291,2.1168 0.56003,0.71195 1.01825,1.62731 1.01825,2.0341 0,0.40678 0.57275,1.58363 1.27279,2.61519 0.70006,1.03157 1.27281,2.11985 1.27281,2.41841 0,0.29855 1.03097,2.01765 2.29106,3.8202 1.26007,1.80255 2.29104,3.48744 2.29104,3.74419 0,0.25675 0.45822,0.71204 1.01825,1.01176 0.56003,0.29972 1.01825,0.78128 1.01825,1.07013 0,0.28885 0.63003,1.35388 1.40008,2.36674 1.2766,1.67913 1.41437,1.74389 1.56219,0.73416 0.0895,-0.61143 -0.50428,-2.07845 -1.32586,-3.27562 z m -3.98046,1.77748 c -0.7123,-1.05006 -1.62181,-2.09242 -2.02115,-2.31634 -0.39932,-0.22393 -0.72825,-0.68213 -0.73098,-1.01824 -0.008,-0.866 -3.17612,-4.67382 -3.94075,-4.735 -1.36339,-0.1091 -1.54713,-0.24064 -1.88409,-1.34918 -0.21905,-0.72065 -0.44769,-0.90339 -0.61641,-0.4927 -0.14759,0.35906 0.36711,1.50458 1.14358,2.54562 1.34945,1.80925 8.70436,9.27505 9.13726,9.27505 0.11411,0 -0.37515,-0.85913 -1.08746,-1.90921 z m -48.8331,0.50134 c -0.28573,-0.20574 -0.84013,-1.06137 -1.23202,-1.90142 -0.57654,-1.23592 -0.75309,-1.35012 -0.92521,-0.59851 -0.22535,0.98396 1.17994,2.8949 2.1192,2.88176 0.36961,-0.006 0.38243,-0.13393 0.0381,-0.38183 z m 56.77748,0.14066 c 0,-0.39876 -4.62622,-6.36972 -4.93518,-6.36972 -0.15413,0 0.0918,0.51549 0.54662,1.14552 0.45478,0.63006 1.30981,2.11923 1.90009,3.30932 0.59028,1.19006 1.39167,2.16377 1.78087,2.16377 0.38918,0 0.7076,-0.11199 0.7076,-0.24889 z m -12.39631,-10.17261 c -1.0225,-1.54001 -1.85911,-2.986 -1.85911,-3.2133 0,-0.22729 -0.81807,-1.66271 -1.81792,-3.18985 -1.39033,-2.1235 -1.74679,-2.44521 -1.5155,-1.36781 0.16626,0.77484 1.09897,2.65394 2.07249,4.17582 0.97353,1.52186 1.77005,2.98956 1.77005,3.26155 0,0.69973 2.61629,3.72641 2.9407,3.40198 0.14759,-0.14759 -0.56821,-1.52838 -1.59071,-3.06839 z m 6.22715,1.14575 c -0.33256,-0.6214 -1.25703,-2.0304 -2.05439,-3.13113 -0.79737,-1.10072 -1.44977,-2.31061 -1.44977,-2.68863 0,-0.37801 -0.17183,-0.68909 -0.38184,-0.69126 -0.21001,-0.002 -0.63427,-0.51768 -0.9428,-1.14552 -0.30854,-0.62786 -1.16234,-2.2871 -1.89734,-3.68718 -0.73499,-1.40007 -1.62304,-4.09207 -1.97347,-5.98217 -0.3504,-1.89013 -0.81395,-3.43658 -1.03012,-3.43658 -0.21615,0 -0.39301,-1.37464 -0.39301,-3.05474 0,-1.69708 0.22627,-3.05473 0.50912,-3.05473 0.61552,0 0.68809,-3.90227 0.0795,-4.27838 -0.23626,-0.14605 -0.57258,-3.25549 -0.7474,-6.90995 -0.33497,-7.00303 -1.74586,-16.30427 -2.47319,-16.30427 -0.54304,0 0.0679,7.18194 0.67691,7.95816 0.24852,0.31675 0.66833,6.38802 0.93291,13.49174 0.49604,13.31864 0.74709,15.75585 1.80242,17.49794 0.33927,0.56005 1.03505,2.22106 1.54619,3.69114 0.51115,1.4701 1.11319,2.6729 1.3379,2.6729 0.2247,0 0.40856,0.2916 0.40856,0.64801 0,0.35641 0.80185,1.86557 1.78192,3.35372 0.98006,1.48816 1.78193,2.88138 1.78193,3.09607 0,0.46753 2.37034,3.08464 2.79377,3.08464 0.16317,0 0.0246,-0.50841 -0.30786,-1.12978 z m -35.45157,-5.84812 c -0.63006,-0.12142 -1.66103,-0.12142 -2.29106,0 -0.63004,0.12142 -0.11449,0.22065 1.14552,0.22065 1.26009,0 1.77557,-0.0993 1.14554,-0.22065 z m -12.34622,-3.45911 c 0,-0.70004 -0.2291,-1.27279 -0.50912,-1.27279 -0.28003,0 -0.50914,0.57275 -0.50914,1.27279 0,0.70006 0.22911,1.27281 0.50914,1.27281 0.28002,0 0.50912,-0.57275 0.50912,-1.27281 z m -34.36207,-0.26053 c 0.42102,-0.68122 5.51501,-4.04254 8.38536,-5.53317 1.25378,-0.65111 2.93237,-1.73311 3.7302,-2.40446 0.79783,-0.67133 1.67923,-1.2206 1.95863,-1.2206 0.2794,0 2.18226,-1.26007 4.22858,-2.80018 2.04629,-1.54008 3.87744,-2.80017 4.06919,-2.80017 0.19185,0 1.07789,-0.76695 1.96912,-1.70432 0.89127,-0.93738 1.96413,-1.82243 2.38415,-1.96679 0.42003,-0.14432 0.60922,-0.4292 0.42043,-0.633 -0.18877,-0.20379 -1.84187,0.73854 -3.67347,2.09408 -4.4025,3.25818 -11.40154,7.82829 -17.0488,11.13227 -2.13495,1.24907 -8.29345,5.31853 -8.94723,5.91222 -0.28348,0.25742 0.0729,0.43922 0.86091,0.43922 0.73952,0 1.48784,-0.23179 1.66293,-0.5151 z m 2.60767,-4.5369 c 0.73941,-0.5816 1.54994,-1.05746 1.80119,-1.05746 0.25125,0 2.25507,-1.26009 4.45296,-2.80018 2.19787,-1.5401 4.17505,-2.80017 4.39372,-2.80017 0.21867,0 2.53121,-1.60374 5.13896,-3.56387 2.60777,-1.96011 4.87908,-3.56385 5.04738,-3.56385 0.43923,0 6.22783,-4.50094 6.63417,-5.15841 0.75138,-1.21576 -2.22568,0.30734 -5.7312,2.93216 -2.00926,1.50446 -3.81429,2.73536 -4.01122,2.73536 -0.19692,0 -1.70058,0.91642 -3.34148,2.03651 -1.6409,1.12006 -3.1749,2.03648 -3.40887,2.03648 -0.23397,0 -2.12668,1.28129 -4.20601,2.84732 -2.07934,1.56604 -4.23882,3.02785 -4.79887,3.24846 -0.56003,0.22064 -2.47752,1.40222 -4.26108,2.62575 -1.78356,1.22353 -3.78823,2.52349 -4.45483,2.88878 -0.66657,0.3653 -1.21196,0.98666 -1.21196,1.3808 0,0.77926 5.44818,-1.81412 7.95714,-3.78768 z m 2.65588,3.81739 c 0.74324,-0.39901 2.63448,-1.22886 4.20275,-1.8441 2.0467,-0.80292 4.73285,-2.75333 9.51842,-6.91133 3.66687,-3.18603 6.78476,-5.79276 6.92865,-5.79276 0.3909,0 4.37571,-3.97935 4.37571,-4.3697 0,-0.43892 -1.1202,0.44148 -4.73839,3.724 -1.62606,1.4752 -3.28708,2.68218 -3.69113,2.68218 -0.40408,0 -0.73468,0.2363 -0.73468,0.52511 0,0.28881 -0.40093,0.67054 -0.89096,0.84828 -0.49003,0.1778 -1.69283,0.93499 -2.67289,1.68279 -0.98005,0.7478 -2.58379,1.79799 -3.56385,2.33376 -0.98007,0.53575 -1.96515,1.26047 -2.18907,1.61051 -0.22393,0.35002 -0.71371,0.63641 -1.08839,0.63641 -0.37469,0 -1.80456,0.74458 -3.17747,1.65463 -1.3729,0.91005 -2.93142,1.90013 -3.4634,2.20014 -1.14107,0.64357 -1.62525,1.74556 -0.76694,1.74556 0.33016,0 1.20838,-0.32647 1.95164,-0.72548 z m 42.08112,-1.05968 c -1.154,-0.40213 -6.79382,-0.53488 -6.55866,-0.15432 0.14009,0.22669 1.78768,0.39408 3.66128,0.37197 1.87357,-0.0221 3.17742,-0.12007 2.89738,-0.21759 z m 6.78219,-2.83614 c 0.0901,-0.9585 0.37634,-1.96038 0.6364,-2.22638 0.59505,-0.60872 0.6253,-6.23516 0.0354,-6.59969 -0.24055,-0.14875 -0.58212,-1.50214 -0.75908,-3.00771 -0.17703,-1.50556 -0.63519,-3.63123 -1.01829,-4.72368 -0.41111,-1.17231 -0.53197,-2.40359 -0.29496,-3.00455 0.22088,-0.56003 0.41771,-6.08778 0.4374,-12.28388 0.0298,-9.38385 -0.0908,-11.37065 -0.72188,-11.89443 -1.07602,-0.893 -1.09946,-0.73954 -1.78707,11.70283 -0.33264,6.01928 -0.68737,11.07777 -0.7883,11.24106 -0.10102,0.16337 0.11661,1.30971 0.48347,2.5476 0.36681,1.23788 0.82447,5.87836 1.01701,10.31222 0.33525,7.72015 0.8692,10.24416 2.08313,9.84713 0.28219,-0.0924 0.5867,-0.95203 0.67668,-1.91052 z m -57.19876,0.46796 c 1.40577,-1.10577 4.20545,-2.73133 7.26848,-4.22023 0.91005,-0.44236 1.65463,-1.03032 1.65463,-1.30658 0,-0.27626 0.23014,-0.5023 0.51143,-0.5023 0.28128,0 1.98643,-1.03097 3.78921,-2.29104 1.80279,-1.26007 3.52722,-2.29106 3.83209,-2.29106 0.30488,0 0.68619,-0.34365 0.84736,-0.76368 0.16125,-0.42002 0.52299,-0.76369 0.80403,-0.76369 0.28101,0 1.98578,-1.03097 3.78833,-2.29104 1.80255,-1.26007 3.5027,-2.29106 3.77809,-2.29106 0.27538,0 0.63258,-0.34365 0.79375,-0.76367 0.16125,-0.42003 0.55493,-0.7671 0.87499,-0.77126 0.85406,-0.0115 4.7787,-3.51465 3.96234,-3.53716 -0.3809,-0.01 -2.21374,1.08385 -4.07296,2.43193 -1.85924,1.34809 -4.06773,2.80511 -4.9078,3.23783 -3.73116,1.92191 -7.31974,3.93063 -9.67332,5.4147 -1.40007,0.88282 -2.83198,1.60947 -3.18202,1.6148 -0.35002,0.006 -0.63638,0.2227 -0.63638,0.48308 0,0.26037 -1.03646,0.99103 -2.30324,1.62368 -2.39326,1.19526 -10.09059,8.01889 -9.09341,8.06124 0.31226,0.0135 1.19624,-0.47026 1.9644,-1.07449 z m 53.71892,-4.62902 c -0.004,-3.15019 -0.13951,-6.22193 -0.30163,-6.82609 -0.28047,-1.04554 -0.33753,-1.05558 -1.18437,-0.20876 -0.68897,0.68899 -0.96699,2.16266 -1.23242,6.5329 -0.31157,5.1301 -0.26111,5.6645 0.55492,5.87734 2.16723,0.56525 2.17072,0.55659 2.1635,-5.37539 z m 6.544,0.89122 c 0.11815,-2.33842 -0.13528,-5.30002 -0.66258,-7.74773 -1.14459,-5.31231 -1.2831,-5.74427 -1.8418,-5.74427 -0.58561,0 0.008,4.25367 0.62692,4.49725 0.23741,0.0933 0.43164,3.28935 0.43164,7.10226 0,5.49261 0.13027,6.80225 0.62734,6.30522 0.34504,-0.34504 0.71336,-2.33078 0.81848,-4.41273 z m -16.07898,-1.1653 c 0.16991,-3.34474 0.0741,-4.67379 -0.32737,-4.54066 -0.95855,0.31785 -1.82453,8.86127 -0.98348,9.70232 0.73821,0.73821 1.07928,-0.60479 1.31085,-5.16166 z m 5.97808,-0.377 c 0,-4.37821 -0.0706,-4.70818 -0.95874,-4.47594 -1.06995,0.2798 -1.57212,2.36079 -1.58126,6.55256 -0.006,2.83123 0.75151,4.13437 1.86603,3.20939 0.47065,-0.39061 0.67397,-1.98526 0.67397,-5.28601 z m 15.05815,3.54947 c 0.47567,-2.53553 -0.76485,-9.53685 -1.94689,-10.98797 l -0.97902,-1.2019 0.32258,1.2728 c 0.17742,0.70004 0.44398,3.67842 0.59234,6.61859 0.14836,2.94018 0.36474,5.64668 0.48085,6.01446 0.34864,1.10433 1.17489,0.1778 1.53014,-1.71598 z m -24.0556,1.42916 c 0.47038,-0.79181 0.93586,-7.76413 0.51833,-7.76413 -1.00364,0 -2.66561,7.01396 -1.85423,7.82534 0.43312,0.43314 1.05925,0.40445 1.3359,-0.0612 z m 5.61896,-1.98028 c 0.48075,-3.50747 0.39406,-5.68028 -0.24228,-6.07358 -0.31133,-0.19242 -0.76602,-0.0341 -1.01046,0.35179 -0.51931,0.8199 -0.61936,7.2457 -0.12065,7.7445 0.73206,0.73206 1.06243,0.24547 1.37331,-2.02271 z m -10.36782,0.15587 c 0,-0.9334 0.17184,-1.86819 0.38185,-2.07734 0.62652,-0.62392 1.50813,-6.33047 1.08402,-7.01669 -0.64241,-1.03944 -1.06845,-0.12854 -1.76803,3.78019 -0.80976,4.52438 -0.88317,7.0109 -0.20695,7.0109 0.28001,0 0.50911,-0.76367 0.50911,-1.69706 z m 2.74417,-3.39972 c 0.2793,-3.74723 0.27195,-3.7778 -0.42717,-1.77636 -0.39125,1.12006 -0.72201,3.182 -0.73502,4.5821 -0.0356,3.82549 0.82229,1.75456 1.16219,-2.80574 z m 23.30837,0.63776 c -0.11314,-4.90848 -0.91955,-9.00825 -1.93836,-9.8538 -0.6824,-0.56632 -0.73285,-0.40078 -0.41477,1.36098 0.19916,1.10315 0.54752,2.24163 0.77412,2.52998 0.2266,0.28832 0.44617,2.00661 0.48793,3.8184 0.0891,3.86267 0.49942,6.76843 0.89939,6.36843 0.15529,-0.15528 0.24165,-2.05616 0.19166,-4.22399 z m -28.59813,2.45258 c 0,-0.54351 0.20526,-1.11506 0.45614,-1.27012 0.51662,-0.31929 1.83559,-8.85684 1.43083,-9.26159 -0.14452,-0.14451 -0.42553,0.49827 -0.62452,1.42833 -0.19898,0.93008 -0.55148,1.92801 -0.78332,2.21765 -0.23185,0.28962 -0.66188,2.00791 -0.95561,3.81841 -0.65744,4.05212 -0.65746,4.05553 -0.0327,4.05553 0.28002,0 0.50912,-0.44469 0.50912,-0.98821 z m -5.56495,-1.55741 c 0.60129,0 0.62351,-1.88381 0.0266,-2.25275 -0.45611,-0.28188 -1.13638,2.21912 -1.0109,3.71648 0.0381,0.45503 0.16856,0.31183 0.28996,-0.31821 0.12142,-0.63003 0.43382,-1.14552 0.69436,-1.14552 z m 2.15758,-1.78192 c 0.18299,-1.20862 0.13373,-1.72605 -0.12123,-1.27281 -0.23636,0.42002 -0.57098,1.79464 -0.74364,3.05473 -0.19926,1.45429 -0.1551,1.91916 0.12122,1.27281 0.23936,-0.56005 0.57399,-1.93467 0.74365,-3.05473 z m -4.22947,2.29104 c 0,-0.28002 -0.10102,-0.50912 -0.22452,-0.50912 -0.12353,0 -0.3661,0.2291 -0.53917,0.50912 -0.17299,0.28001 -0.072,0.50911 0.22452,0.50911 0.29654,0 0.53917,-0.2291 0.53917,-0.50911 z m 6.30565,-3.05474 c 0.35729,-3.33646 0.0383,-2.85694 -0.61905,0.93047 -0.25891,1.49183 -0.29301,2.5228 -0.0758,2.29106 0.21723,-0.23175 0.5299,-1.68142 0.69483,-3.22153 z m -29.97984,1.01825 c 0.50682,-0.56003 1.17236,-1.01898 1.47899,-1.01986 0.30663,-0.001 1.93213,-0.91658 3.61222,-2.03487 1.68012,-1.11829 3.20658,-2.03398 3.39215,-2.03487 0.1855,-10e-4 1.55498,-0.80348 3.04311,-1.78356 1.48815,-0.98005 2.99734,-1.78192 3.35375,-1.78192 0.3564,0 0.648,-0.2291 0.648,-0.50912 0,-0.28001 0.2916,-0.50913 0.64801,-0.50913 0.35643,0 1.79232,-0.74459 3.19089,-1.65464 1.3986,-0.91005 3.11166,-1.95562 3.80681,-2.3235 1.8759,-0.9927 5.35918,-4.06069 5.00851,-4.41136 -0.1676,-0.1676 -1.72679,0.6401 -3.46508,1.7947 -3.39852,2.25737 -7.15623,4.40266 -10.53663,6.01543 -1.16114,0.55397 -3.22308,1.78354 -4.5821,2.73236 -1.35901,0.94883 -3.5065,2.22214 -4.77221,2.82958 -2.25004,1.07983 -7.34556,5.709 -6.28413,5.709 0.29491,0 0.95088,-0.4582 1.45771,-1.01824 z m 70.5898,-5.60035 c 0.042,-1.12006 0.0993,-2.32286 0.12739,-2.67288 0.0279,-0.35002 -0.28723,-0.63641 -0.70052,-0.63641 -1.14,0 -1.8391,2.50161 -1.13248,4.05247 0.8672,1.90329 1.61875,1.57584 1.70571,-0.74318 z m -69.78707,-4.34103 c 0.63745,-1.9527 1.49237,-4.33591 1.89984,-5.29603 0.84761,-1.99717 2.153,-7.31477 1.86608,-7.60168 -0.10545,-0.10545 -0.35022,0.46551 -0.54412,1.2686 -0.19389,0.8031 -0.75961,2.37659 -1.25717,3.49665 -0.49753,1.12006 -1.42138,3.64022 -2.05297,5.60035 -0.63161,1.96011 -1.45167,4.01576 -1.82235,4.56809 -0.37069,0.55234 -0.67397,1.57702 -0.67397,2.27706 0,1.23621 0.0206,1.24354 0.71284,0.25507 0.39208,-0.55976 1.2344,-2.61539 1.87182,-4.56811 z m 73.82688,-0.10949 c -0.40128,-0.68909 -0.52493,-0.24059 -0.53684,1.9473 -0.008,1.56344 0.15625,3.01663 0.36635,3.22932 0.59727,0.60486 0.75463,-4.17351 0.17049,-5.17662 z m -66.61093,2.25304 c 1.05006,-0.47902 1.90921,-1.09697 1.90921,-1.37324 0,-0.27626 0.29986,-0.5023 0.66637,-0.5023 0.36651,0 1.11109,-0.33226 1.65465,-0.73835 0.94036,-0.70258 0.92656,-0.7235 -0.28454,-0.43153 -1.26646,0.3053 -6.61858,3.59004 -6.61858,4.062 0,0.13604 0.17184,0.15913 0.38183,0.051 0.21001,-0.10814 1.24098,-0.58849 2.29106,-1.06751 z m 30.42005,-2.63921 c 0.26616,-0.70004 0.7187,-1.27281 1.00564,-1.27281 0.86849,0 0.58667,-3.6611 -0.36924,-4.79658 -0.87769,-1.04255 -0.87518,-1.04504 0.16741,-0.16741 0.58208,0.49005 1.42771,0.89096 1.87916,0.89096 1.21625,0 1.59698,-0.97393 0.53136,-1.35924 -0.50779,-0.18357 -1.53137,-0.75473 -2.27463,-1.26921 -0.74328,-0.51447 -1.54515,-0.93189 -1.78195,-0.9276 -0.23677,0.004 -0.087,0.25084 0.33317,0.54789 0.57469,0.40644 0.60619,0.60398 0.12719,0.79831 -0.7726,0.31349 -0.84326,2.02191 -0.10256,2.47971 0.34303,0.21199 0.36006,0.54119 0.0477,0.921 -0.78861,0.95871 -1.30462,5.42775 -0.62671,5.42775 0.31875,0 0.79729,-0.57277 1.06345,-1.27281 z m 12.0576,-0.35002 c -0.1626,-0.40615 -0.28317,-0.2855 -0.30759,0.30759 -0.0221,0.53671 0.0981,0.83741 0.26739,0.66823 0.16915,-0.16914 0.18723,-0.60831 0.0402,-0.97582 z m -46.16879,-2.07489 c 0,-0.56508 0.44833,-1.96895 0.99631,-3.11968 0.54797,-1.15074 1.2507,-3.4056 1.56162,-5.01082 0.31092,-1.60522 0.77899,-3.05066 1.04017,-3.21206 0.26118,-0.16145 0.47488,-0.70966 0.47488,-1.21834 0,-1.31758 2.28391,-6.31003 3.25559,-7.11646 0.91061,-0.75572 1.13107,-1.82589 0.26601,-1.29126 -1.25097,0.77316 -4.19974,6.17045 -5.09337,9.32274 -0.5269,1.85857 -1.1782,3.83742 -1.44734,4.39747 -0.45759,0.95208 -2.58124,8.54771 -2.58124,9.2322 0,0.17126 0.34365,0.026 0.76368,-0.32258 0.42002,-0.34857 0.76369,-1.09612 0.76369,-1.66121 z m 57.83709,-3.28707 c -0.19406,-3.00157 -0.5397,-5.57899 -0.76807,-5.72762 -0.22836,-0.14855 -0.5743,-3.47768 -0.76875,-7.39792 -0.19444,-3.92026 -0.64974,-8.84601 -1.01175,-10.94615 -0.58491,-3.39303 -0.62972,-2.08857 -0.40234,11.70982 0.26613,16.14803 0.50281,17.81929 2.52361,17.81929 0.67418,0 0.73219,-0.7412 0.4273,-5.45742 z m -41.3845,0.88538 c 1.25292,-0.84559 2.47392,-1.54361 2.71332,-1.55113 0.23941,-0.008 1.23717,-0.68869 2.21722,-1.51367 2.62267,-2.20768 0.65048,-1.96436 -2.29373,0.283 -1.30442,0.99572 -2.92571,2.02101 -3.60283,2.27846 -0.67714,0.25744 -1.23115,0.70285 -1.23115,0.98979 0,0.28694 -0.28639,0.52682 -0.63641,0.53305 -0.35002,0.006 -1.20915,0.46582 -1.90919,1.02135 l -1.27281,1.01004 1.86876,-0.75673 c 1.02784,-0.41621 2.89391,-1.44859 4.14682,-2.29416 z m 43.62383,0.81182 c 0,-1.22807 -0.34224,-2.88908 -0.76054,-3.69114 l -0.76055,-1.45828 -0.004,1.32903 c -0.006,2.44918 0.63973,6.05324 1.08423,6.05324 0.24196,0 0.43992,-1.00478 0.43992,-2.23285 z m -6.14276,0.49105 c 0.70936,-0.85471 0.67695,-17.09574 -0.0341,-17.09574 -0.24296,0 -0.45784,-2.23375 -0.47752,-4.96392 -0.0362,-5.02774 -0.55776,-7.76744 -1.1872,-6.23676 -0.1728,0.42002 -0.22293,1.56554 -0.11161,2.54562 0.11141,0.98005 0.2281,7.33773 0.25939,14.12815 0.0314,6.79041 0.25796,12.3462 0.50371,12.3462 0.24572,0 0.71699,-0.3256 1.04727,-0.72355 z m 12.25223,-4.65453 c 0,-2.32933 -0.19916,-4.35824 -0.44258,-4.50867 -0.24343,-0.15048 -0.5982,-2.39774 -0.78844,-4.99401 -0.33023,-4.50767 -1.0681,-9.81382 -1.62987,-11.72088 -0.35521,-1.20583 -1.72121,-1.13563 -1.72121,0.0885 0,1.31254 1.022,6.15001 1.56783,7.42112 0.62573,1.45713 1.4869,10.1803 1.4869,15.06137 0,3.63595 0.0954,4.07616 0.7637,3.52159 0.56682,-0.47044 0.76367,-1.72548 0.76367,-4.86896 z m -62.98049,2.92935 c 0.47067,-1.06678 1.31541,-3.27562 1.87721,-4.90853 0.56181,-1.63289 1.25228,-3.24702 1.53439,-3.58696 0.2821,-0.33992 0.79882,-1.40624 1.14822,-2.36959 0.86271,-2.37855 3.55706,-6.50047 4.2641,-6.52337 0.68994,-0.0223 1.96648,-1.46616 1.61078,-1.82187 -0.13816,-0.13816 -1.19934,0.17318 -2.35802,0.6919 -2.5343,1.13465 -4.8057,4.09994 -5.99249,7.82319 -0.47458,1.48883 -1.03019,2.93607 -1.23471,3.21609 -0.20449,0.28001 -0.73857,2.14166 -1.18682,4.13698 -0.44823,1.99532 -0.95777,4 -1.1323,4.45481 -0.66515,1.73334 0.65494,0.73391 1.46964,-1.11265 z m 12.3813,-1.11512 c 0.36817,0 0.91461,-0.45822 1.21433,-1.01825 0.29972,-0.56003 0.8525,-1.01825 1.22838,-1.01825 0.37588,0 0.96865,-0.34365 1.31724,-0.76367 1.20333,-1.44992 -0.47257,-0.82308 -3.20386,1.19836 -1.45808,1.07913 -3.03699,2.09715 -3.50872,2.26229 -0.47171,0.1651 -1.11616,0.78328 -1.43212,1.37366 -0.48233,0.90121 -0.23041,0.82415 1.57045,-0.48037 1.1797,-0.85458 2.44614,-1.55377 2.8143,-1.55377 z m 36.2506,-5.38751 c 0.23183,-10.17878 -0.32287,-18.54124 -1.22986,-18.54124 -0.58278,0 -0.71345,1.5245 -0.71345,8.3223 0,10.756 0.48795,17.73462 1.22293,17.49055 0.35958,-0.11949 0.61657,-2.71333 0.72038,-7.27161 z m -5.83014,-0.0939 c 0.17395,-2.16553 0.34761,-6.45745 0.38608,-9.53764 0.06,-4.80601 -0.0477,-5.62369 -0.76027,-5.76495 -0.71028,-0.14086 -0.83137,0.41073 -0.83828,3.8184 -0.004,2.19068 -0.23297,6.69781 -0.50786,10.01584 -0.27492,3.31804 -0.35087,6.27385 -0.16876,6.56843 0.69421,1.12328 1.5818,-1.273 1.8891,-5.10008 z m -2.08715,-5.04005 c 0.54071,-8.30365 0.2535,-12.34159 -0.66394,-9.33425 -0.21357,0.70004 -0.41114,3.26396 -0.43906,5.69756 -0.0279,2.43363 -0.25261,4.54955 -0.49936,4.70204 -0.57685,0.35653 -1.27612,7.70667 -0.80562,8.46796 0.25435,0.41155 0.56994,0.36333 1.10157,-0.16838 0.54398,-0.54398 0.89658,-3.07159 1.30641,-9.36501 z m -3.19986,6.32126 c 0.82092,-3.75815 1.32341,-15.65551 0.66121,-15.65551 -0.59987,0 -1.00515,2.73165 -1.47299,9.92787 -0.21954,3.37678 -0.58636,5.38488 -1.08933,5.96323 -0.86434,0.99385 -0.52095,2.4373 0.57977,2.4373 0.4761,0 0.94442,-0.94734 1.32134,-2.67289 z m 22.76836,-3.22572 c -0.1678,-2.96421 -0.51889,-5.65621 -0.78005,-5.98219 -0.26116,-0.32599 -0.75727,-2.61501 -1.10246,-5.08674 -0.49193,-3.52234 -0.8986,-4.78828 -1.88083,-5.85491 l -1.25318,-1.36086 0.31765,2.03648 c 0.17472,1.12009 0.45357,3.36036 0.61969,4.97842 0.16606,1.61806 0.49872,3.06349 0.73912,3.21206 0.24041,0.14855 0.43711,0.98742 0.43711,1.86409 0,1.57884 0.73846,5.99086 1.61919,9.67393 0.25109,1.05006 0.71133,1.9092 1.02273,1.9092 0.39911,0 0.47614,-1.5907 0.26103,-5.38948 z m -53.30606,1.49595 c 0,-0.88196 2.14034,-5.39134 2.86416,-6.03435 0.31521,-0.28001 0.79361,-0.92991 1.06314,-1.44418 0.44993,-0.85848 0.59986,-0.80458 1.83057,0.65803 0.86081,1.02301 1.45987,2.49282 1.67403,4.10739 0.18338,1.38284 0.53371,2.39057 0.77836,2.23936 0.61656,-0.38106 0.56115,-2.76042 -0.0643,-2.76042 -0.28002,0 -0.50914,-0.45358 -0.50914,-1.00794 0,-1.05851 -1.47604,-5.10153 -1.86249,-5.10153 -0.12353,0 -0.91038,0.35464 -1.74859,0.78809 -1.72134,0.89016 -4.63414,5.14746 -5.78743,8.45887 -1.05776,3.03705 -0.98285,3.33635 0.48887,1.95372 0.70006,-0.65764 1.27281,-1.49332 1.27281,-1.85704 z m 48.09877,-3.54607 c -0.29558,-5.1248 -0.23262,-6.50652 0.31186,-6.84303 0.95902,-0.5927 -0.0979,-6.56326 -1.55146,-8.7645 l -1.08646,-1.6453 0.34305,4.5821 c 0.18877,2.52016 0.5432,4.65847 0.78782,4.75182 0.24463,0.0933 0.44479,1.94985 0.44479,4.12557 0,4.30193 0.51372,10.21471 0.88746,10.21471 0.12835,0 0.0666,-2.88962 -0.137,-6.42137 z m -25.81407,2.95296 c 0.30546,-0.91635 -0.74689,-0.72379 -1.10201,0.20164 -0.19031,0.49586 -0.0764,0.72859 0.29556,0.6046 0.3327,-0.11084 0.69562,-0.47371 0.80645,-0.80624 z m -34.37636,-1.56701 c 0.49002,-0.0308 0.89096,-0.40903 0.89096,-0.84072 0,-2.78284 6.07127,-11.94315 7.91567,-11.94315 0.31679,0 0.83693,-0.57277 1.1559,-1.27281 0.48437,-1.06307 0.93168,-1.27281 2.71452,-1.27281 2.11902,0 3.99671,1.0703 3.99671,2.27815 0,0.32614 0.57275,1.09097 1.27279,1.69966 1.96415,1.70781 1.50684,0.42749 -0.79887,-2.23654 -2.66326,-3.07715 -3.74813,-4.74624 -3.3462,-5.14818 0.37023,-0.3702 2.36315,1.30343 2.36315,1.98453 0,0.49178 7.57693,9.20228 8.2493,9.48349 0.86989,0.36382 0.34744,-0.91651 -0.66271,-1.62404 -0.58766,-0.41163 -1.37137,-1.33223 -1.74157,-2.04578 -0.37019,-0.71354 -1.08707,-1.99821 -1.59306,-2.85476 -0.7494,-1.26862 -0.80601,-1.73992 -0.30534,-2.54162 0.3876,-0.62066 0.43043,-1.09803 0.11603,-1.2924 -0.61734,-0.38151 -0.65694,-1.26636 -0.0566,-1.26636 0.2431,0 1.30883,1.48219 2.36826,3.29375 1.05944,1.81155 2.52154,4.00136 3.24912,4.86621 1.19959,1.42592 1.41453,1.50472 2.30651,0.84557 0.86489,-0.63912 0.9122,-0.93466 0.39204,-2.44787 -0.50852,-1.47932 -0.56721,-1.52438 -0.41785,-0.3209 0.10815,0.87195 -0.0658,1.40008 -0.46131,1.40008 -0.84067,0 -2.27642,-3.08574 -2.28625,-4.91361 -0.01,-1.66769 -0.42216,-2.42035 -1.5577,-2.83745 -0.46647,-0.17126 -1.17992,-1.69137 -1.70587,-3.63435 -0.79916,-2.95237 -6.43979,-14.9239 -7.34828,-15.59583 -0.37521,-0.27751 -1.59929,-2.89987 -1.59929,-3.42619 0,-0.5683 3.02588,3.65737 3.04057,4.24619 0.008,0.31224 0.93004,1.91596 2.04945,3.56387 1.11939,1.64788 2.03581,3.28254 2.03648,3.63256 5e-4,0.35002 0.23031,0.6364 0.51033,0.6364 0.28002,0 0.51054,0.28639 0.51227,0.63641 0.002,0.35002 0.32379,1.25101 0.71568,2.00219 0.39191,0.75119 0.86634,2.06591 1.0543,2.92162 0.18799,0.85571 0.55318,1.68652 0.81166,1.84627 0.25846,0.15971 0.48805,0.79242 0.51014,1.40593 0.0221,0.6135 0.16009,0.81597 0.3067,0.4499 0.36103,-0.90154 -0.8367,-7.07405 -1.68991,-8.70908 -0.37796,-0.7243 -0.68861,-1.6165 -0.69034,-1.98262 -0.002,-0.36615 -0.53557,-1.62622 -1.18633,-2.80018 -0.65074,-1.17396 -1.61244,-3.33727 -2.13706,-4.80735 -0.52463,-1.4701 -1.13771,-2.6729 -1.3624,-2.6729 -0.22472,0 -0.40856,-0.31452 -0.40856,-0.69897 0,-0.69161 -1.62631,-4.83527 -2.57313,-6.55602 -0.30988,-0.56319 -0.31137,-0.89096 -0.004,-0.89096 0.26743,0 1.31429,1.24754 2.32637,2.77229 1.07765,1.62354 2.11139,2.66821 2.49474,2.52112 0.36,-0.13816 1.20519,-0.32633 1.87819,-0.41818 3.89457,-0.53145 4.51431,-1.91744 1.98732,-4.44444 -1.70907,-1.70907 -1.92364,-3.20234 -0.70924,-4.93612 0.76989,-1.0992 0.7474,-1.24383 -0.38184,-2.45389 -1.04681,-1.1217 -4.47152,-3.22324 -5.25266,-3.22324 -0.15125,0 -0.27486,0.68732 -0.27486,1.52737 0,0.84007 -0.12989,1.52737 -0.28854,1.52737 -0.49038,0 -5.82093,-4.75124 -5.82093,-5.18832 0,-0.22661 0.48628,-0.41202 1.0806,-0.41202 0.8604,0 0.96191,-0.14297 0.49816,-0.70175 -0.39758,-0.47908 -0.42872,-1.10597 -0.0981,-1.97552 0.41044,-1.07952 0.25683,-1.49169 -1.0073,-2.70279 -0.82037,-0.78598 -1.49158,-1.71438 -1.49158,-2.06315 0,-0.34877 -0.45822,-0.77957 -1.01825,-0.95731 -0.56003,-0.1778 -1.01823,-0.76595 -1.01823,-1.30712 0,-0.54116 -0.19616,-0.98392 -0.43592,-0.98392 -0.23974,0 -1.51553,-0.82437 -2.83506,-1.8319 -1.31953,-1.00753 -2.54262,-1.68843 -2.71796,-1.51309 -0.17529,0.1753 0.26682,1.51519 0.98258,2.97742 0.71578,1.46223 1.70624,4.03325 2.20108,5.71334 0.49482,1.68011 1.09932,3.27239 1.34335,3.53841 0.71546,0.77994 0.51027,1.80098 -0.29947,1.49025 -0.58412,-0.22415 -0.73544,0.18781 -0.70708,1.92518 0.0454,2.7783 -1.11819,7.55616 -1.84011,7.55616 -0.7062,0 -2.53386,-5.13225 -1.97366,-5.54221 1.14114,-0.83508 0.21592,-11.1036 -1.31262,-14.56812 -0.24709,-0.56005 -0.84688,-2.39289 -1.33286,-4.07299 -1.64977,-5.70337 -3.05861,-7.0503 -8.05927,-7.70506 -1.43783,-0.18819 -3.13901,-0.6833 -3.78042,-1.10011 -1.80682,-1.17408 -7.55811,-0.51756 -11.19327,1.27773 -2.65203,1.30974 -2.92797,1.60249 -3.06723,3.25411 -0.0987,1.17155 0.12681,2.0471 0.63641,2.47003 0.93585,0.77668 1.03268,1.89192 0.18877,2.17324 -0.89124,0.29708 -0.0749,1.97292 1.1124,2.28338 0.55863,0.14605 1.01569,0.468 1.01569,0.71536 0,0.24736 0.43369,0.44973 0.96378,0.44973 0.53007,0 1.09564,0.34367 1.25682,0.76369 0.16125,0.42003 0.74493,0.76368 1.29722,0.76368 0.5523,0 1.14577,0.22912 1.31884,0.50913 0.17299,0.28002 0.89069,0.50912 1.59473,0.50912 0.92812,0 1.2345,0.23674 1.11429,0.86102 -0.20987,1.0897 -5.55126,2.74322 -7.75246,2.3999 -3.57395,-0.55742 -6.98569,-1.42644 -7.24456,-1.84528 -0.15182,-0.24576 -0.59942,-0.17856 -0.9945,0.14933 -0.57135,0.47417 -0.71836,0.41582 -0.71836,-0.28504 0,-0.6691 -0.28612,-0.8094 -1.1887,-0.58287 -0.65376,0.16413 -1.94606,0.0812 -2.87178,-0.18435 -1.44599,-0.41471 -1.89145,-0.30739 -3.16201,0.76171 -0.81339,0.68442 -2.42146,1.49822 -3.57349,1.80843 -1.15202,0.3102 -2.57352,0.87114 -3.15887,1.24652 -0.58534,0.37538 -2.11461,0.83524 -3.39837,1.02193 -1.28375,0.18665 -2.5485,0.49089 -2.81052,0.67606 -0.7444,0.52601 -1.72853,3.05421 -1.72853,4.44051 0,0.69067 -0.19806,1.65358 -0.44015,2.13982 -0.24209,0.48622 -0.95148,2.60234 -1.57642,4.70246 -0.62491,2.10014 -1.34327,4.21624 -1.59631,4.70248 -0.25306,0.48624 -0.45274,1.51721 -0.44373,2.29104 0.0135,1.1584 0.77605,1.98772 4.31579,4.69352 2.5373,1.93954 4.06732,3.42996 3.73314,3.63649 -0.33212,0.20527 -0.42851,0.89887 -0.2331,1.67743 0.20591,0.8204 0.1218,1.32744 -0.21996,1.32744 -0.30423,0 -0.42817,0.40094 -0.27542,0.89096 0.15279,0.49005 -0.0519,1.46374 -0.45483,2.16378 -0.40292,0.70005 -0.87459,1.54347 -1.04818,1.87428 -0.32209,0.61386 1.54284,3.65131 2.694,4.38778 0.35002,0.22392 0.63641,0.74431 0.63641,1.15643 0,0.41211 0.6018,1.65871 1.33736,2.77021 1.00661,1.52108 1.26115,2.40203 1.0292,3.56181 -0.16952,0.8475 -0.16798,2.56405 0.004,3.81458 0.27548,2.00981 0.56536,2.42237 2.49803,3.55498 2.77526,1.62641 3.6433,1.60949 5.43377,-0.10583 1.15208,-1.10375 1.88599,-1.37056 3.59171,-1.30581 10.26993,0.38983 10.87863,0.46543 12.67239,1.57404 0.99579,0.61543 2.41353,1.11897 3.15052,1.11897 0.737,0 1.35239,0.17184 1.36752,0.38185 0.44292,6.14443 0.62012,7.08336 1.50666,7.98294 0.82379,0.83591 1.16499,0.89289 2.28662,0.38185 1.61068,-0.73389 2.97047,-0.78284 2.54323,-0.0916 -0.39582,0.64044 -0.26214,0.63627 1.71659,-0.0535 1.08089,-0.3768 1.82066,-0.39462 2.23974,-0.0539 0.34417,0.27979 1.59947,0.45093 2.78954,0.38029 1.45232,-0.0862 2.16377,0.0793 2.16377,0.5035 0,0.40201 0.6019,0.58126 1.65466,0.4927 0.91005,-0.0766 2.05557,-0.16433 2.54559,-0.19498 z m -14.10722,-10.20439 c -0.15451,-0.24992 -1.20093,-0.60985 -2.32552,-0.79985 -1.17754,-0.19892 -3.16324,-1.18589 -4.6821,-2.32714 -1.45055,-1.08992 -2.87757,-2.06856 -3.17113,-2.17475 -0.29357,-0.10622 -0.35903,-0.38004 -0.14548,-0.60858 0.21354,-0.22853 1.19502,-0.0308 2.18105,0.43942 2.18737,1.04307 2.26738,1.0463 2.26738,0.0912 0,-1.05573 1.14507,-0.9549 3.24839,0.28608 1.62408,0.95824 2.10973,1.0038 5.56969,0.52257 3.63505,-0.5056 3.91054,-0.64258 6.71876,-3.34081 1.61056,-1.5475 3.12663,-2.81361 3.36904,-2.81361 0.24244,0 0.44077,1.22457 0.44077,2.72126 0,2.07468 -0.24193,2.94023 -1.01823,3.64277 -0.56005,0.50682 -1.01825,1.34419 -1.01825,1.86083 0,0.51662 -0.31277,0.93934 -0.69502,0.93934 -0.38227,0 -1.27756,0.4582 -1.98951,1.01823 -1.46346,1.15116 -3.96136,1.32779 -5.46835,0.38666 -0.79754,-0.49807 -1.22159,-0.50028 -2.00596,-0.01 -0.54891,0.34278 -1.12051,0.41752 -1.27549,0.16683 z m 17.4655,-11.87055 c -1.02312,-0.91028 -2.35681,-1.99871 -2.96378,-2.41875 -0.60696,-0.42002 -1.1445,-1.22189 -1.19453,-1.78192 -0.075,-0.83965 0.17684,-0.99312 1.43643,-0.87507 6.51456,0.61062 9.40541,0.21492 9.4148,-1.28871 0.002,-0.35002 0.26221,-0.6364 0.57786,-0.6364 0.59598,0 0.38008,-3.59244 -0.36718,-6.10947 -0.33793,-1.13832 -0.22088,-1.08752 1.10781,0.48087 1.31369,1.55069 1.48553,2.14153 1.48468,5.1049 -0.001,3.60443 -0.56418,4.73754 -3.6411,7.32661 -2.44362,2.05614 -3.71801,2.09925 -5.85499,0.19794 z m -41.66974,-0.12777 c -0.34858,-0.42002 -0.93588,-0.76369 -1.3051,-0.76369 -0.36921,0 -0.82835,-0.25413 -1.02033,-0.56475 -0.24388,-0.3946 0.24563,-0.47349 1.6246,-0.26188 2.99004,0.45887 5.50393,-0.25143 5.70018,-1.61054 0.14836,-1.02733 -0.0502,-1.12668 -2.25204,-1.12668 -3.30736,0 -9.34729,-2.8341 -9.35826,-4.39118 -0.004,-0.59503 -0.15086,-1.79783 -0.32583,-2.67288 -0.4652,-2.32597 0.80928,-2.07767 3.53687,0.68907 1.74417,1.7692 2.91421,2.45367 5.22189,3.05473 3.69659,0.96285 5.21251,0.9616 9.32448,-0.008 3.11109,-0.73336 5.44223,-0.61887 4.9107,0.24117 -0.1372,0.22208 -1.18932,0.52982 -2.33796,0.68387 -2.28276,0.30619 -4.04587,1.56967 -4.04587,2.89938 0,0.93914 -3.10946,3.64435 -4.7841,4.16215 -1.94299,0.60077 -4.24525,0.44486 -4.88923,-0.33109 z m 21.63771,-14.3651 c -0.56003,-0.13546 -1.47645,-0.6516 -2.0365,-1.14692 -0.56003,-0.49534 -1.68017,-1.0576 -2.48922,-1.24947 l -1.47097,-0.34888 0.34679,-5.19101 c 0.24209,-3.62377 0.5709,-5.36167 1.08914,-5.75625 0.40828,-0.3109 0.74233,-0.8134 0.74233,-1.11666 0,-0.30328 0.51539,-0.9124 1.14531,-1.35361 1.05004,-0.73548 1.19825,-0.72979 1.78193,0.0685 0.91517,1.25157 0.7872,2.55007 -0.41106,4.1708 -0.8825,1.19364 -0.99166,1.83938 -0.69234,4.09571 0.20025,1.50953 0.65753,2.79461 1.04769,2.94434 0.38079,0.14605 0.69234,0.57677 0.69234,0.95698 0,0.84038 1.87265,1.91718 2.7492,1.5808 0.74263,-0.28496 2.00635,1.50849 1.56553,2.22177 -0.30994,0.50148 -2.25423,0.56084 -4.06017,0.12392 z m -23.92875,-8.12874 c -1.78591,-0.22762 -5.33148,-1.77181 -5.33995,-2.32566 -0.004,-0.21001 -0.3905,-0.38185 -0.86065,-0.38185 -0.86056,0 -4.23641,-3.30211 -4.23641,-4.14387 0,-0.24861 0.20999,-0.84986 0.46664,-1.3361 0.25668,-0.48622 0.74594,-1.63651 1.08726,-2.55616 0.68443,-1.84412 4.32646,-5.30004 7.10118,-6.73831 0.98006,-0.50802 2.07025,-1.40093 2.42264,-1.98424 0.35241,-0.58333 0.9104,-1.06058 1.24,-1.06058 0.3296,0 1.09514,-0.46584 1.70118,-1.03521 0.95499,-0.89714 1.18445,-0.93578 1.72068,-0.28967 0.512,0.61693 -0.0354,1.39752 -3.17323,4.5252 -2.08557,2.07883 -4.07119,4.55751 -4.4125,5.50818 -0.78541,2.18769 -0.10352,5.08554 1.36987,5.82135 0.58259,0.29094 1.40322,0.81447 1.82364,1.16339 0.42041,0.34891 0.96034,0.57316 1.19983,0.49835 0.79887,-0.24962 2.72647,1.83905 2.72647,2.95424 0,1.02539 -1.38312,1.83791 -2.80017,1.64494 -0.28002,-0.0381 -1.19644,-0.15702 -2.03648,-0.264 z m 41.31695,-5.99698 c -0.15144,-0.39474 -0.0448,-0.79456 0.23687,-0.88848 0.33774,-0.11257 0.32314,-0.66825 -0.0429,-1.63087 -0.81409,-2.14122 -0.20431,-2.25429 0.79995,-0.14836 0.77808,1.63166 0.78495,1.88189 0.0712,2.59557 -0.6644,0.66438 -0.83356,0.67583 -1.06524,0.0722 z m 35.53506,48.54413 c 0.29563,-0.2762 0.16337,-0.45188 -0.3402,-0.45188 -1.22268,0 -2.43451,0.55104 -2.43451,1.10701 0,0.53779 2.00448,0.0645 2.77471,-0.65513 z m 5.51096,-5.91658 c 0.24208,-2.88749 0.14701,-3.75945 -0.46567,-4.26787 -0.6233,-0.51731 -0.85798,-0.4998 -1.23242,0.092 -0.52224,0.82531 -0.64737,8.09798 -0.16106,9.36507 0.56186,1.46422 1.52735,-1.23051 1.85924,-5.18918 z m -7.04683,3.38946 c 0.95856,-0.91463 -0.0239,-0.8708 -2.13073,0.0951 -1.18957,0.54535 -2.16285,1.2023 -2.16285,1.45988 0,0.48912 3.46743,-0.7666 4.29358,-1.55492 z m -2.51165,-2.50686 c 0.17299,-0.28002 0.0856,-0.50914 -0.19449,-0.50914 -0.28001,0 -0.6507,0.22912 -0.82376,0.50914 -0.17299,0.28001 -0.0856,0.50911 0.19446,0.50911 0.28002,0 0.65072,-0.2291 0.82379,-0.50911 z m 6.87314,-3.15441 c 0,-2.12554 -0.1397,-2.49411 -0.89096,-2.3516 -0.65463,0.12411 -0.93324,0.75723 -1.05037,2.38662 -0.21207,2.95051 0.16991,3.95568 1.18368,3.11438 0.4841,-0.40176 0.75765,-1.53887 0.75765,-3.1494 z m -2.5456,-0.66402 c 0,-0.89481 -0.27719,-1.27281 -0.93339,-1.27281 -1.42483,0 -1.70328,0.58289 -0.77074,1.61334 1.15663,1.27806 1.70413,1.16867 1.70413,-0.34053 z m -3.30931,-0.76368 c 0.17299,-0.28001 -0.0425,-0.50913 -0.47906,-0.50913 -0.43655,0 -0.79373,0.22912 -0.79373,0.50913 0,0.28002 0.21557,0.50912 0.47906,0.50912 0.2635,0 0.62068,-0.2291 0.79373,-0.50912 z m -20.36488,-0.50913 c 0.17298,-0.28002 -0.0291,-0.50912 -0.44903,-0.50912 -0.42004,0 -0.90528,0.2291 -1.07834,0.50912 -0.17299,0.28003 0.029,0.50913 0.44904,0.50913 0.42002,0 0.90526,-0.2291 1.07833,-0.50913 z m 53.96695,-1.52737 c -0.19108,-0.60223 -0.46207,-0.98042 -0.60208,-0.84041 -0.14008,0.14009 -0.0981,0.7473 0.0929,1.34955 0.19108,0.60223 0.46207,0.98042 0.60208,0.84041 0.14009,-0.14008 0.0981,-0.7473 -0.0929,-1.34955 z m -25.96524,-6.61858 c -0.17299,-0.28002 -0.53022,-0.50912 -0.79373,-0.50912 -0.26348,0 -0.47906,0.2291 -0.47906,0.50912 0,0.28002 0.35718,0.50912 0.79373,0.50912 0.43656,0 0.65213,-0.2291 0.47906,-0.50912 z m 8.17028,-1.85628 c 1.26126,-1.3609 1.78933,-4.7623 0.73937,-4.7623 -0.28002,0 -0.50912,-0.34367 -0.50912,-0.7637 0,-1.24494 0.80863,-0.88007 2.25654,1.01825 1.61305,2.11484 1.90125,2.15995 3.51147,0.54972 1.37077,-1.37075 2.09771,-4.36814 1.05939,-4.36814 -0.34819,0 -0.76404,0.28638 -0.92408,0.6364 -0.16009,0.35002 -0.14951,-0.16029 0.0235,-1.13407 0.36106,-2.03281 1.51361,-3.88956 4.79848,-7.73029 2.68382,-3.13796 3.81504,-6.13114 3.31818,-8.77966 -0.18876,-1.00644 -0.46089,-1.8299 -0.60463,-1.8299 -0.14374,0 -1.15314,0.71666 -2.24313,1.5926 -1.97723,1.58896 -1.98641,1.59073 -4.01383,0.77951 -1.95057,-0.78045 -2.04499,-0.77239 -2.35387,0.20077 -0.36551,1.15164 0.13816,3.9986 0.86793,4.90588 0.26791,0.3331 0.41329,1.24952 0.32306,2.0365 -0.15201,1.32609 -0.31321,1.42225 -2.20056,1.31299 -3.20937,-0.18569 -3.45226,-0.17838 -5.49579,0.16471 -3.65895,0.61447 -5.32861,-2.91584 -2.56865,-5.43115 1.09888,-1.00145 1.29053,-1.0573 1.01608,-0.29601 -0.76728,2.12823 -0.92784,3.38928 -0.43154,3.38928 0.28704,0 0.62559,-0.28638 0.75236,-0.6364 0.18435,-0.50913 0.44604,-0.50913 1.30832,0 0.59282,0.35002 2.32948,0.6364 3.85925,0.6364 h 2.7814 l -1.11951,-2.09736 c -0.61571,-1.15355 -1.63514,-2.29339 -2.26535,-2.533 -1.53421,-0.58331 -1.45732,-1.4791 0.127,-1.4791 1.33271,0 1.69072,-1.09746 0.81109,-2.48635 -0.36064,-0.56943 -0.78301,-0.44747 -2.20405,0.6364 -0.96683,0.73745 -1.913,1.34081 -2.1026,1.34081 -0.18953,0 -1.2577,0.60421 -2.37361,1.34268 l -2.02892,1.34268 -2.78899,-1.8518 c -1.53395,-1.0185 -3.02164,-1.85179 -3.30596,-1.85179 -0.28433,0 -0.51695,-0.23478 -0.51695,-0.52172 0,-0.28696 -0.60269,-0.75088 -1.33931,-1.03093 -0.7366,-0.28005 -1.99669,-0.9773 -2.80016,-1.54944 l -1.46088,-1.04022 v 1.56202 c 0,2.22227 -0.65051,1.94035 -2.23337,-0.9679 -0.75733,-1.39145 -1.57979,-2.65526 -1.82767,-2.80846 -0.78168,-0.4831 -1.2202,0.8838 -0.47155,1.46994 1.61463,1.26417 2.83716,6.21836 2.27455,9.21739 -0.50009,2.66563 -1.29989,2.14297 -0.97867,-0.63954 0.23847,-2.06577 0.0754,-2.71524 -1.11829,-4.45483 -0.7686,-1.12006 -1.42052,-2.6603 -1.44869,-3.42275 l -0.0512,-1.38626 -1.27279,1.31766 c -0.89539,0.92695 -1.07852,1.39019 -0.61761,1.56224 0.36037,0.1345 1.33408,0.8158 2.16377,1.51395 1.58912,1.33714 2.08049,3.96712 0.95204,5.09557 -0.40261,0.40261 -0.31165,0.93025 0.32891,1.90788 0.7296,1.11349 1.14121,1.29517 2.33846,1.03222 1.76547,-0.38777 1.98302,0.65167 0.43047,2.05671 -0.93584,0.84692 -0.95743,1.02479 -0.25456,2.09748 0.42239,0.64466 0.76798,1.98203 0.76798,2.97194 0,0.9899 0.21871,1.79984 0.48605,1.79984 0.66236,0 1.21523,-3.19831 0.80643,-4.66512 -0.30842,-1.10667 -0.2367,-1.0854 1.02641,0.30438 1.27964,1.40797 1.33852,1.69181 1.02046,4.91948 -0.30743,3.11998 -0.23645,3.51945 0.79639,4.48167 1.19763,1.11577 4.09192,1.90242 4.98001,1.35355 0.28972,-0.17915 0.84957,0.4471 1.24416,1.39142 1.6282,3.89684 6.26795,5.26244 8.75649,2.57727 z m -8.93395,-9.8875 c 0,-1.1451 2.69448,-4.039 3.76066,-4.039 0.60181,0 1.9371,0.57275 2.9673,1.2728 1.0302,0.70004 2.28619,1.27593 2.79107,1.27976 1.48721,0.0115 3.20902,0.58574 3.20902,1.07067 0,0.71608 -3.26827,0.52127 -5.26725,-0.31394 -2.51671,-1.05156 -4.58058,-0.95904 -5.67888,0.25456 -1.01041,1.1165 -1.78192,1.32222 -1.78192,0.47515 z m -4.0832,9.94954 c -0.3542,-0.42678 -0.74886,-0.67114 -0.87699,-0.54298 -0.35308,0.35308 0.36429,1.31897 0.97959,1.31897 0.33761,0 0.29899,-0.29212 -0.10256,-0.77599 z m -2.53538,-3.04242 c 0,-0.42002 -0.2156,-0.76369 -0.47908,-0.76369 -0.64201,0 -1.1018,0.79504 -0.69504,1.2018 0.57337,0.57337 1.17412,0.34919 1.17412,-0.43811 z m -2.70695,-2.89564 c -0.1626,-0.40613 -0.28317,-0.2855 -0.30761,0.30759 -0.0221,0.53671 0.0981,0.83741 0.26741,0.66824 0.16914,-0.16915 0.18723,-0.6083 0.0402,-0.97583 z m 13.91785,-20.53629 c 0.84162,-1.01412 0.50305,-1.28855 -2.00466,-1.62491 -2.40951,-0.32318 -2.67566,0.26747 -0.67845,1.50574 1.73255,1.07419 1.88489,1.08096 2.68311,0.11911 z m 13.48152,-1.2605 c 0.17299,-0.28001 -0.0425,-0.50913 -0.47907,-0.50913 -0.43656,0 -0.79373,0.22912 -0.79373,0.50913 0,0.28002 0.21557,0.50912 0.47907,0.50912 0.26349,0 0.62067,-0.2291 0.79373,-0.50912 z m -3.81842,-1.94521 c 0,-0.22981 1.77282,-0.69346 3.93959,-1.03032 4.16212,-0.64706 5.47209,-1.38749 4.9343,-2.78899 -0.47208,-1.23017 -1.1831,-1.07508 -4.30896,0.93993 -2.93845,1.8942 -3.87588,2.03198 -4.71866,0.69354 -0.83951,-1.33325 -0.055,-2.48755 1.69041,-2.48755 0.86273,0 2.30183,-0.40093 3.19799,-0.89096 l 1.62935,-0.89096 -2.29104,-0.11507 c -4.41954,-0.2222 -17.56994,-1.81654 -18.07384,-2.19127 -0.28002,-0.20822 -1.54009,-0.53581 -2.80018,-0.72792 -1.26007,-0.19204 -2.69197,-0.46257 -3.182,-0.601 -0.68255,-0.19279 -0.89096,0.0541 -0.89096,1.05545 0,0.86629 -0.27858,1.30709 -0.82602,1.30709 -0.62128,0 -0.68948,0.16453 -0.27515,0.66379 0.41161,0.49597 0.24698,0.99158 -0.65122,1.96024 -0.66119,0.71305 -1.05287,1.53313 -0.87041,1.82242 0.39145,0.62062 4.07622,1.37802 10.76875,2.21351 2.66016,0.33208 5.05431,0.80229 5.32033,1.0449 0.61538,0.56124 7.40772,0.58256 7.40772,0.0233 z m -10.30972,-1.61839 c -0.77005,-0.23171 -1.40008,-0.28165 -1.40008,-0.11083 0,0.17068 -0.7854,-0.45083 -1.74533,-1.38122 -1.38863,-1.34593 -2.01289,-1.62447 -3.05473,-1.36298 -1.14691,0.28785 -1.30941,0.16952 -1.30941,-0.95387 0,-1.0856 0.23451,-1.2825 1.52737,-1.2825 0.84004,0 1.52736,0.17914 1.52736,0.39797 0,0.36703 2.33998,1.15889 5.70675,1.93117 0.75855,0.17395 1.66633,0.66234 2.01726,1.08519 0.52362,0.63092 0.46424,0.89593 -0.33099,1.47742 -1.07917,0.78911 -0.99805,0.7836 -2.9382,0.19973 z m -13.61902,-4.35784 c 0,-0.43656 -0.22912,-0.65213 -0.50913,-0.47908 -0.28002,0.17299 -0.50912,0.53024 -0.50912,0.79373 0,0.26348 0.2291,0.47908 0.50912,0.47908 0.28001,0 0.50913,-0.35718 0.50913,-0.79373 z m 16.36828,-8.62503 c 0,-0.26603 -0.24629,-0.56577 -0.54732,-0.6661 -0.301,-0.10025 -0.54729,0.19939 -0.54729,0.6661 0,0.46668 0.24629,0.76644 0.54729,0.66609 0.30103,-0.10025 0.54732,-0.40009 0.54732,-0.66609 z m 78.97026,178.34553 c -1.61307,-1.45608 -4.19292,-3.88652 -5.73303,-5.40098 -9.30731,-9.15238 -14.47747,-11.31231 -16.77993,-7.01012 -0.54346,1.01546 -0.57115,1.57129 -0.12238,2.45775 0.31889,0.63004 0.8337,3.08645 1.144,5.45869 0.31033,2.37224 0.67441,4.49146 0.80909,4.70938 0.1347,0.21792 0.0546,0.39622 -0.17761,0.39622 -0.54279,0 -2.47611,-3.75449 -3.23142,-6.27543 -0.5313,-1.77326 -0.64177,-1.86455 -1.23211,-1.01825 -0.35666,0.51131 -0.81382,2.3612 -1.0159,4.11088 -0.58399,5.05664 -1.25707,3.17351 -0.93001,-2.60201 0.16356,-2.88843 0.14009,-6.09051 -0.0523,-7.11572 -0.53137,-2.83251 -2.36612,-2.59439 -5.46815,0.70968 -2.17153,2.31298 -3.9996,6.23369 -3.9996,8.57807 0,0.30693 -0.34366,0.55805 -0.76369,0.55805 -0.94588,0 -0.96264,-0.65936 -0.0691,-2.72323 0.382,-0.88237 1.12004,-2.63529 1.64011,-3.89536 0.52006,-1.26008 1.2385,-2.47427 1.59652,-2.69819 0.35803,-0.22393 0.65094,-0.69948 0.65094,-1.05678 0,-0.69449 1.6142,-2.234 3.35224,-3.19711 0.88775,-0.49194 1.32459,-0.3819 2.67288,0.67331 0.88644,0.69373 1.61171,1.67844 1.61171,2.18822 0,0.50978 0.32114,1.0501 0.71362,1.20072 0.49475,0.18984 0.81288,-0.25516 1.03719,-1.45084 0.18319,-0.97638 0.90189,-2.17961 1.65654,-2.77321 1.98432,-1.56087 4.28702,-0.90589 8.7275,2.48245 2.05387,1.56722 4.34493,3.30771 5.09123,3.86774 1.43679,1.0782 10.5444,10.07211 11.72895,11.58253 1.28924,1.643899 0.0997,0.91262 -2.85712,-1.75646 z m -45.44457,-8.39321 c 0,-0.192 0.91642,-1.4359 2.03651,-2.76424 1.12006,-1.32833 2.03648,-2.66762 2.03648,-2.97619 0,-0.30858 0.34365,-0.69292 0.76367,-0.8541 0.42004,-0.16117 0.76369,-0.51364 0.76369,-0.78325 0,-0.26961 0.68732,-1.48918 1.52737,-2.71016 1.49063,-2.16654 2.0234,-4.97911 1.05639,-5.57676 -1.28287,-0.79285 -6.2875,3.16509 -7.8689,6.22317 -0.41644,0.80533 -1.149,1.78942 -1.62787,2.18685 -0.79234,0.65759 -0.83512,0.60843 -0.4754,-0.5462 0.21742,-0.69785 0.59413,-1.34518 0.83712,-1.43852 0.243,-0.0933 0.44183,-0.39572 0.44183,-0.67195 0,-1.06121 3.12766,-4.97879 5.17969,-6.48785 2.71967,-2.00008 4.33595,-2.06116 5.04709,-0.1907 0.99888,2.62725 0.0802,5.93217 -2.68876,9.67301 -3.82424,5.16645 -7.02891,8.32005 -7.02891,6.91689 z m -2.22059,-16.70652 c 0.16125,-0.42003 0.56015,-0.76368 0.88659,-0.76368 0.32645,0 1.74985,-0.76152 3.16313,-1.69227 1.41326,-0.93074 2.95793,-1.84129 3.4326,-2.02344 0.47467,-0.18222 1.0972,-0.94711 1.38343,-1.69993 0.76038,-1.99994 -0.0115,-2.52765 -2.68639,-1.83409 -3.44268,0.89296 -5.99525,1.86503 -5.99525,2.28309 0,0.21149 -0.25025,0.38454 -0.5561,0.38454 -0.30586,0 -1.1427,0.46142 -1.85965,1.02537 -0.71695,0.56396 -1.42223,0.9067 -1.56726,0.76167 -0.58766,-0.58766 2.23043,-2.80056 4.92764,-3.86941 1.58057,-0.62636 3.1029,-1.30905 3.38291,-1.51708 0.28002,-0.20803 1.59945,-0.54055 2.93207,-0.73894 2.66494,-0.39674 3.94107,0.20764 3.94107,1.86649 0,1.46466 -3.69348,5.16517 -6.45731,6.46959 -1.34878,0.63658 -2.85015,1.37214 -3.33638,1.63461 -1.29267,0.69773 -1.92509,0.58385 -1.5911,-0.28652 z m 19.53076,-0.91308 c -1.93111,-0.9772 -2.73038,-3.18096 -2.71558,-7.48743 0.0135,-3.91884 1.35374,-10.30397 2.2264,-10.60671 0.26905,-0.0933 0.48918,-0.44425 0.48918,-0.77976 0,-0.81138 5.60126,-6.43282 6.40971,-6.43282 0.34823,0 0.7243,-0.27349 0.83574,-0.60777 0.12546,-0.37642 1.2307,-0.59226 2.90349,-0.56704 2.37913,0.0358 2.91212,0.25198 4.47411,1.81399 1.68028,1.68026 1.78725,1.99796 2.04069,6.06053 0.3487,5.58886 -0.43901,9.19586 -2.5875,11.84848 -0.9227,1.13919 -1.82542,2.47221 -2.00605,2.96224 -0.18068,0.49002 -0.65122,0.89096 -1.04574,0.89096 -0.39453,0 -1.01508,0.35875 -1.37899,0.79725 -1.68962,2.03587 -7.34541,3.27198 -9.64546,2.10808 z m 10.24877,-4.42937 c 1.92364,-1.95828 3.49754,-3.88658 3.49754,-4.28511 0,-0.39853 0.22938,-0.80105 0.50973,-0.89451 0.91646,-0.30547 1.73647,-8.06678 1.09372,-10.35193 -0.9709,-3.45186 -2.47881,-4.84407 -5.37524,-4.96274 -2.48294,-0.10179 -2.51968,-0.0799 -5.7255,3.4225 -1.77458,1.93869 -3.37289,3.99476 -3.55182,4.56905 -0.17896,0.57429 -0.52834,1.17519 -0.77647,1.33535 -0.70164,0.45287 -1.64585,8.67756 -1.24281,10.82586 0.55395,2.95282 1.82058,3.90205 5.20682,3.90205 h 2.8665 z m 11.99341,-22.42696 c -2.49507,-0.41912 -4.22165,-1.30388 -5.98432,-3.06653 -1.84771,-1.84771 -0.83481,-8.12455 1.84304,-11.4212 l 1.2407,-1.52737 -0.004,1.27281 c -0.002,0.70004 -0.59948,2.30376 -1.32777,3.56385 -1.8669,3.23013 -1.84394,5.64361 0.0729,7.65475 2.79671,2.93437 3.97077,3.18185 16.7918,3.53964 l 11.7098,0.3268 -10.94613,0.0344 c -6.02037,0.0192 -12.04873,-0.15086 -13.39637,-0.37717 z m -25.26909,-1.39896 c -0.85542,-0.85542 -1.75589,-2.62896 -2.26183,-4.45483 -0.46233,-1.66847 -1.06524,-3.43143 -1.33979,-3.91766 -0.27455,-0.48622 -0.49156,-1.86086 -0.48225,-3.05474 l 0.0173,-2.17068 0.96851,1.16144 c 0.53268,0.63879 1.23182,2.47163 1.55363,4.07298 0.69592,3.46285 2.65409,6.72996 4.03367,6.72996 0.75242,0 1.1619,-0.66808 1.7943,-2.92744 0.45068,-1.61011 1.0733,-3.43339 1.38361,-4.05174 0.31028,-0.61834 0.58785,-2.83503 0.61679,-4.92595 0.0316,-2.27532 0.22054,-3.50239 0.47083,-3.05621 0.63917,1.13936 0.4976,9.51664 -0.21462,12.69918 -0.4525,2.02198 -1.05429,3.18239 -2.11191,4.07231 -1.89969,1.59849 -2.68405,1.5672 -4.42789,-0.17664 z m 9.93642,-1.92445 c -1.45136,-1.45136 -0.75068,-16.54646 0.84909,-18.29204 0.28618,-0.31226 0.34922,0.17992 0.16299,1.27281 -0.58955,3.46069 -1.19929,13.00441 -0.93682,14.66274 0.36824,2.32649 1.51253,1.95499 3.28839,-1.06757 1.69064,-2.87751 2.61287,-7.9683 2.36882,-13.07616 -0.0927,-1.94016 0.004,-3.35461 0.21342,-3.14323 0.49563,0.49868 0.57391,10.0608 0.0985,12.04529 -0.63075,2.6335 -3.20636,7.75161 -4.06709,8.08191 -1.09929,0.42183 -1.06296,0.43072 -1.97743,-0.48375 z"
       id="path47"
       inkscape:connector-curvature="0" />
  </g>
</svg>
