<?xml version="1.0" encoding="UTF-8" standalone="no"?>
<!-- Created with Inkscape (http://www.inkscape.org/) -->

<svg
   xmlns:dc="http://purl.org/dc/elements/1.1/"
   xmlns:cc="http://creativecommons.org/ns#"
   xmlns:rdf="http://www.w3.org/1999/02/22-rdf-syntax-ns#"
   xmlns:svg="http://www.w3.org/2000/svg"
   xmlns="http://www.w3.org/2000/svg"
   xmlns:sodipodi="http://sodipodi.sourceforge.net/DTD/sodipodi-0.dtd"
   xmlns:inkscape="http://www.inkscape.org/namespaces/inkscape"
   width="210.00003mm"
   height="71.847267mm"
   viewBox="0 0 210.00001 71.84726"
   version="1.1"
   id="svg8"
   inkscape:version="0.92.1 r15371"
   sodipodi:docname="secret_society.svg">
  <defs
     id="defs2" />
  <sodipodi:namedview
     id="base"
     pagecolor="#ffffff"
     bordercolor="#666666"
     borderopacity="1.0"
     inkscape:pageopacity="0.0"
     inkscape:pageshadow="2"
     inkscape:zoom="0.49497475"
     inkscape:cx="-15.398554"
     inkscape:cy="391.063"
     inkscape:document-units="mm"
     inkscape:current-layer="layer1"
     showgrid="false"
     fit-margin-top="0"
     fit-margin-left="0"
     fit-margin-right="0"
     fit-margin-bottom="0"
     inkscape:window-width="1920"
     inkscape:window-height="1028"
     inkscape:window-x="0"
     inkscape:window-y="0"
     inkscape:window-maximized="1" />
  <metadata
     id="metadata5">
    <rdf:RDF>
      <cc:Work
         rdf:about="">
        <dc:format>image/svg+xml</dc:format>
        <dc:type
           rdf:resource="http://purl.org/dc/dcmitype/StillImage" />
        <dc:title></dc:title>
      </cc:Work>
    </rdf:RDF>
  </metadata>
  <g
     inkscape:label="Calque 1"
     inkscape:groupmode="layer"
     id="layer1"
     transform="translate(47.148088,-65.546042)">
    <path
       style="fill:#000000;stroke-width:0.32981062"
       d="m -45.816281,136.77435 c -0.212621,-0.34046 -0.490296,-1.19385 -0.617055,-1.8964 -0.126758,-0.70257 -0.376887,-1.46193 -0.555838,-1.68747 -0.522924,-0.65905 0.348838,-8.58717 1.105842,-10.05694 0.162231,-0.31498 0.294965,-0.86278 0.294965,-1.21733 0,-0.35455 0.148416,-0.73635 0.32981,-0.84846 0.181396,-0.11207 0.329812,-1.08557 0.329812,-2.16324 0,-1.52181 0.11048,-1.9594 0.494716,-1.9594 0.272093,0 0.494716,-0.21025 0.494716,-0.46723 0,-0.25697 0.172822,-0.52484 0.384052,-0.59524 0.233803,-0.0779 0.427471,-1.11484 0.495038,-2.65041 0.104995,-2.38629 0.173252,-2.58287 1.265001,-3.64315 0.997545,-0.96881 1.154015,-1.33186 1.154015,-2.67762 0,-0.94411 -0.194706,-1.75155 -0.494715,-2.05155 -0.934054,-0.93406 -0.610587,-2.41838 0.824526,-3.78356 0.974608,-0.92712 1.319243,-1.516903 1.319243,-2.257616 0,-0.551451 -0.166587,-1.002645 -0.370195,-1.002645 -0.25577,0 -0.243288,-0.152911 0.04039,-0.494709 0.262267,-0.316008 0.991672,-0.494723 2.019247,-0.494723 0.884769,0 1.60867,-0.148411 1.60867,-0.329806 0,-0.181395 0.222623,-0.329807 0.494716,-0.329807 0.357295,0 0.494716,-0.366454 0.494716,-1.319244 0,-0.952787 0.137421,-1.319242 0.494716,-1.319242 0.636671,0 0.636671,-0.800363 0,-1.437032 -0.661049,-0.661049 -0.661049,-2.520696 0,-2.520696 0.272094,0 0.494716,-0.222623 0.494716,-0.494716 0,-0.3474 -0.35075,-0.494716 -1.177896,-0.494716 -1.152477,0 -2.12021,-0.591393 -2.12021,-1.295684 0,-0.194355 0.29683,-0.35337 0.659621,-0.35337 0.362792,0 0.659621,-0.148414 0.659621,-0.32981 0,-0.181396 0.222623,-0.32981 0.494716,-0.32981 0.272094,0 0.494716,-0.222623 0.494716,-0.494716 0,-0.278219 -0.294696,-0.494716 -0.673412,-0.494716 -0.370376,0 -0.976519,-0.282388 -1.346983,-0.627528 -0.586946,-0.546823 -0.64391,-0.864948 -0.442924,-2.473579 0.126856,-1.015329 0.361963,-1.846053 0.522457,-1.846053 0.160494,0 0.291809,-0.29683 0.291809,-0.659622 0,-0.362792 0.129447,-0.659621 0.287659,-0.659621 0.158211,0 0.382588,-0.59366 0.498612,-1.319243 0.178963,-1.119164 0.332462,-1.319242 1.012121,-1.319242 0.440641,0 0.89289,-0.148415 1.004999,-0.32981 0.112112,-0.181396 1.011356,-0.329812 1.998328,-0.329812 0.986971,0 1.794494,0.148416 1.794494,0.329812 0,0.181395 0.519452,0.32981 1.154337,0.32981 0.634886,0 1.154337,0.128996 1.154337,0.286658 0,0.157661 0.532955,0.373143 1.184344,0.478849 0.651389,0.105706 1.430567,0.46936 1.731506,0.808119 0.30094,0.338761 0.810254,0.713571 1.131811,0.832913 0.321557,0.119343 0.682405,0.471733 0.801885,0.783093 0.11948,0.311359 0.709772,1.044425 1.311762,1.629037 1.277084,1.240216 1.386463,2.248803 0.362125,3.339164 -0.524456,0.558254 -0.70461,1.102188 -0.634517,1.915765 0.05384,0.624885 -0.110006,1.55288 -0.364089,2.06221 -0.375351,0.752406 -0.382668,1.000134 -0.03903,1.321145 0.232622,0.217303 0.540524,0.396251 0.684228,0.397666 0.410853,0.0041 1.085805,1.683439 1.085805,2.701663 0,0.923045 0.0015,0.923666 2.226221,0.897643 1.224422,-0.01431 2.040704,-0.100894 1.813958,-0.192388 -0.226745,-0.09149 -0.412263,-0.376607 -0.412263,-0.633583 0,-0.256978 -0.15516,-0.467232 -0.344802,-0.467232 -0.363004,0 -1.963872,-1.479248 -1.963872,-1.814672 0,-0.491622 3.33203,-3.458246 4.100971,-3.651237 0.473865,-0.118931 1.043634,-0.474823 1.266146,-0.790864 0.222513,-0.316043 0.738502,-0.680122 1.146643,-0.809068 0.408141,-0.128942 0.742074,-0.372858 0.742074,-0.54203 0,-0.16917 0.519452,-0.307585 1.154337,-0.307585 0.6348864,0 1.1543384,-0.148415 1.1543384,-0.32981 0,-0.181396 0.593659,-0.329812 1.319242,-0.329812 0.725583,0 1.319242,0.112188 1.319242,0.249301 0,0.137116 0.482349,0.458431 1.071885,0.71403 1.667474,0.722958 2.933756,2.224025 3.1337,3.714727 0.133593,0.996008 0.36727,1.383338 0.97367,1.613888 0.73818899,0.28066 0.78126899,0.420611 0.57572799,1.870412 -0.12946099,0.913171 -0.51637799,1.870242 -0.92725699,2.293646 -1.869759,1.926767 -1.918967,2.239994 -0.556921,3.54491 0.839582,0.804373 1.158083,0.907037 2.32740099,0.750198 1.35543201,-0.181793 2.63649301,-1.204059 2.63649301,-2.103865 0,-0.244332 0.148414,-0.444251 0.32981,-0.444251 0.181397,0 0.329811,-0.593659 0.329811,-1.319244 0,-0.851605 0.149556,-1.319242 0.421907,-1.319242 0.232049,0 0.635849,-0.29683 0.897336,-0.659622 0.261487,-0.362792 0.665287,-0.659622 0.897336,-0.659622 0.270853,0 0.421906,-0.462477 0.421906,-1.291759 0,-0.714848 0.18412,-1.374393 0.412263,-1.476787 0.226745,-0.101766 -0.775055,-0.09774 -2.226221,0.009 -1.451167,0.106641 -2.769938,0.316414 -2.930602,0.466118 -0.37235901,0.34695 -1.19203101,-0.45727 -1.19203101,-1.169559 0,-0.77732 0.875968,-1.607545 1.12783401,-1.068939 0.151973,0.32499 0.231045,0.324383 0.383797,-0.003 0.105818,-0.226744 0.53892,-0.412263 0.96246,-0.412263 1.499609,0 1.813447,-0.32081 1.813447,-1.85372 0,-0.799336 -0.140809,-1.711048 -0.312911,-2.02603 -0.1721,-0.314999 -0.403816,-1.277681 -0.514923,-2.139311 -0.111103,-0.861631 -0.341333,-1.5666 -0.511615,-1.5666 -0.415369,0 -0.397596,-1.885552 0.02022,-2.143769 0.181396,-0.112113 0.329811,-0.50611 0.329811,-0.875557 0,-0.969615 1.020944,-2.553661 1.802867,-2.797236 0.36889,-0.114918 0.748363,-0.328746 0.843272,-0.475183 0.288008,-0.444379 8.0173346,-0.470586 8.1649666,-0.02769 0.07018,0.210584 0.379082,0.38286 0.686442,0.38286 0.565355,0 1.190293,0.616746 1.942225,1.916769 0.560302,0.968711 0.560302,6.219916 0,6.422826 -0.32981,0.119443 -0.32981,0.288947 0,0.847537 0.226745,0.384028 0.412263,1.041698 0.412263,1.461488 0,0.872477 -0.702252,2.537387 -1.071883,2.541232 -0.136048,0.0014 -0.247359,0.596232 -0.247359,1.321815 0,0.725585 0.148415,1.319244 0.32981,1.319244 0.181396,0 0.329812,0.445244 0.329812,0.989432 0,1.051892 0.987472,2.308674 1.813958,2.308674 0.272093,0 0.494716,0.131106 0.494716,0.291345 0,0.584826 1.311719,0.617075 1.967442,0.04837 0.751286,-0.651584 0.919394,-2.318579 0.233816,-2.318579 -0.240471,0 -0.793139,-0.378854 -1.228146,-0.841898 -0.666916,-0.7099 -0.714712,-0.890092 -0.30485,-1.149288 0.267341,-0.169064 0.671594,-0.309662 0.898339,-0.312438 0.226744,-0.0026 0.412263,-0.142581 0.412263,-0.310679 0,-0.168094 0.259725,-0.373501 0.577169,-0.456455 0.445666,-0.116463 0.412529,-0.159549 -0.14544,-0.18909 -0.397436,-0.02104 -0.814336,-0.186673 -0.926445,-0.368068 -0.112113,-0.181396 -0.610638,-0.329812 -1.107841,-0.329812 -1.950902,0 -2.243996,-1.548632 -0.588576,-3.109892 0.608837,-0.574208 1.281924,-1.370909 1.495753,-1.770451 0.213827,-0.399538 0.532704,-0.726437 0.708615,-0.726437 0.175908,0 1.046453,-0.742074 1.934544,-1.649053 0.922724,-0.942347 1.911414,-1.649054 2.307045,-1.649054 0.380787,0 0.692335,-0.148414 0.692335,-0.32981 0,-0.181396 0.371037,-0.32981 0.824527,-0.32981 0.453489,0 0.824527,0.148414 0.824527,0.32981 0,0.181396 0.313168,0.32981 0.695929,0.32981 0.437857,0 1.903114,1.19246 3.951294,3.215655 2.537692,2.506734 3.256785,3.415604 3.261798,4.122631 0.0049,0.689252 -0.151914,0.906981 -0.653187,0.906981 -0.362792,0 -0.659622,0.148414 -0.659622,0.32981 0,0.181396 -0.222621,0.32981 -0.494716,0.32981 -0.272093,0 -0.494716,0.222623 -0.494716,0.494716 0,0.307823 0.311487,0.494716 0.824528,0.494716 0.464854,0 0.824526,0.190727 0.824526,0.437228 0,0.540892 -1.378272,1.871446 -1.938565,1.871446 -0.751195,0 -0.293534,2.105017 0.53687,2.469336 0.408141,0.179061 0.742073,0.512994 0.742073,0.742074 0,0.718951 0.858152,0.453538 1.319244,-0.408018 0.2427,-0.45349 0.552815,-0.824528 0.689145,-0.824528 0.136334,0 0.345668,-0.445244 0.465191,-0.989432 0.119517,-0.544187 0.353941,-0.989432 0.520923,-0.989432 0.169938,0 0.303605,-1.960225 0.303605,-4.452442 0,-2.448845 0.126637,-4.452444 0.281413,-4.452444 0.15478,0 0.375411,-1.111934 0.49029,-2.470965 0.184872,-2.187016 0.615423,-3.613448 1.245161,-4.125248 0.111602,-0.0907 0.307116,-0.498838 0.434489,-0.906979 0.12737,-0.408141 0.369995,-0.742073 0.539168,-0.742073 0.16917,0 0.307585,-0.222623 0.307585,-0.494716 0,-0.272095 0.138414,-0.494716 0.307584,-0.494716 0.169173,0 0.410585,-0.324516 0.53647,-0.721147 0.125886,-0.39663 0.692441,-1.177004 1.259016,-1.734163 1.01086,-0.994066 1.634752,-1.838119 2.08566,-2.821662 0.652266,-1.422748 1.747861,-1.732846 1.747861,-0.494715 0,0.45349 0.148416,0.824527 0.32981,0.824527 0.181397,0 0.329812,0.222622 0.329812,0.494716 0,0.272093 0.131898,0.494716 0.293106,0.494716 0.161207,0 0.390555,0.519451 0.50966,1.154336 0.119105,0.634886 0.358246,1.154338 0.53142,1.154338 0.173177,0 0.314866,0.159016 0.314866,0.353368 0,0.194353 0.222623,0.575991 0.494716,0.848085 0.272095,0.272093 0.494716,0.855152 0.494716,1.295685 0,0.440533 0.148416,0.800968 0.329812,0.800968 0.415802,0 0.43844,3.204125 0.02368,3.353076 -0.169958,0.06104 -0.35333,3.117227 -0.412263,6.871053 l -0.106142,6.761118 2.391127,2.366164 c 1.31512,1.301387 2.391127,2.507639 2.391127,2.680557 0,0.172919 0.222622,0.499148 0.494716,0.724969 0.272093,0.225821 0.494716,0.763449 0.494716,1.194723 0,0.431274 0.139011,0.784141 0.308913,0.784141 0.169903,0 0.368776,0.482344 0.441933,1.07189 0.07316,0.58953 0.156774,0.0824 0.185803,-1.126862 0.03379,-1.40748 0.201145,-2.258597 0.465046,-2.365088 0.270953,-0.109321 0.234816,-0.175275 -0.105432,-0.19239 -0.878599,-0.04413 -1.95588,-1.58885 -1.95588,-2.804452 0,-0.618392 0.166341,-1.179793 0.369646,-1.247561 0.964346,-0.321448 0.102265,-3.889481 -0.939746,-3.889481 -0.158076,0 -0.452124,-0.164717 -0.653444,-0.366037 -0.268179,-0.268179 -0.138976,-0.620882 0.483268,-1.319242 0.467121,-0.524264 1.014636,-0.953205 1.216702,-0.953205 0.202064,0 0.577395,-0.291369 0.834071,-0.647488 0.256675,-0.356117 0.867708,-0.735567 1.357853,-0.843221 0.490145,-0.10765 1.152184,-0.484149 1.471203,-0.836659 0.319016,-0.352512 0.761476,-0.640928 0.983245,-0.640928 0.221771,0 0.587976,-0.222622 0.813794,-0.494716 0.456693,-0.550282 3.136473,-0.693255 3.451132,-0.184131 0.105569,0.170826 1.216407,0.411535 2.468518,0.534918 1.821519,0.179485 2.413319,0.381603 2.960719,1.011163 0.70537,0.811248 0.91683,2.248133 0.37971,2.580095 -0.16744,0.103487 -0.40186,0.631692 -0.52092,1.173802 -0.11907,0.542107 -0.35311,0.985649 -0.5201,0.985649 -0.56017,0 -0.31085,0.823452 0.52093,1.720481 0.45349,0.489069 0.82452,0.980501 0.82452,1.092073 0,0.440953 -0.97789,1.145174 -1.59021,1.145174 -0.75644,0 -1.04827,0.604322 -1.04827,2.170744 0,0.620047 -0.14842,1.127362 -0.329816,1.127362 -0.181396,0 -0.32981,0.222623 -0.32981,0.494717 0,0.326129 0.309075,0.485847 0.906986,0.468682 0.49883,-0.01433 0.72146,-0.100844 0.49471,-0.192389 -0.22674,-0.0915 -0.41226,-0.599235 -0.41226,-1.128304 0,-0.806204 0.13349,-0.961948 0.82452,-0.961948 0.69114,0 0.82453,0.15571 0.82453,0.962457 0,1.356733 -0.31033,2.005837 -0.95896,2.005837 -0.65208,0 -2.332819,0.734268 -2.336575,1.02077 -0.0014,0.107949 0.294257,0.464868 0.657049,0.793191 0.365173,0.33048 0.659626,1.015809 0.659626,1.535267 0,0.77236 0.14096,0.93831 0.79704,0.93831 0.43837,0 0.86408,0.18552 0.94603,0.41227 0.0998,0.27622 0.46856,0.11293 1.11741,-0.49472 0.53264,-0.49884 1.08223,-0.90698 1.2213,-0.90698 0.49667,0 1.20686,-0.943278 0.86791,-1.15277 -0.9752,-0.602709 0.50072,-2.804951 1.87985,-2.804951 0.87399,0 1.20246,-0.825777 0.57718,-1.451051 -0.64505,-0.645057 -0.62258,-2.381666 0.0341,-2.63365 0.36842,-0.141378 0.48564,-0.549946 0.41227,-1.436982 l -0.10252,-1.239442 -2.39112,0.114967 c -2.38435,0.114631 -2.39113,0.112525 -2.39113,-0.742074 0,-0.471369 0.14841,-0.857036 0.32981,-0.857036 0.18139,0 0.32981,-0.222622 0.32981,-0.494716 0,-0.272093 0.18552,-0.49496 0.41226,-0.495257 0.58701,-6.59e-4 2.63425,-2.261774 3.28444,-3.627375 0.30228,-0.634886 0.85571,-1.37262 1.22984,-1.63941 0.41689,-0.297281 0.68024,-0.852153 0.68024,-1.43326 0,-1.276415 0.9331,-2.778276 1.87265,-3.014087 0.42121,-0.105718 0.76583,-0.337799 0.76583,-0.51574 0,-0.177939 0.51946,-0.323526 1.15434,-0.323526 0.63489,0 1.15434,0.128995 1.15434,0.286658 0,0.157661 0.51456,0.370157 1.14346,0.472214 1.10204,0.178837 3.14408,1.845647 3.14408,2.566353 0,0.183803 0.34499,0.661034 0.76665,1.060513 0.42165,0.399481 0.86353,0.989419 0.98195,1.310975 0.11842,0.321558 0.47839,0.68429 0.79995,0.806074 0.32156,0.121785 0.78077,0.415244 1.02047,0.652141 0.2397,0.236893 0.64784,0.430715 0.90698,0.430715 0.25914,0 0.47116,0.29683 0.47116,0.659622 0,0.362792 0.14841,0.659622 0.32981,0.659622 0.57108,0 0.36009,0.659317 -0.47973,1.499137 -0.44524,0.445244 -1.10097,0.809537 -1.45717,0.809537 -1.14804,0 -1.69102,0.381984 -1.69102,1.189623 0,0.621984 0.17474,0.789241 0.82453,0.789241 0.45349,0 0.82452,0.138556 0.82452,0.307904 0,0.169348 0.39318,0.354866 0.87372,0.412264 1.25514,0.149919 1.63599,0.929433 1.07419,2.198639 -0.25293,0.571408 -0.57206,1.038921 -0.70917,1.038921 -0.3955,0 -0.28935,1.147272 0.14647,1.583091 0.21767,0.217675 0.68261,0.39577 1.0332,0.39577 0.70182,0 1.86913,1.16437 1.86913,1.86442 0,0.244345 0.11219,0.44425 0.2493,0.44425 0.13712,0 0.45357,0.461465 0.70322,1.025482 0.3438,0.776699 0.35955,1.083807 0.0649,1.265894 -0.28504,0.17616 -0.25261,0.35364 0.12131,0.66396 0.34565,0.28687 0.51032,0.30408 0.51032,0.0533 0,-0.2036 0.37105,-0.37019 0.82453,-0.37019 0.51304,0 0.82453,-0.18689 0.82453,-0.494705 0,-0.272092 0.13842,-0.494722 0.30758,-0.494722 0.16918,0 0.40112,-0.333932 0.51544,-0.742071 0.11431,-0.408138 0.37911,-1.089216 0.58839,-1.513509 0.31613,-0.640866 0.28471,-0.825053 -0.18563,-1.08827 -0.65675,-0.367539 -0.74148,-1.296063 -0.17039,-1.867156 0.21768,-0.217675 1.03396,-0.395773 1.81396,-0.395773 1.180809,0 1.418189,-0.106466 1.418189,-0.636062 0,-0.349837 -0.22262,-0.858686 -0.49471,-1.13078 -0.29279,-0.292775 -0.49473,-1.098932 -0.49473,-1.974938 0,-0.814122 -0.14156,-1.529692 -0.314579,-1.590159 -0.17303,-0.06047 -0.43275,-1.074632 -0.57717,-2.253705 -0.21687,-1.770575 -0.39177,-2.200444 -1.00465,-2.469335 -0.55143,-0.24192 -0.74209,-0.602047 -0.74209,-1.401695 0,-0.591872 -0.16658,-1.076129 -0.37018,-1.076129 -0.25079,0 -0.26466,-0.13298 -0.043,-0.412263 0.17995,-0.226745 0.4309,-0.987091 0.55766,-1.689656 0.44728,-2.479061 1.21181,-3.336604 3.246769,-3.641766 0.85575,-0.128328 1.55591,-0.372645 1.55591,-0.542926 0,-0.458156 0.90356,-0.375839 1.12687,0.102664 0.152,0.325733 0.23372,0.322844 0.38936,-0.01376 0.15121,-0.327035 0.30448,-0.33681 0.65963,-0.04207 0.33389,0.277112 0.46263,0.280943 0.46263,0.01376 0,-0.232584 0.73559,-0.370194 1.97887,-0.370194 1.09936,0 1.97886,0.146583 1.97886,0.329812 0,0.181395 0.35287,0.32981 0.78414,0.32981 0.87879,0 1.32596,0.43542 1.69352,1.649053 0.13736,0.45349 0.34104,0.898734 0.45263,0.989431 0.47665,0.387377 1.01253,1.649054 0.70042,1.649054 -0.18294,0 -0.33261,0.521465 -0.33261,1.158813 0,0.637346 -0.1855,1.47302 -0.41226,1.857048 -0.32981,0.558591 -0.32981,0.728097 0,0.847537 0.46614,0.168808 0.58913,3.392436 0.12944,3.392436 -0.15556,0 -0.37794,0.909977 -0.49419,2.022172 -0.14911,1.426662 -0.40577,2.19078 -0.87151,2.594719 -0.36307,0.314899 -0.66015,0.870518 -0.66015,1.234709 0,0.731556 1.07316,1.074424 3.3629,1.074424 1.41127,0 2.42141,0.710738 2.12137,1.492624 -0.10259,0.267428 -0.49869,0.486231 -0.88013,0.486231 -0.61647,0 -0.63856,0.05497 -0.19881,0.494722 0.85019,0.850182 1.53127,0.610687 1.53127,-0.538488 0,-0.6471 0.26534,-1.263328 0.71008,-1.649045 0.39055,-0.338721 0.53896,-0.615854 0.32981,-0.615854 -0.20915,0 -0.38027,-0.362278 -0.38027,-0.805062 0,-0.442784 -0.14842,-0.896788 -0.32982,-1.008898 -0.18139,-0.112113 -0.3298,-0.705768 -0.3298,-1.319242 0,-0.613474 0.14841,-1.207133 0.3298,-1.319242 0.73232,-0.452603 0.28057,-1.133685 -0.8987,-1.354918 -1.27695,-0.239559 -2.06959,-0.796621 -2.06959,-1.454502 0,-0.46116 1.32693,-1.616656 1.87419,-1.632051 0.83059,-0.02337 0.91231,-2.649459 0.0824,-2.649459 -0.16916,0 -0.30759,-0.296829 -0.30759,-0.65962 0,-0.362792 0.21202,-0.659622 0.47116,-0.659622 0.25914,0 0.67302,-0.185518 0.91974,-0.412263 0.77284,-0.710276 1.78259,-1.18352 3.02095,-1.415838 0.65721,-0.123294 1.19494,-0.35607 1.19494,-0.517278 0,-0.161209 0.37104,-0.293107 0.82452,-0.293107 0.45349,0 0.82453,-0.148414 0.82453,-0.32981 0,-0.181396 0.22262,-0.32981 0.49471,-0.32981 0.27211,0 0.49473,0.148414 0.49473,0.32981 0,0.181396 0.22261,0.32981 0.49471,0.32981 0.2721,0 0.49472,0.148416 0.49472,0.329812 0,0.181396 0.30148,0.32981 0.66997,0.32981 0.36849,0 0.7554,0.222623 0.85982,0.494716 0.10446,0.272094 0.47079,0.494716 0.81417,0.494716 0.34338,0 0.62433,0.148856 0.62433,0.330791 0,0.181935 0.56893,0.577268 1.26428,0.878519 1.69857,0.73587 2.10615,1.686002 1.14363,2.665965 -0.40088,0.408141 -0.88404,0.742075 -1.07367,0.742075 -0.18965,0 -0.3448,0.210253 -0.3448,0.467232 0,0.256976 -0.12709,0.516701 -0.28243,0.577169 -0.15533,0.06047 -0.35972,0.814906 -0.4542,1.676536 -0.1309,1.193713 -0.0637,1.566601 0.28243,1.566601 0.2992,0 0.4542,0.393893 0.4542,1.154336 0,0.634886 -0.14842,1.154338 -0.32981,1.154338 -0.1814,0 -0.32982,0.240794 -0.32982,0.535098 0,0.438252 -0.0895,0.460788 -0.49471,0.124529 -0.41192,-0.341862 -0.49472,-0.299327 -0.49472,0.254142 0,0.365594 -0.23836,0.756186 -0.5297,0.867983 -0.39308,0.150838 -0.4713,0.435917 -0.30329,1.105323 0.33673,1.341659 0.79215,1.730282 2.02771,1.730282 0.61268,0 1.11396,0.148412 1.11396,0.329806 0,0.181408 0.59366,0.329819 1.31924,0.329819 0.95278,0 1.31924,-0.137429 1.31924,-0.494722 0,-0.329811 0.32982,-0.494717 0.98943,-0.494717 0.96744,0 0.98943,-0.03665 0.98943,-1.649052 0,-0.90698 0.14843,-1.649054 0.32982,-1.649054 0.70106,0 0.27474,-0.957467 -0.95984,-2.155665 -1.09291,-1.060688 -1.26408,-1.409172 -1.12209,-2.284226 0.11431,-0.704099 -7e-5,-1.171712 -0.3594,-1.46993 -0.96387,-0.799945 -0.40047,-2.995067 0.76871,-2.995067 0.19436,0 0.35337,-0.159014 0.35337,-0.353368 0,-0.555042 -0.74807,-1.163598 -1.73477,-1.411244 -0.84756,-0.212727 -0.90371,-0.339126 -0.90371,-2.034494 0,-0.994221 0.13232,-1.807674 0.29406,-1.807674 0.16172,0 0.38792,-0.374022 0.50266,-0.83116 0.24688,-0.983627 1.46492,-2.466946 2.02576,-2.466946 0.21717,0 0.58072,-0.223951 0.80789,-0.497668 0.22716,-0.273718 0.98741,-0.589516 1.68943,-0.701774 0.70203,-0.112263 1.27641,-0.333552 1.27641,-0.491764 0,-0.158212 0.89049,-0.287658 1.97886,-0.287658 1.08838,0 1.97886,0.136622 1.97886,0.303605 0,0.166983 0.44525,0.401398 0.98944,0.520921 0.54419,0.11953 0.98943,0.353938 0.98943,0.520921 0,0.166983 0.23746,0.303605 0.5277,0.303605 0.6847,0 2.77041,2.085712 2.77041,2.77041 0,0.290233 0.14842,0.527696 0.32981,0.527696 0.18139,0 0.32981,0.59366 0.32981,1.319244 0,0.725583 -0.15901,1.319242 -0.35337,1.319242 -0.70429,0 -1.29568,0.967734 -1.29568,2.120211 0,1.036549 0.099,1.177895 0.82452,1.177895 0.79533,0 0.82453,0.07626 0.82453,2.15412 0,1.610527 -0.12484,2.202026 -0.49471,2.343961 -0.2721,0.104409 -0.49473,0.462031 -0.49473,0.794712 0,0.332679 -0.15574,0.701127 -0.34609,0.818774 -0.20961,0.129546 -0.0145,0.521216 0.49471,0.993148 0.46246,0.428587 0.84082,1.002173 0.84082,1.274639 0,0.382092 0.50915,0.517701 2.22622,0.592917 1.94375,0.08515 2.26754,0.19168 2.55179,0.839596 0.18875,0.430232 0.61628,0.742075 1.01737,0.742075 0.84542,0 2.44989,1.72611 2.44989,2.635637 0,0.36436 0.14841,0.662467 0.32981,0.662467 0.18139,0 0.3298,0.22263 0.3298,0.494723 0,0.272092 0.14673,0.494709 0.32605,0.494709 0.57916,0 1.65282,1.118834 1.65282,1.722354 0,0.322476 0.14842,0.586327 0.32982,0.586327 0.18139,0 0.3298,0.22261 0.3298,0.49471 0,0.27209 0.1417,0.49472 0.31486,0.49472 0.17318,0 0.41233,0.51945 0.53144,1.15433 0.11904,0.63489 0.34844,1.15434 0.50965,1.15434 0.1612,0 0.29311,0.22263 0.29311,0.49472 0,0.27209 0.14841,0.49471 0.32981,0.49471 0.18139,0 0.3298,0.21688 0.3298,0.48197 0,0.26509 0.59366,1.06974 1.31925,1.7881 1.27614,1.26344 1.31924,1.37785 1.31924,3.50112 0,1.98632 -0.0916,2.28667 -0.96406,3.15907 -0.53024,0.53023 -1.25413,0.96406 -1.60867,0.96406 -0.35454,0 -0.82937,0.22263 -1.05519,0.49472 -0.22581,0.2721 -0.61502,0.49471 -0.8649,0.49471 -0.24989,0 -0.45434,0.14841 -0.45434,0.32981 0,0.18141 -0.30743,0.32982 -0.68318,0.32982 -1.58925,0 -1.62549,0.24953 -1.62549,11.19 v 10.24768 H 55.083217 c -97.958136,0 -100.52274,-0.0157 -100.899498,-0.61902 z m 34.858032,-39.45297 c -0.225817,-0.272093 -0.54082,-0.494723 -0.700003,-0.494723 -0.159186,0 -0.289429,0.22263 -0.289429,0.494723 0,0.284358 0.297651,0.494709 0.700003,0.494709 0.584834,0 0.632455,-0.0814 0.289429,-0.494709 z m 5.2769704,0 c 0,-0.272093 -0.206744,-0.494723 -0.459429,-0.494723 -0.252688,0 -0.544856,0.22263 -0.649272,0.494723 -0.129126,0.3365 0.01781,0.494709 0.459429,0.494709 0.357258,0 0.649272,-0.222493 0.649272,-0.494709 z M 62.012356,93.639941 c -0.226744,-0.09149 -0.597781,-0.09149 -0.824526,0 -0.226744,0.0915 -0.04122,0.166353 0.412263,0.166353 0.45349,0 0.63901,-0.07487 0.412263,-0.166353 z M 24.78057,92.37422 c 0.129128,-0.336503 -0.01781,-0.494716 -0.459429,-0.494716 -0.357257,0 -0.649272,0.222504 -0.649272,0.494716 0,0.272093 0.206746,0.494716 0.45943,0.494716 0.252687,0 0.544857,-0.222623 0.649271,-0.494716 z m 4.827891,0 c 0.350236,-0.422006 0.257315,-0.494716 -0.632241,-0.494716 -0.888941,0 -0.980068,0.07115 -0.617553,0.48217 0.544569,0.617439 0.746097,0.619461 1.249794,0.01253 z m 49.801408,-0.137422 c 0,-0.740593 -0.65165,-1.050371 -1.17707,-0.559551 -0.26517,0.247705 -0.26715,0.456834 -0.007,0.754634 0.54352,0.622517 1.18422,0.516975 1.18422,-0.195083 z m 3.68838,-1.088376 c -0.23666,-0.236658 -0.39027,-0.25613 -0.39027,-0.04947 0,0.440224 0.39003,0.830261 0.61015,0.610149 0.0937,-0.09371 -0.005,-0.346024 -0.21988,-0.560678 z M 40.971503,90.255411 c 0.22194,-0.359105 -0.725802,-0.613171 -1.551175,-0.415832 -0.317443,0.0759 -0.577169,0.269099 -0.577169,0.429338 0,0.387767 1.887747,0.37579 2.128344,-0.01349 z m 4.467869,-0.02496 c 0,-0.181395 -0.157175,-0.32981 -0.349276,-0.32981 -0.192101,0 -0.257549,0.148415 -0.14544,0.32981 0.112113,0.181396 0.269284,0.329812 0.349276,0.329812 0.07999,0 0.14544,-0.148416 0.14544,-0.329812 z m -77.034433,-0.906975 c -0.164169,-0.136046 -0.409254,-0.395773 -0.544635,-0.577169 -0.140468,-0.188216 -0.248312,-0.08202 -0.251194,0.247359 -0.0027,0.320836 0.239074,0.577169 0.544635,0.577169 0.302325,0 0.415363,-0.111315 0.251194,-0.247359 z m 3.605927,-0.247357 c 0.10441,-0.272094 0.04608,-0.494716 -0.129619,-0.494716 -0.175703,0 -0.31946,0.222622 -0.31946,0.494716 0,0.272093 0.05832,0.494716 0.129619,0.494716 0.07129,0 0.215049,-0.222623 0.31946,-0.494716 z m 151.263814,0 c 0,-0.307823 -0.31148,-0.494716 -0.82452,-0.494716 -0.51304,0 -0.82452,0.186893 -0.82452,0.494716 0,0.307821 0.31148,0.494716 0.82452,0.494716 0.51304,0 0.82452,-0.186895 0.82452,-0.494716 z m -20.44825,-3.109025 c 0,-0.168095 0.25972,-0.380229 0.57717,-0.471408 0.31744,-0.09118 0.14336,-0.139171 -0.38684,-0.10664 -0.98905,0.06068 -1.65267,0.883675 -0.71254,0.883675 0.28722,0 0.52221,-0.137532 0.52221,-0.30563 z m 6.50835,-0.8816 c -0.40695,-0.40696 -1.22476,0.161099 -1.01582,0.705604 0.18487,0.481764 0.25351,0.483712 0.71688,0.02034 0.28184,-0.28184 0.41636,-0.608514 0.29894,-0.72594 z m 27.13233,0.692514 c 0,-0.32865 -0.32866,-0.494716 -0.97908,-0.494716 -0.73479,0 -0.93172,0.123431 -0.78924,0.494716 0.10446,0.272093 0.545,0.494716 0.97908,0.494716 0.48167,0 0.78924,-0.192792 0.78924,-0.494716 z m 4.87335,-0.551223 c -0.0708,-0.212474 -0.45166,-0.410104 -0.84629,-0.439177 -0.56245,-0.04143 -0.63875,0.04206 -0.35305,0.386315 0.4496,0.541733 1.37591,0.582561 1.19934,0.05286 z M 7.6476234,83.68024 c 0.09647,-0.156097 0.09072,-0.368491 -0.0128,-0.471992 -0.257361,-0.257378 -1.11311,0.09724 -1.11311,0.461277 0,0.376844 0.894364,0.385357 1.125907,0.01072 z m 5.5560956,-0.670928 c 0.328732,-0.337924 0.252295,-0.398714 -0.389767,-0.309981 -0.439281,0.06071 -0.855825,0.284 -0.925649,0.4962 -0.163317,0.496315 0.781582,0.362547 1.315416,-0.186219 z"
       id="path4861"
       inkscape:connector-curvature="0" />
  </g>
</svg>
