<?xml version="1.0" encoding="UTF-8" standalone="no"?>
<!-- Created with Inkscape (http://www.inkscape.org/) -->

<svg
   xmlns:dc="http://purl.org/dc/elements/1.1/"
   xmlns:cc="http://creativecommons.org/ns#"
   xmlns:rdf="http://www.w3.org/1999/02/22-rdf-syntax-ns#"
   xmlns:svg="http://www.w3.org/2000/svg"
   xmlns="http://www.w3.org/2000/svg"
   xmlns:sodipodi="http://sodipodi.sourceforge.net/DTD/sodipodi-0.dtd"
   xmlns:inkscape="http://www.inkscape.org/namespaces/inkscape"
   width="210mm"
   height="203.35707mm"
   viewBox="0 0 210 203.35706"
   version="1.1"
   id="svg8"
   inkscape:version="0.92.1 r15371"
   sodipodi:docname="smear_campaign.svg">
  <defs
     id="defs2" />
  <sodipodi:namedview
     id="base"
     pagecolor="#ffffff"
     bordercolor="#666666"
     borderopacity="1.0"
     inkscape:pageopacity="0.0"
     inkscape:pageshadow="2"
     inkscape:zoom="0.49497475"
     inkscape:cx="-153.99815"
     inkscape:cy="409.11877"
     inkscape:document-units="mm"
     inkscape:current-layer="layer1"
     showgrid="false"
     fit-margin-top="0"
     fit-margin-left="0"
     fit-margin-right="0"
     fit-margin-bottom="0"
     inkscape:window-width="1920"
     inkscape:window-height="1028"
     inkscape:window-x="0"
     inkscape:window-y="0"
     inkscape:window-maximized="1" />
  <metadata
     id="metadata5">
    <rdf:RDF>
      <cc:Work
         rdf:about="">
        <dc:format>image/svg+xml</dc:format>
        <dc:type
           rdf:resource="http://purl.org/dc/dcmitype/StillImage" />
        <dc:title></dc:title>
      </cc:Work>
    </rdf:RDF>
  </metadata>
  <g
     inkscape:label="Calque 1"
     inkscape:groupmode="layer"
     id="layer1"
     transform="translate(3.8086382e-6,-46.821461)">
    <path
       style="fill:#000000;stroke-width:0.44603518"
       d="m 122.07824,249.7317 c -0.89602,-0.52189 -1.03407,-2.20857 -0.24532,-2.99732 0.93167,-0.93166 2.8666,-0.63267 3.65079,0.56417 0.88316,1.34785 0.88317,1.35026 0.0194,2.214 -0.79582,0.79583 -2.27258,0.89032 -3.42491,0.21915 z m 31.33397,-2.6668 c 0,-0.2598 0.20071,-0.34832 0.44603,-0.1967 0.24531,0.15155 0.44604,0.36418 0.44604,0.47236 0,0.10823 -0.20073,0.19668 -0.44604,0.19668 -0.24532,0 -0.44603,-0.21256 -0.44603,-0.47234 z m 3.87493,-2.93795 c -0.65615,-0.65615 -0.31108,-2.00838 0.47391,-1.85722 0.42931,0.0828 0.78056,0.5323 0.78056,0.99913 0,0.8874 -0.72752,1.38504 -1.25447,0.85809 z m -6.10511,-2.16514 c 0,-0.36798 0.30108,-0.66905 0.66906,-0.66905 0.36797,0 0.66904,0.30107 0.66904,0.66905 0,0.36797 -0.30107,0.66906 -0.66904,0.66906 -0.36798,0 -0.66906,-0.30109 -0.66906,-0.66906 z m -24.3839,-1.37269 c -0.14852,-0.387 0.0585,-1.03216 0.46004,-1.43369 0.67602,-0.67604 0.78405,-0.67604 1.46007,0 0.91192,0.91192 0.49335,2.13733 -0.73004,2.13733 -0.50602,0 -1.04157,-0.31664 -1.19007,-0.70364 z m -12.41399,-1.52654 c -0.15156,-0.24532 0.0373,-0.44603 0.41971,-0.44603 0.38246,0 0.69538,0.20071 0.69538,0.44603 0,0.24532 -0.18888,0.44603 -0.41972,0.44603 -0.23084,0 -0.54375,-0.20071 -0.69537,-0.44603 z m 10.03578,-1.36442 c 0,-0.2598 0.20073,-0.34832 0.44604,-0.1967 0.24532,0.15155 0.44603,0.36418 0.44603,0.47236 0,0.10823 -0.20071,0.19668 -0.44603,0.19668 -0.24531,0 -0.44604,-0.21256 -0.44604,-0.47234 z m 9.36674,-1.75782 c 0,-0.24532 0.20072,-0.44605 0.44604,-0.44605 0.24532,0 0.44603,0.20073 0.44603,0.44605 0,0.24532 -0.20071,0.44603 -0.44603,0.44603 -0.24532,0 -0.44604,-0.20071 -0.44604,-0.44603 z m 10.70484,-2.87707 c -1.27914,-0.75664 -2.75077,-0.87878 -3.36756,-0.27949 -0.23304,0.22645 -0.95978,0.30644 -1.61495,0.17778 -1.1884,-0.23338 -1.79632,-1.19778 -2.41005,-3.82326 -0.26439,-1.13097 -0.18156,-1.22659 1.06256,-1.22659 0.7421,0 1.45109,-0.2509 1.57551,-0.55755 0.15712,-0.38736 0.3387,-0.41147 0.59472,-0.0791 0.72287,0.93885 1.95149,1.09975 2.24847,0.29447 0.15678,-0.42517 0.4988,-0.91522 0.75996,-1.08899 0.32723,-0.21776 0.30269,-0.48809 -0.0791,-0.86977 -0.79799,-0.79798 -0.68245,-1.26747 0.31192,-1.26747 0.47616,0 0.99478,-0.20876 1.15247,-0.46392 0.18394,-0.29763 -0.10334,-0.366 -0.80163,-0.19075 -0.69943,0.17554 -1.33895,0.0226 -1.78965,-0.42816 -0.38573,-0.38573 -0.80057,-0.70131 -0.92188,-0.70131 -0.12138,0 -0.82272,-0.60215 -1.55868,-1.3381 -0.73595,-0.73596 -1.61191,-1.33811 -1.94654,-1.33811 -1.30522,0 -0.73724,-1.62702 0.75652,-2.16717 1.3514,-0.48868 1.51661,-0.74817 1.8033,-2.83263 0.26533,-1.92922 0.18707,-2.38865 -0.49143,-2.88476 -0.88169,-0.64472 -1.97559,-0.78641 -1.97294,-0.25559 8.9e-4,0.18399 0.41315,1.00949 0.91611,1.83444 1.02057,1.67404 0.94103,2.26958 -0.14262,1.06754 -0.70223,-0.779 -1.73985,-3.27363 -2.69234,-6.47296 -0.40714,-1.36758 -0.37737,-1.79675 0.16217,-2.33622 0.58381,-0.58381 0.8027,-0.52938 1.87703,0.4668 0.66885,0.62022 1.21613,1.59957 1.21613,2.17635 0,1.48433 1.91116,1.90369 3.86949,0.84906 0.81561,-0.43922 1.48294,-1.05403 1.48294,-1.36623 0,-0.68629 0.754,-0.75874 0.97567,-0.0937 0.20085,0.60256 1.88515,-0.0779 3.60733,-1.45739 1.23487,-0.98913 1.24148,-0.98945 2.81849,-0.14009 0.8694,0.46821 1.78611,1.23503 2.03713,1.70407 0.34842,0.65104 0.76324,0.79144 1.75336,0.59341 0.96299,-0.19261 1.29699,-0.09 1.29699,0.3985 0,0.36184 -0.16858,0.6579 -0.37445,0.6579 -0.20593,0 -0.61329,0.52426 -0.90524,1.16501 -0.62444,1.37047 -0.0351,2.40328 1.37147,2.40328 1.15194,0 0.78899,1.07347 -0.42354,1.25267 -1.869,0.27624 -1.5663,2.28969 0.34709,2.30877 0.8757,0.008 2.21484,2.2598 2.21484,3.72308 0,1.176 -1.81416,2.97428 -3.00053,2.97428 -0.35754,0 -1.1604,-0.40142 -1.78415,-0.89206 -0.62373,-0.49064 -1.55861,-0.88321 -2.0775,-0.87239 -1.24724,0.0261 -5.63196,1.24947 -4.61717,1.28831 0.43264,0.0169 1.13515,0.21408 1.56113,0.43895 0.42597,0.22485 1.42683,0.65063 2.22412,0.94617 1.50213,0.55682 1.6554,0.92777 1.46747,3.55138 -0.18439,2.5742 -1.97205,5.1965 -3.58614,5.26043 -0.36798,0.0152 -1.37155,0.14447 -2.23016,0.28862 -1.00221,0.16825 -1.96036,0.026 -2.67621,-0.39749 z m -15.16519,-0.2715 c 0,-0.2598 0.20071,-0.34831 0.44603,-0.1967 0.24532,0.15155 0.44605,0.36418 0.44605,0.47236 0,0.10823 -0.20073,0.1967 -0.44605,0.1967 -0.24532,0 -0.44603,-0.21256 -0.44603,-0.47236 z m -3.12224,-1.08876 c 0,-0.36798 0.37684,-0.66906 0.83746,-0.66906 0.46059,0 1.08732,0.30108 1.3927,0.66906 0.47341,0.57041 0.34996,0.66904 -0.83745,0.66904 -0.94061,0 -1.39271,-0.21718 -1.39271,-0.66904 z m 41.58348,0.13941 c 0.0971,-0.29132 0.41504,-0.60916 0.70652,-0.70633 0.32595,-0.10857 0.42563,0.0952 0.25894,0.52968 -0.31114,0.81075 -1.23307,0.97945 -0.96546,0.17665 z m -48.18852,-1.28793 c 0.0878,-0.26371 0.35051,-0.47948 0.58356,-0.47948 0.23306,0 0.49566,0.21577 0.58355,0.47948 0.088,0.26373 -0.17468,0.47949 -0.58355,0.47949 -0.40886,0 -0.67148,-0.21576 -0.58356,-0.47949 z m 46.9095,-1.9737 c -0.35336,-0.92081 0.12576,-2.00715 0.88516,-2.00715 0.89291,0 1.77696,1.20317 1.47063,2.00146 -0.3344,0.87141 -2.02202,0.87549 -2.35579,0.005 z m -39.85843,-0.66905 c 0,-0.24532 0.21256,-0.44605 0.47236,-0.44605 0.2598,0 0.3483,0.20073 0.1967,0.44605 -0.15155,0.24532 -0.36418,0.44603 -0.47236,0.44603 -0.10823,0 -0.1967,-0.20071 -0.1967,-0.44603 z m 7.74456,-1.41695 c 0.10671,-0.97891 0.4293,-1.53506 0.94995,-1.63767 1.03526,-0.20407 1.74168,0.90163 0.95418,1.4935 -0.32642,0.24532 -0.61315,0.64674 -0.63719,0.89206 -0.0241,0.24532 -0.35528,0.51092 -0.73612,0.59022 -0.53961,0.11244 -0.65677,-0.18296 -0.53082,-1.33811 z m 30.03856,0.24633 c -0.53333,-0.53334 -0.3511,-2.25945 0.29517,-2.7958 0.46948,-0.38964 0.85763,-0.30528 1.67264,0.36347 0.86319,0.70831 0.96953,1.02175 0.5697,1.67935 -0.51701,0.85032 -2.00009,1.2904 -2.53751,0.75298 z m -43.71814,-1.34478 c -0.41626,-0.41626 0.0868,-1.05289 0.83194,-1.05289 0.3535,0 0.64273,0.30107 0.64273,0.66907 0,0.67182 -0.94158,0.91689 -1.47467,0.38382 z m 41.61784,-1.49892 c 0,-0.24531 0.20071,-0.44604 0.44603,-0.44604 0.24531,0 0.44602,0.20073 0.44602,0.44604 0,0.24532 -0.20071,0.44603 -0.44602,0.44603 -0.24532,0 -0.44603,-0.20071 -0.44603,-0.44603 z m 6.02146,-2.23018 c -0.15155,-0.24531 -0.0631,-0.44603 0.1967,-0.44603 0.2598,0 0.47236,0.20072 0.47236,0.44603 0,0.24532 -0.0885,0.44603 -0.1967,0.44603 -0.10822,0 -0.32074,-0.20071 -0.47236,-0.44603 z m -51.29403,-0.89207 c 0.15155,-0.24532 0.36418,-0.44603 0.47236,-0.44603 0.10823,0 0.19668,0.20071 0.19668,0.44603 0,0.24533 -0.21256,0.44604 -0.47236,0.44604 -0.2598,0 -0.3483,-0.20071 -0.19668,-0.44604 z m 59.54568,-1.14141 c 0,-0.38246 0.204,-0.56929 0.45331,-0.41521 0.24933,0.15408 0.33784,0.467 0.1967,0.69537 -0.38236,0.61868 -0.65001,0.50332 -0.65001,-0.28016 z m -11.85245,-0.53804 c -0.26323,-0.18025 -0.60221,-0.6634 -0.7533,-1.07367 -0.15105,-0.41027 -0.73655,-0.81171 -1.30102,-0.89208 -0.60649,-0.0863 -1.0926,-0.511 -1.18841,-1.03816 -0.0892,-0.49064 -0.44969,-1.21693 -0.80118,-1.61399 -0.35149,-0.39707 -0.70648,-1.47326 -0.78888,-2.39156 -0.0824,-0.91831 -0.42061,-1.837 -0.75159,-2.04154 -0.33097,-0.20456 -0.47445,-0.49924 -0.31885,-0.65484 0.1556,-0.1556 0.81242,0.0641 1.4596,0.48809 0.91639,0.60044 1.29497,0.65234 1.71133,0.23458 0.41578,-0.41717 0.28674,-0.74116 -0.58044,-1.45734 l -1.11509,-0.92092 1.19324,0.71042 c 1.57567,0.93809 3.93617,0.23076 3.93617,-1.17948 0,-0.89254 0.0265,-0.89745 0.60139,-0.11126 0.33075,0.45234 0.8154,0.69017 1.07699,0.5285 0.26157,-0.16167 0.57725,-0.0418 0.7015,0.26639 0.12424,0.30816 0.24174,0.0969 0.26111,-0.4696 0.0197,-0.57774 0.23423,-0.90689 0.48853,-0.74972 0.24931,0.15408 0.3464,0.45312 0.21573,0.66454 -0.13065,0.21142 -0.0437,0.50426 0.19336,0.65074 0.23703,0.14649 0.64878,-0.14077 0.91506,-0.63823 0.26625,-0.49752 0.80377,-0.90457 1.19447,-0.90457 0.59034,0 0.65438,0.3203 0.37907,1.89565 -0.77193,4.41714 -0.57219,7.47109 0.48865,7.47109 0.34139,0 0.62069,0.21256 0.62069,0.47236 0,0.2598 -0.20071,0.3483 -0.44603,0.19668 -0.24531,-0.15155 -0.44603,0.0236 -0.44603,0.38934 0,1.16664 -2.4316,2.51046 -4.52921,2.50306 -1.06606,-0.003 -2.15366,-0.15425 -2.41686,-0.33451 z m -33.04731,-0.80376 c -0.35152,-0.91608 0.35404,-1.60072 1.14554,-1.11155 0.67409,0.41662 0.36361,1.81059 -0.40326,1.81059 -0.26071,0 -0.59473,-0.31457 -0.74228,-0.69904 z m -12.27636,-0.94376 c 0.32197,-0.12879 0.70669,-0.11295 0.8549,0.0352 0.14819,0.14819 -0.11531,0.25363 -0.58542,0.23426 -0.51962,-0.0214 -0.6253,-0.12711 -0.26948,-0.26947 z m 57.40679,-2.20457 c -1.19856,-1.19856 -0.69152,-2.96998 0.98705,-3.44848 2.47934,-0.70677 3.8779,1.71868 1.98092,3.43541 -1.03244,0.93436 -2.04225,0.93879 -2.96797,0.0135 z m -42.604,-1.95108 c 0,-0.24532 0.20071,-0.44605 0.44603,-0.44605 0.24532,0 0.44603,0.20073 0.44603,0.44605 0,0.24532 -0.20071,0.44603 -0.44603,0.44603 -0.24532,0 -0.44603,-0.20071 -0.44603,-0.44603 z m -4.79487,-0.2857 c -0.76949,-0.32389 -0.70086,-2.16236 0.1057,-2.83174 0.38744,-0.32156 1.14064,-0.43065 1.81125,-0.26234 0.97772,0.2454 1.12744,0.50087 1.00938,1.72245 -0.11278,1.16711 -0.34637,1.45033 -1.25373,1.52032 -0.6133,0.0474 -1.36597,-0.0196 -1.67262,-0.14869 z m 3.9028,-1.05241 c 0,-0.24532 0.18887,-0.44604 0.41971,-0.44604 0.23084,0 0.54376,0.20072 0.69538,0.44604 0.15155,0.24532 -0.0373,0.44603 -0.41972,0.44603 -0.38246,0 -0.69537,-0.20071 -0.69537,-0.44603 z m -0.59472,-1.63546 c -0.68756,-0.68756 -0.26044,-1.54357 0.70166,-1.4063 1.26277,0.18016 1.66173,1.70366 0.44613,1.70366 -0.46774,0 -0.98423,-0.13386 -1.14779,-0.29736 z m -7.99146,-2.22823 c 0.30665,-0.12374 0.80844,-0.12374 1.11509,0 0.30665,0.12374 0.0558,0.22499 -0.55755,0.22499 -0.61329,0 -0.86419,-0.10132 -0.55754,-0.22499 z m 4.57186,-0.46029 c -0.36798,-0.14228 -1.01934,-0.62314 -1.44746,-1.06863 -0.71804,-0.74715 -0.72143,-0.84185 -0.0435,-1.22121 0.5898,-0.33006 0.49474,-0.41124 -0.48163,-0.41124 -1.38524,0 -1.71773,-0.26092 -2.66072,-2.08803 -0.64054,-1.2411 -0.61842,-1.3597 0.43544,-2.33639 l 1.11022,-1.02891 1.80902,1.142 c 0.99496,0.62808 1.69676,1.25423 1.55955,1.39144 -0.4806,0.48061 0.65104,1.91632 1.51048,1.91632 0.91296,0 1.53838,1.48268 1.2551,2.97546 -0.15881,0.83669 -1.77052,1.22247 -3.04643,0.72919 z m 32.56056,-0.13638 c 0,-0.24532 0.20071,-0.44603 0.44605,-0.44603 0.24531,0 0.44603,0.20071 0.44603,0.44603 0,0.24533 -0.20072,0.44605 -0.44603,0.44605 -0.24534,0 -0.44605,-0.20072 -0.44605,-0.44605 z m -19.77943,-0.81568 c -0.87168,-0.96318 -0.94471,-1.92162 -0.20294,-2.66339 0.77277,-0.77276 1.89132,-0.65833 2.7409,0.28045 0.92159,1.01834 0.93034,1.60464 0.0373,2.49771 -0.91895,0.91897 -1.67,0.88549 -2.57521,-0.1148 z m 22.00961,0.34333 c 0,-0.25979 0.20071,-0.34832 0.44603,-0.19669 0.24532,0.15155 0.44605,0.36418 0.44605,0.47236 0,0.10823 -0.20073,0.19668 -0.44605,0.19668 -0.24532,0 -0.44603,-0.21256 -0.44603,-0.47235 z m -63.33698,-0.86576 c 0,-0.57487 0.22586,-0.89111 0.55752,-0.78056 0.30667,0.10216 0.55755,0.45348 0.55755,0.78056 0,0.3271 -0.25088,0.67835 -0.55755,0.78058 -0.33166,0.11059 -0.55752,-0.20568 -0.55752,-0.78058 z m 75.83068,-2.44751 c -0.78201,-0.94226 -0.22428,-2.01283 1.04865,-2.01283 1.24217,0 1.87831,1.1619 1.12989,2.06369 -0.66154,0.79711 -1.49087,0.77774 -2.17854,-0.0509 z m -36.13357,-0.2287 c 0,-0.24531 0.20073,-0.44603 0.44605,-0.44603 0.24532,0 0.44603,0.20072 0.44603,0.44603 0,0.24532 -0.20071,0.44605 -0.44603,0.44605 -0.24532,0 -0.44605,-0.20073 -0.44605,-0.44605 z m 17.70485,-0.28522 c -0.41626,-0.41626 0.0868,-1.05288 0.83195,-1.05288 0.35349,0 0.64272,0.30108 0.64272,0.66906 0,0.67182 -0.94158,0.91691 -1.47467,0.38382 z m 32.32152,-1.49891 c 0,-0.6133 0.10131,-0.86419 0.22498,-0.55755 0.12374,0.30665 0.12374,0.80845 0,1.11509 -0.12374,0.30665 -0.22498,0.0558 -0.22498,-0.55754 z m -19.24994,-0.66905 c 0,-0.36799 0.30108,-0.66906 0.66906,-0.66906 0.36798,0 0.66904,0.30107 0.66904,0.66906 0,0.36798 -0.30106,0.66905 -0.66904,0.66905 -0.36798,0 -0.66906,-0.30107 -0.66906,-0.66905 z m -52.04594,-0.0735 c 0.17129,-0.28569 0.0733,-0.59881 -0.21764,-0.69579 -0.29375,-0.0979 -0.40169,-0.50829 -0.24267,-0.92266 0.17081,-0.44512 0.56319,-0.64007 0.97231,-0.48307 0.90242,0.34628 0.87162,1.24603 -0.0688,2.0088 -0.41506,0.33669 -0.61452,0.37842 -0.44324,0.0927 z m 36.3232,-0.18533 c -1.6143,-0.94024 -0.16672,-3.50556 1.48059,-2.6239 1.03862,0.55584 1.14289,2.45606 0.1556,2.83492 -0.8434,0.32365 -0.68256,0.3444 -1.63615,-0.21102 z m 9.93111,-1.6369 c -0.003,-0.55198 0.19389,-1.00359 0.43921,-1.00359 0.55884,0 0.55884,0.47335 0,1.3381 -0.34964,0.54103 -0.43368,0.47702 -0.43921,-0.33451 z m -36.23481,-0.97478 c 1.07104,-1.8662 0.72651,-2.05966 -3.0231,-1.69761 -0.99754,0.0963 -1.11509,-0.0568 -1.11509,-1.45344 0,-1.22995 -0.17023,-1.54722 -0.80243,-1.49553 -0.44134,0.0361 -0.72267,-0.1647 -0.62518,-0.44603 0.22556,-0.65112 -1.85846,-2.06748 -2.61493,-1.77719 -0.38837,0.14903 -0.52964,-0.14683 -0.44375,-0.92935 0.0693,-0.63138 -0.1411,-1.49977 -0.46737,-1.92973 -0.32639,-0.42997 -0.59979,-1.22152 -0.6076,-1.759 -0.0196,-1.34898 -0.74855,-1.68117 -1.06167,-0.4838 -0.15408,0.58916 0.0283,1.29728 0.45605,1.76983 0.77312,0.85428 0.67174,0.94106 -1.63874,1.40287 -1.67043,0.33387 -4.78274,1.59054 -4.01432,1.62087 0.59472,0.0234 0.59472,0.0745 0,0.45877 -1.03931,0.67166 -1.65886,0.52723 -1.91338,-0.44603 -0.39325,-1.5038 -1.9969,-1.11239 -2.74123,0.66906 -0.72608,1.73773 -1.91066,2.2217 -1.36466,0.55753 0.18109,-0.55196 0.42406,-1.83946 0.53995,-2.86111 0.17601,-1.55202 0.057,-1.93975 -0.72328,-2.35737 -0.51368,-0.27492 -0.93395,-0.85484 -0.93395,-1.28873 0,-0.94994 2.66925,-3.64009 3.61181,-3.64009 0.71706,0 1.74061,-0.83931 1.74061,-1.4273 0,-0.19626 -0.49042,-0.35683 -1.0898,-0.35683 -1.31319,0 -2.47849,-1.50925 -2.47849,-3.21004 0,-0.91266 -0.34313,-1.40485 -1.3381,-1.91937 -0.73596,-0.38057 -1.33811,-0.89661 -1.33811,-1.14675 0,-0.27205 -0.5858,-0.3449 -1.45795,-0.18127 -1.10364,0.20703 -1.71641,0.0494 -2.52145,-0.64885 -0.58491,-0.50729 -1.584742,-0.9382 -2.221842,-0.95757 -0.63708,-0.0194 -0.90745,-0.13638 -0.6008,-0.26019 0.30665,-0.12374 0.55754,-0.60967 0.55754,-1.07987 0,-0.47019 0.2509,-0.85548 0.55755,-0.85619 0.30665,-8.9e-4 0.958992,-0.60227 1.449622,-1.33682 0.49064,-0.73454 1.22691,-1.33612 1.63614,-1.33681 0.40926,-8.9e-4 1.04543,-0.11699 1.41373,-0.25826 0.4698,-0.18027 0.93454,0.3189 1.55728,1.67263 1.1834,2.57257 4.26995,5.70712 5.34333,5.42641 1.66244,-0.43473 2.31161,1.78343 1.78316,6.09295 -0.10756,0.87699 0.0845,1.14641 0.89895,1.26182 0.56964,0.0808 1.75175,0.63268 2.62695,1.22661 0.87519,0.5939 1.87062,1.07985 2.21206,1.07985 0.97111,0 1.22261,-1.28783 0.4239,-2.1704 -0.9422,-1.0411 -0.91302,-1.39788 0.1143,-1.39788 1.04863,0 2.08452,-1.13357 1.41437,-1.54774 -0.87466,-0.54057 -0.4715,-0.91409 0.98193,-0.90977 0.96667,0.003 1.46961,-0.21859 1.50967,-0.66473 0.033,-0.36798 0.0833,-0.79847 0.11143,-0.95661 0.0283,-0.15813 0.79726,-0.11936 1.70883,0.0863 1.07205,0.24178 1.86261,0.20344 2.23854,-0.10856 0.42771,-0.35497 0.79749,-0.28657 1.40036,0.25904 0.48489,0.43881 1.13509,0.62014 1.59327,0.44432 0.52061,-0.19978 1.13181,0.0888 1.86669,0.88131 0.60095,0.6481 1.54846,1.17836 2.10557,1.17836 1.01842,0 2.67226,-1.23241 3.10883,-2.31667 0.1847,-0.4587 0.33516,-0.44033 0.70774,0.0865 0.39117,0.55313 0.47433,0.55957 0.47998,0.0371 0.003,-0.34753 0.11059,-0.52811 0.23741,-0.40129 0.12677,0.12678 -0.0118,1.27911 -0.30727,2.56064 -0.33052,1.43195 -0.37642,2.44625 -0.11902,2.63148 0.23033,0.16572 0.48314,0.70285 0.5618,1.19348 0.0787,0.49064 0.25438,1.46038 0.39048,2.15496 0.13604,0.69459 0.0371,1.69816 -0.21983,2.23017 -0.257,0.53202 -0.58568,1.51371 -0.73041,2.18154 -0.14464,0.66785 -0.71228,1.63274 -1.2613,2.14421 -0.549,0.51147 -0.99816,1.10098 -0.99816,1.31005 0,0.442 -2.19711,2.24504 -2.7357,2.24504 -0.4346,0 -3.73031,3.64428 -3.73121,4.12583 -3.3e-4,0.18399 -0.19199,0.33453 -0.4259,0.33453 -0.2339,0 -0.0872,-0.58921 0.32615,-1.30931 z m -2.57707,-3.4004 c 0,-0.3535 -0.20071,-0.64273 -0.44603,-0.64273 -0.24532,0 -0.44605,0.41329 -0.44605,0.91841 0,0.50512 0.20073,0.79433 0.44605,0.64273 0.24532,-0.15156 0.44603,-0.5649 0.44603,-0.91841 z m 10.83408,-15.36189 c 0.1719,-0.65734 0.0135,-0.89206 -0.60133,-0.89206 -0.45904,0 -1.04946,0.40143 -1.31204,0.89206 -0.41626,0.77778 -0.33922,0.89208 0.60132,0.89208 0.70366,0 1.15989,-0.31021 1.31205,-0.89208 z m 0.76284,19.40254 c -0.44379,-0.53472 -0.4402,-0.8077 0.0179,-1.35963 0.91016,-1.09669 2.41177,-0.62921 2.57646,0.80208 0.11986,1.04201 -0.0229,1.22659 -0.94897,1.22659 -0.59956,0 -1.33996,-0.30106 -1.64536,-0.66904 z m 14.0501,0.22301 c -0.15156,-0.24531 -0.0631,-0.44603 0.1967,-0.44603 0.2598,0 0.47236,0.20072 0.47236,0.44603 0,0.24532 -0.0885,0.44603 -0.1967,0.44603 -0.10823,0 -0.32074,-0.20071 -0.47236,-0.44603 z m 22.52477,-0.66904 c 0,-0.36799 0.20072,-0.66906 0.44603,-0.66906 0.24532,0 0.44605,0.30107 0.44605,0.66906 0,0.36798 -0.20073,0.66904 -0.44605,0.66904 -0.24531,0 -0.44603,-0.30106 -0.44603,-0.66904 z m 7.13656,0.22301 c 0,-0.24531 0.20073,-0.44604 0.44605,-0.44604 0.24532,0 0.44603,0.20073 0.44603,0.44604 0,0.24532 -0.20071,0.44603 -0.44603,0.44603 -0.24532,0 -0.44605,-0.20071 -0.44605,-0.44603 z m -2.46704,-1.36051 c -0.42382,-0.68576 0.15678,-1.12824 0.7292,-0.55575 0.32033,0.32033 0.32804,0.56981 0.0234,0.7581 -0.24975,0.15442 -0.58841,0.0634 -0.75259,-0.20235 z m -60.86994,-1.98476 c 0,-0.89206 0.22301,-1.11509 1.11509,-1.11509 0.89206,0 1.11509,0.22303 1.11509,1.11509 0,0.89208 -0.22303,1.11509 -1.11509,1.11509 -0.89208,0 -1.11509,-0.22301 -1.11509,-1.11509 z m 25.02261,-0.72419 c -1.85133,-2.23198 -2.64064,-5.49187 -1.60643,-6.63465 0.80606,-0.8907 0.86852,-2.29973 0.13452,-3.03377 -0.41629,-0.4163 -0.39734,-0.53525 0.0853,-0.53525 0.41859,0 0.33875,-0.2131 -0.24531,-0.65486 -0.47619,-0.36017 -1.06653,-0.65817 -1.31184,-0.66222 -0.24532,-0.003 -0.15072,0.17937 0.2101,0.40759 0.36088,0.22823 0.51445,0.55664 0.34129,0.7298 -0.17318,0.17317 -0.77663,-0.16723 -1.34101,-0.7563 -1.15919,-1.21002 -1.55965,-3.6898 -0.75286,-4.66191 0.29513,-0.35562 0.3615,-0.6593 0.14751,-0.67486 -0.88419,-0.0642 2.12758,-1.17442 3.40215,-1.25407 0.56653,-0.0354 0.89207,-0.37171 0.89207,-0.92151 0,-0.47616 0.2182,-1.00059 0.48489,-1.16543 0.2667,-0.16487 0.39539,-0.64199 0.28596,-1.06039 -0.46379,-1.77356 4.55334,-2.3528 6.19133,-0.71481 0.38973,0.38972 0.80755,1.45576 0.92849,2.36899 0.17517,1.32256 -0.005,1.92191 -0.88923,2.94565 -0.61004,0.70689 -1.58188,1.33359 -2.15964,1.39269 -0.57778,0.0592 -1.25121,0.13301 -1.49654,0.16437 -0.24532,0.0314 -0.44603,0.55871 -0.44603,1.17202 0,0.81277 0.24185,1.1191 0.89208,1.12992 0.96126,0.0152 2.89922,1.42385 2.89922,2.10619 0,0.22931 0.36403,0.74636 0.80895,1.14901 0.61754,0.55886 0.9324,0.60865 1.33067,0.21038 0.77758,-0.77756 1.25547,-0.005 0.62324,1.00694 -0.44402,0.71101 -0.41867,1.12984 0.13301,2.19667 0.37491,0.72498 1.08099,1.53189 1.5691,1.7931 0.89438,0.47867 1.09769,1.62115 0.6113,3.43525 -0.34576,1.28955 -2.31658,1.8926 -5.96834,1.82624 -1.59457,-0.029 -3.2003,0.0769 -3.56827,0.23541 -0.4456,0.19186 -1.17558,-0.32258 -2.18553,-1.54019 z m 1.46557,-9.95248 c -0.1352,-0.35249 -0.54723,-0.52528 -0.91548,-0.38396 -0.54466,0.20901 -0.55857,0.32725 -0.0745,0.63405 0.88936,0.56376 1.26589,0.46865 0.99007,-0.25009 z m -33.62474,9.78461 c 0,-1.24575 0.65067,-1.49542 1.06737,-0.40956 0.42829,1.11612 0.32156,1.52464 -0.39833,1.52464 -0.41629,0 -0.66904,-0.42125 -0.66904,-1.11508 z m 25.424,-0.7434 c 0,-0.20442 0.30107,-0.37169 0.66905,-0.37169 0.36797,0 0.66906,0.16723 0.66906,0.37169 0,0.20443 -0.30109,0.3717 -0.66906,0.3717 -0.36798,0 -0.66905,-0.16723 -0.66905,-0.3717 z m 23.63985,-0.37169 c 0,-0.24532 0.21257,-0.44604 0.47237,-0.44604 0.25979,0 0.3483,0.20072 0.1967,0.44604 -0.15156,0.24532 -0.36419,0.44603 -0.47237,0.44603 -0.10823,0 -0.1967,-0.20071 -0.1967,-0.44603 z M 92.305388,183.08746 c -1.10087,-0.39508 -1.6033,-0.87252 -1.70418,-1.61942 -0.0787,-0.58254 -0.47914,-1.31799 -0.8899,-1.63433 -0.61527,-0.47383 -0.63894,-0.64184 -0.13436,-0.95369 0.33687,-0.20822 0.48957,-0.57749 0.33932,-0.8206 -0.35646,-0.57676 1.853,-2.78068 2.78442,-2.77746 1.48185,0.005 3.95756,0.92363 4.69963,1.74361 0.7089,0.78332 0.71372,0.95462 0.0624,2.2142 -0.38829,0.75085 -0.65377,1.53964 -0.58998,1.75288 0.10705,0.35806 -2.49009,2.82822 -2.8476,2.70827 -0.0872,-0.0293 -0.86114,-0.30533 -1.71976,-0.61346 z m 73.149772,-1.5635 c 0,-0.24532 -0.38959,-0.44603 -0.86575,-0.44603 -1.22746,0 -1.5977,-0.84994 -0.74268,-1.70498 0.67237,-0.67237 0.81109,-0.63693 1.83692,0.46937 1.26015,1.35905 1.41933,2.12767 0.44055,2.12767 -0.36798,0 -0.66904,-0.20071 -0.66904,-0.44603 z m -9.24675,-1.64719 c 0.43398,-0.11312 1.03613,-0.1057 1.33811,0.0169 0.30198,0.12222 -0.0531,0.21472 -0.78906,0.20562 -0.73595,-0.008 -0.98302,-0.10907 -0.54905,-0.22214 z m -38.47902,-3.46822 c 0,-0.39901 0.26152,-0.5547 0.66906,-0.39831 0.36798,0.14127 0.66905,0.43599 0.66905,0.65506 0,0.21907 -0.30107,0.39832 -0.66905,0.39832 -0.36798,0 -0.66906,-0.29478 -0.66906,-0.65507 z m 9.91626,-2.91322 c 0,-0.85861 0.0919,-1.20987 0.20398,-0.78056 0.11228,0.42931 0.11228,1.13181 0,1.56112 -0.11227,0.42931 -0.20398,0.0781 -0.20398,-0.78056 z m 24.42845,0.44603 c 0,-0.24532 0.30109,-0.44603 0.66906,-0.44603 0.36798,0 0.66905,0.20071 0.66905,0.44603 0,0.24532 -0.30107,0.44605 -0.66905,0.44605 -0.36797,0 -0.66906,-0.20073 -0.66906,-0.44605 z m 17.01624,-0.42373 c 0.0981,-0.29439 0.32394,-0.52018 0.50179,-0.50179 0.53332,0.0551 0.43005,0.66695 -0.14498,0.85863 -0.29437,0.0981 -0.45495,-0.0624 -0.35683,-0.35684 z m -48.53081,-0.7106 c -0.14531,-0.37854 -0.14767,-0.80478 -0.005,-0.94716 0.45006,-0.45006 1.63547,0.24024 1.63547,0.95241 0,0.8903 -1.28817,0.88617 -1.63024,-0.005 z M 57.334518,171.5747 c -1.1176,-0.81723 -0.74971,-2.58702 0.70719,-3.40209 1.09203,-0.61093 1.27639,-0.59652 2.11867,0.16572 1.13952,1.03124 1.17701,2.11222 0.10688,3.0807 -0.98279,0.88939 -1.86521,0.93623 -2.93272,0.1556 z m 72.283942,-0.6792 c -0.40601,-0.44862 -0.73818,-1.18611 -0.73818,-1.63887 0,-0.74038 0.11211,-0.71783 1.11509,0.22438 1.08999,1.02401 1.48922,2.23019 0.73818,2.23019 -0.2073,0 -0.7091,-0.36707 -1.11509,-0.8157 z m -44.226612,-2.75259 c 0.15155,-0.24532 0.36418,-0.44603 0.47236,-0.44603 0.10823,0 0.1967,0.20071 0.1967,0.44603 0,0.24532 -0.21257,0.44603 -0.47237,0.44603 -0.25979,0 -0.34832,-0.20071 -0.19669,-0.44603 z m 36.579372,-0.45331 c 0.15408,-0.24932 0.46702,-0.33784 0.69538,-0.19669 0.61867,0.38234 0.50331,0.65 -0.28016,0.65 -0.38246,0 -0.5693,-0.20398 -0.41522,-0.45331 z m -65.149642,-0.92365 c -0.45965,-0.74373 0.57413,-1.59659 1.18945,-0.98129 0.51469,0.51469 0.19255,1.46617 -0.49638,1.46617 -0.21636,0 -0.52825,-0.21819 -0.69307,-0.48488 z m 4.57918,0.20801 c -0.68016,-0.68016 -0.30324,-2.34384 0.59564,-2.62915 1.17162,-0.37185 2.2901,0.55296 2.11879,1.75191 -0.13386,0.93712 -2.0389,1.55277 -2.71443,0.87724 z M 106.24673,166.816 c -1.62143,-0.38494 -2.89062,-1.27246 -2.56744,-1.79538 0.11733,-0.18974 -0.0856,-0.593 -0.45095,-0.89616 -0.36528,-0.30314 -0.66414,-0.99627 -0.66414,-1.54026 0,-0.75637 0.39353,-1.10716 1.67264,-1.49089 3.32936,-0.99886 3.46653,-1.00172 4.12652,-0.086 0.35324,0.49011 0.87625,0.8911 1.16223,0.8911 0.82715,0 0.99273,2.58121 0.23663,3.68892 -0.69699,1.02109 -1.45142,1.67965 -1.8456,1.61102 -0.12272,-0.0214 -0.8741,-0.19339 -1.66989,-0.38231 z m -5.02063,-0.45728 c 0,-0.24531 0.20071,-0.44604 0.44603,-0.44604 0.24531,0 0.44604,0.20073 0.44604,0.44604 0,0.24532 -0.20073,0.44603 -0.44604,0.44603 -0.24532,0 -0.44603,-0.20071 -0.44603,-0.44603 z m 15.16519,-0.24934 c 0,-0.38246 0.20072,-0.57134 0.44604,-0.41972 0.24532,0.15156 0.44603,0.46454 0.44603,0.69538 0,0.23085 -0.20071,0.41971 -0.44603,0.41971 -0.24532,0 -0.44604,-0.31292 -0.44604,-0.69537 z M 54.884948,163.7207 c -0.95088,-0.60211 -0.23337,-1.91086 0.95507,-1.74211 1.28312,0.1822 1.72378,2.15359 0.47906,2.14312 -0.44637,-0.003 -1.09173,-0.18422 -1.43413,-0.40101 z m 3.74479,-1.46168 c -1.78694,-1.01644 -1.76969,-2.05385 0.0637,-3.83549 1.81104,-1.75985 1.41412,-2.37632 -1.84789,-2.8699 -1.43192,-0.21668 -0.83061,-1.00224 0.88275,-1.15328 1.19079,-0.10502 1.57044,-0.34122 1.57044,-0.97726 0,-1.28758 -0.74354,-1.45963 -1.73035,-0.40039 -1.69911,1.82377 -6.88327,2.42659 -9.9016,1.15137 -2.04127,-0.86241 -2.08793,-0.9248 -1.64409,-2.198 0.3305,-0.94806 0.29904,-1.7884 -0.11379,-3.03916 -0.7233,-2.19158 -0.0711,-3.24354 1.7324,-2.79449 1.05703,0.26317 1.11382,0.21777 0.56339,-0.45035 -0.55721,-0.67632 -0.39323,-0.937 0.50065,-0.79586 0.45914,0.0725 0.41997,-0.46102 -0.15493,-2.11026 -0.26922,-0.77228 -0.67064,-1.29216 -0.89207,-1.15533 -0.22141,0.13689 -0.40259,0.0244 -0.40259,-0.24987 0,-0.81073 -0.89074,-0.0177 -0.90625,0.8069 -0.008,0.41482 -0.29953,1.13108 -0.64831,1.59166 -0.58846,0.77717 -0.67097,0.69113 -1.14597,-1.1953 -0.36195,-1.43745 -0.69459,-1.96263 -1.13583,-1.79329 -0.36788,0.1411 -0.62398,-0.042 -0.62398,-0.44631 0,-0.37717 -0.45161,-0.7499 -1.00358,-0.82829 -0.65827,-0.0936 -1.0544,-0.50146 -1.1513,-1.18569 -0.14161,-1.00034 -0.25612,-1.0306 -2.78773,-0.73678 -2.98988,0.34702 -3.7603,-0.40552 -0.81901,-0.80003 2.23925,-0.30036 2.49423,-0.52811 1.59634,-1.42601 -0.76118,-0.76117 -0.54175,-2.01549 0.35257,-2.01549 0.72851,0 2.02857,-1.4597 2.02857,-2.27769 0,-0.92726 1.64679,-2.20737 2.44543,-1.90091 0.37224,0.14279 0.67681,0.0374 0.67681,-0.23404 0,-0.27156 0.28711,-0.49375 0.63803,-0.49375 0.35091,0 0.70282,-0.45161 0.78201,-1.00358 0.10384,-0.72371 0.41081,-0.97618 1.10088,-0.90534 0.72722,0.0747 0.90591,-0.0968 0.74448,-0.71407 -0.28864,-1.10381 0.8986,-2.18738 2.7843,-2.54113 1.2831,-0.24071 1.71684,-0.11261 2.43885,0.71977 1.23091,1.41926 1.12937,3.28994 -0.2369,4.36466 -1.12291,0.88329 -1.51987,2.30987 -0.64273,2.30987 0.2598,0 0.35633,0.18775 0.2145,0.41724 -0.14177,0.22947 0.24776,0.92285 0.86575,1.54085 1.39066,1.39065 1.4309,2.75894 0.12002,4.08173 -1.911,1.92841 -2.09491,2.27654 -1.52713,2.8911 0.4109,0.44475 0.37959,0.48619 -0.14548,0.19262 -0.53538,-0.29934 -0.56795,-0.24558 -0.16302,0.26909 0.27832,0.35373 0.64553,1.29549 0.81599,2.09277 0.29758,1.3917 0.39573,1.44962 2.45635,1.44962 1.91748,0 2.17624,0.11885 2.42626,1.11508 0.15391,0.61331 0.47676,1.11509 0.71741,1.11509 0.24063,0 0.43753,0.38792 0.43753,0.86202 0,0.47411 0.40143,0.98941 0.89208,1.14515 1.05297,0.33419 1.08456,0.60006 0.20882,1.75788 -0.82289,1.08795 -0.92215,2.47911 -0.11969,1.67658 0.29439,-0.29437 0.97513,-0.53524 1.51277,-0.53524 0.67071,0 1.06537,-0.34999 1.2574,-1.11509 0.289,-1.15149 1.2964,-1.43524 2.46667,-0.69479 0.41498,0.26257 1.07878,0.18113 1.8735,-0.22984 1.57757,-0.81581 1.44045,-0.8427 3.00831,0.5901 1.53693,1.40458 2.72716,3.95063 2.72716,5.8338 0,1.13689 0.13301,1.26513 1.11765,1.07693 1.44484,-0.27621 2.45064,0.58032 2.45064,2.0869 0,2.56806 -2.60032,3.14456 -3.97653,0.88159 -0.80345,-1.3212 -0.85483,-1.34003 -1.14669,-0.42049 -0.29915,0.9426 -2.16786,2.02859 -3.2063,1.86337 -0.28815,-0.0459 -0.65126,0.12272 -0.80689,0.3745 -0.36393,0.58885 -2.01447,0.59852 -2.01447,0.0118 0,-0.86735 -2.16106,-0.47442 -2.45319,0.44603 -0.15577,0.49063 -0.45391,0.89207 -0.66264,0.89207 -0.20872,0 -0.64681,0.0949 -0.97352,0.21101 -0.32671,0.11599 -0.99545,-0.0174 -1.4861,-0.29639 z m -10.47775,-33.58535 c -0.30316,-0.36528 -0.73245,-0.55214 -0.95396,-0.41522 -0.56935,0.35188 -0.025,1.07935 0.8078,1.07935 0.567,0 0.59431,-0.12407 0.14616,-0.66413 z m 34.59232,30.41775 c 0.16757,-0.4399 0.4169,-0.68744 0.55424,-0.55012 0.13739,0.1374 2.9e-4,0.49723 -0.30456,0.7998 -0.4405,0.43723 -0.49173,0.386 -0.24968,-0.24968 z m 1.22492,-0.18827 c 0.15037,-0.6886 -0.032,-1.06675 -0.6021,-1.24768 -0.44989,-0.14279 -0.8809,-0.70175 -0.95775,-1.24212 -0.0942,-0.66189 -0.83112,-1.32541 -2.25844,-2.03339 -2.07982,-1.03163 -2.11868,-1.0895 -2.11868,-3.15601 0,-2.59917 1.47249,-4.33162 3.29325,-3.87463 0.61184,0.15358 1.23694,0.0777 1.38911,-0.16841 0.40682,-0.65826 1.56213,-0.54521 1.56213,0.1529 0,0.48637 1.14365,3.21096 1.58634,3.77923 0.061,0.0784 0.51562,-0.11025 1.01022,-0.41921 0.72704,-0.45404 1.03438,-0.44948 1.60456,0.0238 1.19633,0.99287 0.8529,2.83422 -0.83346,4.46869 -0.84629,0.82028 -1.59896,1.9134 -1.67261,2.42919 -0.0737,0.51579 -0.39214,0.93779 -0.70774,0.93779 -0.3156,0 -0.7846,0.30107 -1.04226,0.66905 -0.37457,0.53495 -0.4252,0.47103 -0.25257,-0.31901 z m 7.89013,0.2958 c 0,-0.23255 -0.28969,-0.42283 -0.64376,-0.42283 -0.35407,0 -0.90605,-0.35125 -1.22661,-0.78056 -0.32055,-0.4293 -0.98425,-0.78056 -1.4749,-0.78056 -0.5947,0 -0.89206,-0.29736 -0.89206,-0.89207 0,-0.58966 0.275,-0.86934 0.81122,-0.825 0.50352,0.0416 0.72567,-0.15594 0.5857,-0.52064 -0.12408,-0.32324 0.0629,-0.69836 0.41538,-0.83363 0.35249,-0.1352 0.64089,-0.5222 0.64089,-0.85985 0,-0.79548 1.28492,-1.8972 2.58085,-2.21286 0.74618,-0.18177 1.4541,0.14953 2.63904,1.2351 2.08023,1.90573 2.18564,3.6587 0.31838,5.29441 -1.46925,1.28702 -3.75413,2.25993 -3.75413,1.59849 z m 11.596922,-0.64584 c 0,-0.36798 0.30106,-0.66907 0.66904,-0.66907 0.36798,0 0.66906,0.30109 0.66906,0.66907 0,0.36797 -0.30108,0.66904 -0.66906,0.66904 -0.36798,0 -0.66904,-0.30107 -0.66904,-0.66904 z m -3.26164,-4.97143 c -0.631372,-0.63139 -0.274102,-1.49608 0.61813,-1.49608 0.62353,0 0.8778,0.24221 0.78056,0.74359 -0.15914,0.82093 -0.92062,1.23055 -1.39869,0.75249 z m -5.942672,-5.2844 c -0.15442,-0.4026 -0.0669,-0.94587 0.19439,-1.20727 0.67958,-0.6796 1.96719,-0.0585 1.78968,0.8633 -0.19773,1.0267 -1.62699,1.2745 -1.98407,0.34397 z m -1.74757,-1.15693 c -0.45965,-0.74373 0.57413,-1.59659 1.18945,-0.98128 0.51467,0.51468 0.19255,1.46618 -0.49639,1.46618 -0.21637,0 -0.52824,-0.21821 -0.69306,-0.4849 z m -65.46882,-3.38074 c -0.56503,-0.56504 -0.2948,-1.83837 0.45089,-2.1245 0.94747,-0.3636 2.13784,0.78551 1.77993,1.71822 -0.27109,0.70645 -1.67496,0.96213 -2.23082,0.40628 z m -6.7218,-0.97106 c -0.15436,-0.24975 -0.0633,-0.58841 0.20235,-0.75259 0.68577,-0.42383 1.12823,0.15678 0.55575,0.72919 -0.32033,0.32034 -0.56982,0.32804 -0.7581,0.0234 z m -12.3090371,-2.7459 c 0,-0.24532 0.301074,-0.44603 0.669052,-0.44603 0.367979,0 0.669053,0.20071 0.669053,0.44603 0,0.24532 -0.301074,0.44603 -0.669053,0.44603 -0.367978,0 -0.669052,-0.20071 -0.669052,-0.44603 z m 44.8016971,-0.59538 c 0.13604,-0.28584 0.37118,-0.87097 0.52261,-1.30027 0.16083,-0.45606 0.7296,-0.78056 1.36801,-0.78056 0.9289,0 1.07155,0.18387 0.95156,1.22659 -0.12003,1.04396 -0.36063,1.23756 -1.61531,1.30027 -0.98506,0.0492 -1.39212,-0.0988 -1.22687,-0.44603 z m 85.886612,-2.9402 c 0,-0.63832 0.28645,-0.92477 0.92478,-0.92477 1.14302,0 1.01335,1.47629 -0.14936,1.70022 -0.53525,0.103 -0.77546,-0.13706 -0.77546,-0.77545 z m 19.92291,-0.33007 c -0.16352,-0.16352 -0.29025,-0.91621 -0.28156,-1.67262 l 0.0152,-1.37527 0.63743,1.11509 c 0.95729,1.67459 0.70128,3.0058 -0.37168,1.9328 z M 30.603868,134.39287 c -0.61401,-0.61399 -0.26489,-1.48678 0.5947,-1.48678 0.59471,0 0.89207,0.29736 0.89207,0.89206 0,0.85961 -0.87279,1.20872 -1.48677,0.59472 z m 23.34249,-1.93283 c 0,-0.24531 0.20073,-0.44602 0.44605,-0.44602 0.24531,0 0.44603,0.20071 0.44603,0.44602 0,0.24532 -0.20072,0.44605 -0.44603,0.44605 -0.24532,0 -0.44605,-0.20073 -0.44605,-0.44605 z m 1.22661,-3.604 c -1.07249,-0.62466 -0.99496,-2.49435 0.12829,-3.09554 2.15064,-1.15098 4.08412,1.26005 2.22057,2.76906 -1.14362,0.92603 -1.28566,0.94579 -2.34893,0.32648 z m 102.431962,-1.4808 c -1.22428,-1.22428 -1.51651,-1.86384 -1.51651,-3.31894 0,-0.99131 0.20071,-1.92646 0.44603,-2.07808 0.24532,-0.15156 0.44604,-0.66526 0.44604,-1.14141 0,-0.47615 0.28674,-0.86574 0.63719,-0.86574 0.35046,0 0.97082,-0.33362 1.37858,-0.7414 0.40776,-0.40776 0.87372,-0.55829 1.03543,-0.33452 0.16167,0.22378 0.89621,0.39495 1.63216,0.3804 1.90473,-0.0376 3.90722,1.51106 3.58968,2.77623 -0.13621,0.54278 -0.0651,1.09972 0.15813,1.23765 0.40731,0.25174 0.13537,2.06253 -0.37248,2.48009 -0.14919,0.12272 -0.5227,0.79467 -0.83005,1.49337 -0.35845,0.81483 -0.7899,1.18166 -1.20324,1.02304 -0.35441,-0.13604 -0.76303,-0.0553 -0.90803,0.17929 -0.6144,0.99413 -2.98356,0.41937 -4.49291,-1.08998 z M 0.67702094,124.62272 c -0.834764,-0.83478 -0.90648,-2.03736 -0.165664,-2.77817 1.43331896,-1.43332 4.45225696,0.32256 3.52701496,2.05138 -0.797145,1.48949 -2.278375,1.80975 -3.36134496,0.72679 z m 59.06780706,0.29031 c 0,-0.22583 -0.58174,-0.53836 -1.29276,-0.69453 -1.84477,-0.40519 -2.63693,-3.51344 -1.11651,-4.38097 0.34382,-0.19619 0.62512,-0.74816 0.62512,-1.2266 0,-0.4986 0.30339,-0.86991 0.71081,-0.86991 0.39094,0 0.81578,-0.40142 0.94409,-0.89206 0.26882,-1.02795 1.46735,-1.21851 1.46735,-0.2333 0,0.36232 0.55197,1.01 1.22659,1.43931 1.64924,1.04948 1.94538,1.51897 1.67785,2.65987 -0.12475,0.53167 0.005,1.0441 0.28945,1.13873 0.85553,0.28517 -1.04321,2.13195 -2.19193,2.13195 -0.56648,0 -1.14549,0.30106 -1.28669,0.66904 -0.28013,0.72997 -1.05337,0.91969 -1.05337,0.25847 z m -8.20913,-3.24984 c -0.83775,-0.46882 -0.94018,-2.17706 -0.17634,-2.94088 1.42051,-1.42053 3.88208,0.16858 3.26634,2.10857 -0.30127,0.94919 -2.0429,1.41831 -3.09,0.83231 z m 12.66947,-2.76991 c 0,-0.38842 0.31781,-0.70621 0.70622,-0.70621 0.78767,0 0.6505,0.9602 -0.17655,1.23587 -0.29131,0.0971 -0.52967,-0.14127 -0.52967,-0.52966 z m 108.607102,-1.15499 c -0.44539,-0.49214 -0.6944,-1.0102 -0.55337,-1.15122 0.3788,-0.37882 1.97128,0.577 2.27351,1.36457 0.3792,0.9882 -0.76072,0.84682 -1.72014,-0.21335 z m -35.81416,-0.0865 c -1.42166,-1.42167 0.34029,-3.55071 2.14097,-2.58702 1.00624,0.53853 1.09683,1.01416 0.43035,2.2595 -0.52037,0.97234 -1.76762,1.13121 -2.57132,0.32752 z m 26.66163,-1.71077 c -1.17632,-1.65199 -0.91991,-2.97092 0.41545,-2.13697 0.83761,0.52308 1.826,2.1826 1.826,3.06585 0,0.90817 -1.32408,0.35944 -2.24145,-0.92888 z M 35.658928,114.35858 c 0,-0.78768 0.9602,-0.6505 1.23588,0.17655 0.0971,0.29131 -0.14127,0.52966 -0.52966,0.52966 -0.38843,0 -0.70622,-0.31779 -0.70622,-0.70621 z m 115.815252,-0.10941 c -0.97853,-1.08126 -0.93087,-1.9413 0.18626,-3.36151 1.13916,-1.4482 2.19107,-1.49166 3.45815,-0.14295 1.14987,1.22397 1.21326,1.98992 0.27548,3.32876 -0.85728,1.22395 -2.88881,1.31498 -3.91989,0.17565 z m -33.74479,-1.00944 c 0,-0.21621 -0.66791,-0.67217 -1.48426,-1.01326 -1.77178,-0.74028 -2.97609,-2.98113 -2.97609,-5.53757 0,-1.0266 -0.27972,-2.00578 -0.66413,-2.32482 -0.36528,-0.30316 -0.54813,-0.7389 -0.40633,-0.96834 0.15391,-0.24889 0.49911,-0.2169 0.85605,0.0794 0.45963,0.38146 0.71675,0.27507 1.10973,-0.45923 0.28131,-0.52565 0.40198,-1.24111 0.26812,-1.58992 -0.15256,-0.39752 0.0443,-0.63419 0.52774,-0.63419 0.42414,0 1.34054,-0.528 2.03647,-1.173306 l 1.26535,-1.173285 -2.19773,-0.773951 c -3.68237,-1.296787 -4.33031,-1.922236 -4.92411,-4.753263 -0.51107,-2.436506 -0.48619,-2.604024 0.59783,-4.025257 0.6221,-0.815608 1.7129,-1.783798 2.42398,-2.151522 2.50391,-1.294814 6.03786,-0.528499 6.52566,1.415046 0.14329,0.571251 0.56147,1.038623 0.9291,1.038623 0.44115,0 0.57123,0.253274 0.38257,0.744905 -0.15728,0.409684 -0.0629,0.88272 0.2097,1.051165 0.86554,0.534922 -0.39955,4.025805 -2.06108,5.687348 -1.2425,1.242487 -1.43354,1.669602 -1.05944,2.36862 0.54399,1.016467 1.31708,1.124317 1.31708,0.183735 0,-0.367977 0.20073,-0.669044 0.44605,-0.669044 0.24532,0 0.44603,0.187192 0.44603,0.415972 0,0.662655 1.76995,1.043144 2.40412,0.516816 0.31745,-0.263457 0.66813,-0.388055 0.77931,-0.276893 0.1111,0.111094 0.42651,-0.392354 0.70077,-1.118951 0.43706,-1.15791 0.39999,-1.321079 -0.30005,-1.321079 -0.43929,0 -1.03745,-0.287648 -1.32921,-0.639222 -0.42767,-0.515299 -0.30703,-0.785635 0.62223,-1.394513 0.90435,-0.592534 1.04318,-0.887313 0.6443,-1.367935 -0.27966,-0.336959 -0.92997,-0.612638 -1.44515,-0.612638 -0.92819,0 -0.9277,-0.0067 0.0546,-0.694348 1.43482,-1.004991 1.33633,-3.019575 -0.18141,-3.711125 -0.64501,-0.293869 -1.06363,-0.64342 -0.93028,-0.776784 0.13335,-0.133347 0.67677,-0.01011 1.20757,0.274078 1.53302,0.820446 2.26186,0.265733 2.03003,-1.544987 -0.15021,-1.173504 -0.0362,-1.575466 0.44694,-1.575466 0.35675,0 0.64863,-0.289233 0.64863,-0.642729 0,-0.353513 0.19339,-0.762269 0.42978,-0.908344 0.48982,-0.302736 2.24643,1.296719 2.24643,2.045451 0,0.697332 2.27986,0.0794 3.16206,-0.857028 0.38987,-0.413848 0.93875,-1.555304 1.21973,-2.536593 0.78159,-2.729735 2.25388,-4.916642 2.88508,-4.285444 0.39198,0.391983 0.33089,1.041034 -0.25269,2.684118 -0.42332,1.191896 -0.76968,2.892836 -0.76968,3.779871 0,1.527185 0.078,1.612757 1.47192,1.612757 0.80956,0 1.69332,-0.221397 1.96393,-0.492002 0.35864,-0.358654 0.77503,0.124918 1.5362,1.784135 1.08493,2.364945 2.07971,2.919826 2.48132,1.384078 0.30433,-1.163811 0.88351,-1.136787 1.26302,0.059 0.2371,0.747063 0.38557,0.818811 0.69229,0.33453 0.61215,-0.966538 0.474,-2.62363 -0.21875,-2.62363 -0.34257,0 -1.26437,-0.730644 -2.04844,-1.623647 -1.30496,-1.486271 -1.3997,-1.796121 -1.11989,-3.662068 0.56619,-3.775623 4.32767,-6.790849 5.98313,-4.796124 0.28438,0.34264 0.91111,0.519952 1.39272,0.394006 0.59968,-0.15678 0.87568,-0.0051 0.87568,0.481802 0,0.892481 1.8925,2.171044 2.73499,1.84774 0.38517,-0.147844 0.94014,0.282187 1.42617,1.104976 0.89677,1.518116 2.42383,1.75809 4.3135,0.677861 1.24859,-0.713751 3.56827,-0.886411 3.56827,-0.265581 0,0.221902 -1.10393,1.026468 -2.4532,1.787945 -2.56385,1.446958 -2.75689,1.760095 -1.97999,3.211773 0.32974,0.616127 0.74191,0.798902 1.35952,0.602877 1.25605,-0.398659 2.23185,0.552016 1.90465,1.85563 -0.21486,0.85605 -0.12509,1.014144 0.45035,0.793321 0.94812,-0.36383 0.90718,0.08631 -0.14195,1.559569 -1.15046,1.615656 -0.59961,2.483271 1.37347,2.163272 1.36422,-0.221261 1.50038,-0.140764 1.5647,0.924747 0.0425,0.70335 -0.26769,1.403928 -0.78056,1.763138 -1.11452,0.780645 -1.09046,1.883598 0.0411,1.883598 0.49064,0 0.89208,-0.181932 0.89208,-0.40429 0,-0.22234 0.40142,-0.299297 0.89207,-0.17099 1.15935,0.303174 1.12767,0.754093 -0.1116,1.5873 -0.98189,0.660228 -0.98668,0.703907 -0.22156,2.021328 0.7913,1.362528 0.66174,2.710158 -0.27219,2.831138 -0.2804,0.0362 -0.89584,0.0865 -1.36764,0.11143 -0.93587,0.0496 -1.75598,2.16712 -1.34477,3.47221 0.37258,1.18249 -2.70596,3.04077 -5.03751,3.04077 -1.047,0 -1.90362,-0.21256 -1.90362,-0.47236 0,-0.2598 -0.20215,-0.34743 -0.44919,-0.19475 -0.24705,0.15274 -0.5696,-0.0362 -0.71677,-0.41971 -0.42709,-1.11302 -1.8535,-0.81038 -2.49463,0.52927 -0.54551,1.13986 -0.79701,1.23313 -3.55667,1.31908 -2.40092,0.0747 -3.19009,-0.0809 -4.12069,-0.81295 -1.07151,-0.84285 -1.69273,-2.56619 -0.705,-1.95575 0.24533,0.15156 0.44604,0.1833 0.44604,0.0705 0,-0.32875 -3.24803,-2.15297 -4.13879,-2.32452 -0.44659,-0.086 -0.92382,0.13503 -1.06052,0.49135 -0.39087,1.01857 -1.47141,0.75788 -1.93726,-0.46738 -0.51656,-1.3587 -1.54607,-1.51253 -1.19732,-0.17889 0.20679,0.79077 0.0936,0.89271 -0.72854,0.65635 -0.53534,-0.15392 -1.82267,-0.35977 -2.86071,-0.45746 -1.03803,-0.0978 -2.2925,-0.30623 -2.78771,-0.4634 -0.51927,-0.16487 -0.90038,-0.0843 -0.90038,0.19033 0,0.26184 0.30106,0.47609 0.66906,0.47609 0.80807,0 0.86197,0.52074 0.12964,1.25304 -0.42182,0.4218 -0.3246,0.68981 0.44603,1.22957 0.54196,0.37963 0.9854,1.06556 0.9854,1.52432 0,0.86741 -2.1936,2.23757 -3.58233,2.23757 -1.1705,0 -3.89174,1.24272 -4.12666,1.88455 -0.15509,0.4237 -0.34481,0.44047 -0.74438,0.0659 -0.34301,-0.32161 -1.08637,-0.37873 -2.06292,-0.15846 -0.84376,0.19029 -1.52666,0.16858 -1.52666,-0.0487 z m 21.1996,-8.99123 c -0.51948,-1.59067 -0.62307,-4.551447 -0.17798,-5.087734 0.38154,-0.459718 0.32883,-0.599218 -0.22637,-0.599218 -0.67164,0 -0.9382,0.539237 -0.75234,1.521992 0.0423,0.22381 -0.17098,1.00543 -0.47398,1.73695 -0.49733,1.2007 -0.45151,1.41054 0.47131,2.15779 1.20377,0.97473 1.40476,1.02158 1.15936,0.27022 z m -13.17097,-2.56471 c 0,-0.24532 -0.0885,-0.44603 -0.19668,-0.44603 -0.10823,0 -0.32074,0.20071 -0.47236,0.44603 -0.15155,0.24532 -0.0631,0.44604 0.19668,0.44604 0.2598,0 0.47236,-0.20072 0.47236,-0.44604 z m 15.61124,-5.407027 c 0,-0.215294 -0.30107,-0.391426 -0.66905,-0.391426 -0.38456,0 -0.66906,0.402536 -0.66906,0.946679 0,0.790928 0.11009,0.855325 0.66906,0.391426 0.36798,-0.3054 0.66905,-0.731402 0.66905,-0.946679 z m 0.81166,-2.315727 c 0.0784,-0.404407 -0.16133,-1.169323 -0.53295,-1.699811 l -0.67555,-0.964498 -0.29572,1.178224 c -0.16268,0.648022 -0.17361,1.496436 -0.0245,1.885367 0.33283,0.867337 1.33362,0.605919 1.52859,-0.399282 z m 0.97247,-2.536037 c 0,-0.245334 -0.0885,-0.446046 -0.19668,-0.446046 -0.10823,0 -0.32074,0.200712 -0.47236,0.446046 -0.15155,0.245318 -0.0631,0.44603 0.1967,0.44603 0.25978,0 0.47234,-0.200712 0.47234,-0.44603 z M 35.940318,109.77694 c -1.39982,-1.54679 0.44779,-3.33671 2.37796,-2.3037 0.93276,0.49918 1.11364,1.18672 0.63818,2.42572 -0.36852,0.96038 -2.09999,0.89032 -3.01614,-0.12206 z m 97.338222,-0.97143 c 1.37339,-1.14415 2.21644,-1.13353 1.17718,0.0152 -0.44403,0.49065 -1.12747,0.8854 -1.51874,0.87724 -0.54064,-0.0118 -0.45862,-0.22546 0.34156,-0.89207 z m -90.839892,-0.96644 c -0.64175,-0.64175 -0.68066,-1.43463 -0.12171,-2.48155 0.22741,-0.42597 0.52219,-1.12576 0.65507,-1.55507 0.13284,-0.4293 0.45488,-0.78056 0.7156,-0.78056 0.26071,0 0.60313,0.35126 0.76092,0.78056 0.15779,0.42931 0.55293,0.94109 0.87807,1.13726 0.84133,0.50761 0.73108,1.83163 -0.2245,2.69643 -0.96318,0.87167 -1.92163,0.9447 -2.6634,0.20293 z m 124.243102,-0.61194 c -1.78977,-0.97097 -1.72065,-3.26417 0.14565,-4.83463 0.7771,-0.65391 1.11566,-1.18421 0.78056,-1.22268 -0.32546,-0.0374 -0.84095,-0.0897 -1.1455,-0.11615 -0.30456,-0.0265 -0.55544,-0.24687 -0.55755,-0.48959 -0.002,-0.24274 0.19692,-0.42127 0.44224,-0.39674 0.24532,0.0244 0.89764,0.0777 1.4496,0.11835 1.3591,0.0998 2.54797,0.93659 1.77508,1.24929 -0.38439,0.1556 -0.20511,0.51362 0.55755,1.11351 1.4299,1.12477 1.42164,2.18166 -0.0307,3.90754 -1.29815,1.54274 -1.67434,1.61663 -3.41712,0.67116 z M 40.565308,105.25208 c 0,-0.24532 0.20072,-0.44603 0.44604,-0.44603 0.24532,0 0.44603,0.20071 0.44603,0.44603 0,0.24531 -0.20071,0.44602 -0.44603,0.44602 -0.24532,0 -0.44604,-0.20071 -0.44604,-0.44602 z m 133.455342,-0.25421 c -0.54059,-0.37864 -0.98289,-1.07851 -0.98289,-1.55523 0,-0.48769 -0.30412,-0.86678 -0.69538,-0.86678 -0.38246,0 -0.56287,-0.2144 -0.40093,-0.47644 0.162,-0.26204 0.57698,-0.36802 0.92227,-0.23554 0.3453,0.13251 1.1071,0.0587 1.69288,-0.16403 2.27936,-0.86662 3.43625,2.01238 1.3597,3.38368 -0.77653,0.5128 -1.05948,0.50001 -1.89565,-0.0856 z m 8.25058,-0.0278 c -0.17201,-0.17202 -0.31278,-0.6947 -0.31278,-1.16151 0,-0.62507 0.2645,-0.8112 1.00359,-0.70622 0.65607,0.0932 1.00358,0.4493 1.00358,1.02849 0,0.88476 -1.1027,1.43094 -1.69439,0.83926 z m 5.63402,-1.66582 c -0.20501,-0.36548 -1.17057,-0.72687 -2.1555,-0.80676 -1.22423,-0.0993 -1.78413,-0.35468 -1.78413,-0.81377 0,-1.02333 5.65531,-1.20164 6.48295,-0.2044 0.43671,0.5262 0.47407,0.92916 0.13621,1.4684 -0.61381,0.9795 -2.21084,1.19199 -2.67946,0.35653 z m -19.47652,-5.486159 c -0.54179,-0.541783 -0.30819,-1.016909 0.37168,-0.756015 0.368,0.141271 0.66906,0.435982 0.66906,0.655052 0,0.467625 -0.61447,0.527235 -1.04074,0.10098 z m -2.0815,-3.016035 c 0,-0.700155 1.17512,-2.039003 1.78967,-2.039003 0.83128,0 0.93619,0.989971 0.19204,1.812229 -0.91766,1.014027 -1.98171,1.135793 -1.98171,0.226774 z m -2.04413,-6.340849 c 0.15846,-0.412752 -0.0467,-1.096261 -0.46908,-1.562941 -0.61242,-0.676698 -0.65721,-1.034307 -0.24334,-1.942651 0.66381,-1.456921 2.43333,-1.508355 3.0798,-0.08952 0.65582,1.439371 -0.84258,4.296401 -2.26662,4.321857 -0.21024,0.0034 -0.25557,-0.323269 -0.10081,-0.726732 z m 6.95051,-1.903001 c 0,-0.595763 2.63816,-2.715861 3.37949,-2.715861 0.91725,0 0.7796,1.193346 -0.25724,2.230181 -0.89718,0.897167 -3.12225,1.243296 -3.12225,0.48568 z m -70.80807,-0.781083 c -0.736892,-0.297342 -0.719052,-1.488749 0.0222,-1.488749 0.64271,0 1.65033,0.871459 1.65033,1.427319 0,0.388661 -0.78978,0.417674 -1.67263,0.06136 z m 11.17594,-0.01686 c -0.29288,-0.105531 -0.42194,-0.480049 -0.28681,-0.832179 0.27258,-0.71033 1.29989,-0.859962 1.68012,-0.244728 0.32223,0.521368 -0.71356,1.321955 -1.39331,1.076907 z m 88.11628,-1.933278 c 1.07007,-0.891452 2.29227,-1.168918 2.29227,-0.520407 0,0.722012 -1.10184,1.426897 -2.20786,1.412466 l -1.13739,-0.01517 z m -76.0266,-0.150879 c -0.49587,-1.292184 0.0101,-2.287515 1.16091,-2.287515 0.93484,0 1.10898,0.210118 1.10898,1.338105 0,1.048872 -0.21736,1.368972 -1.00558,1.480893 -0.58974,0.08378 -1.11258,-0.136044 -1.26431,-0.531483 z m 15.9799,0.09322 c -0.3036,-0.303579 -0.55198,-0.855899 -0.55198,-1.227382 0,-0.584485 0.0971,-0.578365 0.72083,0.04535 0.39645,0.39645 0.64484,0.948769 0.55196,1.227399 -0.12188,0.365836 -0.32219,0.353226 -0.72081,-0.04535 z m -14.27413,-3.154709 c -1.88329,-1.883294 -1.88907,-1.885401 -1.88907,-0.684739 0,1.53295 -1.16508,2.172173 -3.32137,1.822251 -2.09029,-0.3392 -2.44392,-1.20459 -1.0839,-2.652509 0.84396,-0.898498 1.39884,-1.096226 2.72253,-0.970061 l 1.66256,0.158466 -1.41552,-1.460444 c -1.67031,-1.723312 -2.03857,-1.792312 -2.52648,-0.473374 l -0.36512,0.987054 -0.52579,-0.982451 c -0.28918,-0.540334 -1.12198,-1.290735 -1.85067,-1.667562 -0.72869,-0.376811 -1.32487,-0.981036 -1.32487,-1.342708 0,-0.361689 -0.25743,-0.657598 -0.57206,-0.657598 -0.86536,0 -0.91271,-3.803945 -0.058,-4.658663 0.37781,-0.377805 0.54084,-0.92328 0.3623,-1.212176 -0.22529,-0.364521 -0.0743,-0.429188 0.49345,-0.211332 0.45212,0.173486 0.95221,0.09693 1.11794,-0.171277 0.40289,-0.6519 4.90085,-1.052194 4.90085,-0.436151 0,0.25695 0.51526,0.663076 1.14503,0.902528 0.87535,0.332794 1.07837,0.645375 0.86202,1.327063 -0.17543,0.552707 -0.0799,0.891722 0.25108,0.891722 0.36916,0 0.46423,0.619819 0.30786,2.007149 -0.12441,1.103948 -0.0565,2.007167 0.15105,2.007167 0.20749,0 0.25941,0.307052 0.11548,0.682345 -0.16521,0.430638 -0.57142,0.58408 -1.10109,0.415972 -1.37263,-0.435645 -0.99442,0.789141 0.83829,2.71463 2.38739,2.508305 3.67488,4.24072 3.67488,4.944896 0,0.999613 -0.58046,0.710599 -2.57126,-1.280198 z m 83.16425,-1.967247 c -0.63137,-0.631383 -0.2741,-1.496082 0.61813,-1.496082 0.62354,0 0.8778,0.242216 0.78056,0.743591 -0.15914,0.820918 -0.92062,1.230551 -1.39869,0.752491 z M 132.8946,76.482207 c 0,-1.090309 0.20177,-1.56112 0.66904,-1.56112 0.71797,0 0.81446,0.527032 0.38792,2.118665 -0.41128,1.534721 -1.05696,1.194122 -1.05696,-0.557545 z m 27.90083,-2.860941 c -0.4039,-0.653535 0.54303,-2.268449 1.33015,-2.268449 0.91736,0 0.81306,1.055312 -0.19442,1.967078 -0.54214,0.490636 -0.95161,0.599286 -1.13573,0.301371 z m -49.99792,-1.405493 c -0.41051,-0.664223 0.0654,-1.025338 0.91945,-0.697635 0.39411,0.151216 0.59163,0.477099 0.43895,0.724153 -0.36155,0.58499 -0.98802,0.572768 -1.3584,-0.02647 z m 45.73694,-4.331432 c 0,-1.07893 1.24237,-2.775454 2.03245,-2.775454 0.90668,0 0.80029,1.467171 -0.18911,2.607953 -1.01138,1.166136 -1.84334,1.241728 -1.84334,0.167568 z m 27.20815,0.212984 c 0,-0.745916 0.90442,-1.650332 1.65034,-1.650332 0.78426,0 0.73062,0.677557 -0.12105,1.529258 -0.8517,0.851701 -1.52925,0.905343 -1.52925,0.12104 z m 13.19039,-2.760231 c -0.55282,-1.164973 -0.62076,-1.775655 -0.27038,-2.43032 1.11775,-2.088557 4.21762,-2.974614 5.40431,-1.544751 0.32568,0.392405 0.54598,1.319242 0.48955,2.059612 -0.0565,0.740371 0.15173,1.652541 0.46257,2.027059 0.48226,0.581079 0.4314,0.638498 -0.34685,0.391494 -0.53106,-0.16858 -1.27477,-0.01517 -1.78063,0.367505 -0.47777,0.361335 -1.39778,0.663346 -2.04446,0.671151 -0.911,0.0118 -1.34203,-0.336199 -1.91411,-1.54175 z m -85.9109,-0.622398 c -1.81268,-1.812676 -2.16602,-3.5386 -0.91731,-4.480491 0.64249,-0.484651 0.87734,-0.998703 0.68511,-1.499656 -0.1674,-0.43605 -0.0813,-0.762219 0.20127,-0.762219 0.27156,0 0.49375,0.301068 0.49375,0.669045 0,0.806521 0.52042,0.862271 1.24889,0.133852 0.41629,-0.416308 0.65419,-0.416308 1.07049,0 0.29437,0.294375 1.10221,0.535243 1.79517,0.535243 1.43031,0 2.20234,1.377131 2.21297,3.947406 0.008,1.995181 -0.53219,2.428516 -3.23428,2.593354 -2.00961,0.122558 -2.43192,-0.0118 -3.55606,-1.1365 z m 93.76677,0.05968 c 0.0949,-0.499975 0.62766,-0.82429 1.48233,-0.902241 l 1.3343,-0.121715 -1.05301,0.902224 c -1.29436,1.109056 -1.95956,1.154943 -1.76362,0.121715 z M 162.85614,63.07325 c 0.0802,-0.682446 0.41216,-1.328344 0.73769,-1.435325 0.41713,-0.137056 0.54881,0.171766 0.44603,1.046293 -0.0803,0.682446 -0.41216,1.328328 -0.73769,1.435325 -0.41714,0.137056 -0.54882,-0.171766 -0.44603,-1.046293 z M 113.08199,50.138964 c -0.75888,-0.758863 -0.97812,-3.317503 -0.28428,-3.317503 0.23141,0 0.73321,0.446092 1.11509,0.991316 1.27615,1.821964 0.58899,3.745987 -0.83081,2.326187 z"
       id="path4575"
       inkscape:connector-curvature="0" />
  </g>
</svg>
