<?xml version="1.0" encoding="UTF-8" standalone="no"?>
<!-- Created with Inkscape (http://www.inkscape.org/) -->

<svg
   xmlns:dc="http://purl.org/dc/elements/1.1/"
   xmlns:cc="http://creativecommons.org/ns#"
   xmlns:rdf="http://www.w3.org/1999/02/22-rdf-syntax-ns#"
   xmlns:svg="http://www.w3.org/2000/svg"
   xmlns="http://www.w3.org/2000/svg"
   xmlns:sodipodi="http://sodipodi.sourceforge.net/DTD/sodipodi-0.dtd"
   xmlns:inkscape="http://www.inkscape.org/namespaces/inkscape"
   width="209.99989mm"
   height="148.35669mm"
   viewBox="0 0 209.99989 148.35668"
   version="1.1"
   id="svg8"
   inkscape:version="0.92.3 (2405546, 2018-03-11)"
   sodipodi:docname="spy_switzerland.svg">
  <defs
     id="defs2" />
  <sodipodi:namedview
     id="base"
     pagecolor="#ffffff"
     bordercolor="#666666"
     borderopacity="1.0"
     inkscape:pageopacity="0.0"
     inkscape:pageshadow="2"
     inkscape:zoom="0.7"
     inkscape:cx="407.56688"
     inkscape:cy="308.54964"
     inkscape:document-units="mm"
     inkscape:current-layer="g21"
     showgrid="false"
     inkscape:window-width="1920"
     inkscape:window-height="1017"
     inkscape:window-x="-8"
     inkscape:window-y="-8"
     inkscape:window-maximized="1"
     fit-margin-top="0"
     fit-margin-left="0"
     fit-margin-right="0"
     fit-margin-bottom="0" />
  <metadata
     id="metadata5">
    <rdf:RDF>
      <cc:Work
         rdf:about="">
        <dc:format>image/svg+xml</dc:format>
        <dc:type
           rdf:resource="http://purl.org/dc/dcmitype/StillImage" />
        <dc:title></dc:title>
      </cc:Work>
    </rdf:RDF>
  </metadata>
  <g
     inkscape:label="Layer 1"
     inkscape:groupmode="layer"
     id="layer1"
     transform="translate(-3e-5,-92.695908)">
    <g
       id="g21"
       transform="translate(118.89756,67.317726)"
       style="fill:#000000">
      <path
         style="fill:#000000;stroke-width:0.50479168"
         d="m -116.36716,173.47947 c 0,-0.12267 2.21477,-1.51758 4.92172,-3.09993 2.70695,-1.58233 5.00166,-2.94383 5.09937,-3.02552 0.15816,-0.13222 0.63066,-7.63118 0.77692,-12.32888 l 0.0549,-1.76676 h -4.07972 c -3.92543,0 -4.15453,-0.0654 -6.0575,-1.73098 -1.08777,-0.95203 -2.26314,-2.40121 -2.61192,-3.2204 l -0.63414,-1.48943 2.6533,0.32214 c 2.83684,0.34443 2.83266,0.30608 -0.20591,-1.89002 -0.46203,-0.33393 -0.99841,-1.45124 -1.19197,-2.48292 -0.29333,-1.56366 -0.20986,-1.8758 0.50158,-1.8758 0.69458,0 0.78851,-0.2958 0.50452,-1.58877 -0.3438,-1.56537 -0.32525,-1.58403 1.25903,-1.26717 l 1.60797,0.32159 -0.12954,-2.64496 -0.12955,-2.64496 1.60681,0.0744 c 1.82366,0.0845 1.96559,-0.31955 0.75911,-2.16088 -0.67308,-1.02724 -0.72677,-1.4874 -0.2606,-2.23385 0.32293,-0.51706 0.45184,-1.29261 0.28653,-1.72346 -0.16542,-0.43084 -0.14767,-1.80356 0.0393,-3.05048 0.31386,-2.09296 0.43455,-2.24342 1.57075,-1.95825 1.33587,0.33527 1.48183,0.0973 0.76359,-1.24467 -0.25697,-0.48014 -0.5869,-2.16887 -0.7332,-3.75275 -0.20715,-2.24292 -0.11161,-2.87979 0.43196,-2.87979 0.54714,0 0.5965,-0.35379 0.22841,-1.63724 -0.59144,-2.0622 -0.59136,-2.53594 3.5e-4,-2.17026 0.77671,0.48004 1.12963,-0.64286 0.54527,-1.73477 -0.4697,-0.87763 -0.39321,-1.02001 0.5479,-1.02001 0.98473,0 1.06681,-0.20138 0.82298,-2.01918 -0.149,-1.11054 -0.0652,-2.01916 0.18602,-2.01916 0.25121,0 0.45674,-0.3218 0.45674,-0.71513 0,-0.39331 0.17992,-0.79083 0.39965,-0.88338 0.2198,-0.0925 0.78417,-1.963052 1.25416,-4.156712 0.95021,-4.435174 1.12908,-4.788398 1.98911,-3.928367 0.32853,0.328536 0.98496,0.597337 1.4587,0.597337 0.59568,0 0.78454,0.293831 0.61226,0.952601 -0.13699,0.52394 -0.002,1.105249 0.29965,1.291779 0.30182,0.18659 0.54878,0.78006 0.54878,1.31896 0,0.53887 0.316419,0.97978 0.703164,0.97978 0.818593,0 1.464828,1.369972 1.000566,2.121162 -0.175334,0.28362 -0.03892,0.68855 0.302875,0.89983 0.466818,0.28851 0.482921,0.64326 0.06468,1.42476 -0.681645,1.27364 -0.725488,2.28031 -0.08204,1.88263 0.6594,-0.40754 0.05953,3.17335 -0.825957,4.93127 l -0.71343,1.41619 1.794222,-0.33658 c 2.151433,-0.40363 2.280176,0.1303 0.532259,2.20763 -1.771614,2.10546 -1.634247,2.76995 0.520601,2.51838 1.455422,-0.16999 1.725329,-0.0643 1.470627,0.57576 -0.500282,1.25706 -0.519113,5.06161 -0.02595,5.22545 0.248043,0.0824 0.162551,0.68884 -0.190024,1.34769 -0.542905,1.01443 -0.515336,1.28983 0.180103,1.79828 0.451594,0.33024 0.821092,0.95623 0.821092,1.39113 0,0.4349 0.351717,0.86417 0.78158,0.95394 0.638279,0.13336 0.544965,0.48303 -0.509002,1.90756 -1.193852,1.61363 -1.224054,1.77997 -0.402981,2.21982 1.320897,0.70757 1.336027,0.74409 0.65028,1.57037 -0.52001,0.62656 -0.477789,0.82319 0.235527,1.09691 0.719993,0.2763 0.814681,0.74373 0.551928,2.7246 -0.249263,1.87902 -0.153011,2.45411 0.449725,2.68539 0.421792,0.16178 0.766908,0.73142 0.766908,1.2657 0,0.53428 0.378713,1.11675 0.841601,1.29438 0.641446,0.24613 0.701468,0.46308 0.252393,0.91215 -0.324053,0.32405 -0.589209,0.99009 -0.589209,1.48007 0,0.48996 -0.485001,1.15041 -1.077777,1.46767 -0.859993,0.46026 -0.936499,0.66553 -0.378599,1.01581 0.384551,0.24146 1.153501,0.30629 1.708788,0.14405 0.570053,-0.16656 -0.462717,1.15699 -2.372346,3.04027 -1.860063,1.83436 -3.677313,3.37408 -4.03834,3.42156 -0.361027,0.0475 -1.224301,0.10436 -1.918386,0.12611 l -1.261978,0.0399 -0.0221,5.42651 c -0.0114,2.98458 0.15473,5.4265 0.37102,5.4265 0.39922,0 4.260073,-2.23108 7.475432,-4.31986 1.606525,-1.04365 6.501557,-3.73104 10.348232,-5.68123 3.14099,-1.59243 13.313697,-7.62333 18.172503,-10.77361 6.900713,-4.47416 7.91003,-5.06405 13.168001,-7.69585 2.5226,-1.26263 5.900013,-3.08663 7.505358,-4.05332 1.605348,-0.9667 3.155411,-1.8365 3.444586,-1.93288 0.981229,-0.32707 -0.334101,-1.69767 -7.909292,-8.24154 -6.339618,-5.47653 -7.742581,-6.46954 -8.960052,-6.34183 -1.173081,0.12306 -1.443498,-0.0448 -1.443498,-0.89624 0,-0.5762 0.227157,-1.04762 0.504791,-1.04762 0.277636,0 0.504793,-0.34074 0.504793,-0.75719 0,-0.88228 -0.169247,-0.90229 -2.523959,-0.29857 -3.773914,0.9676 -4.623141,1.08883 -4.332459,0.6185 0.162398,-0.26277 1.384855,-0.6276 2.716591,-0.81077 3.005453,-0.41334 3.878128,-0.92393 3.456612,-2.02237 -0.256249,-0.66777 -0.674817,-0.77097 -1.966522,-0.48488 -0.902549,0.1999 -2.833563,0.32578 -4.291148,0.27975 -2.575184,-0.0813 -3.029029,0.21269 -2.637666,1.70875 0.07269,0.27765 0.09883,1.05475 0.05838,1.72691 -0.04064,0.67216 0.285952,1.77112 0.725602,2.44212 0.710149,1.08382 1.090674,1.19724 3.408835,1.01605 1.435198,-0.11218 3.063767,-0.37375 3.619038,-0.58129 0.555271,-0.20752 0.441692,-0.0521 -0.252396,0.34552 -1.636802,0.93755 -4.66757,1.47528 -6.178102,1.09617 -1.977874,-0.49641 -3.071602,-5.83865 -2.219487,-10.841 l 0.386935,-2.27155 -5.459515,-4.74618 c -5.76775,-5.014126 -5.480615,-4.539848 -5.25148,-8.674173 0.06658,-1.200472 3.572723,-5.480749 5.163394,-6.30331 1.785693,-0.92343 3.144157,-0.910914 4.994547,0.04598 1.911403,0.988412 2.394191,2.846834 1.211614,4.663817 -1.221821,1.877271 -2.006988,2.409091 -5.393903,3.653464 -1.596394,0.586538 -2.902544,1.259483 -2.902544,1.49543 0,0.235965 1.98707,2.1546 4.415717,4.26362 3.834216,3.329622 4.668434,3.834602 6.334956,3.834602 1.055591,0 2.620931,0.36284 3.47853,0.80632 1.204141,0.6227 1.830769,0.68264 2.751287,0.26323 0.655607,-0.29871 1.192009,-0.73489 1.192009,-0.96925 0,-0.70111 4.112846,-2.5374 7.595424,-3.391192 3.00408,-0.7365 4.565965,-1.27349 6.538741,-2.24811 0.903079,-0.44615 1.373347,-2.35359 1.454653,-5.900136 0.05287,-2.306105 -0.112736,-2.750391 -1.442027,-3.868921 l -1.50175,-1.263642 0.560823,-4.344534 c 0.509269,-3.945178 0.477377,-4.436723 -0.346958,-5.347618 -0.814128,-0.899601 -0.994552,-0.924536 -1.748973,-0.241804 -0.963388,0.87186 -2.32305,0.997265 -2.780871,0.256476 -0.564831,-0.91391 -1.176639,-0.5281 -1.500453,0.946191 -0.175276,0.798044 -0.855374,1.955189 -1.511326,2.571413 -1.188359,1.116412 -1.194604,1.116755 -1.740586,0.09654 -0.691459,-1.291993 -0.723427,-3.782207 -0.04316,-3.361769 0.277636,0.171518 0.504791,0.771812 0.504791,1.333833 0,2.115241 1.23835,0.499901 2.015452,-2.629012 0.44366,-1.78638 1.080308,-3.744126 1.414768,-4.350544 1.009664,-1.830681 0.750642,-2.25131 -1.282589,-2.082826 -1.537792,0.127446 -1.94742,0.392221 -2.194572,1.418638 -0.604972,2.51246 -1.086532,3.516555 -1.549337,3.230526 -0.28535,-0.176299 -0.28999,-0.523341 -0.01164,-0.87771 0.253093,-0.322335 0.592282,-2.076186 0.75375,-3.897481 0.244118,-2.753558 0.128762,-3.561447 -0.684734,-4.795517 -1.142258,-1.732808 -1.247103,-2.90968 -0.327228,-3.673115 0.516887,-0.428986 0.667892,-0.187544 0.705175,1.127916 0.04619,1.629286 2.009928,5.33306 2.834243,5.345595 0.226167,0.0038 1.48382,-0.45518 2.794789,-1.019148 2.725702,-1.17256 5.100496,-4.323872 6.710553,-8.904772 0.978241,-2.783302 0.905572,-3.699196 -0.293515,-3.699196 -0.366076,0 -0.948372,-0.340727 -1.293999,-0.757178 -0.535921,-0.645758 -0.394842,-0.757197 0.958594,-0.757197 1.202949,0 1.726161,-0.305393 2.162003,-1.261982 0.697324,-1.530459 1.383594,-1.582582 3.096548,-0.235165 1.087504,0.855434 1.330555,1.508384 1.456248,3.912134 0.145838,2.789044 0.197747,2.884629 1.555486,2.864157 1.485506,-0.02232 1.469448,-0.05647 3.22627,6.835855 l 0.450344,1.766768 3.769285,0.285017 c 4.333166,0.327639 6.492853,1.17878 9.619648,3.791136 4.222688,3.527964 12.5534965,8.291239 14.5010685,8.291239 0.520157,0 1.356886,-0.454303 1.859401,-1.009571 0.50251498,-0.555268 1.12303898,-1.00959 1.37894498,-1.00959 0.255908,0 -0.233614,0.588083 -1.087817,1.306856 -1.36869698,1.151688 -1.55310798,1.619441 -1.55310798,3.939511 0,2.038277 -0.330755,3.154193 -1.46502,4.942748 -0.80576,1.270549 -1.718091,2.4665 -2.027401,2.657669 -0.952092,0.588426 -0.133913,1.230655 4.590803,3.603554 l 4.554598,2.287445 -0.27394,1.862731 c -0.150665,1.02449 -0.427487,2.60994 -0.615144,3.523202 -0.389447,1.89528 0.468164,3.17544 2.764521,4.12661 1.258748,0.52141 1.996401,0.28561 7.4091795,-2.36832 7.494565,-3.674642 15.473841,-7.944042 18.126255,-9.698656 1.110541,-0.734627 3.074276,-1.845677 4.363857,-2.46898 l 2.344697,-1.133258 0.357352,-4.99281 c 0.196546,-2.74606 0.20702,-5.236065 0.02328,-5.533369 -0.523509,-0.847058 -1.66511,-0.635513 -2.424993,0.449381 -0.659728,0.941879 -0.780908,0.950255 -2.497291,0.172281 -1.110586,-0.503393 -2.116192,-1.472497 -2.616399,-2.521427 -1.044187,-2.189705 -1.047781,-2.174328 0.508355,-2.174328 1.162702,0 1.289641,-0.163123 1.060339,-1.362642 -0.33979,-1.777489 0.405788,-3.685287 1.440243,-3.685287 0.68064,0 0.60007,-0.371272 -0.48083,-2.21569 -1.214999,-2.073229 -1.238355,-2.231392 -0.363278,-2.460242 0.705356,-0.184491 1.074732,-1.045782 1.50291,-3.504573 0.312235,-1.793001 0.567705,-4.206805 0.567705,-5.364007 0,-1.471467 0.213436,-2.104022 0.709928,-2.104022 0.405762,0 0.635518,-0.378484 0.536246,-0.883384 -0.09553,-0.485859 -0.288973,-1.746582 -0.429892,-2.801598 -0.222475,-1.665631 -0.138264,-1.880782 0.639475,-1.633942 0.774271,0.245754 0.903745,-0.06964 0.955147,-2.326156 0.0327,-1.435751 0.246511,-2.744877 0.475125,-2.909202 0.228615,-0.164268 0.690117,-0.923411 1.025561,-1.686923 0.699858,-1.592941 2.14591,-1.868152 2.14591,-0.408381 0,0.538879 0.24556,1.13156 0.545694,1.317044 0.300129,0.185445 0.409379,0.880369 0.242779,1.544176 -0.219851,0.875943 -0.09265,1.206902 0.46389,1.206902 0.46361,0 0.7668,0.459053 0.7668,1.161017 0,0.638566 0.22118,1.382217 0.49152,1.652543 0.31884,0.318844 0.24539,0.965957 -0.20905,1.8419 -0.60163,1.159644 -0.59796,1.435542 0.026,1.953377 0.62768,0.520926 0.60967,0.732184 -0.13237,1.552131 -0.62386,0.689353 -0.70722,1.100882 -0.30458,1.503519 0.3049,0.304898 0.43424,0.867434 0.28742,1.250039 -0.15587,0.406225 0.0579,0.695688 0.51368,0.695688 0.5968,0 0.86261,0.832081 1.12881,3.533535 0.1915,1.943455 0.56339,3.533554 0.82643,3.533554 0.26303,0 0.40485,0.851827 0.31515,1.892954 -0.10875,1.262211 0.0466,1.892974 0.46612,1.892974 0.80343,0 0.86139,0.239991 0.4051,1.67765 -0.2674,0.84246 -0.12434,1.354133 0.50784,1.816392 0.57544,0.420781 0.7318,0.88346 0.45168,1.336694 -0.23562,0.381251 -0.44663,1.662884 -0.4689,2.848093 -0.0505,2.686039 -1.06906,3.768338 -3.90321,4.147394 -1.916904,0.256399 -2.188679,0.458596 -2.423654,1.803151 -0.444752,2.544989 0.009,4.795517 0.966704,4.795517 0.46936,0 1.06919,-0.201014 1.33295,-0.44669 0.60192,-0.560667 12.77956,-7.392363 16.00189,-8.9771 l 2.39776,-1.179219 v -4.259615 c 0,-3.932529 -0.47988,-5.584785 -1.25689,-4.327573 -0.46209,0.747677 -0.96968,0.636963 -2.27665,-0.496562 -0.64023,-0.555268 -1.4648,-1.009571 -1.83237,-1.009571 -0.36757,0 -1.04116,-0.569023 -1.49685,-1.2645 -0.66837,-1.020064 -0.70726,-1.410644 -0.20119,-2.02042 0.37162,-0.447778 0.504,-1.372715 0.32473,-2.269053 -0.25867,-1.293348 -0.14998,-1.513116 0.74835,-1.513116 0.79537,0 0.96736,-0.214846 0.70717,-0.883384 -0.44406,-1.140966 -0.44426,-1.183072 -0.0124,-2.523964 0.20123,-0.624676 0.59626,-1.135777 0.87783,-1.135777 0.30319,0 0.39505,-0.720489 0.22526,-1.766767 -0.22123,-1.363329 -0.11329,-1.766768 0.47276,-1.766768 0.73179,0 0.69615,-0.547159 -0.18903,-2.902563 -0.14515,-0.386192 0.19644,-0.630991 0.88046,-0.630991 0.86981,0 1.03498,-0.195843 0.74496,-0.883384 -0.54806,-1.299224 -0.71984,-5.722954 -0.21,-5.407868 0.24025,0.148432 0.42356,-0.36284 0.40735,-1.136311 -0.0162,-0.773452 0.23043,-3.203873 0.54808,-5.400943 0.56814,-3.92959 1.35433,-5.625729 3.51107,-7.574851 1.04906,-0.948068 1.08704,-0.948453 1.76749,-0.01717 0.83549,1.142607 1.12827,3.618684 1.08653,9.189027 -0.0194,2.589042 0.16911,4.164145 0.49842,4.164526 0.62831,7.06e-4 0.33114,3.410554 -0.33301,3.821014 -0.24696,0.15263 -0.44902,0.620154 -0.44902,1.038933 0,0.536551 0.30397,0.664932 1.02931,0.434709 0.90125,-0.286048 0.98865,-0.16465 0.70247,0.975572 -0.20742,0.826434 -0.11766,1.302257 0.24563,1.302257 0.37997,0 0.30914,0.50925 -0.21064,1.514375 -0.69903,1.351767 -0.70042,1.514375 -0.013,1.514375 0.77634,0 1.05253,1.336637 0.86055,4.164526 -0.0518,0.763493 0.12815,1.388188 0.39998,1.388188 0.32193,0 0.3226,0.451384 0.002,1.294836 -0.67485,1.774762 -0.61995,2.2387 0.2648,2.2387 0.41645,0 0.76029,0.397524 0.76408,0.883383 0.004,0.485859 0.13618,1.365141 0.29422,1.953968 0.429,1.598455 -2.48002,4.734523 -4.39174,4.734523 h -1.46208 v 3.533535 c 0,1.943456 0.12485,3.533554 0.27746,3.533554 0.4799,0 3.40918,-1.587122 6.03243,-3.268436 8.39192,-5.378601 20.44406,-11.701143 20.44406,-10.724922 0,0.357917 -2.21477,1.715541 -4.92171,3.01694 -2.70695,1.301418 -6.51181,3.50776 -8.45526,4.903007 -1.94345,1.395266 -4.85079,3.462142 -6.46075,4.593073 -3.29277,2.31303 -12.55441,7.574336 -17.51686,9.950898 -1.80463,0.864248 -5.4846,3.003222 -8.17771,4.753258 -5.203505,3.381363 -8.337217,5.258577 -12.947312,7.755946 -1.568917,0.8499 -5.662676,3.071904 -9.097248,4.937744 -3.434574,1.865852 -8.013402,3.989502 -10.175175,4.719232 -2.454014,0.82836 -3.8437665,1.55278 -3.6996035,1.92847 0.287923,0.75031 3.7894205,1.51774 11.2902445,2.47446 3.195357,0.40758 6.805287,1.18677 8.022068,1.73153 2.18699,0.97916 2.232148,0.97935 3.944012,0.0172 2.118257,-1.18975 4.519748,-2.84359 6.201775,-4.27099 1.896047,-1.60902 11.105409,-7.899302 11.105409,-7.585342 0,0.28034 -3.7682,3.251722 -11.988794,9.453632 -2.568128,1.93748 -4.669323,3.71436 -4.669323,3.94865 0,0.80434 1.606897,1.03874 7.120862,1.03874 5.427695,0 5.532275,0.0219 6.003715,1.26198 0.42888,1.12803 0.76509,1.26199 3.16769,1.26199 1.47834,0 2.92763,-0.23975 3.22063,-0.53274 0.3017,-0.30171 1.13288,-0.38211 1.91654,-0.18544 l 1.3838,0.3473 -1.42005,1.32121 c -1.41576,1.31721 -6.1052,4.94732 -11.65384,9.02126 -1.60856,1.18106 -5.521853,4.24768 -8.6962,6.8147 -5.585091,4.51653 -5.772626,4.73254 -5.805105,6.68649 -0.02806,1.68789 0.142632,2.0443 1.040423,2.17238 1.065927,0.15206 2.020825,-0.46342 10.464087,-6.74468 2.260755,-1.68186 6.722755,-4.83442 9.915565,-7.00571 3.19281,-2.17128 7.21996,-5.0544 8.94922,-6.40693 1.72926,-1.35251 3.36458,-2.45913 3.63405,-2.45913 0.26946,0 1.1086,-0.81112 1.86476,-1.80248 1.9623,-2.57272 5.33848,-4.75969 7.34897,-4.7604 0.9217,-3.2e-4 3.37666,-0.32497 5.45548,-0.7214 3.21811,-0.61371 4.82118,-0.67522 4.00254,-0.15359 -1.87702,1.19607 -5.75877,4.01001 -7.52981,5.45849 -1.24936,1.02182 -3.86166,2.94339 -5.8051,4.27016 -1.94345,1.3268 -6.77661,5.04543 -10.74034,8.26363 -12.47728,10.13049 -23.535466,18.7235 -24.094922,18.7235 -0.165069,0 -3.07102,2.19626 -6.457647,4.88059 -6.0237,4.77453 -12.662541,10.0138 -16.522769,13.03951 -4.9612175,3.88871 -9.88988752,7.00747 -11.5432775,7.30437 -1.035821,0.18602 -3.649336,-0.032 -6.080473,-0.50717 -3.9010085,-0.76248 -4.4181075,-1.00726 -6.0771965,-2.8768 -1.675201,-1.88773 -1.888814,-1.98677 -2.803274,-1.29968 -0.752746,0.56558 -2.094376,0.69858 -5.600285,0.55515 -5.357091,-0.21918 -6.733039,-0.9188 -10.028561,-5.09925 -3.034765,-3.84967 -3.857541,-5.37631 -3.687658,-6.84238 0.115655,-0.99816 0.474499,-1.36741 1.43801,-1.47973 0.988145,-0.11524 2.55793,0.90718 6.814687,4.43823 5.88578,4.88236 6.321285,5.03419 9.140829,3.18676 1.007563,-0.66018 1.174033,-1.07801 0.909453,-2.28264 -0.599174,-2.72801 2.324166,-4.46984 4.379713,-2.60959 0.839064,0.75934 1.053232,0.70052 3.0684975,-0.84284 1.191555,-0.91254 3.302251,-2.82863 4.690428,-4.25799 1.388176,-1.42936 3.098284,-3.03772 3.800242,-3.5741 0.70195798,-0.5364 1.91922798,-2.08006 2.705049,-3.43037 1.193714,-2.05122 1.338469,-2.6533 0.879901,-3.65975 -0.692428,-1.51971 -1.35858102,-1.51084 -4.307973,0.0574 -1.305396,0.69409 -2.692604,1.26196 -3.082676,1.26196 -1.937385,0 -13.9429775,-13.92087 -16.0001785,-18.55273 l -0.953577,-2.14701 -2.625811,1.46876 c -3.991776,2.2328 -8.57857,4.96316 -9.575076,5.69967 -0.806322,0.59597 -0.335852,1.1428 4.910074,5.70703 3.191011,2.77636 6.122844,5.11657 6.515181,5.20046 0.392339,0.0839 1.47657,-0.31278 2.409406,-0.88149 2.029146,-1.23709 4.244372,-1.35061 4.670805,-0.23933 0.527625,1.37497 0.337171,3.23051 -0.497188,4.84398 l -0.803589,1.55396 2.872966,2.90327 c 1.915634,1.93583 2.673493,3.02654 2.274348,3.27323 -0.346317,0.21402 -1.271685,-0.24562 -2.195575,-1.09058 -3.894347,-3.5617 -3.553728,-3.43852 -6.100044,-2.20589 -2.782143,1.34683 -4.520868,1.21519 -4.744467,-0.35921 -0.08872,-0.62468 -0.372661,-1.13578 -0.630989,-1.13578 -0.817757,0 -0.509303,-1.55528 0.62414,-3.14705 l 1.093828,-1.53615 -1.792631,-1.57052 c -4.147792,-3.63393 -10.791562,-9.22387 -11.404707,-9.59571 -0.848581,-0.51463 -2.081498,-0.0153 -12.463123,5.05423 -4.719802,2.30446 -11.875223,6.33145 -15.900927,8.94884 -9.466604,6.1549 -12.584127,8.0956 -14.134179,8.79871 -0.694084,0.31484 -2.756267,1.23259 -4.582637,2.03941 -1.82635,0.80682 -4.66582,2.32945 -6.309892,3.38361 -3.577855,2.29409 -11.187826,6.67756 -14.347036,8.26413 -1.24937,0.62744 -2.49872,1.40803 -2.77636,1.73466 -1.33246,1.56758 -8.83385,4.24013 -8.83385,3.14726 z m 112.2422105,-1.6766 c 0.130918,-0.21185 -0.934656,-1.76419 -2.367967,-3.44968 -1.43331,-1.68547 -3.6942665,-4.59334 -5.0243485,-6.46193 -1.903482,-2.67412 -2.655749,-3.36364 -3.533541,-3.23879 -0.948341,0.13489 -1.08927,0.42298 -0.941799,1.92537 0.09538,0.97174 0.606477,2.71973 1.13578,3.88445 0.5293,1.16472 0.962366,2.46728 0.962366,2.89459 0,1.6032 2.773835,3.9696 5.0927205,4.34465 3.182576,0.51476 4.404919,0.54124 4.676789,0.1013 z m 8.907781,-3.63406 c 2.082265,-1.57413 4.859044,-3.5922 6.1706165,-4.48459 3.092471,-2.10408 7.503425,-5.9444 6.196778,-5.39512 -0.555272,0.23342 -2.372521,0.45857 -4.038333,0.50036 -2.772185,0.0694 -3.3066925,0.28125 -6.3098955,2.49971 -1.804629,1.33309 -4.076192,2.84405 -5.047916,3.35771 -0.97172402,0.51365 -2.67539602,1.73715 -3.785937,2.71891 l -2.019166,1.78499 1.437625,1.28457 c 1.82474598,1.63047 2.52528698,1.41579 7.396228,-2.26654 z m -25.7443735,-0.47189 c 0,-0.80438 -11.614964,-10.65262 -12.563649,-10.65262 -0.832269,0 -0.679611,1.61981 0.286762,3.04262 0.466236,0.68648 1.942908,2.52851 3.281499,4.09342 2.555148,2.98718 2.129681,2.79437 8.616795,3.90458 0.208225,0.0357 0.378593,-0.13889 0.378593,-0.388 z m 21.23029948,-2.9556 c 6.25197202,-4.19931 10.00633652,-7.31556 10.03860852,-8.3324 0.01545,-0.48826 1.277531,-2.24675 2.804527,-3.90774 1.824942,-1.98509 2.776352,-3.45394 2.776352,-4.28634 0,-0.69651 -0.118097,-1.26637 -0.262426,-1.26637 -0.931843,0 -12.9225315,8.20523 -18.3503335,12.55714 -2.640031,2.11673 -5.013592,3.99391 -5.274579,4.17153 -0.628603,0.42779 2.219241,3.96806 3.190884,3.9667 0.416453,-5e-4 2.70109,-1.3067 5.07696698,-2.90252 z m -15.69364448,1.26305 c -0.0088,-0.34706 -0.332187,-1.04817 -0.71857,-1.55805 -0.676335,-0.8925 -0.759647,-0.88481 -2.235688,0.20647 -0.843244,0.62344 -1.415107,1.32456 -1.270807,1.55805 0.429825,0.69546 4.243268,0.50909 4.225065,-0.20647 z m 8.7137745,-4.93646 c 1.269682,-0.84101 2.5858,-1.86321 2.924702,-2.27155 0.509587,-0.61403 0.429653,-0.74247 -0.462045,-0.74247 -0.593034,0 -1.52315,-0.27784 -2.06692,-0.61744 -0.858404,-0.53608 -1.223327,-0.39001 -2.769505,1.10861 -1.9092995,1.85056 -2.1283385,2.49294 -1.1750785,3.44621 0.8335315,0.83353 0.9371405,0.80657 3.5488465,-0.92336 z M 28.917004,149.85103 c 1.966506,-1.59642 3.716498,-2.90256 3.888859,-2.90256 0.491173,0 6.003589,-4.57549 6.45408,-5.3571 0.222021,-0.38522 0.676333,-0.70367 1.009582,-0.70767 0.333248,-0.004 2.196,-1.36259 4.13945,-3.0191 1.94345,-1.65651 6.14584,-4.99544 9.33864,-7.41984 9.8613,-7.48798 21.19428,-16.39289 21.50733,-16.89941 0.79749,-1.29037 -3.97104,0.43847 -7.12077,2.58162 -1.94344,1.32239 -3.77997,2.49462 -4.08116,2.60496 -0.3012,0.11027 -4.47576,3.04006 -9.2768,6.5105 -19.163978,13.85273 -23.744221,17.54124 -23.744221,19.12146 0,1.26093 -1.413956,2.77525 -7.982865,8.54943 -7.270619,6.39101 -3.088573,4.2085 5.867875,-3.06229 z m -51.699324,-1.17706 c 0.437477,-1.14005 0.395716,-1.2233 -0.450786,-0.89846 -0.416452,0.15988 -0.757187,0.60699 -0.757187,0.99373 0,0.95636 0.829528,0.89092 1.207973,-0.0952 z m 2.840487,-0.47571 c 0.351193,-0.42317 0.498073,-0.90985 0.326402,-1.08152 -0.366624,-0.36664 -1.850902,0.76241 -1.850902,1.40792 0,0.69532 0.822734,0.51917 1.5245,-0.3264 z m -2.756764,-1.97299 c 0.775406,-0.57231 0.850691,-0.8542 0.360806,-1.35101 -0.492884,-0.49984 -0.824845,-0.44157 -1.628671,0.28588 -1.640119,1.48429 -0.54573,2.40367 1.267865,1.06513 z m 2.746639,-3.59732 c 0,-0.43284 -0.227158,-0.64658 -0.504793,-0.475 -0.277634,0.17152 -0.504791,0.52573 -0.504791,0.78698 0,0.26126 0.227157,0.475 0.504791,0.475 0.277635,0 0.504793,-0.35414 0.504793,-0.78698 z m 3.525812,-0.40281 c -0.004,-0.31733 -0.194672,-0.87167 -0.423152,-1.23186 -0.564053,-0.88918 -1.821676,0.58055 -1.411473,1.64953 0.32401,0.84435 1.846886,0.49765 1.834625,-0.41767 z m 44.740267,-7.02572 c 1.142708,-0.89537 3.641425,-2.89274 5.552709,-4.43864 1.911281,-1.54587 6.712037,-5.16097 10.668345,-8.0335 3.9563,-2.87255 7.19328,-5.41262 7.19328,-5.64458 0,-0.64398 -4.17179,-0.502 -5.64248,0.19207 -0.71534,0.33758 -1.5679,1.35291 -1.89456,2.25627 -0.32666,0.90336 -1.11305,2.05083 -1.74755,2.54993 -0.63449,0.49908 -1.246951,1.14577 -1.361029,1.43707 -0.578053,1.4761 -6.540817,6.01793 -10.532847,8.02284 -2.486805,1.24895 -5.257784,2.71858 -6.15773,3.26589 l -1.636272,0.99508 1.235453,0.49339 c 1.834877,0.73278 2.062593,0.67506 4.322681,-1.09582 z m -7.831878,-0.93049 c 0.943744,-0.31049 2.8944,-1.10554 4.334793,-1.76677 1.440397,-0.66123 2.757454,-1.20223 2.926803,-1.20223 0.169342,0 1.55076,-0.79505 3.069809,-1.76679 1.519049,-0.97171 2.940114,-1.76676 3.15792,-1.76676 0.844133,0 6.736234,-6.58005 9.837207,-10.98577 l 1.86993,-2.65671 -8.45914,0.10474 c -8.309947,0.10302 -8.496966,0.12954 -10.604497,1.50384 -1.17995,0.76948 -2.145364,1.20732 -2.145364,0.97294 0,-0.23438 0.493086,-0.75353 1.095745,-1.15369 1.449152,-0.9622 0.799495,-1.91955 -1.302605,-1.91955 -1.981529,0 -4.841056,-0.9237 -4.841056,-1.56377 0,-0.55973 -0.469835,-0.59343 4.208938,0.30186 4.889522,0.93564 5.886893,0.94631 5.886893,0.063 0,-0.86623 -2.203495,-1.32507 -6.363534,-1.32507 -5.293119,0 -13.4773335,-2.19226 -17.8377185,-4.77808 -2.066456,-1.22547 -3.908865,-2.13438 -4.094244,-2.01981 -0.185388,0.11447 -1.06996202,1.74775 -1.96573402,3.62929 -1.85001598,3.8859 -2.85856598,5.18823 -4.01663698,5.18669 -0.442829,-5.2e-4 -2.059405,-0.66226 -3.59238,-1.47034 -2.7525955,-1.45102 -2.8216045,-1.46012 -5.5527095,-0.73234 -1.758012,0.46846 -3.730929,0.62309 -5.415631,0.42445 -1.65125,-0.19472 -2.650157,-0.12077 -2.650157,0.19643 0,0.98545 5.351538,6.55114 9.843437,10.23735 7.5760355,6.21711 8.4339345,6.81141 12.62047948,8.7426 2.22070402,1.02437 4.72969902,2.18976 5.57554302,2.58975 3.364532,1.59099 11.1837935,2.2174 14.4139095,1.15468 z m -46.996495,-10.86189 c 1.86893,-0.97916 2.752877,-1.74525 2.704528,-2.34386 -0.193028,-2.38977 -8.159149,-11.97409 -9.952392,-11.97409 -0.598979,0 -3.092635,0.68148 -5.54145,1.51438 -2.448816,0.8329 -4.688621,1.51437 -4.977348,1.51437 -0.288724,0 -1.280626,0.66348 -2.204227,1.47443 -1.037019,0.91051 -2.041307,1.37975 -2.62586,1.22687 -0.520623,-0.13622 -1.246012,0.11333 -1.611982,0.55422 -0.845688,1.019 -0.581075,1.32035 7.1559,8.14983 l 5.91519,5.22137 4.180644,-1.94147 c 2.299356,-1.0678 5.430003,-2.59602 6.956997,-3.39605 z m 1.617444,-8.63905 c -0.203057,-0.48586 -0.957711,-2.01916 -1.677014,-3.40734 -0.719302,-1.38817 -1.710092,-3.59667 -2.201755,-4.90778 -0.491666,-1.31109 -1.262993,-2.51006 -1.714064,-2.66433 -0.451073,-0.15435 -1.357027,-0.72896 -2.013231,-1.27705 -1.113877,-0.93038 -1.141545,-1.0752 -0.416731,-2.18141 0.752271,-1.148122 0.661807,-1.308652 -2.914823,-5.172991 -2.030151,-2.193463 -3.857719,-3.82811 -4.061266,-3.632572 -0.203542,0.195538 0.693916,2.012787 1.994356,4.038339 1.300439,2.025532 2.493711,4.315532 2.651716,5.088914 0.15801,0.77335 0.711585,1.63318 1.230178,1.91071 0.518596,0.27754 0.942899,0.78685 0.942899,1.13177 0,0.34495 0.683523,1.94459 1.518943,3.55477 2.167486,4.17764 8.030251,10.79575 6.660792,7.51897 z m -24.661513,-2.41391 c -0.400417,-1.04348 -0.681136,-0.92052 -0.681136,0.29835 0,0.57165 0.217236,0.90511 0.482747,0.74102 0.26551,-0.16408 0.354783,-0.63181 0.198389,-1.03937 z m -4.737228,-0.20306 c 0.854687,-1.59699 0.606326,-4.33366 -0.523672,-5.77021 -1.204316,-1.53103 -4.319239,-1.90059 -4.828729,-0.57286 -0.159804,0.41645 -0.634807,0.75718 -1.055551,0.75718 -0.601029,0 -0.638395,-0.15244 -0.174322,-0.7117 0.468562,-0.56459 0.353773,-0.87764 -0.555302,-1.51437 -2.548429,-1.78499 -4.248791,-0.55893 -1.930349,1.39189 1.583072,1.33208 1.258476,2.32335 -0.417956,1.2764 -1.178814,-0.73619 -2.361371,-0.33819 -3.100882,1.04365 -0.535941,1.0014 -0.431351,1.03809 2.959665,1.03809 2.522622,0 3.739241,-0.22398 4.308489,-0.79325 0.721131,-0.72112 0.793244,-0.72051 0.793244,0.008 0,1.05223 1.013379,2.79272 2.271563,3.90147 1.297808,1.14367 1.617327,1.13614 2.253804,-0.0532 z m 6.776888,-0.41178 c -0.351931,-1.49317 -1.206421,-2.74995 -1.206421,-1.7744 0,0.81923 0.93295,3.16259 1.259101,3.16259 0.15097,0 0.127274,-0.62469 -0.05268,-1.38819 z m 5.75741,-1.5879 c 1.031633,-0.52629 2.790065,-1.20312 3.907623,-1.50403 1.117558,-0.30093 2.418911,-0.83575 2.89189,-1.18848 0.801494,-0.5977 0.778112,-0.81292 -0.343858,-3.16525 -0.662101,-1.38819 -1.816792,-3.82092 -2.565972,-5.406082 -0.749187,-1.58516 -1.680463,-3.146275 -2.069499,-3.469144 -1.159951,-0.962675 -0.890403,1.899994 0.341845,3.630534 0.577061,0.8104 0.9572,1.749462 0.844757,2.086772 -0.118441,0.35531 -0.584241,0.0338 -1.10725,-0.76454 -0.496547,-0.757832 -1.307071,-1.377872 -1.801166,-1.377872 -0.880104,0 -7.628714,1.945632 -8.01598,2.311012 -0.108119,0.10207 0.433322,1.01133 1.203216,2.02071 1.561123,2.04674 1.336254,2.46371 -1.637614,3.03651 -1.160279,0.22349 -1.640573,0.59512 -1.640573,1.26941 0,1.14417 -0.133437,1.13381 2.523957,0.19622 2.918156,-1.02958 3.028749,-0.9958 3.028749,0.92545 0,0.92546 0.151428,1.83408 0.33653,2.01916 0.598582,0.5986 2.183755,0.35893 4.103345,-0.62038 z m 27.966261,-0.45501 c 0.23605,-0.23606 -0.03049,-0.84519 -0.592334,-1.35364 -1.140117,-1.03179 -1.297177,-2.33842 -0.46744,-3.8888 0.75497,-1.41068 -0.05535,-2.11409 -3.831591,-3.32615 -2.720798,-0.87327 -3.203227,-0.89809 -4.795522,-0.24659 -0.973718,0.39842 -2.103017,1.04525 -2.509556,1.43741 -0.64722,0.62434 -0.63152,0.71303 0.126205,0.71303 0.475948,0 0.865359,0.34382 0.865359,0.76403 0,0.42023 0.19031,1.15848 0.422914,1.64058 0.232604,0.4821 0.743705,1.53874 1.135782,2.3481 0.429819,0.88725 1.414377,1.73525 2.479638,2.13565 1.826881,0.68668 6.398906,0.54403 7.166553,-0.22362 z m 11.3685995,-1.33927 c 1.279807,-1.97614 2.98731598,-6.77604 3.458327,-9.721572 0.299761,-1.8746 0.197768,-2.09614 -1.62437402,-3.528404 -2.44021798,-1.918081 -4.88377698,-3.180903 -6.15505998,-3.180903 -1.297723,0 -2.666718,3.40981 -2.812825,7.006037 -0.07574,1.864552 -0.37607,2.909622 -0.9585045,3.335522 -0.466498,0.34111 -0.984101,1.29977 -1.150219,2.13037 -0.276928,1.38464 -0.09875,1.63184 2.1436185,2.97405 2.803861,1.67832 4.746697,2.62916 5.474406,2.67926 0.277636,0.0191 1.00872,-0.74334 1.624631,-1.69436 z m -8.6619975,-0.0412 c -0.538925,-0.40764 -1.220395,-0.73392 -1.514375,-0.72509 -0.293981,0.01 -0.09356,0.34956 0.445357,0.75718 0.538926,0.40764 1.220394,0.73392 1.514374,0.72509 0.293981,-0.01 0.09356,-0.34956 -0.445356,-0.75718 z m -41.491985,-3.9429 c -0.82062,-1.10914 -2.707002,-2.16805 -2.707002,-1.51956 0,0.12763 0.619653,1.00869 1.377003,1.95786 1.576064,1.97522 2.813879,1.5673 1.329999,-0.4383 z m 1.851102,-1.3134 c -0.305411,-0.57066 -0.905309,-1.03758 -1.33311,-1.03758 -0.60774,0 -0.521067,0.31419 0.396351,1.43686 1.263368,1.54599 1.84513,1.29802 0.936759,-0.39928 z m 23.997212,-2.07094 c 2.38399,-1.640232 3.75135,-3.709862 3.75135,-5.678023 0,-0.664837 0.478866,-1.641535 1.064146,-2.170416 1.350565,-1.220467 3.611932,-5.638436 3.214888,-6.280874 -0.666831,-1.078941 -2.083099,-0.364347 -3.395648,1.713347 -0.763498,1.208562 -1.388179,2.407031 -1.388179,2.663259 0,0.256227 -0.454313,0.854861 -1.009582,1.330303 -0.555272,0.475442 -1.009584,1.207398 -1.009584,1.626558 0,0.419179 -0.177356,0.762138 -0.394121,0.762138 -0.216767,0 -0.659691,0.624676 -0.984268,1.388166 -0.324581,0.7635 -1.332893,2.25257 -2.240689,3.30904 -1.367622,1.591602 -1.523386,2.001282 -0.908702,2.390032 0.982698,0.62149 0.764628,0.69111 3.300389,-1.05355 z m 12.963798,-1.012432 c -1.84933,-1.66101 -1.983236,-2.38961 -0.844037,-4.592577 l 0.796535,-1.540341 1.199637,1.127 1.199633,1.127001 1.219431,-2.716546 c 0.6706865,-1.494113 2.3847055,-4.280906 3.8089355,-6.192882 3.841061,-5.156544 3.390085,-7.367465 -0.82063,-4.023172 -3.8930845,3.092015 -4.1190735,3.048096 -0.688964,-0.133933 3.622268,-3.360243 3.649284,-3.20393 -0.948822,-5.489659 -1.5269965,-0.759086 -4.0799335,-2.262528 -5.6731975,-3.340992 -1.593263,-1.078483 -3.102268,-1.960875 -3.353336,-1.960875 -0.251073,0 -0.58044,-0.322984 -0.731922,-0.717761 -0.731469,-1.906157 -8.121055,-4.539061 -11.047674,-3.936249 -1.318759,0.271624 -1.660997,2.960619 -1.620306,12.730689 0.03812,9.152872 0.526003,15.648534 1.175336,15.648534 0.324829,0 2.165512,-2.932516 5.826756,-9.283027 l 0.981385,-1.702224 -1.486178,-1.306112 c -0.817398,-0.718352 -1.770122,-1.313285 -2.117166,-1.322061 -0.347044,-0.0095 -0.630989,-0.264069 -0.630989,-0.567325 0,-0.303257 -0.428119,-1.095635 -0.951382,-1.760853 -1.449418,-1.842625 -1.791782,-5.348744 -0.810721,-8.302457 0.456343,-1.373917 1.072435,-2.648034 1.369096,-2.83138 0.546696,-0.337885 0.50872,-0.0517 -0.528294,3.981217 -0.573474,2.230209 -0.04594,5.053558 1.289622,6.901829 2.327448,3.22093 9.388604,5.061685 12.749608,3.32365 l 1.457587,-0.753762 -0.722357,1.384753 c -0.397297,0.761605 -0.723756,1.893146 -0.725467,2.514559 -0.0025,0.850053 -0.266776,1.100061 -1.067921,1.00959 -1.498333,-0.169229 -4.135048,4.42125 -2.973521,5.176825 0.416453,0.270918 1.268288,0.496047 1.892968,0.500302 1.37116,0.0095 1.507474,1.358253 0.36125,3.574799 -0.646412,1.25002 -0.933183,1.41288 -1.733586,0.98452 -0.527477,-0.28229 -1.672112,-0.51325 -2.543625,-0.51325 -1.218244,0 -1.546454,0.19794 -1.419687,0.85619 0.109932,0.5708 1.258073,1.17333 3.444361,1.8075 1.803706,0.523202 3.724943,1.384742 4.269416,1.914542 0.692606,0.67391 1.147473,0.80317 1.514375,0.43032 0.364646,-0.37057 0.02459,-0.98189 -1.116149,-2.006462 z m 2.397759,-0.75563 c 0,-0.85122 -1.632096,-3.242911 -2.040666,-2.990385 -0.717509,0.443445 -0.587985,1.305905 0.352133,2.344715 0.802555,0.88682 1.688533,1.2256 1.688533,0.64567 z m -20.890014,-4.644225 c -0.712862,-4.143712 -0.929831,-16.711907 -0.37547,-21.749458 0.489225,-4.445632 0.45511,-5.67787 -0.230563,-8.329071 -0.442602,-1.711344 -0.904254,-3.212364 -1.025898,-3.335593 -0.482627,-0.488969 -7.246416,7.335584 -7.253442,8.390982 -0.004,0.60491 0.764431,1.918138 1.70768,2.918265 1.831076,1.941509 1.72091,2.507633 -0.74478,3.827233 -0.533621,0.285589 -0.970219,0.982307 -0.970219,1.548278 0,1.683775 2.487041,8.633873 3.814977,10.661027 0.678117,1.035194 1.232939,2.155096 1.232939,2.488707 0,0.810465 3.161429,5.443055 3.725785,5.459575 0.244557,0.008 0.2981,-0.838819 0.118995,-1.879945 z m 15.337307,0.418702 c 0,-1.205128 -2.504191,-1.870747 -4.008727,-1.065548 -1.622244,0.868216 -1.232656,1.454754 1.106176,1.665402 1.179949,0.106269 2.315731,0.232913 2.523957,0.281431 0.208227,0.04846 0.378594,-0.348073 0.378594,-0.881285 z m -55.478888,-2.577042 c 2.610982,-0.703071 4.999717,-2.96951 4.999717,-4.743719 0,-1.820817 -0.773509,-1.622188 -1.323111,0.339755 -0.377301,1.346806 -1.018365,1.911766 -3.579991,3.154955 -2.971056,1.441895 -4.913539,2.784161 -3.078927,2.127547 0.468497,-0.167702 1.810534,-0.563014 2.982312,-0.878538 z m 2.312782,-3.809872 c 0.855338,-1.169755 0.856025,-2.234654 0.0015,-2.234654 -0.901528,0 -4.957725,3.514514 -4.643326,4.023229 0.375317,0.607257 3.876418,-0.741762 4.641857,-1.788575 z m 31.705756,1.172694 c -0.179913,-0.624695 -0.737273,-2.04442 -1.238555,-3.154955 -0.501279,-1.110536 -1.200381,-2.984583 -1.553557,-4.164527 -0.353173,-1.179962 -0.81699,-2.145366 -1.030699,-2.145366 -0.213714,0 -0.547149,1.269252 -0.740974,2.820544 l -0.352405,2.820562 2.442469,2.47976 c 1.343361,1.363862 2.52311,2.479759 2.621665,2.479759 0.09854,0 0.032,-0.511101 -0.147936,-1.135777 z m -2.68009,-27.599456 c 1.849921,-1.455136 4.649989,-7.263219 4.256812,-8.829755 -0.292895,-1.166989 -2.122336,-2.686687 -2.62689,-2.182131 -0.117258,0.117335 -0.693039,2.123292 -1.279491,4.457824 -0.586452,2.334532 -1.379675,4.858 -1.762717,5.607718 -1.150668,2.252131 -0.663099,2.578854 1.412286,0.946344 z m -23.940972,52.630921 c 0.347052,-0.14004 0.914942,-0.14004 1.261988,0 0.347044,0.14003 0.06309,0.2546 -0.630991,0.2546 -0.69409,0 -0.978039,-0.11466 -0.630997,-0.2546 z m 9.969643,-39.544242 c -0.171594,-0.277634 -0.07141,-0.504785 0.222603,-0.504785 0.29402,0 0.534584,0.227151 0.534584,0.504785 0,0.277653 -0.100163,0.504805 -0.222603,0.504805 -0.122428,0 -0.362996,-0.227152 -0.534584,-0.504805 z m 36.374715,-11.846542 c 0.538925,-0.407617 1.19365,-0.748364 1.454941,-0.757178 0.261291,-0.0095 0.03413,0.317451 -0.504791,0.725068 -0.538927,0.407618 -1.193652,0.748364 -1.454941,0.757197 -0.261291,0.0095 -0.03413,-0.31747 0.504791,-0.725087 z m -33.093569,-2.792402 c 0,-0.277634 0.364373,-0.504805 0.809721,-0.504805 0.445347,0 2.162189,-1.382178 3.815209,-3.071524 2.203138,-2.251539 3.233499,-2.977027 3.859602,-2.717576 0.588673,0.243941 0.658016,0.427192 0.223122,0.589629 -0.347044,0.129544 -0.630989,0.5575 -0.630989,0.950808 0,0.393327 -0.260387,0.715128 -0.578643,0.715128 -0.31825,0 -1.671456,1.022201 -3.007118,2.271572 -2.236364,2.09185 -4.490904,2.978802 -4.490904,1.766768 z m 38.406229,-0.668271 c 0.115674,-0.08986 1.005377,-0.676571 1.977101,-1.303689 l 1.7667715,-1.140222 -1.5143755,1.30119 c -0.832905,0.715643 -1.722602,1.302314 -1.977103,1.303688 -0.254495,0.0014 -0.368072,-0.07097 -0.252394,-0.161025 z M -53.773,59.403227 c 0,-0.11886 1.362938,-1.252824 3.02875,-2.519671 3.694298,-2.809536 4.044185,-2.306925 0.436836,0.627518 -2.327276,1.893165 -3.465586,2.514654 -3.465586,1.892153 z m 51.9935405,-7.540909 c 0,-0.350553 4.131148,-2.918895 4.347307,-2.702733 0.118994,0.119052 -0.69203,0.817486 -1.80226402,1.552189 -1.93176198,1.27839 -2.54504298,1.555623 -2.54504298,1.150544 z m 5.300313,-3.207804 C 4.0337005,48.15612 13.724805,41.637678 19.077545,38.19076 c 1.615293,-1.040172 3.019664,-1.808473 3.120823,-1.707318 0.101156,0.101118 -3.910626,2.906226 -8.915077,6.233482 -8.4173715,5.596367 -11.0739275,7.212107 -9.7624375,5.93759 z"
         id="path169"
         inkscape:connector-curvature="0" />
    </g>
  </g>
</svg>
