<?xml version="1.0" encoding="UTF-8" standalone="no"?>
<!-- Created with Inkscape (http://www.inkscape.org/) -->

<svg
   xmlns:dc="http://purl.org/dc/elements/1.1/"
   xmlns:cc="http://creativecommons.org/ns#"
   xmlns:rdf="http://www.w3.org/1999/02/22-rdf-syntax-ns#"
   xmlns:svg="http://www.w3.org/2000/svg"
   xmlns="http://www.w3.org/2000/svg"
   xmlns:sodipodi="http://sodipodi.sourceforge.net/DTD/sodipodi-0.dtd"
   xmlns:inkscape="http://www.inkscape.org/namespaces/inkscape"
   width="210mm"
   height="157.32457mm"
   viewBox="0 0 210.00001 157.32456"
   version="1.1"
   id="svg8"
   inkscape:version="0.92.3 (2405546, 2018-03-11)"
   sodipodi:docname="strikes.svg">
  <defs
     id="defs2" />
  <sodipodi:namedview
     id="base"
     pagecolor="#ffffff"
     bordercolor="#666666"
     borderopacity="1.0"
     inkscape:pageopacity="0.0"
     inkscape:pageshadow="2"
     inkscape:zoom="0.7"
     inkscape:cx="88.947811"
     inkscape:cy="305.15458"
     inkscape:document-units="mm"
     inkscape:current-layer="layer1"
     showgrid="false"
     fit-margin-top="0"
     fit-margin-left="0"
     fit-margin-right="0"
     fit-margin-bottom="0"
     inkscape:window-width="1920"
     inkscape:window-height="1017"
     inkscape:window-x="-8"
     inkscape:window-y="-8"
     inkscape:window-maximized="1" />
  <metadata
     id="metadata5">
    <rdf:RDF>
      <cc:Work
         rdf:about="">
        <dc:format>image/svg+xml</dc:format>
        <dc:type
           rdf:resource="http://purl.org/dc/dcmitype/StillImage" />
        <dc:title></dc:title>
      </cc:Work>
    </rdf:RDF>
  </metadata>
  <g
     inkscape:label="Layer 1"
     inkscape:groupmode="layer"
     id="layer1"
     transform="translate(-244.21792,541.23175)">
    <path
       style="fill:#000000;stroke-width:0.86604708"
       d="m 442.00126,-385.83447 c -2.09946,-1.52216 -4.6992,-2.42698 -7.93157,-2.76059 -7.16766,-0.73976 -7.88784,-2.12372 -9.05914,-17.40858 -0.95854,-12.508 -1.70101,-14.90549 -4.61613,-14.90549 -2.12117,0 -2.36293,1.18314 -3.05296,14.9393 -0.32851,6.54948 -0.91092,11.90815 -1.29418,11.90815 -0.3833,0 -0.81786,1.39168 -0.96571,3.0926 -0.34359,3.95313 -4.01605,6.61903 -6.75867,4.90624 -2.06362,-1.28875 -5.75885,-1.40495 -6.50083,-0.20458 -0.88676,1.43486 -4.47103,0.98004 -7.81217,-0.99124 l -3.14788,-1.85734 1.79338,-1.79335 c 0.98636,-0.98636 3.45236,-2.4369 5.48,-3.22343 4.46023,-1.73007 5.59071,-3.73762 6.27545,-11.14413 0.28837,-3.12007 0.89569,-6.34955 1.34946,-7.17667 0.45377,-0.82712 0.82502,-2.68802 0.82502,-4.13539 0,-2.23108 -0.39534,-2.71061 -2.59814,-3.15116 l -2.59814,-0.51962 v -14.68118 -14.68118 l -2.38162,-2.36649 c -1.30989,-1.30158 -4.2782,-2.89385 -6.59625,-3.53835 -5.16702,-1.4367 -9.20912,-4.67361 -9.20912,-7.37466 0,-2.60469 4.78968,-11.68776 6.96757,-13.21319 0.93107,-0.6522 1.69292,-1.61542 1.69292,-2.14054 0,-0.5251 1.57149,-3.03621 3.49223,-5.58017 l 3.49223,-4.62547 h 5.60125 5.60125 v -2.59565 c 0,-1.75001 -0.98751,-3.68869 -3.03116,-5.95077 -2.3915,-2.64714 -3.03116,-4.08053 -3.03116,-6.79254 0,-4.16584 4.36389,-13.32615 7.53783,-15.82276 4.50759,-3.54571 16.1054,-1.69381 19.7829,3.15885 0.71871,0.94842 1.21483,3.75393 1.2313,6.96276 0.0229,4.35375 -0.39201,5.99839 -2.18175,8.66049 -1.21507,1.80736 -2.95899,3.87072 -3.87537,4.5852 -0.91634,0.71448 -1.77335,2.27337 -1.90444,3.46418 -0.22847,2.07432 -0.003,2.18329 5.39094,2.59814 5.09449,0.39191 6.26523,0.8789 12.3228,5.12594 6.91226,4.84627 11.06048,9.82374 11.06048,13.27155 0,1.08882 -1.9486,4.38796 -4.33025,7.33136 -2.38162,2.9434 -4.33021,5.75427 -4.33021,6.24634 0,0.49207 -0.97432,1.53306 -2.16513,2.31334 -1.19081,0.78024 -2.16512,1.95838 -2.16512,2.61807 0,0.65973 -0.37145,1.19948 -0.82542,1.19948 -0.45396,0 -1.48347,1.38678 -2.28777,3.0817 -1.09585,2.30938 -1.21457,3.32952 -0.47367,4.07042 0.63082,0.63082 0.98872,4.74182 0.98872,11.35641 0,8.18145 -0.2851,10.68274 -1.35221,11.86186 -1.07144,1.18393 -1.22806,2.59169 -0.75419,6.78004 0.32893,2.90724 0.93742,5.28587 1.35221,5.28587 0.41482,0 0.75419,0.6088 0.75419,1.35287 0,0.74408 0.62899,3.27587 1.39774,5.62623 1.4857,4.54225 6.11869,9.47582 8.89849,9.47582 1.64504,0 6.15865,3.67963 6.15865,5.02071 0,1.50396 -3.28748,3.71959 -6.17141,4.15925 -2.23927,0.3414 -3.65187,-0.0838 -6.04524,-1.81881 z m -29.5268,-36.97996 c 0.8083,-0.80833 1.03926,-0.76983 1.03926,0.17316 0,0.94305 0.23109,0.98151 1.03925,0.17315 0.67302,-0.67301 4.16492,-1.03925 9.90842,-1.03925 5.47383,0 9.09283,-0.36186 9.45338,-0.94522 1.02446,-1.65764 0.65799,-27.11 -0.39538,-27.46115 -0.52395,-0.17479 -0.95265,-0.82509 -0.95265,-1.44544 0,-0.62034 -0.58218,-2.24417 -1.29371,-3.60852 -1.76956,-3.39292 -1.64795,-4.22145 0.8607,-5.86518 1.92873,-1.26376 2.16368,-2.00741 2.15186,-6.81146 -0.007,-2.96606 -0.35685,-5.93542 -0.7768,-6.59861 -0.62768,-0.99124 -3.27352,-1.09808 -14.87152,-0.60054 -7.7594,0.33288 -14.42482,0.80106 -14.81204,1.04037 -1.20986,0.74774 -0.85465,13.31443 0.37848,13.38988 4.54864,0.27855 5.77791,1.42497 5.36758,5.0064 -0.54061,4.71878 -1.4477,6.26804 -3.96456,6.7714 l -2.48558,0.49711 v 12.25675 c 0,14.06073 0.69917,16.10631 5.50521,16.10631 1.54485,0 3.27649,-0.46768 3.8481,-1.03925 z m -12.12467,-40.70422 c 1.30079,-1.30079 1.34815,-3.86391 0.0858,-4.64406 -0.52437,-0.32405 -1.7433,0.20065 -2.70874,1.16613 -1.50763,1.50763 -1.58697,1.94555 -0.56219,3.1033 1.46128,1.6509 1.86173,1.698 3.18507,0.37463 z m 40.01138,-5.08254 c 0,-0.327 -0.58457,-1.07965 -1.29906,-1.67263 -1.11725,-0.92725 -1.29522,-0.60873 -1.27152,2.27559 0.0262,3.13676 0.10965,3.24497 1.29905,1.6726 0.69933,-0.92459 1.27153,-1.94863 1.27153,-2.27556 z m -194.24193,80.93184 c -1.12263,-1.12263 -0.64434,-2.97421 0.8969,-3.47204 1.3875,-0.44817 5.71162,-2.29258 8.85414,-3.77661 0.71438,-0.33737 1.76277,-3.00654 2.38138,-6.06297 0.60785,-3.00317 1.46943,-5.89921 1.91466,-6.43567 0.44519,-0.53645 1.65875,-4.27889 2.69676,-8.3165 1.03798,-4.03762 2.19213,-7.73083 2.56472,-8.20715 0.65416,-0.83632 2.59,-11.85146 2.59,-14.73745 0,-1.02688 -0.65338,-1.34645 -2.38214,-1.16511 -3.19178,0.33482 -4.54625,-0.64054 -4.54625,-3.27377 0,-3.04419 -1.91338,-2.15531 -2.81018,1.30547 -0.82866,3.19796 -2.67291,4.27388 -4.59355,2.67987 -1.09664,-0.91009 -1.72412,-0.70718 -3.71707,1.2022 -2.72629,2.61195 -3.81573,2.8276 -5.29294,1.04764 -0.82895,-0.9988 -0.58961,-1.90792 1.19303,-4.53126 1.22649,-1.805 2.23,-3.96963 2.23,-4.81033 0,-0.84074 1.36403,-3.0384 3.03116,-4.88373 1.66716,-1.84529 3.03119,-3.76256 3.03119,-4.26055 0,-0.49796 0.2923,-1.03533 0.64951,-1.19409 1.65345,-0.73487 4.13094,-6.80799 4.53398,-11.11428 0.42081,-4.4962 0.58728,-4.7794 2.96929,-5.05098 1.71626,-0.19574 3.93713,-1.78265 6.94273,-4.96101 2.71152,-2.86739 5.41765,-4.8737 7.00302,-5.19196 1.42108,-0.28542 3.33936,-1.07251 4.26285,-1.74939 1.64228,-1.2037 1.63155,-1.28281 -0.49178,-3.61376 -4.52945,-4.97243 -5.4296,-7.25149 -5.2169,-13.20874 0.11063,-3.09613 0.57527,-5.75922 1.03274,-5.918 0.45747,-0.15875 0.83177,-1.08148 0.83177,-2.0505 0,-0.96897 1.51306,-3.27482 3.36231,-5.1241 3.02298,-3.02298 3.80617,-3.36228 7.76068,-3.36228 3.40945,0 4.79544,0.42614 6.16421,1.89537 0.97121,1.04246 1.76586,2.36194 1.76586,2.93218 0,0.57023 0.58218,2.15304 1.29371,3.5174 1.66527,3.19295 1.68429,11.91937 0.0327,14.90467 -0.69956,1.26433 -1.87093,3.81308 -2.60305,5.6639 -1.23091,3.11175 -1.21667,3.45204 0.18919,4.51921 0.83628,0.63472 1.98948,1.16646 2.56272,1.18161 0.57322,0.0164 2.81412,1.82484 4.97976,4.02158 3.29178,3.33901 3.93756,4.5379 3.93756,7.31028 0,1.82392 0.34654,3.53043 0.77009,3.79219 0.42356,0.26186 1.03514,1.55139 1.35906,2.86576 0.32405,1.31441 2.01187,4.923 3.75104,8.01914 1.73918,3.09613 3.22356,6.66302 3.29862,7.92643 0.075,1.26341 0.76862,3.56418 1.54118,5.11282 0.77255,1.54863 1.40465,3.12791 1.40465,3.50944 0,1.35005 -6.01977,1.88569 -7.48894,0.6664 -0.77844,-0.64604 -3.92472,-1.27355 -7.03895,-1.40386 l -5.6313,-0.23567 0.5754,6.71847 c 0.80957,9.45252 2.31772,20.26135 3.11253,22.30736 0.37008,0.95264 1.0807,4.39738 1.57918,7.65498 1.02895,6.72407 2.17305,8.36322 7.33984,10.51574 7.81446,3.25554 7.70791,3.17207 6.19063,4.84863 -1.97979,2.18764 -4.80588,2.64328 -9.58306,1.54494 -2.31612,-0.53252 -6.35462,-1.01608 -8.9744,-1.07461 -4.60942,-0.1031 -4.77272,-0.18952 -5.05543,-2.67601 -0.16072,-1.41329 -1.03759,-3.09168 -1.94863,-3.7298 -0.91101,-0.63812 -1.65384,-2.01498 -1.65067,-3.0597 0.01,-2.8311 -2.64907,-17.27769 -3.47174,-18.87186 -0.39266,-0.76093 -1.22609,-3.5864 -1.85207,-6.27884 -1.70029,-7.31329 -2.99564,-6.41092 -5.93532,4.13457 -1.05251,3.77563 -2.23726,7.47797 -2.63274,8.22744 -1.02001,1.93286 -3.43481,12.56336 -3.43481,15.12065 0,1.56343 -0.52729,2.21831 -1.94863,2.42017 -1.37149,0.19476 -1.88546,0.78971 -1.73538,2.00883 0.11718,0.95264 -0.0776,2.16348 -0.43302,2.69074 -0.73295,1.08727 -21.14277,2.50548 -22.11178,1.53646 z m 42.53934,-55.82232 c 0.15875,-0.44042 2.88684,-0.80604 6.06235,-0.81255 10.2727,-0.0196 9.67085,0.78623 9.67085,-12.97166 0,-15.91997 -0.31129,-17.32819 -3.83226,-17.32819 -1.51234,0 -3.11993,0.34409 -3.57245,0.76463 -0.4525,0.42055 -5.10968,0.98944 -10.34927,1.26423 -19.43989,1.01949 -23.81076,1.58294 -23.88673,3.07928 -0.24156,4.75698 0.22684,22.66276 0.65652,25.10258 l 0.51609,2.93021 12.2231,-0.61393 c 6.72273,-0.33764 12.35304,-0.97422 12.5118,-1.4146 z m 63.07711,43.65634 c -1.42062,-1.42059 -0.37636,-3.76866 2.23727,-5.03073 5.90379,-2.85073 6.71798,-3.99919 8.02129,-11.31411 1.31421,-7.3762 1.71214,-19.46922 0.6392,-19.425 -1.31192,0.054 -6.13446,7.43692 -7.05388,10.79884 -0.52107,1.90529 -0.94957,5.51857 -0.95222,8.02948 -0.003,3.91572 -0.28707,4.69397 -1.98893,5.46933 -1.09127,0.49721 -2.35785,1.75545 -2.81467,2.79608 -0.76499,1.74274 -1.53116,1.91158 -9.70754,2.1389 -8.16319,0.22684 -8.87698,0.38363 -8.87698,1.9486 0,0.93599 -0.44251,1.7018 -0.98335,1.7018 -0.72548,0 -0.82097,-6.64306 -0.36405,-25.33187 l 0.61933,-25.33188 -1.98932,-0.86606 c -1.09411,-0.47633 -2.21507,-1.84036 -2.49107,-3.03116 -0.56866,-2.45386 1.1477,-6.51413 3.06461,-7.24973 1.01952,-0.39122 1.27781,-2.42151 1.27781,-10.04403 v -9.5537 h -7.26874 c -5.01805,0 -7.39623,-0.33521 -7.68045,-1.08256 -0.38356,-1.00855 -0.78898,-16.55819 -0.9879,-37.88956 l -0.0848,-9.09351 8.44394,-0.24778 8.44397,-0.24779 v -2.92897 c 0,-6.47619 2.36613,-7.80585 2.7672,-1.55505 l 0.26383,4.11372 h 8.57054 c 7.76696,0 8.63418,0.16235 9.24916,1.7321 0.37321,0.95265 0.70597,7.06773 0.73945,13.58913 0.0354,6.90164 0.42281,12.08071 0.92692,12.39229 0.49184,0.30408 0.86604,4.62238 0.86604,9.99414 0,11.06411 0.95314,10.23277 -12.12464,10.57541 l -8.22747,0.21571 -0.28314,2.59814 c -0.15581,1.42897 -0.6429,2.96835 -1.08256,3.42088 -0.43966,0.45249 -0.79939,3.4103 -0.79939,6.57284 0,5.32306 0.16399,5.82485 2.20836,6.75632 4.55394,2.07491 17.7107,-1.30033 17.7107,-4.5435 0,-1.79718 6.70895,-8.30934 8.56043,-8.30934 2.24355,0 2.24767,-0.18658 0.13191,-5.97476 -1.28884,-3.52617 -1.4784,-5.06549 -0.78362,-6.36369 0.50405,-0.94181 0.72657,-2.7056 0.49453,-3.91952 -1.17857,-6.16529 3.30218,-9.39393 12.03236,-8.66995 6.90364,0.57252 8.14381,2.07956 8.14381,9.89641 0,6.60774 -0.38316,7.51217 -5.09059,12.01567 l -2.05943,1.97023 2.05943,1.08548 c 2.96629,1.56346 3.33047,2.42564 3.34523,7.91995 0.007,2.71077 0.403,5.16951 0.87933,5.4639 0.47632,0.29427 0.86603,2.37684 0.86603,4.62766 0,3.62869 -0.29426,4.26629 -2.59814,5.62714 -1.73128,1.02273 -2.59814,2.22375 -2.59814,3.59982 0,1.13575 -0.36719,2.29199 -0.81599,2.56937 -1.74402,1.07785 -2.72639,16.08592 -1.90107,29.04351 0.49495,7.77128 0.38742,10.11168 -0.48941,10.6521 -0.61806,0.38091 -1.12374,1.25254 -1.12374,1.93698 0,0.68443 -1.26662,1.85514 -2.81467,2.60154 -1.54805,0.74643 -4.1787,2.11508 -5.84583,3.04147 -2.91748,1.62111 -9.48725,2.30362 -10.68123,1.1096 z m -14.86716,-12.41334 c 0.29426,-0.47633 1.25693,-0.86604 2.13897,-0.86604 1.88405,0 4.15473,-4.42124 6.97562,-13.58215 1.38864,-4.50975 3.04284,-7.55404 6.01427,-11.06826 3.86548,-4.57168 6.08932,-9.38009 6.08932,-13.16642 0,-0.92122 0.46765,-2.14257 1.03926,-2.71418 0.80829,-0.80829 0.80829,-1.27021 0,-2.07851 -0.57161,-0.57157 -1.03926,-2.32535 -1.03926,-3.8972 0,-3.05692 -1.29575,-3.86505 -2.10565,-1.31326 -0.75978,2.39383 -5.3548,4.65522 -12.05213,5.93133 -4.66661,0.88918 -6.25413,0.9223 -6.73727,0.14042 -0.48434,-0.78368 -1.1527,-0.78555 -2.85924,-0.007 -2.12863,0.96987 -2.22788,1.33156 -2.24372,8.17818 -0.01,3.93992 -0.25859,12.87831 -0.55429,19.86309 -0.2959,6.98479 -0.30049,13.31774 -0.01,14.07327 0.58012,1.51172 4.4944,1.88346 5.34472,0.50759 z m 14.16511,-74.99171 c 0.95592,-0.30147 1.07301,-3.06776 0.62942,-14.86874 -0.29983,-7.97402 -0.77475,-17.94084 -1.05556,-22.14847 l -0.51056,-7.65027 -6.61419,0.22422 c -7.89462,0.26775 -9.64538,0.97922 -9.64538,3.9203 0,2.93928 -2.07678,2.24198 -2.43916,-0.81896 -0.27103,-2.28813 -0.35207,-2.31484 -7.03883,-2.31484 -4.76552,0 -7.06439,0.36097 -7.77851,1.22141 -1.16142,1.39944 -0.46173,36.05081 0.78849,39.04976 0.39717,0.95265 0.94377,2.42374 1.2147,3.26909 0.45587,1.42239 1.64032,1.49788 15.8839,1.01199 8.46521,-0.2887 15.91977,-0.69176 16.56568,-0.89552 z"
       id="path203"
       inkscape:connector-curvature="0"
       sodipodi:nodetypes="cccscsccccccccssccccccscsccccscscccccccsscscsscssccsscssccccscsccsccccccccccssccccccccscccscccccccscscccccscscscccccccscscsccscccsccscssccccscccccccccsccscccccccssccccccccccccccccsssccccscscccccsccssccsccccscssccccscccccscscccscccccsccsscscsccccccccccccscscccccc" />
  </g>
</svg>
