<?xml version="1.0" encoding="UTF-8" standalone="no"?>
<!-- Created with Inkscape (http://www.inkscape.org/) -->

<svg
   xmlns:dc="http://purl.org/dc/elements/1.1/"
   xmlns:cc="http://creativecommons.org/ns#"
   xmlns:rdf="http://www.w3.org/1999/02/22-rdf-syntax-ns#"
   xmlns:svg="http://www.w3.org/2000/svg"
   xmlns="http://www.w3.org/2000/svg"
   xmlns:sodipodi="http://sodipodi.sourceforge.net/DTD/sodipodi-0.dtd"
   xmlns:inkscape="http://www.inkscape.org/namespaces/inkscape"
   width="210mm"
   height="142.1006mm"
   viewBox="0 0 210.00002 142.1006"
   version="1.1"
   id="svg8"
   inkscape:version="0.92.3 (2405546, 2018-03-11)"
   sodipodi:docname="protest.svg">
  <defs
     id="defs2" />
  <sodipodi:namedview
     id="base"
     pagecolor="#ffffff"
     bordercolor="#666666"
     borderopacity="1.0"
     inkscape:pageopacity="0.0"
     inkscape:pageshadow="2"
     inkscape:zoom="0.7"
     inkscape:cx="88.947814"
     inkscape:cy="276.38479"
     inkscape:document-units="mm"
     inkscape:current-layer="layer1"
     showgrid="false"
     fit-margin-top="0"
     fit-margin-left="0"
     fit-margin-right="0"
     fit-margin-bottom="0"
     inkscape:window-width="1920"
     inkscape:window-height="1017"
     inkscape:window-x="-8"
     inkscape:window-y="-8"
     inkscape:window-maximized="1" />
  <metadata
     id="metadata5">
    <rdf:RDF>
      <cc:Work
         rdf:about="">
        <dc:format>image/svg+xml</dc:format>
        <dc:type
           rdf:resource="http://purl.org/dc/dcmitype/StillImage" />
        <dc:title></dc:title>
      </cc:Work>
    </rdf:RDF>
  </metadata>
  <g
     inkscape:label="Layer 1"
     inkscape:groupmode="layer"
     id="layer1"
     transform="translate(-244.21791,533.61977)">
    <path
       style="fill:#000000;stroke-width:0.72944665"
       d="m 393.89888,-392.04247 c -0.45355,-0.29478 -1.04613,-3.32606 -1.31686,-6.73623 -0.27074,-3.41017 -0.77873,-6.85679 -1.12887,-7.65918 -0.35013,-0.80238 -0.83922,-2.68983 -1.08688,-4.19433 -0.42633,-2.59009 -0.59385,-2.73488 -3.15264,-2.72545 -3.69587,0.0138 -5.98487,0.70793 -5.98487,1.8154 0,0.50916 -1.47713,3.7731 -3.28253,7.25316 -1.80537,3.48009 -3.28249,7.07746 -3.28249,7.9942 0,2.8485 -4.1939,5.41793 -5.47087,3.35178 -0.6226,-1.00739 -4.26152,-0.91754 -5.31021,0.13123 -0.66118,0.66118 -1.28659,0.63262 -2.69896,-0.12323 -1.01109,-0.54111 -1.83834,-1.22128 -1.83834,-1.51148 0,-0.29017 2.32285,-1.09686 5.16192,-1.79258 4.79008,-1.17389 5.24267,-1.4554 6.28295,-3.90819 0.61657,-1.45374 1.87102,-4.28443 2.78771,-6.2904 2.77218,-6.06642 2.79228,-6.47233 0.40808,-8.23505 -2.5795,-1.9071 -2.42742,-2.72253 2.13701,-11.46001 1.67664,-3.20957 3.6755,-7.05066 4.44182,-8.53575 2.3687,-4.59037 1.64994,-10.03747 -2.31347,-17.53209 -1.61768,-3.05887 -0.0392,-5.7991 3.90843,-6.78433 3.18457,-0.79483 4.58977,-4.24498 2.00432,-4.9211 -0.79274,-0.20732 -1.82655,-1.22233 -2.29733,-2.25561 -0.75091,-1.64809 -0.51111,-2.57489 1.95348,-7.54973 3.87698,-7.82583 4.98406,-8.95351 8.78994,-8.95351 3.57151,0 5.39582,1.40726 5.39582,4.16233 0,1.02837 0.36105,3.87711 0.80236,6.33054 1.02694,5.70917 0.15853,8.31704 -2.97868,8.94447 -1.21019,0.24206 -2.20036,0.66164 -2.20036,0.93246 0,0.95333 1.76567,2.24304 3.07082,2.24304 1.95937,0 3.76138,2.49034 4.62345,6.38951 0.66606,3.01256 1.02543,3.48844 2.78969,3.69408 1.53111,0.17838 2.11901,-0.12296 2.40995,-1.23556 0.21173,-0.80936 1.08994,-1.57207 1.95174,-1.69492 1.33729,-0.19051 1.73465,-1.0785 2.71172,-6.05893 0.62963,-3.20957 1.35127,-6.32795 1.60361,-6.92974 0.96403,-2.29903 3.5478,-21.34722 2.96752,-21.87733 -0.33539,-0.30641 -4.8771,-1.28888 -10.09264,-2.18324 -5.21554,-0.89439 -9.81107,-1.88251 -10.21226,-2.19587 -0.4012,-0.31336 -2.53481,-0.79436 -4.7414,-1.0689 -6.32627,-0.78712 -6.63406,-0.9476 -6.09684,-3.17867 0.25916,-1.07602 1.05429,-3.26937 1.76716,-4.87418 0.71284,-1.60477 2.03313,-5.21554 2.93396,-8.02389 0.90084,-2.80838 1.86156,-5.43439 2.13494,-5.83558 0.27349,-0.4012 1.06038,-2.49613 1.74888,-4.65544 1.58374,-4.96695 3.1581,-7.38042 4.81438,-7.38042 2.09013,0 16.99624,2.9296 18.59288,3.65419 0.80239,0.36414 2.60778,0.75772 4.01196,0.87465 l 2.55306,0.21256 0.93778,-4.74132 c 1.05032,-5.3103 2.62168,-7.6887 3.85545,-5.83566 0.67386,1.01208 0.54387,3.395 -0.50323,9.2256 -0.40538,2.25726 -0.34931,2.30937 3.33797,3.10015 2.06265,0.44235 4.32496,0.80429 5.02738,0.80429 0.70239,0 1.58892,0.30878 1.97007,0.68618 0.38112,0.3774 3.97548,1.23038 7.98742,1.89549 4.19965,0.69625 7.64726,1.65562 8.12598,2.26121 0.82315,1.04133 -0.0772,5.53835 -1.87799,9.38131 -0.37602,0.80242 -1.3945,3.92079 -2.26324,6.92977 -0.86878,3.00895 -1.86087,6.12735 -2.20464,6.92974 -0.34376,0.80239 -0.99909,2.93603 -1.45625,4.7414 -0.45716,1.80537 -1.16758,3.69281 -1.57867,4.19431 -0.89742,1.09479 -3.03423,1.18042 -4.77302,0.19133 -1.30277,-0.7411 -15.95695,-3.65615 -18.37974,-3.65615 -1.11993,0 -1.50177,0.92055 -2.19363,5.28849 -0.46072,2.90868 -1.13314,5.94501 -1.49428,6.7474 -1.188,2.63957 -3.57611,19.60047 -3.42186,24.30277 0.12379,3.77166 -0.0863,4.7411 -1.15737,5.34264 -0.84658,0.47546 -1.1552,1.21791 -0.87421,2.1032 0.23876,0.75254 -0.0433,2.2917 -0.62688,3.42035 -0.58364,1.12862 -1.29847,3.68895 -1.5885,5.68965 -0.29004,2.00071 -0.77049,3.96587 -1.06772,4.36706 -0.2972,0.4012 -0.76652,2.53484 -1.04293,4.74143 -0.82279,6.5683 -1.12672,7.29446 -3.05315,7.29446 -1.79453,0 -2.42359,-1.89167 -1.10369,-3.319 0.68323,-0.73884 3.00641,-13.7658 3.00641,-16.85815 0,-2.37038 -2.63312,-6.08293 -4.31429,-6.08293 -0.71342,0 -2.33233,0.5164 -3.59756,1.14758 -2.75412,1.37396 -2.76314,1.5138 -0.84151,13.07661 1.75539,10.5627 1.81993,13.22022 0.34115,14.04781 -0.92852,0.51963 -1.08291,2.15636 -0.91181,9.66765 l 0.20594,9.04215 3.07129,0.76319 c 3.82851,0.95137 5.43006,2.33804 3.85236,3.33548 -1.28254,0.81085 -9.47265,0.92755 -10.66606,0.15191 z m -149.58591,-1.37898 c -0.44277,-1.15379 0.63818,-2.38996 3.7278,-4.26307 0.75825,-0.45969 1.36834,-2.15448 1.64982,-4.58298 0.44139,-3.80833 0.41956,-3.86377 -1.8607,-4.72447 -1.61189,-0.60841 -2.17433,-1.20584 -1.866,-1.98204 0.24262,-0.61111 0.62178,-2.18588 0.84231,-3.49952 0.22056,-1.31364 0.69095,-2.56762 1.04533,-2.78663 0.35438,-0.21918 -0.0383,-1.35681 -0.87249,-2.52841 -2.68664,-3.77305 -2.64162,-6.55995 0.17754,-10.98874 1.37264,-2.15636 2.71164,-4.49509 2.97557,-5.19718 0.26384,-0.70211 0.9825,-1.27653 1.59689,-1.27653 1.60124,0 1.37837,-2.0128 -0.34184,-3.08708 -2.23003,-1.39268 -1.99902,-6.37134 0.42959,-9.25755 2.61509,-3.10787 6.00858,-3.10787 8.62367,0 2.44311,2.90349 2.5843,6.81477 0.29028,8.04247 l -1.59818,0.85532 1.94358,1.54106 c 1.06895,0.84758 2.93702,2.30458 4.15124,3.23778 l 2.20767,1.69675 0.011,-1.69675 c 0.011,-1.61084 1.31808,-5.96199 2.26372,-7.5323 0.24151,-0.40119 1.18525,-3.84784 2.09697,-7.6592 1.72471,-7.20968 3.91299,-11.1565 6.95384,-12.54201 3.20307,-1.45943 2.88406,-6.42359 -0.41283,-6.42359 -1.94377,0 -3.90766,-5.68061 -3.42974,-9.92068 0.4893,-4.34095 2.33046,-6.17919 6.68004,-6.66946 3.23221,-0.3643 3.51816,-0.24123 6.34581,2.73124 2.76857,2.91039 2.93777,3.33168 2.60224,6.47986 -0.1974,1.85188 -0.58026,4.20525 -0.85088,5.22971 -0.40712,1.54112 -0.16128,2.01328 1.42353,2.73541 3.28335,1.49601 5.27079,1.06832 7.28065,-1.56676 1.41619,-1.8567 1.86076,-3.3032 1.86076,-6.0544 0,-1.98816 -0.31739,-3.93223 -0.70532,-4.32014 -0.3879,-0.38793 -0.86056,-2.17689 -1.05035,-3.97548 -0.18968,-1.79862 -0.56024,-4.28854 -0.82323,-5.53317 -0.40119,-1.89864 -0.15742,-2.51524 1.51344,-3.82962 2.67139,-2.1013 3.67211,-1.97605 4.96808,0.62175 0.60041,1.20358 0.7886,2.18834 0.41814,2.18834 -0.8385,0 -0.89604,3.4236 -0.0662,3.9365 0.33406,0.2065 1.01547,3.5904 1.51426,7.51987 0.90886,7.16033 0.41666,11.15647 -1.37413,11.15647 -0.41114,0 -0.74752,0.35468 -0.74752,0.78819 0,0.4335 -1.11742,2.48507 -2.48317,4.55905 -1.36574,2.07395 -3.00702,5.04188 -3.64724,6.59535 -1.31011,3.17897 -1.5433,11.14585 -0.46676,15.94826 0.38352,1.71086 1.07621,6.7214 1.53933,11.13455 0.46314,4.41316 1.09699,8.35217 1.40858,8.75336 0.3116,0.4012 0.78731,2.20657 1.05714,4.01196 0.2699,1.80537 0.98318,5.60304 1.58528,8.43926 0.60206,2.8362 0.99286,5.57481 0.86841,6.08581 -0.12434,0.51097 0.42882,1.30884 1.22947,1.773 6.00955,3.48381 6.72043,4.64306 3.27048,5.33305 -1.21194,0.24233 -2.39004,0.7425 -2.61802,1.11135 -0.25005,0.40456 -0.75047,0.39549 -1.26133,-0.0221 -0.46579,-0.38145 -2.15989,-1.06143 -3.76467,-1.51107 -4.27569,-1.19798 -5.84997,-4.16458 -7.2652,-13.6908 -0.64166,-4.31898 -1.48518,-8.17123 -1.87449,-8.56054 -0.38931,-0.38931 -0.70785,-1.46282 -0.70785,-2.38557 0,-0.92273 -0.32824,-1.67773 -0.72944,-1.67773 -0.40119,0 -0.72944,0.38874 -0.72944,0.86387 0,0.47514 -0.63335,2.19846 -1.40748,3.82962 -0.7741,1.63113 -2.10858,5.4276 -2.96547,8.43655 -0.85692,3.00898 -2.02894,6.34212 -2.60451,7.40703 -0.57554,1.06488 -1.04646,2.44057 -1.04646,3.05709 0,1.67256 -0.92835,1.99008 -7.1053,2.4302 -3.10018,0.22084 -6.40804,0.6949 -7.35078,1.05333 -1.2005,0.45644 -2.45028,0.30233 -4.17126,-0.51434 -2.52833,-1.19975 -2.76571,-1.84617 -3.43273,-9.34776 -0.23406,-2.63125 -2.19818,-4.05453 -4.01764,-2.91122 -0.97039,0.60976 -1.33313,2.0084 -1.51249,5.83184 l -0.236,5.02972 -3.48072,1.64125 c -4.15557,1.95948 -5.06253,2.02874 -5.67469,0.43347 z m 24.20402,-4.60799 c 0.24123,-0.39028 1.67508,-1.04257 3.18639,-1.44953 2.73852,-0.7374 2.75363,-0.76269 4.47405,-7.49665 0.94945,-3.7162 1.99089,-7.24911 2.31434,-7.8509 0.51004,-0.94892 2.2421,-11.72261 3.34226,-20.78924 0.19465,-1.60478 0.67598,-3.31649 1.0694,-3.80384 0.84507,-1.04671 -2.27036,-8.28228 -3.4325,-7.97198 -0.40119,0.10724 -2.79035,4.27762 -5.30925,9.26781 l -4.57981,9.07303 3.76212,3.32319 c 3.0561,2.69953 3.66789,3.62014 3.25995,4.90543 l -0.50218,1.58225 -3.05682,-1.94335 c -1.68125,-1.06888 -4.21953,-3.03013 -5.64063,-4.35838 -1.42111,-1.32822 -2.8608,-2.41496 -3.1993,-2.41496 -0.73092,0 -0.008,5.97324 0.94628,7.82562 0.91095,1.76704 3.01322,9.17445 3.01322,10.61723 0,0.64494 -0.90268,1.60315 -2.00597,2.1294 -1.54558,0.73718 -2.05603,1.55104 -2.22396,3.54586 -0.29918,3.5537 0.9334,6.51865 2.70993,6.51865 0.78866,0 1.63127,-0.31934 1.87248,-0.70964 z m 68.23455,-1.68792 c -2.99847,-0.33699 -5.87068,-0.96031 -6.38264,-1.38521 -1.32274,-1.09777 -1.15517,-3.2965 0.52804,-6.92864 0.80238,-1.73143 2.13728,-4.60992 2.96641,-6.39662 1.57359,-3.39096 2.27576,-13.72654 1.06554,-15.6847 -0.68354,-1.10599 -2.06092,1.72765 -2.82416,5.81005 -0.27867,1.49053 -2.16261,4.69007 -4.50986,7.65918 -2.21721,2.8046 -4.22494,5.67372 -4.46163,6.37581 -0.23682,0.70211 -0.6963,1.27655 -1.02131,1.27655 -0.32502,0 -1.07539,0.97109 -1.6675,2.15799 -0.94023,1.88472 -0.94252,2.2692 -0.0193,3.0363 0.58208,0.48307 0.96042,1.56356 0.84077,2.40107 -0.34686,2.42775 -5.4216,2.01512 -8.84895,-0.71957 -2.737,-2.18387 -3.30287,-3.76783 -1.86111,-5.20961 0.44767,-0.44765 1.18624,-1.46778 1.64127,-2.26692 0.45501,-0.79913 3.13577,-4.0304 5.95725,-7.18057 4.40389,-4.91693 5.27294,-6.346 6.14036,-10.09718 0.55573,-2.4033 1.28356,-4.73148 1.61738,-5.17375 0.33381,-0.44224 0.81035,-2.75024 1.05897,-5.12883 0.41212,-3.94304 0.28337,-4.52523 -1.45881,-6.59568 -1.05096,-1.24902 -1.91086,-2.64415 -1.91086,-3.10032 0,-0.45617 -0.5046,-1.02302 -1.12134,-1.25971 -0.61673,-0.23655 -1.6164,-1.61514 -2.22148,-3.06329 -1.14157,-2.73215 -0.66459,-4.77068 1.70158,-7.27204 0.50149,-0.53017 0.91181,-1.3068 0.91181,-1.72589 0,-0.41909 1.15938,-2.34138 2.57641,-4.27175 1.80129,-2.45386 3.27541,-3.66329 4.89981,-4.0201 2.72672,-0.59886 4.92438,-1.85449 4.92438,-2.8135 0,-0.37341 -0.53929,-1.2748 -1.1984,-2.0031 -1.9315,-2.13431 -1.6324,-8.95451 0.4919,-11.21572 2.28376,-2.43095 8.98398,-2.59254 11.91455,-0.28736 1.96822,1.5482 2.59011,4.55418 1.12898,5.45719 -0.43613,0.26963 -0.62947,1.11533 -0.42965,1.87951 0.19988,0.76417 -0.0565,1.80923 -0.56967,2.32238 -0.51313,0.51315 -1.16253,1.65627 -1.44311,2.54024 -0.28054,0.88399 -0.98037,1.60723 -1.55512,1.60723 -2.02275,0 -1.01023,1.34559 2.17155,2.88588 2.45133,1.18665 3.49258,2.24689 4.37668,4.45649 0.63805,1.59468 1.16011,3.24448 1.16011,3.66621 0,0.42173 0.48078,1.24755 1.0684,1.83517 0.93823,0.93823 1.29012,0.71717 2.88823,-1.81441 1.00091,-1.58553 2.16137,-3.09389 2.57883,-3.35189 0.41746,-0.25805 0.75902,-1.53293 0.75902,-2.83319 0,-2.86821 1.11486,-4.1148 3.68005,-4.1148 4.12627,0 5.71196,5.39111 2.14691,7.29906 -0.79765,0.42689 -1.45028,1.47106 -1.45028,2.32037 0,0.84931 -0.99584,2.88933 -2.21296,4.53339 -1.21711,1.64403 -2.95199,4.13578 -3.85525,5.53717 -0.90327,1.40142 -2.23764,2.66268 -2.96531,2.80281 -1.45397,0.28 -5.55542,-3.23259 -5.55542,-4.75783 0,-0.52674 -0.45043,-0.95771 -1.00094,-0.95771 -1.29244,0 -1.73339,2.96525 -2.35928,15.86547 -0.27737,5.71703 -0.78369,10.39461 -1.12511,10.39461 -0.34145,0 -0.62079,1.57877 -0.62079,3.50835 0,3.71702 -2.62201,15.34526 -3.72391,16.51495 -1.34868,1.43172 -0.48953,3.00104 2.42761,4.43417 5.87884,2.88816 3.83974,4.07374 -5.2497,3.05229 z m -5.8546,-50.5223 c 0,-0.53521 -0.32825,-1.17596 -0.72947,-1.42392 -0.40119,-0.24785 -0.72944,-1.4162 -0.72944,-2.59612 0,-2.53812 -0.25667,-2.61802 -2.19239,-0.68235 l -1.46293,1.46295 1.61713,2.46696 c 1.55523,2.37253 3.4971,2.80149 3.4971,0.77248 z"
       id="path112"
       inkscape:connector-curvature="0"
       sodipodi:nodetypes="cssccscscccscscccccccccssccssscccccccsccccccscccscccscccccssccsccccccscsscsscccccccccccccccccscscccccccccccsscccccccscccccsccssccccscccccccscsssscccscccccccccccccccccccsccccscsccsccccsccccssccccccccccscccsccsccsccccsccssccsscscccsssssccccscscccs" />
  </g>
</svg>
