<?xml version="1.0" encoding="UTF-8" standalone="no"?>
<!-- Created with Inkscape (http://www.inkscape.org/) -->

<svg
   xmlns:dc="http://purl.org/dc/elements/1.1/"
   xmlns:cc="http://creativecommons.org/ns#"
   xmlns:rdf="http://www.w3.org/1999/02/22-rdf-syntax-ns#"
   xmlns:svg="http://www.w3.org/2000/svg"
   xmlns="http://www.w3.org/2000/svg"
   xmlns:sodipodi="http://sodipodi.sourceforge.net/DTD/sodipodi-0.dtd"
   xmlns:inkscape="http://www.inkscape.org/namespaces/inkscape"
   width="210.00014mm"
   height="182.08809mm"
   viewBox="0 0 210.00015 182.08809"
   version="1.1"
   id="svg8"
   inkscape:version="0.92.3 (2405546, 2018-03-11)"
   sodipodi:docname="student_petition.svg">
  <defs
     id="defs2" />
  <sodipodi:namedview
     id="base"
     pagecolor="#ffffff"
     bordercolor="#666666"
     borderopacity="1.0"
     inkscape:pageopacity="0.0"
     inkscape:pageshadow="2"
     inkscape:zoom="0.7"
     inkscape:cx="88.94808"
     inkscape:cy="351.95172"
     inkscape:document-units="mm"
     inkscape:current-layer="layer1"
     showgrid="false"
     fit-margin-top="0"
     fit-margin-left="0"
     fit-margin-right="0"
     fit-margin-bottom="0"
     inkscape:window-width="1920"
     inkscape:window-height="1017"
     inkscape:window-x="-8"
     inkscape:window-y="-8"
     inkscape:window-maximized="1" />
  <metadata
     id="metadata5">
    <rdf:RDF>
      <cc:Work
         rdf:about="">
        <dc:format>image/svg+xml</dc:format>
        <dc:type
           rdf:resource="http://purl.org/dc/dcmitype/StillImage" />
        <dc:title></dc:title>
      </cc:Work>
    </rdf:RDF>
  </metadata>
  <g
     inkscape:label="Layer 1"
     inkscape:groupmode="layer"
     id="layer1"
     transform="translate(-244.21784,553.61351)">
    <path
       style="fill:#000000;stroke-width:0.50970668"
       d="m 423.32796,-371.90642 c -0.8705,-0.23592 -2.74628,-1.5743 -4.16843,-2.97419 -1.82756,-1.79894 -3.28533,-2.73234 -4.97174,-3.1834 -3.03917,-0.81285 -4.82314,-2.43583 -4.82314,-4.38784 0,-0.82007 -0.34405,-1.77659 -0.76457,-2.12557 -0.42051,-0.34899 -0.77268,-1.2372 -0.78262,-1.97382 -0.01,-0.7366 -0.34586,-1.9127 -0.7465,-2.61354 -0.40063,-0.70086 -0.73656,-1.68824 -0.74648,-2.19423 -0.01,-0.50596 -0.50159,-1.98133 -1.09255,-3.27856 -1.32149,-2.90085 -2.29041,-6.24654 -2.72932,-9.42426 -0.18301,-1.32507 -0.52366,-2.52721 -0.75699,-2.67142 -0.48358,-0.29887 -1.83329,-5.80688 -2.42924,-9.91356 -0.2204,-1.51867 -0.6538,-2.84544 -0.96313,-2.94837 -0.30933,-0.10287 -1.08761,1.36899 -1.72953,3.27094 -0.64191,1.90196 -1.44959,3.91684 -1.79485,4.47751 -0.34528,0.56068 -1.25878,2.85435 -2.03004,5.09706 -0.77125,2.24272 -1.60398,4.33199 -1.85051,4.64284 -0.24652,0.31086 -0.89424,1.86157 -1.43938,3.44606 -0.54513,1.58446 -1.33085,3.50912 -1.74602,4.27701 -0.41517,0.7679 -1.38695,3.11643 -2.15951,5.21898 -0.77255,2.10253 -1.63161,4.12436 -1.90902,4.49291 -0.27739,0.36857 -0.67844,1.9529 -0.89119,3.52072 -0.52895,3.89784 -1.5612,4.84558 -5.22991,4.80175 -2.03148,-0.0243 -3.26464,-0.33366 -4.26493,-1.07002 -1.23634,-0.91017 -1.65463,-0.96621 -3.44598,-0.46166 -2.04144,0.57501 -17.59462,0.28529 -19.27365,-0.35901 -1.14169,-0.43811 -1.37271,-1.44058 -0.80545,-3.49508 0.86667,-3.13877 2.46759,-4.52352 5.34212,-4.62075 4.02278,-0.13601 9.03727,-1.33532 10.27706,-2.45788 0.63076,-0.57111 1.15413,-1.62918 1.16303,-2.35123 0.01,-0.72207 0.35299,-1.75808 0.76457,-2.30226 0.41159,-0.54417 0.74976,-1.34696 0.75149,-1.78397 0.002,-0.43702 0.34854,-1.45686 0.7707,-2.26636 0.42216,-0.80947 1.1321,-2.75912 1.57763,-4.33251 0.44553,-1.57339 1.2392,-3.60851 1.76372,-4.52247 0.52449,-0.91397 1.5569,-3.20764 2.29421,-5.09706 0.73729,-1.88943 1.7758,-4.36786 2.30779,-5.50763 0.53199,-1.13978 0.96609,-2.40132 0.96471,-2.80339 -0.004,-0.89079 1.65669,-5.72801 2.08721,-6.08298 0.16991,-0.14024 0.46795,-1.27132 0.66214,-2.51365 0.36073,-2.30789 2.42991,-8.11719 4.43091,-12.43995 0.7073,-1.52799 0.79058,-5.9908 0.17281,-9.25746 -0.2651,-1.40171 -0.35385,-4.95691 -0.19723,-7.90047 0.15662,-2.94354 0.11346,-5.71684 -0.0958,-6.16289 -0.20929,-0.44603 -1.8255,-1.43257 -3.5916,-2.1923 -1.76609,-0.75974 -3.60937,-1.59899 -4.09617,-1.865 -1.13086,-0.61796 -5.84421,-0.63182 -6.2234,-0.0193 -0.38804,0.62787 -3.78736,1.16571 -7.36745,1.16571 -2.4015,0 -3.34384,-0.27336 -5.18799,-1.50496 -4.95826,-3.31134 -6.40433,-4.20375 -6.81185,-4.20375 -0.23426,0 -1.48588,-0.6522 -2.78137,-1.4493 -1.29548,-0.79713 -3.17572,-1.72005 -4.17832,-2.05094 -2.65675,-0.8768 -4.03389,-2.3563 -3.99567,-4.29265 0.03,-1.52629 0.0643,-1.55692 0.50654,-0.45399 0.3353,0.83616 0.80971,1.13487 1.61905,1.01942 1.7286,-0.24657 1.75183,-1.74956 0.0325,-2.10459 -0.78422,-0.16201 -2.16592,-0.97773 -3.07043,-1.81285 -0.90449,-0.83511 -2.05134,-1.59594 -2.54852,-1.69071 -0.4972,-0.0948 -0.97143,-0.64147 -1.05387,-1.21487 -0.095,-0.66103 -0.73208,-1.21871 -1.74074,-1.52392 -0.87495,-0.26473 -1.83966,-0.94009 -2.14377,-1.50076 -0.30413,-0.5607 -0.83966,-1.20284 -1.1901,-1.42704 -0.35042,-0.22418 -0.63712,-1.19899 -0.63712,-2.16624 0,-0.96727 -0.2106,-1.75865 -0.46801,-1.75865 -0.25741,0 -0.79959,-0.12715 -1.20484,-0.28275 -0.99794,-0.38294 -1.49485,2.90565 -1.62153,10.73174 -0.0545,3.36406 -0.27256,6.86804 -0.48464,7.78663 -0.57244,2.47946 -2.73612,6.08236 -3.82339,6.36669 -1.18347,0.30948 -1.84947,3.65559 -1.1131,5.59242 0.45526,1.19741 0.71533,1.31781 2.29315,1.06177 2.22006,-0.36027 4.38354,0.15007 4.38354,1.03398 0,1.25252 10.09233,5.80906 15.99187,7.22009 6.11505,1.46256 7.44101,2.10773 9.85661,4.79578 1.41727,1.57713 1.63956,2.199 1.65341,4.62548 0.01,1.54188 -0.29122,3.3921 -0.66672,4.11163 -0.37549,0.71952 -0.84687,1.9623 -1.04751,2.76172 -0.22253,0.88661 -2.99403,4.15335 -7.10637,8.37618 -4.20974,4.32284 -7.17849,7.83197 -7.90498,9.34383 -0.91533,1.90487 -1.42748,2.4211 -2.40191,2.4211 -0.89869,0 -1.2385,-0.2797 -1.2385,-1.01942 0,-1.18511 -0.17897,-1.23456 -1.49465,-0.41293 -1.25376,0.78296 -2.58301,-0.21253 -2.58301,-1.93445 v -1.20314 l -1.79948,1.01069 c -2.34441,1.31679 -3.54436,1.31276 -1.38367,-0.004 1.55798,-0.94998 5.22197,-5.94254 5.22197,-7.11552 0,-0.2938 0.22938,-0.53419 0.50972,-0.53419 0.70129,0 0.67765,0.0915 -0.76457,2.96296 -1.44168,2.87033 -1.64336,5.08269 -0.50321,5.52021 1.13719,0.43639 2.2086,-0.69162 2.82254,-2.97165 0.29847,-1.10842 1.0048,-2.74461 1.56962,-3.636 l 1.02695,-1.62067 -0.35574,1.78397 c -0.19563,0.98118 -0.50014,1.89865 -0.67668,2.03882 -0.60651,0.48158 -1.65344,4.07202 -1.33677,4.5844 0.80597,1.30411 2.21858,0.4194 3.45413,-2.16329 3.07737,-6.43269 2.85638,-9.55417 -0.92019,-12.99751 -2.76577,-2.52174 -4.2646,-2.72909 -6.44787,-0.89199 -1.64164,1.38135 -2.29735,1.52562 -3.47499,0.76455 -0.65062,-0.42044 -0.62923,-0.49525 0.14352,-0.50189 0.4994,-0.004 1.04828,-0.4092 1.21977,-0.89979 0.17146,-0.49059 1.12074,-1.74436 2.10945,-2.78615 2.15606,-2.27182 1.77988,-2.5633 -3.01663,-2.33715 l -3.2594,0.15373 -0.15585,3.31309 c -0.14853,3.15487 -0.23366,3.35181 -1.78399,4.12366 -0.89543,0.4458 -1.70901,1.2265 -1.80795,1.73487 -0.16452,0.84515 0.13119,0.89823 3.45291,0.61976 1.99805,-0.1676 3.51902,-0.12041 3.37997,0.1046 -0.13909,0.22499 -1.52083,1.2824 -3.07062,2.34977 -1.68734,1.16211 -2.81782,2.31569 -2.81782,2.8754 0,1.98436 2.51082,0.89692 6.49113,-2.81134 3.15445,-2.93886 2.87132,-0.0659 -0.42021,4.26406 -1.97003,2.5915 -2.10756,2.52897 -1.16604,-0.53028 0.31171,-1.01286 0.28856,-1.0152 -1.27106,-0.12733 l -1.58855,0.90423 -0.004,5.16624 c -0.002,3.58599 -0.23613,5.61279 -0.76465,6.62618 -0.66333,1.27188 -1.10963,5.79247 -0.57186,5.79247 0.10768,0 1.99998,-0.89953 4.20507,-1.99894 3.52093,-1.75548 4.40785,-1.98902 7.28191,-1.91751 2.20986,0.0549 3.34096,-0.12349 3.48298,-0.5496 0.24926,-0.74827 3.69318,-0.86139 3.69318,-0.12137 0,0.69436 1.69899,0.64565 2.41382,-0.0692 0.43204,-0.43204 0.79963,-0.35812 1.44913,0.29136 0.66669,0.66669 0.84872,1.65288 0.77819,4.21608 -0.12406,4.50729 -1.06681,6.2405 -3.40405,6.25778 -0.99717,0.008 -1.05579,0.28725 -1.04246,4.97743 0.0154,5.49631 -0.63592,8.32061 -2.41876,10.48467 -1.48153,1.79834 -3.80135,2.35757 -9.84499,2.37327 -5.1127,0.0135 -6.28032,-0.51242 -6.28032,-2.82763 0,-0.68082 -0.23249,-1.23786 -0.51662,-1.23786 -0.761,0 -2.7344,1.17724 -3.20409,1.91139 -0.22418,0.35042 -0.81202,0.63713 -1.30633,0.63713 -0.49428,0 -1.5724,0.71778 -2.39577,1.59506 -0.82338,0.87729 -2.69023,2.36819 -4.14853,3.31309 -2.44742,1.58582 -2.96446,1.71805 -6.71826,1.71805 -4.93975,0 -7.44972,-1.2367 -7.99327,-3.93841 -0.47805,-2.3762 0.0212,-8.96971 1.01035,-13.34458 0.46955,-2.0767 0.90046,-4.94379 0.9576,-6.37135 0.0934,-2.33523 0.002,-2.58 -0.91557,-2.44047 -0.56067,0.0853 -3.42646,0.40479 -6.3684,0.71 -3.66251,0.37995 -5.52568,0.79651 -5.90933,1.32119 -0.30819,0.42145 -0.84488,2.625 -1.19268,4.89677 -0.34781,2.27177 -0.96113,5.17666 -1.36297,6.4553 -0.64457,2.05102 -0.63794,2.51057 0.0563,3.90218 0.90457,1.81326 0.41446,5.18127 -0.97782,6.71973 -0.4458,0.49259 -0.81054,1.16429 -0.81054,1.49263 0,0.65627 -0.51062,0.7062 -6.10856,0.59753 -2.09819,-0.0406 -4.10573,-0.31545 -4.4612,-0.61045 -0.35548,-0.29504 -1.32649,-0.40038 -2.15781,-0.2341 -1.01312,0.2026 -1.64294,0.0701 -1.91014,-0.4019 -0.33117,-0.58501 -0.7868,-0.59689 -2.69233,-0.0703 -1.26151,0.34869 -2.72544,0.82366 -3.25317,1.05549 -0.57861,0.25421 -1.33465,0.18725 -1.90449,-0.16857 -0.51974,-0.32458 -2.39685,-0.59015 -4.17138,-0.59015 -2.90045,0 -7.79608,-0.6438 -10.16723,-1.33703 -1.28997,-0.37714 -1.15375,-2.96673 0.22355,-4.24988 0.85133,-0.79314 1.80161,-1.03927 4.01258,-1.03927 1.6631,0 4.49878,-0.5181 6.6575,-1.21636 2.06824,-0.66899 4.50587,-1.37533 5.41699,-1.56963 1.74766,-0.37267 2.05622,-1.17523 1.06321,-2.76526 -0.49132,-0.78675 -0.22848,-1.70719 1.52912,-5.3545 1.16735,-2.42243 2.12244,-4.67179 2.12244,-4.99858 0,-0.32678 0.42188,-1.52669 0.93751,-2.66647 0.51563,-1.13977 1.472,-3.27584 2.12526,-4.7468 0.65326,-1.47096 1.29629,-2.56595 1.42893,-2.43331 0.23418,0.23418 -1.3763,5.07222 -2.7183,8.16603 -0.36481,0.84101 -1.27516,3.41902 -2.02299,5.72889 -0.74784,2.30987 -1.57104,4.33039 -1.82932,4.49002 -1.27296,0.78674 -0.27785,1.7281 2.4612,2.32827 1.61196,0.35319 3.0455,0.79375 3.18567,0.97904 0.31007,0.40985 10.19133,0.98698 11.08611,0.64748 0.35044,-0.13293 0.63713,-0.68135 0.63713,-1.21865 0,-0.53733 0.1861,-0.97695 0.41336,-0.97695 0.47982,0 1.24433,-2.96866 2.42835,-9.42956 0.87339,-4.76593 1.71859,-7.39075 2.37978,-7.39075 0.21191,0 0.38529,0.54341 0.38529,1.20757 0,0.99413 0.32815,1.26083 1.8565,1.50884 2.45284,0.39804 9.44115,0.16702 10.24903,-0.33883 0.36991,-0.23161 0.63713,-1.45518 0.63713,-2.91738 0,-1.99865 0.17319,-2.51844 0.83943,-2.51844 0.75311,0 0.81131,0.75137 0.56588,7.3077 -0.15046,4.01925 -0.51585,7.74648 -0.81198,8.28273 -0.29613,0.53627 -0.91065,2.97028 -1.36558,5.40891 -1.22611,6.57267 -0.349,10.60247 2.30771,10.60247 0.52411,0 1.09467,0.22937 1.26793,0.5097 0.41016,0.66365 5.19662,0.66365 5.60678,0 0.17319,-0.28033 0.845,-0.5097 1.49277,-0.5097 0.72097,0 2.93321,-1.47529 5.7041,-3.80393 2.48952,-2.09218 5.26451,-4.16377 6.16667,-4.60356 0.90215,-0.43981 1.81962,-1.07943 2.03882,-1.42139 0.21921,-0.34198 1.01231,-0.93778 1.76245,-1.32399 1.97779,-1.01827 6.52138,-5.68442 6.86388,-7.04902 0.16105,-0.64183 0.46108,-1.16696 0.66665,-1.16696 1.10582,0 2.08814,-8.21054 1.24516,-10.40731 -1.15477,-3.00926 -11.4608,2.87637 -13.68899,7.81762 -0.51586,1.14398 -1.13129,2.07999 -1.36762,2.07999 -0.23632,0 -0.90937,1.02047 -1.49564,2.26772 -0.58628,1.24726 -1.39024,2.53686 -1.78659,2.8658 -1.43334,1.18957 -0.76446,-1.74438 1.05415,-4.62382 2.74365,-4.34413 4.22975,-7.84642 4.60551,-10.85376 l 0.34393,-2.75282 -3.7382,-0.34744 c -3.60794,-0.33531 -5.29554,-0.96091 -10.37677,-3.84664 -1.12135,-0.63684 -2.54586,-1.62575 -3.16556,-2.19757 -0.91483,-0.84416 -2.02701,-1.08679 -5.91341,-1.29007 -4.58478,-0.23981 -11.21009,0.50359 -12.31919,1.3823 -0.28558,0.22625 -1.86215,0.57386 -3.50352,0.77247 -5.24033,0.63407 -7.75267,1.63727 -9.64924,3.85298 -1.77357,2.07203 -2.40281,2.45769 -2.40281,1.47269 0,-1.78994 5.61507,-5.561 8.28027,-5.561 0.66016,0 1.41818,-0.20904 1.68451,-0.46457 0.26631,-0.2555 1.63105,-0.59652 3.03275,-0.7578 1.40169,-0.16125 3.5807,-0.5157 4.84221,-0.78752 1.26152,-0.27184 3.46977,-0.50425 4.90723,-0.51644 1.44622,-0.0116 2.847,-0.30677 3.13624,-0.65933 0.41311,-0.50355 1.3861,-16.15388 1.3861,-22.29488 0,-0.94487 -0.45614,-1.49252 -1.78397,-2.14177 -0.98118,-0.47977 -2.25021,-0.88332 -2.82005,-0.89679 -0.96673,-0.0229 -1.02248,0.22286 -0.83317,3.67089 0.11154,2.03247 0.4058,3.77184 0.6538,3.86529 0.24799,0.0934 0.45088,1.60612 0.45088,3.36152 0,3.62568 -0.51008,4.34677 -3.82279,5.40412 -1.12137,0.35791 -2.72693,0.93612 -3.56796,1.28492 -0.84101,0.34879 -2.94286,0.79249 -4.67079,0.986 -2.71314,0.30382 -3.18198,0.51228 -3.43692,1.52808 -0.1624,0.64694 -1.43715,2.86656 -2.83283,4.93248 -3.38389,5.00889 -8.26426,8.66602 -11.39229,8.53689 -0.78898,-0.0326 -0.60697,-0.19149 0.6243,-0.54538 1.13869,-0.3272 3.34623,-2.11281 6.40212,-5.17851 4.37797,-4.39201 4.7361,-4.91368 5.83652,-8.50192 0.64482,-2.10253 1.50774,-4.58064 1.91761,-5.5069 0.40987,-0.92625 0.69792,-2.53183 0.64008,-3.56794 -0.0578,-1.03612 0.0649,-2.28577 0.27285,-2.77697 0.20788,-0.49123 0.24254,-1.43276 0.0771,-2.09228 -0.27898,-1.11162 -0.49696,-1.18119 -2.98578,-0.95281 -1.47665,0.13543 -2.76556,0.31677 -2.86423,0.40279 -0.0986,0.0861 -0.21337,2.0047 -0.25485,4.26369 -0.0693,3.77517 -0.15989,4.10756 -1.12033,4.11061 -1.88162,0.006 -2.39737,1.0744 -1.15637,2.39538 1.45243,1.54604 0.58892,1.51997 -1.08393,-0.0327 -0.7162,-0.66474 -1.96279,-1.36471 -2.7702,-1.55549 -1.31829,-0.31149 -1.43889,-0.23541 -1.18228,0.74582 0.25437,0.97271 0.19168,1.01517 -0.57081,0.38666 -2.07664,-1.71174 -3.59144,-2.14523 -4.952,-1.41709 -0.71065,0.38033 -1.17787,0.98915 -1.03828,1.35294 0.20209,0.52664 0.0559,0.53777 -0.71789,0.0545 -0.91098,-0.56892 -2.64586,0.29475 -7.11698,3.54299 -0.12426,0.0904 1.09673,1.45559 2.71337,3.03401 1.61662,1.5784 3.49437,4.0204 4.17278,5.42667 1.48395,3.07608 1.25148,3.87038 -0.26357,0.9006 -0.58589,-1.14842 -2.7808,-3.86571 -4.87758,-6.03844 -2.09679,-2.17271 -3.81243,-4.00773 -3.81254,-4.07781 -1e-4,-0.0701 0.30946,-0.12734 0.68789,-0.12734 1.18995,0 4.92058,-3.02324 4.87847,-3.95342 -0.0241,-0.53265 -0.14333,-0.6335 -0.29735,-0.25166 -0.41369,1.02524 -2.27731,0.74835 -2.57297,-0.38228 -0.18725,-0.71587 -0.69525,-1.01942 -1.70618,-1.01942 -1.51827,0 -2.38346,-0.7281 -1.50806,-1.26913 0.64946,-0.40139 0.70897,-18.43123 0.0622,-18.83101 -0.25072,-0.15489 -0.56302,-1.14329 -0.69402,-2.19633 -0.51939,-4.17556 -2.04658,-10.68415 -2.99598,-12.76818 -1.13311,-2.48732 -0.87892,-4.48193 0.49655,-3.89632 1.67075,0.71134 5.47383,1.14883 7.59955,0.87424 l 2.16626,-0.27982 0.0983,-3.88095 0.0983,-3.88095 0.18378,3.29356 c 0.10114,1.81144 0.429,3.58905 0.72876,3.95022 0.87796,1.05787 2.81171,0.80233 3.12969,-0.41357 0.26989,-1.03215 0.52552,-1.06392 7.1777,-0.89198 5.7326,0.14814 7.04842,0.32894 7.78926,1.07024 0.81032,0.81086 0.81465,0.89198 0.0478,0.89198 -0.46402,0 -0.98545,-0.22936 -1.1587,-0.5097 -0.39922,-0.64594 -6.37135,-0.67522 -6.37135,-0.0312 0,0.26316 1.08951,0.62178 2.42111,0.79696 1.33162,0.17511 2.76517,0.39197 3.18567,0.4818 0.93495,0.19974 -11.8087,0.47749 -14.19979,0.30951 l -1.71197,-0.12022 0.29827,5.52555 c 0.41663,7.71843 0.45824,7.81923 3.22761,7.81923 1.60113,0 2.21018,-0.18899 2.05248,-0.63714 -0.12888,-0.36604 -0.95762,-0.59953 -1.94793,-0.54877 -1.94117,0.0996 -2.66087,-0.60941 -1.88307,-1.85486 0.4186,-0.67029 1.13195,-0.79431 3.5591,-0.61874 1.85827,0.13447 3.25807,-0.004 3.60928,-0.35414 0.31555,-0.31555 1.25418,-0.57371 2.08585,-0.57371 1.85141,0 1.37953,0.56774 -1.1206,1.34824 -1.74596,0.54507 -1.583,0.58774 2.46283,0.64494 3.00166,0.0424 4.09766,0.21303 3.56794,0.55534 -0.4205,0.27176 -2.3128,0.49762 -4.20507,0.50191 -2.71497,0.006 -3.44053,0.16895 -3.44053,0.77236 0,0.5788 0.6502,0.77169 2.67596,0.79394 1.47179,0.0154 3.59342,0.23748 4.71479,0.49183 1.40648,0.31902 -0.53896,0.40353 -6.27269,0.27245 l -8.31154,-0.18994 0.15624,1.60958 0.15623,1.60957 7.90047,0.58337 c 4.34524,0.32087 8.61335,0.74442 9.48467,0.94125 1.37028,0.30954 1.63469,0.19634 1.95798,-0.83822 0.59672,-1.90965 0.65521,-2.98007 0.16279,-2.98007 -0.52207,0 -0.32447,-3.17196 0.22329,-3.58449 0.19821,-0.1493 0.42758,-5.48402 0.50972,-11.85502 0.12445,-9.64888 0.26001,-11.43391 0.81196,-10.68729 0.61934,0.83779 0.726,0.81309 1.63311,-0.37795 0.53378,-0.70085 1.60994,-2.53579 2.39148,-4.07764 1.32726,-2.61853 8.56178,-10.62228 9.10781,-10.07625 0.13562,0.13563 -0.10306,0.53668 -0.53033,0.8913 -0.42729,0.35462 -0.77688,0.87853 -0.77688,1.16428 0,0.28576 -0.6783,1.16778 -1.50735,1.96007 -2.31999,2.2171 -7.03613,8.57658 -8.44315,11.38517 -1.55917,3.11228 -1.6041,5.31793 -0.14603,7.17152 0.61435,0.78102 1.73346,2.70425 2.48692,4.27383 1.8365,3.82572 3.90582,5.9882 6.62747,6.92578 1.24104,0.42754 2.71516,0.9879 3.27583,1.24528 0.56069,0.25735 2.7194,0.83118 4.79713,1.27517 3.49541,0.74692 3.84776,0.74388 4.71479,-0.0408 1.28566,-1.1635 1.17772,-1.63311 -0.46462,-2.02148 -1.57287,-0.37194 -3.69537,-2.1013 -3.69537,-3.01091 0,-0.32819 -0.47285,-1.02464 -1.05078,-1.54765 -0.63396,-0.57374 -0.94965,-1.33769 -0.79582,-1.92589 0.14063,-0.53802 -0.21767,-1.61421 -0.79961,-2.40134 -0.85856,-1.16125 -1.01087,-1.9534 -0.81946,-4.26168 0.14834,-1.78905 0.58719,-3.22432 1.18918,-3.88952 0.79728,-0.88098 0.93081,-1.7361 0.81258,-5.20411 -0.12156,-3.56761 -0.32058,-4.36279 -1.41798,-5.66698 -1.04048,-1.23653 -1.21704,-1.85444 -0.95481,-3.34137 0.37244,-2.11191 1.52927,-3.87203 3.52336,-5.36075 1.29057,-0.96352 2.12368,-1.05158 10.01777,-1.05895 5.54265,-0.006 8.80877,-0.20669 9.16769,-0.56561 0.53515,-0.53515 -0.0135,-1.07005 -8.34812,-8.13328 -0.79976,-0.67778 -1.65401,-1.23235 -1.89832,-1.23235 -0.87324,0 -2.08881,-3.1425 -1.7464,-4.51483 0.54645,-2.19016 1.73708,-3.13079 3.96286,-3.13079 1.73249,0 2.4352,-0.38521 4.95015,-2.7136 4.22736,-3.91379 7.41648,-6.46112 8.08899,-6.46112 0.32156,0 0.58464,-0.20621 0.58464,-0.45824 0,-0.25202 0.97482,-0.95248 2.16625,-1.55656 l 2.16626,-1.0983 -2.80339,2.55389 c -1.54186,1.40465 -3.00228,2.56384 -3.24538,2.57597 -0.2431,0.0116 -1.27525,0.8168 -2.29369,1.78813 -1.01842,0.97134 -2.98193,2.77523 -4.36335,4.00866 l -2.51167,2.24258 2.43103,2.36269 c 1.33705,1.29947 2.57108,2.36268 2.74224,2.36268 0.17126,0 1.10451,-0.74544 2.07406,-1.65656 l 1.76282,-1.65653 -1.43897,1.94049 -1.43894,1.94048 2.88607,2.91651 c 1.58734,1.60408 2.88608,3.19656 2.88608,3.53885 0,0.34231 0.25675,0.62236 0.57057,0.62236 0.31382,0 2.61167,1.94236 5.10635,4.31636 4.14974,3.94904 4.64623,4.27437 5.83392,3.82279 0.71401,-0.27145 2.37274,-0.46232 3.68611,-0.42414 1.31334,0.0381 1.81451,0.1597 1.11365,0.27013 -2.69808,0.42497 -3.44371,0.69028 -4.68588,1.66738 -1.21646,0.95686 -1.25318,1.1294 -0.70217,3.29949 0.31977,1.25937 0.74401,2.45242 0.94278,2.65118 0.65455,0.65455 2.40645,-1.46062 2.40645,-2.90544 0,-1.26026 0.17781,-1.41097 1.61673,-1.37005 l 1.61674,0.046 -1.26195,1.06679 c -0.69408,0.58672 -1.65626,1.69755 -2.1382,2.46848 -0.92834,1.48504 -2.28286,1.80651 -3.305,0.78437 -0.48327,-0.48327 -0.85598,-0.37862 -1.71652,0.48192 -0.91884,0.91884 -0.99132,1.22925 -0.44164,1.89159 0.36167,0.43578 0.92783,0.79234 1.25812,0.79234 0.88885,0 3.34372,-1.21453 3.34833,-1.65655 0.002,-0.21025 0.46608,-0.38227 1.03088,-0.38227 0.59861,0 1.42178,-0.64931 1.97367,-1.55682 0.76528,-1.25841 1.00809,-1.39696 1.26677,-0.72288 0.42332,1.10318 0.40359,1.37211 -0.0788,1.07398 -0.21933,-0.13562 -0.93701,0.53902 -1.59483,1.49905 -0.65781,0.96002 -1.47497,1.74549 -1.81589,1.74549 -0.34093,0 -1.03069,0.45395 -1.5328,1.00879 -0.8779,0.97008 -0.87723,1.02248 0.0173,1.36597 0.55202,0.21183 1.01239,0.1125 1.13127,-0.24424 0.11019,-0.33077 0.46807,-0.60902 0.79512,-0.61835 2.09239,-0.0597 3.90777,-3.65866 3.90777,-7.74718 0,-1.7853 0.18493,-2.45341 0.63713,-2.30282 0.35042,0.11674 0.70341,0.65187 0.78439,1.18933 0.3762,2.49612 0.6932,3.3029 1.26892,3.22948 1.67533,-0.21366 2.56221,0.31278 6.29492,3.73674 2.21573,2.03246 4.94239,4.15412 6.05921,4.71479 1.11682,0.56068 2.10706,1.19144 2.20049,1.40169 0.25556,0.57499 6.09338,0.45977 6.45628,-0.12734 0.43798,-0.70866 2.9799,-0.63902 3.72087,0.10191 0.47571,0.47574 0.61164,0.47574 0.61164,0 0,-0.39198 0.89131,-0.61165 2.48177,-0.61165 1.36497,0 4.51878,-0.36352 7.00847,-0.80784 3.11085,-0.55516 5.64267,-0.69643 8.09463,-0.45165 3.78991,0.37833 5.88995,0.38169 6.2617,0.01 0.12502,-0.12503 -0.40257,-0.76904 -1.17238,-1.4312 -1.27807,-1.09935 -1.41523,-1.56649 -1.57915,-5.37805 -0.10827,-2.51594 0.0195,-4.17414 0.32143,-4.17414 0.2755,0 0.50091,-0.63212 0.50091,-1.40471 0,-1.06478 -0.36329,-1.56551 -1.50142,-2.06927 -1.11899,-0.49533 -1.4111,-0.88829 -1.14683,-1.54282 0.46969,-1.16335 2.06094,-3.38514 3.81331,-5.32442 0.78095,-0.86424 1.29702,-1.89156 1.14684,-2.28294 -0.15027,-0.3914 -0.27304,-1.11863 -0.27304,-1.6161 0,-0.80631 -0.724,-0.93383 -6.67058,-1.17502 -6.6115,-0.26814 -7.99876,-0.65332 -7.45517,-2.06985 0.20023,-0.52178 1.97295,-0.92187 6.1452,-1.38689 5.1437,-0.57331 5.89661,-0.77902 6.13093,-1.67505 0.43347,-1.65756 -0.25142,-7.64747 -1.01424,-8.87057 -0.88985,-1.42677 -0.90245,-1.96392 -0.0291,-1.23908 0.37129,0.30814 2.33168,0.71422 4.35646,0.90241 l 3.68138,0.34214 -0.33651,1.58113 c -0.60793,2.8565 -2.24156,5.91324 -3.16462,5.92145 -1.80652,0.0154 0.59129,0.99312 2.68871,1.09563 1.17319,0.0574 0.41781,0.22295 -1.77917,0.39008 -2.97286,0.22615 -3.85288,0.47408 -3.97558,1.12004 -0.13157,0.69275 0.56969,0.89018 4.25214,1.19691 2.72766,0.22722 4.60131,0.17569 4.91199,-0.13486 0.32986,-0.32986 0.31204,-0.61979 -0.0518,-0.8447 -0.30474,-0.18841 -0.5541,-0.55829 -0.5541,-0.8221 0,-0.59891 3.91902,-0.63896 4.28683,-0.0437 0.26402,0.42717 3.87115,0.80553 13.55809,1.42215 l 4.84739,0.30855 1.66929,-1.55934 c 0.91811,-0.85766 2.52134,-1.83373 3.56276,-2.16911 2.41665,-0.77821 3.16776,-1.38721 3.16776,-2.56842 0,-1.27635 -2.13875,-1.76056 -4.56525,-1.03356 -2.44832,0.73354 -10.64286,0.74492 -14.58257,0.0202 -1.66343,-0.30598 -4.22251,-1.10285 -5.6868,-1.77085 -1.46434,-0.66802 -3.2328,-1.3577 -3.92994,-1.53268 -0.69715,-0.17493 -1.89461,-0.89929 -2.66103,-1.60959 -2.00617,-1.85924 -4.33,-2.68588 -7.55061,-2.68588 -2.16664,0 -2.81976,0.17704 -2.81976,0.76457 0,1.01617 -0.96887,0.97964 -1.36452,-0.0514 -0.50749,-1.32247 0.89267,-1.80632 4.38739,-1.51614 2.81158,0.23345 8.41308,1.97365 9.21009,2.86126 0.37167,0.41394 5.64259,2.52856 6.31188,2.53226 0.31305,0.002 1.25728,0.3841 2.09829,0.8497 1.21432,0.67225 3.56424,0.90772 11.41441,1.1437 8.6624,0.26037 9.9547,0.4075 10.44637,1.18914 0.78749,1.25188 -0.0549,2.44846 -2.60144,3.69537 -3.03327,1.48522 -4.22299,2.7418 -4.22299,4.46029 0,0.82439 -0.39142,2.1615 -0.86981,2.97136 -0.75695,1.28138 -0.78343,1.71128 -0.20427,3.31293 0.99621,2.755 -0.23905,9.78654 -1.94789,11.08807 -0.44046,0.33548 -1.05363,1.06269 -1.36259,1.61604 -0.55752,0.99854 -4.7121,2.79519 -6.47272,2.79914 -0.99885,0.002 -2.39208,2.73151 -2.39947,4.70048 -0.002,0.63975 0.49764,2.22564 1.11121,3.52419 1.06772,2.25974 1.22636,2.37429 3.69973,2.67152 1.4213,0.17088 3.77482,0.31255 5.23006,0.31498 1.45522,0.002 2.7691,0.20382 2.91971,0.44753 0.15065,0.2437 2.3977,0.60924 4.99349,0.81231 5.57367,0.43601 11.59134,1.52661 13.83355,2.50708 0.88132,0.38539 2.68942,1.09072 4.01802,1.56742 3.12349,1.12067 4.46542,2.82533 4.46542,5.67243 0,2.60928 -0.83784,6.99201 -1.74556,9.13107 -0.35689,0.84103 -0.95317,2.90533 -1.32507,4.58736 -0.52729,2.38492 -1.16146,3.58647 -2.88041,5.45751 -1.98342,2.15888 -2.20426,2.65379 -2.20426,4.93956 0,1.39716 -0.19931,2.66347 -0.44291,2.81402 -0.2436,0.15046 -0.60346,2.11411 -0.79967,4.36345 -0.42421,4.86296 -0.92127,5.32583 -5.30287,4.93792 -5.5507,-0.49142 -9.47243,-1.47536 -12.21234,-3.064 -1.50109,-0.87036 -1.64579,-1.14724 -1.34139,-2.56644 0.43709,-2.03776 1.14061,-3.3748 1.77576,-3.3748 0.27493,0 0.44848,-0.6746 0.38564,-1.49912 -0.12618,-1.65517 1.12848,-3.37824 2.84123,-3.90216 1.91818,-0.58676 2.34144,-1.19124 1.81099,-2.58643 -0.48485,-1.27522 0.44426,-5.65517 1.48206,-6.98676 0.52569,-0.67449 2.11908,-5.33068 2.11908,-6.19234 0,-0.39983 -1.80701,-0.6993 -5.4721,-0.90686 -3.06645,-0.17357 -5.54997,-0.54353 -5.64924,-0.84135 -0.31596,-0.94784 -2.08816,-0.5623 -2.82873,0.61536 -0.39663,0.63076 -1.02319,2.06431 -1.39232,3.18568 -0.36913,1.12134 -0.88942,2.33597 -1.15621,2.69916 -0.2668,0.36318 -0.526,3.18181 -0.57601,6.26361 -0.0561,3.45759 -0.3176,5.82992 -0.68287,6.19519 -0.32559,0.32559 -0.59196,1.21927 -0.59196,1.98596 0,0.76671 -0.2071,1.9387 -0.46021,2.60443 -0.30554,0.80361 -0.21526,2.14244 0.2686,3.98341 0.40086,1.52514 0.9597,4.49324 1.24187,6.59578 0.28217,2.10253 0.72246,4.28154 0.97841,4.84221 0.25596,0.56068 0.83197,3.54246 1.28003,6.62618 1.03375,7.11475 2.21362,12.9994 2.83457,14.13745 0.2656,0.4868 0.48291,1.29011 0.48291,1.78517 0,1.56391 2.47474,10.96706 3.03335,11.52568 0.80512,0.80514 0.64183,3.95475 -0.25651,4.94739 -0.72606,0.80229 -0.65272,0.95754 0.89199,1.88842 0.92569,0.55785 3.20205,1.51038 5.05857,2.11671 2.26935,0.74118 3.98139,1.70836 5.22449,2.95146 2.31721,2.31721 2.41743,4.08496 0.36202,6.38585 l -1.48701,1.66459 -6.28603,0.0512 c -3.4573,0.0281 -6.99825,-0.14178 -7.86876,-0.37772 z m -9.16699,-12.59673 c 0.14795,-0.2395 1.67195,-0.58208 3.38653,-0.7613 1.71458,-0.17916 3.29365,-0.43474 3.50905,-0.56788 0.38979,-0.2409 -0.42931,-4.12628 -1.083,-5.13713 -0.47959,-0.7416 -1.77048,-6.56245 -2.19966,-9.91858 -0.19717,-1.54187 -0.67587,-3.4915 -1.06378,-4.33251 -0.74084,-1.60619 -1.941,-7.57077 -2.82042,-14.01693 -0.28683,-2.10254 -0.73182,-4.21727 -0.98887,-4.6994 -0.25704,-0.48211 -0.80656,-2.82179 -1.22116,-5.19926 -1.47543,-8.46068 -2.1356,-9.97989 -4.33684,-9.97989 -0.81728,0 -1.63459,0.24049 -1.81628,0.53445 -0.22614,0.36595 -0.55501,0.34796 -1.043,-0.057 -0.39197,-0.32532 -1.09197,-0.44594 -1.55555,-0.26805 -0.46358,0.17781 -1.35616,-0.0135 -1.98349,-0.42391 -1.04645,-0.68567 -1.23717,-0.64459 -2.30993,0.49729 l -1.1693,1.24466 -0.67951,-1.40305 c -0.66299,-1.36892 -0.79578,-1.40583 -5.45398,-1.51631 l -4.77443,-0.11328 -1.15216,3.42856 c -0.6337,1.88571 -1.29359,3.54323 -1.46645,3.68342 -0.69225,0.56134 -1.73509,4.03932 -2.3689,7.90044 -0.36812,2.2427 -1.11081,4.99512 -1.65039,6.11648 -0.53958,1.12135 -1.38494,3.51816 -1.87859,5.32625 -0.49368,1.80807 -1.19334,3.75772 -1.55486,4.33251 -0.3615,0.5748 -1.02258,2.33394 -1.46903,3.90921 -0.4465,1.57526 -1.13517,3.13251 -1.53042,3.46054 -0.39525,0.32804 -1.23396,1.90628 -1.8638,3.5072 -0.62983,1.60094 -1.43295,3.5989 -1.78468,4.43991 -1.79688,4.29647 -1.80767,4.71119 -0.15855,6.09886 0.84464,0.7107 2.14878,1.42004 2.89812,1.57631 0.74931,0.15624 2.3241,0.50024 3.49951,0.76442 2.80244,0.62981 2.70462,0.65387 2.70824,-0.66655 0.002,-0.63076 0.3525,-1.81678 0.77948,-2.63556 0.52613,-1.0089 0.6093,-1.65577 0.25805,-2.007 -0.35123,-0.35125 0.008,-0.95717 1.11285,-1.88002 1.25271,-1.04581 1.64621,-1.7956 1.69609,-3.23191 0.0449,-1.28958 0.50315,-2.32755 1.47643,-3.34347 0.77634,-0.8103 1.25217,-1.73109 1.05743,-2.0462 -0.19475,-0.31509 0.4683,-1.57651 1.47342,-2.80314 1.00513,-1.22662 1.70241,-2.55628 1.54949,-2.95478 -0.15296,-0.39851 0.0765,-1.01877 0.5097,-1.37834 0.43327,-0.35957 0.78776,-0.93419 0.78776,-1.27693 0,-0.34273 0.43775,-1.0193 0.97278,-1.50352 0.53503,-0.48419 1.33713,-1.99428 1.78245,-3.35576 0.44532,-1.36148 1.49791,-3.58256 2.33909,-4.93576 2.08281,-3.35052 2.17539,-6.10195 0.28857,-8.5757 -0.77451,-1.01542 -1.30282,-1.95158 -1.17406,-2.08034 0.54731,-0.5473 2.52032,1.81549 4.1436,4.96219 1.76095,3.41363 2.51629,6.28801 3.12825,11.90434 0.18321,1.68205 0.64858,3.74635 1.034,4.58736 0.38543,0.84103 1.15815,3.65309 1.71716,6.24904 0.559,2.59593 1.35505,5.46305 1.76899,6.37133 0.41391,0.90829 1.37747,3.44779 2.14119,5.64335 0.83334,2.39559 1.98341,4.5867 2.87605,5.47934 1.44993,1.44992 3.11486,1.9289 3.65681,1.052 z m 13.1355,-5.1631 c -0.40715,-0.30876 -2.0392,-6.28851 -2.71496,-9.94752 -0.25888,-1.4017 -0.67819,-3.00726 -0.93181,-3.56796 -0.54482,-1.20443 -2.35963,-9.6655 -2.81516,-13.12494 -0.17531,-1.3316 -0.50431,-2.42111 -0.73105,-2.42111 -0.657,0 -1.44021,-3.80368 -2.30898,-11.21354 -0.44372,-3.78456 -1.03106,-6.95749 -1.30521,-7.05094 -0.27416,-0.0934 -0.49847,-0.59406 -0.49847,-1.11248 0,-0.92179 -1.81986,-1.90987 -2.41727,-1.31246 -0.16587,0.16587 -0.0578,1.5057 0.24024,2.97735 0.29803,1.47166 0.92029,4.62535 1.38279,7.00823 0.46252,2.38289 1.05782,4.79126 1.32289,5.35193 0.26508,0.56068 1.07431,4.57153 1.79829,8.91302 0.724,4.3415 1.50824,8.12607 1.74278,8.41016 0.23453,0.2841 0.58138,1.43402 0.77079,2.55538 0.53136,3.14593 2.76533,11.61802 3.32463,12.60831 0.27493,0.4868 0.49988,1.10262 0.49988,1.36851 0,0.26591 0.24448,1.12648 0.54328,1.91241 l 0.54329,1.42894 0.95049,-1.26009 c 0.52279,-0.69306 0.79438,-1.37849 0.60356,-1.5232 z m -141.91105,-42.25316 c 0.48679,-0.24694 1.94941,-0.93857 3.25027,-1.53696 2.70061,-1.24226 3.73309,-2.26892 3.33227,-3.31342 -0.35606,-0.9279 -2.96047,-0.36285 -7.73629,1.67846 -0.56068,0.23965 -1.65018,0.68874 -2.42111,0.99797 -0.88141,0.35355 -1.40168,0.94468 -1.40168,1.59258 0,0.86284 0.33256,1.03034 2.04573,1.03034 1.12517,0 2.44403,-0.20204 2.93081,-0.44897 z m 156.77319,-2.06834 c 1.54788,-0.58851 2.3758,-3.86787 2.3758,-9.41057 v -3.7224 l -3.1489,0.13254 c -1.73192,0.0728 -3.71443,-0.0827 -4.40562,-0.34536 -1.11734,-0.4248 -1.56183,-0.16529 -4.00856,2.34077 -1.51353,1.55022 -2.96827,2.81857 -3.23276,2.81857 -0.2645,0 -1.10506,0.94317 -1.86792,2.09592 -1.34455,2.03177 -1.3574,2.11761 -0.41952,2.80339 0.53212,0.38911 1.307,0.70747 1.72194,0.70747 0.41493,0 1.19854,0.40138 1.74133,0.89199 0.5428,0.49059 1.7077,0.93242 2.58867,0.98185 0.88097,0.0495 2.51924,0.30975 3.64059,0.57851 2.77553,0.66523 3.54871,0.68486 5.01495,0.12734 z m -184.9414,-2.57975 c 0.19245,-0.31133 -0.58936,-0.50971 -2.00873,-0.50971 -1.27808,0 -2.32376,0.22936 -2.32376,0.50971 0,0.28034 0.90393,0.5097 2.00875,0.5097 1.1048,0 2.15049,-0.22936 2.32374,-0.5097 z m 30.32755,-1.8008 c 1.41713,-0.25726 1.62675,-0.20155 1.01942,0.27097 -0.60722,0.47243 -0.35823,0.53819 1.20998,0.31956 1.08602,-0.15142 2.0793,-0.37997 2.20727,-0.50796 0.28336,-0.28337 -0.80768,-11.53274 -1.17639,-12.12932 -0.40189,-0.65027 -1.89853,-0.50514 -3.04071,0.29486 -1.21919,0.85396 -6.14235,1.82944 -9.23305,1.82944 -2.1006,0 -2.20006,0.0686 -2.20006,1.51636 0,1.41962 0.0996,1.49649 1.55961,1.20446 0.85779,-0.17146 2.06196,-0.0591 2.67596,0.24963 0.614,0.30885 1.80445,0.64994 2.64546,0.758 1.34738,0.17319 1.30195,0.20553 -0.38227,0.27282 -1.05128,0.042 -1.9114,0.30001 -1.9114,0.57333 0,0.64427 3.07255,0.0719 4.07766,-0.75969 0.4205,-0.34788 1.55129,-0.74147 2.51286,-0.87463 l 1.74831,-0.24214 -1.39446,1.19947 c -0.76694,0.65969 -1.8404,1.19945 -2.38543,1.19945 -0.54505,0 -0.991,0.22936 -0.991,0.50972 0,0.28033 -0.4014,0.5132 -0.89199,0.5175 -0.49059,0.004 -1.23603,0.25296 -1.65653,0.55262 -0.76866,0.54773 -0.35927,0.5149 3.56794,-0.28608 0.70084,-0.14294 0.0135,0.16491 -1.52912,0.68387 -2.40679,0.81027 -2.82724,1.14447 -2.97199,2.36233 -0.16818,1.41413 -0.16086,1.41762 2.29368,1.11393 1.35426,-0.1676 3.26507,-0.45038 4.24625,-0.6285 z m -23.21714,-0.81088 c 0.26633,-0.24561 1.09779,-0.44656 1.8477,-0.44656 0.74991,0 2.08024,-0.14332 2.95629,-0.31857 1.56538,-0.31307 1.59196,-0.36799 1.54243,-3.18568 -0.0277,-1.57689 -0.19975,-4.12861 -0.38228,-5.67046 l -0.33187,-2.80339 -7.1359,-0.0339 c -6.72709,-0.032 -9.42957,-0.51376 -9.42957,-1.68106 0,-0.22264 0.51608,-0.3866 1.14683,-0.36433 1.13228,0.0399 1.14466,-0.0308 0.97487,-5.5663 -0.12349,-4.02779 -0.37254,-5.76452 -0.88407,-6.1669 -0.39165,-0.30804 -0.56274,-0.70943 -0.38021,-0.89198 0.18263,-0.18244 -0.45179,-0.33538 -1.4096,-0.33968 -1.31197,-0.006 -1.55293,-0.12965 -0.97694,-0.50191 0.42051,-0.27175 1.29209,-0.4976 1.93683,-0.5019 1.10374,-0.008 1.16335,-0.17839 1.01942,-2.92518 l -0.15276,-2.91738 -3.43475,-0.0135 c -1.88911,-0.008 -3.51772,0.21593 -3.61914,0.49629 -0.19034,0.52592 1.78123,10.61838 2.33986,11.97809 0.93146,2.26724 1.40094,7.02975 1.40094,14.21194 0,4.4249 0.13311,8.17842 0.29586,8.34115 0.45285,0.45285 12.12512,-0.19072 12.67616,-0.69882 z m -8.12981,-8.30181 -2.54854,-0.65415 4.44679,-0.39185 c 4.60308,-0.40564 8.04102,-0.0769 8.04102,0.76903 0,0.26765 -0.51608,0.48861 -1.14684,0.49104 -0.63075,0.002 -2.29367,0.10248 -3.69537,0.22225 -1.40169,0.11983 -3.69538,-0.0765 -5.09706,-0.43632 z m 82.82732,6.32614 c 0,-0.28036 -0.34404,-0.50972 -0.76457,-0.50972 -0.42229,0 -0.76455,-0.45199 -0.76455,-1.0097 0,-0.69136 0.44195,-1.10119 1.40169,-1.29985 0.77095,-0.15951 2.08981,-0.48704 2.93082,-0.7277 1.47657,-0.4225 1.48886,-0.45015 0.35759,-0.80487 -1.64251,-0.51501 -1.22476,-1.83929 0.91817,-2.91065 0.98037,-0.49013 1.99511,-0.96242 2.255,-1.04949 0.2599,-0.0871 0.30685,-0.42642 0.10442,-0.75403 -0.26766,-0.43307 -0.8816,-0.32051 -2.24896,0.41235 -1.03443,0.55443 -2.10101,1.00806 -2.37015,1.00806 -0.6801,0 -3.34854,2.61847 -3.34854,3.28583 0,0.30062 -0.46928,0.83966 -1.04284,1.19786 -0.57358,0.35821 -1.23314,1.15882 -1.4657,1.77916 -0.34018,0.90735 -0.21101,1.1927 0.66058,1.45936 1.70053,0.52028 3.37708,0.48223 3.37708,-0.0767 z m 73.34495,-4.35026 c 0.87007,-0.99094 1.60004,-2.19511 1.62217,-2.67595 0.0247,-0.53677 0.13986,-0.62706 0.29839,-0.23395 0.14198,0.35217 0.49668,0.4929 0.78821,0.31272 0.34325,-0.21216 0.45379,0.32559 0.31366,1.52594 -0.26373,2.25896 0.29914,2.37013 1.55388,0.3069 0.70304,-1.15606 1.00705,-2.94902 1.20378,-7.09968 0.19684,-4.15292 0.52858,-6.10835 1.31571,-7.7555 1.83812,-3.84643 1.85224,-4.59457 0.11809,-6.25594 -0.8549,-0.81905 -1.55436,-1.79032 -1.55436,-2.15837 0,-0.94918 0.14641,-0.87735 2.24403,1.10095 2.39542,2.25918 4.93385,2.9424 11.19939,3.01429 4.68638,0.0538 5.08589,-0.0214 5.79639,-1.08908 1.11231,-1.67169 2.27448,-1.5118 1.85243,0.25487 -0.18417,0.77093 -0.50369,1.63105 -0.71007,1.91139 -0.20638,0.28033 -0.99952,2.34466 -1.76251,4.58736 -0.76299,2.24271 -1.87931,5.04932 -2.48071,6.23692 l -1.09343,2.15924 1.31682,1.31685 c 1.6187,1.61868 4.24773,2.25955 7.49838,1.82785 5.234,-0.6951 8.26301,-5.68303 9.79415,-16.12822 0.32877,-2.2427 0.80769,-4.48166 1.06427,-4.97545 1.00486,-1.93386 -1.87998,-4.46566 -5.92073,-5.19617 -1.12135,-0.20272 -2.26818,-0.55025 -2.54852,-0.77228 -0.28034,-0.22204 -1.31249,-0.53135 -2.29369,-0.68737 -0.98118,-0.15605 -3.04549,-0.51213 -4.58736,-0.79137 -8.86044,-1.60464 -20.95204,-2.23418 -21.63662,-1.12651 -0.15893,0.25728 -1.72076,1.46146 -3.4706,2.67595 -2.90117,2.01363 -3.44042,2.20321 -6.12037,2.1516 -2.702,-0.052 -2.96374,0.0424 -3.2472,1.17182 -0.16953,0.67562 -0.11116,6.43529 0.12965,12.79926 0.4982,13.1644 0.49839,12.71403 -0.006,14.24681 -0.37025,1.12489 -0.29985,1.14684 3.68173,1.14684 4.00854,0 4.07894,-0.0225 5.64111,-1.80172 z m -1.98601,-13.74861 c -0.70086,-0.39829 -1.61834,-0.73958 -2.03884,-0.75844 -0.42051,-0.0193 -1.19062,-0.35703 -1.7114,-0.75149 -0.83238,-0.63053 -0.90314,-1.15231 -0.58539,-4.31631 0.29166,-2.90445 0.52852,-3.59907 1.22717,-3.59907 0.47616,0 1.10085,0.23512 1.38822,0.52247 0.28736,0.28737 2.54395,0.75218 5.01466,1.03292 2.47069,0.28075 4.69068,0.63311 4.93325,0.78303 0.2426,0.14988 0.32556,0.83196 0.18437,1.51563 -0.14121,0.68366 -0.36917,1.79014 -0.5066,2.45883 -0.1678,0.81656 -0.96286,1.5479 -2.42113,2.22719 -3.31309,1.54328 -4.10226,1.67067 -5.48429,0.88524 z m 5.30685,-2.35622 c 1.67351,-1.47308 2.34584,-2.4301 2.23801,-3.18568 -0.1439,-1.00834 -0.49906,-1.08964 -5.35223,-1.22499 l -5.19811,-0.14506 -0.34242,1.82529 c -0.18841,1.0039 -0.25755,1.89341 -0.15373,1.97669 1.09619,0.88003 4.95974,2.85073 5.5962,2.85446 0.45112,0.002 1.89667,-0.9427 3.21236,-2.10081 z m -22.63689,16.66545 c 0,-0.12195 -0.23728,-0.84579 -0.52731,-1.60859 -0.57125,-1.50253 0.74024,-7.08095 2.63331,-11.20074 0.52374,-1.13979 0.95224,-2.71441 0.95224,-3.49915 0,-1.39936 -0.0243,-1.41097 -1.25633,-0.60364 -0.69098,0.45276 -1.53305,0.82318 -1.87126,0.82318 -0.33821,0 -1.0246,0.37076 -1.52533,0.8239 -0.84941,0.76869 -1.03234,0.69458 -2.73097,-1.10647 -1.0939,-1.1599 -2.00235,-1.74306 -2.27603,-1.46104 -0.25049,0.25814 -0.61659,3.35308 -0.81355,6.87764 l -0.35811,6.40826 1.6458,1.87445 c 0.92597,1.05464 2.1243,1.87789 2.73982,1.88228 0.60173,0.004 1.43809,0.23013 1.8586,0.5019 0.80851,0.52249 1.52912,0.65823 1.52912,0.28802 z m -4.59998,-3.63431 c -0.27338,-0.71908 -0.48096,-1.80859 -0.46125,-2.4211 0.0345,-1.07486 0.0511,-1.07816 0.47387,-0.0942 0.4186,0.97413 0.43965,0.97602 0.47389,0.0424 0.0624,-1.7047 0.64185,-0.44964 0.78821,1.70756 0.15835,2.33297 -0.52313,2.74209 -1.27472,0.76531 z m -114.91418,-2.10308 c -0.18109,-1.20795 -0.56719,-2.19623 -0.85787,-2.19623 -0.55179,0 -0.1048,5.89642 0.52155,6.88103 0.49342,0.77558 0.70764,-2.20854 0.33632,-4.6848 z m 5.04387,0.4189 c 0.15065,-0.24369 2.34314,-0.60496 4.87228,-0.80283 2.52914,-0.19784 4.59846,-0.50361 4.59846,-0.67947 0,-0.17589 -0.73311,-1.07612 -1.62912,-2.00056 -1.10804,-1.1432 -2.10365,-1.68081 -3.11276,-1.68081 -1.13979,0 -1.41238,0.18571 -1.17612,0.80148 0.16914,0.44083 0.0876,1.21231 -0.18109,1.71444 -0.42896,0.80156 -0.7992,0.85155 -3.03402,0.40968 -3.12719,-0.61833 -4.11931,-0.28332 -4.11931,1.39092 0,1.13055 0.21707,1.29026 1.7539,1.29026 0.96463,0 1.87711,-0.19939 2.02774,-0.44311 z m 44.62023,-6.71815 c 1.02653,-1.80826 2.28018,-3.91849 2.78593,-4.68942 0.89704,-1.36743 0.89474,-1.4017 -0.0938,-1.4017 -2.46684,0 -9.80785,4.38053 -9.80785,5.85253 0,0.32166 0.80986,0.97103 1.79969,1.44305 0.98981,0.47202 1.93554,1.2123 2.10162,1.64507 0.49385,1.28697 1.24322,0.62267 3.21432,-2.84953 z m -55.53777,2.0642 c -0.70084,-0.22445 -2.07704,-0.4081 -3.05824,-0.4081 -1.6144,0 -1.66285,0.0387 -0.5097,0.4081 0.70084,0.22443 2.07706,0.40808 3.05824,0.40808 1.6144,0 1.66285,-0.0387 0.5097,-0.40808 z m 46.84025,-2.89496 c 1.57089,-1.03153 3.63725,-2.50874 4.59193,-3.28267 1.72762,-1.40053 1.73528,-1.42582 1.63153,-5.3878 -0.0805,-3.07465 -0.30157,-4.12532 -0.97122,-4.61629 -2.863,-2.0991 -4.08612,-4.20656 -2.44139,-4.20656 0.39557,0 1.32324,-0.7178 2.06143,-1.5951 1.18097,-1.4035 1.32417,-1.96982 1.19215,-4.71478 -0.14333,-2.98151 -0.21212,-3.12684 -1.55174,-3.28097 -1.74405,-0.20068 -1.77438,0.23111 -0.10827,1.5417 1.02281,0.80454 1.16973,1.1665 0.70214,1.72991 -0.32521,0.39186 -1.05127,0.71246 -1.61344,0.71246 -0.90703,0 -0.98544,0.22961 -0.69613,2.03884 0.28685,1.79389 0.20644,2.03882 -0.66934,2.03882 -0.54744,0 -1.13711,-0.22937 -1.31037,-0.5097 -0.17319,-0.28034 -0.072,-0.50972 0.22478,-0.50972 0.29688,0 0.53979,-0.81084 0.53979,-1.80191 0,-1.66861 -0.0786,-1.75981 -1.06308,-1.23296 -1.64723,0.88158 -1.83739,0.10595 -0.53062,-2.16464 1.23176,-2.14023 2.09536,-7.68297 1.27587,-8.18872 -0.9577,-0.59104 -11.81083,-1.33517 -14.46367,-0.99166 -2.52309,0.32666 -2.80339,0.48591 -2.80339,1.59271 0,1.00659 0.27748,1.24605 1.52912,1.31964 0.84103,0.0495 1.78813,-0.10769 2.10468,-0.34906 1.0703,-0.81629 1.11846,2.05872 0.0678,4.05243 -1.3897,2.63727 -1.65888,2.84149 -2.88237,2.18669 -0.90988,-0.48695 -1.07415,-0.4327 -1.07415,0.35472 0,0.51126 -0.45873,1.82935 -1.0194,2.92909 -1.28138,2.51334 -1.29036,3.92932 -0.0322,5.06799 1.12555,1.01863 2.07093,0.67969 2.07093,-0.74248 0,-1.17887 2.5245,-1.77231 5.91417,-1.39026 2.66647,0.30057 4.27997,1.55203 4.27997,3.31964 0,1.11736 -0.15334,1.21478 -1.40168,0.88997 -2.72131,-0.70811 -4.35546,-0.44918 -5.44737,0.86318 -0.57828,0.69501 -1.45279,1.40666 -1.94338,1.58144 -2.4994,0.89048 0.48388,3.95472 4.19764,4.31155 2.49196,0.23944 4.703,-0.30711 9.00432,-2.22586 1.91584,-0.85463 2.72635,-0.90776 2.72635,-0.17877 0,0.57495 -5.1516,3.03019 -6.35794,3.03019 -0.49429,0 -0.78354,0.76378 -0.91691,2.42112 -0.15624,1.94231 -0.27439,2.19431 -0.59711,1.27425 -0.49355,-1.40719 -1.09852,-1.46144 -1.79452,-0.16085 -0.80925,1.51209 -0.62795,3.86578 0.36435,4.73022 2.18523,1.90366 3.77008,1.80347 7.21055,-0.45576 z m -14.62679,-22.18263 c -0.33641,-0.3364 -0.61164,-0.95365 -0.61164,-1.37167 0,-0.56734 0.1859,-0.50918 0.73351,0.22936 0.61032,0.82321 0.90085,0.88734 1.72972,0.38184 0.65511,-0.39954 1.49468,-0.45818 2.45214,-0.17126 l 1.45596,0.43632 -1.62647,0.0439 c -0.89454,0.0241 -1.76821,0.27317 -1.94147,0.55351 -0.42642,0.68997 -1.44733,0.64249 -2.19175,-0.10191 z m 6.39682,-0.23562 c 0.35042,-0.14141 0.63714,-0.58202 0.63714,-0.97916 0,-0.81776 0.80595,-0.97016 1.25845,-0.23796 0.2908,0.47052 -1.28146,1.59532 -2.11694,1.51444 -0.22869,-0.0222 -0.12907,-0.15585 0.22135,-0.29732 z m -0.0904,-4.92418 c -0.71329,-0.52157 -0.84147,-1.04227 -0.5657,-2.29791 0.46851,-2.13312 1.87892,-2.89692 3.724,-2.01673 1.5506,0.73974 2.14395,3.0113 1.1115,4.2553 -0.76243,0.91869 -3.05109,0.95049 -4.2698,0.0593 z m 3.2862,-3.13609 c -0.79096,-0.95305 -2.358,-1.0158 -2.70622,-0.10827 -0.18552,0.48364 0.1518,0.60861 1.21973,0.45185 0.97261,-0.14275 1.47628,0.006 1.47628,0.43584 0,0.35888 0.14737,0.50514 0.32747,0.32501 0.18013,-0.18012 0.0374,-0.67707 -0.31726,-1.10435 z m 2.83673,2.45867 c 0.5314,-2.24952 1.33039,-2.75872 1.13961,-0.72627 -0.0901,0.9596 -0.46047,1.84217 -0.82313,1.96128 -0.48541,0.15951 -0.5689,-0.16645 -0.31648,-1.23501 z m -29.48973,27.5486 c -0.16934,-0.16933 -0.60901,-0.18744 -0.97694,-0.0403 -0.40662,0.16279 -0.28585,0.28348 0.30794,0.30794 0.53731,0.0222 0.83835,-0.0984 0.669,-0.26771 z m 23.39604,-3.5541 c 0.5663,-1.80927 0.56043,-1.82065 -0.76724,-1.4894 -3.09949,0.77333 -4.22068,3.31263 -1.46266,3.31263 1.45694,0 1.72883,-0.22232 2.2299,-1.82323 z m 87.59277,-1.36243 c 2.19403,-2.06675 2.92919,-4.45994 1.37003,-4.45994 -0.57452,0 -1.18634,-0.22937 -1.35961,-0.5097 -0.17319,-0.28034 -1.68489,-0.50972 -3.35917,-0.50972 -3.30862,0 -4.23432,0.78098 -3.09261,2.60914 0.32459,0.51974 0.59015,1.31273 0.59015,1.76219 0,1.01616 1.98577,2.72484 3.19315,2.74761 0.49471,0.01 1.69083,-0.72848 2.65806,-1.63958 z m -8.41789,-4.33251 c -0.01,-0.77092 -0.34592,-2.77457 -0.74649,-4.45253 -0.44999,-1.88491 -0.54684,-3.23233 -0.2534,-3.52575 0.54969,-0.54969 0.80603,0.0778 1.21093,2.96464 0.15392,1.09717 0.52873,2.244 0.83298,2.54854 0.33225,0.33258 2.83313,0.5537 6.2624,0.5537 h 5.70925 l 0.16433,-1.43251 c 0.18686,-1.6298 -0.76222,-3.073 -1.76727,-2.68732 -0.77823,0.29864 -1.71007,-1.18772 -1.71007,-2.7277 0,-0.57911 -0.20386,-1.05292 -0.45299,-1.05292 -0.24915,0 -0.60375,-0.8037 -0.78803,-1.78599 -0.44334,-2.3632 -1.92025,-3.64911 -4.93335,-4.2953 -2.52696,-0.54193 -6.71838,-0.026 -8.81162,1.08465 -0.53298,0.28279 -5.29183,0.69778 -10.57521,0.9222 l -9.60615,0.40804 -1.45938,-1.36327 c -0.80268,-0.7498 -2.47357,-1.88488 -3.7131,-2.5224 -1.23952,-0.63752 -2.47563,-1.6648 -2.74689,-2.28287 -0.27192,-0.61956 -0.95059,-1.12375 -1.51263,-1.12375 -0.82885,0 -1.04801,0.39082 -1.17246,2.09083 -0.13022,1.77889 0.0455,2.22093 1.17762,2.96273 0.98687,0.64661 1.2898,1.2258 1.17246,2.24167 -0.14795,1.28175 -0.32763,1.3731 -2.79478,1.42142 -2.87542,0.0562 -4.64719,1.12572 -3.60003,2.17286 0.31838,0.31838 0.75087,0.57888 0.96109,0.57888 0.21021,0 1.40178,0.68811 2.64794,1.52912 1.24614,0.84101 2.48331,1.52912 2.74928,1.52912 0.26594,0 1.93465,0.97482 3.70822,2.16625 3.59221,2.41315 3.14526,2.36108 16.04864,1.86995 l 5.60678,-0.21339 3.80395,1.91138 c 2.09218,1.05129 3.98446,1.91141 4.20507,1.91141 0.22062,0 0.39296,-0.63076 0.38298,-1.40169 z m -83.74027,-4.87646 c 0.79244,-0.64962 2.1949,-1.48381 3.11655,-1.85378 2.25911,-0.90684 1.78039,-1.81882 -0.92225,-1.75695 -1.79449,0.041 -2.46811,0.34883 -3.64375,1.66459 -2.52497,2.82597 -1.4252,4.30261 1.44945,1.94614 z m 108.57022,-3.41144 c 3.67384,-1.96045 4.07173,-2.3074 4.47106,-3.89848 0.22128,-0.88162 0.0516,-1.62043 -0.51596,-2.24766 -0.74906,-0.82772 -0.97135,-0.85194 -1.94756,-0.21232 -0.60608,0.39714 -2.80418,1.08013 -4.88465,1.51778 -2.08047,0.43763 -3.8902,0.90321 -4.0216,1.03464 -0.27132,0.27132 0.65655,2.483 1.75929,4.19349 0.9697,1.50406 1.69767,1.44917 5.13942,-0.38745 z m -11.5493,-1.7852 c 1.83499,-1.15837 2.74616,-2.79699 1.55529,-2.79699 -0.26038,0 -1.3334,-0.81108 -2.38451,-1.80239 -1.69069,-1.59452 -1.99842,-1.71504 -2.66846,-1.04498 -0.53983,0.53983 -0.60542,0.94773 -0.22834,1.42008 0.29099,0.3645 0.68672,1.75222 0.87944,3.08382 0.19271,1.33162 0.45557,2.42111 0.58412,2.42111 0.1285,0 1.14668,-0.5763 2.26246,-1.28065 z m 9.4136,-4.24624 c 2.77762,-0.66777 3.60343,-1.07956 3.74963,-1.86981 0.10306,-0.5574 0.62182,-1.97567 1.15267,-3.15173 1.26616,-2.80515 1.21831,-4.06666 -0.18167,-4.78852 -2.01473,-1.03884 -3.44052,-2.64492 -3.44052,-3.8756 0,-1.02718 0.18301,-1.1492 1.30249,-0.86823 0.95955,0.24083 1.63055,0.0193 2.54852,-0.84369 0.68534,-0.64384 1.24605,-1.37637 1.24605,-1.62787 0,-0.2515 0.34406,-0.80132 0.76457,-1.22183 1.02481,-1.02483 1.00426,-3.24027 -0.0301,-3.24027 -0.43706,0 -0.66,0.21786 -0.49543,0.48414 0.16452,0.26627 -0.18417,0.74278 -0.77476,1.05889 -0.59069,0.31613 -1.30765,1.2451 -1.59327,2.0644 -0.48313,1.38589 -1.94868,2.12287 -1.94868,0.97993 0,-0.28034 0.21896,-0.50972 0.4866,-0.50972 0.26764,0 0.64276,-0.83238 0.83363,-1.84974 0.22316,-1.18956 0.68621,-1.93845 1.29735,-2.09829 0.99954,-0.26136 1.24669,-0.90574 0.51974,-1.35501 -0.49173,-0.30389 -3.71599,2.53096 -4.50315,3.95928 -0.44216,0.80229 -0.69906,0.85598 -1.65305,0.34542 -1.08113,-0.57859 -1.11428,-0.79954 -0.77357,-5.15499 l 0.35599,-4.55051 -1.97716,0.0358 c -1.08742,0.0197 -2.3924,0.1996 -2.89994,0.39976 -0.81306,0.32066 -0.70697,0.56035 0.89199,2.01538 1.84625,1.68003 2.2917,2.64611 1.22013,2.64611 -0.32705,0 -0.44374,-0.15084 -0.25928,-0.33538 0.18456,-0.18455 0.0776,-0.64603 -0.23753,-1.0257 -0.4328,-0.52149 -0.74334,-0.54886 -1.26984,-0.11192 -1.06873,0.88697 -0.8288,1.9759 0.44991,2.04184 0.9621,0.0495 0.99237,0.0988 0.18782,0.30513 -1.56959,0.40263 -3.24897,-0.78605 -2.9941,-2.11927 0.15585,-0.81502 -0.18648,-1.47837 -1.1563,-2.24127 -0.84504,-0.6647 -1.2629,-1.38251 -1.08093,-1.85677 0.20328,-0.52969 -0.0193,-0.77314 -0.70672,-0.77314 -0.86544,0 -1.00343,0.35347 -1.00343,2.57037 0,2.34327 -0.20264,2.78701 -2.29367,5.0225 -1.26153,1.34867 -2.29369,2.68295 -2.29369,2.96508 0,0.28215 1.31887,0.65544 2.93083,0.82957 2.57136,0.27777 3.04021,0.1859 3.82279,-0.74972 l 0.89198,-1.06631 v 1.06616 c 0,1.0917 -0.75636,1.43012 -3.82279,1.7104 -1.14568,0.10479 -1.57004,0.42792 -1.69231,1.28887 -0.0904,0.63655 0.13697,1.23086 0.50972,1.33239 3.92324,1.06845 5.29849,1.22287 5.96493,0.66977 0.59583,-0.49448 0.6506,-0.38061 0.32493,0.67553 -0.53836,1.7459 -0.67794,1.8308 -1.82851,1.11227 -0.55404,-0.34603 -2.0345,-0.7699 -3.28991,-0.94198 -2.194,-0.30071 -2.28254,-0.26192 -2.28254,1.0006 0,0.72242 0.24998,1.46796 0.55549,1.65679 0.33211,0.20524 0.42737,1.02618 0.23692,2.04138 -0.45339,2.41677 0.55719,2.77253 7.87552,2.77253 6.09959,0 7.64269,-0.39169 7.64269,-1.93999 0,-0.63702 1.47649,-1.85048 1.82616,-1.50082 0.42131,0.42133 -1.0518,3.60714 -2.05121,4.43601 -0.62525,0.51855 -2.41833,0.77372 -5.98534,0.8518 -2.80097,0.0613 -5.22635,0.24512 -5.38973,0.40851 -0.39941,0.39941 1.91422,2.84702 3.18995,3.37469 1.4842,0.61391 3.12494,0.50961 7.13006,-0.45325 z m -106.36157,-4.79902 c 0.18533,-1.60502 -0.67356,-1.90736 -1.07351,-0.37793 -0.14661,0.56069 -0.68946,1.02292 -1.20629,1.02722 -0.79493,0.006 -0.8219,0.0851 -0.17511,0.50907 1.25028,0.81972 2.28288,0.33248 2.45495,-1.15836 z m 41.56594,0.6045 c 1.40947,-1.10869 1.72253,-2.21682 0.78925,-2.79362 -0.64721,-0.39999 -4.1208,2.7869 -3.72884,3.42108 0.4426,0.71614 1.52525,0.48505 2.93959,-0.62746 z m 4.40124,-2.00183 c 0,-0.84101 -0.22938,-1.52912 -0.50972,-1.52912 -0.28033,0 -0.5097,0.2539 -0.5097,0.56424 0,0.31033 -0.34404,0.43222 -0.76456,0.27084 -1.08286,-0.41554 -0.97259,1.03192 0.12733,1.67262 1.3971,0.81373 1.65656,0.66048 1.65656,-0.97858 z m -48.42213,0 c 0,-0.28034 -0.10114,-0.50972 -0.22478,-0.50972 -0.12368,0 -0.36653,0.22938 -0.53979,0.50972 -0.17319,0.28034 -0.072,0.5097 0.22478,0.5097 0.29688,0 0.53979,-0.22936 0.53979,-0.5097 z m 34.45558,-4.39059 c 1.79314,-0.8509 2.05961,-1.44039 1.2383,-2.73942 -0.39781,-0.62919 -0.78789,-0.45992 -2.28586,0.99197 -2.70618,2.62294 -2.28342,3.32812 1.04756,1.74745 z m 71.81824,-19.19305 c 0.34563,-0.35437 0.20914,-0.41643 -0.42395,-0.19275 -0.51354,0.18148 -1.96061,0.32987 -3.21575,0.32987 -1.25514,0 -2.15749,0.2016 -2.0052,0.44802 0.35749,0.57839 4.97715,0.0996 5.6449,-0.58514 z m 19.51949,-0.4484 c 0.16375,-0.86502 -0.5476,-1.0289 -7.28653,-1.67871 -8.98993,-0.86689 -11.59571,-0.92112 -11.36754,-0.23657 0.32112,0.96332 2.11753,1.37152 6.29597,1.43058 1.97638,0.0279 3.81132,0.26485 4.07766,0.52646 0.53437,0.52494 3.58183,0.93425 6.3416,0.8518 1.2212,-0.0364 1.82967,-0.31692 1.93884,-0.89356 z m -27.56762,-8.07948 c 0.1466,-0.56067 0.48444,-1.01942 0.7507,-1.01942 0.26625,0 0.41153,-0.63076 0.32283,-1.40168 -0.12868,-1.1176 -0.45799,-1.43561 -1.62507,-1.56898 -2.12628,-0.24299 -2.88633,0.75659 -1.09355,1.43819 l 1.43147,0.54424 -1.09361,1.1641 c -1.37075,1.45911 -1.37649,1.86295 -0.0266,1.86295 0.63849,0 1.17423,-0.40948 1.33372,-1.0194 z m -135.90269,104.56703 c -0.83261,-1.55575 -0.66019,-1.98902 0.26555,-0.66733 0.44911,0.64119 0.69706,1.28529 0.551,1.43134 -0.14603,0.14602 -0.5135,-0.19775 -0.81655,-0.76401 z m -3.40282,-10.39873 -0.97099,-1.14684 1.14686,0.97099 c 1.07773,0.91249 1.37887,1.32268 0.97098,1.32268 -0.0967,0 -0.6128,-0.51607 -1.14685,-1.14683 z m 3.83265,-0.25485 -1.23568,-1.40171 1.40169,1.23571 c 1.3101,1.15492 1.63544,1.56768 1.2357,1.56768 -0.0913,0 -0.72207,-0.63075 -1.40171,-1.40168 z m -0.74694,-4.7487 c -0.18475,-0.29899 -0.22665,-0.65293 -0.0931,-0.78655 0.1337,-0.1337 0.37874,0.11096 0.54475,0.54362 0.34466,0.89815 0.0508,1.05614 -0.4517,0.24293 z m 0.40325,-36.02666 c -3.79003,-0.94784 -4.33608,-2.13825 -1.01942,-2.22239 1.19145,-0.0303 2.96904,-0.1 3.95022,-0.15489 2.58624,-0.14487 6.2297,0.61434 7.09352,1.47816 0.41045,0.41043 0.64522,0.83456 0.52174,0.94248 -0.79066,0.69102 -7.72358,0.66255 -10.54606,-0.0433 z m 6.12349,-0.48739 c -0.62691,-0.12099 -1.77376,-0.12407 -2.54854,-0.008 -0.77478,0.11713 -0.26186,0.21615 1.13982,0.21996 1.40171,0.004 2.03562,-0.0921 1.40872,-0.21301 z m -6.76063,-3.23139 c -1.26152,-0.20837 0.45873,-0.25909 3.82279,-0.1127 3.36406,0.14641 6.21205,0.35127 6.32887,0.45539 0.3678,0.32785 -7.75134,0.0537 -10.15166,-0.34264 z m 9.98052,-9.02506 c -0.21093,-0.21025 -1.56804,-0.40076 -3.01577,-0.42333 -3.36186,-0.0524 -6.96475,-0.72408 -6.96475,-1.29837 0,-0.24451 0.17203,-0.41739 0.38229,-0.3842 1.22713,0.19377 1.66481,-0.2399 1.73291,-1.71691 l 0.0763,-1.65653 0.22359,1.52912 c 0.27841,1.90402 0.99528,2.80337 2.23462,2.80337 0.80431,0 0.97001,-0.42694 1.03857,-2.67596 0.0628,-2.06055 0.13061,-2.26569 0.29471,-0.89198 0.2246,1.8801 1.49344,3.73261 2.24036,3.271 0.24289,-0.15007 0.4416,-1.90318 0.4416,-3.89573 0,-4.36089 0.68813,-4.19606 0.80437,0.19266 0.0792,2.98916 0.72435,4.22323 1.999,3.82368 0.28036,-0.0879 0.57728,-1.67859 0.65987,-3.53494 0.11366,-2.55409 0.3148,-3.31201 0.82697,-3.11545 1.08343,0.41574 0.34106,-2.28863 -0.79518,-2.89671 -0.53217,-0.28481 -1.13486,-0.42513 -1.33931,-0.31184 -0.20447,0.11328 -2.32137,-0.079 -4.70426,-0.4273 -2.38288,-0.3483 -3.70175,-0.65977 -2.9308,-0.69214 0.77093,-0.0324 1.40168,-0.25042 1.40168,-0.48456 0,-0.76412 -4.41923,-4.92998 -6.31007,-5.94826 -2.19041,-1.1796 -2.29062,-1.55902 -0.52861,-2.00125 0.72413,-0.18167 2.21046,-0.89472 3.30295,-1.58437 1.09249,-0.68967 2.21719,-1.25393 2.49932,-1.25393 0.5271,0 5.20367,-3.83872 9.22011,-7.56825 1.24591,-1.15691 2.37997,-2.09887 2.52014,-2.09323 0.14025,0.006 0.63548,0.82233 1.1007,1.81486 0.80219,1.71147 0.80013,1.76324 -0.0401,1.00281 -1.29571,-1.17259 -1.80231,-1.02158 -4.22409,1.25918 -2.64008,2.48638 -9.76048,7.62345 -10.56668,7.62345 -0.31759,0 -1.14681,0.37306 -1.8427,0.82903 -0.99112,0.6494 -1.13936,0.9807 -0.68422,1.52912 0.31958,0.38504 0.84184,0.70009 1.16057,0.70009 0.31875,0 0.86604,0.45875 1.21619,1.01942 0.35015,0.56067 0.92263,1.0194 1.27221,1.0194 0.34957,0 1.6096,0.91747 2.80009,2.03884 1.19049,1.12135 2.33609,2.04749 2.54577,2.05806 3.95334,0.19962 5.76135,1.13908 7.07271,3.67494 0.399,0.77158 1.06363,1.40288 1.47693,1.40288 0.9099,0 1.01643,0.99794 0.11443,1.07107 -0.35042,0.0283 -1.38257,0.0116 -2.29367,-0.0391 -1.64405,-0.09 -1.65655,-0.0728 -1.65655,2.27554 0,3.41672 -1.35545,5.35792 -2.76215,3.95578 z m -10.99994,-5.76498 v -3.089 l -1.91138,0.15816 c -1.72316,0.14256 -1.898,0.28956 -1.77532,1.49207 0.0747,0.73363 -0.0827,1.88047 -0.34998,2.54852 -0.38911,0.9724 -0.4925,0.57925 -0.51837,-1.971 l -0.0324,-3.18566 h 2.06329 c 1.60706,0 2.34052,-0.30993 3.31719,-1.4017 l 1.25393,-1.40169 -0.51382,1.43488 c -0.28259,0.78917 -0.51381,3.02551 -0.51381,4.96964 0,2.01671 -0.2189,3.53475 -0.5097,3.53475 -0.28374,0 -0.50972,-1.36947 -0.50972,-3.08901 z m 15.80092,-9.3988 c -0.35397,-0.42648 -0.40916,-0.76455 -0.12483,-0.76455 0.28033,0 0.79525,0.34404 1.14423,0.76455 0.35397,0.4265 0.40916,0.76457 0.12483,0.76457 -0.28033,0 -0.79525,-0.34406 -1.14423,-0.76457 z m -1.88707,-1.38938 c -0.77247,-0.99695 -1.23563,-2.53341 -0.65563,-2.17496 0.27712,0.17126 0.50386,0.62282 0.50386,1.00341 0,0.38061 0.28671,0.79441 0.63714,0.91956 0.35042,0.12521 0.49779,0.37918 0.32749,0.5645 -0.1703,0.18533 -0.53609,0.0447 -0.81286,-0.31251 z m 9.78752,-3.1593 c -1.45938,-0.6547 -5.95608,-4.88089 -5.19331,-4.88089 0.20103,0 1.68112,1.05889 3.28911,2.3531 4.48745,3.61177 4.57268,3.72491 1.9042,2.52779 z m 10.27204,-1.2011 c 0.19694,-0.75309 -0.31004,-1.02281 -2.97852,-1.58462 -4.76947,-1.00414 -6.67931,-1.59123 -7.7693,-2.38824 -1.66139,-1.21482 -0.52711,-1.34391 1.68366,-0.19149 2.368,1.23426 7.72719,2.05146 10.77375,1.64284 2.11214,-0.28331 2.91043,0.58622 1.14331,1.24535 -0.49059,0.18301 -1.1917,0.74922 -1.55801,1.25828 -0.85244,1.18456 -1.60268,1.19498 -1.29489,0.0173 z m -14.09296,-6.48116 c -0.65737,-0.69974 -1.08203,-1.38546 -0.94367,-1.52382 0.13832,-0.13832 0.90849,0.43418 1.71144,1.27227 0.80294,0.83808 1.22759,1.5238 0.94369,1.5238 -0.28392,0 -1.05408,-0.57252 -1.71146,-1.27225 z m 18.85727,-1.31224 c -0.70086,-0.56799 -1.66904,-1.19626 -2.15156,-1.39617 -1.29964,-0.53845 -9.5717,-8.22672 -9.5717,-8.8962 0,-0.31651 0.75636,0.15759 1.68081,1.05362 0.92444,0.89601 1.84494,1.6291 2.04552,1.6291 0.20058,0 1.50552,1.14686 2.89985,2.54854 1.39434,1.40169 2.71021,2.55195 2.92414,2.55611 0.60082,0.0116 4.53469,3.52105 3.95691,3.52989 -0.28034,0.004 -1.08313,-0.45691 -1.78397,-1.02489 z m 5.55667,-3.09264 c -0.62642,-0.87972 -1.87496,-3.00137 -2.77455,-4.7148 -3.21869,-6.13062 -4.13904,-7.74327 -6.07283,-10.64115 -1.0785,-1.61618 -1.83816,-3.06125 -1.68813,-3.21128 0.37772,-0.3777 7.53445,8.77132 8.5876,10.97821 2.50153,5.24196 3.92607,9.18849 3.31669,9.18849 -0.12637,0 -0.74238,-0.71976 -1.36878,-1.59947 z m 29.83792,-2.70491 c 0.54419,-0.43598 1.21316,-0.79268 1.48664,-0.79268 0.64762,0 0.35846,0.23543 -1.20177,0.97848 -1.20151,0.57224 -1.21779,0.56162 -0.28487,-0.1859 z m 2.32369,-1.25601 c 0,-0.5512 17.13067,-9.25821 20.1334,-10.23325 1.12137,-0.36409 2.49127,-0.97343 3.04424,-1.35406 0.55297,-0.38061 1.35576,-0.67649 1.78397,-0.65754 0.50026,0.0222 0.36863,0.23222 -0.36826,0.58761 -0.63076,0.30421 -1.14684,0.72255 -1.14684,0.92967 0,0.20709 -0.63077,0.53258 -1.4017,0.72328 -1.22114,0.30209 -10.74692,4.70996 -12.8701,5.95541 -0.4205,0.24666 -2.25544,1.1436 -4.07764,1.99317 -1.82221,0.84958 -3.71448,1.76586 -4.20509,2.0362 -0.53307,0.29372 -0.89198,0.30156 -0.89198,0.0195 z m -52.53837,-1.95777 -1.23568,-1.40169 1.4017,1.23568 c 0.77093,0.67964 1.40169,1.31039 1.40169,1.40169 0,0.39976 -0.41276,0.0744 -1.56771,-1.23568 z m 38.26659,-1.00085 c 0,-0.74816 7.65055,-7.79159 8.46322,-7.79159 0.3446,0 0.703,-0.17203 0.79645,-0.38228 0.22649,-0.50963 5.62042,-3.18568 6.42111,-3.18568 0.34642,0 0.62984,-0.17916 0.62984,-0.39794 0,-0.43045 3.1267,-1.74231 3.42992,-1.43908 0.2248,0.2248 -4.20349,2.85644 -4.80659,2.85644 -0.23681,0 -1.68107,0.82356 -3.2095,1.83015 -1.52841,1.00657 -3.42766,2.16562 -4.22054,2.57564 -0.79291,0.41001 -1.85371,1.13468 -2.35734,1.61038 -0.50364,0.47568 -1.86764,1.77155 -3.03114,2.87972 -1.16348,1.10817 -2.11543,1.75808 -2.11543,1.44424 z m -41.83453,-2.56709 -1.23568,-1.40171 1.40168,1.2357 c 0.77093,0.67962 1.40171,1.31039 1.40171,1.40169 0,0.39976 -0.41276,0.0744 -1.56771,-1.23568 z m 4.11623,-0.63714 c -0.30006,-0.56067 -0.43089,-1.01942 -0.29072,-1.01942 0.14024,0 0.50037,0.45875 0.80044,1.01942 0.30006,0.56068 0.43089,1.0194 0.29072,1.0194 -0.14025,0 -0.50038,-0.45872 -0.80044,-1.0194 z m -1.59414,-2.4211 c -0.63399,-0.80844 -0.61598,-0.82647 0.19245,-0.19246 0.49059,0.38475 0.89199,0.78615 0.89199,0.89199 0,0.4195 -0.41856,0.14949 -1.08444,-0.69953 z m 9.06985,-7.60314 c -0.18687,-0.18687 -0.33981,-0.57682 -0.33981,-0.8665 0,-0.31939 0.2374,-0.28928 0.60315,0.0765 0.33174,0.33173 0.48466,0.72167 0.33981,0.8665 -0.14487,0.14486 -0.41627,0.11038 -0.60315,-0.0765 z m 10.63781,-7.43321 c -0.11211,-0.35042 -0.29127,-2.06587 -0.39802,-3.81208 -0.10672,-1.74621 -0.36061,-3.34143 -0.5641,-3.54492 -0.20349,-0.20349 -1.10667,-0.0703 -2.00707,0.29577 -2.35549,0.95792 -3.93135,1.25859 -3.92709,0.74931 0.002,-0.24293 1.32089,-0.86931 2.93082,-1.39194 1.60992,-0.52262 3.95229,-1.41143 5.20527,-1.97511 1.25298,-0.56368 2.80539,-1.02487 3.44981,-1.02487 0.64442,0 1.29571,-0.2007 1.4473,-0.44599 0.62392,-1.00952 1.2349,-0.33155 1.2349,1.37026 0,1.74209 0.0676,1.80975 1.65655,1.65655 1.6171,-0.15584 1.66409,-0.22996 1.97357,-3.11023 0.52492,-4.88548 1.09889,-4.02692 0.77983,1.16654 -0.16356,2.6632 -0.3053,5.6012 -0.3149,6.52884 -0.0116,1.08407 -0.21586,1.56397 -0.57289,1.34331 -0.33545,-0.20732 -0.42661,-1.03022 -0.23013,-2.07758 0.45033,-2.40041 0.006,-2.88624 -1.79185,-1.95681 -1.28949,0.66682 -1.50521,1.07818 -1.53601,2.92894 -0.0599,3.60454 -0.90653,0.63353 -0.94776,-3.32619 -0.0327,-3.14335 -0.1283,-3.44051 -1.10563,-3.44051 -0.58839,0 -1.84993,0.37019 -2.80339,0.82264 -1.87863,0.89146 -1.89805,0.96906 -1.73927,6.95038 0.0724,2.7293 -0.26535,3.77644 -0.73994,2.29369 z m 47.88349,0.11115 c -0.19795,-0.32029 -0.12002,-0.82217 0.17299,-1.11531 0.68499,-0.68499 2.28202,-0.0875 2.00334,0.7495 -0.28371,0.85207 -1.72606,1.09449 -2.17641,0.36581 z m -15.02633,-1.92069 c 0,-2.97892 -2.99072,-3.71612 -4.35702,-1.07399 -0.44838,0.86707 -0.9163,1.47541 -1.03984,1.35188 -0.25758,-0.2576 2.02894,-5.39608 3.55116,-7.98049 l 1.02431,-1.73904 0.64712,2.75844 c 1.01279,4.31719 1.34988,8.11038 0.72074,8.11038 -0.30056,0 -0.54647,-0.64223 -0.54647,-1.42718 z m -1.01942,-5.03664 c 0,-0.64795 -0.14179,-0.67917 -0.75895,-0.16703 -0.41742,0.34644 -0.63095,0.83699 -0.47448,1.09014 0.4021,0.65062 1.23343,0.0285 1.23343,-0.92311 z m 6.62618,5.22274 c 0,-0.6826 0.24026,-1.87301 0.53391,-2.64536 0.29365,-0.77236 0.58036,-2.49171 0.63714,-3.82081 0.1177,-2.75617 0.64409,-3.05138 4.49379,-2.5203 2.16635,0.29885 2.23297,0.36231 2.1503,2.04836 -0.0979,1.99399 -1.72693,3.55809 -3.73749,3.5883 -1.78603,0.0268 -2.31073,0.49177 -3.02391,2.67948 -0.72147,2.2132 -1.05374,2.42455 -1.05374,0.67033 z m 5.90329,-5.94085 c 0.94618,-1.04552 0.94583,-1.07889 -0.0193,-1.78397 -1.72637,-1.26234 -2.81347,-0.74289 -3.56316,1.70258 -0.30879,1.00726 -0.17088,1.14684 1.13288,1.14684 0.85853,0 1.89105,-0.44927 2.4487,-1.06545 z m -28.71139,3.99625 c -0.65343,-1.35451 -1.66114,-5.53908 -1.65002,-6.85188 0.0135,-1.48653 0.902,0.2347 1.28128,2.47961 0.55006,3.25582 1.47896,3.35676 2.78095,0.30222 1.58285,-3.71341 2.03373,-4.2071 2.81034,-3.07696 0.34133,0.49671 0.78834,1.82059 0.99338,2.94194 0.38105,2.08405 1.0759,3.31309 1.87308,3.31309 0.24603,0 0.44731,-0.25204 0.44731,-0.5601 0,-0.81972 1.62241,-4.10388 1.89347,-3.83281 0.46593,0.46593 -2.05198,6.43175 -2.71458,6.43175 -0.88403,0 -2.04353,-1.84508 -2.48245,-3.95023 -0.37307,-1.78931 -1.62835,-2.24062 -2.12661,-0.76457 -0.74314,2.20157 -1.93045,4.7148 -2.2274,4.7148 -0.17896,0 -0.57444,-0.51608 -0.87875,-1.14686 z m 34.28881,-0.12734 c 0.19271,-0.56067 0.69948,-2.05157 1.12615,-3.31309 0.86573,-2.55956 2.59576,-4.87303 1.90582,-2.54854 -0.20802,0.70085 -0.69137,1.7267 -1.07411,2.27967 -0.38275,0.55297 -0.6959,1.36926 -0.6959,1.81398 0,0.44472 -0.36279,1.25381 -0.80618,1.79798 -0.79481,0.97547 -0.80123,0.97505 -0.45578,-0.0301 z m -23.71367,-6.30893 c 0,-0.24601 0.34406,-0.73282 0.76457,-1.08182 0.82991,-0.68876 0.93365,-0.52401 0.45516,0.72288 -0.3275,0.85348 -1.21973,1.11605 -1.21973,0.35894 z"
       id="path138"
       inkscape:connector-curvature="0" />
  </g>
</svg>
