<?xml version="1.0" encoding="UTF-8" standalone="no"?>
<!-- Created with Inkscape (http://www.inkscape.org/) -->

<svg
   xmlns:dc="http://purl.org/dc/elements/1.1/"
   xmlns:cc="http://creativecommons.org/ns#"
   xmlns:rdf="http://www.w3.org/1999/02/22-rdf-syntax-ns#"
   xmlns:svg="http://www.w3.org/2000/svg"
   xmlns="http://www.w3.org/2000/svg"
   xmlns:sodipodi="http://sodipodi.sourceforge.net/DTD/sodipodi-0.dtd"
   xmlns:inkscape="http://www.inkscape.org/namespaces/inkscape"
   width="210.00021mm"
   height="198.43782mm"
   viewBox="0 0 210.00023 198.43782"
   version="1.1"
   id="svg8"
   inkscape:version="0.92.3 (2405546, 2018-03-11)"
   sodipodi:docname="un_comdemn.svg">
  <defs
     id="defs2" />
  <sodipodi:namedview
     id="base"
     pagecolor="#ffffff"
     bordercolor="#666666"
     borderopacity="1.0"
     inkscape:pageopacity="0.0"
     inkscape:pageshadow="2"
     inkscape:zoom="0.7"
     inkscape:cx="88.948218"
     inkscape:cy="382.84883"
     inkscape:document-units="mm"
     inkscape:current-layer="layer1"
     showgrid="false"
     fit-margin-top="0"
     fit-margin-left="0"
     fit-margin-right="0"
     fit-margin-bottom="0"
     inkscape:window-width="1920"
     inkscape:window-height="1017"
     inkscape:window-x="-8"
     inkscape:window-y="-8"
     inkscape:window-maximized="1" />
  <metadata
     id="metadata5">
    <rdf:RDF>
      <cc:Work
         rdf:about="">
        <dc:format>image/svg+xml</dc:format>
        <dc:type
           rdf:resource="http://purl.org/dc/dcmitype/StillImage" />
        <dc:title></dc:title>
      </cc:Work>
    </rdf:RDF>
  </metadata>
  <g
     inkscape:label="Layer 1"
     inkscape:groupmode="layer"
     id="layer1"
     transform="translate(-244.2178,561.78838)">
    <path
       style="fill:#000000;stroke-width:0.50821114"
       d="m 385.43791,-363.93947 c -3.07829,-1.13817 -5.64572,-3.71179 -6.09117,-6.10583 -0.20488,-1.10106 -0.7951,-2.30076 -1.3116,-2.666 -1.20824,-0.85441 -1.26813,-4.90429 -0.12927,-8.73936 0.69308,-2.33384 0.7212,-3.29697 0.19504,-6.67925 -0.49638,-3.19092 -0.843,-4.10167 -1.79964,-4.72848 -0.65167,-0.42698 -1.53541,-0.64182 -1.96386,-0.4774 -1.7752,0.68121 -2.42368,8.00168 -1.05298,11.88667 0.78155,2.21514 0.92719,5.90945 0.3187,8.08433 -0.43863,1.56772 -3.55567,2.71641 -6.67134,2.45851 -1.96712,-0.16289 -2.70479,0.0845 -5.27476,1.76859 -2.4538,1.60794 -3.71428,2.05566 -7.05225,2.50487 -7.72998,1.04029 -10.76399,0.0496 -11.37477,-3.71424 -0.55184,-3.4006 4.12572,-7.20603 9.65652,-7.85607 2.4942,-0.29313 2.9832,-0.55595 4.46498,-2.39986 1.10693,-1.37742 1.87969,-3.09921 2.3082,-5.14292 0.96101,-4.58356 0.8657,-5.61299 -0.58075,-6.27204 -2.19277,-0.99908 -3.0751,-3.40849 -2.98085,-8.13984 l 0.0841,-4.22466 -1.61314,0.34782 c -0.88722,0.19131 -1.68936,0.54871 -1.78254,0.79423 -0.24229,0.63849 -2.49696,0.55109 -3.80203,-0.14733 -1.97654,-1.05782 -5.86927,-1.27869 -8.73385,-0.49554 -2.66374,0.72823 -7.39184,-0.0797 -10.27777,-1.7564 -2.45929,-1.4288 -4.71446,-4.85962 -4.71446,-7.17222 0,-0.84873 0.3415,-2.51102 0.75887,-3.694 0.41737,-1.18296 0.6421,-2.33978 0.49939,-2.5707 -0.31121,-0.50354 -3.33468,-0.50214 -4.05343,0.002 -0.45741,0.32075 -3.20029,0.14041 -11.32448,-0.74464 -2.66818,-0.29085 -4.68416,-1.42608 -4.68416,-2.63791 0,-0.35423 -0.33598,-0.50448 -0.76232,-0.34088 -0.41927,0.16096 -0.76231,0.0394 -0.76231,-0.27006 0,-0.30943 -0.34304,-0.56259 -0.76233,-0.56259 -0.41927,0 -0.7623,-0.20727 -0.7623,-0.46062 0,-0.25336 -0.44275,-0.34486 -0.98387,-0.20336 -0.80002,0.20921 -1.04801,-0.0845 -1.32708,-1.57221 -0.18882,-1.00621 -0.57094,-1.82948 -0.84925,-1.82948 -0.27832,0 -0.38508,-0.31519 -0.23725,-0.7004 0.1479,-0.38522 0.0716,-0.89978 -0.16942,-1.14347 -0.74077,-0.74921 -1.00598,-3.38958 -0.4123,-4.10492 0.42045,-0.50659 0.34924,-0.912 -0.28282,-1.61042 -0.4646,-0.51337 -0.70925,-1.28638 -0.5437,-1.71781 0.41499,-1.08148 -0.65533,-1.62213 -1.97665,-0.99845 -2.39362,1.12984 -4.4473,1.75636 -4.7535,1.45017 -0.17729,-0.17748 -0.0492,-0.3225 0.28488,-0.3225 0.33404,0 2.28529,-0.79625 4.3361,-1.76944 2.0508,-0.97319 4.87779,-2.01588 6.28222,-2.31708 1.40443,-0.30118 2.96155,-0.84598 3.46024,-1.21066 0.86496,-0.63246 0.8567,-0.76953 -0.17902,-2.97303 -1.33827,-2.84707 -3.06918,-9.33243 -3.48957,-13.07466 -0.17268,-1.53735 -0.49399,-3.02618 -0.714,-3.30852 -0.21998,-0.28236 -0.45834,-2.34061 -0.52967,-4.5739 -0.19464,-6.09381 -2.94192,-16.4021 -4.69073,-17.60037 -0.60015,-0.41124 -7.57732,1.99567 -8.08139,2.78783 -0.2057,0.32327 -0.37751,1.31753 -0.3818,2.20946 -0.004,0.89192 -0.18363,1.73042 -0.39876,1.86332 -0.21503,0.13292 -0.46354,-2.08337 -0.55224,-4.92506 -0.2018,-6.46423 -1.02225,-7.90095 -2.79657,-4.89726 -0.73878,1.25065 -0.84915,2.18158 -0.58746,4.95506 0.17729,1.87829 0.44847,3.93262 0.60275,4.56516 0.39071,1.60177 -0.66857,2.66152 -2.66036,2.66152 -0.9276,0 -1.83621,0.24219 -2.01917,0.53822 -0.18305,0.29602 -0.93971,0.46754 -1.68167,0.38115 -1.12939,-0.13139 -1.37439,0.0619 -1.50476,1.18768 -0.0857,0.73963 -0.55593,1.70696 -1.04508,2.14963 -0.81169,0.73457 -0.9914,0.7334 -2.05787,-0.0135 -0.64268,-0.45014 -1.49046,-1.58898 -1.88396,-2.53077 -0.43842,-1.04933 -1.0713,-1.71233 -1.63452,-1.71233 -1.01712,0 -5.72436,1.4788 -6.28137,1.97333 -0.19427,0.17249 0.18823,1.38036 0.85001,2.68414 0.78797,1.55239 1.64833,5.0604 2.49287,10.16423 1.70121,10.28109 2.85478,18.60664 2.85478,20.60342 0,0.88787 0.21331,1.74614 0.47402,1.90726 0.26071,0.16115 0.73856,1.56726 1.06189,3.12473 0.32333,1.55748 1.04557,3.28947 1.60498,3.84888 0.92679,0.92679 0.93558,1.00141 0.0991,0.84031 -0.91026,-0.17537 -1.4903,-1.05836 -2.94888,-4.4894 -0.85276,-2.00601 -2.05345,-8.63455 -3.12166,-17.23358 -0.39619,-3.18935 -0.80343,-5.8819 -0.90499,-5.98343 -0.54116,-0.54117 -1.85474,0.61984 -1.85474,1.63932 0,2.33023 -0.99021,3.68056 -4.80384,6.55077 -2.12884,1.60221 -5.00784,4.05034 -6.39781,5.44031 -1.38997,1.38997 -2.75711,2.38511 -3.03811,2.21145 -0.55317,-0.34188 2.8539,-4.82191 3.66709,-4.82191 0.83757,0 8.03163,-5.23917 8.03163,-5.84914 0,-0.31923 -0.59347,-1.13486 -1.31882,-1.8125 -2.56924,-2.40025 -4.25513,-7.25981 -4.26548,-12.29534 l -0.006,-2.9319 -1.39757,0.33314 c -0.76869,0.18325 -2.8841,1.301 -4.70097,2.48394 -4.22329,2.74974 -5.38117,3.34057 -5.77489,2.94683 -0.88568,-0.88566 10.12001,-6.72156 13.41099,-7.11133 2.54811,-0.3018 2.63531,-0.36812 3.81447,-2.90146 1.18364,-2.54295 7.35324,-9.74761 7.35324,-8.58685 0,0.3249 -1.14679,2.01966 -2.54844,3.76614 -2.77186,3.45381 -2.66712,4.23963 0.45127,3.38541 2.92181,-0.80034 3.62031,-1.34256 3.6417,-2.82686 0.0196,-1.357 0.0321,-1.35157 0.76231,0.33032 0.40834,0.94052 0.74243,2.2124 0.74243,2.8264 0,1.15127 1.68661,3.34084 2.57344,3.34084 0.64578,0 1.48785,-2.21823 1.50772,-3.97171 0.0134,-1.17224 0.0884,-1.23918 0.53346,-0.47513 0.28489,0.48915 1.10396,0.88937 1.82015,0.88937 h 1.30212 l -0.26023,-4.84187 c -0.28235,-5.25313 -0.85967,-6.55638 -2.7448,-6.19601 -0.6459,0.1235 -1.17437,0.043 -1.17437,-0.17902 0,-0.56059 1.91311,-1.11418 2.53088,-0.73238 0.27892,0.17229 1.25292,-0.0115 2.16443,-0.40958 0.91154,-0.39764 2.62185,-1.01546 3.80074,-1.37294 2.70237,-0.81945 3.69765,-0.15232 3.70879,2.48628 0.0154,3.53254 0.9352,3.70994 6.53515,1.25985 1.50224,-0.65726 2.81259,-1.19503 2.91188,-1.19503 0.91157,0 4.7751,11.57418 4.7751,14.30501 0,0.76427 0.22869,1.5309 0.50821,1.70365 0.27951,0.17268 0.50822,1.29159 0.50822,2.4863 0,1.1947 0.21517,3.41098 0.47818,4.92506 0.263,1.51407 0.74103,4.41016 1.06228,6.43575 0.32125,2.02558 0.77375,3.80009 1.00556,3.94334 0.52631,0.32529 3.55251,-3.28564 3.55251,-4.23891 0,-0.41422 0.31179,-0.58125 0.76231,-0.40836 0.4597,0.17633 0.76233,0.002 0.76233,-0.4379 0,-0.44046 0.3026,-0.61429 0.7623,-0.43789 0.41928,0.16096 0.76233,0.0294 0.76233,-0.29232 0,-0.68417 1.6039,-0.51931 2.1599,0.222 0.21939,0.29252 0.51537,0.0192 0.69734,-0.64598 0.24854,-0.90729 0.46466,-1.03093 1.0104,-0.57803 0.53304,0.4424 0.76725,0.38587 1.00873,-0.24338 0.43181,-1.12532 1.5913,-1.02844 2.35653,0.19686 0.7828,1.25347 1.40412,1.30929 1.41446,0.12697 0.004,-0.51776 0.16384,-0.66992 0.38116,-0.36417 0.20535,0.28887 0.71642,0.50354 1.13569,0.47703 0.41927,-0.0265 1.06562,0.17979 1.43631,0.45853 0.47089,0.35401 0.8184,0.28684 1.15314,-0.22292 0.41329,-0.62935 0.56511,-0.62307 1.10474,0.0457 0.65986,0.8178 1.08596,0.87237 2.5314,0.32423 2.24271,-0.85049 2.33815,-0.81582 2.3035,0.83686 -0.0192,0.89157 0.36127,2.65016 0.84437,3.90799 0.70089,1.82488 0.76968,2.64273 0.3404,4.04787 -0.46351,1.51718 -0.39509,1.91302 0.49422,2.85965 l 1.03218,1.09871 -1.30034,0.32637 c -0.80631,0.20235 -1.30032,0.68205 -1.30032,1.26262 0,0.72464 -0.28718,0.88137 -1.27054,0.69338 -1.6331,-0.31218 -1.60329,-0.80621 0.12697,-2.10525 1.16873,-0.8774 1.27343,-1.13054 0.63949,-1.54588 -0.41697,-0.27315 -1.33175,-0.39044 -2.03286,-0.26065 -0.70111,0.12985 -0.98888,0.10123 -0.63949,-0.0636 0.96829,-0.45649 0.73377,-1.39056 -0.59076,-2.3528 -2.7995,-2.03376 -8.42998,-0.0916 -8.42998,2.9079 0,0.91284 -0.40458,1.4638 -1.39757,1.90322 -1.49484,0.66148 -2.66812,1.61449 -2.66812,2.16721 0,0.18651 -0.4274,0.94606 -0.9498,1.688 -0.66291,0.9415 -0.96096,2.28821 -0.98675,4.45839 -0.0334,2.81633 0.11678,3.27726 1.59449,4.8905 1.16345,1.27019 2.24833,1.88534 3.78192,2.14444 2.27007,0.38352 2.82591,1.3701 1.26429,2.24403 -0.81565,0.45647 -0.78532,0.60653 0.38116,1.88595 0.69704,0.7645 0.93295,1.19531 0.52428,0.95735 -0.40869,-0.23797 -1.48017,-0.38303 -2.38108,-0.32237 -1.11671,0.0753 -1.80534,-0.1771 -2.1637,-0.79275 -0.48531,-0.83369 -0.52687,-0.82305 -0.54115,0.13868 -0.0269,1.81465 0.99575,2.26155 5.17521,2.26155 3.84386,0 5.78761,0.55701 6.65051,1.90579 0.22353,0.3494 0.77353,0.63527 1.22225,0.63527 0.71505,0 0.70253,0.12523 -0.10142,1.01351 -0.68523,0.75718 -0.95245,2.01044 -1.05648,4.95506 -0.0766,2.16785 -0.0248,3.25545 0.11525,2.4169 0.32002,-1.91716 1.1927,-2.92115 1.1927,-1.37216 0,1.20623 0.76989,1.5191 1.18807,0.4828 0.14099,-0.3494 0.27438,-0.13427 0.29644,0.47822 0.0515,1.42692 1.05655,2.08835 1.05655,0.69525 0,-0.57553 0.22869,-1.04641 0.5082,-1.04641 0.27952,0 0.50823,0.38877 0.50823,0.86395 0,0.67195 0.13561,0.72843 0.60985,0.2541 0.73974,-0.73975 2.76756,-0.80412 3.20172,-0.10161 0.47471,0.76809 1.27053,0.60894 1.27053,-0.2541 0,-0.41927 0.22869,-0.76231 0.50821,-0.76231 0.27951,0 0.51133,0.74326 0.51516,1.65168 0.004,0.90842 0.17537,2.22342 0.38116,2.92222 0.30994,1.05231 0.41785,0.83411 0.62831,-1.27053 0.20789,-2.0788 0.42471,-2.52675 1.19188,-2.4624 1.14441,0.096 2.79443,-1.48678 3.98554,-3.82306 1.04324,-2.04625 0.94317,-2.28623 -1.52581,-3.65926 -1.03008,-0.57284 -1.41547,-0.89772 -0.85644,-0.72197 3.47883,1.09369 3.76228,1.01284 6.51094,-1.85689 1.57469,-1.64407 3.8344,-3.31691 5.60979,-4.1529 2.77369,-1.30607 2.9501,-1.49238 2.63215,-2.78003 -0.51616,-2.09035 -0.99624,-2.33239 -4.43833,-2.23752 -3.56062,0.0982 -7.45399,1.70533 -10.19429,4.2082 -0.88952,0.81244 -1.77962,1.47717 -1.978,1.47717 -0.1984,0 -0.50588,0.4574 -0.68333,1.01643 -0.23335,0.7353 -0.76993,1.01695 -1.94002,1.01833 -0.8896,0.001 -2.95993,0.67044 -4.60074,1.48754 -2.93749,1.46283 -2.99915,1.47084 -4.01754,0.52206 -1.03048,-0.96005 -1.02547,-0.96732 1.37374,-1.99575 1.32439,-0.56769 2.77421,-1.03218 3.22183,-1.03218 2.60282,0 9.77433,-5.78596 9.77433,-7.88593 0,-0.44797 -1.15792,-2.03883 -2.57316,-3.53525 -1.52788,-1.6155 -2.98582,-3.80675 -3.58899,-5.39418 -0.78715,-2.0716 -0.84448,-2.5312 -0.25466,-2.04171 0.41864,0.34744 0.91564,1.33511 1.10448,2.19482 0.19357,0.88136 1.6486,2.96621 3.33602,4.78006 2.01213,2.16288 2.99274,3.63747 2.99274,4.50032 0,1.48295 0.6547,1.59495 3.1729,0.54277 0.97483,-0.4073 3.08083,-0.83877 4.68001,-0.95882 3.58938,-0.26945 4.28169,-0.83578 3.29204,-2.69298 -0.92264,-1.73148 -0.96215,-18.03714 -0.0463,-19.1406 0.44957,-0.54166 0.28544,-0.96767 -0.74052,-1.92202 -0.72495,-0.67436 -1.51839,-1.74464 -1.76318,-2.37843 -0.26032,-0.67399 -0.20178,-6.05336 0.14099,-12.95938 0.5694,-11.4696 0.17882,-22.64123 -0.82604,-23.62425 -0.47565,-0.46534 -2.89053,2.23859 -7.32986,8.20714 -3.17295,4.26594 -8.94591,9.45448 -10.51939,9.45448 -1.02077,0 -5.82218,-4.15163 -8.8645,-7.66487 -4.59011,-5.30063 -9.25271,-9.88617 -11.75739,-11.56309 -2.99574,-2.00566 -5.01358,-4.39726 -5.01358,-5.94224 0,-0.66344 -0.34856,-1.40133 -0.77458,-1.63976 -0.61229,-0.34265 -0.39931,-0.61243 1.01643,-1.28755 1.51966,-0.72468 1.79101,-0.7416 1.79101,-0.11179 0,0.4083 0.54365,1.09858 1.20811,1.53395 1.62889,1.06729 3.45421,0.22561 4.56575,-2.10535 1.25067,-2.62266 1.07505,-3.74179 -0.69175,-4.40867 -0.83855,-0.31653 -1.52464,-0.84039 -1.52464,-1.16416 0,-1.56903 -1.40934,-1.83577 -6.67362,-1.26306 -2.85,0.31003 -5.45503,0.79046 -5.78896,1.0676 -0.42499,0.35271 -1.00989,0.10122 -1.94955,-0.83851 -1.44784,-1.44782 -1.62843,-1.98347 -0.8342,-2.47433 0.27951,-0.17268 0.5082,0.16404 0.5082,0.74828 0,1.12872 1.40267,2.00386 1.95709,1.22104 0.18151,-0.25616 1.61398,-0.46455 3.18345,-0.46309 3.0484,0.004 5.15496,-1.00748 3.90427,-1.87253 -0.40519,-0.28026 0.22218,-0.33147 1.62763,-0.13292 1.25783,0.17768 2.96123,0.80336 3.78535,1.39028 1.01609,0.72362 2.16117,1.03611 3.55747,0.97081 2.4543,-0.11487 3.83857,0.7314 6.93161,4.23722 3.2481,3.68155 10.3918,10.4177 11.048,10.4177 0.76573,0 6.02828,-8.07131 6.47747,-9.93468 0.75657,-3.13827 3.70609,-7.98397 6.27554,-10.30992 3.14986,-2.85135 8.67987,-3.57174 12.94278,-1.68606 1.3008,0.57542 2.53186,1.04257 2.73567,1.03814 0.7214,-0.0154 0.10968,-2.00921 -1.24465,-4.05561 -1.33897,-2.02331 -1.4285,-2.06678 -3.69009,-1.79144 l -2.31782,0.28217 1.61277,-0.73269 c 0.88703,-0.40298 1.76314,-0.97598 1.94693,-1.27333 0.18382,-0.29734 -0.18594,-1.79534 -0.82153,-3.32884 -1.01433,-2.44725 -1.07885,-3.0005 -0.5278,-4.52444 1.76276,-4.87482 1.66094,-8.95319 -0.25172,-10.08283 -0.37847,-0.22352 -0.68812,-0.68386 -0.68812,-1.02296 0,-0.3391 -0.51457,-0.84231 -1.14349,-1.11821 -1.17033,-0.51347 -3.92248,-5.3907 -3.93286,-6.96965 -0.0115,-1.75621 2.24726,-2.57787 6.36092,-2.31387 l 3.80231,0.24401 1.05621,-2.11487 c 1.39439,-2.79196 2.43248,-3.35832 6.75278,-3.6843 6.32367,-0.47711 12.51048,1.45823 17.9591,5.61787 3.28227,2.50582 6.0002,5.44337 6.37995,6.89549 0.22905,0.87589 -1.03923,5.32084 -1.89793,6.65165 -0.27052,0.41927 -0.61413,3.89086 -0.76357,7.71465 -0.23516,6.01677 -0.41558,7.1452 -1.34074,8.3855 -0.58795,0.78822 -1.50216,1.51491 -2.03157,1.61487 -1.48873,0.28109 -2.23308,1.09668 -2.23308,2.44679 0,1.2029 0.0734,1.22522 2.95694,0.89899 1.70011,-0.19235 4.17475,-0.0818 5.82213,0.26027 2.47923,0.51469 3.19338,0.95448 5.30149,3.26485 3.58062,3.92419 5.09096,7.03733 5.66763,11.68228 0.2705,2.1788 0.64698,4.11475 0.83662,4.30213 0.61124,0.60391 9.20884,-8.82569 10.47574,-11.48949 1.43786,-3.02322 3.39167,-4.36265 6.54706,-4.48833 1.25784,-0.0501 2.97305,-0.22135 3.8116,-0.38058 0.83854,-0.15924 1.06723,-0.16116 0.5082,-0.004 -1.31048,0.36782 -3.81157,2.72016 -3.81157,3.5849 0,0.36697 -0.34871,0.66723 -0.77491,0.66723 -0.42619,0 -1.00373,0.6019 -1.28342,1.33755 -0.40014,1.05244 -0.28372,1.80192 0.54622,3.51635 1.5215,3.14302 2.11309,3.49645 3.72721,2.22678 1.43873,-1.13172 1.73732,-2.2627 0.7071,-2.6784 -0.34939,-0.14099 0.73692,-0.25833 2.414,-0.26075 1.67711,-0.002 3.50667,0.20222 4.0657,0.45473 0.71457,0.32277 0.3687,0.37942 -1.16466,0.19074 l -2.18108,-0.26845 0.33714,2.54142 0.33712,2.54141 -4.01927,4.22009 c -4.23171,4.44296 -11.35075,13.57413 -11.35075,14.55875 0,0.3185 -0.4574,0.86476 -1.01643,1.21386 -0.55903,0.34913 -1.01641,0.87423 -1.01641,1.16691 0,0.65612 -4.67578,5.31652 -5.35368,5.33605 -0.26991,0.008 -1.38911,0.69385 -2.48707,1.52463 -2.83545,2.1454 -4.99388,2.05437 -7.21853,-0.30444 -0.94143,-0.9982 -1.71168,-2.25602 -1.71168,-2.79515 0,-2.16451 -0.89264,-0.80185 -1.15782,1.76742 -0.26784,2.59508 -0.0305,5.29497 1.14291,13.00688 0.7271,4.77818 0.64733,8.16819 -0.21459,9.1206 -0.60717,0.6709 -0.66131,1.75715 -0.30606,6.13855 0.59474,7.33491 0.27102,17.77737 -0.69279,22.34848 -0.44202,2.09638 -0.80386,4.21467 -0.80409,4.70736 -4.2e-4,0.9263 3.95074,2.98323 7.02939,3.65942 1.74207,0.38263 1.74343,0.37904 2.3739,-6.21408 0.16749,-1.75095 0.71611,-4.49529 1.21928,-6.09854 0.75074,-2.39199 1.22478,-3.0702 2.64206,-3.77997 3.49879,-1.75218 6.90753,-0.94002 8.99406,2.1429 1.09301,1.61496 1.18407,2.20828 1.03166,6.72135 -0.11525,3.41452 0.0154,5.01975 0.42035,5.17488 1.07478,0.41137 2.25799,-1.59033 3.18395,-5.38653 0.98258,-4.02826 1.7659,-5.78372 3.78589,-8.4844 2.99996,-4.01086 7.65507,-5.4931 9.54295,-3.03859 0.6869,0.89304 0.92144,2.11611 0.9299,4.84883 0.006,2.01 -0.2174,3.79588 -0.49691,3.96863 -0.27952,0.17268 -0.50821,0.87522 -0.50821,1.56106 0,1.66237 -1.72219,7.71069 -2.73906,9.61958 -0.44668,0.83855 -0.81357,1.77711 -0.8153,2.0857 -0.002,0.30858 -0.51769,1.12125 -1.1466,1.80592 -0.62891,0.68468 -1.48653,1.89788 -1.9058,2.69599 -0.99849,1.90067 -4.16033,3.2974 -7.4961,3.31136 -2.41996,0.01 -2.66962,0.11755 -2.68428,1.15463 -0.0315,2.22453 -1.13857,2.91047 -5.63735,3.49272 -4.32487,0.55974 -6.54946,1.36479 -7.10663,2.57176 -0.16999,0.36812 -0.70376,1.42331 -1.18628,2.34485 -0.80973,1.54643 -0.8144,1.77161 -0.0605,2.92221 0.6011,0.91739 1.27165,1.24669 2.5387,1.24669 1.31502,0 2.04684,0.38622 3.09731,1.63462 1.4662,1.74249 1.47809,1.99004 0.44641,9.29192 -0.3565,2.52318 -0.35179,2.53464 0.67094,1.62951 0.67596,-0.59826 1.11143,-1.7594 1.26699,-3.37838 0.43581,-4.53547 5.00847,-9.68589 8.59936,-9.68589 0.76611,0 1.53426,-0.22869 1.70699,-0.50821 0.38862,-0.62877 3.14106,-0.6738 3.52188,-0.0576 0.15309,0.24782 1.10162,0.60501 2.10765,0.79375 2.06523,0.38742 6.3114,4.23941 6.31657,5.73016 0.002,0.49653 0.34476,1.55781 0.76232,2.35843 0.84758,1.62515 0.98549,3.17247 0.31947,3.5841 -0.24185,0.14944 -0.57086,1.07993 -0.73115,2.06766 -0.38829,2.39276 -1.94473,4.48001 -4.83438,6.48317 -2.12959,1.47627 -2.75485,1.65031 -5.93772,1.65287 -3.21123,0.002 -3.79629,-0.16288 -6.0112,-1.70058 -2.21191,-1.53556 -2.68255,-1.66912 -4.77564,-1.35524 -1.27706,0.19151 -2.71945,0.59645 -3.20531,0.8999 -1.25304,0.78251 -3.90725,-0.41207 -4.81475,-2.16699 -1.20811,-2.33625 -1.52517,-7.67747 -0.56585,-9.53259 0.45267,-0.87539 0.82304,-1.66532 0.82304,-1.75538 0,-0.0901 -0.8576,-0.584 -1.90577,-1.0976 -1.0482,-0.51361 -2.24886,-1.10214 -2.66813,-1.30786 -0.41927,-0.20571 -0.99099,-1.26684 -1.27053,-2.35806 -0.27951,-1.09121 -0.69675,-2.27561 -0.92721,-2.632 -0.23043,-0.35638 -0.35517,-1.38879 -0.27717,-2.29428 0.18613,-2.15945 -0.40494,-3.16724 -1.38192,-2.35641 -0.39437,0.3273 -0.71707,0.88616 -0.71707,1.24189 0,0.92402 -4.06431,5.00005 -5.68527,5.70164 l -1.36548,0.59103 0.15808,6.2511 c 0.087,3.43812 0.33073,6.7085 0.54177,7.26753 0.21103,0.55905 1.25794,1.82941 2.32645,2.82304 1.89475,1.76199 4.02449,5.76235 4.02449,7.55936 0,1.14623 -1.32353,3.81028 -2.29255,4.61448 -1.16986,0.97091 -6.79657,1.10925 -9.18581,0.22583 z m 8.7326,-6.05904 c -0.16211,-0.64585 -0.67247,-1.31923 -1.13417,-1.4964 -1.09453,-0.42 -1.553,0.0624 -0.78712,0.82834 0.33076,0.33076 0.60138,0.9673 0.60138,1.41452 0,0.44722 0.28585,1.10098 0.63527,1.45277 0.51006,0.51359 0.66916,0.47563 0.80731,-0.19265 0.0947,-0.45777 0.0394,-1.36074 -0.12274,-2.00658 z m -39.94397,-1.62753 c 0,-1.31977 -1.24514,-3.21634 -2.11161,-3.21634 -0.75122,0 -0.46139,2.05249 0.33288,2.35728 0.41927,0.16096 0.76232,0.72544 0.76232,1.25457 0,0.52914 0.22869,0.96205 0.50821,0.96205 0.27951,0 0.5082,-0.61089 0.5082,-1.35756 z m 55.90323,-4.45687 c 0,-0.40277 -0.22869,-0.87366 -0.5082,-1.04641 -0.27952,-0.17268 -0.50823,-0.8968 -0.50823,-1.60902 0,-0.97198 -0.20045,-1.21798 -0.80387,-0.98642 -0.44213,0.1696 -1.01387,0.30848 -1.27053,0.30848 -0.94736,0 -0.44102,2.50138 0.66287,3.27455 1.41332,0.98995 2.42796,1.01451 2.42796,0.0588 z m -19.56613,-0.79231 c 0.17268,-0.27952 0.0718,-0.50821 -0.2241,-0.50821 -0.29601,0 -0.53821,0.22869 -0.53821,0.50821 0,0.27951 0.10085,0.5082 0.2241,0.5082 0.12332,0 0.36545,-0.22869 0.53821,-0.5082 z m 24.14003,-0.79807 c 0,-0.56743 -1.67392,-2.7594 -2.10725,-2.7594 -0.79219,0 -1.0084,1.28388 -0.45934,2.72795 0.44968,1.18277 0.66923,1.30098 1.54536,0.83209 0.56168,-0.3006 1.02123,-0.66089 1.02123,-0.80064 z m -25.41056,-2.2812 c 0,-0.26302 -0.34304,-0.4782 -0.76231,-0.4782 -0.78591,0 -1.00967,0.59965 -0.43733,1.17201 0.40602,0.40602 1.19964,-0.053 1.19964,-0.69381 z m -3.69512,-1.29347 c -0.16883,-0.16883 -0.6072,-0.18689 -0.97407,-0.0401 -0.40541,0.16231 -0.28499,0.28266 0.30706,0.30704 0.53573,0.0221 0.83589,-0.098 0.66701,-0.26692 z m 46.86605,-5.61923 c -0.56035,-1.69791 -3.71818,-4.74616 -4.91678,-4.74616 -0.98908,0 -0.80827,0.4859 1.3155,3.5354 1.07912,1.54949 2.26452,3.73202 2.63424,4.85009 l 0.6722,2.03284 0.42538,-1.99384 c 0.2664,-1.2486 0.21761,-2.62347 -0.13061,-3.67833 z m -23.39186,3.68893 c 0.47198,-0.56869 0.28449,-0.93132 -0.92784,-1.79456 -1.50095,-1.06879 -1.52581,-1.06979 -2.05391,-0.083 -0.94747,1.77036 -0.65378,2.59029 0.92784,2.59029 0.80434,0 1.72859,-0.32072 2.05391,-0.71271 z m 1.05759,-5.38582 c 0,-0.27952 -0.35654,-0.50821 -0.79231,-0.50821 -0.43577,0 -0.65098,0.22869 -0.47822,0.50821 0.17268,0.27951 0.5293,0.50822 0.79231,0.50822 0.26302,0 0.47822,-0.22871 0.47822,-0.50822 z m -20.83666,-3.07925 c 0,-0.26304 -0.22869,-0.47822 -0.50821,-0.47822 -0.27951,0 -0.5082,0.35653 -0.5082,0.79231 0,0.43577 0.22869,0.65095 0.5082,0.47822 0.27952,-0.17268 0.50821,-0.5293 0.50821,-0.79231 z m 17.26131,0.0634 c 0.70261,-1.31286 0.66544,-1.55805 -0.23624,-1.55805 -0.41927,0 -0.76231,0.21 -0.76231,0.46666 0,0.25665 -0.13887,0.82838 -0.30848,1.27051 -0.44121,1.14977 0.67791,0.99639 1.30703,-0.17921 z m -3.38883,-1.82812 c 0.90581,-1.24456 0.90278,-1.25457 -0.38116,-1.25457 -1.04173,0 -1.29425,0.2479 -1.29425,1.27053 0,1.59515 0.50632,1.59033 1.67541,-0.0154 z m -21.32107,-1.67489 c 0.78707,-0.8697 0.76289,-1.00132 -0.38156,-2.07646 -2.39797,-2.25279 -1.89754,-4.05323 0.63378,-2.28022 0.65188,0.45659 1.64058,0.68793 2.25423,0.52747 0.60897,-0.15924 1.44488,0.0325 1.88742,0.433 0.43688,0.39538 1.7382,0.8698 2.89182,1.05427 1.88201,0.30095 2.18686,0.19902 2.96738,-0.99222 0.47845,-0.7302 1.18665,-1.32762 1.57377,-1.32762 1.05816,0 0.84755,0.79584 -0.43962,1.6612 -1.36941,0.92064 -0.90317,1.70321 0.55104,0.92492 2.04598,-1.09497 2.27688,-3.48298 0.86298,-8.92477 -0.70782,-2.72431 -1.28696,-5.79728 -1.28696,-6.82884 0,-1.03155 -0.26981,-2.14538 -0.59957,-2.47514 -0.45124,-0.45124 -0.45717,-0.88507 -0.024,-1.75333 0.31656,-0.63457 0.82867,-2.9833 1.13801,-5.21944 0.30935,-2.23613 0.77996,-5.47055 1.04584,-7.18761 0.59297,-3.82949 1.25078,-21.61439 0.83914,-22.68712 -0.26705,-0.69592 -0.5264,-0.69475 -2.4922,0.0115 -1.20678,0.43337 -3.31234,0.82621 -4.67902,0.87296 -2.0367,0.0697 -2.70681,0.343 -3.71533,1.51547 -1.19266,1.38657 -1.23912,1.39731 -1.51303,0.34993 -0.25752,-0.98489 -0.63192,-1.08058 -4.22675,-1.08058 -2.66064,0 -4.12663,0.21982 -4.50479,0.67549 -0.30835,0.37152 -0.82777,2.47174 -1.15431,4.66713 -0.6373,4.28492 -0.13887,10.35752 1.39702,17.01866 0.41891,1.81686 1.00123,4.44686 1.29406,5.84443 0.29283,1.39757 0.73672,2.93817 0.98643,3.42353 0.60783,1.18147 0.57671,3.30151 -0.0542,3.69143 -0.27952,0.17268 -0.50821,1.32971 -0.50821,2.57105 0,1.74452 0.18747,2.25695 0.82585,2.25695 0.64954,0 0.75966,0.33086 0.51587,1.5499 -0.1917,0.9583 -0.11947,1.43218 0.18901,1.24148 0.31576,-0.19515 0.30819,0.1935 -0.0206,1.05829 -0.28579,0.75168 -0.4024,1.73671 -0.25913,2.18894 0.14329,0.45223 -0.0862,1.49019 -0.51015,2.30659 -0.52837,1.01771 -0.60618,1.64879 -0.24755,2.00742 0.2877,0.28772 0.52309,0.95109 0.52309,1.47418 0,0.52309 0.34306,1.29412 0.76233,1.71341 0.41927,0.41927 0.76231,1.20336 0.76231,1.74243 0,1.26354 1.59145,1.29377 2.71564,0.0515 z m 4.05788,-8.98158 c 0.002,-1.95662 0.0941,-2.69476 0.20412,-1.64034 0.11007,1.0544 0.10815,2.65527 -0.004,3.55747 -0.11217,0.9022 -0.2023,0.0396 -0.20003,-1.91713 z m -2.11937,-19.05791 c 0,-0.6988 0.11544,-0.98466 0.25633,-0.63526 0.14099,0.34939 0.14099,0.92112 0,1.27051 -0.14098,0.34941 -0.25633,0.0636 -0.25633,-0.63525 z m -15.32656,25.82319 c 0,-0.22696 0.22296,-0.41264 0.4955,-0.41264 0.27952,0 0.36259,0.66459 0.19055,1.52463 -0.40297,2.01488 0.3636,1.94565 2.25033,-0.2032 1.24635,-1.41951 1.63125,-2.49531 2.15688,-6.02843 0.37156,-2.49736 0.48938,-5.44867 0.28099,-7.03878 -0.19734,-1.50604 -0.56279,-6.74041 -0.81207,-11.63193 -0.5623,-11.03352 -0.94275,-15.2092 -1.50489,-16.51686 -0.24031,-0.55903 -0.57587,-2.73165 -0.74571,-4.82801 -0.32917,-4.06331 -1.06806,-7.4228 -1.72142,-7.82661 -0.21924,-0.13542 -2.44279,-0.59924 -4.94125,-1.03055 -2.49846,-0.4313 -5.15091,-0.92456 -5.89435,-1.0961 -1.33653,-0.30841 -1.35588,-0.27316 -1.72092,3.13556 -0.57588,5.37736 0.0816,15.53215 1.5109,23.33457 0.71682,3.91322 1.30427,8.3436 1.30547,9.84528 0.002,2.3945 0.098,2.65087 0.78068,2.08422 0.69101,-0.57347 0.77099,-0.0805 0.71139,4.38462 -0.0505,3.79337 -0.2647,5.25304 -0.87033,5.93452 -0.44177,0.49708 -0.88774,1.81095 -0.99108,2.91973 -0.15116,1.62303 0.0603,2.26406 1.08512,3.28896 1.48439,1.48439 3.60885,1.65807 4.99021,0.40796 0.91884,-0.83151 0.93641,-0.81384 0.45364,0.45596 -0.27625,0.72656 -0.37667,1.44661 -0.22316,1.6001 0.3387,0.33869 3.2135,-1.72159 3.2135,-2.303 z m -5.41276,-13.62612 c 0,-2.37589 0.0876,-3.34785 0.19454,-2.1599 0.10699,1.18794 0.10699,3.13184 0,4.31978 -0.10699,1.18796 -0.19454,0.21599 -0.19454,-2.15988 z m -0.51492,-10.16423 c 0,-2.09638 0.0897,-2.95397 0.19936,-1.9058 0.10967,1.04818 0.10967,2.7634 0,3.8116 -0.10968,1.04818 -0.19936,0.19054 -0.19936,-1.9058 z m -0.46251,-14.99223 c 3.8e-4,-6.14936 0.0738,-8.59515 0.16307,-5.43511 0.0893,3.16006 0.0889,8.19134 -5.1e-4,11.18066 -0.0897,2.9893 -0.1627,0.40381 -0.16231,-5.74555 z m 39.4239,38.33995 c 0,-0.26303 -0.22869,-0.47822 -0.50821,-0.47822 -0.27951,0 -0.5082,0.35654 -0.5082,0.79231 0,0.43577 0.22869,0.65096 0.5082,0.47822 0.27952,-0.17268 0.50821,-0.52929 0.50821,-0.79231 z m -50.25632,-9.18366 c -0.10276,-2.83268 0.12581,-3.91626 1.43524,-6.8041 2.0003,-4.41153 1.94308,-5.05909 -0.22368,-2.53196 -1.33051,1.55182 -1.6728,1.76245 -1.44647,0.89016 0.3462,-1.3344 3.25923,-4.02657 5.18984,-4.79635 0.8474,-0.33789 1.09115,-0.62697 0.66208,-0.78522 -0.70954,-0.26173 -5.24205,1.95981 -6.87114,3.36779 -1.45882,1.26083 -2.80607,4.27284 -2.94204,6.57747 -0.18152,3.0769 0.31939,3.01638 1.31824,-0.15924 0.48539,-1.54315 1.09005,-2.934 1.34371,-3.09077 0.59574,-0.36818 0.61692,-0.51218 -0.4986,3.38857 -1.26849,4.43572 -0.63515,7.8513 1.38363,7.46177 0.61239,-0.11813 0.74621,-0.84339 0.64919,-3.51808 z m 55.04398,2.73397 c -0.64688,-1.42692 -0.5365,-4.83822 0.16423,-5.07669 0.62772,-0.21359 1.19862,0.88382 1.8408,3.53851 0.27759,1.14759 0.19169,1.3291 -0.50314,1.06249 -0.5791,-0.22221 -0.76284,-0.10026 -0.59481,0.39469 0.21818,0.64278 2.86535,0.84252 5.35881,0.40437 0.75108,-0.13196 0.86669,-1.46686 0.12697,-1.46686 -0.27951,0 -0.50822,0.2567 -0.50822,0.57044 0,0.39413 -0.23563,0.37488 -0.76231,-0.0622 -0.84371,-0.70022 -1.04916,-3.04926 -0.26668,-3.04926 0.30953,0 0.32599,-0.44618 0.0438,-1.1883 -0.90341,-2.37618 -2.15129,-14.42306 -1.98263,-19.14016 0.10257,-2.87159 -0.0323,-4.93098 -0.3328,-5.0821 -0.27797,-0.13984 -1.0742,1.11805 -1.7694,2.79516 -1.15611,2.78907 -1.26475,3.71104 -1.27329,10.8051 -0.006,5.54577 -0.17268,7.69314 -0.5827,7.53583 -1.89938,-0.72886 -2.34837,4.15695 -0.64698,7.04057 1.08489,1.83874 2.43951,2.57569 1.68819,0.91843 z m 4.0943,-0.516 c -0.97283,-0.6986 -2.33871,-3.22593 -2.17963,-4.03303 0.0924,-0.46892 0.71921,0.28526 1.5033,1.80888 0.73964,1.4372 1.31138,2.60959 1.27053,2.60531 -0.0409,-0.004 -0.30823,-0.17575 -0.5942,-0.38116 z m -56.50058,-2.45962 c -0.10027,-2.4724 -0.0976,-2.47676 0.42697,-0.70891 0.67789,2.28431 1.45785,3.24734 2.1055,2.59968 0.56395,-0.56394 -0.48997,-7.01295 -1.2198,-7.46401 -0.2472,-0.1527 -0.44946,-0.84951 -0.44946,-1.5483 0,-2.50078 -1.01728,-0.59815 -1.06709,1.99577 -0.0369,1.91969 -0.14655,2.29351 -0.40286,1.3727 -0.42567,-1.52934 -0.83874,-0.95573 -1.29366,1.79643 -0.38201,2.31112 0.40792,5.00325 1.36914,4.66606 0.40767,-0.1431 0.59632,-1.1051 0.53126,-2.70942 z m -7.77891,-1.8524 c -0.004,-5.21704 1.14962,-8.10078 4.67663,-11.69482 1.59245,-1.62273 3.59354,-3.19379 4.44684,-3.49126 0.85331,-0.29746 1.55148,-0.74717 1.55148,-0.99933 0,-0.83861 -1.30047,-0.47477 -3.58503,1.00294 -6.69527,4.33071 -10.88808,12.32745 -8.92583,17.02376 1.2095,2.8948 1.83872,2.26376 1.83591,-1.84129 z m 56.41396,2.92222 c 0,-0.53242 -0.53645,-0.76232 -1.77874,-0.76232 -1.2423,0 -1.77874,0.2299 -1.77874,0.76232 0,0.53241 0.53644,0.76231 1.77874,0.76231 1.24229,0 1.77874,-0.2299 1.77874,-0.76231 z m 13.7217,0.53821 c 0,-0.12331 -0.22869,-0.36547 -0.50821,-0.53821 -0.27951,-0.17268 -0.50822,-0.0718 -0.50822,0.2241 0,0.29602 0.22871,0.53821 0.50822,0.53821 0.27952,0 0.50821,-0.10084 0.50821,-0.2241 z m 0.5082,-2.31694 c 0,-0.27954 -0.10084,-0.50823 -0.2241,-0.50823 -0.12331,0 -0.36545,0.22869 -0.53821,0.50823 -0.17268,0.27951 -0.0718,0.5082 0.2241,0.5082 0.29602,0 0.53821,-0.22869 0.53821,-0.5082 z m -20.41322,-7.17812 c -0.37264,-0.23622 -0.84905,-0.43301 -1.05869,-0.43727 -0.47501,-0.01 -0.48973,4.88073 -0.0198,6.59896 0.28024,1.02478 0.48367,0.59331 1.05175,-2.23084 0.586,-2.91323 0.59049,-3.57351 0.0267,-3.93085 z m -38.54704,3.46358 c 0.004,-0.82385 -0.20716,-1.29473 -0.50044,-1.11348 -0.27952,0.17268 -0.50471,1.1582 -0.50043,2.1899 0.006,1.3982 0.13311,1.68169 0.50043,1.11348 0.27096,-0.41929 0.49616,-1.40473 0.50044,-2.1899 z m 44.47625,2.1899 c -0.17268,-0.27953 -0.98667,-0.50822 -1.80874,-0.50822 -0.82204,0 -1.49463,0.22869 -1.49463,0.50822 0,0.27952 0.81392,0.50821 1.80872,0.50821 1.07642,0 1.68157,-0.20578 1.49465,-0.50821 z m 19.06997,-1.14349 c 0.006,-0.90842 0.59943,-3.02385 1.31729,-4.70094 0.90294,-2.10948 1.37928,-4.30234 1.54555,-7.11496 0.13215,-2.23613 0.44266,-4.52308 0.68997,-5.0821 0.84828,-1.91761 2.05936,-5.97993 1.84629,-6.193 -0.50878,-0.5088 -2.47382,3.63647 -3.86265,8.14825 -2.06359,6.70393 -2.86047,8.00777 -3.88303,6.35323 -0.79826,-1.29162 -1.73116,1.31395 -1.73116,4.83506 0,3.92753 0.78605,5.40616 2.87392,5.40616 1.00327,0 1.19368,-0.26123 1.20382,-1.6517 z m 6.5947,-3.43041 c -0.99528,-0.64319 -1.66804,-0.64319 -1.27053,0 0.17268,0.27952 0.7008,0.50471 1.17347,0.50043 0.7406,-0.006 0.75401,-0.0759 0.097,-0.50043 z m -70.13314,-3.3656 c 0,-0.94409 -0.22871,-1.71652 -0.50822,-1.71652 -0.27952,0 -0.50821,0.31445 -0.50821,0.69879 0,0.38435 -0.15289,1.47064 -0.33981,2.41402 -0.3088,1.55861 -0.2624,1.65152 0.50821,1.01771 0.48684,-0.40043 0.84803,-1.42857 0.84803,-2.414 z m 67.84618,2.34918 c -0.17268,-0.27952 -0.5293,-0.50821 -0.79231,-0.50821 -0.26302,0 -0.47822,0.22869 -0.47822,0.50821 0,0.27951 0.35654,0.5082 0.79231,0.5082 0.43577,0 0.65098,-0.22869 0.47822,-0.5082 z m -24.33062,-1.52464 c 2.86864,0 1.97798,-1.21632 -1.86691,-2.54961 -3.09666,-1.0738 -3.64662,-1.14018 -4.0579,-0.48974 -1.18744,1.87785 0.37413,3.80644 2.70464,3.34034 0.82772,-0.16557 2.27681,-0.30099 3.22017,-0.30099 z m 28.94163,-1.28144 c -0.53863,-0.4075 -1.10375,-0.61648 -1.25582,-0.46441 -0.31901,0.31899 0.97175,1.22614 1.72691,1.21369 0.27954,-0.004 0.0674,-0.34178 -0.47109,-0.74928 z m -2.83228,-0.97552 c 0,-0.12331 -0.22869,-0.36545 -0.5082,-0.5382 -0.27952,-0.17268 -0.50821,-0.0718 -0.50821,0.22412 0,0.29601 0.22869,0.5382 0.50821,0.5382 0.27951,0 0.5082,-0.10084 0.5082,-0.22412 z m 4.05099,-0.81217 c -0.41119,-0.26003 -1.205,-0.45772 -1.76403,-0.43928 -0.78652,0.0259 -0.67158,0.18593 0.50821,0.70754 1.62015,0.71631 2.51154,0.5259 1.25582,-0.26826 z m -3.03456,-0.72458 c 0,-0.12984 -0.4574,-0.48101 -1.01643,-0.78019 -0.61252,-0.32782 -1.01641,-0.34972 -1.01641,-0.0551 0,0.26886 0.40022,0.59342 0.88937,0.72124 0.48915,0.12774 0.94653,0.25895 1.01641,0.29137 0.0699,0.0325 0.12697,-0.0474 0.12697,-0.17729 z m -11.46015,-3.869 c 0.70714,-0.68646 -0.16077,-0.57594 -2.51565,0.32033 l -2.03286,0.77369 2.03286,-0.31268 c 1.11806,-0.17191 2.2501,-0.52357 2.51565,-0.78134 z m 14.25532,-0.97688 c -0.17268,-0.27952 -0.58648,-0.50471 -0.91937,-0.50043 -0.36369,0.004 -0.30099,0.20441 0.15712,0.50043 0.97634,0.63096 1.15227,0.63096 0.76232,0 z m -1.77874,-2.48179 c 0,-0.2469 -0.40022,-0.59009 -0.88937,-0.76263 -0.48917,-0.17249 -1.17524,-0.44697 -1.52463,-0.60984 -0.34941,-0.16288 -0.63527,-0.0484 -0.63527,0.25443 0,0.30281 0.34304,0.55056 0.76231,0.55056 0.41927,0 0.76233,0.22869 0.76233,0.50822 0,0.27952 0.34303,0.50821 0.76231,0.50821 0.41927,0 0.76232,-0.20203 0.76232,-0.44895 z m 5.59031,-6.66601 c 0,-0.27952 -0.22869,-0.50821 -0.5082,-0.50821 -0.27952,0 -0.50821,0.22869 -0.50821,0.50821 0,0.27951 0.22869,0.50822 0.50821,0.50822 0.27951,0 0.5082,-0.22871 0.5082,-0.50822 z m -65.2308,-30.89954 c 0.0409,-6.90388 0.28023,-18.49859 0.53189,-25.766 0.40525,-11.70204 0.57075,-13.39989 1.44696,-14.84314 1.49628,-2.46462 0.36967,-3.12791 -4.70434,-2.76968 -0.6196,0.0438 -1.93459,0.88758 -2.92221,1.8752 l -1.79568,1.7957 v -1.60573 c 0,-0.88315 0.48299,-3.66296 1.07331,-6.17738 0.89169,-3.79817 0.95619,-4.64586 0.38114,-5.01018 -1.03571,-0.6562 -1.59755,-0.54358 -1.28974,0.25854 0.57799,1.5062 -0.34678,1.17161 -2.2282,-0.80616 -1.95511,-2.05523 -1.96822,-2.05988 -5.22924,-1.85224 -2.8865,0.18382 -3.5471,0.43587 -5.64271,2.15306 -2.78523,2.28229 -4.51793,4.85251 -6.44925,9.56661 -0.77091,1.88169 -2.32776,4.78502 -3.45967,6.45181 -1.455,2.14259 -2.07284,3.59712 -2.10865,4.96422 -0.0279,1.06353 -0.20698,2.49397 -0.39806,3.17875 -0.34093,1.22188 -0.36861,1.20916 -1.48417,-0.68157 -1.74155,-2.95171 -4.33059,-5.88035 -5.20747,-5.89055 -0.95658,-0.0115 -2.00745,-0.99256 -2.00745,-1.87478 0,-0.35527 -1.82956,-2.50274 -4.06567,-4.77216 -3.08663,-3.13259 -4.0657,-3.87621 -4.0657,-3.08796 0,2.05328 -1.30921,4.13279 -4.88518,7.75947 -1.30745,1.32601 -1.31116,1.35242 -0.44567,3.17633 0.48003,1.01155 1.18975,1.8392 1.57717,1.8392 0.38743,0 0.70441,0.22869 0.70441,0.50821 0,0.27951 -0.24219,0.5082 -0.5382,0.5082 -0.29602,0 -0.39455,0.23244 -0.21899,0.5165 0.17556,0.28409 0.58928,0.36177 0.91937,0.17268 0.33007,-0.1892 0.43475,-0.16096 0.23259,0.0628 -0.20217,0.22368 0.36958,1.34416 1.27053,2.48997 2.28002,2.89968 7.55171,8.44696 8.02732,8.44696 0.88605,0 -1.39819,-3.3981 -4.55237,-6.77225 -2.13395,-2.28276 -2.7672,-3.18117 -1.73406,-2.46018 1.91241,1.33463 6.24982,6.17385 6.24982,6.97288 0,0.3042 0.97196,1.58752 2.1599,2.85187 1.18795,1.26432 2.40029,2.7136 2.69411,3.22064 0.78758,1.35912 2.94837,0.62946 5.32937,-1.79966 1.0854,-1.10732 2.26837,-2.01679 2.62882,-2.02108 0.4648,-0.006 0.4337,-0.15328 -0.10699,-0.5082 -0.67614,-0.44386 -0.67642,-0.55561 -0.002,-0.9885 0.41785,-0.26843 0.80847,-1.12209 0.86803,-1.897 0.0937,-1.21969 0.93142,-2.29916 2.1773,-2.80577 0.19663,-0.0799 0.51161,-0.77429 0.69992,-1.54296 0.29252,-1.19395 0.18497,-1.39759 -0.73866,-1.39759 -0.87925,0 -0.58546,-0.44559 1.57361,-2.38678 2.12635,-1.91177 2.48354,-2.44681 1.79474,-2.68843 -0.72036,-0.25268 -0.6445,-0.41695 0.46733,-1.01197 0.73,-0.39069 1.22351,-0.98072 1.0967,-1.3112 -0.12677,-0.33045 0.89021,-1.65866 2.26007,-2.95155 2.33792,-2.20658 2.50439,-2.28074 2.7147,-1.20957 0.58623,2.98567 1.57409,20.33645 1.58406,27.82226 0.0115,9.05424 0.53037,11.83769 2.5873,13.89461 0.63663,0.63663 1.7538,2.3447 2.48259,3.79567 0.72879,1.45099 1.64257,2.63816 2.03065,2.63816 1.19723,0 1.43887,1.06841 0.30848,1.36402 -2.36406,0.61821 -0.73839,1.82841 3.8677,2.87922 1.61812,0.36914 3.28506,0.58298 3.70433,0.4752 0.6492,-0.16691 0.77336,-2.0588 0.83665,-12.74847 z m -9.4993,-0.4825 c -1.08618,-2.99933 -2.53048,-5.01221 -4.32155,-6.02274 -0.57977,-0.32711 -1.02945,-1.17136 -1.08273,-2.03284 -0.0501,-0.81036 0.0238,-1.07317 0.16422,-0.58402 0.14041,0.48917 0.46737,0.88937 0.72639,0.88937 0.25904,0 0.47096,0.34306 0.47096,0.76233 0,0.41927 0.3192,0.76231 0.70933,0.76231 0.7116,0 4.88098,6.28882 4.88098,7.36216 0,0.85989 -1.12347,0.0348 -1.5477,-1.13657 z m -3.25795,-2.95941 c -0.82826,-1.26412 -0.82373,-1.29001 0.1358,-0.77643 0.54599,0.29221 1.1268,0.88069 1.29067,1.30772 0.48115,1.25386 -0.49509,0.89027 -1.42654,-0.53129 z m 2.1489,-20.21711 c 0.24546,-3.82469 0.23491,-3.86555 -1.13145,-4.38505 -0.75856,-0.28841 -1.5628,-0.4109 -1.78719,-0.27221 -0.7618,0.47082 -1.53742,-1.10124 -1.77591,-3.59952 l -0.23768,-2.4898 0.54013,2.38139 c 0.45052,1.98624 0.79757,2.4711 2.0916,2.9222 1.98787,0.69297 2.07171,0.6841 1.73847,-0.18439 -0.38998,-1.01628 0.9545,-2.09008 1.50917,-1.2053 0.22754,0.36295 0.34788,1.06014 0.2674,1.54929 -0.17921,1.08961 -0.10008,1.09155 2.47573,0.0609 1.76739,-0.70718 2.0479,-1.02273 1.91607,-2.15548 -0.13848,-1.19076 -0.43803,-1.36757 -2.91659,-1.72196 -1.5192,-0.21722 -2.89136,-0.52714 -3.04927,-0.68872 -0.47096,-0.48194 5.76944,0.38918 6.29424,0.87863 0.26554,0.24767 0.91309,0.4503 1.43903,0.4503 0.91605,0 0.91178,0.0718 -0.10161,1.71166 -0.77455,1.25324 -1.07763,2.64841 -1.13166,5.20916 l -0.0738,3.49751 -0.52053,-2.94777 -0.52054,-2.94776 -1.81969,0.15271 c -1.81135,0.15193 -1.8209,0.16538 -2.08468,2.94775 -0.14579,1.53733 -0.51341,3.2231 -0.81701,3.74613 -0.41887,0.72165 -0.49222,0.02 -0.30422,-2.90968 z m 0.62391,-6.42678 c 0,-0.27951 -0.10084,-0.50821 -0.22412,-0.50821 -0.12331,0 -0.36545,0.2287 -0.53821,0.50821 -0.17268,0.27951 -0.0718,0.5082 0.22412,0.5082 0.29602,0 0.53821,-0.22869 0.53821,-0.5082 z m 24.64824,41.84124 c 1.6771,-0.1358 3.73535,-0.55699 4.5739,-0.93577 0.83854,-0.37877 2.93369,-1.07148 4.65588,-1.53937 2.00333,-0.54426 3.20162,-1.1515 3.32659,-1.68575 0.26826,-1.14681 -0.32692,-8.08254 -1.13243,-13.19636 -0.55862,-3.54658 -0.80518,-4.1936 -1.52607,-4.0051 -1.98555,0.51923 -2.51022,-0.48358 -2.29749,-4.39115 0.11083,-2.03432 0.0225,-3.98821 -0.19617,-4.34198 -0.21864,-0.3538 -0.19809,-1.71078 0.0457,-3.01556 0.28877,-1.54565 0.26336,-2.43225 -0.073,-2.54433 -0.28384,-0.0947 -0.51608,-0.71121 -0.51608,-1.37022 0,-1.4211 -0.87554,-2.11055 -1.67056,-1.31553 -0.68375,0.68374 -3.02107,0.74646 -3.69108,0.0991 -0.26553,-0.2566 -1.39757,-0.54086 -2.51565,-0.63169 l -2.03284,-0.16519 v 3.91862 c 0,3.46681 -0.087,3.83138 -0.75487,3.16202 -0.5313,-0.53249 -0.83909,-2.37161 -1.03916,-6.20914 -0.15635,-2.9989 -0.23282,-5.53188 -0.16999,-5.62886 0.0628,-0.097 0.57563,0.72791 1.13942,1.83306 0.91057,1.78486 1.28235,2.04459 3.32773,2.32495 1.26644,0.17364 2.75221,0.59639 3.30173,0.93956 0.83061,0.51873 1.1753,0.46449 2.04394,-0.32164 1.21059,-1.09554 1.34326,-2.67571 0.34469,-4.10538 -0.88731,-1.27037 -0.0409,-6.84687 1.03925,-6.84687 0.37254,0 0.69183,-0.40022 0.70956,-0.88937 0.0248,-0.68142 0.13964,-0.62201 0.49182,0.2541 0.2528,0.62891 0.81004,1.14347 1.23832,1.14347 0.59032,0 0.77869,0.58481 0.77869,2.41736 0,1.32954 0.23831,3.21628 0.5296,4.19274 0.29127,0.97646 1.20893,4.72847 2.03924,8.33778 1.57307,6.83806 2.10154,8.04772 3.31276,7.58295 0.39883,-0.15309 0.72516,-3.3e-4 0.72516,0.3394 0,0.41115 0.44105,0.50698 1.31913,0.28658 0.73875,-0.18535 1.6243,-0.0778 2.01272,0.24456 1.23329,1.02352 5.46275,-3.19298 7.91233,-7.88808 1.17034,-2.24319 2.51918,-4.65027 2.9974,-5.34906 0.47824,-0.69879 1.35347,-2.07097 1.94498,-3.04927 1.18612,-1.96171 1.49294,-1.01744 0.33028,1.01641 -1.1238,1.96592 -0.89601,2.32989 0.61209,0.97796 l 1.37437,-1.23206 -0.85084,1.27053 c -2.69797,4.02878 -3.94411,8.10329 -1.33778,4.37414 0.67022,-0.95898 2.66983,-3.48773 4.44354,-5.61947 l 3.22494,-3.87588 -0.88954,-1.87458 c -0.94292,-1.98707 -1.52925,-6.60722 -0.63592,-5.01094 0.62547,1.11765 4.47627,3.54281 4.90666,3.09012 0.18324,-0.19272 -0.0914,-0.60945 -0.61057,-0.92606 -3.85959,-2.35438 -5.89385,-5.6681 -5.90948,-9.6264 -0.01,-2.4228 -0.45443,-2.16184 -3.13682,1.84026 -1.1593,1.72964 -4.47427,5.48574 -7.36661,8.3469 -2.89231,2.86114 -5.25878,5.51492 -5.25878,5.89727 0,0.38234 -0.57174,1.31208 -1.27053,2.06609 -0.69878,0.75401 -1.27053,1.70217 -1.27053,2.10706 0,0.40486 -0.20727,0.73612 -0.46063,0.73612 -0.25335,0 -0.34192,-0.45398 -0.19682,-1.00882 0.14502,-0.55486 0.0876,-1.41246 -0.12773,-1.90579 -0.21534,-0.49334 -0.33791,-1.21566 -0.27235,-1.60518 0.0655,-0.3895 -0.15636,-0.87849 -0.49319,-1.08665 -1.01431,-0.62689 -0.0219,-1.508 1.70777,-1.5163 2.76262,-0.0134 3.03972,-0.45891 2.3975,-3.856 -1.33465,-7.05951 -3.68926,-12.42664 -6.70126,-15.27489 -1.67041,-1.57957 -4.57581,-2.70599 -6.99399,-2.71156 -1.87209,-0.004 -5.29595,3.93449 -7.6074,8.75152 -1.10978,2.31276 -2.36948,4.66241 -2.79931,5.22144 -0.77455,1.00733 -0.78169,1.00642 -0.79771,-0.1018 -0.0378,-2.61918 -4.09971,-2.12552 -6.72967,0.81792 -1.57992,1.76824 -1.95228,3.77686 -0.60426,3.25957 0.90131,-0.34586 1.70768,0.60703 1.71967,2.03217 0.006,0.66669 -0.31221,0.88439 -1.13569,0.778 -2.07122,-0.26761 -2.41401,0.39904 -2.41401,4.69485 0,3.00603 0.18382,4.12217 0.71224,4.32494 0.39172,0.1504 0.82012,0.6859 0.952,1.19015 0.18171,0.69523 0.01,0.85668 -0.71225,0.6679 -0.87848,-0.22973 -0.95199,0.10449 -0.95199,4.32808 0,2.51737 -0.36439,6.48903 -0.80979,8.82591 -0.4695,2.46358 -0.70456,5.53015 -0.55939,7.29815 0.48892,5.95438 1.47174,15.25692 1.68585,15.9568 0.22273,0.72808 0.0488,0.73203 12.64271,-0.28843 z m 6.36821,-9.82394 c 0,-0.41927 0.22168,-1.10536 0.49265,-1.52463 0.4379,-0.67762 0.49264,-0.67762 0.49264,0 0,0.41927 -0.2217,1.10536 -0.49264,1.52463 -0.43793,0.67762 -0.49265,0.67762 -0.49265,0 z m 2.70746,-2.1599 c 0.76413,-1.54117 1.12186,-1.89796 1.24885,-1.24554 0.189,0.97143 -1.15965,3.40544 -1.887,3.40544 -0.238,0 0.0492,-0.97194 0.63815,-2.1599 z m -21.91394,-4.52901 c -0.34613,-0.34613 -0.62933,-0.85802 -0.62933,-1.13753 0,-0.28234 0.27104,-0.23716 0.60985,0.10161 0.93937,0.93936 1.91448,0.72679 2.44781,-0.53362 0.44184,-1.0442 0.4735,-1.01113 0.36478,0.38116 -0.131,1.67659 -1.65602,2.32545 -2.79311,1.18836 z m 1.23411,-9.91266 c -0.18632,-0.18632 -0.31228,-1.04394 -0.27986,-1.90578 0.0382,-1.01499 0.1383,-1.20893 0.28388,-0.55056 0.50924,2.30139 0.63178,2.4461 1.47726,1.74441 0.43541,-0.36134 0.68281,-1.07318 0.54977,-1.58185 -0.13311,-0.50868 -0.0346,-0.92488 0.21878,-0.92488 0.89229,0 0.46057,2.50533 -0.52238,3.03138 -1.15782,0.61965 -1.28165,0.63308 -1.72745,0.18728 z m 2.06565,-10.37435 c 0.17978,-0.6872 0.41007,-0.91758 0.53696,-0.53696 0.12216,0.36665 -0.0194,0.90825 -0.31475,1.20358 -0.37713,0.37713 -0.44326,0.17863 -0.22221,-0.66662 z m 12.33367,-3.20041 c 0,-0.10545 0.34304,-0.47657 0.76233,-0.82454 0.62433,-0.51816 0.7623,-0.48343 0.7623,0.19189 0,0.4535 -0.34303,0.82454 -0.7623,0.82454 -0.41929,0 -0.76233,-0.0864 -0.76233,-0.19189 z m -124.14417,36.65603 c 1.33519,-0.62891 2.56267,-1.3267 2.72775,-1.5506 0.42344,-0.57436 -0.4618,-5.83401 -1.29503,-7.69443 -0.38291,-0.85495 -0.96235,-2.41206 -1.28764,-3.46024 -0.65766,-2.11909 -1.2355,-2.3875 -2.01284,-0.93501 -0.28576,0.53392 -1.20859,1.6598 -2.05072,2.50195 -1.71991,1.71991 -1.91473,3.30126 -0.96225,7.80993 0.6417,3.03751 1.27562,4.47187 1.97641,4.47187 0.26221,0 1.56916,-0.51456 2.90432,-1.14347 z m 92.63507,-0.0726 c 0,-0.10987 -0.3549,-0.33593 -0.78869,-0.50238 -0.45228,-0.17364 -0.65628,-0.0884 -0.47823,0.19972 0.29846,0.48291 1.26692,0.71427 1.26692,0.30266 z m -72.67583,-19.10921 c 0.37888,-0.70795 0.38737,-2.24914 0.028,-5.11405 -0.60444,-4.82057 -0.71316,-5.05325 -2.36093,-5.05325 -1.20705,0 -1.24702,0.10295 -0.98643,2.54106 0.96146,8.9949 0.87663,8.63958 2.06246,8.63958 0.39296,0 0.9585,-0.456 1.25678,-1.01334 z m 119.43127,-1.0195 c 0,-0.27952 -0.41165,-0.50821 -0.91478,-0.50821 -0.50314,0 -1.18923,-0.27444 -1.52464,-0.60985 -0.47432,-0.47434 -0.60985,-0.47069 -0.60985,0.0173 0,0.34441 0.51456,0.83305 1.14347,1.08584 1.53241,0.61596 1.9058,0.61906 1.9058,0.0154 z m 23.3777,-23.88593 c 0,-0.27952 -0.24219,-0.50821 -0.53821,-0.50821 -0.29599,0 -0.39685,0.22869 -0.2241,0.50821 0.17268,0.27953 0.41495,0.50822 0.53821,0.50822 0.12332,0 0.2241,-0.22869 0.2241,-0.50822 z m -51.32931,-0.76231 c 0,-0.41927 -0.22871,-0.76233 -0.50822,-0.76233 -0.27952,0 -0.50821,0.34306 -0.50821,0.76233 0,0.41927 0.22869,0.76231 0.50821,0.76231 0.27951,0 0.50822,-0.34304 0.50822,-0.76231 z m 2.98031,-12.38129 c -0.2905,-0.10142 -0.78263,0.0701 -1.09359,0.38116 -0.31096,0.31096 -1.77747,0.56537 -3.2589,0.56537 -1.5527,0 -2.69352,0.22738 -2.69352,0.53686 0,0.29529 0.74326,1.22167 1.6517,2.05866 l 1.65167,1.52177 2.13543,-2.4398 c 1.17447,-1.34189 1.89771,-2.5227 1.60721,-2.62402 z m 5.4872,2.59822 c 0.45534,-1.04817 1.36644,-2.96586 2.02464,-4.26152 1.19471,-2.3518 1.57962,-5.22489 0.76726,-5.72697 -0.76613,-0.47348 -5.27605,6.31687 -4.97078,7.48424 0.15156,0.57958 0.0828,1.29438 -0.15289,1.58844 -0.52025,0.64927 0.22733,2.82161 0.97102,2.82161 0.29304,0 0.90537,-0.85762 1.36071,-1.9058 z m -16.41687,-1.33833 c 1.02784,-0.26878 1.03792,-0.32763 0.19975,-1.16579 -1.10323,-1.10323 -1.78904,-0.50579 -2.16348,1.88474 -0.24205,1.54527 -0.20471,1.62717 0.30255,0.66351 0.31828,-0.60465 1.06581,-1.22676 1.66118,-1.38246 z m 12.10939,-3.90108 c 1.34569,-1.1347 2.44671,-1.79278 2.44671,-1.4624 0,1.06387 1.26279,-0.35591 2.75486,-3.09733 1.35157,-2.48328 1.37372,-2.64359 0.62415,-4.51697 -0.85193,-2.1292 -0.61756,-4.18509 0.43124,-3.78262 0.92989,0.35682 1.47492,-0.73742 0.78272,-1.57147 -0.39755,-0.479 -0.4107,-0.79736 -0.0424,-1.02499 0.35844,-0.22153 0.36972,-0.63767 0.0342,-1.26442 -0.41178,-0.76942 -0.81595,-0.86296 -2.29103,-0.53028 -1.02503,0.23117 -1.91469,0.20391 -2.08011,-0.0638 -0.36242,-0.5864 0.16577,-3.36651 0.93495,-4.92112 0.44084,-0.89102 0.4337,-1.41114 -0.0296,-2.15301 -0.33599,-0.53797 -0.615,-1.26713 -0.62005,-1.62032 -0.0154,-1.13689 -3.86221,-3.88196 -6.29822,-4.49536 -5.21962,-1.31431 -12.56141,0.0738 -14.20354,2.68535 -0.76513,1.21685 -0.27406,1.48193 1.6977,0.91645 2.0623,-0.59145 4.07513,-0.16692 4.07513,0.85939 0,0.59122 -0.4196,0.681 -1.96358,0.42013 -1.48477,-0.25084 -2.17188,-0.12351 -2.81785,0.52254 -1.28972,1.28972 -0.71127,2.00907 1.51863,1.8886 1.09575,-0.0592 1.70639,0.0194 1.357,0.17479 -0.34939,0.1552 -0.63526,0.83501 -0.63526,1.51052 0,1.63149 2.08143,1.68563 3.25606,0.0847 l 0.83898,-1.14347 -0.58819,1.27053 c -0.32352,0.69878 -0.87721,1.61356 -1.23044,2.03284 -0.35323,0.41929 -0.80255,1.96196 -0.99849,3.4282 -0.40358,3.01995 -0.0519,3.37052 3.42142,3.41064 1.0473,0.0115 1.9049,0.22462 1.90578,0.47225 0.001,0.24763 -1.02323,0.30977 -2.2758,0.13811 -1.92151,-0.26338 -2.4382,-0.13965 -3.30619,0.79208 -0.68959,0.74017 -0.86027,1.2727 -0.51773,1.61523 0.28107,0.28105 0.51102,1.15137 0.51102,1.93402 0,1.26843 0.45035,1.67286 1.65168,1.48316 0.20964,-0.033 0.38116,0.16845 0.38116,0.44803 0,0.27951 0.34304,0.50822 0.76231,0.50822 1.20179,0 0.89094,-1.34971 -0.57674,-2.50418 l -1.33906,-1.05331 2.48253,-0.008 c 3.20289,-0.01 4.22944,-0.5846 3.21924,-1.80183 -0.66385,-0.79988 -0.57856,-0.84817 1.0491,-0.59393 5.23715,0.81807 9.84071,2.68345 5.25776,2.13047 l -2.61247,-0.31522 -1.16215,2.32699 -1.16215,2.32699 h -3.18021 c -1.7491,0 -3.79164,-0.23247 -4.53896,-0.5166 l -1.35876,-0.5166 1.01415,1.71885 c 0.62397,1.05755 0.91547,2.23506 0.75766,3.06058 -0.4527,2.36809 0.51304,2.86053 5.61001,2.86053 h 4.60602 l 2.44671,-2.06311 z m -11.69323,-1.24556 c 0.45348,-0.45347 7.00008,-0.61967 6.72258,-0.17057 -0.14617,0.23653 -1.77693,0.43005 -3.62387,0.43005 -1.84694,0 -3.24137,-0.11679 -3.09871,-0.25939 z m 4.01583,-12.74235 c 0.0244,-0.59203 0.14483,-0.71246 0.30704,-0.30704 0.14675,0.36686 0.1287,0.8052 -0.0401,0.97408 -0.16884,0.16884 -0.289,-0.13138 -0.26693,-0.66704 z m 2.44468,-5.61149 c -0.0309,-0.24458 -0.0196,-0.92147 0.0254,-1.50418 0.0559,-0.72514 -0.20708,-1.04591 -0.83312,-1.01643 -0.5031,0.0236 -1.02907,-0.18555 -1.16883,-0.46514 -0.31053,-0.62105 2.19839,-0.9585 3.91784,-0.52695 1.0126,0.25414 1.13909,0.45315 0.65716,1.03385 -0.75326,0.90761 -0.24093,1.78006 1.04532,1.78006 1.12432,0 1.26563,-0.53394 0.37657,-1.423 -0.39734,-0.39732 -0.41902,-0.60986 -0.0622,-0.60986 0.3012,0 0.84681,0.36048 1.21245,0.80105 0.55096,0.66389 0.53986,0.88013 -0.0647,1.26275 -0.40129,0.25393 -0.98693,0.4652 -1.30138,0.46949 -0.31445,0.004 -1.2864,0.15078 -2.1599,0.32542 -0.87348,0.17479 -1.61347,0.11755 -1.64441,-0.12697 z m -1.31298,-6.55928 c 0.78426,-0.68997 1.97001,-1.25447 2.63503,-1.25447 1.86048,0 3.81632,0.90514 3.81632,1.76615 0,0.9935 -1.21253,1.00101 -2.03284,0.0135 -0.34797,-0.41927 -1.14841,-0.76231 -1.77874,-0.76231 -0.63035,0 -1.43078,0.34304 -1.77873,0.76231 -0.34798,0.41927 -1.00489,0.75508 -1.45981,0.74627 -0.60891,-0.0115 -0.45091,-0.34707 0.59877,-1.27053 z m -1.17182,20.0904 c 0,-0.56468 -0.33881,-1.01643 -0.76231,-1.01643 -0.42352,0 -0.76232,0.45175 -0.76232,1.01643 0,0.56467 0.3388,1.01642 0.76232,1.01642 0.4235,0 0.76231,-0.45175 0.76231,-1.01642 z m 2.65072,-1.19353 c 0.18689,-0.9774 0.0511,-1.16153 -0.70954,-0.96259 -1.29773,0.33935 -1.63393,1.04751 -0.91092,1.91867 0.76728,0.92453 1.32373,0.59621 1.62046,-0.95608 z m -8.74926,-5.90021 c 0,-0.7722 0.14906,-2.49147 0.33125,-3.8206 0.30986,-2.26069 0.26501,-2.39558 -0.6952,-2.09083 -0.56454,0.17921 -1.61064,0.10372 -2.3247,-0.16788 -0.91974,-0.34968 -1.44579,-0.31589 -1.80411,0.11583 -0.98842,1.19099 -0.83795,2.04225 0.42709,2.41611 l 1.27051,0.3755 -1.39757,0.0507 c -1.95626,0.0709 -1.74073,2.15077 0.48815,4.71064 1.17612,1.35076 3.70458,0.26589 3.70458,-1.5895 z m 22.86951,-4.11691 c 0,-0.26301 -0.22869,-0.47822 -0.50821,-0.47822 -0.27951,0 -0.5082,0.35654 -0.5082,0.79231 0,0.43577 0.22869,0.65098 0.5082,0.47822 0.27952,-0.17268 0.50821,-0.52927 0.50821,-0.79231 z m -1.01641,-3.64972 c 0,-0.77966 -0.99686,-0.3557 -1.53708,0.6537 -0.51387,0.96019 -0.4764,0.98969 0.49032,0.38597 0.57572,-0.35954 1.04676,-0.82739 1.04676,-1.03967 z m 5.09935,-4.57871 c 0.01,-0.34939 0.45911,-1.55004 0.99918,-2.6681 1.78627,-3.69802 1.47525,-4.64702 -2.88477,-8.80263 -5.88216,-5.60637 -10.1315,-7.37293 -17.86523,-7.427 l -4.74131,-0.0332 -1.51403,1.69301 c -0.99646,1.11426 -1.46043,2.12028 -1.3572,2.94286 0.13561,1.08047 0.76964,1.46051 4.67977,2.80494 2.48765,0.85531 4.98924,1.9895 5.5591,2.52043 0.56988,0.53091 1.23792,0.9653 1.48451,0.9653 0.24661,0 1.86152,0.99998 3.5887,2.22217 3.49816,2.47539 10.41695,6.35596 11.39877,6.39328 0.34939,0.0134 0.64302,-0.26173 0.65251,-0.61112 z m -27.78054,-5.64036 c 0.7265,-0.37692 1.21195,-0.83622 1.07876,-1.02066 -0.13311,-0.18439 0.0303,-0.10468 0.36343,0.1771 0.90065,0.76208 1.56878,0.62002 1.23047,-0.26163 -0.24558,-0.63993 -0.11525,-0.67683 0.75145,-0.21294 1.88991,1.01145 1.55975,0.12735 -0.58755,-1.57336 -3.46568,-2.74486 -5.66576,-4.1176 -6.00668,-3.74781 -0.17691,0.19189 -0.0388,0.44987 0.30688,0.57342 0.34567,0.12351 1.1461,0.67687 1.77876,1.22964 l 1.15027,1.00503 -1.2048,-0.58761 c -1.37341,-0.66984 -1.21787,-0.16845 0.63753,2.05485 0.58313,0.69879 0.73207,0.98466 0.33095,0.63527 -1.08561,-0.94565 -1.76963,-0.76795 -0.97815,0.2541 0.57304,0.73997 0.50012,0.72856 -0.434,-0.068 -0.6175,-0.52651 -1.01159,-1.13712 -0.87577,-1.35689 0.41948,-0.67872 -2.41296,-2.60793 -2.98665,-2.03424 -0.70418,0.7042 0.98581,3.72928 2.66617,4.77243 0.72604,0.4507 1.35111,0.82556 1.38904,0.83299 0.0378,0.008 0.66339,-0.29486 1.38989,-0.67178 z m 9.96961,-1.2205 c -0.004,-0.20963 -0.80389,-0.89782 -1.77873,-1.5293 -2.23393,-1.44707 -2.33919,-0.76855 -0.1141,0.7354 1.91909,1.29713 1.90104,1.28955 1.89285,0.7939 z m -17.27289,-0.31892 c 0,-0.10546 -0.40021,-0.50575 -0.88936,-0.88937 -0.80607,-0.63216 -0.82403,-0.61418 -0.19189,0.19188 0.66392,0.84656 1.08125,1.11576 1.08125,0.69749 z m -2.03283,-3.11149 c 0,-0.41929 -0.22153,-0.76232 -0.49227,-0.76232 -0.27075,0 -0.36063,0.34303 -0.19974,0.76232 0.16096,0.41928 0.38241,0.76231 0.49226,0.76231 0.10987,0 0.19975,-0.34303 0.19975,-0.76231 z m 10.58263,-1.09547 c -0.1673,-0.85658 -1.94306,-1.46301 -1.94306,-0.66355 0,0.36679 1.39763,1.43815 1.94306,1.48946 0.0905,0.008 0.0905,-0.36317 0,-0.82591 z m -7.02516,-0.68328 c 0,-0.27952 -0.2422,-0.50821 -0.53821,-0.50821 -0.29602,0 -0.39686,0.22869 -0.22412,0.50821 0.17268,0.27951 0.41495,0.50822 0.53821,0.50822 0.12331,0 0.22412,-0.22871 0.22412,-0.50822 z m -29.14337,127.64803 c -0.4626,-0.51116 -0.8411,-1.20528 -0.8411,-1.5425 0,-1.0986 1.69611,-3.23625 3.74592,-4.72114 2.00119,-1.44965 3.01762,-1.58964 1.9175,-0.2641 -0.31899,0.38436 -0.72541,1.81923 -0.90318,3.18861 -0.49608,3.8215 -2.18239,5.25824 -3.91914,3.33913 z m 2.42599,-0.37744 c 0.50452,-0.50453 0.79265,-1.67418 0.78245,-3.1763 -0.0154,-2.20034 -0.0705,-2.30189 -0.745,-1.36129 -0.40085,0.55903 -0.96531,1.29264 -1.25435,1.63024 -0.81617,0.95325 -0.60436,3.70598 0.28518,3.70598 0.0732,0 0.49247,-0.35938 0.93172,-0.79863 z m 3.84788,-2.5915 c 0,-0.64915 1.95068,-2.45176 2.28805,-2.11439 0.13695,0.13695 -0.32185,0.78526 -1.01952,1.44071 -0.69769,0.65543 -1.26853,0.95859 -1.26853,0.67368 z m -9.59706,-4.88854 c -0.0609,-0.93922 1.77918,-4.93482 2.27257,-4.93482 0.42903,0 -0.34,2.19437 -1.06863,3.04926 -0.35737,0.41928 -0.76118,1.21971 -0.89736,1.77874 -0.20854,0.85602 -0.25693,0.87287 -0.30658,0.1068 z m -6.66571,-0.58927 c 0,-0.73914 2.97015,-3.83059 3.68454,-3.83499 0.80567,-0.006 0.31476,1.01209 -1.33054,2.75662 -1.86736,1.97998 -2.354,2.2029 -2.354,1.07837 z m 15.75456,0.53683 c 0,-0.10987 0.35491,-0.33593 0.7887,-0.50241 0.45227,-0.17364 0.65628,-0.0884 0.47822,0.19975 -0.29845,0.48291 -1.26692,0.71427 -1.26692,0.30266 z m -45.739,-1.32491 c 0.41927,-0.27095 0.991,-0.49265 1.27051,-0.49265 0.27953,0 0.16519,0.2217 -0.2541,0.49265 -0.41927,0.27097 -0.991,0.49265 -1.27053,0.49265 -0.27952,0 -0.16519,-0.22168 0.25412,-0.49265 z m 38.62404,-0.2241 c 0,-0.43577 0.22869,-0.79231 0.5082,-0.79231 0.27952,0 0.50823,0.21519 0.50823,0.4782 0,0.26304 -0.22871,0.61957 -0.50823,0.79231 -0.27951,0.17268 -0.5082,-0.0425 -0.5082,-0.4782 z m -53.87038,-0.86334 c 0,-0.78102 1.56972,-1.9257 2.66811,-1.94565 0.48915,-0.01 0.88937,-0.25837 0.88937,-0.55439 0,-0.29601 0.20473,-0.41166 0.45496,-0.25702 0.25022,0.15463 0.57831,-0.0401 0.72905,-0.43312 0.19151,-0.49914 0.88976,-0.65503 2.31775,-0.51748 1.124,0.10833 2.18159,-0.0263 2.3502,-0.29918 0.16864,-0.27281 0.96564,-0.49603 1.7712,-0.49603 0.80557,0 1.60754,-0.23119 1.78216,-0.51376 0.1746,-0.28255 0.96576,-0.46433 1.75805,-0.40396 0.89624,0.0684 2.23504,-0.44082 3.54327,-1.34744 1.49972,-1.03929 2.25944,-1.30049 2.64911,-0.91082 0.30049,0.30049 0.40577,0.77383 0.23395,1.05185 -0.41788,0.67615 -5.83542,2.35897 -6.25227,1.9421 -0.18056,-0.18056 -0.73703,0.0413 -1.23644,0.49335 -0.49942,0.45197 -1.5471,0.86148 -2.3282,0.91004 -0.78109,0.0486 -1.87754,0.33829 -2.43659,0.64385 -0.55903,0.30556 -1.81684,0.72572 -2.79514,0.93366 -0.97832,0.20795 -1.8931,0.52086 -2.03286,0.69539 -1.02951,1.28561 -4.06568,2.03881 -4.06568,1.00861 z m 42.70518,0.0571 c -0.0215,-1.07842 1.34249,-2.91424 2.67873,-3.60544 1.01047,-0.5227 0.99017,-0.43798 -0.21215,0.88543 -0.73125,0.80489 -1.58191,1.92084 -1.89034,2.47987 -0.40381,0.73192 -0.5651,0.79915 -0.57624,0.24014 z m 15.50916,-1.97977 c -0.15943,-0.25802 -0.98975,-0.62282 -1.84508,-0.81067 -0.85531,-0.18786 -1.43977,-0.45696 -1.29875,-0.59799 0.39165,-0.39163 3.88197,0.87518 3.88197,1.40897 0,0.60161 -0.36624,0.60146 -0.73814,-3.1e-4 z m -59.24096,-2.33834 c -0.79919,-0.96297 -0.81627,-0.95191 2.44588,-1.58524 1.68364,-0.32688 2.80108,-0.34213 2.98732,-0.0407 0.36934,0.59758 -0.88898,1.45182 -1.70132,1.15498 -0.32896,-0.12024 -0.87153,0.11083 -1.20571,0.51354 -0.78509,0.94598 -1.71884,0.93027 -2.52617,-0.0425 z m 6.87104,-1.76644 c -0.17268,-0.27954 -0.11506,-0.50823 0.12831,-0.50823 0.2433,0 0.98197,-0.50269 1.64145,-1.1171 1.18469,-1.10372 2.00441,-1.37967 4.68454,-1.57701 0.7547,-0.0555 1.65805,-0.38691 2.00745,-0.73632 0.80116,-0.80116 2.46482,-0.82974 2.46482,-0.0423 0,0.32612 -0.13791,0.45506 -0.30639,0.28655 -0.16845,-0.16845 -0.79741,0.22807 -1.39757,0.8813 -1.22172,1.32975 -3.65236,2.0783 -4.14742,1.27727 -0.19552,-0.31635 -0.92648,-0.0154 -1.84889,0.76045 -1.60995,1.35466 -2.70554,1.61798 -3.22628,0.77542 z m -7.0632,-1.82716 c -0.32329,-0.84248 1.18223,-1.73033 2.93412,-1.73033 0.70066,0 1.40575,-0.21329 1.56687,-0.47396 0.16115,-0.26069 0.98028,-0.45444 1.82036,-0.43055 0.87463,0.0248 2.01113,-0.39732 2.65926,-0.98788 1.53209,-1.39596 4.94345,-2.02383 4.94345,-0.90985 0,0.44071 -0.40022,0.92304 -0.88937,1.07185 -0.48915,0.14886 -1.57546,0.58816 -2.414,0.97636 -0.83855,0.38819 -2.55376,0.9549 -3.8116,1.25935 -1.25781,0.30443 -2.74434,0.75359 -3.30336,0.9981 -1.94696,0.85161 -3.23405,0.93491 -3.50573,0.22691 z m 23.29465,0.35319 c 0.15078,-0.24401 1.13433,-0.60328 2.1856,-0.79838 1.05127,-0.19509 2.30309,-0.70616 2.78183,-1.13567 0.89613,-0.80399 2.43294,-0.58746 2.43294,0.34279 0,0.28829 -0.44389,0.52416 -0.98642,0.52416 -0.54253,0 -1.11877,0.21415 -1.28054,0.47588 -0.16173,0.26173 -0.68982,0.47978 -1.17347,0.48456 -0.48364,0.004 -1.63418,0.13062 -2.55676,0.27952 -0.92256,0.14886 -1.554,0.0713 -1.40318,-0.17288 z m -3.15852,-3.33043 c -1.67069,-0.92277 -0.5588,-1.60974 3.31779,-2.04986 1.74749,-0.1984 3.31154,-0.57802 3.47567,-0.84361 0.41662,-0.6741 1.73653,0.5059 1.71642,1.53449 -0.0154,0.73985 -0.0864,0.73459 -0.68219,-0.0498 -0.58824,-0.77453 -0.77927,-0.79126 -1.63552,-0.14329 -0.53323,0.40356 -1.45606,0.74098 -2.05074,0.74988 -0.59468,0.01 -1.36595,0.3592 -1.71391,0.77848 -0.73132,0.8812 -0.87239,0.88256 -2.42752,0.0236 z m -20.44198,-0.79851 c 0,-1.11051 1.73129,-2.02026 3.84467,-2.02026 0.68058,0 1.23744,-0.19948 1.23744,-0.44326 0,-0.24381 0.97196,-0.5933 2.1599,-0.77666 2.9655,-0.45774 7.07539,-1.81521 8.04434,-2.65696 0.44128,-0.38337 1.1306,-0.69702 1.53181,-0.69702 0.4012,0 1.98405,-0.47949 3.51746,-1.06554 3.34137,-1.27701 6.59956,-1.99658 6.59956,-1.45749 0,0.67839 -3.52814,2.50238 -4.28131,2.21336 -0.39676,-0.15232 -1.2538,0.0255 -1.90456,0.39522 -0.65075,0.36962 -1.41189,0.68638 -1.6914,0.70388 -0.27952,0.0173 -1.48996,0.51711 -2.68989,1.11024 -1.19992,0.59312 -2.85795,1.22693 -3.68453,1.40848 -0.82658,0.18152 -1.50285,0.49737 -1.50285,0.70184 0,0.20445 -1.20065,0.67314 -2.6681,1.04152 -1.46747,0.36837 -2.89682,0.82895 -3.17633,1.02351 -0.50056,0.34843 -4.38611,1.54815 -5.01401,1.54815 -0.17729,0 -0.3222,-0.46307 -0.3222,-1.02901 z m 15.8816,-1.36383 c -0.93712,-0.34361 -0.77181,-0.93806 0.28293,-1.01752 0.50502,-0.038 2.26948,-0.54409 3.92103,-1.12457 3.57395,-1.25615 4.13269,-1.30589 3.29215,-0.2931 -0.34797,0.41928 -0.94771,0.76233 -1.33275,0.76233 -0.38506,0 -0.70009,0.22869 -0.70009,0.50821 0,0.27951 -0.86905,0.50822 -1.93121,0.50822 -1.06216,0 -2.14847,0.20009 -2.414,0.44468 -0.26555,0.24458 -0.76867,0.33987 -1.11806,0.21175 z m -16.6415,-1.66896 c -0.17403,-0.28167 -0.19151,-0.71444 -0.0386,-0.96172 0.36683,-0.59355 3.33957,-1.01974 3.33957,-0.4788 0,0.23111 -0.3267,0.42019 -0.726,0.42019 -0.39932,0 -1.07083,0.3448 -1.49223,0.76623 -0.47501,0.47501 -0.88651,0.57157 -1.08272,0.2541 z m 25.66224,-1.52853 c -0.59625,-0.38533 -0.46439,-0.49434 0.60526,-0.50043 0.75219,-0.004 1.50894,0.22091 1.68168,0.50043 0.40108,0.64892 -1.28278,0.64892 -2.28694,0 z m -19.27367,-0.48451 c -0.47578,-0.29405 -0.43304,-0.46673 0.17306,-0.69936 0.44271,-0.1698 0.80493,-0.62737 0.80493,-1.01666 0,-0.47221 0.4042,-0.63052 1.21437,-0.47564 0.6679,0.12773 1.75421,-0.10526 2.414,-0.51762 0.6598,-0.41238 2.07233,-0.87967 3.13895,-1.03842 2.72955,-0.40629 2.18982,0.63474 -0.95733,1.84654 -1.37865,0.53085 -2.964,1.14969 -3.52305,1.37523 -2.00153,0.80749 -2.6424,0.91071 -3.26501,0.52593 z m -7.1533,-1.48979 c 0,-0.77815 0.5166,-1.0224 2.75356,-1.30189 1.57448,-0.19673 3.23992,-0.76584 3.88935,-1.32908 0.62468,-0.54178 1.88215,-0.98506 2.79439,-0.98506 0.91225,0 1.73487,-0.19245 1.82804,-0.42765 0.21331,-0.53851 3.47845,-1.20265 3.45681,-0.70313 -0.0423,0.97258 -2.87271,2.23445 -6.59693,2.94092 -2.26498,0.42966 -4.91234,1.22727 -5.88304,1.77247 -2.17067,1.21921 -2.24218,1.22027 -2.24218,0.0334 z m 17.27917,-2.26112 c 0,-0.44582 1.00281,-1.13312 2.414,-1.6545 1.3277,-0.49051 2.69988,-1.10916 3.04927,-1.37479 0.43458,-0.33036 0.632,-0.26259 0.62493,0.21457 -0.008,0.57225 -1.57375,1.50543 -5.70704,3.40243 -0.20963,0.0962 -0.38116,-0.16827 -0.38116,-0.58771 z m -17.76732,-1.70298 c -0.8585,-0.60131 -0.96083,-0.90948 -0.49029,-1.47646 0.32708,-0.39409 1.12492,-0.71651 1.77298,-0.71651 1.07783,0 2.34579,-0.96161 1.39534,-1.05823 -3.75608,-0.38178 -4.73094,-0.77051 -4.73094,-1.88651 0,-1.54494 2.13398,-3.15382 4.18315,-3.15382 1.00686,0 1.90691,-0.18055 2.00009,-0.40131 0.0932,-0.22072 1.48439,-0.89901 3.09162,-1.50733 2.11376,-0.80003 2.9222,-0.92801 2.9222,-0.46264 0,0.35385 -0.24987,0.89325 -0.55528,1.19867 -0.40158,0.40158 -0.40158,0.8425 0,1.59286 0.72172,1.34858 0.71552,4.50285 -0.01,4.95109 -0.73607,0.45492 -1.45021,-0.70449 -1.46004,-2.37034 -0.004,-0.72535 -0.46343,-1.73118 -1.02035,-2.23518 -0.94082,-0.85145 -1.18381,-0.86168 -3.43041,-0.14463 -1.7538,0.55974 -2.41788,1.03404 -2.41788,1.72695 0,0.72059 0.4365,0.9967 1.7767,1.12386 0.97719,0.0928 2.06349,0.40659 2.414,0.6975 2.42979,2.01653 -2.79557,5.97512 -5.44116,4.12207 z m 16.51617,-1.71612 c 0.27452,-0.44418 1.49503,-1.07906 2.77578,-1.4439 0.13984,-0.0398 1.34041,-0.39931 2.66811,-0.7989 1.32771,-0.39958 2.414,-0.53506 2.414,-0.30104 0,0.79861 -2.76355,2.23832 -4.406,2.29537 -0.90145,0.0313 -1.80352,0.22141 -2.00459,0.42246 -0.57566,0.57568 -1.81828,0.42628 -1.4473,-0.17403 z m 10.78011,0.15885 c -0.48915,-0.11102 -0.88936,-0.41387 -0.88936,-0.67289 0,-0.61398 1.88555,-0.6122 2.26523,0.002 0.38053,0.61571 -0.25466,0.92536 -1.37587,0.67076 z m -1.49288,-3.52386 c 0.36687,-0.14674 0.8052,-0.12869 0.97408,0.0402 0.16883,0.16884 -0.13119,0.289 -0.66702,0.26693 -0.59205,-0.0244 -0.71246,-0.14483 -0.30706,-0.30704 z m -12.9224,-0.84764 c -2.58341,-2.95473 -2.16174,-5.99199 0.98747,-7.11274 1.55392,-0.55301 3.89885,2.21922 3.89885,4.60934 0,1.08366 -0.27444,2.24472 -0.60985,2.58013 -0.79873,0.79873 -3.55425,0.74929 -4.27647,-0.0766 z m 3.62368,-2.38756 c 0.32423,-1.02155 -0.88182,-3.53259 -1.69669,-3.53259 -0.75069,0 -1.61457,1.22366 -1.61457,2.28696 0,2.18673 2.69125,3.19912 3.31126,1.24563 z m 3.95752,0.42296 c -0.2788,-0.35869 -0.89613,-1.873 -1.3718,-3.36514 -1.00498,-3.15251 -0.65312,-3.94149 1.97785,-4.43506 1.75357,-0.32898 3.81403,0.42764 3.81403,1.40055 0,0.31318 -0.55267,1.294 -1.22814,2.17958 -0.67548,0.88561 -1.30439,2.26172 -1.39759,3.05805 -0.189,1.61497 -1.02265,2.15485 -1.79435,1.16202 z m 2.38723,-6.06716 c 0,-1.13164 -1.63522,-1.26681 -2.5141,-0.20783 -0.45972,0.55396 -0.46499,0.99278 -0.0217,1.82091 0.55732,1.04135 0.6284,1.05081 1.5599,0.20781 0.5368,-0.48578 0.97599,-1.30518 0.97599,-1.82089 z m 4.5739,3.63624 c 0,-0.27951 0.2287,-0.5082 0.50822,-0.5082 0.27951,0 0.5082,0.22869 0.5082,0.5082 0,0.27952 -0.22869,0.50821 -0.5082,0.50821 -0.27952,0 -0.50822,-0.22869 -0.50822,-0.50821 z m -1.37057,-4.83978 c -1.17165,-2.35973 -0.87066,-3.40115 0.53431,-1.84869 0.92911,1.02667 1.70982,4.16085 1.02684,4.12234 -0.24458,-0.0134 -0.94709,-1.03692 -1.56115,-2.27365 z m -22.76947,-6.46945 c -0.74822,-1.93628 -1.35164,-2.72231 -2.28694,-2.97895 -1.11483,-0.30591 -1.04944,-0.35483 0.53362,-0.39928 0.99228,-0.0279 2.12968,-0.33652 2.52758,-0.68591 0.39787,-0.34942 0.29912,-0.12659 -0.21945,0.49518 -0.89208,1.06956 -0.89654,1.20117 -0.0826,2.44331 0.47311,0.72209 0.78912,1.86256 0.70225,2.53442 -0.12716,0.98356 -0.356,0.70912 -1.17442,-1.40877 z m -4.828,-2.41247 c 0,-0.27951 0.22871,-0.5082 0.50822,-0.5082 0.27952,0 0.50821,0.22869 0.50821,0.5082 0,0.27951 -0.22869,0.50821 -0.50821,0.50821 -0.27951,0 -0.50822,-0.2287 -0.50822,-0.50821 z m 26.31672,-19.15089 c -1.06864,-0.28069 -4.60588,-3.74577 -4.21886,-4.13279 0.15328,-0.15328 1.0185,0.40313 1.92274,1.23643 2.01751,1.85922 3.64079,2.6465 5.96386,2.89246 1.4508,0.15366 1.35709,0.19244 -0.5082,0.21069 -1.25784,0.0115 -2.67961,-0.0807 -3.15954,-0.20679 z m 6.20881,-0.61164 c 0,-0.51762 4.518,-1.29942 4.95929,-0.85814 0.16077,0.16077 -0.18978,0.29223 -0.77893,0.29223 -0.58911,0 -1.21246,0.22869 -1.38522,0.50821 -0.38821,0.62815 -2.79514,0.67785 -2.79514,0.0576 z m -6.93599,-3.25038 c -1.19736,-0.82079 -1.666,-1.59046 -1.86307,-3.05966 -0.30873,-2.3018 -0.53867,-2.61814 -1.60543,-2.20878 -0.60601,0.23255 -0.73299,0.81486 -0.54007,2.47677 l 0.25222,2.17277 -0.56846,-1.98914 c -0.422,-1.47663 -0.41942,-2.22778 0.01,-2.91533 0.31814,-0.50939 0.5804,-1.21515 0.58282,-1.56833 0.004,-0.69343 3.37492,-4.45375 3.99165,-4.45375 0.844,0 1.59427,1.3154 1.59427,2.79516 0,0.86651 0.27444,1.8499 0.60985,2.18531 0.33881,0.33881 0.38399,0.60986 0.10161,0.60986 -0.98929,0 -1.66973,-1.18189 -1.43249,-2.48811 0.27874,-1.53479 -0.43355,-2.88271 -1.25503,-2.37501 -0.31077,0.19208 -0.56505,0.90026 -0.56505,1.57379 0,0.87972 -0.21466,1.1422 -0.7623,0.93206 -0.89306,-0.3427 -1.05387,1.58996 -0.28927,3.47682 0.26017,0.64207 0.60391,1.78175 0.76388,2.53265 0.20842,0.97844 0.79436,1.54734 2.06801,2.00789 0.97745,0.35344 1.77718,0.82538 1.77718,1.04875 0,0.70206 -1.21028,0.38424 -2.87031,-0.75372 z m 0.90362,-2.77887 c -1.42988,-1.19372 -1.64285,-1.65719 -1.45971,-3.17633 l 0.21444,-1.77866 0.0813,1.89274 c 0.0667,1.54931 0.35796,2.03579 1.60596,2.68116 0.83854,0.43364 1.52463,1.01124 1.52463,1.28357 0,0.70194 -0.0995,0.65628 -1.96666,-0.90248 z m 7.04878,0.38122 c -1.66234,-1.30031 -0.69287,-1.30031 1.27053,0 0.83854,0.55536 1.18159,1.00615 0.76232,1.00177 -0.41927,-0.004 -1.33405,-0.45517 -2.03285,-1.00177 z m -5.08211,-2.49347 c 0,-0.25335 0.45738,-0.34103 1.01643,-0.19484 0.55903,0.14617 1.01641,0.35348 1.01641,0.46064 0,0.10718 -0.45738,0.19483 -1.01641,0.19483 -0.55905,0 -1.01643,-0.20727 -1.01643,-0.46063 z m 142.29913,-0.26265 c 2e-5,-0.30099 0.80045,-1.1859 1.77874,-1.96649 0.9783,-0.78059 1.77873,-1.75254 1.77873,-2.1599 0,-0.40736 0.25316,-0.74066 0.56258,-0.74066 0.30943,0 0.43095,0.34305 0.27005,0.76233 -0.3532,0.92044 0.46806,1.02134 1.03412,0.12696 0.22114,-0.34941 0.55546,-1.77875 0.74293,-3.17633 l 0.34082,-2.54106 -0.0528,2.76113 c -0.0657,3.43784 0.88357,3.96967 1.70588,0.95573 0.32897,-1.20572 0.90514,-3.107 1.28035,-4.22506 0.6053,-1.80365 0.67018,-1.86095 0.57543,-0.50821 -0.0693,0.99102 0.11563,1.48015 0.52849,1.39757 1.07728,-0.21545 0.70706,0.9275 -0.88937,2.74577 -0.83856,0.95504 -1.52463,2.09205 -1.52463,2.52667 0,0.96547 -1.98012,2.69181 -3.1141,2.71497 -0.45494,0.01 -1.0912,0.33509 -1.41394,0.72395 -0.72948,0.879 -3.60336,1.35954 -3.60334,0.60254 z m 0.0259,-4.38654 c 0.82431,-0.88244 1.49874,-1.80893 1.49874,-2.05889 0,-0.6678 -1.91475,-0.55461 -2.14184,0.12658 -0.13887,0.41661 -0.54643,0.38065 -1.43993,-0.12696 l -1.24623,-0.70814 1.7767,-0.16865 c 2.21295,-0.20998 2.94743,-0.80078 3.14819,-2.53238 0.0983,-0.84807 0.51573,-1.42412 1.11423,-1.53773 0.52636,-0.0999 1.44114,-0.72672 2.03284,-1.39287 1.1349,-1.27767 5.39564,-2.33726 5.39564,-1.34183 0,0.28906 -0.43958,0.41063 -0.97684,0.27014 -0.8063,-0.21086 -1.06297,0.13023 -1.4702,1.95336 -0.4517,2.02221 -0.49797,2.07183 -0.54781,0.58713 -0.03,-0.89192 -0.27306,-1.75682 -0.5403,-1.92199 -0.74416,-0.45992 -2.10885,1.97904 -2.46965,4.41369 l -0.32296,2.17926 -0.26653,-1.92263 c -0.4011,-2.89308 -1.27808,-2.27943 -1.31852,0.92262 -0.0373,2.94581 -0.60305,3.92895 -2.60667,4.52897 -1.0061,0.3013 -0.96807,0.1746 0.38114,-1.26972 z m 10.43481,-0.71344 c 1.09476,-0.96668 2.21916,-1.75759 2.49867,-1.75759 0.27952,0 -0.38748,0.79091 -1.48224,1.75759 -1.09476,0.96666 -2.21917,1.75756 -2.49869,1.75756 -0.27951,0 0.3875,-0.7909 1.48226,-1.75756 z m -146.66128,0.74115 c -0.67762,-0.43792 -0.67762,-0.48955 0,-0.46471 0.41927,0.0154 1.21971,0.22448 1.77874,0.46471 l 1.01643,0.43677 -1.01643,0.0281 c -0.55903,0.0154 -1.35947,-0.19375 -1.77874,-0.4647 z m 149.68133,-4.06569 c 0.84439,-3.32127 0.86045,-3.68509 0.18344,-4.15843 -0.5831,-0.40773 -0.57317,-0.45734 0.0574,-0.2873 1.08785,0.29333 1.18911,1.91273 0.24736,3.956 -0.50012,1.08506 -0.68741,1.27292 -0.4883,0.48973 z m -21.98629,0.14348 c 0.7725,-0.11678 1.91599,-0.11371 2.54106,0.008 0.62506,0.12062 -0.008,0.2162 -1.40459,0.2124 -1.39757,-0.004 -1.90898,-0.10257 -1.13647,-0.21934 z"
       id="path125"
       inkscape:connector-curvature="0" />
  </g>
</svg>
