<?xml version="1.0" encoding="UTF-8" standalone="no"?>
<!-- Created with Inkscape (http://www.inkscape.org/) -->

<svg
   xmlns:dc="http://purl.org/dc/elements/1.1/"
   xmlns:cc="http://creativecommons.org/ns#"
   xmlns:rdf="http://www.w3.org/1999/02/22-rdf-syntax-ns#"
   xmlns:svg="http://www.w3.org/2000/svg"
   xmlns="http://www.w3.org/2000/svg"
   xmlns:sodipodi="http://sodipodi.sourceforge.net/DTD/sodipodi-0.dtd"
   xmlns:inkscape="http://www.inkscape.org/namespaces/inkscape"
   width="210.00005mm"
   height="194.94864mm"
   viewBox="0 0 210.00005 194.94864"
   version="1.1"
   id="svg8"
   inkscape:version="0.92.3 (2405546, 2018-03-11)"
   sodipodi:docname="unions.svg">
  <defs
     id="defs2" />
  <sodipodi:namedview
     id="base"
     pagecolor="#ffffff"
     bordercolor="#666666"
     borderopacity="1.0"
     inkscape:pageopacity="0.0"
     inkscape:pageshadow="2"
     inkscape:zoom="0.49497475"
     inkscape:cx="411.73611"
     inkscape:cy="334.67288"
     inkscape:document-units="mm"
     inkscape:current-layer="layer1"
     showgrid="false"
     fit-margin-top="0"
     fit-margin-left="0"
     fit-margin-right="0"
     fit-margin-bottom="0"
     inkscape:window-width="1920"
     inkscape:window-height="1017"
     inkscape:window-x="-8"
     inkscape:window-y="-8"
     inkscape:window-maximized="1" />
  <metadata
     id="metadata5">
    <rdf:RDF>
      <cc:Work
         rdf:about="">
        <dc:format>image/svg+xml</dc:format>
        <dc:type
           rdf:resource="http://purl.org/dc/dcmitype/StillImage" />
        <dc:title></dc:title>
      </cc:Work>
    </rdf:RDF>
  </metadata>
  <g
     inkscape:label="Layer 1"
     inkscape:groupmode="layer"
     id="layer1"
     transform="translate(-356.47934,812.53593)">
    <path
       style="fill:#000000;stroke-width:0.57394463"
       d="m 461.30824,-617.72088 c -0.0809,-0.0783 -6.47496,-0.32575 -14.20887,-0.54999 -7.7339,-0.22423 -14.31993,-0.60461 -14.6356,-0.84528 -0.31566,-0.24068 -6.6434,-0.62338 -14.06164,-0.85045 -7.41823,-0.22708 -15.03734,-0.50004 -16.93137,-0.60659 -1.894,-0.10651 -7.40112,-0.3353 -12.238,-0.50834 -4.83688,-0.1731 -9.03384,-0.46265 -9.3266,-0.64359 -0.29274,-0.18091 -0.53227,-0.0805 -0.53227,0.22304 0,0.32543 -1.47235,0.43294 -3.58714,0.26192 -1.97295,-0.15966 -6.91751,-0.45728 -10.98792,-0.66162 -6.0487,-0.30363 -7.51183,-0.54819 -8.00872,-1.33855 -0.43439,-0.69093 -0.41495,-1.34643 0.0681,-2.29578 0.48583,-0.95494 0.76826,-11.25902 1.00399,-36.62635 0.35697,-38.4163 0.53309,-46.10333 1.41367,-61.69903 0.32084,-5.68206 0.58347,-17.61204 0.58366,-26.51106 2.4e-4,-11.41469 0.19154,-16.29821 0.64932,-16.58117 0.35695,-0.22061 3.8119,-0.35419 7.67763,-0.29686 6.12474,0.0909 7.07645,-0.0195 7.40028,-0.86418 0.20434,-0.53264 0.1987,-5.01088 -0.013,-9.95165 -0.36729,-8.59112 0.32697,-17.74299 1.46107,-19.26001 0.23599,-0.31566 1.03857,-2.11008 1.78353,-3.9876 1.61842,-4.07902 6.49524,-9.33936 9.15081,-9.87047 0.95437,-0.1909 1.73524,-0.57303 1.73524,-0.84924 0,-0.27621 2.7927,-0.5022 6.20597,-0.5022 5.34568,0 6.59879,0.18829 9.03964,1.35836 1.55851,0.74708 3.39581,1.5333 4.0829,1.74712 1.43376,0.44622 8.21905,7.49017 8.22436,8.53789 0.002,0.38305 0.41513,1.47124 0.91818,2.41827 0.50302,0.947 1.35204,3.40061 1.88667,5.45247 l 0.97208,3.73064 8.28515,0.16009 c 4.55684,0.0881 8.53598,0.41087 8.84254,0.71743 0.78967,0.78967 13.35894,0.72218 13.85125,-0.0744 0.22043,-0.35668 1.10125,-0.48959 2.02294,-0.30527 1.86527,0.37306 3.3938,-1.21458 3.3938,-3.52504 0,-0.73531 0.50424,-2.29206 1.12054,-3.45944 0.6163,-1.16737 1.58485,-3.34835 2.1523,-4.8466 0.56745,-1.49825 1.22545,-2.72504 1.4622,-2.72623 0.23675,-10e-4 0.43046,-0.33472 0.43046,-0.74117 0,-1.01449 5.08652,-5.7835 7.05782,-6.61724 0.88294,-0.37344 2.35278,-0.67897 3.26631,-0.67897 0.91353,0 1.82058,-0.25827 2.01568,-0.57394 0.39244,-0.635 5.61191,-0.79713 6.21595,-0.19306 0.20955,0.20954 1.68364,0.83964 3.27593,1.40039 1.5923,0.56073 3.39774,1.61615 4.01211,2.34536 1.38669,1.64589 5.72315,9.37541 5.72315,10.20122 0,0.33398 0.4886,1.70209 1.08579,3.04023 0.59719,1.33816 1.23478,2.88501 1.41684,3.43742 0.36213,1.09866 0.3989,1.10536 6.7812,1.23413 5.11036,0.10304 6.18745,0.76162 7.38292,4.51362 0.42601,1.33703 1.47658,3.85149 2.33455,5.58766 0.858,1.73619 2.08271,4.31893 2.72158,5.73944 0.63886,1.42052 2.34032,5.08368 3.781,8.14033 1.44068,3.05668 2.6194,5.83313 2.6194,6.1699 0,0.3368 0.19372,0.61331 0.43047,0.61448 0.23675,10e-4 0.90826,1.22799 1.49224,2.72624 0.58396,1.49825 1.918,4.53202 2.9645,6.74171 3.06781,6.47764 4.29592,9.23313 4.29592,9.6387 0,0.20911 0.87234,2.2583 1.93856,4.55384 1.06623,2.29553 2.13412,4.81938 2.37313,5.60854 0.23903,0.78917 0.60982,1.564 0.82401,1.72184 0.2141,0.15792 0.99629,1.96576 1.73797,4.0176 0.74169,2.05187 1.54274,3.98893 1.78014,4.3046 0.23738,0.31567 0.99319,2.25273 1.67956,4.30457 0.68639,2.05187 1.74146,4.8255 2.34462,6.16366 0.60318,1.33816 1.09668,2.69396 1.09668,3.0129 0,0.31896 0.61535,1.80685 1.36747,3.30644 2.32482,4.63534 3.70281,7.75395 5.0088,11.33571 0.6906,1.89403 1.42729,3.5728 1.63712,3.73064 0.20977,0.15792 0.99618,1.96576 1.74745,4.01762 0.7513,2.05184 1.83164,4.50545 2.40079,5.45248 0.56914,0.947 1.03577,2.11919 1.03694,2.60486 10e-4,0.48569 0.52406,1.9062 1.16193,3.1567 0.63789,1.2505 1.6907,3.69417 2.33959,5.43035 0.64888,1.73619 1.57207,3.59158 2.05149,4.12311 1.10323,1.22313 2.42625,4.89418 2.45918,6.82356 l 0.0252,1.47658 -14.74862,-0.20868 c -8.11176,-0.11475 -15.02062,-0.42187 -15.35303,-0.68233 -0.33242,-0.26048 -9.43468,-0.6216 -20.22723,-0.80249 l -19.62286,-0.32892 -0.21236,1.54345 c -0.21454,1.55891 -0.44869,1.31519 -1.27391,-1.32625 -0.2128,-0.68123 -1.34278,-0.8609 -5.41379,-0.8609 -4.41098,0 -5.18462,0.14317 -5.42375,1.0044 -0.15337,0.55242 -0.45353,3.97457 -0.66698,7.60477 -0.21345,3.6302 -0.60472,6.86438 -0.86945,7.18706 -0.26476,0.32269 -0.6401,4.19682 -0.8341,8.60917 -0.39536,8.99223 -1.25456,15.01031 -2.22928,15.61481 -0.58576,0.36326 -17.94176,0.74626 -18.29617,0.40374 z m 18.75885,-6.27424 c 0.16508,-1.57836 0.58012,-7.77696 0.92232,-13.77467 0.76628,-13.43029 0.73801,-13.12972 1.27178,-13.52634 0.24098,-0.17918 0.68357,-15.28817 0.98351,-33.57577 0.29994,-18.28758 0.68032,-36.34945 0.84527,-40.13749 0.84231,-19.34328 1.02539,-39.16362 0.36549,-39.57146 -0.37276,-0.23038 -9.51149,-0.5252 -20.30829,-0.65518 -10.79681,-0.12994 -26.60399,-0.52294 -35.12706,-0.87329 -29.10827,-1.19649 -66.82961,-0.70633 -66.88775,0.86915 -0.013,0.34573 -0.11215,13.76706 -0.22104,29.82516 -0.1217,17.95347 -0.41173,29.3358 -0.75323,29.55814 -0.50858,0.33114 -0.69021,5.55083 -1.59027,45.70324 -0.21389,9.54589 -0.46255,16.87915 -0.98245,28.98418 -0.0338,0.78919 -0.0195,2.72624 0.0343,4.3046 l 0.0959,2.86973 8.94915,0.11866 c 6.01804,0.0798 9.22435,0.34708 9.78932,0.81596 0.63245,0.52489 8.10389,0.71528 30.22079,0.77012 24.39755,0.0605 54.7856,0.68834 55.35047,1.1436 0.0783,0.0631 3.87723,0.0937 8.44205,0.0681 l 8.29971,-0.0466 0.30013,-2.86971 z m -54.39499,-33.38445 c -0.21041,-0.21041 -0.38263,-4.42034 -0.38263,-9.3553 0,-6.21348 -0.21172,-9.18447 -0.68873,-9.6614 -0.53568,-0.53567 -0.53568,-0.8418 0,-1.37747 0.37879,-0.37881 0.68873,-1.37499 0.68873,-2.21373 0,-1.52183 0.0109,-1.52582 5.69148,-1.917 6.98753,-0.48125 8.65713,-0.14859 8.65713,1.72498 0,0.75496 0.002,1.56636 0.007,1.80311 0.004,0.23676 -2.12718,0.55958 -4.73504,0.71744 l -4.74157,0.28697 -0.17354,3.0132 -0.17354,3.0132 h 3.47367 3.47365 v 2.00881 2.00882 h -3.37031 -3.3703 l -0.37738,2.35992 c -0.51947,3.24865 0.12733,3.79081 4.63978,3.88864 4.20777,0.0913 5.34794,0.67069 5.34794,2.71784 0,1.35994 -0.0232,1.36458 -6.79167,1.36458 -3.73543,0 -6.96387,-0.17223 -7.17431,-0.38261 z m 42.7765,-0.16139 c -1.45745,-0.24371 -2.27768,-0.91388 -3.54905,-2.89973 -0.90943,-1.4205 -2.12267,-3.0993 -2.69604,-3.73064 -1.02104,-1.12427 -1.0484,-1.07702 -1.32946,2.2958 l -0.28699,3.44366 h -2.29578 c -1.94875,0 -2.27963,-0.17353 -2.18893,-1.14789 0.0588,-0.63134 0.28985,-5.98502 0.51357,-11.89707 0.3695,-9.76433 0.50432,-10.78012 1.47152,-11.08711 0.58563,-0.1859 1.56057,-0.18048 2.16657,0.0109 0.99699,0.31642 1.07102,0.75699 0.77809,4.63024 -0.2076,2.74582 -0.11324,4.28051 0.26332,4.28051 0.74117,0 5.892,-5.98799 5.892,-6.84959 0,-1.36618 5.28197,-2.39019 6.03598,-1.17019 0.20044,0.32415 -0.94666,2.10258 -2.54888,3.95205 -1.60222,1.84947 -2.91314,3.5615 -2.91314,3.80452 0,0.24302 -0.64569,1.28838 -1.43486,2.32304 -1.50897,1.97832 -1.82147,3.10568 -0.86093,3.10568 0.31567,0 0.57396,0.27629 0.57396,0.614 0,0.33773 0.74368,1.69496 1.65266,3.01609 4.47613,6.50587 4.62588,7.95193 0.75639,7.30485 z m -99.83173,-1.79949 c -1.73737,-1.9423 -2.68678,-5.07993 -1.80765,-5.97396 0.36907,-0.37534 0.7137,-0.31987 1.01208,0.16291 0.24886,0.40264 0.82507,0.58908 1.28052,0.41431 0.51776,-0.19871 1.21892,0.34391 1.87108,1.44794 0.85735,1.45135 1.3556,1.73435 2.7988,1.58969 1.03165,-0.10348 2.01637,-0.64943 2.38762,-1.32389 0.34751,-0.63134 0.85277,-1.30912 1.12282,-1.50615 0.79125,-0.57734 -1.25038,-3.38037 -5.46141,-7.49815 -2.34079,-2.28894 -3.92572,-4.3165 -3.92572,-5.02201 0,-0.65077 -0.25829,-1.18323 -0.57396,-1.18323 -0.92262,0 -0.66923,-1.36107 0.75468,-4.05374 1.41582,-2.67732 2.53385,-3.25935 6.41965,-3.34187 3.36124,-0.0714 5.06771,1.00427 5.71317,3.60122 0.46884,1.88628 0.39055,2.31842 -0.54385,3.00164 -0.97616,0.71379 -1.28484,0.61075 -2.92088,-0.97496 -2.18148,-2.11436 -4.43653,-2.14848 -4.73105,-0.0716 -0.21519,1.51767 3.98025,7.10353 6.08127,8.09667 0.71661,0.33873 1.56133,1.32929 1.87717,2.20126 0.31584,0.87199 0.86275,2.1514 1.21536,2.84317 0.51515,1.01068 0.40005,1.77058 -0.58578,3.86789 -0.67478,1.43554 -1.2269,2.85227 -1.2269,3.14826 0,1.01664 -3.62261,2.34406 -6.39713,2.34406 -2.37742,0 -3.00492,-0.25467 -4.35989,-1.76949 z m 46.05463,1.3453 c -0.31567,-0.2402 -1.19259,-1.59895 -1.9487,-3.01948 -0.75613,-1.4205 -1.8153,-3.0993 -2.35375,-3.73063 -0.53843,-0.63134 -1.1385,-1.59988 -1.33345,-2.1523 -0.19502,-0.55242 -0.75002,-1.0044 -1.23343,-1.0044 -0.71603,0 -0.87894,0.85099 -0.87894,4.59156 v 4.59154 h -2.2706 -2.27063 l 0.25492,-12.12919 c 0.17853,-8.49043 0.46889,-12.38703 0.96816,-12.98861 0.56984,-0.6866 1.60593,-0.79057 5.15296,-0.51703 4.72701,0.36452 8.04094,1.87452 9.88176,4.50269 1.85424,2.64727 0.52877,6.378 -3.03629,8.54604 -0.98611,0.59969 -1.79294,1.31289 -1.79294,1.58487 0,0.272 1.43276,2.63508 3.18388,5.2513 1.75114,2.61621 3.10485,5.17394 3.00826,5.68382 -0.18916,0.99856 -4.26358,1.6022 -5.33121,0.78982 z m -4.87854,-15.52757 c 0,-0.2504 0.83939,-0.70236 1.86533,-1.0044 1.55209,-0.45693 1.86531,-0.83 1.86531,-2.22165 0,-1.3032 -0.42766,-1.91141 -1.93685,-2.75455 -1.06527,-0.59511 -2.35666,-1.00134 -2.86973,-0.9027 -1.29601,0.24911 -1.86594,4.68436 -0.79789,6.20921 0.79488,1.13483 1.87383,1.523 1.87383,0.67409 z m 37.88035,15.43548 -1.43486,-0.39565 -0.15489,-12.17082 -0.15488,-12.1708 h 2.3184 2.31839 l -0.15466,12.43582 c -0.0957,7.69255 -0.37359,12.48566 -0.72863,12.56649 -0.31567,0.0718 -1.21963,-0.0475 -2.0088,-0.26504 z m -59.45851,-10.14859 c 0.21432,-5.23435 0.53752,-10.25619 0.71821,-11.15965 0.32576,-1.62884 0.30259,-1.64418 -2.74996,-1.81843 -3.01898,-0.17246 -3.08202,-0.21216 -3.25989,-2.0615 l -0.18135,-1.88576 3.91201,0.0464 c 2.15162,0.0256 5.78451,0.19436 8.07312,0.37484 4.1272,0.32565 4.1611,0.34181 4.1611,1.98273 0,1.54337 -0.15184,1.6544 -2.2619,1.6544 -1.24406,0 -2.43682,0.28302 -2.65058,0.6289 -0.21388,0.34589 -0.50686,5.05941 -0.65131,10.47448 -0.14447,5.41509 -0.36409,10.16844 -0.4881,10.56305 -0.13298,0.42315 -1.2069,0.71741 -2.61823,0.71741 h -2.39276 l 0.38966,-9.51698 z m -5.21602,-100.75812 c 1.736,-0.90243 1.70432,-0.82358 0.86839,-2.16215 -0.60238,-0.96455 -0.61028,-1.43035 -0.0397,-2.34389 0.94197,-1.50831 0.96047,-11.00863 0.0232,-11.94583 -0.53567,-0.53569 -0.53567,-0.68873 0,-0.68873 0.47428,0 0.69652,-1.38497 0.71375,-4.44807 0.0455,-8.12165 1.36239,-11.30779 7.05666,-17.07486 l 2.26679,-2.29578 -1.948,-0.19328 c -2.15457,-0.21367 -4.96591,1.05974 -7.57383,3.43081 -2.43847,2.21698 -4.22896,5.60753 -5.56454,10.53712 -0.4276,1.57834 -1.05487,3.05451 -1.39391,3.28035 -0.85557,0.5699 -0.69604,16.95768 0.17354,17.82727 0.3547,0.35469 0.6449,2.01375 0.6449,3.68679 0,3.01178 0.0174,3.04191 1.75955,3.04191 0.96777,0 2.32372,-0.29326 3.01321,-0.65169 z m 83.04077,-3.53812 c 0,-2.40825 -0.28252,-4.4723 -0.66442,-4.8542 -0.50313,-0.50313 -0.50317,-0.85867 -2.4e-4,-1.46469 0.49678,-0.59858 0.50162,-1.2666 0.0195,-2.65055 -0.47745,-1.36963 -0.47739,-2.01791 2.4e-4,-2.49554 0.35488,-0.35488 0.64829,-2.07867 0.65205,-3.83063 0.006,-3.24829 1.19685,-8.72527 2.16423,-9.96163 0.2948,-0.37677 0.94125,-1.90277 1.43653,-3.39109 0.4953,-1.48829 1.82327,-3.91448 2.95108,-5.39151 1.12779,-1.47701 2.05052,-2.90663 2.05052,-3.17692 0,-0.83056 -3.05679,-0.49823 -4.93958,0.53706 -3.15529,1.73498 -5.08448,3.77678 -6.62037,7.00678 -2.43651,5.12402 -2.7045,6.01055 -3.41757,11.3061 -0.37411,2.77823 -0.90219,5.29667 -1.17354,5.59655 -0.68804,0.76043 -0.61717,3.04114 0.10847,3.48959 0.41139,0.25428 0.38916,0.62817 -0.0703,1.18178 -0.4832,0.5822 -0.49103,0.8098 -0.028,0.8098 0.43033,0 0.64422,1.77867 0.64422,5.35683 0,2.94624 0.17224,5.529 0.38263,5.73944 0.21042,0.21041 1.7601,0.38263 3.44367,0.38263 h 3.06104 v -4.1898 z m -72.31703,2.48744 c 0,-0.62064 -0.41621,-2.10572 -0.92492,-3.30019 -2.16731,-5.08891 -2.9906,-6.92909 -4.37392,-9.77652 -0.80514,-1.65726 -1.23365,-3.01321 -0.95226,-3.01321 0.28142,0 0.51164,-0.3558 0.51164,-0.79064 0,-0.43485 0.38743,-1.11217 0.86093,-1.50513 0.68793,-0.57094 1.03878,-0.56689 1.74615,0.0195 0.67051,0.55648 1.0464,0.57353 1.54966,0.0703 0.43663,-0.43667 3.28124,-0.66444 8.29786,-0.66444 7.17346,0 7.63347,-0.067 7.63347,-1.11402 0,-0.6127 -0.21721,-1.24824 -0.48266,-1.4123 -0.26547,-0.16399 -0.95318,-2.03657 -1.52827,-4.16114 -1.53133,-5.65716 -6.87458,-12.82665 -9.55943,-12.82665 -1.65473,0 -6.42576,4.14264 -8.11488,7.0461 -0.77561,1.33319 -1.70008,3.79263 -2.0544,5.46544 -0.69045,3.25985 -0.86965,19.10421 -0.27229,24.07743 l 0.36192,3.01321 h 3.6507 c 3.24707,0 3.6507,-0.12473 3.6507,-1.12842 z m 90.45519,-20.91502 c 0.30988,-0.8075 -1.15837,-5.81732 -2.03006,-6.92669 -0.2541,-0.32341 -0.76158,-1.51897 -1.1277,-2.65682 -0.76717,-2.38417 -4.36334,-6.82733 -5.52584,-6.82733 -1.30054,0 -3.62473,3.58332 -4.86786,7.50496 -0.64279,2.02782 -1.55033,4.5008 -2.01678,5.49553 -0.46645,0.9947 -0.84809,2.35065 -0.84809,3.0132 0,1.16632 0.25617,1.20465 8.05324,1.20465 6.39212,0 8.11714,-0.1666 8.36309,-0.8075 z"
       id="path383"
       inkscape:connector-curvature="0" />
  </g>
</svg>
